<svg width="206" height="119" viewBox="0 0 206 119" fill="none" xmlns="http://www.w3.org/2000/svg">
<path d="M204.012 46.5059C204.012 71.6381 158.648 92.0117 102.688 92.0117C46.7292 92.0117 1.36523 71.6381 1.36523 46.5059M204.012 46.5059C204.012 21.3737 158.648 1 102.688 1C46.7292 1 1.36523 21.3737 1.36523 46.5059M204.012 46.5059V74.8948M1.36523 46.5059V74.8948" stroke="black" stroke-width="2" stroke-linejoin="round"/>
<path d="M189.003 44.833C189.003 63.9704 150.36 79.4843 102.691 79.4843C55.0222 79.4843 16.3789 63.9704 16.3789 44.833C16.3789 25.6957 55.0222 10.1818 102.691 10.1818C150.36 10.1818 189.003 25.6957 189.003 44.833Z" stroke="#1D2D31" stroke-width="2"/>
<path fill-rule="evenodd" clip-rule="evenodd" d="M102.691 52.6087C108.071 52.6087 112.165 50.9133 112.165 48.9604H126.74C126.74 54.2575 115.817 58.446 102.691 58.446V52.6087Z" fill="#31C971"/>
<path fill-rule="evenodd" clip-rule="evenodd" d="M128.563 42.3934C128.563 40.3804 124.479 38.7451 119.453 38.7451V32.9078C132.529 32.9078 143.138 37.1565 143.138 42.3934H128.563Z" fill="url(#paint0_linear)"/>
<path fill-rule="evenodd" clip-rule="evenodd" d="M76.8212 42.2476C76.8212 44.3411 81.0675 46.0418 86.295 46.0418V51.879C73.0179 51.879 62.2461 47.565 62.2461 42.2476H76.8212Z" fill="url(#paint1_linear)"/>
<path fill-rule="evenodd" clip-rule="evenodd" d="M103.054 31.8863C98.1775 31.8863 93.9442 33.5262 93.9442 35.6806H79.3691C79.3691 30.424 89.8276 26.0491 103.054 26.0491V31.8863Z" fill="url(#paint2_linear)"/>
<path fill-rule="evenodd" clip-rule="evenodd" d="M112.168 35.6076C112.168 33.5543 108.003 31.8863 102.876 31.8863V26.0491C116.053 26.0491 126.743 30.3305 126.743 35.6076C126.743 40.8847 116.053 45.1661 102.876 45.1661C97.7496 45.1661 93.5849 46.8341 93.5849 48.8874C93.5849 50.9407 97.7496 52.6086 102.876 52.6086V58.4459C89.7 58.4459 79.0098 54.1645 79.0098 48.8874C79.0098 43.6102 89.7 39.3289 102.876 39.3289C108.003 39.3289 112.168 37.6609 112.168 35.6076Z" fill="url(#paint3_linear)"/>
<path fill-rule="evenodd" clip-rule="evenodd" d="M86.1128 38.5992C80.9859 38.5992 76.8212 40.2672 76.8212 42.3205H62.2461C62.2461 37.0433 72.9363 32.762 86.1128 32.762C99.2893 32.762 109.98 37.0433 109.98 42.3205C109.98 44.3738 114.144 46.0417 119.271 46.0417C124.398 46.0417 128.563 44.3738 128.563 42.3205H143.138C143.138 47.5976 132.448 51.879 119.271 51.879C106.095 51.879 95.4044 47.5976 95.4044 42.3205C95.4044 40.2672 91.2397 38.5992 86.1128 38.5992Z" fill="url(#paint4_linear)"/>
<path d="M7.61914 62.3702V87.0018" stroke="#1D2D31" stroke-width="2"/>
<path d="M19.2949 72.3899V97.0215" stroke="#1D2D31" stroke-width="2"/>
<path d="M37.6387 81.9921V106.624" stroke="#1D2D31" stroke-width="2"/>
<path d="M65.9941 88.6719V113.303" stroke="#1D2D31" stroke-width="2"/>
<path d="M103.104 92.0117V116.643" stroke="#1D2D31" stroke-width="2"/>
<path d="M140.215 88.6719V113.303" stroke="#1D2D31" stroke-width="2"/>
<path d="M168.566 81.1571V105.789" stroke="#1D2D31" stroke-width="2"/>
<path d="M186.916 71.9724V96.604" stroke="#1D2D31" stroke-width="2"/>
<path d="M198.172 61.9528V86.5844" stroke="#1D2D31" stroke-width="2"/>
<path d="M204.012 71.5549C204.012 96.6871 158.648 117.061 102.688 117.061C46.7292 117.061 1.36523 96.6871 1.36523 71.5549" stroke="black" stroke-width="2" stroke-linejoin="round"/>
<defs>
<linearGradient id="paint0_linear" x1="127.652" y1="35.8265" x2="127.652" y2="42.3934" gradientUnits="userSpaceOnUse">
<stop stop-color="#094526"/>
<stop offset="1" stop-color="#1C834F"/>
</linearGradient>
<linearGradient id="paint1_linear" x1="80.4467" y1="42.2476" x2="79.4231" y2="52.4716" gradientUnits="userSpaceOnUse">
<stop stop-color="#4BD184"/>
<stop offset="1" stop-color="#6BEFA2"/>
</linearGradient>
<linearGradient id="paint2_linear" x1="83.7417" y1="34.1483" x2="92.4956" y2="22.1884" gradientUnits="userSpaceOnUse">
<stop stop-color="#117043"/>
<stop offset="1" stop-color="#28A55F"/>
</linearGradient>
<linearGradient id="paint3_linear" x1="103.059" y1="28.9677" x2="115.693" y2="46.3383" gradientUnits="userSpaceOnUse">
<stop stop-color="#28A55F"/>
<stop offset="1" stop-color="#31C971"/>
</linearGradient>
<linearGradient id="paint4_linear" x1="62.2461" y1="32.762" x2="140.702" y2="59.128" gradientUnits="userSpaceOnUse">
<stop stop-color="#56E391"/>
<stop offset="1" stop-color="#137545"/>
</linearGradient>
</defs>
</svg>