<svg width="491" height="460" viewBox="0 0 491 460" fill="none" xmlns="http://www.w3.org/2000/svg">
<path d="M366.382 160.5C366.382 190.6 312.123 215 245.191 215C178.259 215 124 190.6 124 160.5M366.382 160.5C366.382 130.4 312.123 106 245.191 106C178.259 106 124 130.4 124 160.5M366.382 160.5V194.5M124 160.5V194.5" stroke="#1D2D31" stroke-width="2"/>
<path d="M348.428 158.497C348.428 181.416 302.208 199.997 245.192 199.997C188.176 199.997 141.955 181.416 141.955 158.497C141.955 135.577 188.176 116.997 245.192 116.997C302.208 116.997 348.428 135.577 348.428 158.497Z" stroke="#1D2D31" stroke-width="2"/>
<path fill-rule="evenodd" clip-rule="evenodd" d="M245.193 167.809C251.627 167.809 256.525 165.779 256.525 163.44H273.958C273.958 169.784 260.892 174.8 245.193 174.8V167.809Z" fill="#31C971"/>
<path fill-rule="evenodd" clip-rule="evenodd" d="M276.136 155.575C276.136 153.164 271.252 151.205 265.24 151.205V144.214C280.88 144.214 293.569 149.303 293.569 155.575H276.136Z" fill="url(#paint0_linear)"/>
<path fill-rule="evenodd" clip-rule="evenodd" d="M214.249 155.4C214.249 157.907 219.328 159.944 225.581 159.944V166.935C209.7 166.935 196.816 161.768 196.816 155.4H214.249Z" fill="url(#paint1_linear)"/>
<path fill-rule="evenodd" clip-rule="evenodd" d="M245.627 142.991C239.795 142.991 234.732 144.955 234.732 147.535H217.299C217.299 141.24 229.808 136 245.627 136V142.991Z" fill="url(#paint2_linear)"/>
<path fill-rule="evenodd" clip-rule="evenodd" d="M256.523 147.448C256.523 144.989 251.542 142.991 245.41 142.991V136C261.17 136 273.956 141.128 273.956 147.448C273.956 153.768 261.17 158.895 245.41 158.895C239.278 158.895 234.296 160.893 234.296 163.352C234.296 165.811 239.278 167.809 245.41 167.809V174.8C229.65 174.8 216.863 169.672 216.863 163.352C216.863 157.032 229.65 151.905 245.41 151.905C251.542 151.905 256.523 149.907 256.523 147.448Z" fill="url(#paint3_linear)"/>
<path fill-rule="evenodd" clip-rule="evenodd" d="M225.363 151.031C219.231 151.031 214.249 153.028 214.249 155.487H196.816C196.816 149.167 209.603 144.04 225.363 144.04C241.123 144.04 253.91 149.167 253.91 155.487C253.91 157.947 258.891 159.944 265.023 159.944C271.155 159.944 276.137 157.947 276.137 155.487H293.57C293.57 161.808 280.783 166.935 265.023 166.935C249.263 166.935 236.476 161.808 236.476 155.487C236.476 153.028 231.495 151.031 225.363 151.031Z" fill="url(#paint4_linear)"/>
<path d="M131.48 179.5V209" stroke="#1D2D31" stroke-width="2"/>
<path d="M145.445 191.5V221" stroke="#1D2D31" stroke-width="2"/>
<path d="M167.389 203V232.5" stroke="#1D2D31" stroke-width="2"/>
<path d="M201.303 211V240.5" stroke="#1D2D31" stroke-width="2"/>
<path d="M245.689 215V244.5" stroke="#1D2D31" stroke-width="2"/>
<path d="M290.076 211V240.5" stroke="#1D2D31" stroke-width="2"/>
<path d="M323.99 202V231.5" stroke="#1D2D31" stroke-width="2"/>
<path d="M345.934 191V220.5" stroke="#1D2D31" stroke-width="2"/>
<path d="M359.4 179V208.5" stroke="#1D2D31" stroke-width="2"/>
<path d="M366.382 190.5C366.382 220.6 312.123 245 245.191 245C178.259 245 124 220.6 124 190.5" stroke="#1D2D31" stroke-width="2"/>
<path opacity="0.2" d="M483 3.60889H412.765L363 73.9999" stroke="#1D2D31"/>
<path opacity="0.2" d="M483 344.391H412.765L363 274" stroke="#1D2D31"/>
<circle r="4" transform="matrix(-1 0 0 1 487 344)" fill="#1D2D31"/>
<circle r="4" transform="matrix(-1 0 0 1 487 4)" fill="#1D2D31"/>
<circle r="4" transform="matrix(-1 0 0 1 246 456)" fill="#1D2D31"/>
<circle r="4" transform="matrix(-1 0 0 1 4 9)" fill="#1D2D31"/>
<path opacity="0.2" d="M8 342.391H78.2353L128 272" stroke="#1D2D31"/>
<circle r="4" transform="matrix(-1 0 0 1 4 343)" fill="#1D2D31"/>
<path opacity="0.2" d="M246 453L246 313" stroke="#1D2D31"/>
<path opacity="0.2" d="M8 8.60889H78.2353L128 78.9999" stroke="#1D2D31"/>
<defs>
<linearGradient id="paint0_linear" x1="275.046" y1="147.71" x2="275.046" y2="155.575" gradientUnits="userSpaceOnUse">
<stop stop-color="#094526"/>
<stop offset="1" stop-color="#1C834F"/>
</linearGradient>
<linearGradient id="paint1_linear" x1="218.586" y1="155.4" x2="217.358" y2="167.644" gradientUnits="userSpaceOnUse">
<stop stop-color="#4BD184"/>
<stop offset="1" stop-color="#6BEFA2"/>
</linearGradient>
<linearGradient id="paint2_linear" x1="222.529" y1="145.7" x2="233.017" y2="131.389" gradientUnits="userSpaceOnUse">
<stop stop-color="#117043"/>
<stop offset="1" stop-color="#28A55F"/>
</linearGradient>
<linearGradient id="paint3_linear" x1="245.628" y1="139.495" x2="260.765" y2="160.28" gradientUnits="userSpaceOnUse">
<stop stop-color="#28A55F"/>
<stop offset="1" stop-color="#31C971"/>
</linearGradient>
<linearGradient id="paint4_linear" x1="196.816" y1="144.04" x2="290.681" y2="175.543" gradientUnits="userSpaceOnUse">
<stop stop-color="#56E391"/>
<stop offset="1" stop-color="#137545"/>
</linearGradient>
</defs>
</svg>
