<svg width="69" height="44" viewBox="0 0 69 44" fill="none" xmlns="http://www.w3.org/2000/svg">
<path opacity="0.07" d="M11.0817 22C11.0817 20.64 11.5817 19.46 12.5817 18.46C13.5817 17.46 14.7617 16.96 16.1217 16.96C17.4817 16.96 18.6617 17.46 19.6617 18.46C20.6617 19.46 21.1617 20.64 21.1617 22C21.1617 23.36 20.6617 24.54 19.6617 25.54C18.6617 26.54 17.4817 27.04 16.1217 27.04C14.7617 27.04 13.5817 26.54 12.5817 25.54C11.5817 24.54 11.0817 23.36 11.0817 22ZM0.641719 17.32C0.641719 11.88 2.00172 7.66 4.72172 4.66C7.48172 1.66 11.2817 0.159997 16.1217 0.159997C20.9617 0.159997 24.7417 1.66 27.4617 4.66C30.2217 7.66 31.6017 11.88 31.6017 17.32V26.68C31.6017 32.28 30.2217 36.54 27.4617 39.46C24.7417 42.38 20.9617 43.84 16.1217 43.84C11.2817 43.84 7.48172 42.38 4.72172 39.46C2.00172 36.54 0.641719 32.28 0.641719 26.68V17.32ZM16.1217 36.64C17.5617 36.64 18.7617 36.42 19.7217 35.98C20.6817 35.5 21.4617 34.84 22.0617 34C22.6617 33.16 23.0817 32.16 23.3217 31C23.5617 29.84 23.6817 28.56 23.6817 27.16V16.84C23.6817 15.52 23.5417 14.28 23.2617 13.12C22.9817 11.96 22.5417 10.96 21.9417 10.12C21.3417 9.28 20.5617 8.62 19.6017 8.14C18.6417 7.62 17.4817 7.36 16.1217 7.36C14.7617 7.36 13.6017 7.62 12.6417 8.14C11.6817 8.62 10.9017 9.28 10.3017 10.12C9.70172 10.96 9.26172 11.96 8.98172 13.12C8.70172 14.28 8.56172 15.52 8.56172 16.84V27.16C8.56172 28.56 8.68172 29.84 8.92172 31C9.16172 32.16 9.58172 33.16 10.1817 34C10.7817 34.84 11.5617 35.5 12.5217 35.98C13.4817 36.42 14.6817 36.64 16.1217 36.64ZM50.34 35.44V4.96H49.26L45.3 19.36H37.74V18.64L42.78 0.999997H58.26V35.44H68.7V43H38.46V35.44H50.34Z" fill="#1D2D31"/>
</svg>