<svg width="68" height="44" viewBox="0 0 68 44" fill="none" xmlns="http://www.w3.org/2000/svg">
<path opacity="0.07" d="M10.5817 22.001C10.5817 20.641 11.0817 19.461 12.0817 18.461C13.0817 17.461 14.2617 16.961 15.6217 16.961C16.9817 16.961 18.1617 17.461 19.1617 18.461C20.1617 19.461 20.6617 20.641 20.6617 22.001C20.6617 23.361 20.1617 24.541 19.1617 25.541C18.1617 26.541 16.9817 27.041 15.6217 27.041C14.2617 27.041 13.0817 26.541 12.0817 25.541C11.0817 24.541 10.5817 23.361 10.5817 22.001ZM0.141719 17.321C0.141719 11.881 1.50172 7.66097 4.22172 4.66097C6.98172 1.66097 10.7817 0.160974 15.6217 0.160974C20.4617 0.160974 24.2417 1.66097 26.9617 4.66097C29.7217 7.66097 31.1017 11.881 31.1017 17.321V26.681C31.1017 32.281 29.7217 36.541 26.9617 39.461C24.2417 42.381 20.4617 43.841 15.6217 43.841C10.7817 43.841 6.98172 42.381 4.22172 39.461C1.50172 36.541 0.141719 32.281 0.141719 26.681V17.321ZM15.6217 36.641C17.0617 36.641 18.2617 36.421 19.2217 35.981C20.1817 35.501 20.9617 34.841 21.5617 34.001C22.1617 33.161 22.5817 32.161 22.8217 31.001C23.0617 29.841 23.1817 28.561 23.1817 27.161V16.841C23.1817 15.521 23.0417 14.281 22.7617 13.121C22.4817 11.961 22.0417 10.961 21.4417 10.121C20.8417 9.28098 20.0617 8.62098 19.1017 8.14097C18.1417 7.62097 16.9817 7.36097 15.6217 7.36097C14.2617 7.36097 13.1017 7.62097 12.1417 8.14097C11.1817 8.62098 10.4017 9.28098 9.80172 10.121C9.20172 10.961 8.76172 11.961 8.48172 13.121C8.20172 14.281 8.06172 15.521 8.06172 16.841V27.161C8.06172 28.561 8.18172 29.841 8.42172 31.001C8.66172 32.161 9.08172 33.161 9.68172 34.001C10.2817 34.841 11.0617 35.501 12.0217 35.981C12.9817 36.421 14.1817 36.641 15.6217 36.641ZM48.28 25.001V12.521L58.72 9.64097V8.56098H37.84V1.00097H65.2V14.201L54.04 17.441V18.521H55.48C56.96 18.521 58.42 18.761 59.86 19.241C61.3 19.681 62.56 20.381 63.64 21.341C64.76 22.301 65.66 23.501 66.34 24.941C67.02 26.341 67.36 28.001 67.36 29.921V30.641C67.36 32.521 67.04 34.261 66.4 35.861C65.8 37.461 64.88 38.861 63.64 40.061C62.44 41.221 60.94 42.141 59.14 42.821C57.34 43.501 55.28 43.841 52.96 43.841C50.6 43.841 48.46 43.461 46.54 42.701C44.62 41.941 42.98 40.901 41.62 39.581C40.3 38.261 39.28 36.741 38.56 35.021C37.84 33.301 37.48 31.481 37.48 29.561V27.041H45.4V29.201C45.4 31.121 46.02 32.781 47.26 34.181C48.5 35.581 50.36 36.281 52.84 36.281C54.96 36.281 56.58 35.741 57.7 34.661C58.86 33.581 59.44 32.161 59.44 30.401C59.44 28.521 58.82 27.161 57.58 26.321C56.38 25.441 54.84 25.001 52.96 25.001H48.28Z" fill="#1D2D31"/>
</svg>
