<svg width="70" height="45" viewBox="0 0 70 45" fill="none" xmlns="http://www.w3.org/2000/svg">
<path opacity="0.07" d="M11.0817 22.5005C11.0817 21.1405 11.5817 19.9605 12.5817 18.9605C13.5817 17.9605 14.7617 17.4605 16.1217 17.4605C17.4817 17.4605 18.6617 17.9605 19.6617 18.9605C20.6617 19.9605 21.1617 21.1405 21.1617 22.5005C21.1617 23.8605 20.6617 25.0405 19.6617 26.0405C18.6617 27.0405 17.4817 27.5405 16.1217 27.5405C14.7617 27.5405 13.5817 27.0405 12.5817 26.0405C11.5817 25.0405 11.0817 23.8605 11.0817 22.5005ZM0.641719 17.8205C0.641719 12.3805 2.00172 8.16049 4.72172 5.16048C7.48172 2.16049 11.2817 0.660486 16.1217 0.660486C20.9617 0.660486 24.7417 2.16049 27.4617 5.16048C30.2217 8.16049 31.6017 12.3805 31.6017 17.8205V27.1805C31.6017 32.7805 30.2217 37.0405 27.4617 39.9605C24.7417 42.8805 20.9617 44.3405 16.1217 44.3405C11.2817 44.3405 7.48172 42.8805 4.72172 39.9605C2.00172 37.0405 0.641719 32.7805 0.641719 27.1805V17.8205ZM16.1217 37.1405C17.5617 37.1405 18.7617 36.9205 19.7217 36.4805C20.6817 36.0005 21.4617 35.3405 22.0617 34.5005C22.6617 33.6605 23.0817 32.6605 23.3217 31.5005C23.5617 30.3405 23.6817 29.0605 23.6817 27.6605V17.3405C23.6817 16.0205 23.5417 14.7805 23.2617 13.6205C22.9817 12.4605 22.5417 11.4605 21.9417 10.6205C21.3417 9.78049 20.5617 9.12049 19.6017 8.64049C18.6417 8.12049 17.4817 7.86049 16.1217 7.86049C14.7617 7.86049 13.6017 8.12049 12.6417 8.64049C11.6817 9.12049 10.9017 9.78049 10.3017 10.6205C9.70172 11.4605 9.26172 12.4605 8.98172 13.6205C8.70172 14.7805 8.56172 16.0205 8.56172 17.3405V27.6605C8.56172 29.0605 8.68172 30.3405 8.92172 31.5005C9.16172 32.6605 9.58172 33.6605 10.1817 34.5005C10.7817 35.3405 11.5617 36.0005 12.5217 36.4805C13.4817 36.9205 14.6817 37.1405 16.1217 37.1405ZM48.42 1.50049H63.42V28.0205H69.54V35.5805H63.42V43.5005H55.5V35.5805H36.78V24.6605L48.42 1.50049ZM43.62 26.9405V28.0205H55.5V5.46049H54.42L43.62 26.9405Z" fill="#1D2D31"/>
</svg>