<svg width="56" height="56" viewBox="0 0 56 56" fill="none" xmlns="http://www.w3.org/2000/svg">
<path d="M20.4776 32.1791V25.375H6.125C5.66087 25.375 5.21575 25.5594 4.88756 25.8876C4.55937 26.2158 4.375 26.6609 4.375 27.125V49.9534H44.625V32.1791H43.0448C43.0448 31.715 39.6118 32.5073 39.2836 32.1791C34.6866 33.0149 20.9417 32.1791 20.4776 32.1791Z" fill="#48FBA5" fill-opacity="0.4"/>
<path d="M53.375 9.625V30.625C53.3736 31.0887 53.1888 31.533 52.8609 31.8609C52.533 32.1888 52.0887 32.3736 51.625 32.375H21.875C21.4113 32.3736 20.967 32.1888 20.6391 31.8609C20.3112 31.533 20.1264 31.0887 20.125 30.625V9.625H53.375Z" fill="#48FBA5" fill-opacity="0.4"/>
<path d="M53.375 4.375V9.625H20.125V4.375C20.1264 3.9113 20.3112 3.46698 20.6391 3.13909C20.967 2.8112 21.4113 2.62638 21.875 2.625H51.625C52.0887 2.62638 52.533 2.8112 52.8609 3.13909C53.1888 3.46698 53.3736 3.9113 53.375 4.375Z" fill="#48FBA5" fill-opacity="0.4"/>
<path d="M46.2685 49.875L45.4985 53.375H3.49852L2.72852 49.875H4.37352H21.8735V50.75H27.1235V49.875H44.6235H46.2685Z" fill="#48FBA5" fill-opacity="0.4"/>
<path d="M51.6236 1.75H21.8736C21.1781 1.75208 20.5116 2.02931 20.0197 2.52114C19.5279 3.01297 19.2507 3.67945 19.2486 4.375V24.5H6.12361C5.42805 24.5021 4.76158 24.7793 4.26975 25.2711C3.77791 25.763 3.50069 26.4294 3.49861 27.125V49H2.72861C2.59937 49.0009 2.47192 49.0303 2.35542 49.0863C2.23893 49.1423 2.13628 49.2234 2.05486 49.3237C1.97201 49.4251 1.91322 49.5438 1.88291 49.6711C1.8526 49.7985 1.85155 49.931 1.87986 50.0588L2.64111 53.5588C2.68321 53.7548 2.79136 53.9304 2.94745 54.0562C3.10354 54.1821 3.29811 54.2505 3.49861 54.25H45.4986C45.6991 54.2505 45.8937 54.1821 46.0498 54.0562C46.2059 53.9304 46.314 53.7548 46.3561 53.5588L47.1174 50.0588C47.1457 49.931 47.1446 49.7985 47.1143 49.6711C47.084 49.5438 47.0252 49.4251 46.9424 49.3237C46.8609 49.2234 46.7583 49.1423 46.6418 49.0863C46.5253 49.0303 46.3979 49.0009 46.2686 49H45.4986V33.25H51.6236C52.3192 33.2479 52.9856 32.9707 53.4775 32.4789C53.9693 31.987 54.2465 31.3206 54.2486 30.625V4.375C54.2465 3.67945 53.9693 3.01297 53.4775 2.52114C52.9856 2.02931 52.3192 1.75208 51.6236 1.75ZM5.24861 27.125C5.24861 26.8929 5.3408 26.6704 5.50489 26.5063C5.66898 26.3422 5.89154 26.25 6.12361 26.25H19.2486V30.625C19.2507 31.3206 19.5279 31.987 20.0197 32.4789C20.5116 32.9707 21.1781 33.2479 21.8736 33.25H43.7486V49H27.1236C26.8915 49 26.669 49.0922 26.5049 49.2563C26.3408 49.4204 26.2486 49.6429 26.2486 49.875H22.7486C22.7486 49.6429 22.6564 49.4204 22.4923 49.2563C22.3282 49.0922 22.1057 49 21.8736 49H5.24861V27.125ZM44.7986 52.5H4.19861L3.82236 50.75H20.9986C20.9986 50.9821 21.0908 51.2046 21.2549 51.3687C21.419 51.5328 21.6415 51.625 21.8736 51.625H27.1236C27.3557 51.625 27.5782 51.5328 27.7423 51.3687C27.9064 51.2046 27.9986 50.9821 27.9986 50.75H45.1749L44.7986 52.5ZM52.4986 30.625C52.4986 30.8571 52.4064 31.0796 52.2423 31.2437C52.0782 31.4078 51.8557 31.5 51.6236 31.5H21.8736C21.6415 31.5 21.419 31.4078 21.2549 31.2437C21.0908 31.0796 20.9986 30.8571 20.9986 30.625V10.5H52.4986V30.625ZM52.4986 8.75H20.9986V4.375C20.9986 4.14294 21.0908 3.92038 21.2549 3.75628C21.419 3.59219 21.6415 3.5 21.8736 3.5H51.6236C51.8557 3.5 52.0782 3.59219 52.2423 3.75628C52.4064 3.92038 52.4986 4.14294 52.4986 4.375V8.75Z" fill="black"/>
<path d="M49 5.25H50.75V7H49V5.25Z" fill="black"/>
<path d="M45.5 5.25H47.25V7H45.5V5.25Z" fill="black"/>
<path d="M42 5.25H43.75V7H42V5.25Z" fill="black"/>
<path d="M31.7562 15.1313L26.5062 20.3813C26.3422 20.5454 26.25 20.768 26.25 21C26.25 21.232 26.3422 21.4545 26.5062 21.6186L31.7562 26.8686L32.9934 25.6313L28.3621 21L32.9934 16.3686L31.7562 15.1313Z" fill="black"/>
<path d="M41.7412 15.1313L40.5039 16.3686L45.1353 21L40.5039 25.6313L41.7412 26.8686L46.9912 21.6186C47.1552 21.4545 47.2473 21.232 47.2473 21C47.2473 20.768 47.1552 20.5454 46.9912 20.3813L41.7412 15.1313Z" fill="black"/>
<path d="M33.2891 28.5803L38.5354 12.8248L40.1961 13.3778L34.9498 29.1333L33.2891 28.5803Z" fill="black"/>
<path d="M14.875 42H22.75V43.75H14.875V42Z" fill="black"/>
<path d="M7 42H13.125V43.75H7V42Z" fill="black"/>
<path d="M7 45.5H19.25V47.25H7V45.5Z" fill="black"/>
<path d="M33.25 42H42V43.75H33.25V42Z" fill="black"/>
<path d="M24.5 42H31.5V43.75H24.5V42Z" fill="black"/>
<path d="M21 45.5H42V47.25H21V45.5Z" fill="black"/>
<path d="M7 31.5H17.5V33.25H7V31.5Z" fill="black"/>
<path d="M7 28H17.5V29.75H7V28Z" fill="black"/>
</svg>