<svg width="57" height="56" viewBox="0 0 57 56" fill="none" xmlns="http://www.w3.org/2000/svg">
<path d="M32.4765 39.5939C32.3243 40.5254 32.0826 41.4251 31.7568 42.2857L34.6793 44.9336C34.2695 45.796 33.8028 46.6248 33.2642 47.4032L29.512 46.1936C28.9202 46.9169 28.2575 47.5787 27.5341 48.1704L28.7438 51.9224C27.9653 52.461 27.1364 52.9267 26.274 53.3374L23.6259 50.4151C22.7653 50.7408 21.8664 50.9826 20.934 51.1347L20.1004 54.995C19.629 55.0323 19.1558 55.0669 18.6742 55.0669C18.1925 55.0669 17.7193 55.0323 17.247 54.995L16.4135 51.1347C15.4819 50.9826 14.5821 50.7408 13.7215 50.4151L11.0734 53.3374C10.211 52.9276 9.38211 52.461 8.60365 51.9224L9.81335 48.1704C9.08996 47.5787 8.42817 46.916 7.83639 46.1936L4.0841 47.4032C3.54552 46.6248 3.07975 45.796 2.66906 44.9336L5.59155 42.2857C5.26579 41.4251 5.02404 40.5263 4.87189 39.5939L1.01133 38.7604C0.973989 38.2882 0.939453 37.815 0.939453 37.3334C0.939453 36.8518 0.973989 36.3786 1.01133 35.9063L4.87189 35.0728C5.02404 34.1413 5.26579 33.2416 5.59155 32.381L2.66906 29.7332C3.07882 28.8707 3.54552 28.0419 4.0841 27.2635L7.83639 28.4731C8.42817 27.7498 9.09089 27.0881 9.81428 26.4963L8.60459 22.7443C9.38305 22.2057 10.2119 21.74 11.0744 21.3293L13.7225 24.2516C14.5831 23.9259 15.4819 23.6842 16.4144 23.532L17.2479 19.6717C17.7193 19.6344 18.1925 19.5999 18.6742 19.5999C19.1558 19.5999 19.629 19.6344 20.1014 19.6717L20.9349 23.532C21.8664 23.6842 22.7662 23.9259 23.6268 24.2516L26.2749 21.3293C27.1374 21.7391 27.9662 22.2057 28.7447 22.7443L27.535 26.4963C28.2584 27.0881 28.9202 27.7507 29.512 28.4741L33.2642 27.2645C33.8028 28.0429 34.2686 28.8717 34.6793 29.7341L31.7568 32.382C32.0826 33.2425 32.3243 34.1413 32.4765 35.0737L36.337 35.9072C36.3744 36.3786 36.4089 36.8518 36.4089 37.3334C36.4089 37.815 36.3744 38.2882 36.337 38.7604L32.4765 39.5939ZM18.6742 27.9999C13.519 27.9999 9.34011 32.1785 9.34011 37.3334C9.34011 42.4882 13.519 46.6668 18.6742 46.6668C23.8294 46.6668 28.0082 42.4882 28.0082 37.3334C28.0082 32.1785 23.8294 27.9999 18.6742 27.9999Z" fill="#48FBA5" fill-opacity="0.4"/>
<path d="M45.4184 13.3507C45.2728 13.8333 45.0823 14.2962 44.8481 14.7321L46.3219 17.5564C45.8244 18.1855 45.2569 18.7529 44.6278 19.2504L41.8033 17.7767C41.3674 18.0119 40.9044 18.2023 40.4219 18.3469L39.466 21.3896C39.0721 21.4363 38.6745 21.4662 38.2694 21.4662C37.8643 21.4662 37.4667 21.4363 37.0737 21.3906L36.1179 18.3479C35.6353 18.2032 35.1724 18.0119 34.7365 17.7776L31.912 19.2513C31.2829 18.7539 30.7154 18.1864 30.2179 17.5573L31.6917 14.733C31.4565 14.2971 31.2661 13.8342 31.1214 13.3517L28.0785 12.3959C28.0318 12.0021 28.002 11.6045 28.002 11.1994C28.002 10.7943 28.0318 10.3967 28.0776 10.0038L31.1205 9.04803C31.2651 8.56549 31.4565 8.10255 31.6908 7.66668L30.2169 4.84239C30.7144 4.21332 31.2819 3.64584 31.9111 3.14837L34.7355 4.62212C35.1714 4.38692 35.6344 4.19652 36.117 4.05185L37.0728 1.00915C37.4667 0.962484 37.8643 0.932617 38.2694 0.932617C38.6745 0.932617 39.0721 0.962484 39.4651 1.00822L40.4209 4.05091C40.9035 4.19558 41.3665 4.38692 41.8024 4.62119L44.6268 3.14744C45.256 3.64491 45.8235 4.21238 46.321 4.84146L44.8471 7.66575C45.0823 8.10162 45.2728 8.56456 45.4174 9.0471L48.4603 10.0028C48.507 10.3967 48.5369 10.7943 48.5369 11.1994C48.5369 11.6045 48.507 12.0021 48.4613 12.395L45.4184 13.3507ZM38.2694 7.46602C36.2075 7.46602 34.5358 9.13763 34.5358 11.1994C34.5358 13.2611 36.2075 14.9328 38.2694 14.9328C40.3313 14.9328 42.003 13.2611 42.003 11.1994C42.003 9.13763 40.3313 7.46602 38.2694 7.46602Z" fill="#48FBA5" fill-opacity="0.4"/>
<path d="M27.3763 37.1899C27.3763 41.9219 23.54 45.7582 18.8073 45.7582C14.0746 45.7582 10.2383 41.9219 10.2383 37.1899C10.2383 32.4579 14.0746 28.6216 18.8073 28.6216C23.54 28.6216 27.3763 32.4579 27.3763 37.1899Z" stroke="#9DE9C8" stroke-width="4"/>
<path d="M52.9604 34.4127C52.8167 34.9307 52.6141 35.4217 52.3546 35.8799L53.2834 37.8344C52.8615 38.3729 52.377 38.8573 51.8385 39.2792L49.8839 38.3505C49.4265 38.61 48.9346 38.8125 48.4166 38.9562L47.6904 40.9984C47.3553 41.0395 47.0165 41.0665 46.6702 41.0665C46.3239 41.0665 45.9851 41.0395 45.65 40.9984L44.9238 38.9562C44.4057 38.8125 43.9148 38.61 43.4565 38.3505L41.5019 39.2792C40.9633 38.8573 40.4789 38.3729 40.057 37.8344L40.9857 35.8799C40.7263 35.4226 40.5237 34.9307 40.38 34.4137L38.3377 33.6875C38.2966 33.3515 38.2695 33.0127 38.2695 32.6664C38.2695 32.3202 38.2966 31.9814 38.3377 31.6463L40.38 30.9202C40.5237 30.4022 40.7263 29.9112 40.9857 29.4539L40.057 27.4995C40.4789 26.9609 40.9633 26.4765 41.5019 26.0546L43.4565 26.9833C43.9138 26.7238 44.4057 26.5213 44.9238 26.3776L45.65 24.3354C45.9851 24.2934 46.3239 24.2664 46.6702 24.2664C47.0165 24.2664 47.3553 24.2934 47.6904 24.3345L48.4166 26.3766C48.9346 26.5204 49.4256 26.7229 49.8839 26.9824L51.8385 26.0537C52.377 26.4756 52.8615 26.96 53.2834 27.4985L52.3546 29.4529C52.6141 29.9103 52.8167 30.4022 52.9604 30.9202L55.0027 31.6463C55.0438 31.9814 55.0708 32.3202 55.0708 32.6664C55.0708 33.0127 55.0438 33.3515 55.0027 33.6866L52.9604 34.4127ZM46.6702 29.8664C45.1235 29.8664 43.87 31.1199 43.87 32.6664C43.87 34.213 45.1235 35.4665 46.6702 35.4665C48.2168 35.4665 49.4704 34.213 49.4704 32.6664C49.4704 31.1199 48.2168 29.8664 46.6702 29.8664Z" fill="#48FBA5" fill-opacity="0.4"/>
<path d="M0.0746724 38.8339C0.107342 39.2445 0.405098 39.5852 0.80833 39.672L4.06125 40.3739C4.17606 40.9283 4.32167 41.4752 4.49808 42.0091L2.03576 44.2398C1.73054 44.516 1.64279 44.9603 1.82014 45.3327C2.27004 46.2791 2.77128 47.1537 3.30986 47.9321C3.54321 48.2699 3.97071 48.4155 4.36367 48.2895L7.52512 47.2713C7.90315 47.695 8.30545 48.0973 8.72922 48.4753L7.71087 51.6365C7.58486 52.0276 7.72954 52.456 8.06836 52.6903C8.84682 53.2288 9.72143 53.73 10.6679 54.1799C11.0413 54.3572 11.4846 54.2685 11.7609 53.9643L13.9918 51.5021C14.5266 51.6776 15.0736 51.8241 15.628 51.9389L16.3299 55.1916C16.4167 55.5939 16.7574 55.8916 17.1672 55.9252C17.6638 55.9644 18.1613 55.9999 18.6681 55.9999C19.175 55.9999 19.6725 55.9644 20.169 55.9252C20.5797 55.8926 20.9204 55.5948 21.0072 55.1916L21.7092 51.9389C22.2636 51.8241 22.8115 51.6785 23.3454 51.5021L25.5763 53.9643C25.8535 54.2695 26.2978 54.3581 26.6693 54.1799C27.6158 53.73 28.4904 53.2279 29.2688 52.6903C29.6076 52.456 29.7523 52.0276 29.6263 51.6365L28.608 48.4753C29.0317 48.0973 29.434 47.695 29.8121 47.2722L32.9735 48.2905C33.3646 48.4174 33.793 48.2718 34.0273 47.933C34.5659 47.1546 35.0671 46.2801 35.517 45.3337C35.6944 44.9612 35.6066 44.517 35.3014 44.2407L32.8391 42.01C33.0146 41.4752 33.1611 40.9283 33.2759 40.3739L36.5289 39.672C36.9311 39.5852 37.2289 39.2445 37.2625 38.8348C37.3008 38.3373 37.3363 37.8398 37.3363 37.333C37.3363 36.8262 37.3008 36.3288 37.2616 35.8322C37.2289 35.4216 36.9311 35.0809 36.5279 34.9941L33.275 34.2922C33.1602 33.7378 33.0146 33.1899 32.8382 32.6561L35.3005 30.4254C35.6057 30.1491 35.6935 29.7048 35.5161 29.3324C35.0662 28.386 34.564 27.5115 34.0264 26.7331C33.7921 26.3943 33.3637 26.2487 32.9726 26.3756L29.8111 27.3939C29.4331 26.9701 29.0308 26.5679 28.607 26.1899L29.6254 23.0286C29.7514 22.6376 29.6067 22.2092 29.2679 21.9749C28.4894 21.4363 27.6148 20.9351 26.6683 20.4853C26.295 20.307 25.8516 20.3957 25.5753 20.7009L23.3445 23.163C22.8096 22.9876 22.2627 22.841 21.7082 22.7262L21.0063 19.4735C20.9195 19.0713 20.5788 18.7735 20.169 18.7399C19.175 18.6597 18.1604 18.6615 17.1663 18.7399C16.7556 18.7726 16.4149 19.0703 16.3281 19.4735L15.6262 22.7262C15.0717 22.841 14.5247 22.9866 13.9908 23.163L11.76 20.7009C11.4837 20.3957 11.0403 20.3079 10.667 20.4853C9.72049 20.9351 8.84589 21.4363 8.06743 21.9749C7.7286 22.2092 7.58393 22.6376 7.70994 23.0286L8.72828 26.1899C8.30451 26.5679 7.90222 26.9701 7.52419 27.3939L4.36367 26.3756C3.97164 26.2487 3.54321 26.3943 3.30986 26.7331C2.77128 27.5115 2.27004 28.386 1.82014 29.3324C1.64279 29.7048 1.73054 30.1491 2.03576 30.4254L4.49808 32.6561C4.3226 33.1909 4.17606 33.7378 4.06125 34.2922L0.80833 34.9941C0.406032 35.0809 0.108275 35.4216 0.0746724 35.8313C0.0354694 36.3288 0 36.8262 0 37.333C0 37.8398 0.0354694 38.3373 0.0746724 38.8339ZM1.88641 36.6713L5.06186 35.9853C5.43709 35.9041 5.72458 35.6017 5.78619 35.2227C5.9262 34.3622 6.15208 33.5175 6.4573 32.7111C6.59358 32.3527 6.49557 31.9467 6.21089 31.6891L3.81296 29.5163C4.02205 29.1159 4.24046 28.7323 4.46635 28.3692L7.54286 29.3604C7.90688 29.4771 8.30825 29.3604 8.55187 29.0636C9.10258 28.3897 9.72423 27.7691 10.3981 27.2175C10.695 26.9748 10.8135 26.5744 10.695 26.2085L9.70369 23.1322C10.0668 22.9054 10.4495 22.687 10.8508 22.4789L13.0238 24.8776C13.2824 25.1623 13.6893 25.2603 14.0468 25.124C14.8514 24.8188 15.6962 24.5929 16.5577 24.4529C16.9367 24.3913 17.2391 24.1038 17.3203 23.7286L18.0054 20.5534C18.445 20.5301 18.8921 20.5291 19.3299 20.5534L20.016 23.7286C20.0972 24.1038 20.3996 24.3913 20.7786 24.4529C21.6392 24.5929 22.4839 24.8188 23.2904 25.124C23.6469 25.2603 24.0539 25.1632 24.3124 24.8776L26.4854 22.4798C26.8858 22.6889 27.2695 22.9073 27.6326 23.1332L26.6413 26.2095C26.5237 26.5753 26.6413 26.9748 26.9381 27.2184C27.612 27.7691 28.2327 28.3907 28.7844 29.0646C29.028 29.3623 29.4284 29.4808 29.7934 29.3614L32.8699 28.3701C33.0967 28.7332 33.3151 29.1159 33.5233 29.5163L31.1244 31.6891C30.8397 31.9467 30.7417 32.3527 30.878 32.7121C31.1832 33.5166 31.4091 34.3613 31.5491 35.2227C31.6107 35.6017 31.8982 35.9041 32.2735 35.9853L35.4489 36.6704C35.461 36.8897 35.4694 37.1109 35.4694 37.333C35.4694 37.5552 35.462 37.7764 35.4498 37.9948L32.2744 38.6808C31.8992 38.762 31.6117 39.0644 31.5501 39.4433C31.4101 40.3039 31.1842 41.1485 30.8789 41.955C30.7427 42.3134 30.8407 42.7194 31.1254 42.977L33.5233 45.1498C33.3142 45.5502 33.0958 45.9338 32.8699 46.2969L29.7934 45.3057C29.4266 45.1862 29.028 45.3047 28.7844 45.6025C28.2346 46.2745 27.613 46.8961 26.9381 47.4486C26.6413 47.6913 26.5237 48.0917 26.6413 48.4566L27.6326 51.5329C27.2695 51.7597 26.8868 51.9781 26.4863 52.1863L24.3134 49.7876C24.0557 49.5029 23.6497 49.4068 23.2904 49.5412C22.4858 49.8464 21.641 50.0722 20.7795 50.2122C20.4005 50.2738 20.0981 50.5613 20.0169 50.9365L19.3318 54.1117C18.8921 54.1351 18.445 54.136 18.0073 54.1117L17.3212 50.9365C17.24 50.5613 16.9376 50.2738 16.5586 50.2122C15.698 50.0722 14.8533 49.8464 14.0468 49.5412C13.6893 49.4049 13.2824 49.502 13.0248 49.7876L10.8518 52.1853C10.4514 51.9762 10.0677 51.7579 9.70463 51.532L10.6959 48.4557C10.8135 48.0898 10.6959 47.6903 10.3991 47.4467C9.72516 46.8961 9.10444 46.2745 8.5528 45.6006C8.30918 45.3029 7.90782 45.1853 7.54379 45.3038L4.46728 46.295C4.24046 45.9319 4.02205 45.5493 3.8139 45.1479L6.21275 42.9751C6.49744 42.7175 6.59545 42.3115 6.45917 41.9522C6.15395 41.1476 5.92806 40.3029 5.78805 39.4415C5.72645 39.0625 5.43896 38.7601 5.06373 38.6789L1.88641 37.9957C1.87521 37.7764 1.86681 37.5552 1.86681 37.333C1.86681 37.1109 1.87428 36.8897 1.88641 36.6713Z" fill="#0D1030"/>
<path d="M48.7431 13.2857C49.094 13.1755 49.3479 12.8685 49.3899 12.5026C49.4459 12.0312 49.4721 11.6047 49.4721 11.1996C49.4721 10.7946 49.4459 10.368 49.3908 9.8967C49.3488 9.53083 49.095 9.22376 48.744 9.11362L46.1557 8.30068C46.0782 8.08881 45.9923 7.88068 45.898 7.67721L47.1525 5.27385C47.3224 4.94811 47.2851 4.55238 47.0573 4.26304C46.5169 3.57983 45.8952 2.95823 45.2101 2.41596C44.9208 2.18729 44.525 2.15089 44.1992 2.31982L41.7939 3.57423C41.5904 3.4809 41.3822 3.39503 41.1703 3.31757L40.3573 0.729407C40.2472 0.37847 39.9401 0.124601 39.5742 0.0826008C38.6296 -0.0275336 37.9118 -0.0275336 36.9672 0.0826008C36.6013 0.124601 36.2942 0.37847 36.1841 0.729407L35.3711 3.31757C35.1592 3.39503 34.9511 3.4809 34.7476 3.57517L32.3441 2.32076C32.0183 2.15182 31.6235 2.18822 31.3332 2.41596C30.6499 2.95636 30.0283 3.57797 29.486 4.26304C29.2573 4.55238 29.2199 4.94718 29.3898 5.27385L30.6434 7.67721C30.55 7.88068 30.4642 8.08881 30.3867 8.30068L27.7984 9.11362C27.4474 9.22376 27.1935 9.53083 27.1515 9.8967C27.0964 10.368 27.0703 10.7946 27.0703 11.1996C27.0703 11.6047 27.0964 12.0312 27.1515 12.5026C27.1935 12.8685 27.4474 13.1755 27.7984 13.2857L30.3867 14.0986C30.4642 14.3105 30.55 14.5186 30.6443 14.7221L29.3898 17.1254C29.2199 17.4512 29.2573 17.8469 29.485 18.1362C30.0255 18.8194 30.6471 19.4411 31.3322 19.9833C31.6207 20.212 32.0174 20.2484 32.3431 20.0795L34.7466 18.826C34.9501 18.9193 35.1583 19.0052 35.3702 19.0827L36.1832 21.6708C36.2933 22.0217 36.6004 22.2756 36.9663 22.3176C37.4395 22.3736 37.8661 22.3998 38.2712 22.3998C38.6763 22.3998 39.1028 22.3736 39.5742 22.3186C39.9401 22.2766 40.2472 22.0227 40.3573 21.6717L41.1703 19.0836C41.3822 19.0061 41.5904 18.9202 41.7939 18.826L44.1974 20.0804C44.5231 20.2503 44.9189 20.2139 45.2083 19.9852C45.8915 19.4448 46.5132 18.8232 47.0555 18.1381C47.2842 17.8488 47.3215 17.454 47.1516 17.1273L45.8971 14.7239C45.9914 14.5205 46.0773 14.3123 46.1547 14.1005L48.7431 13.2857ZM45.1401 12.4606C44.8452 12.5539 44.6155 12.7863 44.5259 13.0831C44.399 13.505 44.231 13.911 44.0275 14.2909C43.881 14.5634 43.8782 14.891 44.0219 15.1645L45.2064 17.4344C44.9852 17.6798 44.7509 17.9141 44.5063 18.1344L42.2363 16.95C41.9619 16.8062 41.6342 16.81 41.3626 16.9556C40.9827 17.159 40.5767 17.327 40.1548 17.454C39.8589 17.5426 39.6256 17.7732 39.5322 18.0681L38.7631 20.5172C38.4224 20.5377 38.1209 20.5377 37.7793 20.5172L37.0102 18.0681C36.9168 17.7732 36.6844 17.5436 36.3876 17.454C35.9647 17.327 35.5587 17.159 35.1807 16.9556C34.9081 16.809 34.5805 16.8062 34.3061 16.95L32.036 18.1344C31.7905 17.9132 31.5563 17.6789 31.336 17.4344L32.5205 15.1645C32.6633 14.891 32.6614 14.5625 32.5149 14.2909C32.3114 13.911 32.1434 13.505 32.0164 13.0831C31.9278 12.7873 31.6972 12.5539 31.4022 12.4606L28.953 11.6915C28.9418 11.5207 28.9371 11.3574 28.9371 11.1996C28.9371 11.0419 28.9418 10.8786 28.953 10.7078L31.4022 9.9387C31.6972 9.84536 31.9268 9.61296 32.0164 9.31616C32.1434 8.89335 32.3114 8.48735 32.5149 8.10935C32.6614 7.83681 32.6642 7.50921 32.5205 7.2348L31.336 4.96491C31.5572 4.71945 31.7915 4.48518 32.036 4.26491L34.3061 5.44932C34.5796 5.59212 34.9081 5.58932 35.1797 5.44372C35.5596 5.24025 35.9657 5.07225 36.3876 4.94531C36.6835 4.85665 36.9168 4.62611 37.0102 4.33117L37.7793 1.88209C38.12 1.86155 38.4215 1.86155 38.7631 1.88209L39.5322 4.33117C39.6256 4.62611 39.858 4.85571 40.1548 4.94531C40.5776 5.07225 40.9837 5.24025 41.3617 5.44372C41.6342 5.59025 41.9619 5.59305 42.2363 5.44932L44.5063 4.26491C44.7518 4.48611 44.9861 4.72038 45.2064 4.96491L44.0219 7.2348C43.8791 7.50827 43.881 7.83681 44.0275 8.10841C44.231 8.48828 44.399 8.89429 44.5259 9.31616C44.6146 9.61203 44.8452 9.84536 45.1401 9.9387L47.5894 10.7078C47.6006 10.8786 47.6052 11.0419 47.6052 11.1996C47.6052 11.3574 47.6006 11.5207 47.5894 11.6915L45.1401 12.4606Z" fill="#0D1030"/>
<path d="M55.3133 30.7659L53.7097 30.1966C53.6182 29.9362 53.5136 29.6814 53.3951 29.4341L54.1241 27.8987C54.2762 27.5795 54.2342 27.2024 54.0158 26.9243C53.5491 26.3279 53.0096 25.7875 52.4113 25.3189C52.1322 25.1005 51.7532 25.0595 51.4359 25.2107L49.8995 25.9396C49.6531 25.822 49.3983 25.7166 49.1378 25.626L48.5675 24.0225C48.449 23.6893 48.1512 23.4513 47.8003 23.4084C46.9686 23.3085 46.3666 23.3085 45.5349 23.4084C45.1839 23.4504 44.8862 23.6884 44.7676 24.0225L44.1983 25.626C43.9378 25.7175 43.683 25.822 43.4357 25.9406L41.9002 25.2116C41.5828 25.0604 41.2048 25.1024 40.9257 25.3199C40.3293 25.7866 39.7888 26.326 39.3203 26.9243C39.1028 27.2024 39.0608 27.5804 39.212 27.8996L39.941 29.4359C39.8234 29.6823 39.7179 29.9371 39.6274 30.1975L38.0238 30.7678C37.6905 30.8863 37.4525 31.1841 37.4096 31.535C37.3583 31.9485 37.334 32.319 37.334 32.6662C37.334 33.0134 37.3583 33.383 37.4087 33.7984C37.4507 34.1493 37.6887 34.447 38.0228 34.5656L39.6264 35.1349C39.7179 35.3953 39.8224 35.6501 39.941 35.8974L39.212 37.4328C39.0599 37.752 39.1019 38.1291 39.3203 38.4072C39.787 39.0036 40.3265 39.544 40.9248 40.0125C41.203 40.23 41.5819 40.272 41.9002 40.1208L43.4366 39.3919C43.683 39.5095 43.9378 39.6149 44.1983 39.7055L44.7686 41.309C44.8871 41.6422 45.1849 41.8802 45.5358 41.9231C45.9512 41.9754 46.3208 41.9996 46.668 41.9996C47.0153 41.9996 47.3849 41.9754 47.8003 41.925C48.1512 41.883 48.449 41.645 48.5675 41.3108L49.1369 39.7073C49.3973 39.6159 49.6521 39.5113 49.8995 39.3928L51.435 40.1217C51.7532 40.2739 52.1322 40.2328 52.4094 40.0135C53.0059 39.5468 53.5463 39.0073 54.0149 38.4091C54.2324 38.1309 54.2744 37.7529 54.1232 37.4337L53.3942 35.8974C53.5118 35.651 53.6173 35.3962 53.7078 35.1358L55.3114 34.5656C55.6446 34.447 55.8826 34.1493 55.9256 33.7984C55.9778 33.383 56.0021 33.0134 56.0021 32.6662C56.0021 32.319 55.9778 31.9494 55.9274 31.5341C55.8854 31.1822 55.6474 30.8854 55.3133 30.7659ZM54.126 33.0069L52.6465 33.5324C52.36 33.6341 52.1406 33.8693 52.0594 34.1624C51.9371 34.6057 51.7626 35.0285 51.5414 35.4196C51.392 35.6837 51.3808 36.0048 51.5106 36.2792L52.1807 37.6913C52.0258 37.8612 51.8634 38.0236 51.6944 38.1776L50.2822 37.5075C50.0096 37.3777 49.6876 37.3889 49.4225 37.5383C49.0305 37.7604 48.6077 37.934 48.1662 38.0563C47.8731 38.1375 47.6379 38.3568 47.5352 38.6433L47.0097 40.1227C46.7838 40.1348 46.5542 40.1348 46.3283 40.1227L45.8028 38.6433C45.701 38.3568 45.4658 38.1375 45.1727 38.0563C44.7294 37.934 44.3065 37.7595 43.9154 37.5383C43.6513 37.3899 43.3311 37.3787 43.0558 37.5075L41.6435 38.1776C41.4736 38.0227 41.3112 37.8603 41.1572 37.6913L41.8274 36.2792C41.9581 36.0048 41.9459 35.6837 41.7966 35.4196C41.5744 35.0276 41.4008 34.6048 41.2786 34.1633C41.1974 33.8702 40.978 33.635 40.6914 33.5324L39.212 33.0069C39.2045 32.894 39.2008 32.781 39.2008 32.6662C39.2008 32.5514 39.2045 32.4375 39.2101 32.3255L40.6896 31.7991C40.9761 31.6974 41.1955 31.4622 41.2758 31.1691C41.399 30.7249 41.5735 30.303 41.7947 29.9119C41.9441 29.6478 41.9553 29.3267 41.8255 29.0523L41.1554 27.6402C41.3103 27.4703 41.4727 27.3079 41.6417 27.1539L43.0539 27.824C43.3283 27.9547 43.6494 27.9435 43.9136 27.7932C44.3056 27.5711 44.7284 27.3975 45.1699 27.2752C45.463 27.194 45.6982 26.9747 45.8009 26.6882L46.3264 25.2088C46.5523 25.1967 46.7819 25.1967 47.0078 25.2088L47.5333 26.6882C47.6351 26.9747 47.8703 27.194 48.1634 27.2752C48.6067 27.3975 49.0296 27.572 49.4207 27.7932C49.6858 27.9435 50.0059 27.9547 50.2803 27.824L51.6926 27.1539C51.8625 27.3088 52.0249 27.4712 52.1789 27.6402L51.5087 29.0523C51.378 29.3267 51.3902 29.6478 51.5395 29.9119C51.7616 30.3039 51.9353 30.7267 52.0575 31.1682C52.1387 31.4613 52.3581 31.6965 52.6446 31.7991L54.1241 32.3246C54.1316 32.4385 54.1353 32.5514 54.1353 32.6662C54.1353 32.781 54.1316 32.894 54.126 33.0069Z" fill="#0D1030"/>
<path d="M18.8177 45.2009C23.2354 45.2009 26.8296 41.6069 26.8296 37.1895C26.8296 32.7722 23.2354 29.1782 18.8177 29.1782C14.4001 29.1782 10.8059 32.7722 10.8059 37.1895C10.8059 41.6069 14.4001 45.2009 18.8177 45.2009ZM18.8177 30.9984C22.2312 30.9984 25.0093 33.7764 25.0093 37.1895C25.0093 40.6027 22.2312 43.3806 18.8177 43.3806C15.4043 43.3806 12.6262 40.6027 12.6262 37.1895C12.6262 33.7764 15.4043 30.9984 18.8177 30.9984Z" fill="#0D1030" stroke="#0D1030" stroke-width="0.4"/>
<path d="M38.2666 6.53271C35.6932 6.53271 33.5996 8.6262 33.5996 11.1994C33.5996 13.7727 35.6932 15.8661 38.2666 15.8661C40.84 15.8661 42.9337 13.7727 42.9337 11.1994C42.9337 8.6262 40.84 6.53271 38.2666 6.53271ZM38.2666 13.9995C36.7228 13.9995 35.4664 12.7432 35.4664 11.1994C35.4664 9.65568 36.7228 8.3994 38.2666 8.3994C39.8105 8.3994 41.0669 9.65568 41.0669 11.1994C41.0669 12.7432 39.8105 13.9995 38.2666 13.9995Z" fill="#0D1030"/>
<path d="M46.6731 28.9333C44.614 28.9333 42.9395 30.6078 42.9395 32.6667C42.9395 34.7257 44.614 36.4001 46.6731 36.4001C48.7322 36.4001 50.4067 34.7257 50.4067 32.6667C50.4067 30.6078 48.7322 28.9333 46.6731 28.9333ZM46.6731 34.5334C45.6435 34.5334 44.8063 33.6962 44.8063 32.6667C44.8063 31.6372 45.6435 30.8 46.6731 30.8C47.7026 30.8 48.5399 31.6372 48.5399 32.6667C48.5399 33.6962 47.7026 34.5334 46.6731 34.5334Z" fill="#0D1030"/>
</svg>