<svg width="49" height="49" viewBox="0 0 49 49" fill="none" xmlns="http://www.w3.org/2000/svg">
<path d="M40.0324 10.0841C36.3508 10.1642 32.9894 11.6848 30.5884 14.3259C29.628 9.44385 27.6271 4.80187 24.6658 0.800163C24.3457 0.480026 23.8655 0.399992 23.4653 0.640094C23.3853 0.640094 23.3853 0.720129 23.3053 0.800163C20.424 4.80187 18.3431 9.44385 17.3827 14.3259C14.9817 11.6848 11.5402 10.1642 8.01874 10.0841C3.61687 10.0841 0.0153347 13.6857 0.0153347 18.0875C0.0153347 21.9292 3.13666 31.4532 7.85868 31.6933L7.53854 31.9334C4.25714 35.1348 1.93615 39.2165 0.89571 43.7785L0.0153347 47.5401C-0.0646994 47.9402 0.175403 48.4205 0.575573 48.5005C0.655607 48.5005 0.655608 48.5005 0.735642 48.5005C0.815676 48.5005 0.89571 48.5005 0.89571 48.5005L4.49724 47.7001C8.33888 46.8198 11.9404 44.979 14.9017 42.3379C14.9017 42.4979 14.9817 42.658 15.0617 42.738C15.5419 43.5384 16.2623 44.0986 17.0626 44.3387C17.4628 44.4988 17.7829 44.6589 18.103 44.899C18.3431 45.2991 18.5032 45.6993 18.6633 46.0995C18.8233 46.9798 19.3036 47.7001 20.0239 48.2604C20.9042 48.5805 21.8646 48.5005 22.745 48.1003C23.1452 47.9402 23.5454 47.8602 23.9455 47.7802C24.3457 47.8602 24.7459 47.9402 25.146 48.1003C25.7063 48.3404 26.2665 48.5005 26.8268 48.5005C27.1469 48.5005 27.467 48.4205 27.7872 48.2604C28.5075 47.7802 28.9877 46.9798 29.1477 46.0995C29.2278 45.6993 29.4679 45.2191 29.708 44.899C30.0281 44.6589 30.3483 44.4187 30.7484 44.3387C31.6288 44.0986 32.3491 43.5384 32.7493 42.738C32.8293 42.578 32.8293 42.4179 32.9094 42.3379C35.8706 44.979 39.4721 46.8198 43.3138 47.7001L46.9153 48.5005C46.9953 48.5005 46.9954 48.5005 47.0754 48.5005C47.5556 48.5005 47.8757 48.1804 47.8757 47.7001C47.8757 47.6201 47.8757 47.5401 47.8757 47.5401L46.9954 43.7785C45.9549 39.2966 43.6339 35.1348 40.3525 31.9334L40.1925 31.6933C44.9145 31.4532 48.0358 22.0092 48.0358 18.0875C48.0358 13.6857 44.4343 10.0841 40.0324 10.0841ZM24.0256 34.8947C22.4249 34.8947 21.0643 33.6942 20.9042 32.0935C22.745 33.6942 25.3861 33.6942 27.2269 32.0935C26.9868 33.6942 25.6262 34.8947 24.0256 34.8947ZM24.0256 31.6933C22.2648 31.6933 20.8242 30.2527 20.8242 28.492C20.8242 26.7312 22.2648 25.2906 24.0256 25.2906C25.7863 25.2906 27.2269 26.7312 27.2269 28.492C27.2269 30.2527 25.7863 31.6933 24.0256 31.6933ZM24.8259 18.8879V3.92149C27.0669 7.60306 28.5875 11.6848 29.2278 15.8466L24.0256 22.4094L18.8233 15.9266C19.4636 11.6848 20.9843 7.60306 23.2252 3.92149V18.8879H24.8259ZM1.61602 18.0875C1.61602 14.566 4.49724 11.6848 8.09878 11.6848C11.6203 11.7648 14.8216 13.3655 16.9826 16.1667L21.8646 22.3293L13.8612 20.2484C11.06 19.5281 8.81909 17.4473 7.93871 14.6461L6.41806 15.1263C7.45851 18.4077 10.1797 20.8887 13.4611 21.7691L21.9447 24.0101L14.9817 28.1718C12.9008 29.4524 10.4998 30.0926 8.01874 30.0926C4.73735 30.0926 1.61602 21.8491 1.61602 18.0875ZM4.25714 46.0995L3.37677 46.3396L12.5807 37.1356L11.4602 36.0152L2.25629 45.1391L2.49639 44.0986C3.4568 39.9368 5.61772 36.0952 8.73905 33.0539L10.3397 31.4532C12.0204 31.2131 13.6211 30.6529 15.0617 29.9326C15.1418 30.3327 15.2218 30.6529 15.3018 31.0531C15.4619 31.4532 15.5419 31.9334 15.5419 32.4136C15.3819 32.8138 15.1418 33.1339 14.9017 33.4541C14.2614 34.0143 13.8612 34.8147 13.7812 35.695C13.8612 36.5754 14.2614 37.3757 14.9017 37.936C15.2218 38.2561 15.4619 38.5763 15.5419 38.9764C15.5419 39.2165 15.5419 39.4566 15.4619 39.7768C12.4206 42.8981 8.49895 45.1391 4.25714 46.0995ZM31.3887 42.0177C31.2286 42.3379 30.6684 42.578 30.1882 42.8181C29.5479 43.0582 29.0677 43.3783 28.5875 43.8585C28.1873 44.4187 27.9472 44.979 27.7071 45.6193C27.5471 46.0995 27.387 46.7397 27.1469 46.8198C26.9068 46.9798 26.2665 46.7397 25.7063 46.5797C25.146 46.3396 24.5858 46.1795 24.0256 46.1795C23.4653 46.1795 22.8251 46.3396 22.3448 46.5797C21.7846 46.7397 21.2244 46.9798 20.9042 46.8198C20.6641 46.6597 20.5041 46.0995 20.344 45.6193C20.1839 44.979 19.8638 44.4187 19.4636 43.8585C18.9834 43.3783 18.5032 43.0582 17.8629 42.8181C17.3027 42.578 16.7425 42.3379 16.6624 42.0177C16.5824 41.5375 16.6624 41.1373 16.8225 40.7372C17.0626 40.0969 17.1426 39.3766 17.0626 38.6563C16.9025 38.016 16.5024 37.4558 16.0222 36.8955C15.622 36.4153 15.3018 36.0152 15.3018 35.695C15.3018 35.3749 15.702 34.8947 16.0222 34.4945C16.5024 34.0143 16.8225 33.4541 17.0626 32.7338C17.1426 32.0135 17.0626 31.2932 16.8225 30.6529C16.6624 30.2527 16.5824 29.7725 16.6624 29.3723C16.8225 29.0522 17.3827 28.8121 17.8629 28.572C18.3431 28.4119 18.8233 28.0918 19.3036 27.7717C19.2235 27.9317 19.2235 31.6933 19.2235 31.6933C19.2235 34.0143 20.9042 36.0152 23.2252 36.4153V42.8981H24.8259V36.4153C27.1469 36.0152 28.8276 34.0143 28.8276 31.6933C28.8276 31.6933 28.8276 27.9317 28.7476 27.6916C29.1478 28.0118 29.628 28.3319 30.1882 28.492C30.7484 28.7321 31.3087 28.9722 31.3887 29.2923C31.4687 29.7725 31.3887 30.1727 31.2286 30.5728C30.9885 31.2131 30.9085 31.9334 30.9885 32.6537C31.1486 33.294 31.5488 33.8542 32.029 34.4145C32.4291 34.8947 32.7493 35.2949 32.7493 35.615C32.7493 35.9351 32.3491 36.4153 32.029 36.8155C31.5488 37.2957 31.2286 37.8559 30.9885 38.5763C30.9085 39.2966 30.9885 40.0169 31.2286 40.6571C31.3887 41.1374 31.4687 41.6176 31.3887 42.0177ZM45.5547 44.1786L45.7948 45.2191L36.5909 35.9351L35.4704 37.0556L44.6744 46.2595L43.794 46.0995C39.5522 45.1391 35.6305 42.8981 32.6692 39.7768C32.5892 39.5367 32.5892 39.2966 32.5892 38.9764C32.7493 38.5763 32.9894 38.2561 33.2295 37.936C33.8698 37.3757 34.2699 36.5754 34.35 35.695C34.2699 34.8147 33.8698 34.0143 33.2295 33.4541C32.9094 33.1339 32.6692 32.8138 32.5892 32.4136C32.5892 31.9334 32.6692 31.5333 32.8293 31.0531C32.9093 30.7329 32.9894 30.3327 33.0694 29.9326C34.51 30.7329 36.1107 31.2131 37.7914 31.4532L39.3921 33.0539C42.4334 36.0952 44.5943 39.9368 45.5547 44.1786ZM40.0324 30.0926C37.5513 30.0926 35.1503 29.4524 32.9894 28.1718L26.0264 24.0101L34.51 21.7691C37.7914 20.8887 40.5126 18.4077 41.553 15.1263L40.0324 14.6461C39.152 17.3672 36.9111 19.4481 34.1099 20.2484L26.1065 22.3293L30.9885 16.1667C33.1495 13.3655 36.4309 11.7648 39.9524 11.6848C43.4739 11.6848 46.3551 14.566 46.3551 18.0875C46.4351 21.8491 43.3138 30.0926 40.0324 30.0926Z" fill="black"/>
</svg>