<svg width="44" height="39" viewBox="0 0 44 39" fill="none" xmlns="http://www.w3.org/2000/svg">
<path d="M25.0348 15.9753H18.9657C18.5467 15.9753 18.207 16.315 18.207 16.734V37.9758C18.207 38.3948 18.5467 38.7344 18.9657 38.7344H25.0348C25.4537 38.7344 25.7934 38.3948 25.7934 37.9758V16.734C25.7934 16.3149 25.4537 15.9753 25.0348 15.9753ZM24.2761 37.2172H19.7243V17.4926H24.2761V37.2172Z" fill="black"/>
<path d="M43.2398 12.9409H37.1707C36.7518 12.9409 36.4121 13.2806 36.4121 13.6996V37.9759C36.4121 38.3949 36.7518 38.7346 37.1707 38.7346H43.2398C43.6588 38.7346 43.9985 38.3949 43.9985 37.9759V13.6996C43.9985 13.2805 43.6588 12.9409 43.2398 12.9409ZM42.4812 37.2173H37.9294V14.4582H42.4812V37.2173Z" fill="black"/>
<path d="M34.1422 29.6309H28.0731C27.6541 29.6309 27.3145 29.9705 27.3145 30.3895V37.9759C27.3145 38.3948 27.6541 38.7345 28.0731 38.7345H34.1422C34.5611 38.7345 34.9008 38.3948 34.9008 37.9759V30.3895C34.9008 29.9704 34.5611 29.6309 34.1422 29.6309ZM33.3835 37.2172H28.8317V31.1481H33.3835V37.2172Z" fill="black"/>
<path d="M6.82773 19.01H0.758637C0.33968 19.01 0 19.3497 0 19.7686V37.9759C0 38.3949 0.33968 38.7346 0.758637 38.7346H6.82773C7.24669 38.7346 7.58637 38.3949 7.58637 37.9759V19.7686C7.58637 19.3496 7.24669 19.01 6.82773 19.01ZM6.06909 37.2173H1.51727V20.5273H6.06909V37.2173Z" fill="black"/>
<path d="M15.9293 23.5615H9.8602C9.44124 23.5615 9.10156 23.9012 9.10156 24.3202V37.9756C9.10156 38.3946 9.44124 38.7343 9.8602 38.7343H15.9293C16.3483 38.7343 16.6879 38.3946 16.6879 37.9756V24.3202C16.6879 23.9011 16.3483 23.5615 15.9293 23.5615ZM15.1707 37.217H10.6188V25.0788H15.1707V37.217Z" fill="black"/>
<path d="M40.2556 8.07095e-05C38.5675 -0.0120575 37.1893 1.34647 37.1771 3.03453C37.171 3.88686 37.521 4.70306 38.1428 5.28607L31.8461 16.8348C31.2757 16.6769 30.6698 16.7049 30.1164 16.9145L24.2589 8.12423C25.3812 6.87959 25.282 4.96071 24.0372 3.8385C22.7925 2.71628 20.8737 2.81538 19.7515 4.06011C18.927 4.97465 18.7367 6.29677 19.2701 7.40665L14.6644 11.2399C13.4009 10.3183 11.6408 10.5246 10.6246 11.7133L6.76242 9.78185C7.11272 8.14291 6.06799 6.53033 4.42914 6.18013C2.7902 5.82982 1.17762 6.87447 0.827419 8.51341C0.477118 10.1523 1.52176 11.7649 3.1607 12.1151C3.3698 12.1598 3.58307 12.1823 3.79691 12.1822C4.67172 12.1793 5.50214 11.7968 6.07282 11.1337L9.93504 13.0652C9.57061 14.701 10.6013 16.3226 12.2371 16.6871C13.8729 17.0515 15.4945 16.0208 15.859 14.385C16.0072 13.7197 15.9271 13.024 15.6316 12.4098L20.2373 8.57637C21.0311 9.16384 22.0674 9.31216 22.9942 8.97086L28.8501 17.7612C27.7309 19.0086 27.8348 20.9272 29.0823 22.0464C30.3297 23.1657 32.2483 23.0618 33.3675 21.8143C34.4731 20.5822 34.3871 18.6915 33.1745 17.5647L39.4711 6.01597C39.713 6.07913 39.9617 6.11175 40.2116 6.11308C41.8996 6.12522 43.2779 4.76669 43.29 3.07863C43.3022 1.39057 41.9435 0.0123137 40.2556 8.07095e-05ZM3.79691 10.6649C2.9589 10.6649 2.27964 9.98564 2.27964 9.14763C2.27964 8.30962 2.9589 7.63035 3.79691 7.63035C4.63492 7.63035 5.31419 8.30962 5.31419 9.14763C5.31419 9.98564 4.63492 10.6649 3.79691 10.6649ZM12.9006 15.2167C12.0625 15.2167 11.3833 14.5375 11.3833 13.6994C11.3833 12.8614 12.0625 12.1822 12.9006 12.1822C13.7386 12.1822 14.4178 12.8614 14.4178 13.6994C14.4178 14.5375 13.7386 15.2167 12.9006 15.2167ZM22.0042 7.63035C21.1662 7.63035 20.4869 6.95109 20.4869 6.11308C20.4869 5.27507 21.1662 4.59581 22.0042 4.59581C22.8422 4.59581 23.5215 5.27507 23.5215 6.11308C23.5215 6.95109 22.8422 7.63035 22.0042 7.63035ZM31.1078 21.2858C30.2698 21.2858 29.5906 20.6066 29.5906 19.7685C29.5906 18.9305 30.2698 18.2513 31.1078 18.2513C31.9458 18.2513 32.6251 18.9305 32.6251 19.7685C32.6251 20.6066 31.9458 21.2858 31.1078 21.2858ZM40.2115 4.59581C39.3735 4.59581 38.6942 3.91654 38.6942 3.07853C38.6942 2.24052 39.3735 1.56126 40.2115 1.56126C41.0495 1.56126 41.7287 2.24052 41.7287 3.07853C41.7287 3.91654 41.0495 4.59581 40.2115 4.59581Z" fill="black"/>
</svg>