<svg width="45" height="49" viewBox="0 0 45 49" fill="none" xmlns="http://www.w3.org/2000/svg">
<path d="M20.041 24.2414C19.1574 24.2437 18.2789 24.1065 17.438 23.8351C13.7126 22.6162 13.6024 20.6192 13.6644 20.0339C13.7883 18.7461 14.9727 17.7752 16.6805 17.5686H16.7563H16.832C16.8871 17.5686 21.6524 17.6856 24.0006 15.4201C24.4151 15.0206 24.7403 14.538 24.9551 14.0039C25.17 13.4699 25.2694 12.8964 25.247 12.3212C25.247 10.8269 25.8599 10.2554 26.3695 9.97992C26.766 9.82876 27.198 9.79645 27.6126 9.88695C28.0272 9.97746 28.4065 10.1868 28.7039 10.4895C29.5603 11.2642 30.1943 12.2534 30.5405 13.355C30.8867 14.4567 30.9326 15.6307 30.6734 16.756C30.1294 18.8976 27.9602 21.3354 25.2746 22.8159C23.6781 23.7247 21.8778 24.2151 20.041 24.2414ZM16.8527 19.5105C16.0883 19.6207 15.6476 19.9443 15.6269 20.1991C15.6063 20.4539 16.2192 21.3354 18.0509 21.9276C19.1003 22.2187 20.1986 22.2901 21.2768 22.1373C22.3551 21.9844 23.3902 21.6106 24.3174 21.0392C26.521 19.8273 28.3459 17.844 28.759 16.2189C28.8899 15.6119 28.8964 14.9847 28.778 14.3751C28.6597 13.7656 28.4189 13.1863 28.0704 12.6724C27.8585 12.3389 27.5822 12.051 27.2578 11.8254C27.2287 11.9751 27.2149 12.1274 27.2165 12.2799C27.2397 13.1215 27.087 13.9586 26.768 14.7376C26.449 15.5167 25.9708 16.2206 25.3641 16.8042C22.5889 19.5105 17.5964 19.5449 16.8527 19.5105Z" fill="black"/>
<path d="M10.8451 23.9658H10.7005C8.45556 23.8074 6.26573 19.2005 6.42412 16.0741C6.71334 10.269 10.4181 4.05073 19.935 4.0163H19.9694C22.8754 4.0163 23.991 5.30403 24.3972 6.08217C24.6464 6.54049 24.7647 7.05851 24.7392 7.57955C24.7137 8.10059 24.5454 8.60458 24.2526 9.03638C23.9365 9.48571 23.5044 9.84086 23.0023 10.064C22.5003 10.2871 21.9471 10.3699 21.4017 10.3034C20.596 10.3792 13.9646 11.2606 13.1382 20.4676C12.8697 23.3254 11.7747 23.9658 10.8451 23.9658ZM19.9625 5.98577C9.70198 6.0202 8.51065 13.781 8.41425 16.1637C8.29029 18.6703 10.0256 21.6176 10.7831 21.9619C11.0333 21.4417 11.165 20.8726 11.1687 20.2954C12.1879 8.95374 21.264 8.33398 21.3535 8.32709H21.4981C21.702 8.36614 21.9127 8.34824 22.1071 8.27535C22.3015 8.20245 22.472 8.0774 22.5999 7.91392C22.6921 7.77793 22.7448 7.61905 22.7521 7.45494C22.7594 7.29082 22.721 7.1279 22.6413 6.98427C22.3245 6.35762 21.3191 5.98577 19.9625 5.98577Z" fill="black"/>
<path d="M33.6581 20.6398C33.4225 20.639 33.189 20.5946 32.9695 20.509C32.2051 20.1991 31.0207 19.1317 31.7024 15.2892C32.2051 12.4383 31.7438 9.99368 30.3252 8.01732C29.0241 6.21031 27.1143 4.93384 24.947 4.42269C23.5698 4.20233 23.0189 3.27957 23.0877 2.46011C23.1773 1.24124 24.6027 0.00860174 27.1369 0.00171549C29.0921 -0.0339185 31.0174 0.486235 32.6887 1.50169C34.36 2.51715 35.7086 3.98618 36.5779 5.73797C38.7609 9.80775 38.871 15.179 36.8327 18.2365C35.545 20.1991 34.4294 20.6398 33.6581 20.6398ZM25.1743 2.467H25.2225C27.9259 3.0575 30.3179 4.62113 31.9435 6.86043C33.6719 9.28439 34.2435 12.2386 33.6444 15.6266C33.2932 17.5961 33.5686 18.45 33.7063 18.6497C33.8992 18.5946 34.4501 18.2503 35.1938 17.1347C36.7983 14.7245 36.6399 10.0281 34.8357 6.66761C34.1315 5.22617 33.0286 4.01692 31.6579 3.18329C30.2873 2.34965 28.7063 1.9266 27.1024 1.9643C26.423 1.92633 25.7487 2.10213 25.1743 2.467Z" fill="black"/>
<path d="M29.8988 38.8747C29.1635 38.8838 28.4344 38.7408 27.7571 38.4546C27.1755 38.1889 26.654 37.8077 26.2243 37.3341C25.7946 36.8606 25.4656 36.3047 25.2574 35.7001C24.6721 34.1782 24.3966 33.5034 24.1832 32.9938C23.9353 32.3809 23.7769 32.0091 23.3086 30.7144C22.9563 29.8925 22.9249 28.9683 23.2207 28.1243C23.5164 27.2803 24.1179 26.5779 24.9062 26.1557C24.9751 26.1557 29.038 24.2138 32.7979 22.7746C37.818 20.8395 38.9955 15.847 39.0919 11.9976C39.1883 8.32721 40.5174 7.56972 41.3024 7.43888C41.7913 7.39191 42.281 7.52069 42.6836 7.80211C43.0862 8.08354 43.3753 8.49919 43.4991 8.97452C44.3943 11.4742 44.5321 17.5823 44.5321 21.0048C44.5321 27.2713 42.6934 31.9608 39.0644 34.9426C37.2602 36.43 34.244 37.6971 33.0251 38.186C32.0349 38.608 30.9746 38.8415 29.8988 38.8747ZM41.571 9.53231C41.1906 10.3254 41.0176 11.2021 41.0683 12.0802C40.903 18.3743 38.2174 22.8366 33.4934 24.6545C29.823 26.0662 25.8083 27.9462 25.767 27.9668C25.4132 28.1734 25.1527 28.5084 25.0398 28.9023C24.9269 29.2961 24.9703 29.7183 25.161 30.0809C25.6155 31.3273 25.7601 31.6854 26.0011 32.2845C26.2422 32.8836 26.4969 33.4758 27.0892 35.039C27.2088 35.3932 27.3994 35.7194 27.6492 35.9976C27.899 36.2758 28.2028 36.5003 28.5422 36.6573C29.7794 37.0576 31.1234 36.9664 32.2952 36.4025C34.2605 35.689 36.1152 34.7014 37.8042 33.4689C40.9581 30.8797 42.5557 26.6997 42.5488 21.0737C42.5488 15.5647 42.2114 11.309 41.6329 9.71824C41.62 9.65395 41.5992 9.5915 41.571 9.53231Z" fill="black"/>
<path d="M17.9334 40.4172C15.5783 40.4172 11.8046 40.0247 9.27735 37.7867C5.66895 34.619 3.60308 30.0121 3.01086 28.6762C1.82642 25.8597 0.511149 22.0792 0.256358 19.9926V19.9238C0.10486 18.7118 -0.260112 15.8815 0.304561 14.1049C1.07582 11.5156 3.28631 10.0764 4.77374 10.4207C4.97277 10.464 5.16131 10.5461 5.32859 10.6623C5.49587 10.7785 5.63859 10.9265 5.7486 11.0979C5.85861 11.2693 5.93374 11.4607 5.96971 11.6612C6.00567 11.8617 6.00175 12.0673 5.95818 12.2662C5.88933 12.5863 5.79256 12.8996 5.66895 13.2028C5.36099 14.06 5.24578 14.9747 5.33153 15.8815C5.37973 16.7423 5.90309 20.3438 7.66597 22.3339C9.6561 24.5857 12.6516 26.1834 16.8385 27.2301C20.922 28.2492 21.6588 29.6954 22.2924 31.7888C22.3681 32.0367 22.4439 32.2915 22.5403 32.5531C23.0705 34.0475 23.2289 34.619 23.5594 35.5487C23.6834 35.9136 23.8211 36.3337 24.0002 36.8915C24.1236 37.2099 24.1662 37.5539 24.1242 37.8928C24.0821 38.2317 23.9567 38.5549 23.7591 38.8334C22.857 40.1211 20.5846 40.2864 20.013 40.3071C19.3225 40.3839 18.6281 40.4207 17.9334 40.4172ZM3.8441 12.4797C3.43151 12.7175 3.07083 13.0357 2.78341 13.4154C2.49598 13.7951 2.28764 14.2286 2.17074 14.6902C1.7369 16.0675 2.06744 18.6911 2.17074 19.6827V19.7516C2.40487 21.6453 3.69949 25.3088 4.7944 27.9118C5.31775 29.1513 7.27345 33.4208 10.5444 36.313C13.7121 39.1157 19.7307 38.3789 19.7858 38.3789H19.8891C20.7499 38.3789 21.893 38.069 22.1271 37.7385C22.1271 37.7385 22.1271 37.6903 22.1271 37.5526C21.9412 36.9948 21.7966 36.5678 21.6795 36.1753C21.3696 35.225 21.1975 34.7017 20.6741 33.228C20.5708 32.9388 20.4813 32.6564 20.3987 32.381C19.9373 30.8867 19.6618 29.9846 16.3495 29.1582C11.7702 28.0082 8.44411 26.2109 6.17854 23.6492C4.06446 21.2597 3.42403 17.3139 3.35517 15.9917C3.25016 14.8256 3.40056 13.6506 3.79589 12.5486C3.79589 12.5486 3.83721 12.5141 3.8441 12.4797Z" fill="black"/>
<path d="M25.8112 48.66C24.6603 48.6559 23.5451 48.2602 22.649 47.5381C21.7529 46.8159 21.1293 45.8103 20.8806 44.6866L20.7291 43.998C20.5874 43.3399 20.7112 42.6524 21.0735 42.0851C21.4359 41.5177 22.0075 41.1163 22.6642 40.968L31.6783 38.9917C32.3357 38.8482 33.0232 38.9714 33.5899 39.3342C34.1566 39.6969 34.5563 40.2696 34.7014 40.9267L34.8597 41.6153C35.1426 42.9137 34.8991 44.2713 34.1827 45.3904C33.4663 46.5096 32.3354 47.299 31.0379 47.5857L26.9061 48.4947C26.5485 48.5907 26.1812 48.6461 25.8112 48.66ZM32.2223 40.9198H32.0983L23.0911 42.9237C23.0167 42.9391 22.9462 42.9694 22.8837 43.0127C22.8212 43.056 22.7682 43.1114 22.7277 43.1757C22.6872 43.24 22.66 43.3118 22.648 43.3869C22.6359 43.4619 22.639 43.5386 22.6573 43.6124L22.8088 44.301C22.896 44.6966 23.0604 45.0712 23.2924 45.4034C23.5244 45.7355 23.8196 46.0187 24.1611 46.2367C24.5025 46.4548 24.8836 46.6034 25.2825 46.6742C25.6815 46.745 26.0904 46.7365 26.4861 46.6492L30.6178 45.7402C31.0077 45.6546 31.3769 45.4929 31.7043 45.2645C32.0317 45.036 32.3108 44.7453 32.5257 44.4089C32.7406 44.0724 32.8871 43.6969 32.9567 43.3039C33.0264 42.9108 33.0178 42.5078 32.9316 42.118L32.7732 41.4294C32.7583 41.357 32.7286 41.2884 32.6859 41.2279C32.6433 41.1675 32.5886 41.1165 32.5253 41.0782C32.4449 40.993 32.3382 40.9372 32.2223 40.9198Z" fill="black"/>
</svg>