<svg width="48" height="47" viewBox="0 0 48 47" fill="none" xmlns="http://www.w3.org/2000/svg">
<path d="M48 21.1367C48 20.4767 47.86 20.4867 44.67 17.7167C45.62 13.5867 45.77 13.4967 45.35 12.9967C42.76 9.89665 38.72 8.93665 34.25 10.3267C34.18 5.63665 32.02 2.08665 28.25 0.586652C27.67 0.336652 27.64 0.516652 24 2.68665C20.4 0.516652 20.33 0.346653 19.72 0.586652C15.98 2.08665 13.82 5.63665 13.72 10.3267C9.24 8.93665 5.21 9.89665 2.62 12.9967C2.2 13.5067 2.36 13.6067 3.3 17.7167C0.14 20.5167 0 20.5167 0 21.1367C0.29 25.1367 3 28.3067 7.42 29.8167C4.72 33.6467 4.42 37.8166 6.52 41.1966C6.87 41.7567 7.01 41.6367 11.22 42.0067C12.87 45.8966 12.8 46.0766 13.45 46.2366C17.63 47.2366 21.39 45.3366 24 41.8666C26.59 45.3166 30.34 47.2767 34.55 46.2366C35.2 46.0766 35.13 45.8867 36.78 42.0067C40.98 41.6367 41.13 41.7567 41.48 41.1966C43.61 37.7866 43.28 33.6566 40.58 29.8167C45 28.3067 47.71 25.1567 48 21.1367ZM20 2.63665L23 4.42665V5.51665C23 5.78187 23.1054 6.03622 23.2929 6.22376C23.4804 6.4113 23.7348 6.51665 24 6.51665C24.2652 6.51665 24.5196 6.4113 24.7071 6.22376C24.8946 6.03622 25 5.78187 25 5.51665V4.42665L28 2.63665C35.8 6.35665 31.7 21.2567 25.34 23.2167C25.24 23.2167 25.27 23.2967 25.28 22.8367C25.2901 22.4823 25.2701 22.1276 25.22 21.7767C24.97 19.9067 25.02 22.7767 25.02 15.3367C25.6872 15.1008 26.2496 14.6366 26.6076 14.0262C26.9657 13.4158 27.0965 12.6984 26.9768 12.0009C26.8571 11.3034 26.4947 10.6707 25.9537 10.2145C25.4126 9.7584 24.7277 9.50822 24.02 9.50822C23.3123 9.50822 22.6274 9.7584 22.0863 10.2145C21.5453 10.6707 21.1829 11.3034 21.0632 12.0009C20.9435 12.6984 21.0743 13.4158 21.4324 14.0262C21.7904 14.6366 22.3528 15.1008 23.02 15.3367C23.02 18.3366 23.58 16.0367 18.73 12.7367C17.7795 12.0982 16.7758 11.5428 15.73 11.0767C15.6 7.51665 16.81 4.16665 20 2.63665ZM31.81 33.5166C31.9524 33.7319 32.0061 33.9939 31.9598 34.2479C31.9135 34.5018 31.7708 34.728 31.5615 34.8791C31.3523 35.0303 31.0927 35.0946 30.837 35.0588C30.5814 35.0229 30.3496 34.8895 30.19 34.6866C30.0476 34.4714 29.9939 34.2094 30.0402 33.9554C30.0865 33.7015 30.2292 33.4753 30.4385 33.3241C30.6477 33.173 30.9073 33.1087 31.163 33.1445C31.4186 33.1804 31.6504 33.3137 31.81 33.5166ZM24 13.5167C23.7348 13.5167 23.4804 13.4113 23.2929 13.2238C23.1054 13.0362 23 12.7819 23 12.5167C23 12.2514 23.1054 11.9971 23.2929 11.8095C23.4804 11.622 23.7348 11.5167 24 11.5167C24.2652 11.5167 24.5196 11.622 24.7071 11.8095C24.8946 11.9971 25 12.2514 25 12.5167C25 12.7819 24.8946 13.0362 24.7071 13.2238C24.5196 13.4113 24.2652 13.5167 24 13.5167ZM2.05 21.5167L4.67 19.2367L5.67 19.5767C5.91614 19.6379 6.17634 19.6032 6.39792 19.4798C6.6195 19.3564 6.78591 19.1534 6.86344 18.9119C6.94097 18.6704 6.92384 18.4085 6.81552 18.1791C6.70719 17.9498 6.51577 17.7702 6.28 17.6767L5.28 17.3367L4.51 13.9167C10.42 7.67665 23.51 16.1167 23.25 22.9167C22.4816 22.6321 21.6771 22.4571 20.86 22.3967L15.66 20.7067C15.6437 20.089 15.437 19.4915 15.0683 18.9957C14.6996 18.4999 14.1868 18.13 13.6 17.9367C13.0768 17.765 12.5164 17.7406 11.9803 17.8663C11.4441 17.9919 10.9529 18.2627 10.5604 18.6489C10.168 19.0352 9.88938 19.522 9.75519 20.0561C9.621 20.5901 9.63639 21.1508 9.79968 21.6767C9.96297 22.2026 10.2678 22.6734 10.6809 23.0376C11.094 23.4017 11.5993 23.6451 12.1415 23.7412C12.6838 23.8372 13.242 23.7822 13.755 23.582C14.268 23.3819 14.716 23.0445 15.05 22.6067C17.53 23.4167 16.46 22.4467 12.64 24.9067C11.5299 25.6164 10.4976 26.4409 9.56 27.3667C8.56 28.3667 8.93 28.2467 8.25 28.0367C4.64 26.8167 2.45 24.5167 2.05 21.5167ZM13.62 21.0967C13.5306 21.3394 13.3505 21.5381 13.1177 21.651C12.8849 21.7638 12.6174 21.782 12.3714 21.7017C12.1254 21.6215 11.9201 21.449 11.7987 21.2205C11.6772 20.9921 11.649 20.7255 11.72 20.4767C11.8182 20.252 11.9956 20.0713 12.2183 19.9689C12.4411 19.8664 12.6937 19.8494 12.9282 19.9209C13.1627 19.9925 13.3627 20.1477 13.4902 20.3571C13.6178 20.5665 13.664 20.8155 13.62 21.0567V21.0967ZM14.41 44.4366L13.05 41.2366L13.69 40.3566C13.8273 40.1425 13.8779 39.884 13.8313 39.6338C13.7847 39.3837 13.6446 39.1607 13.4393 39.0103C13.2341 38.8599 12.9793 38.7934 12.7267 38.8243C12.4742 38.8552 12.2429 38.9812 12.08 39.1766L11.43 40.0566L8 39.7166C4 32.3666 15.15 23.0067 21.69 24.5167C22.88 24.7867 22 24.3967 21.04 26.8267L17.85 31.2267C17.171 31.027 16.4432 31.0739 15.7954 31.359C15.1476 31.6441 14.6215 32.149 14.31 32.7845C13.9985 33.4201 13.9217 34.1453 14.0932 34.8319C14.2648 35.5186 14.6736 36.1225 15.2473 36.5369C15.8211 36.9513 16.5229 37.1494 17.2287 37.0964C17.9345 37.0433 18.5987 36.7425 19.1041 36.247C19.6095 35.7515 19.9234 35.0932 19.9904 34.3886C20.0573 33.684 19.873 32.9785 19.47 32.3967C20.6 30.8467 20.31 31.0567 20.34 31.6967C20.533 34.6523 21.38 37.5282 22.82 40.1166C20.85 43.0366 17.93 45.0366 14.41 44.3966V44.4366ZM16.41 34.9066C16.2145 34.7438 16.0885 34.5125 16.0576 34.2599C16.0267 34.0074 16.0932 33.7525 16.2436 33.5473C16.3941 33.3421 16.617 33.2019 16.8672 33.1553C17.1173 33.1088 17.3758 33.1593 17.59 33.2966C17.7461 33.4689 17.8373 33.6901 17.848 33.9223C17.8586 34.1545 17.7881 34.3832 17.6484 34.569C17.5087 34.7548 17.3087 34.8862 17.0827 34.9405C16.8567 34.9948 16.6188 34.9687 16.41 34.8666V34.9066ZM40 39.7166L36.54 40.0166L35.89 39.1366C35.7271 38.9412 35.4958 38.8152 35.2433 38.7843C34.9907 38.7534 34.7359 38.8199 34.5306 38.9703C34.3254 39.1207 34.1853 39.3437 34.1387 39.5938C34.0921 39.844 34.1427 40.1025 34.28 40.3166L34.92 41.1966L33.56 44.3966C25.02 45.9466 19.56 31.3967 23.66 26.1167C24.1074 26.8117 24.6608 27.4325 25.3 27.9567L28.5 32.3666C28.097 32.9485 27.9127 33.654 27.9796 34.3586C28.0466 35.0632 28.3605 35.7215 28.8659 36.217C29.3713 36.7125 30.0355 37.0133 30.7413 37.0664C31.4471 37.1194 32.1489 36.9213 32.7227 36.5069C33.2964 36.0925 33.7052 35.4886 33.8767 34.8019C34.0483 34.1153 33.9715 33.3901 33.66 32.7545C33.3485 32.119 32.8224 31.6141 32.1746 31.329C31.5268 31.0439 30.799 30.997 30.12 31.1967C28.36 28.7667 29.05 30.8267 34.7 30.7867C39.05 30.7867 38.13 29.8967 38.81 30.7867C41.07 33.8867 41.48 37.0267 40 39.7166ZM25.52 25.2467C26.0525 25.1087 26.5688 24.9143 27.06 24.6667C28.33 24.0167 26.36 24.7167 32.95 22.5667C33.3304 23.0525 33.8514 23.4092 34.442 23.5881C35.0325 23.7671 35.6639 23.7596 36.25 23.5667C37.1 23.5667 38.84 21.8267 38.18 19.7867C37.9553 19.1218 37.5046 18.5568 36.9064 18.19C36.3082 17.8231 35.6003 17.6775 34.9059 17.7786C34.2114 17.8796 33.5744 18.221 33.1056 18.7432C32.6368 19.2654 32.3659 19.9354 32.34 20.6367C29.55 21.5467 31.61 21.4966 33.34 16.2567C34.72 12.0267 33.6 12.5967 34.68 12.2567C38.29 11.0867 41.41 11.6567 43.52 13.8867L42.74 17.2667L41.74 17.6067C41.5042 17.7002 41.3128 17.8798 41.2045 18.1091C41.0962 18.3385 41.079 18.6004 41.1566 18.8419C41.2341 19.0834 41.4005 19.2864 41.6221 19.4098C41.8437 19.5332 42.1039 19.5679 42.35 19.5067L43.35 19.1667L46 21.5167C44.8 30.0867 29.25 30.7267 25.52 25.2467ZM36.28 20.4367C36.351 20.6855 36.3228 20.9521 36.2013 21.1806C36.0799 21.409 35.8746 21.5815 35.6286 21.6617C35.3826 21.742 35.1151 21.7238 34.8823 21.611C34.6495 21.4981 34.4694 21.2995 34.38 21.0567C34.309 20.8078 34.3372 20.5412 34.4587 20.3128C34.5801 20.0843 34.7854 19.9118 35.0314 19.8316C35.2774 19.7513 35.5449 19.7695 35.7777 19.8823C36.0105 19.9952 36.1906 20.1939 36.28 20.4367Z" fill="black"/>
</svg>