<svg width="67" height="43" viewBox="0 0 67 43" fill="none" xmlns="http://www.w3.org/2000/svg">
<mask id="mask0" mask-type="alpha" maskUnits="userSpaceOnUse" x="0" y="0" width="67" height="43">
<rect width="67" height="43" fill="#C4C4C4"/>
</mask>
<g mask="url(#mask0)">
<path d="M21.642 38.205C24.652 40.904 28.524 42.646 32.796 42.961V54.23V71C28.092 61.103 18.002 54.242 6.33497 54.242C5.55197 54.242 4.91797 54.876 4.91797 55.659C4.91797 71.806 18.055 84.943 34.202 84.943C34.21 84.944 34.217 84.944 34.222 84.943C34.266 84.943 34.308 84.934 34.352 84.93C34.375 84.931 34.396 84.943 34.419 84.943C34.455 84.943 34.489 84.925 34.526 84.922C50.51 84.732 63.456 71.676 63.456 55.647C63.456 54.864 62.822 54.23 62.039 54.23C50.418 54.23 40.358 61.034 35.63 70.867V54.23V42.961C45.342 42.22 53.022 34.097 53.022 24.199V7.04999C53.023 7.00699 53.016 6.96599 53.013 6.92299C53.005 6.79699 52.981 6.67599 52.942 6.55999C52.927 6.51599 52.915 6.47299 52.896 6.42999C52.833 6.28999 52.747 6.16399 52.645 6.05199C52.632 6.03799 52.628 6.01999 52.615 6.00599C52.604 5.99499 52.589 5.99199 52.578 5.98099C52.456 5.86599 52.316 5.76899 52.159 5.70299C52.143 5.69599 52.127 5.69399 52.111 5.68799C51.957 5.62899 51.792 5.59399 51.618 5.59199C51.615 5.59199 51.613 5.59099 51.61 5.59099C51.608 5.59099 51.606 5.58999 51.604 5.58999C51.19 5.58999 50.821 5.76999 50.562 6.05299L50.429 6.18599C50.253 6.25699 50.088 6.36099 49.947 6.50499L42.768 13.809L34.964 6.00499C34.433 5.47399 33.491 5.47299 32.96 6.00499L25.369 13.596L17.777 6.00499C17.768 5.99599 17.755 5.99299 17.745 5.98399C17.622 5.86599 17.479 5.76799 17.319 5.70099C17.305 5.69499 17.291 5.69299 17.276 5.68799C17.121 5.62799 16.955 5.59299 16.78 5.59099C16.778 5.59099 16.776 5.58999 16.774 5.58999C16.772 5.58999 16.771 5.58899 16.769 5.58899C15.986 5.58899 15.352 6.22399 15.352 7.00599V24.195C15.352 29.332 17.424 33.99 20.77 37.392L21.642 38.205ZM34.188 40.199C30.427 40.199 26.972 38.887 24.238 36.707L42.637 17.989L50.188 10.438V24.199C50.188 33.021 43.01 40.199 34.188 40.199ZM33.963 9.01299L40.782 15.831L40.576 16.041L34.195 22.422L27.375 15.602L33.963 9.01299ZM18.187 10.423L32.263 24.499L22.188 34.747C19.706 31.927 18.187 28.241 18.187 24.198V10.423ZM7.79197 57.116C20.368 57.802 30.631 67.312 32.485 79.546L21.116 68.178C20.563 67.623 19.665 67.623 19.112 68.178C18.558 68.732 18.558 69.628 19.112 70.182L30.816 81.886C18.298 80.279 8.48897 69.894 7.79197 57.116ZM38.151 81.798L49.52 70.428C50.074 69.874 50.074 68.977 49.52 68.424C48.967 67.869 48.069 67.869 47.516 68.424L35.812 80.129C37.419 67.611 47.804 57.801 60.582 57.104C59.896 69.68 50.386 79.944 38.151 81.798Z" fill="black"/>
</g>
</svg>