<svg width="32" height="32" viewBox="0 0 32 32" fill="none" xmlns="http://www.w3.org/2000/svg">
<path d="M27.3137 20.6863C25.5711 18.9436 23.4968 17.6536 21.2337 16.8726C23.6576 15.2032 25.25 12.4093 25.25 9.25C25.25 4.14956 21.1004 0 16 0C10.8996 0 6.75 4.14956 6.75 9.25C6.75 12.4093 8.34244 15.2032 10.7664 16.8726C8.50325 17.6536 6.429 18.9436 4.68631 20.6863C1.66431 23.7083 0 27.7262 0 32H2.5C2.5 24.5561 8.55606 18.5 16 18.5C23.4439 18.5 29.5 24.5561 29.5 32H32C32 27.7262 30.3357 23.7083 27.3137 20.6863ZM16 16C12.2781 16 9.25 12.972 9.25 9.25C9.25 5.528 12.2781 2.5 16 2.5C19.7219 2.5 22.75 5.528 22.75 9.25C22.75 12.972 19.7219 16 16 16Z" fill="black"/>
</svg>