<?xml version="1.0" encoding="utf-8"?>
<!-- Generator: Adobe Illustrator 25.0.0, SVG Export Plug-In . SVG Version: 6.00 Build 0)  -->
<svg version="1.1" id="Layer_1" xmlns="http://www.w3.org/2000/svg" xmlns:xlink="http://www.w3.org/1999/xlink" x="0px" y="0px"
	 viewBox="0 0 36 36" style="enable-background:new 0 0 36 36;" xml:space="preserve">
<style type="text/css">
	.st0{fill:#F7931A;}
	.st1{fill:#FFFFFF;}
</style>
<g>
	<path class="st0" d="M18,36c9.9,0,18-8.1,18-18S27.9,0,18,0S0,8.1,0,18S8.1,36,18,36z"/>
	<path class="st1" d="M25.2,16.2c0.3-1.9-1.2-2.9-3.3-3.6l0.7-2.6l-1.7-0.4l-0.7,2.5c-0.4-0.1-0.9-0.2-1.3-0.3l0.7-2.5L17.9,9
		l-0.7,2.6c-0.4-0.1-0.7-0.2-1.1-0.2l0,0l-2.3-0.5l-0.4,1.7l1.2,0.3c0.7,0.2,0.8,0.6,0.8,0.9l-0.8,2.9c0,0,0.1,0,0.2,0.1h-0.2
		l-1.1,4.1c-0.1,0.2-0.3,0.5-0.8,0.4L11.5,21l-0.8,1.8l2.1,0.5c0.4,0.1,0.8,0.2,1.2,0.3l-0.7,2.6l1.7,0.4l0.7-2.6
		c0.5,0.1,0.9,0.2,1.3,0.3l-0.7,2.6l1.7,0.4l0.7-2.6c2.8,0.5,4.9,0.3,5.8-2.1c0.7-1.9,0-3.1-1.5-3.8C24.1,18.3,24.9,17.6,25.2,16.2
		L25.2,16.2z M21.4,21.2c-0.5,1.9-4,0.9-5.1,0.6l0.9-3.4C18.3,18.7,21.9,19.2,21.4,21.2z M21.9,16.2c-0.5,1.8-3.3,0.9-4.3,0.6
		l0.8-3.1C19.4,14,22.4,14.4,21.9,16.2z"/>
</g>
</svg>
