<?xml version="1.0" encoding="utf-8"?>
<!-- Generator: Adobe Illustrator 25.0.0, SVG Export Plug-In . SVG Version: 6.00 Build 0)  -->
<svg version="1.1" id="Layer_1" xmlns="http://www.w3.org/2000/svg" xmlns:xlink="http://www.w3.org/1999/xlink" x="0px" y="0px"
	 viewBox="0 0 36 36" style="enable-background:new 0 0 36 36;" xml:space="preserve">
<style type="text/css">
	.st0{fill:#06E694;}
	.st1{fill-rule:evenodd;clip-rule:evenodd;fill:#FFFFFF;}
	.st2{fill:#FFFFFF;}
</style>
<path class="st0" d="M18,36c9.9,0,18-8.1,18-18c0-9.9-8.1-18-18-18C8.1,0,0,8.1,0,18C0,27.9,8.1,36,18,36z"/>
<path class="st1" d="M22.5,18c2.5,0,4.5-2,4.5-4.5S25,9,22.5,9S18,11,18,13.5C18,11,16,9,13.5,9C11,9,9,11,9,13.5
	C9,16,11,18,13.5,18C11,18,9,20,9,22.5C9,25,11,27,13.5,27s4.5-2,4.5-4.5c0-2.5-2-4.5-4.5-4.5c2.5,0,4.5-2,4.5-4.5
	C18,16,20,18,22.5,18z"/>
<path class="st2" d="M22.5,27c2.5,0,4.5-2,4.5-4.5S25,18,22.5,18S18,20,18,22.5S20,27,22.5,27z"/>
</svg>
