<?xml version="1.0" encoding="utf-8"?>
<!-- Generator: Adobe Illustrator 25.0.0, SVG Export Plug-In . SVG Version: 6.00 Build 0)  -->
<svg version="1.1" id="Layer_1" xmlns="http://www.w3.org/2000/svg" xmlns:xlink="http://www.w3.org/1999/xlink" x="0px" y="0px"
	 viewBox="0 0 36 36" style="enable-background:new 0 0 36 36;" xml:space="preserve">
<style type="text/css">
	.st0{fill:#627EEA;}
	.st1{fill:#FFFFFF;fill-opacity:0.602;}
	.st2{fill:#FFFFFF;}
	.st3{fill:#FFFFFF;fill-opacity:0.2;}
</style>
<path class="st0" d="M18,36c9.9,0,18-8.1,18-18c0-9.9-8.1-18-18-18C8.1,0,0,8.1,0,18C0,27.9,8.1,36,18,36z"/>
<path class="st1" d="M18.2,9v6.7l5.6,2.5L18.2,9z"/>
<path class="st2" d="M18.2,9l-5.6,9.2l5.6-2.5V9z"/>
<path class="st1" d="M18.2,22.5V27l5.6-7.8L18.2,22.5z"/>
<path class="st2" d="M18.2,27v-4.5l-5.6-3.3L18.2,27z"/>
<path class="st3" d="M18.2,21.4l5.6-3.3l-5.6-2.5V21.4z"/>
<path class="st1" d="M12.6,18.2l5.6,3.3v-5.8L12.6,18.2z"/>
</svg>
