<?xml version="1.0" encoding="utf-8"?>
<!-- Generator: Adobe Illustrator 25.0.0, SVG Export Plug-In . SVG Version: 6.00 Build 0)  -->
<svg version="1.1" id="Layer_1" xmlns="http://www.w3.org/2000/svg" xmlns:xlink="http://www.w3.org/1999/xlink" x="0px" y="0px"
	 viewBox="0 0 36 36" style="enable-background:new 0 0 36 36;" xml:space="preserve">
<style type="text/css">
	.st0{fill:#26B6EA;}
	.st1{fill:#FFFFFF;}
</style>
<circle class="st0" cx="18" cy="18" r="18"/>
<path class="st1" d="M17,7.2c0.6-0.3,1.4-0.3,2,0l5.7,3c0.3,0.2,0.5,0.4,0.6,0.7h0V26c0,0.3-0.2,0.6-0.6,0.8l-5.7,3
	c-0.6,0.3-1.4,0.3-2,0l-5.7-3c-0.4-0.2-0.5-0.5-0.5-0.8c0,0,0-0.1,0-0.1l0-14.9c0,0,0,0,0,0l0,0h0c0-0.3,0.2-0.5,0.5-0.7L17,7.2z
	 M24.3,19.3L19,22.2c-0.6,0.3-1.4,0.3-2,0l-5.3-2.8V26l5.3,2.8c0.3,0.2,0.6,0.3,0.9,0.3l0.1,0c0.3,0,0.6-0.2,0.9-0.3l5.4-2.8V19.3z
	 M9.9,25.7c0,0.6,0.1,1,0.2,1.2c0.1,0.2,0.3,0.4,0.6,0.6l0,0c0.1,0,0.1,0.1,0.2,0.1l0.1,0.1l0.3,0.2l-0.5,0.8l-0.4-0.2l-0.1,0
	c-0.1-0.1-0.2-0.1-0.3-0.2C9.3,27.7,9,27,9,25.7l0,0H9.9z M17.5,15.3c0,0-0.1,0-0.1,0l-5.7,3c0,0,0,0,0,0l0,0l0,0l0,0l5.7,3
	c0,0,0.1,0,0.1,0V15.3z M18.4,15.3v6.1c0,0,0.1,0,0.1,0l5.7-3c0,0,0,0,0,0l0,0l0,0l0,0l-5.7-3C18.5,15.3,18.5,15.3,18.4,15.3z
	 M24.3,12l-5.1,2.7l5.1,2.7V12z M11.7,12v5.4l5.1-2.7L11.7,12z M18.5,8c-0.3-0.2-0.8-0.2-1.1,0l-5.7,3c0,0,0,0,0,0l0,0l0,0l0,0
	l5.7,3c0.3,0.2,0.8,0.2,1.1,0l5.7-3c0,0,0,0,0,0l0,0l0,0l0,0L18.5,8z M25.1,8.3l0.4,0.2l0.1,0c0.1,0.1,0.2,0.1,0.3,0.2
	C26.7,9.3,27,10,27,11.3l0,0h-0.9c0-0.6-0.1-1-0.2-1.2c-0.1-0.2-0.3-0.4-0.6-0.6l0,0c-0.1,0-0.1-0.1-0.2-0.1L25,9.3l-0.3-0.2
	L25.1,8.3z"/>
</svg>
