<?xml version="1.0" encoding="utf-8"?>
<!-- Generator: Adobe Illustrator 25.0.0, SVG Export Plug-In . SVG Version: 6.00 Build 0)  -->
<svg version="1.1" id="Layer_1" xmlns="http://www.w3.org/2000/svg" xmlns:xlink="http://www.w3.org/1999/xlink" x="0px" y="0px"
	 viewBox="0 0 36 36" style="enable-background:new 0 0 36 36;" xml:space="preserve">
<style type="text/css">
	.st0{fill:#FFFFFF;}
</style>
<circle class="st0" cx="18" cy="18" r="18"/>
<path d="M29.5,10.9c-0.5-0.4-1-0.8-1.7-0.9c-0.8-0.1-1.6,0.4-2.2,0.8c-0.5,0.4-1.6,1.4-2.1,1.7c-0.4,0.4-1.5,0.6-3.3,1.7
	c-1.8,1.1-8.7,5.5-8.7,5.5h1.8L5.3,24h0.8L5,24.9c0.6,0.2,1.3,0.1,1.9-0.3v0.3c0,0,9.6-3.8,11.4-2.8l-1.1,0.3c0.1,0,1.9,0.1,1.9,0.1
	c0.1,0.8,0.5,1.5,1.2,1.8c1.1,0.7,1.1,1.1,1.1,1.1s-0.5,0.2-0.5,0.5c1-0.3,2.1-0.3,3.1,0c0,0-0.1-0.3-0.8-0.5
	c-0.8-0.3-1.4-0.8-1.9-1.5c-0.4-0.6-0.6-1.4-0.3-2.1c0.3-0.7,1.2-1.1,3.1-2.1c2.2-1.1,2.8-2,3-2.7c0.3-0.7,0.8-2,1-2.7
	c0.2-0.6,0.6-1.1,1.1-1.5c0.6-0.3,1.2-0.6,1.8-0.8C31.1,12.1,29.9,11.2,29.5,10.9z"/>
</svg>
