<?xml version="1.0" encoding="utf-8"?>
<!-- Generator: Adobe Illustrator 25.0.0, SVG Export Plug-In . SVG Version: 6.00 Build 0)  -->
<svg version="1.1" id="Layer_1" xmlns="http://www.w3.org/2000/svg" xmlns:xlink="http://www.w3.org/1999/xlink" x="0px" y="0px"
	 viewBox="0 0 36 36" style="enable-background:new 0 0 36 36;" xml:space="preserve">
<style type="text/css">
	.st0{fill:#E50B7B;}
	.st1{fill:#FFFFFF;}
</style>
<g id="_x30_aUHPp_1_">
	<g>
		<path class="st0" d="M18,35.8C8,35.9,0.1,27.6,0.2,18C0.2,8.1,8.1,0.2,17.9,0.2c9.8-0.1,18,8,17.9,17.9C35.8,28,27.7,35.9,18,35.8
			z M15.8,21.6c0.2-0.8,0.3-1.5,0.5-2.3c0.3-1.4,0.7-2.8,0.9-4.2c0.1-0.4-0.2-1-0.5-1.3c-0.3-0.2-0.9-0.3-1.2-0.1
			C15,14,14.7,14.5,14.6,15c-0.6,2.7-1.2,5.4-1.8,8.1c-0.3,1.5-0.6,2.9-0.9,4.4c-0.2,1,0.1,1.7,0.9,1.8c0.9,0.2,1.4-0.3,1.6-1.3
			c0.1-0.3,0.1-0.7,0.2-1c0.4-2.2,1.4-3,3.6-3.1c5-0.2,8.9-4.5,8.7-9.4c-0.2-5.2-5-9.3-10.1-8.6c-5.5,0.8-9,6.3-7.4,11.5
			c0.3,1,0.9,1.4,1.7,1.2c0.7-0.2,1-0.9,0.7-1.9c-1.3-4.6,2.7-9,7.4-8.1c2.8,0.5,5.1,3.1,5.2,6c0.1,3.2-1.9,5.9-4.9,6.5
			C18.4,21.3,17.2,21.4,15.8,21.6z M17.5,27.6c0,0.8,0.7,1.6,1.5,1.7c0.8,0.1,1.6-0.7,1.7-1.5c0-0.8-0.7-1.6-1.5-1.7
			C18.3,26.1,17.5,26.8,17.5,27.6z"/>
		<path class="st1" d="M15.8,21.6c1.4-0.2,2.6-0.2,3.8-0.5c3-0.6,4.9-3.3,4.9-6.5c-0.1-2.9-2.3-5.5-5.2-6c-4.8-0.9-8.7,3.5-7.4,8.1
			c0.3,1,0,1.7-0.7,1.9c-0.8,0.2-1.4-0.2-1.7-1.2c-1.6-5.3,1.9-10.8,7.4-11.5c5.2-0.7,9.9,3.4,10.1,8.6c0.2,5-3.8,9.3-8.7,9.4
			c-2.2,0.1-3.2,1-3.6,3.1c-0.1,0.3-0.1,0.7-0.2,1c-0.2,1-0.8,1.5-1.6,1.3c-0.8-0.2-1.1-0.9-0.9-1.8c0.3-1.5,0.6-2.9,0.9-4.4
			c0.6-2.7,1.1-5.4,1.8-8.1c0.1-0.5,0.4-1,0.8-1.3c0.3-0.2,1-0.2,1.2,0.1c0.3,0.3,0.6,0.9,0.5,1.3c-0.2,1.4-0.6,2.8-0.9,4.2
			C16.1,20,16,20.7,15.8,21.6z"/>
		<path class="st1" d="M17.5,27.6c0.1-0.9,0.8-1.6,1.7-1.5c0.8,0.1,1.5,0.9,1.5,1.7c0,0.8-0.8,1.6-1.7,1.5
			C18.1,29.2,17.4,28.4,17.5,27.6z"/>
	</g>
</g>
</svg>
