<svg width="20" height="23" viewBox="0 0 20 23" fill="none" xmlns="http://www.w3.org/2000/svg">
<path d="M18.6716 7.27097C17.9336 7.27097 17.2694 7.86452 17.2694 8.60645V14.3194C17.2694 15.0613 17.8598 15.6548 18.6716 15.6548C19.4096 15.6548 20 15.0613 20 14.3194V8.60645C20 7.86452 19.4096 7.27097 18.6716 7.27097ZM1.32841 7.27097C0.590406 7.27097 0 7.86452 0 8.60645V14.3194C0 15.0613 0.590406 15.6548 1.32841 15.6548C2.06642 15.6548 2.73063 15.0613 2.73063 14.3194V8.60645C2.73063 7.86452 2.14022 7.27097 1.32841 7.27097ZM3.61624 7.27097V17.0645C3.61624 17.8065 4.28044 18.4742 5.09225 18.4742H6.12546C6.12546 18.6226 6.05166 18.6968 6.05166 18.8452V21.6645C6.05166 22.4065 6.64207 23 7.45387 23C8.26568 23 8.78229 22.4065 8.78229 21.6645V18.8452C8.78229 18.6968 8.78229 18.6226 8.70849 18.4742H11.2177C11.1439 18.6226 11.1439 18.6968 11.1439 18.8452V21.6645C11.1439 22.4065 11.7343 23 12.4723 23C13.2103 23 13.8007 22.4065 13.8007 21.6645V18.8452C13.8007 18.6968 13.8007 18.6226 13.7269 18.4742H14.7601C15.572 18.4742 16.2362 17.8065 16.2362 17.0645V7.27097H3.61624ZM13.1365 1.92903L13.3579 1.55806L13.5793 1.1871L14.1697 0.370968C14.2435 0.296774 14.1697 0.148387 14.0959 0.0741936C14.0221 0 13.8745 0 13.8745 0.0741936L12.9889 1.33548L12.6937 1.70645C11.8819 1.40968 10.9225 1.1871 9.9631 1.1871C9.00369 1.1871 8.11808 1.40968 7.30627 1.78065L7.01107 1.33548L6.78967 0.964516L6.19926 0.0741936C6.12546 0 5.97786 0 5.90406 0C5.75646 0.0741936 5.75646 0.222581 5.83026 0.370968L6.42066 1.1871L6.64207 1.55806L6.93727 1.92903C4.94465 2.81935 3.61624 4.45161 3.61624 6.38065H16.3838C16.3838 4.45161 15.0553 2.81935 13.1365 1.92903ZM6.19926 4.6C5.83026 4.6 5.53506 4.30323 5.53506 3.93226C5.53506 3.56129 5.83026 3.26452 6.19926 3.26452C6.56827 3.26452 6.86347 3.56129 6.86347 3.93226C6.86347 4.30323 6.56827 4.6 6.19926 4.6ZM11.6605 4.6C11.2915 4.6 10.9963 4.30323 10.9963 3.93226C10.9963 3.56129 11.2915 3.26452 11.6605 3.26452C12.0295 3.26452 12.3247 3.56129 12.3247 3.93226C12.3247 4.30323 12.0295 4.6 11.6605 4.6Z" fill="white"/>
</svg>
