<svg width="270" height="77" viewBox="0 0 270 77" fill="none" xmlns="http://www.w3.org/2000/svg">
<g clip-path="url(#clip0_163_4597)">
<path d="M293 68.8817C293 73.0907 288.932 76.5 283.9 76.5H-13.8885C-18.9177 76.5 -23 73.0907 -23 68.8817V8.12825C-23 3.92127 -18.9177 0.5 -13.8885 0.5H283.898C288.932 0.5 292.998 3.92127 292.998 8.12825L293 68.8817Z" fill="white"/>
<path d="M82.4741 38.7252C82.4341 34.3255 86.1197 32.185 86.2883 32.0853C84.2009 29.0779 80.9656 28.667 79.8287 28.6343C77.1114 28.3517 74.4756 30.241 73.0914 30.241C71.6796 30.241 69.548 28.6616 67.2507 28.708C64.2944 28.753 61.5288 30.4444 60.0119 33.0709C56.8816 38.4263 59.2162 46.2962 62.2153 50.625C63.7156 52.745 65.4686 55.1121 67.7632 55.0289C70.008 54.9374 70.8466 53.6146 73.5556 53.6146C76.2397 53.6146 77.0271 55.0289 79.3673 54.9756C81.7765 54.9374 83.2933 52.846 84.7411 50.7069C86.4748 48.277 87.171 45.8839 87.1986 45.7611C87.142 45.742 82.5197 43.9987 82.4741 38.7252Z" fill="#141414"/>
<path d="M78.0527 25.787C79.2601 24.295 80.0862 22.265 79.8569 20.2051C78.1094 20.2815 75.9239 21.3996 74.6654 22.8589C73.552 24.1448 72.5574 26.2526 72.8143 28.2347C74.7773 28.3794 76.7929 27.2559 78.0527 25.787Z" fill="#141414"/>
<path d="M114.96 54.7256H111.823L110.104 49.3893H104.131L102.494 54.7256H99.4395L105.358 36.5586H109.013L114.96 54.7256ZM109.586 47.1506L108.032 42.4068C107.868 41.9221 107.56 40.7809 107.105 38.9844H107.05C106.869 39.7571 106.577 40.8983 106.177 42.4068L104.65 47.1506H109.586Z" fill="#141414"/>
<path d="M130.18 48.0151C130.18 50.243 129.571 52.004 128.352 53.2968C127.261 54.4476 125.906 55.0223 124.288 55.0223C122.542 55.0223 121.288 54.4025 120.524 53.163H120.468V60.0637H117.523V45.9388C117.523 44.5381 117.486 43.1007 117.414 41.6264H120.004L120.169 43.7027H120.224C121.206 42.1383 122.697 41.3574 124.697 41.3574C126.261 41.3574 127.566 41.9676 128.611 43.1894C129.658 44.4126 130.18 46.0207 130.18 48.0151ZM127.179 48.1216C127.179 46.8466 126.889 45.7954 126.306 44.9682C125.67 44.1054 124.814 43.674 123.742 43.674C123.016 43.674 122.355 43.9143 121.766 44.388C121.174 44.8658 120.788 45.4896 120.607 46.2623C120.515 46.6227 120.47 46.9176 120.47 47.1496V49.3338C120.47 50.2867 120.765 51.0907 121.357 51.7473C121.948 52.404 122.716 52.7316 123.661 52.7316C124.77 52.7316 125.634 52.3084 126.251 51.4648C126.87 50.6198 127.179 49.5058 127.179 48.1216Z" fill="#141414"/>
<path d="M145.425 48.0151C145.425 50.243 144.815 52.004 143.596 53.2968C142.506 54.4476 141.15 55.0223 139.533 55.0223C137.787 55.0223 136.532 54.4025 135.77 53.163H135.715V60.0637H132.769V45.9388C132.769 44.5381 132.732 43.1007 132.66 41.6264H135.25L135.415 43.7027H135.47C136.451 42.1383 137.941 41.3574 139.943 41.3574C141.506 41.3574 142.811 41.9676 143.858 43.1894C144.901 44.4126 145.425 46.0207 145.425 48.0151ZM142.424 48.1216C142.424 46.8466 142.133 45.7954 141.55 44.9682C140.913 44.1054 140.061 43.674 138.987 43.674C138.259 43.674 137.6 43.9143 137.009 44.388C136.418 44.8658 136.032 45.4896 135.851 46.2623C135.761 46.6227 135.715 46.9176 135.715 47.1496V49.3338C135.715 50.2867 136.01 51.0907 136.599 51.7473C137.19 52.4026 137.958 52.7316 138.906 52.7316C140.015 52.7316 140.878 52.3084 141.496 51.4648C142.115 50.6198 142.424 49.5058 142.424 48.1216Z" fill="#141414"/>
<path d="M162.472 49.6315C162.472 51.1769 161.929 52.4341 160.839 53.4047C159.641 54.4654 157.974 54.9951 155.831 54.9951C153.853 54.9951 152.267 54.6183 151.066 53.8634L151.749 51.4376C153.042 52.2103 154.461 52.598 156.006 52.598C157.116 52.598 157.979 52.3495 158.599 51.8553C159.217 51.3612 159.525 50.6977 159.525 49.8704C159.525 49.1333 159.271 48.5122 158.761 48.0084C158.254 47.5047 157.407 47.0365 156.225 46.6037C153.006 45.4174 151.398 43.6796 151.398 41.3944C151.398 39.901 151.962 38.6765 153.09 37.7236C154.215 36.7694 155.715 36.293 157.591 36.293C159.264 36.293 160.654 36.581 161.763 37.1557L161.027 39.5283C159.99 38.9713 158.819 38.6929 157.508 38.6929C156.472 38.6929 155.662 38.9454 155.082 39.4478C154.592 39.8969 154.346 40.4443 154.346 41.0927C154.346 41.8108 154.626 42.4046 155.19 42.8715C155.68 43.3029 156.571 43.7697 157.864 44.2735C159.446 44.9028 160.608 45.6386 161.355 46.4822C162.1 47.3231 162.472 48.3756 162.472 49.6315Z" fill="#141414"/>
<path d="M172.21 43.8115H168.963V50.1716C168.963 51.7892 169.535 52.5974 170.682 52.5974C171.208 52.5974 171.645 52.5523 171.99 52.4622L172.072 54.6724C171.491 54.8867 170.728 54.9945 169.781 54.9945C168.618 54.9945 167.709 54.6437 167.053 53.9434C166.4 53.2417 166.071 52.065 166.071 50.4118V43.8087H164.137V41.6246H166.071V39.226L168.963 38.3633V41.6246H172.21V43.8115Z" fill="#141414"/>
<path d="M186.859 48.0689C186.859 50.0825 186.276 51.7356 185.113 53.0284C183.893 54.3594 182.274 55.0229 180.256 55.0229C178.311 55.0229 176.762 54.3853 175.607 53.1103C174.452 51.8353 173.875 50.2258 173.875 48.286C173.875 46.2561 174.469 44.5933 175.661 43.3006C176.851 42.0064 178.456 41.3594 180.474 41.3594C182.419 41.3594 183.984 41.9969 185.165 43.2733C186.295 44.5114 186.859 46.11 186.859 48.0689ZM183.803 48.1631C183.803 46.955 183.542 45.9189 183.013 45.0548C182.396 44.0091 181.513 43.4876 180.369 43.4876C179.185 43.4876 178.286 44.0104 177.668 45.0548C177.139 45.9202 176.878 46.9727 176.878 48.2177C176.878 49.4259 177.139 50.462 177.668 51.3247C178.305 52.3704 179.195 52.8919 180.343 52.8919C181.467 52.8919 182.35 52.3595 182.987 51.2974C183.53 50.4169 183.803 49.3699 183.803 48.1631Z" fill="#141414"/>
<path d="M196.43 44.1859C196.139 44.1327 195.828 44.1054 195.502 44.1054C194.466 44.1054 193.665 44.4917 193.101 45.2658C192.611 45.9483 192.365 46.8111 192.365 47.8527V54.726H189.421L189.448 45.7517C189.448 44.2419 189.411 42.8672 189.338 41.6277H191.903L192.011 44.1341H192.092C192.403 43.2727 192.894 42.5792 193.565 42.0591C194.221 41.5909 194.93 41.3574 195.694 41.3574C195.966 41.3574 196.212 41.3765 196.43 41.4107V44.1859Z" fill="#141414"/>
<path d="M209.603 47.5556C209.603 48.0771 209.569 48.5167 209.495 48.8757H200.66C200.694 50.1698 201.121 51.1595 201.942 51.8421C202.686 52.4523 203.649 52.7581 204.832 52.7581C206.14 52.7581 207.333 52.5519 208.407 52.1383L208.868 54.1587C207.614 54.6993 206.133 54.9682 204.424 54.9682C202.369 54.9682 200.755 54.3703 199.581 53.1758C198.409 51.9813 197.822 50.3773 197.822 48.3651C197.822 46.3898 198.368 44.7448 199.461 43.4329C200.604 42.0323 202.15 41.332 204.095 41.332C206.006 41.332 207.452 42.0323 208.434 43.4329C209.212 44.5455 209.603 45.9216 209.603 47.5556ZM206.795 46.8007C206.814 45.9379 206.622 45.1926 206.223 44.5633C205.713 43.7538 204.93 43.3497 203.876 43.3497C202.913 43.3497 202.13 43.7442 201.531 44.536C201.041 45.1653 200.75 45.9202 200.66 46.7993H206.795V46.8007Z" fill="#141414"/>
<path d="M108.615 25.3823C108.615 26.9891 108.128 28.1986 107.154 29.0108C106.252 29.7603 104.97 30.1357 103.309 30.1357C102.486 30.1357 101.781 30.1002 101.191 30.0292V21.2501C101.961 21.1272 102.79 21.0645 103.685 21.0645C105.267 21.0645 106.459 21.4044 107.263 22.0842C108.164 22.8528 108.615 23.9517 108.615 25.3823ZM107.089 25.4219C107.089 24.3803 106.81 23.5817 106.252 23.0248C105.694 22.4692 104.878 22.1907 103.805 22.1907C103.349 22.1907 102.961 22.2207 102.639 22.2835V28.9576C102.817 28.9849 103.143 28.9972 103.617 28.9972C104.725 28.9972 105.58 28.6927 106.183 28.0839C106.785 27.4751 107.089 26.5877 107.089 25.4219Z" fill="#141414"/>
<path d="M116.708 26.7856C116.708 27.7753 116.422 28.5862 115.85 29.2224C115.251 29.8763 114.456 30.2025 113.465 30.2025C112.509 30.2025 111.747 29.8899 111.18 29.262C110.613 28.6354 110.33 27.845 110.33 26.8921C110.33 25.8956 110.622 25.0779 111.207 24.4431C111.793 23.8083 112.58 23.4902 113.572 23.4902C114.528 23.4902 115.296 23.8028 115.878 24.4294C116.431 25.0383 116.708 25.8246 116.708 26.7856ZM115.207 26.832C115.207 26.2382 115.077 25.729 114.818 25.3045C114.514 24.7912 114.082 24.5345 113.52 24.5345C112.938 24.5345 112.496 24.7912 112.192 25.3045C111.933 25.729 111.804 26.2464 111.804 26.858C111.804 27.4518 111.934 27.961 112.192 28.3856C112.506 28.8988 112.942 29.1555 113.506 29.1555C114.059 29.1555 114.492 28.8947 114.805 28.3719C115.073 27.9392 115.207 27.4259 115.207 26.832Z" fill="#141414"/>
<path d="M127.562 23.6211L125.525 30.0563H124.198L123.354 27.2619C123.14 26.5643 122.966 25.8708 122.831 25.1828H122.804C122.679 25.8899 122.505 26.582 122.281 27.2619L121.384 30.0563H120.043L118.127 23.6211H119.615L120.351 26.6803C120.529 27.4038 120.676 28.0932 120.793 28.7458H120.819C120.927 28.2079 121.105 27.5226 121.357 26.694L122.281 23.6225H123.461L124.346 26.6285C124.56 27.3615 124.734 28.0673 124.868 28.7471H124.908C125.007 28.085 125.154 27.3793 125.35 26.6285L126.141 23.6225H127.562V23.6211Z" fill="#141414"/>
<path d="M135.067 30.0566H133.62V26.3708C133.62 25.235 133.183 24.6672 132.307 24.6672C131.878 24.6672 131.531 24.8228 131.262 25.1354C130.995 25.448 130.86 25.8166 130.86 26.2384V30.0553H129.412V25.4603C129.412 24.8951 129.394 24.2822 129.359 23.6187H130.632L130.699 24.6248H130.739C130.908 24.3122 131.159 24.0542 131.49 23.8481C131.882 23.6078 132.321 23.4863 132.802 23.4863C133.41 23.4863 133.915 23.6802 134.317 24.0692C134.817 24.5457 135.067 25.2569 135.067 26.2016V30.0566Z" fill="#141414"/>
<path d="M139.058 30.0559H137.611V20.668H139.058V30.0559Z" fill="#141414"/>
<path d="M147.583 26.7856C147.583 27.7753 147.297 28.5862 146.725 29.2224C146.126 29.8763 145.33 30.2025 144.34 30.2025C143.382 30.2025 142.621 29.8899 142.055 29.262C141.488 28.6354 141.205 27.845 141.205 26.8921C141.205 25.8956 141.497 25.0779 142.082 24.4431C142.668 23.8083 143.455 23.4902 144.446 23.4902C145.403 23.4902 146.17 23.8028 146.753 24.4294C147.306 25.0383 147.583 25.8246 147.583 26.7856ZM146.08 26.832C146.08 26.2382 145.95 25.729 145.692 25.3045C145.389 24.7912 144.956 24.5345 144.395 24.5345C143.812 24.5345 143.37 24.7912 143.067 25.3045C142.808 25.729 142.679 26.2464 142.679 26.858C142.679 27.4518 142.809 27.961 143.067 28.3856C143.381 28.8988 143.817 29.1555 144.381 29.1555C144.934 29.1555 145.366 28.8947 145.678 28.3719C145.948 27.9392 146.08 27.4259 146.08 26.832Z" fill="#141414"/>
<path d="M154.588 30.0565H153.288L153.181 29.3152H153.141C152.696 29.9063 152.062 30.2025 151.238 30.2025C150.624 30.2025 150.126 30.0073 149.752 29.6196C149.412 29.2674 149.242 28.8292 149.242 28.3091C149.242 27.5228 149.574 26.9235 150.241 26.5085C150.907 26.0935 151.843 25.8901 153.049 25.8997V25.7795C153.049 24.9318 152.599 24.5086 151.697 24.5086C151.055 24.5086 150.488 24.6683 149.999 24.985L149.705 24.0458C150.31 23.6759 151.057 23.4902 151.939 23.4902C153.641 23.4902 154.494 24.3776 154.494 26.1522V28.5221C154.494 29.165 154.526 29.677 154.588 30.0565ZM153.085 27.845V26.8525C151.488 26.8252 150.69 27.258 150.69 28.1494C150.69 28.4852 150.781 28.7364 150.968 28.9043C151.154 29.0722 151.392 29.1555 151.675 29.1555C151.993 29.1555 152.29 29.0558 152.56 28.8579C152.833 28.6586 153 28.406 153.062 28.0961C153.077 28.0265 153.085 27.9419 153.085 27.845Z" fill="#141414"/>
<path d="M162.818 30.0559H161.533L161.466 29.0225H161.426C161.015 29.8088 160.316 30.202 159.334 30.202C158.549 30.202 157.896 29.8975 157.378 29.2887C156.86 28.6799 156.602 27.8895 156.602 26.9189C156.602 25.8773 156.882 25.0336 157.446 24.3893C157.991 23.7886 158.66 23.4883 159.456 23.4883C160.33 23.4883 160.942 23.7791 161.29 24.362H161.318V20.668H162.767V28.3222C162.767 28.9488 162.783 29.5262 162.818 30.0559ZM161.318 27.342V26.2691C161.318 26.0834 161.304 25.9332 161.278 25.8186C161.196 25.4746 161.021 25.1851 160.754 24.9517C160.485 24.7183 160.16 24.6009 159.786 24.6009C159.246 24.6009 158.823 24.8125 158.512 25.237C158.204 25.6616 158.048 26.2035 158.048 26.8656C158.048 27.5018 158.196 28.0178 158.493 28.415C158.806 28.8382 159.229 29.0498 159.758 29.0498C160.233 29.0498 160.613 28.8737 160.902 28.5201C161.181 28.1939 161.318 27.8007 161.318 27.342Z" fill="#141414"/>
<path d="M175.198 26.7856C175.198 27.7753 174.912 28.5862 174.341 29.2224C173.741 29.8763 172.948 30.2025 171.955 30.2025C171 30.2025 170.239 29.8899 169.67 29.262C169.104 28.6354 168.82 27.845 168.82 26.8921C168.82 25.8956 169.112 25.0779 169.698 24.4431C170.283 23.8083 171.071 23.4902 172.064 23.4902C173.018 23.4902 173.788 23.8028 174.368 24.4294C174.921 25.0383 175.198 25.8246 175.198 26.7856ZM173.698 26.832C173.698 26.2382 173.568 25.729 173.31 25.3045C173.005 24.7912 172.574 24.5345 172.01 24.5345C171.43 24.5345 170.988 24.7912 170.682 25.3045C170.423 25.729 170.294 26.2464 170.294 26.858C170.294 27.4518 170.424 27.961 170.682 28.3856C170.996 28.8988 171.433 29.1555 171.996 29.1555C172.549 29.1555 172.984 28.8947 173.296 28.3719C173.563 27.9392 173.698 27.4259 173.698 26.832Z" fill="#141414"/>
<path d="M182.98 30.0566H181.534V26.3708C181.534 25.235 181.097 24.6672 180.22 24.6672C179.79 24.6672 179.444 24.8228 179.176 25.1354C178.908 25.448 178.774 25.8166 178.774 26.2384V30.0553H177.325V25.4603C177.325 24.8951 177.308 24.2822 177.273 23.6187H178.544L178.612 24.6248H178.652C178.822 24.3122 179.073 24.0542 179.402 23.8481C179.796 23.6078 180.234 23.4863 180.716 23.4863C181.322 23.4863 181.828 23.6802 182.23 24.0692C182.731 24.5457 182.98 25.2569 182.98 26.2016V30.0566Z" fill="#141414"/>
<path d="M192.724 24.6918H191.13V27.818C191.13 28.6125 191.413 29.0097 191.974 29.0097C192.234 29.0097 192.449 28.9879 192.619 28.9428L192.656 30.0281C192.37 30.1346 191.995 30.1878 191.532 30.1878C190.96 30.1878 190.515 30.0158 190.193 29.6718C189.87 29.3278 189.71 28.749 189.71 27.9367V24.6918H188.758V23.6202H189.71V22.4408L191.128 22.0176V23.6189H192.723V24.6918H192.724Z" fill="#141414"/>
<path d="M200.39 30.0559H198.941V26.3974C198.941 25.2438 198.504 24.6664 197.63 24.6664C196.958 24.6664 196.5 25.0009 196.248 25.6698C196.206 25.8104 196.181 25.9824 196.181 26.1844V30.0545H194.734V20.668H196.181V24.5463H196.208C196.664 23.8405 197.318 23.4883 198.164 23.4883C198.764 23.4883 199.26 23.6822 199.654 24.0712C200.144 24.5558 200.39 25.2766 200.39 26.2295V30.0559Z" fill="#141414"/>
<path d="M208.295 26.5331C208.295 26.7897 208.276 27.0054 208.242 27.1815H203.9C203.919 27.8176 204.126 28.3023 204.528 28.6381C204.896 28.9384 205.37 29.0886 205.95 29.0886C206.592 29.0886 207.178 28.9875 207.706 28.7841L207.932 29.778C207.315 30.0428 206.588 30.1752 205.747 30.1752C204.738 30.1752 203.944 29.8817 203.369 29.2947C202.792 28.7077 202.506 27.92 202.506 26.9317C202.506 25.9611 202.772 25.1529 203.31 24.5086C203.871 23.8206 204.629 23.4766 205.586 23.4766C206.523 23.4766 207.235 23.8206 207.715 24.5086C208.103 25.0546 208.295 25.7304 208.295 26.5331ZM206.914 26.1631C206.925 25.7386 206.83 25.3727 206.634 25.0642C206.382 24.6669 206 24.4676 205.481 24.4676C205.009 24.4676 204.624 24.6615 204.329 25.0505C204.089 25.3604 203.947 25.7304 203.9 26.1631H206.914Z" fill="#141414"/>
</g>
<rect x="0.5" y="1" width="269" height="75" rx="11.5" stroke="#EFF5F5"/>
<defs>
<clipPath id="clip0_163_4597">
<rect y="0.5" width="270" height="76" rx="12" fill="white"/>
</clipPath>
</defs>
</svg>
