<svg width="327" height="64" viewBox="0 0 327 64" fill="none" xmlns="http://www.w3.org/2000/svg">
<path d="M327.926 57.5846C327.926 61.129 323.705 64 318.483 64H9.45539C4.23633 64 0 61.129 0 57.5846V6.42379C0 2.88107 4.23633 0 9.45539 0H318.481C323.705 0 327.924 2.88107 327.924 6.42379L327.926 57.5846Z" fill="#ffffff"/>
<path d="M131.458 30.9356C131.434 28.2958 133.704 27.0115 133.807 26.9517C132.522 25.1473 130.529 24.9007 129.829 24.8811C128.155 24.7115 126.532 25.8451 125.68 25.8451C124.81 25.8451 123.497 24.8974 122.082 24.9253C120.262 24.9523 118.558 25.9671 117.624 27.543C115.696 30.7563 117.134 35.4782 118.981 38.0755C119.905 39.3475 120.985 40.7678 122.398 40.7178C123.781 40.6629 124.297 39.8692 125.965 39.8692C127.619 39.8692 128.104 40.7178 129.545 40.6859C131.029 40.6629 131.963 39.4081 132.855 38.1246C133.922 36.6667 134.351 35.2308 134.368 35.1571C134.333 35.1457 131.486 34.0997 131.458 30.9356Z" fill="black"/>
<path d="M128.735 23.1725C129.479 22.2773 129.988 21.0593 129.847 19.8234C128.77 19.8692 127.424 20.5401 126.649 21.4156C125.963 22.1872 125.351 23.4519 125.509 24.6411C126.718 24.728 127.959 24.0539 128.735 23.1725Z" fill="black"/>
<path d="M151.466 40.5352H149.534L148.476 37.3335H144.797L143.788 40.5352H141.907L145.552 29.635H147.803L151.466 40.5352ZM148.156 35.9902L147.199 33.1439C147.098 32.8531 146.908 32.1684 146.628 31.0905H146.594C146.483 31.5541 146.303 32.2388 146.057 33.1439L145.117 35.9902H148.156Z" fill="black"/>
<path d="M160.84 36.5088C160.84 37.8455 160.465 38.9021 159.714 39.6778C159.042 40.3682 158.208 40.7131 157.211 40.7131C156.136 40.7131 155.363 40.3412 154.893 39.5975H154.859V43.7379H153.045V35.263C153.045 34.4226 153.022 33.5601 152.978 32.6755H154.573L154.674 33.9213H154.708C155.313 32.9827 156.231 32.5142 157.463 32.5142C158.426 32.5142 159.23 32.8803 159.873 33.6134C160.518 34.3472 160.84 35.3121 160.84 36.5088ZM158.992 36.5727C158.992 35.8076 158.813 35.177 158.454 34.6806C158.062 34.163 157.535 33.9041 156.875 33.9041C156.428 33.9041 156.021 34.0483 155.658 34.3325C155.293 34.6192 155.055 34.9935 154.944 35.4571C154.888 35.6733 154.86 35.8502 154.86 35.9895V37.3C154.86 37.8717 155.042 38.3541 155.406 38.7481C155.77 39.1421 156.243 39.3387 156.825 39.3387C157.508 39.3387 158.04 39.0848 158.42 38.5786C158.801 38.0716 158.992 37.4032 158.992 36.5727Z" fill="black"/>
<path d="M170.229 36.5088C170.229 37.8455 169.854 38.9021 169.103 39.6778C168.431 40.3682 167.597 40.7131 166.6 40.7131C165.525 40.7131 164.753 40.3412 164.283 39.5975H164.249V43.7379H162.435V35.263C162.435 34.4226 162.412 33.5601 162.368 32.6755H163.963L164.064 33.9213H164.098C164.702 32.9827 165.62 32.5142 166.853 32.5142C167.815 32.5142 168.619 32.8803 169.264 33.6134C169.907 34.3472 170.229 35.3121 170.229 36.5088ZM168.381 36.5727C168.381 35.8076 168.202 35.177 167.843 34.6806C167.45 34.163 166.926 33.9041 166.264 33.9041C165.816 33.9041 165.41 34.0483 165.046 34.3325C164.682 34.6192 164.445 34.9935 164.333 35.4571C164.278 35.6733 164.249 35.8502 164.249 35.9895V37.3C164.249 37.8717 164.431 38.3541 164.793 38.7481C165.158 39.1413 165.631 39.3387 166.214 39.3387C166.897 39.3387 167.429 39.0848 167.81 38.5786C168.191 38.0716 168.381 37.4032 168.381 36.5727Z" fill="black"/>
<path d="M180.728 37.4786C180.728 38.4058 180.394 39.1602 179.723 39.7425C178.985 40.3789 177.958 40.6967 176.639 40.6967C175.42 40.6967 174.443 40.4707 173.704 40.0177L174.124 38.5622C174.921 39.0258 175.795 39.2585 176.747 39.2585C177.43 39.2585 177.962 39.1094 178.344 38.8129C178.724 38.5164 178.914 38.1183 178.914 37.622C178.914 37.1797 178.757 36.807 178.443 36.5047C178.131 36.2025 177.609 35.9216 176.881 35.6619C174.899 34.9501 173.908 33.9075 173.908 32.5363C173.908 31.6403 174.255 30.9056 174.951 30.3339C175.643 29.7613 176.567 29.4755 177.723 29.4755C178.753 29.4755 179.609 29.6483 180.292 29.9931L179.839 31.4167C179.2 31.0825 178.479 30.9154 177.671 30.9154C177.033 30.9154 176.535 31.0669 176.177 31.3683C175.875 31.6378 175.724 31.9663 175.724 32.3553C175.724 32.7862 175.897 33.1424 176.244 33.4226C176.546 33.6814 177.095 33.9615 177.891 34.2638C178.865 34.6413 179.581 35.0828 180.041 35.589C180.5 36.0936 180.728 36.7251 180.728 37.4786Z" fill="black"/>
<path d="M186.726 33.9861H184.727V37.8021C184.727 38.7727 185.079 39.2576 185.785 39.2576C186.109 39.2576 186.378 39.2306 186.591 39.1765L186.641 40.5026C186.284 40.6312 185.813 40.6959 185.23 40.6959C184.514 40.6959 183.954 40.4854 183.55 40.0652C183.148 39.6442 182.945 38.9382 182.945 37.9463V33.9844H181.754V32.6739H182.945V31.2348L184.727 30.7172V32.6739H186.726V33.9861Z" fill="black"/>
<path d="M195.748 36.5406C195.748 37.7488 195.389 38.7407 194.673 39.5163C193.922 40.3149 192.924 40.713 191.681 40.713C190.483 40.713 189.53 40.3305 188.818 39.5655C188.107 38.8004 187.751 37.8348 187.751 36.6709C187.751 35.4529 188.117 34.4553 188.852 33.6796C189.584 32.9031 190.573 32.5149 191.816 32.5149C193.014 32.5149 193.978 32.8974 194.705 33.6632C195.401 34.4061 195.748 35.3653 195.748 36.5406ZM193.866 36.5971C193.866 35.8723 193.705 35.2506 193.38 34.7321C192.999 34.1047 192.456 33.7918 191.751 33.7918C191.022 33.7918 190.468 34.1055 190.088 34.7321C189.762 35.2514 189.601 35.8829 189.601 36.6299C189.601 37.3548 189.762 37.9765 190.088 38.4941C190.48 39.1215 191.028 39.4344 191.735 39.4344C192.428 39.4344 192.971 39.115 193.363 38.4777C193.698 37.9494 193.866 37.3212 193.866 36.5971Z" fill="black"/>
<path d="M201.643 34.2113C201.463 34.1793 201.272 34.163 201.071 34.163C200.433 34.163 199.94 34.3947 199.593 34.8592C199.29 35.2687 199.139 35.7864 199.139 36.4113V40.5353H197.326L197.343 35.1508C197.343 34.2449 197.32 33.4201 197.275 32.6763H198.855L198.921 34.1802H198.971C199.163 33.6633 199.465 33.2472 199.878 32.9352C200.283 32.6542 200.719 32.5142 201.19 32.5142C201.357 32.5142 201.509 32.5256 201.643 32.5461V34.2113Z" fill="black"/>
<path d="M209.756 36.2335C209.756 36.5464 209.735 36.8102 209.69 37.0256H204.248C204.269 37.8021 204.532 38.3959 205.038 38.8054C205.496 39.1715 206.089 39.355 206.818 39.355C207.623 39.355 208.358 39.2313 209.019 38.9832L209.304 40.1954C208.531 40.5197 207.619 40.6811 206.567 40.6811C205.301 40.6811 204.307 40.3223 203.584 39.6057C202.862 38.889 202.5 37.9266 202.5 36.7192C202.5 35.534 202.837 34.5471 203.51 33.7599C204.214 32.9196 205.166 32.4994 206.364 32.4994C207.541 32.4994 208.432 32.9196 209.036 33.7599C209.515 34.4275 209.756 35.2531 209.756 36.2335ZM208.027 35.7806C208.038 35.2629 207.92 34.8157 207.674 34.4381C207.36 33.9524 206.878 33.71 206.229 33.71C205.636 33.71 205.153 33.9467 204.785 34.4218C204.483 34.7993 204.303 35.2523 204.248 35.7798H208.027V35.7806Z" fill="black"/>
<path d="M147.558 22.9293C147.558 23.8934 147.258 24.6191 146.658 25.1064C146.102 25.5561 145.313 25.7814 144.29 25.7814C143.783 25.7814 143.349 25.7601 142.986 25.7175V20.45C143.46 20.3763 143.97 20.3386 144.522 20.3386C145.496 20.3386 146.23 20.5426 146.725 20.9505C147.28 21.4116 147.558 22.071 147.558 22.9293ZM146.618 22.9531C146.618 22.3281 146.446 21.849 146.102 21.5148C145.759 21.1814 145.257 21.0144 144.596 21.0144C144.315 21.0144 144.076 21.0324 143.877 21.0701V25.0745C143.987 25.0909 144.188 25.0982 144.48 25.0982C145.162 25.0982 145.689 24.9156 146.06 24.5503C146.431 24.185 146.618 23.6526 146.618 22.9531Z" fill="black"/>
<path d="M152.542 23.7713C152.542 24.3651 152.366 24.8517 152.014 25.2333C151.645 25.6257 151.156 25.8214 150.545 25.8214C149.956 25.8214 149.487 25.6339 149.138 25.2571C148.789 24.8811 148.614 24.4069 148.614 23.8352C148.614 23.2373 148.794 22.7466 149.155 22.3658C149.515 21.9849 150 21.7941 150.611 21.7941C151.2 21.7941 151.673 21.9816 152.031 22.3576C152.371 22.7229 152.542 23.1947 152.542 23.7713ZM151.618 23.7992C151.618 23.4429 151.538 23.1373 151.379 22.8826C151.191 22.5746 150.925 22.4207 150.579 22.4207C150.221 22.4207 149.948 22.5746 149.761 22.8826C149.601 23.1373 149.522 23.4478 149.522 23.8147C149.522 24.171 149.602 24.4765 149.761 24.7313C149.954 25.0392 150.223 25.1932 150.57 25.1932C150.911 25.1932 151.178 25.0368 151.37 24.7231C151.535 24.4634 151.618 24.1555 151.618 23.7992Z" fill="black"/>
<path d="M159.228 21.8729L157.973 25.734H157.156L156.636 24.0574C156.504 23.6388 156.397 23.2228 156.314 22.8099H156.297C156.22 23.2342 156.113 23.6495 155.975 24.0574L155.423 25.734H154.597L153.417 21.8729H154.333L154.786 23.7085C154.896 24.1426 154.986 24.5562 155.059 24.9477H155.075C155.141 24.625 155.251 24.2138 155.406 23.7167L155.975 21.8737H156.702L157.247 23.6773C157.379 24.1172 157.486 24.5406 157.568 24.9485H157.593C157.654 24.5513 157.745 24.1278 157.865 23.6773L158.352 21.8737H159.228V21.8729Z" fill="black"/>
<path d="M163.85 25.7339H162.958V23.5224C162.958 22.841 162.69 22.5002 162.15 22.5002C161.886 22.5002 161.672 22.5936 161.506 22.7812C161.342 22.9688 161.258 23.1899 161.258 23.443V25.7331H160.367V22.9761C160.367 22.637 160.356 22.2693 160.334 21.8712H161.118L161.16 22.4749H161.184C161.288 22.2873 161.443 22.1325 161.646 22.0088C161.888 21.8646 162.159 21.7917 162.455 21.7917C162.829 21.7917 163.14 21.9081 163.388 22.1415C163.696 22.4273 163.85 22.8541 163.85 23.4209V25.7339Z" fill="black"/>
<path d="M166.307 25.7338H165.417V20.1011H166.307V25.7338Z" fill="black"/>
<path d="M171.558 23.7713C171.558 24.3651 171.382 24.8517 171.03 25.2333C170.661 25.6257 170.17 25.8214 169.56 25.8214C168.971 25.8214 168.502 25.6339 168.153 25.2571C167.804 24.8811 167.63 24.4069 167.63 23.8352C167.63 23.2373 167.809 22.7466 168.17 22.3658C168.531 21.9849 169.016 21.7941 169.626 21.7941C170.216 21.7941 170.688 21.9816 171.047 22.3576C171.387 22.7229 171.558 23.1947 171.558 23.7713ZM170.632 23.7992C170.632 23.4429 170.552 23.1373 170.393 22.8826C170.207 22.5746 169.94 22.4207 169.594 22.4207C169.235 22.4207 168.963 22.5746 168.777 22.8826C168.617 23.1373 168.538 23.4478 168.538 23.8147C168.538 24.171 168.618 24.4765 168.777 24.7313C168.97 25.0392 169.239 25.1932 169.586 25.1932C169.926 25.1932 170.193 25.0368 170.385 24.7231C170.551 24.4634 170.632 24.1555 170.632 23.7992Z" fill="black"/>
<path d="M175.873 25.7339H175.072L175.006 25.2892H174.981C174.707 25.6438 174.317 25.8216 173.81 25.8216C173.431 25.8216 173.125 25.7044 172.894 25.4718C172.685 25.2605 172.58 24.9976 172.58 24.6855C172.58 24.2137 172.784 23.8542 173.195 23.6052C173.605 23.3562 174.182 23.2341 174.925 23.2399V23.1678C174.925 22.6591 174.648 22.4052 174.092 22.4052C173.696 22.4052 173.348 22.501 173.046 22.6911L172.865 22.1276C173.238 21.9056 173.698 21.7942 174.241 21.7942C175.289 21.7942 175.815 22.3266 175.815 23.3914V24.8133C175.815 25.1991 175.834 25.5062 175.873 25.7339ZM174.947 24.407V23.8116C173.964 23.7952 173.472 24.0548 173.472 24.5897C173.472 24.7912 173.528 24.9419 173.643 25.0426C173.758 25.1434 173.904 25.1933 174.078 25.1933C174.274 25.1933 174.457 25.1335 174.624 25.0148C174.791 24.8952 174.894 24.7437 174.933 24.5577C174.942 24.516 174.947 24.4652 174.947 24.407Z" fill="black"/>
<path d="M180.941 25.7338H180.15L180.109 25.1138H180.084C179.831 25.5856 179.401 25.8215 178.796 25.8215C178.312 25.8215 177.91 25.6388 177.591 25.2735C177.272 24.9082 177.113 24.434 177.113 23.8516C177.113 23.2267 177.286 22.7205 177.633 22.3339C177.969 21.9735 178.381 21.7933 178.871 21.7933C179.409 21.7933 179.786 21.9677 180 22.3175H180.017V20.1011H180.91V24.6936C180.91 25.0696 180.92 25.416 180.941 25.7338ZM180.017 24.1055V23.4617C180.017 23.3503 180.009 23.2602 179.993 23.1914C179.943 22.985 179.835 22.8114 179.67 22.6713C179.504 22.5313 179.304 22.4608 179.074 22.4608C178.741 22.4608 178.481 22.5878 178.289 22.8425C178.1 23.0972 178.004 23.4224 178.004 23.8197C178.004 24.2013 178.095 24.511 178.278 24.7493C178.471 25.0032 178.731 25.1302 179.057 25.1302C179.35 25.1302 179.584 25.0245 179.761 24.8124C179.933 24.6166 180.017 24.3807 180.017 24.1055Z" fill="black"/>
<path d="M188.566 23.7713C188.566 24.3651 188.39 24.8517 188.038 25.2333C187.669 25.6257 187.18 25.8214 186.569 25.8214C185.981 25.8214 185.512 25.6339 185.161 25.2571C184.813 24.8811 184.638 24.4069 184.638 23.8352C184.638 23.2373 184.818 22.7466 185.178 22.3658C185.539 21.9849 186.024 21.7941 186.636 21.7941C187.224 21.7941 187.698 21.9816 188.055 22.3576C188.395 22.7229 188.566 23.1947 188.566 23.7713ZM187.642 23.7992C187.642 23.4429 187.562 23.1373 187.403 22.8826C187.215 22.5746 186.95 22.4207 186.603 22.4207C186.245 22.4207 185.973 22.5746 185.785 22.8826C185.625 23.1373 185.546 23.4478 185.546 23.8147C185.546 24.171 185.626 24.4765 185.785 24.7313C185.978 25.0392 186.247 25.1932 186.594 25.1932C186.935 25.1932 187.203 25.0368 187.395 24.7231C187.559 24.4634 187.642 24.1555 187.642 23.7992Z" fill="black"/>
<path d="M193.359 25.7339H192.468V23.5224C192.468 22.841 192.199 22.5002 191.659 22.5002C191.394 22.5002 191.181 22.5936 191.016 22.7812C190.851 22.9688 190.768 23.1899 190.768 23.443V25.7331H189.876V22.9761C189.876 22.637 189.866 22.2693 189.844 21.8712H190.627L190.669 22.4749H190.693C190.798 22.2873 190.953 22.1325 191.155 22.0088C191.398 21.8646 191.668 21.7917 191.964 21.7917C192.338 21.7917 192.649 21.9081 192.897 22.1415C193.206 22.4273 193.359 22.8541 193.359 23.4209V25.7339Z" fill="black"/>
<path d="M199.36 22.5157H198.378V24.3914C198.378 24.8681 198.553 25.1064 198.898 25.1064C199.058 25.1064 199.191 25.0933 199.296 25.0663L199.318 25.7174C199.142 25.7813 198.911 25.8133 198.626 25.8133C198.274 25.8133 198 25.7101 197.801 25.5037C197.602 25.2973 197.504 24.95 197.504 24.4626V22.5157H196.917V21.8727H197.504V21.165L198.377 20.9111V21.8719H199.359V22.5157H199.36Z" fill="black"/>
<path d="M204.082 25.7338H203.189V23.5387C203.189 22.8466 202.921 22.5001 202.382 22.5001C201.968 22.5001 201.686 22.7008 201.531 23.1022C201.505 23.1865 201.489 23.2897 201.489 23.4109V25.733H200.599V20.1011H201.489V22.4281H201.506C201.787 22.0046 202.19 21.7933 202.711 21.7933C203.08 21.7933 203.386 21.9096 203.628 22.143C203.93 22.4338 204.082 22.8663 204.082 23.438V25.7338Z" fill="black"/>
<path d="M208.951 23.6205C208.951 23.7745 208.939 23.9039 208.917 24.0096H206.243C206.255 24.3913 206.383 24.682 206.63 24.8835C206.857 25.0637 207.149 25.1538 207.506 25.1538C207.901 25.1538 208.262 25.0932 208.587 24.9712L208.727 25.5675C208.346 25.7264 207.899 25.8058 207.381 25.8058C206.76 25.8058 206.27 25.6297 205.917 25.2775C205.561 24.9253 205.385 24.4527 205.385 23.8597C205.385 23.2773 205.549 22.7924 205.88 22.4058C206.225 21.993 206.692 21.7866 207.282 21.7866C207.859 21.7866 208.297 21.993 208.593 22.4058C208.832 22.7335 208.951 23.1389 208.951 23.6205ZM208.1 23.3986C208.107 23.1438 208.048 22.9243 207.927 22.7392C207.772 22.5009 207.536 22.3813 207.217 22.3813C206.926 22.3813 206.689 22.4976 206.508 22.731C206.36 22.9169 206.272 23.1389 206.243 23.3986H208.1Z" fill="black"/>
</svg>
