<svg width="69" height="69" viewBox="0 0 69 69" fill="none" xmlns="http://www.w3.org/2000/svg">
<circle cx="34.5" cy="34.5" r="34.5" fill="url(#paint0_linear_82_180)"/>
<path fill-rule="evenodd" clip-rule="evenodd" d="M34.5001 40.4401C37.7475 40.4401 40.3801 37.8075 40.3801 34.5601C40.3801 31.3126 37.7475 28.6801 34.5001 28.6801C31.2527 28.6801 28.6201 31.3126 28.6201 34.5601C28.6201 37.8075 31.2527 40.4401 34.5001 40.4401ZM33.4624 31.4471H35.5377V33.5442H33.4626V35.5758H35.5377V37.6729H33.4624V35.6413H31.3874V33.5442H33.4624V31.4471ZM35.538 33.5442H37.6133V35.6413H35.538V33.5442Z" fill="black"/>
<path fill-rule="evenodd" clip-rule="evenodd" d="M34.5 17.88C37.1952 17.88 39.38 15.6951 39.38 13C39.38 10.3048 37.1952 8.12 34.5 8.12C31.8049 8.12 29.62 10.3048 29.62 13C29.62 15.6951 31.8049 17.88 34.5 17.88ZM34.5 18.88C37.7474 18.88 40.38 16.2474 40.38 13C40.38 9.75256 37.7474 7.12 34.5 7.12C31.2526 7.12 28.62 9.75256 28.62 13C28.62 16.2474 31.2526 18.88 34.5 18.88ZM34.5 45.32C40.4426 45.32 45.26 40.5026 45.26 34.56C45.26 28.6174 40.4426 23.8 34.5 23.8C28.5574 23.8 23.74 28.6174 23.74 34.56C23.74 40.5026 28.5574 45.32 34.5 45.32ZM34.5 46.32C40.9949 46.32 46.26 41.0549 46.26 34.56C46.26 28.0651 40.9949 22.8 34.5 22.8C28.0051 22.8 22.74 28.0651 22.74 34.56C22.74 41.0549 28.0051 46.32 34.5 46.32ZM39.38 56.12C39.38 58.8151 37.1952 61 34.5 61C31.8049 61 29.62 58.8151 29.62 56.12C29.62 53.4248 31.8049 51.24 34.5 51.24C37.1952 51.24 39.38 53.4248 39.38 56.12ZM40.38 56.12C40.38 59.3674 37.7474 62 34.5 62C31.2526 62 28.62 59.3674 28.62 56.12C28.62 52.8726 31.2526 50.24 34.5 50.24C37.7474 50.24 40.38 52.8726 40.38 56.12ZM15.88 27.68C18.5751 27.68 20.76 25.4951 20.76 22.8C20.76 20.1048 18.5751 17.92 15.88 17.92C13.1849 17.92 11 20.1048 11 22.8C11 25.4951 13.1849 27.68 15.88 27.68ZM15.88 28.68C19.1274 28.68 21.76 26.0474 21.76 22.8C21.76 19.5526 19.1274 16.92 15.88 16.92C12.6326 16.92 10 19.5526 10 22.8C10 26.0474 12.6326 28.68 15.88 28.68ZM20.76 45.34C20.76 48.0351 18.5751 50.22 15.88 50.22C13.1849 50.22 11 48.0351 11 45.34C11 42.6448 13.1849 40.46 15.88 40.46C18.5751 40.46 20.76 42.6448 20.76 45.34ZM21.76 45.34C21.76 48.5874 19.1274 51.22 15.88 51.22C12.6326 51.22 10 48.5874 10 45.34C10 42.0926 12.6326 39.46 15.88 39.46C19.1274 39.46 21.76 42.0926 21.76 45.34ZM53.12 27.68C55.8152 27.68 58 25.4951 58 22.8C58 20.1048 55.8152 17.92 53.12 17.92C50.4249 17.92 48.24 20.1048 48.24 22.8C48.24 25.4951 50.4249 27.68 53.12 27.68ZM53.12 28.68C56.3674 28.68 59 26.0474 59 22.8C59 19.5526 56.3674 16.92 53.12 16.92C49.8726 16.92 47.24 19.5526 47.24 22.8C47.24 26.0474 49.8726 28.68 53.12 28.68ZM58 45.34C58 48.0351 55.8152 50.22 53.12 50.22C50.4249 50.22 48.24 48.0351 48.24 45.34C48.24 42.6448 50.4249 40.46 53.12 40.46C55.8152 40.46 58 42.6448 58 45.34ZM59 45.34C59 48.5874 56.3674 51.22 53.12 51.22C49.8726 51.22 47.24 48.5874 47.24 45.34C47.24 42.0926 49.8726 39.46 53.12 39.46C56.3674 39.46 59 42.0926 59 45.34Z" fill="black"/>
<path fill-rule="evenodd" clip-rule="evenodd" d="M41.9664 15.3978C42.0683 15.0803 42.1505 14.7539 42.2116 14.4202C44.114 15.149 45.8868 16.1397 47.4859 17.3481C47.2536 17.588 47.0366 17.8428 46.8363 18.1108C45.3553 16.9984 43.7193 16.0813 41.9664 15.3978ZM54.657 30.4894C54.9877 30.4236 55.3109 30.3371 55.6252 30.2312C55.9103 31.6297 56.0599 33.0774 56.0599 34.56C56.0599 35.7194 55.9684 36.8574 55.7922 37.9672C55.4783 37.8534 55.155 37.7591 54.8239 37.6857C54.9793 36.6665 55.0599 35.6227 55.0599 34.56C55.0599 33.1664 54.9213 31.8052 54.657 30.4894ZM47.3302 50.6264C45.7221 51.9124 43.9166 52.9619 41.9665 53.7223C42.0684 54.0398 42.1506 54.3662 42.2116 54.6999C44.3433 53.8832 46.3122 52.7378 48.0564 51.3257C47.7996 51.1083 47.5571 50.8747 47.3302 50.6264ZM14.176 37.6857C14.0206 36.6665 13.9399 35.6227 13.9399 34.56C13.9399 33.1664 14.0786 31.8052 14.3429 30.4894C14.0122 30.4237 13.6889 30.3371 13.3746 30.2312C13.0896 31.6297 12.9399 33.0774 12.9399 34.56C12.9399 35.7194 13.0315 36.8574 13.2076 37.9672C13.5216 37.8534 13.8449 37.7591 14.176 37.6857ZM21.6696 50.6264C21.4428 50.8747 21.2002 51.1083 20.9435 51.3257C22.6877 52.7378 24.6566 53.8832 26.7882 54.6999C26.8493 54.3661 26.9315 54.0398 27.0333 53.7223C25.0832 52.9618 23.2778 51.9123 21.6696 50.6264ZM27.0334 15.3978C25.2805 16.0813 23.6445 16.9984 22.1636 18.1108C21.9633 17.8428 21.7462 17.5881 21.514 17.3481C23.1131 16.1397 24.8858 15.1491 26.7882 14.4202C26.8493 14.7539 26.9315 15.0803 27.0334 15.3978Z" fill="black"/>
<defs>
<linearGradient id="paint0_linear_82_180" x1="69" y1="-2.05636e-06" x2="2.05636e-06" y2="69" gradientUnits="userSpaceOnUse">
<stop offset="0.395833" stop-color="#A9FFE0"/>
<stop offset="1" stop-color="#86D5FF"/>
</linearGradient>
</defs>
</svg>
