<svg width="69" height="69" viewBox="0 0 69 69" fill="none" xmlns="http://www.w3.org/2000/svg">
<circle cx="34.5" cy="34.5" r="34.5" fill="#06E594"/>
<path fill-rule="evenodd" clip-rule="evenodd" d="M31 35C29.3414 35 28 33.6586 28 32C28 30.3414 29.348 29 31 29C32.652 29 33.9868 30.3348 34 31.9802C34.0132 30.3348 35.348 29 37 29C38.6586 29 40 30.3414 40 32C40 33.652 38.6652 34.9934 37.0132 35C38.6652 35.0066 40 36.348 40 38C40 39.6586 38.6586 41 37 41C35.3414 41 34 39.6586 34 38C34 36.348 35.3348 35.0066 36.9868 35C35.3414 34.9934 34.0132 33.6652 34 32.0198C33.9934 33.6652 32.652 35 31 35Z" fill="white"/>
<path d="M31 41C29.3431 41 28 39.6569 28 38C28 36.3431 29.3431 35 31 35C32.6569 35 34 36.3431 34 38C34 39.6569 32.6569 41 31 41Z" fill="white"/>
<path fill-rule="evenodd" clip-rule="evenodd" d="M34 18C36.7614 18 39 15.7614 39 13C39 10.2386 36.7614 8 34 8C31.2386 8 29 10.2386 29 13C29 15.7614 31.2386 18 34 18ZM34 19C37.3137 19 40 16.3137 40 13C40 9.68629 37.3137 7 34 7C30.6863 7 28 9.68629 28 13C28 16.3137 30.6863 19 34 19ZM34 46C40.0751 46 45 41.0751 45 35C45 28.9249 40.0751 24 34 24C27.9249 24 23 28.9249 23 35C23 41.0751 27.9249 46 34 46ZM34 47C40.6274 47 46 41.6274 46 35C46 28.3726 40.6274 23 34 23C27.3726 23 22 28.3726 22 35C22 41.6274 27.3726 47 34 47ZM39 57C39 59.7614 36.7614 62 34 62C31.2386 62 29 59.7614 29 57C29 54.2386 31.2386 52 34 52C36.7614 52 39 54.2386 39 57ZM40 57C40 60.3137 37.3137 63 34 63C30.6863 63 28 60.3137 28 57C28 53.6863 30.6863 51 34 51C37.3137 51 40 53.6863 40 57ZM15 28C17.7614 28 20 25.7614 20 23C20 20.2386 17.7614 18 15 18C12.2386 18 10 20.2386 10 23C10 25.7614 12.2386 28 15 28ZM15 29C18.3137 29 21 26.3137 21 23C21 19.6863 18.3137 17 15 17C11.6863 17 9 19.6863 9 23C9 26.3137 11.6863 29 15 29ZM20 46C20 48.7614 17.7614 51 15 51C12.2386 51 10 48.7614 10 46C10 43.2386 12.2386 41 15 41C17.7614 41 20 43.2386 20 46ZM21 46C21 49.3137 18.3137 52 15 52C11.6863 52 9 49.3137 9 46C9 42.6863 11.6863 40 15 40C18.3137 40 21 42.6863 21 46ZM53 28C55.7614 28 58 25.7614 58 23C58 20.2386 55.7614 18 53 18C50.2386 18 48 20.2386 48 23C48 25.7614 50.2386 28 53 28ZM53 29C56.3137 29 59 26.3137 59 23C59 19.6863 56.3137 17 53 17C49.6863 17 47 19.6863 47 23C47 26.3137 49.6863 29 53 29ZM58 46C58 48.7614 55.7614 51 53 51C50.2386 51 48 48.7614 48 46C48 43.2386 50.2386 41 53 41C55.7614 41 58 43.2386 58 46ZM59 46C59 49.3137 56.3137 52 53 52C49.6863 52 47 49.3137 47 46C47 42.6863 49.6863 40 53 40C56.3137 40 59 42.6863 59 46Z" fill="white"/>
<path fill-rule="evenodd" clip-rule="evenodd" d="M41.6252 15.4272C41.7263 15.1093 41.808 14.7828 41.8691 14.4491C43.8103 15.1929 45.6193 16.2037 47.251 17.4368C47.0187 17.6768 46.8014 17.9312 46.6004 18.1987C45.0874 17.0622 43.416 16.1254 41.6252 15.4272ZM54.5885 30.8423C54.9189 30.7757 55.2421 30.6888 55.5564 30.5828C55.8473 32.0098 56 33.4871 56 35C56 36.183 55.9066 37.3443 55.7268 38.4767C55.4128 38.3629 55.0896 38.2681 54.7587 38.1939C54.9176 37.1525 55 36.0858 55 35C55 33.5766 54.8584 32.1862 54.5885 30.8423ZM47.106 51.4093C45.4628 52.7234 43.6179 53.7959 41.6252 54.5728C41.7263 54.8906 41.808 55.2171 41.8691 55.5509C44.0442 54.7175 46.0533 53.5487 47.8331 52.1078C47.5763 51.8904 47.3334 51.657 47.106 51.4093ZM13.2413 38.1939C13.0824 37.1525 13 36.0858 13 35C13 33.5766 13.1416 32.1862 13.4115 30.8423C13.0811 30.7757 12.7579 30.6888 12.4436 30.5828C12.1527 32.0098 12 33.4871 12 35C12 36.183 12.0934 37.3443 12.2732 38.4767C12.5872 38.3629 12.9104 38.2681 13.2413 38.1939ZM20.894 51.4093C20.6666 51.657 20.4237 51.8904 20.1669 52.1078C21.9467 53.5487 23.9558 54.7175 26.1309 55.5509C26.192 55.2171 26.2737 54.8906 26.3748 54.5728C24.3821 53.7959 22.5372 52.7234 20.894 51.4093ZM26.3748 15.4272C24.584 16.1254 22.9126 17.0622 21.3996 18.1987C21.1986 17.9312 20.9813 17.6768 20.749 17.4368C22.3807 16.2037 24.1897 15.1929 26.1309 14.4491C26.192 14.7828 26.2737 15.1093 26.3748 15.4272Z" fill="white"/>
</svg>
