<svg width="48" height="40" viewBox="0 0 48 40" fill="none" xmlns="http://www.w3.org/2000/svg">
<rect width="48" height="40" rx="8" fill="white" fill-opacity="0.4"/>
<path d="M28.6926 20.5465C28.673 18.3728 30.4724 17.3153 30.5547 17.2661C29.5356 15.7803 27.9561 15.5773 27.401 15.5611C26.0744 15.4215 24.7876 16.3549 24.1118 16.3549C23.4225 16.3549 22.3819 15.5746 21.2603 15.5975C19.817 15.6198 18.4668 16.4554 17.7262 17.753C16.198 20.3988 17.3378 24.2869 18.802 26.4256C19.5344 27.473 20.3903 28.6424 21.5105 28.6013C22.6065 28.5561 23.0158 27.9026 24.3384 27.9026C25.6488 27.9026 26.0333 28.6013 27.1757 28.575C28.352 28.5561 29.0925 27.5229 29.7993 26.466C30.6457 25.2655 30.9856 24.0833 30.9991 24.0226C30.9715 24.0131 28.7148 23.1519 28.6926 20.5465Z" fill="#0C0B0B"/>
<path d="M26.533 14.1542C27.1224 13.4171 27.5257 12.4142 27.4138 11.3965C26.5606 11.4343 25.4937 11.9866 24.8793 12.7076C24.3357 13.3429 23.8501 14.3842 23.9755 15.3635C24.9339 15.435 25.9179 14.8799 26.533 14.1542Z" fill="#0C0B0B"/>
</svg>
