<svg width="40" height="40" viewBox="0 0 40 40" fill="none" xmlns="http://www.w3.org/2000/svg">
<path d="M27.3739 14.2932C27.7645 14.6837 27.7645 15.3169 27.3739 15.7074C26.9834 16.098 26.3502 16.098 25.9597 15.7074L27.3739 14.2932ZM20.0002 8.33366L19.2931 7.62655L20.0002 6.91945L20.7073 7.62655L20.0002 8.33366ZM14.0406 15.7074C13.6501 16.098 13.0169 16.098 12.6264 15.7074C12.2359 15.3169 12.2359 14.6837 12.6264 14.2932L14.0406 15.7074ZM21.0002 31.667C21.0002 32.2193 20.5524 32.667 20.0002 32.667C19.4479 32.667 19.0002 32.2193 19.0002 31.667H21.0002ZM25.9597 15.7074L19.2931 9.04077L20.7073 7.62655L27.3739 14.2932L25.9597 15.7074ZM20.7073 9.04077L14.0406 15.7074L12.6264 14.2932L19.2931 7.62655L20.7073 9.04077ZM21.0002 8.33366V31.667H19.0002V8.33366H21.0002Z" fill="white"/>
</svg>
