<svg width="40" height="40" viewBox="0 0 40 40" fill="none" xmlns="http://www.w3.org/2000/svg">
<g opacity="0.8">
<path d="M27.3739 25.7068C27.7645 25.3163 27.7645 24.6831 27.3739 24.2926C26.9834 23.902 26.3502 23.902 25.9597 24.2926L27.3739 25.7068ZM20.0002 31.6663L19.2931 32.3734L20.0002 33.0806L20.7073 32.3734L20.0002 31.6663ZM14.0406 24.2926C13.6501 23.902 13.0169 23.902 12.6264 24.2926C12.2359 24.6831 12.2359 25.3163 12.6264 25.7068L14.0406 24.2926ZM21.0002 8.33301C21.0002 7.78072 20.5524 7.33301 20.0002 7.33301C19.4479 7.33301 19.0002 7.78072 19.0002 8.33301H21.0002ZM25.9597 24.2926L19.2931 30.9592L20.7073 32.3734L27.3739 25.7068L25.9597 24.2926ZM20.7073 30.9592L14.0406 24.2926L12.6264 25.7068L19.2931 32.3734L20.7073 30.9592ZM21.0002 31.6663V8.33301H19.0002V31.6663H21.0002Z" fill="white"/>
</g>
</svg>
