<?xml version="1.0" encoding="utf-8"?>
<!-- Generator: Adobe Illustrator 25.0.0, SVG Export Plug-In . SVG Version: 6.00 Build 0)  -->
<svg version="1.1" id="Layer_1" xmlns="http://www.w3.org/2000/svg" xmlns:xlink="http://www.w3.org/1999/xlink" x="0px" y="0px"
	 viewBox="0 0 1440 711" style="enable-background:new 0 0 1440 711;" xml:space="preserve">
<style type="text/css">
	.st0{filter:url(#Adobe_OpacityMaskFilter);}
	.st1{mask:url(#mask0_466:425_1_);}
	.st2{fill:none;}
	.st3{opacity:0.15;}
	.st4{fill:url(#SVGID_1_);}
	.st5{fill:#0B754E;}
	.st6{fill:url(#SVGID_2_);}
	.st7{fill:url(#SVGID_3_);}
	.st8{fill:url(#SVGID_4_);}
	.st9{fill:url(#SVGID_5_);}
	.st10{fill:url(#SVGID_6_);}
	.st11{fill:url(#SVGID_7_);}
	.st12{fill:url(#SVGID_8_);}
	.st13{fill:url(#SVGID_9_);}
	.st14{fill:url(#SVGID_10_);}
	.st15{fill:url(#SVGID_11_);}
	.st16{fill:url(#SVGID_12_);}
	.st17{fill:url(#SVGID_13_);}
	.st18{fill:url(#SVGID_14_);}
	.st19{fill:url(#SVGID_15_);}
	.st20{fill:url(#SVGID_16_);}
	.st21{fill:url(#SVGID_17_);}
	.st22{fill:url(#SVGID_18_);}
	.st23{fill:url(#SVGID_19_);}
	.st24{fill:url(#SVGID_20_);}
	.st25{fill:url(#SVGID_21_);}
	.st26{fill:url(#SVGID_22_);}
	.st27{fill:url(#SVGID_23_);}
	.st28{fill:url(#SVGID_24_);}
	.st29{fill:url(#SVGID_25_);}
	.st30{fill:url(#SVGID_26_);}
	.st31{fill:url(#SVGID_27_);}
	.st32{fill:url(#SVGID_28_);}
	.st33{fill:url(#SVGID_29_);}
	.st34{fill:url(#SVGID_30_);}
	.st35{fill:url(#SVGID_31_);}
	.st36{fill:url(#SVGID_32_);}
	.st37{fill:url(#SVGID_33_);}
	.st38{fill:url(#SVGID_34_);}
	.st39{fill:url(#SVGID_35_);}
	.st40{fill:url(#SVGID_36_);}
	.st41{fill:url(#SVGID_37_);}
	.st42{fill:url(#SVGID_38_);}
	.st43{fill:url(#SVGID_39_);}
	.st44{fill:url(#SVGID_40_);}
	.st45{fill:url(#SVGID_41_);}
	.st46{fill:url(#SVGID_42_);}
	.st47{fill:url(#SVGID_43_);}
	.st48{fill:url(#SVGID_44_);}
	.st49{fill:url(#SVGID_45_);}
	.st50{fill:url(#SVGID_46_);}
	.st51{fill:url(#SVGID_47_);}
	.st52{fill:url(#SVGID_48_);}
	.st53{fill:url(#SVGID_49_);}
	.st54{fill:url(#SVGID_50_);}
	.st55{fill:url(#SVGID_51_);}
	.st56{fill:url(#SVGID_52_);}
	.st57{fill:url(#SVGID_53_);}
	.st58{fill:url(#SVGID_54_);}
	.st59{fill:url(#SVGID_55_);}
	.st60{fill:url(#SVGID_56_);}
	.st61{fill:url(#SVGID_57_);}
	.st62{fill:url(#SVGID_58_);}
	.st63{fill:url(#SVGID_59_);}
	.st64{fill:url(#SVGID_60_);}
	.st65{fill:url(#SVGID_61_);}
	.st66{fill:url(#SVGID_62_);}
	.st67{fill:url(#SVGID_63_);}
	.st68{fill:url(#SVGID_64_);}
	.st69{fill:url(#SVGID_65_);}
	.st70{fill:url(#SVGID_66_);}
	.st71{fill:url(#SVGID_67_);}
	.st72{fill:url(#SVGID_68_);}
	.st73{fill:url(#SVGID_69_);}
	.st74{fill:url(#SVGID_70_);}
	.st75{fill:url(#SVGID_71_);}
	.st76{fill:url(#SVGID_72_);}
	.st77{fill:url(#SVGID_73_);}
	.st78{fill:url(#SVGID_74_);}
	.st79{fill:url(#SVGID_75_);}
	.st80{fill:url(#SVGID_76_);}
	.st81{fill:url(#SVGID_77_);}
	.st82{fill:url(#SVGID_78_);}
	.st83{fill:url(#SVGID_79_);}
	.st84{fill:url(#SVGID_80_);}
	.st85{fill:url(#SVGID_81_);}
	.st86{fill:url(#SVGID_82_);}
	.st87{fill:url(#SVGID_83_);}
	.st88{fill:url(#SVGID_84_);}
	.st89{fill:url(#SVGID_85_);}
	.st90{fill:url(#SVGID_86_);}
	.st91{fill:url(#SVGID_87_);}
	.st92{fill:url(#SVGID_88_);}
	.st93{fill:url(#SVGID_89_);}
	.st94{fill:url(#SVGID_90_);}
	.st95{fill:url(#SVGID_91_);}
	.st96{fill:url(#SVGID_92_);}
	.st97{fill:url(#SVGID_93_);}
	.st98{fill:url(#SVGID_94_);}
	.st99{fill:url(#SVGID_95_);}
	.st100{fill:url(#SVGID_96_);}
	.st101{fill:url(#SVGID_97_);}
	.st102{fill:url(#SVGID_98_);}
	.st103{fill:url(#SVGID_99_);}
	.st104{fill:url(#SVGID_100_);}
	.st105{fill:#FFFFFF;}
</style>
<defs>
	<filter id="Adobe_OpacityMaskFilter" filterUnits="userSpaceOnUse" x="-599" y="-52" width="2547.5" height="1691.3">
		<feColorMatrix  type="matrix" values="1 0 0 0 0  0 1 0 0 0  0 0 1 0 0  0 0 0 1 0"/>
	</filter>
</defs>
<mask maskUnits="userSpaceOnUse" x="-599" y="-52" width="2547.5" height="1691.3" id="mask0_466:425_1_">
	<rect class="st0" width="1440" height="711"/>
</mask>
<g class="st1">
	<g>
		
			<rect x="-447.3" y="38.3" transform="matrix(0.9564 -0.2921 0.2921 0.9564 -182.4114 11.8048)" class="st2" width="791.2" height="1157"/>
	</g>
	<g class="st3">
		
			<linearGradient id="SVGID_1_" gradientUnits="userSpaceOnUse" x1="442.787" y1="848.4592" x2="1210.0709" y2="457.1978" gradientTransform="matrix(1 0 0 -1 0 712)">
			<stop  offset="0" style="stop-color:#06E594"/>
			<stop  offset="1" style="stop-color:#303030"/>
		</linearGradient>
		<path class="st4" d="M587.2,18.5l121.2-6.6l121.3-0.7L587.2,18.5z M829.7,11.2l121,5.2l120,11.1L829.7,11.2z M587.2,18.5
			l242.5-7.3l241,16.2L587.2,18.5z M347.6,50.2l119.1-19l120.4-12.7L347.6,50.2z M1070.7,27.5l118.4,17.2l116.2,23.5L1070.7,27.5z"
			/>
		<path class="st5" d="M814.1,473.5L814,553l-81.5,0.5L814.1,473.5z M731.9,474l0.6,79.5l-81.2,5.5L731.9,474z M895.9,477.8
			l-0.8,79.6L814,553L895.9,477.8z"/>
		
			<linearGradient id="SVGID_2_" gradientUnits="userSpaceOnUse" x1="182.665" y1="734.532" x2="520.327" y2="562.3479" gradientTransform="matrix(1 0 0 -1 0 712)">
			<stop  offset="0" style="stop-color:#06E594"/>
			<stop  offset="1" style="stop-color:#303030"/>
		</linearGradient>
		<path class="st6" d="M115.8,108.6l231.8-58.4l239.6-31.6L115.8,108.6z"/>
		<path class="st5" d="M731.9,474l82.2-0.5l-81.6,80L731.9,474z M814.1,473.5l81.8,4.3L814,553L814.1,473.5z M650,479.4l1.3,79.6
			L571,569.7L650,479.4z"/>
		
			<linearGradient id="SVGID_3_" gradientUnits="userSpaceOnUse" x1="660.4569" y1="837.1462" x2="1454.4811" y2="432.2482" gradientTransform="matrix(1 0 0 -1 0 712)">
			<stop  offset="0" style="stop-color:#06E594"/>
			<stop  offset="1" style="stop-color:#303030"/>
		</linearGradient>
		<path class="st7" d="M587.2,18.5l483.5,8.9l457.1,108.6L587.2,18.5z"/>
		<path class="st5" d="M976.7,487l-1.5,79.8l-80.1-9.4L976.7,487z M650,479.4l81.9-5.4l-80.6,85L650,479.4z M895.9,477.8l80.8,9.2
			l-81.6,70.4L895.9,477.8z M569,489.8l81.1-10.4L571,569.7L569,489.8z M569,489.8l2,79.8l-78.9,15.9L569,489.8z M814.2,392.6
			l-0.1,80.9l-82.2,0.5L814.2,392.6z M1056,501.1l-2.2,80.1l-78.5-14.5L1056,501.1z M731.3,393.1l0.6,80.9l-81.9,5.4L731.3,393.1z
			 M896.7,396.8l-0.8,81l-81.8-4.3L896.7,396.8z M976.7,487l79.2,14.2l-80.7,65.6L976.7,487z"/>
		
			<linearGradient id="SVGID_4_" gradientUnits="userSpaceOnUse" x1="151.5524" y1="673.5193" x2="311.8866" y2="591.7609" gradientTransform="matrix(1 0 0 -1 0 712)">
			<stop  offset="0" style="stop-color:#06E594"/>
			<stop  offset="1" style="stop-color:#303030"/>
		</linearGradient>
		<path class="st8" d="M115.8,108.6l114.6-32.8l117.2-25.6L115.8,108.6z"/>
		<path class="st5" d="M731.3,393.1l82.9-0.5L731.9,474L731.3,393.1z"/>
		
			<linearGradient id="SVGID_5_" gradientUnits="userSpaceOnUse" x1="1095.8499" y1="733.9284" x2="1502.5602" y2="526.5328" gradientTransform="matrix(1 0 0 -1 0 712)">
			<stop  offset="0" style="stop-color:#06E594"/>
			<stop  offset="1" style="stop-color:#303030"/>
		</linearGradient>
		<path class="st9" d="M1070.7,27.5l234.6,40.7l222.5,67.9L1070.7,27.5z"/>
		<path class="st5" d="M814.2,392.6l82.5,4.2l-82.6,76.7L814.2,392.6z M648.7,398.4l1.3,81L569,489.8L648.7,398.4z M978.3,405.8
			l-1.5,81.2l-80.8-9.2L978.3,405.8z M648.7,398.4l82.6-5.3L650,479.4L648.7,398.4z M489.4,505.4l79.6-15.5l-76.9,95.7L489.4,505.4z
			 M896.7,396.8l81.5,9l-82.4,72L896.7,396.8z M489.4,505.4l2.7,80.2l-76.7,21.3L489.4,505.4z M1132.9,520.4L1130,601l-76.2-19.7
			L1132.9,520.4z M566.9,408.6l81.8-10.2L569,489.8L566.9,408.6z M1055.9,501.2l76.9,19.3l-79.1,60.9L1055.9,501.2z M566.9,408.6
			l2,81.2l-79.6,15.5L566.9,408.6z M814.3,310.3l-0.1,82.3l-82.9,0.5L814.3,310.3z M1058.2,419.6l-2.2,81.5L976.7,487L1058.2,419.6z
			 M730.7,310.8l0.6,82.3l-82.6,5.3L730.7,310.8z M897.6,314.4l-0.8,82.4l-82.5-4.2L897.6,314.4z M978.3,405.8l79.9,13.8L976.7,487
			L978.3,405.8z M730.7,310.8l83.6-0.5l-83,82.8L730.7,310.8z M412,526.2l77.4-20.9l-74,101.5L412,526.2z M814.3,310.3l83.2,4.1
			l-83.4,78.2L814.3,310.3z M647.4,316l1.3,82.4l-81.8,10.2L647.4,316z"/>
		
			<linearGradient id="SVGID_6_" gradientUnits="userSpaceOnUse" x1="650.1901" y1="817.0133" x2="1444.2161" y2="412.1169" gradientTransform="matrix(1 0 0 -1 0 712)">
			<stop  offset="0" style="stop-color:#06E594"/>
			<stop  offset="1" style="stop-color:#303030"/>
		</linearGradient>
		<path class="st10" d="M587.2,18.5l940.6,117.5l-798.3,5.7L587.2,18.5z"/>
		<path class="st5" d="M979.8,323.1l-1.6,82.6l-81.5-9L979.8,323.1z M647.4,316l83.4-5.2l-82,87.6L647.4,316z M486.6,423.8
			l80.3-15.2l-77.5,96.8L486.6,423.8z"/>
		
			<linearGradient id="SVGID_7_" gradientUnits="userSpaceOnUse" x1="640.4415" y1="797.8956" x2="1434.4669" y2="392.9987" gradientTransform="matrix(1 0 0 -1 0 712)">
			<stop  offset="0" style="stop-color:#06E594"/>
			<stop  offset="1" style="stop-color:#303030"/>
		</linearGradient>
		<path class="st11" d="M587.2,18.5l142.3,123.3l-84.9,4.9L587.2,18.5z M1305.2,68.2l113.2,30.3l109.3,37.6L1305.2,68.2z"/>
		<path class="st5" d="M897.6,314.4l82.3,8.7l-83.1,73.7L897.6,314.4z M411.9,526.2l3.4,80.7l-73.9,27.1L411.9,526.2z M486.6,423.8
			l2.7,81.6l-77.4,20.9L486.6,423.8z M1132.9,520.4l73.9,24.6l-76.8,56L1132.9,520.4z M1135.8,438.4l-2.9,82l-76.9-19.3
			L1135.8,438.4z"/>
		
			<linearGradient id="SVGID_8_" gradientUnits="userSpaceOnUse" x1="556.6099" y1="633.4918" x2="654.0456" y2="583.8062" gradientTransform="matrix(1 0 0 -1 0 712)">
			<stop  offset="0" style="stop-color:#06E594"/>
			<stop  offset="1" style="stop-color:#303030"/>
		</linearGradient>
		<path class="st12" d="M587.2,18.5l57.4,128.2l-84,9.4L587.2,18.5z"/>
		<path class="st5" d="M1206.8,545l-3.6,81.1L1130,601L1206.8,545z M564.8,325.9l82.5-9.9l-80.4,92.6L564.8,325.9z M1058.2,419.6
			l77.6,18.8l-79.9,62.7L1058.2,419.6z M564.8,325.9l2.1,82.7l-80.3,15.2L564.8,325.9z M814.4,226.5l-0.1,83.8l-83.6,0.5
			L814.4,226.5z M1060.5,336.6l-2.3,83l-79.9-13.8L1060.5,336.6z M730.1,227.1l0.6,83.8l-83.4,5.2L730.1,227.1z M898.4,230.5
			l-0.9,83.9l-83.2-4.1L898.4,230.5z M979.8,323.1l80.6,13.5l-82.2,69.2L979.8,323.1z"/>
		
			<linearGradient id="SVGID_9_" gradientUnits="userSpaceOnUse" x1="520.0207" y1="624.1091" x2="579.8311" y2="593.6102" gradientTransform="matrix(1 0 0 -1 0 712)">
			<stop  offset="0" style="stop-color:#06E594"/>
			<stop  offset="1" style="stop-color:#303030"/>
		</linearGradient>
		<path class="st13" d="M587.2,18.5l-26.6,137.6l-82.5,14L587.2,18.5z"/>
		<path class="st5" d="M730.1,227.1l84.3-0.5l-83.7,84.3L730.1,227.1z M408.5,444.2l78.1-20.4l-74.7,102.5L408.5,444.2z
			 M814.4,226.6l84,4l-84.1,79.8L814.4,226.6z M646,232.1l1.4,83.9l-82.5,9.9L646,232.1z M337.3,552.7l74.6-26.5L341.4,634
			L337.3,552.7z M981.4,239l-1.6,84.1l-82.3-8.7L981.4,239z M646,232.1l84.1-5L647.4,316L646,232.1z M483.8,340.7l81-14.8
			l-78.2,97.8L483.8,340.7z M898.4,230.5l83,8.5l-83.9,75.4L898.4,230.5z M408.5,444.2l3.5,82.1l-74.6,26.5L408.5,444.2z
			 M483.8,340.7l2.8,83.1l-78.1,20.4L483.8,340.7z"/>
		
			<linearGradient id="SVGID_10_" gradientUnits="userSpaceOnUse" x1="451.7753" y1="629.0154" x2="533.1697" y2="587.5099" gradientTransform="matrix(1 0 0 -1 0 712)">
			<stop  offset="0" style="stop-color:#06E594"/>
			<stop  offset="1" style="stop-color:#303030"/>
		</linearGradient>
		<path class="st14" d="M587.2,18.5L478.1,170.1l-80.4,18.8L587.2,18.5z"/>
		<path class="st5" d="M1135.8,438.4l74.6,24l-77.6,58L1135.8,438.4z M1138.8,355l-3,83.5l-77.6-18.8L1138.8,355z M1210.4,462.4
			l-3.6,82.6l-73.9-24.6L1210.4,462.4z M562.8,241.8l83.2-9.7l-81.1,93.8L562.8,241.8z M1060.5,336.6l78.3,18.3l-80.6,64.7
			L1060.5,336.6z M337.3,552.7l4.1,81.2L273.2,666L337.3,552.7z M562.8,241.8l2.1,84.2l-81,14.8L562.8,241.8z M814.6,141.3
			l-0.1,85.2l-84.3,0.5L814.6,141.3z M1206.8,545l70.1,30.2l-73.7,51L1206.8,545z M1062.8,252.1l-2.3,84.5l-80.6-13.5L1062.8,252.1z
			 M729.5,141.8l0.6,85.3l-84.1,5L729.5,141.8z M1277,575.2l-4.2,81.8l-69.5-30.8L1277,575.2z M899.3,145.1l-0.9,85.4l-84-4
			L899.3,145.1z M981.4,239l81.4,13.1l-83,71L981.4,239z M729.5,141.8l85.1-0.5l-84.5,85.8L729.5,141.8z M405,360.6l78.9-19.9
			l-75.4,103.4L405,360.6z M814.6,141.3l84.7,3.9l-84.9,81.4L814.6,141.3z M644.6,146.7l1.4,85.4l-83.2,9.7L644.6,146.7z M333.2,470
			l75.3-25.9l-71.2,108.6L333.2,470z M983,153.4l-1.6,85.6l-83-8.5L983,153.4z M644.6,146.7l84.9-4.9L646,232.1L644.6,146.7z
			 M481,256.2l81.8-14.4l-78.9,98.9L481,256.2z"/>
		
			<linearGradient id="SVGID_11_" gradientUnits="userSpaceOnUse" x1="-32.5901" y1="838.0602" x2="1311.821" y2="152.5058" gradientTransform="matrix(1 0 0 -1 0 712)">
			<stop  offset="0" style="stop-color:#06E594"/>
			<stop  offset="1" style="stop-color:#303030"/>
		</linearGradient>
		<path class="st15" d="M587.2,18.5L397.7,188.9l-77.5,23.9L587.2,18.5z M-248.5,297.4l364.3-188.8l471.4-90L-248.5,297.4z
			 M1527.7,136.1l-713.2,5.2l-85.1,0.5L1527.7,136.1z M1527.7,136.1l-628.5,9.1l-84.7-3.9L1527.7,136.1z"/>
		<path class="st5" d="M899.3,145.2l83.7,8.3l-84.6,77.1L899.3,145.2z M268.5,584.1l68.8-31.4L273.2,666L268.5,584.1z M405,360.6
			l3.5,83.6L333.2,470L405,360.6z M481,256.2l2.8,84.5L405,360.6L481,256.2z M1138.8,355l75.3,23.4l-78.3,60.1L1138.8,355z
			 M1141.9,270l-3,85l-78.3-18.3L1141.9,270z M1214.1,378.4l-3.7,84.1l-74.6-24L1214.1,378.4z"/>
		
			<linearGradient id="SVGID_12_" gradientUnits="userSpaceOnUse" x1="965.9678" y1="697.6232" x2="1461.0623" y2="445.1577" gradientTransform="matrix(1 0 0 -1 0 712)">
			<stop  offset="0" style="stop-color:#06E594"/>
			<stop  offset="1" style="stop-color:#303030"/>
		</linearGradient>
		<path class="st16" d="M1527.8,136.1L983,153.4l-83.8-8.3L1527.8,136.1z"/>
		<path class="st5" d="M560.6,156.1l84-9.4l-81.8,95.1L560.6,156.1z M1062.8,252.1l79.1,17.8l-81.4,66.6L1062.8,252.1z M333.2,470
			l4.2,82.7l-68.8,31.4L333.2,470z M560.6,156.1l2.1,85.7L481,256.2L560.6,156.1z"/>
		
			<linearGradient id="SVGID_13_" gradientUnits="userSpaceOnUse" x1="-50.95" y1="594.1988" x2="77.6486" y2="528.6222" gradientTransform="matrix(1 0 0 -1 0 712)">
			<stop  offset="0" style="stop-color:#06E594"/>
			<stop  offset="1" style="stop-color:#303030"/>
		</linearGradient>
		<path class="st17" d="M-89.1,192.6L8,147.9l107.8-39.3L-89.1,192.6z"/>
		<path class="st5" d="M1210.4,462.4l70.8,29.5l-74.4,53.1L1210.4,462.4z M1065.2,166.1l-2.4,86L981.4,239L1065.2,166.1z
			 M1281.2,491.9l-4.3,83.3l-70.1-30.2L1281.2,491.9z M983,153.4l82.1,12.7L981.4,239L983,153.4z"/>
		
			<linearGradient id="SVGID_14_" gradientUnits="userSpaceOnUse" x1="1042.7418" y1="675.6968" x2="1468.0342" y2="458.8272" gradientTransform="matrix(1 0 0 -1 0 712)">
			<stop  offset="0" style="stop-color:#06E594"/>
			<stop  offset="1" style="stop-color:#303030"/>
		</linearGradient>
		<path class="st18" d="M1527.8,136.1l-462.6,30.1L983,153.4L1527.8,136.1z"/>
		<path class="st5" d="M268.5,584.1l4.8,81.9l-59.9,36L268.5,584.1z M401.4,275.5l79.6-19.4l-76,104.4L401.4,275.5z M1276.9,575.2
			l63.5,34.9l-67.7,46.9L1276.9,575.2z M328.9,385.8l76-25.2L333.2,470L328.9,385.8z"/>
		
			<linearGradient id="SVGID_15_" gradientUnits="userSpaceOnUse" x1="328.585" y1="627.6896" x2="507.202" y2="536.6073" gradientTransform="matrix(1 0 0 -1 0 712)">
			<stop  offset="0" style="stop-color:#06E594"/>
			<stop  offset="1" style="stop-color:#303030"/>
		</linearGradient>
		<path class="st19" d="M587.2,18.5l-267,194.3l-71.6,28.4L587.2,18.5z"/>
		<path class="st5" d="M478.1,170.1l82.5-14L481,256.2L478.1,170.1z M1340.4,610.1l-4.9,82.6l-62.8-35.7L1340.4,610.1z M263.7,500.7
			l69.5-30.7l-64.7,114.1L263.7,500.7z M401.4,275.5l3.6,85.1l-76,25.2L401.4,275.5z M478.1,170.1l2.9,86.1l-79.6,19.4L478.1,170.1z
			"/>
		
			<linearGradient id="SVGID_16_" gradientUnits="userSpaceOnUse" x1="1118.9663" y1="651.404" x2="1473.9337" y2="470.396" gradientTransform="matrix(1 0 0 -1 0 712)">
			<stop  offset="0" style="stop-color:#06E594"/>
			<stop  offset="1" style="stop-color:#303030"/>
		</linearGradient>
		<path class="st20" d="M1527.8,136.1L1145,183.5l-79.8-17.3L1527.8,136.1z"/>
		<path class="st5" d="M1141.9,270l76,22.8l-79.1,62.2L1141.9,270z M1145,183.5l-3.1,86.5l-79.1-17.8L1145,183.5z M1217.9,292.8
			l-3.8,85.6l-75.3-23.4L1217.9,292.8z M1065.2,166.1l79.8,17.3l-82.2,68.7L1065.2,166.1z M328.9,385.8l4.2,84.2l-69.5,30.7
			L328.9,385.8z M1214.2,378.4l71.5,28.7l-75.2,55.3L1214.2,378.4z M1285.7,407.1l-4.4,84.8l-70.8-29.5L1285.7,407.1z M208,619.4
			l60.5-35.3l-55.1,117.9L208,619.4z M263.7,500.7l4.8,83.4L208,619.4L263.7,500.7z M397.8,188.9l80.4-18.8l-76.7,105.4L397.8,188.9
			z M1281.3,491.9l64.1,34.1l-68.4,49.1L1281.3,491.9z"/>
		
			<linearGradient id="SVGID_17_" gradientUnits="userSpaceOnUse" x1="1194.0481" y1="624.8023" x2="1478.6719" y2="479.6667" gradientTransform="matrix(1 0 0 -1 0 712)">
			<stop  offset="0" style="stop-color:#06E594"/>
			<stop  offset="1" style="stop-color:#303030"/>
		</linearGradient>
		<path class="st21" d="M1527.8,136.1l-306,69.5l-76.8-22.1L1527.8,136.1z"/>
		<path class="st5" d="M324.6,300.1l76.8-24.6l-72.5,110.3L324.6,300.1z"/>
		
			<linearGradient id="SVGID_18_" gradientUnits="userSpaceOnUse" x1="278.5079" y1="621.2315" x2="494.26" y2="511.2137" gradientTransform="matrix(1 0 0 -1 0 712)">
			<stop  offset="0" style="stop-color:#06E594"/>
			<stop  offset="1" style="stop-color:#303030"/>
		</linearGradient>
		<path class="st22" d="M587.2,18.5L248.6,241.2l-63,31.8L587.2,18.5z"/>
		<path class="st5" d="M1345.3,526l-4.9,84.1l-63.5-34.9L1345.3,526z M258.7,415.8l70.2-30l-65.3,114.9L258.7,415.8z M397.7,188.9
			l3.6,86.6l-76.8,24.6L397.7,188.9z"/>
		<path class="st5" d="M208,619.4l5.4,82.7l-51.2,39.6L208,619.4z M1145,183.5l76.8,22.1l-79.9,64.4L1145,183.5z M1340.4,610.1
			l54.3,38.5l-59.2,44.1L1340.4,610.1z M1221.7,205.6l-3.8,87.2l-76-22.8L1221.7,205.6z M324.6,300.1l4.3,85.7l-70.2,30L324.6,300.1
			z M1217.9,292.8l72.2,28l-76,57.6L1217.9,292.8z M1394.7,648.6l-5.4,83.4l-53.7-39.3L1394.7,648.6z M1290.1,320.7l-4.5,86.4
			l-71.5-28.7L1290.1,320.7z M202.6,535.2l61.1-34.5L208,619.4L202.6,535.2z"/>
		
			<linearGradient id="SVGID_19_" gradientUnits="userSpaceOnUse" x1="1267.3733" y1="595.9188" x2="1482.1067" y2="486.4221" gradientTransform="matrix(1 0 0 -1 0 712)">
			<stop  offset="0" style="stop-color:#06E594"/>
			<stop  offset="1" style="stop-color:#303030"/>
		</linearGradient>
		<path class="st23" d="M1527.8,136.1l-233.1,96.7l-72.9-27.2L1527.8,136.1z"/>
		<path class="st5" d="M258.7,415.8l4.9,84.9l-61.1,34.5L258.7,415.8z"/>
		
			<linearGradient id="SVGID_20_" gradientUnits="userSpaceOnUse" x1="-105.8474" y1="694.3761" x2="444.5353" y2="413.719" gradientTransform="matrix(1 0 0 -1 0 712)">
			<stop  offset="0" style="stop-color:#06E594"/>
			<stop  offset="1" style="stop-color:#303030"/>
		</linearGradient>
		<path class="st24" d="M-248.5,297.4L587.2,18.5L185.6,273L-248.5,297.4z"/>
		<path class="st5" d="M1285.6,407.1l64.8,33.3l-69.1,51.5L1285.6,407.1z M320.2,212.8l77.5-23.9l-73.1,111.2L320.2,212.8z"/>
		
			<linearGradient id="SVGID_21_" gradientUnits="userSpaceOnUse" x1="-172.705" y1="563.2645" x2="40.015" y2="454.7925" gradientTransform="matrix(1 0 0 -1 0 712)">
			<stop  offset="0" style="stop-color:#06E594"/>
			<stop  offset="1" style="stop-color:#303030"/>
		</linearGradient>
		<path class="st25" d="M-248.5,297.4l159.4-104.8l204.9-84L-248.5,297.4z"/>
		<path class="st5" d="M1350.4,440.4l-5,85.6l-64.1-34.1L1350.4,440.4z M156.3,658.2l51.8-38.8l-45.9,122.3L156.3,658.2z
			 M253.7,329.3l70.9-29.2l-65.9,115.7L253.7,329.3z M202.6,535.2l5.5,84.2l-51.8,38.8L202.6,535.2z M1345.4,526l54.9,37.6
			l-59.8,46.5L1345.4,526z M320.2,212.8l4.4,87.3l-70.9,29.2L320.2,212.8z M1221.7,205.6l72.9,27.2l-76.8,60L1221.7,205.6z
			 M1400.2,563.6l-5.5,85l-54.3-38.5L1400.2,563.6z M1294.7,232.8l-4.6,88l-72.2-28L1294.7,232.8z M197,449.4l61.7-33.6l-56.2,119.4
			L197,449.4z"/>
		
			<linearGradient id="SVGID_22_" gradientUnits="userSpaceOnUse" x1="1338.2802" y1="564.7739" x2="1484.1399" y2="490.3961" gradientTransform="matrix(1 0 0 -1 0 712)">
			<stop  offset="0" style="stop-color:#06E594"/>
			<stop  offset="1" style="stop-color:#303030"/>
		</linearGradient>
		<path class="st26" d="M1360.8,264.3l-66.1-31.5l233.1-96.7L1360.8,264.3z"/>
		<path class="st5" d="M253.7,329.3l5,86.5L197,449.4L253.7,329.3z M1290.1,320.7l65.4,32.4l-69.9,53.9L1290.1,320.7z M156.3,658.2
			l5.9,83.5L120,784.6L156.3,658.2z M1394.7,648.6l44.8,41.7l-50.2,41.7L1394.7,648.6z M1355.5,353.2l-5.1,87.2l-64.8-33.3
			L1355.5,353.2z M150.2,573.1l52.3-37.9l-46.3,123L150.2,573.1z M1439.5,690.3l-5.9,84.3l-44.3-42.6L1439.5,690.3z M248.6,241.2
			l71.6-28.4l-66.5,116.5L248.6,241.2z M197,449.4l5.6,85.8l-52.3,37.9L197,449.4z M1350.4,440.4l55.5,36.7l-60.5,48.9L1350.4,440.4
			z M1405.9,477.1l-5.6,86.5l-54.9-37.6L1405.9,477.1z M191.3,362l62.4-32.8L197,449.4L191.3,362z"/>
		
			<linearGradient id="SVGID_23_" gradientUnits="userSpaceOnUse" x1="1402.7518" y1="530.067" x2="1483.4021" y2="488.9429" gradientTransform="matrix(1 0 0 -1 0 712)">
			<stop  offset="0" style="stop-color:#06E594"/>
			<stop  offset="1" style="stop-color:#303030"/>
		</linearGradient>
		<path class="st27" d="M1417.4,299l-56.7-34.7l167-128.2L1417.4,299z"/>
		<path class="st5" d="M113.6,700.2l42.6-42L120,784.6L113.6,700.2z M248.6,241.2l5.1,88.1L191.3,362L248.6,241.2z M1294.7,232.8
			l66.1,31.5l-70.7,56.5L1294.7,232.8z M150.2,573.1l6,85.1l-42.6,42L150.2,573.1z"/>
		<path class="st5" d="M1400.2,563.7l45.3,40.8l-50.9,44.2L1400.2,563.7z M1360.8,264.3l-5.2,88.9l-65.4-32.4L1360.8,264.3z"/>
		<path class="st5" d="M144.1,486.4l52.9-37l-46.8,123.7L144.1,486.4z M1445.6,604.4l-6,85.9l-44.8-41.7L1445.6,604.4z M191.3,362
			l5.7,87.4l-52.9,37L191.3,362z M1355.5,353.2l56.1,35.7l-61.2,51.5L1355.5,353.2z M113.6,700.2l6.4,84.4l-32.5,45.8L113.6,700.2z
			 M1411.6,388.9l-5.7,88.2l-55.5-36.7L1411.6,388.9z M185.6,273l63-31.8L191.3,362L185.6,273z M1439.5,690.3l34.9,44.5l-40.8,39.7
			L1439.5,690.3z M107.1,614.2l43.1-41.1l-36.6,127.1L107.1,614.2z"/>
		
			<linearGradient id="SVGID_24_" gradientUnits="userSpaceOnUse" x1="1458.9865" y1="494.4951" x2="1511.4806" y2="467.7312" gradientTransform="matrix(1 0 0 -1 0 712)">
			<stop  offset="0" style="stop-color:#06E594"/>
			<stop  offset="1" style="stop-color:#303030"/>
		</linearGradient>
		<path class="st28" d="M1464.3,336.7l-46.9-37.7l110.3-163L1464.3,336.7z"/>
		<path class="st5" d="M1474.4,734.8l-6.3,85.2l-34.5-45.5L1474.4,734.8z M144.1,486.4l6.1,86.7l-43.1,41.1L144.1,486.4z
			 M1405.8,477.1l45.8,39.8l-51.5,46.8L1405.8,477.1z M137.8,398.1l53.5-36.1l-47.2,124.4L137.8,398.1z M1451.7,516.9l-6.1,87.5
			l-45.3-40.8L1451.7,516.9z M185.6,273l5.8,89l-53.5,36.1L185.6,273z M1360.8,264.3l56.7,34.7l-61.9,54.1L1360.8,264.3z M80.7,745
			l32.9-44.9L87.5,830.4L80.7,745z M107.1,614.2l6.5,86L80.7,745L107.1,614.2z M1417.4,299l-5.8,89.9l-56.1-35.7L1417.4,299z
			 M1445.5,604.4l35.3,43.6l-41.3,42.3L1445.5,604.4z M100.5,526.5l43.6-40.1l-37,127.7L100.5,526.5z M1480.9,648l-6.5,86.9
			l-34.9-44.5L1480.9,648z M137.8,398.1l6.3,88.3l-43.6,40.1L137.8,398.1z M1411.6,388.9l46.4,38.8l-52.1,49.4L1411.6,388.9z
			 M131.5,308.1l54.1-35.1l-47.7,125.1L131.5,308.1z"/>
		<path class="st5" d="M1458,427.7l-6.3,89.2l-45.8-39.8L1458,427.7z M80.7,745l6.8,85.3l-22.3,48.3L80.7,745z"/>
		
			<linearGradient id="SVGID_25_" gradientUnits="userSpaceOnUse" x1="-198.7803" y1="512.1287" x2="135.8523" y2="341.4904" gradientTransform="matrix(1 0 0 -1 0 712)">
			<stop  offset="0" style="stop-color:#06E594"/>
			<stop  offset="1" style="stop-color:#303030"/>
		</linearGradient>
		<path class="st29" d="M-248.5,297.4L185.6,273l-54.1,35.1L-248.5,297.4z"/>
		<path class="st5" d="M1474.4,734.8l24.4,47l-30.8,38.3L1474.4,734.8z M73.7,658.1l33.4-43.9L80.7,745L73.7,658.1z M100.5,526.5
			l6.6,87.6l-33.4,43.9L100.5,526.5z M1498.8,781.8l-6.7,86.2l-24.1-47.9L1498.8,781.8z M1451.7,516.9l35.8,42.5l-41.9,45
			L1451.7,516.9z M93.7,437.2l44.2-39.1l-37.4,128.4L93.7,437.2z M1487.5,559.4l-6.6,88.5l-35.3-43.6L1487.5,559.4z M131.5,308.1
			l6.4,90l-44.2,39.1L131.5,308.1z M1417.4,299l46.9,37.7l-52.8,52.2L1417.4,299z M1464.4,336.7l-6.4,90.9l-46.4-38.8L1464.4,336.7z
			 M58.1,792.3L80.7,745L65.2,878.6L58.1,792.3z M73.7,658.1l6.9,87l-22.6,47.3L73.7,658.1z M1480.9,648l24.8,46l-31.2,40.9
			L1480.9,648z"/>
		
			<linearGradient id="SVGID_26_" gradientUnits="userSpaceOnUse" x1="-211.4646" y1="487.2639" x2="94.4306" y2="331.2781" gradientTransform="matrix(1 0 0 -1 0 712)">
			<stop  offset="0" style="stop-color:#06E594"/>
			<stop  offset="1" style="stop-color:#303030"/>
		</linearGradient>
		<path class="st30" d="M-248.5,297.4l380,10.7l-44.7,38L-248.5,297.4z"/>
		<path class="st5" d="M66.7,569.4l33.8-42.8L73.7,658.1L66.7,569.4z M93.7,437.2l6.8,89.3l-33.8,42.8L93.7,437.2z M1505.7,693.9
			l-6.8,87.9l-24.4-47L1505.7,693.9z M1458,427.7l36.2,41.5l-42.5,47.8L1458,427.7z M86.8,346.1l44.7-38L93.7,437.2L86.8,346.1z
			 M1494.2,469.1l-6.7,90.3l-35.8-42.5L1494.2,469.1z M58.1,792.3l7.1,86.3l-11.3,50.2L58.1,792.3z M1498.8,781.8l13.4,48.9
			l-20,37.3L1498.8,781.8z M50.8,704.3l22.9-46.3L58.1,792.3L50.8,704.3z M66.7,569.4l7.1,88.7l-22.9,46.3L66.7,569.4z
			 M1512.2,830.7l-6.9,87.2l-13.1-49.9L1512.2,830.7z M1487.5,559.4l25.1,44.9l-31.7,43.7L1487.5,559.4z M59.4,479l34.2-41.8
			l-27,132.2L59.4,479z"/>
		
			<linearGradient id="SVGID_27_" gradientUnits="userSpaceOnUse" x1="-223.768" y1="463.136" x2="62.0453" y2="317.3919" gradientTransform="matrix(1 0 0 -1 0 712)">
			<stop  offset="0" style="stop-color:#06E594"/>
			<stop  offset="1" style="stop-color:#303030"/>
		</linearGradient>
		<path class="st31" d="M-248.5,297.4l335.3,48.7l-34.7,40.6L-248.5,297.4z"/>
		<path class="st5" d="M86.8,346.1l6.9,91.1L59.4,479L86.8,346.1z M1512.6,604.3l-6.9,89.6l-24.8-46L1512.6,604.3z M1464.3,336.7
			l36.7,40.3l-43.1,50.6L1464.3,336.7z M1501,377.1l-6.9,92.1l-36.2-41.5L1501,377.1z M46.6,841.5l11.5-49.2l-4.1,136.5L46.6,841.5z
			 M50.8,704.3l7.3,88l-11.5,49.2L50.8,704.3z M1505.7,693.9l13.6,47.9l-20.4,40L1505.7,693.9z"/>
		<path class="st5" d="M43.4,614.6l23.3-45.2L50.8,704.3L43.4,614.6z M59.4,479l7.2,90.4l-23.3,45.2L59.4,479z M1519.3,741.8
			l-7.1,88.9l-13.4-48.9L1519.3,741.8z M1494.2,469.1l25.5,43.8l-32.2,46.5L1494.2,469.1z M52.1,386.7l34.7-40.6L59.4,479
			L52.1,386.7z"/>
		
			<linearGradient id="SVGID_28_" gradientUnits="userSpaceOnUse" x1="1473.8877" y1="470.3246" x2="2002.2922" y2="200.8784" gradientTransform="matrix(1 0 0 -1 0 712)">
			<stop  offset="0" style="stop-color:#06E594"/>
			<stop  offset="1" style="stop-color:#303030"/>
		</linearGradient>
		<path class="st32" d="M1464.3,336.7l63.4-200.7l420.7,480.7L1464.3,336.7z"/>
		
			<linearGradient id="SVGID_29_" gradientUnits="userSpaceOnUse" x1="-32.589" y1="838.0609" x2="1840.2245" y2="-116.9448" gradientTransform="matrix(1 0 0 -1 0 712)">
			<stop  offset="0" style="stop-color:#06E594"/>
			<stop  offset="1" style="stop-color:#303030"/>
		</linearGradient>
		<path class="st33" d="M1527.7,136.1l330.6,206.5l90.1,274.1L1527.7,136.1z M-248.5,297.4l300.6,89.4l-24,42.9L-248.5,297.4z"/>
		<path class="st5" d="M46.6,841.5l7.4,87.3l0.5,51.6L46.6,841.5z M1512.2,830.7l1.6,50.3l-8.6,36.9L1512.2,830.7z M39,752.5
			l11.8-48.2l-4.2,137.2L39,752.5z M43.4,614.6l7.4,89.7L39,752.5L43.4,614.6z M1513.8,881l-7.1,88.2l-1.5-51.3L1513.8,881z
			 M1512.6,604.3l13.9,46.8l-20.8,42.8L1512.6,604.3z M35.8,523L59.4,479L43.4,614.6L35.8,523z M52.1,386.8l7.4,92.2L35.8,523
			L52.1,386.8z M1526.5,651.1l-7.2,90.7l-13.6-47.9L1526.5,651.1z M1501,377.1l25.9,42.6l-32.8,49.5L1501,377.1z M1526.9,419.6
			l-7.2,93.2l-25.5-43.8L1526.9,419.6z M46.9,892.1l-0.4-50.6l7.9,138.9L46.9,892.1z M39,752.5l7.5,89l0.4,50.6L39,752.5z
			 M1519.3,741.8l1.8,49.3l-8.8,39.7L1519.3,741.8z"/>
		
			<linearGradient id="SVGID_30_" gradientUnits="userSpaceOnUse" x1="-255.3007" y1="401.2994" x2="25.8605" y2="257.9276" gradientTransform="matrix(1 0 0 -1 0 712)">
			<stop  offset="0" style="stop-color:#06E594"/>
			<stop  offset="1" style="stop-color:#303030"/>
		</linearGradient>
		<path class="st34" d="M-248.5,297.4L28.1,429.6l-12.5,44.7L-248.5,297.4z"/>
		<path class="st5" d="M31.4,661.6l12-47.1L39,752.5L31.4,661.6z M35.8,523l7.6,91.5l-12,47.1L35.8,523z M1521,791l-7.2,90
			l-1.6-50.3L1521,791z M1519.7,512.9l14.2,45.6l-21.2,45.8L1519.7,512.9z M28.1,429.6l24-42.9L35.8,523L28.1,429.6z M1533.8,558.5
			l-7.4,92.6l-13.9-46.8L1533.8,558.5z"/>
		<path class="st5" d="M39.3,802L39,752.5l7.9,139.7L39.3,802z M31.4,661.6l7.7,90.8l0.2,49.5L31.4,661.6z M1526.5,651.1l1.9,48.1
			l-9.1,42.6L1526.5,651.1z"/>
		<path class="st5" d="M23.5,569L35.8,523l-4.4,138.6L23.5,569z M28.1,429.6l7.7,93.4L23.5,569L28.1,429.6z M1528.4,699.2L1521,791
			l-1.8-49.3L1528.4,699.2z M1526.9,419.6l14.4,44.4l-21.7,48.8L1526.9,419.6z"/>
		
			<linearGradient id="SVGID_31_" gradientUnits="userSpaceOnUse" x1="-266.4081" y1="379.5221" x2="33.245" y2="226.7199" gradientTransform="matrix(1 0 0 -1 0 712)">
			<stop  offset="0" style="stop-color:#06E594"/>
			<stop  offset="1" style="stop-color:#303030"/>
		</linearGradient>
		<path class="st35" d="M-248.5,297.4l264,177l-0.2,46L-248.5,297.4z"/>
		<path class="st5" d="M1541.3,464.1l-7.5,94.5l-14.1-45.6L1541.3,464.1z M31.5,710.1l-0.1-48.4L39.3,802L31.5,710.1z M23.5,569
			l7.8,92.7l0.1,48.4L23.5,569z"/>
		<path class="st5" d="M1533.8,558.5l2.1,47l-9.4,45.6L1533.8,558.5z M15.5,474.4l12.5-44.7L23.5,569L15.5,474.4z M1535.9,605.5
			l-7.5,93.7l-1.9-48.1L1535.9,605.5z"/>
		
			<linearGradient id="SVGID_32_" gradientUnits="userSpaceOnUse" x1="-274.5151" y1="363.6235" x2="54.4865" y2="195.8565" gradientTransform="matrix(1 0 0 -1 0 712)">
			<stop  offset="0" style="stop-color:#06E594"/>
			<stop  offset="1" style="stop-color:#303030"/>
		</linearGradient>
		<path class="st36" d="M-248.5,297.4l263.8,223l13.1,46.8L-248.5,297.4z"/>
		<path class="st5" d="M23.5,616.2l0-47.3l7.9,141.1L23.5,616.2z M15.5,474.4l8,94.6l0,47.3L15.5,474.4z M1541.4,464.1l2.2,45.7
			l-9.7,48.7L1541.4,464.1z"/>
		
			<linearGradient id="SVGID_33_" gradientUnits="userSpaceOnUse" x1="-142.9545" y1="706.4473" x2="1764.1914" y2="-266.0645" gradientTransform="matrix(1 0 0 -1 0 712)">
			<stop  offset="0" style="stop-color:#06E594"/>
			<stop  offset="1" style="stop-color:#303030"/>
		</linearGradient>
		<path class="st37" d="M1858.3,342.6l80.8,130.5l9.3,143.6L1858.3,342.6z M-395.9,560.1l11.5-71.2l29.6-67.9L-395.9,560.1z
			 M-248.5,297.4l277,269.8L55.9,614L-248.5,297.4z"/>
		<path class="st5" d="M15.3,520.4l0.2-46l8,141.9L15.3,520.4z"/>
		
			<linearGradient id="SVGID_34_" gradientUnits="userSpaceOnUse" x1="-124.0136" y1="658.7659" x2="1748.796" y2="-296.2377" gradientTransform="matrix(1 0 0 -1 0 712)">
			<stop  offset="0" style="stop-color:#06E594"/>
			<stop  offset="1" style="stop-color:#303030"/>
		</linearGradient>
		<path class="st38" d="M-248.5,297.4L55.9,614l42.7,46.1L-248.5,297.4z M1543.6,509.8l-2.2-45.7l407.1,152.7L1543.6,509.8z"/>
		<path class="st5" d="M-337.3,1016.4l31.3,82.4l-19.6,8.3L-337.3,1016.4z M1912.2,906l-11.6,92.4l-27,81.6L1912.2,906z
			 M1873.6,1080.1l27-81.6l-38.4,173.7L1873.6,1080.1z M-306,1098.8l11.8,92.2l-31.3-83.9L-306,1098.8z"/>
		
			<linearGradient id="SVGID_35_" gradientUnits="userSpaceOnUse" x1="-369.4598" y1="203.706" x2="-105.3107" y2="69.008" gradientTransform="matrix(1 0 0 -1 0 712)">
			<stop  offset="0" style="stop-color:#06E594"/>
			<stop  offset="1" style="stop-color:#303030"/>
		</linearGradient>
		<path class="st39" d="M-215.6,859.3l-180.2-299.3l147.4-262.7L-215.6,859.3z"/>
		<path class="st5" d="M1885.2,986.1l27-80l-38.6,174.1L1885.2,986.1z M-318,1004.6l12,94.2l-31.3-82.4L-318,1004.6z M1873.6,1080.1
			l-11.3,92l-49.5,83.3L1873.6,1080.1z M-361.7,829.2l31.4,79.1l-19.1,15.5L-361.7,829.2z"/>
		<path class="st5" d="M1936.1,715.2l-12.1,96.4l-27,78.3L1936.1,715.2z M1897,890l27-78.3l-38.8,174.4L1897,890z M-306,1098.8
			l55.2,82.6l-43.4,9.7L-306,1098.8z M-330.3,908.3l12.3,96.3l-31.4-80.8L-330.3,908.3z"/>
		
			<linearGradient id="SVGID_36_" gradientUnits="userSpaceOnUse" x1="-358.8293" y1="198.2793" x2="63.4111" y2="-17.0338" gradientTransform="matrix(1 0 0 -1 0 712)">
			<stop  offset="0" style="stop-color:#06E594"/>
			<stop  offset="1" style="stop-color:#303030"/>
		</linearGradient>
		<path class="st40" d="M-215.6,859.3l-32.9-562L98.6,660.1L-215.6,859.3z"/>
		<path class="st5" d="M1885.2,986.1l-11.6,94l-49.8,81.8L1885.2,986.1z M1823.8,1161.9l49.8-81.8l-60.9,175.3L1823.8,1161.9z
			 M-250.8,1181.4l11.5,93.7l-54.9-84.1L-250.8,1181.4z M-374.2,732.6l31.4,77.2l-18.8,19.4L-374.2,732.6z M1948.4,616.7l-12.3,98.5
			l-27,76.5L1948.4,616.7z"/>
		<path class="st5" d="M1909.2,791.8l26.9-76.5L1897.1,890L1909.2,791.8z M-318,1004.6l55.5,81l-43.4,13.2L-318,1004.6z"/>
		<path class="st5" d="M-342.9,809.8l12.6,98.4l-31.4-79.1L-342.9,809.8z M1897,890l-11.8,96.1l-50,80.3L1897,890z M1835.2,1066.3
			l50-80.3l-61.4,175.8L1835.2,1066.3z M-262.6,1085.6l11.7,95.8l-55.2-82.6L-262.6,1085.6z M-387.1,633.8l31.4,75.3l-18.5,23.4
			L-387.1,633.8z M1823.8,1161.9l-11.1,93.5l-73.8,81.8L1823.8,1161.9z M1921.5,691.4l26.9-74.6l-39.3,175L1921.5,691.4z
			 M-330.3,908.3l55.8,79.3l-43.5,17L-330.3,908.3z M-355.7,709.2l12.9,100.7l-31.4-77.2L-355.7,709.2z M1909.1,791.8L1897,890
			l-50.3,78.6L1909.1,791.8z M-250.8,1181.4l81.2,81.1l-69.7,12.6L-250.8,1181.4z M1846.8,968.6L1897,890l-61.9,176.3L1846.8,968.6z
			 M-274.6,987.6l12,98l-55.5-81L-274.6,987.6z M1835.2,1066.3l-11.3,95.6l-74.4,80.4L1835.2,1066.3z M1749.4,1242.3l74.4-80.4
			l-84.9,175.3L1749.4,1242.3z M-169.7,1262.5l10.9,95.1l-80.6-82.5L-169.7,1262.5z M-342.9,809.8l56.1,77.5l-43.5,20.9
			L-342.9,809.8z"/>
		<path class="st5" d="M1921.5,691.4l-12.4,100.4l-50.5,76.8L1921.5,691.4z M-262.6,1085.6l81.8,79.6l-70.1,16.2L-262.6,1085.6z
			 M1858.6,868.6l50.5-76.8l-62.4,176.8L1858.6,868.6z M-286.8,887.4l12.3,100.2l-55.8-79.3L-286.8,887.4z"/>
		<path class="st5" d="M1846.8,968.6l-11.6,97.7l-75,78.9L1846.8,968.6z M1760.2,1145.2l75-78.9l-85.7,176L1760.2,1145.2z
			 M1749.4,1242.3l-10.5,94.9l-99.8,78.3L1749.4,1242.3z M-180.7,1165.2l11.1,97.3l-81.2-81.1L-180.7,1165.2z M-355.7,709.2
			l56.3,75.7l-43.5,25L-355.7,709.2z M-274.5,987.6l82.4,78l-70.4,20L-274.5,987.6z M1870.8,766.4l50.8-75l-62.9,177.2L1870.8,766.4
			z M-299.4,784.9l12.6,102.5l-56.1-77.5L-299.4,784.9z M-169.6,1262.5l105.6,75.3l-94.8,19.9L-169.6,1262.5z"/>
		
			<linearGradient id="SVGID_37_" gradientUnits="userSpaceOnUse" x1="-142.8915" y1="-4.6884" x2="90.5748" y2="-123.74" gradientTransform="matrix(1 0 0 -1 0 712)">
			<stop  offset="0" style="stop-color:#06E594"/>
			<stop  offset="1" style="stop-color:#303030"/>
		</linearGradient>
		<path class="st41" d="M-215.6,859.4L98.6,660.1l58.9,44.5L-215.6,859.4z"/>
		<path class="st5" d="M1858.7,868.6l-11.9,100l-75.5,77.3L1858.7,868.6z M1771.3,1045.9l75.5-77.3l-86.6,176.6L1771.3,1045.9z
			 M1760.2,1145.2l-10.8,97.1l-100.7,77L1760.2,1145.2z M1648.7,1319.3l100.7-77l-110.4,173.2L1648.7,1319.3z M-192.1,1065.6
			l11.4,99.6l-81.8-79.6L-192.1,1065.6z M-64,1337.8l9.9,96.4l-104.7-76.6L-64,1337.8z M-286.8,887.4l83.1,76.3l-70.8,23.9
			L-286.8,887.4z"/>
		
			<linearGradient id="SVGID_38_" gradientUnits="userSpaceOnUse" x1="56.7597" y1="386.8341" x2="1676.0682" y2="-438.8991" gradientTransform="matrix(1 0 0 -1 0 712)">
			<stop  offset="0" style="stop-color:#06E594"/>
			<stop  offset="1" style="stop-color:#303030"/>
		</linearGradient>
		<path class="st42" d="M1948.5,616.7l-77.7,149.6l-181.2,144.8L1948.5,616.7z M157.5,704.6l73.4,40.6l-446.5,114.2L157.5,704.6z"/>
		<path class="st5" d="M-180.8,1165.2l106.6,73.9l-95.5,23.4L-180.8,1165.2z M1870.8,766.4l-12.1,102.3l-76.1,75.6L1870.8,766.4z
			 M1782.6,944.2l76.1-75.6l-87.4,177.3L1782.6,944.2z M1648.7,1319.3l-9.7,96.2l-123,70.4L1648.7,1319.3z M1771.3,1045.9l-11,99.3
			l-101.6,75.6L1771.3,1045.9z M1658.6,1220.8l101.6-75.6l-111.5,174.1L1658.6,1220.8z M-203.7,963.7l11.6,101.9l-82.4-78
			L-203.7,963.7z M-74.2,1239.1l10.1,98.7l-105.6-75.3L-74.2,1239.1z"/>
		
			<linearGradient id="SVGID_39_" gradientUnits="userSpaceOnUse" x1="-115.1885" y1="474.5151" x2="1676.0667" y2="-438.9016" gradientTransform="matrix(1 0 0 -1 0 712)">
			<stop  offset="0" style="stop-color:#06E594"/>
			<stop  offset="1" style="stop-color:#303030"/>
		</linearGradient>
		<path class="st43" d="M-215.6,859.3l-83.7-74.5l-56.3-75.7L-215.6,859.3z M1469,648.7l479.4-32l-877.7,481.7L1469,648.7z
			 M230.9,745.2l84.8,34.8l-531.3,79.4L230.9,745.2z"/>
		<path class="st5" d="M-64,1337.8l125.7,65.4l-115.8,31.1L-64,1337.8z M-299.4,784.9l83.7,74.5l-71.2,28L-299.4,784.9z
			 M-192.1,1065.6l107.6,72.5l-96.2,27.1L-192.1,1065.6z M61.7,1403.1l8.6,97.5l-124.5-66.5L61.7,1403.1z M1524.5,1388.6l124.2-69.3
			l-132.6,166.6L1524.5,1388.6z M1794.1,840.2l76.7-73.8l-88.2,177.9L1794.1,840.2z M1658.6,1220.8l-9.9,98.5l-124.2,69.3
			L1658.6,1220.8z M1782.6,944.2l-11.3,101.6l-102.6,74.1L1782.6,944.2z M1668.7,1120l102.6-74.1l-112.7,174.9L1668.7,1120z
			 M-215.6,859.4l11.9,104.3l-83.1-76.3L-215.6,859.4z M-84.5,1138.1l10.4,101l-106.6-73.9L-84.5,1138.1z"/>
		
			<linearGradient id="SVGID_40_" gradientUnits="userSpaceOnUse" x1="0.8166" y1="277.1114" x2="1252.5824" y2="-361.2074" gradientTransform="matrix(1 0 0 -1 0 712)">
			<stop  offset="0" style="stop-color:#06E594"/>
			<stop  offset="1" style="stop-color:#303030"/>
		</linearGradient>
		<path class="st44" d="M315.7,779.9l94.5,28.4l-625.8,51.1L315.7,779.9z M1414.5,693l54.6-44.3l-398.2,449.7L1414.5,693z"/>
		<path class="st5" d="M1524.5,1388.6l-8.4,97.4l-140.6,58.5L1524.5,1388.6z M-74.2,1239.1l127,64.2L-64,1337.8L-74.2,1239.1z"/>
		
			<linearGradient id="SVGID_41_" gradientUnits="userSpaceOnUse" x1="-134.524" y1="11.7025" x2="431.321" y2="-276.8385" gradientTransform="matrix(1 0 0 -1 0 712)">
			<stop  offset="0" style="stop-color:#06E594"/>
			<stop  offset="1" style="stop-color:#303030"/>
		</linearGradient>
		<path class="st45" d="M410.2,808.3l102.3,21.5l-728.1,29.6L410.2,808.3z"/>
		<path class="st5" d="M-203.7,963.7l108.6,70.9l-97,31L-203.7,963.7z M52.9,1303.3l8.8,99.8L-64,1337.8L52.9,1303.3z
			 M1533.1,1288.9l125.5-68.1l-134.1,167.7L1533.1,1288.9z M1668.7,1120l-10.1,100.8l-125.5,68.1L1668.7,1120z"/>
		
			<linearGradient id="SVGID_42_" gradientUnits="userSpaceOnUse" x1="-13.7848" y1="248.4971" x2="1212.6088" y2="-376.8791" gradientTransform="matrix(1 0 0 -1 0 712)">
			<stop  offset="0" style="stop-color:#06E594"/>
			<stop  offset="1" style="stop-color:#303030"/>
		</linearGradient>
		<path class="st46" d="M512.4,829.8l108,14.3l-836,15.3L512.4,829.8z M1343.9,734.8l70.6-41.8l-343.7,405.4L1343.9,734.8z"/>
		<path class="st5" d="M1679,1016.8l103.5-72.6L1668.7,1120L1679,1016.8z M-95.1,1034.6l10.6,103.5l-107.6-72.5L-95.1,1034.6z
			 M61.7,1403.1l143.3,54l-134.7,43.5L61.7,1403.1z"/>
		
			<linearGradient id="SVGID_43_" gradientUnits="userSpaceOnUse" x1="-116.1607" y1="47.7294" x2="632.3597" y2="-333.9673" gradientTransform="matrix(1 0 0 -1 0 712)">
			<stop  offset="0" style="stop-color:#06E594"/>
			<stop  offset="1" style="stop-color:#303030"/>
		</linearGradient>
		<path class="st47" d="M620.4,844.1l111.4,6.8l-947.5,8.5L620.4,844.1z"/>
		
			<linearGradient id="SVGID_44_" gradientUnits="userSpaceOnUse" x1="-104.39" y1="70.831" x2="733.1591" y2="-356.26" gradientTransform="matrix(1 0 0 -1 0 712)">
			<stop  offset="0" style="stop-color:#06E594"/>
			<stop  offset="1" style="stop-color:#303030"/>
		</linearGradient>
		<path class="st48" d="M731.8,850.9l112.6-0.8l-1060.1,9.3L731.8,850.9z"/>
		<path class="st5" d="M1382.3,1446.2l142.1-57.6l-149,155.9L1382.3,1446.2z M1533.1,1288.9l-8.6,99.7l-142.1,57.6L1533.1,1288.9z
			 M-84.5,1138.1l128.4,63l-118,38L-84.5,1138.1z M-215.6,859.3l109.6,69.3l-97.7,35L-215.6,859.3z"/>
		
			<linearGradient id="SVGID_45_" gradientUnits="userSpaceOnUse" x1="1172.5529" y1="-186.8719" x2="1242.1372" y2="-222.3541" gradientTransform="matrix(1 0 0 -1 0 712)">
			<stop  offset="0" style="stop-color:#06E594"/>
			<stop  offset="1" style="stop-color:#303030"/>
		</linearGradient>
		<path class="st49" d="M1259.7,771.8l84.2-37l-273.1,363.6L1259.7,771.8z"/>
		<path class="st5" d="M43.8,1201l9,102.2l-127-64.2L43.8,1201z M1382.3,1446.2l-6.9,98.3l-155.1,45.4L1382.3,1446.2z
			 M1541.9,1186.8l126.8-66.8l-135.6,168.8L1541.9,1186.8z M1679,1016.8l-10.3,103.2l-126.8,66.8L1679,1016.8z"/>
		
			<linearGradient id="SVGID_46_" gradientUnits="userSpaceOnUse" x1="1258.8293" y1="-17.6747" x2="1760.4307" y2="-273.4564" gradientTransform="matrix(1 0 0 -1 0 712)">
			<stop  offset="0" style="stop-color:#06E594"/>
			<stop  offset="1" style="stop-color:#303030"/>
		</linearGradient>
		<path class="st50" d="M1948.5,616.7l-258.8,294.4l-618.8,187.3L1948.5,616.7z"/>
		<path class="st5" d="M1689.6,911.1l104.5-70.9l-115.1,176.6L1689.6,911.1z M-106,928.6l10.9,106l-108.6-70.9L-106,928.6z
			 M52.9,1303.3l144.9,53.1l-136.1,46.8L52.9,1303.3z M197.8,1356.3l7.2,100.8l-143.3-54L197.8,1356.3z M362.7,1498.5l5.3,99.1
			l-155.9-42L362.7,1498.5z M205,1457.1l157.7,41.4l-150.6,57L205,1457.1z M1389.4,1345.5l143.7-56.6l-150.8,157.3L1389.4,1345.5z"
			/>
		<path class="st5" d="M1225.5,1490.9l156.9-44.7l-161.9,143.7L1225.5,1490.9z M1541.9,1186.8l-8.8,102.1l-143.7,56.6L1541.9,1186.8
			z M-95.1,1034.6l129.7,61.7l-119.1,41.8L-95.1,1034.6z M1225.5,1490.9l-5.1,99l-165.9,31.3L1225.5,1490.9z M34.6,1096.3l9.3,104.8
			l-128.4-63L34.6,1096.3z M1389.4,1345.5l-7,100.7l-156.9,44.7L1389.4,1345.5z M1550.9,1082.2l128.1-65.4l-137.2,170L1550.9,1082.2
			z"/>
		<path class="st5" d="M1689.6,911.1l-10.6,105.7l-128.1,65.4L1689.6,911.1z M531.1,1526.3l3.3,99.5L368,1597.6L531.1,1526.3z
			 M43.9,1201l146.5,52.1l-137.5,50.2L43.9,1201z M362.7,1498.5l168.4,27.7L368,1597.6L362.7,1498.5z M190.4,1253.1l7.4,103.3
			l-144.9-53.1L190.4,1253.1z"/>
		
			<linearGradient id="SVGID_47_" gradientUnits="userSpaceOnUse" x1="-79.5175" y1="119.5874" x2="1038.1908" y2="-450.3682" gradientTransform="matrix(1 0 0 -1 0 712)">
			<stop  offset="0" style="stop-color:#06E594"/>
			<stop  offset="1" style="stop-color:#303030"/>
		</linearGradient>
		<path class="st51" d="M955.8,841.6l107.8-16l7.2,272.8L955.8,841.6z M25.1,988.9L-106,928.6l-109.6-69.3L25.1,988.9z"/>
		<path class="st5" d="M1057.7,1521.8l167.8-30.9l-170.9,130.3L1057.7,1521.8z M357.3,1397l5.4,101.5L205,1457.1L357.3,1397z
			 M197.8,1356.4l159.5,40.7L205,1457.1L197.8,1356.4z M1396.6,1242.4l145.3-55.6l-152.5,158.7L1396.6,1242.4z M1057.7,1521.8
			l-3.1,99.5L882,1637.8L1057.7,1521.8z"/>
		<path class="st5" d="M1230.7,1389.5l158.7-44l-163.9,145.4L1230.7,1389.5z M706,1539.6l1.2,99.7l-172.8-13.6L706,1539.6z
			 M1550.9,1082.2l-9,104.6l-145.3,55.6L1550.9,1082.2z M883,1538.1l-1,99.7l-174.9,1.5L883,1538.1z M-106,928.6l131.1,60.3
			l-120.2,45.7L-106,928.6z"/>
		
			<linearGradient id="SVGID_48_" gradientUnits="userSpaceOnUse" x1="-104.3908" y1="70.8305" x2="1013.3206" y2="-499.1212" gradientTransform="matrix(1 0 0 -1 0 712)">
			<stop  offset="0" style="stop-color:#06E594"/>
			<stop  offset="1" style="stop-color:#303030"/>
		</linearGradient>
		<path class="st52" d="M844.4,850.1l226.4,248.3L-215.6,859.3L844.4,850.1z"/>
		<path class="st5" d="M531.1,1526.3l174.9,13.3l-171.6,86.2L531.1,1526.3z M1230.7,1389.5l-5.2,101.4l-167.8,30.9L1230.7,1389.5z
			 M883,1538.1l174.7-16.3l-175.6,116L883,1538.1z M25.1,988.9l9.5,107.3l-129.7-61.7L25.1,988.9z M1396.6,1242.4l-7.2,103.1
			l-158.7,44L1396.6,1242.4z M1560.2,975l129.5-63.9l-138.7,171.1L1560.2,975z M706,1539.6l177-1.5l-175.9,101.2L706,1539.6z
			 M527.7,1424.3l3.3,102l-168.4-27.7L527.7,1424.3z M34.6,1096.3l148.2,51L43.9,1201L34.6,1096.3z M357.3,1397l170.4,27.3
			l-165,74.2L357.3,1397z M182.8,1147.3l7.6,105.8L43.9,1201L182.8,1147.3z M1060.8,1419.9l169.9-30.4l-173,132.3L1060.8,1419.9z
			 M351.8,1293l5.5,104l-159.5-40.7L351.8,1293z M190.4,1253.1l161.4,39.9l-154,63.3L190.4,1253.1z M1403.9,1136.7l147-54.5
			l-154.4,160.2L1403.9,1136.7z M1060.8,1419.9l-3.2,101.9L883,1538.1L1060.8,1419.9z M1236,1285.6l160.6-43.2l-165.9,147.1
			L1236,1285.6z M704.8,1437.4l1.2,102.2l-174.9-13.3L704.8,1437.4z M1560.2,975l-9.2,107.2l-147,54.5L1560.2,975z M884,1435.9
			l-1,102.2l-177,1.5L884,1435.9z"/>
		
			<linearGradient id="SVGID_49_" gradientUnits="userSpaceOnUse" x1="-30.8902" y1="214.9449" x2="1502.1407" y2="-566.7974" gradientTransform="matrix(1 0 0 -1 0 712)">
			<stop  offset="0" style="stop-color:#06E594"/>
			<stop  offset="1" style="stop-color:#303030"/>
		</linearGradient>
		<path class="st53" d="M1689.6,911.1L1560.2,975l-148.7,53.3L1689.6,911.1z M340.4,1077.1L25.1,988.9l-240.7-129.6L340.4,1077.1z"
			/>
		<path class="st5" d="M527.7,1424.3l177.1,13.1l-173.7,88.8L527.7,1424.3z M1236,1285.6l-5.3,103.9l-169.9,30.4L1236,1285.6z
			 M884,1435.9l176.8-16.1L883,1538.1L884,1435.9z M1403.9,1136.7l-7.4,105.7l-160.6,43.2L1403.9,1136.7z M704.8,1437.4l179.2-1.5
			l-178,103.6L704.8,1437.4z M524.3,1319.8l3.4,104.5L357.3,1397L524.3,1319.8z M25.1,988.9l149.9,49.9l-140.4,57.5L25.1,988.9z
			 M351.8,1293l172.5,26.8l-167,77.2L351.8,1293z M175,1038.8l7.8,108.5l-148.2-51L175,1038.8z M1064.1,1315.4l171.9-29.8
			l-175.2,134.3L1064.1,1315.4z M346.1,1186.4l5.7,106.6l-161.4-39.9L346.1,1186.4z M182.8,1147.3l163.4,39.1l-155.8,66.7
			L182.8,1147.3z M1411.5,1028.3l148.7-53.3l-156.2,161.6L1411.5,1028.3z M1064.1,1315.4l-3.2,104.5L884,1435.9L1064.1,1315.4z
			 M1241.4,1179l162.5-42.3L1236,1285.6L1241.4,1179z M703.6,1332.6l1.2,104.8l-177.1-13.1L703.6,1332.6z M885,1331.2l-1,104.7
			l-179.2,1.5L885,1331.2z"/>
		
			<linearGradient id="SVGID_50_" gradientUnits="userSpaceOnUse" x1="-29.5126" y1="217.6483" x2="1503.5216" y2="-564.0914" gradientTransform="matrix(1 0 0 -1 0 712)">
			<stop  offset="0" style="stop-color:#06E594"/>
			<stop  offset="1" style="stop-color:#303030"/>
		</linearGradient>
		<path class="st54" d="M1070.8,1098.4l-730.4-21.3l-556-217.7L1070.8,1098.4z M1689.6,911.1l-278.1,117.2l-340.7,70.1L1689.6,911.1
			z"/>
		<path class="st5" d="M524.3,1319.8l179.3,12.9l-175.8,91.7L524.3,1319.8z M1241.5,1179l-5.4,106.5l-171.9,29.8L1241.5,1179z
			 M885.1,1331.2l179-15.8l-180,120.5L885.1,1331.2z M1411.5,1028.3l-7.6,108.4l-162.5,42.3L1411.5,1028.3z M703.6,1332.7l181.5-1.5
			l-180.3,106.2L703.6,1332.7z M520.8,1212.6l3.5,107.2L351.8,1293L520.8,1212.6z M346.2,1186.4l174.6,26.2l-169,80.4L346.2,1186.4z
			"/>
		<path class="st5" d="M1067.4,1208.3l174.1-29.3l-177.4,136.4L1067.4,1208.3z M340.3,1077.1l5.8,109.3l-163.4-39.1L340.3,1077.1z
			 M175,1038.8l165.3,38.3l-157.6,70.2L175,1038.8z M1067.4,1208.3l-3.3,107.1l-179,15.8L1067.4,1208.3z M1247,1069.8l164.4-41.5
			L1241.4,1179L1247,1069.8z M702.3,1225.2l1.2,107.4l-179.3-12.9L702.3,1225.2z M886.1,1223.8l-1.1,107.4l-181.5,1.5L886.1,1223.8z
			 M520.8,1212.6l181.5,12.6l-178,94.6L520.8,1212.6z M1247,1069.8l-5.6,109.2l-174.1,29.3L1247,1069.8z M886.1,1223.8l181.3-15.5
			L885,1331.2L886.1,1223.8z M702.3,1225.2l183.8-1.4l-182.5,108.9L702.3,1225.2z"/>
		<path class="st5" d="M517.2,1102.7l3.6,109.9l-174.6-26.2L517.2,1102.7z M340.4,1077.1l176.8,25.7l-171,83.7L340.4,1077.1z
			 M1070.8,1098.4l176.2-28.7l-179.7,138.5L1070.8,1098.4z M1070.8,1098.4l-3.4,109.9l-181.3,15.5L1070.8,1098.4z M701,1115
			l1.3,110.2l-181.5-12.6L701,1115z M887.2,1113.6l-1.1,110.2l-183.8,1.4L887.2,1113.6z M517.2,1102.7L701,1115l-180.3,97.6
			L517.2,1102.7z M887.2,1113.6l183.6-15.2l-184.7,125.4L887.2,1113.6z"/>
	</g>
	<g class="st3">
		
			<linearGradient id="SVGID_51_" gradientUnits="userSpaceOnUse" x1="442.787" y1="848.4592" x2="1210.0709" y2="457.1978" gradientTransform="matrix(1 0 0 -1 0 712)">
			<stop  offset="0" style="stop-color:#06E594"/>
			<stop  offset="1" style="stop-color:#303030"/>
		</linearGradient>
		<path class="st55" d="M587.2,18.5l121.2-6.6l121.3-0.7L587.2,18.5z M829.7,11.2l121,5.2l120,11.1L829.7,11.2z M587.2,18.5
			l242.5-7.3l241,16.2L587.2,18.5z M347.6,50.2l119.1-19l120.4-12.7L347.6,50.2z M1070.7,27.5l118.4,17.2l116.2,23.5L1070.7,27.5z"
			/>
		<path class="st5" d="M814.1,473.5L814,553l-81.5,0.5L814.1,473.5z M731.9,474l0.6,79.5l-81.2,5.5L731.9,474z M895.9,477.8
			l-0.8,79.6L814,553L895.9,477.8z"/>
		
			<linearGradient id="SVGID_52_" gradientUnits="userSpaceOnUse" x1="182.665" y1="734.532" x2="520.327" y2="562.3479" gradientTransform="matrix(1 0 0 -1 0 712)">
			<stop  offset="0" style="stop-color:#06E594"/>
			<stop  offset="1" style="stop-color:#303030"/>
		</linearGradient>
		<path class="st56" d="M115.8,108.6l231.8-58.4l239.6-31.6L115.8,108.6z"/>
		<path class="st5" d="M731.9,474l82.2-0.5l-81.6,80L731.9,474z M814.1,473.5l81.8,4.3L814,553L814.1,473.5z M650,479.4l1.3,79.6
			L571,569.7L650,479.4z"/>
		
			<linearGradient id="SVGID_53_" gradientUnits="userSpaceOnUse" x1="660.4569" y1="837.1462" x2="1454.4811" y2="432.2482" gradientTransform="matrix(1 0 0 -1 0 712)">
			<stop  offset="0" style="stop-color:#06E594"/>
			<stop  offset="1" style="stop-color:#303030"/>
		</linearGradient>
		<path class="st57" d="M587.2,18.5l483.5,8.9l457.1,108.6L587.2,18.5z"/>
		<path class="st5" d="M976.7,487l-1.5,79.8l-80.1-9.4L976.7,487z M650,479.4l81.9-5.4l-80.6,85L650,479.4z M895.9,477.8l80.8,9.2
			l-81.6,70.4L895.9,477.8z M569,489.8l81.1-10.4L571,569.7L569,489.8z M569,489.8l2,79.8l-78.9,15.9L569,489.8z M814.2,392.6
			l-0.1,80.9l-82.2,0.5L814.2,392.6z M1056,501.1l-2.2,80.1l-78.5-14.5L1056,501.1z M731.3,393.1l0.6,80.9l-81.9,5.4L731.3,393.1z
			 M896.7,396.8l-0.8,81l-81.8-4.3L896.7,396.8z M976.7,487l79.2,14.2l-80.7,65.6L976.7,487z"/>
		
			<linearGradient id="SVGID_54_" gradientUnits="userSpaceOnUse" x1="151.5524" y1="673.5193" x2="311.8866" y2="591.7609" gradientTransform="matrix(1 0 0 -1 0 712)">
			<stop  offset="0" style="stop-color:#06E594"/>
			<stop  offset="1" style="stop-color:#303030"/>
		</linearGradient>
		<path class="st58" d="M115.8,108.6l114.6-32.8l117.2-25.6L115.8,108.6z"/>
		<path class="st5" d="M731.3,393.1l82.9-0.5L731.9,474L731.3,393.1z"/>
		
			<linearGradient id="SVGID_55_" gradientUnits="userSpaceOnUse" x1="1095.8499" y1="733.9284" x2="1502.5602" y2="526.5328" gradientTransform="matrix(1 0 0 -1 0 712)">
			<stop  offset="0" style="stop-color:#06E594"/>
			<stop  offset="1" style="stop-color:#303030"/>
		</linearGradient>
		<path class="st59" d="M1070.7,27.5l234.6,40.7l222.5,67.9L1070.7,27.5z"/>
		<path class="st5" d="M814.2,392.6l82.5,4.2l-82.6,76.7L814.2,392.6z M648.7,398.4l1.3,81L569,489.8L648.7,398.4z M978.3,405.8
			l-1.5,81.2l-80.8-9.2L978.3,405.8z M648.7,398.4l82.6-5.3L650,479.4L648.7,398.4z M489.4,505.4l79.6-15.5l-76.9,95.7L489.4,505.4z
			 M896.7,396.8l81.5,9l-82.4,72L896.7,396.8z M489.4,505.4l2.7,80.2l-76.7,21.3L489.4,505.4z M1132.9,520.4L1130,601l-76.2-19.7
			L1132.9,520.4z M566.9,408.6l81.8-10.2L569,489.8L566.9,408.6z M1055.9,501.2l76.9,19.3l-79.1,60.9L1055.9,501.2z M566.9,408.6
			l2,81.2l-79.6,15.5L566.9,408.6z M814.3,310.3l-0.1,82.3l-82.9,0.5L814.3,310.3z M1058.2,419.6l-2.2,81.5L976.7,487L1058.2,419.6z
			 M730.7,310.8l0.6,82.3l-82.6,5.3L730.7,310.8z M897.6,314.4l-0.8,82.4l-82.5-4.2L897.6,314.4z M978.3,405.8l79.9,13.8L976.7,487
			L978.3,405.8z M730.7,310.8l83.6-0.5l-83,82.8L730.7,310.8z M412,526.2l77.4-20.9l-74,101.5L412,526.2z M814.3,310.3l83.2,4.1
			l-83.4,78.2L814.3,310.3z M647.4,316l1.3,82.4l-81.8,10.2L647.4,316z"/>
		
			<linearGradient id="SVGID_56_" gradientUnits="userSpaceOnUse" x1="650.1901" y1="817.0133" x2="1444.2161" y2="412.1169" gradientTransform="matrix(1 0 0 -1 0 712)">
			<stop  offset="0" style="stop-color:#06E594"/>
			<stop  offset="1" style="stop-color:#303030"/>
		</linearGradient>
		<path class="st60" d="M587.2,18.5l940.6,117.5l-798.3,5.7L587.2,18.5z"/>
		<path class="st5" d="M979.8,323.1l-1.6,82.6l-81.5-9L979.8,323.1z M647.4,316l83.4-5.2l-82,87.6L647.4,316z M486.6,423.8
			l80.3-15.2l-77.5,96.8L486.6,423.8z"/>
		
			<linearGradient id="SVGID_57_" gradientUnits="userSpaceOnUse" x1="640.4415" y1="797.8956" x2="1434.4669" y2="392.9987" gradientTransform="matrix(1 0 0 -1 0 712)">
			<stop  offset="0" style="stop-color:#06E594"/>
			<stop  offset="1" style="stop-color:#303030"/>
		</linearGradient>
		<path class="st61" d="M587.2,18.5l142.3,123.3l-84.9,4.9L587.2,18.5z M1305.2,68.2l113.2,30.3l109.3,37.6L1305.2,68.2z"/>
		<path class="st5" d="M963.1,283.5l82.3,8.7l-83.1,73.7L963.1,283.5z M477.5,495.3l3.4,80.6L407,603L477.5,495.3z M552.2,392.8
			l2.7,81.6l-77.4,20.9L552.2,392.8z M1198.5,489.5l73.9,24.6l-76.8,56L1198.5,489.5z M1201.4,407.5l-2.9,82l-76.9-19.3
			L1201.4,407.5z"/>
		
			<linearGradient id="SVGID_58_" gradientUnits="userSpaceOnUse" x1="556.6099" y1="633.4918" x2="654.0456" y2="583.8062" gradientTransform="matrix(1 0 0 -1 0 712)">
			<stop  offset="0" style="stop-color:#06E594"/>
			<stop  offset="1" style="stop-color:#303030"/>
		</linearGradient>
		<path class="st62" d="M587.2,18.5l57.4,128.2l-84,9.4L587.2,18.5z"/>
		<path class="st5" d="M1206.8,545l-3.6,81.1L1130,601L1206.8,545z M564.8,325.9l82.5-9.9l-80.4,92.6L564.8,325.9z M1058.2,419.6
			l77.6,18.8l-79.9,62.7L1058.2,419.6z M564.8,325.9l2.1,82.7l-80.3,15.2L564.8,325.9z M814.4,226.5l-0.1,83.8l-83.6,0.5
			L814.4,226.5z M1060.5,336.6l-2.3,83l-79.9-13.8L1060.5,336.6z M730.1,227.1l0.6,83.8l-83.4,5.2L730.1,227.1z M898.4,230.5
			l-0.9,83.9l-83.2-4.1L898.4,230.5z M979.8,323.1l80.6,13.5l-82.2,69.2L979.8,323.1z"/>
		
			<linearGradient id="SVGID_59_" gradientUnits="userSpaceOnUse" x1="520.0207" y1="624.1091" x2="579.8311" y2="593.6102" gradientTransform="matrix(1 0 0 -1 0 712)">
			<stop  offset="0" style="stop-color:#06E594"/>
			<stop  offset="1" style="stop-color:#303030"/>
		</linearGradient>
		<path class="st63" d="M587.2,18.5l-26.6,137.6l-82.5,14L587.2,18.5z"/>
		<path class="st5" d="M730.1,227.1l84.3-0.5l-83.7,84.3L730.1,227.1z M408.5,444.2l78.1-20.4l-74.7,102.5L408.5,444.2z
			 M814.4,226.6l84,4l-84.1,79.8L814.4,226.6z M646,232.1l1.4,83.9l-82.5,9.9L646,232.1z M337.3,552.7l74.6-26.5L341.4,634
			L337.3,552.7z M981.4,239l-1.6,84.1l-82.3-8.7L981.4,239z M646,232.1l84.1-5L647.4,316L646,232.1z M483.8,340.7l81-14.8
			l-78.2,97.8L483.8,340.7z M898.4,230.5l83,8.5l-83.9,75.4L898.4,230.5z M408.5,444.2l3.5,82.1l-74.6,26.5L408.5,444.2z
			 M483.8,340.7l2.8,83.1l-78.1,20.4L483.8,340.7z"/>
		
			<linearGradient id="SVGID_60_" gradientUnits="userSpaceOnUse" x1="451.7753" y1="629.0154" x2="533.1697" y2="587.5099" gradientTransform="matrix(1 0 0 -1 0 712)">
			<stop  offset="0" style="stop-color:#06E594"/>
			<stop  offset="1" style="stop-color:#303030"/>
		</linearGradient>
		<path class="st64" d="M587.2,18.5L478.1,170.1l-80.4,18.8L587.2,18.5z"/>
		<path class="st5" d="M1135.8,438.4l74.6,24l-77.6,58L1135.8,438.4z M1138.8,355l-3,83.5l-77.6-18.8L1138.8,355z M1210.4,462.4
			l-3.6,82.6l-73.9-24.6L1210.4,462.4z M562.8,241.8l83.2-9.7l-81.1,93.8L562.8,241.8z M1060.5,336.6l78.3,18.3l-80.6,64.7
			L1060.5,336.6z M337.3,552.7l4.1,81.2L273.2,666L337.3,552.7z M562.8,241.8l2.1,84.2l-81,14.8L562.8,241.8z M814.6,141.3
			l-0.1,85.2l-84.3,0.5L814.6,141.3z M1206.8,545l70.1,30.2l-73.7,51L1206.8,545z M1062.8,252.1l-2.3,84.5l-80.6-13.5L1062.8,252.1z
			 M729.5,141.8l0.6,85.3l-84.1,5L729.5,141.8z M1277,575.2l-4.2,81.8l-69.5-30.8L1277,575.2z M899.3,145.1l-0.9,85.4l-84-4
			L899.3,145.1z M981.4,239l81.4,13.1l-83,71L981.4,239z M729.5,141.8l85.1-0.5l-84.5,85.8L729.5,141.8z M405,360.6l78.9-19.9
			l-75.4,103.4L405,360.6z M814.6,141.3l84.7,3.9l-84.9,81.4L814.6,141.3z M644.6,146.7l1.4,85.4l-83.2,9.7L644.6,146.7z M333.2,470
			l75.3-25.9l-71.2,108.6L333.2,470z M983,153.4l-1.6,85.6l-83-8.5L983,153.4z M644.6,146.7l84.9-4.9L646,232.1L644.6,146.7z
			 M481,256.2l81.8-14.4l-78.9,98.9L481,256.2z"/>
		
			<linearGradient id="SVGID_61_" gradientUnits="userSpaceOnUse" x1="-32.5901" y1="838.0602" x2="1311.821" y2="152.5058" gradientTransform="matrix(1 0 0 -1 0 712)">
			<stop  offset="0" style="stop-color:#06E594"/>
			<stop  offset="1" style="stop-color:#303030"/>
		</linearGradient>
		<path class="st65" d="M587.2,18.5L397.7,188.9l-77.5,23.9L587.2,18.5z M-248.5,297.4l364.3-188.8l471.4-90L-248.5,297.4z
			 M1527.7,136.1l-713.2,5.2l-85.1,0.5L1527.7,136.1z M1527.7,136.1l-628.5,9.1l-84.7-3.9L1527.7,136.1z"/>
		<path class="st5" d="M899.3,145.2l83.7,8.3l-84.6,77.1L899.3,145.2z M268.5,584.1l68.8-31.4L273.2,666L268.5,584.1z M405,360.6
			l3.5,83.6L333.2,470L405,360.6z M481,256.2l2.8,84.5L405,360.6L481,256.2z M1138.8,355l75.3,23.4l-78.3,60.1L1138.8,355z
			 M1141.9,270l-3,85l-78.3-18.3L1141.9,270z M1214.1,378.4l-3.7,84.1l-74.6-24L1214.1,378.4z"/>
		
			<linearGradient id="SVGID_62_" gradientUnits="userSpaceOnUse" x1="965.9678" y1="697.6232" x2="1461.0623" y2="445.1577" gradientTransform="matrix(1 0 0 -1 0 712)">
			<stop  offset="0" style="stop-color:#06E594"/>
			<stop  offset="1" style="stop-color:#303030"/>
		</linearGradient>
		<path class="st66" d="M1527.8,136.1L983,153.4l-83.8-8.3L1527.8,136.1z"/>
		<path class="st5" d="M560.6,156.1l84-9.4l-81.8,95.1L560.6,156.1z M1062.8,252.1l79.1,17.8l-81.4,66.6L1062.8,252.1z M333.2,470
			l4.2,82.7l-68.8,31.4L333.2,470z M560.6,156.1l2.1,85.7L481,256.2L560.6,156.1z"/>
		
			<linearGradient id="SVGID_63_" gradientUnits="userSpaceOnUse" x1="-50.95" y1="594.1988" x2="77.6486" y2="528.6222" gradientTransform="matrix(1 0 0 -1 0 712)">
			<stop  offset="0" style="stop-color:#06E594"/>
			<stop  offset="1" style="stop-color:#303030"/>
		</linearGradient>
		<path class="st67" d="M-89.1,192.6L8,147.9l107.8-39.3L-89.1,192.6z"/>
		<path class="st5" d="M1210.4,462.4l70.8,29.5l-74.4,53.1L1210.4,462.4z M1065.2,166.1l-2.4,86L981.4,239L1065.2,166.1z
			 M1281.2,491.9l-4.3,83.3l-70.1-30.2L1281.2,491.9z M983,153.4l82.1,12.7L981.4,239L983,153.4z"/>
		
			<linearGradient id="SVGID_64_" gradientUnits="userSpaceOnUse" x1="1042.7418" y1="675.6968" x2="1468.0342" y2="458.8272" gradientTransform="matrix(1 0 0 -1 0 712)">
			<stop  offset="0" style="stop-color:#06E594"/>
			<stop  offset="1" style="stop-color:#303030"/>
		</linearGradient>
		<path class="st68" d="M1527.8,136.1l-462.6,30.1L983,153.4L1527.8,136.1z"/>
		<path class="st5" d="M268.5,584.1l4.8,81.9l-59.9,36L268.5,584.1z M401.4,275.5l79.6-19.4l-76,104.4L401.4,275.5z M1276.9,575.2
			l63.5,34.9l-67.7,46.9L1276.9,575.2z M328.9,385.8l76-25.2L333.2,470L328.9,385.8z"/>
		
			<linearGradient id="SVGID_65_" gradientUnits="userSpaceOnUse" x1="328.585" y1="627.6896" x2="507.202" y2="536.6073" gradientTransform="matrix(1 0 0 -1 0 712)">
			<stop  offset="0" style="stop-color:#06E594"/>
			<stop  offset="1" style="stop-color:#303030"/>
		</linearGradient>
		<path class="st69" d="M587.2,18.5l-267,194.3l-71.6,28.4L587.2,18.5z"/>
		<path class="st5" d="M478.1,170.1l82.5-14L481,256.2L478.1,170.1z M1340.4,610.1l-4.9,82.6l-62.8-35.7L1340.4,610.1z M263.7,500.7
			l69.5-30.7l-64.7,114.1L263.7,500.7z M401.4,275.5l3.6,85.1l-76,25.2L401.4,275.5z M478.1,170.1l2.9,86.1l-79.6,19.4L478.1,170.1z
			"/>
		
			<linearGradient id="SVGID_66_" gradientUnits="userSpaceOnUse" x1="1118.9663" y1="651.404" x2="1473.9337" y2="470.396" gradientTransform="matrix(1 0 0 -1 0 712)">
			<stop  offset="0" style="stop-color:#06E594"/>
			<stop  offset="1" style="stop-color:#303030"/>
		</linearGradient>
		<path class="st70" d="M1527.8,136.1L1145,183.5l-79.8-17.3L1527.8,136.1z"/>
		<path class="st5" d="M1141.9,270l76,22.8l-79.1,62.2L1141.9,270z M1145,183.5l-3.1,86.5l-79.1-17.8L1145,183.5z M1217.9,292.8
			l-3.8,85.6l-75.3-23.4L1217.9,292.8z M1065.2,166.1l79.8,17.3l-82.2,68.7L1065.2,166.1z M328.9,385.8l4.2,84.2l-69.5,30.7
			L328.9,385.8z M1214.2,378.4l71.5,28.7l-75.2,55.3L1214.2,378.4z M1285.7,407.1l-4.4,84.8l-70.8-29.5L1285.7,407.1z M208,619.4
			l60.5-35.3l-55.1,117.9L208,619.4z M263.7,500.7l4.8,83.4L208,619.4L263.7,500.7z M397.8,188.9l80.4-18.8l-76.7,105.4L397.8,188.9
			z M1281.3,491.9l64.1,34.1l-68.4,49.1L1281.3,491.9z"/>
		
			<linearGradient id="SVGID_67_" gradientUnits="userSpaceOnUse" x1="1194.0481" y1="624.8023" x2="1478.6719" y2="479.6667" gradientTransform="matrix(1 0 0 -1 0 712)">
			<stop  offset="0" style="stop-color:#06E594"/>
			<stop  offset="1" style="stop-color:#303030"/>
		</linearGradient>
		<path class="st71" d="M1527.8,136.1l-306,69.5l-76.8-22.1L1527.8,136.1z"/>
		<path class="st5" d="M324.6,300.1l76.8-24.6l-72.5,110.3L324.6,300.1z"/>
		
			<linearGradient id="SVGID_68_" gradientUnits="userSpaceOnUse" x1="278.5079" y1="621.2315" x2="494.26" y2="511.2137" gradientTransform="matrix(1 0 0 -1 0 712)">
			<stop  offset="0" style="stop-color:#06E594"/>
			<stop  offset="1" style="stop-color:#303030"/>
		</linearGradient>
		<path class="st72" d="M587.2,18.5L248.6,241.2l-63,31.8L587.2,18.5z"/>
		<path class="st5" d="M1345.3,526l-4.9,84.1l-63.5-34.9L1345.3,526z M258.7,415.8l70.2-30l-65.3,114.9L258.7,415.8z M397.7,188.9
			l3.6,86.6l-76.8,24.6L397.7,188.9z"/>
		<path class="st5" d="M208,619.4l5.4,82.7l-51.2,39.6L208,619.4z M1145,183.5l76.8,22.1l-79.9,64.4L1145,183.5z M1340.4,610.1
			l54.3,38.5l-59.2,44.1L1340.4,610.1z M1221.7,205.6l-3.8,87.2l-76-22.8L1221.7,205.6z M324.6,300.1l4.3,85.7l-70.2,30L324.6,300.1
			z M1217.9,292.8l72.2,28l-76,57.6L1217.9,292.8z M1394.7,648.6l-5.4,83.4l-53.7-39.3L1394.7,648.6z M1290.1,320.7l-4.5,86.4
			l-71.5-28.7L1290.1,320.7z M202.6,535.2l61.1-34.5L208,619.4L202.6,535.2z"/>
		
			<linearGradient id="SVGID_69_" gradientUnits="userSpaceOnUse" x1="1267.3733" y1="595.9188" x2="1482.1067" y2="486.4221" gradientTransform="matrix(1 0 0 -1 0 712)">
			<stop  offset="0" style="stop-color:#06E594"/>
			<stop  offset="1" style="stop-color:#303030"/>
		</linearGradient>
		<path class="st73" d="M1527.8,136.1l-233.1,96.7l-72.9-27.2L1527.8,136.1z"/>
		<path class="st5" d="M258.7,415.8l4.9,84.9l-61.1,34.5L258.7,415.8z"/>
		
			<linearGradient id="SVGID_70_" gradientUnits="userSpaceOnUse" x1="-105.8474" y1="694.3761" x2="444.5353" y2="413.719" gradientTransform="matrix(1 0 0 -1 0 712)">
			<stop  offset="0" style="stop-color:#06E594"/>
			<stop  offset="1" style="stop-color:#303030"/>
		</linearGradient>
		<path class="st74" d="M-248.5,297.4L587.2,18.5L185.6,273L-248.5,297.4z"/>
		<path class="st5" d="M1285.6,407.1l64.8,33.3l-69.1,51.5L1285.6,407.1z M320.2,212.8l77.5-23.9l-73.1,111.2L320.2,212.8z"/>
		
			<linearGradient id="SVGID_71_" gradientUnits="userSpaceOnUse" x1="-172.705" y1="563.2645" x2="40.015" y2="454.7925" gradientTransform="matrix(1 0 0 -1 0 712)">
			<stop  offset="0" style="stop-color:#06E594"/>
			<stop  offset="1" style="stop-color:#303030"/>
		</linearGradient>
		<path class="st75" d="M-248.5,297.4l159.4-104.8l204.9-84L-248.5,297.4z"/>
		<path class="st5" d="M1350.4,440.4l-5,85.6l-64.1-34.1L1350.4,440.4z M156.3,658.2l51.8-38.8l-45.9,122.3L156.3,658.2z
			 M253.7,329.3l70.9-29.2l-65.9,115.7L253.7,329.3z M202.6,535.2l5.5,84.2l-51.8,38.8L202.6,535.2z M1345.4,526l54.9,37.6
			l-59.8,46.5L1345.4,526z M320.2,212.8l4.4,87.3l-70.9,29.2L320.2,212.8z M1221.7,205.6l72.9,27.2l-76.8,60L1221.7,205.6z
			 M1400.2,563.6l-5.5,85l-54.3-38.5L1400.2,563.6z M1294.7,232.8l-4.6,88l-72.2-28L1294.7,232.8z M197,449.4l61.7-33.6l-56.2,119.4
			L197,449.4z"/>
		
			<linearGradient id="SVGID_72_" gradientUnits="userSpaceOnUse" x1="1338.2802" y1="564.7739" x2="1484.1399" y2="490.3961" gradientTransform="matrix(1 0 0 -1 0 712)">
			<stop  offset="0" style="stop-color:#06E594"/>
			<stop  offset="1" style="stop-color:#303030"/>
		</linearGradient>
		<path class="st76" d="M1360.8,264.3l-66.1-31.5l233.1-96.7L1360.8,264.3z"/>
		<path class="st5" d="M253.7,329.3l5,86.5L197,449.4L253.7,329.3z M1290.1,320.7l65.4,32.4l-69.9,53.9L1290.1,320.7z M156.3,658.2
			l5.9,83.5L120,784.6L156.3,658.2z M1394.7,648.6l44.8,41.7l-50.2,41.7L1394.7,648.6z M1355.5,353.2l-5.1,87.2l-64.8-33.3
			L1355.5,353.2z M150.2,573.1l52.3-37.9l-46.3,123L150.2,573.1z M1439.5,690.3l-5.9,84.3l-44.3-42.6L1439.5,690.3z M248.6,241.2
			l71.6-28.4l-66.5,116.5L248.6,241.2z M197,449.4l5.6,85.8l-52.3,37.9L197,449.4z M1350.4,440.4l55.5,36.7l-60.5,48.9L1350.4,440.4
			z M1405.9,477.1l-5.6,86.5l-54.9-37.6L1405.9,477.1z M191.3,362l62.4-32.8L197,449.4L191.3,362z"/>
		
			<linearGradient id="SVGID_73_" gradientUnits="userSpaceOnUse" x1="1402.7518" y1="530.067" x2="1483.4021" y2="488.9429" gradientTransform="matrix(1 0 0 -1 0 712)">
			<stop  offset="0" style="stop-color:#06E594"/>
			<stop  offset="1" style="stop-color:#303030"/>
		</linearGradient>
		<path class="st77" d="M1417.4,299l-56.7-34.7l167-128.2L1417.4,299z"/>
		<path class="st5" d="M113.6,700.2l42.6-42L120,784.6L113.6,700.2z M248.6,241.2l5.1,88.1L191.3,362L248.6,241.2z M1294.7,232.8
			l66.1,31.5l-70.7,56.5L1294.7,232.8z M150.2,573.1l6,85.1l-42.6,42L150.2,573.1z"/>
		<path class="st5" d="M1400.2,563.7l45.3,40.8l-50.9,44.2L1400.2,563.7z M1360.8,264.3l-5.2,88.9l-65.4-32.4L1360.8,264.3z"/>
		<path class="st5" d="M144.1,486.4l52.9-37l-46.8,123.7L144.1,486.4z M1445.6,604.4l-6,85.9l-44.8-41.7L1445.6,604.4z M191.3,362
			l5.7,87.4l-52.9,37L191.3,362z M1355.5,353.2l56.1,35.7l-61.2,51.5L1355.5,353.2z M113.6,700.2l6.4,84.4l-32.5,45.8L113.6,700.2z
			 M1411.6,388.9l-5.7,88.2l-55.5-36.7L1411.6,388.9z M185.6,273l63-31.8L191.3,362L185.6,273z M1439.5,690.3l34.9,44.5l-40.8,39.7
			L1439.5,690.3z M107.1,614.2l43.1-41.1l-36.6,127.1L107.1,614.2z"/>
		
			<linearGradient id="SVGID_74_" gradientUnits="userSpaceOnUse" x1="1458.9865" y1="494.4951" x2="1511.4806" y2="467.7312" gradientTransform="matrix(1 0 0 -1 0 712)">
			<stop  offset="0" style="stop-color:#06E594"/>
			<stop  offset="1" style="stop-color:#303030"/>
		</linearGradient>
		<path class="st78" d="M1464.3,336.7l-46.9-37.7l110.3-163L1464.3,336.7z"/>
		<path class="st5" d="M1474.4,734.8l-6.3,85.2l-34.5-45.5L1474.4,734.8z M144.1,486.4l6.1,86.7l-43.1,41.1L144.1,486.4z
			 M1405.8,477.1l45.8,39.8l-51.5,46.8L1405.8,477.1z M137.8,398.1l53.5-36.1l-47.2,124.4L137.8,398.1z M1451.7,516.9l-6.1,87.5
			l-45.3-40.8L1451.7,516.9z M185.6,273l5.8,89l-53.5,36.1L185.6,273z M1360.8,264.3l56.7,34.7l-61.9,54.1L1360.8,264.3z M80.7,745
			l32.9-44.9L87.5,830.4L80.7,745z M107.1,614.2l6.5,86L80.7,745L107.1,614.2z M1417.4,299l-5.8,89.9l-56.1-35.7L1417.4,299z
			 M1445.5,604.4l35.3,43.6l-41.3,42.3L1445.5,604.4z M100.5,526.5l43.6-40.1l-37,127.7L100.5,526.5z M1480.9,648l-6.5,86.9
			l-34.9-44.5L1480.9,648z M137.8,398.1l6.3,88.3l-43.6,40.1L137.8,398.1z M1411.6,388.9l46.4,38.8l-52.1,49.4L1411.6,388.9z
			 M131.5,308.1l54.1-35.1l-47.7,125.1L131.5,308.1z"/>
		<path class="st5" d="M1458,427.7l-6.3,89.2l-45.8-39.8L1458,427.7z M80.7,745l6.8,85.3l-22.3,48.3L80.7,745z"/>
		
			<linearGradient id="SVGID_75_" gradientUnits="userSpaceOnUse" x1="-198.7803" y1="512.1287" x2="135.8523" y2="341.4904" gradientTransform="matrix(1 0 0 -1 0 712)">
			<stop  offset="0" style="stop-color:#06E594"/>
			<stop  offset="1" style="stop-color:#303030"/>
		</linearGradient>
		<path class="st79" d="M-248.5,297.4L185.6,273l-54.1,35.1L-248.5,297.4z"/>
		<path class="st5" d="M1474.4,734.8l24.4,47l-30.8,38.3L1474.4,734.8z M73.7,658.1l33.4-43.9L80.7,745L73.7,658.1z M100.5,526.5
			l6.6,87.6l-33.4,43.9L100.5,526.5z M1498.8,781.8l-6.7,86.2l-24.1-47.9L1498.8,781.8z M1451.7,516.9l35.8,42.5l-41.9,45
			L1451.7,516.9z M93.7,437.2l44.2-39.1l-37.4,128.4L93.7,437.2z M1487.5,559.4l-6.6,88.5l-35.3-43.6L1487.5,559.4z M131.5,308.1
			l6.4,90l-44.2,39.1L131.5,308.1z M1417.4,299l46.9,37.7l-52.8,52.2L1417.4,299z M1464.4,336.7l-6.4,90.9l-46.4-38.8L1464.4,336.7z
			 M58.1,792.3L80.7,745L65.2,878.6L58.1,792.3z M73.7,658.1l6.9,87l-22.6,47.3L73.7,658.1z M1480.9,648l24.8,46l-31.2,40.9
			L1480.9,648z"/>
		
			<linearGradient id="SVGID_76_" gradientUnits="userSpaceOnUse" x1="-211.4646" y1="487.2639" x2="94.4306" y2="331.2781" gradientTransform="matrix(1 0 0 -1 0 712)">
			<stop  offset="0" style="stop-color:#06E594"/>
			<stop  offset="1" style="stop-color:#303030"/>
		</linearGradient>
		<path class="st80" d="M-248.5,297.4l380,10.7l-44.7,38L-248.5,297.4z"/>
		<path class="st5" d="M66.7,569.4l33.8-42.8L73.7,658.1L66.7,569.4z M93.7,437.2l6.8,89.3l-33.8,42.8L93.7,437.2z M1505.7,693.9
			l-6.8,87.9l-24.4-47L1505.7,693.9z M1458,427.7l36.2,41.5l-42.5,47.8L1458,427.7z M86.8,346.1l44.7-38L93.7,437.2L86.8,346.1z
			 M1494.2,469.1l-6.7,90.3l-35.8-42.5L1494.2,469.1z M58.1,792.3l7.1,86.3l-11.3,50.2L58.1,792.3z M1498.8,781.8l13.4,48.9
			l-20,37.3L1498.8,781.8z M50.8,704.3l22.9-46.3L58.1,792.3L50.8,704.3z M66.7,569.4l7.1,88.7l-22.9,46.3L66.7,569.4z
			 M1512.2,830.7l-6.9,87.2l-13.1-49.9L1512.2,830.7z M1487.5,559.4l25.1,44.9l-31.7,43.7L1487.5,559.4z M59.4,479l34.2-41.8
			l-27,132.2L59.4,479z"/>
		
			<linearGradient id="SVGID_77_" gradientUnits="userSpaceOnUse" x1="-223.768" y1="463.136" x2="62.0453" y2="317.3919" gradientTransform="matrix(1 0 0 -1 0 712)">
			<stop  offset="0" style="stop-color:#06E594"/>
			<stop  offset="1" style="stop-color:#303030"/>
		</linearGradient>
		<path class="st81" d="M-248.5,297.4l335.3,48.7l-34.7,40.6L-248.5,297.4z"/>
		<path class="st5" d="M86.8,346.1l6.9,91.1L59.4,479L86.8,346.1z M1512.6,604.3l-6.9,89.6l-24.8-46L1512.6,604.3z M1464.3,336.7
			l36.7,40.3l-43.1,50.6L1464.3,336.7z M1501,377.1l-6.9,92.1l-36.2-41.5L1501,377.1z M46.6,841.5l11.5-49.2l-4.1,136.5L46.6,841.5z
			 M50.8,704.3l7.3,88l-11.5,49.2L50.8,704.3z M1505.7,693.9l13.6,47.9l-20.4,40L1505.7,693.9z"/>
		<path class="st5" d="M43.4,614.6l23.3-45.2L50.8,704.3L43.4,614.6z M59.4,479l7.2,90.4l-23.3,45.2L59.4,479z M1519.3,741.8
			l-7.1,88.9l-13.4-48.9L1519.3,741.8z M1494.2,469.1l25.5,43.8l-32.2,46.5L1494.2,469.1z M52.1,386.7l34.7-40.6L59.4,479
			L52.1,386.7z"/>
		
			<linearGradient id="SVGID_78_" gradientUnits="userSpaceOnUse" x1="1473.8877" y1="470.3246" x2="2002.2922" y2="200.8784" gradientTransform="matrix(1 0 0 -1 0 712)">
			<stop  offset="0" style="stop-color:#06E594"/>
			<stop  offset="1" style="stop-color:#303030"/>
		</linearGradient>
		<path class="st82" d="M1464.3,336.7l63.4-200.7l420.7,480.7L1464.3,336.7z"/>
		
			<linearGradient id="SVGID_79_" gradientUnits="userSpaceOnUse" x1="-32.589" y1="838.0609" x2="1840.2245" y2="-116.9448" gradientTransform="matrix(1 0 0 -1 0 712)">
			<stop  offset="0" style="stop-color:#06E594"/>
			<stop  offset="1" style="stop-color:#303030"/>
		</linearGradient>
		<path class="st83" d="M1527.7,136.1l330.6,206.5l90.1,274.1L1527.7,136.1z M-248.5,297.4l300.6,89.4l-24,42.9L-248.5,297.4z"/>
		<path class="st5" d="M46.6,841.5l7.4,87.3l0.5,51.6L46.6,841.5z M1512.2,830.7l1.6,50.3l-8.6,36.9L1512.2,830.7z M39,752.5
			l11.8-48.2l-4.2,137.2L39,752.5z M43.4,614.6l7.4,89.7L39,752.5L43.4,614.6z M1513.8,881l-7.1,88.2l-1.5-51.3L1513.8,881z
			 M1512.6,604.3l13.9,46.8l-20.8,42.8L1512.6,604.3z M35.8,523L59.4,479L43.4,614.6L35.8,523z M52.1,386.8l7.4,92.2L35.8,523
			L52.1,386.8z M1526.5,651.1l-7.2,90.7l-13.6-47.9L1526.5,651.1z M1501,377.1l25.9,42.6l-32.8,49.5L1501,377.1z M1526.9,419.6
			l-7.2,93.2l-25.5-43.8L1526.9,419.6z M46.9,892.1l-0.4-50.6l7.9,138.9L46.9,892.1z M39,752.5l7.5,89l0.4,50.6L39,752.5z
			 M1519.3,741.8l1.8,49.3l-8.8,39.7L1519.3,741.8z"/>
		
			<linearGradient id="SVGID_80_" gradientUnits="userSpaceOnUse" x1="-255.3007" y1="401.2994" x2="25.8605" y2="257.9276" gradientTransform="matrix(1 0 0 -1 0 712)">
			<stop  offset="0" style="stop-color:#06E594"/>
			<stop  offset="1" style="stop-color:#303030"/>
		</linearGradient>
		<path class="st84" d="M-248.5,297.4L28.1,429.6l-12.5,44.7L-248.5,297.4z"/>
		<path class="st5" d="M31.4,661.6l12-47.1L39,752.5L31.4,661.6z M35.8,523l7.6,91.5l-12,47.1L35.8,523z M1521,791l-7.2,90
			l-1.6-50.3L1521,791z M1519.7,512.9l14.2,45.6l-21.2,45.8L1519.7,512.9z M28.1,429.6l24-42.9L35.8,523L28.1,429.6z M1533.8,558.5
			l-7.4,92.6l-13.9-46.8L1533.8,558.5z"/>
		<path class="st5" d="M39.3,802L39,752.5l7.9,139.7L39.3,802z M31.4,661.6l7.7,90.8l0.2,49.5L31.4,661.6z M1526.5,651.1l1.9,48.1
			l-9.1,42.6L1526.5,651.1z"/>
		<path class="st5" d="M23.5,569L35.8,523l-4.4,138.6L23.5,569z M28.1,429.6l7.7,93.4L23.5,569L28.1,429.6z M1528.4,699.2L1521,791
			l-1.8-49.3L1528.4,699.2z M1526.9,419.6l14.4,44.4l-21.7,48.8L1526.9,419.6z"/>
		
			<linearGradient id="SVGID_81_" gradientUnits="userSpaceOnUse" x1="-266.4081" y1="379.5221" x2="33.245" y2="226.7199" gradientTransform="matrix(1 0 0 -1 0 712)">
			<stop  offset="0" style="stop-color:#06E594"/>
			<stop  offset="1" style="stop-color:#303030"/>
		</linearGradient>
		<path class="st85" d="M-248.5,297.4l264,177l-0.2,46L-248.5,297.4z"/>
		<path class="st5" d="M1541.3,464.1l-7.5,94.5l-14.1-45.6L1541.3,464.1z M31.5,710.1l-0.1-48.4L39.3,802L31.5,710.1z M23.5,569
			l7.8,92.7l0.1,48.4L23.5,569z"/>
		<path class="st5" d="M1533.8,558.5l2.1,47l-9.4,45.6L1533.8,558.5z M15.5,474.4l12.5-44.7L23.5,569L15.5,474.4z M1535.9,605.5
			l-7.5,93.7l-1.9-48.1L1535.9,605.5z"/>
		
			<linearGradient id="SVGID_82_" gradientUnits="userSpaceOnUse" x1="-274.5151" y1="363.6235" x2="54.4865" y2="195.8565" gradientTransform="matrix(1 0 0 -1 0 712)">
			<stop  offset="0" style="stop-color:#06E594"/>
			<stop  offset="1" style="stop-color:#303030"/>
		</linearGradient>
		<path class="st86" d="M-248.5,297.4l263.8,223l13.1,46.8L-248.5,297.4z"/>
		<path class="st5" d="M23.5,616.2l0-47.3l7.9,141.1L23.5,616.2z M15.5,474.4l8,94.6l0,47.3L15.5,474.4z M1541.4,464.1l2.2,45.7
			l-9.7,48.7L1541.4,464.1z"/>
		
			<linearGradient id="SVGID_83_" gradientUnits="userSpaceOnUse" x1="-142.9545" y1="706.4473" x2="1764.1914" y2="-266.0645" gradientTransform="matrix(1 0 0 -1 0 712)">
			<stop  offset="0" style="stop-color:#06E594"/>
			<stop  offset="1" style="stop-color:#303030"/>
		</linearGradient>
		<path class="st87" d="M1858.3,342.6l80.8,130.5l9.3,143.6L1858.3,342.6z M-395.9,560.1l11.5-71.2l29.6-67.9L-395.9,560.1z
			 M-248.5,297.4l277,269.8L55.9,614L-248.5,297.4z"/>
		<path class="st5" d="M15.3,520.4l0.2-46l8,141.9L15.3,520.4z"/>
		
			<linearGradient id="SVGID_84_" gradientUnits="userSpaceOnUse" x1="-124.0136" y1="658.7659" x2="1748.796" y2="-296.2377" gradientTransform="matrix(1 0 0 -1 0 712)">
			<stop  offset="0" style="stop-color:#06E594"/>
			<stop  offset="1" style="stop-color:#303030"/>
		</linearGradient>
		<path class="st88" d="M-248.5,297.4L55.9,614l42.7,46.1L-248.5,297.4z M1543.6,509.8l-2.2-45.7l407.1,152.7L1543.6,509.8z"/>
		<path class="st5" d="M-337.3,1016.4l31.3,82.4l-19.6,8.3L-337.3,1016.4z M1912.2,906l-11.6,92.4l-27,81.6L1912.2,906z
			 M1873.6,1080.1l27-81.6l-38.4,173.7L1873.6,1080.1z M-306,1098.8l11.8,92.2l-31.3-83.9L-306,1098.8z"/>
		
			<linearGradient id="SVGID_85_" gradientUnits="userSpaceOnUse" x1="-369.4598" y1="203.706" x2="-105.3107" y2="69.008" gradientTransform="matrix(1 0 0 -1 0 712)">
			<stop  offset="0" style="stop-color:#06E594"/>
			<stop  offset="1" style="stop-color:#303030"/>
		</linearGradient>
		<path class="st89" d="M-215.6,859.3l-180.2-299.3l147.4-262.7L-215.6,859.3z"/>
		<path class="st5" d="M1885.2,986.1l27-80l-38.6,174.1L1885.2,986.1z M-318,1004.6l12,94.2l-31.3-82.4L-318,1004.6z M1873.6,1080.1
			l-11.3,92l-49.5,83.3L1873.6,1080.1z M-361.7,829.2l31.4,79.1l-19.1,15.5L-361.7,829.2z"/>
		<path class="st5" d="M1936.1,715.2l-12.1,96.4l-27,78.3L1936.1,715.2z M1897,890l27-78.3l-38.8,174.4L1897,890z M-306,1098.8
			l55.2,82.6l-43.4,9.7L-306,1098.8z M-330.3,908.3l12.3,96.3l-31.4-80.8L-330.3,908.3z"/>
		
			<linearGradient id="SVGID_86_" gradientUnits="userSpaceOnUse" x1="-358.8293" y1="198.2793" x2="63.4111" y2="-17.0338" gradientTransform="matrix(1 0 0 -1 0 712)">
			<stop  offset="0" style="stop-color:#06E594"/>
			<stop  offset="1" style="stop-color:#303030"/>
		</linearGradient>
		<path class="st90" d="M-215.6,859.3l-32.9-562L98.6,660.1L-215.6,859.3z"/>
		<path class="st5" d="M1885.2,986.1l-11.6,94l-49.8,81.8L1885.2,986.1z M1823.8,1161.9l49.8-81.8l-60.9,175.3L1823.8,1161.9z
			 M-250.8,1181.4l11.5,93.7l-54.9-84.1L-250.8,1181.4z M-374.2,732.6l31.4,77.2l-18.8,19.4L-374.2,732.6z M1948.4,616.7l-12.3,98.5
			l-27,76.5L1948.4,616.7z"/>
		<path class="st5" d="M1909.2,791.8l26.9-76.5L1897.1,890L1909.2,791.8z M-318,1004.6l55.5,81l-43.4,13.2L-318,1004.6z"/>
		<path class="st5" d="M-342.9,809.8l12.6,98.4l-31.4-79.1L-342.9,809.8z M1897,890l-11.8,96.1l-50,80.3L1897,890z M1835.2,1066.3
			l50-80.3l-61.4,175.8L1835.2,1066.3z M-262.6,1085.6l11.7,95.8l-55.2-82.6L-262.6,1085.6z M-387.1,633.8l31.4,75.3l-18.5,23.4
			L-387.1,633.8z M1823.8,1161.9l-11.1,93.5l-73.8,81.8L1823.8,1161.9z M1921.5,691.4l26.9-74.6l-39.3,175L1921.5,691.4z
			 M-330.3,908.3l55.8,79.3l-43.5,17L-330.3,908.3z M-355.7,709.2l12.9,100.7l-31.4-77.2L-355.7,709.2z M1909.1,791.8L1897,890
			l-50.3,78.6L1909.1,791.8z M-250.8,1181.4l81.2,81.1l-69.7,12.6L-250.8,1181.4z M1846.8,968.6L1897,890l-61.9,176.3L1846.8,968.6z
			 M-274.6,987.6l12,98l-55.5-81L-274.6,987.6z M1835.2,1066.3l-11.3,95.6l-74.4,80.4L1835.2,1066.3z M1749.4,1242.3l74.4-80.4
			l-84.9,175.3L1749.4,1242.3z M-169.7,1262.5l10.9,95.1l-80.6-82.5L-169.7,1262.5z M-342.9,809.8l56.1,77.5l-43.5,20.9
			L-342.9,809.8z"/>
		<path class="st5" d="M1921.5,691.4l-12.4,100.4l-50.5,76.8L1921.5,691.4z M-262.6,1085.6l81.8,79.6l-70.1,16.2L-262.6,1085.6z
			 M1858.6,868.6l50.5-76.8l-62.4,176.8L1858.6,868.6z M-286.8,887.4l12.3,100.2l-55.8-79.3L-286.8,887.4z"/>
		<path class="st5" d="M1846.8,968.6l-11.6,97.7l-75,78.9L1846.8,968.6z M1760.2,1145.2l75-78.9l-85.7,176L1760.2,1145.2z
			 M1749.4,1242.3l-10.5,94.9l-99.8,78.3L1749.4,1242.3z M-180.7,1165.2l11.1,97.3l-81.2-81.1L-180.7,1165.2z M-355.7,709.2
			l56.3,75.7l-43.5,25L-355.7,709.2z M-274.5,987.6l82.4,78l-70.4,20L-274.5,987.6z M1870.8,766.4l50.8-75l-62.9,177.2L1870.8,766.4
			z M-299.4,784.9l12.6,102.5l-56.1-77.5L-299.4,784.9z M-169.6,1262.5l105.6,75.3l-94.8,19.9L-169.6,1262.5z"/>
		
			<linearGradient id="SVGID_87_" gradientUnits="userSpaceOnUse" x1="-142.8915" y1="-4.6884" x2="90.5748" y2="-123.74" gradientTransform="matrix(1 0 0 -1 0 712)">
			<stop  offset="0" style="stop-color:#06E594"/>
			<stop  offset="1" style="stop-color:#303030"/>
		</linearGradient>
		<path class="st91" d="M-215.6,859.4L98.6,660.1l58.9,44.5L-215.6,859.4z"/>
		<path class="st5" d="M1858.7,868.6l-11.9,100l-75.5,77.3L1858.7,868.6z M1771.3,1045.9l75.5-77.3l-86.6,176.6L1771.3,1045.9z
			 M1760.2,1145.2l-10.8,97.1l-100.7,77L1760.2,1145.2z M1648.7,1319.3l100.7-77l-110.4,173.2L1648.7,1319.3z M-192.1,1065.6
			l11.4,99.6l-81.8-79.6L-192.1,1065.6z M-64,1337.8l9.9,96.4l-104.7-76.6L-64,1337.8z M-286.8,887.4l83.1,76.3l-70.8,23.9
			L-286.8,887.4z"/>
		
			<linearGradient id="SVGID_88_" gradientUnits="userSpaceOnUse" x1="56.7597" y1="386.8341" x2="1676.0682" y2="-438.8991" gradientTransform="matrix(1 0 0 -1 0 712)">
			<stop  offset="0" style="stop-color:#06E594"/>
			<stop  offset="1" style="stop-color:#303030"/>
		</linearGradient>
		<path class="st92" d="M1948.5,616.7l-77.7,149.6l-181.2,144.8L1948.5,616.7z M157.5,704.6l73.4,40.6l-446.5,114.2L157.5,704.6z"/>
		<path class="st5" d="M-180.8,1165.2l106.6,73.9l-95.5,23.4L-180.8,1165.2z M1870.8,766.4l-12.1,102.3l-76.1,75.6L1870.8,766.4z
			 M1782.6,944.2l76.1-75.6l-87.4,177.3L1782.6,944.2z M1648.7,1319.3l-9.7,96.2l-123,70.4L1648.7,1319.3z M1771.3,1045.9l-11,99.3
			l-101.6,75.6L1771.3,1045.9z M1658.6,1220.8l101.6-75.6l-111.5,174.1L1658.6,1220.8z M-203.7,963.7l11.6,101.9l-82.4-78
			L-203.7,963.7z M-74.2,1239.1l10.1,98.7l-105.6-75.3L-74.2,1239.1z"/>
		
			<linearGradient id="SVGID_89_" gradientUnits="userSpaceOnUse" x1="-115.1885" y1="474.5151" x2="1676.0667" y2="-438.9016" gradientTransform="matrix(1 0 0 -1 0 712)">
			<stop  offset="0" style="stop-color:#06E594"/>
			<stop  offset="1" style="stop-color:#303030"/>
		</linearGradient>
		<path class="st93" d="M-215.6,859.3l-83.7-74.5l-56.3-75.7L-215.6,859.3z M1469,648.7l479.4-32l-877.7,481.7L1469,648.7z
			 M230.9,745.2l84.8,34.8l-531.3,79.4L230.9,745.2z"/>
		<path class="st5" d="M-64,1337.8l125.7,65.4l-115.8,31.1L-64,1337.8z M-299.4,784.9l83.7,74.5l-71.2,28L-299.4,784.9z
			 M-192.1,1065.6l107.6,72.5l-96.2,27.1L-192.1,1065.6z M61.7,1403.1l8.6,97.5l-124.5-66.5L61.7,1403.1z M1524.5,1388.6l124.2-69.3
			l-132.6,166.6L1524.5,1388.6z M1794.1,840.2l76.7-73.8l-88.2,177.9L1794.1,840.2z M1658.6,1220.8l-9.9,98.5l-124.2,69.3
			L1658.6,1220.8z M1782.6,944.2l-11.3,101.6l-102.6,74.1L1782.6,944.2z M1668.7,1120l102.6-74.1l-112.7,174.9L1668.7,1120z
			 M-215.6,859.4l11.9,104.3l-83.1-76.3L-215.6,859.4z M-84.5,1138.1l10.4,101l-106.6-73.9L-84.5,1138.1z"/>
		
			<linearGradient id="SVGID_90_" gradientUnits="userSpaceOnUse" x1="0.8166" y1="277.1114" x2="1252.5824" y2="-361.2074" gradientTransform="matrix(1 0 0 -1 0 712)">
			<stop  offset="0" style="stop-color:#06E594"/>
			<stop  offset="1" style="stop-color:#303030"/>
		</linearGradient>
		<path class="st94" d="M315.7,779.9l94.5,28.4l-625.8,51.1L315.7,779.9z M1414.5,693l54.6-44.3l-398.2,449.7L1414.5,693z"/>
		<path class="st5" d="M1524.5,1388.6l-8.4,97.4l-140.6,58.5L1524.5,1388.6z M-74.2,1239.1l127,64.2L-64,1337.8L-74.2,1239.1z"/>
		
			<linearGradient id="SVGID_91_" gradientUnits="userSpaceOnUse" x1="-134.524" y1="11.7025" x2="431.321" y2="-276.8385" gradientTransform="matrix(1 0 0 -1 0 712)">
			<stop  offset="0" style="stop-color:#06E594"/>
			<stop  offset="1" style="stop-color:#303030"/>
		</linearGradient>
		<path class="st95" d="M410.2,808.3l102.3,21.5l-728.1,29.6L410.2,808.3z"/>
		<path class="st5" d="M-203.7,963.7l108.6,70.9l-97,31L-203.7,963.7z M52.9,1303.3l8.8,99.8L-64,1337.8L52.9,1303.3z
			 M1533.1,1288.9l125.5-68.1l-134.1,167.7L1533.1,1288.9z M1668.7,1120l-10.1,100.8l-125.5,68.1L1668.7,1120z"/>
		
			<linearGradient id="SVGID_92_" gradientUnits="userSpaceOnUse" x1="-13.7848" y1="248.4971" x2="1212.6088" y2="-376.8791" gradientTransform="matrix(1 0 0 -1 0 712)">
			<stop  offset="0" style="stop-color:#06E594"/>
			<stop  offset="1" style="stop-color:#303030"/>
		</linearGradient>
		<path class="st96" d="M512.4,829.8l108,14.3l-836,15.3L512.4,829.8z M1343.9,734.8l70.6-41.8l-343.7,405.4L1343.9,734.8z"/>
		<path class="st5" d="M1679,1016.8l103.5-72.6L1668.7,1120L1679,1016.8z M-95.1,1034.6l10.6,103.5l-107.6-72.5L-95.1,1034.6z
			 M61.7,1403.1l143.3,54l-134.7,43.5L61.7,1403.1z"/>
		
			<linearGradient id="SVGID_93_" gradientUnits="userSpaceOnUse" x1="-116.1607" y1="47.7294" x2="632.3597" y2="-333.9673" gradientTransform="matrix(1 0 0 -1 0 712)">
			<stop  offset="0" style="stop-color:#06E594"/>
			<stop  offset="1" style="stop-color:#303030"/>
		</linearGradient>
		<path class="st97" d="M620.4,844.1l111.4,6.8l-947.5,8.5L620.4,844.1z"/>
		
			<linearGradient id="SVGID_94_" gradientUnits="userSpaceOnUse" x1="-104.39" y1="70.831" x2="733.1591" y2="-356.26" gradientTransform="matrix(1 0 0 -1 0 712)">
			<stop  offset="0" style="stop-color:#06E594"/>
			<stop  offset="1" style="stop-color:#303030"/>
		</linearGradient>
		<path class="st98" d="M731.8,850.9l112.6-0.8l-1060.1,9.3L731.8,850.9z"/>
		<path class="st5" d="M1382.3,1446.2l142.1-57.6l-149,155.9L1382.3,1446.2z M1533.1,1288.9l-8.6,99.7l-142.1,57.6L1533.1,1288.9z
			 M-84.5,1138.1l128.4,63l-118,38L-84.5,1138.1z M-215.6,859.3l109.6,69.3l-97.7,35L-215.6,859.3z"/>
		
			<linearGradient id="SVGID_95_" gradientUnits="userSpaceOnUse" x1="1172.5529" y1="-186.8719" x2="1242.1372" y2="-222.3541" gradientTransform="matrix(1 0 0 -1 0 712)">
			<stop  offset="0" style="stop-color:#06E594"/>
			<stop  offset="1" style="stop-color:#303030"/>
		</linearGradient>
		<path class="st99" d="M1259.7,771.8l84.2-37l-273.1,363.6L1259.7,771.8z"/>
		<path class="st5" d="M43.8,1201l9,102.2l-127-64.2L43.8,1201z M1382.3,1446.2l-6.9,98.3l-155.1,45.4L1382.3,1446.2z
			 M1541.9,1186.8l126.8-66.8l-135.6,168.8L1541.9,1186.8z M1679,1016.8l-10.3,103.2l-126.8,66.8L1679,1016.8z"/>
		
			<linearGradient id="SVGID_96_" gradientUnits="userSpaceOnUse" x1="1258.8293" y1="-17.6747" x2="1760.4307" y2="-273.4564" gradientTransform="matrix(1 0 0 -1 0 712)">
			<stop  offset="0" style="stop-color:#06E594"/>
			<stop  offset="1" style="stop-color:#303030"/>
		</linearGradient>
		<path class="st100" d="M1948.5,616.7l-258.8,294.4l-618.8,187.3L1948.5,616.7z"/>
		<path class="st5" d="M1689.6,911.1l104.5-70.9l-115.1,176.6L1689.6,911.1z M-106,928.6l10.9,106l-108.6-70.9L-106,928.6z
			 M52.9,1303.3l144.9,53.1l-136.1,46.8L52.9,1303.3z M197.8,1356.3l7.2,100.8l-143.3-54L197.8,1356.3z M362.7,1498.5l5.3,99.1
			l-155.9-42L362.7,1498.5z M205,1457.1l157.7,41.4l-150.6,57L205,1457.1z M1389.4,1345.5l143.7-56.6l-150.8,157.3L1389.4,1345.5z"
			/>
		<path class="st5" d="M1225.5,1490.9l156.9-44.7l-161.9,143.7L1225.5,1490.9z M1541.9,1186.8l-8.8,102.1l-143.7,56.6L1541.9,1186.8
			z M-95.1,1034.6l129.7,61.7l-119.1,41.8L-95.1,1034.6z M1225.5,1490.9l-5.1,99l-165.9,31.3L1225.5,1490.9z M34.6,1096.3l9.3,104.8
			l-128.4-63L34.6,1096.3z M1389.4,1345.5l-7,100.7l-156.9,44.7L1389.4,1345.5z M1550.9,1082.2l128.1-65.4l-137.2,170L1550.9,1082.2
			z"/>
		<path class="st5" d="M1689.6,911.1l-10.6,105.7l-128.1,65.4L1689.6,911.1z M531.1,1526.3l3.3,99.5L368,1597.6L531.1,1526.3z
			 M43.9,1201l146.5,52.1l-137.5,50.2L43.9,1201z M362.7,1498.5l168.4,27.7L368,1597.6L362.7,1498.5z M190.4,1253.1l7.4,103.3
			l-144.9-53.1L190.4,1253.1z"/>
		
			<linearGradient id="SVGID_97_" gradientUnits="userSpaceOnUse" x1="-79.5175" y1="119.5874" x2="1038.1908" y2="-450.3682" gradientTransform="matrix(1 0 0 -1 0 712)">
			<stop  offset="0" style="stop-color:#06E594"/>
			<stop  offset="1" style="stop-color:#303030"/>
		</linearGradient>
		<path class="st101" d="M955.8,841.6l107.8-16l7.2,272.8L955.8,841.6z M25.1,988.9L-106,928.6l-109.6-69.3L25.1,988.9z"/>
		<path class="st5" d="M1057.7,1521.8l167.8-30.9l-170.9,130.3L1057.7,1521.8z M357.3,1397l5.4,101.5L205,1457.1L357.3,1397z
			 M197.8,1356.4l159.5,40.7L205,1457.1L197.8,1356.4z M1396.6,1242.4l145.3-55.6l-152.5,158.7L1396.6,1242.4z M1057.7,1521.8
			l-3.1,99.5L882,1637.8L1057.7,1521.8z"/>
		<path class="st5" d="M1230.7,1389.5l158.7-44l-163.9,145.4L1230.7,1389.5z M706,1539.6l1.2,99.7l-172.8-13.6L706,1539.6z
			 M1550.9,1082.2l-9,104.6l-145.3,55.6L1550.9,1082.2z M883,1538.1l-1,99.7l-174.9,1.5L883,1538.1z M-106,928.6l131.1,60.3
			l-120.2,45.7L-106,928.6z"/>
		
			<linearGradient id="SVGID_98_" gradientUnits="userSpaceOnUse" x1="-104.3908" y1="70.8305" x2="1013.3206" y2="-499.1212" gradientTransform="matrix(1 0 0 -1 0 712)">
			<stop  offset="0" style="stop-color:#06E594"/>
			<stop  offset="1" style="stop-color:#303030"/>
		</linearGradient>
		<path class="st102" d="M844.4,850.1l226.4,248.3L-215.6,859.3L844.4,850.1z"/>
		<path class="st5" d="M531.1,1526.3l174.9,13.3l-171.6,86.2L531.1,1526.3z M1230.7,1389.5l-5.2,101.4l-167.8,30.9L1230.7,1389.5z
			 M883,1538.1l174.7-16.3l-175.6,116L883,1538.1z M25.1,988.9l9.5,107.3l-129.7-61.7L25.1,988.9z M1396.6,1242.4l-7.2,103.1
			l-158.7,44L1396.6,1242.4z M1560.2,975l129.5-63.9l-138.7,171.1L1560.2,975z M706,1539.6l177-1.5l-175.9,101.2L706,1539.6z
			 M527.7,1424.3l3.3,102l-168.4-27.7L527.7,1424.3z M34.6,1096.3l148.2,51L43.9,1201L34.6,1096.3z M357.3,1397l170.4,27.3
			l-165,74.2L357.3,1397z M182.8,1147.3l7.6,105.8L43.9,1201L182.8,1147.3z M1060.8,1419.9l169.9-30.4l-173,132.3L1060.8,1419.9z
			 M351.8,1293l5.5,104l-159.5-40.7L351.8,1293z M190.4,1253.1l161.4,39.9l-154,63.3L190.4,1253.1z M1403.9,1136.7l147-54.5
			l-154.4,160.2L1403.9,1136.7z M1060.8,1419.9l-3.2,101.9L883,1538.1L1060.8,1419.9z M1236,1285.6l160.6-43.2l-165.9,147.1
			L1236,1285.6z M704.8,1437.4l1.2,102.2l-174.9-13.3L704.8,1437.4z M1560.2,975l-9.2,107.2l-147,54.5L1560.2,975z M884,1435.9
			l-1,102.2l-177,1.5L884,1435.9z"/>
		
			<linearGradient id="SVGID_99_" gradientUnits="userSpaceOnUse" x1="-30.8902" y1="214.9449" x2="1502.1407" y2="-566.7974" gradientTransform="matrix(1 0 0 -1 0 712)">
			<stop  offset="0" style="stop-color:#06E594"/>
			<stop  offset="1" style="stop-color:#303030"/>
		</linearGradient>
		<path class="st103" d="M1689.6,911.1L1560.2,975l-148.7,53.3L1689.6,911.1z M340.4,1077.1L25.1,988.9l-240.7-129.6L340.4,1077.1z"
			/>
		<path class="st5" d="M527.7,1424.3l177.1,13.1l-173.7,88.8L527.7,1424.3z M1236,1285.6l-5.3,103.9l-169.9,30.4L1236,1285.6z
			 M884,1435.9l176.8-16.1L883,1538.1L884,1435.9z M1403.9,1136.7l-7.4,105.7l-160.6,43.2L1403.9,1136.7z M704.8,1437.4l179.2-1.5
			l-178,103.6L704.8,1437.4z M524.3,1319.8l3.4,104.5L357.3,1397L524.3,1319.8z M25.1,988.9l149.9,49.9l-140.4,57.5L25.1,988.9z
			 M351.8,1293l172.5,26.8l-167,77.2L351.8,1293z M175,1038.8l7.8,108.5l-148.2-51L175,1038.8z M1064.1,1315.4l171.9-29.8
			l-175.2,134.3L1064.1,1315.4z M346.1,1186.4l5.7,106.6l-161.4-39.9L346.1,1186.4z M182.8,1147.3l163.4,39.1l-155.8,66.7
			L182.8,1147.3z M1411.5,1028.3l148.7-53.3l-156.2,161.6L1411.5,1028.3z M1064.1,1315.4l-3.2,104.5L884,1435.9L1064.1,1315.4z
			 M1241.4,1179l162.5-42.3L1236,1285.6L1241.4,1179z M703.6,1332.6l1.2,104.8l-177.1-13.1L703.6,1332.6z M885,1331.2l-1,104.7
			l-179.2,1.5L885,1331.2z"/>
		
			<linearGradient id="SVGID_100_" gradientUnits="userSpaceOnUse" x1="-29.5126" y1="217.6483" x2="1503.5216" y2="-564.0914" gradientTransform="matrix(1 0 0 -1 0 712)">
			<stop  offset="0" style="stop-color:#06E594"/>
			<stop  offset="1" style="stop-color:#303030"/>
		</linearGradient>
		<path class="st104" d="M1070.8,1098.4l-730.4-21.3l-556-217.7L1070.8,1098.4z M1689.6,911.1l-278.1,117.2l-340.7,70.1
			L1689.6,911.1z"/>
		<path class="st5" d="M524.3,1319.8l179.3,12.9l-175.8,91.7L524.3,1319.8z M1241.5,1179l-5.4,106.5l-171.9,29.8L1241.5,1179z
			 M885.1,1331.2l179-15.8l-180,120.5L885.1,1331.2z M1411.5,1028.3l-7.6,108.4l-162.5,42.3L1411.5,1028.3z M703.6,1332.7l181.5-1.5
			l-180.3,106.2L703.6,1332.7z M520.8,1212.6l3.5,107.2L351.8,1293L520.8,1212.6z M346.2,1186.4l174.6,26.2l-169,80.4L346.2,1186.4z
			"/>
		<path class="st5" d="M1067.4,1208.3l174.1-29.3l-177.4,136.4L1067.4,1208.3z M340.3,1077.1l5.8,109.3l-163.4-39.1L340.3,1077.1z
			 M175,1038.8l165.3,38.3l-157.6,70.2L175,1038.8z M1067.4,1208.3l-3.3,107.1l-179,15.8L1067.4,1208.3z M1247,1069.8l164.4-41.5
			L1241.4,1179L1247,1069.8z M702.3,1225.2l1.2,107.4l-179.3-12.9L702.3,1225.2z M886.1,1223.8l-1.1,107.4l-181.5,1.5L886.1,1223.8z
			 M520.8,1212.6l181.5,12.6l-178,94.6L520.8,1212.6z M1247,1069.8l-5.6,109.2l-174.1,29.3L1247,1069.8z M886.1,1223.8l181.3-15.5
			L885,1331.2L886.1,1223.8z M702.3,1225.2l183.8-1.4l-182.5,108.9L702.3,1225.2z"/>
		<path class="st5" d="M517.2,1102.7l3.6,109.9l-174.6-26.2L517.2,1102.7z M340.4,1077.1l176.8,25.7l-171,83.7L340.4,1077.1z
			 M1070.8,1098.4l176.2-28.7l-179.7,138.5L1070.8,1098.4z M1070.8,1098.4l-3.4,109.9l-181.3,15.5L1070.8,1098.4z M701,1115
			l1.3,110.2l-181.5-12.6L701,1115z M887.2,1113.6l-1.1,110.2l-183.8,1.4L887.2,1113.6z M517.2,1102.7L701,1115l-180.3,97.6
			L517.2,1102.7z M887.2,1113.6l183.6-15.2l-184.7,125.4L887.2,1113.6z"/>
	</g>
</g>
</svg>
