<?xml version="1.0" encoding="utf-8"?>
<!-- Generator: Adobe Illustrator 25.0.0, SVG Export Plug-In . SVG Version: 6.00 Build 0)  -->
<svg version="1.1" id="Layer_1" xmlns="http://www.w3.org/2000/svg" xmlns:xlink="http://www.w3.org/1999/xlink" x="0px" y="0px"
	 viewBox="0 0 1440 1085" style="enable-background:new 0 0 1440 1085;" xml:space="preserve">
<style type="text/css">
	.st0{fill:#C4C4C4;filter:url(#Adobe_OpacityMaskFilter);}
	.st1{mask:url(#mask0_526:1576_1_);}
	.st2{fill:#C4C4C4;filter:url(#Adobe_OpacityMaskFilter_1_);}
	.st3{mask:url(#mask1_526:1576_1_);}
	.st4{opacity:0.35;}
	.st5{fill:none;stroke:#FCFCFC;stroke-miterlimit:10;}
	.st6{fill:none;stroke:#43FED1;stroke-miterlimit:10;}
	.st7{fill:none;stroke:#42FDD0;stroke-miterlimit:10;}
	.st8{fill:none;stroke:#42FCCF;stroke-miterlimit:10;}
	.st9{fill:none;stroke:#42FBCE;stroke-miterlimit:10;}
	.st10{fill:none;stroke:#41FACD;stroke-miterlimit:10;}
	.st11{fill:none;stroke:#41F9CC;stroke-miterlimit:10;}
	.st12{fill:none;stroke:#41F9CB;stroke-miterlimit:10;}
	.st13{fill:none;stroke:#41F8CB;stroke-miterlimit:10;}
	.st14{fill:none;stroke:#40F7CA;stroke-miterlimit:10;}
	.st15{fill:none;stroke:#40F6C9;stroke-miterlimit:10;}
	.st16{fill:none;stroke:#40F5C8;stroke-miterlimit:10;}
	.st17{fill:none;stroke:#40F4C7;stroke-miterlimit:10;}
	.st18{fill:none;stroke:#3FF3C6;stroke-miterlimit:10;}
	.st19{fill:none;stroke:#3FF2C5;stroke-miterlimit:10;}
	.st20{fill:none;stroke:#3FF1C4;stroke-miterlimit:10;}
	.st21{fill:none;stroke:#3EF1C3;stroke-miterlimit:10;}
	.st22{fill:none;stroke:#3EF0C3;stroke-miterlimit:10;}
	.st23{fill:none;stroke:#3EEFC2;stroke-miterlimit:10;}
	.st24{fill:none;stroke:#3EEEC1;stroke-miterlimit:10;}
	.st25{fill:none;stroke:#3DEEC1;stroke-miterlimit:10;}
	.st26{fill:none;stroke:#3DEDC0;stroke-miterlimit:10;}
	.st27{fill:none;stroke:#3DECBF;stroke-miterlimit:10;}
	.st28{fill:none;stroke:#3DECBE;stroke-miterlimit:10;}
	.st29{fill:none;stroke:#3DEBBE;stroke-miterlimit:10;}
	.st30{fill:none;stroke:#3CEABD;stroke-miterlimit:10;}
	.st31{fill:none;stroke:#3CE9BC;stroke-miterlimit:10;}
	.st32{fill:none;stroke:#3CE9BB;stroke-miterlimit:10;}
	.st33{fill:none;stroke:#3CE8BB;stroke-miterlimit:10;}
	.st34{fill:none;stroke:#3BE7BA;stroke-miterlimit:10;}
	.st35{fill:none;stroke:#3BE7B9;stroke-miterlimit:10;}
	.st36{fill:none;stroke:#3BE6B9;stroke-miterlimit:10;}
	.st37{fill:none;stroke:#3BE5B8;stroke-miterlimit:10;}
	.st38{fill:none;stroke:#3AE4B7;stroke-miterlimit:10;}
	.st39{fill:none;stroke:#3AE4B6;stroke-miterlimit:10;}
	.st40{fill:none;stroke:#3AE3B6;stroke-miterlimit:10;}
	.st41{fill:none;stroke:#3AE2B5;stroke-miterlimit:10;}
	.st42{fill:none;stroke:#39E1B4;stroke-miterlimit:10;}
	.st43{fill:none;stroke:#39E1B3;stroke-miterlimit:10;}
	.st44{fill:none;stroke:#39E0B3;stroke-miterlimit:10;}
	.st45{fill:none;stroke:#39DFB2;stroke-miterlimit:10;}
	.st46{fill:none;stroke:#39DFB1;stroke-miterlimit:10;}
	.st47{fill:none;stroke:#38DEB1;stroke-miterlimit:10;}
	.st48{fill:none;stroke:#38DDB0;stroke-miterlimit:10;}
	.st49{fill:none;stroke:#38DCAF;stroke-miterlimit:10;}
	.st50{fill:none;stroke:#38DCAE;stroke-miterlimit:10;}
	.st51{fill:none;stroke:#37DBAE;stroke-miterlimit:10;}
	.st52{fill:none;stroke:#37DAAD;stroke-miterlimit:10;}
	.st53{fill:none;stroke:#37DAAC;stroke-miterlimit:10;}
	.st54{fill:none;stroke:#37D9AB;stroke-miterlimit:10;}
	.st55{fill:none;stroke:#36D8AB;stroke-miterlimit:10;}
	.st56{fill:none;stroke:#36D7AA;stroke-miterlimit:10;}
	.st57{fill:none;stroke:#36D7A9;stroke-miterlimit:10;}
	.st58{fill:none;stroke:#36D6A9;stroke-miterlimit:10;}
	.st59{fill:none;stroke:#36D5A8;stroke-miterlimit:10;}
	.st60{fill:none;stroke:#35D5A7;stroke-miterlimit:10;}
	.st61{fill:none;stroke:#35D4A6;stroke-miterlimit:10;}
	.st62{fill:none;stroke:#35D3A6;stroke-miterlimit:10;}
	.st63{fill:none;stroke:#35D2A5;stroke-miterlimit:10;}
	.st64{fill:none;stroke:#34D2A4;stroke-miterlimit:10;}
	.st65{fill:none;stroke:#34D1A3;stroke-miterlimit:10;}
	.st66{fill:none;stroke:#34D0A3;stroke-miterlimit:10;}
	.st67{fill:none;stroke:#34CFA2;stroke-miterlimit:10;}
	.st68{fill:none;stroke:#33CFA1;stroke-miterlimit:10;}
	.st69{fill:none;stroke:#33CEA0;stroke-miterlimit:10;}
	.st70{fill:none;stroke:#33CDA0;stroke-miterlimit:10;}
	.st71{fill:none;stroke:#33CD9F;stroke-miterlimit:10;}
	.st72{fill:none;stroke:#33CC9E;stroke-miterlimit:10;}
	.st73{fill:none;stroke:#32CB9E;stroke-miterlimit:10;}
	.st74{fill:none;stroke:#32CA9D;stroke-miterlimit:10;}
	.st75{fill:none;stroke:#32CA9C;stroke-miterlimit:10;}
	.st76{fill:none;stroke:#32C99B;stroke-miterlimit:10;}
	.st77{fill:none;stroke:#31C89B;stroke-miterlimit:10;}
	.st78{fill:none;stroke:#31C89A;stroke-miterlimit:10;}
	.st79{fill:none;stroke:#31C799;stroke-miterlimit:10;}
	.st80{fill:none;stroke:#31C698;stroke-miterlimit:10;}
	.st81{fill:none;stroke:#30C598;stroke-miterlimit:10;}
	.st82{fill:none;stroke:#30C597;stroke-miterlimit:10;}
	.st83{fill:none;stroke:#30C496;stroke-miterlimit:10;}
	.st84{fill:none;stroke:#30C396;stroke-miterlimit:10;}
	.st85{fill:none;stroke:#30C395;stroke-miterlimit:10;}
	.st86{fill:none;stroke:#2FC294;stroke-miterlimit:10;}
	.st87{fill:none;stroke:#2FC193;stroke-miterlimit:10;}
	.st88{fill:none;stroke:#2FC093;stroke-miterlimit:10;}
	.st89{fill:none;stroke:#2FC092;stroke-miterlimit:10;}
	.st90{fill:none;stroke:#2EBF91;stroke-miterlimit:10;}
	.st91{fill:none;stroke:#2EBE90;stroke-miterlimit:10;}
	.st92{fill:none;stroke:#2EBD90;stroke-miterlimit:10;}
	.st93{fill:none;stroke:#2EBD8F;stroke-miterlimit:10;}
	.st94{fill:none;stroke:#2DBC8E;stroke-miterlimit:10;}
	.st95{fill:none;stroke:#2DBB8E;stroke-miterlimit:10;}
	.st96{fill:none;stroke:#2DBB8D;stroke-miterlimit:10;}
	.st97{fill:none;stroke:#2DBA8C;stroke-miterlimit:10;}
	.st98{fill:none;stroke:#2CB98B;stroke-miterlimit:10;}
	.st99{fill:none;stroke:#2CB88B;stroke-miterlimit:10;}
	.st100{fill:none;stroke:#2CB88A;stroke-miterlimit:10;}
	.st101{fill:none;stroke:#2CB789;stroke-miterlimit:10;}
	.st102{fill:none;stroke:#2CB688;stroke-miterlimit:10;}
	.st103{fill:none;stroke:#2BB688;stroke-miterlimit:10;}
	.st104{fill:none;stroke:#2BB587;stroke-miterlimit:10;}
	.st105{fill:none;stroke:#2BB486;stroke-miterlimit:10;}
	.st106{fill:none;stroke:#2BB386;stroke-miterlimit:10;}
	.st107{fill:none;stroke:#2AB385;stroke-miterlimit:10;}
	.st108{fill:none;stroke:#2AB284;stroke-miterlimit:10;}
	.st109{fill:none;stroke:#2AB183;stroke-miterlimit:10;}
	.st110{fill:none;stroke:#29B082;stroke-miterlimit:10;}
	.st111{fill:none;stroke:#29AF81;stroke-miterlimit:10;}
	.st112{fill:none;stroke:#29AE80;stroke-miterlimit:10;}
	.st113{fill:none;stroke:#29AD7F;stroke-miterlimit:10;}
	.st114{fill:none;stroke:#28AC7E;stroke-miterlimit:10;}
	.st115{fill:none;stroke:#28AB7E;stroke-miterlimit:10;}
	.st116{fill:none;stroke:#28AB7D;stroke-miterlimit:10;}
	.st117{fill:none;stroke:#28AA7C;stroke-miterlimit:10;}
	.st118{fill:none;stroke:#398C6F;stroke-miterlimit:10;}
	.st119{fill:none;stroke:#27A87A;stroke-miterlimit:10;}
	.st120{fill:none;stroke:#27A779;stroke-miterlimit:10;}
	.st121{fill:none;stroke:#26A577;stroke-miterlimit:10;}
	.st122{opacity:0.3;}
	.st123{fill:none;}
	.st124{fill:url(#SVGID_1_);}
</style>
<defs>
	<filter id="Adobe_OpacityMaskFilter" filterUnits="userSpaceOnUse" x="-5234.8" y="-227" width="9107.2" height="2432.8">
		<feColorMatrix  type="matrix" values="1 0 0 0 0  0 1 0 0 0  0 0 1 0 0  0 0 0 1 0"/>
	</filter>
</defs>
<mask maskUnits="userSpaceOnUse" x="-5234.8" y="-227" width="9107.2" height="2432.8" id="mask0_526:1576_1_">
	<rect class="st0" width="1440" height="1085"/>
</mask>
<g class="st1">
	<defs>
		<filter id="Adobe_OpacityMaskFilter_1_" filterUnits="userSpaceOnUse" x="-5234.8" y="-227" width="9107.2" height="2432.8">
			<feColorMatrix  type="matrix" values="1 0 0 0 0  0 1 0 0 0  0 0 1 0 0  0 0 0 1 0"/>
		</filter>
	</defs>
	<mask maskUnits="userSpaceOnUse" x="-5234.8" y="-227" width="9107.2" height="2432.8" id="mask1_526:1576_1_">
		
			<rect x="-15.4" y="-4.5" transform="matrix(0.9938 -0.1109 0.1109 0.9938 -92.7879 95.7283)" class="st2" width="1659.5" height="1773.3"/>
	</mask>
	<g class="st3">
		<g class="st4">
			<path class="st5" d="M-5234.7,1165.5c2351.3-484,3856.1-721.9,3903.6-548.4c56.4,206.6-2007.8,793.4-1951.6,1023.4
				c84.6,346.6,4907.1-426.3,4902-1156.5c-0.8-112.2-115.3-187.6-77.9-273.3c99.1-227.7,1057.2-43.5,2137.8,243.2"/>
			<path class="st5" d="M3677.4,459.2C2600.2,170.5,1643.7-16.2,1540.8,208.9c-38.6,84.5,74.8,159.2,73.5,270.3
				c-3.3,292.5-768.5,604.4-1699.4,834.4c-837.5,206.8-1806.2,342.4-2452.5,385.3c-419.7,27.7-701.9,10.8-722.9-67.4
				c-35.1-129.4,664.3-380.6,1226.3-610.5c388.3-158.8,712.9-307,687.7-393c-31.8-108.4-593.6-68.5-1551.5,90.4
				c-624.4,103.4-1414.8,262.2-2333.7,459.6"/>
			<path class="st5" d="M3675.7,464.5C2601.9,173.7,1646.9-15.3,1540.2,207c-39.9,83.1,72.4,157.2,69.1,267.2
				c-8.8,291.4-759.8,614.4-1683.9,842.4C-906.6,1521.9-1873,1640-2518.9,1683.6c-417.1,27.7-697.2,13.1-719.3-61.1
				c-36.5-122.9,652.9-364,1204-590.6c381-156.5,699.6-305.1,672.3-392.9c-34.8-111.5-593.8-77.9-1545.3,79.5
				c-622.9,102.6-1409.2,267.7-2321.5,472.1"/>
			<path class="st5" d="M3674,469.8C2603.6,177,1650.2-14.5,1539.7,205.1c-41.2,81.8,70,155.3,64.6,264.2
				c-14.2,290.4-751.2,624.5-1668.6,850.5c-826.5,203.5-1790.5,304.3-2436,348.4c-414.6,27.8-692.7,15.6-715.8-54.9
				c-38.2-116.3,641.4-347.5,1181.7-570.8c373.9-154.2,686.5-303.4,657-392.7c-37.8-114.6-594-87.2-1539.2,68.7
				c-621.3,101.8-1403.7,273.3-2309.3,484.6"/>
			<path class="st5" d="M3672.3,475.1c-1067.1-294.9-2018.8-488.8-2133-271.9c-42.3,80.5,67.5,153.4,60.1,261.1
				C1579.8,753.9,856.9,1098.9-53.7,1323c-821,201.9-1782.7,285.3-2427.7,330c-412,27.8-688.1,18.1-712.4-48.8
				c-39.8-109.8,629.9-330.9,1159.4-550.9c366.7-152,673.3-301.5,641.6-392.6c-40.8-117.7-594.2-96.6-1533,57.8
				c-619.8,101-1398.1,278.9-2297,497.1"/>
			<path class="st5" d="M3670.6,480.4C2606.9,183.5,1656.9-13,1538.8,201.3c-43.6,79.1,65,151.5,55.7,258.1
				c-25.2,288.8-733.9,644.5-1637.7,866.7c-815.4,200.3-1774.8,266.3-2419.4,311.5c-409.4,27.8-683.5,20.5-708.9-42.6
				c-41.5-103.2,618.5-314.3,1137.1-531c359.5-149.8,660-299.7,626.3-392.4c-43.9-120.8-594.3-105.9-1526.8,46.9
				c-618.2,100.3-1392.6,284.5-2284.8,509.6"/>
			<path class="st5" d="M3668.9,485.7C2608.6,186.8,1660.2-12.2,1538.3,199.5c-44.8,77.7,62.5,149.7,51.2,255
				C1558.8,742.6,864.3,1109-32.7,1329.3c-809.9,198.7-1766.9,247.3-2411.1,293.1c-406.9,27.9-679,22.9-705.4-36.4
				c-43.1-96.7,607.1-297.8,1114.7-511.2c352.4-147.5,646.8-297.9,611-392.3c-47.1-124-594.6-115.3-1520.7,36
				c-616.7,99.4-1387,290.1-2272.6,522.1"/>
			<path class="st5" d="M3667.3,491c-1057-300.9-2003.6-502.5-2129.5-293.4c-45.9,76.3,59.9,147.9,46.8,252
				C1548.2,737.2,868,1114.1-22.3,1332.4c-804.5,197.1-1759.1,228.3-2402.9,274.7c-404.3,27.9-674.4,25.3-701.9-30.1
				c-44.7-90.2,595.6-281.3,1092.4-491.3c345.2-145.2,633.5-296.1,595.7-392.2c-50.1-127.1-594.7-124.6-1514.5,25.2
				c-615.1,98.7-1381.5,295.8-2260.4,534.6"/>
			<path class="st5" d="M3665.5,496.3C2612,193.3,1667.1-10.9,1537.3,195.7c-47.1,75,57.4,146.1,42.4,248.9
				c-42,287.4-708,674.6-1591.5,891c-799,195.4-1751.3,209.2-2394.6,256.2c-401.7,28-669.8,27.7-698.4-23.9
				c-46.3-83.7,584.2-264.8,1070.1-471.4c338-143,620.3-294.3,580.4-392c-53.2-130.3-594.9-134-1508.4,14.3
				c-613.6,97.8-1375.8,301.4-2248.2,547.1"/>
			<path class="st5" d="M3663.9,501.5c-1050.2-305-1993.2-511.8-2127.1-307.7c-48.3,73.6,54.8,144.3,37.9,245.8
				c-47.7,287.1-699.3,684.6-1576.1,899.1c-793.4,193.8-1743.4,190.2-2386.3,237.8c-399.2,28-665.3,30-694.9-17.7
				c-48-77.3,572.7-248.2,1047.8-451.6c330.8-140.7,607-292.5,565-391.9c-56.3-133.3-595.1-143.3-1502.2,3.4
				c-611.9,97.1-1370.3,307-2235.9,559.6"/>
			<path class="st5" d="M3662.2,506.8C2615.3,199.9,1674.2-9.6,1536.3,192c-49.4,72.3,52.1,142.6,33.4,242.8
				c-53.4,287-690.7,694.6-1560.6,907.1C-778.8,1534-1726.4,1514.4-2369,1561.2c-396.5,28.9-660.7,32.3-691.4-11.5
				c-49.6-70.9,561.3-231.6,1025.5-431.7c323.6-138.5,593.7-290.7,549.8-391.8c-59.5-136.5-595.3-152.7-1496.1-7.5
				c-610.4,96.2-1364.7,312.6-2223.7,572.1"/>
			<path class="st5" d="M3660.5,512.1C2617,203.1,1677.8-9.1,1535.9,190c-50.5,70.8,49.4,140.9,29,239.7
				c-59.3,287-682,704.7-1545.2,915.3c-782.5,190.5-1727.7,153.6-2369.8,200.8c-394,29-656.2,34.7-687.9-5.3
				c-51.3-64.5,549.8-215.1,1003.1-411.8c316.4-136.3,580.5-288.8,534.4-391.7c-62.6-139.6-595.5-162-1489.9-18.4
				c-608.8,95.5-1359.2,318.2-2211.5,584.6"/>
			<path class="st5" d="M3658.8,517.4c-1040.1-311-1977.3-526-2123.5-329.2c-51.6,69.4,46.7,139.2,24.6,236.6
				c-65.1,287.1-673.4,714.7-1529.8,923.4c-776.9,188.9-1719.8,134.7-2361.5,182.4c-391.4,29.1-651.6,36.9-684.5,0.9
				c-53-58.2,538.4-198.5,980.9-391.9c309.3-134,567.2-287.1,519.1-391.5c-65.7-142.8-595.4-169.6-1483.7-29.2
				c-607.1,95.9-1353.6,323.8-2199.3,597.1"/>
			<path class="st5" d="M3657.1,522.7C2620.4,209.6,1685.2-7.9,1534.9,186.3c-52.7,68.1,43.8,137.5,20.1,233.6
				c-71.1,287.3-664.8,724.7-1514.4,931.4c-771.4,187.2-1711.9,115.8-2353.2,164c-388.8,29.2-647.1,39.2-680.9,7.1
				c-54.7-51.9,527-182,958.5-372.1c302.1-131.7,553.9-285.2,503.8-391.4c-68.8-145.8-595.6-178.8-1477.6-40.1
				c-605.6,95.3-1348.1,329.4-2187.1,609.6"/>
			<path class="st5" d="M3655.4,528c-1033.3-315-1966.5-535.4-2121-343.5c-53.8,66.7,41,135.8,15.6,230.5
				c-77.1,287.6-656.1,734.8-1499,939.5c-766,185.6-1704.1,96.9-2344.9,145.5c-386.2,29.3-642.7,41.4-677.5,13.3
				c-56.5-45.7,515.1-166.3,936.2-352.2c294.6-130.1,540.6-283.4,488.4-391.3c-72-149-595.7-188-1471.5-51
				c-604,94.6-1342.5,334.9-2174.9,622.1"/>
			<path class="st5" d="M3653.7,533.3c-1030-317.1-1961-540.1-2119.9-350.8c-54.8,65.3,38.1,134.1,11.2,227.4
				c-83.2,288-647.5,744.8-1483.6,947.6c-760.5,184-1696.3,78-2336.7,127c-383.7,29.4-638.2,43.7-674,19.5
				c-58.4-39.5,503.6-149.8,913.9-332.3c287.4-127.8,527.3-281.6,473.1-391.1c-75.2-152.1-596-197.3-1465.3-61.8
				c-602.4,93.8-1337,340.5-2162.6,634.6"/>
			<path class="st5" d="M3652,538.6C2625.4,219.4,1696.6-6.3,1533.4,180.7c-55.8,63.9,35.2,132.5,6.8,224.4
				C1450.7,693.5,901.2,1159.9,72,1360.7c-754.9,182.3-1688.4,59.1-2328.4,108.7c-381.1,29.5-633.8,45.9-670.5,25.7
				c-60.3-33.3,492.2-133.4,891.5-312.5c280.2-125.6,513.9-279.7,457.8-391c-78.3-155.2-596.1-206.5-1459.1-72.8
				c-600.9,93.1-1331.4,346.1-2150.4,647.1"/>
			<path class="st5" d="M3650.4,543.9C2627.1,222.7,1700.4-5.8,1532.9,178.7c-56.8,62.6,32.3,130.8,2.3,221.3
				C1439.5,689,905,1164.9,82.5,1363.9c-749.4,180.7-1680.5,40.2-2320.1,90.2c-378.5,29.6-629.6,48.2-667,31.9
				c-62.4-27.1,480.7-116.9,869.3-292.6c272.9-123.4,500.5-277.9,442.4-390.9c-81.5-158.2-596.3-215.7-1452.9-83.6
				c-599.3,92.4-1325.9,351.7-2138.2,659.6"/>
			<path class="st5" d="M3648.7,549.2C2628.8,225.9,1704.4-5.3,1532.4,176.9c-57.7,61.2,29.2,129.2-2.1,218.2
				C1428.2,684.7,908.7,1170,93,1367c-744,179.1-1672.7,21.2-2311.9,71.7c-375.9,29.7-625.3,50.4-663.5,38.1
				c-64.5-20.8,469.2-100.4,846.9-272.7c265.8-121.3,487.4-276.1,427.1-390.7c-84.7-161.4-596.5-225-1446.8-94.5
				c-597.7,91.8-1320.3,357.4-2126,672.2"/>
			<path class="st5" d="M3647,554.4C2630.5,229.3,1708.4-4.7,1531.9,175c-58.7,59.8,26.2,127.6-6.6,215.2
				c-108.6,290.2-612.9,784.9-1421.9,980c-738.5,177.4-1664.8,2.4-2303.5,53.3c-373.3,29.8-621,52.8-660,44.3
				c-66.7-14.5,457.7-84,824.6-252.9c258.6-119.1,474.1-274.3,411.9-390.6c-87.9-164.5-596.7-234.3-1440.7-105.4
				c-596.2,91.1-1314.7,363-2113.8,684.6"/>
			<path class="st5" d="M3645.3,559.7C2632.1,232.5,1712.5-4.2,1531.4,173.1c-59.6,58.5,23,125.9-11.1,212.1
				c-115.1,290.9-604.3,795-1406.5,988c-732.9,175.9-1657-16.5-2295.3,34.9c-370.8,29.9-616.9,55.1-656.6,50.5
				c-68.9-8,446.2-67.5,802.3-233c251.4-116.9,460.7-272.4,396.5-390.5c-91.1-167.6-596.8-243.5-1434.5-116.2
				c-594.6,90.3-1309.1,368.6-2101.6,697.1"/>
			<path class="st5" d="M3643.6,565C2633.8,235.8,1716.5-3.7,1530.9,171.2c-60.6,57.1,19.9,124.2-15.5,209.1
				c-121.8,291.7-595.6,805-1391.1,996.1c-727.5,174.2-1649.1-35.5-2287,16.4c-368.2,30-612.6,57.6-653,56.7
				c-71.2-1.6,434.8-51,779.9-213.1c244.2-114.7,447.3-270.5,381.2-390.3c-94.3-170.6-597-252.7-1428.3-127.2
				c-593,89.6-1303.6,374.2-2089.4,709.7"/>
			<path class="st5" d="M3641.9,570.3C2635.5,239,1720.6-3.1,1530.4,169.4c-61.5,55.8,1.5,117.5-19.9,206
				c-177.9,265.3-587,815-1375.7,1004.2c-722,172.6-1641.3-54.4-2278.7-2c-365.6,30-609.2,54.6-649.5,63
				c-72.1,14.8,423.2-34.6,757.7-193.2c237-112.5,434-268.8,365.9-390.2c-97.6-173.9-597.2-262.1-1422.2-138.1
				c-591.4,88.9-1298,379.8-2077.1,722.1"/>
			<path class="st5" d="M3640.2,575.6C2637.2,242.3,1724.8-2.5,1530,167.4c-62.3,54.4-1.9,115.5-24.4,203
				c-186.1,264.1-578.3,825-1360.3,1012.4c-716.4,170.9-1633.4-73.4-2270.4-20.5c-363,30.1-605.4,57.3-646.1,69.2
				c-73.5,21.4,411.8-18.1,735.3-173.4c229.8-110.3,420.7-266.9,350.6-390.1C-1786,691-2282.6,596.7-3101.3,719.1
				c-589.9,88.2-1292.5,385.4-2064.9,734.6"/>
			<path class="st5" d="M3638.6,580.9C2638.9,245.6,1729-1.9,1529.5,165.6c-63.2,53.1-5.4,113.5-28.9,199.9
				c-194.3,262.8-569.7,835-1344.8,1020.4c-710.9,169.3-1625.6-92.3-2262.1-39c-360.5,30.2-599.9,65.2-642.6,75.3
				c-77.8,18.6,400.3-1.6,713-153.5c222.5-108.1,407.4-265,335.3-389.9c-103.9-179.9-597.6-280.5-1409.9-159.8
				c-588.3,87.5-1286.9,391-2052.7,747.2"/>
			<path class="st5" d="M3636.9,586.2C2640.5,248.8,1733.2-1.3,1529,163.7c-64.1,51.7-8.8,111.5-33.3,196.9
				C1293.2,622,934.6,1205.7,166.2,1389.1c-705.5,167.7-1617.7-111.2-2253.9-57.4c-357.9,30.3-595.7,67.8-639.1,81.5
				c-79.9,25.4,388.8,14.8,690.7-133.6c215.3-105.9,394-263.2,319.9-389.8c-107.1-183-597.7-289.8-1403.7-170.6
				c-586.8,86.7-1281.4,396.5-2040.5,759.6"/>
			<path class="st5" d="M3635.1,591.5C2642.2,252.1,1737.6-0.6,1528.5,161.8c-65,50.5-12.3,109.6-37.7,193.8
				c-210.6,260.2-552.5,855.1-1314,1036.6c-700,166-1609.8-130.2-2245.6-75.8c-355.3,30.4-591.4,70.4-635.6,87.7
				c-82,32.2,377.3,31.3,668.4-113.8c208-103.7,380.7-261.3,304.6-389.6c-110.3-186.1-597.9-299.1-1397.6-181.5
				c-585.3,86.1-1275.8,402.1-2028.3,772.2"/>
			<path class="st5" d="M3633.5,596.8C2643.9,255.4,1742,0.1,1528,159.9c-65.8,49.2-15.7,107.5-42.2,190.8
				C1267,609.6,942,1215.8,187.2,1395.3c-694.4,164.4-1602-149.1-2237.3-94.3c-352.8,30.4-587,73-632.1,94
				c-84,39,365.7,47.7,646.1-93.9c200.8-101.5,367.4-259.5,289.2-389.5c-113.6-189.2-598.1-308.4-1391.5-192.4
				c-583.7,85.4-1270.3,407.7-2016.1,784.7"/>
			<path class="st5" d="M3631.8,602c-986.2-343.4-1885.5-601.3-2104.3-444c-66.6,47.9-19.2,105.6-46.7,187.7
				c-227,257.6-535.2,875.2-1283.2,1052.8c-688.9,162.8-1594.2-168-2229.1-112.7c-350.2,30.5-582.7,75.6-628.7,100.2
				c-86,45.9,354.3,64.2,623.7-74c193.6-99.3,354-257.6,274-389.4c-116.8-192.3-598.3-317.6-1385.3-203.2
				c-582.1,84.6-1264.7,413.3-2003.9,797.1"/>
			<path class="st5" d="M3630.1,607.3C2647.3,261.9,1750.8,1.5,1527,156.2c-67.4,46.6-22.6,103.6-51.1,184.6
				C1240.7,597,949.3,1225.9,208,1401.6c-683.5,161.1-1586.3-186.9-2220.7-131.2c-347.6,30.6-578.3,78.2-625.1,106.4
				c-87.9,52.8,342.7,80.6,601.5-54.2c186.4-97.2,340.7-255.8,258.7-389.3c-120-195.3-598.5-326.9-1379.1-214.2
				c-580.5,83.8-1259.1,418.9-1991.6,809.7"/>
			<path class="st5" d="M3628.4,612.6C2648.9,265.1,1755.2,2.3,1526.5,154.3c-68.2,45.3-26,101.6-55.6,181.6
				c-243.4,255-517.9,895.3-1252.4,1069c-678,159.5-1578.4-205.9-2212.5-149.6c-345.1,30.6-573.9,80.9-621.6,112.6
				c-89.8,59.7,331.3,97.1,579.1-34.3c179.1-95,327.2-254,243.3-389.2c-123.2-198.3-598.7-336.2-1373-225
				c-579,83.2-1253.5,424.6-1979.4,822.2"/>
			<path class="st5" d="M3626.8,617.9C2650.6,268.4,1759.6,3.1,1526,152.4c-69,44.1-29.5,99.6-60,178.5
				c-251.5,253.7-509.2,905.3-1237,1077c-672.4,157.8-1570.6-224.8-2204.2-168c-342.4,30.7-569.5,83.4-618.2,118.7
				c-91.6,66.5,319.7,113.5,556.8-14.5c171.9-92.8,313.9-252.1,228-389c-126.4-201.4-598.8-345.5-1366.8-235.9
				c-577.4,82.4-1248,430.2-1967.2,834.6"/>
			<path class="st5" d="M3625,623.3C2652.3,271.7,1764.1,4,1525.5,150.5c-69.8,42.9-32.9,97.6-64.4,175.4
				c-259.7,252.5-500.6,915.3-1221.5,1085.1c-667,156.2-1562.7-243.8-2195.9-186.5c-339.9,30.8-565,86-614.7,125
				c-93.4,73.4,308.2,130,534.5,5.4c164.7-90.7,300.6-250.2,212.7-388.9c-129.8-204.5-599.1-354.8-1360.8-246.7
				c-575.9,81.7-1242.4,435.8-1955,847.2"/>
			<path class="st5" d="M3623.3,628.5C2654,275,1768.7,4.9,1525,148.6c-70.6,41.6-36.3,95.7-68.9,172.4
				C1188.2,572.2,964.2,1246.4,250,1414.2c-661.5,154.6-1554.9-262.8-2187.7-204.9c-337.3,30.8-560.6,88.6-611.1,131.2
				c-95.2,80.2,296.6,146.5,512.1,25.3c157.4-88.5,287.2-248.4,197.4-388.7c-133-207.6-599.2-364.1-1354.5-257.6
				c-574.3,81-1236.9,441.4-1942.8,859.7"/>
			<path class="st5" d="M3621.6,633.8c-966-355.6-1848.4-627.9-2097.1-487c-71.4,40.4-39.8,93.7-73.4,169.3
				C1175.1,566,967.9,1251.4,260.5,1417.4c-655.9,153-1547-281.7-2179.3-223.4c-334.7,30.8-556.2,91.2-607.7,137.4
				c-97,87,285.1,162.9,489.9,45.1c150.2-86.3,273.9-246.5,182-388.6c-136.2-210.6-599.5-373.4-1348.3-268.5
				c-572.8,80.2-1231.3,447-1930.6,872.2"/>
			<path class="st5" d="M3620,639.1C2657.3,281.5,1777.8,6.8,1524,144.9c-72.1,39.3-43.2,91.7-77.8,166.2
				c-284.3,248.6-474.7,945.4-1175.3,1109.4c-650.4,151.4-1539.2-300.6-2171.1-241.8c-332.2,30.9-551.7,93.7-604.2,143.6
				c-98.8,93.8,273.5,179.3,467.5,65c142.9-84.2,260.5-244.7,166.7-388.4c-139.4-213.7-599.6-382.7-1342.2-279.4
				c-571.2,79.5-1225.8,452.6-1918.4,884.7"/>
			<path class="st5" d="M3618.3,644.4C2659,284.8,1782.4,7.8,1523.6,143c-72.9,38-46.7,89.7-82.2,163.2
				c-292.5,247.3-466,955.4-1159.9,1117.5c-645,149.7-1531.3-319.6-2162.8-260.3c-329.6,31-547.2,96.3-600.7,149.8
				c-100.6,100.6,262,195.7,445.3,84.8c135.7-82,247.1-242.8,151.3-388.3c-142.6-216.7-599.8-392-1336-290.2
				c-569.6,78.8-1220.2,458.2-1906.1,897.2"/>
			<path class="st5" d="M3616.6,649.7C2660.7,288,1787,8.9,1523.1,141.1c-73.6,36.9-50.1,87.7-86.7,160.1
				c-300.7,246-457.4,965.4-1144.5,1125.6c-639.5,148.1-1523.5-338.6-2154.5-278.8c-327,31-542.7,98.9-597.2,156
				c-102.3,107.4,250.4,212.2,422.9,104.7c128.4-79.9,233.8-240.9,136.1-388.2c-145.9-219.8-600-401.4-1329.9-301.2
				c-568.1,78-1214.7,463.8-1893.9,909.7"/>
			<path class="st5" d="M3614.9,654.9C2662.4,291.3,1791.6,10,1522.6,139.2c-74.3,35.7-53.5,85.7-91.2,157
				c-308.8,244.7-448.8,975.4-1129,1133.6c-633.9,146.5-1515.6-357.6-2146.3-297.2c-324.5,31.1-538.3,101.4-593.7,162.2
				c-104.2,114.1,238.8,228.5,400.6,124.6c121.1-77.8,220.4-239.1,120.8-388.1c-149.1-222.9-600.2-410.7-1323.7-312
				c-566.5,77.2-1209.1,469.3-1881.7,922.2"/>
			<path class="st5" d="M3613.2,660.2C2664.1,294.5,1796.3,11.2,1522.1,137.3c-75.1,34.6-57,83.8-95.6,154
				c-317,243.4-440.1,985.5-1113.7,1141.8c-628.4,144.8-1507.8-376.6-2138-315.6c-321.9,31.1-533.8,104-590.2,168.4
				c-105.9,120.9,227.2,244.9,378.3,144.4c113.7-75.6,207.1-237.2,105.4-387.9c-152.4-225.9-600.4-420-1317.6-322.9
				c-565,76.5-1203.6,474.9-1869.5,934.7"/>
			<path class="st5" d="M3611.5,665.6C2665.8,297.9,1800.9,12.4,1521.6,135.5c-75.8,33.4-60.4,81.7-100,150.9
				c-325.2,242.1-431.5,995.5-1098.2,1149.9c-623,143.2-1499.9-395.5-2129.7-334.1c-319.4,31.2-529.3,106.5-586.8,174.6
				c-107.6,127.7,215.5,261.4,355.9,164.3c106.4-73.5,193.7-235.4,90.1-387.8c-155.6-228.9-600.6-429.3-1311.4-333.8
				c-563.4,75.7-1198,480.5-1857.3,947.2"/>
			<path class="st5" d="M3609.9,670.9C2667.4,301.1,1805.6,13.7,1521.1,133.6c-76.6,32.3-63.8,79.8-104.5,147.9
				C1083.2,522.4,993.8,1287.1,333.8,1439.4c-617.4,141.6-1492.1-414.5-2121.4-352.5c-316.7,31.2-524.9,109.1-583.2,180.8
				c-109.4,134.4,203.9,277.7,333.7,184.2c99.1-71.4,180.3-233.5,74.8-387.7c-158.9-232-600.7-438.7-1305.2-344.6
				c-561.9,75-1192.4,486.2-1845.1,959.7"/>
			<path class="st5" d="M3608.2,676.2C2669.1,304.3,1810.3,15,1520.7,131.7c-77.3,31.1-67.3,77.8-108.9,144.8
				c-341.6,239.6-414.2,1015.6-1067.4,1166c-611.9,139.9-1484.2-433.5-2113.1-371c-314.2,31.2-520.4,111.6-579.8,187
				c-111.2,141.1,192.2,294.1,311.3,204c91.7-69.3,167-231.6,59.5-387.5c-162.1-235.1-601-448.1-1299.1-355.5
				c-560.3,74.2-1186.8,491.8-1832.8,972.2"/>
			<path class="st5" d="M3606.4,681.4C2670.8,307.6,1815,16.3,1520.2,129.9c-78,30.1-70.7,75.8-113.4,141.8
				c-349.8,238.3-405.5,1025.6-1052,1174.1c-606.5,138.3-1476.4-452.4-2104.9-389.4c-311.6,31.3-515.9,114.1-576.3,193.2
				c-112.9,147.8,180.4,310.5,289,223.9c84.2-67.2,153.6-229.7,44.1-387.4c-165.3-238.1-601.1-457.4-1292.9-366.4
				c-558.7,73.4-1181.3,497.4-1820.6,984.7"/>
			<path class="st5" d="M3604.8,686.7C2672.5,310.8,1819.6,17.7,1519.7,128c-78.8,29-74.2,73.8-117.9,138.7
				c-357.9,236.9-396.9,1035.7-1036.6,1182.2c-601,136.6-1468.5-471.5-2096.6-407.8c-309,31.3-511.5,116.6-572.8,199.4
				c-114.6,154.6,168.6,326.9,266.7,243.8c76.8-65.2,140.3-227.9,28.8-387.2c-168.6-241.1-601.4-466.7-1286.8-377.3
				c-557.2,72.7-1175.7,503-1808.4,997.2"/>
			<path class="st5" d="M3603.1,692C2674.2,314.2,1824.3,19.2,1519.2,126.1c-79.5,27.9-77.6,71.8-122.3,135.7
				c-366.1,235.7-388.3,1045.7-1021.2,1190.3c-595.4,135-1460.7-490.5-2088.3-426.3c-306.5,31.3-506.9,119.2-569.3,205.6
				c-116.4,161.3,156.8,343.3,244.3,263.6c69.3-63.1,126.9-226,13.5-387.1c-171.9-244.2-601.5-476.1-1280.6-388.2
				c-555.6,71.9-1170.2,508.6-1796.1,1009.7"/>
			<path class="st5" d="M3601.4,697.3C2675.9,317.4,1829,20.7,1518.7,124.2c-80.3,26.8-81,69.9-126.7,132.6
				c-374.3,234.4-379.6,1055.7-1005.7,1198.4c-589.9,133.4-1452.9-509.5-2080.1-444.8c-303.9,31.3-502.5,121.7-565.8,211.8
				c-118.1,168,144.8,359.8,222.1,283.5c61.8-61,113.5-224.2-1.8-387c-175.1-247.2-601.8-485.5-1274.5-399
				C-3868,790.9-4478.5,1233.9-5097.9,1742"/>
			<path class="st5" d="M3599.7,702.5c-922.1-381.9-1766-680.3-2081.6-580.2c-81,25.7-84.5,67.8-131.2,129.5
				c-382.4,233.1-371,1065.7-990.3,1206.5c-584.5,131.7-1445-528.5-2071.8-463.2c-301.3,31.4-498,124.2-562.3,218
				c-119.9,174.7,132.8,376.2,199.7,303.4c54.1-58.9,100.2-222.3-17.1-386.9c-178.4-250.3-602-494.8-1268.3-409.9
				c-552.5,70.3-1159.1,519.8-1771.7,1034.7"/>
			<path class="st5" d="M3598,707.8C2679.3,323.9,1838.3,23.8,1517.7,120.4c-81.8,24.6-87.9,65.9-135.7,126.5
				c-390.6,231.8-362.3,1075.7-974.9,1214.6c-579,130.1-1436.3-539.4-2063.5-481.6c-299.2,27.5-493.5,126.7-558.9,224.3
				c-121.7,181.4,120.7,392.8,177.4,323.3c46.4-56.8,86.8-220.4-32.5-386.8c-181.6-253.3-602.1-504.1-1262.2-420.8
				c-551,69.6-1153.5,525.4-1759.5,1047.2"/>
			<path class="st5" d="M3596.3,713.2C2680.9,327.2,1843,25.4,1517.2,118.6c-82.5,23.6-91.3,63.9-140.1,123.4
				c-398.8,230.5-353.7,1085.7-959.5,1222.6c-573.4,128.5-1428.5-558.4-2055.2-500.1c-296.6,27.6-489,129.3-555.3,230.5
				c-123.4,188.1,108.3,409.4,155.1,343.1c38.5-54.6,73.4-218.5-47.8-386.6c-184.9-256.4-602.4-513.5-1256-431.7
				c-549.5,68.8-1148,530.9-1747.3,1059.8"/>
			<path class="st5" d="M3594.6,718.5c-912-388-1746.9-691.4-2077.9-601.8c-83.2,22.5-94.8,61.9-144.6,120.3
				c-407,229.3-345,1095.8-944.1,1230.7c-568,126.9-1420.6-577.5-2046.9-518.6c-294,27.7-484.5,131.8-551.9,236.7
				c-125.1,194.8,95.9,426.3,132.8,363c30.5-52.3,60-216.7-63.1-386.5c-188.2-259.4-602.5-523-1249.8-442.6
				c-547.9,68-1142.4,536.5-1735.1,1072.2"/>
			<path class="st5" d="M3592.9,723.8c-908.6-390-1740.6-695.1-2076.7-609c-84,21.5-89.2,69.5-149,117.3
				c-370,295.7-336.4,1105.8-928.6,1238.9c-562.5,125.2-1412.8-596.5-2038.7-537c-291.4,27.7-480,134.3-548.4,242.8
				c-126.9,201.5,83.2,443.5,110.5,382.9c22.4-49.8,46.7-214.8-78.4-386.3C-2307.8,911-2719.1,641.1-3360.1,720
				c-546.3,67.2-1136.8,542.1-1722.9,1084.7"/>
			<path class="st5" d="M3591.3,729C2686,337,1857,30.4,1515.7,112.9c-84.8,20.5-93,67.4-153.4,114.2
				C982.7,521.3,1034.5,1343,449,1474c-556.9,123.6-1405-615.6-2030.4-555.4c-288.9,27.8-475.6,136.8-544.9,249
				c-128.6,208.2,70.4,461,88.1,402.7c14.3-47,33.3-212.9-93.7-386.2c-194.7-265.4-603-541.7-1237.6-464.3
				c-544.8,66.4-1131.2,547.7-1710.6,1097.3"/>
			<path class="st5" d="M3589.6,734.3C2687.7,340.2,1861.6,32.2,1515.2,111c-85.5,19.5-96.9,65.3-157.9,111.1
				c-389.2,292.5-319.1,1125.9-897.8,1255c-551.4,122-1397.1-634.6-2022.1-573.9c-286.3,27.8-471,139.3-541.4,255.3
				c-130.4,214.9,69.1,479.8,65.8,422.6c14.8-41.6,20-211-109.1-386C-2345.2,926.6-2750.5,644-3378.7,720
				c-543.2,65.6-1125.7,553.4-1698.4,1109.7"/>
			<path class="st5" d="M3587.9,739.6C2689.3,343.5,1866.2,34,1514.7,109.1c-86.3,18.5-100.7,63.1-162.4,108.1
				c-398.8,290.7-310.5,1135.9-882.4,1263.1C-76.1,1600.7-919.3,826.6-1543.9,888c-283.8,27.9-466.6,141.8-537.9,261.5
				c-132.1,221.6,57.6,496.3,43.5,442.5c7.6-39.4,6.6-209.2-124.3-385.9C-2363.9,934.5-2766,645.5-3387.9,720
				c-541.7,64.8-1120.1,559-1686.2,1122.3"/>
			<path class="st5" d="M3586.2,744.9C2691,346.8,1870.8,35.8,1514.3,107.3c-87,17.5-104.5,61-166.8,105
				c-408.5,288.7-301.9,1146-867,1271.2C-60,1602.2-900.9,810.6-1525,872.7c-281.2,28-462.1,144.3-534.4,267.7
				c-133.8,228.3,46.2,512.9,21.2,462.3c0.5-37.2-6.8-207.3-139.7-385.8C-2382.4,942.3-2781.5,647-3397,720
				c-540.1,64-1114.6,564.6-1674,1134.8"/>
			<path class="st5" d="M3584.5,750.2C2692.7,350,1875.4,37.7,1513.8,105.4c-87.8,16.4-108.3,58.9-171.2,101.9
				c-418.2,286.7-293.2,1156-851.6,1279.3C-44,1603.7-882.6,794.6-1506.3,857.4c-278.6,28-457.6,146.8-531,273.9
				c-135.6,235,34.8,529.4-1.1,482.2c-6.8-34.9-20.1-205.4-155-385.7c-207.7-277.6-603-572-1213-507.8
				c-539.3,56.7-1109,570.2-1661.8,1147.2"/>
			<path class="st5" d="M3582.8,755.5C2694.4,353.3,1880,39.6,1513.3,103.4c-88.6,15.4-112.2,56.7-175.7,98.9
				c-428,284.5-284.6,1166-836.1,1287.4C-28,1605.2-864.3,778.6-1487.6,842.1c-276.1,28.1-453.1,149.3-527.4,280.1
				c-137.4,241.7,23.3,545.9-23.5,502.1c-13.9-32.7-33.5-203.5-170.4-385.6c-211-280.6-603.1-581.5-1206.8-518.7
				c-537.7,56-1103.5,575.8-1649.6,1159.8"/>
			<path class="st5" d="M3581.1,760.8C2696.1,356.6,1875.7,1.1,1512.8,101.6c-87.2,24.1-116,54.5-180.2,95.8
				c-437.7,282.1-275.9,1176.1-820.8,1295.5c-524,113.8-1357.9-730.3-1980.7-666.1c-273.5,28.2-448.7,151.8-524,286.3
				c-139.1,248.4,11.9,562.5-45.7,521.9c-21.1-30.4-46.8-201.7-185.7-385.4c-214.3-283.7-603.4-591.1-1200.6-529.6
				c-536.2,55.2-1097.9,581.4-1637.3,1172.3"/>
			<path class="st5" d="M3579.5,766.1C2697.7,359.9,1881.2,4.1,1512.3,99.8c-88.2,22.9-119.8,52.3-184.6,92.8
				C880.2,472,1060.4,1378.6,522.3,1496C3.9,1608.2-827.7,746.6-1450.1,811.5c-270.8,28.2-444.2,154.3-520.5,292.5
				c-140.9,255.1-5.6,588.4-68.1,541.8c-32-23.8-60.2-199.8-201-385.3c-217.5-286.7-603.7-600.6-1194.5-540.5
				c-534.6,54.5-1092.4,587-1625.1,1184.7"/>
			<path class="st5" d="M3577.8,771.4C2699.4,363.1,1886.5,7.3,1511.8,97.8c-89.2,21.6-123.7,50.1-189.1,89.7
				c-457.2,276.9-258.6,1196.1-789.9,1311.6c-512.9,110.5-1343-776.1-1964.2-703c-267.9,31.6-439.7,156.8-517,298.7
				c-142.6,261.7-15.3,604.3-90.4,561.7c-38.2-21.7-73.6-197.9-216.3-385.1c-220.8-289.7-603.9-610.2-1188.3-551.3
				c-533.1,53.7-1086.8,592.5-1612.9,1197.3"/>
			<path class="st5" d="M3576,776.7C2701.1,366.4,1891.8,10.6,1511.3,96c-90.2,20.2-127.4,47.8-193.5,86.7
				c-467,274.1-250,1206.1-774.5,1319.7C35.9,1611.2-791.8,707.1-1412.5,780.9c-265.4,31.5-435.2,159.3-513.5,304.9
				c-144.3,268.4-25.6,620.1-112.7,581.5c-44.6-19.7-87-196-231.6-385c-224.1-292.7-604.1-619.9-1182.2-562.2
				c-531.5,53-1081.3,598.2-1600.7,1209.8"/>
			<path class="st5" d="M3574.4,781.9C2702.8,369.7,1897,13.8,1510.8,94.1c-91.2,18.9-131.2,45.6-198,83.6
				C836,449,1071.5,1393.8,553.7,1505.6c-502,107.2-1327.3-814.3-1947.6-739.9c-262.8,31.5-430.7,161.8-510,311.1
				c-146.1,275.1-36.1,635.8-135.1,601.4c-51.3-17.8-100.3-194.2-247-384.8c-227.3-295.8-604.3-629.4-1176-573.1
				c-530,52.2-1075.6,603.7-1588.5,1222.3"/>
			<path class="st5" d="M3572.7,787.2c-868.2-414.3-1670.4-769.9-2062.4-695c-92.2,17.6-135,43.4-202.4,80.6
				C821.3,441,1075.2,1399,564.2,1508.7C67.8,1614.4-755.3,675.3-1375,750.4c-260.2,31.5-426.2,164.3-506.5,317.4
				c-147.8,281.7-46.9,651.5-157.3,621.2c-58-15.9-113.7-192.2-262.2-384.7c-230.6-298.8-604.6-639.1-1169.8-584
				c-528.4,51.5-1070.1,609.3-1576.3,1234.8"/>
			<path class="st5" d="M3571,792.5C2706.1,376.2,1907.3,20.7,1509.8,90.3c-93.1,16.3-138.8,41.1-206.9,77.5
				c-496.3,265-224.1,1236.2-728.3,1344C83.8,1615.8-737,659.3-1356.4,735c-257.7,31.5-421.8,166.8-503.1,323.5
				c-149.6,288.4-57.9,667.3-179.7,641.1c-64.9-14-127.1-190.4-277.6-384.6c-233.9-301.8-604.8-648.7-1163.7-594.9
				c-526.8,50.8-1064.5,614.9-1564.1,1247.3"/>
			<path class="st5" d="M3569.3,797.8c-861.5-418.4-1657-773.6-2060-709.4c-94.1,15-142.5,38.9-211.3,74.5
				C791.9,424.6,1082.6,1409.1,585.2,1515C99.7,1617.4-718.6,643.4-1337.6,719.8c-255.1,31.5-417.3,169.4-499.5,329.7
				c-151.4,295.1-69,683.2-202,661c-71.9-12-140.5-188.5-292.9-384.5c-237.2-304.9-605.6-664.2-1157.6-605.7
				c-524.7,55.6-1059,620.6-1551.9,1259.8"/>
			<path class="st5" d="M3567.7,803.1c-858.2-420.5-1647-745.2-2058.8-716.6c-95.8,6.7-146.3,36.6-215.7,71.4
				c-515.9,258.4-206.8,1256.3-697.5,1360.2c-480,100.8-1296-890.7-1914.5-813.6c-252.6,31.5-412.8,171.9-496.1,335.9
				c-153.1,301.8-80.2,699.2-224.3,680.8c-78.9-10.1-153.9-186.6-308.2-384.4c-240.4-307.8-605.8-673.7-1151.4-616.6
				c-523.2,54.8-1053.4,626.2-1539.6,1272.3"/>
			<path class="st5" d="M3565.9,808.4C2711.2,386,1925.1,60.1,1508.3,84.7c-96.6,5.7-150,34.3-220.2,68.3
				c-525.6,254.8-198.2,1266.3-682,1368.2c-474.4,99.1-1288.2-909.9-1906.2-832.1c-250,31.5-408.3,174.4-492.6,342.1
				c-154.8,308.5-91.4,715.2-246.6,700.8c-86-8-167.2-184.7-323.6-384.2c-243.7-310.9-606.1-683.2-1145.2-627.5
				c-521.6,53.9-1047.9,631.8-1527.4,1284.8"/>
			<path class="st5" d="M3564.2,813.7C2712.9,389.2,1929.5,62.2,1507.9,82.8c-97.4,4.7-153.8,31.9-224.7,65.3
				c-535.3,251.2-189.5,1276.3-666.6,1376.4c-468.9,97.4-1280.3-929-1897.9-850.6c-247.5,31.4-403.8,176.9-489.1,348.4
				c-156.6,315.1-102.8,731.3-268.9,720.6c-93.1-6-180.6-182.9-338.8-384.1c-247-313.9-606.3-692.7-1139.1-638.3
				c-520.1,53-1042.3,637.4-1515.2,1297.3"/>
			<path class="st5" d="M3562.6,819c-848-426.5-1628.7-754.6-2055.2-738.1c-98.3,3.8-157.5,29.6-229.1,62.2
				c-545,247.5-180.9,1286.4-651.2,1384.5c-463.5,95.9-1272.5-948.1-1889.6-869c-244.9,31.4-399.3,179.4-485.6,354.6
				c-158.3,321.8-114.1,747.4-291.2,740.4c-100.2-4-194-181-354.2-383.9c-250.2-316.9-606.5-702.1-1132.9-649.3
				c-518.5,52.1-1036.8,643-1503,1309.8"/>
			<path class="st5" d="M3560.9,824.3c-844.6-428.5-1622.7-757.6-2054-745.2c-99.1,2.9-161.1,27.3-233.6,59.1
				c-554.7,243.7-172.2,1296.4-635.8,1392.5c-457.9,94.2-1264.7-967.3-1881.4-887.4c-242.3,31.3-394.5,182-482.1,360.7
				c-159.6,328.7-125.5,763.6-313.6,760.3c-107.3-1.9-207.3-179.1-369.5-383.8c-253.5-320-606.7-711.6-1126.8-660.1
				c-517,51.2-1031.2,648.6-1490.8,1322.3"/>
			<path class="st5" d="M3559.2,829.5C2717.9,399.1,1942.6,68.8,1506.4,77.2c-99.9,1.9-164.8,25-238,56.1
				C704.1,373,1104.8,1439.7,648,1533.8C195.6,1626.4-608.8,547.4-1225,628c-239.7,31.3-390,184.5-478.6,366.9
				c-161.3,335.3-136.9,779.9-335.9,780.2c-114.5,0.2-221.1-176.9-384.9-383.6c-257.4-322.5-606.9-721.1-1120.6-671
				c-515.5,50.3-1025.6,654.2-1478.6,1334.8"/>
			<path class="st5" d="M3557.4,834.8C2719.6,402.3,1947,71.1,1505.9,75.2c-100.8,0.9-168.5,22.6-242.5,53
				c-573.9,235.7-154.9,1316.4-605,1408.7c-447,90.9-1249.1-1005.6-1864.8-924.4c-237.2,31.3-385.6,187-475.2,373.1
				c-163.1,342.1-148.3,796.1-358.2,800c-121.6,2.3-234.5-175-400.1-383.5c-260.6-325.6-607.1-730.6-1114.5-681.9
				c-513.9,49.4-1020.1,659.8-1466.4,1347.3"/>
			<path class="st5" d="M3555.8,840.1C2721.3,405.6,1951.3,73.3,1505.4,73.4c-101.7,0-172.2,20.3-246.9,49.9
				C675,354.9,1112.2,1449.8,668.9,1540.2C227.5,1629.5-572.3,515.3-1187.6,597.4c-234.6,31.3-381.2,189.5-471.6,379.3
				c-164.9,348.7-159.8,812.4-380.5,819.9c-128.8,4.4-247.8-173.2-415.5-383.4c-263.9-328.6-607.3-740.1-1108.3-692.7
				C-4075.9,769-4578,1385.9-5017.6,2080.4"/>
			<path class="st5" d="M3554.1,845.4c-831.2-436.6-1598.5-769.9-2049.2-774c-102.5-0.9-175.9,17.9-251.4,46.9
				c-593,227.4-137.7,1336.5-574.1,1424.9C243.5,1631-553.9,499.3-1168.8,582.1c-232.1,31.2-376.7,191.9-468.1,385.6
				c-166.7,355.3-171.2,828.7-402.8,839.8c-136,6.5-261.2-171.3-430.8-383.3c-267.1-331.6-607.5-749.6-1102.1-703.7
				c-510.8,47.6-1008.9,670.9-1441.9,1372.3"/>
			<path class="st5" d="M3552.4,850.7c-827.8-438.6-1592.5-772.9-2048-781.1c-103.4-1.8-179.5,15.6-255.8,43.8
				c-602.5,223.1-129,1346.5-558.7,1433c-430.4,86-1225.6-1063.2-1840-979.7c-229.5,31.2-372.3,194.4-464.7,391.8
				c-168.6,362-182.7,845-425.2,859.6c-143.1,8.7-274.5-169.5-446.2-383.2c-270.3-334.7-607.8-759.2-1096-714.5
				c-509.3,46.6-1003.4,676.5-1429.7,1384.8"/>
			<path class="st5" d="M3550.8,856C2726.3,415.4,1964.2,80,1503.9,67.7c-104.3-2.8-183.2,13.2-260.2,40.7
				c-612,218.8-120.4,1356.5-543.3,1441.1c-425,84.4-1217.8-1082.4-1831.7-998.1c-227,31.2-367.8,196.9-461.2,398
				c-170.3,368.6-194.1,861.3-447.5,879.5c-150.4,10.8-287.8-167.6-461.4-383c-273.5-337.8-608-768.6-1089.9-725.3
				c-507.8,45.6-997.8,682.2-1417.5,1397.3"/>
			<path class="st5" d="M3549.1,861.3C2728,418.6,1968.5,82.3,1503.4,65.9c-105.1-3.7-186.8,10.8-264.8,37.7
				C617.3,318,1126.9,1470.2,710.8,1552.7c-419.5,82.8-1210-1101.7-1823.4-1016.6c-224.4,31.1-363.3,199.4-457.7,404.2
				c-172.1,375.2-205.5,877.8-469.8,899.4c-157.5,12.9-301.2-165.8-476.7-382.9C-2793.5,1116-3125,678.6-3600.5,720.6
				c-506.2,44.6-992.3,687.8-1405.3,1409.8"/>
			<path class="st5" d="M3547.3,866.6C2729.7,421.9,1972.7,84.6,1502.9,63.9c-106-4.7-190.4,8.4-269.2,34.6
				C603,308.5,1130.7,1475.2,721.3,1555.8C307.3,1637-480.8,434.9-1093.9,520.8c-221.8,31.1-358.9,201.8-454.2,410.3
				c-173.9,381.9-217,894.1-492.1,919.2c-164.7,15.1-314.5-163.9-492.1-382.7c-280-343.9-608.4-787.8-1077.5-747.1
				c-504.7,43.7-986.7,693.4-1393.1,1422.3"/>
			<path class="st5" d="M3545.6,871.9C2731.3,425.1,1977,86.9,1502.4,62.1c-106.9-5.6-194,6-273.6,31.5
				c-640.1,205.4-94.4,1386.7-497,1465.4C323.4,1638.6-462.7,417.8-1075.1,505.6c-219.3,30.7-354.4,204.3-450.7,416.6
				c-175.8,388.5-228.5,909.9-514.4,939.1c-171.9,16.9-327.8-162.1-507.4-382.6c-283.2-346.9-608.7-798.1-1071.3-758
				c-503.3,41.8-981.2,699-1380.8,1434.9"/>
			<path class="st5" d="M3544,877.2C2733,428.4,1981.2,89.3,1502,60.2c-107.8-6.5-197.6,3.6-278.1,28.5
				c-649.4,200.7-85.8,1396.7-481.7,1473.4C339.3,1640.1-444.3,402-1056.3,490.3c-216.8,30.7-350,206.8-447.2,422.8
				c-177.6,395.1-239.9,926.5-536.8,959c-179.1,19.1-341.2-160.2-522.8-382.4c-286.3-350.1-608.8-807.5-1065.2-769
				c-501.7,41.1-975.6,704.6-1368.6,1447.3"/>
			<path class="st5" d="M3542.3,882.4C2734.7,431.7,1985.4,91.6,1501.5,58.3c-108.7-7.5-201.2,1.2-282.5,25.4
				c-658.6,196.1-77.2,1406.7-466.2,1481.5C355.4,1641.6-426,386.1-1037.5,474.9c-214.2,30.8-345.5,209.3-443.7,429
				c-179.3,401.8-251.4,943-559.1,978.9c-186.3,21.4-354.5-158.3-538-382.3c-289.6-353-609.1-816.9-1059.1-779.7
				c-500.2,40.2-970.1,710.2-1356.4,1459.8"/>
			<path class="st5" d="M3540.6,887.7C2736.4,434.9,1989.5,94.8,1501,56.4c-109.5-8.2-204.8-1.2-287,22.4
				c-667.8,191.4-68.5,1416.7-450.8,1489.6c-391.9,74.7-1171-1198.2-1782-1108.8c-211.6,30.8-341.1,211.8-440.2,435.2
				c-181.1,408.4-262.8,959.5-581.4,998.7c-193.5,23.6-367.8-156.4-553.4-382.2c-292.8-356.1-609.2-826.2-1052.9-790.7
				c-498.6,39.5-964.5,715.8-1344.1,1472.4"/>
			<path class="st5" d="M3538.9,893C2558.7,336.3,1663.2-51.3,1209.1,73.9c-677,186.6-59.9,1426.8-435.4,1497.7
				c-386.5,73-1163.1-1217.2-1773.8-1127.2c-591.1,87.1-530.8,1394.3-1040.4,1460c-517.5,66.8-901.2-1239.1-1615.4-1183.6
				c-497.1,38.6-958.9,721.4-1331.9,1484.8"/>
			<path class="st6" d="M-4985.2,2196.7c377.9-752.9,843.2-1427.1,1340-1466.4c713.9-56.6,1089.6,1228.9,1605.9,1162.1
				c508.7-65.8,455.1-1352.1,1046.3-1439.3c610.5-90,1380.4,1179.5,1767.9,1106.5C1151.5,1488.7,542.5,269,1219.8,83.4
				C1674.3-41.1,2566.3,338,3541.6,884.1"/>
			<path class="st6" d="M-4982.6,2187.7c382.7-742.4,851.6-1408,1347.9-1448c713.6-57.6,1081.3,1207.5,1596.5,1140.7
				c507.8-65.9,460.8-1331.4,1052.1-1418.6c610.3-89.9,1373.6,1158.7,1762.1,1085.8c377.8-70.9-223.3-1270.2,454.3-1454.8
				C1685.3-31,2573.8,339.5,3544.2,875.1"/>
			<path class="st7" d="M-4979.9,2178.7C-4592.3,1446.9-4120,789.9-3624,749.2c713.3-58.7,1073,1186,1587,1119.2
				c506.7-66,466.6-1310.7,1058-1397.9c610.2-89.9,1366.8,1138,1756.2,1065.2c378.9-70.8-214.1-1249.8,463.7-1433.4
				c455.2-123.2,1340.3,238.8,2305.9,763.8"/>
			<path class="st8" d="M-4977.2,2169.7C-4584.8,1448.5-4109,800-3613.3,758.6c713.1-59.7,1064.7,1164.7,1577.6,1097.8
				c505.8-66,472.2-1290,1063.9-1377.2c610-89.9,1359.9,1117.2,1750.3,1044.5c380.1-70.8-205.1-1229.4,473.2-1411.9
				c455.5-122.5,1337.1,231,2297.9,745.4"/>
			<path class="st9" d="M-4974.6,2160.8c397.3-710.7,876.5-1350.6,1371.9-1392.7c712.8-60.8,1056.4,1143.3,1568.2,1076.3
				c504.8-66,478-1269.3,1069.8-1356.5C-354.8,398,388.3,1584.4,779.7,1511.7c381.2-70.7-195.9-1209,482.6-1390.4
				c455.8-121.8,1334,223.1,2289.9,727"/>
			<path class="st9" d="M-4971.9,2151.9c402.2-700.1,884.9-1331.4,1379.9-1374.3c712.4-61.9,1048.1,1121.8,1558.8,1054.9
				c503.8-66.1,483.6-1248.6,1075.6-1335.8C-347.9,406.8,388.6,1572.4,781,1499.7c382.4-70.7-186.8-1188.6,492.1-1369
				C1729.2,9.7,2603.9,346,3554.9,839.3"/>
			<path class="st10" d="M-4969.3,2142.9c407-689.5,893.2-1312.3,1387.8-1355.8c712.2-62.9,1039.8,1100.4,1549.3,1033.5
				c502.8-66.2,489.3-1227.9,1081.5-1315.1C-341,415.6,388.8,1560.4,782.1,1487.8c383.4-70.7-177.6-1168.2,501.5-1347.6
				c456.6-120.4,1327.8,207.4,2274,690.1"/>
			<path class="st11" d="M-4966.6,2134c411.9-679,901.5-1293.2,1395.8-1337.4c711.9-64,1031.6,1079,1539.9,1011.9
				c501.8-66.2,495.1-1207.1,1087.3-1294.4C-334.1,424.2,389,1548.3,783.3,1475.7c384.5-70.7-168.5-1147.8,510.9-1326.1
				c456.9-119.7,1324.6,199.5,2266,671.7"/>
			<path class="st12" d="M-4964,2125c416.8-668.4,909.8-1274,1403.8-1319c711.6-65,1023.2,1057.6,1530.5,990.5
				c500.8-66.3,500.7-1186.4,1093.2-1273.7c609.3-89.8,1325.7,1013.5,1721,940.9c385.7-70.7-159.3-1127.4,520.4-1304.6
				c457.2-119,1321.5,191.6,2258,653.2"/>
			<path class="st13" d="M-4961.2,2116.1c421.6-657.9,918.2-1254.9,1411.8-1300.5c711.3-66,1014.9,1036.2,1521,969.1
				c499.9-66.4,506.5-1165.7,1099.1-1253.1c609.1-89.8,1318.8,992.7,1715.1,920.2c386.8-70.6-150.2-1107,529.8-1283.2
				c457.6-118.3,1318.4,183.7,2250,634.8"/>
			<path class="st14" d="M-4958.6,2107.1C-4532.1,1459.7-4032,871.2-3538.8,825c711-67.1,1006.6,1014.8,1511.6,947.6
				c498.8-66.4,512.2-1144.9,1104.9-1232.4c609-89.7,1312,972,1709.3,899.6c388-70.5-141-1086.6,539.3-1261.7
				c457.8-117.6,1315.2,175.9,2242,616.4"/>
			<path class="st15" d="M-4955.9,2098.1c431.3-636.8,934.8-1216.7,1427.7-1263.7c710.7-68.2,998.3,993.3,1502.1,926.1
				c497.9-66.4,517.9-1124.2,1110.8-1211.6c608.8-89.7,1305.1,951.2,1703.4,878.8c389.1-70.5-131.9-1066.2,548.7-1240.3
				c458.3-116.9,1312.1,168,2234.1,598"/>
			<path class="st15" d="M-4953.3,2089.1c436.2-626.2,943.2-1197.6,1435.7-1245.2c710.4-69.2,990,972,1492.7,904.8
				c496.8-66.5,523.6-1103.5,1116.7-1190.9c608.6-89.7,1298.2,930.4,1697.5,858.2c390.3-70.6-122.7-1045.8,558.2-1218.9
				c458.6-116.2,1309,160.1,2226.1,579.5"/>
			<path class="st16" d="M-4950.6,2080.2c441-615.6,951.5-1178.5,1443.7-1226.8c710.1-70.2,981.7,950.5,1483.3,883.3
				c495.9-66.6,529.3-1082.8,1122.6-1170.2c608.5-89.7,1291.3,909.7,1691.7,837.5C1182,1333.5,677,378.5,1358.2,206.6
				c458.9-115.5,1305.9,152.3,2218,561.1"/>
			<path class="st17" d="M-4948,2071.2c445.9-605.1,959.8-1159.4,1451.7-1208.4c709.8-71.3,973.4,929.1,1473.8,861.8
				c495-66.6,535-1062,1128.4-1149.5c608.3-89.7,1284.5,888.9,1685.8,816.8c392.5-70.4-104.4-1005,577-1175.9
				c459.3-114.8,1302.8,144.4,2210.1,542.7"/>
			<path class="st18" d="M-4945.3,2062.3c450.8-594.5,968.1-1140.2,1459.7-1189.9c709.5-72.3,965.1,907.7,1464.4,840.4
				c493.9-66.7,540.8-1041.3,1134.3-1128.8C-278.7,494.3,390.8,1452.1,793,1380c393.6-70.4-95.3-984.6,586.5-1154.5
				c459.6-114.2,1299.5,136.5,2202,524.1"/>
			<path class="st18" d="M-4942.6,2053.3C-4487,1469.4-3966.2,932.2-3475,881.8c709.2-73.4,956.8,886.3,1454.9,818.9
				c493-66.8,546.4-1020.6,1140.2-1108.1C-271.9,503,390.9,1440,794.2,1368c394.8-70.4-86.2-964.2,595.9-1133
				c460-113.5,1296.5,128.6,2194.1,505.8"/>
			<path class="st19" d="M-4940,2044.4c460.5-573.3,984.8-1102,1475.7-1153.1c708.9-74.4,948.5,864.9,1445.5,797.5
				c491.9-66.8,552.2-999.9,1146-1087.4c607.8-89.6,1264,826.6,1668.2,754.6c395.9-70.3-77.1-943.8,605.3-1111.6
				C1861,131.6,2694.1,365.2,3586.8,731.8"/>
			<path class="st20" d="M-4937.3,2035.4c465.3-562.8,993.1-1082.8,1483.6-1134.7c708.6-75.5,940.1,843.4,1436.1,776.1
				c491-66.8,557.8-979.2,1151.9-1066.7c607.7-89.6,1257.1,805.9,1662.3,734c397.1-70.3-67.9-923.4,614.8-1090.2
				c460.6-112.1,1290.3,113,2178.2,468.9"/>
			<path class="st21" d="M-4934.6,2026.4C-4464.4,1474.2-3933.1,962.7-3443,910.3c708.3-76.5,931.8,822,1426.6,754.6
				c490-66.9,563.6-958.5,1157.8-1046c607.5-89.6,1250.3,785.2,1656.5,713.3c398.2-70.3-58.8-903,624.2-1068.7
				c461-111.4,1287.1,105,2170.2,450.5"/>
			<path class="st22" d="M-4931.9,2017.5c475.1-541.7,1009.8-1044.6,1499.6-1097.8c708-77.6,923.5,800.6,1417.2,733.1
				c489-67,569.3-937.7,1163.6-1025.4c607.4-89.5,1243.4,764.4,1650.6,692.6c399.4-70.2-49.6-882.6,633.7-1047.2
				c461.4-110.7,1284,97.2,2162.2,432.1"/>
			<path class="st23" d="M-4929.3,2008.5c479.9-531.1,1018.1-1025.4,1507.6-1079.4c707.7-78.7,915.2,779.2,1407.7,711.7
				c488-67,575-917,1169.5-1004.7c607.2-89.5,1236.6,743.6,1644.7,671.9c400.5-70.2-40.5-862.2,643.1-1025.8
				c461.7-110,1280.9,89.3,2154.2,413.6"/>
			<path class="st24" d="M-4926.6,1999.6c484.7-520.6,1026.4-1006.3,1515.6-1060.9c707.4-79.7,907,757.7,1398.3,690.2
				c487-67.1,580.7-896.3,1175.4-984c607-89.5,1229.7,722.8,1638.9,651.2c401.6-70.2-31.3-841.8,652.5-1004.3
				c462-109.3,1277.8,81.4,2146.2,395.2"/>
			<path class="st25" d="M-4924,1990.6c489.6-510,1034.8-987.2,1523.5-1042.5c707.1-80.7,898.7,736.4,1388.9,668.8
				c486-67.2,586.4-875.6,1181.2-963.3c606.9-89.4,1222.9,702.1,1633,630.5c402.7-70.2-22.2-821.4,662-982.9
				C1927,192.6,2739.2,374.7,3602.9,678"/>
			<path class="st26" d="M-4921.3,1981.7c494.5-499.4,1043-968,1531.5-1024.1c706.8-81.8,890.4,714.9,1379.4,647.3
				c485.1-67.2,592.1-854.9,1187.1-942.5c606.7-89.5,1216,681.3,1627.1,609.8c403.9-70.1-13-801,671.4-961.5
				c462.7-107.9,1271.5,65.7,2130.3,358.4"/>
			<path class="st27" d="M-4918.7,1972.7c499.3-488.8,1051.4-948.9,1539.5-1005.6c706.5-82.8,882,693.5,1370,625.9
				c484.1-67.2,597.9-834.2,1193-921.8C-209.6,581.8,393,1331.7,805,1260.2c405-70-3.9-780.6,680.9-940
				C1949,213,2754.3,378.1,3608.2,660.1"/>
			<path class="st28" d="M-4916,1963.8c504.2-478.4,1059.7-929.8,1547.5-987.2c706.2-83.9,873.7,672.1,1360.5,604.4
				c483.1-67.3,603.5-813.4,1198.8-901.1c606.5-89.4,1202.3,639.8,1615.4,568.4c406.2-70,5.3-760.1,690.3-918.5
				c463.4-106.5,1265.2,49.9,2114.3,321.5"/>
			<path class="st29" d="M-4913.3,1954.8c509-467.8,1068.1-910.8,1555.4-968.8c705.9-84.9,865.4,650.7,1351.1,583
				c482.1-67.4,609.3-792.7,1204.7-880.4c606.2-89.3,1195.5,619.1,1609.5,547.7c407.3-70,14.4-739.8,699.7-897.1
				c463.7-105.8,1262.1,42.1,2106.3,303.1"/>
			<path class="st30" d="M-4910.6,1945.8c513.9-457.2,1076.4-891.6,1563.5-950.3c705.6-86,857.1,629.3,1341.7,561.5
				c481.1-67.4,615-772,1210.6-859.7c606.1-89.3,1188.6,598.3,1603.7,527c408.5-70,23.6-719.4,709.2-875.6
				c464-105.2,1258.9,34.1,2098.2,284.5"/>
			<path class="st31" d="M-4908,1936.8c518.8-446.7,1084.7-872.5,1571.5-931.9c705.3-87,848.8,607.8,1332.2,540.1
				c480.2-67.5,620.7-751.2,1216.4-839.1c605.9-89.3,1181.7,577.6,1597.8,506.3c409.6-70,32.6-698.9,718.6-854.2
				c464.4-104.4,1255.9,26.4,2090.3,266.2"/>
			<path class="st32" d="M-4905.3,1927.9c523.6-436.1,1093.1-853.4,1579.4-913.5c705-88.1,840.5,586.4,1322.8,518.6
				c479.1-67.6,626.4-730.5,1222.3-818.4c605.8-89.3,1174.9,556.8,1591.9,485.6c410.7-69.9,41.8-678.5,728.1-832.8
				C2004,263.8,2792,386,3621.6,615.4"/>
			<path class="st33" d="M-4902.7,1918.9c528.5-425.5,1101.3-834.2,1587.4-895.1c704.7-89.1,832.2,565,1313.3,497.2
				c478.2-67.6,632.1-709.8,1228.2-797.7c605.7-89.3,1168,536,1586.1,464.9c411.8-69.9,50.9-658.2,737.5-811.3
				c465.2-103.1,1249.6,10.6,2074.4,229.3"/>
			<path class="st34" d="M-4900,1910c533.3-414.9,1109.7-815.1,1595.4-876.6c704.4-90.1,823.9,543.6,1303.9,475.7
				c477.1-67.7,637.8-689.1,1234-777c605.5-89.3,1161.2,515.3,1580.2,444.2c413-69.8,60.1-637.8,746.9-789.8
				c465.4-102.4,1246.5,2.8,2066.4,210.9"/>
			<path class="st35" d="M-4897.4,1901c538.2-404.4,1118-796,1603.4-858.2c704.1-91.2,815.6,522.2,1294.5,454.2
				c476.2-67.8,643.5-668.3,1239.9-756.3c605.3-89.2,1154.3,494.5,1574.3,423.5C1228.8,1094.5,884,547,1571.1,396
				c465.8-101.7,1243.4-5.1,2058.4,192.5"/>
			<path class="st36" d="M-4894.7,1892.1c543.1-393.9,1126.4-776.8,1611.4-839.8c703.8-92.3,807.3,500.8,1285,432.9
				c475.2-67.8,649.2-647.6,1245.8-735.6c605.2-89.2,1147.5,473.8,1568.5,402.8c415.3-69.8,78.4-596.9,765.8-747
				c466.1-101,1240.2-13,2050.4,174"/>
			<path class="st37" d="M-4892,1883.2c547.9-383.3,1134.7-757.7,1619.3-821.3c703.5-93.3,799,479.3,1275.6,411.4
				c474.2-67.8,654.9-626.9,1251.6-714.9c605-89.2,1140.6,453.1,1562.6,382.1c416.4-69.7,87.5-576.5,775.3-725.5
				c466.5-100.3,1237.1-20.9,2042.4,155.6"/>
			<path class="st38" d="M-4889.3,1874.2c552.8-372.7,1143-738.6,1627.3-802.9c703.2-94.4,790.7,458,1266.1,389.9
				c473.2-67.9,660.7-606.2,1257.5-694.2c604.9-89.1,1133.8,432.3,1556.7,361.4c417.6-69.7,96.7-556.2,784.7-704
				c466.9-99.6,1234-28.7,2034.5,137.2"/>
			<path class="st39" d="M-4886.6,1865.2c557.6-362.2,1151.3-719.4,1635.3-784.5c702.9-95.5,782.4,436.5,1256.7,368.5
				c472.2-68,666.3-585.5,1263.4-673.4c604.7-89.1,1126.9,411.5,1550.9,340.7c418.7-69.7,105.8-535.8,794.1-682.6
				c467.1-98.9,1230.9-36.7,2026.5,118.8"/>
			<path class="st40" d="M-4884,1856.2c562.4-351.6,1159.6-700.3,1643.3-766c702.6-96.4,774.1,415.1,1247.3,347
				c471.3-68,672.1-564.8,1269.3-652.8c604.5-89.2,1120,390.7,1545,320c419.8-69.7,115-515.4,803.6-661.1
				c467.5-98.2,1227.7-44.5,2018.5,100.3"/>
			<path class="st41" d="M-4881.3,1847.3c567.3-341,1168-681.2,1651.2-747.6c702.3-97.5,765.8,393.7,1237.8,325.5
				c470.3-68.1,677.8-544.1,1275.1-632.1c604.4-89.1,1113.2,370,1539.1,299.3c420.9-69.6,124.1-495,813-639.6
				c467.9-97.5,1224.6-52.3,2010.5,81.9"/>
			<path class="st42" d="M-4878.7,1838.3c572.2-330.4,1176.3-662.1,1659.2-729.2c702-98.6,757.5,372.3,1228.4,304.1
				c469.3-68.1,683.5-523.3,1281-611.4c604.2-89,1106.4,349.3,1533.3,278.6c422.1-69.6,133.3-474.6,822.5-618.3
				c468.2-96.8,1221.5-60.2,2002.6,63.5"/>
			<path class="st43" d="M-4876,1829.4c577-319.9,1184.6-642.9,1667.2-710.7c701.7-99.6,749.1,350.8,1218.9,282.7
				c468.3-68.2,689.2-502.6,1286.9-590.7c604.1-89,1099.5,328.5,1527.4,257.9c423.2-69.5,142.4-454.2,831.9-596.8
				c468.6-96.1,1218.4-68.1,1994.5,45"/>
			<path class="st44" d="M-4873.4,1820.4c581.9-309.4,1192.9-623.8,1675.3-692.3c701.4-100.6,740.8,329.4,1209.5,261.2
				c467.3-68.3,694.9-481.9,1292.7-570c603.9-89,1092.7,307.7,1521.5,237.2c424.4-69.5,151.5-433.7,841.3-575.3
				c468.9-95.4,1215.2-76,1986.5,26.6"/>
			<path class="st45" d="M-4870.7,1811.5c586.8-298.8,1201.3-604.7,1683.2-673.9c701.1-101.7,732.5,308,1200.1,239.8
				c466.3-68.3,700.6-461.2,1298.6-549.3c603.8-89,1085.8,287,1515.7,216.5c425.5-69.5,160.6-413.3,850.8-553.9
				c469.2-94.7,1212.1-83.8,1978.6,8.2"/>
			<path class="st46" d="M-4868,1802.5c591.6-288.2,1209.6-585.6,1691.2-655.4c700.9-102.8,724.2,286.6,1190.6,218.3
				c465.4-68.4,706.3-440.4,1304.4-528.6C-78.1,747.8,397.2,1103,828,1032.7c426.6-69.5,169.8-392.9,860.2-532.4
				c469.6-94.1,1209-91.7,1970.6-10.3"/>
			<path class="st47" d="M-4865.3,1793.6c596.5-277.7,1217.9-566.5,1699.2-637c700.5-103.8,716,265.2,1181.2,196.9
				c464.3-68.4,712-419.7,1310.3-507.9c603.4-89,1072.1,245.5,1503.9,175.2c427.7-69.4,178.9-372.5,869.7-511
				c469.9-93.4,1205.9-99.6,1962.6-28.7"/>
			<path class="st48" d="M-4862.7,1784.6c601.3-267.1,1226.2-547.4,1707.2-618.6c700.3-104.9,707.7,243.7,1171.7,175.4
				c463.4-68.5,717.8-399,1316.2-487.2c603.3-88.9,1065.2,224.7,1498.1,154.5c428.9-69.3,188.1-352.2,879.1-489.6
				c470.3-92.7,1202.7-107.4,1954.6-47.1"/>
			<path class="st49" d="M-4860,1775.6c606.1-256.5,1234.6-528.3,1715.1-600.2c699.9-105.9,699.4,222.4,1162.3,154
				c462.3-68.5,723.4-378.2,1322-466.5c603.1-88.9,1058.4,204,1492.2,133.7c430-69.3,197.2-331.8,888.5-468.1
				c470.6-92,1199.6-115.3,1946.6-65.6"/>
			<path class="st50" d="M-4857.4,1766.6c611.1-246,1242.9-509.1,1723.1-581.7c699.7-106.9,691,200.9,1152.9,132.5
				c461.4-68.6,729.2-357.5,1327.9-445.8c603-88.9,1051.5,183.2,1486.3,113c431.2-69.3,206.4-311.3,898-446.6
				c470.9-91.3,1196.5-123.2,1938.7-84"/>
			<path class="st51" d="M-4854.7,1757.7c615.9-235.4,1251.2-490,1731.1-563.2c699.3-108,682.7,179.5,1143.4,111.1
				c460.4-68.7,734.9-336.8,1333.8-425.1C-43.7,791.6,398.2,1042.8,834,972.7c432.3-69.3,215.5-291,907.4-425.2
				c471.3-90.6,1193.4-131.1,1930.7-102.4"/>
			<path class="st52" d="M-4852,1748.7c620.7-224.9,1259.6-470.8,1739.1-544.8c699.1-109.1,674.4,158.1,1134,89.6
				c459.4-68.7,740.6-316,1339.7-404.3c602.6-88.8,1037.8,141.7,1474.6,71.6c433.5-69.3,224.7-270.6,916.9-403.7
				c471.7-89.9,1190.2-138.9,1922.7-120.9"/>
			<path class="st53" d="M-4849.4,1739.8c625.6-214.3,1267.9-451.7,1747.1-526.4c698.7-110.1,666.1,136.7,1124.5,68.2
				c458.4-68.8,746.3-295.4,1345.5-383.7c602.5-88.8,1031,121,1468.7,50.9c434.6-69.2,233.8-250.2,926.3-382.3
				c472-89.2,1187.1-146.8,1914.7-139.3"/>
			<path class="st54" d="M-4846.7,1730.9c630.5-203.8,1276.2-432.6,1755-507.9c698.5-111.2,657.8,115.2,1115.1,46.7
				c457.4-68.8,752-274.7,1351.4-363c602.4-88.8,1024.1,100.2,1462.9,30.2c435.7-69.2,243-229.8,935.7-360.8
				c472.3-88.5,1184-154.7,1906.8-157.7"/>
			<path class="st55" d="M-4844,1721.9c635.3-193.2,1284.5-413.5,1763-489.5c698.1-112.2,649.5,93.9,1105.7,25.3
				c456.5-68.9,757.7-253.9,1357.3-342.3c602.2-88.7,1017.3,79.4,1457,9.6c436.8-69.1,252.1-209.4,945.2-339.4
				c472.7-87.8,1180.9-162.6,1898.8-176.2"/>
			<path class="st56" d="M-4841.4,1712.9c640.2-182.6,1292.9-394.3,1771-471.1c697.9-113.2,641.2,72.4,1096.2,3.8
				c455.5-68.9,763.5-233.2,1363.1-321.6C-8.9,835.4,399.4,982.7,840.1,913c437.9-69.1,261.3-189,954.6-317.9
				c473-87.1,1177.7-170.4,1890.7-194.6"/>
			<path class="st57" d="M-4838.7,1704c645.1-172,1301.2-375.2,1779-452.6c697.5-114.3,632.9,51,1086.8-17.7
				c454.5-69,769.1-212.5,1369-300.9C-2.1,844,399.6,970.7,841.3,900.9c439.1-69.1,270.3-168.5,964.1-296.5
				c473.3-86.4,1174.6-178.3,1882.8-213"/>
			<path class="st58" d="M-4836,1695c649.9-161.5,1309.5-356.1,1787-434.2c697.3-115.4,624.6,29.6,1077.3-39
				c453.5-69.1,774.9-191.8,1374.9-280.2C4.9,852.8,399.9,958.7,842.5,889c440.2-69,279.5-148.1,973.5-275.1
				c473.7-85.7,1171.5-186.2,1874.8-231.4"/>
			<path class="st59" d="M-4833.4,1686c654.8-150.9,1317.9-337,1795-415.8c696.9-116.4,616.3,8.2,1067.9-60.5
				c452.5-69.1,780.5-171.1,1380.7-259.5c601.6-88.7,989.9-3.6,1433.5-73.2c441.4-69,288.6-127.7,982.9-253.6
				c474-85,1168.4-194,1866.8-249.9"/>
			<path class="st60" d="M-4830.7,1677.1c659.6-140.3,1326.2-317.8,1803-397.3c696.7-117.4,608-13.2,1058.5-82
				c451.5-69.2,786.3-150.4,1386.6-238.8C18.7,870.3,400.3,934.6,845,865c442.5-69,297.8-107.3,992.4-232.1
				c474.4-84.4,1165.2-201.9,1858.8-268.3"/>
			<path class="st61" d="M-4828.1,1668.1c664.4-129.8,1334.5-298.7,1810.9-378.9c696.3-118.5,599.7-34.7,1049-103.4
				c450.6-69.3,792-129.6,1392.4-218.1C25.6,879,400.5,922.5,846.1,853c443.7-68.9,306.9-86.9,1001.8-210.7
				c474.8-83.7,1162.2-209.8,1850.8-286.8"/>
			<path class="st62" d="M-4825.4,1659.2c669.4-119.3,1342.8-279.6,1818.9-360.5c696.1-119.5,591.4-56.1,1039.6-124.9
				c449.6-69.3,797.7-108.9,1398.3-197.4C32.5,887.7,400.6,910.4,847.2,841c444.8-68.9,316.1-66.5,1011.3-189.2
				c475.1-83,1159-217.7,1842.9-305.2"/>
			<path class="st63" d="M-4822.8,1650.2c674.2-108.7,1351.2-260.5,1826.9-342c695.7-120.6,583.1-77.5,1030.1-146.4
				c448.6-69.3,803.4-88.2,1404.2-176.8c600.9-88.6,962.4-86.6,1410-156.1c445.9-68.9,325.2-46.2,1020.7-167.7
				C2344.6,578.9,3025,435.7,3704,337.6"/>
			<path class="st64" d="M-4820,1641.3c679-98.1,1359.4-241.4,1834.9-323.6c695.5-121.7,574.8-98.9,1020.7-167.8
				c447.6-69.4,809.1-67.4,1410.1-156.1C46.4,905.3,401.2,886.4,849.8,817.1c447-68.8,334.4-25.8,1030.1-146.4
				c475.7-81.6,1152.7-233.4,1826.9-342.1"/>
			<path class="st65" d="M-4817.4,1632.3c683.9-87.6,1367.8-222.3,1842.9-305.2c695.1-122.7,566.4-120.4,1011.3-189.2
				c446.6-69.5,814.8-46.8,1415.9-135.4C53.3,914,401.4,874.3,850.9,805c448.2-68.8,343.5-5.4,1039.6-124.9
				c476.1-80.9,1149.6-241.3,1818.9-360.5"/>
			<path class="st66" d="M-4814.7,1623.3c688.8-77,1376.2-203.1,1850.9-286.8c694.9-123.7,558.1-141.7,1001.8-210.7
				c445.6-69.5,820.5-26,1421.8-114.6C60.2,922.8,401.6,862.5,852.1,793.2c449.3-68.8,352.7,15,1049-103.4
				c476.5-80.2,1146.5-249.1,1811-378.9"/>
			<path class="st67" d="M-4812.1,1614.4c693.6-66.4,1384.4-184,1858.8-268.3c694.6-124.8,549.8-163.2,992.4-232.1
				c444.6-69.6,826.2-5.3,1427.7-93.9c600.3-88.5,935-169.7,1386.6-238.8c450.5-68.8,361.8,35.4,1058.5-82
				c476.8-79.5,1143.4-257,1803-397.4"/>
			<path class="st68" d="M-4809.4,1605.4c698.4-55.8,1392.8-164.9,1866.8-249.9c694.3-125.8,541.5-184.5,982.9-253.6
				c443.6-69.7,831.9,15.5,1433.5-73.2C74,940.2,402,838.3,854.6,769.2c451.6-68.7,371,55.8,1067.9-60.5
				c477.1-78.8,1140.2-264.9,1795-415.8"/>
			<path class="st69" d="M-4806.8,1596.5c703.3-45.3,1401.1-145.7,1874.8-231.4c694-126.9,533.2-206,973.5-275.1
				c442.6-69.7,837.7,36.2,1439.4-52.5C80.9,949,402.2,826.3,855.7,757.3c452.8-68.6,380.1,76.2,1077.3-39
				c477.4-78.1,1137.1-272.8,1787-434.2"/>
			<path class="st70" d="M-4804.1,1587.5c708.2-34.8,1409.5-126.6,1882.7-213c693.7-127.9,525-227.4,964.1-296.5
				c441.7-69.8,843.3,56.9,1445.3-31.8C87.8,957.8,402.5,814.3,857,745.3c453.9-68.6,389.2,96.7,1086.8-17.7
				c477.8-77.4,1134-280.6,1779-452.7"/>
			<path class="st71" d="M-4801.4,1578.6c713-24.2,1417.7-107.5,1890.7-194.6c693.4-129,516.7-248.8,954.6-317.9
				c440.7-69.9,849.1,77.6,1451.1-11.1C94.7,966.5,402.6,802.2,858.1,733.3c455-68.6,398.3,117.1,1096.2,3.8
				c478.2-76.7,1130.9-288.5,1771-471.1"/>
			<path class="st72" d="M-4798.8,1569.6c717.9-13.6,1426.1-88.3,1898.8-176.2c693.1-130,508.4-270.2,945.2-339.4
				c439.7-69.9,854.8,98.3,1457,9.5c599.5-88.4,900.8-273.4,1357.3-342.3c456.1-68.6,407.5,137.5,1105.7,25.3
				c478.5-76,1127.7-296.4,1763-489.5"/>
			<path class="st73" d="M-4796,1560.7c722.7-3.1,1434.4-69.2,1906.8-157.7c692.8-131.1,500-291.7,935.7-360.8
				c438.7-69.9,860.5,119,1462.9,30.2c599.4-88.4,893.9-294.2,1351.4-363c457.3-68.6,416.6,157.9,1115.1,46.7
				c478.8-75.4,1124.6-304.2,1755-508"/>
			<path class="st74" d="M-4793.4,1551.7c727.6,7.5,1442.7-50.1,1914.7-139.3c692.5-132.2,491.7-313.1,926.3-382.3
				c437.7-70,866.2,139.7,1468.7,50.9C115.5,992.6,403.4,766,861.8,697.3c458.4-68.5,425.8,178.3,1124.5,68.2
				c479.2-74.7,1121.5-312.1,1747.1-526.4"/>
			<path class="st75" d="M-4790.7,1542.8c732.5,18.1,1451.1-30.9,1922.7-120.9c692.2-133.1,483.4-334.5,916.9-403.7
				c436.7-70.1,871.9,160.5,1474.6,71.6c599-88.3,880.2-335.7,1339.7-404.4c459.6-68.5,434.9,198.7,1134,89.6
				c479.5-74,1118.3-320,1739.1-544.8"/>
			<path class="st76" d="M-4788.1,1533.8c737.3,28.7,1459.4-11.8,1930.7-102.4c691.9-134.2,475.1-355.9,907.4-425.2
				c435.8-70.1,877.6,181.2,1480.4,92.3C129.4,1010.2,403.9,742,864.2,673.3c460.7-68.4,444.1,219,1143.4,111.1
				c479.9-73.3,1115.2-327.9,1731.1-563.3"/>
			<path class="st77" d="M-4785.4,1524.8c742.2,39.1,1467.8,7.2,1938.7-84c691.6-135.3,466.8-377.3,898-446.6
				c434.8-70.1,883.3,201.9,1486.3,113C136.3,1019,404,730,865.4,661.4c461.8-68.4,453.2,239.4,1152.9,132.5
				c480.3-72.6,1112.1-335.7,1723.1-581.7"/>
			<path class="st78" d="M-4782.8,1515.8c747.1,49.7,1476,26.4,1946.6-65.6c691.3-136.3,458.5-398.8,888.5-468.1
				c433.8-70.3,889,222.6,1492.2,133.7c598.6-88.2,859.6-398,1322-466.5c463-68.4,462.4,259.8,1162.3,154
				c480.5-71.9,1109-343.5,1715.1-600.1"/>
			<path class="st79" d="M-4780.1,1506.9c751.9,60.3,1484.4,45.5,1954.6-47.1c691-137.4,450.2-420.1,879.1-489.6
				c432.8-70.3,894.8,243.3,1498.1,154.5C150.1,1036.5,404.4,706,867.8,637.5c464.1-68.3,471.5,280.2,1171.7,175.4
				c480.9-71.2,1105.8-351.5,1707.2-618.6"/>
			<path class="st80" d="M-4777.5,1497.9c756.7,70.9,1492.7,64.6,1962.6-28.7c690.7-138.4,441.9-441.6,869.7-511
				c431.8-70.3,900.4,264.1,1503.9,175.2C156.9,1045.2,404.6,693.9,869,625.4c465.2-68.3,480.7,300.6,1181.2,196.9
				c481.2-70.5,1102.7-359.3,1699.2-637"/>
			<path class="st81" d="M-4774.7,1489c761.6,81.4,1501,83.7,1970.6-10.3c690.4-139.5,433.6-463,860.2-532.4
				c430.8-70.4,906.2,284.8,1509.8,195.8C163.9,1054,404.9,681.9,870.3,613.5c466.4-68.3,489.8,321,1190.6,218.3
				c481.6-69.8,1099.6-367.2,1691.2-655.4"/>
			<path class="st82" d="M-4772.1,1480c766.5,92,1509.3,102.9,1978.6,8.2c690.1-140.5,425.3-484.4,850.8-553.9
				c429.8-70.5,911.9,305.5,1515.7,216.5c597.9-88.1,832.2-481,1298.6-549.3c467.5-68.2,499,341.4,1200.1,239.8
				c481.9-69.1,1096.5-375.1,1683.2-673.9"/>
			<path class="st83" d="M-4769.4,1471.1c771.3,102.6,1517.7,122,1986.5,26.6c689.8-141.6,417-505.8,841.3-575.3
				c428.9-70.5,917.6,326.3,1521.5,237.2c597.8-88.1,825.4-501.8,1292.7-570c468.7-68.2,508,361.9,1209.5,261.2
				c482.2-68.4,1093.3-383,1675.3-692.3"/>
			<path class="st84" d="M-4766.8,1462.1c776.2,113.1,1526,141.1,1994.5,45c689.5-142.6,408.7-527.2,831.9-596.8
				c427.8-70.5,923.3,347,1527.4,257.9c597.7-88.1,818.5-522.5,1286.8-590.7c469.8-68.2,517.2,382.3,1218.9,282.7
				C2575.4,792.5,3183,469.5,3760,149.6"/>
			<path class="st85" d="M-4764.1,1453.1c781,123.6,1534.3,160.3,2002.6,63.5c689.2-143.6,400.4-548.7,822.5-618.3
				c426.8-70.6,929,367.7,1533.2,278.6c597.5-88.1,811.7-543.2,1281-611.4c470.9-68.1,526.3,402.7,1228.4,304.2
				c483-67,1087.1-398.6,1659.2-729.2"/>
			<path class="st86" d="M-4761.5,1444.2c785.9,134.2,1542.7,179.4,2010.5,81.9c688.9-144.7,392.1-570.1,813-639.6
				c425.8-70.8,934.7,388.3,1539.1,299.2c597.3-88.1,804.8-564,1275.1-632.1c472.1-68.1,535.5,423.1,1237.8,325.5
				c483.3-66.3,1084-406.6,1651.2-747.6"/>
			<path class="st87" d="M-4758.8,1435.2c790.8,144.8,1551,198.5,2018.5,100.3c688.6-145.8,383.8-591.5,803.6-661.1
				c424.9-70.7,940.4,409.1,1545,320c597.2-88,798-584.8,1269.2-652.8c473.2-68.1,544.6,443.5,1247.3,347
				c483.6-65.7,1080.8-414.4,1643.3-766"/>
			<path class="st88" d="M-4756.1,1426.3c795.6,155.3,1559.3,217.7,2026.5,118.8c688.3-146.8,375.4-612.9,794.1-682.6
				c423.9-70.8,946.1,429.9,1550.9,340.7c597-88,791.1-605.5,1263.4-673.4c474.3-68,553.8,463.9,1256.7,368.5
				c484-65,1077.7-422.3,1635.3-784.5"/>
			<path class="st89" d="M-4753.5,1417.3c800.5,165.9,1567.6,236.8,2034.5,137.2c688-147.9,367.1-634.4,784.7-704
				c422.9-70.9,951.9,450.6,1556.7,361.4c596.9-88,784.3-626.3,1257.5-694.2c475.5-68,562.9,484.3,1266.1,389.9
				c484.3-64.3,1074.6-430.1,1627.3-802.9"/>
			<path class="st90" d="M-4750.8,1408.4c805.3,176.5,1575.9,255.9,2042.4,155.6c687.8-148.9,358.8-655.7,775.3-725.5
				c421.9-70.9,957.6,471.3,1562.6,382.1c596.7-87.9,777.5-647,1251.6-714.9c476.6-67.9,572.1,504.7,1275.6,411.4
				C2641.4,853.5,3228.2,479,3776.1,95.8"/>
			<path class="st91" d="M-4748.1,1399.4c810.2,187.1,1584.2,275,2050.4,174c687.4-149.9,350.5-677.2,765.8-747
				c421-70.9,963.2,492,1568.5,402.8c596.5-87.9,770.6-667.8,1245.8-735.6c477.8-67.9,581.2,525.1,1285,432.9
				c485-62.9,1068.3-445.9,1611.3-839.8"/>
			<path class="st92" d="M-4745.4,1390.5c815,197.6,1592.6,294.2,2058.4,192.5c687.2-151,342.3-698.6,756.4-768.4
				c420-71,969,512.7,1574.3,423.5C240,1150.2,407.4,549.6,883.6,481.8c478.9-67.9,590.4,545.5,1294.5,454.2
				c485.3-62.2,1065.2-453.7,1603.4-858.2"/>
			<path class="st93" d="M-4742.8,1381.5c819.9,208.2,1600.9,313.2,2066.4,210.9c686.8-152.1,334-720,746.9-789.8
				c419-71.1,974.6,533.4,1580.2,444.2c596.2-87.9,756.9-709.3,1234-777c480-67.9,599.5,565.9,1303.9,475.7
				C2674.3,884,3250.7,483.9,3784,68.9"/>
			<path class="st94" d="M-4740.1,1372.5c824.8,218.7,1609.3,332.3,2074.4,229.3c686.6-153.1,325.6-741.4,737.5-811.3
				c418-71.1,980.4,554.2,1586.1,464.9c596.1-87.8,750-730.1,1228.2-797.7c481.1-67.9,608.7,586.3,1313.3,497.2
				c486-60.8,1059-469.5,1587.4-895.1"/>
			<path class="st95" d="M-4737.5,1363.5c829.6,229.3,1617.6,351.5,2082.4,247.8c686.2-154.1,317.3-762.8,728.1-832.7
				c417-71.2,986.1,574.9,1591.9,485.6c596-87.8,743.1-750.8,1222.3-818.4c482.3-67.8,617.8,606.7,1322.8,518.6
				C2696.4,904.4,3265.7,487.1,3789.3,51"/>
			<path class="st96" d="M-4734.8,1354.6c834.5,239.8,1625.9,370.6,2090.3,266.2c686-155.2,309-784.3,718.6-854.2
				c416.1-71.3,991.8,595.6,1597.8,506.3c595.7-87.8,736.3-771.5,1216.4-839.1c483.4-67.7,626.9,627.1,1332.2,540.1
				C2707.3,914.5,3273.2,488.7,3792,42.1"/>
			<path class="st97" d="M-4732.2,1345.6c839.3,250.4,1634.3,389.7,2098.3,284.6c685.7-156.2,300.8-805.6,709.2-875.6
				c415-71.3,997.5,616.3,1603.7,527c595.6-87.8,729.4-792.3,1210.6-859.7c484.6-67.7,636,647.5,1341.7,561.5
				c487.1-58.7,1049.5-493.1,1563.4-950.3"/>
			<path class="st98" d="M-4729.5,1336.7c844.2,261,1642.5,408.9,2106.3,303.1c685.4-157.3,292.4-827.1,699.7-897.1
				c414.1-71.4,1003.2,637,1609.5,547.7c595.6-87.9,722.7-813.1,1204.8-880.5c485.7-67.7,645.2,667.9,1351.1,583
				c487.4-58,1046.5-501,1555.4-968.8"/>
			<path class="st99" d="M-4726.8,1327.8c849.1,271.5,1650.9,428,2114.3,321.5c685-158.4,284.1-848.5,690.3-918.5
				c413-71.4,1008.9,657.8,1615.4,568.4C288.4,1211.4,408.9,465.3,892,397.9c486.9-67.7,654.3,688.3,1360.5,604.4
				C2740.3,945,3295.8,493.5,3800,15.2"/>
			<path class="st100" d="M-4724.1,1318.8c853.9,282.1,1659.2,447.1,2122.3,339.9c684.8-159.4,275.8-869.9,680.9-940
				c412-71.5,1014.6,678.5,1621.1,589.1c595.2-87.7,709-854.5,1193-921.8c488-67.7,663.5,708.7,1370,625.9
				C2751.3,955.2,3303.4,495.1,3802.7,6.2"/>
			<path class="st101" d="M-4721.5,1309.8c858.8,292.7,1667.6,466.3,2130.3,358.4c684.4-160.5,267.5-891.4,671.4-961.5
				c411.1-71.5,1020.3,699.2,1627.1,609.8c595-87.7,702.1-875.3,1187.1-942.5c489.1-67.6,672.6,729.1,1379.4,647.4
				c488.4-56,1037-524.6,1531.5-1024.1"/>
			<path class="st102" d="M-4718.8,1300.9c863.6,303.2,1675.9,485.4,2138.3,376.8c684.2-161.5,259.2-912.8,662-982.9
				c410.1-71.6,1026.1,720,1633,630.5c594.8-87.7,695.2-896.1,1181.2-963.3c490.2-67.6,681.8,749.5,1388.9,668.8
				C2773.2,975.5,3318.4,498.3,3808-11.7"/>
			<path class="st103" d="M-4716.1,1291.9c868.5,313.8,1684.2,504.5,2146.2,395.2c683.8-162.6,250.9-934.1,652.5-1004.3
				c409.2-71.7,1031.8,740.7,1638.9,651.2c594.7-87.7,688.4-916.8,1175.3-984c491.3-67.5,690.9,769.9,1398.3,690.2
				c489.1-54.6,1030.8-540.3,1515.6-1060.9"/>
			<path class="st104" d="M-4710.9,1283.1c873.3,324.3,1692.5,523.6,2154.2,413.6c683.6-163.6,242.6-955.6,643.1-1025.8
				c408.1-71.7,1037.5,761.4,1644.7,671.9c594.5-87.6,681.5-937.6,1169.5-1004.6c492.5-67.5,700.1,790.3,1407.7,711.7
				C2797.8,996,3336,501.7,3815.9-29.4"/>
			<path class="st105" d="M-4710.8,1274c878.1,334.9,1700.8,542.8,2162.2,432.1c683.2-164.7,234.3-977,633.7-1047.2
				c407.2-71.8,1043.2,782.1,1650.6,692.5C330,1263.8,410.2,393,899.2,326.1c493.6-67.5,709.2,810.7,1417.2,733.1
				C2806.2,1006,3341,503.1,3816-38.6"/>
			<path class="st106" d="M-4708.2,1265c883.1,345.5,1709.2,561.9,2170.2,450.5c683-165.7,226-998.4,624.2-1068.7
				c406.2-71.9,1048.9,802.8,1656.5,713.3C336.9,1272.6,410.4,381,900.4,314.1c494.8-67.4,718.4,831.1,1426.6,754.6
				c490.2-52.5,1021.5-563.9,1491.6-1116.2"/>
			<path class="st107" d="M-4705.5,1256.1c887.9,356,1717.5,581,2178.1,468.9c682.7-166.7,217.7-1019.8,614.8-1090.2
				c405.2-71.9,1054.6,823.6,1662.4,734c594-87.5,660.9-999.8,1151.9-1066.7c495.9-67.4,727.5,851.5,1436.1,776.1
				C2828.2,1026.4,3356,506.3,3821.4-56.5"/>
			<path class="st108" d="M-4702.8,1247.1c892.7,366.6,1725.8,600.2,2186.1,487.4c682.4-167.8,209.4-1041.3,605.3-1111.6
				c404.2-72,1060.4,844.3,1668.2,754.7C350.7,1290,410.9,356.9,902.8,290.1c497.1-67.4,736.7,871.9,1445.5,797.5
				C2839.2,1036.5,3363.5,507.9,3824-65.4"/>
			<path class="st109" d="M-4700.1,1238.2C-3802.5,1615.3-2966,1857.4-2506,1744c682-168.9,201.1-1062.7,595.9-1133
				c403.2-72,1066,865,1674.1,775.4C357.5,1298.8,411.1,344.9,904,278.1c498.2-67.3,745.7,892.3,1454.9,818.9
				c491.2-50.4,1012-587.6,1467.7-1171.5"/>
			<path class="st109" d="M-4697.5,1229.2c902.5,387.7,1742.5,638.3,2202.1,524.2c681.8-169.8,192.8-1084,586.5-1154.4
				c402.2-72.1,1071.7,885.6,1679.9,796C364.5,1307.5,411.3,332.8,905.3,266.2c499.3-67.3,754.9,912.7,1464.4,840.4
				c491.6-49.7,1008.9-595.4,1459.7-1189.9"/>
			<path class="st110" d="M-4694.8,1220.2c907.3,398.2,1750.8,657.5,2210.1,542.7c681.4-170.9,184.4-1105.5,577-1175.9
				c401.3-72.1,1077.4,906.4,1685.8,816.8c593.4-87.5,633.6-1083,1128.4-1149.6c500.4-67.2,764,933.1,1473.8,861.8
				C2872.2,1067,3386.1,512.8,3832-92.4"/>
			<path class="st111" d="M-4692.2,1211.3c912.2,408.8,1759.1,676.6,2218,561.1C-1793,1600.4-2298,645.5-1906.6,575
				c400.2-72.2,1083.2,927.1,1691.7,837.5C378.4,1324.9,411.7,308.8,907.6,242.2c501.6-67.2,773.2,953.5,1483.3,883.3
				c492.2-48.3,1002.7-611.2,1443.7-1226.8"/>
			<path class="st112" d="M-4689.5,1202.3c917,419.4,1767.4,695.7,2226.1,579.5c680.9-173,167.8-1148.4,558.1-1218.9
				c399.3-72.3,1088.9,947.8,1697.5,858.2C385.2,1333.7,411.9,296.7,908.9,230.2c502.7-67.2,782.3,973.9,1492.7,904.8
				c492.5-47.6,999.5-619.1,1435.7-1245.2"/>
			<path class="st112" d="M-4686.9,1193.3c921.9,430,1775.8,714.9,2234.1,598c680.6-174.1,159.5-1169.7,548.7-1240.3
				c398.3-72.3,1094.6,968.6,1703.4,878.8c592.9-87.4,613-1145.1,1110.8-1211.6c503.9-67.2,791.5,994.3,1502.1,926.2
				c492.9-46.9,996.4-626.9,1427.7-1263.7"/>
			<path class="st113" d="M-4684.2,1184.4c926.8,440.5,1784.1,734,2242,616.4c680.3-175.2,151.3-1191.2,539.3-1261.7
				c397.3-72.4,1100.3,989.3,1709.3,899.5c592.8-87.4,606.1-1166,1104.9-1232.3c505-67.2,800.6,1014.7,1511.6,947.6
				c493.2-46.2,993.2-634.8,1419.8-1282"/>
			<path class="st114" d="M-4681.5,1175.5c931.6,451.1,1792.4,753.1,2250,634.8c680-176.2,143-1212.6,529.8-1283.2
				c396.3-72.4,1106,1010,1715.1,920.2C406,1360,412.6,260.7,912.5,194.3c506.2-67.1,809.8,1035.1,1521,969.1
				c493.6-45.6,990.2-642.7,1411.8-1300.5"/>
			<path class="st115" d="M-4678.8,1166.5c936.5,461.7,1800.8,772.2,2258,653.2c679.7-177.2,134.7-1234,520.4-1304.6
				c395.3-72.5,1111.7,1030.8,1721,940.9C413,1368.7,412.9,248.6,913.7,182.2c507.3-67,818.9,1055.5,1530.5,990.5
				c493.9-44.9,987-650.5,1403.8-1319"/>
			<path class="st116" d="M-4676.2,1157.6c941.3,472.2,1809.1,791.4,2266,671.7c679.4-178.3,126.3-1255.4,510.9-1326.1
				c394.4-72.6,1117.5,1051.5,1726.9,961.6C419.8,1377.5,413.1,236.6,914.9,170.3c508.4-67,828.1,1075.9,1539.9,1012
				c494.3-44.2,983.9-658.4,1395.8-1337.4"/>
			<path class="st117" d="M-4673.5,1148.6c946.2,482.7,1817.4,810.5,2274,690.1c679.1-179.4,118-1276.9,501.5-1347.6
				c393.3-72.6,1123.1,1072.2,1732.7,982.4C426.7,1386.2,413.3,224.5,916.1,158.4c509.5-67,837.2,1096.3,1549.3,1033.5
				c494.6-43.5,980.8-666.3,1387.8-1355.8"/>
			<path class="st118" d="M-4670.9,1139.7c951,493.3,1825.7,829.6,2281.9,708.5c678.8-180.4,109.7-1298.2,492.1-1369
				c392.3-72.6,1128.8,1092.9,1738.5,1003C433.6,1395,413.5,212.5,917.3,146.4c510.7-66.9,846.4,1116.8,1558.8,1054.9
				c495-42.8,977.7-674.2,1379.9-1374.3"/>
			<path class="st118" d="M-4668.2,1130.7c955.9,503.9,1834.1,848.8,2289.9,727c678.5-181.4,101.4-1319.7,482.6-1390.4
				C-1504.3,394.5-761.1,1580.9-151.2,1491c591.9-87.2,565-1290.5,1069.8-1356.5c511.8-67,855.5,1137.1,1568.2,1076.3
				c495.3-42.1,974.5-682,1371.9-1392.7"/>
			<path class="st119" d="M-4665.5,1121.7c960.8,514.4,1842.4,867.9,2297.9,745.4c678.2-182.5,93.1-1341.1,473.2-1411.9
				c390.4-72.8,1140.2,1134.4,1750.3,1044.5C447.5,1412.5,414,188.5,919.7,122.5c513-66.9,864.6,1157.5,1577.7,1097.8
				c495.6-41.4,971.4-689.9,1363.9-1411.1"/>
			<path class="st120" d="M-4662.9,1112.7c965.6,525,1850.7,887,2305.9,763.8c677.9-183.5,84.8-1362.5,463.7-1433.3
				c389.4-72.8,1146,1155.1,1756.2,1065.1c591.6-87.2,551.3-1332,1058-1397.9c514.1-66.9,873.7,1177.9,1587.1,1119.2
				c496-40.7,968.3-697.8,1355.9-1429.5"/>
			<path class="st112" d="M-4660.2,1103.8c970.5,535.6,1859.1,906.1,2313.9,782.3c677.6-184.6,76.5-1383.9,454.3-1454.8
				C-1503.7,358.4-740.5,1607.1-130,1517.1C461.3,1430,414.4,164.4,922.1,98.6c515.2-66.8,882.9,1198.3,1596.5,1140.7
				c496.3-40,965.2-705.6,1348-1448"/>
			<path class="st112" d="M-4657.5,1094.8c975.3,546.1,1867.4,925.2,2321.8,800.7c677.3-185.6,68.2-1405.3,444.8-1476.2
				c387.4-73,1157.4,1196.5,1767.9,1106.5C468.2,1438.7,414.6,152.4,923.3,86.6c516.4-66.8,892.1,1218.7,1606,1162.1
				c496.7-39.3,962.1-713.5,1340-1466.4"/>
			<path class="st121" d="M-4654.9,1085.9c980.2,556.7,1875.7,944.4,2329.8,819.1c677-186.7,59.9-1426.8,435.4-1497.7
				c386.5-73,1163.1,1217.2,1773.8,1127.2c591.1-87.1,530.8-1394.3,1040.4-1460C1442.1,7.8,1825.7,1313.7,2540,1258.2
				c497.1-38.6,958.9-721.4,1332-1484.9"/>
		</g>
	</g>
	<g class="st122">
		
			<rect x="-344.3" y="238.3" transform="matrix(0.9564 -0.2921 0.2921 0.9564 -236.3356 50.6099)" class="st123" width="791.2" height="1157"/>
	</g>
	
		<linearGradient id="SVGID_1_" gradientUnits="userSpaceOnUse" x1="720" y1="1800" x2="720" y2="728" gradientTransform="matrix(1 0 0 1 0 -715)">
		<stop  offset="0" style="stop-color:#000000"/>
		<stop  offset="0.5469" style="stop-color:#000000;stop-opacity:0.4531"/>
		<stop  offset="0.8125" style="stop-color:#000000;stop-opacity:0.4375"/>
		<stop  offset="1" style="stop-color:#000000;stop-opacity:0"/>
	</linearGradient>
	<rect y="13" class="st124" width="1440" height="1072"/>
</g>
</svg>
