<svg width="38" height="38" viewBox="0 0 38 38" fill="none" xmlns="http://www.w3.org/2000/svg">
<g clip-path="url(#clip0_798:771)">
<path d="M19.021 38C8.47138 37.9902 0.00878408 29.5279 -0.000968264 18.9743C-0.0107206 8.49158 8.57622 -0.0488384 19.0771 -3.60232e-05C29.6071 0.0487664 38.021 8.55015 37.999 19.1183C37.9795 29.5254 29.4511 38.0097 19.021 38ZM10.7656 20.9777C11.4727 22.6809 12.9818 23.2348 14.4813 23.8326C12.8356 25.2113 10.9704 25.7603 8.94437 25.9458C10.9046 27.4318 13.1111 27.9564 15.4638 27.8466C18.1652 27.7197 20.4692 26.4899 22.5855 24.9356C25.9086 22.4954 27.4665 19.1329 27.4251 15.0287C27.4202 14.5211 27.5543 14.2405 27.9858 13.9794C28.4344 13.7061 28.8075 13.3059 29.4072 12.7984C28.5149 12.8423 27.9176 12.8716 27.3251 12.9009C27.9005 12.1981 28.4027 11.5857 28.905 10.9707C28.0882 11.0537 27.4543 11.288 26.8009 11.4124C26.5352 11.4637 26.1597 11.3587 25.9403 11.1879C23.2364 9.08209 19.8694 10.2216 19.0405 13.5573C18.8869 14.1722 18.8357 14.8139 18.7308 15.4972C15.0396 15.4557 12.1334 13.8013 9.65629 11.0537C8.72982 13.3645 9.10528 15.2288 10.9729 16.7856C10.907 16.827 10.8412 16.8685 10.7754 16.91C10.2244 16.8124 9.67579 16.7148 9.05652 16.605C9.08578 17.625 9.41248 18.4595 10.1122 19.0793C10.7778 19.6698 11.5336 20.1627 12.2919 20.7312C11.7969 20.8118 11.341 20.885 10.7656 20.9777Z" fill="black"/>
</g>
<defs>
<clipPath id="clip0_798:771">
<rect width="38" height="38" fill="white" transform="translate(0 38) rotate(-90)"/>
</clipPath>
</defs>
</svg>
