<svg width="38" height="38" viewBox="0 0 38 38" fill="none" xmlns="http://www.w3.org/2000/svg">
<path fill-rule="evenodd" clip-rule="evenodd" d="M19 38C29.4934 38 38 29.4934 38 19C38 8.50659 29.4934 0 19 0C8.50659 0 0 8.50659 0 19C0 29.4934 8.50659 38 19 38ZM23.85 9.233C22.584 9.175 22.204 9.163 19 9.163C15.796 9.163 15.417 9.175 14.151 9.232C10.896 9.38 9.381 10.924 9.232 14.151C9.175 15.417 9.162 15.796 9.162 19C9.162 22.205 9.174 22.584 9.232 23.849C9.38 27.07 10.891 28.62 14.151 28.769C15.416 28.827 15.796 28.839 19 28.839C22.206 28.839 22.584 28.827 23.85 28.769C27.105 28.621 28.62 27.075 28.769 23.85C28.826 22.585 28.838 22.206 28.838 19.001C28.838 15.797 28.827 15.417 28.769 14.152C28.621 10.924 27.102 9.381 23.85 9.233ZM14.053 7.072C15.333 7.014 15.741 7 19 7C22.259 7 22.668 7.014 23.949 7.073C28.311 7.273 30.732 9.699 30.928 14.053C30.986 15.333 31 15.741 31 19C31 22.259 30.986 22.668 30.927 23.948C30.73 28.31 28.302 30.728 23.948 30.928C22.668 30.986 22.259 31 19 31C15.741 31 15.333 30.986 14.052 30.928C9.69 30.728 7.272 28.306 7.072 23.948C7.014 22.668 7 22.259 7 19C7 15.741 7.014 15.333 7.073 14.052C7.273 9.69 9.695 7.272 14.053 7.072ZM12.838 19C12.838 15.597 15.597 12.838 19 12.838C22.403 12.838 25.162 15.597 25.162 19C25.162 22.404 22.403 25.163 19 25.163C15.597 25.163 12.838 22.403 12.838 19ZM15 19C15 21.21 16.791 23 19 23C21.209 23 23 21.21 23 19C23 16.791 21.209 15 19 15C16.791 15 15 16.791 15 19ZM23.965 12.595C23.965 11.8 24.61 11.155 25.406 11.155C26.201 11.155 26.845 11.8 26.845 12.595C26.845 13.39 26.201 14.035 25.406 14.035C24.61 14.035 23.965 13.39 23.965 12.595Z" fill="black"/>
</svg>
