<svg width="38" height="38" viewBox="0 0 38 38" fill="none" xmlns="http://www.w3.org/2000/svg">
<g clip-path="url(#clip0_798:778)">
<path d="M19 0C8.50883 0 0 8.49278 0 18.9677C0 27.3482 5.4435 34.458 12.9944 36.9664C13.9428 37.1419 14.25 36.5539 14.25 36.0544V32.5233C8.96483 33.6708 7.86442 30.2851 7.86442 30.2851C6.99992 28.0927 5.75383 27.5095 5.75383 27.5095C4.02958 26.3319 5.88525 26.3572 5.88525 26.3572C7.79317 26.49 8.797 28.3124 8.797 28.3124C10.4912 31.2113 13.2414 30.3736 14.326 29.8883C14.4954 28.6633 14.9878 27.8256 15.5325 27.353C11.3129 26.8709 6.87642 25.2444 6.87642 17.9782C6.87642 15.906 7.619 14.2147 8.83342 12.887C8.63708 12.408 7.98633 10.4781 9.01867 7.86685C9.01867 7.86685 10.6147 7.35788 14.2452 9.81104C15.7605 9.39058 17.385 9.18036 19 9.17246C20.615 9.18036 22.2411 9.39058 23.7595 9.81104C27.3869 7.35788 28.9797 7.86685 28.9797 7.86685C30.0137 10.4796 29.3629 12.4096 29.1666 12.887C30.3858 14.2147 31.122 15.9076 31.122 17.9782C31.122 25.2634 26.6776 26.8677 22.4469 27.3372C23.1277 27.9252 23.75 29.079 23.75 30.8494V36.0544C23.75 36.5586 24.054 37.1514 25.0182 36.9649C32.5628 34.4532 38 27.3451 38 18.9677C38 8.49278 29.4928 0 19 0Z" fill="black"/>
</g>
<defs>
<clipPath id="clip0_798:778">
<rect width="38" height="38" fill="white" transform="translate(0 38) rotate(-90)"/>
</clipPath>
</defs>
</svg>
