<svg width="38" height="38" viewBox="0 0 38 38" fill="none" xmlns="http://www.w3.org/2000/svg">
<g clip-path="url(#clip0_798:769)">
<path d="M5.29133e-07 19.011C-0.00244116 8.32127 8.4458 -0.00244115 19.2942 5.37047e-07C29.5444 0.00244223 38 8.5923 38 18.9988C38 29.4126 29.5518 37.9976 19.3015 38C8.43603 38.0049 0.00244222 29.7056 5.29133e-07 19.011ZM16.5962 13.2633C16.5962 17.6534 16.5962 21.9361 16.5962 26.2164C18.0319 26.2164 19.387 26.2164 20.8032 26.2164C20.8032 23.5989 20.7837 21.0571 20.8105 18.5129C20.8276 16.7988 22.8298 15.6634 24.3119 16.5107C25.1909 17.0137 25.4888 17.8463 25.4888 18.8108C25.4937 21.2647 25.4912 23.7161 25.4912 26.2237C26.9001 26.2237 28.2259 26.2237 29.5811 26.2237C29.6055 25.9918 29.6421 25.8233 29.6421 25.6524C29.647 23.2229 29.6641 20.7934 29.6348 18.3664C29.6274 17.7291 29.5347 17.0747 29.3589 16.4643C28.8608 14.7161 27.8352 13.3951 25.96 13.0679C24.0653 12.7358 22.3317 13.0728 21.1646 14.8259C21.0889 14.9407 21.0815 15.1018 21.0425 15.241C20.9521 15.1727 20.8642 15.1043 20.7739 15.0359C20.7739 14.4621 20.7739 13.8859 20.7739 13.2633C19.3528 13.2633 17.9952 13.2633 16.5962 13.2633ZM9.80094 13.2608C9.80094 17.6583 9.80094 21.9435 9.80094 26.2311C11.2733 26.2311 12.6626 26.2311 14.0666 26.2311C14.0666 21.88 14.0666 17.5924 14.0666 13.2608C12.6186 13.2608 11.2293 13.2608 9.80094 13.2608ZM11.8813 7.00276C10.5847 7.01009 9.53235 7.99409 9.52259 9.20517C9.51282 10.4553 10.5823 11.4857 11.9032 11.4979C13.212 11.5101 14.2912 10.4822 14.2961 9.2247C14.301 7.96723 13.2437 6.99544 11.8813 7.00276Z" fill="black"/>
</g>
<defs>
<clipPath id="clip0_798:769">
<rect width="38" height="38" fill="white"/>
</clipPath>
</defs>
</svg>
