<svg width="24" height="24" viewBox="0 0 24 24" fill="none" xmlns="http://www.w3.org/2000/svg">
<path fill-rule="evenodd" clip-rule="evenodd" d="M12 24C18.6274 24 24 18.6274 24 12C24 5.37258 18.6274 0 12 0C5.37258 0 0 5.37258 0 12C0 18.6274 5.37258 24 12 24ZM13.6542 5.00322C13.2049 5.00391 12.7547 5.00461 12.3024 5.01151C12.2916 6.45746 12.2921 7.90341 12.2925 9.35076C12.2928 10.2192 12.2931 11.0882 12.2909 11.958C12.2894 12.2291 12.2899 12.4999 12.2903 12.7704C12.2917 13.5278 12.293 14.2837 12.2506 15.0427C12.2452 15.2541 12.1377 15.4399 12.0339 15.6194C12.0275 15.6305 12.021 15.6417 12.0146 15.6528C11.6808 16.1995 11.065 16.5736 10.4205 16.5794C9.45361 16.6657 8.54429 15.8715 8.40617 14.9276C8.40528 14.8794 8.40369 14.8308 8.4021 14.7821C8.39344 14.5174 8.38466 14.249 8.48674 14.001C8.63062 13.5924 8.90687 13.2299 9.26944 12.9939C9.77014 12.6486 10.4377 12.5968 11.0075 12.781C11.0075 12.4159 11.0138 12.0509 11.0202 11.6858C11.0286 11.1991 11.0371 10.7124 11.0305 10.2257C9.78165 9.98971 8.44646 10.3868 7.4911 11.2156C6.65085 11.9292 6.10987 12.9766 6.00627 14.0701C5.99476 14.3521 6.00052 14.6399 6.01203 14.9276C6.13289 16.2743 6.95012 17.529 8.11266 18.2138C8.81479 18.6282 9.63777 18.8526 10.4608 18.8066C11.8017 18.7836 13.1081 18.0642 13.862 16.9592C14.3282 16.2974 14.593 15.4974 14.639 14.6917C14.6498 13.645 14.6493 12.5961 14.6489 11.5463C14.6486 10.9164 14.6483 10.2861 14.6505 9.65591C14.9498 9.85159 15.2548 10.0415 15.5828 10.1911C16.3368 10.548 17.1713 10.7206 18 10.7494V8.43007C17.1137 8.33223 16.2044 8.03872 15.5598 7.3999C14.9152 6.77834 14.5987 5.88054 14.5527 5C14.2533 5.0023 13.954 5.00276 13.6542 5.00322Z" fill="#0C0B0B"/>
</svg>
