<svg width="38" height="38" viewBox="0 0 38 38" fill="none" xmlns="http://www.w3.org/2000/svg">
<path fill-rule="evenodd" clip-rule="evenodd" d="M19 38C29.4934 38 38 29.4934 38 19C38 8.50659 29.4934 0 19 0C8.50659 0 0 8.50659 0 19C0 29.4934 8.50659 38 19 38ZM22.6684 9C24.5473 9.32 26.3474 9.89333 28.0423 10.68C30.9855 15.04 32.4452 19.9733 31.8803 25.6533C29.6322 27.3199 27.4379 28.3333 25.2962 29C24.7707 28.28 24.2976 27.5066 23.8903 26.6933C24.6656 26.4 25.4013 26.0399 26.1109 25.6133C25.9834 25.521 25.8624 25.4223 25.7388 25.3215C25.684 25.2768 25.6287 25.2318 25.5721 25.1867C21.3413 27.1733 16.7019 27.1733 12.4185 25.1867C12.2477 25.3333 12.0637 25.48 11.8798 25.6133C12.5893 26.0399 13.3251 26.4 14.1003 26.6933C13.693 27.5066 13.22 28.28 12.6944 29C10.5514 28.3333 8.37025 27.3199 6.11031 25.6533C5.65044 20.7466 6.57019 15.7733 9.97324 10.68C11.6564 9.89333 13.4564 9.32 15.3485 9C15.5718 9.41334 15.8478 9.97333 16.0317 10.4133C18.0026 10.12 19.9867 10.12 21.9851 10.4133C22.1691 9.97333 22.4319 9.41334 22.6684 9ZM12.3528 19.9867C12.3528 21.44 13.4039 22.6266 14.6916 22.6266C15.9923 22.6266 17.0303 21.44 17.0303 19.9867C17.0566 18.5334 15.9923 17.3466 14.6916 17.3466C13.3776 17.3466 12.3528 18.5334 12.3528 19.9867ZM20.9852 19.9867C20.9852 21.44 22.0377 22.6266 23.3254 22.6266C24.6393 22.6266 25.6641 21.44 25.6641 19.9867C25.6904 18.5334 24.6261 17.3466 23.3254 17.3466C22.0114 17.3466 20.9852 18.5334 20.9852 19.9867Z" fill="black"/>
</svg>
