<svg width="24" height="24" viewBox="0 0 24 24" fill="none" xmlns="http://www.w3.org/2000/svg">
<path d="M8.71355 12.0005C8.71355 13.8169 10.1831 15.2865 11.9995 15.2865C13.8159 15.2865 15.2854 13.8169 15.2854 12.0005C15.2854 10.1841 13.8159 8.7146 11.9995 8.7146C10.1831 8.7146 8.71355 10.1818 8.71355 12.0005Z" fill="white"/>
<path d="M21.0937 8.49301L15.6023 8.7766C17.093 10.518 17.1164 13.0305 15.8625 14.9571L11.4562 21.7352C13.2844 21.8336 15.1687 21.4328 16.875 20.4414C21.0937 18.0039 22.8047 12.8922 21.0937 8.49301ZM7.50703 13.8719L3.83906 6.65785C2.83594 8.19066 2.25 10.0305 2.25 11.9993C2.25 16.8743 5.81953 20.9125 10.4859 21.6274L12.9914 16.7196C10.7273 17.1461 8.54062 15.9039 7.50703 13.8719ZM12.6281 7.18051L20.7 7.60473C19.875 5.96879 18.5766 4.54613 16.8703 3.55473C15.3258 2.66176 13.6289 2.23754 11.9648 2.24926C9.09375 2.26098 6.28828 3.54301 4.41562 5.87035L7.42031 10.4852C8.17031 8.33129 10.3453 7.04692 12.6281 7.18051Z" fill="white"/>
</svg>
