<svg
  width="604"
  height="98"
  viewBox="0 0 604 98"
  fill="none"
  xmlns="http://www.w3.org/2000/svg"
>
<path
    fill-rule="evenodd"
    clip-rule="evenodd"
    d="M123.92 22.7705C121.145 19.9951 118.184 17.5176 115.078 15.3379V82.9532C118.184 80.7735 121.145 78.296 123.92 75.5206L150.295 49.1456L123.92 22.7705ZM77.5 3.37575C90.286 3.45368 103.054 7.21167 114.078 14.6497V83.6414C103.054 91.0794 90.286 94.8374 77.5 94.9154V3.37575ZM30.2678 22.7705C33.0432 19.9951 36.0037 17.5176 39.1094 15.3379V45.4302C37.2756 45.6746 35.861 47.2449 35.861 49.1456C35.861 51.0462 37.2756 52.6165 39.1094 52.861V82.9532C36.0037 80.7736 33.0432 78.296 30.2678 75.5206L3.89277 49.1456L30.2678 22.7705ZM43.3579 49.1456C43.3579 51.0462 41.9432 52.6165 40.1094 52.861V83.6414C51.0799 91.0431 63.7767 94.8006 76.5 94.914V3.37716C63.7767 3.49055 51.0799 7.24807 40.1094 14.6497V45.4302C41.9432 45.6746 43.3579 47.2449 43.3579 49.1456ZM152.063 47.3778L125.688 21.0027C98.85 -5.83489 55.3377 -5.83489 28.5001 21.0027L1.24112 48.2617C0.752961 48.7498 0.752961 49.5413 1.24112 50.0294L28.5001 77.2884C55.3377 104.126 98.8501 104.126 125.688 77.2884L152.063 50.9133L178.438 77.2884C205.275 104.126 248.788 104.126 275.625 77.2884L302 50.9133L328.376 77.2884C355.213 104.126 398.725 104.126 425.563 77.2884L451.938 50.9133L478.313 77.2884C505.151 104.126 548.663 104.126 575.501 77.2884L602.76 50.0294C602.994 49.795 603.126 49.4771 603.126 49.1456C603.126 48.814 602.994 48.4961 602.76 48.2617L575.501 21.0027C548.663 -5.83489 505.151 -5.83489 478.313 21.0027L451.938 47.3778L425.563 21.0027C398.725 -5.83489 355.213 -5.83488 328.376 21.0027L302 47.3778L275.625 21.0027C248.788 -5.83488 205.275 -5.83489 178.438 21.0027L152.063 47.3778ZM153.83 49.1456L180.206 75.5206C182.981 78.296 185.941 80.7736 189.047 82.9532V35.6181C187.213 35.3737 185.799 33.8034 185.799 31.9027C185.799 30.0021 187.213 28.4318 189.047 28.1873V15.3379C185.941 17.5176 182.981 19.9951 180.206 22.7705L153.83 49.1456ZM190.047 83.6414V35.6181C191.881 35.3737 193.296 33.8034 193.296 31.9027C193.296 30.0021 191.881 28.4318 190.047 28.1873V14.6497C201.045 7.22987 213.777 3.47209 226.532 3.37639V45.4302C224.698 45.6746 223.283 47.2449 223.283 49.1456C223.283 51.0462 224.698 52.6165 226.532 52.861V94.9147C213.777 94.819 201.045 91.0613 190.047 83.6414ZM227.532 52.861V94.9147C240.286 94.819 253.019 91.0613 264.016 83.6414V14.6497C253.019 7.22988 240.286 3.4721 227.532 3.37639V45.4302C229.365 45.6746 230.78 47.2449 230.78 49.1456C230.78 51.0462 229.365 52.6165 227.532 52.861ZM273.858 75.5206C271.082 78.296 268.122 80.7736 265.016 82.9532V15.3379C268.122 17.5176 271.082 19.9951 273.858 22.7705L300.233 49.1456L273.858 75.5206ZM303.768 49.1456L330.143 75.5206C332.919 78.296 335.879 80.7736 338.985 82.9532V15.3379C335.879 17.5176 332.919 19.9951 330.143 22.7705L303.768 49.1456ZM339.985 83.6414C350.991 91.0672 363.735 94.8251 376.5 94.915V3.37617C363.735 3.46607 350.991 7.22392 339.985 14.6497V83.6414ZM414.954 82.9532C418.06 80.7735 421.02 78.296 423.795 75.5206L450.17 49.1456L423.795 22.7705C421.02 19.9951 418.06 17.5176 414.954 15.3379V45.4302C416.788 45.6746 418.202 47.2449 418.202 49.1456C418.202 51.0462 416.788 52.6165 414.954 52.861V82.9532ZM413.954 45.4302C412.12 45.6746 410.705 47.2449 410.705 49.1456C410.705 51.0462 412.12 52.6165 413.954 52.861V83.6414C402.965 91.0553 390.244 94.813 377.5 94.9145V3.37663C390.244 3.47813 402.965 7.23583 413.954 14.6498V45.4302ZM453.706 49.1456L480.081 75.5206C482.856 78.296 485.817 80.7736 488.923 82.9532V15.3379C485.817 17.5176 482.856 19.9951 480.081 22.7705L453.706 49.1456ZM489.923 83.6414C500.92 91.0613 513.652 94.819 526.407 94.9147V52.861C524.573 52.6166 523.159 51.0463 523.159 49.1456C523.159 47.2449 524.573 45.6746 526.407 45.4302V3.37639C513.652 3.47208 500.92 7.22985 489.923 14.6497V83.6414ZM527.407 94.9147V52.861C529.241 52.6165 530.656 51.0462 530.656 49.1456C530.656 47.2449 529.241 45.6746 527.407 45.4302V3.37639C540.162 3.47211 552.894 7.22991 563.892 14.6498V62.673C562.058 62.9174 560.643 64.4877 560.643 66.3884C560.643 68.2891 562.058 69.8594 563.892 70.1038V83.6413C552.894 91.0612 540.162 94.819 527.407 94.9147ZM564.892 70.1038V82.9532C567.997 80.7735 570.958 78.296 573.733 75.5206L600.108 49.1456L573.733 22.7705C570.958 19.9951 567.997 17.5176 564.892 15.338V62.673C566.725 62.9175 568.14 64.4877 568.14 66.3884C568.14 68.2891 566.725 69.8593 564.892 70.1038Z"
    fill="#42C37B"
  />
<circle cx="77" cy="65" r="12" fill="#42C37B" />
<path
    fill-rule="evenodd"
    clip-rule="evenodd"
    d="M77 56.75C74.9289 56.75 73.25 58.4289 73.25 60.5V63H73C72.4477 63 72 63.4477 72 64V70C72 70.5523 72.4477 71 73 71H81C81.5523 71 82 70.5523 82 70V64C82 63.4477 81.5523 63 81 63H80.75V60.5C80.75 58.4289 79.0711 56.75 77 56.75ZM79.25 63V60.5C79.25 59.2574 78.2426 58.25 77 58.25C75.7574 58.25 74.75 59.2574 74.75 60.5V63H79.25Z"
    fill="white"
  />
<circle cx="377" cy="33" r="12" fill="#42C37B" />
<path
    fill-rule="evenodd"
    clip-rule="evenodd"
    d="M377 24.75C374.929 24.75 373.25 26.4289 373.25 28.5V31H373C372.448 31 372 31.4477 372 32V38C372 38.5523 372.448 39 373 39H381C381.552 39 382 38.5523 382 38V32C382 31.4477 381.552 31 381 31H380.75V28.5C380.75 26.4289 379.071 24.75 377 24.75ZM379.25 31V28.5C379.25 27.2574 378.243 26.25 377 26.25C375.757 26.25 374.75 27.2574 374.75 28.5V31H379.25Z"
    fill="white"
  />
</svg>
