<?xml version="1.0" encoding="utf-8"?>
<!-- Generator: Adobe Illustrator 25.0.0, SVG Export Plug-In . SVG Version: 6.00 Build 0)  -->
<svg version="1.1" id="Layer_1" xmlns="http://www.w3.org/2000/svg" xmlns:xlink="http://www.w3.org/1999/xlink" x="0px" y="0px"
	 viewBox="0 0 146 39" style="enable-background:new 0 0 146 39;" xml:space="preserve">
<style type="text/css">
	.st0{clip-path:url(#SVGID_2_);}
	.st1{fill-rule:evenodd;clip-rule:evenodd;fill:#06E594;}
	.st2{fill:#06E594;}
</style>
<g>
	<defs>
		<rect id="SVGID_1_" width="146" height="38.3"/>
	</defs>
	<clipPath id="SVGID_2_">
		<use xlink:href="#SVGID_1_"  style="overflow:visible;"/>
	</clipPath>
	<g class="st0">
		<path class="st1" d="M28.7,19.1c5.3,0,9.6-4.3,9.6-9.6C38.3,4.3,34,0,28.7,0c-5.3,0-9.5,4.3-9.6,9.5c0-5.2-4.3-9.5-9.6-9.5
			C4.3,0,0,4.3,0,9.6c0,5.3,4.3,9.5,9.5,9.6c-5.3,0-9.5,4.3-9.5,9.6c0,5.3,4.3,9.6,9.6,9.6c5.3,0,9.6-4.3,9.6-9.6
			c0-5.3-4.3-9.5-9.5-9.6c5.2,0,9.5-4.3,9.5-9.5C19.2,14.9,23.4,19.1,28.7,19.1z"/>
		<path class="st2" d="M28.7,38.3c5.3,0,9.6-4.3,9.6-9.6s-4.3-9.6-9.6-9.6s-9.6,4.3-9.6,9.6S23.4,38.3,28.7,38.3z"/>
		<path class="st2" d="M76,4.3H72v24.6H76V4.3z"/>
		<path class="st1" d="M57.6,16.9c0.9-0.9,2-1.4,3.2-1.4c1.2,0,2,0.3,2.7,0.9c0.7,0.6,1.1,1.3,1.3,2.2l3.5-1.3
			c-0.4-1.5-1.2-2.8-2.6-3.8c-1.3-1.1-3-1.6-5-1.6c-2.4,0-4.4,0.8-6.1,2.5c-1.6,1.7-2.4,3.8-2.4,6.3c0,2.5,0.8,4.6,2.4,6.3
			c1.7,1.7,3.7,2.5,6.1,2.5c2,0,3.7-0.5,5-1.6c1.3-1.1,2.2-2.3,2.7-3.8L65,22.8c-0.2,0.8-0.7,1.5-1.4,2.1c-0.7,0.6-1.6,0.9-2.8,0.9
			c-1.3,0-2.4-0.5-3.3-1.4c-0.9-0.9-1.3-2.2-1.3-3.8C56.3,19.1,56.7,17.8,57.6,16.9z"/>
		<path class="st1" d="M85.1,24.5c0.9,0.9,2,1.4,3.3,1.4c1.3,0,2.4-0.5,3.3-1.4c0.9-0.9,1.4-2.2,1.4-3.9c0-1.6-0.5-2.9-1.4-3.8
			c-0.9-0.9-2-1.4-3.3-1.4c-1.3,0-2.4,0.5-3.3,1.4c-0.9,0.9-1.3,2.2-1.3,3.8C83.7,22.3,84.2,23.6,85.1,24.5z M88.4,11.9
			c2.5,0,4.6,0.8,6.2,2.5c1.6,1.7,2.5,3.8,2.5,6.3c0,2.6-0.8,4.7-2.4,6.3c-1.6,1.7-3.7,2.5-6.2,2.5c-2.5,0-4.5-0.8-6.2-2.5
			c-1.6-1.7-2.4-3.8-2.4-6.3c0-2.5,0.8-4.6,2.4-6.3C83.8,12.7,85.9,11.9,88.4,11.9z"/>
		<path class="st1" d="M108.8,28.9l6.5-16.6h-4.2l-4.3,11.8l-4.4-11.8h-4.3l6.7,16.6H108.8z"/>
		<path class="st1" d="M120.4,18.8h8.1c0-1-0.4-1.9-1.1-2.6c-0.7-0.7-1.7-1.1-3-1.1c-1.2,0-2.1,0.4-2.9,1.1
			C120.9,17,120.5,17.9,120.4,18.8z M129,23.2l3.3,1.1c-0.5,1.5-1.4,2.8-2.7,3.8c-1.3,1-2.9,1.5-4.8,1.5c-2.4,0-4.4-0.8-6-2.4
			c-1.6-1.6-2.4-3.8-2.4-6.5c0-2.5,0.8-4.6,2.4-6.3c1.6-1.6,3.5-2.4,5.7-2.4c2.5,0,4.5,0.8,5.9,2.3c1.4,1.5,2.2,3.6,2.2,6.3
			c0,0.7,0,1.1-0.1,1.3h-12.1c0,1.2,0.5,2.3,1.4,3.1c0.9,0.8,1.9,1.2,3.2,1.2C127,26,128.4,25.1,129,23.2z"/>
		<path class="st1" d="M146,16.3v-4c-0.3-0.1-0.7-0.1-1.1-0.1c-1.1,0-2.1,0.3-2.9,0.8c-0.9,0.5-1.5,1.2-1.9,2.1v-2.7h-3.8v16.6h3.9
			v-7.9c0-3.2,1.5-4.9,4.4-4.9C145.1,16.2,145.6,16.2,146,16.3z"/>
	</g>
</g>
</svg>
