<svg width="573" height="530" viewBox="0 0 573 530" fill="none" xmlns="http://www.w3.org/2000/svg">
<g opacity="0.5" filter="url(#filter0_f_1003:690)">
<path d="M146 177C146 119.562 192.562 73 250 73H323C380.438 73 427 119.562 427 177V393C427 428.346 398.346 457 363 457H210C174.654 457 146 428.346 146 393V177Z" fill="black"/>
</g>
<path fill-rule="evenodd" clip-rule="evenodd" d="M346.32 224.5C379.366 224.5 406.093 197.784 406.093 164.75C406.093 131.716 379.235 105 346.32 105C313.405 105 286.81 131.585 286.547 164.355C286.283 131.585 259.688 105 226.773 105C193.727 105 167 131.716 167 164.75C167 197.652 193.595 224.368 226.51 224.5C193.595 224.632 167 251.348 167 284.25C167 317.284 193.727 344 226.773 344C259.82 344 286.547 317.284 286.547 284.25C286.547 251.348 259.951 224.632 227.037 224.5C259.82 224.368 286.283 197.915 286.547 165.145C286.678 197.915 313.405 224.5 346.32 224.5Z" fill="white"/>
<path d="M346.321 343.999C379.333 343.999 406.094 317.248 406.094 284.249C406.094 251.25 379.333 224.499 346.321 224.499C313.309 224.499 286.548 251.25 286.548 284.249C286.548 317.248 313.309 343.999 346.321 343.999Z" fill="white"/>
<path d="M179.982 419H185.779V405.406H199.076V400.547H185.779V391.859H200.482V387H179.982V419ZM215.561 387H209.764V419H215.561V387ZM252.135 387H246.369V408.812H246.088L231.025 387H225.838V419H231.635V397.203H231.9L246.979 419H252.135V387ZM266.561 419L269.201 411.109H281.232L283.889 419H290.076L278.795 387H271.639L260.373 419H266.561ZM270.764 406.453L275.092 393.562H275.342L279.67 406.453H270.764ZM324.588 387H318.822V408.812H318.541L303.479 387H298.291V419H304.088V397.203H304.354L319.432 419H324.588V387ZM362.295 397.797C361.311 390.687 355.842 386.562 348.748 386.562C340.389 386.562 334.092 392.656 334.092 403C334.092 413.328 340.311 419.437 348.748 419.437C356.357 419.437 361.404 414.516 362.295 408.406L356.451 408.375C355.717 412.125 352.654 414.234 348.826 414.234C343.639 414.234 339.92 410.344 339.92 403C339.92 395.781 343.607 391.766 348.842 391.766C352.732 391.766 355.779 393.969 356.451 397.797H362.295ZM371.604 419H392.541V414.141H377.4V405.406H391.338V400.547H377.4V391.859H392.416V387H371.604V419Z" fill="white"/>
<defs>
<filter id="filter0_f_1003:690" x="96" y="23" width="381" height="484" filterUnits="userSpaceOnUse" color-interpolation-filters="sRGB">
<feFlood flood-opacity="0" result="BackgroundImageFix"/>
<feBlend mode="normal" in="SourceGraphic" in2="BackgroundImageFix" result="shape"/>
<feGaussianBlur stdDeviation="25" result="effect1_foregroundBlur_1003:690"/>
</filter>
</defs>
</svg>
