<svg width="16" height="16" viewBox="0 0 16 16" fill="none" xmlns="http://www.w3.org/2000/svg">
<path fill-rule="evenodd" clip-rule="evenodd" d="M12.992 3.92279L9.00804 1.60517C8.38426 1.24229 7.61574 1.24229 6.99196 1.60517L3.00804 3.92279C2.38426 4.28567 2 4.9563 2 5.68205V10.3173C2 11.0431 2.38426 11.7137 3.00804 12.0766L6.99196 14.3942C7.61574 14.7571 8.38426 14.7571 9.00804 14.3942L12.992 12.0766C13.6157 11.7137 14 11.0431 14 10.3173V5.68205C14 4.9563 13.6157 4.28567 12.992 3.92279ZM7.66399 2.77801C7.87191 2.65705 8.12809 2.65705 8.33601 2.77801L12.3199 5.09563C12.5279 5.21659 12.6559 5.44013 12.6559 5.68205V10.3173C12.6559 10.5592 12.5279 10.7828 12.3199 10.9037L8.33601 13.2213C8.12809 13.3423 7.87191 13.3423 7.66399 13.2213L3.68007 10.9037C3.47214 10.7828 3.34406 10.5592 3.34406 10.3173V5.68205C3.34406 5.44013 3.47214 5.21659 3.68007 5.09563L7.66399 2.77801ZM10.2231 7.04434C10.4417 6.74217 10.3759 6.31859 10.076 6.09825C9.77612 5.87792 9.35574 5.94426 9.13707 6.24644L7.698 8.23504L7.18285 7.57937C6.95247 7.28616 6.52981 7.23664 6.23881 7.46876C5.94782 7.70089 5.89867 8.12676 6.12904 8.41998L7.19309 9.77426C7.32345 9.94019 7.52331 10.0352 7.7333 10.031C7.94328 10.0268 8.13925 9.92391 8.26299 9.75291L10.2231 7.04434Z" fill="#83979F"/>
</svg>
