<svg
  width="1004"
  height="130"
  viewBox="0 0 1004 130"
  fill="none"
  xmlns="http://www.w3.org/2000/svg"
>
<path
    fill-rule="evenodd"
    clip-rule="evenodd"
    d="M152.5 19.5835C156.746 22.5408 160.792 25.913 164.579 29.7003L199.879 65.0001L164.579 100.3C160.792 104.087 156.747 107.459 152.5 110.417V19.5835ZM151.5 18.8973C136.738 8.91574 119.63 3.87688 102.5 3.7807V76.0077C111.105 76.2718 118 83.3307 118 92C118 100.669 111.105 107.728 102.5 107.992V126.219C119.63 126.123 136.738 121.084 151.5 111.103V18.8973ZM101.5 76.0077C92.8948 76.2718 86 83.3307 86 92C86 100.669 92.8948 107.728 101.5 107.992V126.219C84.3698 126.123 67.2623 121.084 52.5 111.103V69.9753C55.0267 69.7244 57 67.5927 57 65C57 62.4073 55.0267 60.2756 52.5 60.0247V18.8973C67.2623 8.91574 84.3698 3.87688 101.5 3.7807V76.0077ZM51.5 19.5835V60.0247C48.9733 60.2756 47 62.4073 47 65C47 67.5927 48.9733 69.7244 51.5 69.9753V110.417C47.2535 107.459 43.2084 104.087 39.4211 100.3L4.12132 65.0001L39.4211 29.7003C43.2083 25.9131 47.2535 22.5408 51.5 19.5835ZM166.7 27.579L202 62.8788L237.3 27.579C273.033 -8.15395 330.967 -8.15394 366.7 27.579L402 62.8788L437.3 27.579C473.033 -8.15394 530.967 -8.15395 566.7 27.579L602 62.8787L637.3 27.579C673.033 -8.15395 730.967 -8.15394 766.7 27.579L802 62.8788L837.3 27.579C873.033 -8.15394 930.967 -8.15395 966.7 27.579L1003.06 63.9394C1003.65 64.5252 1003.65 65.475 1003.06 66.0607L966.7 102.421C930.967 138.154 873.033 138.154 837.3 102.421L802 67.1214L766.7 102.421C730.967 138.154 673.033 138.154 637.3 102.421L602 67.1214L566.7 102.421C530.967 138.154 473.033 138.154 437.3 102.421L402 67.1214L366.7 102.421C330.967 138.154 273.033 138.154 237.3 102.421L202 67.1214L166.7 102.421C130.967 138.154 73.0327 138.154 37.2997 102.421L0.93934 66.0607C0.353553 65.475 0.353553 64.5252 0.93934 63.9394L37.2997 27.579C73.0327 -8.15394 130.967 -8.15395 166.7 27.579ZM239.421 100.3L204.121 65.0001L239.421 29.7003C243.208 25.913 247.254 22.5408 251.5 19.5835V37.0247C248.973 37.2756 247 39.4073 247 42C247 44.5927 248.973 46.7244 251.5 46.9753V110.417C247.253 107.459 243.208 104.087 239.421 100.3ZM252.5 46.9753V111.103C267.262 121.084 284.37 126.123 301.5 126.219V69.9753C298.973 69.7244 297 67.5927 297 65C297 62.4073 298.973 60.2756 301.5 60.0247V3.7807C284.37 3.87688 267.262 8.91574 252.5 18.8973V37.0247C255.027 37.2756 257 39.4073 257 42C257 44.5927 255.027 46.7244 252.5 46.9753ZM307 65C307 67.5927 305.027 69.7244 302.5 69.9753V126.219C319.63 126.123 336.738 121.084 351.5 111.103V18.8973C336.738 8.91574 319.63 3.87688 302.5 3.7807V60.0247C305.027 60.2756 307 62.4073 307 65ZM352.5 110.417C356.746 107.459 360.792 104.087 364.579 100.3L399.879 65.0001L364.579 29.7003C360.792 25.9131 356.746 22.5408 352.5 19.5835V110.417ZM439.421 100.3L404.121 65.0001L439.421 29.7003C443.208 25.9131 447.254 22.5408 451.5 19.5835V110.417C447.254 107.459 443.208 104.087 439.421 100.3ZM452.5 111.103C467.262 121.084 484.37 126.123 501.5 126.219V53.9923C492.895 53.7282 486 46.6693 486 38C486 29.3307 492.895 22.2718 501.5 22.0077V3.7807C484.37 3.87688 467.262 8.91574 452.5 18.8973V111.103ZM502.5 126.219V53.9923C511.105 53.7282 518 46.6693 518 38C518 29.3307 511.105 22.2718 502.5 22.0077V3.7807C519.63 3.87688 536.738 8.91574 551.5 18.8973V60.0247C548.973 60.2756 547 62.4073 547 65C547 67.5927 548.973 69.7244 551.5 69.9753V111.103C536.738 121.084 519.63 126.123 502.5 126.219ZM557 65C557 67.5927 555.027 69.7244 552.5 69.9753V110.417C556.747 107.459 560.792 104.087 564.579 100.3L599.879 65.0001L564.579 29.7003C560.792 25.913 556.747 22.5408 552.5 19.5835V60.0247C555.027 60.2756 557 62.4073 557 65ZM639.421 100.3L604.121 65.0001L639.421 29.7003C643.208 25.9131 647.254 22.5408 651.5 19.5835V110.417C647.254 107.459 643.208 104.087 639.421 100.3ZM652.5 111.103C667.262 121.084 684.37 126.123 701.5 126.219V69.9753C698.973 69.7244 697 67.5927 697 65C697 62.4073 698.973 60.2756 701.5 60.0247V3.7807C684.37 3.87688 667.262 8.91575 652.5 18.8973V111.103ZM702.5 69.9753C705.027 69.7244 707 67.5927 707 65C707 62.4073 705.027 60.2756 702.5 60.0247V3.7807C719.63 3.87688 736.738 8.91575 751.5 18.8973V83.0247C748.973 83.2756 747 85.4073 747 88C747 90.5927 748.973 92.7244 751.5 92.9753V111.103C736.738 121.084 719.63 126.123 702.5 126.219V69.9753ZM757 88C757 90.5927 755.027 92.7244 752.5 92.9753V110.417C756.746 107.459 760.792 104.087 764.579 100.3L799.879 65.0001L764.579 29.7003C760.792 25.9131 756.746 22.5408 752.5 19.5835V83.0247C755.027 83.2756 757 85.4073 757 88ZM839.421 100.3L804.121 65.0001L839.421 29.7003C843.208 25.9131 847.254 22.5408 851.5 19.5835V110.417C847.254 107.459 843.208 104.087 839.421 100.3ZM901.5 126.219C884.37 126.123 867.262 121.084 852.5 111.103V18.8973C867.262 8.91575 884.37 3.87688 901.5 3.7807V49.0077C892.895 49.2718 886 56.3307 886 65C886 73.6693 892.895 80.7282 901.5 80.9923V126.219ZM902.5 80.9923V126.219C919.63 126.123 936.738 121.084 951.5 111.103V69.9753C948.973 69.7244 947 67.5927 947 65C947 62.4073 948.973 60.2756 951.5 60.0247V18.8973C936.738 8.91575 919.63 3.87688 902.5 3.7807V49.0077C911.105 49.2718 918 56.3307 918 65C918 73.6693 911.105 80.7282 902.5 80.9923ZM952.5 69.9753C955.027 69.7244 957 67.5927 957 65C957 62.4073 955.027 60.2756 952.5 60.0247V19.5835C956.746 22.5408 960.792 25.9131 964.579 29.7003L999.879 65.0001L964.579 100.3C960.792 104.087 956.746 107.459 952.5 110.417V69.9753Z"
    fill="#42C37B"
  />
<path
    fill-rule="evenodd"
    clip-rule="evenodd"
    d="M902 56.75C899.929 56.75 898.25 58.4289 898.25 60.5V63H898C897.448 63 897 63.4477 897 64V70C897 70.5523 897.448 71 898 71H906C906.552 71 907 70.5523 907 70V64C907 63.4477 906.552 63 906 63H905.75V60.5C905.75 58.4289 904.071 56.75 902 56.75ZM904.25 63V60.5C904.25 59.2574 903.243 58.25 902 58.25C900.757 58.25 899.75 59.2574 899.75 60.5V63H904.25Z"
    fill="white"
  />
<path
    fill-rule="evenodd"
    clip-rule="evenodd"
    d="M502 29.75C499.929 29.75 498.25 31.4289 498.25 33.5V36H498C497.448 36 497 36.4477 497 37V43C497 43.5523 497.448 44 498 44H506C506.552 44 507 43.5523 507 43V37C507 36.4477 506.552 36 506 36H505.75V33.5C505.75 31.4289 504.071 29.75 502 29.75ZM504.25 36V33.5C504.25 32.2574 503.243 31.25 502 31.25C500.757 31.25 499.75 32.2574 499.75 33.5V36H504.25Z"
    fill="white"
  />
<path
    fill-rule="evenodd"
    clip-rule="evenodd"
    d="M102 83.75C99.9289 83.75 98.25 85.4289 98.25 87.5V90H98C97.4477 90 97 90.4477 97 91V97C97 97.5523 97.4477 98 98 98H106C106.552 98 107 97.5523 107 97V91C107 90.4477 106.552 90 106 90H105.75V87.5C105.75 85.4289 104.071 83.75 102 83.75ZM104.25 90V87.5C104.25 86.2574 103.243 85.25 102 85.25C100.757 85.25 99.75 86.2574 99.75 87.5V90H104.25Z"
    fill="white"
  />
</svg>
