<svg
  width="290"
  height="63"
  viewBox="0 0 290 63"
  fill="none"
  xmlns="http://www.w3.org/2000/svg"
>
<path
    fill-rule="evenodd"
    clip-rule="evenodd"
    d="M80.4206 13.3942C63.3141 -3.6529 35.6419 -3.6529 18.5353 13.3942L1.01092 30.8578C0.822632 31.0454 0.716797 31.3003 0.716797 31.5661C0.716797 31.832 0.822632 32.0868 1.01092 32.2745L18.5353 49.738C35.6419 66.7852 63.3141 66.7852 80.4207 49.738L97.2392 32.9779L114.058 49.738C131.164 66.7852 158.837 66.7852 175.943 49.738L192.762 32.9779L209.58 49.738C226.687 66.7852 254.359 66.7852 271.465 49.738L288.99 32.2745C289.178 32.0868 289.284 31.832 289.284 31.5661C289.284 31.3003 289.178 31.0454 288.99 30.8578L271.465 13.3942C254.359 -3.6529 226.687 -3.65289 209.58 13.3943L192.762 30.1544L175.943 13.3943C158.837 -3.65289 131.164 -3.6529 114.058 13.3942L97.2392 30.1544L80.4206 13.3942ZM79.0089 14.8109L95.8225 31.5661L79.0089 48.3214C77.3851 49.9395 75.6616 51.3967 73.8581 52.693V33.8933C74.9364 33.6639 75.7451 32.709 75.7451 31.566C75.7451 30.423 74.9364 29.4682 73.8581 29.2387V10.4393C75.6616 11.7356 77.3851 13.1928 79.0089 14.8109ZM70.969 31.566C70.969 30.4222 71.7787 29.4669 72.8581 29.2383V9.74246C65.966 5.08804 57.9945 2.71126 50 2.61212V11.0102C56.3955 11.2724 61.5 16.5401 61.5 23C61.5 29.4599 56.3955 34.7276 50 34.9898V60.5202C57.9945 60.421 65.966 58.0442 72.8581 53.3898V33.8938C71.7787 33.6651 70.969 32.7098 70.969 31.566ZM49 2.6116V11.0102C42.6045 11.2724 37.5 16.5401 37.5 23C37.5 29.4599 42.6045 34.7276 49 34.9898V60.5207C40.9903 60.4297 33.0017 58.0525 26.0966 53.389V9.74331C33.0017 5.07979 40.9903 2.70255 49 2.6116ZM19.9471 14.8109C21.5705 13.1931 23.2936 11.7362 25.0966 10.4402V52.6921C23.2936 51.396 21.5705 49.9391 19.9471 48.3214L3.13348 31.5661L19.9471 14.8109ZM115.469 48.3214L98.6559 31.5661L115.469 14.8109C117.093 13.1929 118.816 11.7359 120.62 10.4397V52.6926C118.816 51.3964 117.093 49.9393 115.469 48.3214ZM121.62 53.3894C128.518 58.0482 136.498 60.4252 144.499 60.5204V33.8933C143.421 33.664 142.612 32.7091 142.612 31.566C142.612 30.4229 143.421 29.468 144.499 29.2387V2.61187C136.498 2.70709 128.518 5.08408 121.62 9.74284V53.3894ZM145.499 33.8937C146.579 33.665 147.388 32.7097 147.388 31.566C147.388 30.4223 146.579 29.467 145.499 29.2383V2.61185C153.501 2.70672 161.481 5.08331 168.379 9.74161V40.1856C167.301 40.4149 166.492 41.3698 166.492 42.5129C166.492 43.656 167.301 44.6109 168.379 44.8402V53.3907C161.481 58.049 153.501 60.4256 145.499 60.5204V33.8937ZM171.268 42.5129C171.268 43.6566 170.459 44.6119 169.379 44.8406V52.6939C171.183 51.3974 172.907 49.9399 174.531 48.3214L191.345 31.5661L174.531 14.8109C172.907 13.1924 171.183 11.7349 169.379 10.4384V40.1852C170.459 40.4139 171.268 41.3692 171.268 42.5129ZM210.992 48.3214L194.178 31.5661L210.992 14.8109C212.615 13.1933 214.338 11.7366 216.141 10.4406V52.6917C214.338 51.3957 212.615 49.939 210.992 48.3214ZM240 60.5202C232.005 60.4209 224.033 58.0437 217.141 53.3886V9.74371C224.033 5.08862 232.005 2.71143 240 2.61214V28.0102C233.604 28.2724 228.5 33.5401 228.5 40C228.5 46.4599 233.604 51.7276 240 51.9898V60.5202ZM241 51.9898V60.5207C249.009 60.4299 256.997 58.0531 263.902 53.3902V33.8933C262.824 33.664 262.015 32.7091 262.015 31.566C262.015 30.4229 262.824 29.468 263.902 29.2387V9.74204C256.997 5.07921 249.009 2.7024 241 2.6116V28.0102C247.396 28.2724 252.5 33.5401 252.5 40C252.5 46.4599 247.396 51.7276 241 51.9898ZM264.902 33.8937C265.982 33.665 266.791 32.7097 266.791 31.566C266.791 30.4223 265.982 29.467 264.902 29.2383V10.4389C266.706 11.7352 268.43 13.1926 270.054 14.8109L286.867 31.5661L270.054 48.3214C268.43 49.9397 266.706 51.3971 264.902 52.6934V33.8937Z"
    fill="#42C37B"
  />
<path
    fill-rule="evenodd"
    clip-rule="evenodd"
    d="M240.5 31.75C238.429 31.75 236.75 33.4289 236.75 35.5V38H236.5C235.948 38 235.5 38.4477 235.5 39V45C235.5 45.5523 235.948 46 236.5 46H244.5C245.052 46 245.5 45.5523 245.5 45V39C245.5 38.4477 245.052 38 244.5 38H244.25V35.5C244.25 33.4289 242.571 31.75 240.5 31.75ZM242.75 38V35.5C242.75 34.2574 241.743 33.25 240.5 33.25C239.257 33.25 238.25 34.2574 238.25 35.5V38H242.75Z"
    fill="white"
  />
<path
    fill-rule="evenodd"
    clip-rule="evenodd"
    d="M49.5 14.75C47.4289 14.75 45.75 16.4289 45.75 18.5V21H45.5C44.9477 21 44.5 21.4477 44.5 22V28C44.5 28.5523 44.9477 29 45.5 29H53.5C54.0523 29 54.5 28.5523 54.5 28V22C54.5 21.4477 54.0523 21 53.5 21H53.25V18.5C53.25 16.4289 51.5711 14.75 49.5 14.75ZM51.75 21V18.5C51.75 17.2574 50.7426 16.25 49.5 16.25C48.2574 16.25 47.25 17.2574 47.25 18.5V21H51.75Z"
    fill="white"
  />
</svg>
