<svg width="19" height="19" viewBox="0 0 19 19" fill="none" xmlns="http://www.w3.org/2000/svg">
<path fill-rule="evenodd" clip-rule="evenodd" d="M14.0977 9.25781C16.5855 9.25781 18.5977 7.2457 18.5977 4.75781C18.5977 2.26993 16.5756 0.257812 14.0977 0.257812C11.6197 0.257812 9.61748 2.26002 9.59766 4.72808C9.57783 2.26002 7.57563 0.257812 5.09766 0.257812C2.60977 0.257812 0.597656 2.26993 0.597656 4.75781C0.597656 7.23579 2.59986 9.2479 5.07783 9.25781C2.59986 9.26772 0.597656 11.2798 0.597656 13.7578C0.597656 16.2457 2.60977 18.2578 5.09766 18.2578C7.58554 18.2578 9.59766 16.2457 9.59766 13.7578C9.59766 11.2798 7.59545 9.26772 5.11748 9.25781C7.58554 9.2479 9.57783 7.25561 9.59766 4.78755C9.60757 7.25561 11.6197 9.25781 14.0977 9.25781Z" fill="#06E594"/>
<path d="M14.0977 18.2577C16.5829 18.2577 18.5977 16.243 18.5977 13.7577C18.5977 11.2724 16.5829 9.25772 14.0977 9.25772C11.6124 9.25772 9.59766 11.2724 9.59766 13.7577C9.59766 16.243 11.6124 18.2577 14.0977 18.2577Z" fill="#06E594"/>
</svg>
