<svg width="46" height="46" viewBox="0 0 46 46" fill="none" xmlns="http://www.w3.org/2000/svg">
<circle cx="23" cy="23" r="22.5" stroke="white"/>
<path d="M19.168 12.5C19.168 11.9477 19.6157 11.5 20.168 11.5H25.8346C26.3869 11.5 26.8346 11.9477 26.8346 12.5V19.1667H19.168V12.5Z" fill="white"/>
<path d="M11.5 20.166C11.5 19.6137 11.9477 19.166 12.5 19.166H19.1667V26.8327H12.5C11.9477 26.8327 11.5 26.385 11.5 25.8327V20.166Z" fill="white"/>
<path d="M26.832 19.166H33.4987C34.051 19.166 34.4987 19.6137 34.4987 20.166V25.8327C34.4987 26.385 34.051 26.8327 33.4987 26.8327H26.832V19.166Z" fill="white"/>
<path d="M19.168 26.834H26.8346V33.5007C26.8346 34.0529 26.3869 34.5007 25.8346 34.5007H20.168C19.6157 34.5007 19.168 34.0529 19.168 33.5007V26.834Z" fill="white"/>
</svg>
