<svg width="24" height="24" viewBox="0 0 24 24" fill="none" xmlns="http://www.w3.org/2000/svg">
<circle cx="12" cy="12" r="11.8333" stroke="#0C0B0B" stroke-width="0.333333"/>
<path d="M10 6.52174C10 6.23359 10.2336 6 10.5217 6H13.4783C13.7664 6 14 6.23359 14 6.52174V10H10V6.52174Z" fill="#0C0B0B"/>
<path d="M6 10.5217C6 10.2336 6.23359 10 6.52174 10H10V14H6.52174C6.23359 14 6 13.7664 6 13.4783V10.5217Z" fill="#0C0B0B"/>
<path d="M14 10H17.4783C17.7664 10 18 10.2336 18 10.5217V13.4783C18 13.7664 17.7664 14 17.4783 14H14V10Z" fill="#0C0B0B"/>
<path d="M10 14H14V17.4783C14 17.7664 13.7664 18 13.4783 18H10.5217C10.2336 18 10 17.7664 10 17.4783V14Z" fill="#0C0B0B"/>
</svg>
