<svg width="133" height="29" viewBox="0 0 133 29" fill="none" xmlns="http://www.w3.org/2000/svg">
<path d="M12.1938 14.9486C12.1938 15.7026 12.7518 16.3058 13.4492 16.3058C14.1467 16.3058 14.7046 15.7026 14.7046 14.9486C14.7046 14.1947 14.1467 13.5915 13.4492 13.5915C12.7518 13.5915 12.1938 14.1947 12.1938 14.9486ZM22.7949 13.5915C22.0974 13.5915 21.5395 14.1947 21.5395 14.9486C21.5395 15.7026 22.0974 16.3058 22.7949 16.3058C23.4923 16.3058 24.0503 15.7026 24.0503 14.9486C24.0503 14.1947 23.4923 13.5915 22.7949 13.5915ZM22.7949 23.8456C22.0974 23.8456 21.5395 24.4487 21.5395 25.2027C21.5395 25.9567 22.0974 26.5599 22.7949 26.5599C23.4923 26.5599 24.0503 25.9567 24.0503 25.2027C24.0503 24.4487 23.4923 23.8456 22.7949 23.8456Z" fill="black"/>
<path d="M25.4454 2.35967C24.1901 0.700918 21.9583 0.625519 20.6331 1.90728L20.4936 2.05808L20.2147 2.28427C18.9593 3.41524 17.0762 3.26444 15.8906 2.05808C15.4721 1.60569 14.9839 1.3041 14.426 1.1533C14.3562 1.1533 14.2167 1.07791 14.147 1.07791H12.8916C12.8219 1.07791 12.7521 1.07791 12.6824 1.1533H12.4034C12.3337 1.1533 12.2639 1.2287 12.1942 1.2287C12.1942 1.2287 12.1244 1.2287 12.1244 1.3041C12.0547 1.3041 11.985 1.3795 11.9152 1.3795C11.9152 1.3795 11.8455 1.3795 11.8455 1.4549C11.7757 1.53029 11.706 1.53029 11.6362 1.60569C11.6362 1.60569 11.5665 1.60569 11.5665 1.68109C11.4968 1.75649 11.427 1.75649 11.3573 1.83188L11.2875 1.90728L11.148 2.05808L10.8691 2.28427C9.61368 3.41524 7.73061 3.26444 6.68446 2.05808C6.68446 2.05808 6.61471 2.05808 6.61471 1.98268L6.12651 1.90728C5.6383 1.45489 5.08036 1.1533 4.52241 1.07791H3.12754C3.12754 1.1533 3.0578 1.15331 2.98806 1.2287C2.56959 1.3795 2.22088 1.53029 1.87216 1.90728L1.80242 1.98268L1.59319 2.20887C1.31421 2.51046 1.10498 2.96285 0.965497 3.33984C0.965497 3.41524 0.895753 3.49064 0.895753 3.56603C0.895753 3.64143 0.826009 3.71683 0.826009 3.86763C0.756266 4.47081 0.756266 5.07399 0.895753 5.60177C0.895753 5.67717 0.965497 5.75257 0.965497 5.82797V5.90336C0.965497 5.97876 1.03524 6.05416 1.03524 6.12956C1.10498 6.20496 1.10498 6.28036 1.17473 6.43115C1.31421 6.50655 1.4537 6.65734 1.59319 6.73274L1.73267 6.88354L1.87216 7.03433C3.0578 8.31609 3.0578 10.5026 1.80242 11.8598C1.66293 12.0106 1.38396 12.3122 1.31421 12.463C1.24447 12.5384 1.24447 12.6138 1.17473 12.7646V12.84C1.10498 12.9154 1.10498 12.9908 1.03524 13.0662V13.1416C1.03524 13.2169 0.965497 13.2923 0.965497 13.3677V13.4431C0.965497 13.5185 0.965497 13.5939 0.895753 13.6693V14.9511C0.895753 15.0265 0.895753 15.1019 0.965497 15.1773V15.2527C1.10498 15.8559 1.4537 16.4591 1.87216 16.9114C3.12754 18.2686 3.12754 20.4551 1.87216 21.8123L1.80242 21.8877L1.66293 22.0385V22.1139C1.59319 22.1893 1.52344 22.2647 1.52344 22.3401C1.52344 22.3401 1.52344 22.4155 1.4537 22.4155C1.24447 23.1695 1.24447 23.2449 1.17473 23.3203L1.10498 23.3957C1.10498 23.4711 1.03524 23.4711 1.03524 23.5464C1.03524 23.6218 0.965497 23.6218 0.965497 23.6972C0.965497 23.7726 0.965497 23.7726 0.895753 23.848C0.756266 24.1496 0.686523 24.602 0.686523 24.979V25.6576C0.756267 25.8838 0.756266 26.1854 0.895753 26.3362C0.895753 26.4116 0.965497 26.487 0.965497 26.487C0.965497 26.487 0.965497 26.5624 1.03524 26.5624C1.03524 26.6378 1.10498 26.7132 1.10498 26.7886C1.10498 26.7886 1.10498 26.864 1.17473 26.864C1.24447 27.0147 1.31421 27.0901 1.38396 27.1655C1.38396 27.1655 1.38396 27.2409 1.4537 27.2409C1.4537 27.2409 1.4537 27.3163 1.52344 27.3163C1.52344 27.3917 1.59319 27.3917 1.59319 27.3917L1.66293 27.4671C1.73267 27.5425 1.80242 27.5425 1.80242 27.6179L1.87216 27.6933C1.87216 27.6933 1.9419 27.6933 1.9419 27.7687C2.01165 27.8441 2.08139 27.9195 2.15113 27.9195C2.15113 27.9195 2.22088 27.9195 2.22088 27.9949C2.29062 28.0703 2.36037 28.0703 2.43011 28.1457H2.49985C2.56959 28.2211 2.63934 28.2211 2.77883 28.2211C2.84857 28.2211 2.98806 28.2965 3.0578 28.2965H3.12754C3.19729 28.2965 3.26703 28.2965 3.33677 28.3719H4.03421C4.24344 28.3719 4.45267 28.2965 4.6619 28.2965H4.73164C4.80138 28.2965 4.87113 28.2211 4.94087 28.2211H5.01061C5.08036 28.2211 5.1501 28.1457 5.21984 28.1457H5.28959C5.42907 28.0703 5.70805 27.9195 5.84754 27.8441L6.05677 27.6179L6.12651 27.5425C7.38189 26.11 9.40445 26.11 10.6598 27.5425C12.0547 29.1259 14.426 29.0505 15.7511 27.3163C16.6578 26.0346 16.6578 24.225 15.7511 22.8679C14.4957 21.2091 12.2639 21.1337 10.9388 22.4155L10.7993 22.5663L10.5203 22.7925C9.26496 23.9234 7.38189 23.7726 6.19625 22.5663L6.05677 22.4155L5.84754 22.1139C4.80138 20.7567 4.94087 18.721 6.05677 17.4392C6.7542 16.7606 7.10292 15.8559 7.10292 14.8757C7.10292 14.0463 6.82394 13.217 6.19625 12.6138C6.19625 12.5384 6.12651 12.5384 6.12651 12.463L5.91728 12.1614C4.87113 10.8042 5.01061 8.76848 6.12651 7.48672L6.19625 7.41132L6.266 7.33592C7.52138 5.90337 9.54394 5.90337 10.7993 7.33592L10.8691 7.41132L10.9388 7.48672L11.0783 7.63752C11.148 7.63752 11.148 7.71291 11.2178 7.71291C11.2875 7.71291 11.2875 7.78831 11.3573 7.78831C11.427 7.78831 11.427 7.86371 11.4968 7.86371C11.5665 7.86371 11.5665 7.93911 11.6362 7.93911C11.706 7.93911 11.706 8.0145 11.7757 8.0145C11.8455 8.0145 11.8455 8.0899 11.9152 8.0899C11.985 8.0899 11.985 8.0899 12.0547 8.1653C12.1244 8.1653 12.1244 8.1653 12.1942 8.24069H13.5193C13.5891 8.24069 13.6588 8.2407 13.7285 8.1653H13.868C13.9378 8.1653 14.0075 8.0899 14.0773 8.0899H14.147C14.2167 8.0899 14.2865 8.01451 14.426 7.93911C14.7049 7.78831 15.0537 7.48672 15.2629 7.26053L15.3326 7.18513C16.588 5.75257 18.6106 5.75257 19.866 7.18513C21.1911 8.84388 23.6321 8.76848 24.8875 7.03433C26.3521 5.52637 26.3521 3.64143 25.4454 2.35967Z" fill="black"/>
<path d="M43.2302 12.8388C42.742 12.311 42.3932 12.0094 41.8353 11.7078C41.3471 11.4816 40.7891 11.2554 40.0917 11.2554C39.464 11.2554 38.8363 11.4062 38.3481 11.7078C37.8599 11.934 37.5112 12.311 37.1625 12.8388C36.8835 13.2912 36.6045 13.7436 36.465 14.3468C36.3255 14.9499 36.2558 15.5531 36.2558 16.0809C36.2558 16.6841 36.3255 17.2873 36.5348 17.8151C36.6743 18.4182 37.023 18.7952 37.302 19.2476C37.5809 19.7 38.0691 20.0016 38.5573 20.2278C39.0455 20.454 39.6035 20.5294 40.1614 20.5294C40.8589 20.5294 41.4168 20.3786 41.905 20.077C42.3932 19.8508 42.8117 19.4738 43.2302 18.946L44.8343 20.831C44.2066 21.5849 43.5091 22.1127 42.742 22.4143C41.9748 22.7159 41.1379 22.9421 40.1614 22.9421C39.2548 22.9421 38.2784 22.7913 37.5112 22.4143C36.744 22.1127 36.0466 21.5849 35.4886 20.9818C34.9307 20.3786 34.4425 19.6246 34.1635 18.7952C33.8845 17.9658 33.6753 16.9103 33.6753 15.9301C33.6753 14.9499 33.8148 13.8944 34.1635 13.065C34.4425 12.2356 34.9307 11.4816 35.4886 10.8031C36.0466 10.1999 36.744 9.6721 37.5112 9.37051C38.2784 9.06891 39.2548 8.84272 40.1614 8.84272C41.0681 8.84272 41.9748 8.99352 42.742 9.37051C43.5789 9.6721 44.2763 10.2753 44.904 10.9539L43.2302 12.8388ZM48.5307 16.0055C48.5307 16.6841 48.6004 17.3627 48.8096 17.8904C48.9491 18.4936 49.2979 19.0214 49.5768 19.3984C49.8558 19.8508 50.344 20.1524 50.8322 20.3032C51.3204 20.5294 51.9481 20.6048 52.5758 20.6048C53.2035 20.6048 53.7614 20.5294 54.3194 20.3032C54.8076 20.077 55.2261 19.7 55.5748 19.3984C55.8538 18.946 56.2025 18.4936 56.342 17.8904C56.4814 17.2873 56.6209 16.6841 56.6209 16.0055C56.6209 15.3269 56.5512 14.6483 56.342 14.1206C56.2025 13.5174 55.8538 12.9896 55.5748 12.6126C55.2958 12.1602 54.8076 11.8586 54.3194 11.7078C53.8312 11.4816 53.2035 11.4062 52.5758 11.4062C51.9481 11.4062 51.3902 11.4816 50.8322 11.7078C50.344 11.934 49.9255 12.311 49.5768 12.6126C49.2979 13.065 48.9491 13.5174 48.8096 14.1206C48.6702 14.7237 48.5307 15.3269 48.5307 16.0055ZM46.0199 16.0055C46.0199 15.0253 46.1594 14.0452 46.5081 13.2158C46.7871 12.3864 47.2753 11.6324 47.903 10.9539C48.5307 10.2753 49.1584 9.7475 49.9953 9.44591C50.7625 9.14432 51.5994 8.84272 52.5758 8.84272C53.5522 8.84272 54.3891 8.99352 55.1563 9.44591C55.9235 9.7475 56.6209 10.2753 57.2486 10.9539C57.8763 11.6324 58.2948 12.3864 58.6435 13.2158C58.9225 14.0452 59.1317 14.9499 59.1317 16.0055C59.1317 16.9857 58.9922 17.9658 58.6435 18.7952C58.3645 19.6246 57.8763 20.3786 57.2486 21.0571C56.6209 21.7357 55.9932 22.1881 55.1563 22.5651C54.3891 22.9421 53.5522 23.1683 52.5758 23.1683C51.6691 23.1683 50.7625 23.0175 49.9953 22.5651C49.2281 22.2635 48.5307 21.7357 47.903 21.0571C47.2753 20.3786 46.8568 19.7 46.5081 18.7952C46.2989 17.8904 46.0199 16.9857 46.0199 16.0055ZM61.5727 22.7913H63.944V9.29511H61.5727V22.7913ZM61.0148 4.39426C61.0148 3.86647 61.1543 3.48949 61.503 3.0371C61.782 2.73551 62.2004 2.43392 62.6886 2.43392C63.1768 2.43392 63.5255 2.58471 63.8743 3.0371C64.1532 3.33869 64.3625 3.86647 64.3625 4.39426C64.3625 4.92204 64.223 5.29903 63.8743 5.75142C63.5953 6.05301 63.1768 6.3546 62.6886 6.3546C62.2004 6.3546 61.8517 6.2038 61.503 5.75142C61.1543 5.44983 61.0148 4.92204 61.0148 4.39426ZM67.1522 9.29511H69.5235V11.4062H69.5932C69.8722 10.6523 70.3604 10.0491 71.1276 9.6721C71.825 9.21971 72.662 8.99352 73.7081 8.99352C74.3358 8.99352 74.8937 9.06892 75.4517 9.29511C76.0096 9.4459 76.4978 9.8229 76.8466 10.1999C77.265 10.6523 77.544 11.1047 77.8927 11.7832C78.1019 12.4618 78.3112 13.2158 78.3112 14.1206V22.7913H75.9399V14.8745C75.9399 14.2714 75.8702 13.6682 75.7307 13.2912C75.5912 12.8388 75.3122 12.4618 75.103 12.1602C74.8937 11.934 74.545 11.6324 74.1963 11.557C73.9173 11.4816 73.4989 11.4062 73.0804 11.4062C72.5922 11.4062 72.1737 11.4816 71.7553 11.6324C71.3368 11.7832 70.9881 12.0848 70.6394 12.4618C70.3604 12.7634 70.0814 13.2912 69.942 13.8944C69.8025 14.4975 69.7327 15.1761 69.7327 15.9301V22.9421H67.3614V9.29511H67.1522ZM86.9594 20.6802C87.5871 20.6802 88.145 20.6048 88.703 20.3786C89.2609 20.1524 89.6096 19.7754 90.0281 19.3984C90.3071 18.946 90.6558 18.4936 90.7953 17.8904C90.9348 17.2873 91.0743 16.6841 91.0743 15.9301C91.0743 15.2515 91.0045 14.573 90.7953 13.9698C90.6558 13.3666 90.3071 12.8388 90.0281 12.4618C89.6096 12.0094 89.2609 11.7078 88.703 11.4816C88.145 11.2555 87.5871 11.1801 86.9594 11.1801C86.3317 11.1801 85.7737 11.2555 85.2158 11.4816C84.6578 11.7078 84.3091 12.0848 83.8907 12.4618C83.6117 12.9142 83.263 13.3666 83.1235 13.9698C82.984 14.573 82.8445 15.1761 82.8445 15.9301C82.8445 16.6087 82.9143 17.2873 83.1235 17.8904C83.263 18.4936 83.6117 19.0214 83.8907 19.3984C84.1696 19.8508 84.6578 20.1524 85.2158 20.3786C85.704 20.5294 86.3317 20.6802 86.9594 20.6802ZM93.4455 22.7159H91.0743V20.7556H91.0045C90.5163 21.5095 89.8886 22.0373 89.1214 22.4143C88.3543 22.8667 87.5173 23.0175 86.6107 23.0175C85.704 23.0175 84.7276 22.8667 83.9604 22.4897C83.1932 22.1881 82.4958 21.6603 81.9378 20.9818C81.3799 20.3032 80.8917 19.5492 80.6825 18.7198C80.4035 17.8904 80.1943 16.9857 80.1943 15.9301C80.1943 14.8745 80.3337 13.9698 80.6825 13.065C80.9614 12.2356 81.3799 11.4816 81.9378 10.8031C82.4958 10.1245 83.1932 9.5967 83.9604 9.29511C84.7276 8.99352 85.5645 8.76733 86.6107 8.76733C87.4476 8.76733 88.3543 8.91812 89.1214 9.37051C89.8886 9.82289 90.5163 10.3507 90.9348 11.0293H91.0045V0.925964H93.3758V22.7159H93.4455ZM105.372 14.8745C105.372 14.2714 105.302 13.7436 105.162 13.2912C105.023 12.7634 104.744 12.3864 104.465 12.0094C104.186 11.7078 103.768 11.4062 103.349 11.1801C102.861 11.0293 102.442 10.8785 101.815 10.8785C101.257 10.8785 100.699 10.9539 100.28 11.1801C99.7922 11.4062 99.4435 11.7078 99.025 12.0848C98.746 12.3864 98.3973 12.8388 98.2579 13.3666C98.1184 13.8944 97.9789 14.2714 97.9789 14.7237H105.511L105.372 14.8745ZM97.9091 16.9857C97.9091 17.5889 98.0486 18.1166 98.3276 18.569C98.5368 19.0968 98.8855 19.4738 99.2343 19.8508C99.6527 20.1524 100.071 20.454 100.559 20.6048C101.117 20.7556 101.606 20.831 102.094 20.831C102.791 20.831 103.489 20.6802 104.047 20.2278C104.605 19.9262 105.093 19.3984 105.511 18.7952L107.325 20.3032C105.999 22.1881 104.116 23.0929 101.815 23.0929C100.769 23.0929 99.9317 22.9421 99.1645 22.5651C98.3973 22.2635 97.6999 21.7357 97.1419 21.0571C96.584 20.3786 96.0958 19.7 95.8866 18.7952C95.6076 17.9658 95.3984 17.0611 95.3984 16.0055C95.3984 15.0253 95.5378 14.0452 95.8866 13.2158C96.1655 12.3864 96.6538 11.6324 97.2117 10.9539C97.7696 10.2753 98.4671 9.8229 99.2343 9.44591C100.001 9.14432 100.838 8.91812 101.815 8.91812C102.931 8.91812 103.837 9.06892 104.605 9.5213C105.372 9.97369 105.999 10.4261 106.488 11.1047C106.976 11.7832 107.325 12.5372 107.603 13.3666C107.813 14.196 107.882 15.0253 107.882 16.0055V16.9103H97.9091V16.9857ZM117.089 12.688C116.81 12.3864 116.461 12.0094 116.042 11.7832C115.624 11.557 115.136 11.3308 114.578 11.3308C114.02 11.3308 113.532 11.4816 113.113 11.7832C112.695 12.0094 112.486 12.3864 112.486 12.9142C112.486 13.3666 112.625 13.6682 112.904 13.819C113.113 14.0452 113.462 14.2714 113.741 14.4222C114.02 14.573 114.438 14.6483 114.787 14.7237C115.206 14.7991 115.485 14.8745 115.694 14.8745C116.182 15.0253 116.74 15.1007 117.089 15.4023C117.577 15.5531 117.926 15.8547 118.274 16.1563C118.553 16.4579 118.832 16.8349 119.041 17.2873C119.181 17.7397 119.32 18.192 119.32 18.8706C119.32 19.6246 119.181 20.3032 118.832 20.831C118.553 21.3587 118.135 21.8111 117.647 22.1881C117.158 22.5651 116.6 22.7913 116.042 22.9421C115.415 23.0929 114.787 23.1683 114.229 23.1683C113.183 23.1683 112.276 23.0175 111.509 22.6405C110.742 22.3389 110.045 21.7357 109.417 20.7556L111.23 19.1722C111.649 19.6246 111.997 19.9262 112.486 20.3032C112.974 20.6048 113.532 20.831 114.229 20.831C114.508 20.831 114.857 20.831 115.136 20.7556C115.415 20.6802 115.694 20.6048 115.903 20.454C116.112 20.3032 116.321 20.1524 116.461 19.9262C116.6 19.7 116.67 19.3984 116.67 19.1722C116.67 18.8706 116.6 18.4936 116.391 18.2674C116.182 18.0412 115.903 17.815 115.624 17.6643C115.345 17.5135 114.996 17.4381 114.717 17.3627L113.811 17.1365C113.322 16.9857 112.765 16.9103 112.416 16.6841C111.928 16.5333 111.579 16.2317 111.23 16.0055C110.951 15.7793 110.602 15.3269 110.393 14.8745C110.184 14.4222 110.114 13.8944 110.114 13.2912C110.114 12.6126 110.254 11.934 110.533 11.4062C110.742 10.8785 111.16 10.5015 111.649 10.1245C112.137 9.82289 112.555 9.5213 113.113 9.37051C113.671 9.21971 114.299 9.14432 114.857 9.14432C115.694 9.14432 116.461 9.29511 117.298 9.6721C118.065 9.97369 118.693 10.5769 119.181 11.3308L117.089 12.688ZM121.622 1.30295H123.993V14.9499L129.294 9.21971H132.502L126.783 15.3269L132.99 22.5651H129.642L123.993 15.6285V22.5651H121.622V1.30295Z" fill="black"/>
</svg>
