<svg width="69" height="69" viewBox="0 0 69 69" fill="none" xmlns="http://www.w3.org/2000/svg">
<circle cx="34.5" cy="34.5" r="34.5" fill="url(#paint0_linear_82_181)"/>
<path fill-rule="evenodd" clip-rule="evenodd" d="M40.4788 35.511C38.547 37.4428 35.4149 37.4428 33.4831 35.511C33.0926 35.1205 32.4594 35.1205 32.0689 35.511C31.6784 35.9015 31.6784 36.5347 32.0689 36.9252C34.7818 39.6381 39.1802 39.638 41.893 36.9252L50.4963 28.3219C53.2092 25.609 53.2092 21.2106 50.4963 18.4978C47.7835 15.7849 43.3851 15.7849 40.6722 18.4978L32.3022 26.8678C31.9117 27.2583 31.9117 27.8915 32.3022 28.282C32.6927 28.6726 33.3259 28.6725 33.7164 28.282L42.0864 19.912C44.0182 17.9802 47.1503 17.9802 49.0821 19.912C51.0139 21.8438 51.0139 24.9759 49.0821 26.9077L40.4788 35.511ZM28.6928 33.7214C30.6246 31.7896 33.7567 31.7896 35.6885 33.7214C36.079 34.112 36.7122 34.112 37.1027 33.7214C37.4933 33.3309 37.4933 32.6978 37.1027 32.3072C34.3899 29.5944 29.9915 29.5944 27.2786 32.3072L18.8662 40.7197C16.1533 43.4325 16.1533 47.8309 18.8662 50.5438C21.579 53.2566 25.9774 53.2566 28.6903 50.5438L36.9192 42.3148C37.3098 41.9243 37.3098 41.2911 36.9192 40.9006C36.5287 40.5101 35.8955 40.5101 35.505 40.9006L27.2761 49.1296C25.3443 51.0614 22.2122 51.0614 20.2804 49.1296C18.3486 47.1978 18.3486 44.0657 20.2804 42.1339L28.6928 33.7214Z" fill="black"/>
<defs>
<linearGradient id="paint0_linear_82_181" x1="69" y1="-2.05636e-06" x2="2.05636e-06" y2="69" gradientUnits="userSpaceOnUse">
<stop offset="0.395833" stop-color="#A9FFE0"/>
<stop offset="1" stop-color="#86D5FF"/>
</linearGradient>
</defs>
</svg>
