<svg width="85" height="85" viewBox="0 0 85 85" fill="none" xmlns="http://www.w3.org/2000/svg">
<circle cx="42.4998" cy="42.5" r="42.5" fill="#06E594"/>
<mask id="mask0_2_321" style="mask-type:alpha" maskUnits="userSpaceOnUse" x="-1" y="0" width="86" height="85">
<circle cx="42.4998" cy="42.5" r="42.5" fill="#4671E9"/>
</mask>
<g mask="url(#mask0_2_321)">
<path d="M51.5401 54.1502C50.2725 56.387 51.0119 60.3637 51.5401 62.0724L39.7967 59.3695L37.6531 49.3037L51.5401 54.1502Z" fill="#C4C4C4"/>
<path d="M33.366 29.079C35.6028 29.1535 38.3989 31.844 39.5173 33.1799C35.2922 28.1159 27.6621 17.0559 30.9428 13.3279C35.0436 8.66778 42.4998 5.87173 51.6335 7.64256C60.7673 9.41339 62.911 17.0559 63.843 19.9452C64.775 22.8344 65.1478 32.7138 65.241 37.8399C65.3342 42.966 62.6314 52.193 61.7925 53.8706C60.9537 55.5483 59.0897 57.4123 56.5732 57.5987C54.0568 57.7851 48.4647 56.2939 45.855 55.2687C43.7673 54.4485 40.76 52.2551 39.5173 51.261C40.294 52.4726 42.2388 55.3246 43.8046 57.0395C45.3704 58.7544 49.6763 61.2336 51.6335 62.2588V64.9616L47.8122 68.5965C39.4552 69.5907 23.3561 70.9825 25.8166 68.5965C28.8923 65.6141 33.366 55.3619 33.366 52.8454V42.1272C32.9 41.7233 31.5951 40.7292 30.1039 39.9836C28.2399 39.0516 27.7739 35.2303 27.8671 33.1799C27.9603 31.1294 30.5699 28.9858 33.366 29.079Z" fill="white"/>
<path d="M40.5425 66.3594C44.2706 66.6577 49.4899 65.8002 51.6335 65.3342V69.5283C51.6335 70.4603 54.2432 75.6796 56.5732 78.196C58.4372 80.2092 59.8974 82.3901 60.3945 83.2289L45.1094 89.1938L17.4285 82.4833C17.8634 81.3338 18.7892 78.7366 19.0129 77.5436C19.2925 76.0524 19.1993 74.6544 21.8089 72.5107C23.8967 70.7958 27.4011 65.707 28.8923 63.377C31.2223 64.2468 36.8144 66.0612 40.5425 66.3594Z" fill="black"/>
<path d="M44.7367 20.4109C44.5813 22.8652 43.6928 28.1839 42.127 30.1971C40.5612 32.2103 39.6727 32.8378 39.4241 32.9L33.366 42.9658C33.366 42.9658 33.9253 49.583 33.366 53.7772C32.8068 57.9713 30.1972 62.6314 30.1972 62.6314C29.6566 63.0081 22.3347 74.1537 19.9998 74C17.9062 73.8622 18.0572 67.9935 16.9998 67.5C14.2037 66.1952 7.77937 63.5077 7.49977 59.5C7.22016 55.4923 6.98994 54.2432 8.38797 50.2355C9.786 46.2278 13.3277 42.6861 14.4461 41.1949C15.5645 39.7037 16.0524 35.422 16.6829 32.9C17.8946 28.0534 19.6654 25.6302 22.1818 20.9701C23.6619 18.2293 26.0031 15.6576 27.4011 14.1664C28.7992 12.6752 32.9 9.41311 34.8573 9.97231C34.8573 9.31991 37.5601 7.64226 40.4494 6.80344C43.3386 5.96463 52.9384 5.49862 58.9965 9.97231C63.843 13.5513 64.309 17.4284 63.9362 18.9197C62.5382 18.3915 58.3814 17.1488 52.9384 16.4032C47.4954 15.6576 45.2027 18.7643 44.7367 20.4109Z" fill="#303030"/>
<path d="M33.0975 28.523C35.3343 28.5975 38.3056 31.751 39.424 33.0869L33.7387 43.0595C33.2727 42.6556 31.1598 40.4403 29.8354 39.4275C27.0282 37.281 27.5054 34.6743 27.5986 32.6238C27.6918 30.5734 30.3014 28.4298 33.0975 28.523Z" fill="white"/>
<path fill-rule="evenodd" clip-rule="evenodd" d="M37.9891 45.4231L33.4924 40.3836C33.2182 40.0764 33.2451 39.6051 33.5523 39.3309C33.8596 39.0567 34.3309 39.0836 34.6051 39.3908L39.1018 44.4302C39.5801 44.9662 39.6082 45.7671 39.1687 46.3353L34.724 52.0828C34.132 52.8484 32.9788 52.856 32.3768 52.0982L27.9233 46.4929C27.4992 45.9591 27.4911 45.2057 27.9036 44.6629L31.0946 40.4642L32.1543 41.4746L29.0908 45.5653L33.5444 51.1706L37.9891 45.4231Z" fill="#00004D"/>
</g>
</svg>
