<svg width="85" height="85" viewBox="0 0 85 85" fill="none" xmlns="http://www.w3.org/2000/svg">
<circle cx="42.5" cy="42.5" r="42.5" fill="#06E594"/>
<mask id="mask0_90_333" style="mask-type:alpha" maskUnits="userSpaceOnUse" x="0" y="0" width="85" height="85">
<circle cx="42.5" cy="42.5" r="42.5" fill="#4671E9"/>
</mask>
<g mask="url(#mask0_90_333)">
<path d="M32.5273 56.4795C33.4966 59.3128 29.4827 60.9842 29.0789 62.6308L46.0416 69.4345V59.4619L32.5273 56.4795Z" fill="#C4C4C4"/>
<path d="M53.6843 58.0645C53.2369 56.946 53.4979 54.0568 53.6843 52.752C52.7212 53.9946 49.9189 57.2443 46.4145 60.3013C42.9102 63.3583 34.3915 65.1478 30.8499 63.377C31.6576 66.2662 35.1404 76.4254 42 76.5C48.8596 76.5746 54.4299 71 54.4299 60.3013C54.3678 60.0217 54.1316 59.1829 53.6843 58.0645Z" fill="white"/>
<path d="M25.1644 14.1662C24.2696 15.2846 24.1081 18.4224 24.1391 19.8515C22.1819 20.7835 21.8091 23.7659 21.8091 26.2824C21.8091 28.7988 22.7411 33.0861 23.0207 33.8317C23.3003 34.5773 25.2575 45.7615 25.3507 48.3712C25.444 50.9808 26.4692 52.8449 27.4012 54.1497C28.3332 55.4545 31.7817 58.5302 34.1117 60.1146C36.4418 61.699 38.0262 62.631 41.3814 62.5378C44.7367 62.4446 46.4143 60.6738 49.3968 58.5302C52.3793 56.3865 56.3869 51.4468 56.3869 50.5148V44.3635L58.8102 33.1793C59.0898 31.9366 59.649 28.892 59.649 26.6552C59.649 24.4183 59.0898 21.7466 58.8102 20.6903C60.115 19.8515 59.8354 18.267 59.649 15.2846C59.4626 12.3021 55.0821 9.78571 52.9385 8.66728C50.7948 7.54886 48.8376 7.54881 46.4143 7.54883C43.5236 7.54885 40.4494 9.50607 38.7718 10.7177C37.0942 11.9293 37.0942 12.7682 35.4165 12.0225C33.7389 11.2769 31.3157 11.2769 29.8244 11.1837C28.3332 11.0905 26.2828 12.7681 25.1644 14.1662Z" fill="black"/>
<path d="M26.4693 21.8088V36.1619C25.9722 35.2298 24.7917 33.3658 24.0461 33.3658C23.1141 33.3658 21.9956 33.3658 21.3432 34.0182C20.6908 34.6706 19.7588 36.6279 19.7588 38.0259C19.7588 39.4239 20.4112 41.0084 21.3432 42.4064C22.2752 43.8044 24.1393 44.2704 25.3509 44.2704C26.3202 44.2704 27.246 43.7733 27.5877 43.5248C27.8363 44.6432 28.4266 47.0478 28.7994 47.7189C29.2654 48.5577 30.1974 49.5829 31.3158 49.5829C32.4342 49.5829 32.9934 49.0237 34.2983 48.2781C35.6031 47.5325 38.1195 46.4141 41.2884 46.4141C44.4573 46.4141 47.5329 48.6509 49.3037 49.5829C51.0746 50.5149 51.8202 49.5829 52.7522 48.6509C53.4978 47.9053 54.1192 44.6743 54.3366 43.152L55.0822 43.5248C55.2376 43.7112 55.6974 44.1213 56.2939 44.2704C57.0395 44.4568 57.6919 44.55 60.0219 43.152C62.352 41.754 62.2588 38.2123 62.1656 37.1871C62.0724 36.1619 61.5132 33.7386 58.9035 33.3658C56.8158 33.0676 55.4861 35.7891 55.0822 37.1871V21.5292L50.8882 20.97C48.0921 20.5972 46.4145 22.0884 45.5757 22.4612C44.7369 22.834 42.966 24.3252 41.2884 24.6048C39.6108 24.8845 37.9331 24.1388 36.1623 23.1136C34.3915 22.0884 31.1294 20.97 29.8246 20.97C28.7807 20.97 27.1528 21.5292 26.4693 21.8088Z" fill="white"/>
<ellipse cx="40.8221" cy="52.5652" rx="4.47368" ry="2.60965" fill="white"/>
<path d="M9.69287 70.7396C11.3332 69.994 22.679 64.7126 28.1468 62.165L32.2477 70.5532C33.5749 71.5532 35.6059 73.6975 37.467 74.8405C38.7861 75.6506 40.1101 75.6793 40.6359 75.6793H44.5503L47.5328 77.0773L57.319 62.165L78.3826 68.8756V73.0696L49.3036 91.1508L19.013 83.2286L9.69287 70.7396Z" fill="#F1F1F1"/>
<path d="M58.717 62.6308C58.4187 62.1834 55.6724 61.0463 54.3365 60.2075C54.0569 61.6055 53.0317 65.5014 51.1676 69.9005C49.3036 74.2996 45.9794 75.5237 44.5503 75.5858C45.1095 78.7857 46.2466 82.6878 47.8124 82.7623C49.7696 82.8555 52.6588 81.6439 55.8277 76.9838C58.9966 72.3237 59.0898 63.19 58.717 62.6308Z" fill="#303030"/>
<path d="M26.2827 63.0036C26.581 62.5562 29.6655 61.0463 31.0014 60.2075C31.281 61.6055 32.3062 65.5014 34.1703 69.9005C36.0343 74.2996 39.3585 75.5237 40.7876 75.5858C40.2284 78.7857 38.9395 82.6878 37.3737 82.7623C35.4165 82.8555 32.679 81.6439 29.5102 76.9838C26.3413 72.3237 25.9099 63.5628 26.2827 63.0036Z" fill="#303030"/>
</g>
</svg>
