<svg width="24" height="24" viewBox="0 0 24 24" fill="none" xmlns="http://www.w3.org/2000/svg">
<path fill-rule="evenodd" clip-rule="evenodd" d="M12 24C18.6274 24 24 18.6274 24 12C24 5.37258 18.6274 0 12 0C5.37258 0 0 5.37258 0 12C0 18.6274 5.37258 24 12 24ZM14.3155 5.68433C15.5022 5.88643 16.6391 6.24854 17.7096 6.74537C19.5684 9.49908 20.4903 12.6149 20.1335 16.2022C18.7137 17.2548 17.3278 17.8948 15.9751 18.3159C15.6432 17.8611 15.3445 17.3727 15.0872 16.859C15.5769 16.6738 16.0415 16.4464 16.4897 16.1769C16.4092 16.1186 16.3327 16.0563 16.2547 15.9927C16.2201 15.9644 16.1851 15.936 16.1494 15.9075C13.4774 17.1622 10.5472 17.1622 7.84186 15.9075C7.73398 16.0001 7.6178 16.0928 7.50162 16.1769C7.94974 16.4464 8.41445 16.6738 8.90406 16.859C8.64681 17.3727 8.34806 17.8611 8.01612 18.3159C6.66264 17.8948 5.28509 17.2548 3.85776 16.2022C3.56731 13.1032 4.1482 9.96221 6.2975 6.74537C7.36053 6.24854 8.49742 5.88643 9.69238 5.68433C9.83346 5.94538 10.0077 6.29906 10.1239 6.57696C11.3687 6.39169 12.6218 6.39169 13.8839 6.57696C14.0001 6.29906 14.1661 5.94538 14.3155 5.68433ZM7.80035 12.6233C7.80035 13.5412 8.46423 14.2906 9.27749 14.2906C10.099 14.2906 10.7546 13.5412 10.7546 12.6233C10.7712 11.7054 10.099 10.9559 9.27749 10.9559C8.44763 10.9559 7.80035 11.7054 7.80035 12.6233ZM13.2524 12.6233C13.2524 13.5412 13.9171 14.2906 14.7304 14.2906C15.5603 14.2906 16.2075 13.5412 16.2075 12.6233C16.2241 11.7054 15.552 10.9559 14.7304 10.9559C13.9005 10.9559 13.2524 11.7054 13.2524 12.6233Z" fill="white"/>
</svg>
