<svg width="86" height="24" viewBox="0 0 86 24" fill="none" xmlns="http://www.w3.org/2000/svg">
<path fill-rule="evenodd" clip-rule="evenodd" d="M52.1902 7.34488C50.8347 7.34488 49.7468 7.73688 48.6171 8.32486C48.6256 4.91286 48.6674 1.93737 48.7427 0.814926L42.1572 2.169V2.80154L42.8015 2.89065C43.722 3.02432 44.0734 3.59445 44.1822 4.90402C44.3913 7.40729 44.3579 20.8237 44.1822 22.9706C45.9561 23.3982 47.8724 23.719 49.797 23.719C55.0185 23.719 58.1649 20.2803 58.1649 14.8371C58.1649 10.4807 55.6127 7.34488 52.1902 7.34488ZM49.8974 22.6142C49.5209 22.6142 49.0439 22.5519 48.7761 22.4984C48.6758 20.9929 48.6088 14.7836 48.6171 9.35819C49.2196 9.14436 49.6297 9.09096 50.1569 9.09096C52.3158 9.09096 53.5375 11.7457 53.5375 15.1043C53.5375 19.3716 52.0396 22.6142 49.8974 22.6142ZM17.4051 7.51415L16.3758 7.81704C15.4805 4.62772 14.0495 2.82824 11.3885 2.82824H7.97456C7.81556 4.85946 7.75698 8.24464 7.77376 11.7636L10.0749 11.6834C11.6062 11.6299 12.2422 10.4184 12.6104 8.62775H13.4722V16.0842H12.6104C12.2422 14.2935 11.5979 13.0909 10.0749 13.0285L7.78212 12.9484C7.8072 15.621 7.87413 17.9016 7.98292 19.2556C8.14191 21.2423 8.64399 22.1153 9.96608 22.3202L11.1376 22.4539V23.3447H0V22.4539L0.920495 22.3202C2.24264 22.1153 2.74471 21.2423 2.90366 19.2556C3.15467 15.9862 3.19652 9.17996 2.90366 5.38491C2.74466 3.39824 2.24259 2.52523 0.920495 2.32036L0 2.18674V1.29587H17.3131L17.4051 7.51415ZM22.9446 7.1667C27.8649 7.1667 30.3082 10.7212 30.3082 15.3982C30.3082 19.9683 27.5469 23.7189 22.6266 23.7189C17.7062 23.7189 15.2545 20.1644 15.2545 15.4874C15.2545 10.9173 18.016 7.1667 22.9446 7.1667ZM22.6852 8.18235C20.5096 8.18235 19.8987 11.3182 19.8987 15.4428C19.8987 19.4606 20.8611 22.7034 22.8777 22.7034C25.0533 22.7034 25.6641 19.5675 25.6641 15.4428C25.6641 11.425 24.7019 8.18235 22.6852 8.18235ZM59.3698 15.5943C59.3614 11.2557 61.9387 7.1845 67.0096 7.1845C71.135 7.1845 73.1098 10.4451 73.1265 14.7034H63.9219C63.8215 18.5697 65.6624 21.4116 69.1769 21.4116C70.7249 21.4116 71.5617 21.0019 72.499 20.2446L72.9341 20.797C71.9132 22.3025 69.7794 23.7368 66.9511 23.7368C62.5077 23.7278 59.3782 20.3782 59.3698 15.5943ZM63.9553 13.5988L68.5744 13.4919C68.5995 11.3182 68.2731 8.20905 66.6079 8.20905C64.9344 8.20905 63.9972 11.1489 63.9553 13.5988ZM84.9587 12.0486L84.2056 12.2625C83.4023 9.49192 82.1806 8.31596 80.3983 8.31596C79.2101 8.31596 78.3481 9.26913 78.3481 10.65C78.3481 12.022 79.3105 12.7435 82.0969 13.8927C84.6658 14.9529 85.6867 16.1733 85.6867 18.3916C85.6867 21.7056 83.3019 23.7367 79.3857 23.7367C77.5029 23.7367 75.4109 23.2913 74.1893 22.7657L74.0554 18.1867L74.8085 17.9729C75.8879 21.1799 77.2938 22.347 79.143 22.347C80.7162 22.347 81.5948 21.1532 81.5948 19.8793C81.5948 18.641 80.9337 17.9016 78.4234 16.9395C76.0887 16.0486 74.3985 14.9618 74.3985 12.1823C74.3985 9.48302 76.641 7.17566 80.348 7.17566C82.0717 7.17566 83.7035 7.49641 84.7997 8.03087L84.9587 12.0486ZM41.5463 11.9239C39.5547 10.4985 37.4042 11.1222 36.9607 11.8972C36.81 14.4629 36.8435 18.3916 37.0109 20.3693C37.1197 21.6789 37.4711 22.249 38.3916 22.3827L39.5798 22.4718V23.3626H30.4422V22.4718L31.0865 22.3827C32.007 22.249 32.3584 21.6789 32.4672 20.3693C32.6429 18.2223 32.6764 13.7502 32.4672 11.2469C32.3584 9.93732 32.007 9.3672 31.0865 9.23353L30.4422 9.14441V8.51188L37.0026 7.15775L36.9273 10.8103C38.4586 7.05089 41.4878 6.56093 43.153 7.61217L41.5463 11.9239Z" fill="#181716"/>
</svg>
