<svg width="85" height="85" viewBox="0 0 85 85" fill="none" xmlns="http://www.w3.org/2000/svg">
<circle cx="42.4995" cy="42.5" r="42.5" fill="#06E594"/>
<mask id="mask0_2_353" style="mask-type:alpha" maskUnits="userSpaceOnUse" x="-1" y="0" width="86" height="85">
<circle cx="42.4995" cy="42.5" r="42.5" fill="#4671E9"/>
</mask>
<g mask="url(#mask0_2_353)">
<path d="M33.8316 58.7165L33.1792 62.6309L41.7538 64.3086L48.1847 56.666L33.8316 58.7165Z" fill="#C4C4C4"/>
<path d="M23.9522 36.6279C23.4303 28.2025 25.9094 21.3739 27.2143 19.0128L47.905 13.8867C51.1982 17.4284 57.9522 25.0896 58.6232 27.401C59.1626 29.2587 56.6474 32.726 54.5425 35.1123C55.0494 34.6833 55.648 34.2764 56.2932 34.0183C58.1572 33.2727 59.9281 34.2047 60.7669 35.4163C61.6057 36.6279 61.2329 39.0512 59.9281 41.754C58.8842 43.9163 56.3864 44.7676 55.268 44.9229C55.3922 45.886 55.5662 48.0731 55.268 49.117C54.8952 50.4218 56.3864 57.9711 57.3184 59.3692C58.064 60.4876 60.2387 62.7555 61.2329 63.7497C59.431 64.6817 55.0629 66.788 52.0059 67.7573C48.1846 68.969 43.1518 68.6894 39.8897 68.4097C37.28 68.1861 33.2102 65.8933 31.5015 64.7749C32.0235 64.6258 32.8996 63.2836 33.2724 62.6312C33.9558 62.6934 35.677 62.7804 37.0936 62.6312C38.8645 62.4448 41.3809 61.5128 43.1518 60.674C44.5684 60.0029 46.9109 57.7226 47.905 56.6663C46.5381 57.5673 43.3195 59.4624 41.3809 59.8352C38.9577 60.3012 35.2889 60.3308 30.5695 57.9711C25.723 55.5479 24.6046 47.1597 23.9522 36.6279Z" fill="white"/>
<path d="M22.4612 22.1815C22.0139 24.7166 23.1447 30.3211 23.766 32.8065C23.9835 31.1599 24.493 27.4939 24.7913 26.0027C25.0895 24.5115 26.5932 20.9698 27.3077 19.3854C27.9601 20.9698 33.925 22.7407 35.8823 23.4863C37.8395 24.2319 40.7288 23.2067 45.1092 22.7407C49.4897 22.2747 50.5149 23.9523 52.379 26.0027C53.8702 27.6431 53.6838 33.5831 53.4042 36.3481C53.4042 36.3481 54.4294 34.6705 55.9206 34.1113C56.5568 33.8727 57.9711 33.5521 58.9031 34.1113C59.8351 34.6705 61.2331 36.3481 61.2331 36.3481C62.0409 34.9501 63.7869 31.8744 64.3088 30.756C64.9612 29.358 65.8 23.3931 65.7068 20.6902C65.6136 17.9874 61.9788 18.0806 60.7671 17.801C59.5555 17.5214 57.9711 12.5817 56.2934 11.6497C54.6158 10.7176 51.7266 11.1836 49.0237 11.6497C46.3209 12.1157 45.016 10.3448 43.8976 10.3448C42.7792 10.3448 40.5423 7.9216 35.8823 7.36239C31.2222 6.80318 29.4513 8.20121 27.3077 10.3448C25.1641 12.4885 26.6553 16.1234 25.9097 16.4962C25.1641 16.869 23.0204 19.0126 22.4612 22.1815Z" fill="black"/>
<path fill-rule="evenodd" clip-rule="evenodd" d="M34.6085 38.5523C33.5534 37.4946 31.8614 37.2236 30.5385 38.5518L29.4819 37.4995C31.4871 35.4861 34.1313 35.9624 35.6642 37.4991L34.6085 38.5523ZM52.8444 37.0927C52.9421 37.493 52.6961 37.8965 52.2955 37.993L45.2021 39.7033L45.0254 38.2333L51.9446 36.5457C52.3441 36.4483 52.747 36.6932 52.8444 37.0927Z" fill="#00004D"/>
<path fill-rule="evenodd" clip-rule="evenodd" d="M39.7032 44.736C41.7981 44.736 43.8041 42.747 43.8041 39.8895C43.8041 37.032 41.7981 35.043 39.7032 35.043C37.6083 35.043 35.6023 37.032 35.6023 39.8895C35.6023 42.747 37.6083 44.736 39.7032 44.736ZM39.7032 46.2272C42.7916 46.2272 45.2953 43.3897 45.2953 39.8895C45.2953 36.3893 42.7916 33.5518 39.7032 33.5518C36.6148 33.5518 34.1111 36.3893 34.1111 39.8895C34.1111 43.3897 36.6148 46.2272 39.7032 46.2272Z" fill="black"/>
<path fill-rule="evenodd" clip-rule="evenodd" d="M25.1639 43.2448C27.2588 43.2448 29.2648 41.2558 29.2648 38.3983C29.2648 35.5407 27.2588 33.5518 25.1639 33.5518C23.069 33.5518 21.063 35.5407 21.063 38.3983C21.063 41.2558 23.069 43.2448 25.1639 43.2448ZM25.1639 44.736C28.2523 44.736 30.756 41.8985 30.756 38.3983C30.756 34.898 28.2523 32.0605 25.1639 32.0605C22.0754 32.0605 19.5718 34.898 19.5718 38.3983C19.5718 41.8985 22.0754 44.736 25.1639 44.736Z" fill="black"/>
<path d="M11.277 68.9688C10.755 69.3416 8.63624 72.7279 7.64209 74.3745L9.13332 85.8383L73.6289 87.3296L76.7978 71.3921C75.0829 71.0192 65.831 66.1417 61.4195 63.7495C57.039 65.3029 48.5577 68.596 43.152 68.596C37.7463 68.596 35.0434 66.266 31.5017 64.6815C24.9776 65.9553 11.7989 68.596 11.277 68.9688Z" fill="#303030"/>
<path fill-rule="evenodd" clip-rule="evenodd" d="M62.2583 67.8505C62.5741 68.1148 62.617 68.5839 62.3482 68.8959C60.8808 70.5988 58.1764 73.551 56.1848 75.0619C54.8113 76.1038 53.0224 77.3218 51.078 78.282C49.1427 79.2377 46.9963 79.9668 44.9227 79.9668C43.9502 79.9668 43.1705 79.5969 42.5848 78.9986C42.0179 78.4197 41.6586 77.6557 41.4301 76.8806C41.0615 75.6301 40.9917 74.2074 41.0476 73.0793C41.068 72.668 41.4377 72.3726 41.8471 72.4174C42.2564 72.4623 42.5503 72.8305 42.5329 73.2419C42.4909 74.2351 42.5606 75.4416 42.8605 76.4589C43.0499 77.1013 43.3151 77.613 43.6503 77.9554C43.9667 78.2785 44.3668 78.4755 44.9227 78.4755C46.6704 78.4755 48.5783 77.8532 50.4177 76.9449C52.248 76.041 53.9541 74.8824 55.2835 73.8738C57.1413 72.4645 59.7534 69.6214 61.2044 67.9389C61.4733 67.6271 61.9425 67.5863 62.2583 67.8505ZM30.7858 75.2561C29.6492 73.2255 28.7036 70.7009 28.1079 68.7695C27.9865 68.376 28.2165 67.9637 28.6124 67.8505C29.0084 67.7374 29.4204 67.9665 29.5421 68.3599C30.1185 70.2232 31.0234 72.6275 32.0871 74.5278C32.6937 75.6116 33.3201 76.4727 33.9241 76.9868C34.5224 77.496 34.9586 77.561 35.3196 77.4129C36.5508 76.9078 37.2371 76.0106 37.6063 75.0657C37.8521 74.4362 37.9525 73.7944 37.9706 73.26C37.9845 72.8485 38.27 72.4719 38.6782 72.4174C39.0864 72.363 39.4637 72.6505 39.4648 73.0623C39.4668 73.8017 39.3458 74.7109 38.9953 75.6083C38.5069 76.8583 37.5622 78.1047 35.8856 78.7926C34.7926 79.241 33.7678 78.812 32.9576 78.1224C32.1531 77.4377 31.4234 76.3952 30.7858 75.2561Z" fill="white"/>
</g>
</svg>
