<svg width="170" height="50" viewBox="0 0 170 50" fill="none" xmlns="http://www.w3.org/2000/svg">
<g clip-path="url(#clip0_2_226)">
<path d="M162.804 50H6.55371C3.11621 50 0.303711 47.1875 0.303711 43.75V6.25C0.303711 2.8125 3.11621 0 6.55371 0H162.804C166.242 0 169.054 2.8125 169.054 6.25V43.75C169.054 47.1875 166.242 50 162.804 50Z" fill="black"/>
<path d="M162.804 0H6.55371C3.11621 0 0.303711 2.8125 0.303711 6.25V43.75C0.303711 47.1875 3.11621 50 6.55371 50H162.804C166.242 50 169.054 47.1875 169.054 43.75V6.25C169.054 2.8125 166.242 0 162.804 0ZM162.804 1C165.699 1 168.054 3.3555 168.054 6.25V43.75C168.054 46.645 165.699 49.0005 162.804 49.0005H6.55371C3.65921 49.0005 1.30371 46.645 1.30371 43.75V6.25C1.30371 3.3555 3.65921 1 6.55371 1H162.804Z" fill="#06E594"/>
<path d="M59.5762 12.8043C59.5762 13.8516 59.266 14.6856 58.6449 15.3077C57.9394 16.0474 57.0199 16.4176 55.8895 16.4176C54.807 16.4176 53.8866 16.0426 53.1298 15.2916C52.3715 14.5411 51.9932 13.6104 51.9932 12.5001C51.9932 11.3892 52.3715 10.4591 53.1298 9.70803C53.8866 8.95753 54.807 8.58203 55.8895 8.58203C56.4266 8.58203 56.9409 8.68703 57.4292 8.89653C57.9174 9.10653 58.309 9.38528 58.602 9.7344L57.9428 10.3941C57.4463 9.80078 56.7626 9.5044 55.8895 9.5044C55.1 9.5044 54.4174 9.78178 53.8413 10.3369C53.265 10.8927 52.977 11.6133 52.977 12.5001C52.977 13.3868 53.265 14.1074 53.8413 14.6632C54.4174 15.2183 55.1 15.4957 55.8895 15.4957C56.727 15.4957 57.4253 15.2168 57.9843 14.6583C58.3471 14.2944 58.557 13.7887 58.6131 13.1392H55.8895V12.2383H59.5239C59.559 12.4342 59.5762 12.6222 59.5762 12.8043Z" fill="#06E594"/>
<path d="M59.5762 12.8024H59.4512C59.4502 13.8257 59.1513 14.6206 58.5565 15.2174L58.5552 15.2184L58.5547 15.2194C57.8715 15.9336 56.9935 16.2891 55.8895 16.2906C54.8359 16.2891 53.954 15.9297 53.2176 15.2012C52.4829 14.4712 52.1195 13.5801 52.1182 12.4981C52.1195 11.4156 52.4829 10.525 53.2176 9.79546C53.954 9.06646 54.8359 8.70659 55.8895 8.70508C56.4105 8.70508 56.9066 8.80671 57.3798 9.00933C57.8534 9.21346 58.2275 9.48096 58.5063 9.81308L58.602 9.73246L58.5137 9.64408L57.8544 10.3042L57.9428 10.3921L58.039 10.3121C57.5194 9.68946 56.79 9.37558 55.8895 9.37746C55.0708 9.37646 54.3505 9.66896 53.7548 10.2452C53.1533 10.8234 52.851 11.5845 52.852 12.4981C52.851 13.4117 53.1533 14.1729 53.7548 14.751C54.3505 15.3272 55.0708 15.6197 55.8895 15.6187C56.7548 15.6202 57.4922 15.3267 58.0727 14.7447C58.4604 14.356 58.6802 13.8175 58.7378 13.148L58.7494 13.0122H56.0145V12.3614H59.5239V12.2364L59.4008 12.2584C59.435 12.4479 59.4512 12.628 59.4512 12.8024H59.5762H59.7012C59.7012 12.6124 59.6835 12.4171 59.6469 12.214L59.6284 12.1114H55.7645V13.1372V13.2622H58.6131V13.1372L58.4887 13.1265C58.4335 13.7555 58.2333 14.2291 57.8959 14.568C57.3588 15.1031 56.6996 15.3672 55.8895 15.3687C55.1293 15.3677 54.4843 15.106 53.9282 14.5714C53.3774 14.0386 53.1034 13.3585 53.102 12.4981C53.1034 11.6377 53.3774 10.9576 53.9282 10.4249C54.4843 9.89021 55.1293 9.62846 55.8895 9.62746C56.7348 9.62946 57.373 9.90871 57.8472 10.4727L57.935 10.5772L58.6904 9.82083L58.7714 9.73983L58.6977 9.65234C58.3905 9.28621 57.9814 8.99558 57.4784 8.77983C56.9745 8.56346 56.4428 8.45508 55.8895 8.45508C54.7783 8.45408 53.8193 8.84471 53.0414 9.61771C52.2607 10.3892 51.8672 11.359 51.8682 12.4981C51.8672 13.6367 52.2606 14.607 53.0419 15.379C53.8193 16.1515 54.7783 16.5416 55.8895 16.5406C57.0468 16.5416 58.0068 16.1572 58.7353 15.3921L58.6449 15.3057L58.7333 15.3941C59.3808 14.7471 59.702 13.8731 59.7012 12.8024H59.5762Z" fill="#06E594"/>
<path d="M65.3384 9.67138H61.9229V12.0494H65.003V12.9506H61.9229V15.3286H65.3384V16.25H60.96V8.75H65.3384V9.67138Z" fill="#06E594"/>
<path d="M65.3384 9.67138V9.54638H61.7979V12.1744H64.878V12.8252L61.7979 12.8256V15.4536H65.2134V16.125H61.085V8.875H65.2134V9.67138H65.3384V9.54638V9.67138H65.4634V8.75V8.625H60.835V16.375H65.4634V15.3286V15.2036H62.0479V13.0756H65.128V12.0494V11.9244H62.0479V9.79638H65.4634V9.67138H65.3384Z" fill="#06E594"/>
<path d="M69.4019 16.25H68.4375V9.67138H66.3428V8.75H71.4966V9.67138H69.4019V16.25Z" fill="#06E594"/>
<path d="M69.4019 16.25V16.125H68.5625V9.54638H66.4678V8.875H71.3716V9.54638H69.2769V16.25H69.4019V16.125V16.25H69.5269V9.79638H71.6216V8.75V8.625H66.2178V9.67138V9.79638H68.3125V16.375H69.4019H69.5269V16.25H69.4019Z" fill="#06E594"/>
<path d="M75.2256 16.25V8.75H76.1889V16.25H75.2256Z" fill="#06E594"/>
<path d="M75.2256 16.25H75.3506V8.875H76.0639V16.125H75.2256V16.25H75.3506H75.2256V16.375H76.1889H76.3139V8.625H75.2256H75.1006V16.375H75.2256V16.25Z" fill="#06E594"/>
<path d="M80.4643 16.25H79.4999V9.67138H77.4053V8.75H82.559V9.67138H80.4643V16.25Z" fill="#06E594"/>
<path d="M80.4643 16.25V16.125H79.6249V9.54638H77.5303V8.875H82.434V9.54638H80.3393V16.25H80.4643V16.125V16.25H80.5893V9.79638H82.684V8.75V8.625H77.2803V9.67138V9.79638H79.3749V16.375H80.4643H80.5893V16.25H80.4643Z" fill="#06E594"/>
<path d="M87.5283 14.6529C88.0834 15.2149 88.7626 15.4957 89.5659 15.4957C90.3691 15.4957 91.0488 15.2149 91.603 14.6529C92.1586 14.0909 92.437 13.3726 92.437 12.5001C92.437 11.6276 92.1586 10.9092 91.603 10.3472C91.0488 9.78516 90.3691 9.5044 89.5659 9.5044C88.7626 9.5044 88.0834 9.78516 87.5283 10.3472C86.974 10.9092 86.6958 11.6276 86.6958 12.5001C86.6958 13.3726 86.974 14.0909 87.5283 14.6529ZM92.3159 15.2808C91.5785 16.0391 90.6615 16.4176 89.5659 16.4176C88.4691 16.4176 87.5526 16.0391 86.8169 15.2808C86.079 14.5234 85.7119 13.5963 85.7119 12.5001C85.7119 11.4038 86.079 10.4766 86.8169 9.71928C87.5526 8.9609 88.4691 8.58203 89.5659 8.58203C90.6558 8.58203 91.5703 8.9629 92.311 9.72415C93.0508 10.4854 93.4209 11.4107 93.4209 12.5001C93.4209 13.5963 93.0516 14.5234 92.3159 15.2808Z" fill="#06E594"/>
<path d="M87.5283 14.651L87.4394 14.7389C88.0151 15.3234 88.7334 15.6202 89.5659 15.6187C90.3979 15.6202 91.1172 15.3234 91.6919 14.7389C92.2714 14.1539 92.5629 13.397 92.562 12.4981C92.5629 11.5992 92.2714 10.8424 91.6919 10.2574C91.1172 9.67283 90.3979 9.37596 89.5659 9.37746C88.7334 9.37596 88.0151 9.67283 87.4394 10.2574C86.8613 10.8424 86.5693 11.5992 86.5708 12.4981C86.5693 13.397 86.8613 14.1539 87.4394 14.7389L87.5283 14.651L87.6172 14.5631C87.0869 14.0235 86.8218 13.3447 86.8208 12.4981C86.8218 11.6515 87.0869 10.9727 87.6172 10.4331C88.1523 9.89359 88.7914 9.62896 89.5659 9.62746C90.3398 9.62896 90.9804 9.89359 91.5142 10.4331C92.0454 10.9727 92.3105 11.6515 92.3115 12.4981C92.3105 13.3447 92.0454 14.0235 91.5142 14.5631C90.9804 15.1026 90.3398 15.3672 89.5659 15.3687C88.7914 15.3672 88.1523 15.1026 87.6172 14.5631L87.5283 14.651ZM92.3159 15.2789L92.2265 15.192C91.5098 15.9264 90.6333 16.2891 89.5659 16.2906C88.498 16.2891 87.6215 15.9264 86.9061 15.192L86.9028 15.1881L86.9061 15.192C86.1909 14.4551 85.8379 13.5665 85.8369 12.4981C85.8379 11.4297 86.1909 10.5411 86.9061 9.80421C87.6215 9.06983 88.498 8.70659 89.5659 8.70508C90.6264 8.70659 91.5009 9.07133 92.2217 9.80958C92.9394 10.5499 93.2944 11.4371 93.2959 12.4981C93.2944 13.5665 92.9404 14.4551 92.2265 15.192L92.3159 15.2789L92.4058 15.3657C93.1635 14.5875 93.5468 13.6221 93.5459 12.4981C93.5468 11.3805 93.162 10.4171 92.4008 9.63533C91.6392 8.85058 90.685 8.45371 89.5659 8.45508C88.4409 8.45371 87.4839 8.84871 86.727 9.63046V9.62996C85.9678 10.4087 85.5859 11.3741 85.5869 12.4981C85.5859 13.6221 85.9678 14.5875 86.727 15.3662L86.7304 15.3697L86.727 15.3657C87.4839 16.1475 88.4409 16.5416 89.5659 16.5406C90.6904 16.5416 91.6474 16.1475 92.4058 15.3657L92.3159 15.2789Z" fill="#06E594"/>
<path d="M94.7725 16.25V8.75H95.9453L99.5903 14.5845H99.6318L99.5903 13.1391V8.75H100.555V16.25H99.5488L95.7353 10.1328H95.6938L95.7353 11.5786V16.25H94.7725Z" fill="#06E594"/>
<path d="M94.7725 16.25H94.8975V8.875H95.8759L99.5209 14.7095H99.6318H99.7602L99.7153 13.1372V8.875H100.43V16.125H99.6182L95.8047 10.0078H95.6938H95.5654L95.6103 11.5806V16.125H94.7725V16.25H94.8975H94.7725V16.375H95.7353H95.8603V11.5766L95.8188 10.1294L95.6938 10.1328V10.2578H95.7353V10.1328L95.6293 10.1992L99.4794 16.375H100.555H100.68V8.625H99.5903H99.4653V13.1406L99.5068 14.5879L99.6318 14.5845V14.4595H99.5903V14.5845L99.6963 14.5181L96.0146 8.625H94.7725H94.6475V16.375H94.7725V16.25Z" fill="#06E594"/>
<path d="M133.974 37.5005H136.307V21.874H133.974V37.5005ZM154.983 27.503L152.309 34.2778H152.229L149.454 27.503H146.942L151.103 36.9721L148.731 42.2392H151.164L157.577 27.503H154.983ZM141.756 35.7256C140.991 35.7256 139.926 35.3437 139.926 34.3985C139.926 33.1923 141.253 32.73 142.398 32.73C143.424 32.73 143.906 32.9511 144.529 33.253C144.348 34.7002 143.102 35.7256 141.756 35.7256ZM142.037 27.1611C140.348 27.1611 138.599 27.9052 137.876 29.5537L139.946 30.418C140.388 29.5537 141.212 29.272 142.077 29.272C143.283 29.272 144.509 29.9961 144.529 31.2827V31.4433C144.107 31.2021 143.203 30.8403 142.097 30.8403C139.866 30.8403 137.593 32.0663 137.593 34.3583C137.593 36.4492 139.423 37.7963 141.473 37.7963C143.042 37.7963 143.906 37.0927 144.449 36.2686H144.529V37.4746H146.781V31.4833C146.781 28.7095 144.711 27.1611 142.037 27.1611ZM127.622 29.4052H124.304V24.0488H127.622C129.366 24.0488 130.356 25.4926 130.356 26.727C130.356 27.938 129.366 29.4052 127.622 29.4052ZM127.562 21.874H121.973V37.5005H124.304V31.5801H127.562C130.147 31.5801 132.688 29.7085 132.688 26.727C132.688 23.7456 130.147 21.874 127.562 21.874ZM97.0854 35.7285C95.4741 35.7285 94.1249 34.3793 94.1249 32.5263C94.1249 30.6538 95.4741 29.2842 97.0854 29.2842C98.6763 29.2842 99.9248 30.6538 99.9248 32.5263C99.9248 34.3793 98.6763 35.7285 97.0854 35.7285ZM99.7637 28.378H99.6831C99.1597 27.7538 98.1523 27.19 96.8838 27.19C94.2256 27.19 91.7891 29.5258 91.7891 32.5263C91.7891 35.5068 94.2256 37.8227 96.8838 37.8227C98.1523 37.8227 99.1597 37.2587 99.6831 36.6147H99.7637V37.3798C99.7637 39.4141 98.6763 40.5015 96.9243 40.5015C95.4946 40.5015 94.6084 39.4741 94.2456 38.6083L92.2119 39.4541C92.7959 40.8637 94.3467 42.5957 96.9243 42.5957C99.6631 42.5957 101.979 40.9843 101.979 37.0576V27.5122H99.7637V28.378ZM103.59 37.5005H105.926V21.8735H103.59V37.5005ZM109.37 32.3452C109.309 30.291 110.961 29.2441 112.149 29.2441C113.076 29.2441 113.861 29.707 114.122 30.3721L109.37 32.3452ZM116.619 30.5732C116.177 29.3847 114.827 27.19 112.068 27.19C109.329 27.19 107.054 29.3447 107.054 32.5063C107.054 35.4868 109.309 37.8227 112.33 37.8227C114.767 37.8227 116.177 36.3325 116.761 35.4667L114.948 34.2582C114.344 35.1445 113.518 35.7285 112.33 35.7285C111.142 35.7285 110.296 35.1846 109.752 34.1176L116.861 31.1772L116.619 30.5732ZM59.9839 28.8212V31.0766H65.3808C65.2197 32.3452 64.7968 33.2715 64.1523 33.916C63.3672 34.7016 62.1387 35.5673 59.9839 35.5673C56.6611 35.5673 54.0634 32.8891 54.0634 29.5663C54.0634 26.2436 56.6611 23.565 59.9839 23.565C61.7763 23.565 63.0849 24.27 64.0517 25.1762L65.6426 23.5855C64.2934 22.2963 62.5009 21.3096 59.9839 21.3096C55.4326 21.3096 51.6064 25.0151 51.6064 29.5663C51.6064 34.1176 55.4326 37.8227 59.9839 37.8227C62.4409 37.8227 64.2934 37.0176 65.7432 35.5068C67.2334 34.0166 67.6968 31.9223 67.6968 30.231C67.6968 29.707 67.6567 29.2241 67.5757 28.8212H59.9839ZM73.8326 35.7285C72.2212 35.7285 70.8316 34.3993 70.8316 32.5063C70.8316 30.5932 72.2212 29.2842 73.8326 29.2842C75.4433 29.2842 76.8329 30.5932 76.8329 32.5063C76.8329 34.3993 75.4433 35.7285 73.8326 35.7285ZM73.8326 27.19C70.8921 27.19 68.4956 29.4252 68.4956 32.5063C68.4956 35.5673 70.8921 37.8227 73.8326 37.8227C76.7724 37.8227 79.1689 35.5673 79.1689 32.5063C79.1689 29.4252 76.7724 27.19 73.8326 27.19ZM85.4741 35.7285C83.8633 35.7285 82.4736 34.3993 82.4736 32.5063C82.4736 30.5932 83.8633 29.2842 85.4741 29.2842C87.0849 29.2842 88.4746 30.5932 88.4746 32.5063C88.4746 34.3993 87.0849 35.7285 85.4741 35.7285ZM85.4741 27.19C82.5337 27.19 80.1377 29.4252 80.1377 32.5063C80.1377 35.5673 82.5337 37.8227 85.4741 37.8227C88.4141 37.8227 90.8106 35.5673 90.8106 32.5063C90.8106 29.4252 88.4141 27.19 85.4741 27.19Z" fill="#06E594"/>
<path d="M13.44 40.4863L13.3471 40.3975C12.9834 40.0126 12.7686 39.415 12.7686 38.6411V38.8232V11.1782C12.7686 11.1757 12.7686 11.1738 12.7686 11.1718C12.7686 11.1742 12.7686 11.1762 12.7686 11.1787V11.3613C12.7686 10.5233 13.019 9.89208 13.4385 9.51358L28.9258 25.0005L13.44 40.4863ZM12.7686 11.1703C12.7686 11.1015 12.7705 11.0346 12.774 10.9687C12.7705 11.0341 12.7686 11.1015 12.7686 11.1703ZM12.774 10.9657C12.774 10.9648 12.774 10.9638 12.7744 10.9628C12.774 10.9638 12.774 10.9648 12.774 10.9657ZM12.7744 10.957C12.7744 10.9565 12.7744 10.956 12.7744 10.9555C12.7744 10.956 12.7744 10.9565 12.7744 10.957Z" fill="url(#paint0_linear_2_226)"/>
<path d="M34.0885 30.3472L34.2062 30.2803L40.3223 26.8052C40.9055 26.4737 41.2941 26.0718 41.488 25.6465C41.2946 26.0718 40.9058 26.4742 40.3223 26.8057L34.2062 30.2808L34.0885 30.3472ZM34.09 30.164L28.9268 25L34.0895 19.8369L40.3223 23.3779C41.1138 23.8277 41.5582 24.4073 41.6325 24.9995C41.6325 25 41.6325 25.001 41.6325 25.0019C41.5582 25.5928 41.1138 26.1729 40.3223 26.6225L34.09 30.164Z" fill="url(#paint1_linear_2_226)"/>
<path d="M14.5454 41.0767C14.1128 41.0767 13.7353 40.936 13.4409 40.6704L13.4414 40.6699C13.7358 40.9355 14.1138 41.0767 14.5464 41.0767C14.5839 41.0767 14.6221 41.0757 14.6607 41.0738C14.6216 41.0757 14.5829 41.0767 14.5454 41.0767ZM14.5459 40.8935C14.1133 40.894 13.7358 40.7529 13.4414 40.4873V40.4869L28.9272 25.001L34.0903 30.165L15.9463 40.4742C15.4443 40.7588 14.9687 40.8935 14.5459 40.8935ZM13.4371 40.667C13.4097 40.6422 13.3828 40.6158 13.3564 40.5884L13.4371 40.667Z" fill="url(#paint2_linear_2_226)"/>
<path d="M28.9257 25L13.4385 9.51313C13.7328 9.248 14.1098 9.10738 14.542 9.10738C14.9658 9.10738 15.4418 9.24263 15.9448 9.52775L34.0883 19.8369L28.9257 25ZM34.2051 19.7202L15.9448 9.34525C15.4418 9.06 14.9658 8.92475 14.542 8.92475C14.54 8.92475 14.5386 8.92475 14.5366 8.92475C14.5391 8.92475 14.541 8.92475 14.544 8.92475C14.9668 8.92475 15.4423 9.0595 15.9448 9.34475L34.2051 19.7202Z" fill="url(#paint3_linear_2_226)"/>
<path d="M14.6607 41.0742C15.0537 41.0517 15.4889 40.9165 15.9464 40.6572L34.0889 30.3486L15.9464 40.6572C15.4892 40.917 15.0537 41.0517 14.6607 41.0742ZM13.441 40.6708L13.4371 40.6675C13.4385 40.6685 13.44 40.6698 13.441 40.6708ZM13.3565 40.5888L13.3486 40.5811V40.5806C13.3516 40.5835 13.354 40.5863 13.3565 40.5888Z" fill="black"/>
<path d="M34.0889 30.3482L34.2066 30.2812L34.0889 30.3482Z" fill="url(#paint4_linear_2_226)"/>
<path d="M14.5465 41.0758C14.1139 41.0758 13.7359 40.9346 13.4415 40.669L13.441 40.6695C13.44 40.6685 13.4385 40.6671 13.4371 40.6661L13.3565 40.5875C13.354 40.585 13.3516 40.5821 13.3486 40.5793L13.4415 40.4864C13.7359 40.752 14.1134 40.8931 14.546 40.8926C14.9687 40.8926 15.4444 40.7579 15.9464 40.4733L34.0904 30.1641L34.2066 30.2804L34.0889 30.3473L15.9464 40.6559C15.4889 40.9151 15.0537 41.0504 14.6607 41.0729C14.6221 41.0748 14.584 41.0758 14.5465 41.0758Z" fill="url(#paint5_linear_2_226)"/>
<path d="M13.3471 40.5801C12.9834 40.1952 12.7686 39.5976 12.7686 38.8237V38.8232C12.7686 39.5976 12.9834 40.1947 13.3471 40.5796V40.5801Z" fill="black"/>
<path d="M13.3471 40.5801C12.9834 40.1952 12.7686 39.5981 12.7686 38.8237V38.6416C12.7686 39.4155 12.9834 40.0131 13.3471 40.398L13.44 40.4868L13.3471 40.5801Z" fill="url(#paint6_linear_2_226)"/>
<path d="M13.3486 40.5796L13.4415 40.4863V40.4867L13.3486 40.5796Z" fill="url(#paint7_linear_2_226)"/>
<path d="M41.4873 25.6484C41.5834 25.4374 41.6318 25.2207 41.6318 25.0038C41.6318 25.0034 41.6318 25.0029 41.6318 25.0029C41.6318 25.2202 41.5834 25.4369 41.4873 25.6484Z" fill="black"/>
<path d="M34.2071 30.2812L34.0908 30.165L40.3232 26.6235C41.1147 26.1739 41.5591 25.5938 41.6333 25.0029C41.6333 25.2198 41.5849 25.4365 41.4888 25.6475C41.2949 26.0727 40.9063 26.4746 40.3232 26.8061L34.2071 30.2812Z" fill="url(#paint8_linear_2_226)"/>
<path d="M41.6329 24.9995V24.999C41.6324 24.3451 41.1954 23.6914 40.3228 23.1953L34.2066 19.7201H34.2061L34.2066 19.7197L40.3228 23.1948C41.1964 23.6909 41.6339 24.3456 41.6329 24.9995Z" fill="#404040"/>
<path d="M41.6319 24.9996C41.5576 24.4074 41.1132 23.8277 40.3217 23.378L34.0889 19.837L34.2051 19.7207H34.2056L40.3217 23.1959C41.1944 23.692 41.6314 24.3457 41.6319 24.9996Z" fill="url(#paint9_linear_2_226)"/>
<path d="M12.7686 11.1715C12.7686 11.171 12.7686 11.1705 12.7686 11.17C12.7686 11.1705 12.7686 11.171 12.7686 11.1715ZM12.774 10.9684C12.774 10.9673 12.774 10.9664 12.774 10.9654C12.774 10.9664 12.774 10.9673 12.774 10.9684ZM12.7744 10.9625C12.7744 10.9605 12.7744 10.9586 12.7744 10.9566C12.7744 10.9586 12.7744 10.9605 12.7744 10.9625ZM12.7744 10.9551C12.8468 9.67093 13.545 8.92918 14.5328 8.9248C14.1045 8.9273 13.7315 9.06793 13.4395 9.33105V9.33055L13.436 9.33405C13.4053 9.3618 13.376 9.39118 13.3471 9.42143C13.019 9.76855 12.812 10.2886 12.7744 10.9551Z" fill="#404040"/>
<path d="M12.7686 11.3613V11.1787C12.7686 11.1762 12.7686 11.1742 12.7686 11.1718C12.7686 11.1713 12.7686 11.1708 12.7686 11.1703C12.7686 11.1015 12.7705 11.0341 12.774 10.9687C12.774 10.9677 12.774 10.9667 12.774 10.9657C12.774 10.9648 12.774 10.9638 12.7744 10.9628C12.7744 10.9608 12.7744 10.959 12.7744 10.957C12.7744 10.9565 12.7744 10.956 12.7744 10.9555C12.812 10.289 13.019 9.76895 13.3471 9.42183L13.4385 9.51358C13.019 9.89208 12.7686 10.5233 12.7686 11.3613ZM13.436 9.33445L13.4395 9.33096C13.4385 9.33246 13.437 9.33345 13.436 9.33445Z" fill="url(#paint10_linear_2_226)"/>
<path d="M34.0899 19.8379L15.9464 9.52877C15.4434 9.24364 14.9674 9.10839 14.5435 9.10839C14.1114 9.10839 13.7344 9.24902 13.44 9.51414L13.3486 9.42239C13.3775 9.39214 13.4067 9.36276 13.4375 9.33501C13.4385 9.33401 13.44 9.33302 13.441 9.33202C13.733 9.06889 14.106 8.92827 14.5342 8.92577C14.5352 8.92577 14.5366 8.92577 14.5381 8.92577C14.5401 8.92577 14.5415 8.92577 14.5435 8.92577C14.9674 8.92577 15.4434 9.06101 15.9464 9.34626L34.2066 19.7213L34.2061 19.7216L34.0899 19.8379Z" fill="url(#paint11_linear_2_226)"/>
</g>
<defs>
<linearGradient id="paint0_linear_2_226" x1="27.5525" y1="10.8866" x2="6.57435" y2="31.8647" gradientUnits="userSpaceOnUse">
<stop stop-color="#00A0FF"/>
<stop offset="0.00657445" stop-color="#00A1FF"/>
<stop offset="0.2601" stop-color="#00BEFF"/>
<stop offset="0.5122" stop-color="#00D2FF"/>
<stop offset="0.7604" stop-color="#00DFFF"/>
<stop offset="1" stop-color="#00E3FF"/>
</linearGradient>
<linearGradient id="paint1_linear_2_226" x1="42.5968" y1="25.0008" x2="12.3506" y2="25.0008" gradientUnits="userSpaceOnUse">
<stop stop-color="#FFE000"/>
<stop offset="0.4087" stop-color="#FFBD00"/>
<stop offset="0.7754" stop-color="#FFA500"/>
<stop offset="1" stop-color="#FF9C00"/>
</linearGradient>
<linearGradient id="paint2_linear_2_226" x1="31.3379" y1="27.8702" x2="2.89011" y2="56.3181" gradientUnits="userSpaceOnUse">
<stop stop-color="#FF3A44"/>
<stop offset="1" stop-color="#C31162"/>
</linearGradient>
<linearGradient id="paint3_linear_2_226" x1="9.42432" y1="0.219253" x2="22.1275" y2="12.9224" gradientUnits="userSpaceOnUse">
<stop stop-color="#32A071"/>
<stop offset="0.0685" stop-color="#2DA771"/>
<stop offset="0.4762" stop-color="#15CF74"/>
<stop offset="0.8009" stop-color="#06E775"/>
<stop offset="1" stop-color="#00F076"/>
</linearGradient>
<linearGradient id="paint4_linear_2_226" x1="42.5972" y1="25.0016" x2="12.3508" y2="25.0016" gradientUnits="userSpaceOnUse">
<stop stop-color="#CCB300"/>
<stop offset="0.4087" stop-color="#CC9700"/>
<stop offset="0.7754" stop-color="#CC8400"/>
<stop offset="1" stop-color="#CC7D00"/>
</linearGradient>
<linearGradient id="paint5_linear_2_226" x1="31.338" y1="27.8693" x2="2.89016" y2="56.3171" gradientUnits="userSpaceOnUse">
<stop stop-color="#CC2E36"/>
<stop offset="1" stop-color="#9C0E4E"/>
</linearGradient>
<linearGradient id="paint6_linear_2_226" x1="27.5525" y1="10.8871" x2="6.57435" y2="31.8652" gradientUnits="userSpaceOnUse">
<stop stop-color="#008DE0"/>
<stop offset="0.00657445" stop-color="#008DE0"/>
<stop offset="0.2601" stop-color="#00A7E0"/>
<stop offset="0.5122" stop-color="#00B8E0"/>
<stop offset="0.7604" stop-color="#00C4E0"/>
<stop offset="1" stop-color="#00C7E0"/>
</linearGradient>
<linearGradient id="paint7_linear_2_226" x1="31.3384" y1="27.8695" x2="2.89045" y2="56.318" gradientUnits="userSpaceOnUse">
<stop stop-color="#E0333C"/>
<stop offset="1" stop-color="#AB0F56"/>
</linearGradient>
<linearGradient id="paint8_linear_2_226" x1="42.5977" y1="25.0018" x2="12.3514" y2="25.0018" gradientUnits="userSpaceOnUse">
<stop stop-color="#E0C500"/>
<stop offset="0.4087" stop-color="#E0A600"/>
<stop offset="0.7754" stop-color="#E09100"/>
<stop offset="1" stop-color="#E08900"/>
</linearGradient>
<linearGradient id="paint9_linear_2_226" x1="42.5962" y1="25.0009" x2="12.35" y2="25.0009" gradientUnits="userSpaceOnUse">
<stop stop-color="#FFE840"/>
<stop offset="0.4087" stop-color="#FFCE40"/>
<stop offset="0.7754" stop-color="#FFBC40"/>
<stop offset="1" stop-color="#FFB540"/>
</linearGradient>
<linearGradient id="paint10_linear_2_226" x1="27.5525" y1="10.8866" x2="6.57435" y2="31.8647" gradientUnits="userSpaceOnUse">
<stop stop-color="#40B8FF"/>
<stop offset="0.00657445" stop-color="#40B9FF"/>
<stop offset="0.2601" stop-color="#40CEFF"/>
<stop offset="0.5122" stop-color="#40DDFF"/>
<stop offset="0.7604" stop-color="#40E7FF"/>
<stop offset="1" stop-color="#40EAFF"/>
</linearGradient>
<linearGradient id="paint11_linear_2_226" x1="9.4259" y1="0.220262" x2="22.129" y2="12.9234" gradientUnits="userSpaceOnUse">
<stop stop-color="#65B895"/>
<stop offset="0.0685" stop-color="#62BD95"/>
<stop offset="0.4762" stop-color="#50DB97"/>
<stop offset="0.8009" stop-color="#44ED98"/>
<stop offset="1" stop-color="#40F498"/>
</linearGradient>
<clipPath id="clip0_2_226">
<rect width="169" height="50" fill="white" transform="translate(0.303711)"/>
</clipPath>
</defs>
</svg>
