<svg width="150" height="50" viewBox="0 0 150 50" fill="none" xmlns="http://www.w3.org/2000/svg">
<path d="M138.055 0.000162499H11.9518C11.4921 0.000162499 11.038 0.0001625 10.5795 0.00266249C10.1958 0.00516248 9.81506 0.012425 9.42761 0.0185374C8.5859 0.0284147 7.74617 0.102257 6.91571 0.239424C6.08642 0.379577 5.28311 0.643805 4.53295 1.02317C3.7837 1.40575 3.0991 1.90287 2.50396 2.49649C1.90571 3.08845 1.40701 3.77267 1.02706 4.52285C0.646057 5.27153 0.381868 6.07382 0.243619 6.90199C0.104055 7.72912 0.0289539 8.56579 0.0189906 9.40448C0.00735808 9.78773 0.00612964 10.1723 0 10.5556V39.4483C0.00612964 39.8364 0.00735808 40.2124 0.0189906 40.6007C0.028957 41.4393 0.104058 42.2759 0.243619 43.103C0.381487 43.9317 0.645691 44.7344 1.02706 45.4834C1.40684 46.2311 1.9056 46.9126 2.50396 47.5013C3.09684 48.0975 3.78189 48.595 4.53295 48.9746C5.28311 49.355 6.08633 49.6208 6.91571 49.7631C7.74631 49.8992 8.58595 49.9731 9.42761 49.9841C9.81506 49.9926 10.1958 49.9975 10.5795 49.9975C11.038 50 11.4921 50 11.9518 50H138.055C138.505 50 138.963 50 139.413 49.9975C139.795 49.9975 140.187 49.9926 140.569 49.9841C141.409 49.9737 142.247 49.8998 143.076 49.7631C143.908 49.6198 144.714 49.3541 145.468 48.9746C146.218 48.5948 146.903 48.0973 147.495 47.5013C148.092 46.9103 148.592 46.2293 148.976 45.4834C149.355 44.7339 149.616 43.9312 149.752 43.103C149.892 42.2758 149.97 41.4394 149.985 40.6007C149.99 40.2124 149.99 39.8364 149.99 39.4483C150 38.9942 150 38.5425 150 38.081V11.9203C150 11.4625 150 11.0084 149.99 10.5556C149.99 10.1723 149.99 9.78773 149.985 9.40443C149.97 8.56566 149.892 7.72918 149.752 6.90194C149.616 6.07424 149.354 5.27202 148.976 4.5228C148.202 3.01915 146.975 1.79519 145.468 1.02306C144.714 0.64462 143.908 0.380462 143.076 0.239312C142.247 0.101541 141.409 0.0276721 140.569 0.0183624C140.187 0.0122625 139.795 0.00493748 139.413 0.00249999C138.963 0 138.505 0 138.055 0V0.000162499Z" fill="#06E594"/>
<path d="M10.5851 48.9061C10.2031 48.9061 9.83045 48.9012 9.45153 48.8927C8.66656 48.8825 7.88343 48.8144 7.10856 48.6888C6.38602 48.5648 5.68608 48.3339 5.03182 48.004C4.38356 47.6768 3.7923 47.2477 3.28068 46.7332C2.76165 46.2248 2.32954 45.6352 2.00146 44.9876C1.66977 44.3358 1.44022 43.6372 1.32081 42.9161C1.19185 42.1413 1.12208 41.3578 1.1121 40.5724C1.10415 40.3088 1.09375 39.431 1.09375 39.431V10.5554C1.09375 10.5554 1.10483 9.69114 1.11216 9.43722C1.12172 8.65308 1.19109 7.8708 1.31966 7.09714C1.43929 6.37405 1.66902 5.67342 2.00089 5.01952C2.32776 4.37242 2.75747 3.78232 3.27337 3.27209C3.78869 2.75702 4.38185 2.32575 5.03121 1.99401C5.68397 1.66512 6.38258 1.43591 7.10365 1.31409C7.88107 1.18729 8.66693 1.11875 9.45461 1.10901L10.5857 1.09375H139.407L140.551 1.10962C141.332 1.11887 142.11 1.18681 142.881 1.31286C143.609 1.43622 144.315 1.66702 144.975 1.99767C146.276 2.66623 147.335 3.72395 148.002 5.02258C148.329 5.67196 148.555 6.36687 148.673 7.08372C148.803 7.86372 148.876 8.65215 148.891 9.44272C148.895 9.79672 148.895 10.177 148.895 10.5554C148.905 11.0241 148.905 11.4703 148.905 11.9201V38.0809C148.905 38.535 148.905 38.9781 148.895 39.4249C148.895 39.8314 148.895 40.2038 148.89 40.587C148.875 41.3635 148.804 42.1378 148.676 42.9039C148.559 43.6302 148.33 44.3343 147.999 44.9914C147.668 45.6319 147.239 46.2164 146.726 46.7235C146.214 47.2407 145.621 47.6723 144.971 48.0016C144.313 48.3341 143.608 48.5658 142.881 48.6888C142.106 48.815 141.323 48.8832 140.538 48.8927C140.17 48.9012 139.786 48.9061 139.413 48.9061L138.054 48.9086L10.5851 48.9061Z" fill="black"/>
<path d="M31.0485 25.3764C31.062 24.333 31.3399 23.3101 31.8564 22.4026C32.3728 21.4952 33.1111 20.7328 34.0025 20.1863C33.4362 19.3799 32.6892 18.7162 31.8207 18.248C30.9523 17.7798 29.9863 17.52 28.9995 17.4892C26.8946 17.2689 24.8539 18.7452 23.7813 18.7452C22.6879 18.7452 21.0364 17.5111 19.258 17.5476C18.1077 17.5846 16.9867 17.9182 16.0041 18.5158C15.0215 19.1133 14.2109 19.9545 13.6512 20.9574C11.2269 25.1429 13.0352 31.2942 15.3575 34.6775C16.5194 36.3341 17.8773 38.1847 19.654 38.1191C21.3927 38.0472 22.0421 37.0135 24.1408 37.0135C26.2201 37.0135 26.8293 38.1191 28.6422 38.0773C30.5079 38.0471 31.6833 36.4133 32.8044 34.7409C33.6392 33.5605 34.2816 32.2558 34.7078 30.8753C33.6239 30.4181 32.6989 29.6529 32.0482 28.6751C31.3974 27.6972 31.0498 26.5499 31.0485 25.3764Z" fill="#06E594"/>
<path d="M27.6243 15.2637C28.6415 14.0459 29.1427 12.4807 29.0213 10.9004C27.4672 11.0632 26.0316 11.8039 25.0006 12.9749C24.4965 13.547 24.1104 14.2125 23.8644 14.9335C23.6185 15.6544 23.5174 16.4167 23.567 17.1766C24.3443 17.1846 25.1133 17.0166 25.8161 16.6852C26.5189 16.3539 27.1372 15.8678 27.6243 15.2637Z" fill="#06E594"/>
<path d="M53.0276 33.9246H47.0943L45.6694 38.1201H43.1562L48.7762 22.5977H51.3873L57.0072 38.1201H54.4512L53.0276 33.9246ZM47.7089 31.9885H52.4119L50.0934 25.1795H50.0285L47.7089 31.9885Z" fill="#06E594"/>
<path d="M69.1454 32.4613C69.1454 35.9781 67.2578 38.2377 64.4093 38.2377C63.6877 38.2753 62.97 38.1095 62.3385 37.7594C61.707 37.4092 61.1872 36.8888 60.8385 36.2577H60.7846V41.8631H58.4551V26.8021H60.71V28.6845H60.7528C61.1175 28.0564 61.6462 27.5386 62.2825 27.1863C62.9188 26.834 63.639 26.6603 64.3664 26.6837C67.2467 26.6837 69.1454 28.9542 69.1454 32.4613ZM66.751 32.4613C66.751 30.1701 65.5636 28.6637 63.7519 28.6637C61.972 28.6637 60.7748 30.2018 60.7748 32.4613C60.7748 34.7416 61.972 36.2687 63.7519 36.2687C65.5636 36.2687 66.751 34.7733 66.751 32.4613Z" fill="#06E594"/>
<path d="M81.6356 32.4613C81.6356 35.9781 79.748 38.2376 76.8995 38.2376C76.1779 38.2753 75.4603 38.1095 74.8288 37.7594C74.1973 37.4092 73.6774 36.8888 73.3287 36.2576H73.2748V41.8631H70.9453V26.8021H73.2001V28.6844H73.243C73.6077 28.0564 74.1363 27.5386 74.7727 27.1863C75.409 26.834 76.1292 26.6603 76.8566 26.6837C79.737 26.6837 81.6356 28.9542 81.6356 32.4613ZM79.2413 32.4613C79.2413 30.1701 78.0538 28.6637 76.2421 28.6637C74.4623 28.6637 73.2651 30.2018 73.2651 32.4613C73.2651 34.7416 74.4623 36.2687 76.2421 36.2687C78.0539 36.2687 79.2413 34.7733 79.2413 32.4613Z" fill="#06E594"/>
<path d="M89.8905 33.7942C90.0631 35.3335 91.5627 36.3442 93.6118 36.3442C95.5753 36.3442 96.988 35.3335 96.988 33.9455C96.988 32.7407 96.136 32.0193 94.1186 31.5249L92.1013 31.0403C89.2429 30.3518 87.916 29.0188 87.916 26.8557C87.916 24.1775 90.2565 22.3379 93.58 22.3379C96.8692 22.3379 99.1241 24.1775 99.2 26.8557H96.8484C96.7076 25.3066 95.4235 24.3716 93.5469 24.3716C91.6703 24.3716 90.3862 25.3176 90.3862 26.6946C90.3862 27.792 91.2064 28.4377 93.2127 28.9321L94.9277 29.352C98.1215 30.1052 99.4484 31.3845 99.4484 33.655C99.4484 36.559 97.1287 38.3778 93.4392 38.3778C89.9872 38.3778 87.6564 36.6017 87.5059 33.7941L89.8905 33.7942Z" fill="#06E594"/>
<path d="M104.477 24.125V26.8032H106.635V28.6428H104.477V34.8818C104.477 35.851 104.909 36.3027 105.858 36.3027C106.114 36.2982 106.37 36.2803 106.624 36.2489V38.0776C106.198 38.157 105.764 38.193 105.33 38.185C103.033 38.185 102.136 37.3244 102.136 35.1296V28.6428H100.486V26.8032H102.136V24.125H104.477Z" fill="#06E594"/>
<path d="M107.885 32.4624C107.885 28.9016 109.988 26.6641 113.267 26.6641C116.558 26.6641 118.651 28.9016 118.651 32.4624C118.651 36.0329 116.569 38.2607 113.267 38.2607C109.967 38.2607 107.885 36.0329 107.885 32.4624ZM116.277 32.4624C116.277 30.0198 115.155 28.5781 113.267 28.5781C111.38 28.5781 110.258 30.0308 110.258 32.4624C110.258 34.9148 111.38 36.3454 113.267 36.3454C115.155 36.3454 116.277 34.9148 116.277 32.4624Z" fill="#06E594"/>
<path d="M120.57 26.802H122.792V28.7283H122.846C122.996 28.1267 123.35 27.595 123.847 27.2227C124.344 26.8503 124.955 26.66 125.576 26.6836C125.844 26.6827 126.112 26.7117 126.374 26.7703V28.9431C126.035 28.8399 125.681 28.7924 125.327 28.8028C124.989 28.7891 124.651 28.8486 124.338 28.9772C124.025 29.1058 123.744 29.3004 123.513 29.5478C123.282 29.7952 123.108 30.0894 123.002 30.4102C122.896 30.731 122.862 31.0709 122.9 31.4065V38.1191H120.57V26.802Z" fill="#06E594"/>
<path d="M137.114 34.7964C136.801 36.8508 134.795 38.2607 132.228 38.2607C128.926 38.2607 126.877 36.0549 126.877 32.5161C126.877 28.9663 128.937 26.6641 132.13 26.6641C135.27 26.6641 137.244 28.8149 137.244 32.2463V33.0422H129.229V33.1826C129.192 33.5991 129.244 34.0187 129.382 34.4135C129.52 34.8083 129.741 35.1692 130.03 35.4724C130.318 35.7756 130.668 36.0141 131.057 36.1719C131.445 36.3298 131.862 36.4035 132.281 36.3881C132.832 36.4396 133.384 36.3124 133.857 36.0256C134.329 35.7388 134.696 35.3077 134.902 34.7963L137.114 34.7964ZM129.24 31.4187H134.913C134.934 31.0442 134.877 30.6694 134.746 30.3179C134.615 29.9664 134.412 29.6457 134.151 29.376C133.889 29.1063 133.575 28.8934 133.227 28.7506C132.879 28.6079 132.506 28.5383 132.13 28.5464C131.75 28.5441 131.374 28.6168 131.023 28.7602C130.672 28.9037 130.353 29.115 130.084 29.382C129.816 29.6491 129.603 29.9665 129.458 30.3161C129.313 30.6657 129.239 31.0404 129.24 31.4187Z" fill="#06E594"/>
<path d="M47.4145 10.9147C47.9029 10.8798 48.393 10.9533 48.8494 11.1301C49.3058 11.3069 49.7172 11.5825 50.0539 11.9371C50.3905 12.2916 50.6441 12.7162 50.7963 13.1803C50.9485 13.6444 50.9955 14.1364 50.9339 14.6208C50.9339 17.0036 49.6424 18.3732 47.4145 18.3732H44.7129V10.9147H47.4145ZM45.8746 17.3184H47.2848C47.6338 17.3392 47.983 17.2822 48.3071 17.1514C48.6312 17.0207 48.9219 16.8195 49.1582 16.5625C49.3945 16.3056 49.5703 15.9993 49.6729 15.666C49.7755 15.3328 49.8023 14.9809 49.7514 14.636C49.7986 14.2924 49.7691 13.9427 49.6649 13.6119C49.5608 13.281 49.3845 12.9773 49.1487 12.7224C48.913 12.4675 48.6236 12.2677 48.3014 12.1374C47.9791 12.0071 47.632 11.9495 47.2848 11.9687H45.8746V17.3184Z" fill="#06E594"/>
<path d="M52.247 15.5552C52.2115 15.1853 52.2539 14.8121 52.3715 14.4595C52.4892 14.107 52.6794 13.7828 52.93 13.5078C53.1807 13.2328 53.4862 13.0131 53.8269 12.8628C54.1677 12.7124 54.5362 12.6348 54.9088 12.6348C55.2815 12.6348 55.65 12.7124 55.9907 12.8628C56.3315 13.0131 56.637 13.2328 56.8876 13.5078C57.1382 13.7828 57.3285 14.107 57.4461 14.4595C57.5637 14.8121 57.6062 15.1853 57.5707 15.5552C57.6068 15.9255 57.5649 16.2992 57.4476 16.6524C57.3303 17.0055 57.1402 17.3303 56.8895 17.6058C56.6388 17.8813 56.3331 18.1015 55.992 18.2522C55.6508 18.4028 55.2819 18.4807 54.9088 18.4807C54.5358 18.4807 54.1668 18.4028 53.8257 18.2522C53.4846 18.1015 53.1789 17.8813 52.9282 17.6058C52.6775 17.3303 52.4874 17.0055 52.3701 16.6524C52.2527 16.2992 52.2108 15.9255 52.247 15.5552ZM56.4249 15.5552C56.4249 14.3351 55.8753 13.6216 54.9107 13.6216C53.9424 13.6216 53.3977 14.3351 53.3977 15.5552C53.3977 16.7851 53.9424 17.4931 54.9107 17.4931C55.8753 17.4931 56.4249 16.7802 56.4249 15.5552Z" fill="#06E594"/>
<path d="M64.6474 18.3728H63.4918L62.3253 14.2273H62.2371L61.0754 18.3728H59.9309L58.375 12.7441H59.5049L60.516 17.0391H60.5992L61.7597 12.7441H62.8284L63.9888 17.0391H64.077L65.0832 12.7441H66.1972L64.6474 18.3728Z" fill="#06E594"/>
<path d="M67.5059 12.7451H68.5782V13.6392H68.6614C68.8027 13.3181 69.0408 13.0488 69.3428 12.8691C69.6447 12.6893 69.9953 12.608 70.3458 12.6364C70.6205 12.6158 70.8963 12.6571 71.1527 12.7572C71.4092 12.8573 71.6398 13.0137 71.8274 13.2148C72.015 13.4158 72.1549 13.6564 72.2366 13.9187C72.3184 14.181 72.3399 14.4582 72.2995 14.7299V18.3736H71.1856V15.0088C71.1856 14.1043 70.7914 13.6545 69.9676 13.6545C69.7811 13.6458 69.595 13.6775 69.4219 13.7472C69.2489 13.817 69.093 13.9233 68.965 14.0588C68.837 14.1943 68.7398 14.3558 68.6803 14.5322C68.6207 14.7086 68.6001 14.8958 68.6198 15.0809V18.3737H67.5059V12.7451Z" fill="#06E594"/>
<path d="M74.0742 10.5469H75.1882V18.3728H74.0742V10.5469Z" fill="#06E594"/>
<path d="M76.7352 15.5553C76.6998 15.1854 76.7422 14.8122 76.8599 14.4596C76.9775 14.107 77.1678 13.7828 77.4184 13.5078C77.6691 13.2328 77.9746 13.0131 78.3154 12.8628C78.6562 12.7124 79.0247 12.6348 79.3974 12.6348C79.77 12.6348 80.1386 12.7124 80.4794 12.8628C80.8202 13.0131 81.1257 13.2328 81.3763 13.5078C81.627 13.7828 81.8172 14.107 81.9349 14.4596C82.0525 14.8122 82.095 15.1854 82.0595 15.5553C82.0957 15.9256 82.0537 16.2994 81.9363 16.6525C81.819 17.0057 81.6288 17.3304 81.3781 17.6059C81.1274 17.8814 80.8217 18.1016 80.4805 18.2523C80.1394 18.4029 79.7705 18.4808 79.3974 18.4808C79.0243 18.4808 78.6553 18.4029 78.3142 18.2523C77.9731 18.1016 77.6674 17.8814 77.4166 17.6059C77.1659 17.3304 76.9758 17.0057 76.8584 16.6525C76.7411 16.2994 76.6991 15.9256 76.7352 15.5553ZM80.9131 15.5553C80.9131 14.3353 80.3635 13.6218 79.3989 13.6218C78.4306 13.6218 77.8859 14.3353 77.8859 15.5553C77.8859 16.7852 78.4307 17.4932 79.3989 17.4932C80.3635 17.4932 80.9132 16.7803 80.9132 15.5553H80.9131Z" fill="#06E594"/>
<path d="M83.2324 16.7803C83.2324 15.7671 83.9889 15.183 85.3318 15.1L86.8607 15.0121V14.5262C86.8607 13.9317 86.4666 13.5961 85.7052 13.5961C85.0833 13.5961 84.6524 13.8237 84.5288 14.2217H83.4503C83.5642 13.2549 84.4761 12.6348 85.7566 12.6348C87.1717 12.6348 87.9698 13.3373 87.9698 14.5262V18.372H86.8975V17.581H86.8093C86.6304 17.8648 86.3792 18.0961 86.0814 18.2513C85.7835 18.4066 85.4496 18.4803 85.1139 18.4648C84.8769 18.4894 84.6375 18.4642 84.4109 18.3908C84.1843 18.3174 83.9756 18.1975 83.7984 18.0388C83.6211 17.8801 83.4792 17.6861 83.3817 17.4693C83.2842 17.2525 83.2334 17.0178 83.2324 16.7803ZM86.8607 16.2993V15.8287L85.4824 15.9166C84.705 15.9685 84.3525 16.2322 84.3525 16.7284C84.3525 17.2349 84.7932 17.5297 85.3992 17.5297C85.5767 17.5477 85.7561 17.5298 85.9265 17.4772C86.097 17.4246 86.2552 17.3383 86.3915 17.2235C86.5279 17.1087 86.6397 16.9677 86.7203 16.8089C86.8009 16.6502 86.8487 16.4768 86.8607 16.2993Z" fill="#06E594"/>
<path d="M89.4336 15.556C89.4336 13.7775 90.3505 12.6508 91.7766 12.6508C92.1293 12.6346 92.4794 12.7188 92.7859 12.8937C93.0925 13.0685 93.3427 13.3268 93.5075 13.6383H93.5907V10.5469H94.7047V18.3728H93.6373V17.4835H93.5491C93.3716 17.7929 93.1126 18.0479 92.8002 18.221C92.4877 18.3941 92.1338 18.4787 91.7766 18.4655C90.3407 18.4656 89.4336 17.3389 89.4336 15.556ZM90.5843 15.556C90.5843 16.7499 91.1486 17.4683 92.0924 17.4683C93.0313 17.4683 93.6116 16.7395 93.6116 15.5609C93.6116 14.3878 93.0252 13.6487 92.0924 13.6487C91.1547 13.6487 90.5843 14.3719 90.5843 15.556Z" fill="#06E594"/>
<path d="M99.3153 15.5552C99.2798 15.1853 99.3223 14.8121 99.4399 14.4595C99.5575 14.107 99.7478 13.7828 99.9984 13.5078C100.249 13.2328 100.555 13.0131 100.895 12.8628C101.236 12.7124 101.605 12.6348 101.977 12.6348C102.35 12.6348 102.718 12.7124 103.059 12.8628C103.4 13.0131 103.705 13.2328 103.956 13.5078C104.207 13.7828 104.397 14.107 104.514 14.4595C104.632 14.8121 104.675 15.1853 104.639 15.5552C104.675 15.9255 104.633 16.2992 104.516 16.6524C104.399 17.0055 104.209 17.3303 103.958 17.6058C103.707 17.8813 103.401 18.1015 103.06 18.2522C102.719 18.4028 102.35 18.4807 101.977 18.4807C101.604 18.4807 101.235 18.4028 100.894 18.2522C100.553 18.1015 100.247 17.8813 99.9965 17.6058C99.7458 17.3303 99.5557 17.0055 99.4384 16.6524C99.3211 16.2992 99.2792 15.9255 99.3153 15.5552ZM103.493 15.5552C103.493 14.3351 102.944 13.6216 101.979 13.6216C101.011 13.6216 100.466 14.3351 100.466 15.5552C100.466 16.7851 101.011 17.4931 101.979 17.4931C102.944 17.4931 103.493 16.7802 103.493 15.5552Z" fill="#06E594"/>
<path d="M106.133 12.7451H107.205V13.6392H107.288C107.43 13.3181 107.668 13.0488 107.97 12.8691C108.272 12.6893 108.622 12.608 108.973 12.6364C109.247 12.6158 109.523 12.6571 109.78 12.7572C110.036 12.8573 110.267 13.0137 110.454 13.2148C110.642 13.4158 110.782 13.6564 110.864 13.9187C110.945 14.181 110.967 14.4582 110.926 14.7299V18.3736H109.813V15.0088C109.813 14.1043 109.418 13.6545 108.595 13.6545C108.408 13.6458 108.222 13.6775 108.049 13.7472C107.876 13.817 107.72 13.9233 107.592 14.0588C107.464 14.1943 107.367 14.3558 107.307 14.5322C107.248 14.7086 107.227 14.8958 107.247 15.0809V18.3737H106.133V12.7451Z" fill="#06E594"/>
<path d="M117.22 11.3438V12.7707H118.443V13.7064H117.22V16.6007C117.22 17.1903 117.464 17.4485 118.018 17.4485C118.16 17.448 118.302 17.4395 118.443 17.4228V18.3481C118.243 18.3838 118.04 18.4028 117.837 18.4049C116.598 18.4049 116.105 17.9703 116.105 16.8851V13.7064H115.209V12.7707H116.105V11.3438H117.22Z" fill="#06E594"/>
<path d="M119.965 10.5469H121.069V13.6487H121.157C121.305 13.3245 121.55 13.0538 121.858 12.8734C122.166 12.6929 122.522 12.6116 122.878 12.6404C123.151 12.6256 123.425 12.671 123.678 12.7736C123.932 12.8761 124.159 13.0332 124.345 13.2337C124.531 13.4341 124.67 13.6729 124.752 13.9331C124.835 14.1932 124.859 14.4683 124.822 14.7388V18.3728H123.707V15.0128C123.707 14.1138 123.287 13.6584 122.5 13.6584C122.309 13.6428 122.116 13.669 121.936 13.7353C121.756 13.8016 121.592 13.9064 121.457 14.0424C121.321 14.1783 121.217 14.3421 121.152 14.5222C121.087 14.7024 121.062 14.8946 121.079 15.0854V18.3728H119.965V10.5469Z" fill="#06E594"/>
<path d="M131.317 16.8524C131.166 17.3668 130.838 17.8118 130.391 18.1095C129.944 18.4071 129.406 18.5386 128.872 18.4808C128.5 18.4906 128.13 18.4195 127.789 18.2726C127.447 18.1257 127.142 17.9064 126.894 17.63C126.646 17.3536 126.461 17.0267 126.352 16.6719C126.243 16.3171 126.213 15.943 126.264 15.5755C126.215 15.2069 126.245 14.832 126.354 14.4762C126.462 14.1203 126.646 13.7919 126.893 13.513C127.139 13.2342 127.443 13.0115 127.784 12.86C128.125 12.7085 128.494 12.6317 128.867 12.6349C130.437 12.6349 131.385 13.7049 131.385 15.4723V15.86H127.399V15.9222C127.382 16.1288 127.408 16.3367 127.475 16.5326C127.543 16.7286 127.651 16.9082 127.793 17.06C127.935 17.2118 128.106 17.3325 128.297 17.4142C128.488 17.496 128.694 17.537 128.902 17.5347C129.169 17.5666 129.439 17.5188 129.678 17.3972C129.917 17.2757 130.114 17.0861 130.245 16.8523L131.317 16.8524ZM127.399 15.0384H130.25C130.264 14.8495 130.238 14.6598 130.174 14.4814C130.111 14.303 130.01 14.1399 129.879 14.0025C129.748 13.8652 129.59 13.7567 129.415 13.684C129.239 13.6113 129.051 13.576 128.861 13.5803C128.668 13.5779 128.477 13.614 128.298 13.6864C128.12 13.7588 127.958 13.8661 127.822 14.002C127.685 14.1379 127.578 14.2996 127.505 14.4776C127.433 14.6556 127.397 14.8463 127.399 15.0384Z" fill="#06E594"/>
</svg>
