<svg width="48" height="40" viewBox="0 0 48 40" fill="none" xmlns="http://www.w3.org/2000/svg">
<rect width="48" height="40" rx="8" fill="white" fill-opacity="0.4"/>
<path fill-rule="evenodd" clip-rule="evenodd" d="M17.2759 12.4606C17.1004 12.6491 16.999 12.9371 16.999 13.314V26.6837C16.999 27.0607 17.1004 27.3487 17.2819 27.5296L17.3288 27.5703L24.8441 20.0796V19.9122L17.3227 12.4199L17.2759 12.4606Z" fill="url(#paint0_linear_163_4437)"/>
<path fill-rule="evenodd" clip-rule="evenodd" d="M27.3455 22.5839L24.8389 20.0854V19.9105L27.3455 17.4121L27.3999 17.4453L30.3649 19.125C31.2136 19.6014 31.2136 20.3885 30.3649 20.871L27.3999 22.5507L27.3455 22.5839Z" fill="url(#paint1_linear_163_4437)"/>
<path fill-rule="evenodd" clip-rule="evenodd" d="M27.3977 22.5508L24.8366 19.998L17.2744 27.5356C17.5512 27.8311 18.0157 27.8643 18.5345 27.5763L27.3977 22.5508Z" fill="url(#paint2_linear_163_4437)"/>
<path fill-rule="evenodd" clip-rule="evenodd" d="M27.3977 17.4449L18.5345 12.4269C18.0157 12.1314 17.5497 12.1721 17.2744 12.4677L24.8366 19.9976L27.3977 17.4449Z" fill="url(#paint3_linear_163_4437)"/>
<path opacity="0.2" fill-rule="evenodd" clip-rule="evenodd" d="M27.345 22.4961L18.5423 27.4809C18.0507 27.7629 17.612 27.7432 17.3291 27.4869L17.2822 27.5337L17.3291 27.5744C17.612 27.8292 18.0507 27.8503 18.5423 27.5683L27.4055 22.5504L27.345 22.4961Z" fill="black"/>
<path opacity="0.12" fill-rule="evenodd" clip-rule="evenodd" d="M30.3639 20.7836L27.3369 22.4965L27.3914 22.5508L30.3563 20.8711C30.7814 20.6298 30.9902 20.3132 30.9902 19.998C30.9645 20.2875 30.7481 20.562 30.3639 20.7836Z" fill="black"/>
<path opacity="0.25" fill-rule="evenodd" clip-rule="evenodd" d="M18.536 12.5151L30.3641 19.2127C30.7483 19.4284 30.9647 19.7103 30.9979 19.9983C30.9979 19.6832 30.7892 19.3665 30.3641 19.1253L18.536 12.4276C17.6873 11.9436 16.999 12.3477 16.999 13.3142V13.4017C16.999 12.4337 17.6873 12.0371 18.536 12.5151Z" fill="white"/>
<defs>
<linearGradient id="paint0_linear_163_4437" x1="24.17" y1="13.1698" x2="12.137" y2="16.3865" gradientUnits="userSpaceOnUse">
<stop stop-color="#00A0FF"/>
<stop offset="0.00657" stop-color="#00A1FF"/>
<stop offset="0.2601" stop-color="#00BEFF"/>
<stop offset="0.5122" stop-color="#00D2FF"/>
<stop offset="0.7604" stop-color="#00DFFF"/>
<stop offset="1" stop-color="#00E3FF"/>
</linearGradient>
<linearGradient id="paint1_linear_163_4437" x1="31.4716" y1="19.998" x2="16.7936" y2="19.998" gradientUnits="userSpaceOnUse">
<stop stop-color="#FFE000"/>
<stop offset="0.4087" stop-color="#FFBD00"/>
<stop offset="0.7754" stop-color="#FFA500"/>
<stop offset="1" stop-color="#FF9C00"/>
</linearGradient>
<linearGradient id="paint2_linear_163_4437" x1="26.0051" y1="21.3871" x2="16.3875" y2="37.6273" gradientUnits="userSpaceOnUse">
<stop stop-color="#FF3A44"/>
<stop offset="1" stop-color="#C31162"/>
</linearGradient>
<linearGradient id="paint3_linear_163_4437" x1="15.3702" y1="8.01315" x2="19.6609" y2="15.2663" gradientUnits="userSpaceOnUse">
<stop stop-color="#32A071"/>
<stop offset="0.0685" stop-color="#2DA771"/>
<stop offset="0.4762" stop-color="#15CF74"/>
<stop offset="0.8009" stop-color="#06E775"/>
<stop offset="1" stop-color="#00F076"/>
</linearGradient>
</defs>
</svg>
