<svg width="327" height="64" viewBox="0 0 327 64" fill="none" xmlns="http://www.w3.org/2000/svg">
<path d="M327 61.1836C327 64.9495 322.79 68 317.584 68H9.42868C4.22436 68 0 64.9495 0 61.1836V6.82527C0 3.06114 4.22436 0 9.42868 0H317.581C322.79 0 326.998 3.06114 326.998 6.82527L327 61.1836Z" fill="white"/>
<path d="M166.856 27.5455C166.077 27.5455 165.421 27.2738 164.902 26.7392C164.387 26.2195 164.099 25.5031 164.112 24.7717C164.112 23.9911 164.378 23.3302 164.902 22.8063C165.419 22.2716 166.075 22 166.854 22C167.624 22 168.281 22.2716 168.809 22.8063C169.332 23.3473 169.598 24.0082 169.598 24.7717C169.59 25.5544 169.324 26.2152 168.809 26.7371C168.292 27.276 167.635 27.5455 166.856 27.5455ZM143.681 27.5455C142.92 27.5455 142.259 27.2781 141.718 26.7499C141.182 26.2238 140.909 25.5587 140.909 24.7738C140.909 23.9889 141.182 23.3238 141.718 22.7977C142.248 22.2695 142.909 22.0021 143.681 22.0021C144.059 22.0021 144.426 22.077 144.778 22.2288C145.123 22.3764 145.404 22.5774 145.612 22.8234L145.664 22.8854L145.082 23.4543L145.022 23.3837C144.694 22.9945 144.254 22.8041 143.673 22.8041C143.154 22.8041 142.701 22.988 142.327 23.3516C141.952 23.7173 141.761 24.1964 141.761 24.7759C141.761 25.3555 141.952 25.8346 142.327 26.2003C142.701 26.5638 143.154 26.7477 143.673 26.7477C144.226 26.7477 144.692 26.5638 145.055 26.2003C145.269 25.9864 145.402 25.687 145.449 25.3085H143.585V24.5086H146.25L146.26 24.5813C146.28 24.7161 146.299 24.8551 146.299 24.9834C146.299 25.7212 146.076 26.3179 145.634 26.7584C145.132 27.2803 144.475 27.5455 143.681 27.5455ZM174.495 27.4321H173.673L171.156 23.4179L171.178 24.1408V27.43H170.356V22.1155H171.293L171.319 22.1561L173.686 25.9372L173.664 25.2165V22.1155H174.495V27.4321ZM160.681 27.4321H159.849V22.9153H158.405V22.1155H162.123V22.9153H160.679V27.4321H160.681ZM157.727 27.4321H156.896V22.1155H157.727V27.4321ZM153.06 27.4321H152.23V22.9153H150.786V22.1155H154.504V22.9153H153.06V27.4321ZM150.26 27.4236H147.076V22.1155H150.26V22.9153H147.908V24.3739H150.03V25.1652H147.908V26.6237H150.26V27.4236ZM165.511 26.1896C165.882 26.5595 166.333 26.7456 166.856 26.7456C167.395 26.7456 167.835 26.5638 168.202 26.1896C168.566 25.826 168.751 25.3491 168.751 24.7738C168.751 24.1985 168.566 23.7195 168.204 23.358C167.833 22.988 167.38 22.802 166.858 22.802C166.32 22.802 165.88 22.9838 165.515 23.358C165.15 23.7216 164.966 24.1985 164.966 24.7738C164.966 25.3491 165.148 25.8281 165.511 26.1896Z" fill="black"/>
<path fill-rule="evenodd" clip-rule="evenodd" d="M164.036 34.8554C162.008 34.8554 160.365 36.3888 160.365 38.5039C160.365 40.5997 162.019 42.1524 164.036 42.1524C166.063 42.1524 167.707 40.6083 167.707 38.5039C167.707 36.3888 166.063 34.8554 164.036 34.8554ZM164.036 40.7066C162.926 40.7066 161.972 39.7913 161.972 38.4953C161.972 37.18 162.929 36.284 164.036 36.284C165.145 36.284 166.1 37.18 166.1 38.4953C166.102 39.7999 165.145 40.7066 164.036 40.7066ZM156.026 34.8554C153.998 34.8554 152.355 36.3888 152.355 38.5039C152.355 40.5997 154.009 42.1524 156.026 42.1524C158.054 42.1524 159.697 40.6083 159.697 38.5039C159.697 36.3888 158.052 34.8554 156.026 34.8554ZM156.026 40.7066C154.917 40.7066 153.962 39.7913 153.962 38.4953C153.962 37.18 154.919 36.284 156.026 36.284C157.135 36.284 158.09 37.18 158.09 38.4953C158.09 39.7999 157.135 40.7066 156.026 40.7066ZM146.495 35.9696V37.5137H150.214C150.1 38.3798 149.812 39.0193 149.372 39.4577C148.828 40.0009 147.986 40.5912 146.504 40.5912C144.219 40.5912 142.431 38.7519 142.431 36.4743C142.431 34.1967 144.219 32.3575 146.504 32.3575C147.738 32.3575 148.637 32.8429 149.304 33.4631L150.402 32.3681C149.475 31.4828 148.242 30.8048 146.512 30.8048C143.378 30.8048 140.747 33.3498 140.747 36.4657C140.747 39.5903 143.375 42.1267 146.512 42.1267C148.205 42.1267 149.475 41.5749 150.48 40.5356C151.503 39.5154 151.827 38.0761 151.827 36.9149C151.827 36.5534 151.799 36.2284 151.741 35.9525H146.493C146.495 35.9503 146.495 35.9696 146.495 35.9696ZM185.479 37.1715C185.172 36.3524 184.245 34.8468 182.344 34.8468C180.46 34.8468 178.894 36.3246 178.894 38.4953C178.894 40.5441 180.443 42.1438 182.527 42.1438C184.2 42.1438 185.174 41.1237 185.576 40.5249L184.333 39.6951C183.921 40.3046 183.349 40.7045 182.535 40.7045C181.714 40.7045 181.139 40.3324 180.757 39.5988L185.651 37.5778C185.651 37.58 185.479 37.1715 185.479 37.1715ZM180.488 38.3905C180.45 36.9812 181.587 36.2647 182.4 36.2647C183.042 36.2647 183.576 36.5791 183.758 37.0368L180.488 38.3905ZM176.513 41.9257H178.12V31.2069H176.513V41.9257ZM173.873 35.6659H173.815C173.453 35.236 172.764 34.8468 171.884 34.8468C170.058 34.8468 168.376 36.4486 168.376 38.506C168.376 40.5548 170.05 42.1374 171.884 42.1374C172.753 42.1374 173.453 41.746 173.815 41.3076H173.873V41.8316C173.873 43.2238 173.127 43.9745 171.923 43.9745C170.938 43.9745 170.327 43.2687 170.078 42.6785L168.681 43.2602C169.082 44.2225 170.153 45.4138 171.921 45.4138C173.805 45.4138 175.401 44.3081 175.401 41.6113V35.065H173.882V35.6659C173.884 35.6659 173.873 35.6659 173.873 35.6659ZM172.028 40.7066C170.919 40.7066 169.992 39.7828 169.992 38.506C169.992 37.2185 170.919 36.2861 172.028 36.2861C173.127 36.2861 173.979 37.2292 173.979 38.506C173.989 39.7828 173.129 40.7066 172.028 40.7066ZM193.004 31.2069H189.161V41.9257H190.768V37.8665H193.006C194.785 37.8665 196.533 36.5812 196.533 34.541C196.533 32.5007 194.791 31.2069 193.004 31.2069ZM193.051 36.3695H190.766V32.6911H193.051C194.255 32.6911 194.935 33.6813 194.935 34.5303C194.935 35.3708 194.246 36.3695 193.051 36.3695ZM202.975 34.8361C201.807 34.8361 200.604 35.3515 200.106 36.4743L201.531 37.0646C201.837 36.4743 202.4 36.2733 202.994 36.2733C203.826 36.2733 204.667 36.7694 204.687 37.6548V37.7682C204.399 37.6056 203.768 37.3576 203.013 37.3576C201.475 37.3576 199.915 38.1959 199.915 39.7678C199.915 41.2071 201.177 42.131 202.582 42.131C203.661 42.131 204.256 41.6455 204.627 41.083H204.685V41.9128H206.234V37.8067C206.234 35.8947 204.809 34.8361 202.975 34.8361ZM202.773 40.7066C202.247 40.7066 201.511 40.45 201.511 39.7913C201.511 38.9615 202.43 38.6471 203.213 38.6471C203.921 38.6471 204.256 38.799 204.676 39.0086C204.56 39.971 203.745 40.6981 202.773 40.7066ZM211.885 35.065L210.04 39.7143H209.982L208.07 35.065H206.341L209.21 41.5642L207.575 45.1764H209.248L213.662 35.065H211.885ZM197.42 41.9257H199.027V31.2069H197.42V41.9257Z" fill="black"/>
<path fill-rule="evenodd" clip-rule="evenodd" d="M114.393 22.6587C114.144 22.926 114 23.3345 114 23.8692V42.8323C114 43.367 114.144 43.7755 114.401 44.0321L114.468 44.0899L125.127 33.4652V33.2278L114.459 22.601L114.393 22.6587Z" fill="url(#paint0_linear_212_3371)"/>
<path fill-rule="evenodd" clip-rule="evenodd" d="M128.674 37.0174L125.119 33.4737V33.2256L128.674 29.6819L128.752 29.7289L132.957 32.1114C134.161 32.7872 134.161 33.9035 132.957 34.5879L128.752 36.9703L128.674 37.0174Z" fill="url(#paint1_linear_212_3371)"/>
<path fill-rule="evenodd" clip-rule="evenodd" d="M128.75 36.9703L125.118 33.3496L114.392 44.0406C114.784 44.4598 115.443 44.5068 116.179 44.0983L128.75 36.9703Z" fill="url(#paint2_linear_212_3371)"/>
<path fill-rule="evenodd" clip-rule="evenodd" d="M128.75 29.7288L116.179 22.6115C115.443 22.1923 114.782 22.25 114.392 22.6692L125.118 33.3495L128.75 29.7288Z" fill="url(#paint3_linear_212_3371)"/>
<path opacity="0.2" fill-rule="evenodd" clip-rule="evenodd" d="M128.674 36.8933L116.189 43.9636C115.491 44.3635 114.869 44.3357 114.468 43.9722L114.401 44.0385L114.468 44.0962C114.869 44.4576 115.491 44.4876 116.189 44.0876L128.76 36.9703L128.674 36.8933Z" fill="black"/>
<path opacity="0.12" fill-rule="evenodd" clip-rule="evenodd" d="M132.957 34.4638L128.664 36.8933L128.741 36.9703L132.947 34.5879C133.55 34.2457 133.846 33.7966 133.846 33.3496C133.809 33.7602 133.502 34.1495 132.957 34.4638Z" fill="black"/>
<path opacity="0.25" fill-rule="evenodd" clip-rule="evenodd" d="M116.18 22.7357L132.957 32.2355C133.502 32.5413 133.808 32.9412 133.856 33.3497C133.856 32.9027 133.56 32.4536 132.957 32.1114L116.18 22.6117C114.976 21.9252 114 22.4983 114 23.8692V23.9932C114 22.6202 114.976 22.0577 116.18 22.7357Z" fill="black"/>
<defs>
<linearGradient id="paint0_linear_212_3371" x1="124.171" y1="23.6646" x2="107.104" y2="28.227" gradientUnits="userSpaceOnUse">
<stop stop-color="#00A0FF"/>
<stop offset="0.00657" stop-color="#00A1FF"/>
<stop offset="0.2601" stop-color="#00BEFF"/>
<stop offset="0.5122" stop-color="#00D2FF"/>
<stop offset="0.7604" stop-color="#00DFFF"/>
<stop offset="1" stop-color="#00E3FF"/>
</linearGradient>
<linearGradient id="paint1_linear_212_3371" x1="134.527" y1="33.3497" x2="113.708" y2="33.3497" gradientUnits="userSpaceOnUse">
<stop stop-color="#FFE000"/>
<stop offset="0.4087" stop-color="#FFBD00"/>
<stop offset="0.7754" stop-color="#FFA500"/>
<stop offset="1" stop-color="#FF9C00"/>
</linearGradient>
<linearGradient id="paint2_linear_212_3371" x1="126.775" y1="35.3198" x2="113.134" y2="58.3544" gradientUnits="userSpaceOnUse">
<stop stop-color="#FF3A44"/>
<stop offset="1" stop-color="#C31162"/>
</linearGradient>
<linearGradient id="paint3_linear_212_3371" x1="111.691" y1="16.3511" x2="117.777" y2="26.6386" gradientUnits="userSpaceOnUse">
<stop stop-color="#32A071"/>
<stop offset="0.0685" stop-color="#2DA771"/>
<stop offset="0.4762" stop-color="#15CF74"/>
<stop offset="0.8009" stop-color="#06E775"/>
<stop offset="1" stop-color="#00F076"/>
</linearGradient>
</defs>
</svg>
