<svg width="270" height="77" viewBox="0 0 270 77" fill="none" xmlns="http://www.w3.org/2000/svg">
<g clip-path="url(#clip0_163_4629)">
<path d="M294 68.8817C294 73.0907 289.932 76.5 284.9 76.5H-12.8885C-17.9177 76.5 -22 73.0907 -22 68.8817V8.12825C-22 3.92127 -17.9177 0.5 -12.8885 0.5H284.898C289.932 0.5 293.998 3.92127 293.998 8.12825L294 68.8817Z" fill="white"/>
<path d="M141.032 28.2802C139.72 28.2802 138.614 27.8228 137.739 26.9222C136.872 26.0468 136.387 24.84 136.409 23.608C136.409 22.2932 136.857 21.1801 137.739 20.2975C138.61 19.3969 139.716 18.9395 141.028 18.9395C142.325 18.9395 143.431 19.3969 144.32 20.2975C145.202 21.2089 145.65 22.322 145.65 23.608C145.636 24.9265 145.188 26.0396 144.32 26.9186C143.449 27.8264 142.343 28.2802 141.032 28.2802ZM101.996 28.2802C100.713 28.2802 99.5994 27.83 98.6887 26.9402C97.7852 26.054 97.3262 24.9337 97.3262 23.6116C97.3262 22.2896 97.7852 21.1693 98.6887 20.2831C99.5814 19.3933 100.695 18.9431 101.996 18.9431C102.632 18.9431 103.25 19.0691 103.842 19.3249C104.424 19.5735 104.898 19.9121 105.248 20.3263L105.335 20.4308L104.356 21.389L104.254 21.2701C103.701 20.6145 102.961 20.2939 101.981 20.2939C101.107 20.2939 100.344 20.6037 99.7151 21.2161C99.0826 21.8321 98.761 22.639 98.761 23.6153C98.761 24.5915 99.0826 25.3984 99.7151 26.0144C100.344 26.6268 101.107 26.9366 101.981 26.9366C102.914 26.9366 103.698 26.6268 104.309 26.0144C104.67 25.6542 104.894 25.1498 104.974 24.5122H101.833V23.165H106.322L106.34 23.2874C106.372 23.5144 106.405 23.7485 106.405 23.9647C106.405 25.2075 106.029 26.2125 105.284 26.9546C104.439 27.8336 103.333 28.2802 101.996 28.2802ZM153.898 28.0893H152.514L148.274 21.3278L148.31 22.5454V28.0857H146.926V19.134H148.506L148.549 19.2024L152.535 25.5713L152.499 24.3573V19.134H153.898V28.0893ZM130.63 28.0893H129.228V20.4812H126.796V19.134H133.059V20.4812H130.627V28.0893H130.63ZM125.654 28.0893H124.255V19.134H125.654V28.0893ZM117.793 28.0893H116.394V20.4812H113.962V19.134H120.225V20.4812H117.793V28.0893ZM113.076 28.0749H107.713V19.134H113.076V20.4812H109.115V22.938H112.69V24.2709H109.115V26.7276H113.076V28.0749ZM138.766 25.9964C139.391 26.6196 140.15 26.933 141.032 26.933C141.939 26.933 142.68 26.6268 143.298 25.9964C143.912 25.384 144.223 24.5807 144.223 23.6116C144.223 22.6426 143.912 21.8357 143.301 21.2269C142.676 20.6037 141.913 20.2903 141.035 20.2903C140.128 20.2903 139.387 20.5965 138.773 21.2269C138.158 21.8393 137.848 22.6426 137.848 23.6116C137.848 24.5807 138.155 25.3876 138.766 25.9964Z" fill="#141414"/>
<path fill-rule="evenodd" clip-rule="evenodd" d="M136.28 40.5923C132.865 40.5923 130.097 43.1752 130.097 46.7378C130.097 50.2681 132.883 52.8834 136.28 52.8834C139.696 52.8834 142.464 50.2825 142.464 46.7378C142.464 43.1752 139.696 40.5923 136.28 40.5923ZM136.28 50.4482C134.412 50.4482 132.803 48.9064 132.803 46.7234C132.803 44.508 134.415 42.9987 136.28 42.9987C138.149 42.9987 139.757 44.508 139.757 46.7234C139.761 48.9208 138.149 50.4482 136.28 50.4482ZM122.789 40.5923C119.373 40.5923 116.605 43.1752 116.605 46.7378C116.605 50.2681 119.392 52.8834 122.789 52.8834C126.204 52.8834 128.973 50.2825 128.973 46.7378C128.973 43.1752 126.201 40.5923 122.789 40.5923ZM122.789 50.4482C120.92 50.4482 119.312 48.9064 119.312 46.7234C119.312 44.508 120.924 42.9987 122.789 42.9987C124.657 42.9987 126.266 44.508 126.266 46.7234C126.266 48.9208 124.657 50.4482 122.789 50.4482ZM106.735 42.4691V45.07H112.998C112.807 46.5289 112.322 47.606 111.581 48.3445C110.663 49.2595 109.247 50.2537 106.749 50.2537C102.9 50.2537 99.8898 47.1557 99.8898 43.3193C99.8898 39.4828 102.9 36.3848 106.749 36.3848C108.827 36.3848 110.342 37.2025 111.466 38.2472L113.316 36.4028C111.755 34.9115 109.677 33.7695 106.764 33.7695C101.484 33.7695 97.0527 38.0563 97.0527 43.3048C97.0527 48.5678 101.48 52.8402 106.764 52.8402C109.615 52.8402 111.755 51.9108 113.446 50.16C115.17 48.4417 115.716 46.0174 115.716 44.0613C115.716 43.4525 115.669 42.905 115.571 42.4403H106.731C106.735 42.4367 106.735 42.4691 106.735 42.4691ZM172.4 44.4936C171.883 43.1139 170.322 40.5779 167.119 40.5779C163.946 40.5779 161.308 43.0671 161.308 46.7234C161.308 50.1745 163.917 52.869 167.427 52.869C170.246 52.869 171.886 51.1507 172.562 50.142L170.47 48.7443C169.776 49.771 168.811 50.4446 167.441 50.4446C166.057 50.4446 165.088 49.8178 164.445 48.5822L172.689 45.178C172.689 45.1817 172.4 44.4936 172.4 44.4936ZM163.993 46.5469C163.928 44.173 165.844 42.9662 167.213 42.9662C168.294 42.9662 169.194 43.4958 169.501 44.2667L163.993 46.5469ZM157.296 52.5015H160.003V34.4468H157.296V52.5015ZM152.851 41.9576H152.753C152.143 41.2335 150.982 40.5779 149.501 40.5779C146.425 40.5779 143.592 43.276 143.592 46.7414C143.592 50.1925 146.411 52.8582 149.501 52.8582C150.964 52.8582 152.143 52.1989 152.753 51.4605H152.851V52.343C152.851 54.6881 151.593 55.9526 149.566 55.9526C147.907 55.9526 146.877 54.7638 146.458 53.7696L144.105 54.7494C144.781 56.3704 146.584 58.3769 149.562 58.3769C152.735 58.3769 155.424 56.5145 155.424 51.972V40.9453H152.865V41.9576C152.869 41.9576 152.851 41.9576 152.851 41.9576ZM149.743 50.4482C147.874 50.4482 146.313 48.892 146.313 46.7414C146.313 44.5729 147.874 43.0023 149.743 43.0023C151.593 43.0023 153.028 44.5909 153.028 46.7414C153.046 48.892 151.597 50.4482 149.743 50.4482ZM185.074 34.4468H178.601V52.5015H181.308V45.6644H185.078C188.074 45.6644 191.02 43.4994 191.02 40.0628C191.02 36.6262 188.085 34.4468 185.074 34.4468ZM185.154 43.1427H181.305V36.9468H185.154C187.181 36.9468 188.327 38.6146 188.327 40.0448C188.327 41.4605 187.167 43.1427 185.154 43.1427ZM201.869 40.5599C199.903 40.5599 197.875 41.428 197.037 43.3193L199.437 44.3135C199.954 43.3193 200.9 42.9806 201.902 42.9806C203.304 42.9806 204.721 43.8164 204.753 45.3077V45.4987C204.269 45.2249 203.206 44.807 201.934 44.807C199.343 44.807 196.715 46.2191 196.715 48.8668C196.715 51.2912 198.84 52.8474 201.208 52.8474C203.026 52.8474 204.027 52.0296 204.652 51.0822H204.75V52.4799H207.359V45.5635C207.359 42.343 204.959 40.5599 201.869 40.5599ZM201.529 50.4482C200.644 50.4482 199.404 50.0159 199.404 48.9064C199.404 47.5087 200.951 46.9792 202.27 46.9792C203.463 46.9792 204.027 47.235 204.735 47.588C204.54 49.209 203.167 50.4338 201.529 50.4482ZM216.878 40.9453L213.77 48.7768H213.673L210.453 40.9453H207.54L212.372 51.8928L209.618 57.9771H212.437L219.871 40.9453H216.878ZM192.512 52.5015H195.219V34.4468H192.512V52.5015Z" fill="#141414"/>
<path fill-rule="evenodd" clip-rule="evenodd" d="M52.6614 20.0484C52.2421 20.4987 52 21.1868 52 22.0873V54.029C52 54.9296 52.2421 55.6176 52.6758 56.0499L52.7879 56.1472L70.7428 38.2509V37.8511L52.7734 19.9512L52.6614 20.0484Z" fill="url(#paint0_linear_163_4629)"/>
<path fill-rule="evenodd" clip-rule="evenodd" d="M76.7171 44.2348L70.7285 38.2658V37.8479L76.7171 31.8789L76.8472 31.9582L83.9308 35.9711C85.9584 37.1095 85.9584 38.9899 83.9308 40.1426L76.8472 44.1556L76.7171 44.2348Z" fill="url(#paint1_linear_163_4629)"/>
<path fill-rule="evenodd" clip-rule="evenodd" d="M76.8458 44.1554L70.7271 38.0566L52.6602 56.0646C53.3215 56.7706 54.4311 56.8499 55.6707 56.1619L76.8458 44.1554Z" fill="url(#paint2_linear_163_4629)"/>
<path fill-rule="evenodd" clip-rule="evenodd" d="M76.8458 31.9582L55.6707 19.9697C54.4311 19.2637 53.3179 19.361 52.6602 20.067L70.7271 38.0569L76.8458 31.9582Z" fill="url(#paint3_linear_163_4629)"/>
<path opacity="0.2" fill-rule="evenodd" clip-rule="evenodd" d="M76.7168 44.0254L55.6863 55.9346C54.5117 56.6083 53.4637 56.5614 52.7878 55.949L52.6758 56.0607L52.7878 56.158C53.4637 56.7668 54.5117 56.8172 55.6863 56.1436L76.8614 44.1551L76.7168 44.0254Z" fill="black"/>
<path opacity="0.12" fill-rule="evenodd" clip-rule="evenodd" d="M83.931 39.9334L76.6992 44.0257L76.8293 44.1554L83.913 40.1424C84.9285 39.566 85.4273 38.8095 85.4273 38.0566C85.3658 38.7483 84.849 39.4039 83.931 39.9334Z" fill="black"/>
<path opacity="0.25" fill-rule="evenodd" clip-rule="evenodd" d="M55.6719 20.1791L83.9306 36.1806C84.8486 36.6957 85.3654 37.3693 85.4449 38.0574C85.4449 37.3045 84.9462 36.548 83.9306 35.9716L55.6719 19.9702C53.6444 18.8138 52 19.7793 52 22.0883V22.2973C52 19.9846 53.6444 19.0372 55.6719 20.1791Z" fill="white"/>
</g>
<rect x="0.5" y="1" width="269" height="75" rx="11.5" stroke="#EFF5F5"/>
<defs>
<linearGradient id="paint0_linear_163_4629" x1="69.1322" y1="21.7427" x2="40.3841" y2="29.4278" gradientUnits="userSpaceOnUse">
<stop stop-color="#00A0FF"/>
<stop offset="0.00657" stop-color="#00A1FF"/>
<stop offset="0.2601" stop-color="#00BEFF"/>
<stop offset="0.5122" stop-color="#00D2FF"/>
<stop offset="0.7604" stop-color="#00DFFF"/>
<stop offset="1" stop-color="#00E3FF"/>
</linearGradient>
<linearGradient id="paint1_linear_163_4629" x1="86.5749" y1="38.0569" x2="51.5074" y2="38.0569" gradientUnits="userSpaceOnUse">
<stop stop-color="#FFE000"/>
<stop offset="0.4087" stop-color="#FFBD00"/>
<stop offset="0.7754" stop-color="#FFA500"/>
<stop offset="1" stop-color="#FF9C00"/>
</linearGradient>
<linearGradient id="paint2_linear_163_4629" x1="73.5187" y1="41.3752" x2="50.5412" y2="80.1749" gradientUnits="userSpaceOnUse">
<stop stop-color="#FF3A44"/>
<stop offset="1" stop-color="#C31162"/>
</linearGradient>
<linearGradient id="paint3_linear_163_4629" x1="48.1107" y1="9.42468" x2="58.3619" y2="26.7532" gradientUnits="userSpaceOnUse">
<stop stop-color="#32A071"/>
<stop offset="0.0685" stop-color="#2DA771"/>
<stop offset="0.4762" stop-color="#15CF74"/>
<stop offset="0.8009" stop-color="#06E775"/>
<stop offset="1" stop-color="#00F076"/>
</linearGradient>
<clipPath id="clip0_163_4629">
<rect y="0.5" width="270" height="76" rx="12" fill="white"/>
</clipPath>
</defs>
</svg>
