<svg width="22" height="25" viewBox="0 0 22 25" fill="none" xmlns="http://www.w3.org/2000/svg">
<path d="M0.434126 0.375995C0.12945 0.741537 -0.0246251 1.20937 0.00320818 1.68442V22.3215C-0.0230502 22.7963 0.13084 23.2636 0.434126 23.6299L0.50464 23.7004L12.0611 12.1361V11.8619L0.50464 0.305481L0.434126 0.375995Z" fill="url(#paint0_linear_171_162)"/>
<path d="M15.9159 15.9909L12.0611 12.1362V11.8619L15.9159 8.01501L16.002 8.06202L20.5698 10.6554C21.8782 11.3918 21.8782 12.6062 20.5698 13.3506L16.002 15.9439L15.9159 15.9909Z" fill="url(#paint1_linear_171_162)"/>
<path d="M16.002 15.9439L12.0846 12.0265L0.434143 23.6299C0.702685 23.8507 1.03702 23.9759 1.38453 23.9858C1.73203 23.9957 2.07298 23.8898 2.35369 23.6847L15.9785 15.9439" fill="url(#paint2_linear_171_162)"/>
<path d="M16.002 8.06202L2.35362 0.313341C2.07593 0.0998416 1.73272 -0.0106257 1.38262 0.000806006C1.03253 0.0122377 0.69726 0.144859 0.434082 0.37602L12.061 12.003L16.002 8.06202Z" fill="url(#paint3_linear_171_162)"/>
<path opacity="0.1" d="M15.9158 15.8577L2.35369 23.5516C2.08316 23.7531 1.7548 23.862 1.41743 23.862C1.08005 23.862 0.751688 23.7531 0.481158 23.5516L0.410645 23.6221L0.481158 23.6926C0.751688 23.8942 1.08005 24.0031 1.41743 24.0031C1.7548 24.0031 2.08316 23.8942 2.35369 23.6926L15.9785 15.9517L15.9158 15.8577Z" fill="black"/>
<path opacity="0.07" d="M0.434079 23.5044C0.130326 23.1353 -0.0234805 22.6655 0.00321845 22.1883V22.3215C-0.0230365 22.7963 0.130833 23.2635 0.434079 23.6297L0.504583 23.5592L0.434079 23.5044Z" fill="black"/>
<path opacity="0.07" d="M20.5691 13.2094L15.9158 15.8572L16.002 15.9434L20.5691 13.319C20.837 13.2012 21.0688 13.0144 21.2409 12.7777C21.4129 12.541 21.519 12.2628 21.5484 11.9716C21.4949 12.2408 21.3782 12.4934 21.208 12.7086C21.0377 12.9238 20.8188 13.0954 20.5691 13.2094Z" fill="black"/>
<path opacity="0.3" d="M2.35366 0.454375L20.5697 10.7886C20.817 10.8997 21.0345 11.0676 21.2047 11.2786C21.3748 11.4896 21.4928 11.7378 21.5491 12.003C21.5214 11.7113 21.4158 11.4324 21.2436 11.1953C21.0713 10.9583 20.8386 10.7718 20.5697 10.6554L2.35366 0.313347C1.06875 -0.42313 0.00320435 0.187989 0.00320435 1.68445V1.81764C0.00320435 0.329017 1.06875 -0.289938 2.35366 0.454375Z" fill="white"/>
<defs>
<linearGradient id="paint0_linear_171_162" x1="11.0425" y1="1.46504" x2="-4.61936" y2="17.1269" gradientUnits="userSpaceOnUse">
<stop stop-color="#008EFF"/>
<stop offset="0.01" stop-color="#008FFF"/>
<stop offset="0.26" stop-color="#00ACFF"/>
<stop offset="0.51" stop-color="#00C0FF"/>
<stop offset="0.76" stop-color="#00CDFF"/>
<stop offset="1" stop-color="#00D1FF"/>
</linearGradient>
<linearGradient id="paint1_linear_171_162" x1="20.7265" y1="12.003" x2="-1.85363" y2="12.003" gradientUnits="userSpaceOnUse">
<stop stop-color="#FFD800"/>
<stop offset="1" stop-color="#FF8A00"/>
</linearGradient>
<linearGradient id="paint2_linear_171_162" x1="13.8631" y1="14.1419" x2="-7.36938" y2="35.3744" gradientUnits="userSpaceOnUse">
<stop stop-color="#FF3A44"/>
<stop offset="1" stop-color="#B11162"/>
</linearGradient>
<linearGradient id="paint3_linear_171_162" x1="-2.49616" y1="-6.49516" x2="6.99187" y2="2.98503" gradientUnits="userSpaceOnUse">
<stop stop-color="#328E71"/>
<stop offset="0.07" stop-color="#2D9571"/>
<stop offset="0.48" stop-color="#15BD74"/>
<stop offset="0.8" stop-color="#06D575"/>
<stop offset="1" stop-color="#00DE76"/>
</linearGradient>
</defs>
</svg>
