<?xml version="1.0" encoding="utf-8"?>
<!-- Generator: Adobe Illustrator 25.0.0, SVG Export Plug-In . SVG Version: 6.00 Build 0)  -->
<svg version="1.1" id="Layer_1" xmlns="http://www.w3.org/2000/svg" xmlns:xlink="http://www.w3.org/1999/xlink" x="0px" y="0px"
	 viewBox="0 0 32 32" style="enable-background:new 0 0 32 32;" xml:space="preserve">
<style type="text/css">
	.st0{fill:#C4C4C4;filter:url(#Adobe_OpacityMaskFilter);}
	.st1{mask:url(#mask0_565:4128_1_);}
	.st2{fill:none;stroke:#FF5995;stroke-width:2;stroke-linejoin:round;}
	.st3{fill:none;stroke:#FF5995;stroke-width:2;stroke-linecap:round;}
	.st4{fill:#FFFFFF;filter:url(#Adobe_OpacityMaskFilter_1_);}
	.st5{mask:url(#path-6-inside-1_565:4128_1_);fill:none;stroke:#FF5995;stroke-width:4;}
</style>
<defs>
	<filter id="Adobe_OpacityMaskFilter" filterUnits="userSpaceOnUse" x="-1" y="0.3" width="33" height="33.7">
		<feColorMatrix  type="matrix" values="1 0 0 0 0  0 1 0 0 0  0 0 1 0 0  0 0 0 1 0"/>
	</filter>
</defs>
<mask maskUnits="userSpaceOnUse" x="-1" y="0.3" width="33" height="33.7" id="mask0_565:4128_1_">
	<rect y="0" class="st0" width="32" height="32"/>
</mask>
<g class="st1">
	<path class="st2" d="M15.5,1.3l13.9,10.5H1.6L15.5,1.3z"/>
	<line class="st3" x1="16" y1="16" x2="16" y2="22"/>
	<line class="st3" x1="7" y1="16" x2="7" y2="22"/>
	<line class="st3" x1="25" y1="16" x2="25" y2="22"/>
	<defs>
		<filter id="Adobe_OpacityMaskFilter_1_" filterUnits="userSpaceOnUse" x="-1" y="23" width="33" height="11">
			<feColorMatrix  type="matrix" values="1 0 0 0 0  0 1 0 0 0  0 0 1 0 0  0 0 0 1 0"/>
		</filter>
	</defs>
	<mask maskUnits="userSpaceOnUse" x="-1" y="23" width="33" height="11" id="path-6-inside-1_565:4128_1_">
		<path class="st4" d="M2,25h27c0.6,0,1,0.4,1,1v5c0,0.6-0.4,1-1,1H2c-0.6,0-1-0.4-1-1v-5C1,25.4,1.4,25,2,25z"/>
	</mask>
	<path class="st5" d="M2,25h27c0.6,0,1,0.4,1,1v5c0,0.6-0.4,1-1,1H2c-0.6,0-1-0.4-1-1v-5C1,25.4,1.4,25,2,25z"/>
</g>
</svg>
