<?xml version="1.0" encoding="utf-8"?>
<!-- Generator: Adobe Illustrator 25.0.0, SVG Export Plug-In . SVG Version: 6.00 Build 0)  -->
<svg version="1.1" id="Layer_1" xmlns="http://www.w3.org/2000/svg" xmlns:xlink="http://www.w3.org/1999/xlink" x="0px" y="0px"
	 viewBox="0 0 32 32" style="enable-background:new 0 0 32 32;" xml:space="preserve">
<style type="text/css">
	.st0{fill:none;stroke:#FFFFFF;stroke-width:1.5;}
	.st1{fill:none;stroke:#FFFFFF;stroke-width:1.5;stroke-linecap:round;stroke-linejoin:round;}
</style>
<path class="st0" d="M10.8,1c0-0.1,0.1-0.2,0.2-0.2h10c0.1,0,0.2,0.1,0.2,0.2v6.2H10.8V1z"/>
<path class="st0" d="M1.8,22c0-0.1,0.1-0.2,0.2-0.2h10c0.1,0,0.2,0.1,0.2,0.2v6.2H1.8V22z"/>
<path class="st0" d="M19.8,22c0-0.1,0.1-0.2,0.2-0.2h10c0.1,0,0.2,0.1,0.2,0.2v6.2H19.8V22z"/>
<path class="st0" d="M10,9.9l0.5-2.2h10.8L22,9.9c0,0.2-0.1,0.3-0.2,0.3H10.3C10.1,10.2,10,10.1,10,9.9z"/>
<path class="st0" d="M1,30.9l0.5-2.2h10.8l0.5,2.2c0,0.2-0.1,0.3-0.2,0.3H1.3C1.1,31.2,1,31.1,1,30.9z"/>
<path class="st0" d="M19,30.9l0.5-2.2h10.8l0.5,2.2c0,0.2-0.1,0.3-0.2,0.3H19.3C19.1,31.2,19,31.1,19,30.9z"/>
<path class="st1" d="M16.2,11v4.4 M16.2,15.4H7V19 M16.2,15.4H26V19"/>
</svg>
