<?xml version="1.0" encoding="utf-8"?>
<!-- Generator: Adobe Illustrator 25.0.0, SVG Export Plug-In . SVG Version: 6.00 Build 0)  -->
<svg version="1.1" id="Layer_1" xmlns="http://www.w3.org/2000/svg" xmlns:xlink="http://www.w3.org/1999/xlink" x="0px" y="0px"
	 viewBox="0 0 32 32" style="enable-background:new 0 0 32 32;" xml:space="preserve">
<style type="text/css">
	.st0{fill:#FFFFFF;}
</style>
<path class="st0" d="M12,9c0,0.8-0.3,1.6-0.9,2.1S9.8,12,9,12s-1.6-0.3-2.1-0.9S6,9.8,6,9s0.3-1.6,0.9-2.1S8.2,6,9,6
	s1.6,0.3,2.1,0.9S12,8.2,12,9z M10,9c0-0.3-0.1-0.5-0.3-0.7C9.5,8.1,9.3,8,9,8S8.5,8.1,8.3,8.3C8.1,8.5,8,8.7,8,9s0.1,0.5,0.3,0.7
	C8.5,9.9,8.7,10,9,10s0.5-0.1,0.7-0.3C9.9,9.5,10,9.3,10,9z"/>
<path class="st0" d="M4,2h9.2c0.5,0,1,0.2,1.4,0.6l14,14c0.4,0.4,0.6,0.9,0.6,1.4s-0.2,1-0.6,1.4l-9.2,9.2C19,29,18.5,29.2,18,29.2
	s-1-0.2-1.4-0.6l-14-14C2.2,14.2,2,13.7,2,13.2V4c0-0.5,0.2-1,0.6-1.4C3,2.2,3.5,2,4,2z M4,13.2l14,14l9.2-9.2l-14-14H4V13.2z"/>
</svg>
