<?xml version="1.0" encoding="utf-8"?>
<!-- Generator: Adobe Illustrator 25.0.0, SVG Export Plug-In . SVG Version: 6.00 Build 0)  -->
<svg version="1.1" id="Layer_1" xmlns="http://www.w3.org/2000/svg" xmlns:xlink="http://www.w3.org/1999/xlink" x="0px" y="0px"
	 viewBox="0 0 32 32" style="enable-background:new 0 0 32 32;" xml:space="preserve">
<style type="text/css">
	.st0{fill:#FFFFFF;stroke:#FFFFFF;}
</style>
<path class="st0" d="M10,14.7h12.1c0.4,0,0.7-0.4,0.5-0.8l-1.3-8c0-0.3-0.4-0.5-0.7-0.5h-9.3c-0.3,0-0.7,0.3-0.7,0.5l-1.3,8V14
	C9.3,14.4,9.6,14.7,10,14.7z M11.9,6.7h8.3l1.1,6.7H10.8L11.9,6.7z M29.3,17.9c0-0.3-0.3-0.5-0.7-0.5h-9.3c-0.3,0-0.7,0.3-0.7,0.5
	l-1.3,8V26c0,0.4,0.3,0.7,0.7,0.7h12.1c0.4,0,0.7-0.4,0.5-0.8L29.3,17.9z M18.8,25.3l1.1-6.7h8.3l1.1,6.7H18.8z M12.7,17.3H3.3
	c-0.3,0-0.7,0.3-0.7,0.5l-1.3,8V26c0,0.4,0.3,0.7,0.7,0.7h12.1c0.4,0,0.7-0.4,0.5-0.8l-1.3-8C13.3,17.6,12.9,17.3,12.7,17.3z
	 M2.8,25.3l1.1-6.7h8.3l1.1,6.7H2.8z"/>
</svg>
