<svg width="678" height="38" viewBox="0 0 678 38" fill="none" xmlns="http://www.w3.org/2000/svg">
<path fill-rule="evenodd" clip-rule="evenodd" d="M33.5 5C17.7599 5 5 17.7599 5 33.5V37.5H6V33.5C6 18.3122 18.3122 6 33.5 6H226.5H447.5C447.776 6 448 6.22386 448 6.5V36.5H449V6.5C449 6.32468 448.97 6.15639 448.915 6H676V5H447.5H226.5H33.5Z" fill="#333232"/>
<path d="M10.5 32.998L0.500122 32.998L5.50006 37.998L10.5 32.998Z" fill="#333232"/>
<path d="M443.5 32.5H453.5L448.5 37.5001L443.5 32.5Z" fill="#333232"/>
<path d="M672.5 10.5005L672.5 0.500656L677.5 5.5006L672.5 10.5005Z" fill="#333232"/>
</svg>
