<svg width="20" height="23" viewBox="0 0 20 23" fill="none" xmlns="http://www.w3.org/2000/svg">
<g clip-path="url(#clip0)">
<path d="M14.375 0C14.6094 1.38 14.0625 2.76 13.2813 3.75667C12.5 4.83 11.0157 5.59667 9.68753 5.52C9.45315 4.21667 10.0782 2.83667 10.8594 1.84C11.7188 0.843333 13.125 0.0766667 14.375 0ZM18.5157 19.6267C19.2188 18.5533 19.4532 18.0167 20 16.8667C16.0157 15.41 15.3907 9.81333 19.2969 7.74333C18.125 6.28667 16.4063 5.44333 14.8438 5.44333C13.6719 5.44333 12.8907 5.75 12.1875 5.98C11.5625 6.21 11.0157 6.44 10.3907 6.44C9.68753 6.44 9.06253 6.21 8.3594 5.98C7.65628 5.67333 6.87503 5.36667 5.93753 5.36667C4.14065 5.36667 2.26565 6.44 1.01565 8.28C-0.703096 10.8867 -0.390595 15.7167 2.34378 19.8567C3.3594 21.3133 4.68753 23 6.40628 23C7.1094 23 7.57815 22.77 8.12503 22.54C8.75003 22.31 9.37503 22.0033 10.4688 22.0033C11.5625 22.0033 12.1875 22.31 12.8125 22.54C13.2813 22.77 13.75 23 14.4532 23C16.1719 23 17.5 21.16 18.5157 19.6267Z" fill="white"/>
</g>
<defs>
<clipPath id="clip0">
<rect width="20" height="23" fill="white"/>
</clipPath>
</defs>
</svg>
