<svg width="28" height="28" viewBox="0 0 28 28" fill="none" xmlns="http://www.w3.org/2000/svg">
<g clip-path="url(#clip0_171_179)">
<path d="M26.8998 8.55071C25.5484 5.34031 23.0523 2.74661 19.896 1.27315C16.7398 -0.200301 13.1486 -0.448381 9.81976 0.577077C6.49088 1.60254 3.66181 3.82837 1.88178 6.82244C0.101759 9.81651 -0.50221 13.3652 0.187127 16.7795C0.876464 20.1939 2.80993 23.2303 5.61215 25.2992C8.41436 27.3682 11.8854 28.3221 15.3514 27.9757C18.8173 27.6293 22.031 26.0074 24.3683 23.4248C26.7057 20.8422 28 17.4832 28 14C28.0025 12.1282 27.6283 10.275 26.8998 8.55071ZM4.58798 4.58797C6.3464 2.8261 8.56442 1.59366 10.9892 1.03113C10.9307 1.07053 10.8724 1.11064 10.8149 1.15213C9.81444 1.86594 8.85898 2.90928 8.05136 4.16987C7.77026 4.60973 7.51176 5.06364 7.27688 5.52983C6.25411 5.35548 5.2589 5.13823 4.30238 4.88333C4.39561 4.78406 4.4908 4.68561 4.58798 4.58797ZM1.73518 8.81921C2.24886 7.603 2.9415 6.47042 3.79013 5.45905C4.80906 5.7429 5.87227 5.98211 6.96792 6.17704C6.61601 6.96101 6.32106 7.76932 6.08534 8.59569C5.61511 10.2421 5.36327 11.9431 5.33631 13.6551H0.693935C0.733433 11.992 1.08671 10.3512 1.73518 8.81921ZM3.79013 22.5409C1.85926 20.2392 0.767554 17.3498 0.693935 14.3463H5.33631C5.36327 16.0583 5.61511 17.7593 6.08534 19.4057C6.32106 20.2321 6.61601 21.0404 6.96792 21.8243C5.87227 22.0172 4.80906 22.2574 3.79013 22.5409ZM8.81888 26.2648C7.23742 25.5963 5.80059 24.6275 4.58798 23.412C4.49069 23.3144 4.39549 23.216 4.30169 23.116C5.2582 22.8611 6.25446 22.6452 7.27618 22.4695C7.51106 22.9356 7.76956 23.3896 8.05067 23.8294C8.85828 25.09 9.81374 26.1333 10.8142 26.8472C10.8724 26.8887 10.9307 26.9288 10.9885 26.9682C10.2464 26.7965 9.52053 26.5612 8.81888 26.2648ZM13.6551 27.2761C12.858 27.1994 12.0214 26.8608 11.2142 26.285C10.2845 25.6225 9.39111 24.6437 8.63092 23.4567C8.40426 23.1026 8.19108 22.7344 7.99138 22.3519C9.86621 22.0704 11.7586 21.9219 13.6544 21.9077L13.6551 27.2761ZM13.6551 21.2179C11.6515 21.2325 9.65169 21.3948 7.67197 21.7037C7.30002 20.8983 6.99118 20.0653 6.74824 19.2122C6.29594 17.6276 6.05314 15.9907 6.02606 14.3431H13.6551V21.2179ZM13.6551 13.6534H6.02606C6.05314 12.0058 6.29594 10.3689 6.74824 8.78434C6.99118 7.93117 7.30002 7.09815 7.67197 6.29281C9.65169 6.60168 11.6515 6.76404 13.6551 6.77856V13.6534ZM13.6551 6.08882C11.7597 6.07513 9.86765 5.92725 7.99313 5.6463C8.19259 5.26435 8.40577 4.89611 8.63266 4.54159C9.39285 3.35598 10.2862 2.37645 11.2159 1.71321C12.0225 1.13783 12.859 0.798889 13.6569 0.722173L13.6551 6.08882ZM24.2081 5.45905C26.1389 7.76089 27.2307 10.6502 27.3047 13.6537H22.6637C22.6367 11.9417 22.3849 10.2407 21.9147 8.59429C21.679 7.76793 21.384 6.95962 21.0321 6.17564C22.1277 5.98281 23.191 5.7429 24.2081 5.45905ZM19.1808 1.73552C20.7624 2.40378 22.1993 3.37249 23.412 4.58797C23.5092 4.68561 23.6046 4.78429 23.6983 4.88402C22.7418 5.13893 21.7455 5.35478 20.7238 5.53053C20.4889 5.06434 20.2305 4.61043 19.9493 4.17056C19.1417 2.90998 18.1863 1.86664 17.1858 1.15283C17.1276 1.11133 17.0693 1.07123 17.0115 1.03183C17.7535 1.20341 18.4793 1.43886 19.1808 1.73552ZM14.3449 0.722173C15.1417 0.798889 15.9782 1.13783 16.7859 1.71321C17.7155 2.37575 18.6089 3.35458 19.3691 4.54159C19.5958 4.89565 19.8089 5.26389 20.0086 5.6463C18.1338 5.92788 16.2414 6.07634 14.3456 6.09056L14.3449 0.722173ZM14.3449 6.78031C16.3485 6.76578 18.3483 6.60342 20.328 6.29455C20.7 7.0999 21.0088 7.93291 21.2518 8.78609C21.7041 10.3706 21.9469 12.0075 21.974 13.6551H14.3449V6.78031ZM14.3449 14.3449H21.974C21.9469 15.9925 21.7041 17.6294 21.2518 19.2139C21.0088 20.0671 20.7 20.9001 20.328 21.7054C18.3483 21.3966 16.3485 21.2342 14.3449 21.2197V14.3449ZM14.3449 27.2778V21.9094C16.2407 21.9236 18.1331 22.0721 20.0079 22.3537C19.808 22.7354 19.5948 23.1036 19.3684 23.4584C18.6082 24.644 17.7148 25.6239 16.7852 26.2868C15.9786 26.8625 15.1417 27.2028 14.3449 27.2778ZM23.4113 23.412C21.6531 25.1741 19.435 26.4066 17.0101 26.9689C17.0687 26.9295 17.1269 26.8894 17.1844 26.8479C18.1849 26.134 19.1403 25.0907 19.9479 23.8301C20.2291 23.3903 20.4876 22.9363 20.7224 22.4702C21.7452 22.6445 22.7404 22.8618 23.6969 23.1167C23.6045 23.216 23.5107 23.3144 23.412 23.412H23.4113ZM26.2655 19.1825C25.7512 20.3984 25.0577 21.5304 24.2081 22.5409C23.1896 22.2574 22.1263 22.0179 21.0307 21.8229C21.3826 21.039 21.6776 20.2307 21.9133 19.4043C22.3835 17.7579 22.6353 16.0569 22.6623 14.3449H27.3047C27.2661 16.0085 26.9135 17.6498 26.2655 19.1825Z" fill="black"/>
</g>
<defs>
<clipPath id="clip0_171_179">
<rect width="28" height="28" fill="white"/>
</clipPath>
</defs>
</svg>
