<svg width="100" height="32" viewBox="0 0 100 32" fill="none" xmlns="http://www.w3.org/2000/svg">
<path d="M24.3458 0H7.68815C3.4421 0 0 3.43845 0 7.68V24.32C0 28.5615 3.4421 32 7.68815 32H24.3458C28.5919 32 32.034 28.5615 32.034 24.32V7.68C32.034 3.43845 28.5919 0 24.3458 0Z" fill="url(#paint0_linear_245_2144)"/>
<path fill-rule="evenodd" clip-rule="evenodd" d="M16.0165 26.2398C21.6779 26.2398 26.2674 21.6552 26.2674 15.9998C26.2674 10.3444 21.6779 5.75977 16.0165 5.75977C10.3551 5.75977 5.76562 10.3444 5.76562 15.9998C5.76562 21.6552 10.3551 26.2398 16.0165 26.2398ZM14.2075 11.112C14.2074 10.8174 14.4462 10.5786 14.7408 10.5786H17.292C17.5865 10.5786 17.8253 10.8174 17.8253 11.1119V14.2307H14.2078V17.7687H17.8253V20.8875C17.8253 21.182 17.5865 21.4208 17.292 21.4208H14.7407C14.4462 21.4208 14.2074 21.182 14.2074 20.8875V17.8828H11.1232C10.8287 17.8828 10.5899 17.644 10.5899 17.3495V14.764C10.5899 14.4695 10.8287 14.2307 11.1232 14.2307H14.2078L14.2075 11.112ZM17.8253 14.2307H20.9106C21.2051 14.2307 21.4439 14.4695 21.4439 14.764V17.3495C21.4439 17.644 21.2051 17.8828 20.9106 17.8828H17.826L17.8253 14.2307Z" fill="#0C0B0B"/>
<path d="M61.4628 13.0817H57.0037C56.9223 12.5431 56.756 12.0646 56.5049 11.6464C56.2538 11.2218 55.9314 10.8606 55.5377 10.5627C55.1441 10.2649 54.6894 10.0368 54.1736 9.87833C53.6645 9.7199 53.1114 9.64068 52.5141 9.64068C51.435 9.64068 50.495 9.891 49.6942 10.3916C48.8933 10.8859 48.2723 11.6084 47.8311 12.5589C47.39 13.5032 47.1694 14.6502 47.1694 16C47.1694 17.3878 47.39 18.5539 47.8311 19.4981C48.2791 20.4423 48.9035 21.1553 49.7043 21.6369C50.5052 22.1185 51.4316 22.3593 52.4836 22.3593C53.0741 22.3593 53.6204 22.2864 54.1227 22.1407C54.6317 21.9949 55.083 21.7826 55.4767 21.5038C55.8703 21.2186 56.1961 20.8733 56.454 20.4677C56.7187 20.0621 56.9019 19.5995 57.0037 19.0798L61.4628 19.0989C61.3474 19.9924 61.0589 20.8542 60.5974 21.6844C60.1427 22.5082 59.5285 23.2465 58.7548 23.8992C57.9878 24.5456 57.0716 25.0589 56.006 25.4392C54.9473 25.8131 53.7494 26 52.4123 26C50.5527 26 48.8899 25.6071 47.4239 24.8213C45.9647 24.0355 44.8109 22.898 43.9626 21.4087C43.121 19.9195 42.7002 18.1166 42.7002 16C42.7002 13.8771 43.1278 12.071 43.9829 10.5817C44.8381 9.09252 45.9987 7.95817 47.4646 7.17871C48.9306 6.3929 50.5799 6 52.4123 6C53.6204 6 54.7403 6.15843 55.7719 6.47528C56.8103 6.79214 57.7299 7.25475 58.5308 7.86312C59.3316 8.46515 59.9832 9.20342 60.4854 10.0779C60.9945 10.9525 61.3202 11.9537 61.4628 13.0817Z" fill="white"/>
<path d="M64.6811 25.7338V6.26616H69.0893V22.3403H78.0277V25.7338H64.6811Z" fill="white"/>
<path d="M82.5313 6.26616L87.5707 21.057H87.7641L92.8136 6.26616H97.7002L90.5128 25.7338H84.8321L77.6345 6.26616H82.5313Z" fill="white"/>
<defs>
<linearGradient id="paint0_linear_245_2144" x1="2.66667" y1="29.3333" x2="30.6376" y2="1.97032" gradientUnits="userSpaceOnUse">
<stop stop-color="#BDFDE2"/>
<stop offset="1" stop-color="#9BDAF6"/>
</linearGradient>
</defs>
</svg>
