<?xml version="1.0" encoding="utf-8"?>
<!-- Generator: Adobe Illustrator 25.0.0, SVG Export Plug-In . SVG Version: 6.00 Build 0)  -->
<svg version="1.1" id="Layer_1" xmlns="http://www.w3.org/2000/svg" xmlns:xlink="http://www.w3.org/1999/xlink" x="0px" y="0px"
	 viewBox="0 0 166 164" style="enable-background:new 0 0 166 164;" xml:space="preserve">
<style type="text/css">
	.st0{fill:none;stroke:#FF5995;stroke-width:3;stroke-miterlimit:10;}
	.st1{fill:none;stroke:url(#SVGID_1_);stroke-width:2;stroke-miterlimit:10;}
	.st2{fill:none;stroke:url(#SVGID_2_);stroke-width:2;stroke-miterlimit:10;}
	.st3{fill:none;stroke:url(#SVGID_3_);stroke-width:2;stroke-miterlimit:10;}
	.st4{fill:none;stroke:url(#SVGID_4_);stroke-width:2;stroke-miterlimit:10;}
	.st5{fill:none;stroke:url(#SVGID_5_);stroke-width:2;stroke-miterlimit:10;}
	.st6{fill:none;stroke:url(#SVGID_6_);stroke-width:2;stroke-miterlimit:10;}
	.st7{fill:none;stroke:url(#SVGID_7_);stroke-width:2;stroke-miterlimit:10;}
	.st8{fill:none;stroke:url(#SVGID_8_);stroke-width:2;stroke-miterlimit:10;}
	.st9{fill:none;stroke:url(#SVGID_9_);stroke-width:2;stroke-miterlimit:10;}
	.st10{fill:none;stroke:url(#SVGID_10_);stroke-width:2;stroke-miterlimit:10;}
</style>
<path class="st0" d="M70.2,70.7c5.6,5.6,14.8,5.6,20.4,0c5.6-5.6,5.6-14.8,0-20.4s-14.8-5.6-20.4,0C64.6,56,64.6,65.1,70.2,70.7z"/>
<path class="st0" d="M93.6,94.1c5.6,5.6,14.8,5.6,20.4,0c5.6-5.6,5.6-14.8,0-20.4c-5.6-5.6-14.8-5.6-20.4,0
	C88,79.3,87.9,88.4,93.6,94.1z"/>
<path class="st0" d="M46.7,94.2c5.6,5.6,14.8,5.6,20.4,0c5.6-5.6,5.6-14.8,0-20.4c-5.6-5.6-14.8-5.6-20.4,0
	C41.1,79.5,41.1,88.6,46.7,94.2z"/>
<path class="st0" d="M69.4,118.3c5.6,5.6,14.8,5.6,20.4,0c5.6-5.6,5.6-14.8,0-20.4c-5.6-5.6-14.8-5.6-20.4,0
	C63.8,103.5,63.8,112.6,69.4,118.3z"/>
<linearGradient id="SVGID_1_" gradientUnits="userSpaceOnUse" x1="156.222" y1="113.9658" x2="156.222" y2="96.9718" gradientTransform="matrix(1 0 0 -1 0 166)">
	<stop  offset="0" style="stop-color:#FF5995"/>
	<stop  offset="1" style="stop-color:#FF5995"/>
</linearGradient>
<path class="st1" d="M156.2,69c4.7,0,8.5-3.8,8.5-8.5c0-4.7-3.8-8.5-8.5-8.5s-8.5,3.8-8.5,8.5C147.7,65.2,151.5,69,156.2,69z"/>
<linearGradient id="SVGID_2_" gradientUnits="userSpaceOnUse" x1="156.222" y1="67.1006" x2="156.222" y2="50.107" gradientTransform="matrix(1 0 0 -1 0 166)">
	<stop  offset="0" style="stop-color:#FF5995"/>
	<stop  offset="1" style="stop-color:#FF5995"/>
</linearGradient>
<path class="st2" d="M156.2,115.9c4.7,0,8.5-3.8,8.5-8.5c0-4.7-3.8-8.5-8.5-8.5s-8.5,3.8-8.5,8.5
	C147.7,112.1,151.5,115.9,156.2,115.9z"/>
<linearGradient id="SVGID_3_" gradientUnits="userSpaceOnUse" x1="156.222" y1="20.269" x2="156.222" y2="3.275" gradientTransform="matrix(1 0 0 -1 0 166)">
	<stop  offset="0" style="stop-color:#FF5995"/>
	<stop  offset="1" style="stop-color:#FF5995"/>
</linearGradient>
<path class="st3" d="M156.2,162.7c4.7,0,8.5-3.8,8.5-8.5c0-4.7-3.8-8.5-8.5-8.5s-8.5,3.8-8.5,8.5
	C147.7,158.9,151.5,162.7,156.2,162.7z"/>
<linearGradient id="SVGID_4_" gradientUnits="userSpaceOnUse" x1="106.3785" y1="20.269" x2="106.3785" y2="3.275" gradientTransform="matrix(1 0 0 -1 0 166)">
	<stop  offset="0" style="stop-color:#FF5995"/>
	<stop  offset="1" style="stop-color:#FF5995"/>
</linearGradient>
<path class="st4" d="M106.4,162.7c4.7,0,8.5-3.8,8.5-8.5c0-4.7-3.8-8.5-8.5-8.5c-4.7,0-8.5,3.8-8.5,8.5
	C97.9,158.9,101.7,162.7,106.4,162.7z"/>
<linearGradient id="SVGID_5_" gradientUnits="userSpaceOnUse" x1="51.4354" y1="20.269" x2="51.4354" y2="3.275" gradientTransform="matrix(1 0 0 -1 0 166)">
	<stop  offset="0" style="stop-color:#FF5995"/>
	<stop  offset="1" style="stop-color:#FF5995"/>
</linearGradient>
<path class="st5" d="M51.4,162.7c4.7,0,8.5-3.8,8.5-8.5c0-4.7-3.8-8.5-8.5-8.5c-4.7,0-8.5,3.8-8.5,8.5
	C42.9,158.9,46.7,162.7,51.4,162.7z"/>
<linearGradient id="SVGID_6_" gradientUnits="userSpaceOnUse" x1="9.5869" y1="73.7866" x2="9.5869" y2="56.595" gradientTransform="matrix(1 0 0 -1 0 166)">
	<stop  offset="0" style="stop-color:#FF5995"/>
	<stop  offset="1" style="stop-color:#FF5995"/>
</linearGradient>
<path class="st6" d="M18.2,92.2H1v17.2h17.2V92.2z"/>
<linearGradient id="SVGID_7_" gradientUnits="userSpaceOnUse" x1="9.5869" y1="119.3672" x2="9.5869" y2="102.1756" gradientTransform="matrix(1 0 0 -1 0 166)">
	<stop  offset="0" style="stop-color:#FF5995"/>
	<stop  offset="1" style="stop-color:#FF5995"/>
</linearGradient>
<path class="st7" d="M18.2,46.6H1v17.2h17.2V46.6z"/>
<linearGradient id="SVGID_8_" gradientUnits="userSpaceOnUse" x1="9.5807" y1="147.7798" x2="9.5807" y2="164.9903" gradientTransform="matrix(1 0 0 -1 0 166)">
	<stop  offset="0" style="stop-color:#FF5995"/>
	<stop  offset="1" style="stop-color:#FF5995"/>
</linearGradient>
<path class="st8" d="M1,18.2h17.2V1H1V18.2z"/>
<linearGradient id="SVGID_9_" gradientUnits="userSpaceOnUse" x1="63.5135" y1="165" x2="63.5135" y2="147.7895" gradientTransform="matrix(1 0 0 -1 0 166)">
	<stop  offset="0" style="stop-color:#FF5995"/>
	<stop  offset="1" style="stop-color:#FF5995"/>
</linearGradient>
<path class="st9" d="M72.1,1H54.9v17.2h17.2V1z"/>
<linearGradient id="SVGID_10_" gradientUnits="userSpaceOnUse" x1="117.4455" y1="147.7656" x2="117.4455" y2="164.9761" gradientTransform="matrix(1 0 0 -1 0 166)">
	<stop  offset="0" style="stop-color:#FF5995"/>
	<stop  offset="1" style="stop-color:#FF5995"/>
</linearGradient>
<path class="st10" d="M108.9,18.2H126V1h-17.2V18.2z"/>
</svg>
