<?xml version="1.0" encoding="utf-8"?>
<!-- Generator: Adobe Illustrator 25.0.0, SVG Export Plug-In . SVG Version: 6.00 Build 0)  -->
<svg version="1.1" id="Layer_1" xmlns="http://www.w3.org/2000/svg" xmlns:xlink="http://www.w3.org/1999/xlink" x="0px" y="0px"
	 viewBox="0 0 167 165" style="enable-background:new 0 0 167 165;" xml:space="preserve">
<style type="text/css">
	.st0{fill:none;stroke:url(#SVGID_1_);stroke-width:3;stroke-miterlimit:10;}
	.st1{fill:none;stroke:url(#SVGID_2_);stroke-width:3;stroke-miterlimit:10;}
	.st2{fill:none;stroke:url(#SVGID_3_);stroke-width:3;stroke-miterlimit:10;}
	.st3{fill:none;stroke:url(#SVGID_4_);stroke-width:3;stroke-miterlimit:10;}
	.st4{fill:none;stroke:url(#SVGID_5_);stroke-miterlimit:10;}
	.st5{fill:none;stroke:url(#SVGID_6_);stroke-miterlimit:10;}
	.st6{fill:none;stroke:url(#SVGID_7_);stroke-miterlimit:10;}
	.st7{fill:none;stroke:url(#SVGID_8_);stroke-miterlimit:10;}
	.st8{fill:none;stroke:url(#SVGID_9_);stroke-miterlimit:10;}
	.st9{fill:none;stroke:url(#SVGID_10_);stroke-miterlimit:10;}
	.st10{fill:none;stroke:url(#SVGID_11_);stroke-miterlimit:10;}
	.st11{fill:none;stroke:url(#SVGID_12_);stroke-miterlimit:10;}
	.st12{fill:none;stroke:url(#SVGID_13_);stroke-miterlimit:10;}
	.st13{fill:none;stroke:url(#SVGID_14_);stroke-miterlimit:10;}
</style>
<linearGradient id="SVGID_1_" gradientUnits="userSpaceOnUse" x1="64.1552" y1="112.6138" x2="64.1552" y2="83.7635" gradientTransform="matrix(1 0 0 -1 0 166)">
	<stop  offset="0" style="stop-color:#06E594"/>
	<stop  offset="0.3229" style="stop-color:#28FFB1;stop-opacity:0.29"/>
	<stop  offset="0.651" style="stop-color:#21FFAE"/>
	<stop  offset="1" style="stop-color:#3DFFB8"/>
</linearGradient>
<path class="st0" d="M64.2,82.2c8,0,14.4-6.5,14.4-14.4s-6.5-14.4-14.4-14.4c-8,0-14.4,6.5-14.4,14.4S56.2,82.2,64.2,82.2z"/>
<linearGradient id="SVGID_2_" gradientUnits="userSpaceOnUse" x1="97.1539" y1="112.6138" x2="97.1539" y2="83.7635" gradientTransform="matrix(1 0 0 -1 0 166)">
	<stop  offset="0" style="stop-color:#06E594"/>
	<stop  offset="0.3229" style="stop-color:#28FFB1;stop-opacity:0.29"/>
	<stop  offset="0.651" style="stop-color:#21FFAE"/>
	<stop  offset="1" style="stop-color:#3DFFB8"/>
</linearGradient>
<path class="st1" d="M97.2,82.2c8,0,14.4-6.5,14.4-14.4s-6.5-14.4-14.4-14.4c-8,0-14.4,6.5-14.4,14.4S89.2,82.2,97.2,82.2z"/>
<linearGradient id="SVGID_3_" gradientUnits="userSpaceOnUse" x1="64.1552" y1="79.3838" x2="64.1552" y2="50.533" gradientTransform="matrix(1 0 0 -1 0 166)">
	<stop  offset="0" style="stop-color:#06E594"/>
	<stop  offset="0.3229" style="stop-color:#28FFB1;stop-opacity:0.29"/>
	<stop  offset="0.651" style="stop-color:#21FFAE"/>
	<stop  offset="1" style="stop-color:#3DFFB8"/>
</linearGradient>
<path class="st2" d="M64.2,115.5c8,0,14.4-6.5,14.4-14.4c0-8-6.5-14.4-14.4-14.4c-8,0-14.4,6.5-14.4,14.4
	C49.7,109,56.2,115.5,64.2,115.5z"/>
<linearGradient id="SVGID_4_" gradientUnits="userSpaceOnUse" x1="97.1539" y1="78.395" x2="97.1539" y2="49.545" gradientTransform="matrix(1 0 0 -1 0 166)">
	<stop  offset="0" style="stop-color:#06E594"/>
	<stop  offset="0.3229" style="stop-color:#28FFB1;stop-opacity:0.29"/>
	<stop  offset="0.651" style="stop-color:#21FFAE"/>
	<stop  offset="1" style="stop-color:#3DFFB8"/>
</linearGradient>
<path class="st3" d="M97.2,116.5c8,0,14.4-6.5,14.4-14.4c0-8-6.5-14.4-14.4-14.4c-8,0-14.4,6.5-14.4,14.4
	C82.7,110,89.2,116.5,97.2,116.5z"/>
<linearGradient id="SVGID_5_" gradientUnits="userSpaceOnUse" x1="156.867" y1="113.3379" x2="156.867" y2="96.3439" gradientTransform="matrix(1 0 0 -1 0 166)">
	<stop  offset="0" style="stop-color:#06E594"/>
	<stop  offset="0.3229" style="stop-color:#28FFB1;stop-opacity:0.29"/>
	<stop  offset="0.651" style="stop-color:#21FFAE"/>
	<stop  offset="1" style="stop-color:#3DFFB8"/>
</linearGradient>
<path class="st4" d="M156.9,69.7c4.7,0,8.5-3.8,8.5-8.5s-3.8-8.5-8.5-8.5c-4.7,0-8.5,3.8-8.5,8.5S152.2,69.7,156.9,69.7z"/>
<linearGradient id="SVGID_6_" gradientUnits="userSpaceOnUse" x1="156.867" y1="66.4727" x2="156.867" y2="49.479" gradientTransform="matrix(1 0 0 -1 0 166)">
	<stop  offset="0" style="stop-color:#06E594"/>
	<stop  offset="0.3229" style="stop-color:#28FFB1;stop-opacity:0.29"/>
	<stop  offset="0.651" style="stop-color:#21FFAE"/>
	<stop  offset="1" style="stop-color:#3DFFB8"/>
</linearGradient>
<path class="st5" d="M156.9,116.5c4.7,0,8.5-3.8,8.5-8.5c0-4.7-3.8-8.5-8.5-8.5c-4.7,0-8.5,3.8-8.5,8.5
	C148.4,112.7,152.2,116.5,156.9,116.5z"/>
<linearGradient id="SVGID_7_" gradientUnits="userSpaceOnUse" x1="156.867" y1="19.641" x2="156.867" y2="2.647" gradientTransform="matrix(1 0 0 -1 0 166)">
	<stop  offset="0" style="stop-color:#06E594"/>
	<stop  offset="0.3229" style="stop-color:#28FFB1;stop-opacity:0.29"/>
	<stop  offset="0.651" style="stop-color:#21FFAE"/>
	<stop  offset="1" style="stop-color:#3DFFB8"/>
</linearGradient>
<path class="st6" d="M156.9,163.4c4.7,0,8.5-3.8,8.5-8.5c0-4.7-3.8-8.5-8.5-8.5c-4.7,0-8.5,3.8-8.5,8.5
	C148.4,159.5,152.2,163.4,156.9,163.4z"/>
<linearGradient id="SVGID_8_" gradientUnits="userSpaceOnUse" x1="107.0236" y1="19.641" x2="107.0236" y2="2.647" gradientTransform="matrix(1 0 0 -1 0 166)">
	<stop  offset="0" style="stop-color:#06E594"/>
	<stop  offset="0.3229" style="stop-color:#28FFB1;stop-opacity:0.29"/>
	<stop  offset="0.651" style="stop-color:#21FFAE"/>
	<stop  offset="1" style="stop-color:#3DFFB8"/>
</linearGradient>
<path class="st7" d="M107,163.4c4.7,0,8.5-3.8,8.5-8.5c0-4.7-3.8-8.5-8.5-8.5c-4.7,0-8.5,3.8-8.5,8.5
	C98.5,159.5,102.3,163.4,107,163.4z"/>
<linearGradient id="SVGID_9_" gradientUnits="userSpaceOnUse" x1="52.0806" y1="19.641" x2="52.0806" y2="2.647" gradientTransform="matrix(1 0 0 -1 0 166)">
	<stop  offset="0" style="stop-color:#06E594"/>
	<stop  offset="0.3229" style="stop-color:#28FFB1;stop-opacity:0.29"/>
	<stop  offset="0.651" style="stop-color:#21FFAE"/>
	<stop  offset="1" style="stop-color:#3DFFB8"/>
</linearGradient>
<path class="st8" d="M52.1,163.4c4.7,0,8.5-3.8,8.5-8.5c0-4.7-3.8-8.5-8.5-8.5s-8.5,3.8-8.5,8.5C43.6,159.5,47.4,163.4,52.1,163.4z"
	/>
<linearGradient id="SVGID_10_" gradientUnits="userSpaceOnUse" x1="10.2319" y1="73.1587" x2="10.2319" y2="55.967" gradientTransform="matrix(1 0 0 -1 0 166)">
	<stop  offset="0" style="stop-color:#06E594"/>
	<stop  offset="0.3229" style="stop-color:#28FFB1;stop-opacity:0.29"/>
	<stop  offset="0.651" style="stop-color:#21FFAE"/>
	<stop  offset="1" style="stop-color:#3DFFB8"/>
</linearGradient>
<path class="st9" d="M18.8,92.8H1.6V110h17.2V92.8z"/>
<linearGradient id="SVGID_11_" gradientUnits="userSpaceOnUse" x1="10.2319" y1="118.7393" x2="10.2319" y2="101.5476" gradientTransform="matrix(1 0 0 -1 0 166)">
	<stop  offset="0" style="stop-color:#06E594"/>
	<stop  offset="0.3229" style="stop-color:#28FFB1;stop-opacity:0.29"/>
	<stop  offset="0.651" style="stop-color:#21FFAE"/>
	<stop  offset="1" style="stop-color:#3DFFB8"/>
</linearGradient>
<path class="st10" d="M18.8,47.3H1.6v17.2h17.2V47.3z"/>
<linearGradient id="SVGID_12_" gradientUnits="userSpaceOnUse" x1="10.226" y1="147.1519" x2="10.226" y2="164.3623" gradientTransform="matrix(1 0 0 -1 0 166)">
	<stop  offset="0" style="stop-color:#06E594"/>
	<stop  offset="0.3229" style="stop-color:#28FFB1;stop-opacity:0.29"/>
	<stop  offset="0.651" style="stop-color:#21FFAE"/>
	<stop  offset="1" style="stop-color:#3DFFB8"/>
</linearGradient>
<path class="st11" d="M1.6,18.8h17.2V1.6H1.6V18.8z"/>
<linearGradient id="SVGID_13_" gradientUnits="userSpaceOnUse" x1="64.1584" y1="164.3721" x2="64.1584" y2="147.1616" gradientTransform="matrix(1 0 0 -1 0 166)">
	<stop  offset="0" style="stop-color:#06E594"/>
	<stop  offset="0.3229" style="stop-color:#28FFB1;stop-opacity:0.29"/>
	<stop  offset="0.651" style="stop-color:#21FFAE"/>
	<stop  offset="1" style="stop-color:#3DFFB8"/>
</linearGradient>
<path class="st12" d="M72.7,1.6H55.6v17.2h17.2V1.6z"/>
<linearGradient id="SVGID_14_" gradientUnits="userSpaceOnUse" x1="118.0905" y1="147.1377" x2="118.0905" y2="164.3482" gradientTransform="matrix(1 0 0 -1 0 166)">
	<stop  offset="0" style="stop-color:#06E594"/>
	<stop  offset="0.3229" style="stop-color:#28FFB1;stop-opacity:0.29"/>
	<stop  offset="0.651" style="stop-color:#21FFAE"/>
	<stop  offset="1" style="stop-color:#3DFFB8"/>
</linearGradient>
<path class="st13" d="M109.5,18.9h17.2V1.7h-17.2V18.9z"/>
</svg>
