<svg xmlns="http://www.w3.org/2000/svg" xmlns:xlink="http://www.w3.org/1999/xlink" viewBox="0 0 386.63 397.19"><defs><style>.cls-1,.cls-10,.cls-12,.cls-14,.cls-4,.cls-5,.cls-6,.cls-7,.cls-8{fill:none;}.cls-2{clip-path:url(#clip-path);}.cls-3{fill:#fff;}.cls-4,.cls-5,.cls-6,.cls-7{stroke-miterlimit:10;}.cls-10,.cls-12,.cls-14,.cls-4,.cls-5,.cls-6,.cls-7,.cls-8{stroke-width:3px;}.cls-4{stroke:url(#linear-gradient);}.cls-5{stroke:url(#linear-gradient-2);}.cls-6{stroke:url(#linear-gradient-3);}.cls-7{stroke:url(#linear-gradient-4);}.cls-10,.cls-12,.cls-14,.cls-8{stroke-linecap:round;stroke-linejoin:round;}.cls-8{stroke:url(#linear-gradient-5);}.cls-9{fill:url(#linear-gradient-6);}.cls-10{stroke:url(#linear-gradient-7);}.cls-11{fill:url(#linear-gradient-8);}.cls-12{stroke:url(#linear-gradient-9);}.cls-13{fill:url(#linear-gradient-10);}.cls-14{stroke:url(#linear-gradient-11);}.cls-15{fill:url(#linear-gradient-12);}</style><clipPath id="clip-path"><rect class="cls-1" width="386.63" height="397.19"/></clipPath><linearGradient id="linear-gradient" x1="-118.09" y1="310.64" x2="-118.09" y2="173.89" gradientTransform="matrix(1, 0, 0, -1, 234, 350.3)" gradientUnits="userSpaceOnUse"><stop offset="0" stop-color="#fff"/><stop offset="0.12" stop-color="#fff" stop-opacity="0.56"/><stop offset="0.46" stop-color="#fff" stop-opacity="0.77"/><stop offset="0.7" stop-color="#fff" stop-opacity="0"/><stop offset="1" stop-color="#fff" stop-opacity="0.69"/></linearGradient><linearGradient id="linear-gradient-2" x1="43.3" y1="310.64" x2="43.3" y2="173.89" xlink:href="#linear-gradient"/><linearGradient id="linear-gradient-3" x1="-117.68" y1="130.2" x2="-117.68" y2="-6.55" xlink:href="#linear-gradient"/><linearGradient id="linear-gradient-4" x1="43.68" y1="125.36" x2="43.68" y2="-11.4" xlink:href="#linear-gradient"/><linearGradient id="linear-gradient-5" x1="42.99" y1="333.83" x2="42.99" y2="152.45" gradientTransform="matrix(1, 0, 0, -1, 234, 350.3)" gradientUnits="userSpaceOnUse"><stop offset="0" stop-color="#78c79e"/><stop offset="0.26" stop-color="#71c492" stop-opacity="0.76"/><stop offset="0.54" stop-color="#5bbe88" stop-opacity="0"/><stop offset="0.76" stop-color="#a7d9c6" stop-opacity="0.31"/><stop offset="1" stop-color="#70c38c" stop-opacity="0.99"/></linearGradient><linearGradient id="linear-gradient-6" x1="-55.3" y1="350.3" x2="-55.3" y2="320.62" xlink:href="#linear-gradient-5"/><linearGradient id="linear-gradient-7" x1="-152.64" y1="333.84" x2="-152.64" y2="168.53" xlink:href="#linear-gradient-5"/><linearGradient id="linear-gradient-8" x1="-219.05" y1="184.37" x2="-219.05" y2="156.9" xlink:href="#linear-gradient-5"/><linearGradient id="linear-gradient-9" x1="71.27" y1="134.89" x2="71.27" y2="-30.42" xlink:href="#linear-gradient-5"/><linearGradient id="linear-gradient-10" x1="137.66" y1="146.51" x2="137.66" y2="119.07" xlink:href="#linear-gradient-5"/><linearGradient id="linear-gradient-11" x1="-93.4" y1="149.22" x2="-93.4" y2="-30.42" xlink:href="#linear-gradient-5"/><linearGradient id="linear-gradient-12" x1="-24.42" y1="-17.17" x2="-24.42" y2="-46.89" xlink:href="#linear-gradient-5"/></defs><g id="Layer_2" data-name="Layer 2"><g id="Layer_1-2" data-name="Layer 1"><g class="cls-2"><path class="cls-3" d="M259.07,108.22A16.26,16.26,0,1,0,242.7,92,16.32,16.32,0,0,0,259.07,108.22Z"/><path class="cls-3" d="M295.5,108.22A16.26,16.26,0,1,0,279.12,92,16.32,16.32,0,0,0,295.5,108.22Z"/><path class="cls-3" d="M259.07,143.92a16.26,16.26,0,1,0-16.37-16.26A16.32,16.32,0,0,0,259.07,143.92Z"/><path class="cls-3" d="M295.5,143.92a16.26,16.26,0,1,0-16.38-16.26A16.32,16.32,0,0,0,295.5,143.92Z"/><path class="cls-3" d="M97.72,289.32a16.26,16.26,0,1,0-16.38-16.26A16.31,16.31,0,0,0,97.72,289.32Z"/><path class="cls-3" d="M134.14,289.32a16.26,16.26,0,1,0-16.38-16.26A16.31,16.31,0,0,0,134.14,289.32Z"/><path class="cls-3" d="M97.72,325a16.26,16.26,0,1,0-16.38-16.26A16.32,16.32,0,0,0,97.72,325Z"/><path class="cls-3" d="M134.14,325a16.26,16.26,0,1,0-16.38-16.26A16.32,16.32,0,0,0,134.14,325Z"/><path class="cls-4" d="M115.91,178c38.92,0,70.47-31.33,70.47-70s-31.55-70-70.47-70S45.45,69.4,45.45,108,77,178,115.91,178Z"/><path class="cls-5" d="M277.3,178c38.92,0,70.46-31.33,70.46-70s-31.54-70-70.46-70-70.46,31.33-70.46,70S238.38,178,277.3,178Z"/><path class="cls-6" d="M116.32,358.45c38.92,0,70.47-31.32,70.47-70s-31.55-70-70.47-70-70.46,31.33-70.46,70S77.41,358.45,116.32,358.45Z"/><path class="cls-7" d="M277.68,363.3c38.92,0,70.47-31.33,70.47-70s-31.55-70-70.47-70-70.46,31.33-70.46,70S238.77,363.3,277.68,363.3Z"/><path class="cls-8" d="M174.94,14.86H312.81c36.42,0,66.23,41.54,66.23,92.31s-29.81,92.3-66.23,92.3"/><path class="cls-9" d="M192.52,29.69l-15-14.83L192.52,0h-12.7L164.89,14.86l14.93,14.83Z"/><path class="cls-10" d="M15,183.39V70.06c0-30.36,20.46-55.2,71.11-55.2h21c50.66,0,28.31.41,40.72,0"/><path class="cls-11" d="M29.9,165.93,15,180.79,0,165.93v12.61L15,193.4,29.9,178.54Z"/><path class="cls-12" d="M371.67,213.81V327.13c0,30.36-20.47,55.2-71.12,55.2h-21c-50.65,0-28.31-.41-40.71,0"/><path class="cls-13" d="M356.7,231.23l15-14.86,15,14.86V218.62l-15-14.83-15,14.83Z"/><path class="cls-14" d="M213.33,382.33H75.46C39,382.33,9.23,341.2,9.23,290.9S39,199.47,75.46,199.47H272"/><path class="cls-15" d="M195.75,367.47l15,14.86-15,14.86h12.7l15-14.86-15-14.86Z"/></g></g></g></svg>