<?xml version="1.0" encoding="utf-8"?>
<!-- Generator: Adobe Illustrator 25.0.0, SVG Export Plug-In . SVG Version: 6.00 Build 0)  -->
<svg version="1.1" id="Layer_1" xmlns="http://www.w3.org/2000/svg" xmlns:xlink="http://www.w3.org/1999/xlink" x="0px" y="0px"
	 viewBox="0 0 38 38" style="enable-background:new 0 0 38 38;" xml:space="preserve">
<style type="text/css">
	.st0{clip-path:url(#SVGID_2_);}
	.st1{fill:#FFFFFF;}
</style>
<g>
	<defs>
		<rect id="SVGID_1_" width="38" height="38"/>
	</defs>
	<clipPath id="SVGID_2_">
		<use xlink:href="#SVGID_1_"  style="overflow:visible;"/>
	</clipPath>
	<g class="st0">
		<path class="st1" d="M19,38C8.5,38,0,29.5,0,19C0,8.5,8.6,0,19.1,0C29.6,0,38,8.5,38,19.1C38,29.5,29.5,38,19,38z M10.8,21
			c0.7,1.7,2.2,2.3,3.7,2.9c-1.6,1.4-3.5,1.9-5.5,2.1c2,1.5,4.2,2,6.5,1.9c2.7-0.1,5-1.4,7.1-2.9c3.3-2.4,4.9-5.8,4.8-9.9
			c0-0.5,0.1-0.8,0.6-1c0.4-0.3,0.8-0.7,1.4-1.2c-0.9,0-1.5,0.1-2.1,0.1c0.6-0.7,1.1-1.3,1.6-1.9c-0.8,0.1-1.5,0.3-2.1,0.4
			c-0.3,0.1-0.6-0.1-0.9-0.2c-2.7-2.1-6.1-1-6.9,2.4c-0.2,0.6-0.2,1.3-0.3,1.9c-3.7,0-6.6-1.7-9.1-4.4c-0.9,2.3-0.6,4.2,1.3,5.7
			c-0.1,0-0.1,0.1-0.2,0.1c-0.6-0.1-1.1-0.2-1.7-0.3c0,1,0.4,1.9,1.1,2.5c0.7,0.6,1.4,1.1,2.2,1.7C11.8,20.8,11.3,20.9,10.8,21z"/>
	</g>
</g>
</svg>
