<svg width="100" height="24" viewBox="0 0 100 24" fill="none" xmlns="http://www.w3.org/2000/svg">
<path d="M52.8563 5.54545C52.0774 5.54545 51.4208 5.27385 50.9016 4.73919C50.3866 4.21951 50.0991 3.50307 50.112 2.77166C50.112 1.99106 50.3781 1.33022 50.9016 0.806262C51.4187 0.271606 52.0752 0 52.8541 0C53.6244 0 54.281 0.271606 54.8088 0.806262C55.3323 1.34733 55.5984 2.00817 55.5984 2.77166C55.5898 3.55439 55.3237 4.21523 54.8088 4.73705C54.2917 5.27599 53.6351 5.54545 52.8563 5.54545ZM29.6813 5.54545C28.9196 5.54545 28.2588 5.27813 27.7181 4.74989C27.1817 4.22378 26.9092 3.55867 26.9092 2.7738C26.9092 1.98892 27.1817 1.32381 27.7181 0.797707C28.2481 0.269467 28.9089 0.00213876 29.6813 0.00213876C30.059 0.00213876 30.4259 0.0769908 30.7777 0.228833C31.1232 0.376398 31.4043 0.577429 31.6124 0.823371L31.6639 0.885391L31.0824 1.45426L31.0223 1.38369C30.6941 0.994461 30.2542 0.804123 29.6727 0.804123C29.1535 0.804123 28.7008 0.988045 28.3274 1.35161C27.952 1.71732 27.761 2.19637 27.761 2.77594C27.761 3.3555 27.952 3.83455 28.3274 4.20026C28.7008 4.56383 29.1535 4.74775 29.6727 4.74775C30.2263 4.74775 30.6919 4.56383 31.0545 4.20026C31.2691 3.9864 31.4021 3.68699 31.4493 3.30845H29.5848V2.50861H32.2496L32.2604 2.58132C32.2797 2.71605 32.299 2.85506 32.299 2.98338C32.299 3.72121 32.0759 4.31788 31.6339 4.75844C31.1318 5.28026 30.4752 5.54545 29.6813 5.54545ZM60.4947 5.43211H59.6729L57.1561 1.41791L57.1776 2.14076V5.42997H56.3558V0.115486H57.2934L57.3192 0.15612L59.6858 3.93721L59.6643 3.21649V0.115486H60.4947V5.43211ZM46.6811 5.43211H45.8486V0.915332H44.4046V0.115486H48.123V0.915332H46.679V5.43211H46.6811ZM43.7266 5.43211H42.8962V0.115486H43.7266V5.43211ZM39.0599 5.43211H38.2295V0.915332H36.7855V0.115486H40.5039V0.915332H39.0599V5.43211ZM36.2598 5.42355H33.0757V0.115486H36.2598V0.915332H33.9082V2.37387H36.0302V3.16516H33.9082V4.62371H36.2598V5.42355ZM51.5109 4.18957C51.8821 4.55955 52.3327 4.74561 52.8563 4.74561C53.3948 4.74561 53.8347 4.56383 54.2016 4.18957C54.5663 3.826 54.7508 3.34909 54.7508 2.7738C54.7508 2.19851 54.5663 1.71945 54.2037 1.35803C53.8325 0.988045 53.3798 0.801984 52.8584 0.801984C52.3198 0.801984 51.88 0.983767 51.5152 1.35803C51.1505 1.72159 50.966 2.19851 50.966 2.7738C50.966 3.34909 51.1483 3.82814 51.5109 4.18957Z" fill="white"/>
<path fill-rule="evenodd" clip-rule="evenodd" d="M50.0357 12.8554C48.0081 12.8554 46.3645 14.3888 46.3645 16.5039C46.3645 18.5997 48.0188 20.1524 50.0357 20.1524C52.0633 20.1524 53.7069 18.6083 53.7069 16.5039C53.7069 14.3888 52.0633 12.8554 50.0357 12.8554ZM50.0357 18.7066C48.9264 18.7066 47.9716 17.7913 47.9716 16.4953C47.9716 15.18 48.9286 14.284 50.0357 14.284C51.145 14.284 52.0998 15.18 52.0998 16.4953C52.102 17.7999 51.145 18.7066 50.0357 18.7066ZM42.0261 12.8554C39.9985 12.8554 38.3549 14.3888 38.3549 16.5039C38.3549 18.5997 40.0092 20.1524 42.0261 20.1524C44.0537 20.1524 45.6973 18.6083 45.6973 16.5039C45.6973 14.3888 44.0516 12.8554 42.0261 12.8554ZM42.0261 18.7066C40.9168 18.7066 39.962 17.7913 39.962 16.4953C39.962 15.18 40.9189 14.284 42.0261 14.284C43.1354 14.284 44.0902 15.18 44.0902 16.4953C44.0902 17.7999 43.1354 18.7066 42.0261 18.7066ZM32.4952 13.9696V15.5137H36.2136C36.0999 16.3798 35.8123 17.0193 35.3725 17.4577C34.8275 18.0009 33.9864 18.5912 32.5038 18.5912C30.2187 18.5912 28.4314 16.7519 28.4314 14.4743C28.4314 12.1967 30.2187 10.3575 32.5038 10.3575C33.7375 10.3575 34.6365 10.8429 35.3038 11.4631L36.4024 10.3681C35.4755 9.48275 34.2418 8.80481 32.5124 8.80481C29.3776 8.80481 26.7471 11.3498 26.7471 14.4657C26.7471 17.5903 29.3755 20.1267 32.5124 20.1267C34.2053 20.1267 35.4755 19.5749 36.4796 18.5356C37.5031 17.5154 37.8271 16.0761 37.8271 14.9149C37.8271 14.5534 37.7992 14.2284 37.7413 13.9525H32.4931C32.4952 13.9503 32.4952 13.9696 32.4952 13.9696ZM71.4791 15.1715C71.1723 14.3524 70.2454 12.8468 68.3444 12.8468C66.4605 12.8468 64.8942 14.3246 64.8942 16.4953C64.8942 18.5441 66.4433 20.1438 68.5267 20.1438C70.2003 20.1438 71.1744 19.1237 71.5757 18.5249L70.3334 17.6951C69.9214 18.3046 69.3485 18.7045 68.5353 18.7045C67.7136 18.7045 67.1385 18.3324 66.7566 17.5988L71.6508 15.5778C71.6508 15.58 71.4791 15.1715 71.4791 15.1715ZM66.4884 16.3905C66.4498 14.9812 67.587 14.2647 68.4002 14.2647C69.0417 14.2647 69.576 14.5791 69.7583 15.0368L66.4884 16.3905ZM62.5125 19.9257H64.1196V9.20687H62.5125V19.9257ZM59.8734 13.6659H59.8155C59.4529 13.236 58.7641 12.8468 57.8844 12.8468C56.0585 12.8468 54.3763 14.4486 54.3763 16.506C54.3763 18.5548 56.0499 20.1374 57.8844 20.1374C58.7534 20.1374 59.4529 19.746 59.8155 19.3076H59.8734V19.8316C59.8734 21.2238 59.1267 21.9745 57.923 21.9745C56.9382 21.9745 56.3267 21.2687 56.0778 20.6785L54.681 21.2602C55.0822 22.2225 56.1529 23.4138 57.9209 23.4138C59.8048 23.4138 61.4011 22.3081 61.4011 19.6113V13.065H59.882V13.6659C59.8842 13.6659 59.8734 13.6659 59.8734 13.6659ZM58.0282 18.7066C56.9189 18.7066 55.992 17.7828 55.992 16.506C55.992 15.2185 56.9189 14.2861 58.0282 14.2861C59.1267 14.2861 59.9786 15.2292 59.9786 16.506C59.9893 17.7828 59.1289 18.7066 58.0282 18.7066ZM79.0038 9.20687H75.161V19.9257H76.7681V15.8665H79.006C80.7847 15.8665 82.5334 14.5812 82.5334 12.541C82.5334 10.5007 80.7911 9.20687 79.0038 9.20687ZM79.051 14.3695H76.7659V10.6911H79.051C80.2547 10.6911 80.9349 11.6813 80.9349 12.5303C80.9349 13.3708 80.2462 14.3695 79.051 14.3695ZM88.9746 12.8361C87.8074 12.8361 86.6037 13.3515 86.1059 14.4743L87.5306 15.0646C87.8374 14.4743 88.3995 14.2733 88.9939 14.2733C89.8264 14.2733 90.6675 14.7694 90.6868 15.6548V15.7682C90.3993 15.6056 89.7685 15.3576 89.0132 15.3576C87.4748 15.3576 85.9149 16.1959 85.9149 17.7678C85.9149 19.2071 87.1765 20.131 88.5819 20.131C89.6612 20.131 90.2555 19.6455 90.6267 19.083H90.6846V19.9128H92.2338V15.8067C92.2338 13.8947 90.8091 12.8361 88.9746 12.8361ZM88.7729 18.7066C88.2472 18.7066 87.5113 18.45 87.5113 17.7913C87.5113 16.9615 88.4296 16.6471 89.2127 16.6471C89.9208 16.6471 90.2555 16.799 90.6761 17.0086C90.5602 17.971 89.7449 18.6981 88.7729 18.7066ZM97.8854 13.065L96.0401 17.7143H95.9822L94.0704 13.065H92.3411L95.2098 19.5642L93.5748 23.1764H95.2484L99.6619 13.065H97.8854ZM83.4195 19.9257H85.0266V9.20687H83.4195V19.9257Z" fill="white"/>
<path fill-rule="evenodd" clip-rule="evenodd" d="M0.39265 0.658695C0.143757 0.926023 0 1.3345 0 1.86916V20.8323C0 21.367 0.143757 21.7755 0.401232 22.0321L0.467747 22.0899L11.1272 11.4652V11.2278L0.459164 0.600952L0.39265 0.658695Z" fill="url(#paint0_linear_212_3373)"/>
<path fill-rule="evenodd" clip-rule="evenodd" d="M14.6744 15.0174L11.1191 11.4737V11.2256L14.6744 7.68188L14.7517 7.72893L18.9571 10.1114C20.1608 10.7872 20.1608 11.9035 18.9571 12.5879L14.7517 14.9703L14.6744 15.0174Z" fill="url(#paint1_linear_212_3373)"/>
<path fill-rule="evenodd" clip-rule="evenodd" d="M14.7501 14.9703L11.1176 11.3496L0.391602 22.0406C0.784251 22.4598 1.44296 22.5068 2.17891 22.0983L14.7501 14.9703Z" fill="url(#paint2_linear_212_3373)"/>
<path fill-rule="evenodd" clip-rule="evenodd" d="M14.7501 7.7288L2.17891 0.611456C1.44296 0.192285 0.782106 0.250029 0.391602 0.669199L11.1176 11.3495L14.7501 7.7288Z" fill="url(#paint3_linear_212_3373)"/>
<path opacity="0.2" fill-rule="evenodd" clip-rule="evenodd" d="M14.6741 14.8933L2.18868 21.9636C1.49135 22.3635 0.869114 22.3357 0.467882 21.9722L0.401367 22.0385L0.467882 22.0962C0.869114 22.4576 1.49135 22.4876 2.18868 22.0876L14.7599 14.9703L14.6741 14.8933Z" fill="black"/>
<path opacity="0.12" fill-rule="evenodd" clip-rule="evenodd" d="M18.9575 12.4638L14.6641 14.8933L14.7413 14.9703L18.9467 12.5879C19.5497 12.2457 19.8458 11.7966 19.8458 11.3496C19.8093 11.7602 19.5025 12.1495 18.9575 12.4638Z" fill="black"/>
<path opacity="0.25" fill-rule="evenodd" clip-rule="evenodd" d="M2.17996 0.735692L18.9566 10.2355C19.5016 10.5413 19.8084 10.9412 19.8556 11.3497C19.8556 10.9027 19.5595 10.4536 18.9566 10.1114L2.17996 0.611651C0.976261 -0.0748471 0 0.498305 0 1.86916V1.9932C0 0.620206 0.976261 0.057748 2.17996 0.735692Z" fill="white"/>
<defs>
<linearGradient id="paint0_linear_212_3373" x1="10.1711" y1="1.66456" x2="-6.89614" y2="6.22704" gradientUnits="userSpaceOnUse">
<stop stop-color="#00A0FF"/>
<stop offset="0.00657" stop-color="#00A1FF"/>
<stop offset="0.2601" stop-color="#00BEFF"/>
<stop offset="0.5122" stop-color="#00D2FF"/>
<stop offset="0.7604" stop-color="#00DFFF"/>
<stop offset="1" stop-color="#00E3FF"/>
</linearGradient>
<linearGradient id="paint1_linear_212_3373" x1="20.5269" y1="11.3497" x2="-0.292059" y2="11.3497" gradientUnits="userSpaceOnUse">
<stop stop-color="#FFE000"/>
<stop offset="0.4087" stop-color="#FFBD00"/>
<stop offset="0.7754" stop-color="#FFA500"/>
<stop offset="1" stop-color="#FF9C00"/>
</linearGradient>
<linearGradient id="paint2_linear_212_3373" x1="12.7749" y1="13.3198" x2="-0.866398" y2="36.3544" gradientUnits="userSpaceOnUse">
<stop stop-color="#FF3A44"/>
<stop offset="1" stop-color="#C31162"/>
</linearGradient>
<linearGradient id="paint3_linear_212_3373" x1="-2.30932" y1="-5.64895" x2="3.77659" y2="4.63864" gradientUnits="userSpaceOnUse">
<stop stop-color="#32A071"/>
<stop offset="0.0685" stop-color="#2DA771"/>
<stop offset="0.4762" stop-color="#15CF74"/>
<stop offset="0.8009" stop-color="#06E775"/>
<stop offset="1" stop-color="#00F076"/>
</linearGradient>
</defs>
</svg>
