<?xml version="1.0" encoding="utf-8"?>
<!-- Generator: Adobe Illustrator 25.0.0, SVG Export Plug-In . SVG Version: 6.00 Build 0)  -->
<svg version="1.1" id="Layer_1" xmlns="http://www.w3.org/2000/svg" xmlns:xlink="http://www.w3.org/1999/xlink" x="0px" y="0px"
	 viewBox="0 0 185 191" style="enable-background:new 0 0 185 191;" xml:space="preserve">
<style type="text/css">
	.st0{fill:none;stroke:url(#SVGID_1_);stroke-width:2;stroke-linecap:round;stroke-linejoin:round;stroke-miterlimit:10;}
	.st1{fill:none;stroke:url(#SVGID_2_);stroke-width:2;stroke-linecap:round;stroke-linejoin:round;stroke-miterlimit:10;}
	.st2{fill:none;stroke:url(#SVGID_3_);stroke-width:2;stroke-linecap:round;stroke-linejoin:round;stroke-miterlimit:10;}
	.st3{fill:none;stroke:url(#SVGID_4_);stroke-width:2;stroke-linecap:round;stroke-linejoin:round;stroke-miterlimit:10;}
	.st4{fill:none;stroke:url(#SVGID_5_);stroke-width:2;stroke-linecap:round;stroke-linejoin:round;stroke-miterlimit:10;}
	.st5{fill:none;stroke:url(#SVGID_6_);stroke-width:2;stroke-linecap:round;stroke-linejoin:round;stroke-miterlimit:10;}
</style>
<linearGradient id="SVGID_1_" gradientUnits="userSpaceOnUse" x1="54.5" y1="191" x2="54.5" y2="84" gradientTransform="matrix(1 0 0 -1 0 192)">
	<stop  offset="0" style="stop-color:#00FFA2"/>
	<stop  offset="0.2552" style="stop-color:#7AFFCF;stop-opacity:0.82"/>
	<stop  offset="0.7656" style="stop-color:#0F8258;stop-opacity:0.61"/>
	<stop  offset="1" style="stop-color:#0DFFA7;stop-opacity:0.94"/>
</linearGradient>
<path class="st0" d="M54.5,108C84,108,108,84,108,54.5S84,1,54.5,1S1,25,1,54.5S25,108,54.5,108z"/>
<linearGradient id="SVGID_2_" gradientUnits="userSpaceOnUse" x1="130.5" y1="191" x2="130.5" y2="84" gradientTransform="matrix(1 0 0 -1 0 192)">
	<stop  offset="0" style="stop-color:#00FFA2"/>
	<stop  offset="0.2552" style="stop-color:#7AFFCF;stop-opacity:0.82"/>
	<stop  offset="0.7656" style="stop-color:#0F8258;stop-opacity:0.61"/>
	<stop  offset="1" style="stop-color:#0DFFA7;stop-opacity:0.94"/>
</linearGradient>
<path class="st1" d="M130.5,108C160,108,184,84,184,54.5S160,1,130.5,1S77,25,77,54.5S101,108,130.5,108z"/>
<linearGradient id="SVGID_3_" gradientUnits="userSpaceOnUse" x1="54.5" y1="114" x2="54.5" y2="7" gradientTransform="matrix(1 0 0 -1 0 192)">
	<stop  offset="0" style="stop-color:#00FFA2"/>
	<stop  offset="0.2552" style="stop-color:#7AFFCF;stop-opacity:0.82"/>
	<stop  offset="0.7656" style="stop-color:#0F8258;stop-opacity:0.61"/>
	<stop  offset="1" style="stop-color:#0DFFA7;stop-opacity:0.94"/>
</linearGradient>
<path class="st2" d="M54.5,185c29.5,0,53.5-24,53.5-53.5S84,78,54.5,78S1,102,1,131.5S25,185,54.5,185z"/>
<linearGradient id="SVGID_4_" gradientUnits="userSpaceOnUse" x1="124.5" y1="109" x2="124.5" y2="2" gradientTransform="matrix(1 0 0 -1 0 192)">
	<stop  offset="0" style="stop-color:#00FFA2"/>
	<stop  offset="0.2552" style="stop-color:#7AFFCF;stop-opacity:0.82"/>
	<stop  offset="0.7656" style="stop-color:#0F8258;stop-opacity:0.61"/>
	<stop  offset="1" style="stop-color:#0DFFA7;stop-opacity:0.94"/>
</linearGradient>
<path class="st3" d="M124.5,190c29.5,0,53.5-24,53.5-53.5S154,83,124.5,83C95,83,71,107,71,136.5S95,190,124.5,190z"/>
<linearGradient id="SVGID_5_" gradientUnits="userSpaceOnUse" x1="92.5" y1="166" x2="92.5" y2="105" gradientTransform="matrix(1 0 0 -1 0 192)">
	<stop  offset="0" style="stop-color:#00FFA2"/>
	<stop  offset="0.2552" style="stop-color:#7AFFCF;stop-opacity:0.82"/>
	<stop  offset="0.7656" style="stop-color:#0F8258;stop-opacity:0.61"/>
	<stop  offset="1" style="stop-color:#0DFFA7;stop-opacity:0.94"/>
</linearGradient>
<path class="st4" d="M92.5,87c16.8,0,30.5-13.7,30.5-30.5S109.3,26,92.5,26C75.7,26,62,39.7,62,56.5S75.7,87,92.5,87z"/>
<linearGradient id="SVGID_6_" gradientUnits="userSpaceOnUse" x1="93" y1="90" x2="93" y2="19" gradientTransform="matrix(1 0 0 -1 0 192)">
	<stop  offset="0" style="stop-color:#00FFA2"/>
	<stop  offset="0.2552" style="stop-color:#7AFFCF;stop-opacity:0.82"/>
	<stop  offset="0.7656" style="stop-color:#0F8258;stop-opacity:0.61"/>
	<stop  offset="1" style="stop-color:#0DFFA7;stop-opacity:0.94"/>
</linearGradient>
<path class="st5" d="M28,173c0-39.2,29.1-71,65-71c35.9,0,65,31.8,65,71H28z"/>
</svg>
