<svg width="100" height="32" viewBox="0 0 100 32" fill="none" xmlns="http://www.w3.org/2000/svg">
    <path d="M24.3458 0H7.68815C3.4421 0 0 3.43845 0 7.68V24.32C0 28.5615 3.4421 32 7.68815 32H24.3458C28.5919 32 32.034 28.5615 32.034 24.32V7.68C32.034 3.43845 28.5919 0 24.3458 0Z" fill="url(#paint0_linear_576_3876)"/>
    <path fill-rule="evenodd" clip-rule="evenodd" d="M16.0165 26.2398C21.6779 26.2398 26.2674 21.6552 26.2674 15.9998C26.2674 10.3444 21.6779 5.75977 16.0165 5.75977C10.3551 5.75977 5.76562 10.3444 5.76562 15.9998C5.76562 21.6552 10.3551 26.2398 16.0165 26.2398ZM14.2075 11.112C14.2074 10.8174 14.4462 10.5786 14.7408 10.5786H17.292C17.5865 10.5786 17.8253 10.8174 17.8253 11.1119V14.2307H14.2078V17.7687H17.8253V20.8875C17.8253 21.182 17.5865 21.4208 17.292 21.4208H14.7407C14.4462 21.4208 14.2074 21.182 14.2074 20.8875V17.8828H11.1232C10.8287 17.8828 10.5899 17.644 10.5899 17.3495V14.764C10.5899 14.4695 10.8287 14.2307 11.1232 14.2307H14.2078L14.2075 11.112ZM17.8253 14.2307H20.9106C21.2051 14.2307 21.4439 14.4695 21.4439 14.764V17.3495C21.4439 17.644 21.2051 17.8828 20.9106 17.8828H17.826L17.8253 14.2307Z" fill="#0C0B0B"/>
    <path d="M61.4632 13.0817H57.0042C56.9228 12.5431 56.7565 12.0646 56.5054 11.6464C56.2543 11.2218 55.9319 10.8606 55.5382 10.5627C55.1446 10.2649 54.6899 10.0368 54.174 9.87833C53.665 9.7199 53.1119 9.64068 52.5146 9.64068C51.4355 9.64068 50.4955 9.891 49.6946 10.3916C48.8938 10.8859 48.2728 11.6084 47.8316 12.5589C47.3905 13.5032 47.1699 14.6502 47.1699 16C47.1699 17.3878 47.3905 18.5539 47.8316 19.4981C48.2796 20.4423 48.904 21.1553 49.7048 21.6369C50.5057 22.1185 51.4321 22.3593 52.4841 22.3593C53.0746 22.3593 53.6209 22.2864 54.1231 22.1407C54.6322 21.9949 55.0835 21.7826 55.4771 21.5038C55.8708 21.2186 56.1966 20.8733 56.4545 20.4677C56.7192 20.0621 56.9024 19.5995 57.0042 19.0798L61.4632 19.0989C61.3479 19.9924 61.0594 20.8542 60.5979 21.6844C60.1432 22.5082 59.529 23.2465 58.7552 23.8992C57.9883 24.5456 57.0721 25.0589 56.0065 25.4392C54.9478 25.8131 53.7499 26 52.4128 26C50.5532 26 48.8904 25.6071 47.4244 24.8213C45.9652 24.0355 44.8114 22.898 43.9631 21.4087C43.1215 19.9195 42.7007 18.1166 42.7007 16C42.7007 13.8771 43.1283 12.071 43.9834 10.5817C44.8386 9.09252 45.9991 7.95817 47.4651 7.17871C48.9311 6.3929 50.5803 6 52.4128 6C53.6209 6 54.7408 6.15843 55.7724 6.47528C56.8108 6.79214 57.7304 7.25475 58.5313 7.86312C59.3321 8.46515 59.9837 9.20342 60.4859 10.0779C60.9949 10.9525 61.3207 11.9537 61.4632 13.0817Z" fill="#0C0B0B"/>
    <path d="M64.6816 25.7338V6.26616H69.0897V22.3403H78.0282V25.7338H64.6816Z" fill="#0C0B0B"/>
    <path d="M82.5318 6.26616L87.5711 21.057H87.7646L92.8141 6.26616H97.7007L90.5133 25.7338H84.8326L77.635 6.26616H82.5318Z" fill="#0C0B0B"/>
    <defs>
        <linearGradient id="paint0_linear_576_3876" x1="2.66667" y1="29.3333" x2="30.6376" y2="1.97032" gradientUnits="userSpaceOnUse">
            <stop stop-color="#BDFDE2"/>
            <stop offset="1" stop-color="#9BDAF6"/>
        </linearGradient>
    </defs>
</svg>
