<svg width="94" height="25" viewBox="0 0 94 25" fill="none" xmlns="http://www.w3.org/2000/svg">
<path d="M15.4584 11.9356C15.4337 9.29576 17.7037 8.01146 17.8075 7.95167C16.5219 6.14725 14.5293 5.90071 13.8291 5.88105C12.1555 5.71151 10.5321 6.8451 9.67961 6.8451C8.81008 6.8451 7.49726 5.89744 6.08235 5.92528C4.2616 5.95231 2.55826 6.96714 1.62406 8.54304C-0.303897 11.7563 1.13399 16.4782 2.98112 19.0755C3.9051 20.3475 4.98479 21.7678 6.398 21.7178C7.78058 21.6629 8.29703 20.8692 9.96549 20.8692C11.6186 20.8692 12.1036 21.7178 13.5449 21.6859C15.0287 21.6629 15.9629 20.4081 16.8546 19.1246C17.9223 17.6667 18.3512 16.2308 18.3682 16.1571C18.3333 16.1457 15.4865 15.0997 15.4584 11.9356Z" fill="white"/>
<path d="M12.7354 4.17255C13.479 3.2773 13.9878 2.05934 13.8465 0.823364C12.7703 0.869232 11.4243 1.54005 10.6492 2.41564C9.9634 3.1872 9.35081 4.45185 9.50907 5.64114C10.7181 5.72796 11.9594 5.05387 12.7354 4.17255Z" fill="white"/>
<path d="M35.4662 21.5352H33.534L32.4755 18.3335H28.7966L27.7884 21.5352H25.9072L29.5521 10.635H31.8034L35.4662 21.5352ZM32.1565 16.9902L31.1993 14.1439C31.0981 13.8531 30.9083 13.1684 30.6284 12.0905H30.5944C30.4829 12.5541 30.3034 13.2388 30.0567 14.1439L29.1165 16.9902H32.1565Z" fill="white"/>
<path d="M44.84 17.5088C44.84 18.8455 44.4647 19.9021 43.7143 20.6778C43.0422 21.3682 42.2075 21.7131 41.2112 21.7131C40.1358 21.7131 39.3632 21.3412 38.8927 20.5975H38.8587V24.7379H37.0448V16.263C37.0448 15.4226 37.0218 14.5601 36.9775 13.6755H38.5728L38.6741 14.9213H38.7081C39.313 13.9827 40.2311 13.5142 41.4631 13.5142C42.4262 13.5142 43.2302 13.8803 43.8734 14.6134C44.5183 15.3472 44.84 16.3121 44.84 17.5088ZM42.992 17.5727C42.992 16.8076 42.8133 16.177 42.4543 15.6806C42.062 15.163 41.5354 14.9041 40.8751 14.9041C40.4276 14.9041 40.0209 15.0483 39.6576 15.3325C39.2935 15.6192 39.0552 15.9935 38.9438 16.4571C38.8876 16.6733 38.8595 16.8502 38.8595 16.9895V18.3C38.8595 18.8717 39.0416 19.3541 39.4058 19.7481C39.7699 20.1421 40.243 20.3387 40.8249 20.3387C41.5081 20.3387 42.0399 20.0848 42.4202 19.5786C42.8014 19.0716 42.992 18.4032 42.992 17.5727Z" fill="white"/>
<path d="M54.2292 17.5088C54.2292 18.8455 53.854 19.9021 53.1028 20.6778C52.4315 21.3682 51.5968 21.7131 50.6005 21.7131C49.5251 21.7131 48.7525 21.3412 48.2829 20.5975H48.2488V24.7379H46.4349V16.263C46.4349 15.4226 46.4119 14.5601 46.3677 13.6755H47.963L48.0642 14.9213H48.0982C48.7023 13.9827 49.6204 13.5142 50.8532 13.5142C51.8155 13.5142 52.6195 13.8803 53.2644 14.6134C53.9068 15.3472 54.2292 16.3121 54.2292 17.5088ZM52.3813 17.5727C52.3813 16.8076 52.2017 16.177 51.8427 15.6806C51.4505 15.163 50.9255 14.9041 50.2644 14.9041C49.816 14.9041 49.4102 15.0483 49.0461 15.3325C48.6819 15.6192 48.4445 15.9935 48.3331 16.4571C48.2778 16.6733 48.2488 16.8502 48.2488 16.9895V18.3C48.2488 18.8717 48.4309 19.3541 48.7934 19.7481C49.1575 20.1413 49.6306 20.3387 50.2142 20.3387C50.8974 20.3387 51.4292 20.0848 51.8095 19.5786C52.1907 19.0716 52.3813 18.4032 52.3813 17.5727Z" fill="white"/>
<path d="M64.7285 18.4786C64.7285 19.4058 64.3941 20.1602 63.7228 20.7425C62.9851 21.3789 61.9582 21.6967 60.6386 21.6967C59.4202 21.6967 58.4435 21.4707 57.7041 21.0177L58.1244 19.5622C58.9208 20.0258 59.7946 20.2585 60.7466 20.2585C61.4298 20.2585 61.9616 20.1094 62.3436 19.8129C62.7239 19.5164 62.9137 19.1183 62.9137 18.622C62.9137 18.1797 62.7571 17.807 62.4432 17.5047C62.1309 17.2025 61.6094 16.9216 60.8811 16.6619C58.8987 15.9501 57.9083 14.9075 57.9083 13.5363C57.9083 12.6403 58.2554 11.9056 58.9506 11.3339C59.6431 10.7613 60.5671 10.4755 61.7225 10.4755C62.7529 10.4755 63.6088 10.6483 64.292 10.9931L63.8385 12.4167C63.2004 12.0825 62.4789 11.9154 61.6715 11.9154C61.0334 11.9154 60.5348 12.0669 60.1774 12.3683C59.8754 12.6378 59.7239 12.9663 59.7239 13.3553C59.7239 13.7862 59.8967 14.1424 60.2438 14.4226C60.5458 14.6814 61.0946 14.9615 61.891 15.2638C62.8652 15.6413 63.5807 16.0828 64.041 16.589C64.4996 17.0936 64.7285 17.7251 64.7285 18.4786Z" fill="white"/>
<path d="M70.7261 14.9861H68.7267V18.8021C68.7267 19.7727 69.0789 20.2576 69.7851 20.2576C70.1092 20.2576 70.3781 20.2306 70.5908 20.1765L70.641 21.5026C70.2837 21.6312 69.8132 21.6959 69.2304 21.6959C68.514 21.6959 67.9541 21.4854 67.55 21.0652C67.1475 20.6442 66.945 19.9382 66.945 18.9463V14.9844H65.7539V13.6739H66.945V12.2348L68.7267 11.7172V13.6739H70.7261V14.9861Z" fill="white"/>
<path d="M79.7483 17.5406C79.7483 18.7488 79.3893 19.7407 78.6729 20.5163C77.9216 21.3149 76.9244 21.713 75.6814 21.713C74.4834 21.713 73.5297 21.3305 72.8184 20.5655C72.1071 19.8004 71.7515 18.8348 71.7515 17.6709C71.7515 16.4529 72.1173 15.4553 72.8516 14.6796C73.5841 13.9031 74.5728 13.5149 75.8158 13.5149C77.0138 13.5149 77.9778 13.8974 78.7052 14.6632C79.4012 15.4061 79.7483 16.3653 79.7483 17.5406ZM77.8663 17.5971C77.8663 16.8723 77.7055 16.2506 77.3796 15.7321C76.9993 15.1047 76.4556 14.7918 75.7512 14.7918C75.022 14.7918 74.4681 15.1055 74.0878 15.7321C73.762 16.2514 73.6011 16.8829 73.6011 17.6299C73.6011 18.3548 73.762 18.9765 74.0878 19.4941C74.48 20.1215 75.028 20.4344 75.735 20.4344C76.4276 20.4344 76.9712 20.115 77.3635 19.4777C77.6978 18.9494 77.8663 18.3212 77.8663 17.5971Z" fill="white"/>
<path d="M85.643 15.2113C85.4635 15.1793 85.272 15.163 85.0713 15.163C84.4331 15.163 83.9397 15.3947 83.5925 15.8592C83.2905 16.2687 83.139 16.7864 83.139 17.4113V21.5353H81.3259L81.343 16.1508C81.343 15.2449 81.32 14.4201 81.2749 13.6763H82.8549L82.9212 15.1802H82.9714C83.1629 14.6633 83.4649 14.2472 83.8784 13.9352C84.2825 13.6542 84.719 13.5142 85.1895 13.5142C85.3571 13.5142 85.5086 13.5256 85.643 13.5461V15.2113Z" fill="white"/>
<path d="M93.7563 17.2335C93.7563 17.5464 93.735 17.8102 93.6899 18.0256H88.2481C88.2693 18.8021 88.5322 19.3959 89.0376 19.8054C89.4962 20.1715 90.0892 20.355 90.8175 20.355C91.6233 20.355 92.3584 20.2313 93.0195 19.9832L93.3036 21.1954C92.5311 21.5197 91.619 21.6811 90.5666 21.6811C89.3005 21.6811 88.3068 21.3223 87.5836 20.6057C86.8621 19.889 86.5005 18.9266 86.5005 17.7192C86.5005 16.534 86.8366 15.5471 87.5096 14.7599C88.214 13.9196 89.1661 13.4994 90.3641 13.4994C91.5407 13.4994 92.4315 13.9196 93.0365 14.7599C93.5155 15.4275 93.7563 16.2531 93.7563 17.2335ZM92.0266 16.7806C92.0385 16.2629 91.9202 15.8157 91.6743 15.4381C91.3604 14.9524 90.878 14.71 90.2288 14.71C89.6358 14.71 89.1533 14.9467 88.7849 15.4218C88.4829 15.7993 88.3034 16.2523 88.2481 16.7798H92.0266V16.7806Z" fill="white"/>
<path d="M31.5581 3.92935C31.5581 4.89339 31.2578 5.61909 30.658 6.10644C30.1024 6.55611 29.3128 6.78135 28.2901 6.78135C27.7831 6.78135 27.3491 6.76006 26.9858 6.71747V1.45002C27.4597 1.3763 27.9702 1.33862 28.5216 1.33862C29.4958 1.33862 30.23 1.54257 30.7252 1.95047C31.2799 2.41161 31.5581 3.07096 31.5581 3.92935ZM30.618 3.9531C30.618 3.32815 30.4461 2.84899 30.1024 2.51481C29.7587 2.18145 29.2567 2.01436 28.5956 2.01436C28.3148 2.01436 28.0757 2.03238 27.8775 2.07005V6.07449C27.9873 6.09088 28.188 6.09825 28.4799 6.09825C29.1622 6.09825 29.6889 5.9156 30.0599 5.55029C30.4308 5.18498 30.618 4.65259 30.618 3.9531Z" fill="white"/>
<path d="M36.5425 4.77131C36.5425 5.36513 36.3664 5.85166 36.0141 6.23335C35.6449 6.62568 35.1557 6.82144 34.5448 6.82144C33.956 6.82144 33.4872 6.63387 33.1375 6.2571C32.7887 5.88115 32.6143 5.40691 32.6143 4.83519C32.6143 4.23727 32.7938 3.74665 33.1545 3.36578C33.5153 2.98491 34.0002 2.79407 34.6111 2.79407C35.1999 2.79407 35.673 2.98163 36.0311 3.35759C36.3715 3.72289 36.5425 4.19468 36.5425 4.77131ZM35.6176 4.79915C35.6176 4.44286 35.5377 4.13734 35.3786 3.88261C35.1914 3.57464 34.9251 3.42066 34.5788 3.42066C34.2206 3.42066 33.9483 3.57464 33.7612 3.88261C33.6012 4.13734 33.5221 4.44777 33.5221 4.81472C33.5221 5.17101 33.6021 5.47653 33.7612 5.73126C33.9543 6.03923 34.2232 6.19321 34.5703 6.19321C34.9106 6.19321 35.1778 6.03677 35.3701 5.72307C35.5351 5.46342 35.6176 5.15545 35.6176 4.79915Z" fill="white"/>
<path d="M43.2276 2.87292L41.9726 6.73403H41.1559L40.636 5.05739C40.5041 4.63884 40.3969 4.22275 40.3135 3.80994H40.2974C40.22 4.23422 40.1127 4.64949 39.9749 5.05739L39.4227 6.73403H38.5966L37.4165 2.87292H38.3328L38.7863 4.70846C38.8961 5.14257 38.9863 5.5562 39.0586 5.94772H39.0747C39.1411 5.62501 39.2509 5.21383 39.4057 4.71666L39.9749 2.87374H40.7015L41.2469 4.67734C41.3788 5.11718 41.486 5.54064 41.5685 5.94854H41.5932C41.6536 5.55129 41.7446 5.12783 41.8654 4.67734L42.3521 2.87374H43.2276V2.87292Z" fill="white"/>
<path d="M47.8501 6.73394H46.9584V4.52245C46.9584 3.84098 46.6895 3.50024 46.1501 3.50024C45.8855 3.50024 45.672 3.59362 45.506 3.78119C45.3418 3.96875 45.2585 4.1899 45.2585 4.443V6.73312H44.3668V3.97613C44.3668 3.63703 44.3557 3.26927 44.3345 2.8712H45.1181L45.1598 3.47485H45.1844C45.2882 3.28729 45.4431 3.13248 45.6464 3.0088C45.8881 2.86465 46.1586 2.79175 46.4547 2.79175C46.8291 2.79175 47.1405 2.90806 47.3881 3.14149C47.6961 3.42735 47.8501 3.85408 47.8501 4.42088V6.73394Z" fill="white"/>
<path d="M50.3073 6.73383H49.4165V1.10107H50.3073V6.73383Z" fill="white"/>
<path d="M55.5581 4.77131C55.5581 5.36513 55.382 5.85166 55.0298 6.23335C54.6605 6.62568 54.1704 6.82144 53.5604 6.82144C52.9708 6.82144 52.502 6.63387 52.1531 6.2571C51.8043 5.88115 51.6299 5.40691 51.6299 4.83519C51.6299 4.23727 51.8094 3.74665 52.1702 3.36578C52.5309 2.98491 53.0159 2.79407 53.6259 2.79407C54.2155 2.79407 54.6877 2.98163 55.0468 3.35759C55.3871 3.72289 55.5581 4.19468 55.5581 4.77131ZM54.6324 4.79915C54.6324 4.44286 54.5524 4.13734 54.3933 3.88261C54.207 3.57464 53.9399 3.42066 53.5944 3.42066C53.2354 3.42066 52.9631 3.57464 52.7768 3.88261C52.6168 4.13734 52.5377 4.44777 52.5377 4.81472C52.5377 5.17101 52.6177 5.47653 52.7768 5.73126C52.9699 6.03923 53.2388 6.19321 53.5859 6.19321C53.9262 6.19321 54.1925 6.03677 54.3848 5.72307C54.5507 5.46342 54.6324 5.15545 54.6324 4.79915Z" fill="white"/>
<path d="M59.8727 6.73392H59.0721L59.0058 6.28917H58.9811C58.7071 6.64383 58.3166 6.82156 57.8095 6.82156C57.4309 6.82156 57.1246 6.70444 56.894 6.47182C56.6847 6.2605 56.5801 5.99758 56.5801 5.68551C56.5801 5.21373 56.7843 4.85415 57.1952 4.60516C57.6053 4.35616 58.1822 4.23412 58.9249 4.23985V4.16777C58.9249 3.65913 58.6476 3.40522 58.092 3.40522C57.6964 3.40522 57.3475 3.50105 57.0463 3.69107L56.8651 3.12755C57.2378 2.90558 57.6981 2.79419 58.2409 2.79419C59.2891 2.79419 59.8149 3.32659 59.8149 4.39138V5.81329C59.8149 6.19907 59.8345 6.50622 59.8727 6.73392ZM58.9471 5.40703V4.81156C57.9635 4.79518 57.4717 5.05483 57.4717 5.58968C57.4717 5.79117 57.5279 5.94188 57.6428 6.04263C57.7576 6.14337 57.904 6.19334 58.0784 6.19334C58.2741 6.19334 58.457 6.13354 58.6237 6.01478C58.7914 5.89519 58.8943 5.74367 58.9326 5.55774C58.942 5.51596 58.9471 5.46518 58.9471 5.40703Z" fill="white"/>
<path d="M64.9415 6.73383H64.1502L64.1085 6.11379H64.0838C63.8312 6.58558 63.4006 6.82147 62.7957 6.82147C62.3124 6.82147 61.91 6.63882 61.591 6.27351C61.2719 5.90821 61.1128 5.43396 61.1128 4.8516C61.1128 4.22665 61.2855 3.72046 61.6326 3.33386C61.9687 2.97347 62.3805 2.79328 62.8706 2.79328C63.4091 2.79328 63.7861 2.96774 64.0005 3.31748H64.0175V1.10107H64.91V5.69361C64.91 6.06956 64.9202 6.41603 64.9415 6.73383ZM64.0175 5.10552V4.46173C64.0175 4.35033 64.009 4.26023 63.9928 4.19143C63.9426 3.98503 63.8346 3.81138 63.6704 3.67132C63.5044 3.53126 63.3045 3.46082 63.0739 3.46082C62.7413 3.46082 62.4809 3.58778 62.2895 3.84251C62.0997 4.09724 62.0036 4.42241 62.0036 4.81966C62.0036 5.20135 62.0946 5.51096 62.2776 5.74931C62.4707 6.00322 62.731 6.13017 63.0569 6.13017C63.3496 6.13017 63.5836 6.02451 63.7614 5.81237C63.9333 5.61662 64.0175 5.38072 64.0175 5.10552Z" fill="white"/>
<path d="M72.5664 4.77131C72.5664 5.36513 72.3903 5.85166 72.0381 6.23335C71.6688 6.62568 71.1804 6.82144 70.5687 6.82144C69.9808 6.82144 69.512 6.63387 69.1614 6.2571C68.8126 5.88115 68.6382 5.40691 68.6382 4.83519C68.6382 4.23727 68.8177 3.74665 69.1785 3.36578C69.5392 2.98491 70.0242 2.79407 70.6359 2.79407C71.2238 2.79407 71.6977 2.98163 72.0551 3.35759C72.3954 3.72289 72.5664 4.19468 72.5664 4.77131ZM71.6424 4.79915C71.6424 4.44286 71.5624 4.13734 71.4033 3.88261C71.2153 3.57464 70.9499 3.42066 70.6027 3.42066C70.2454 3.42066 69.9731 3.57464 69.7851 3.88261C69.6251 4.13734 69.546 4.44777 69.546 4.81472C69.546 5.17101 69.626 5.47653 69.7851 5.73126C69.9782 6.03923 70.2471 6.19321 70.5942 6.19321C70.9345 6.19321 71.2026 6.03677 71.3948 5.72307C71.559 5.46342 71.6424 5.15545 71.6424 4.79915Z" fill="white"/>
<path d="M77.359 6.73394H76.4682V4.52245C76.4682 3.84098 76.1993 3.50024 75.659 3.50024C75.3944 3.50024 75.1809 3.59362 75.0158 3.78119C74.8508 3.96875 74.7682 4.1899 74.7682 4.443V6.73312H73.8757V3.97613C73.8757 3.63703 73.8655 3.26927 73.8442 2.8712H74.627L74.6687 3.47485H74.6934C74.798 3.28729 74.9529 3.13248 75.1554 3.0088C75.3978 2.86465 75.6675 2.79175 75.9645 2.79175C76.338 2.79175 76.6494 2.90806 76.897 3.14149C77.2058 3.42735 77.359 3.85408 77.359 4.42088V6.73394Z" fill="white"/>
<path d="M83.3602 3.51569H82.3783V5.39137C82.3783 5.86807 82.5528 6.10642 82.8982 6.10642C83.0581 6.10642 83.1909 6.09331 83.2955 6.06628L83.3185 6.71744C83.1424 6.78133 82.9109 6.81328 82.6259 6.81328C82.2737 6.81328 81.9997 6.71007 81.8015 6.50367C81.6024 6.29726 81.5037 5.94997 81.5037 5.46263V3.51569H80.9175V2.87272H81.5037V2.16504L82.3775 1.91113V2.8719H83.3593V3.51569H83.3602Z" fill="white"/>
<path d="M88.0819 6.73383H87.1894V4.53872C87.1894 3.8466 86.9205 3.50013 86.382 3.50013C85.9685 3.50013 85.686 3.70081 85.5311 4.10215C85.5048 4.18652 85.4894 4.28972 85.4894 4.41094V6.73301H84.5986V1.10107H85.4894V3.42806H85.5065C85.7872 3.0046 86.1897 2.79328 86.7112 2.79328C87.0805 2.79328 87.3859 2.90958 87.6284 3.14302C87.9304 3.43379 88.0819 3.86626 88.0819 4.43797V6.73383Z" fill="white"/>
<path d="M92.9505 4.62052C92.9505 4.77451 92.9386 4.90392 92.9174 5.00958H90.2432C90.2552 5.39127 90.3828 5.68204 90.6304 5.88353C90.8567 6.06373 91.1485 6.15382 91.5059 6.15382C91.9015 6.15382 92.2622 6.09321 92.5872 5.97117L92.7268 6.56746C92.3465 6.72636 91.8989 6.80581 91.3808 6.80581C90.7597 6.80581 90.2705 6.62971 89.9165 6.2775C89.5609 5.9253 89.3848 5.4527 89.3848 4.85969C89.3848 4.27733 89.549 3.79244 89.8799 3.40584C90.2254 2.99303 90.6925 2.78662 91.2821 2.78662C91.8589 2.78662 92.2971 2.99303 92.5932 3.40584C92.8323 3.73347 92.9505 4.13891 92.9505 4.62052ZM92.0997 4.39855C92.1065 4.14382 92.0478 3.92431 91.927 3.7392C91.7722 3.50085 91.5365 3.38127 91.2174 3.38127C90.9264 3.38127 90.6891 3.49758 90.5078 3.73101C90.3598 3.91694 90.2722 4.13891 90.2432 4.39855H92.0997Z" fill="white"/>
</svg>
