<svg width="201" height="208" viewBox="0 0 201 208" fill="none" xmlns="http://www.w3.org/2000/svg">
<path fill-rule="evenodd" clip-rule="evenodd" d="M59.4305 4.55737C28.8171 4.55737 4 29.3744 4 59.9879C4 90.6013 28.8171 115.418 59.4305 115.418C90.0439 115.418 114.861 90.6013 114.861 59.9879C114.861 29.3744 90.0439 4.55737 59.4305 4.55737ZM0 59.9879C0 27.1653 26.6079 0.557373 59.4305 0.557373C92.253 0.557373 118.861 27.1653 118.861 59.9879C118.861 92.8104 92.253 119.418 59.4305 119.418C26.6079 119.418 0 92.8104 0 59.9879Z" fill="url(#paint0_linear_29_1637)"/>
<path fill-rule="evenodd" clip-rule="evenodd" d="M141.014 4.55737C110.401 4.55737 85.5836 29.3744 85.5836 59.9879C85.5836 90.6013 110.401 115.418 141.014 115.418C171.628 115.418 196.445 90.6013 196.445 59.9879C196.445 29.3744 171.628 4.55737 141.014 4.55737ZM81.5836 59.9879C81.5836 27.1653 108.192 0.557373 141.014 0.557373C173.837 0.557373 200.445 27.1653 200.445 59.9879C200.445 92.8104 173.837 119.418 141.014 119.418C108.192 119.418 81.5836 92.8104 81.5836 59.9879Z" fill="url(#paint1_linear_29_1637)"/>
<path fill-rule="evenodd" clip-rule="evenodd" d="M59.4305 87.2144C28.8171 87.2144 4 112.031 4 142.645C4 173.258 28.8171 198.075 59.4305 198.075C90.0439 198.075 114.861 173.258 114.861 142.645C114.861 112.031 90.0439 87.2144 59.4305 87.2144ZM0 142.645C0 109.822 26.6079 83.2144 59.4305 83.2144C92.253 83.2144 118.861 109.822 118.861 142.645C118.861 175.467 92.253 202.075 59.4305 202.075C26.6079 202.075 0 175.467 0 142.645Z" fill="url(#paint2_linear_29_1637)"/>
<path fill-rule="evenodd" clip-rule="evenodd" d="M134.573 92.5818C103.96 92.5818 79.1429 117.399 79.1429 148.012C79.1429 178.626 103.96 203.443 134.573 203.443C165.187 203.443 190.004 178.626 190.004 148.012C190.004 117.399 165.187 92.5818 134.573 92.5818ZM75.1429 148.012C75.1429 115.19 101.751 88.5818 134.573 88.5818C167.396 88.5818 194.004 115.19 194.004 148.012C194.004 180.835 167.396 207.443 134.573 207.443C101.751 207.443 75.1429 180.835 75.1429 148.012Z" fill="url(#paint3_linear_29_1637)"/>
<path fill-rule="evenodd" clip-rule="evenodd" d="M100.222 31.394C83.2444 31.394 69.4813 45.1571 69.4813 62.1348C69.4813 79.1124 83.2444 92.8755 100.222 92.8755C117.2 92.8755 130.963 79.1124 130.963 62.1348C130.963 45.1571 117.2 31.394 100.222 31.394ZM65.4813 62.1348C65.4813 42.948 81.0353 27.394 100.222 27.394C119.409 27.394 134.963 42.948 134.963 62.1348C134.963 81.3216 119.409 96.8755 100.222 96.8755C81.0353 96.8755 65.4813 81.3216 65.4813 62.1348Z" fill="url(#paint4_linear_29_1637)"/>
<path fill-rule="evenodd" clip-rule="evenodd" d="M33.0077 185.194H168.51C167.541 144.977 137.43 112.978 100.759 112.978C64.0883 112.978 33.9769 144.977 33.0077 185.194ZM28.9836 187.194C28.9836 144.175 60.9476 108.978 100.759 108.978C140.57 108.978 172.534 144.175 172.534 187.194C172.534 188.298 171.639 189.194 170.534 189.194H30.9836C29.8791 189.194 28.9836 188.298 28.9836 187.194Z" fill="url(#paint5_linear_29_1637)"/>
<defs>
<linearGradient id="paint0_linear_29_1637" x1="59.4305" y1="0.557373" x2="59.4305" y2="119.418" gradientUnits="userSpaceOnUse">
<stop stop-color="#25E5DA"/>
<stop offset="0.255208" stop-color="#A9FFE0" stop-opacity="0.74"/>
<stop offset="0.765625" stop-color="#4ECB9E" stop-opacity="0.71"/>
<stop offset="1" stop-color="#25E5DA"/>
</linearGradient>
<linearGradient id="paint1_linear_29_1637" x1="141.014" y1="0.557373" x2="141.014" y2="119.418" gradientUnits="userSpaceOnUse">
<stop stop-color="#25E5DA"/>
<stop offset="0.255208" stop-color="#A9FFE0" stop-opacity="0.74"/>
<stop offset="0.765625" stop-color="#4ECB9E" stop-opacity="0.71"/>
<stop offset="1" stop-color="#25E5DA"/>
</linearGradient>
<linearGradient id="paint2_linear_29_1637" x1="59.4305" y1="83.2144" x2="59.4305" y2="202.075" gradientUnits="userSpaceOnUse">
<stop stop-color="#25E5DA"/>
<stop offset="0.255208" stop-color="#A9FFE0" stop-opacity="0.74"/>
<stop offset="0.765625" stop-color="#4ECB9E" stop-opacity="0.71"/>
<stop offset="1" stop-color="#25E5DA"/>
</linearGradient>
<linearGradient id="paint3_linear_29_1637" x1="134.573" y1="88.5818" x2="134.573" y2="207.443" gradientUnits="userSpaceOnUse">
<stop stop-color="#25E5DA"/>
<stop offset="0.255208" stop-color="#A9FFE0" stop-opacity="0.74"/>
<stop offset="0.765625" stop-color="#4ECB9E" stop-opacity="0.71"/>
<stop offset="1" stop-color="#25E5DA"/>
</linearGradient>
<linearGradient id="paint4_linear_29_1637" x1="100.222" y1="27.394" x2="100.222" y2="96.8755" gradientUnits="userSpaceOnUse">
<stop stop-color="#25E5DA"/>
<stop offset="0.255208" stop-color="#A9FFE0" stop-opacity="0.74"/>
<stop offset="0.765625" stop-color="#4ECB9E" stop-opacity="0.71"/>
<stop offset="1" stop-color="#25E5DA"/>
</linearGradient>
<linearGradient id="paint5_linear_29_1637" x1="100.759" y1="108.978" x2="100.759" y2="189.194" gradientUnits="userSpaceOnUse">
<stop stop-color="#25E5DA"/>
<stop offset="0.255208" stop-color="#A9FFE0" stop-opacity="0.74"/>
<stop offset="0.765625" stop-color="#4ECB9E" stop-opacity="0.71"/>
<stop offset="1" stop-color="#25E5DA"/>
</linearGradient>
</defs>
</svg>
