<?xml version="1.0" encoding="utf-8"?>
<!-- Generator: Adobe Illustrator 25.0.0, SVG Export Plug-In . SVG Version: 6.00 Build 0)  -->
<svg version="1.1" id="Layer_1" xmlns="http://www.w3.org/2000/svg" xmlns:xlink="http://www.w3.org/1999/xlink" x="0px" y="0px"
	 viewBox="0 0 38 38" style="enable-background:new 0 0 38 38;" xml:space="preserve">
<style type="text/css">
	.st0{fill-rule:evenodd;clip-rule:evenodd;fill:#FFFFFF;}
</style>
<path class="st0" d="M19,38c10.5,0,19-8.5,19-19S29.5,0,19,0S0,8.5,0,19S8.5,38,19,38z M20.4,19c0-3.3-2.7-6-6-6c-3.3,0-6,2.7-6,6
	c0,3.3,2.7,6,6,6S20.4,22.3,20.4,19z M27,19c0-3.1-1.3-5.6-3-5.6s-3,2.5-3,5.6s1.3,5.6,3,5.6S27,22.1,27,19L27,19z M29.7,19
	c0-2.8-0.5-5.1-1.1-5.1c-0.6,0-1.1,2.3-1.1,5.1S28,24,28.6,24C29.2,24,29.7,21.8,29.7,19z"/>
</svg>
