<?xml version="1.0" encoding="utf-8"?>
<!-- Generator: Adobe Illustrator 25.0.0, SVG Export Plug-In . SVG Version: 6.00 Build 0)  -->
<svg version="1.1" id="Layer_1" xmlns="http://www.w3.org/2000/svg" xmlns:xlink="http://www.w3.org/1999/xlink" x="0px" y="0px"
	 viewBox="0 0 38 38" style="enable-background:new 0 0 38 38;" xml:space="preserve">
<style type="text/css">
	.st0{clip-path:url(#SVGID_2_);}
	.st1{fill:#FFFFFF;}
</style>
<g>
	<defs>
		<rect id="SVGID_1_" width="38" height="38"/>
	</defs>
	<clipPath id="SVGID_2_">
		<use xlink:href="#SVGID_1_"  style="overflow:visible;"/>
	</clipPath>
	<g class="st0">
		<path class="st1" d="M0,19C0,8.3,8.4,0,19.3,0C29.5,0,38,8.6,38,19c0,10.4-8.4,19-18.7,19C8.4,38,0,29.7,0,19z M16.6,13.3
			c0,4.4,0,8.7,0,13c1.4,0,2.8,0,4.2,0c0-2.6,0-5.2,0-7.7c0-1.7,2-2.8,3.5-2c0.9,0.5,1.2,1.3,1.2,2.3c0,2.5,0,4.9,0,7.4
			c1.4,0,2.7,0,4.1,0c0-0.2,0.1-0.4,0.1-0.6c0-2.4,0-4.9,0-7.3c0-0.6-0.1-1.3-0.3-1.9c-0.5-1.7-1.5-3.1-3.4-3.4
			c-1.9-0.3-3.6,0-4.8,1.8c-0.1,0.1-0.1,0.3-0.1,0.4c-0.1-0.1-0.2-0.1-0.3-0.2c0-0.6,0-1.2,0-1.8C19.4,13.3,18,13.3,16.6,13.3z
			 M9.8,13.3c0,4.4,0,8.7,0,13c1.5,0,2.9,0,4.3,0c0-4.4,0-8.6,0-13C12.6,13.3,11.2,13.3,9.8,13.3z M11.9,7c-1.3,0-2.3,1-2.4,2.2
			c0,1.3,1.1,2.3,2.4,2.3c1.3,0,2.4-1,2.4-2.3C14.3,8,13.2,7,11.9,7z"/>
	</g>
</g>
</svg>
