<svg width="74" height="24" viewBox="0 0 74 24" fill="none" xmlns="http://www.w3.org/2000/svg">
<g opacity="0.6">
<path d="M18.2594 0H5.76612C2.58158 0 0 2.57884 0 5.76V18.24C0 21.4212 2.58158 24 5.76612 24H18.2594C21.4439 24 24.0255 21.4212 24.0255 18.24V5.76C24.0255 2.57884 21.4439 0 18.2594 0Z" fill="white"/>
<path fill-rule="evenodd" clip-rule="evenodd" d="M12.0124 19.6803C16.2584 19.6803 19.7005 16.2419 19.7005 12.0003C19.7005 7.75877 16.2584 4.32031 12.0124 4.32031C7.76633 4.32031 4.32422 7.75877 4.32422 12.0003C4.32422 16.2419 7.76633 19.6803 12.0124 19.6803ZM10.6556 8.33447C10.6556 8.11354 10.8347 7.93443 11.0556 7.93443H12.969C13.1899 7.93443 13.369 8.11351 13.369 8.33443V10.6735H10.6558V13.327H13.369V15.6661C13.369 15.887 13.1899 16.0661 12.969 16.0661H11.0556C10.8346 16.0661 10.6556 15.887 10.6556 15.6661V13.4126H8.34241C8.12149 13.4126 7.94241 13.2335 7.94241 13.0126V11.0735C7.94241 10.8526 8.12149 10.6735 8.34241 10.6735H10.6558L10.6556 8.33447ZM13.369 10.6735H15.6829C15.9038 10.6735 16.0829 10.8526 16.0829 11.0735V13.0126C16.0829 13.2335 15.9038 13.4126 15.6829 13.4126H13.3695L13.369 10.6735Z" fill="#0C0B0B"/>
<path d="M39.4838 19.8503C38.4575 19.8503 37.4927 19.6485 36.5893 19.2448C35.6859 18.8339 34.8909 18.268 34.2044 17.5471C33.525 16.8262 32.9902 15.9936 32.5999 15.0492C32.2169 14.0976 32.0254 13.0812 32.0254 11.9999C32.0254 10.9113 32.2169 9.89488 32.5999 8.95052C32.9902 7.99895 33.525 7.16632 34.2044 6.45265C34.8909 5.73176 35.6859 5.16947 36.5893 4.76577C37.4927 4.35487 38.4575 4.14941 39.4838 4.14941C40.7124 4.14941 41.8434 4.43416 42.8769 5.00366C43.9104 5.56596 44.7668 6.31928 45.4461 7.26364L42.5408 8.82076C42.165 8.38823 41.7133 8.0422 41.1857 7.78268C40.6582 7.52316 40.0908 7.3934 39.4838 7.3934C38.9056 7.3934 38.3599 7.51235 37.8468 7.75024C37.3409 7.98814 36.8928 8.31974 36.5026 8.74507C36.1195 9.16318 35.8196 9.64978 35.6028 10.2049C35.386 10.7599 35.2776 11.3583 35.2776 11.9999C35.2776 12.6342 35.386 13.229 35.6028 13.7841C35.8196 14.3391 36.1195 14.8293 36.5026 15.2547C36.8928 15.6728 37.3409 16.0044 37.8468 16.2495C38.3599 16.4874 38.9056 16.6063 39.4838 16.6063C40.0908 16.6063 40.6582 16.4766 41.1857 16.2171C41.7133 15.9503 42.165 15.5971 42.5408 15.1574L45.4461 16.7361C44.7668 17.6732 43.9104 18.4266 42.8769 18.9961C41.8434 19.5656 40.7124 19.8503 39.4838 19.8503Z" fill="white"/>
<path d="M47.4295 19.5692V4.43056H50.6817V16.3252H56.644V19.5692H47.4295Z" fill="white"/>
<path d="M62.3122 19.5692L56.8051 4.43056H60.2524L64.4152 15.8494L68.5781 4.43056H72.0254L66.5183 19.5692H62.3122Z" fill="white"/>
</g>
</svg>
