<svg width="107" height="38" viewBox="0 0 107 38" fill="none" xmlns="http://www.w3.org/2000/svg">
<path d="M28.9107 0H9.12968C4.0875 0 0 4.08316 0 9.12V28.88C0 33.9168 4.0875 38 9.12968 38H28.9107C33.9528 38 38.0403 33.9168 38.0403 28.88V9.12C38.0403 4.08316 33.9528 0 28.9107 0Z" fill="url(#paint0_linear_754_2476)"/>
<path fill-rule="evenodd" clip-rule="evenodd" d="M19.0202 31.16C25.7431 31.16 31.1931 25.7158 31.1931 19C31.1931 12.2842 25.7431 6.84 19.0202 6.84C12.2973 6.84 6.84729 12.2842 6.84729 19C6.84729 25.7158 12.2973 31.16 19.0202 31.16ZM16.8719 12.5623H21.1682V16.8992H16.8724V21.1006H21.1682V25.4375H16.8719V21.2361H12.5761V16.8992H16.8719V12.5623ZM21.1689 16.8992H25.4652V21.2361H21.1689V16.8992Z" fill="black"/>
<path d="M47.0403 19C47.0403 16.5094 47.5113 14.333 48.4536 12.4708C49.4186 10.5854 50.786 9.13058 52.5553 8.10641C54.3476 7.08222 56.4502 6.57013 58.8631 6.57013C60.7473 6.57013 62.4364 6.94256 63.9298 7.68742C65.4235 8.43228 66.63 9.47975 67.5492 10.8298C68.4684 12.1799 69.0199 13.7394 69.2036 15.5085H64.0334C63.7347 14.1119 63.1028 13.0178 62.1375 12.2264C61.1955 11.4117 60.0121 11.0044 58.5873 11.0044C56.657 11.0044 55.1289 11.7376 54.0029 13.2041C52.8769 14.6705 52.3141 16.6025 52.3141 19C52.3141 21.3743 52.8769 23.3063 54.0029 24.796C55.1289 26.2624 56.657 26.9956 58.5873 26.9956C60.0121 26.9956 61.1955 26.5999 62.1375 25.8085C63.1028 24.9938 63.7347 23.8882 64.0334 22.4915H69.2036C69.0199 24.2606 68.4684 25.8202 67.5492 27.1702C66.63 28.5203 65.4235 29.5677 63.9298 30.3126C62.4364 31.0575 60.7473 31.4299 58.8631 31.4299C56.4502 31.4299 54.3476 30.9178 52.5553 29.8936C50.786 28.8694 49.4186 27.4263 48.4536 25.5641C47.5113 23.6787 47.0403 21.4906 47.0403 19Z" fill="black"/>
<path d="M72.2075 31.2204V6.7796H77.378V26.7163H86.9602V31.2204H72.2075Z" fill="black"/>
<path d="M83.5365 6.7796H89.017L94.8075 24.8658L100.736 6.7796H106.079L97.9098 31.2204H91.7399L83.5365 6.7796Z" fill="black"/>
<defs>
<linearGradient id="paint0_linear_754_2476" x1="38.0403" y1="-1.13249e-06" x2="0.0403668" y2="38.0403" gradientUnits="userSpaceOnUse">
<stop offset="0.395833" stop-color="#A9FFE0"/>
<stop offset="1" stop-color="#86D5FF"/>
</linearGradient>
</defs>
</svg>
