<svg width="49" height="48" viewBox="0 0 49 48" fill="none" xmlns="http://www.w3.org/2000/svg">
<path fill-rule="evenodd" clip-rule="evenodd" d="M30.582 30.1945C33.9639 33.4767 39.4333 33.4777 42.814 30.1968C46.1947 26.9159 46.1801 21.5949 42.8116 18.3257C39.4431 15.0566 34.0006 15.0556 30.62 18.2842C33.9468 15.0033 33.9457 9.72144 30.5772 6.45233C27.1952 3.17014 21.7258 3.16911 18.3451 6.45001C14.9779 9.71785 14.9655 15.0128 18.3206 18.295C14.9386 15.0389 9.48267 15.051 6.11547 18.3188C2.7348 21.5997 2.73587 26.9077 6.11786 30.1899C9.49984 33.4721 14.9692 33.4731 18.3499 30.1922C21.7171 26.9244 21.7295 21.6294 18.3745 18.3473C21.743 21.5902 27.1585 21.5912 30.5392 18.3626C27.1989 21.6305 27.2134 26.9254 30.582 30.1945Z" fill="#FF5995"/>
<path d="M18.3524 42.0633C21.7308 45.342 27.2073 45.3431 30.5844 42.0656C33.9616 38.7881 33.9605 33.4733 30.5821 30.1945C27.2036 26.9158 21.7271 26.9147 18.35 30.1922C14.9729 33.4697 14.974 38.7845 18.3524 42.0633Z" fill="#FF5995"/>
</svg>
