<?xml version="1.0" encoding="utf-8"?>
<!-- Generator: Adobe Illustrator 25.0.0, SVG Export Plug-In . SVG Version: 6.00 Build 0)  -->
<svg version="1.1" id="Layer_1" xmlns="http://www.w3.org/2000/svg" xmlns:xlink="http://www.w3.org/1999/xlink" x="0px" y="0px"
	 viewBox="0 0 183 188" style="enable-background:new 0 0 183 188;" xml:space="preserve">
<style type="text/css">
	.st0{clip-path:url(#SVGID_2_);}
	.st1{fill:#FF5995;}
	.st2{fill:none;stroke:url(#SVGID_3_);stroke-width:3;stroke-miterlimit:10;}
	.st3{fill:none;stroke:url(#SVGID_4_);stroke-width:3;stroke-miterlimit:10;}
	.st4{fill:none;stroke:url(#SVGID_5_);stroke-width:3;stroke-miterlimit:10;}
	.st5{fill:none;stroke:url(#SVGID_6_);stroke-width:3;stroke-miterlimit:10;}
	.st6{fill:none;stroke:url(#SVGID_7_);stroke-width:3;stroke-linecap:round;stroke-linejoin:round;}
	.st7{fill:url(#SVGID_8_);}
	.st8{fill:none;stroke:url(#SVGID_9_);stroke-width:3;stroke-linecap:round;stroke-linejoin:round;}
	.st9{fill:url(#SVGID_10_);}
	.st10{fill:none;stroke:url(#SVGID_11_);stroke-width:3;stroke-linecap:round;stroke-linejoin:round;}
	.st11{fill:url(#SVGID_12_);}
	.st12{fill:none;stroke:url(#SVGID_13_);stroke-width:3;stroke-linecap:round;stroke-linejoin:round;}
	.st13{fill:url(#SVGID_14_);}
</style>
<g>
	<defs>
		<rect id="SVGID_1_" width="183" height="188"/>
	</defs>
	<clipPath id="SVGID_2_">
		<use xlink:href="#SVGID_1_"  style="overflow:visible;"/>
	</clipPath>
	<g class="st0">
		<path class="st1" d="M125.7,45.3c3,3,7.9,3,10.9,0c3-3,3-7.9,0-10.9c-3-3-7.9-3-10.9,0C122.6,37.4,122.7,42.3,125.7,45.3z"/>
		<path class="st1" d="M137.9,57.5c3,3,7.9,3,10.9,0c3-3,3-7.9,0-10.9c-3-3-7.9-3-10.9,0C134.8,49.6,134.8,54.5,137.9,57.5z"/>
		<path class="st1" d="M113.7,57.3c3,3,7.9,3,10.9,0c3-3,3-7.9,0-10.9c-3-3-7.9-3-10.9,0C110.7,49.4,110.7,54.3,113.7,57.3z"/>
		<path class="st1" d="M125.9,69.5c3,3,7.9,3,10.9,0s3-7.9,0-10.9c-3-3-7.9-3-10.9,0C122.9,61.6,122.9,66.5,125.9,69.5z"/>
		<path class="st1" d="M48.2,143.3c3-3,3-7.9,0-10.9c-3-3-7.9-3-10.9,0c-3,3-3,7.9,0,10.9C40.3,146.3,45.2,146.3,48.2,143.3z"/>
		<path class="st1" d="M60.4,131.1c3-3,3-7.9,0-10.9c-3-3-7.9-3-10.9,0c-3,3-3,7.9,0,10.9C52.5,134.1,57.4,134.1,60.4,131.1z"/>
		<path class="st1" d="M60.2,155.2c3-3,3-7.9,0-10.9c-3-3-7.9-3-10.9,0c-3,3-3,7.9,0,10.9C52.3,158.2,57.2,158.2,60.2,155.2z"/>
		<path class="st1" d="M72.4,143c3-3,3-7.9,0-10.9c-3-3-7.9-3-10.9,0c-3,3-3,7.9,0,10.9C64.5,146.1,69.4,146,72.4,143z"/>
		
			<linearGradient id="SVGID_3_" gradientUnits="userSpaceOnUse" x1="54.8639" y1="171.9819" x2="54.8639" y2="105.7412" gradientTransform="matrix(1 0 0 -1 0 190)">
			<stop  offset="0" style="stop-color:#FF5995"/>
			<stop  offset="0.1198" style="stop-color:#FC51FF;stop-opacity:0.5625"/>
			<stop  offset="0.4583" style="stop-color:#FC51FF;stop-opacity:0.7708"/>
			<stop  offset="0.7031" style="stop-color:#FC51FF;stop-opacity:0"/>
			<stop  offset="1" style="stop-color:#FF5995;stop-opacity:0.6875"/>
		</linearGradient>
		<path class="st2" d="M54.9,84.3c18.4,0,33.4-14.8,33.4-33.1C88.2,32.8,73.3,18,54.9,18S21.5,32.8,21.5,51.1
			C21.5,69.4,36.4,84.3,54.9,84.3z"/>
		
			<linearGradient id="SVGID_4_" gradientUnits="userSpaceOnUse" x1="131.2527" y1="171.9819" x2="131.2527" y2="105.7412" gradientTransform="matrix(1 0 0 -1 0 190)">
			<stop  offset="0" style="stop-color:#FF5995"/>
			<stop  offset="0.1198" style="stop-color:#FC51FF;stop-opacity:0.5625"/>
			<stop  offset="0.4583" style="stop-color:#FC51FF;stop-opacity:0.7708"/>
			<stop  offset="0.7031" style="stop-color:#FC51FF;stop-opacity:0"/>
			<stop  offset="1" style="stop-color:#FF5995;stop-opacity:0.6875"/>
		</linearGradient>
		<path class="st3" d="M131.3,84.3c18.4,0,33.4-14.8,33.4-33.1c0-18.3-14.9-33.1-33.4-33.1S97.9,32.8,97.9,51.1
			C97.9,69.4,112.8,84.3,131.3,84.3z"/>
		
			<linearGradient id="SVGID_5_" gradientUnits="userSpaceOnUse" x1="55.0587" y1="86.577" x2="55.0587" y2="20.336" gradientTransform="matrix(1 0 0 -1 0 190)">
			<stop  offset="0" style="stop-color:#FF5995"/>
			<stop  offset="0.1198" style="stop-color:#FC51FF;stop-opacity:0.5625"/>
			<stop  offset="0.4583" style="stop-color:#FC51FF;stop-opacity:0.7708"/>
			<stop  offset="0.7031" style="stop-color:#FC51FF;stop-opacity:0"/>
			<stop  offset="1" style="stop-color:#FF5995;stop-opacity:0.6875"/>
		</linearGradient>
		<path class="st4" d="M55.1,169.7c18.4,0,33.4-14.8,33.4-33.1s-14.9-33.1-33.4-33.1s-33.4,14.8-33.4,33.1S36.6,169.7,55.1,169.7z"
			/>
		
			<linearGradient id="SVGID_6_" gradientUnits="userSpaceOnUse" x1="131.4337" y1="84.283" x2="131.4337" y2="18.042" gradientTransform="matrix(1 0 0 -1 0 190)">
			<stop  offset="0" style="stop-color:#FF5995"/>
			<stop  offset="0.1198" style="stop-color:#FC51FF;stop-opacity:0.5625"/>
			<stop  offset="0.4583" style="stop-color:#FC51FF;stop-opacity:0.7708"/>
			<stop  offset="0.7031" style="stop-color:#FC51FF;stop-opacity:0"/>
			<stop  offset="1" style="stop-color:#FF5995;stop-opacity:0.6875"/>
		</linearGradient>
		<path class="st5" d="M131.4,172c18.4,0,33.4-14.8,33.4-33.1s-14.9-33.1-33.4-33.1s-33.4,14.8-33.4,33.1S113,172,131.4,172z"/>
		
			<linearGradient id="SVGID_7_" gradientUnits="userSpaceOnUse" x1="131.1069" y1="182.9668" x2="131.1069" y2="95.5853" gradientTransform="matrix(1 0 0 -1 0 190)">
			<stop  offset="0" style="stop-color:#FF5995"/>
			<stop  offset="0.2604" style="stop-color:#CD0ED0;stop-opacity:0.7604"/>
			<stop  offset="0.5417" style="stop-color:#E211E6;stop-opacity:0"/>
			<stop  offset="0.7604" style="stop-color:#FA8DFC;stop-opacity:0.31"/>
			<stop  offset="1" style="stop-color:#FF5995;stop-opacity:0.99"/>
		</linearGradient>
		<path class="st6" d="M82.8,7h65.3c17.2,0,31.3,19.7,31.3,43.7s-14.1,43.7-31.3,43.7"/>
		
			<linearGradient id="SVGID_8_" gradientUnits="userSpaceOnUse" x1="84.5846" y1="190" x2="84.5846" y2="175.9477" gradientTransform="matrix(1 0 0 -1 0 190)">
			<stop  offset="0" style="stop-color:#FF5995"/>
			<stop  offset="0.2604" style="stop-color:#CD0ED0;stop-opacity:0.7604"/>
			<stop  offset="0.5417" style="stop-color:#E211E6;stop-opacity:0"/>
			<stop  offset="0.7604" style="stop-color:#FA8DFC;stop-opacity:0.31"/>
			<stop  offset="1" style="stop-color:#FF5995;stop-opacity:0.99"/>
		</linearGradient>
		<path class="st7" d="M91.1,14.1L84,7l7.1-7h-6L78,7l7.1,7H91.1z"/>
		
			<linearGradient id="SVGID_9_" gradientUnits="userSpaceOnUse" x1="38.5076" y1="182.9668" x2="38.5076" y2="103.1988" gradientTransform="matrix(1 0 0 -1 0 190)">
			<stop  offset="0" style="stop-color:#FF5995"/>
			<stop  offset="0.2604" style="stop-color:#CD0ED0;stop-opacity:0.7604"/>
			<stop  offset="0.5417" style="stop-color:#E211E6;stop-opacity:0"/>
			<stop  offset="0.7604" style="stop-color:#FA8DFC;stop-opacity:0.31"/>
			<stop  offset="1" style="stop-color:#FF5995;stop-opacity:0.99"/>
		</linearGradient>
		<path class="st8" d="M7.1,86.8V33.2C7.1,18.8,16.8,7,40.7,7h9.9c24,0,13.4,0.2,19.3,0"/>
		
			<linearGradient id="SVGID_10_" gradientUnits="userSpaceOnUse" x1="7.0754" y1="111.4614" x2="7.0754" y2="98.4592" gradientTransform="matrix(1 0 0 -1 0 190)">
			<stop  offset="0" style="stop-color:#FF5995"/>
			<stop  offset="0.2604" style="stop-color:#CD0ED0;stop-opacity:0.7604"/>
			<stop  offset="0.5417" style="stop-color:#E211E6;stop-opacity:0"/>
			<stop  offset="0.7604" style="stop-color:#FA8DFC;stop-opacity:0.31"/>
			<stop  offset="1" style="stop-color:#FF5995;stop-opacity:0.99"/>
		</linearGradient>
		<path class="st9" d="M14.2,78.5l-7.1,7l-7.1-7v6l7.1,7l7.1-7V78.5z"/>
		
			<linearGradient id="SVGID_11_" gradientUnits="userSpaceOnUse" x1="144.492" y1="88.801" x2="144.492" y2="9.033" gradientTransform="matrix(1 0 0 -1 0 190)">
			<stop  offset="0" style="stop-color:#FF5995"/>
			<stop  offset="0.2604" style="stop-color:#CD0ED0;stop-opacity:0.7604"/>
			<stop  offset="0.5417" style="stop-color:#E211E6;stop-opacity:0"/>
			<stop  offset="0.7604" style="stop-color:#FA8DFC;stop-opacity:0.31"/>
			<stop  offset="1" style="stop-color:#FF5995;stop-opacity:0.99"/>
		</linearGradient>
		<path class="st10" d="M175.9,101.2v53.6c0,14.4-9.7,26.1-33.7,26.1h-9.9c-24,0-13.4-0.2-19.3,0"/>
		
			<linearGradient id="SVGID_12_" gradientUnits="userSpaceOnUse" x1="175.9175" y1="93.5405" x2="175.9175" y2="80.552" gradientTransform="matrix(1 0 0 -1 0 190)">
			<stop  offset="0" style="stop-color:#FF5995"/>
			<stop  offset="0.2604" style="stop-color:#CD0ED0;stop-opacity:0.7604"/>
			<stop  offset="0.5417" style="stop-color:#E211E6;stop-opacity:0"/>
			<stop  offset="0.7604" style="stop-color:#FA8DFC;stop-opacity:0.31"/>
			<stop  offset="1" style="stop-color:#FF5995;stop-opacity:0.99"/>
		</linearGradient>
		<path class="st11" d="M168.8,109.4l7.1-7l7.1,7v-6l-7.1-7l-7.1,7V109.4z"/>
		
			<linearGradient id="SVGID_13_" gradientUnits="userSpaceOnUse" x1="66.5521" y1="95.5854" x2="66.5521" y2="9.033" gradientTransform="matrix(1 0 0 -1 0 190)">
			<stop  offset="0" style="stop-color:#FF5995"/>
			<stop  offset="0.2604" style="stop-color:#CD0ED0;stop-opacity:0.7604"/>
			<stop  offset="0.5417" style="stop-color:#E211E6;stop-opacity:0"/>
			<stop  offset="0.7604" style="stop-color:#FA8DFC;stop-opacity:0.31"/>
			<stop  offset="1" style="stop-color:#FF5995;stop-opacity:0.99"/>
		</linearGradient>
		<path class="st12" d="M101,181H35.7c-17.2,0-31.3-19.5-31.3-43.3c0-23.8,14.1-43.3,31.3-43.3h93"/>
		
			<linearGradient id="SVGID_14_" gradientUnits="userSpaceOnUse" x1="99.2014" y1="16.066" x2="99.2014" y2="2" gradientTransform="matrix(1 0 0 -1 0 190)">
			<stop  offset="0" style="stop-color:#FF5995"/>
			<stop  offset="0.2604" style="stop-color:#CD0ED0;stop-opacity:0.7604"/>
			<stop  offset="0.5417" style="stop-color:#E211E6;stop-opacity:0"/>
			<stop  offset="0.7604" style="stop-color:#FA8DFC;stop-opacity:0.31"/>
			<stop  offset="1" style="stop-color:#FF5995;stop-opacity:0.99"/>
		</linearGradient>
		<path class="st13" d="M92.7,173.9l7.1,7l-7.1,7h6l7.1-7l-7.1-7H92.7z"/>
	</g>
</g>
</svg>
