<?xml version="1.0" encoding="utf-8"?>
<!-- Generator: Adobe Illustrator 25.0.0, SVG Export Plug-In . SVG Version: 6.00 Build 0)  -->
<svg version="1.1" id="Layer_1" xmlns="http://www.w3.org/2000/svg" xmlns:xlink="http://www.w3.org/1999/xlink" x="0px" y="0px"
	 viewBox="0 0 38 38" style="enable-background:new 0 0 38 38;" xml:space="preserve">
<style type="text/css">
	.st0{fill:#FFFFFF;}
</style>
<path class="st0" d="M19,0C8.5,0,0,8.5,0,19c0,8.4,5.4,15.5,13,18c0.9,0.2,1.3-0.4,1.3-0.9v-3.5c-5.3,1.1-6.4-2.2-6.4-2.2
	c-0.9-2.2-2.1-2.8-2.1-2.8c-1.7-1.2,0.1-1.2,0.1-1.2c1.9,0.1,2.9,2,2.9,2c1.7,2.9,4.4,2.1,5.5,1.6c0.2-1.2,0.7-2.1,1.2-2.5
	c-4.2-0.5-8.7-2.1-8.7-9.4c0-2.1,0.7-3.8,2-5.1C8.6,12.4,8,10.5,9,7.9c0,0,1.6-0.5,5.2,1.9c1.5-0.4,3.1-0.6,4.8-0.6
	c1.6,0,3.2,0.2,4.8,0.6C27.4,7.4,29,7.9,29,7.9c1,2.6,0.4,4.6,0.2,5c1.2,1.3,2,3,2,5.1c0,7.3-4.4,8.9-8.7,9.4
	c0.7,0.6,1.3,1.7,1.3,3.5v5.2c0,0.5,0.3,1.1,1.3,0.9c7.5-2.5,13-9.6,13-18C38,8.5,29.5,0,19,0z"/>
</svg>
