<?xml version="1.0" encoding="utf-8"?>
<!-- Generator: Adobe Illustrator 25.0.0, SVG Export Plug-In . SVG Version: 6.00 Build 0)  -->
<svg version="1.1" id="Layer_1" xmlns="http://www.w3.org/2000/svg" xmlns:xlink="http://www.w3.org/1999/xlink" x="0px" y="0px"
	 viewBox="0 0 185 203" style="enable-background:new 0 0 185 203;" xml:space="preserve">
<style type="text/css">
	.st0{fill:none;stroke:url(#SVGID_1_);stroke-width:3;stroke-linecap:round;stroke-linejoin:round;stroke-miterlimit:10;}
	.st1{fill:none;stroke:url(#SVGID_2_);stroke-width:3;stroke-miterlimit:10;}
	.st2{fill:none;stroke:url(#SVGID_3_);stroke-width:3;stroke-miterlimit:10;}
	.st3{fill:none;stroke:url(#SVGID_4_);stroke-width:3;stroke-miterlimit:10;}
	.st4{fill:none;stroke:url(#SVGID_5_);stroke-width:3;stroke-miterlimit:10;}
</style>
<linearGradient id="SVGID_1_" gradientUnits="userSpaceOnUse" x1="164.7235" y1="45.708" x2="164.7235" y2="2.575" gradientTransform="matrix(1 0 0 -1 0 204)">
	<stop  offset="0" style="stop-color:#03FFA4"/>
	<stop  offset="0.276" style="stop-color:#87F1CA;stop-opacity:0"/>
	<stop  offset="0.5104" style="stop-color:#10FFA9"/>
	<stop  offset="0.7812" style="stop-color:#71F49E;stop-opacity:0.2188"/>
	<stop  offset="1" style="stop-color:#54FFC1"/>
</linearGradient>
<path class="st0" d="M146,158.3l5,43.1c20.6-4.7,32.5-22.6,32.5-22.6L146,158.3z"/>
<linearGradient id="SVGID_2_" gradientUnits="userSpaceOnUse" x1="41.5985" y1="202" x2="41.5985" y2="122.6158" gradientTransform="matrix(1 0 0 -1 0 204)">
	<stop  offset="0" style="stop-color:#03FFA4"/>
	<stop  offset="0.276" style="stop-color:#87F1CA;stop-opacity:0"/>
	<stop  offset="0.5104" style="stop-color:#10FFA9"/>
	<stop  offset="0.7812" style="stop-color:#71F49E;stop-opacity:0.2188"/>
	<stop  offset="1" style="stop-color:#54FFC1"/>
</linearGradient>
<path class="st1" d="M41.6,81.4c21.9,0,39.6-17.8,39.6-39.7S63.5,2,41.6,2C19.7,2,2,19.8,2,41.7S19.7,81.4,41.6,81.4z"/>
<linearGradient id="SVGID_3_" gradientUnits="userSpaceOnUse" x1="132.2966" y1="202" x2="132.2966" y2="122.6158" gradientTransform="matrix(1 0 0 -1 0 204)">
	<stop  offset="0" style="stop-color:#03FFA4"/>
	<stop  offset="0.276" style="stop-color:#87F1CA;stop-opacity:0"/>
	<stop  offset="0.5104" style="stop-color:#10FFA9"/>
	<stop  offset="0.7812" style="stop-color:#71F49E;stop-opacity:0.2188"/>
	<stop  offset="1" style="stop-color:#54FFC1"/>
</linearGradient>
<path class="st2" d="M132.3,81.4c21.9,0,39.6-17.8,39.6-39.7S154.2,2,132.3,2c-21.9,0-39.6,17.8-39.6,39.7S110.4,81.4,132.3,81.4z"
	/>
<linearGradient id="SVGID_4_" gradientUnits="userSpaceOnUse" x1="41.5985" y1="110.605" x2="41.5985" y2="31.221" gradientTransform="matrix(1 0 0 -1 0 204)">
	<stop  offset="0" style="stop-color:#03FFA4"/>
	<stop  offset="0.276" style="stop-color:#87F1CA;stop-opacity:0"/>
	<stop  offset="0.5104" style="stop-color:#10FFA9"/>
	<stop  offset="0.7812" style="stop-color:#71F49E;stop-opacity:0.2188"/>
	<stop  offset="1" style="stop-color:#54FFC1"/>
</linearGradient>
<path class="st3" d="M41.6,172.8c21.9,0,39.6-17.8,39.6-39.7S63.5,93.4,41.6,93.4C19.7,93.4,2,111.2,2,133.1S19.7,172.8,41.6,172.8z
	"/>
<linearGradient id="SVGID_5_" gradientUnits="userSpaceOnUse" x1="132.2966" y1="107.8438" x2="132.2966" y2="28.46" gradientTransform="matrix(1 0 0 -1 0 204)">
	<stop  offset="0" style="stop-color:#03FFA4"/>
	<stop  offset="0.276" style="stop-color:#87F1CA;stop-opacity:0"/>
	<stop  offset="0.5104" style="stop-color:#10FFA9"/>
	<stop  offset="0.7812" style="stop-color:#71F49E;stop-opacity:0.2188"/>
	<stop  offset="1" style="stop-color:#54FFC1"/>
</linearGradient>
<path class="st4" d="M171.9,135.8c0,11.3-4.3,17.9-4.3,17.9l-35.3-17.9v39.7c-21.9,0-39.6-17.8-39.6-39.7
	c0-21.9,17.7-39.7,39.6-39.7C154.2,96.2,171.9,113.9,171.9,135.8z"/>
</svg>
