<svg width="38" height="38" viewBox="0 0 38 38" fill="none" xmlns="http://www.w3.org/2000/svg">
<path fill-rule="evenodd" clip-rule="evenodd" d="M19 38C29.4934 38 38 29.4934 38 19C38 8.50659 29.4934 0 19 0C8.50659 0 0 8.50659 0 19C0 29.4934 8.50659 38 19 38ZM20.3656 18.9749C20.3656 15.6617 17.6741 12.9756 14.3536 12.9756C11.0332 12.9756 8.34146 15.6617 8.34146 18.9749C8.34146 22.2882 11.0334 24.9741 14.3536 24.9741C17.6738 24.9741 20.3656 22.2882 20.3656 18.9749ZM26.9607 18.9749C26.9607 15.8554 25.6148 13.327 23.9546 13.327C22.2944 13.327 20.9487 15.8562 20.9487 18.9749C20.9487 22.0936 22.2946 24.6229 23.9548 24.6229C25.615 24.6229 26.9609 22.0936 26.9609 18.9749H26.9607ZM29.6585 18.9749C29.6585 16.1805 29.1851 13.9153 28.6013 13.9153C28.0175 13.9153 27.5443 16.1807 27.5443 18.9749C27.5443 21.7691 28.0173 24.0346 28.6013 24.0346C29.1853 24.0346 29.6585 21.7685 29.6585 18.9749Z" fill="white"/>
</svg>
