<svg width="50" height="50" viewBox="0 0 50 50" fill="none" xmlns="http://www.w3.org/2000/svg">
<path d="M43.0156 5.57031L27.4004 17.1679L30.288 10.3255L43.0156 5.57031Z" fill="#E2761B" stroke="#E2761B" stroke-linecap="round" stroke-linejoin="round"/>
<path d="M6.96875 5.57031L22.4584 17.2778L19.712 10.3255L6.96875 5.57031Z" fill="#E4761B" stroke="#E4761B" stroke-linecap="round" stroke-linejoin="round"/>
<path d="M37.3991 32.4531L33.2402 38.8247L42.1385 41.273L44.6966 32.5944L37.3991 32.4531Z" fill="#E4761B" stroke="#E4761B" stroke-linecap="round" stroke-linejoin="round"/>
<path d="M5.32031 32.5944L7.86268 41.273L16.761 38.8247L12.6022 32.4531L5.32031 32.5944Z" fill="#E4761B" stroke="#E4761B" stroke-linecap="round" stroke-linejoin="round"/>
<path d="M16.2589 21.6875L13.7793 25.4383L22.6148 25.8306L22.301 16.3359L16.2589 21.6875Z" fill="#E4761B" stroke="#E4761B" stroke-linecap="round" stroke-linejoin="round"/>
<path d="M33.7249 21.688L27.6044 16.2266L27.4004 25.8311L36.2202 25.4387L33.7249 21.688Z" fill="#E4761B" stroke="#E4761B" stroke-linecap="round" stroke-linejoin="round"/>
<path d="M16.7617 38.8258L22.0662 36.2364L17.4836 32.6582L16.7617 38.8258Z" fill="#E4761B" stroke="#E4761B" stroke-linecap="round" stroke-linejoin="round"/>
<path d="M27.9199 36.2364L33.2401 38.8258L32.5025 32.6582L27.9199 36.2364Z" fill="#E4761B" stroke="#E4761B" stroke-linecap="round" stroke-linejoin="round"/>
<path d="M33.2401 38.8258L27.9199 36.2363L28.3437 39.7046L28.2966 41.1641L33.2401 38.8258Z" fill="#D7C1B3" stroke="#D7C1B3" stroke-linecap="round" stroke-linejoin="round"/>
<path d="M16.7617 38.8258L21.7052 41.1641L21.6738 39.7046L22.0662 36.2363L16.7617 38.8258Z" fill="#D7C1B3" stroke="#D7C1B3" stroke-linecap="round" stroke-linejoin="round"/>
<path d="M21.783 30.3674L17.3574 29.0648L20.4805 27.6367L21.783 30.3674Z" fill="#233447" stroke="#233447" stroke-linecap="round" stroke-linejoin="round"/>
<path d="M28.2012 30.3674L29.5037 27.6367L32.6425 29.0648L28.2012 30.3674Z" fill="#233447" stroke="#233447" stroke-linecap="round" stroke-linejoin="round"/>
<path d="M16.7604 38.8267L17.5137 32.4551L12.6016 32.5963L16.7604 38.8267Z" fill="#CD6116" stroke="#CD6116" stroke-linecap="round" stroke-linejoin="round"/>
<path d="M32.4863 32.4551L33.2396 38.8267L37.3984 32.5963L32.4863 32.4551Z" fill="#CD6116" stroke="#CD6116" stroke-linecap="round" stroke-linejoin="round"/>
<path d="M36.2202 25.4395L27.4004 25.8318L28.2165 30.3673L29.519 27.6366L32.6578 29.0647L36.2202 25.4395Z" fill="#CD6116" stroke="#CD6116" stroke-linecap="round" stroke-linejoin="round"/>
<path d="M17.3575 29.0647L20.4962 27.6366L21.7831 30.3673L22.6148 25.8318L13.7793 25.4395L17.3575 29.0647Z" fill="#CD6116" stroke="#CD6116" stroke-linecap="round" stroke-linejoin="round"/>
<path d="M13.7793 25.4395L17.483 32.6585L17.3575 29.0647L13.7793 25.4395Z" fill="#E4751F" stroke="#E4751F" stroke-linecap="round" stroke-linejoin="round"/>
<path d="M32.6589 29.0647L32.502 32.6585L36.2214 25.4395L32.6589 29.0647Z" fill="#E4751F" stroke="#E4751F" stroke-linecap="round" stroke-linejoin="round"/>
<path d="M22.615 25.832L21.7832 30.3675L22.819 35.719L23.0544 28.6726L22.615 25.832Z" fill="#E4751F" stroke="#E4751F" stroke-linecap="round" stroke-linejoin="round"/>
<path d="M27.4022 25.832L26.9785 28.6569L27.1668 35.719L28.2183 30.3675L27.4022 25.832Z" fill="#E4751F" stroke="#E4751F" stroke-linecap="round" stroke-linejoin="round"/>
<path d="M28.2175 30.367L27.166 35.7186L27.9193 36.2365L32.5019 32.6583L32.6588 29.0645L28.2175 30.367Z" fill="#F6851B" stroke="#F6851B" stroke-linecap="round" stroke-linejoin="round"/>
<path d="M17.3574 29.0645L17.483 32.6583L22.0655 36.2365L22.8188 35.7186L21.783 30.367L17.3574 29.0645Z" fill="#F6851B" stroke="#F6851B" stroke-linecap="round" stroke-linejoin="round"/>
<path d="M28.2966 41.1645L28.3436 39.705L27.9513 39.3598L22.0348 39.3598L21.6738 39.705L21.7052 41.1645L16.7617 38.8262L18.488 40.2386L21.9877 42.6711L27.9984 42.6711L31.5138 40.2386L33.2401 38.8262L28.2966 41.1645Z" fill="#C0AD9E" stroke="#C0AD9E" stroke-linecap="round" stroke-linejoin="round"/>
<path d="M27.9199 36.2366L27.1666 35.7187L22.8195 35.7187L22.0662 36.2366L21.6738 39.7049L22.0348 39.3597L27.9513 39.3597L28.3436 39.7049L27.9199 36.2366Z" fill="#161616" stroke="#161616" stroke-linecap="round" stroke-linejoin="round"/>
<path d="M43.6744 17.9212L45.0084 11.5182L43.0153 5.57031L27.918 16.7756L33.7246 21.6877L41.9324 24.0888L43.7529 21.9702L42.9682 21.4052L44.2237 20.2596L43.2507 19.5063L44.5062 18.549L43.6744 17.9212Z" fill="#763D16" stroke="#763D16" stroke-linecap="round" stroke-linejoin="round"/>
<path d="M4.99023 11.5182L6.3242 17.9212L5.47674 18.549L6.73223 19.5063L5.77492 20.2596L7.03041 21.4052L6.24573 21.9702L8.0505 24.0888L16.2583 21.6877L22.0649 16.7756L6.96764 5.57031L4.99023 11.5182Z" fill="#763D16" stroke="#763D16" stroke-linecap="round" stroke-linejoin="round"/>
<path d="M41.9338 24.0886L33.7261 21.6875L36.2213 25.4383L32.502 32.6574L37.3984 32.5946L44.6959 32.5946L41.9338 24.0886Z" fill="#F6851B" stroke="#F6851B" stroke-linecap="round" stroke-linejoin="round"/>
<path d="M16.2588 21.6895L8.05101 24.0906L5.32031 32.5965L12.6022 32.5965L17.4829 32.6593L13.7792 25.4402L16.2588 21.6895Z" fill="#F6851B" stroke="#F6851B" stroke-linecap="round" stroke-linejoin="round"/>
<path d="M27.4008 25.8315L27.9187 16.7763L30.3042 10.3262L19.7109 10.3262L22.065 16.7763L22.6143 25.8315L22.8026 28.6878L22.8183 35.7185L27.1654 35.7185L27.1968 28.6878L27.4008 25.8315Z" fill="#F6851B" stroke="#F6851B" stroke-linecap="round" stroke-linejoin="round"/>
</svg>
