<svg width="21" height="443" viewBox="0 0 21 443" fill="none" xmlns="http://www.w3.org/2000/svg">
<path fill-rule="evenodd" clip-rule="evenodd" d="M0.5 9C0.5 4.30558 4.30558 0.5 9 0.5H21V1.5H9C4.85786 1.5 1.5 4.85786 1.5 9V373C1.5 377.142 4.85787 380.5 9 380.5H16V375.113L21 381L16 386.887V381.5H9C4.30558 381.5 0.5 377.694 0.5 373V9Z" fill="#333232"/>
<path fill-rule="evenodd" clip-rule="evenodd" d="M8.5 183C8.5 187.694 12.3056 191.5 17 191.5H21V190.5H17C12.8579 190.5 9.5 187.142 9.5 183V99C9.5 95.1969 12.3306 92.055 16 91.5661V96.8867L21 91L16 85.1132V90.5582C11.7768 91.0531 8.5 94.6439 8.5 99V183Z" fill="#333232"/>
</svg>
