<svg width="151" height="50" viewBox="0 0 151 50" fill="none" xmlns="http://www.w3.org/2000/svg">
<g clip-path="url(#clip0_176_94)">
<path d="M138.751 0.000162499H12.6481C12.1884 0.000162499 11.7343 0.0001625 11.2758 0.00266249C10.8921 0.00516248 10.5113 0.012425 10.1239 0.0185374C9.28219 0.0284147 8.44246 0.102257 7.612 0.239424C6.78271 0.379577 5.9794 0.643805 5.22924 1.02317C4.47999 1.40575 3.79539 1.90287 3.20025 2.49649C2.602 3.08845 2.1033 3.77267 1.72335 4.52285C1.34235 5.27153 1.07816 6.07382 0.939908 6.90199C0.800344 7.72912 0.725243 8.56579 0.71528 9.40448C0.703647 9.78773 0.702419 10.1723 0.696289 10.5556V39.4483C0.702419 39.8364 0.703647 40.2124 0.71528 40.6007C0.725246 41.4393 0.800347 42.2759 0.939908 43.103C1.07778 43.9317 1.34198 44.7344 1.72335 45.4834C2.10313 46.2311 2.60189 46.9126 3.20025 47.5013C3.79313 48.0975 4.47818 48.595 5.22924 48.9746C5.9794 49.355 6.78262 49.6208 7.612 49.7631C8.4426 49.8992 9.28224 49.9731 10.1239 49.9841C10.5113 49.9926 10.8921 49.9975 11.2758 49.9975C11.7343 50 12.1884 50 12.6481 50H138.751C139.201 50 139.659 50 140.109 49.9975C140.491 49.9975 140.883 49.9926 141.265 49.9841C142.105 49.9737 142.943 49.8998 143.772 49.7631C144.604 49.6198 145.41 49.3541 146.164 48.9746C146.914 48.5948 147.599 48.0973 148.191 47.5013C148.788 46.9103 149.288 46.2293 149.672 45.4834C150.051 44.7339 150.312 43.9312 150.448 43.103C150.588 42.2758 150.666 41.4394 150.681 40.6007C150.686 40.2124 150.686 39.8364 150.686 39.4483C150.696 38.9942 150.696 38.5425 150.696 38.081V11.9203C150.696 11.4625 150.696 11.0084 150.686 10.5556C150.686 10.1723 150.686 9.78773 150.681 9.40443C150.666 8.56566 150.588 7.72918 150.448 6.90194C150.312 6.07424 150.05 5.27202 149.672 4.5228C148.898 3.01915 147.671 1.79519 146.164 1.02306C145.41 0.64462 144.604 0.380462 143.772 0.239312C142.943 0.101541 142.105 0.0276721 141.265 0.0183624C140.883 0.0122625 140.491 0.00493748 140.109 0.00249999C139.659 0 139.201 0 138.751 0V0.000162499Z" fill="black"/>
<path d="M11.2814 48.9061C10.8994 48.9061 10.5267 48.9012 10.1478 48.8927C9.36285 48.8825 8.57972 48.8144 7.80485 48.6888C7.08231 48.5648 6.38237 48.3339 5.72811 48.004C5.07985 47.6768 4.48859 47.2477 3.97697 46.7332C3.45794 46.2248 3.02583 45.6352 2.69775 44.9876C2.36606 44.3358 2.13651 43.6372 2.0171 42.9161C1.88814 42.1413 1.81837 41.3578 1.80839 40.5724C1.80044 40.3088 1.79004 39.431 1.79004 39.431V10.5554C1.79004 10.5554 1.80112 9.69114 1.80845 9.43722C1.81801 8.65308 1.88738 7.8708 2.01595 7.09714C2.13558 6.37405 2.36531 5.67342 2.69718 5.01952C3.02405 4.37242 3.45376 3.78232 3.96966 3.27209C4.48498 2.75702 5.07814 2.32575 5.7275 1.99401C6.38026 1.66512 7.07887 1.43591 7.79994 1.31409C8.57736 1.18729 9.36322 1.11875 10.1509 1.10901L11.282 1.09375H140.103L141.247 1.10962C142.028 1.11887 142.806 1.18681 143.577 1.31286C144.305 1.43622 145.011 1.66702 145.671 1.99767C146.972 2.66623 148.031 3.72395 148.698 5.02258C149.025 5.67196 149.251 6.36687 149.369 7.08372C149.499 7.86372 149.572 8.65215 149.587 9.44272C149.591 9.79672 149.591 10.177 149.591 10.5554C149.601 11.0241 149.601 11.4703 149.601 11.9201V38.0809C149.601 38.535 149.601 38.9781 149.591 39.4249C149.591 39.8314 149.591 40.2038 149.586 40.587C149.571 41.3635 149.5 42.1378 149.372 42.9039C149.255 43.6302 149.026 44.3343 148.695 44.9914C148.364 45.6319 147.935 46.2164 147.422 46.7235C146.91 47.2407 146.317 47.6723 145.667 48.0016C145.009 48.3341 144.304 48.5658 143.577 48.6888C142.802 48.815 142.019 48.8832 141.234 48.8927C140.866 48.9012 140.482 48.9061 140.109 48.9061L138.75 48.9086L11.2814 48.9061Z" fill="white"/>
<path d="M31.7448 25.3764C31.7583 24.333 32.0362 23.3101 32.5527 22.4026C33.0691 21.4952 33.8074 20.7328 34.6988 20.1863C34.1325 19.3799 33.3855 18.7162 32.517 18.248C31.6486 17.7798 30.6826 17.52 29.6958 17.4892C27.5909 17.2689 25.5502 18.7452 24.4776 18.7452C23.3842 18.7452 21.7327 17.5111 19.9543 17.5476C18.804 17.5846 17.683 17.9182 16.7004 18.5158C15.7178 19.1133 14.9072 19.9545 14.3475 20.9574C11.9232 25.1429 13.7315 31.2942 16.0538 34.6775C17.2157 36.3341 18.5736 38.1847 20.3503 38.1191C22.089 38.0472 22.7384 37.0135 24.8371 37.0135C26.9164 37.0135 27.5256 38.1191 29.3385 38.0773C31.2042 38.0471 32.3796 36.4133 33.5007 34.7409C34.3355 33.5605 34.9779 32.2558 35.4041 30.8753C34.3202 30.4181 33.3952 29.6529 32.7445 28.6751C32.0937 27.6972 31.7461 26.5499 31.7448 25.3764Z" fill="black"/>
<path d="M28.3205 15.2637C29.3377 14.0459 29.8389 12.4807 29.7175 10.9004C28.1634 11.0632 26.7278 11.8039 25.6968 12.9749C25.1927 13.547 24.8066 14.2125 24.5606 14.9335C24.3147 15.6544 24.2136 16.4167 24.2632 17.1766C25.0405 17.1846 25.8095 17.0166 26.5123 16.6852C27.2151 16.3539 27.8334 15.8678 28.3205 15.2637Z" fill="black"/>
<path d="M53.7239 33.9246H47.7906L46.3657 38.1201H43.8525L49.4725 22.5977H52.0836L57.7035 38.1201H55.1475L53.7239 33.9246ZM48.4051 31.9885H53.1082L50.7897 25.1795H50.7248L48.4051 31.9885Z" fill="black"/>
<path d="M69.8417 32.4613C69.8417 35.9781 67.9541 38.2377 65.1056 38.2377C64.384 38.2753 63.6663 38.1095 63.0348 37.7594C62.4033 37.4092 61.8835 36.8888 61.5348 36.2577H61.4809V41.8631H59.1514V26.8021H61.4063V28.6845H61.4491C61.8138 28.0564 62.3425 27.5386 62.9788 27.1863C63.6151 26.834 64.3353 26.6603 65.0627 26.6837C67.943 26.6837 69.8417 28.9542 69.8417 32.4613ZM67.4473 32.4613C67.4473 30.1701 66.2599 28.6637 64.4482 28.6637C62.6683 28.6637 61.4711 30.2018 61.4711 32.4613C61.4711 34.7416 62.6683 36.2687 64.4482 36.2687C66.2599 36.2687 67.4473 34.7733 67.4473 32.4613Z" fill="black"/>
<path d="M82.3319 32.4613C82.3319 35.9781 80.4443 38.2376 77.5958 38.2376C76.8742 38.2753 76.1566 38.1095 75.5251 37.7594C74.8936 37.4092 74.3737 36.8888 74.025 36.2576H73.9711V41.8631H71.6416V26.8021H73.8964V28.6844H73.9393C74.304 28.0564 74.8326 27.5386 75.469 27.1863C76.1053 26.834 76.8255 26.6603 77.5529 26.6837C80.4333 26.6837 82.3319 28.9542 82.3319 32.4613ZM79.9376 32.4613C79.9376 30.1701 78.7501 28.6637 76.9384 28.6637C75.1586 28.6637 73.9614 30.2018 73.9614 32.4613C73.9614 34.7416 75.1586 36.2687 76.9384 36.2687C78.7502 36.2687 79.9376 34.7733 79.9376 32.4613Z" fill="black"/>
<path d="M90.5868 33.7942C90.7594 35.3335 92.259 36.3442 94.3081 36.3442C96.2716 36.3442 97.6842 35.3335 97.6842 33.9455C97.6842 32.7407 96.8322 32.0193 94.8148 31.5249L92.7976 31.0403C89.9392 30.3518 88.6123 29.0188 88.6123 26.8557C88.6123 24.1775 90.9528 22.3379 94.2763 22.3379C97.5655 22.3379 99.8203 24.1775 99.8962 26.8557H97.5446C97.4038 25.3066 96.1197 24.3716 94.2431 24.3716C92.3665 24.3716 91.0825 25.3176 91.0825 26.6946C91.0825 27.792 91.9027 28.4377 93.909 28.9321L95.6239 29.352C98.8177 30.1052 100.145 31.3845 100.145 33.655C100.145 36.559 97.825 38.3778 94.1355 38.3778C90.6835 38.3778 88.3526 36.6017 88.2021 33.7941L90.5868 33.7942Z" fill="black"/>
<path d="M105.173 24.125V26.8032H107.331V28.6428H105.173V34.8818C105.173 35.851 105.605 36.3027 106.554 36.3027C106.81 36.2982 107.066 36.2803 107.32 36.2489V38.0776C106.894 38.157 106.46 38.193 106.026 38.185C103.729 38.185 102.832 37.3244 102.832 35.1296V28.6428H101.182V26.8032H102.832V24.125H105.173Z" fill="black"/>
<path d="M108.581 32.4624C108.581 28.9016 110.684 26.6641 113.963 26.6641C117.254 26.6641 119.347 28.9016 119.347 32.4624C119.347 36.0329 117.265 38.2607 113.963 38.2607C110.663 38.2607 108.581 36.0329 108.581 32.4624ZM116.973 32.4624C116.973 30.0198 115.851 28.5781 113.963 28.5781C112.076 28.5781 110.954 30.0308 110.954 32.4624C110.954 34.9148 112.076 36.3454 113.963 36.3454C115.851 36.3454 116.973 34.9148 116.973 32.4624Z" fill="black"/>
<path d="M121.266 26.802H123.488V28.7283H123.542C123.692 28.1267 124.046 27.595 124.543 27.2227C125.04 26.8503 125.651 26.66 126.272 26.6836C126.54 26.6827 126.808 26.7117 127.07 26.7703V28.9431C126.731 28.8399 126.377 28.7924 126.023 28.8028C125.685 28.7891 125.347 28.8486 125.034 28.9772C124.721 29.1058 124.44 29.3004 124.209 29.5478C123.978 29.7952 123.804 30.0894 123.698 30.4102C123.592 30.731 123.558 31.0709 123.596 31.4065V38.1191H121.266V26.802Z" fill="black"/>
<path d="M137.81 34.7964C137.497 36.8508 135.491 38.2607 132.924 38.2607C129.622 38.2607 127.573 36.0549 127.573 32.5161C127.573 28.9663 129.633 26.6641 132.826 26.6641C135.966 26.6641 137.94 28.8149 137.94 32.2463V33.0422H129.925V33.1826C129.888 33.5991 129.94 34.0187 130.078 34.4135C130.216 34.8083 130.437 35.1692 130.726 35.4724C131.014 35.7756 131.364 36.0141 131.753 36.1719C132.141 36.3298 132.558 36.4035 132.977 36.3881C133.528 36.4396 134.08 36.3124 134.553 36.0256C135.025 35.7388 135.392 35.3077 135.598 34.7963L137.81 34.7964ZM129.936 31.4187H135.609C135.63 31.0442 135.573 30.6694 135.442 30.3179C135.311 29.9664 135.108 29.6457 134.847 29.376C134.585 29.1063 134.271 28.8934 133.923 28.7506C133.575 28.6079 133.202 28.5383 132.826 28.5464C132.446 28.5441 132.07 28.6168 131.719 28.7602C131.368 28.9037 131.049 29.115 130.78 29.382C130.512 29.6491 130.299 29.9665 130.154 30.3161C130.009 30.6657 129.935 31.0404 129.936 31.4187Z" fill="black"/>
<path d="M48.1108 10.9147C48.5992 10.8798 49.0893 10.9533 49.5457 11.1301C50.0021 11.3069 50.4135 11.5825 50.7502 11.9371C51.0868 12.2916 51.3404 12.7162 51.4926 13.1803C51.6448 13.6444 51.6918 14.1364 51.6302 14.6208C51.6302 17.0036 50.3387 18.3732 48.1108 18.3732H45.4092V10.9147H48.1108ZM46.5709 17.3184H47.9811C48.3301 17.3392 48.6793 17.2822 49.0034 17.1514C49.3275 17.0207 49.6182 16.8195 49.8545 16.5625C50.0908 16.3056 50.2666 15.9993 50.3692 15.666C50.4718 15.3328 50.4986 14.9809 50.4477 14.636C50.4949 14.2924 50.4654 13.9427 50.3612 13.6119C50.2571 13.281 50.0808 12.9773 49.845 12.7224C49.6093 12.4675 49.3199 12.2677 48.9977 12.1374C48.6754 12.0071 48.3283 11.9495 47.9811 11.9687H46.5709V17.3184Z" fill="black"/>
<path d="M52.9433 15.5552C52.9078 15.1853 52.9502 14.8121 53.0678 14.4595C53.1855 14.107 53.3757 13.7828 53.6263 13.5078C53.877 13.2328 54.1825 13.0131 54.5232 12.8628C54.864 12.7124 55.2325 12.6348 55.6051 12.6348C55.9778 12.6348 56.3463 12.7124 56.687 12.8628C57.0278 13.0131 57.3333 13.2328 57.5839 13.5078C57.8345 13.7828 58.0248 14.107 58.1424 14.4595C58.26 14.8121 58.3025 15.1853 58.267 15.5552C58.3031 15.9255 58.2612 16.2992 58.1439 16.6524C58.0266 17.0055 57.8365 17.3303 57.5858 17.6058C57.3351 17.8813 57.0294 18.1015 56.6883 18.2522C56.3471 18.4028 55.9782 18.4807 55.6051 18.4807C55.2321 18.4807 54.8631 18.4028 54.522 18.2522C54.1809 18.1015 53.8752 17.8813 53.6245 17.6058C53.3738 17.3303 53.1837 17.0055 53.0664 16.6524C52.949 16.2992 52.9071 15.9255 52.9433 15.5552ZM57.1212 15.5552C57.1212 14.3351 56.5716 13.6216 55.607 13.6216C54.6387 13.6216 54.094 14.3351 54.094 15.5552C54.094 16.7851 54.6387 17.4931 55.607 17.4931C56.5716 17.4931 57.1212 16.7802 57.1212 15.5552Z" fill="black"/>
<path d="M65.3437 18.3728H64.1881L63.0216 14.2273H62.9334L61.7717 18.3728H60.6272L59.0713 12.7441H60.2012L61.2123 17.0391H61.2955L62.456 12.7441H63.5247L64.6851 17.0391H64.7733L65.7795 12.7441H66.8935L65.3437 18.3728Z" fill="black"/>
<path d="M68.2021 12.7451H69.2745V13.6392H69.3577C69.499 13.3181 69.737 13.0488 70.039 12.8691C70.3409 12.6893 70.6916 12.608 71.0421 12.6364C71.3168 12.6158 71.5926 12.6571 71.849 12.7572C72.1055 12.8573 72.3361 13.0137 72.5237 13.2148C72.7113 13.4158 72.8512 13.6564 72.9329 13.9187C73.0147 14.181 73.0362 14.4582 72.9958 14.7299V18.3736H71.8819V15.0088C71.8819 14.1043 71.4876 13.6545 70.6638 13.6545C70.4773 13.6458 70.2912 13.6775 70.1181 13.7472C69.9451 13.817 69.7892 13.9233 69.6612 14.0588C69.5332 14.1943 69.436 14.3558 69.3765 14.5322C69.3169 14.7086 69.2963 14.8958 69.316 15.0809V18.3737H68.2021V12.7451Z" fill="black"/>
<path d="M74.7705 10.5469H75.8845V18.3728H74.7705V10.5469Z" fill="black"/>
<path d="M77.4315 15.5553C77.3961 15.1854 77.4385 14.8122 77.5562 14.4596C77.6738 14.107 77.8641 13.7828 78.1147 13.5078C78.3654 13.2328 78.6709 13.0131 79.0117 12.8628C79.3525 12.7124 79.721 12.6348 80.0937 12.6348C80.4663 12.6348 80.8349 12.7124 81.1757 12.8628C81.5165 13.0131 81.822 13.2328 82.0726 13.5078C82.3233 13.7828 82.5135 14.107 82.6312 14.4596C82.7488 14.8122 82.7913 15.1854 82.7558 15.5553C82.792 15.9256 82.75 16.2994 82.6326 16.6525C82.5153 17.0057 82.3251 17.3304 82.0744 17.6059C81.8237 17.8814 81.518 18.1016 81.1768 18.2523C80.8357 18.4029 80.4668 18.4808 80.0937 18.4808C79.7206 18.4808 79.3516 18.4029 79.0105 18.2523C78.6694 18.1016 78.3637 17.8814 78.1129 17.6059C77.8622 17.3304 77.6721 17.0057 77.5547 16.6525C77.4374 16.2994 77.3954 15.9256 77.4315 15.5553ZM81.6094 15.5553C81.6094 14.3353 81.0598 13.6218 80.0952 13.6218C79.1269 13.6218 78.5822 14.3353 78.5822 15.5553C78.5822 16.7852 79.127 17.4932 80.0952 17.4932C81.0598 17.4932 81.6095 16.7803 81.6095 15.5553H81.6094Z" fill="black"/>
<path d="M83.9287 16.7803C83.9287 15.7671 84.6852 15.183 86.0281 15.1L87.557 15.0121V14.5262C87.557 13.9317 87.1629 13.5961 86.4015 13.5961C85.7796 13.5961 85.3487 13.8237 85.2251 14.2217H84.1466C84.2605 13.2549 85.1724 12.6348 86.4529 12.6348C87.868 12.6348 88.6661 13.3373 88.6661 14.5262V18.372H87.5938V17.581H87.5056C87.3267 17.8648 87.0755 18.0961 86.7777 18.2513C86.4798 18.4066 86.1459 18.4803 85.8102 18.4648C85.5732 18.4894 85.3338 18.4642 85.1072 18.3908C84.8806 18.3174 84.6719 18.1975 84.4947 18.0388C84.3174 17.8801 84.1755 17.6861 84.078 17.4693C83.9805 17.2525 83.9297 17.0178 83.9287 16.7803ZM87.557 16.2993V15.8287L86.1787 15.9166C85.4013 15.9685 85.0488 16.2322 85.0488 16.7284C85.0488 17.2349 85.4895 17.5297 86.0955 17.5297C86.273 17.5477 86.4524 17.5298 86.6228 17.4772C86.7933 17.4246 86.9515 17.3383 87.0878 17.2235C87.2242 17.1087 87.336 16.9677 87.4166 16.8089C87.4972 16.6502 87.545 16.4768 87.557 16.2993Z" fill="black"/>
<path d="M90.1299 15.556C90.1299 13.7775 91.0468 12.6508 92.4729 12.6508C92.8256 12.6346 93.1757 12.7188 93.4822 12.8937C93.7888 13.0685 94.039 13.3268 94.2038 13.6383H94.287V10.5469H95.401V18.3728H94.3336V17.4835H94.2454C94.0679 17.7929 93.8089 18.0479 93.4965 18.221C93.184 18.3941 92.8301 18.4787 92.4729 18.4655C91.037 18.4656 90.1299 17.3389 90.1299 15.556ZM91.2806 15.556C91.2806 16.7499 91.8449 17.4683 92.7887 17.4683C93.7276 17.4683 94.3079 16.7395 94.3079 15.5609C94.3079 14.3878 93.7215 13.6487 92.7887 13.6487C91.851 13.6487 91.2806 14.3719 91.2806 15.556Z" fill="black"/>
<path d="M100.012 15.5552C99.9761 15.1853 100.019 14.8121 100.136 14.4595C100.254 14.107 100.444 13.7828 100.695 13.5078C100.945 13.2328 101.251 13.0131 101.591 12.8628C101.932 12.7124 102.301 12.6348 102.673 12.6348C103.046 12.6348 103.414 12.7124 103.755 12.8628C104.096 13.0131 104.401 13.2328 104.652 13.5078C104.903 13.7828 105.093 14.107 105.21 14.4595C105.328 14.8121 105.371 15.1853 105.335 15.5552C105.371 15.9255 105.329 16.2992 105.212 16.6524C105.095 17.0055 104.905 17.3303 104.654 17.6058C104.403 17.8813 104.097 18.1015 103.756 18.2522C103.415 18.4028 103.046 18.4807 102.673 18.4807C102.3 18.4807 101.931 18.4028 101.59 18.2522C101.249 18.1015 100.943 17.8813 100.693 17.6058C100.442 17.3303 100.252 17.0055 100.135 16.6524C100.017 16.2992 99.9755 15.9255 100.012 15.5552ZM104.189 15.5552C104.189 14.3351 103.64 13.6216 102.675 13.6216C101.707 13.6216 101.162 14.3351 101.162 15.5552C101.162 16.7851 101.707 17.4931 102.675 17.4931C103.64 17.4931 104.189 16.7802 104.189 15.5552Z" fill="black"/>
<path d="M106.829 12.7451H107.901V13.6392H107.984C108.126 13.3181 108.364 13.0488 108.666 12.8691C108.968 12.6893 109.318 12.608 109.669 12.6364C109.943 12.6158 110.219 12.6571 110.476 12.7572C110.732 12.8573 110.963 13.0137 111.15 13.2148C111.338 13.4158 111.478 13.6564 111.56 13.9187C111.641 14.181 111.663 14.4582 111.622 14.7299V18.3736H110.509V15.0088C110.509 14.1043 110.114 13.6545 109.291 13.6545C109.104 13.6458 108.918 13.6775 108.745 13.7472C108.572 13.817 108.416 13.9233 108.288 14.0588C108.16 14.1943 108.063 14.3558 108.003 14.5322C107.944 14.7086 107.923 14.8958 107.943 15.0809V18.3737H106.829V12.7451Z" fill="black"/>
<path d="M117.916 11.3438V12.7707H119.139V13.7064H117.916V16.6007C117.916 17.1903 118.16 17.4485 118.714 17.4485C118.856 17.4479 118.998 17.4395 119.139 17.4228V18.3481C118.939 18.3838 118.736 18.4028 118.533 18.4049C117.294 18.4049 116.801 17.9702 116.801 16.885V13.7064H115.905V12.7707H116.801V11.3438H117.916Z" fill="black"/>
<path d="M120.661 10.5469H121.765V13.6487H121.853C122.001 13.3245 122.246 13.0538 122.554 12.8734C122.862 12.6929 123.218 12.6116 123.574 12.6404C123.847 12.6256 124.121 12.671 124.374 12.7736C124.628 12.8761 124.855 13.0332 125.041 13.2337C125.227 13.4341 125.366 13.6729 125.448 13.9331C125.531 14.1932 125.555 14.4683 125.518 14.7388V18.3728H124.403V15.0128C124.403 14.1138 123.983 13.6584 123.196 13.6584C123.005 13.6428 122.812 13.669 122.632 13.7353C122.452 13.8016 122.288 13.9064 122.153 14.0424C122.017 14.1783 121.913 14.3421 121.848 14.5222C121.783 14.7024 121.758 14.8946 121.775 15.0854V18.3728H120.661V10.5469Z" fill="black"/>
<path d="M132.013 16.8524C131.862 17.3668 131.534 17.8118 131.087 18.1095C130.64 18.4071 130.102 18.5386 129.568 18.4808C129.196 18.4906 128.826 18.4195 128.485 18.2726C128.143 18.1257 127.838 17.9064 127.59 17.63C127.342 17.3536 127.157 17.0267 127.048 16.6719C126.939 16.3171 126.909 15.943 126.96 15.5755C126.911 15.2069 126.941 14.832 127.05 14.4762C127.158 14.1203 127.342 13.7919 127.589 13.513C127.835 13.2342 128.139 13.0115 128.48 12.86C128.821 12.7085 129.19 12.6317 129.563 12.6349C131.133 12.6349 132.081 13.7049 132.081 15.4723V15.86H128.095V15.9222C128.078 16.1288 128.104 16.3367 128.171 16.5326C128.239 16.7286 128.347 16.9082 128.489 17.06C128.631 17.2118 128.802 17.3325 128.993 17.4142C129.184 17.496 129.39 17.537 129.598 17.5347C129.865 17.5666 130.135 17.5188 130.374 17.3972C130.613 17.2757 130.81 17.0861 130.941 16.8523L132.013 16.8524ZM128.095 15.0384H130.946C130.96 14.8495 130.934 14.6598 130.87 14.4814C130.807 14.303 130.706 14.1399 130.575 14.0025C130.444 13.8652 130.286 13.7567 130.111 13.684C129.935 13.6113 129.747 13.576 129.557 13.5803C129.364 13.5779 129.173 13.614 128.994 13.6864C128.816 13.7588 128.654 13.8661 128.518 14.002C128.381 14.1379 128.274 14.2996 128.201 14.4776C128.129 14.6556 128.093 14.8463 128.095 15.0384Z" fill="black"/>
</g>
<defs>
<clipPath id="clip0_176_94">
<rect width="150" height="50" fill="white" transform="translate(0.696289)"/>
</clipPath>
</defs>
</svg>
