<svg width="169" height="50" viewBox="0 0 169 50" fill="none" xmlns="http://www.w3.org/2000/svg">
<path d="M162.5 50H6.25C2.8125 50 0 47.1875 0 43.75V6.25C0 2.8125 2.8125 0 6.25 0H162.5C165.938 0 168.75 2.8125 168.75 6.25V43.75C168.75 47.1875 165.938 50 162.5 50Z" fill="white"/>
<path d="M162.5 0H6.25C2.8125 0 0 2.8125 0 6.25V43.75C0 47.1875 2.8125 50 6.25 50H162.5C165.938 50 168.75 47.1875 168.75 43.75V6.25C168.75 2.8125 165.938 0 162.5 0ZM162.5 1C165.395 1 167.75 3.3555 167.75 6.25V43.75C167.75 46.645 165.395 49.0005 162.5 49.0005H6.25C3.3555 49.0005 1 46.645 1 43.75V6.25C1 3.3555 3.3555 1 6.25 1H162.5Z" fill="black"/>
<path d="M59.2725 12.8043C59.2725 13.8516 58.9623 14.6856 58.3412 15.3077C57.6357 16.0474 56.7162 16.4176 55.5858 16.4176C54.5033 16.4176 53.5829 16.0426 52.8261 15.2916C52.0678 14.5411 51.6895 13.6104 51.6895 12.5001C51.6895 11.3892 52.0678 10.4591 52.8261 9.70803C53.5829 8.95753 54.5033 8.58203 55.5858 8.58203C56.1229 8.58203 56.6372 8.68703 57.1255 8.89653C57.6137 9.10653 58.0053 9.38528 58.2983 9.7344L57.6391 10.3941C57.1426 9.80078 56.4589 9.5044 55.5858 9.5044C54.7963 9.5044 54.1137 9.78178 53.5376 10.3369C52.9613 10.8927 52.6733 11.6133 52.6733 12.5001C52.6733 13.3868 52.9613 14.1074 53.5376 14.6632C54.1137 15.2183 54.7963 15.4957 55.5858 15.4957C56.4233 15.4957 57.1216 15.2168 57.6806 14.6583C58.0434 14.2944 58.2533 13.7887 58.3094 13.1392H55.5858V12.2383H59.2202C59.2553 12.4342 59.2725 12.6222 59.2725 12.8043Z" fill="black"/>
<path d="M59.2725 12.8024H59.1475C59.1465 13.8257 58.8476 14.6206 58.2528 15.2174L58.2515 15.2184L58.251 15.2194C57.5678 15.9336 56.6898 16.2891 55.5858 16.2906C54.5322 16.2891 53.6503 15.9297 52.9139 15.2012C52.1792 14.4712 51.8158 13.5801 51.8145 12.4981C51.8158 11.4156 52.1792 10.525 52.9139 9.79546C53.6503 9.06646 54.5322 8.70659 55.5858 8.70508C56.1068 8.70508 56.6029 8.80671 57.0761 9.00933C57.5497 9.21346 57.9238 9.48096 58.2026 9.81308L58.2983 9.73246L58.21 9.64408L57.5507 10.3042L57.6391 10.3921L57.7353 10.3121C57.2157 9.68946 56.4863 9.37558 55.5858 9.37746C54.7671 9.37646 54.0468 9.66896 53.4511 10.2452C52.8496 10.8234 52.5473 11.5845 52.5483 12.4981C52.5473 13.4117 52.8496 14.1729 53.4511 14.751C54.0468 15.3272 54.7671 15.6197 55.5858 15.6187C56.4511 15.6202 57.1885 15.3267 57.769 14.7447C58.1567 14.356 58.3765 13.8175 58.4341 13.148L58.4457 13.0122H55.7108V12.3614H59.2202V12.2364L59.0971 12.2584C59.1313 12.4479 59.1475 12.628 59.1475 12.8024H59.2725H59.3975C59.3975 12.6124 59.3798 12.4171 59.3432 12.214L59.3247 12.1114H55.4608V13.1372V13.2622H58.3094V13.1372L58.185 13.1265C58.1298 13.7555 57.9296 14.2291 57.5922 14.568C57.0551 15.1031 56.3959 15.3672 55.5858 15.3687C54.8256 15.3677 54.1806 15.106 53.6245 14.5714C53.0737 14.0386 52.7997 13.3585 52.7983 12.4981C52.7997 11.6377 53.0737 10.9576 53.6245 10.4249C54.1806 9.89021 54.8256 9.62846 55.5858 9.62746C56.4311 9.62946 57.0693 9.90871 57.5435 10.4727L57.6313 10.5772L58.3867 9.82083L58.4677 9.73983L58.394 9.65234C58.0868 9.28621 57.6777 8.99558 57.1747 8.77983C56.6708 8.56346 56.1391 8.45508 55.5858 8.45508C54.4746 8.45408 53.5156 8.84471 52.7377 9.61771C51.957 10.3892 51.5635 11.359 51.5645 12.4981C51.5635 13.6367 51.9569 14.607 52.7382 15.379C53.5156 16.1515 54.4746 16.5416 55.5858 16.5406C56.7431 16.5416 57.7031 16.1572 58.4316 15.3921L58.3412 15.3057L58.4296 15.3941C59.0771 14.7471 59.3983 13.8731 59.3975 12.8024H59.2725Z" fill="black"/>
<path d="M65.0346 9.67138H61.6191V12.0494H64.6993V12.9506H61.6191V15.3286H65.0346V16.25H60.6562V8.75H65.0346V9.67138Z" fill="black"/>
<path d="M65.0346 9.67138V9.54638H61.4941V12.1744H64.5743V12.8252L61.4941 12.8256V15.4536H64.9096V16.125H60.7812V8.875H64.9096V9.67138H65.0346V9.54638V9.67138H65.1596V8.75V8.625H60.5312V16.375H65.1596V15.3286V15.2036H61.7441V13.0756H64.8243V12.0494V11.9244H61.7441V9.79638H65.1596V9.67138H65.0346Z" fill="black"/>
<path d="M69.0982 16.25H68.1338V9.67138H66.0391V8.75H71.1929V9.67138H69.0982V16.25Z" fill="black"/>
<path d="M69.0982 16.25V16.125H68.2588V9.54638H66.1641V8.875H71.0679V9.54638H68.9732V16.25H69.0982V16.125V16.25H69.2232V9.79638H71.3179V8.75V8.625H65.9141V9.67138V9.79638H68.0088V16.375H69.0982H69.2232V16.25H69.0982Z" fill="black"/>
<path d="M74.9219 16.25V8.75H75.8852V16.25H74.9219Z" fill="black"/>
<path d="M74.9219 16.25H75.0469V8.875H75.7602V16.125H74.9219V16.25H75.0469H74.9219V16.375H75.8852H76.0102V8.625H74.9219H74.7969V16.375H74.9219V16.25Z" fill="black"/>
<path d="M80.1606 16.25H79.1962V9.67138H77.1016V8.75H82.2553V9.67138H80.1606V16.25Z" fill="black"/>
<path d="M80.1606 16.25V16.125H79.3212V9.54638H77.2266V8.875H82.1303V9.54638H80.0356V16.25H80.1606V16.125V16.25H80.2856V9.79638H82.3803V8.75V8.625H76.9766V9.67138V9.79638H79.0712V16.375H80.1606H80.2856V16.25H80.1606Z" fill="black"/>
<path d="M87.2246 14.6529C87.7797 15.2149 88.4589 15.4957 89.2622 15.4957C90.0654 15.4957 90.7451 15.2149 91.2993 14.6529C91.8549 14.0909 92.1333 13.3726 92.1333 12.5001C92.1333 11.6276 91.8549 10.9092 91.2993 10.3472C90.7451 9.78516 90.0654 9.5044 89.2622 9.5044C88.4589 9.5044 87.7797 9.78516 87.2246 10.3472C86.6703 10.9092 86.3921 11.6276 86.3921 12.5001C86.3921 13.3726 86.6703 14.0909 87.2246 14.6529ZM92.0122 15.2808C91.2748 16.0391 90.3578 16.4176 89.2622 16.4176C88.1654 16.4176 87.2489 16.0391 86.5132 15.2808C85.7753 14.5234 85.4082 13.5963 85.4082 12.5001C85.4082 11.4038 85.7753 10.4766 86.5132 9.71928C87.2489 8.9609 88.1654 8.58203 89.2622 8.58203C90.3521 8.58203 91.2666 8.9629 92.0073 9.72415C92.7471 10.4854 93.1172 11.4107 93.1172 12.5001C93.1172 13.5963 92.7479 14.5234 92.0122 15.2808Z" fill="black"/>
<path d="M87.2246 14.651L87.1357 14.7389C87.7114 15.3234 88.4297 15.6202 89.2622 15.6187C90.0942 15.6202 90.8135 15.3234 91.3882 14.7389C91.9677 14.1539 92.2592 13.397 92.2583 12.4981C92.2592 11.5992 91.9677 10.8424 91.3882 10.2574C90.8135 9.67283 90.0942 9.37596 89.2622 9.37746C88.4297 9.37596 87.7114 9.67283 87.1357 10.2574C86.5576 10.8424 86.2656 11.5992 86.2671 12.4981C86.2656 13.397 86.5576 14.1539 87.1357 14.7389L87.2246 14.651L87.3135 14.5631C86.7832 14.0235 86.5181 13.3447 86.5171 12.4981C86.5181 11.6515 86.7832 10.9727 87.3135 10.4331C87.8486 9.89359 88.4877 9.62896 89.2622 9.62746C90.0361 9.62896 90.6767 9.89359 91.2105 10.4331C91.7417 10.9727 92.0068 11.6515 92.0078 12.4981C92.0068 13.3447 91.7417 14.0235 91.2105 14.5631C90.6767 15.1026 90.0361 15.3672 89.2622 15.3687C88.4877 15.3672 87.8486 15.1026 87.3135 14.5631L87.2246 14.651ZM92.0122 15.2789L91.9228 15.192C91.2061 15.9264 90.3296 16.2891 89.2622 16.2906C88.1943 16.2891 87.3178 15.9264 86.6024 15.192L86.5991 15.1881L86.6024 15.192C85.8872 14.4551 85.5342 13.5665 85.5332 12.4981C85.5342 11.4297 85.8872 10.5411 86.6024 9.80421C87.3178 9.06983 88.1943 8.70659 89.2622 8.70508C90.3227 8.70659 91.1972 9.07133 91.918 9.80958C92.6357 10.5499 92.9907 11.4371 92.9922 12.4981C92.9907 13.5665 92.6367 14.4551 91.9228 15.192L92.0122 15.2789L92.1021 15.3657C92.8598 14.5875 93.2431 13.6221 93.2422 12.4981C93.2431 11.3805 92.8583 10.4171 92.0971 9.63533C91.3355 8.85058 90.3813 8.45371 89.2622 8.45508C88.1372 8.45371 87.1802 8.84871 86.4233 9.63046V9.62996C85.6641 10.4087 85.2822 11.3741 85.2832 12.4981C85.2822 13.6221 85.6641 14.5875 86.4233 15.3662L86.4267 15.3697L86.4233 15.3657C87.1802 16.1475 88.1372 16.5416 89.2622 16.5406C90.3867 16.5416 91.3437 16.1475 92.1021 15.3657L92.0122 15.2789Z" fill="black"/>
<path d="M94.4688 16.25V8.75H95.6415L99.2865 14.5845H99.328L99.2865 13.1391V8.75H100.251V16.25H99.245L95.4315 10.1328H95.39L95.4315 11.5786V16.25H94.4688Z" fill="black"/>
<path d="M94.4688 16.25H94.5938V8.875H95.5721L99.2171 14.7095H99.328H99.4564L99.4115 13.1372V8.875H100.126V16.125H99.3144L95.5009 10.0078H95.39H95.2617L95.3065 11.5806V16.125H94.4688V16.25H94.5938H94.4688V16.375H95.4315H95.5565V11.5766L95.515 10.1294L95.39 10.1328V10.2578H95.4315V10.1328L95.3255 10.1992L99.1756 16.375H100.251H100.376V8.625H99.2865H99.1615V13.1406L99.203 14.5879L99.328 14.5845V14.4595H99.2865V14.5845L99.3925 14.5181L95.7108 8.625H94.4688H94.3438V16.375H94.4688V16.25Z" fill="black"/>
<path d="M133.67 37.5005H136.003V21.874H133.67V37.5005ZM154.679 27.503L152.005 34.2778H151.925L149.15 27.503H146.638L150.799 36.9721L148.427 42.2392H150.86L157.273 27.503H154.679ZM141.452 35.7256C140.687 35.7256 139.622 35.3437 139.622 34.3985C139.622 33.1923 140.949 32.73 142.094 32.73C143.12 32.73 143.602 32.9511 144.225 33.253C144.044 34.7002 142.798 35.7256 141.452 35.7256ZM141.733 27.1611C140.044 27.1611 138.295 27.9052 137.572 29.5537L139.642 30.418C140.084 29.5537 140.908 29.272 141.773 29.272C142.979 29.272 144.205 29.9961 144.225 31.2827V31.4433C143.803 31.2021 142.899 30.8403 141.793 30.8403C139.562 30.8403 137.289 32.0663 137.289 34.3583C137.289 36.4492 139.119 37.7963 141.169 37.7963C142.738 37.7963 143.602 37.0927 144.145 36.2686H144.225V37.4746H146.477V31.4833C146.477 28.7095 144.407 27.1611 141.733 27.1611ZM127.318 29.4052H124V24.0488H127.318C129.062 24.0488 130.052 25.4926 130.052 26.727C130.052 27.938 129.062 29.4052 127.318 29.4052ZM127.258 21.874H121.669V37.5005H124V31.5801H127.258C129.843 31.5801 132.384 29.7085 132.384 26.727C132.384 23.7456 129.843 21.874 127.258 21.874ZM96.7817 35.7285C95.1704 35.7285 93.8212 34.3793 93.8212 32.5263C93.8212 30.6538 95.1704 29.2842 96.7817 29.2842C98.3726 29.2842 99.6211 30.6538 99.6211 32.5263C99.6211 34.3793 98.3726 35.7285 96.7817 35.7285ZM99.46 28.378H99.3794C98.856 27.7538 97.8486 27.19 96.5801 27.19C93.9219 27.19 91.4854 29.5258 91.4854 32.5263C91.4854 35.5068 93.9219 37.8227 96.5801 37.8227C97.8486 37.8227 98.856 37.2587 99.3794 36.6147H99.46V37.3798C99.46 39.4141 98.3726 40.5015 96.6206 40.5015C95.1909 40.5015 94.3047 39.4741 93.9419 38.6083L91.9082 39.4541C92.4922 40.8637 94.043 42.5957 96.6206 42.5957C99.3594 42.5957 101.675 40.9843 101.675 37.0576V27.5122H99.46V28.378ZM103.286 37.5005H105.622V21.8735H103.286V37.5005ZM109.066 32.3452C109.005 30.291 110.657 29.2441 111.845 29.2441C112.772 29.2441 113.557 29.707 113.818 30.3721L109.066 32.3452ZM116.315 30.5732C115.873 29.3847 114.523 27.19 111.764 27.19C109.025 27.19 106.75 29.3447 106.75 32.5063C106.75 35.4868 109.005 37.8227 112.026 37.8227C114.463 37.8227 115.873 36.3325 116.457 35.4667L114.644 34.2582C114.04 35.1445 113.214 35.7285 112.026 35.7285C110.838 35.7285 109.992 35.1846 109.448 34.1176L116.557 31.1772L116.315 30.5732ZM59.6802 28.8212V31.0766H65.0771C64.916 32.3452 64.4931 33.2715 63.8486 33.916C63.0635 34.7016 61.835 35.5673 59.6802 35.5673C56.3574 35.5673 53.7597 32.8891 53.7597 29.5663C53.7597 26.2436 56.3574 23.565 59.6802 23.565C61.4726 23.565 62.7812 24.27 63.748 25.1762L65.3389 23.5855C63.9897 22.2963 62.1972 21.3096 59.6802 21.3096C55.1289 21.3096 51.3027 25.0151 51.3027 29.5663C51.3027 34.1176 55.1289 37.8227 59.6802 37.8227C62.1372 37.8227 63.9897 37.0176 65.4395 35.5068C66.9297 34.0166 67.3931 31.9223 67.3931 30.231C67.3931 29.707 67.353 29.2241 67.272 28.8212H59.6802ZM73.5289 35.7285C71.9175 35.7285 70.5279 34.3993 70.5279 32.5063C70.5279 30.5932 71.9175 29.2842 73.5289 29.2842C75.1396 29.2842 76.5292 30.5932 76.5292 32.5063C76.5292 34.3993 75.1396 35.7285 73.5289 35.7285ZM73.5289 27.19C70.5884 27.19 68.1919 29.4252 68.1919 32.5063C68.1919 35.5673 70.5884 37.8227 73.5289 37.8227C76.4687 37.8227 78.8652 35.5673 78.8652 32.5063C78.8652 29.4252 76.4687 27.19 73.5289 27.19ZM85.1704 35.7285C83.5596 35.7285 82.1699 34.3993 82.1699 32.5063C82.1699 30.5932 83.5596 29.2842 85.1704 29.2842C86.7812 29.2842 88.1709 30.5932 88.1709 32.5063C88.1709 34.3993 86.7812 35.7285 85.1704 35.7285ZM85.1704 27.19C82.23 27.19 79.834 29.4252 79.834 32.5063C79.834 35.5673 82.23 37.8227 85.1704 37.8227C88.1104 37.8227 90.5069 35.5673 90.5069 32.5063C90.5069 29.4252 88.1104 27.19 85.1704 27.19Z" fill="black"/>
<path d="M13.1362 40.4863L13.0433 40.3975C12.6796 40.0126 12.4648 39.415 12.4648 38.6411V38.8232V11.1782C12.4648 11.1757 12.4648 11.1738 12.4648 11.1718C12.4648 11.1742 12.4648 11.1762 12.4648 11.1787V11.3613C12.4648 10.5233 12.7152 9.89205 13.1347 9.51355L28.622 25.0005L13.1362 40.4863ZM12.4648 11.1703C12.4648 11.1015 12.4667 11.0346 12.4702 10.9687C12.4667 11.0341 12.4648 11.1015 12.4648 11.1703ZM12.4702 10.9657C12.4702 10.9648 12.4702 10.9638 12.4706 10.9628C12.4702 10.9638 12.4702 10.9648 12.4702 10.9657ZM12.4706 10.957C12.4706 10.9565 12.4706 10.956 12.4706 10.9555C12.4706 10.956 12.4706 10.9565 12.4706 10.957Z" fill="url(#paint0_linear_176_120)"/>
<path d="M33.7847 30.3472L33.9024 30.2803L40.0185 26.8052C40.6017 26.4737 40.9903 26.0718 41.1842 25.6465C40.9908 26.0718 40.602 26.4742 40.0185 26.8057L33.9024 30.2808L33.7847 30.3472ZM33.7862 30.164L28.623 25L33.7857 19.8369L40.0185 23.3779C40.81 23.8277 41.2544 24.4073 41.3287 24.9995C41.3287 25 41.3287 25.001 41.3287 25.0019C41.2544 25.5928 40.81 26.1729 40.0185 26.6225L33.7862 30.164Z" fill="url(#paint1_linear_176_120)"/>
<path d="M14.2417 41.0767C13.8091 41.0767 13.4316 40.936 13.1372 40.6704L13.1377 40.6699C13.4321 40.9355 13.8101 41.0767 14.2427 41.0767C14.2802 41.0767 14.3184 41.0757 14.357 41.0738C14.3179 41.0757 14.2792 41.0767 14.2417 41.0767ZM14.2422 40.8935C13.8096 40.894 13.4321 40.7529 13.1377 40.4873V40.4869L28.6235 25.001L33.7866 30.165L15.6426 40.4742C15.1406 40.7588 14.665 40.8935 14.2422 40.8935ZM13.1334 40.667C13.106 40.6422 13.0791 40.6158 13.0527 40.5884L13.1334 40.667Z" fill="url(#paint2_linear_176_120)"/>
<path d="M28.622 25.0001L13.1348 9.51318C13.4291 9.24805 13.8061 9.10743 14.2383 9.10743C14.6621 9.10743 15.1381 9.24268 15.6411 9.5278L33.7846 19.837L28.622 25.0001ZM33.9014 19.7203L15.6411 9.3453C15.1381 9.06005 14.6621 8.9248 14.2383 8.9248C14.2363 8.9248 14.2349 8.9248 14.2329 8.9248C14.2354 8.9248 14.2373 8.9248 14.2403 8.9248C14.6631 8.9248 15.1386 9.05955 15.6411 9.3448L33.9014 19.7203Z" fill="url(#paint3_linear_176_120)"/>
<path d="M14.357 41.0742C14.75 41.0517 15.1852 40.9165 15.6427 40.6572L33.7852 30.3486L15.6427 40.6572C15.1855 40.917 14.75 41.0517 14.357 41.0742ZM13.1373 40.6708L13.1334 40.6675C13.1348 40.6685 13.1363 40.6698 13.1373 40.6708ZM13.0528 40.5888L13.0449 40.5811V40.5806C13.0479 40.5835 13.0503 40.5863 13.0528 40.5888Z" fill="black"/>
<path d="M33.7852 30.3482L33.9029 30.2812L33.7852 30.3482Z" fill="url(#paint4_linear_176_120)"/>
<path d="M14.2428 41.0758C13.8102 41.0758 13.4322 40.9346 13.1378 40.669L13.1373 40.6695C13.1363 40.6685 13.1348 40.6671 13.1334 40.6661L13.0528 40.5875C13.0503 40.585 13.0479 40.5821 13.0449 40.5793L13.1378 40.4864C13.4322 40.752 13.8097 40.8931 14.2423 40.8926C14.665 40.8926 15.1407 40.7579 15.6427 40.4733L33.7867 30.1641L33.9029 30.2804L33.7852 30.3473L15.6427 40.6559C15.1852 40.9151 14.75 41.0504 14.357 41.0729C14.3184 41.0748 14.2803 41.0758 14.2428 41.0758Z" fill="url(#paint5_linear_176_120)"/>
<path d="M13.0433 40.5801C12.6796 40.1952 12.4648 39.5976 12.4648 38.8237V38.8232C12.4648 39.5976 12.6796 40.1947 13.0433 40.5796V40.5801Z" fill="black"/>
<path d="M13.0433 40.5801C12.6796 40.1952 12.4648 39.5981 12.4648 38.8237V38.6416C12.4648 39.4155 12.6796 40.0131 13.0433 40.398L13.1362 40.4868L13.0433 40.5801Z" fill="url(#paint6_linear_176_120)"/>
<path d="M13.0449 40.5796L13.1378 40.4863V40.4867L13.0449 40.5796Z" fill="url(#paint7_linear_176_120)"/>
<path d="M41.1836 25.6484C41.2797 25.4374 41.3281 25.2207 41.3281 25.0038C41.3281 25.0034 41.3281 25.0029 41.3281 25.0029C41.3281 25.2202 41.2797 25.4369 41.1836 25.6484Z" fill="black"/>
<path d="M33.9034 30.2812L33.7871 30.165L40.0195 26.6235C40.811 26.1739 41.2554 25.5938 41.3296 25.0029C41.3296 25.2198 41.2812 25.4365 41.1851 25.6475C40.9912 26.0727 40.6026 26.4746 40.0195 26.8061L33.9034 30.2812Z" fill="url(#paint8_linear_176_120)"/>
<path d="M41.3291 24.9995V24.999C41.3286 24.3451 40.8916 23.6914 40.019 23.1953L33.9028 19.7201H33.9023L33.9028 19.7197L40.019 23.1948C40.8926 23.6909 41.3301 24.3456 41.3291 24.9995Z" fill="#404040"/>
<path d="M41.3282 24.9996C41.2539 24.4074 40.8095 23.8277 40.018 23.378L33.7852 19.837L33.9014 19.7207H33.9019L40.018 23.1959C40.8907 23.692 41.3277 24.3457 41.3282 24.9996Z" fill="url(#paint9_linear_176_120)"/>
<path d="M12.4648 11.1715C12.4648 11.171 12.4648 11.1705 12.4648 11.17C12.4648 11.1705 12.4648 11.171 12.4648 11.1715ZM12.4702 10.9684C12.4702 10.9673 12.4702 10.9664 12.4702 10.9654C12.4702 10.9664 12.4702 10.9673 12.4702 10.9684ZM12.4706 10.9625C12.4706 10.9605 12.4706 10.9586 12.4706 10.9566C12.4706 10.9586 12.4706 10.9605 12.4706 10.9625ZM12.4706 10.9551C12.543 9.67093 13.2412 8.92918 14.229 8.9248C13.8007 8.9273 13.4277 9.06793 13.1357 9.33105V9.33055L13.1322 9.33405C13.1015 9.3618 13.0722 9.39118 13.0433 9.42143C12.7152 9.76855 12.5082 10.2886 12.4706 10.9551Z" fill="#404040"/>
<path d="M12.4648 11.3613V11.1787C12.4648 11.1762 12.4648 11.1742 12.4648 11.1718C12.4648 11.1713 12.4648 11.1708 12.4648 11.1703C12.4648 11.1015 12.4667 11.0341 12.4702 10.9687C12.4702 10.9677 12.4702 10.9667 12.4702 10.9657C12.4702 10.9648 12.4702 10.9638 12.4706 10.9628C12.4706 10.9608 12.4706 10.959 12.4706 10.957C12.4706 10.9565 12.4706 10.956 12.4706 10.9555C12.5082 10.289 12.7152 9.76892 13.0433 9.4218L13.1347 9.51355C12.7152 9.89205 12.4648 10.5233 12.4648 11.3613ZM13.1322 9.33442L13.1357 9.33093C13.1347 9.33243 13.1332 9.33342 13.1322 9.33442Z" fill="url(#paint10_linear_176_120)"/>
<path d="M33.7862 19.8379L15.6427 9.52878C15.1397 9.24365 14.6637 9.1084 14.2398 9.1084C13.8077 9.1084 13.4307 9.24903 13.1363 9.51415L13.0449 9.4224C13.0738 9.39215 13.103 9.36277 13.1338 9.33502C13.1348 9.33402 13.1363 9.33303 13.1373 9.33203C13.4293 9.0689 13.8023 8.92828 14.2305 8.92578C14.2315 8.92578 14.2329 8.92578 14.2344 8.92578C14.2364 8.92578 14.2378 8.92578 14.2398 8.92578C14.6637 8.92578 15.1397 9.06102 15.6427 9.34627L33.9029 19.7213L33.9024 19.7216L33.7862 19.8379Z" fill="url(#paint11_linear_176_120)"/>
<defs>
<linearGradient id="paint0_linear_176_120" x1="27.2487" y1="10.8866" x2="6.27064" y2="31.8647" gradientUnits="userSpaceOnUse">
<stop stop-color="#00A0FF"/>
<stop offset="0.00657445" stop-color="#00A1FF"/>
<stop offset="0.2601" stop-color="#00BEFF"/>
<stop offset="0.5122" stop-color="#00D2FF"/>
<stop offset="0.7604" stop-color="#00DFFF"/>
<stop offset="1" stop-color="#00E3FF"/>
</linearGradient>
<linearGradient id="paint1_linear_176_120" x1="42.293" y1="25.0008" x2="12.0468" y2="25.0008" gradientUnits="userSpaceOnUse">
<stop stop-color="#FFE000"/>
<stop offset="0.4087" stop-color="#FFBD00"/>
<stop offset="0.7754" stop-color="#FFA500"/>
<stop offset="1" stop-color="#FF9C00"/>
</linearGradient>
<linearGradient id="paint2_linear_176_120" x1="31.0342" y1="27.8702" x2="2.5864" y2="56.3181" gradientUnits="userSpaceOnUse">
<stop stop-color="#FF3A44"/>
<stop offset="1" stop-color="#C31162"/>
</linearGradient>
<linearGradient id="paint3_linear_176_120" x1="9.12061" y1="0.219306" x2="21.8238" y2="12.9225" gradientUnits="userSpaceOnUse">
<stop stop-color="#32A071"/>
<stop offset="0.0685" stop-color="#2DA771"/>
<stop offset="0.4762" stop-color="#15CF74"/>
<stop offset="0.8009" stop-color="#06E775"/>
<stop offset="1" stop-color="#00F076"/>
</linearGradient>
<linearGradient id="paint4_linear_176_120" x1="42.2935" y1="25.0016" x2="12.0471" y2="25.0016" gradientUnits="userSpaceOnUse">
<stop stop-color="#CCB300"/>
<stop offset="0.4087" stop-color="#CC9700"/>
<stop offset="0.7754" stop-color="#CC8400"/>
<stop offset="1" stop-color="#CC7D00"/>
</linearGradient>
<linearGradient id="paint5_linear_176_120" x1="31.0343" y1="27.8693" x2="2.58645" y2="56.3171" gradientUnits="userSpaceOnUse">
<stop stop-color="#CC2E36"/>
<stop offset="1" stop-color="#9C0E4E"/>
</linearGradient>
<linearGradient id="paint6_linear_176_120" x1="27.2487" y1="10.8871" x2="6.27064" y2="31.8652" gradientUnits="userSpaceOnUse">
<stop stop-color="#008DE0"/>
<stop offset="0.00657445" stop-color="#008DE0"/>
<stop offset="0.2601" stop-color="#00A7E0"/>
<stop offset="0.5122" stop-color="#00B8E0"/>
<stop offset="0.7604" stop-color="#00C4E0"/>
<stop offset="1" stop-color="#00C7E0"/>
</linearGradient>
<linearGradient id="paint7_linear_176_120" x1="31.0347" y1="27.8695" x2="2.58674" y2="56.318" gradientUnits="userSpaceOnUse">
<stop stop-color="#E0333C"/>
<stop offset="1" stop-color="#AB0F56"/>
</linearGradient>
<linearGradient id="paint8_linear_176_120" x1="42.294" y1="25.0018" x2="12.0477" y2="25.0018" gradientUnits="userSpaceOnUse">
<stop stop-color="#E0C500"/>
<stop offset="0.4087" stop-color="#E0A600"/>
<stop offset="0.7754" stop-color="#E09100"/>
<stop offset="1" stop-color="#E08900"/>
</linearGradient>
<linearGradient id="paint9_linear_176_120" x1="42.2925" y1="25.0009" x2="12.0462" y2="25.0009" gradientUnits="userSpaceOnUse">
<stop stop-color="#FFE840"/>
<stop offset="0.4087" stop-color="#FFCE40"/>
<stop offset="0.7754" stop-color="#FFBC40"/>
<stop offset="1" stop-color="#FFB540"/>
</linearGradient>
<linearGradient id="paint10_linear_176_120" x1="27.2488" y1="10.8866" x2="6.27064" y2="31.8647" gradientUnits="userSpaceOnUse">
<stop stop-color="#40B8FF"/>
<stop offset="0.00657445" stop-color="#40B9FF"/>
<stop offset="0.2601" stop-color="#40CEFF"/>
<stop offset="0.5122" stop-color="#40DDFF"/>
<stop offset="0.7604" stop-color="#40E7FF"/>
<stop offset="1" stop-color="#40EAFF"/>
</linearGradient>
<linearGradient id="paint11_linear_176_120" x1="9.12219" y1="0.220277" x2="21.8253" y2="12.9234" gradientUnits="userSpaceOnUse">
<stop stop-color="#65B895"/>
<stop offset="0.0685" stop-color="#62BD95"/>
<stop offset="0.4762" stop-color="#50DB97"/>
<stop offset="0.8009" stop-color="#44ED98"/>
<stop offset="1" stop-color="#40F498"/>
</linearGradient>
</defs>
</svg>
