<svg width="20" height="520" viewBox="0 0 20 520" fill="none" xmlns="http://www.w3.org/2000/svg">
<path fill-rule="evenodd" clip-rule="evenodd" d="M13 232C13 227.306 9.19442 223.5 4.5 223.5H0.5V224.5H4.5C8.64214 224.5 12 227.858 12 232V316C12 319.803 9.16936 322.945 5.5 323.434V318.113L0.5 324L5.5 329.887V324.442C9.72317 323.947 13 320.356 13 316V232Z" fill="#333232"/>
<path fill-rule="evenodd" clip-rule="evenodd" d="M19.5 493C19.5 497.694 15.6944 501.5 11 501.5H1V500.5H11C15.1421 500.5 18.5 497.142 18.5 493V141C18.5 136.858 15.1421 133.5 11 133.5H6V138.887L1 133L6 127.113V132.5H11C15.6944 132.5 19.5 136.306 19.5 141V493Z" fill="#333232"/>
</svg>
