<svg width="19" height="520" viewBox="0 0 19 520" fill="none" xmlns="http://www.w3.org/2000/svg">
<path fill-rule="evenodd" clip-rule="evenodd" d="M1.50001 309.996C2.93144 307.32 5.75312 305.5 9 305.5L17 305.5L17 306.5L9 306.5C4.86041 306.5 1.50414 309.854 1.50001 313.992L1.50001 389C1.50001 393.142 4.85788 396.5 9.00001 396.5L17.4681 396.5L17.4681 397.5L9.00001 397.5C5.75312 397.5 2.93143 395.679 1.50001 393.004L1.50001 476C1.50001 480.142 4.85788 483.5 9.00001 483.5L17.4681 483.5L17.4681 484.5L9.00001 484.5C4.30559 484.5 0.500012 480.694 0.500011 476L0.500004 314C0.500004 313.997 0.500006 313.995 0.500008 313.992L0.500004 226C0.500004 221.306 4.30558 217.5 9 217.5L19 217.5L19 218.5L9 218.5C4.85786 218.5 1.5 221.858 1.5 226L1.50001 309.996Z" fill="#333232"/>
<path d="M14 392L14 402L19.0002 397L14 392Z" fill="#333232"/>
<path d="M14 479L14 489L19.0002 484L14 479Z" fill="#333232"/>
<path d="M14 301L14 311L19.0002 306L14 301Z" fill="#333232"/>
</svg>
