<svg width="19" height="520" viewBox="0 0 19 520" fill="none" xmlns="http://www.w3.org/2000/svg">
<path fill-rule="evenodd" clip-rule="evenodd" d="M18.5 47C18.5 42.3056 14.6944 38.5 10 38.5L7.62939e-06 38.5L7.58568e-06 39.5L10 39.5C14.1421 39.5 17.5 42.8579 17.5 47L17.5 131.996C16.0686 129.321 13.2469 127.5 10 127.5L0.499996 127.5L0.499996 128.5L10 128.5C14.1421 128.5 17.5 131.858 17.5 136L17.5 209C17.5 213.142 14.1421 216.5 9.99999 216.5L1.5319 216.5L1.5319 217.5L9.99999 217.5C14.6944 217.5 18.5 213.694 18.5 209L18.5 136L18.5 47Z" fill="#333232"/>
<path d="M5 212L5 222L-0.000212755 217L5 212Z" fill="#333232"/>
<path d="M5 123L5 133L-0.000212755 128L5 123Z" fill="#333232"/>
</svg>
