<svg width="38" height="38" viewBox="0 0 38 38" fill="none" xmlns="http://www.w3.org/2000/svg">
<path fill-rule="evenodd" clip-rule="evenodd" d="M19 38C29.4934 38 38 29.4934 38 19C38 8.50659 29.4934 0 19 0C8.50659 0 0 8.50659 0 19C0 29.4934 8.50659 38 19 38ZM20.3657 18.9749C20.3657 15.6617 17.6741 12.9756 14.3537 12.9756C11.0333 12.9756 8.34155 15.6617 8.34155 18.9749C8.34155 22.2882 11.0335 24.9741 14.3537 24.9741C17.6739 24.9741 20.3657 22.2882 20.3657 18.9749ZM26.9608 18.9749C26.9608 15.8554 25.6149 13.327 23.9547 13.327C22.2945 13.327 20.9488 15.8562 20.9488 18.9749C20.9488 22.0936 22.2947 24.6228 23.9549 24.6228C25.6151 24.6228 26.961 22.0936 26.961 18.9749H26.9608ZM29.6586 18.9749C29.6586 16.1805 29.1852 13.9153 28.6014 13.9153C28.0176 13.9153 27.5443 16.1807 27.5443 18.9749C27.5443 21.7691 28.0174 24.0346 28.6014 24.0346C29.1854 24.0346 29.6586 21.7685 29.6586 18.9749Z" fill="#FF5995"/>
</svg>
