<svg width="38" height="38" viewBox="0 0 38 38" fill="none" xmlns="http://www.w3.org/2000/svg">
<path d="M19.021 38.0002C8.47138 37.9904 0.00878408 29.5281 -0.000968264 18.9746C-0.0107206 8.49183 8.57622 -0.0485943 19.0771 0.000208117C29.6071 0.0490105 38.021 8.55039 37.999 19.1186C37.9795 29.5257 29.4511 38.01 19.021 38.0002ZM10.7656 20.9779C11.4727 22.6811 12.9818 23.235 14.4813 23.8329C12.8356 25.2115 10.9704 25.7606 8.94437 25.946C10.9046 27.432 13.1111 27.9567 15.4638 27.8469C18.1652 27.72 20.4692 26.4902 22.5855 24.9358C25.9086 22.4957 27.4665 19.1332 27.4251 15.0289C27.4202 14.5214 27.5543 14.2408 27.9858 13.9797C28.4344 13.7064 28.8075 13.3062 29.4072 12.7986C28.5149 12.8426 27.9176 12.8718 27.3251 12.9011C27.9005 12.1984 28.4027 11.5859 28.905 10.971C28.0882 11.054 27.4543 11.2882 26.8009 11.4127C26.5352 11.4639 26.1597 11.359 25.9403 11.1882C23.2364 9.08234 19.8694 10.2219 19.0405 13.5575C18.8869 14.1724 18.8357 14.8142 18.7308 15.4974C15.0396 15.4559 12.1334 13.8015 9.65629 11.054C8.72982 13.3647 9.10528 15.229 10.9729 16.7858C10.907 16.8273 10.8412 16.8688 10.7754 16.9102C10.2244 16.8126 9.67579 16.715 9.05652 16.6052C9.08578 17.6252 9.41248 18.4597 10.1122 19.0795C10.7778 19.67 11.5336 20.1629 12.2919 20.7315C11.7969 20.812 11.341 20.8852 10.7656 20.9779Z" fill="#FF5995"/>
</svg>
