<svg width="28" height="29" viewBox="0 0 28 29" fill="none" xmlns="http://www.w3.org/2000/svg">
<path d="M8.74984 13.8175H19.3665C19.7165 13.8175 19.9498 13.4675 19.8332 13.1175L18.6665 6.11755C18.6665 5.88421 18.3165 5.65088 18.0832 5.65088H9.9165C9.68317 5.65088 9.33317 5.88421 9.33317 6.11755L8.1665 13.1175V13.2342C8.1665 13.5842 8.39984 13.8175 8.74984 13.8175ZM10.3832 6.81755H17.6165L18.5498 12.6509H9.44984L10.3832 6.81755ZM25.6665 16.6175C25.6665 16.3842 25.4332 16.1509 25.0832 16.1509H16.9165C16.6832 16.1509 16.3332 16.3842 16.3332 16.6175L15.1665 23.6175V23.7342C15.1665 24.0842 15.3998 24.3175 15.7498 24.3175H26.3665C26.7165 24.3175 26.9498 23.9675 26.8332 23.6175L25.6665 16.6175ZM16.4498 23.1509L17.3832 17.3175H24.6165L25.5498 23.1509H16.4498ZM11.0832 16.1509H2.9165C2.68317 16.1509 2.33317 16.3842 2.33317 16.6175L1.1665 23.6175V23.7342C1.1665 24.0842 1.39984 24.3175 1.74984 24.3175H12.3665C12.7165 24.3175 12.9498 23.9675 12.8332 23.6175L11.6665 16.6175C11.6665 16.3842 11.3165 16.1509 11.0832 16.1509ZM2.44984 23.1509L3.38317 17.3175H10.6165L11.5498 23.1509H2.44984Z" fill="#FF5995" stroke="#FF5995"/>
</svg>
