<svg width="28" height="29" viewBox="0 0 28 29" fill="none" xmlns="http://www.w3.org/2000/svg">
<path fill-rule="evenodd" clip-rule="evenodd" d="M9.81738 2.29688V6.67188H17.6924V2.29688H9.81738ZM9.37988 0.984375C8.89663 0.984375 8.50488 1.37613 8.50488 1.85938V7.98438H19.0049V1.85938C19.0049 1.37613 18.6131 0.984375 18.1299 0.984375H9.37988Z" fill="#FF5995"/>
<path fill-rule="evenodd" clip-rule="evenodd" d="M1.94238 20.6719V25.0469H9.81738V20.6719H1.94238ZM1.50488 19.3594C1.02163 19.3594 0.629883 19.7511 0.629883 20.2344V26.3594H11.1299V20.2344C11.1299 19.7511 10.7381 19.3594 10.2549 19.3594H1.50488Z" fill="#FF5995"/>
<path fill-rule="evenodd" clip-rule="evenodd" d="M17.6924 20.6719V25.0469H25.5674V20.6719H17.6924ZM17.2549 19.3594C16.7716 19.3594 16.3799 19.7511 16.3799 20.2344V26.3594H26.8799V20.2344C26.8799 19.7511 26.4881 19.3594 26.0049 19.3594H17.2549Z" fill="#FF5995"/>
<path fill-rule="evenodd" clip-rule="evenodd" d="M9.52952 8.42188L9.31077 9.29688H18.1987L17.98 8.42188H9.52952ZM19.0048 7.10938H8.50475L7.90156 9.52216C7.76349 10.0744 8.18118 10.6094 8.75043 10.6094H18.7591C19.3283 10.6094 19.746 10.0744 19.6079 9.52216L19.0048 7.10938Z" fill="#FF5995"/>
<path fill-rule="evenodd" clip-rule="evenodd" d="M1.65452 26.7969L1.43577 27.6719H10.3237L10.105 26.7969H1.65452ZM11.1298 25.4844H0.629752L0.0265564 27.8972C-0.111507 28.4494 0.306181 28.9844 0.875431 28.9844H10.8841C11.4533 28.9844 11.871 28.4494 11.7329 27.8972L11.1298 25.4844Z" fill="#FF5995"/>
<path fill-rule="evenodd" clip-rule="evenodd" d="M17.4045 26.7969L17.1858 27.6719H26.0737L25.855 26.7969H17.4045ZM26.8798 25.4844H16.3798L15.7766 27.8972C15.6385 28.4494 16.0562 28.9844 16.6254 28.9844H26.6341C27.2033 28.9844 27.621 28.4494 27.4829 27.8972L26.8798 25.4844Z" fill="#FF5995"/>
<path fill-rule="evenodd" clip-rule="evenodd" d="M13.9677 9.95312C14.3302 9.95312 14.624 10.2469 14.624 10.6094V13.7713H22.5049C22.8673 13.7713 23.1611 14.0651 23.1611 14.4276V17.6094C23.1611 17.9718 22.8673 18.2656 22.5049 18.2656C22.1424 18.2656 21.8486 17.9718 21.8486 17.6094V15.0838H6.53613V17.6094C6.53613 17.9718 6.24232 18.2656 5.87988 18.2656C5.51745 18.2656 5.22363 17.9718 5.22363 17.6094V14.4276C5.22363 14.0651 5.51745 13.7713 5.87988 13.7713H13.3115V10.6094C13.3115 10.2469 13.6053 9.95312 13.9677 9.95312Z" fill="#FF5995"/>
</svg>
