<svg width="27" height="28" viewBox="0 0 27 28" fill="none" xmlns="http://www.w3.org/2000/svg">
<path fill-rule="evenodd" clip-rule="evenodd" d="M12.9329 3.67844L12.9418 3.38862C12.942 3.38063 12.9421 3.3726 12.9421 3.36454C12.9421 2.95375 12.6091 2.62074 12.1983 2.62074C11.7876 2.62074 11.4545 2.95375 11.4545 3.36454C11.4545 3.42937 11.4625 3.49006 11.4766 3.54664L11.5466 3.82684L11.792 3.98789C11.908 4.064 12.0455 4.10834 12.1983 4.10834C12.4063 4.10834 12.5919 4.02515 12.7287 3.88607L12.9329 3.67844ZM23.4892 8.83791C23.5143 8.87672 23.5392 8.91568 23.5638 8.95479C23.5644 8.95473 23.565 8.95467 23.5656 8.95462C23.6432 8.94697 23.722 8.94305 23.8017 8.94305C25.1162 8.94305 26.1818 10.0087 26.1818 11.3232C26.1818 12.109 25.8011 12.8058 25.214 13.2393C25.2135 13.2396 25.213 13.24 25.2126 13.2403C25.22 13.2834 25.2273 13.3265 25.2343 13.3697C25.3236 13.92 25.3751 14.4829 25.3862 15.0557C25.3877 15.1337 25.3884 15.2119 25.3884 15.2902C25.3884 15.3994 25.387 15.5084 25.384 15.6171C25.3694 16.158 25.3187 16.69 25.2343 17.2106C25.2273 17.2538 25.22 17.297 25.2126 17.34C25.213 17.3403 25.2135 17.3407 25.214 17.341C25.8011 17.7745 26.1818 18.4713 26.1818 19.2571C26.1818 20.5716 25.1162 21.6373 23.8017 21.6373C23.722 21.6373 23.6432 21.6334 23.5656 21.6257C23.565 21.6256 23.5644 21.6256 23.5638 21.6255C23.5392 21.6646 23.5143 21.7036 23.4892 21.7424C21.4851 24.8427 18.0786 26.9516 14.1674 27.1719C13.9424 27.1846 13.7158 27.191 13.4876 27.191C13.3289 27.191 13.1708 27.1879 13.0134 27.1817C12.2346 27.1512 11.475 27.0458 10.7417 26.8726C10.3201 27.5406 9.57553 27.9844 8.72727 27.9844C7.41274 27.9844 6.34711 26.9187 6.34711 25.6042C6.34711 25.3562 6.38506 25.117 6.45546 24.8921C6.12044 24.6464 5.79876 24.3835 5.4917 24.1047C5.20406 23.8437 4.92924 23.5687 4.66831 23.2809C4.1576 22.7176 3.70011 22.1051 3.30378 21.4514C3.01978 21.5711 2.7077 21.6373 2.38017 21.6373C1.06564 21.6373 0 20.5716 0 19.2571C0 18.1771 0.719312 17.2651 1.70499 16.9741C1.63923 16.5097 1.60027 16.0368 1.58971 15.5569C1.58776 15.4682 1.58678 15.3793 1.58678 15.2902C1.58678 15.1763 1.58838 15.0628 1.59157 14.9497C1.64458 13.0629 2.13673 11.286 2.96945 9.71749C2.60255 9.29873 2.38017 8.75017 2.38017 8.14966C2.38017 6.83514 3.4458 5.7695 4.76033 5.7695C5.19149 5.7695 5.59588 5.88414 5.94467 6.08461C7.09831 5.13822 8.43304 4.40443 9.88899 3.94311C9.84274 3.75789 9.81818 3.56408 9.81818 3.36454C9.81818 2.05001 10.8838 0.984375 12.1983 0.984375C13.5129 0.984375 14.5785 2.05001 14.5785 3.36454C14.5785 3.3893 14.5781 3.41398 14.5774 3.43856C18.3161 3.77797 21.5554 5.84649 23.4892 8.83791ZM5.3673 7.64015L5.12925 7.50334C5.02195 7.44166 4.8978 7.40586 4.76033 7.40586C4.34954 7.40586 4.01653 7.73887 4.01653 8.14966C4.01653 8.33848 4.08475 8.50733 4.20023 8.63913L4.38087 8.84531L4.64731 8.88516C4.68329 8.89054 4.72095 8.89347 4.76033 8.89347C5.17112 8.89347 5.50413 8.56045 5.50413 8.14966C5.50413 8.05753 5.48812 7.97277 5.46011 7.89567L5.3673 7.64015ZM3.22699 15.0057C3.22443 15.1002 3.22314 15.195 3.22314 15.2902C3.22314 15.3824 3.22435 15.4743 3.22676 15.5659C3.2405 16.087 3.29309 16.5984 3.3817 17.0973C4.19582 17.4754 4.76033 18.3003 4.76033 19.2571C4.76033 19.6287 4.67515 19.9805 4.52325 20.2939C4.91322 20.9911 5.38215 21.638 5.91795 22.2228C6.13031 22.4545 6.35317 22.6765 6.58578 22.8879C6.86141 23.1384 7.15073 23.3742 7.45248 23.5939C7.82101 23.3597 8.2583 23.224 8.72727 23.224C9.92898 23.224 10.9227 24.1146 11.0844 25.2718C11.8077 25.4453 12.5608 25.5422 13.3346 25.5535C13.3855 25.5543 13.4365 25.5546 13.4876 25.5546C17.0848 25.5546 20.2498 23.7042 22.0827 20.9034C21.6731 20.4759 21.4215 19.8959 21.4215 19.2571C21.4215 18.0006 22.3952 16.9714 23.6292 16.8831C23.6988 16.4364 23.7396 15.9801 23.7496 15.5163C23.7513 15.4411 23.7521 15.3658 23.7521 15.2902C23.7521 15.1974 23.7508 15.105 23.7484 15.013C23.7366 14.5667 23.6963 14.1275 23.6292 13.6972C22.3952 13.6089 21.4215 12.5798 21.4215 11.3232C21.4215 10.6844 21.6731 10.1044 22.0827 9.67693C20.3193 6.98236 17.3231 5.1675 13.8952 5.03364C13.4634 5.47255 12.8627 5.74471 12.1983 5.74471C11.717 5.74471 11.2689 5.60179 10.8944 5.35608C9.44656 5.73297 8.12306 6.41802 6.99815 7.337C7.09026 7.59058 7.1405 7.86426 7.1405 8.14966C7.1405 9.46419 6.07486 10.5298 4.76033 10.5298C4.63965 10.5298 4.52107 10.5208 4.40522 10.5035C3.69199 11.854 3.27115 13.3829 3.22699 15.0057ZM24.0223 12.0848L24.2416 11.9232C24.4291 11.785 24.5455 11.5678 24.5455 11.3232C24.5455 10.9124 24.2124 10.5794 23.8017 10.5794C23.7755 10.5794 23.75 10.5807 23.7254 10.5832L23.4549 10.61L23.2643 10.8089C23.1349 10.944 23.0579 11.1229 23.0579 11.3232C23.0579 11.7152 23.3621 12.0375 23.7461 12.065L24.0223 12.0848ZM24.0223 18.4955L23.7461 18.5153C23.3621 18.5428 23.0579 18.8651 23.0579 19.2571C23.0579 19.4574 23.1349 19.6363 23.2643 19.7714L23.4549 19.9703L23.7254 19.9972C23.75 19.9996 23.7754 20.0009 23.8017 20.0009C24.2124 20.0009 24.5455 19.6679 24.5455 19.2571C24.5455 19.0125 24.4291 18.7954 24.2416 18.6571L24.0223 18.4955ZM9.50191 25.771L9.46379 25.4983C9.41347 25.1382 9.10143 24.8604 8.72727 24.8604C8.57825 24.8604 8.44406 24.9026 8.3301 24.975L8.09806 25.1224L8.01706 25.3811C7.99563 25.4495 7.98347 25.5239 7.98347 25.6042C7.98347 26.015 8.31648 26.348 8.72727 26.348C8.99057 26.348 9.22338 26.2124 9.35777 25.9994L9.50191 25.771ZM2.92761 19.8342L3.05073 19.5802C3.09715 19.4844 3.12397 19.3762 3.12397 19.2571C3.12397 18.9606 2.95048 18.7013 2.69236 18.5814L2.43881 18.4636L2.16839 18.5434C1.85925 18.6347 1.63636 18.922 1.63636 19.2571C1.63636 19.6679 1.96938 20.0009 2.38017 20.0009C2.48553 20.0009 2.58182 19.9799 2.6683 19.9435L2.92761 19.8342Z" fill="#FF5995"/>
<path fill-rule="evenodd" clip-rule="evenodd" d="M22.3799 12.3864C22.5396 12.8092 22.3262 13.2812 21.9035 13.4409L20.5208 13.9629C20.098 14.1225 19.6259 13.9092 19.4663 13.4865C19.3067 13.0638 19.52 12.5917 19.9428 12.432L21.3255 11.91C21.7482 11.7504 22.2203 11.9637 22.3799 12.3864ZM18.2317 13.9526C18.3913 14.3754 18.178 14.8475 17.7553 15.0071L14.9898 16.0512C14.567 16.2108 14.0949 15.9975 13.9353 15.5748C13.7757 15.152 13.989 14.68 14.4117 14.5203L17.1773 13.4762C17.6 13.3166 18.0721 13.5299 18.2317 13.9526ZM12.7007 16.0409C12.8603 16.4637 12.647 16.9358 12.2243 17.0954L9.45875 18.1395C9.03601 18.2991 8.56392 18.0858 8.40431 17.6631C8.2447 17.2403 8.45801 16.7683 8.88075 16.6086L11.6462 15.5645C12.069 15.4049 12.5411 15.6182 12.7007 16.0409ZM7.16969 18.1292C7.3293 18.552 7.11599 19.0241 6.69325 19.1837L5.3105 19.7057C4.88776 19.8654 4.41567 19.652 4.25606 19.2293C4.09645 18.8066 4.30976 18.3345 4.7325 18.1749L6.11525 17.6528C6.53799 17.4932 7.01008 17.7065 7.16969 18.1292Z" fill="#FF5995"/>
<path fill-rule="evenodd" clip-rule="evenodd" d="M6.34718 8.94287L22.2149 18.4635L21.373 19.8667L5.50528 10.346L6.34718 8.94287Z" fill="#FF5995"/>
<path fill-rule="evenodd" clip-rule="evenodd" d="M13.4898 4.38742L10.3459 23.889L8.73038 23.6285L11.8743 4.12698L13.4898 4.38742Z" fill="#FF5995"/>
</svg>
