<svg width="38" height="38" viewBox="0 0 38 38" fill="none" xmlns="http://www.w3.org/2000/svg">
<g clip-path="url(#clip0_798:793)">
<path d="M19 0.950195C9.03334 0.950195 0.949951 9.03208 0.949951 19.0002C0.949951 26.9753 6.12128 33.741 13.2946 36.1281C14.1956 36.2951 14.4875 35.7355 14.4875 35.2602V31.8999C9.46654 32.992 8.42115 29.77 8.42115 29.77C7.59987 27.6837 6.41609 27.1287 6.41609 27.1287C4.77806 26.0081 6.54094 26.0322 6.54094 26.0322C8.35346 26.1585 9.3071 27.8928 9.3071 27.8928C10.9166 30.6515 13.5293 29.8543 14.5597 29.3925C14.7206 28.2268 15.1884 27.4295 15.7058 26.9798C11.6972 26.521 7.48255 24.9732 7.48255 18.0586C7.48255 16.0866 8.188 14.4772 9.3417 13.2137C9.15518 12.7579 8.53697 10.9213 9.51768 8.43643C9.51768 8.43643 11.0339 7.95209 14.4829 10.2866C15.9224 9.88645 17.4657 9.68639 19 9.67887C20.5342 9.68639 22.079 9.88645 23.5215 10.2866C26.9675 7.95209 28.4807 8.43643 28.4807 8.43643C29.4629 10.9228 28.8447 12.7594 28.6582 13.2137C29.8164 14.4772 30.5159 16.0881 30.5159 18.0586C30.5159 24.9913 26.2937 26.518 22.2745 26.9648C22.9213 27.5243 23.5125 28.6223 23.5125 30.307V35.2602C23.5125 35.7401 23.8013 36.3041 24.7173 36.1266C31.8846 33.7365 37.0499 26.9723 37.0499 19.0002C37.0499 9.03208 28.9681 0.950195 19 0.950195Z" fill="#FF5995"/>
</g>
<defs>
<clipPath id="clip0_798:793">
<rect width="38" height="38" fill="white" transform="translate(0 38) rotate(-90)"/>
</clipPath>
</defs>
</svg>
