<svg width="38" height="38" viewBox="0 0 38 38" fill="none" xmlns="http://www.w3.org/2000/svg">
<path fill-rule="evenodd" clip-rule="evenodd" d="M19 38C29.4934 38 38 29.4934 38 19C38 8.50659 29.4934 0 19 0C8.50659 0 0 8.50659 0 19C0 29.4934 8.50659 38 19 38ZM16.1611 27.1199L16.5202 22.0255L25.7732 13.6478C26.1758 13.2883 25.6863 13.0895 25.148 13.4489L13.7092 20.6662L8.78458 19.1217C7.71335 18.7868 7.69345 18.0479 9.00806 17.5333L28.2703 10.0971C29.1624 9.76226 29.9423 10.296 29.6519 11.6608L29.651 11.6617L26.3739 27.1454C26.1269 28.2384 25.4819 28.5093 24.5662 27.9948L19.5738 24.3081L17.1644 26.63C16.8975 26.8973 16.675 27.1199 16.1611 27.1199Z" fill="#FF5995"/>
</svg>
