<svg width="28" height="29" viewBox="0 0 28 29" fill="none" xmlns="http://www.w3.org/2000/svg">
<path d="M10.5 8.85889C10.5 9.55508 10.2234 10.2228 9.73116 10.715C9.23887 11.2073 8.57119 11.4839 7.875 11.4839C7.17881 11.4839 6.51113 11.2073 6.01884 10.715C5.52656 10.2228 5.25 9.55508 5.25 8.85889C5.25 8.16269 5.52656 7.49501 6.01884 7.00273C6.51113 6.51045 7.17881 6.23389 7.875 6.23389C8.57119 6.23389 9.23887 6.51045 9.73116 7.00273C10.2234 7.49501 10.5 8.16269 10.5 8.85889ZM8.75 8.85889C8.75 8.62682 8.65781 8.40426 8.49372 8.24017C8.32962 8.07607 8.10706 7.98389 7.875 7.98389C7.64294 7.98389 7.42038 8.07607 7.25628 8.24017C7.09219 8.40426 7 8.62682 7 8.85889C7 9.09095 7.09219 9.31351 7.25628 9.4776C7.42038 9.6417 7.64294 9.73389 7.875 9.73389C8.10706 9.73389 8.32962 9.6417 8.49372 9.4776C8.65781 9.31351 8.75 9.09095 8.75 8.85889Z" fill="#FF5995"/>
<path d="M3.5 2.73389H11.5255C11.9896 2.73399 12.4346 2.91843 12.7628 3.24664L25.0128 15.4966C25.3408 15.8248 25.5251 16.2698 25.5251 16.7339C25.5251 17.1979 25.3408 17.643 25.0128 17.9711L16.9872 25.9966C16.6591 26.3247 16.214 26.509 15.75 26.509C15.286 26.509 14.8409 26.3247 14.5128 25.9966L2.26275 13.7466C1.93454 13.4185 1.7501 12.9735 1.75 12.5094V4.48389C1.75 4.01976 1.93437 3.57464 2.26256 3.24645C2.59075 2.91826 3.03587 2.73389 3.5 2.73389ZM3.5 12.5094L15.75 24.7594L23.7755 16.7339L11.5255 4.48389H3.5V12.5094Z" fill="#FF5995"/>
</svg>
