<svg width="31" height="32" viewBox="0 0 31 32" fill="none" xmlns="http://www.w3.org/2000/svg">
<path d="M2.85107 11.4502L3.92386 10.7602V10.7502C4.00259 10.2002 4.20928 9.68017 4.51438 9.23017C4.81949 8.77018 5.22301 8.40018 5.69543 8.12018L13.6971 3.44022C14.2482 3.12022 14.8781 2.95022 15.5178 2.95022C16.1576 2.95022 16.7776 3.12022 17.3386 3.44022C18.0669 3.72021 18.6968 4.22021 19.1496 4.86021C19.6023 5.5002 19.8582 6.2702 19.8877 7.06019V20.2401L22.7912 21.9501V7.05019C22.7715 5.7302 22.3778 4.45021 21.6593 3.35022C20.9408 2.25023 19.9369 1.38023 18.746 0.850236V0.860235C17.752 0.29024 16.63 -0.00975782 15.4982 0.000242102C14.3565 0.000242102 13.2443 0.31024 12.2503 0.880236L4.24864 5.5602C3.25459 6.1402 2.42786 6.98019 1.85702 7.99018C1.28617 9.00017 0.981069 10.1402 0.981069 11.3102V12.8901L0.990911 12.8801C1.54207 12.3202 2.17196 11.8402 2.85107 11.4502ZM18.0571 29.4L16.9548 28.74C16.4332 28.97 15.8722 29.07 15.3013 29.04C14.7403 29.01 14.1892 28.84 13.6971 28.55L5.69543 23.8701C5.10491 23.5201 4.62264 23.0101 4.29786 22.3901C3.97307 21.7701 3.83528 21.0801 3.87464 20.3801C3.78607 19.6401 3.91401 18.8901 4.2388 18.2201C4.56359 17.5501 5.07538 16.9901 5.70528 16.6101L16.9548 10.0502V6.62019L4.26833 14.0401C3.69749 14.3501 3.19554 14.7601 2.77233 15.2501C2.16212 15.8901 1.6897 16.6501 1.38459 17.4901C1.07949 18.3201 0.931858 19.2101 0.971227 20.1001C0.882648 21.3601 1.13854 22.6201 1.71923 23.7401C2.29991 24.8601 3.17586 25.79 4.24864 26.43L12.2503 31.11C13.2443 31.69 14.3762 32 15.5178 32C16.6595 32 17.7914 31.69 18.7854 31.11L20.1535 30.31C20.1436 30.3 20.1436 30.3 20.1239 30.3C19.3956 30.09 18.7067 29.79 18.0571 29.4ZM29.1787 7.98018C28.6078 6.97019 27.7811 6.1302 26.787 5.5502L25.4091 4.74021C25.4091 4.75021 25.419 4.78021 25.419 4.80021C25.606 5.5302 25.6946 6.29019 25.6946 7.05019V8.36018C26.1473 8.70018 26.5115 9.15017 26.7674 9.66017C27.0233 10.1702 27.1512 10.7302 27.1512 11.3002V20.6701C27.1512 21.3101 26.9839 21.9501 26.6689 22.5001C26.354 23.0601 25.9013 23.5201 25.3501 23.8401C24.7497 24.3401 24.0116 24.6501 23.234 24.7301C22.4565 24.8101 21.679 24.6501 20.99 24.2801L9.69132 17.6801L6.76822 19.3901L19.5236 26.85C20.6849 27.5 22.0136 27.8 23.3423 27.7C24.671 27.6 25.9406 27.1 26.9937 26.28C27.9287 25.68 28.6964 24.8601 29.2279 23.8801C29.7594 22.9001 30.0448 21.8001 30.0448 20.6801V11.3102C30.0546 10.1402 29.7495 8.99017 29.1787 7.98018Z" fill="#BB6BD9"/>
</svg>
