<svg width="67" height="67" viewBox="0 0 67 67" fill="none" xmlns="http://www.w3.org/2000/svg">
<rect width="67" height="67" rx="16" fill="white" fill-opacity="0.04"/>
<g opacity="0.4">
<g clip-path="url(#clip0_849_4488)">
<g filter="url(#filter0_f_849_4488)">
<rect x="10" y="-31" width="46" height="46" rx="23" fill="white" fill-opacity="0.24"/>
</g>
</g>
</g>
<path d="M39.0494 35.2061C38.4439 39.965 36.4053 40.4359 35.3289 40.0659C34.5216 39.7884 34.2391 38.7351 34.3198 38.2507C34.4207 37.6452 35.3289 36.737 35.3289 32.5997C35.3289 27.4363 30.8755 25.3382 28.0634 25.216C25.7425 25.1151 21.1005 25.5359 19.2841 31.1869C17.9924 38.8571 23.3072 41.0933 26.1327 41.4629C32.3891 41.5974 45.198 41.7858 46.3282 41.4629C47.4584 41.14 47.7409 40.5372 47.7409 40.0659C47.7409 39.3583 47.1355 38.0489 46.3282 38.0489C44.4109 38.0489 43.8054 37.0398 43.8054 36.0307C43.8054 35.0215 44.5118 34.517 45.2181 34.2143C45.9245 33.9115 48.1446 34.0124 47.7409 31.6915C47.418 29.8347 45.6086 29.9123 44.4986 30.3796C43.8595 30.6487 42.2382 31.0486 41.6731 30.1606C41.108 29.2726 41.6526 28.2769 41.8881 27.9406C47.5391 24.106 50.6673 28.2605 51.3737 31.1869C51.9388 33.5281 50.4655 35.3915 49.7591 36.0307C50.331 36.5352 51.6159 38.1901 51.3737 40.7735C51.1315 43.3568 48.4473 44.9444 47.1355 45.4153H24.6324C15.7523 43.2357 14.6662 34.6007 15.9408 29.757C17.5553 23.6216 23.7242 21.374 28.0634 21.5992C37.3472 22.0836 39.6641 30.3746 39.0494 35.2061Z" fill="white"/>
<defs>
<filter id="filter0_f_849_4488" x="-30.7037" y="-71.7037" width="127.407" height="127.407" filterUnits="userSpaceOnUse" color-interpolation-filters="sRGB">
<feFlood flood-opacity="0" result="BackgroundImageFix"/>
<feBlend mode="normal" in="SourceGraphic" in2="BackgroundImageFix" result="shape"/>
<feGaussianBlur stdDeviation="20.3519" result="effect1_foregroundBlur_849_4488"/>
</filter>
<clipPath id="clip0_849_4488">
<path d="M0 16C0 7.16344 7.16344 0 16 0H51C59.8366 0 67 7.16344 67 16V34H0V16Z" fill="white"/>
</clipPath>
</defs>
</svg>
