<svg width="67" height="67" viewBox="0 0 67 67" fill="none" xmlns="http://www.w3.org/2000/svg">
<rect width="67" height="67" rx="16" fill="white" fill-opacity="0.04"/>
<g opacity="0.4">
<g clip-path="url(#clip0_849_4472)">
<g filter="url(#filter0_f_849_4472)">
<rect x="10" y="-31" width="46" height="46" rx="23" fill="white" fill-opacity="0.24"/>
</g>
</g>
</g>
<path d="M38.1288 49.3674C33.091 49.3674 28.49 47.0862 25.4418 43.3481C24.9909 42.7952 25.4826 41.9873 26.1795 42.1194C34.1035 43.6214 41.3804 37.5743 41.3804 29.6129C41.3804 25.0268 38.9138 20.8095 34.9049 18.5389C34.287 18.1888 34.4424 17.2563 35.1446 17.1272C36.1289 16.9466 37.1278 16.8555 38.1288 16.8555C47.1442 16.8555 54.4614 24.1269 54.4614 33.1114C54.4614 42.0846 47.1557 49.3674 38.1288 49.3674Z" fill="white"/>
<path fill-rule="evenodd" clip-rule="evenodd" d="M10.9356 20.4168L10.9765 20.4418L11.0895 20.442L11.0892 20.5113C15.154 23.0506 19.8715 28.8481 22.568 32.4361L22.7714 32.7076C23.4026 33.5531 23.9098 34.2592 24.2543 34.7468L24.256 34.7499C24.3111 34.737 24.3678 34.7305 24.4252 34.7305C24.6786 34.7305 24.9119 34.8569 25.049 35.0691C25.0817 35.1198 25.1074 35.173 25.1263 35.2276C25.2969 35.18 25.466 35.1319 25.6415 35.118C25.6537 35.1215 25.666 35.1255 25.6782 35.1299C25.6974 35.1075 25.7082 35.101 25.7171 35.0992L25.7235 35.0985C25.7246 35.0985 25.7256 35.0985 25.7267 35.0985C25.7336 35.0985 25.7409 35.1 25.7472 35.1029C25.7593 35.1092 25.8119 35.1449 25.8721 35.1866L25.9457 35.2379C25.9944 35.2719 26.0395 35.3038 26.0641 35.3212C26.084 35.3352 26.0897 35.362 26.0769 35.3824L26.0698 35.3944C26.1487 35.4658 26.2198 35.5371 26.2779 35.5912C26.3236 35.6347 26.3723 35.6761 26.4191 35.7183C26.6317 35.9226 26.8339 36.1474 27.0299 36.3705L26.9314 36.2594L26.9676 36.2758C27.1631 36.3638 27.378 36.4594 27.597 36.5553L27.7618 36.6272C27.8325 36.6579 27.9032 36.6885 27.9734 36.7187C28.2204 36.7246 28.4644 36.7418 28.712 36.7799C28.8383 36.678 28.9692 36.5783 29.1025 36.4806C29.0007 36.3481 28.9285 36.2301 28.9237 36.1845C28.9167 36.1166 28.9952 36.0106 29.0525 35.9668C29.0875 35.94 29.1171 35.9319 29.1425 35.9413C29.1507 35.9445 29.1596 35.9507 29.1705 35.9611C29.1881 35.9469 29.2035 35.9344 29.2114 35.9266C29.3604 35.7854 29.4986 35.6343 29.6564 35.501C29.8281 35.3567 29.9951 35.2087 30.1648 35.0627C30.2076 35.026 30.2518 34.9899 30.2976 34.9556L30.342 34.9237C30.3405 34.912 30.339 34.9003 30.3375 34.8887C30.3302 34.8262 30.3222 34.761 30.3107 34.6973C30.3084 34.6868 30.3143 34.6756 30.3237 34.6701C30.4423 34.6012 30.557 34.5208 30.6686 34.4407L30.6737 34.5127C30.6707 34.4646 30.6667 34.4159 30.6617 34.3681C30.6541 34.3004 30.6405 34.2308 30.6259 34.1622C30.5196 34.2024 30.4073 34.2408 30.2891 34.2769C29.9918 34.368 29.643 34.3939 29.2532 34.355C28.1552 34.2449 27.0328 33.6501 26.5836 32.9411C26.3583 32.5849 26.3081 32.2253 26.4359 31.8718C26.5386 31.5455 26.5417 31.2785 26.5401 31.2022L26.5307 31.2017C26.4052 31.1893 25.7877 31.0877 25.5124 30.3112C25.5056 30.3075 25.4985 30.3043 25.4914 30.301L25.5013 30.2789C25.3869 30.5217 25.435 30.7456 25.4452 30.7853C25.448 30.7899 25.4497 30.7954 25.449 30.8014C25.4473 30.8154 25.4343 30.8265 25.4201 30.8236C25.4155 30.8233 25.4106 30.8217 25.4064 30.8185C25.395 30.8095 25.1717 30.6292 25.0965 30.3278L25.0833 30.2664L25.0819 30.2758C25.0811 30.2811 25.0808 30.2839 25.0808 30.2839C25.0797 30.2952 25.0713 30.3042 25.0609 30.3061C25.0499 30.3084 25.0388 30.3031 25.0338 30.2937C25.0323 30.2911 24.9745 30.1856 24.9328 30.0257C24.3204 29.7009 23.9421 29.417 23.8088 29.2513C23.5669 28.95 23.4708 28.7089 23.5228 28.5343C23.5504 28.4433 23.6113 28.3943 23.6521 28.3706C23.9187 28.0502 24.8996 27.2899 26.0428 26.9804L26.0386 26.9852C26.0778 26.9453 26.1324 26.8835 26.2012 26.8047C26.2912 26.7024 26.4028 26.5751 26.5388 26.4312C27.8039 25.0956 29.2131 24.4954 30.7266 24.6475C30.9154 24.6663 31.108 24.6974 31.2992 24.7403C32.4792 25.0018 33.4456 25.5699 34.094 26.3817C34.6148 27.0352 34.9247 27.853 34.9438 28.6266C34.9448 28.6295 34.9455 28.6335 34.9446 28.6374L34.9437 28.6392L34.9442 28.7483C34.9414 28.9324 34.9214 29.1077 34.8849 29.27L34.8782 29.2605C35.4162 30.0069 35.8041 30.9409 35.96 31.3478C35.9818 31.3888 35.9966 31.4282 36.0046 31.4657C36.0242 31.5202 36.0349 31.5511 36.0356 31.553C36.0391 31.5651 36.0339 31.5779 36.0223 31.5837C36.0186 31.5856 36.0133 31.5864 36.0087 31.586C36.0029 31.6011 35.9981 31.6162 35.9918 31.6309C35.8772 31.8968 35.3168 31.9708 34.728 32.0109L34.5035 32.0128C34.4155 32.1495 34.3144 32.2807 34.2001 32.4059C33.9769 32.6482 33.1894 33.4138 32.2163 33.3669L32.1245 33.36C32.0844 33.356 32.0556 33.3512 32.0401 33.3483C31.9981 33.3879 31.8285 33.5385 31.5346 33.7202L31.5077 33.6091C31.5249 33.6883 31.5465 33.7683 31.5673 33.8454L31.5822 33.8991C31.5948 33.8958 31.6067 33.8931 31.6183 33.8909C31.6773 33.8796 31.7282 33.8796 31.7746 33.8898C31.8579 33.909 32.0822 34.1677 32.0642 34.2469C32.0599 34.2655 32.0545 34.2842 32.0481 34.303C32.1098 34.3689 32.1643 34.4418 32.2178 34.5129C32.252 34.5604 32.2889 34.6093 32.3258 34.6538C32.3565 34.6903 32.3848 34.7296 32.4127 34.7668C32.5585 34.898 32.6888 35.0557 32.7971 35.2325C32.954 35.4888 33.0726 35.7211 33.1588 35.943C33.2461 36.1678 33.3235 36.3903 33.3957 36.623C33.4935 36.9377 33.6089 37.2506 33.7209 37.5533C33.7476 37.6263 33.7751 37.6996 33.8017 37.7727C33.871 37.9612 33.9291 38.1584 33.9811 38.3765C33.9933 38.4761 34.0048 38.5821 34.0157 38.7014C34.021 38.7567 34.0294 38.8127 34.0373 38.867C34.0473 38.931 34.0573 38.9962 34.0623 39.0622C34.084 39.1061 34.1042 39.1564 34.1245 39.2132C34.2421 39.541 34.1599 39.7462 34.1404 39.7877C34.1473 39.8065 34.1655 39.8662 34.1881 39.9379L34.1988 39.9723C34.2435 40.115 34.276 40.2117 34.2958 40.2587C34.3226 40.3235 34.3518 40.4223 34.2958 40.5324C34.264 40.5959 34.208 40.6544 34.1282 40.7075C34.1306 40.7716 34.132 40.8348 34.1329 40.8966C34.1384 41.2269 34.1084 41.5452 33.9261 41.8313C33.7544 42.1012 33.5119 42.2612 33.2391 42.4171C33.0929 42.5002 32.9416 42.5313 32.7857 42.5919C32.48 42.71 31.3914 42.8061 30.8817 42.7795C30.7577 42.7731 29.3146 42.6546 28.986 42.5311C28.986 42.5596 28.9778 42.5886 28.9577 42.6176C28.9209 42.672 29.0227 43.0348 29.008 42.9734L29.0589 43.1924C29.0914 43.3384 29.1213 43.4848 29.1492 43.6326C29.2 43.9012 29.2233 44.173 29.2577 44.4446C29.3467 45.1443 29.3507 45.8812 29.3614 46.5863C29.3641 46.7745 29.3402 46.9989 29.3691 47.2015L29.3698 47.2306C29.3633 47.2907 29.3607 47.3505 29.3702 47.4088C29.3951 47.56 29.5603 47.7426 29.3811 47.8623C29.3672 47.8711 29.3616 47.8836 29.3614 47.8962L29.3626 47.8903C29.4135 48.0313 29.433 48.1942 29.4523 48.3135C29.4838 48.5494 29.4852 48.7863 29.4758 49.0232C29.4661 49.0976 29.4548 49.1711 29.4389 49.2426C29.3119 49.3924 29.1174 49.4715 28.9357 49.5373C28.7005 49.6218 28.4619 49.7032 28.2198 49.7732C27.9458 49.8541 27.6612 49.9111 27.3744 49.9585C27.2666 49.9667 27.1596 49.9755 27.0496 49.9796C26.4598 50.0091 25.7959 50.0078 25.2321 49.8041C25.1564 49.7787 25.0934 49.7479 25.0383 49.7151C24.9638 49.6817 24.8981 49.6406 24.8484 49.5883C24.786 49.5211 24.755 49.4337 24.7443 49.3393L24.6439 49.3565C24.5489 49.3639 24.4547 49.3716 24.3579 49.3751C23.8384 49.4015 23.2534 49.4 22.757 49.221C22.6905 49.1982 22.6346 49.171 22.5864 49.1422C22.5207 49.1129 22.463 49.0766 22.4192 49.0304C22.2691 48.8693 22.3249 48.5767 22.3883 48.3874C22.4651 48.1578 22.6443 48.022 22.8864 47.9984C23.3008 47.9511 23.7062 47.8329 24.107 47.7199C24.3195 47.6593 24.5245 47.583 24.689 47.4337L24.6425 47.4715C24.622 47.4407 24.6116 47.4066 24.607 47.3714C24.6448 47.2381 24.6953 47.1035 24.6968 46.9414C24.7022 46.3201 24.749 45.7034 24.7616 45.0837C24.7782 44.2998 24.8388 43.7109 24.8388 42.7175C24.8214 42.3394 24.8399 41.9558 24.8458 41.5808C24.8514 41.2603 24.9314 40.9551 25.1326 40.6987C25.2262 40.5798 25.3344 40.4578 25.4782 40.3983C25.6018 40.3471 25.8542 40.1595 27.2432 39.9692C27.9128 39.8772 29.5106 39.8054 30.3566 39.8469L30.3603 39.8706C30.3515 39.8229 30.3431 39.7755 30.3347 39.7283C30.3336 39.7212 30.3357 39.7145 30.3404 39.7093C30.345 39.7038 30.3532 39.6999 30.359 39.7011L30.3878 39.702L30.3767 39.6494C30.3713 39.6224 30.3664 39.5957 30.3617 39.5694C30.2815 39.1202 30.2303 38.67 30.2112 38.2307L30.2091 38.1724C30.0286 38.2815 29.8457 38.3734 29.6746 38.4286C29.652 38.4357 29.6279 38.4414 29.6025 38.4455L29.5634 38.4503C29.1415 38.4882 28.434 38.1126 27.8326 37.728C27.3562 37.7158 26.8805 37.6647 26.4122 37.5749L26.4251 37.5773C26.3747 37.6794 26.3024 37.7666 26.1872 37.8054L26.2118 37.795L26.4638 38.1954C26.4705 38.2061 26.4724 38.2188 26.4695 38.2307C26.4665 38.2428 26.4586 38.2533 26.4479 38.2596L25.8157 38.6208C25.8085 38.6245 25.8006 38.6266 25.7928 38.6266C25.7884 38.6266 25.7838 38.6258 25.78 38.6245C25.768 38.6212 25.7578 38.6133 25.7521 38.6022L25.4141 37.9542C25.3706 37.9933 25.3237 38.023 25.2801 38.0361C25.1408 38.0789 24.6127 38.0208 24.6899 37.7812C24.5457 37.729 24.4356 37.6279 24.449 37.466C24.4299 37.452 24.4131 37.4371 24.3997 37.4192C24.372 37.3811 24.3552 37.3437 24.3439 37.3015C24.3361 37.279 24.3307 37.2566 24.3269 37.2399C24.3049 37.1461 24.3126 37.0563 24.3256 36.9627C24.3061 36.9422 24.2891 36.9215 24.2807 36.8998C24.2432 36.8041 24.3265 36.6418 24.3693 36.5607C24.4254 36.4539 24.4763 36.3649 24.5524 36.3035L24.4998 36.2024L24.4866 36.2036L24.426 36.2061C24.1723 36.2061 23.9394 36.0795 23.8022 35.8674C23.6952 35.7019 23.6593 35.5043 23.7013 35.3119C23.7113 35.2661 23.7254 35.2219 23.7433 35.1798C23.6778 35.0893 23.3129 34.5892 22.7407 33.826L22.4446 34.0468C22.4261 34.0603 22.4041 34.0677 22.3812 34.0677C22.3479 34.0677 22.3166 34.0518 22.2967 34.0252C22.2619 33.9789 22.2711 33.9128 22.3177 33.8782L22.6143 33.6577C22.1894 33.0924 21.6641 32.401 21.0707 31.6347L20.9883 31.6957C20.9702 31.7099 20.9483 31.7172 20.9249 31.7172C20.8917 31.7172 20.8603 31.7013 20.8399 31.675C20.805 31.6286 20.8147 31.5624 20.8614 31.5275L20.9415 31.4681C20.3978 30.7679 19.8006 30.0099 19.1732 29.2316L19.0497 29.3234C19.0316 29.3368 19.0093 29.3443 18.9859 29.3443C18.9529 29.3443 18.9213 29.3287 18.9011 29.3023C18.8662 29.2553 18.8757 29.1895 18.9224 29.1546L19.0404 29.0671C18.3941 28.2679 17.7181 27.4502 17.0373 26.6543L16.8958 26.7594C16.8775 26.7727 16.8556 26.7805 16.8323 26.7805C16.7992 26.7805 16.7677 26.7648 16.7475 26.7387C16.7125 26.6917 16.722 26.6257 16.7687 26.5908L16.8994 26.4934C16.0896 25.551 15.2756 24.6432 14.4995 23.8375L14.3862 23.9649C14.3658 23.9879 14.3367 24.0004 14.3064 24.0004C14.2808 24.0004 14.2559 23.9916 14.2364 23.9747C14.2149 23.9559 14.2025 23.9298 14.2004 23.9016C14.1991 23.8734 14.2086 23.8465 14.2271 23.8256L14.3518 23.6849C13.0507 22.3477 11.8652 21.3134 10.9983 20.9069L12.6594 49.2413L12.6703 49.4302L12.7287 49.431C13.0412 49.4382 13.2896 49.499 13.3194 49.5752L13.3224 49.5907C13.3224 49.6792 13.0284 49.7509 12.6654 49.7509C12.3022 49.7509 12.0083 49.6792 12.0083 49.5907C12.0083 49.5116 12.2424 49.4459 12.5509 49.4326L12.5454 49.3431C12.1047 49.3592 11.7651 49.4624 11.7651 49.5881C11.7651 49.7243 12.1679 49.8352 12.6654 49.8352C13.1627 49.8352 13.5656 49.7243 13.5656 49.5881C13.5656 49.4513 13.1627 49.3409 12.6654 49.3409L12.7372 49.3415C13.3305 49.3505 13.8008 49.4709 13.8008 49.6178C13.8008 49.7709 13.2922 49.8952 12.6654 49.8952C12.0381 49.8952 11.5299 49.7709 11.5299 49.6178C11.5299 49.4749 11.9744 49.3577 12.5454 49.3431L12.5398 49.2437C11.8231 49.2664 11.2664 49.4337 11.2664 49.6368C11.2664 49.8551 11.9112 50.0323 12.7062 50.0323C13.5021 50.0323 14.1466 49.8551 14.1466 49.6368C14.1466 49.4182 13.5021 49.2411 12.7062 49.2411L12.7969 49.2416C13.7581 49.2532 14.5229 49.4474 14.5229 49.6846C14.5229 49.9288 13.7096 50.1282 12.7062 50.1282C11.7035 50.1282 10.8906 49.9288 10.8906 49.6846C10.8906 49.4537 11.6151 49.2643 12.5398 49.2437L10.8776 20.8964L10.8571 20.8945C10.8554 20.8942 10.8538 20.8938 10.8522 20.8934L10.772 20.8932V20.442L10.8652 20.4416C10.8707 20.4336 10.875 20.4283 10.8764 20.4264C10.8913 20.4091 10.9163 20.4051 10.9356 20.4168ZM12.6703 49.4302L12.6748 49.5048C12.6769 49.5378 12.6515 49.566 12.6186 49.5679H12.6152C12.5835 49.5679 12.5569 49.5437 12.5554 49.5117L12.5509 49.4337C12.3181 49.4479 12.144 49.5048 12.144 49.5737C12.144 49.6523 12.3776 49.7164 12.6654 49.7164C12.9533 49.7164 13.1862 49.6523 13.1862 49.5737C13.1862 49.4939 12.9533 49.4302 12.6654 49.4302L12.6703 49.4302ZM26.6557 42.0872C26.768 42.836 26.7707 43.7216 26.6807 44.4244C26.5644 45.3334 26.4041 46.8677 26.5136 47.2983C26.5502 47.4403 26.5311 47.5212 26.3961 47.6104L26.415 47.5968C26.4456 47.7048 26.46 47.8197 26.4744 47.9077C26.4861 47.9968 26.4931 48.0861 26.4966 48.1755L26.5941 48.1482L26.7651 48.1C26.95 48.0471 27.1301 47.9841 27.2882 47.8808C27.2734 47.8612 27.2601 47.84 27.2482 47.8174C27.2411 47.6891 27.3133 47.5523 27.3341 47.4113C27.2906 47.0448 26.8913 42.8389 26.6958 42.1781C26.6874 42.1513 26.6828 42.1225 26.6756 42.0947C26.6756 42.0932 26.6752 42.0914 26.6748 42.0899L26.667 42.0886C26.663 42.0884 26.6595 42.0876 26.6557 42.0872ZM22.9144 33.6962L22.8368 33.7541C23.3429 34.4298 23.6875 34.9004 23.8064 35.0633L23.8165 35.0475L23.8182 35.0449L23.6819 34.8364C23.4291 34.4521 23.173 34.0719 22.9144 33.6962ZM21.3071 31.4588L21.1682 31.5621C21.7603 32.3275 22.2853 33.0194 22.7104 33.5855L22.7944 33.5224C22.3056 32.8172 21.8082 32.1282 21.3071 31.4588ZM19.4205 29.0471L19.2718 29.1579C19.8977 29.935 20.4949 30.6937 21.0391 31.3954L21.1802 31.2898C20.5955 30.5136 20.0064 29.7643 19.4205 29.0471ZM17.2405 26.5026L17.137 26.58C17.6529 27.1838 18.1939 27.8326 18.7599 28.5264C18.8872 28.6825 19.0137 28.8383 19.139 28.9934L19.2864 28.8835C18.5947 28.0417 17.9085 27.2453 17.2405 26.5026ZM14.5901 23.7351L14.5827 23.7438C15.3124 24.5007 16.1184 25.3929 16.9994 26.4193L17.0987 26.3455C16.2191 25.3738 15.373 24.4972 14.5901 23.7351Z" fill="white"/>
<defs>
<filter id="filter0_f_849_4472" x="-30.7037" y="-71.7037" width="127.407" height="127.407" filterUnits="userSpaceOnUse" color-interpolation-filters="sRGB">
<feFlood flood-opacity="0" result="BackgroundImageFix"/>
<feBlend mode="normal" in="SourceGraphic" in2="BackgroundImageFix" result="shape"/>
<feGaussianBlur stdDeviation="20.3519" result="effect1_foregroundBlur_849_4472"/>
</filter>
<clipPath id="clip0_849_4472">
<path d="M0 16C0 7.16344 7.16344 0 16 0H51C59.8366 0 67 7.16344 67 16V34H0V16Z" fill="white"/>
</clipPath>
</defs>
</svg>
