<svg width="32" height="32" viewBox="0 0 32 32" fill="none" xmlns="http://www.w3.org/2000/svg">
<path d="M13.332 10.5652C13.332 10.2531 13.5851 10 13.8972 10H17.1001C17.4123 10 17.6654 10.2531 17.6654 10.5652V14.3333H13.332V10.5652Z" fill="#0C0B0B"/>
<path d="M9 14.8992C9 14.587 9.25306 14.334 9.56522 14.334H13.3333V18.6673H9.56522C9.25306 18.6673 9 18.4143 9 18.1021V14.8992Z" fill="#0C0B0B"/>
<path d="M17.668 14.334H21.4361C21.7482 14.334 22.0013 14.587 22.0013 14.8992V18.1021C22.0013 18.4143 21.7482 18.6673 21.4361 18.6673H17.668V14.334Z" fill="#0C0B0B"/>
<path d="M13.332 18.666H17.6654V22.4341C17.6654 22.7463 17.4123 22.9993 17.1001 22.9993H13.8972C13.5851 22.9993 13.332 22.7463 13.332 22.4341V18.666Z" fill="#0C0B0B"/>
</svg>
