<svg width="16" height="16" viewBox="0 0 16 16" fill="none" xmlns="http://www.w3.org/2000/svg">
<path fill-rule="evenodd" clip-rule="evenodd" d="M8.00016 14.6663C4.31826 14.6663 1.3335 11.6816 1.3335 7.99967C1.3335 4.31778 4.31826 1.33301 8.00016 1.33301C11.6821 1.33301 14.6668 4.31778 14.6668 7.99967C14.6668 11.6816 11.6821 14.6663 8.00016 14.6663ZM8.00016 2.66634C5.05464 2.66634 2.66683 5.05416 2.66683 7.99967C2.66683 10.9452 5.05464 13.333 8.00016 13.333C10.9457 13.333 13.3335 10.9452 13.3335 7.99967C13.3335 5.05416 10.9457 2.66634 8.00016 2.66634ZM8.00016 7.16634C8.4604 7.16634 8.8335 7.53944 8.8335 7.99967V10.6663C8.8335 11.1266 8.4604 11.4997 8.00016 11.4997C7.53993 11.4997 7.16683 11.1266 7.16683 10.6663V7.99967C7.16683 7.53944 7.53993 7.16634 8.00016 7.16634ZM8.00016 4.66634C7.53993 4.66634 7.16683 5.03944 7.16683 5.49967C7.16683 5.95991 7.53993 6.33301 8.00016 6.33301C8.4604 6.33301 8.8335 5.95991 8.8335 5.49967C8.8335 5.03944 8.4604 4.66634 8.00016 4.66634Z" fill="#0C0B0B"/>
</svg>
