<svg xmlns="http://www.w3.org/2000/svg" xmlns:xlink="http://www.w3.org/1999/xlink" viewBox="0 0 360 200"><defs><style>.cls-1,.cls-2,.cls-3,.cls-4{fill-opacity:0.4;}.cls-1{fill:url(#linear-gradient);}.cls-2{fill:url(#linear-gradient-2);}.cls-3{fill:url(#linear-gradient-3);}.cls-4{fill:url(#linear-gradient-4);}.cls-5{mask:url(#mask);}.cls-6{fill:#ff76b0;}.cls-7{fill-opacity:0.6;fill:url(#linear-gradient-5);}</style><linearGradient id="linear-gradient" x1="1368.22" y1="629.16" x2="1441.47" y2="873.59" gradientTransform="matrix(1, 0, 0, -1, 0, 680)" gradientUnits="userSpaceOnUse"><stop offset="0" stop-color="#ff5995"/><stop offset="0.4" stop-color="#ff5995" stop-opacity="0.48"/><stop offset="0.73" stop-color="#ff5995" stop-opacity="0.32"/><stop offset="1" stop-color="#ff5995" stop-opacity="0"/></linearGradient><linearGradient id="linear-gradient-2" x1="130.61" y1="600.11" x2="86.82" y2="818.2" xlink:href="#linear-gradient"/><linearGradient id="linear-gradient-3" x1="1315.2" y1="12.44" x2="1016.69" y2="62.72" xlink:href="#linear-gradient"/><linearGradient id="linear-gradient-4" x1="-83.78" y1="-105.84" x2="-10.53" y2="138.59" xlink:href="#linear-gradient"/><mask id="mask" x="-232.94" y="-200.93" width="1797.67" height="1080.56" maskUnits="userSpaceOnUse"><g id="mask0_899:732" data-name="mask0 899:732"><path class="cls-1" d="M1444.07-192.81C1535-164,1585.43-66.9,1556.62,24s-125.92,141.29-216.9,112.47S1198.36,10.6,1227.17-80.34,1353.09-221.63,1444.07-192.81Z"/><path class="cls-2" d="M89.14-138.67A150.58,150.58,0,1,1-31.68,36.74,150.61,150.61,0,0,1,89.14-138.67Z"/><path class="cls-3" d="M1017.22,614.11c20.55-111.34,127.44-184.93,238.72-164.39s184.85,127.46,164.29,238.8S1292.8,873.44,1181.51,852.9,996.66,725.44,1017.22,614.11Z"/><path class="cls-4" d="M-7.93,542.19C83,571,133.43,668.1,104.62,759S-21.3,900.34-112.28,871.51-253.64,745.6-224.83,654.66-98.91,513.37-7.93,542.19Z"/></g></mask><linearGradient id="linear-gradient-5" x1="208.51" y1="571.07" x2="339.28" y2="580.74" xlink:href="#linear-gradient"/></defs><g id="Layer_2" data-name="Layer 2"><g id="Layer_1-2" data-name="Layer 1"><g class="cls-5"><rect class="cls-6" width="360" height="200"/></g><path class="cls-7" d="M339.38,100.64a88.76,88.76,0,1,1-93.77-83.48A88.77,88.77,0,0,1,339.38,100.64Z"/></g></g></svg>