<?xml version="1.0" encoding="utf-8"?>
<!-- Generator: Adobe Illustrator 25.0.0, SVG Export Plug-In . SVG Version: 6.00 Build 0)  -->
<svg version="1.1" id="Layer_1" xmlns="http://www.w3.org/2000/svg" xmlns:xlink="http://www.w3.org/1999/xlink" x="0px" y="0px"
	 viewBox="0 0 1434 2485" style="enable-background:new 0 0 1434 2485;" xml:space="preserve">
<style type="text/css">
	.st0{fill:#C4C4C4;filter:url(#Adobe_OpacityMaskFilter);}
	.st1{mask:url(#mask0_687:702_1_);}
	.st2{fill:url(#SVGID_1_);}
	.st3{fill:#FF5995;fill-opacity:0.55;}
</style>
<defs>
	<filter id="Adobe_OpacityMaskFilter" filterUnits="userSpaceOnUse" x="-84.3" y="161.1" width="1957.3" height="2157.2">
		<feColorMatrix  type="matrix" values="1 0 0 0 0  0 1 0 0 0  0 0 1 0 0  0 0 0 1 0"/>
	</filter>
</defs>
<mask maskUnits="userSpaceOnUse" x="-84.3" y="161.1" width="1957.3" height="2157.2" id="mask0_687:702_1_">
	<rect class="st0" width="1434" height="2485"/>
</mask>
<g class="st1">
	
		<linearGradient id="SVGID_1_" gradientUnits="userSpaceOnUse" x1="2643.8865" y1="1501.0559" x2="986.1566" y2="1354.686" gradientTransform="matrix(1 0 0 -1 0 2486)">
		<stop  offset="0" style="stop-color:#FF5995"/>
		<stop  offset="0.3368" style="stop-color:#FF5995;stop-opacity:0.4802"/>
		<stop  offset="0.5147" style="stop-color:#FF5995;stop-opacity:0.3215"/>
		<stop  offset="1" style="stop-color:#FF5995;stop-opacity:0"/>
	</linearGradient>
	<path class="st2" d="M1071.8,2101.3c531.4-98.1,882.8-608.2,784.8-1139.4c-98-531.2-608.3-882.4-1139.7-784.3
		c-531.4,98-882.8,608.2-784.8,1139.4C30.1,1848.2,540.4,2199.3,1071.8,2101.3z"/>
	<g>
		<path class="st3" d="M40.6,1948.4c-84.8,84.3-85.3,221.3-1,306.1c84.2,84.8,221.3,85.2,306.1,0.9c84.8-84.3,85.3-221.3,1-306.1
			C262.5,1864.5,125.4,1864.1,40.6,1948.4z"/>
	</g>
</g>
</svg>
