<?xml version="1.0" encoding="utf-8"?>
<!-- Generator: Adobe Illustrator 25.0.0, SVG Export Plug-In . SVG Version: 6.00 Build 0)  -->
<svg version="1.1" id="Layer_1" xmlns="http://www.w3.org/2000/svg" xmlns:xlink="http://www.w3.org/1999/xlink" x="0px" y="0px"
	 viewBox="0 0 1440 618.6" style="enable-background:new 0 0 1440 618.6;" xml:space="preserve">
<style type="text/css">
	.st0{fill:#FF5995;fill-opacity:0.55;}
	.st1{fill:url(#SVGID_1_);}
	.st2{opacity:0.35;}
	.st3{fill:url(#SVGID_2_);stroke:#FFFFFF;}
	.st4{fill:#FFFFFF;stroke:#FFFFFF;}
	.st5{fill:url(#SVGID_3_);stroke:#FFFFFF;}
	.st6{fill:url(#SVGID_4_);stroke:#FFFFFF;}
	.st7{fill:url(#SVGID_5_);stroke:#FFFFFF;}
	.st8{fill:url(#SVGID_6_);stroke:#FFFFFF;}
	.st9{fill:url(#SVGID_7_);stroke:#FFFFFF;}
	.st10{fill:url(#SVGID_8_);stroke:#FFFFFF;}
	.st11{fill:url(#SVGID_9_);stroke:#FFFFFF;}
	.st12{fill:url(#SVGID_10_);stroke:#FFFFFF;}
	.st13{fill:url(#SVGID_11_);stroke:#FFFFFF;}
	.st14{fill:url(#SVGID_12_);}
	.st15{fill:#FFFFFF;}
	.st16{fill:url(#SVGID_13_);stroke:#FFFFFF;}
	.st17{fill:url(#SVGID_14_);stroke:#FFFFFF;}
	.st18{fill:url(#SVGID_15_);stroke:#FFFFFF;}
	.st19{fill:url(#SVGID_16_);stroke:#FFFFFF;}
	.st20{fill:url(#SVGID_17_);stroke:#FFFFFF;}
	.st21{fill:url(#SVGID_18_);stroke:#FFFFFF;}
	.st22{fill:url(#SVGID_19_);stroke:#FFFFFF;}
	.st23{fill:url(#SVGID_20_);stroke:#FFFFFF;}
	.st24{fill:url(#SVGID_21_);stroke:#FFFFFF;}
	.st25{fill:url(#SVGID_22_);stroke:#FFFFFF;}
	.st26{fill:url(#SVGID_23_);stroke:#FFFFFF;}
	.st27{fill:url(#SVGID_24_);stroke:#FFFFFF;}
	.st28{fill:url(#SVGID_25_);stroke:#FFFFFF;}
	.st29{fill:url(#SVGID_26_);stroke:#FFFFFF;}
	.st30{fill:url(#SVGID_27_);stroke:#FFFFFF;}
	.st31{fill:url(#SVGID_28_);stroke:#FFFFFF;}
	.st32{fill:url(#SVGID_29_);stroke:#FFFFFF;}
	.st33{fill:url(#SVGID_30_);stroke:#FFFFFF;}
	.st34{fill:url(#SVGID_31_);stroke:#FFFFFF;}
	.st35{fill:url(#SVGID_32_);stroke:#FFFFFF;}
	.st36{fill:url(#SVGID_33_);stroke:#FFFFFF;}
	.st37{fill:url(#SVGID_34_);stroke:#FFFFFF;}
	.st38{fill:url(#SVGID_35_);stroke:#FFFFFF;}
	.st39{fill:url(#SVGID_36_);stroke:#FFFFFF;}
	.st40{fill:url(#SVGID_37_);stroke:#FFFFFF;}
	.st41{fill:url(#SVGID_38_);stroke:#FFFFFF;}
	.st42{fill:url(#SVGID_39_);stroke:#FFFFFF;}
	.st43{fill:url(#SVGID_40_);stroke:#FFFFFF;}
	.st44{fill:url(#SVGID_41_);stroke:#FFFFFF;}
	.st45{fill:url(#SVGID_42_);stroke:#FFFFFF;}
	.st46{fill:url(#SVGID_43_);stroke:#FFFFFF;}
	.st47{fill:url(#SVGID_44_);stroke:#FFFFFF;}
	.st48{fill:url(#SVGID_45_);stroke:#FFFFFF;}
	.st49{fill:url(#SVGID_46_);stroke:#FFFFFF;}
	.st50{fill:url(#SVGID_47_);stroke:#FFFFFF;}
	.st51{fill:url(#SVGID_48_);stroke:#FFFFFF;}
	.st52{fill:url(#SVGID_49_);stroke:#FFFFFF;}
	.st53{fill:url(#SVGID_50_);stroke:#FFFFFF;}
	.st54{fill:url(#SVGID_51_);stroke:#FFFFFF;}
	.st55{fill:url(#SVGID_52_);stroke:#FFFFFF;}
	.st56{fill:url(#SVGID_53_);stroke:#FFFFFF;}
	.st57{fill:url(#SVGID_54_);stroke:#FFFFFF;}
</style>
<g>
	<g>
		<path class="st0" d="M789.8,1471.2c272.2,466.8,871.1,624.7,1337.8,352.7c466.7-272.1,624.3-871.1,352.1-1337.9
			S1608.6-138.8,1142,133.2C675.3,405.3,517.6,1004.3,789.8,1471.2z"/>
	</g>
	
		<linearGradient id="SVGID_1_" gradientUnits="userSpaceOnUse" x1="491.3873" y1="1670.9048" x2="266.962" y2="1185.9927" gradientTransform="matrix(1 0 0 1 0 -766)">
		<stop  offset="0" style="stop-color:#FF5995"/>
		<stop  offset="0.3368" style="stop-color:#FF5995;stop-opacity:0.4802"/>
		<stop  offset="0.5147" style="stop-color:#FF5995;stop-opacity:0.3215"/>
		<stop  offset="1" style="stop-color:#FF5995;stop-opacity:0"/>
	</linearGradient>
	<path class="st1" d="M-16.8,551.3c87.4,149.9,279.7,200.6,429.5,113.2s200.5-279.7,113.1-429.6C438.4,85.1,246.1,34.4,96.3,121.8
		C-53.5,209.1-104.2,401.5-16.8,551.3z"/>
	<g class="st2">
		
			<linearGradient id="SVGID_2_" gradientUnits="userSpaceOnUse" x1="599.1017" y1="781.0714" x2="1237.9764" y2="1160.3136" gradientTransform="matrix(1 0 0 1 0 -766)">
			<stop  offset="0" style="stop-color:#FF5995"/>
			<stop  offset="1" style="stop-color:#FFBCD4"/>
		</linearGradient>
		<path class="st3" d="M819.6,157.1l104.5,6.1l0,0l0,0l0,0l0,0l103.8,11.1l0,0l0,0l102.6,16.2l0,0v0.3l0.1-0.3l0,0l100.9,21.3l0,0
			l0,0l98.6,26.7l0,0l-0.2,1l0,0l-199.6-48L715,157.1l-207.8,14l0,0l-0.1-1l0,0l103.5-9.7l0,0l0,0l104.3-4.2l0,0v0.3v-0.3l0,0
			L819.6,157.1L819.6,157.1L819.6,157.1z"/>
		<path class="st4" d="M884.8,560.3l0.9-0.8l-0.1,1.2l-4.4,67.3l73.8-59.5l0.9-0.7l-0.1,1.2l-5.1,68.5v0.5l-0.5-0.1l-69.5-8.3
			l-70.1-4l-70.2,0.3h-1.3l0.9-0.9l74.1-68.7l0.9-0.8l-0.1,1.2l-3.8,67.3L884.8,560.3z"/>
		
			<linearGradient id="SVGID_3_" gradientUnits="userSpaceOnUse" x1="369.1328" y1="864.8463" x2="650.1857" y2="1031.6814" gradientTransform="matrix(1 0 0 1 0 -766)">
			<stop  offset="0" style="stop-color:#FF5995"/>
			<stop  offset="1" style="stop-color:#FFBCD4"/>
		</linearGradient>
		<path class="st5" d="M304.4,208.5l-0.2-1L507,170.1l0,0l0,0l207.9-14l0.1,1L304.4,208.5z"/>
		<path class="st4" d="M813.8,556.5V556h0.5l70.2,4l0,0l0.5,0.1l1.2,0.1l-0.1,0.1l69,8.1l1.2,0.1l-0.9,0.7l-74.6,60.2l-0.9,0.7
			l0.1-1.1l4.4-67.2l-73.7,63.6l-0.9,0.8l0.1-1.2L813.8,556.5z M743.2,556.3l0.9-0.9l-0.1,1.3l-3.3,68.6v0.5h-0.4l-69.7,4.7
			l-1.3,0.1l0.9-0.9L743.2,556.3z"/>
		
			<linearGradient id="SVGID_4_" gradientUnits="userSpaceOnUse" x1="785.7802" y1="802.8207" x2="1447.046" y2="1195.3521" gradientTransform="matrix(1 0 0 1 0 -766)">
			<stop  offset="0" style="stop-color:#FF5995"/>
			<stop  offset="1" style="stop-color:#FFBCD4"/>
		</linearGradient>
		<path class="st6" d="M714.9,157.1l0.1-1l415.6,34.4l0,0h0.1L1518,309.2l-0.2,1L714.9,157.1z"/>
		<path class="st4" d="M1024.8,580.8l0.7,0.1l-0.1,0.1l66.1,16.3l0.7-0.5l-0.1,0.7l0.6,0.2l-0.7,0.5l-6.3,68.6l-0.1,0.6l-0.6-0.1
			l-66.5-16.8l-0.7,0.5v-0.6L950,638l-0.7,0.5v-0.7l-0.7-0.1l0.7-0.6l5-67.8l-69.7-8.2l-70.5-4.1l-73.9,68.6l-0.9,0.8l0.1-1.2
			l3.2-67.3l-72,72.2v0.2h-0.2l-0.8,0.8v-0.7l-68.2,9.2l-1.4,0.2l0.9-1l71.3-78v-0.3h0.2l0.8-0.9v0.8l69.3-4.4l0,0h0.3l74.6-69.6
			l0.9-0.8l-0.1,1.2l-3.9,68.5l74.4-64.7l0.9-0.8l-0.1,1.2l-4.5,68.4l74.5-60.7l0.9-0.7l-0.1,1.2l-5.2,69.2l68.1,12.2l0,0l0.3,0.1
			l0.7-0.5L1024.8,580.8z"/>
		
			<linearGradient id="SVGID_5_" gradientUnits="userSpaceOnUse" x1="338.975" y1="915.65" x2="472.429" y2="994.8691" gradientTransform="matrix(1 0 0 1 0 -766)">
			<stop  offset="0" style="stop-color:#FF5995"/>
			<stop  offset="1" style="stop-color:#FFBCD4"/>
		</linearGradient>
		<path class="st7" d="M304.4,208.5l-0.2-1l100.5-21.9l0,0l0,0L507,170.1l0.2,1L304.4,208.5z"/>
		<path class="st4" d="M817.8,486.9v-0.5h0.5l71.3,4.1l1.2,0.1l-0.9,0.8l-75.3,65.5l-0.9,0.8l0.1-1.2L817.8,486.9z"/>
		
			<linearGradient id="SVGID_6_" gradientUnits="userSpaceOnUse" x1="1154.8474" y1="915.7794" x2="1493.5087" y2="1116.8113" gradientTransform="matrix(1 0 0 1 0 -766)">
			<stop  offset="0" style="stop-color:#FF5995"/>
			<stop  offset="1" style="stop-color:#FFBCD4"/>
		</linearGradient>
		<path class="st8" d="M1130.4,191.5l0.3-1l199.6,48l0,0l0,0l187.7,70.7l-0.3,0.9L1130.4,191.5z"/>
		<path class="st4" d="M889.1,492.2v-0.7l-70.6-4.1L744,556.9v0.2h-0.3l-0.8,0.7v-0.7l-69.6,4.4l-71.2,77.8v0.2l-0.2,0.1l-0.8,0.9
			v-0.7l-66.4,13.9l-0.8,1v-0.8l-0.8,0.2l0.8-1l1.5-69.4v-0.4l0.4-0.1l67.4-13.6l0,0h0.2l0.8-1v0.1l70.3-77.1h-0.1l0.8-0.8v-0.3h0.2
			l0.8-0.9v0.1l73.4-74.3l0.9-0.9l-0.1,1.3l-3.3,69.7v0.1l74.4-69.9v-0.3h0.3l0.8-0.7v0.8l71,4.1l0,0h0.3l0.7-0.7v0.7h0.7l-0.1,0.1
			l70.1,8l0.7-0.6l-0.1,0.7l0.7,0.1l-0.7,0.6l-5.2,70.2l0.7,0.1l-0.1,0.1l68.1,11.9l0,0l0.3,0.1l0.7-0.5v0.7l0.7,0.1l-0.1,0.1
			l66.8,16l0.7-0.5l-0.1,0.7l0.6,0.2l-0.7,0.5l-6.4,69.4l64.5,20.6l0.7-0.5l-0.1,0.7l0.6,0.2l-0.7,0.4l-6.9,69l-0.1,0.6l-0.6-0.2
			l-64.3-21.1l-0.7,0.5l0.1-0.7l-0.6-0.2l0.7-0.4l6.3-68.2l-66.7-16.4l-0.7,0.5l0.1-0.6l-68.4-12.3l-0.7,0.5v-0.7l-0.7-0.1l0.7-0.6
			l5.1-68.3L885.1,561l-0.9,0.7l0.1-1.1L889.1,492.2z"/>
		
			<linearGradient id="SVGID_7_" gradientUnits="userSpaceOnUse" x1="775.9975" y1="819.7414" x2="1436.9045" y2="1212.0614" gradientTransform="matrix(1 0 0 1 0 -766)">
			<stop  offset="0" style="stop-color:#FF5995"/>
			<stop  offset="1" style="stop-color:#FFBCD4"/>
		</linearGradient>
		<path class="st9" d="M714.6,157l-1.2-1.2l1.6,0.3l802.9,153.1l-0.1,1L830.5,271h-0.2l-0.1-0.1L714.6,157z"/>
		<path class="st4" d="M1035.7,440l0.9-0.7l-0.1,1.1l-5.9,71v0.5l-0.5-0.1l-69.7-12.2l-1.1-0.2l0.9-0.7L1035.7,440z M749.8,415.9
			v-0.5h0.5l72,0.2h1.3l-0.9,0.9l-75.4,70.9l-0.9,0.8l0.1-1.2L749.8,415.9z M605.5,499.7v-0.4l0.4-0.1l69.9-8.6l1.3-0.2l-0.9,1
			l-72.1,79l-0.9,1V570L605.5,499.7z"/>
		
			<linearGradient id="SVGID_8_" gradientUnits="userSpaceOnUse" x1="766.257" y1="835.567" x2="1427.3647" y2="1228.0027" gradientTransform="matrix(1 0 0 1 0 -766)">
			<stop  offset="0" style="stop-color:#FF5995"/>
			<stop  offset="1" style="stop-color:#FFBCD4"/>
		</linearGradient>
		<path class="st10" d="M714.5,156.8l0.8-0.5l115.6,113.9l0.9,0.9h-1.2l-73.3-0.5H757l-0.1-0.3L714.5,156.8z M1329.9,239.5l0.3-0.9
			l0,0l95.7,32.3l0,0l0,0l92,38.4l0,0l-0.4,0.9l0,0L1329.9,239.5L1329.9,239.5z"/>
		<path class="st4" d="M965.2,428.3v-0.5l0.5,0.1L1036,440l1.1,0.2l-0.9,0.7l-75.5,58.7l-0.9,0.7l0.1-1.1L965.2,428.3z M534.9,584.5
			L534.9,584.5l0.8-1.1l0.9-1.2v0.1l69-82.9l0.9-1.1v1.5l-2.1,70.4v0.4l-0.4,0l-67.4,13.6l-1.5,69.2v0.4l-0.4,0.1l-65.1,19.2
			l-1.4,0.4l0.9-1.2L534.9,584.5z M1156.3,619l-64.8-20.7l-1-0.3l0.8-0.6l72.2-49.6l0.9-0.6l-0.1,1.1l-7,70l61.9,25.1l0.9,0.4
			l-0.8,0.5l-69.2,43.9l-0.9,0.5l0.1-1L1156.3,619z"/>
		
			<linearGradient id="SVGID_9_" gradientUnits="userSpaceOnUse" x1="685.4839" y1="972.2272" x2="766.5839" y2="1020.3693" gradientTransform="matrix(1 0 0 1 0 -766)">
			<stop  offset="0" style="stop-color:#FF5995"/>
			<stop  offset="1" style="stop-color:#FFBCD4"/>
		</linearGradient>
		<path class="st11" d="M714.5,156.5l0.4-1.5l0.6,1.5L757.8,270l0.2,0.6h-0.7l-72.8,3.4h-0.7l0.2-0.7L714.5,156.5z"/>
		<path class="st4" d="M1218.8,643.5l0.9-0.6l-0.1,1l-7.5,69.6l-0.1,0.7l-0.6-0.3l-61.6-25.7l-0.9-0.4l0.8-0.5L1218.8,643.5z
			 M678.5,419.4l0.8-0.9v0.8l70.8-3.9l76-71.8l0.9-0.9l-0.1,1.3l-4,70.9l75.8-67.1l0.9-0.8l-0.1,1.2l-4.7,70.9l75.9-63.3l0.9-0.8
			l-0.1,1.2l-5.4,72.1v0.5l-0.5-0.1l-71.4-8.1l-71.9-4.2l-71.8-0.1l-74,74.9v0.2h-0.2l-0.8,0.8v-0.7l-69.3,8.5l-1.3,0.2l0.9-1
			l72.6-79.7v-0.3L678.5,419.4z M1091.2,597.8l6.4-69.6l-67.4-16.2l-0.7,0.5l0.1-0.7l-0.6-0.1l0.7-0.5l5.9-70.8v-0.6l0.6,0.1
			l68.4,16l0.7-0.5l-0.1,0.7l0.6,0.1l-0.7,0.5l-6.5,70.7l65.4,20.4l1,0.3l-0.8,0.6l-72.2,49.6l-0.9,0.6L1091.2,597.8z"/>
		
			<linearGradient id="SVGID_10_" gradientUnits="userSpaceOnUse" x1="653.1271" y1="978.8713" x2="702.9101" y2="1008.4223" gradientTransform="matrix(1 0 0 1 0 -766)">
			<stop  offset="0" style="stop-color:#FF5995"/>
			<stop  offset="1" style="stop-color:#FFBCD4"/>
		</linearGradient>
		<path class="st12" d="M714.6,156.3l0.9,0.4L685,273.6l-0.1,0.3h-0.3l-71.8,7.5l-1.2,0.1l0.8-0.9L714.6,156.3z"/>
		<path class="st4" d="M826.4,343.4h1.2l-0.1,0.1l71,4.1l0,0l0.5,0.1l1.2,0.1l-0.1,0.1l70.4,7.9l0,0l0.5,0.1l1.2,0.1l-0.1,0.1
			l69.7,11.7l0.7-0.6l-0.1,0.7l0.7,0.1l-0.7,0.6l-6,72.1l-0.1,0.5l-0.5-0.1l-70.1-12l-0.7,0.6l0.1-0.7l-0.7-0.1l0.7-0.6l5.3-70.7
			l-75.8,63l-0.9,0.7l0.1-1.2l4.6-70.9l-75.8,67.1l-0.9,0.8l0.1-1.2l4-70.9l-75,71v0.2h-0.3l-0.8,0.7v-0.7l-70.8,3.9l-72.5,79.6v0.2
			h-0.2l-69.7,83.8v0.2l-0.2,0.1l-66.5,88.7l-0.9,1.2v-1.5l1-69.5l-0.8,0.2l0.8-1v-0.2l0.2-0.1l66.4-88.3h-0.1l0.8-0.9v-0.2h0.2
			l0.8-1.1v0.1l69.5-83.6v-0.3h0.2l0.8-1v0.9l69.8-8.2l74.7-76v-0.3h0.3l0.8-0.8v0.8l71.7,0.3l0,0L826.4,343.4z"/>
		
			<linearGradient id="SVGID_11_" gradientUnits="userSpaceOnUse" x1="594.8624" y1="970.5519" x2="662.6114" y2="1010.7679" gradientTransform="matrix(1 0 0 1 0 -766)">
			<stop  offset="0" style="stop-color:#FF5995"/>
			<stop  offset="1" style="stop-color:#FFBCD4"/>
		</linearGradient>
		<path class="st13" d="M714.7,156.2l0.7,0.7L613.1,281.3l-0.1,0.1h-0.2l-70.2,11.7l-0.4-0.9L714.7,156.2z"/>
		<path class="st4" d="M1163.3,548.6l-65.1-20.3l-0.7,0.5l0.1-0.7l-0.6-0.2l0.6-0.5l6.5-70.6l-68-15.9l-0.7,0.5v-0.7l-0.6-0.1
			l0.7-0.5l6-71.6L971,356.7l-71.8-8l-0.7,0.6v-0.7l-71.9-4.2l-0.7,0.7v-0.7l-71.9-0.3l-74.7,76v0.2h-0.2l-0.8,0.8v-0.7l-69.8,8.2
			l-70.4,84.7l0,0L471,602.6l-1,70v0.3l-0.3,0.1l-60.4,23.9l-1.5,0.6l0.9-1.3l61.3-93.9l1-71.2v-0.4l0.4-0.1l65.9-18l1.6-71.7v-0.4
			l0.4-0.1l68.6-12.7l2.2-72.5v-0.4h0.4l70.7-7.8l0,0h0.3l0.8-0.9v0.1l74.6-76.2v-0.3h0.3l0.8-0.8v0.8l72.3,0.5l0,0h0.3l0.8-0.7v0.7
			h0.7l-0.1,0.1l71.6,4.2l0,0h0.3l0.7-0.7v0.7h0.7l-0.1,0.1l71.4,7.9l0.7-0.6l-0.1,0.7l0.7,0.1l-0.7,0.6l-5.4,72.1l76.2-61l0.9-0.7
			l-0.1,1.2l-6.1,73.2l68.7,15.6l0.7-0.5l-0.1,0.7l0.6,0.1l-0.7,0.5l-6.6,71.9l65.8,19.9l0.7-0.5l-0.1,0.7l0.6,0.2l-0.6,0.5
			l-7.1,71.1l62.3,24.6l0.7-0.4l-0.1,0.7l0.5,0.2l-0.6,0.4l-7.6,70.3l58.1,29.6l0.6-0.4l-0.1,0.7l0.5,0.2l-0.6,0.3l-8.1,69.9
			l-0.1,0.7l-0.6-0.3l-57.8-30.2l-0.6,0.4l0.1-0.7l-0.5-0.2l0.6-0.3l7.5-69l-61.7-25l-0.7,0.4l0.1-0.7l-0.5-0.2l0.6-0.4
			L1163.3,548.6z"/>
		
			<linearGradient id="SVGID_12_" gradientUnits="userSpaceOnUse" x1="189.5982" y1="763.8368" x2="1308.6018" y2="1428.0798" gradientTransform="matrix(1 0 0 1 0 -766)">
			<stop  offset="0" style="stop-color:#FF5995"/>
			<stop  offset="1" style="stop-color:#FFBCD4"/>
		</linearGradient>
		<path class="st14" d="M715,156.6L542.5,292.7l-68,16.3L715,156.6z M-19.6,350.3L304.3,208L715,156.6L-19.6,350.3z M1517.8,309.7
			l-614-34.9l-73.3-4.3L1517.8,309.7z M1517.8,309.7l-541.3-26.9l-72.7-8L1517.8,309.7z"/>
		<path class="st15" d="M715,156.6l-0.5-0.8l1.2,1.6L715,156.6z M542.5,292.7l0.6,0.8l-0.2,0.1l-0.2,0.1L542.5,292.7z M474.5,309
			l0.2,1l-0.8-1.8L474.5,309z M-19.6,350.3l0.3,1l-0.7-1.9L-19.6,350.3z M304.3,208l-0.4-0.9l0.1-0.1h0.1L304.3,208z M715,156.6
			l-0.1-1l0.4,2L715,156.6z M1517.8,309.7l0.1-1l-0.1,2V309.7z M903.8,274.8l-0.1,1l0,0L903.8,274.8z M830.6,270.5l-0.1,1l0.1-2
			V270.5z M1517.8,309.7l0.1-1l-0.1,2V309.7z M976.5,282.8v1l0,0l0,0V282.8z M903.8,274.8l-0.1,1l0.2-2L903.8,274.8z M715.6,157.4
			L543.1,293.5l-1.2-1.6l172.4-136.2L715.6,157.4z M542.7,293.7l-68,16.3l-0.5-1.9l68-16.3L542.7,293.7z M474,308.2l240.5-152.4
			l1.1,1.7L475,309.9L474,308.2z M-20,349.4l323.9-142.3l0.8,1.8L-19.2,351.3L-20,349.4z M304.2,207l410.6-51.4l0.2,2L304.4,209
			L304.2,207z M715.2,157.6L-19.3,351.3l-0.5-1.9l734.5-193.8L715.2,157.6z M1517.8,310.7l-614-34.9l0.1-2l614,34.9L1517.8,310.7z
			 M903.8,275.8l-73.3-4.3l0.1-2l73.3,4.3L903.8,275.8z M830.6,269.5l687.3,39.2l-0.1,2l-687.3-39.2L830.6,269.5z M1517.8,310.7
			l-541.3-26.9l0.1-2l541.3,26.9L1517.8,310.7z M976.4,283.8l-72.7-8l0.2-2l72.7,8L976.4,283.8z M903.9,273.8l614,34.9l-0.1,2
			l-614-34.9L903.9,273.8z"/>
		<path class="st4" d="M976,282.8v-0.5l0.5,0.1l71.6,11.7l1.1,0.2l-0.9,0.7l-76.9,61.6l-0.9,0.7l0.1-1.1L976,282.8z M409,625.7v-0.3
			l0.3-0.1l61-23.2l1.4-0.5l-0.8,1.3l-61.4,94l-0.9,1.4v-1.7L409,625.7z M538.1,441.6L538.1,441.6l0.8-1l0.9-1.2v0.1l70.3-84.6
			l0.9-1.1v1.5l-2.2,72.9v0.4l-0.4,0.1l-68.6,12.7l-1.6,71.7v0.4l-0.4,0.1l-66.2,18l-1.4,0.4l0.9-1.2L538.1,441.6z M1170.5,476.9
			l-66-20l-1-0.3l0.8-0.6l73.7-52.8l0.9-0.6l-0.1,1.1l-7.3,72.6l62.9,24.1l0.7-0.5l-0.1,0.7l0.5,0.2l-0.6,0.4l-7.8,71.9l-0.1,0.7
			l-0.6-0.2l-62.6-24.7l-0.7,0.4l0.1-0.7l-0.5-0.2l0.6-0.4L1170.5,476.9z"/>
		
			<linearGradient id="SVGID_13_" gradientUnits="userSpaceOnUse" x1="1041.0719" y1="939.8178" x2="1453.5021" y2="1184.6427" gradientTransform="matrix(1 0 0 1 0 -766)">
			<stop  offset="0" style="stop-color:#FF5995"/>
			<stop  offset="1" style="stop-color:#FFBCD4"/>
		</linearGradient>
		<path class="st16" d="M1517.9,309.2v1l0,0L1048.2,295l0,0l0,0l-71.6-11.7l0.1-1L1517.9,309.2L1517.9,309.2z"/>
		<path class="st4" d="M684.3,273l0.8-0.9v0.8l72.3-3.4l1.3-0.1l-0.9,0.9l-75.7,77.3v0.2h-0.2l-0.8,0.8v-0.7l-70.6,7.8l-1.3,0.1
			l0.9-1l73.9-81.6v-0.3L684.3,273z M1110.8,383.9l0.1-0.6l0.6,0.2l67.1,19.7l1,0.3l-0.8,0.6l-73.7,52.8l-0.9,0.6l0.1-1.1
			L1110.8,383.9z M471,530.8l0.9-1.4v1.7l-1,71.4v0.3l-0.3,0.1l-61,23.2l-1.4,0.5l0.8-1.3L471,530.8z"/>
		
			<linearGradient id="SVGID_14_" gradientUnits="userSpaceOnUse" x1="160.3204" y1="972.7332" x2="267.3604" y2="1036.2722" gradientTransform="matrix(1 0 0 1 0 -766)">
			<stop  offset="0" style="stop-color:#FF5995"/>
			<stop  offset="1" style="stop-color:#FFBCD4"/>
		</linearGradient>
		<path class="st17" d="M123.5,269.5l-0.3-0.9l86-33.1l0,0l0,0l95-27.9l0.3,1L123.5,269.5z"/>
		<path class="st4" d="M1226.3,573l0.1-0.7l0.6,0.3l59.1,29.1l0.6-0.4l-0.1,0.7l0.5,0.2l-0.6,0.3l-8.3,71.2l-0.1,0.7l-0.6-0.3
			l-58.4-29.7l-0.6,0.4l0.1-0.7l-0.5-0.2l0.5-0.3L1226.3,573z M1118.7,309.6l0.6,0.1l-0.7,0.5l-6.8,73.7v0.6l-0.6-0.1l-69.1-15.7
			l-0.7,0.5l0.1-0.7l-0.6-0.1l0.7-0.5l6.1-73.4v-0.6l0.6,0.1l69.7,15.4l0.7-0.6L1118.7,309.6z"/>
		
			<linearGradient id="SVGID_15_" gradientUnits="userSpaceOnUse" x1="1105.7368" y1="962.8628" x2="1459.7268" y2="1172.9948" gradientTransform="matrix(1 0 0 1 0 -766)">
			<stop  offset="0" style="stop-color:#FF5995"/>
			<stop  offset="1" style="stop-color:#FFBCD4"/>
		</linearGradient>
		<path class="st18" d="M1517.9,309.2v1l0,0l-399.7,0.3h-0.1h-0.1l-70-15.5l0.1-1L1517.9,309.2L1517.9,309.2z"/>
		<path class="st4" d="M409,625.4l0.9,0.2l-0.4,70.8v0.3l-0.3,0.1l-53.5,27.7l-1.5,0.8l0.8-1.4L409,625.4z M540.4,367.5v-0.4
			l0.4-0.1l69.6-12.3l1.3-0.2l-0.9,1l-71.2,85.6l-67.8,90.2l-0.9,1.2V531l1-72.7v-0.4l0.4-0.1l66.5-17.4L540.4,367.5z M1277.3,673.7
			l0.1-0.8l0.7,0.4l52.7,33.6l0.7,0.4l-0.7,0.4l-60.8,36.6l-0.9,0.5l0.1-1L1277.3,673.7z"/>
		
			<linearGradient id="SVGID_16_" gradientUnits="userSpaceOnUse" x1="488.7852" y1="964.8738" x2="637.4562" y2="1053.1268" gradientTransform="matrix(1 0 0 1 0 -766)">
			<stop  offset="0" style="stop-color:#FF5995"/>
			<stop  offset="1" style="stop-color:#FFBCD4"/>
		</linearGradient>
		<path class="st19" d="M714.7,156.2l0.5,0.9L474.8,309.4h-0.1h-0.1l-63.2,20.4l-0.4-0.9L714.7,156.2z"/>
		<path class="st4" d="M612.5,280.5l0.8-1v0.9l71.2-7.4l1.3-0.1l-0.9,1L611,355.5v0.2h-0.2l-0.8,0.9v-0.7L541.4,368l-1.6,73v0.4
			l-0.4,0.1L472.6,459l-1.4,0.4l0.9-1.1l67.7-89.9h-0.1l0.9-1l0.9-1.2v0.1l70.8-85.2v-0.3L612.5,280.5z M1330.2,706.9l0.9-0.5
			l-0.1,1l-8.8,70.8l-0.1,0.8l-0.7-0.4l-52.1-34.2l-0.7-0.4l0.7-0.4L1330.2,706.9z M409.4,553.6v-0.3l0.3-0.1l61.5-22.6l1.4-0.5
			l-0.8,1.3l-62,94.6l-0.9,1.4v-1.7L409.4,553.6z"/>
		
			<linearGradient id="SVGID_17_" gradientUnits="userSpaceOnUse" x1="1170.0187" y1="987.9953" x2="1465.4786" y2="1163.3823" gradientTransform="matrix(1 0 0 1 0 -766)">
			<stop  offset="0" style="stop-color:#FF5995"/>
			<stop  offset="1" style="stop-color:#FFBCD4"/>
		</linearGradient>
		<path class="st20" d="M1517.9,309.2v1l-332,19.6h-0.1h-0.1l-67.7-19.3l0.1-1L1517.9,309.2z"/>
		<path class="st4" d="M1177.8,404l-66.4-19.5l-0.7,0.5l0.1-0.7l-0.6-0.2l0.6-0.5l6.8-73.7l0.1-0.6l0.6,0.2l67.5,19.3l0.7-0.5
			l-0.1,0.7l0.6,0.2l-0.6,0.5l-7.4,73.7l63.6,23.6l0.7-0.5l-0.1,0.7l0.5,0.2l-0.6,0.4l-7.9,72.9l59.4,28.4l0.7-0.4l-0.1,0.7l0.5,0.2
			l-0.6,0.4l-8.4,72.2l53,32.7l0.7,0.4l-0.7,0.4l-61.6,38.5l-0.9,0.5l0.1-1l8.3-71.1l-58.7-29l-0.7,0.4l0.1-0.7l-0.5-0.2l0.5-0.3
			l7.8-71.5l-62.9-24.1l-0.7,0.5l0.1-0.7l-0.5-0.2l0.6-0.4L1177.8,404z M472,458.1l0.9-1.4v1.7l-1,72.7v0.3l-0.3,0.1L410.4,554
			l-0.4,70.9l0.7-0.3l-0.7,1.3v0.2l-0.1,0.1L356,724.5l-0.9-0.2v-70.6l-0.7,0.3l0.7-1.3v-0.2l0.1-0.1l53.7-97.7l-0.2,0.1l0.8-1.3
			L472,458.1z M542,292.7v-0.4l0.4-0.1l70.2-11.7l1.3-0.2l-0.9,1l-71.8,86.5l-0.9,1.1v-1.4L542,292.7z"/>
		
			<linearGradient id="SVGID_18_" gradientUnits="userSpaceOnUse" x1="1233.3901" y1="1015.1989" x2="1470.2902" y2="1155.8248" gradientTransform="matrix(1 0 0 1 0 -766)">
			<stop  offset="0" style="stop-color:#FF5995"/>
			<stop  offset="1" style="stop-color:#FFBCD4"/>
		</linearGradient>
		<path class="st21" d="M1517.8,309.2l0.1,1l-267.2,42.9h-0.1h-0.1l-64.8-23.3l0.1-1L1517.8,309.2z"/>
		<path class="st4" d="M473,384.4V384l0.4-0.1l67.4-16.9l1.4-0.3l-0.9,1.1l-68.4,90.9l-0.9,1.2v-1.5L473,384.4z"/>
		
			<linearGradient id="SVGID_19_" gradientUnits="userSpaceOnUse" x1="445.3306" y1="967.6709" x2="624.9116" y2="1074.2709" gradientTransform="matrix(1 0 0 1 0 -766)">
			<stop  offset="0" style="stop-color:#FF5995"/>
			<stop  offset="1" style="stop-color:#FFBCD4"/>
		</linearGradient>
		<path class="st22" d="M714.7,156.2l0.5,0.9l0,0L411.5,329.9l0,0l0,0l-56,23.9l-0.4-0.9L714.7,156.2L714.7,156.2z"/>
		<path class="st4" d="M1339.1,634.8l0.9-0.6l-0.1,1l-8.9,72.1l-0.1,0.8l-0.7-0.4l-52.7-33.6l-0.7-0.4l0.7-0.4L1339.1,634.8z
			 M409.9,480.3v-0.4l0.3-0.1l62.1-21.9l1.4-0.5l-0.8,1.2l-62.5,95.3l-0.9,1.4v-1.7L409.9,480.3z M542.1,292.4l0.9-1.2v1.5
			l-1.6,74.7v0.4l-0.4,0.1l-67.4,16.9l-1.4,0.3l0.9-1.1L542.1,292.4z"/>
		<path class="st4" d="M355,652.6v-72.7v-0.3l0.3-0.1l54.5-26.3l1.4-0.7l-0.8,1.4L356,652.8v71.3v0.3l-0.2,0.1l-46.3,31.3l-1.5,1
			l0.7-1.6L355,652.6z M1185.3,329.3l0.1-0.6l0.6,0.2l64.6,23.2l0.7-0.5l-0.1,0.7l0.5,0.2l-0.6,0.4l-8.1,74.2l60,27.8l0.7-0.4
			l-0.1,0.7l0.5,0.2l-0.6,0.4l-8.5,73.8l-0.1,0.7l-0.6-0.3l-59.7-28.6l-0.7,0.4l0.1-0.7l-0.5-0.2l0.5-0.4l7.9-72.8l-63.6-23.6
			l-0.7,0.5l0.1-0.7l-0.5-0.2l0.6-0.4L1185.3,329.3z M1329.9,707.2l0.1-0.9l0.7,0.6l44.3,35.9l0.6-0.4l-0.1,0.8l0.3,0.3l-0.4,0.2
			l-9.2,71.2l-0.1,0.9l-0.7-0.6l-43.8-36.6l-0.6,0.4l0.1-0.8l-0.3-0.3l0.4-0.2L1329.9,707.2z M473,384.1l0.9-1.4v1.7l-1,74v0.3
			l-0.3,0.1l-62.1,21.9l-1.4,0.5l0.8-1.2L473,384.1z"/>
		
			<linearGradient id="SVGID_20_" gradientUnits="userSpaceOnUse" x1="1294.8408" y1="1044.1901" x2="1473.5808" y2="1150.2891" gradientTransform="matrix(1 0 0 1 0 -766)">
			<stop  offset="0" style="stop-color:#FF5995"/>
			<stop  offset="1" style="stop-color:#FFBCD4"/>
		</linearGradient>
		<path class="st23" d="M1517.8,309.2l0.2,1l-205.9,70.3l-0.2,0.1l-0.2-0.1l-61.2-27.4l-1.5-0.7l1.7-0.3L1517.8,309.2z"/>
		<path class="st4" d="M409.9,480l0.9,0.2l-0.5,73.4v0.3L410,554l-54.5,26.3l-1.4,0.7l0.8-1.4L409.9,480z"/>
		
			<linearGradient id="SVGID_21_" gradientUnits="userSpaceOnUse" x1="118.3173" y1="883.2537" x2="576.4273" y2="1155.1927" gradientTransform="matrix(1 0 0 1 0 -766)">
			<stop  offset="0" style="stop-color:#FF5995"/>
			<stop  offset="1" style="stop-color:#FFBCD4"/>
		</linearGradient>
		<path class="st24" d="M-19.6,350.8l-0.1-1L714.8,156l0.4,0.9L355.5,353.8l-0.1,0.1h-0.1L-19.6,350.8z"/>
		<path class="st4" d="M1294,529.5l0.1-0.8l0.7,0.4l53.9,32.2l0.7,0.4l-0.7,0.4l-62.3,40.5l-0.9,0.6l0.1-1.1L1294,529.5z M474,309
			v-0.4l0.4-0.1l68-16.3l1.4-0.3L543,293l-69.1,91.6l-0.9,1.2v-1.5L474,309z"/>
		
			<linearGradient id="SVGID_22_" gradientUnits="userSpaceOnUse" x1="53.8518" y1="992.5956" x2="230.9087" y2="1097.6976" gradientTransform="matrix(1 0 0 1 0 -766)">
			<stop  offset="0" style="stop-color:#FF5995"/>
			<stop  offset="1" style="stop-color:#FFBCD4"/>
		</linearGradient>
		<path class="st25" d="M-19.4,350.8l-0.4-0.9l143-81.3l0,0l0,0l181-61l0.4,0.9L-19.4,350.8z"/>
		<path class="st4" d="M1348.2,561.4l0.9-0.6l-0.1,1.1l-9,73.1l44.6,35l0.6-0.4l-0.1,0.8l0.3,0.2l-0.4,0.3l-9.4,72.6l-0.1,0.9
			l-0.7-0.6l-44.3-35.9l-0.6,0.4l0.1-0.8l-0.3-0.2l0.4-0.2l8.8-71.5l-53-32.8l-0.7-0.4l0.7-0.4L1348.2,561.4z M308.3,684.1l-0.7,0.4
			l0.7-1.5v-0.2l0.1-0.1l46.5-103v-74v-0.3l0.3-0.1l54.7-25.4l0.5-73.7l-0.7,0.2l0.7-1.1v-0.2l0.2-0.1l63.6-96.4l0.9-1.4v1.7
			l-1,74.7l0.7-0.2l-0.7,1.1v0.2l-0.2,0.1l-63,95.7L356,580v71.7l0.7-0.4l-0.7,1.5v0.2l-0.1,0.1l-46.2,102.5l-1-0.2L308.3,684.1z
			 M1250.2,352.6l0.1-0.7l0.6,0.3l61,27.3l0.7-0.5l-0.1,0.7l0.5,0.2l-0.5,0.4l-8.8,75.2l-0.1,0.7l-0.6-0.3l-60.3-27.9l-0.7,0.5
			l0.1-0.7l-0.5-0.2l0.5-0.4L1250.2,352.6z"/>
		
			<linearGradient id="SVGID_23_" gradientUnits="userSpaceOnUse" x1="1354.1658" y1="1074.87" x2="1475.5658" y2="1146.9369" gradientTransform="matrix(1 0 0 1 0 -766)">
			<stop  offset="0" style="stop-color:#FF5995"/>
			<stop  offset="1" style="stop-color:#FFBCD4"/>
		</linearGradient>
		<path class="st26" d="M1367.3,411.2l-0.2,0.2l-0.3-0.2l-55.1-30.8l-1-0.5l1.1-0.4l205.9-70.3l0.4,0.9L1367.3,411.2z"/>
		<path class="st4" d="M474.9,309.3l-63.6,96.4l-0.5,74.6v0.3l-0.3,0.1l-54.7,25.4V579l0.6-0.4l-0.6,1.4v0.2l-0.1,0.1l-46.5,103
			l0.5,72.1v0.2l-0.2,0.2l-38.6,34.6l-0.8-0.5l38.1-106.7l-0.5-72.6L307,611l0.6-1.4v-0.2l0.1-0.1l46.5-102.5l-0.2,0.1l0.7-1.2
			v-75.4V430l0.3-0.1l55.2-24.6l0.5-75.8v-0.4l0.3-0.1l63.2-20.4l1.4-0.4L474.9,309.3z M1302.7,455.4l0.1-0.8l0.7,0.4l54.2,31.4
			l0.7-0.4l-0.1,0.8l0.4,0.2l-0.5,0.3l-9.2,74.3l45.2,34.2l0.6-0.5l-0.1,0.8l0.3,0.2l-0.4,0.3l-9.6,73.9l-0.1,0.9l-0.7-0.5
			l-44.9-35.2l-0.6,0.4l0.1-0.8l-0.3-0.2l0.4-0.3l9-72.9l-53.3-31.9l-0.6,0.4l0.1-0.8l-0.4-0.2l0.5-0.3L1302.7,455.4z M1374.6,743.4
			l0.1-1.1l0.7,0.8l36,38l0.6-0.4l-0.1,0.9l0.2,0.2l-0.3,0.2l-9.7,72l-0.2,1.1l-0.7-0.8l-35.5-38.8l-0.6,0.4l0.1-0.9l-0.2-0.2
			l0.3-0.2L1374.6,743.4z"/>
		
			<linearGradient id="SVGID_24_" gradientUnits="userSpaceOnUse" x1="1407.6299" y1="1108.4595" x2="1474.7599" y2="1148.3064" gradientTransform="matrix(1 0 0 1 0 -766)">
			<stop  offset="0" style="stop-color:#FF5995"/>
			<stop  offset="1" style="stop-color:#FFBCD4"/>
		</linearGradient>
		<path class="st27" d="M1414.3,444.2l-0.3,0.4l-0.4-0.3l-46.9-33l-0.6-0.4l0.6-0.4l150.8-101.1l0.7,0.7L1414.3,444.2z"/>
		<path class="st4" d="M269.3,718.1l-0.6,0.6l0.6-1.7v-0.2l0.1-0.1l38.5-107.2l1,0.2l0.5,72.4l0.6-0.5l-0.6,1.7v0.1l-0.1,0.1
			l-38.1,106.7l-1-0.2L269.3,718.1z M410.9,329.2l0.9,0.2l-0.5,76.1v0.3l-0.3,0.1l-55.5,24.7l-1.4,0.6l0.7-1.3L410.9,329.2z
			 M1311.4,380l0.1-0.7l0.7,0.4l55.1,30.8l0.7,0.4l-0.7,0.5l-63.9,44.7l-0.9,0.6l0.1-1.1L1311.4,380z"/>
		<path class="st4" d="M1384,670.6l0.1-1l0.7,0.7l36.8,37.6l0.4,0.4l-0.4,0.3l-46.2,35.2l-1,0.7l0.2-1.2L1384,670.6z M1366.8,410.4
			l0.9-0.6l-0.1,1.1l-9.4,76.2l-0.1,0.8l-0.7-0.4l-54.5-31.5l-0.7-0.4l0.6-0.5L1366.8,410.4z"/>
		
			<linearGradient id="SVGID_25_" gradientUnits="userSpaceOnUse" x1="16.8985" y1="1054.8516" x2="86.9162" y2="1096.4146" gradientTransform="matrix(1 0 0 1 0 -766)">
			<stop  offset="0" style="stop-color:#FF5995"/>
			<stop  offset="1" style="stop-color:#FFBCD4"/>
		</linearGradient>
		<path class="st28" d="M-19.3,350.8l-0.5-0.9l66.4-43.1l0,0l0,0l76.6-38.2l0.5,0.9L-19.3,350.8z"/>
		<path class="st4" d="M307.3,535.6l-0.6,0.4l0.6-1.4v-0.2l0.1-0.1l47.4-104.2v-76.8V353l0.3-0.1l56-23.9l1.3-0.6l-0.7,1.3
			l-55.9,100.7v74.5l0.6-0.4l-0.6,1.4v0.2l-0.1,0.1l-47,103.7l-38.5,107.2L271,790v0.2l-0.1,0.1l-30.5,37.6l-0.9-0.4L269.2,717
			l-0.9-74.3v-0.2l0.2-0.2l39.2-32.8L307.3,535.6z M1420.9,707.8l1-0.7l-0.2,1.2l-9.9,73.4l27.4,40.1l0.3,0.4l-0.3,0.3l-37.3,32
			l-1,0.8l0.2-1.3l9.7-72l-36.1-38.2l-0.4-0.4l0.4-0.3L1420.9,707.8z M1357.2,487l0.1-0.8l0.7,0.5l46,33.6l0.6-0.5l-0.1,0.9l0.3,0.2
			l-0.4,0.3l-9.8,75.4l-0.1,0.9l-0.7-0.5l-45.4-34.4l-0.6,0.5l0.1-0.9l-0.3-0.2l0.4-0.3L1357.2,487z"/>
		
			<linearGradient id="SVGID_26_" gradientUnits="userSpaceOnUse" x1="1454.0273" y1="1142.2352" x2="1497.7174" y2="1168.1702" gradientTransform="matrix(1 0 0 1 0 -766)">
			<stop  offset="0" style="stop-color:#FF5995"/>
			<stop  offset="1" style="stop-color:#FFBCD4"/>
		</linearGradient>
		<path class="st29" d="M1452.7,479.1l-0.3,0.7l-0.5-0.5l-38.3-35l-0.3-0.3l0.3-0.4l103.9-134.1l0.9,0.5L1452.7,479.1z"/>
		<path class="st4" d="M1438.2,821.9l-27-39.4l-0.6,0.5l0.2-1.2l-0.1-0.2l0.2-0.2l9.9-73.2l-36.3-37.1l-0.6,0.5l0.1-1l-0.2-0.2
			l0.3-0.2l9.4-72.7l0.2-1.3l0.1-1l9.6-74.3l-45.7-33.5l-0.7,0.5l0.1-0.9l-0.3-0.2l0.4-0.3l9.4-76l0.1-0.8l0.7,0.5L1414,443l0.7-0.5
			l-0.1,0.9l0.3,0.2l-0.4,0.3l-9.9,76.6l37.6,35.7l0.4,0.4l-0.4,0.4l-47.2,39.3l36.5,36.1l0.6-0.5l-0.1,1l0.2,0.2l-0.3,0.2
			l-10.1,74.6l27.6,38.8l0.6-0.6l-0.2,1.2l0.1,0.2l-0.2,0.2l-10.2,72.9l-0.2,1.3l-0.2,1.3l-10,71.7l-0.2,1.3l-0.7-1.1l-27.1-41
			l-0.2-0.4l0.3-0.3L1438.2,821.9z M308.3,534.8L308.3,534.8l0.5,74.8v0.2l-0.2,0.1l-39.2,32.8l0.9,74.1v0.2v0.1l-29.7,110.5l-1-0.1
			l-1.1-73.8v-0.2v-0.1L268,643.9l-0.2,0.2l0.6-1.7l-0.9-74.7l-0.6,0.5l0.6-1.6v-0.2l0.1-0.1l38.8-107l-0.2,0.1l0.6-1.3v-0.2
			l-0.5-77.5v-0.3l0.3-0.1l48.5-27.2l1.3-0.7l-0.6,1.3v75.9l0.6-0.4l-0.6,1.3v0.2l-0.1,0.1L308.3,534.8z"/>
		<path class="st4" d="M1441.4,556.4l1-0.8l-0.2,1.3l-10.3,76.4l-0.1,1l-0.7-0.7l-37.2-36.8l-0.4-0.4l0.4-0.4L1441.4,556.4z
			 M238.4,753.7l1,0.1l1.1,73.8v0.1l-0.1,0.1l-21.8,40.3l-0.9-0.3L238.4,753.7z"/>
		
			<linearGradient id="SVGID_27_" gradientUnits="userSpaceOnUse" x1="28.6983" y1="1034.563" x2="307.2282" y2="1199.901" gradientTransform="matrix(1 0 0 1 0 -766)">
			<stop  offset="0" style="stop-color:#FF5995"/>
			<stop  offset="1" style="stop-color:#FFBCD4"/>
		</linearGradient>
		<path class="st30" d="M-19.6,350.8l0.1-1l374.9,3h1.9l-1.6,0.9L307,381l-0.1,0.1h-0.2L-19.6,350.8z"/>
		<path class="st4" d="M1438.4,822l0.2-1.8l10.1-72.4l-27.5-38.8l-0.6,0.6l0.2-1.2l-0.1-0.2l0.2-0.2l10.1-74.8l0.2-1.2l0.7,1
			l28.1,38.1l0.6-0.6l-0.2,1.2l0.1,0.2l-0.2,0.2l-10.5,75.5l18.7,40.8l0.1,0.3l-0.2,0.2l-29,33.2l18,40.8l0.6-0.6l-0.2,1.4l0.1,0.2
			l-0.1,0.1l-10.5,73.6l-0.2,1.8l-0.7-1.7l-17.8-41.9l-0.6,0.6l0.2-1.5l-0.1-0.2l0.1-0.1l9.9-71.2L1438.4,822z M216.4,793
			l20.9-114.5v-0.2l0.1-0.1l30.2-111.5l-0.9-76.2l-0.6,0.4l0.6-1.5v-0.2l0.1-0.1l39.6-108.9l1,0.2l0.5,76.8l0.6-0.4l-0.6,1.5v0.2
			l-0.1,0.1l-39.2,108.2l0.9,75.7v0.2v0.1l-29.9,111v0.1l0,0l-20.7,114l-1-0.1l-1.4-74.7L216.4,793L216.4,793z M1413.4,443.8l0.1-1
			l0.7,0.6l38,34.7l0.7-0.6l-0.1,1.1l0.2,0.2l-0.3,0.2l-10.5,77.7l-0.1,1l-0.7-0.7l-37.4-35.6l-0.7,0.6l0.1-1.1l-0.2-0.2l0.3-0.2
			L1413.4,443.8z"/>
		
			<linearGradient id="SVGID_28_" gradientUnits="userSpaceOnUse" x1="16.21" y1="1055.4324" x2="270.8224" y2="1206.5724" gradientTransform="matrix(1 0 0 1 0 -766)">
			<stop  offset="0" style="stop-color:#FF5995"/>
			<stop  offset="1" style="stop-color:#FFBCD4"/>
		</linearGradient>
		<path class="st31" d="M-19.7,350.8l0.1-1L306.8,380l1.3,0.1l-1,0.8l-40.6,30.2l-0.2,0.1h-0.2L-19.7,350.8z"/>
		<path class="st4" d="M215,716.9l21.1-115.1v-0.2l-1.2-78v-0.2l0.1-0.1l31.6-33.9l-0.9-78.6v-0.3l0.2-0.2l40.6-30.2l1.3-1l-0.6,1.6
			l-39.6,108.9l0.9,77.2v0.2l-0.1,0.1l-30.1,111.5v0.1l0,0l-20.9,114.5l1.4,74.6v0.1v0.1l-12.5,42.6l-1-0.2l11.1-117.2l-1.4-76.1
			L215,716.9L215,716.9z M1467.6,788.2l1.1-1.3l-0.2,1.7l-10.7,75.2l8.8,42.8v0.2l-0.1,0.1l-10.8,74.5h-1l-8.5-43.7v-0.2l0.1-0.1
			l10.5-73.6l-18.4-41.6l-0.1-0.3l0.2-0.2L1467.6,788.2z M1441.2,556.7l0.2-1.2l0.7,1l28.5,37.2l0.7-0.6l-0.2,1.3l0.1,0.2l-0.2,0.2
			l-10.7,77l19.1,39.9l0.1,0.3l-0.2,0.2l-29.7,35.8l-1.1,1.3l0.2-1.7l10.5-75.6l-28-37.9l-0.6,0.6l0.2-1.3l-0.1-0.2l0.2-0.2
			L1441.2,556.7z"/>
		
			<linearGradient id="SVGID_29_" gradientUnits="userSpaceOnUse" x1="4.2704" y1="1075.7142" x2="242.1673" y2="1216.9313" gradientTransform="matrix(1 0 0 1 0 -766)">
			<stop  offset="0" style="stop-color:#FF5995"/>
			<stop  offset="1" style="stop-color:#FFBCD4"/>
		</linearGradient>
		<path class="st32" d="M-19.8,350.8l0.3-1l285.8,60.5l0.9,0.2l-0.6,0.7l-32.1,33.1l-0.2,0.2l-0.3-0.1L-19.8,350.8z"/>
		<path class="st4" d="M265.8,410.7l1,0.1l0.9,78.8v0.2l-0.1,0.1L235.8,524l-0.8-0.5L265.8,410.7z M1478.6,711.5l1.1-1.4l-0.2,1.8
			l-10.9,76.6l9,41.9v0.2l-0.1,0.2l-19.8,33.3l-0.9-0.3l10.7-75.1l-18.7-40.8l-0.1-0.3l0.2-0.2L1478.6,711.5z M1451.7,478.8l0.2-1.2
			l0.7,0.9l29,36.3l0.7-0.7l-0.2,1.3l0.1,0.2l-0.2,0.2l-11,78.7l-0.2,1.2l-0.7-0.9l-28.5-37.2l-0.7,0.7l0.2-1.3l-0.1-0.2l0.2-0.2
			L1451.7,478.8z M203.7,834.9L203.7,834.9L203.7,834.9L214.9,717h1l1.4,76.1v0.1l0,0l-11.1,117.2h-1L203.7,834.9z"/>
		<path class="st4" d="M213.5,639.4v-0.2l0,0l21.4-115.6l-1.2-79.7v-0.2l0.1-0.1l32.1-33.1l0.8,0.5l-30.9,112.7l1.2,78.1v0.1l0,0
			l-21,115.3l-1-0.1L213.5,639.4z M1476.7,830.3l0.9,0.3l-11,76.1h-1l-8.8-42.8v-0.2l0.1-0.2L1476.7,830.3z M1470.1,594.4l0.2-1.6
			l0.7,1.4l19.5,39.1l0.1,0.3l-0.2,0.2l-30.3,38.2l-1.1,1.4l0.2-1.8L1470.1,594.4z"/>
		
			<linearGradient id="SVGID_30_" gradientUnits="userSpaceOnUse" x1="1465.7736" y1="1163.4099" x2="1905.5934" y2="1424.4839" gradientTransform="matrix(1 0 0 1 0 -766)">
			<stop  offset="0" style="stop-color:#FF5995"/>
			<stop  offset="1" style="stop-color:#FFBCD4"/>
		</linearGradient>
		<path class="st33" d="M1451.9,479.3l-0.3-0.2l0.2-0.4l65.7-169.2l0.3-0.8l0.5,0.7l335.5,436.9l-0.7,0.7L1451.9,479.3z"/>
		
			<linearGradient id="SVGID_31_" gradientUnits="userSpaceOnUse" x1="189.5641" y1="763.8341" x2="1748.6975" y2="1689.347" gradientTransform="matrix(1 0 0 1 0 -766)">
			<stop  offset="0" style="stop-color:#FF5995"/>
			<stop  offset="1" style="stop-color:#FFBCD4"/>
		</linearGradient>
		<path class="st34" d="M1517.4,310l0.7-0.7l273,196l0.1,0.1l0.1,0.2l62.4,240.9l-0.9,0.4L1517.4,310z M-19.8,350.8l0.4-0.9
			l253.7,93.5l0.6,0.2l-0.3,0.5l-23,35.6l-0.3,0.4l-0.4-0.2L-19.8,350.8z"/>
		<path class="st4" d="M206.3,910.5l-2.4,44.4l0,0l0,0h-0.6h-0.4l0,0l0,0l-1.6-76.4l0,0l0,0l0,0l0.9-120.6l0,0v-0.1l0,0l11.3-118.4
			l-1.5-79.2v-0.1l0,0l21.5-116.3l1,0.1l1.2,79.8v0.1l0,0l-21.3,115.7l1.4,77.6v0.1l0,0L204.6,835L206.3,910.5L206.3,910.5
			L206.3,910.5z M1476.4,873.1l-9.8,33.6l-1.4,43.3v0.1l0,0l-10.9,75.5l-1-0.1l1.6-44.2v-0.1l0,0l10.8-74.6l11-76l-9.1-41.9v-0.2
			l0.1-0.1l10.9-76.6h1l9.4,41v0.2v0.1l-11.2,77.5l-1.2,42.5L1476.4,873.1L1476.4,873.1z M1481.1,515.6l0.2-1.5l0.7,1.4l19.6,37.4
			l0.7-0.9l-0.2,1.8l0.1,0.1l-0.1,0.1l-11.4,79.7l-0.2,1.6l-0.7-1.4l-19.2-38.3l-0.7,0.9l0.2-1.7l-0.1-0.1l0.1-0.2L1481.1,515.6z"/>
		
			<linearGradient id="SVGID_32_" gradientUnits="userSpaceOnUse" x1="-26.2675" y1="1127.3851" x2="207.7566" y2="1266.3041" gradientTransform="matrix(1 0 0 1 0 -766)">
			<stop  offset="0" style="stop-color:#FF5995"/>
			<stop  offset="1" style="stop-color:#FFBCD4"/>
		</linearGradient>
		<path class="st35" d="M-19.9,350.7l0.5-0.8L211.3,479l0.4,0.2l-0.1,0.4l-13.3,37.8l-0.2,0.7l-0.5-0.4L-19.9,350.7z"/>
		<path class="st4" d="M200.6,679.3L200.6,679.3L200.6,679.3l11.5-119.1l-1.5-80.8v-0.2l0.1-0.1l23-35.6l0.9,0.4l-21.5,116.3
			l1.5,79.1v0.1l0,0l-11.4,118.4h-1L200.6,679.3z M1475.4,872.8l1,0.2l-11.2,77l-1-0.1l1.4-43.4v-0.1v-0.1L1475.4,872.8z
			 M1489.6,633.5l1-0.1l9.7,40.1v0.2l-0.1,0.1l-11.4,79.2h-1l-9.4-41v-0.2v-0.1L1489.6,633.5z"/>
		<path class="st4" d="M199.7,800.5L199.7,800.5L199.7,800.5L199.7,800.5l0.9-121.2l0,0h1l0,0l1.6,78.6l0,0l0,0l0,0l-0.9,120.6l0,0
			h-1l0,0L199.7,800.5z M1487.8,752.8l1,0.1l-1,41.5v0.1v0.1l-10.2,36.1l-1-0.2L1487.8,752.8z"/>
		<path class="st4" d="M199,599.1L199,599.1L199,599.1l11.6-119.7h1l1.5,80.8v0.1l0,0l-11.5,119h-1L199,599.1z M1486.8,794.2l1,0.2
			l-11.4,78.6l-1-0.1l1.2-42.5v-0.1v-0.1L1486.8,794.2z M1501,553.6l1-0.1l10,39v0.2l-0.1,0.2l-21.3,40.8l-0.9-0.3L1501,553.6z"/>
		
			<linearGradient id="SVGID_33_" gradientUnits="userSpaceOnUse" x1="-37.0542" y1="1145.5565" x2="212.3615" y2="1293.6115" gradientTransform="matrix(1 0 0 1 0 -766)">
			<stop  offset="0" style="stop-color:#FF5995"/>
			<stop  offset="1" style="stop-color:#FFBCD4"/>
		</linearGradient>
		<path class="st36" d="M-19.9,350.7l0.7-0.8l217.4,166.9l0.2,0.2v0.3l-2.7,39.6l-0.1,1.1l-0.8-0.7L-19.9,350.7z"/>
		<path class="st4" d="M1511,592.5l0.9,0.3l-11.7,80.9h-1l-9.7-40v-0.2l0.1-0.2L1511,592.5z M198,721L198,721L198,721L198,721
			l1-121.9l0,0h1l0,0l1.6,80.2l0,0l0,0l0,0l-0.9,121.2l0,0h-1l0,0L198,721z"/>
		
			<linearGradient id="SVGID_34_" gradientUnits="userSpaceOnUse" x1="1445.6519" y1="1255.7842" x2="1859.9563" y2="1501.7186" gradientTransform="matrix(1 0 0 1 0 -766)">
			<stop  offset="0" style="stop-color:#FF5995"/>
			<stop  offset="1" style="stop-color:#FFBCD4"/>
		</linearGradient>
		<path class="st37" d="M1481.3,516.1L1481.3,516.1L1481.3,516.1l-29.4-36.8l0.7-0.7l401.1,267.7l0,0l-0.5,0.8l0,0L1481.3,516.1z"/>
		<path class="st4" d="M1499.2,673.5l1,0.1l-0.8,40.5v0.1l0,0l-11.6,80.2l-1-0.1l1-41.5v-0.1l0,0L1499.2,673.5z M197.3,517.3
			L197.3,517.3v-0.2l13.3-37.8l1,0.2L200,599.1h-1L197.3,517.3z"/>
		
			<linearGradient id="SVGID_35_" gradientUnits="userSpaceOnUse" x1="-45.1205" y1="1158.9767" x2="228.7235" y2="1321.5326" gradientTransform="matrix(1 0 0 1 0 -766)">
			<stop  offset="0" style="stop-color:#FF5995"/>
			<stop  offset="1" style="stop-color:#FFBCD4"/>
		</linearGradient>
		<path class="st38" d="M-20,350.7l0.7-0.7l214.7,206.5l0.1,0.1v0.2l8.7,41l0.4,1.8l-1.2-1.4L-20,350.7z"/>
		<path class="st4" d="M196.4,639.8L196.4,639.8L196.4,639.8L196.4,639.8l1-122.5l0,0h1l0,0l1.6,81.8l0,0l0,0l0,0l-1,121.8l0,0h-1
			l0,0L196.4,639.8z M1510.9,592.6l1,0.1l-0.6,39.5v0.1v0.1l-11.1,41.4l-1-0.2L1510.9,592.6z"/>
		
			<linearGradient id="SVGID_36_" gradientUnits="userSpaceOnUse" x1="86.8886" y1="870.5259" x2="1675.1876" y2="1813.3514" gradientTransform="matrix(1 0 0 1 0 -766)">
			<stop  offset="0" style="stop-color:#FF5995"/>
			<stop  offset="1" style="stop-color:#FFBCD4"/>
		</linearGradient>
		<path class="st39" d="M1790.4,505.8l0.9-0.4l62.3,116.8l0.1,0.1v0.1l0.1,124.1l-1,0.1L1790.4,505.8z M-160.4,568.4l-1-0.3
			l13.8-60.7v-0.1v-0.1l29.2-56.8l0.9,0.4L-160.4,568.4z M-20,350.7l0.8-0.7l0,0l223.4,247.5l0,0v0.1l21,41.8l-0.8,0.5L-20,350.7
			L-20,350.7z"/>
		<path class="st4" d="M194.6,556.9L194.6,556.9L194.6,556.9l2.7-39.6h1l-1,122.5h-1L194.6,556.9z"/>
		
			<linearGradient id="SVGID_37_" gradientUnits="userSpaceOnUse" x1="100.9201" y1="912.955" x2="1659.9939" y2="1838.4352" gradientTransform="matrix(1 0 0 1 0 -766)">
			<stop  offset="0" style="stop-color:#FF5995"/>
			<stop  offset="1" style="stop-color:#FFBCD4"/>
		</linearGradient>
		<path class="st40" d="M-19.6,350.3l0.4-0.3l0,0l244.4,289.3l0,0l34.2,42l0,0l-0.8,0.6l0,0L-20,350.7l0,0l0,0L-19.6,350.3z
			 M1510.7,632.7l-0.3-0.1v-0.4l0.6-39.5v-0.8l0.7,0.3l341.9,153.9l-0.4,0.9L1510.7,632.7z"/>
		<path class="st4" d="M-136.3,964.2l1-0.2l22.3,72.1h0.1v0.6l0.1,0.4h-0.1l5,79.6l-1,0.2l-22.2-73.5h-0.1v-0.6l-0.1-0.4h0.1
			L-136.3,964.2z M1805.7,993.4l1,0.2l-15.1,78.9v0.1l0,0l-42.6,147.3l-1-0.2l14.9-78.6v-0.1l0,0L1805.7,993.4z"/>
		
			<linearGradient id="SVGID_38_" gradientUnits="userSpaceOnUse" x1="-135.0202" y1="1290.5959" x2="84.8444" y2="1421.108" gradientTransform="matrix(1 0 0 1 0 -766)">
			<stop  offset="0" style="stop-color:#FF5995"/>
			<stop  offset="1" style="stop-color:#FFBCD4"/>
		</linearGradient>
		<path class="st41" d="M-21.9,835.8l-0.9,0.2l-138.5-267.5l-0.1-0.3l0.2-0.2L-20,350.1l0.9-1.4v1.7L-21.9,835.8z"/>
		<path class="st4" d="M1778,1060.8L1778,1060.8L1778,1060.8l27.7-67.5l0.9,0.3l-42.8,147.6l-14.8,78.6v0.1l-0.1,0.1l-47.2,69
			l-0.9-0.5l62.1-147.5L1778,1060.8z M-118.7,954.6l0.7-0.4v0.8l5.1,81.8l-1,0.2l-22.4-72.6l-0.1-0.4l0.4-0.2L-118.7,954.6z
			 M-146.9,801.8l1-0.2l22.6,69.8l0.1,0.3l-0.3,0.2l-17.3,12.3l-0.7,0.5l-0.1-0.9L-146.9,801.8z"/>
		<path class="st4" d="M1836.8,830.5l1,0.2l-15.7,82.3v0.1l0,0L1779,1061l-1-0.2l15.5-82v-0.1l0,0L1836.8,830.5z M-113.9,1036.9
			l0.9-0.3l42.9,74.1l0.4,0.6l-0.7,0.1l-37.9,5.9l-0.5,0.1v-0.5L-113.9,1036.9z M-124,871.1l0.7-0.5l0.1,0.9l5.3,83.5l-1,0.2
			l-22.5-71.2l-0.1-0.3l0.3-0.2L-124,871.1z"/>
		
			<linearGradient id="SVGID_39_" gradientUnits="userSpaceOnUse" x1="-126.4839" y1="1296.38" x2="224.9671" y2="1505.0029" gradientTransform="matrix(1 0 0 1 0 -766)">
			<stop  offset="0" style="stop-color:#FF5995"/>
			<stop  offset="1" style="stop-color:#FFBCD4"/>
		</linearGradient>
		<path class="st42" d="M-22.1,836.2l-0.7,0.4v-0.8l2.8-485.4V349l0.9,1l278.6,331.3l0.4,0.5l-0.5,0.3L-22.1,836.2z"/>
		<path class="st4" d="M1778,1060.7l0.9,0.3l-15.2,80.3v0.1l0,0l-62.1,147.5l-1-0.3l14.7-79.9v-0.1l0,0L1778,1060.7z M-70.5,1110.4
			l0.5-0.1v0.6l4.7,81.3l-0.9,0.3l-42.6-75.4l-0.4-0.6l0.7-0.1L-70.5,1110.4z M-152.3,717.9l1-0.2l22.7,68.2l0.1,0.3l-0.2,0.2
			l-17.2,15.6l-0.8,0.7l-0.1-1L-152.3,717.9z M1852.8,746.5l1,0.2l-16.1,84.1v0.1v0.1l-27.4,64.4l-0.9-0.3L1852.8,746.5z"/>
		
			<linearGradient id="SVGID_40_" gradientUnits="userSpaceOnUse" x1="1493.0453" y1="1422.5488" x2="1798.9653" y2="1604.1488" gradientTransform="matrix(1 0 0 1 0 -766)">
			<stop  offset="0" style="stop-color:#FF5995"/>
			<stop  offset="1" style="stop-color:#FFBCD4"/>
		</linearGradient>
		<path class="st43" d="M1439,748.2h-1.2l0.8-0.9l36.3-37.3l0.2-0.2h0.2l378.1,36.3l-0.1,1L1439,748.2z"/>
		<path class="st4" d="M1809.3,895L1809.3,895L1809.3,895l27.4-64.5l0.9,0.3L1794.3,979l-1-0.2L1809.3,895z M-119,955.1l0.9-0.3
			l43.3,72.8l0.3,0.6l-0.7,0.2l-38.1,9l-0.6,0.1v-0.6L-119,955.1z"/>
		<path class="st4" d="M-129.7,786l-22.3-67.1l-0.2,0.2l-0.1-1.1l-0.1-0.2h0.1l-5.6-85.5l1-0.2l22.5,65.8l0.2-0.2l0.1,1.1l0.1,0.2
			l-0.1,0.1l5.4,86.1l0.1,0.9l43.9,69.7l0.3,0.5l-0.6,0.2l-38,15.4l43.1,70.5l0.2-0.1v0.5l0.3,0.4l-0.2,0.1l4.9,84v0.6l4.8,82.9
			l65.1,73.9h0.3v0.4l0.5,0.6l-0.5,0.1l4.1,82l0.1,1.5l-1-1.1l-64.6-75.3h-0.3v-0.4l-0.5-0.6h0.5l-4.7-80.7l-42.8-74l-0.3-0.6
			l0.7-0.2l37.4-8.8l-42.7-71.8l-0.2,0.1v-0.5l-0.3-0.4l0.2-0.1l-5.2-82.5v-0.6l-22.6-69.7l-0.1-0.3l0.2-0.2L-129.7,786z
			 M1778.9,1061.1L1778.9,1061.1l-62.5,147.9v0.1l-14.7,79.7v0.2l-0.1,0.1l-68.1,66.3l-0.3-0.3l-0.5-0.2l14.3-81.1v-0.2l0.1-0.1
			l83.4-146.5l0,0l15.4-83.4v-0.1l0,0l63.4-148.6l16.2-85.7v-0.1l0,0l27.3-62.8l0.9,0.3L1810.2,895l-15.8,83.8v0.1l-15.5,81.9
			L1778.9,1061.1z"/>
		<path class="st4" d="M1825.6,809.2l1,0.3l-16.2,85.7v0.1l0,0l-63.4,148.6l-0.9-0.3l15.7-85.4v-0.1l0,0L1825.6,809.2z
			 M-75.7,1027.9l-0.1-1.4l1,1.1l66,73l0.6,0.7l-0.9,0.2l-61.2,10.1l-0.5,0.1v-0.6L-75.7,1027.9z M-85.4,855.5l0.6-0.3v0.7l5,86.9
			l-0.9,0.3l-43.6-71.3l-0.3-0.5l0.5-0.2L-85.4,855.5z"/>
		
			<linearGradient id="SVGID_41_" gradientUnits="userSpaceOnUse" x1="-201.5487" y1="1402.6592" x2="18.3165" y2="1533.1792" gradientTransform="matrix(1 0 0 1 0 -766)">
			<stop  offset="0" style="stop-color:#FF5995"/>
			<stop  offset="1" style="stop-color:#FFBCD4"/>
		</linearGradient>
		<path class="st44" d="M-21.9,835.5l-0.8,0.5l-112.2-137l-0.1-0.1v-0.1l-26.3-130.5l0.9-0.3L-21.9,835.5z"/>
		<path class="st4" d="M1745.9,1043.5l0.9,0.3l-15.4,83.5v0.2l-0.1,0.1l-83.4,146.6l-14.3,81v0.2l-0.2,0.1l-90.2,61.9l-0.7-0.7
			l104.5-142.9l14.6-82.8v-0.2l0.1-0.1L1745.9,1043.5z M-9.3,1100.4l0.6-0.1v0.6l4.2,84.2l86.6,70.5l0.9,0.7l-1.1,0.2l-82.6,11.8
			l-0.5,0.1v-0.6l-4.1-82.3l-65.3-74.1l-0.6-0.7l0.9-0.1L-9.3,1100.4z M-135.1,698.8l-0.1-1.9l1,1.6l44.1,67.9l0.3-0.1v0.6l0.2,0.4
			l-0.2,0.1l5.1,88.6l-0.9,0.3l-43.7-69.4l-0.3,0.1v-0.6l-0.2-0.4l0.2-0.1L-135.1,698.8z M-80.6,942.9l-0.1-1.4l0.9,1l66.6,71.7
			l0.6,0.7l-0.9,0.2l-61.7,13.3l-0.6,0.1v-0.6L-80.6,942.9z M1777.7,871L1777.7,871l0.1-0.2l47.8-61.7l0.9,0.5l-63.9,149.1l-0.9-0.3
			L1777.7,871z"/>
		
			<linearGradient id="SVGID_42_" gradientUnits="userSpaceOnUse" x1="48.1924" y1="1482.8506" x2="242.5188" y2="1598.2106" gradientTransform="matrix(1 0 0 1 0 -766)">
			<stop  offset="0" style="stop-color:#FF5995"/>
			<stop  offset="1" style="stop-color:#FFBCD4"/>
		</linearGradient>
		<path class="st45" d="M-22.2,836.2l-0.4-0.9l281.4-154.1l0.3-0.2l0.3,0.2l48.2,41.5l0.7,0.6l-0.8,0.3L-22.2,836.2z"/>
		<path class="st4" d="M1761.7,958.2l0.9,0.3l-15.7,85.4v0.2l-0.1,0.1l-84.2,147.1l-14.6,82.9v0.2l-0.1,0.1l-104.5,142.9l-0.9-0.4
			l13.6-82.3v-0.2l0.1-0.1l105.5-143.5l15-84.8v-0.2l0.1-0.1L1761.7,958.2z M-13.6,1014l0.6-0.1v0.6l4.3,86.3l0.1,1.4l-0.9-1l-66-73
			l-0.6-0.6l0.8-0.2L-13.6,1014z M81.6,1255.4l0.5-0.1v0.5l3.2,83.5v1.1l-0.9-0.7L-1.4,1268l-0.9-0.7l1.1-0.2L81.6,1255.4z
			 M-85.7,856l-0.1-1.3l0.9,1l67.3,70.2l0.6,0.6l-0.8,0.2l-62.3,16.7l-0.6,0.2V943L-85.7,856z"/>
		
			<linearGradient id="SVGID_43_" gradientUnits="userSpaceOnUse" x1="241.0795" y1="1156.9579" x2="1589.8147" y2="1957.5739" gradientTransform="matrix(1 0 0 1 0 -766)">
			<stop  offset="0" style="stop-color:#FF5995"/>
			<stop  offset="1" style="stop-color:#FFBCD4"/>
		</linearGradient>
		<path class="st46" d="M1853,746.3l0.8,0.6l-75.1,124.5l-0.1,0.1l-0.1,0.1l-163.9,114.6l-0.6-0.8L1853,746.3z M307.1,722.7l0.2-0.1
			l0.2,0.1l60.9,39l1.1,0.7l-1.2,0.2l-390.6,73.6l-0.3-1L307.1,722.7z"/>
		<path class="st4" d="M-9.8,1100.9l-0.1-1.1l0.9,0.7l87.5,69.4l0.3-0.1v0.3l0.7,0.6l-0.7,0.1l3.2,85v1.1l-0.9-0.7l-86.6-70.5
			l-0.3,0.1v-0.3l-0.7-0.5l0.6-0.1L-9.8,1100.9z M1777.8,870.8l0.9,0.3l-16.1,87.3v0.2l-0.1,0.1l-84.9,147.6l-15,84.8v0.2l-0.1,0.1
			L1557,1334.8l-13.6,82.2v0.2l-0.2,0.1l-109.7,53.8l-0.6-0.8l123.2-136l13.9-84.1v-0.2l0.1-0.1l106.5-144.1l15.3-86.7v-0.2l0.1-0.1
			L1777.8,870.8z M-18,925.7l0.6-0.2v0.6l4.4,88.3l0.1,1.4l-0.9-1l-66.6-71.7l-0.6-0.6l0.8-0.2L-18,925.7z"/>
		
			<linearGradient id="SVGID_44_" gradientUnits="userSpaceOnUse" x1="98.3575" y1="1072.1121" x2="1589.7291" y2="1957.4072" gradientTransform="matrix(1 0 0 1 0 -766)">
			<stop  offset="0" style="stop-color:#FF5995"/>
			<stop  offset="1" style="stop-color:#FFBCD4"/>
		</linearGradient>
		<path class="st47" d="M-134.2,698.5l112.1,136.7l390.3-73.5h0.2l0.1,0.1l71,34.6l1.6,0.8l-1.8,0.1l-461.6,39l-0.1-0.5l-0.3,0.3
			l-67.9-68.7l0,0v-0.1l-44.3-68.2L-134.2,698.5z M1438.6,747.3l0.2-0.1h0.2l414.3-1.1l0.2,1l-781.9,366l-0.6-0.8L1438.6,747.3z"/>
		<path class="st4" d="M81.2,1255.9v-0.9l0.8,0.5l104.4,63.1l0.4-0.1v0.3l0.9,0.5l-0.8,0.2l2,84v0.9l-0.8-0.5l-103.3-64l-0.4,0.1
			v-0.3l-0.8-0.5l0.8-0.2L81.2,1255.9z M-90.8,767.1l-0.1-1.3l0.9,0.9l67.7,68.5l0.3-0.1v0.5l0.4,0.5l-0.4,0.1l4.5,90l0.1,1.3
			l-0.9-1l-67.1-70l-0.3,0.1v-0.5l-0.4-0.4l0.4-0.1L-90.8,767.1z M-14,1014.6l-0.1-1.1l0.9,0.7l88.4,68.2l0.4-0.1v0.4l0.7,0.5
			l-0.6,0.1l3.3,87.1v1.1l-0.9-0.7l-87.5-69.4l-0.3,0.1v-0.4l-0.7-0.5l0.6-0.1L-14,1014.6z M1445.3,1387.3v-0.3l0.2-0.1l124.5-136.8
			l14.2-86v-0.2l0.1-0.1l107.6-144.8l15.7-88.8V930l0.1-0.1l70.1-59.3l0.8,0.6l-85.7,148.1l-15.3,86.8v0.2l-0.1,0.1L1571,1250.6
			l-13.9,84.1v0.3l-0.2,0.1l-123.3,136l-1.1,1.2l0.2-1.6L1445.3,1387.3z"/>
		
			<linearGradient id="SVGID_45_" gradientUnits="userSpaceOnUse" x1="186.9929" y1="1248.3446" x2="1229.589" y2="1867.2395" gradientTransform="matrix(1 0 0 1 0 -766)">
			<stop  offset="0" style="stop-color:#FF5995"/>
			<stop  offset="1" style="stop-color:#FFBCD4"/>
		</linearGradient>
		<path class="st48" d="M439.2,796.3h0.1h0.1l79.7,29.6l-0.2,1l-541.3,9.4l-0.1-1L439.2,796.3z M1389.2,782.4L1389.2,782.4
			L1389.2,782.4l49.5-35.2l0.6,0.8l-367.5,364.9l0,0l-0.7-0.7l0,0L1389.2,782.4z"/>
		
			<linearGradient id="SVGID_46_" gradientUnits="userSpaceOnUse" x1="56.0743" y1="1469.2288" x2="527.4517" y2="1749.0439" gradientTransform="matrix(1 0 0 1 0 -766)">
			<stop  offset="0" style="stop-color:#FF5995"/>
			<stop  offset="1" style="stop-color:#FFBCD4"/>
		</linearGradient>
		<path class="st49" d="M519,825.9L519,825.9L519,825.9l86.9,24.2l-0.1,1l-628.1-14.8l0,0v-1l0,0L519,825.9z"/>
		<path class="st4" d="M-18.4,926.2l-0.1-1.1l0.9,0.6l89.5,67.1l0.8,0.6l-1,0.3l-85.2,21.3l-0.6,0.2v-0.6L-18.4,926.2z
			 M184.1,1232.1l0.6-0.1v0.6l2.1,86.4v0.9l-0.8-0.5l-104.6-63.2l-1.1-0.7l1.2-0.3L184.1,1232.1z M1458.2,1302v-0.3l0.2-0.1
			l126-137.7l1.1-1.2l-0.3,1.7l-14.3,86.2v0.3l-0.1,0.1l-124.6,136.9l-1.1,1.2l0.2-1.6L1458.2,1302z"/>
		
			<linearGradient id="SVGID_47_" gradientUnits="userSpaceOnUse" x1="172.918" y1="1272.223" x2="1194.4379" y2="1878.605" gradientTransform="matrix(1 0 0 1 0 -766)">
			<stop  offset="0" style="stop-color:#FF5995"/>
			<stop  offset="1" style="stop-color:#FFBCD4"/>
		</linearGradient>
		<path class="st50" d="M605.8,850.1L605.8,850.1L605.8,850.1l92.2,18.3l-0.1,1l-720.3-33.1l0,0v-1l0,0L605.8,850.1z M1326.2,814.5
			L1326.2,814.5l0.2-0.1l63-32l0.6,0.8L1071.9,1113l0,0l-0.7-0.7l0,0L1326.2,814.5z"/>
		<path class="st4" d="M1598.9,1075.9v-0.2l0.2-0.1l93.1-56.7l0.7,0.7l-107.7,145l-0.9-0.4L1598.9,1075.9z M71.5,992.8l0.6-0.1v0.6
			l3.4,89.6v1.1l-0.8-0.7l-88.6-68.3l-0.8-0.6l1-0.2L71.5,992.8z M185.7,1319v-0.8l0.7,0.3l120.3,54.4l1.3,0.6l-1.4,0.3l-118.3,30
			l-0.6,0.2v-0.6L185.7,1319z"/>
		
			<linearGradient id="SVGID_48_" gradientUnits="userSpaceOnUse" x1="73.8519" y1="1439.1807" x2="697.2481" y2="1809.236" gradientTransform="matrix(1 0 0 1 0 -766)">
			<stop  offset="0" style="stop-color:#FF5995"/>
			<stop  offset="1" style="stop-color:#FFBCD4"/>
		</linearGradient>
		<path class="st51" d="M697.9,868.3L697.9,868.3L697.9,868.3l95.6,12l-0.1,1l-815.8-45.1l0,0l0.1-1l0,0L697.9,868.3z"/>
		
			<linearGradient id="SVGID_49_" gradientUnits="userSpaceOnUse" x1="85.192" y1="1420.0055" x2="782.808" y2="1834.1113" gradientTransform="matrix(1 0 0 1 0 -766)">
			<stop  offset="0" style="stop-color:#FF5995"/>
			<stop  offset="1" style="stop-color:#FFBCD4"/>
		</linearGradient>
		<path class="st52" d="M793.5,880.4L793.5,880.4l96.9,5.5l0,0v0.5v0.5l0,0l0,0l-912.7-50.6h-0.1v-0.5v-0.5L793.5,880.4z"/>
		<path class="st4" d="M1319.8,1429v-0.3l0.2-0.1l138.3-127l1.1-1l-0.2,1.4l-12.9,85.3l-0.1,0.3l-0.2,0.1l-136.8,125.9l-1,0.9
			l0.2-1.4L1319.8,1429z M74.6,1082.9v-0.9l0.8,0.5l107,61.3l1.1,0.6l-1.2,0.3l-103.6,26.2l-0.6,0.2v-0.6L74.6,1082.9z M-22.9,835.8
			l-0.1-1l0.8,0.6l90.5,65.7l0.8,0.6l-1,0.3l-86,24.7l-0.6,0.2v-0.6L-22.9,835.8z"/>
		<path class="st4" d="M181.9,1143.7l0.6-0.2v0.6l2.1,88.5v0.9l-0.8-0.5L78,1170.7l-1-0.6l1.2-0.3L181.9,1143.7z M1320,1428.7l1-0.8
			l-0.2,1.2l-11.3,84.2v0.3l-0.3,0.1l-135.9,30.5l-0.4-0.9L1320,1428.7z M1471.4,1214.6v-0.3l0.2-0.1l127.3-138.6l1.1-1.2l-0.3,1.7
			l-14.6,88.2l-0.1,0.3l-0.1,0.1l-126,137.7l-1.1,1.2l0.2-1.6L1471.4,1214.6z"/>
		
			<linearGradient id="SVGID_50_" gradientUnits="userSpaceOnUse" x1="1253.3138" y1="1571.4264" x2="1670.8239" y2="1819.2565" gradientTransform="matrix(1 0 0 1 0 -766)">
			<stop  offset="0" style="stop-color:#FF5995"/>
			<stop  offset="1" style="stop-color:#FFBCD4"/>
		</linearGradient>
		<path class="st53" d="M1853.1,746.1l0.6,0.8l-239,239l-0.1,0.1h-0.1l-542.9,127l-0.3-0.9L1853.1,746.1z"/>
		<path class="st4" d="M1613.8,985.5v-0.2l0.2-0.1l93.8-55.2l0.7,0.7l-108.8,145.6l-0.9-0.4L1613.8,985.5z M68,901l0.6-0.2v0.6
			l3.5,91.8v1.1l-0.8-0.6l-89.5-67.1L-19,926l1-0.3L68,901z M183.7,1232.6v-0.8l0.7,0.3l121.6,53.6l0.5-0.1v0.3l1,0.4l-1,0.3
			l0.6,86.4l132.9,44.2l0.5-0.2v0.3l1.1,0.4l-1.1,0.4l-1,85.2v0.7l-0.7-0.2L307.1,1459l-0.5,0.1v-0.3l-1.1-0.4l1.1-0.3l-0.6-84.4
			l-119.8-54.1l-0.4,0.1v-0.3l-1-0.4l1-0.3L183.7,1232.6z M1331.4,1342.8v-0.3l0.3-0.1l126.8-40.8l0.5,0.8l-138.4,127l-1,0.9
			l0.2-1.4L1331.4,1342.8z"/>
		<path class="st4" d="M1331.6,1342.5L1331.6,1342.5l139.9-128.1l13.5-89.3l0.1-0.3l0.2-0.1l113.9-49.2l0.6,0.8l-127.3,138.6
			l-13.2,87.2v0.3l-0.3,0.1l-126.5,40.7l-11.6,85.9l-0.1,0.3h-0.2l-147,114.5v0.2h-0.2l-0.8,0.7l0.1-0.5l-143.8,17.7l-0.3-0.9
			l154.1-102.6v-0.1l0.2-0.1L1331.6,1342.5z M71.1,993.3v-0.9l0.8,0.4l108,60.1l0.4-0.1v0.4l0.8,0.5l-0.8,0.2l2.2,90.3v0.9l-0.8-0.4
			L75,1083.4l-0.4,0.1v-0.4l-0.8-0.5l0.8-0.2L71.1,993.3z"/>
		<path class="st4" d="M1614,985.3l1.1-1.2l-0.3,1.6l-15,90.4v0.3l-0.2,0.1l-113.9,49.2l-0.6-0.8L1614,985.3z M583.8,1450.5l1.2,0.3
			l-1.3,0.5l-2.7,85.5v0.6l-0.6-0.1l-141.5-33.4l-0.5,0.2v-0.3l-1.2-0.3l1.2-0.5l1-85.2v-0.6l0.6,0.1l143.2,33.1l0.6-0.2V1450.5z
			 M181.5,1144.2v-0.8l0.7,0.3l123,52.8l0.5-0.1v0.3l1,0.4l-1,0.3l0.7,88.9v0.8l-0.7-0.3l-121.6-53.6l-0.4,0.1v-0.3l-1-0.4l0.9-0.3
			L181.5,1144.2z"/>
		
			<linearGradient id="SVGID_51_" gradientUnits="userSpaceOnUse" x1="109.612" y1="1379.5298" x2="1040.4501" y2="1932.0767" gradientTransform="matrix(1 0 0 1 0 -766)">
			<stop  offset="0" style="stop-color:#FF5995"/>
			<stop  offset="1" style="stop-color:#FFBCD4"/>
		</linearGradient>
		<path class="st54" d="M986.2,885.4l-0.2-0.6h0.7l93.7-7.8h0.6v0.6l-8.9,235.2l-1,0.2L986.2,885.4z M177.9,960.2l-0.5,0.9L67.9,902
			l0,0l0,0l-90.5-65.7l0.6-0.8L177.9,960.2z"/>
		<path class="st4" d="M1192.4,1371.9v-0.4l0.4-0.1l139-29.1l0.4,0.9l-149.1,116.1l-0.9,0.7l0.1-1.2L1192.4,1371.9z M732.9,1471.6
			l0.7-0.3v0.8l-4.5,85l156.2-77l0.8-0.4l-0.1,0.9l-6.4,85.7v0.5h-0.5l-150.1-8.4v0.1l-0.5-0.1l-1.9-0.1l0.3-0.1l-146.4-21l-1.8-0.2
			l1.7-0.7L732.9,1471.6z M1485.2,1124.8l1-0.9l-0.2,1.4l-13.5,89.5v0.3l-0.3,0.1l-128.1,39.8l-0.5-0.8L1485.2,1124.8z M67.7,901.5
			v-0.9l0.8,0.4L178,960.1l1,0.6l-1.1,0.3l-106,32.7l-0.6,0.2v-0.7L67.7,901.5z"/>
		
			<linearGradient id="SVGID_52_" gradientUnits="userSpaceOnUse" x1="85.2778" y1="1420.0281" x2="1015.6055" y2="1972.2682" gradientTransform="matrix(1 0 0 1 0 -766)">
			<stop  offset="0" style="stop-color:#FF5995"/>
			<stop  offset="1" style="stop-color:#FFBCD4"/>
		</linearGradient>
		<path class="st55" d="M890.4,885.9h0.2l0.1,0.2l181.1,226.2l0.9,1.2l-1.4-0.4L-22.5,836.3l0.2-1L890.4,885.9z"/>
		<path class="st4" d="M439.5,1417.4l1-86.9L306,1286.8l-0.5,0.2v-0.3l-1.1-0.4l1.1-0.4l-0.7-88.6L182,1144.7l-0.5,0.1v-0.3
			l-0.9-0.4l0.9-0.3l-2.2-90l-108-60.1l-1-0.6l1.1-0.3l106-32.7l0.6-0.2v0.7l2.2,92.6l124.2,51.9l0.5-0.1v0.3l1,0.4l-1,0.3l0.7,90.8
			l136.2,43.1l0.5-0.2v0.3l1.1,0.3l-1.1,0.4l-1,89l144.6,32.8l0.6-0.2v0.3l1.2,0.3l-1.3,0.5l-2.7,86.8l153.7-66.5l0.7-0.3v0.8
			l-4.6,87.2l158.2-79l0.8-0.4l-0.1,0.9l-6.5,86.9l158.5-91.3v-0.2h0.3l0.8-0.4v0.3l146.8-16.6l10.3-88.8v-0.4l0.4-0.1l140.2-28.2
			l12.1-90.2v-0.3l0.2-0.1l143.2-130.3v-0.1l0.2-0.1l1-0.9l-0.1,0.5l114.1-47.5l0.6,0.8L1486,1125.4v0.2l-0.2,0.1l-1,1.1v-0.2
			l-140.5,128.2l-11.9,88.2l-0.1,0.3l-0.3,0.1l-138.6,29l-10,86.6v0.4l-0.4,0.1l-145.7,17.2l0,0h-0.3l-0.8,0.5v-0.1l-156.7,89.7
			l-0.8,0.5l0.1-0.9l6.3-84.9l-156.2,77l-0.8,0.4v-0.9l4.5-85.1l-151.7,64.3l-0.7,0.3v-0.8l2.7-85.3l-1.3-0.2l0.2-0.1L440,1418.3
			l-0.5,0.2v-0.3l-1.2-0.3L439.5,1417.4z"/>
		
			<linearGradient id="SVGID_53_" gradientUnits="userSpaceOnUse" x1="156.5795" y1="1300.2518" x2="1432.9438" y2="2057.9106" gradientTransform="matrix(1 0 0 1 0 -766)">
			<stop  offset="0" style="stop-color:#FF5995"/>
			<stop  offset="1" style="stop-color:#FFBCD4"/>
		</linearGradient>
		<path class="st56" d="M1614.2,985.2l0.3,0.9l0,0l-114.9,47.8l0,0l0,0l-130.8,37.6l0,0l-0.3-0.9l0,0L1614.2,985.2L1614.2,985.2z
			 M444.3,1053.4l-0.4,0.9L177.5,961h-0.1l0,0l-200-124.8l0.5-0.9L444.3,1053.4z"/>
		<path class="st4" d="M440.5,1329.8l1-89.1l-136.2-43.1l-0.5,0.2v-0.3l-1.1-0.3l1.1-0.4l-0.7-90.8l-124.2-51.9l-0.5,0.2v-0.4
			l-0.9-0.4l0.9-0.3l-2.2-92.5v-0.8l0.7,0.3l126.1,51.1l0.5-0.2v0.4l0.9,0.4l-0.9,0.3l0.7,93l137.9,42.5l0.5-0.2v0.3l1.1,0.3
			l-1.1,0.4l-1,91.3l146.4,32.4l0.6-0.2v0.3l1.2,0.3l-1.2,0.5l-2.8,89l155.7-68.8l0.7-0.3v0.8l-4.7,89.3l160.2-81l0.8-0.4l-0.1,0.9
			l-6.6,89.1l160.6-93.2v-0.2h0.3l0.8-0.4v0.4l148.6-16.1l10.5-91v-0.4l0.4-0.1l141.8-27.4l12.4-92.5v-0.3l0.3-0.1l130.9-37.6
			l0.5,0.8l-143.2,130.3l-12.2,90.4l-0.1,0.4l-0.3,0.1l-140.2,28.2l-10.3,88.8v0.4h-0.4l-147.4,16.7l0,0h-0.3l-0.8,0.5v-0.1
			L886,1480.8l-0.8,0.5l0.1-1l6.5-87l-158.2,79l-0.8,0.4v-0.9l4.6-87.2l-153.7,66.5l-0.7,0.3v-0.8l2.7-87.5l-1.3-0.2l0.2-0.1
			L441,1330.7l-0.5,0.2v-0.3l-1.2-0.3L440.5,1329.8z"/>
		
			<linearGradient id="SVGID_54_" gradientUnits="userSpaceOnUse" x1="157.8332" y1="1297.974" x2="1434.3844" y2="2055.75" gradientTransform="matrix(1 0 0 1 0 -766)">
			<stop  offset="0" style="stop-color:#FF5995"/>
			<stop  offset="1" style="stop-color:#FFBCD4"/>
		</linearGradient>
		<path class="st57" d="M-22.2,835.3l1093.7,276.8l542.8-126.9l0.3,1l-245.8,85.5h-0.1h-0.1l-297.1,41.5l-0.1-0.3v0.3L444,1054.4
			h-0.1h-0.1L-22.6,836.3L-22.2,835.3z"/>
		<path class="st4" d="M906.1,1209.8l156.1-3.3l162-109v-0.1l0.3-0.1l0.8-0.6l-0.1,0.4l143.1-26.5l0.4,0.9l-154.5,120.2v0.2h-0.2
			l-0.8,0.6v-0.1l-159.1,106.8v0.2h-0.3l-0.8,0.5v-0.5l-153.9,3.7l0,0h-0.3l-0.7,0.4v-0.4l-155.2-8.7l0,0l-0.4-0.1l-0.6,0.3v-0.4
			l-1.3-0.1l0.2-0.1L589,1273.4l-0.6,0.3v-0.3l-1.3-0.2l1.3-0.6l2.9-92.1v-0.6l0.5,0.1l155.4,20.8l0.6-0.3v0.3l157.6,8.9l0.7-0.3
			L906.1,1209.8z M444.5,1053.5l1.1,0.3l-1.1,0.4l-1.1,94.1v0.7l-0.6-0.2l-138.3-42.7l-0.5,0.2v-0.3l-1.1-0.3l1.1-0.4l-0.7-93.4
			v-0.7l0.6,0.2l140,42l0.5-0.2L444.5,1053.5z"/>
	</g>
</g>
</svg>
