<svg width="573" height="530" viewBox="0 0 573 530" fill="none" xmlns="http://www.w3.org/2000/svg">
<g filter="url(#filter0_f_1003:697)">
<ellipse cx="286.5" cy="258.5" rx="121.5" ry="137.5" fill="white"/>
</g>
<path fill-rule="evenodd" clip-rule="evenodd" d="M328.281 279.88C351.312 303.578 389.099 304.124 412.788 281.102C436.477 258.079 436.917 220.198 413.977 196.594C391.037 172.99 353.437 172.447 329.753 195.097C353.07 172.069 353.599 134.469 330.659 110.865C307.627 87.1664 269.841 86.62 246.152 109.643C222.557 132.574 221.934 170.266 244.779 193.961C221.745 170.449 184.051 169.997 160.456 192.928C136.767 215.951 136.235 253.737 159.267 277.435C182.299 301.134 220.085 301.68 243.774 278.657C267.369 255.726 267.992 218.035 245.146 194.339C268.089 217.757 305.503 218.298 329.187 195.647C305.778 218.581 305.341 256.276 328.281 279.88Z" fill="#FF5995"/>
<path d="M242.586 363.165C265.594 386.838 303.429 387.385 327.093 364.387C350.758 341.388 351.29 303.553 328.282 279.879C305.275 256.206 267.44 255.659 243.775 278.657C220.111 301.656 219.579 339.491 242.586 363.165Z" fill="#FF5995"/>
<path d="M177.156 455.516H182.953V441.922H196.25V437.062H182.953V428.375H197.656V423.516H177.156V455.516ZM212.734 423.516H206.937V455.516H212.734V423.516ZM249.309 423.516H243.543V445.328H243.262L228.199 423.516H223.012V455.516H228.809V433.719H229.074L244.152 455.516H249.309V423.516ZM263.734 455.516L266.375 447.625H278.406L281.063 455.516H287.25L275.969 423.516H268.813L257.547 455.516H263.734ZM267.937 442.969L272.266 430.078H272.516L276.844 442.969H267.937ZM321.762 423.516H315.996V445.328H315.715L300.652 423.516H295.465V455.516H301.262V433.719H301.527L316.605 455.516H321.762V423.516ZM359.469 434.312C358.484 427.203 353.016 423.078 345.922 423.078C337.563 423.078 331.266 429.172 331.266 439.516C331.266 449.844 337.484 455.953 345.922 455.953C353.531 455.953 358.578 451.031 359.469 444.922L353.625 444.891C352.891 448.641 349.828 450.75 346 450.75C340.813 450.75 337.094 446.859 337.094 439.516C337.094 432.297 340.781 428.281 346.016 428.281C349.906 428.281 352.953 430.484 353.625 434.312H359.469ZM368.777 455.516H389.715V450.656H374.574V441.922H388.512V437.062H374.574V428.375H389.59V423.516H368.777V455.516Z" fill="#FF5995"/>
<defs>
<filter id="filter0_f_1003:697" x="65" y="21" width="443" height="475" filterUnits="userSpaceOnUse" color-interpolation-filters="sRGB">
<feFlood flood-opacity="0" result="BackgroundImageFix"/>
<feBlend mode="normal" in="SourceGraphic" in2="BackgroundImageFix" result="shape"/>
<feGaussianBlur stdDeviation="50" result="effect1_foregroundBlur_1003:697"/>
</filter>
</defs>
</svg>
