<svg width="95" height="23" viewBox="0 0 95 23" fill="none" xmlns="http://www.w3.org/2000/svg">
<path d="M13.915 9.77983C13.3823 7.00994 11.1664 5.24148 7.33119 5.24148C3.38943 5.24148 0.704767 7.1804 0.715421 10.206C0.704767 12.5923 2.17494 14.169 5.31769 14.8189L8.10889 15.4048C9.61102 15.7351 10.3141 16.3423 10.3141 17.2692C10.3141 18.3878 9.09966 19.2294 7.26727 19.2294C5.4988 19.2294 4.34823 18.4624 4.01798 16.9922L0.257324 17.3544C0.736728 20.3587 3.26159 22.1378 7.27792 22.1378C11.3688 22.1378 14.2559 20.0178 14.2666 16.9176C14.2559 14.5845 12.7538 13.157 9.66428 12.4858L6.87309 11.8892C5.21116 11.5163 4.55065 10.9411 4.5613 9.9929C4.55065 8.88494 5.77579 8.1179 7.38446 8.1179C9.16357 8.1179 10.1011 9.08736 10.3994 10.1634L13.915 9.77983Z" fill="#FF5995"/>
<path d="M22.1554 22.1484C24.7229 22.1484 26.257 20.9446 26.9601 19.5703H27.0879V21.8182H30.7953V10.8665C30.7953 6.54119 27.269 5.24148 24.1476 5.24148C20.7065 5.24148 18.0645 6.77557 17.2122 9.75852L20.8131 10.2699C21.1966 9.15128 22.2832 8.19247 24.1689 8.19247C25.9587 8.19247 26.9388 9.10867 26.9388 10.7173V10.7812C26.9388 11.8892 25.7776 11.9425 22.8905 12.2514C19.7158 12.5923 16.6796 13.5405 16.6796 17.2266C16.6796 20.4439 19.034 22.1484 22.1554 22.1484ZM23.1568 19.3146C21.5482 19.3146 20.3976 18.5795 20.3976 17.1626C20.3976 15.6818 21.6867 15.0639 23.4125 14.8189C24.4246 14.6804 26.4487 14.4247 26.9494 14.0199V15.9482C26.9494 17.7699 25.4793 19.3146 23.1568 19.3146Z" fill="#FF5995"/>
<path d="M34.6732 21.8182H38.5297V16.321L39.9359 14.8189L44.943 21.8182H49.556L42.8443 12.5178L49.1831 5.45455H44.6767L38.796 12.0277H38.5297V0H34.6732V21.8182Z" fill="#FF5995"/>
<path d="M62.1829 14.9361C62.1829 17.429 60.4038 18.6648 58.6993 18.6648C56.8456 18.6648 55.6098 17.3544 55.6098 15.277V5.45455H51.7532V15.8736C51.7532 19.8047 53.9905 22.0312 57.2078 22.0312C59.6581 22.0312 61.3839 20.7422 62.1297 18.9098H62.3001V21.8182H66.0395V5.45455H62.1829V14.9361Z" fill="#FF5995"/>
<path d="M70.0052 21.8182H73.8617V12.1982C73.8617 10.1207 75.4278 8.65057 77.5478 8.65057C78.1977 8.65057 79.0073 8.76776 79.3376 8.87429V5.3267C78.986 5.26278 78.3788 5.22017 77.9526 5.22017C76.0776 5.22017 74.5116 6.28551 73.915 8.18182H73.7445V5.45455H70.0052V21.8182Z" fill="#FF5995"/>
<path d="M86.2863 22.1484C88.8537 22.1484 90.3878 20.9446 91.091 19.5703H91.2188V21.8182H94.9262V10.8665C94.9262 6.54119 91.3999 5.24148 88.2785 5.24148C84.8374 5.24148 82.1954 6.77557 81.3431 9.75852L84.9439 10.2699C85.3275 9.15128 86.4141 8.19247 88.2998 8.19247C90.0895 8.19247 91.0696 9.10867 91.0696 10.7173V10.7812C91.0696 11.8892 89.9084 11.9425 87.0214 12.2514C83.8466 12.5923 80.8104 13.5405 80.8104 17.2266C80.8104 20.4439 83.1648 22.1484 86.2863 22.1484ZM87.2877 19.3146C85.679 19.3146 84.5285 18.5795 84.5285 17.1626C84.5285 15.6818 85.8175 15.0639 87.5434 14.8189C88.5554 14.6804 90.5796 14.4247 91.0803 14.0199V15.9482C91.0803 17.7699 89.6101 19.3146 87.2877 19.3146Z" fill="#FF5995"/>
</svg>
