<svg width="49" height="49" viewBox="0 0 49 49" fill="none" xmlns="http://www.w3.org/2000/svg">
<path fill-rule="evenodd" clip-rule="evenodd" d="M30.5813 30.5813C33.9633 33.9633 39.4327 33.9644 42.8134 30.5837C46.1941 27.203 46.1795 21.7202 42.811 18.3517C39.4425 14.9831 34 14.9821 30.6194 18.3089C33.9461 14.9282 33.9451 9.48573 30.5766 6.11722C27.1946 2.73523 21.7252 2.73416 18.3445 6.11483C14.9773 9.48203 14.9649 14.9379 18.32 18.3199C14.938 14.9649 9.48206 14.9773 6.11486 18.3445C2.73419 21.7252 2.73526 27.1946 6.11725 30.5765C9.49923 33.9585 14.9686 33.9596 18.3493 30.5789C21.7165 27.2117 21.7289 21.7558 18.3739 18.3738C21.7424 21.7154 27.1579 21.7165 30.5385 18.3897C27.1983 21.7569 27.2128 27.2128 30.5813 30.5813Z" fill="#FF5995"/>
<path d="M18.3517 42.8107C21.7302 46.1892 27.2066 46.1903 30.5838 42.8131C33.9609 39.436 33.9598 33.9595 30.5814 30.5811C27.2029 27.2026 21.7265 27.2016 18.3493 30.5787C14.9722 33.9558 14.9733 39.4323 18.3517 42.8107Z" fill="#FF5995"/>
</svg>
