<svg width="23" height="23" viewBox="0 0 23 23" fill="none" xmlns="http://www.w3.org/2000/svg">
<path fill-rule="evenodd" clip-rule="evenodd" d="M8.5461 8.54579C10.3034 10.3031 13.1526 10.3031 14.91 8.54579C16.6673 6.78846 16.6673 3.93926 14.91 2.18193C13.1526 0.424599 10.3034 0.424599 8.5461 2.18193C6.78877 3.93926 6.78877 6.78846 8.5461 8.54579ZM2.18189 14.91C3.93922 16.6673 6.78842 16.6673 8.54575 14.91C10.3031 13.1527 10.3031 10.3035 8.54575 8.54614C6.78842 6.7888 3.93922 6.7888 2.18189 8.54614C0.42456 10.3035 0.42456 13.1527 2.18189 14.91ZM21.2742 14.91C19.5168 16.6673 16.6676 16.6673 14.9103 14.91C13.153 13.1527 13.153 10.3035 14.9103 8.54614C16.6676 6.7888 19.5168 6.7888 21.2742 8.54614C23.0315 10.3035 23.0315 13.1527 21.2742 14.91ZM14.91 14.9103C13.1526 13.153 10.3034 13.153 8.5461 14.9103C6.78876 16.6677 6.78876 19.5169 8.5461 21.2742C10.3034 23.0315 13.1526 23.0315 14.91 21.2742C16.6673 19.5169 16.6673 16.6677 14.91 14.9103Z" fill="#FF5995"/>
</svg>
