<svg width="24" height="24" viewBox="0 0 24 24" fill="none" xmlns="http://www.w3.org/2000/svg">
<path d="M15.7071 16.7071C15.3166 17.0976 14.6834 17.0976 14.2929 16.7071C13.9024 16.3166 13.9024 15.6834 14.2929 15.2929L15.7071 16.7071ZM19 12L19.7071 11.2929L20.4142 12L19.7071 12.7071L19 12ZM14.2929 8.70711C13.9024 8.31658 13.9024 7.68342 14.2929 7.29289C14.6834 6.90237 15.3166 6.90237 15.7071 7.29289L14.2929 8.70711ZM5 13C4.44772 13 4 12.5523 4 12C4 11.4477 4.44772 11 5 11L5 13ZM14.2929 15.2929L18.2929 11.2929L19.7071 12.7071L15.7071 16.7071L14.2929 15.2929ZM18.2929 12.7071L14.2929 8.70711L15.7071 7.29289L19.7071 11.2929L18.2929 12.7071ZM19 13L5 13L5 11L19 11L19 13Z" fill="white"/>
</svg>
