<svg width="537" height="395" viewBox="0 0 537 395" fill="none" xmlns="http://www.w3.org/2000/svg">
<path d="M531.75 347.971C538.082 351.619 538.124 357.574 531.834 361.265L479.078 391.92C472.787 395.569 462.471 395.569 456.139 391.92L327.017 317.357C320.684 313.709 320.643 307.754 326.933 304.064L379.689 273.408C385.979 269.76 396.296 269.76 402.628 273.408L531.75 347.971ZM478.449 391.585L531.205 360.929C537.201 357.449 537.16 351.787 531.121 348.348L401.999 273.786C396.002 270.305 386.231 270.305 380.234 273.786L327.478 304.441C321.481 307.922 321.523 313.583 327.562 317.022L456.684 391.585C462.723 395.065 472.494 395.065 478.449 391.585Z" fill="black"/>
<path d="M531.75 347.971C538.082 351.619 538.124 357.574 531.834 361.265L479.078 391.92C472.787 395.569 462.471 395.569 456.139 391.92L327.017 317.357C320.684 313.709 320.643 307.754 326.933 304.064L379.689 273.408C385.979 269.76 396.296 269.76 402.628 273.408L531.75 347.971ZM478.449 391.585L531.205 360.929C537.201 357.449 537.16 351.787 531.121 348.348L401.999 273.786C396.002 270.305 386.231 270.305 380.234 273.786L327.478 304.441C321.481 307.922 321.523 313.583 327.562 317.022L456.684 391.585C462.723 395.065 472.494 395.065 478.449 391.585Z" fill="white" fill-opacity="0.2"/>
<mask id="path-2-inside-1_29_3134" fill="white">
<path d="M324.129 243.007C329.371 246.027 329.413 250.975 324.171 253.995L292.383 272.447C287.183 275.466 278.67 275.466 273.428 272.447L190.646 224.639C185.404 221.62 185.362 216.671 190.604 213.652L222.392 195.158C227.592 192.139 236.105 192.139 241.347 195.158L324.129 243.007ZM291.796 272.111L323.584 253.617C328.49 250.766 328.449 246.153 323.542 243.301L240.76 195.536C235.853 192.684 227.885 192.684 222.979 195.536L191.191 214.029C186.285 216.881 186.326 221.494 191.233 224.346L274.015 272.153C278.964 274.963 286.932 274.963 291.796 272.111Z"/>
</mask>
<path d="M324.129 243.007C329.371 246.027 329.413 250.975 324.171 253.995L292.383 272.447C287.183 275.466 278.67 275.466 273.428 272.447L190.646 224.639C185.404 221.62 185.362 216.671 190.604 213.652L222.392 195.158C227.592 192.139 236.105 192.139 241.347 195.158L324.129 243.007ZM291.796 272.111L323.584 253.617C328.49 250.766 328.449 246.153 323.542 243.301L240.76 195.536C235.853 192.684 227.885 192.684 222.979 195.536L191.191 214.029C186.285 216.881 186.326 221.494 191.233 224.346L274.015 272.153C278.964 274.963 286.932 274.963 291.796 272.111Z" fill="black"/>
<path d="M324.129 243.007L323.629 243.873L323.63 243.874L324.129 243.007ZM324.171 253.995L323.672 253.128L323.669 253.13L324.171 253.995ZM292.383 272.447L291.881 271.582L291.881 271.582L292.383 272.447ZM273.428 272.447L272.928 273.313L272.929 273.313L273.428 272.447ZM190.646 224.639L191.146 223.773L191.145 223.773L190.646 224.639ZM190.604 213.652L191.103 214.519L191.107 214.516L190.604 213.652ZM222.392 195.158L221.89 194.293L221.889 194.294L222.392 195.158ZM241.347 195.158L241.847 194.292L241.846 194.292L241.347 195.158ZM291.796 272.111L291.293 271.247L291.291 271.249L291.796 272.111ZM323.584 253.617L323.081 252.753L323.081 252.753L323.584 253.617ZM323.542 243.301L324.044 242.436L324.042 242.435L323.542 243.301ZM240.76 195.536L240.257 196.4L240.26 196.402L240.76 195.536ZM222.979 195.536L222.476 194.671L222.476 194.671L222.979 195.536ZM191.191 214.029L191.694 214.894L191.694 214.894L191.191 214.029ZM191.233 224.346L190.731 225.21L190.733 225.212L191.233 224.346ZM274.015 272.153L273.515 273.019L273.521 273.023L274.015 272.153ZM323.63 243.874C326.067 245.278 327.074 246.994 327.082 248.506C327.09 250.015 326.106 251.726 323.672 253.128L324.67 254.861C327.478 253.244 329.095 250.971 329.082 248.496C329.069 246.025 327.433 243.756 324.628 242.141L323.63 243.874ZM323.669 253.13L291.881 271.582L292.885 273.312L324.673 254.86L323.669 253.13ZM291.881 271.582C289.471 272.982 286.227 273.711 282.921 273.711C279.616 273.711 276.361 272.982 273.927 271.58L272.929 273.313C275.738 274.931 279.359 275.711 282.921 275.711C286.483 275.711 290.096 274.931 292.885 273.312L291.881 271.582ZM273.928 271.581L191.146 223.773L190.146 225.505L272.928 273.313L273.928 271.581ZM191.145 223.773C188.708 222.369 187.701 220.653 187.693 219.14C187.685 217.631 188.669 215.92 191.103 214.519L190.105 212.786C187.297 214.403 185.68 216.676 185.693 219.151C185.706 221.622 187.342 223.89 190.147 225.506L191.145 223.773ZM191.107 214.516L222.895 196.023L221.889 194.294L190.101 212.788L191.107 214.516ZM222.894 196.023C225.304 194.623 228.548 193.894 231.854 193.894C235.159 193.894 238.414 194.623 240.848 196.025L241.846 194.292C239.037 192.674 235.416 191.894 231.854 191.894C228.292 191.894 224.679 192.674 221.89 194.293L222.894 196.023ZM240.846 196.024L323.629 243.873L324.63 242.142L241.847 194.292L240.846 196.024ZM292.299 272.976L324.087 254.482L323.081 252.753L291.293 271.247L292.299 272.976ZM324.086 254.482C326.724 252.949 328.256 250.802 328.243 248.454C328.23 246.109 326.679 243.967 324.044 242.436L323.039 244.166C325.312 245.486 326.235 247.077 326.243 248.465C326.251 249.848 325.35 251.434 323.081 252.753L324.086 254.482ZM324.042 242.435L241.26 194.669L240.26 196.402L323.042 244.167L324.042 242.435ZM241.262 194.671C238.62 193.136 235.218 192.397 231.869 192.397C228.521 192.397 225.118 193.136 222.476 194.671L223.481 196.4C225.746 195.084 228.78 194.397 231.869 194.397C234.958 194.397 237.992 195.084 240.257 196.4L241.262 194.671ZM222.476 194.671L190.688 213.165L191.694 214.894L223.482 196.4L222.476 194.671ZM190.689 213.165C188.051 214.698 186.519 216.845 186.532 219.193C186.545 221.538 188.096 223.679 190.731 225.21L191.736 223.481C189.463 222.161 188.54 220.57 188.532 219.182C188.524 217.798 189.425 216.213 191.694 214.894L190.689 213.165ZM190.733 225.212L273.515 273.019L274.515 271.287L191.733 223.48L190.733 225.212ZM273.521 273.023C276.181 274.533 279.591 275.261 282.939 275.255C286.286 275.25 289.679 274.511 292.302 272.974L291.291 271.249C289.048 272.563 286.026 273.25 282.936 273.255C279.846 273.26 276.798 272.583 274.509 271.284L273.521 273.023Z" fill="black" mask="url(#path-2-inside-1_29_3134)"/>
<path d="M137.006 164.71C142.416 167.814 142.416 172.888 137.09 175.991L105.805 194.15C100.437 197.253 91.7147 197.253 86.3049 194.15L4.06788 146.678C-1.3419 143.575 -1.3419 138.5 3.98401 135.397L35.2685 117.239C40.6363 114.135 49.3591 114.135 54.7688 117.239L137.006 164.71ZM105.218 193.814L136.503 175.656C141.535 172.72 141.493 167.981 136.461 165.046L54.1817 117.532C49.1074 114.597 40.8879 114.597 35.8556 117.532L4.57111 135.732C-0.461243 138.668 -0.419304 143.407 4.61305 146.342L86.892 193.856C91.9663 196.75 100.186 196.75 105.218 193.814Z" fill="black"/>
<path d="M170.347 327.179C175.086 329.905 175.086 334.35 170.389 337.076L140.404 354.522C135.707 357.248 128.033 357.248 123.336 354.522L46.0896 309.943C41.3508 307.218 41.3508 302.772 46.0477 300.047L76.0321 282.601C80.729 279.875 88.4033 279.875 93.1002 282.601L170.347 327.179ZM139.817 354.186L169.802 336.741C174.163 334.183 174.163 330.073 169.76 327.515L92.5131 282.937C88.1098 280.378 80.9806 280.378 76.6192 282.937L46.5929 300.382C42.2315 302.94 42.2315 307.05 46.6348 309.608L123.881 354.228C128.327 356.702 135.456 356.702 139.817 354.186Z" fill="black"/>
<path d="M214.797 200.106L124.55 146.805L113.73 151.837L113.562 151.418L124.55 146.302L215.048 199.771L214.797 200.106Z" fill="black"/>
<path d="M192.654 243.428L192.528 243.344L120.314 201.03L99.933 213.108L99.8492 213.024L22.6025 168.907L31.9963 162.323L32.2479 162.659L23.3574 168.907L99.933 212.605L120.314 200.527L120.44 200.611L192.654 242.925L207.08 233.699L207.332 234.034L192.654 243.428Z" fill="black"/>
<path d="M120.187 299.453L119.936 299.117L159.23 272.739L176.759 282.804L229.054 246.403L229.305 246.739L176.759 283.307L176.675 283.223L159.23 273.243L120.187 299.453Z" fill="black"/>
<path d="M411.478 279.326L411.226 278.99L433.956 262.719L380.697 231.351L356.877 245.567L356.751 245.483L304.54 214.283L288.059 222.754L287.892 222.418L304.54 213.779L304.666 213.863L356.877 245.064L380.697 230.847L380.822 230.931L434.711 262.719L434.459 262.887L411.478 279.326Z" fill="black"/>
<path d="M298.569 268.282L298.337 268.632L340.551 296.636L340.783 296.287L298.569 268.282Z" fill="black"/>
<path d="M165.983 353.844L165.857 353.76L153.737 346.338L153.989 346.002L165.983 353.341L206.493 327.718L167.744 305.953L167.996 305.743L239.916 252.4L240.168 252.736L168.499 305.869L207.332 327.718L165.983 353.844Z" fill="black"/>
<path d="M218.115 142.448L237.532 131.167C230.445 135.864 226.377 144.754 226.419 156.706C226.461 168.616 230.529 182.203 237.909 194.952C245.5 208.078 255.481 218.227 265.503 224.014C275.526 229.801 285.507 231.185 293.139 226.824L273.723 238.104C266.09 242.466 256.068 241.04 246.087 235.295C236.106 229.508 226.083 219.359 218.493 206.233C211.112 193.484 207.044 179.897 207.002 167.987C206.96 155.993 211.028 147.103 218.115 142.448Z" fill="#F955A3"/>
<path d="M218.115 142.448L237.532 131.167C230.445 135.864 226.377 144.754 226.419 156.706C226.461 168.616 230.529 182.203 237.909 194.952C245.5 208.078 255.481 218.227 265.503 224.014C275.526 229.801 285.507 231.185 293.139 226.824L273.723 238.104C266.09 242.466 256.068 241.04 246.087 235.295C236.106 229.508 226.083 219.359 218.493 206.233C211.112 193.484 207.044 179.897 207.002 167.987C206.96 155.993 211.028 147.103 218.115 142.448Z" fill="#F955A3" stroke="white" stroke-width="0.5" stroke-miterlimit="10"/>
<path d="M218.115 142.448L237.532 131.167C230.445 135.864 226.377 144.754 226.419 156.706C226.461 168.616 230.529 182.203 237.909 194.952C245.5 208.078 255.481 218.227 265.503 224.014C275.526 229.801 285.507 231.185 293.139 226.824L273.723 238.104C266.09 242.466 256.068 241.04 246.087 235.295C236.106 229.508 226.083 219.359 218.493 206.233C211.112 193.484 207.044 179.897 207.002 167.987C206.96 155.993 211.028 147.103 218.115 142.448Z" stroke="white" stroke-width="0.5" stroke-miterlimit="10"/>
<path d="M163.048 47.0807L182.465 35.7998C167.368 44.3967 167.41 72.8295 182.591 99.0816C189.887 111.746 199.617 122.021 210.017 128.018C220.291 133.973 230.062 135.063 237.527 131.163L218.111 142.444C210.646 146.344 200.875 145.253 190.6 139.299C180.2 133.302 170.471 123.027 163.174 110.363C147.993 84.0685 147.951 55.6776 163.048 47.0807Z" fill="#F955A3"/>
<path d="M163.048 47.0807L182.465 35.7998C167.368 44.3967 167.41 72.8295 182.591 99.0816C189.887 111.746 199.617 122.021 210.017 128.018C220.291 133.973 230.062 135.063 237.527 131.163L218.111 142.444C210.646 146.344 200.875 145.253 190.6 139.299C180.2 133.302 170.471 123.027 163.174 110.363C147.993 84.0685 147.951 55.6776 163.048 47.0807Z" fill="#F955A3" stroke="white" stroke-width="0.5" stroke-miterlimit="10"/>
<path d="M163.048 47.0807L182.465 35.7998C167.368 44.3967 167.41 72.8295 182.591 99.0816C189.887 111.746 199.617 122.021 210.017 128.018C220.291 133.973 230.062 135.063 237.527 131.163L218.111 142.444C210.646 146.344 200.875 145.253 190.6 139.299C180.2 133.302 170.471 123.027 163.174 110.363C147.993 84.0685 147.951 55.6776 163.048 47.0807Z" stroke="white" stroke-width="0.5" stroke-miterlimit="10"/>
<path d="M182.508 35.8046C188.17 32.5755 195.131 32.4916 202.386 34.9658C195.928 38.7401 189.428 42.5144 182.97 46.2467C175.715 43.7725 168.753 43.8563 163.092 47.0854C168.879 43.6886 176.637 39.1595 182.508 35.8046Z" fill="#F955A3"/>
<path d="M163.052 47.0845L182.468 35.8036C190.143 31.4003 200.207 32.8262 210.23 38.6134C220.127 44.3167 229.94 54.2975 237.405 67.2139L217.988 78.4948C210.524 65.5784 200.711 55.5976 190.814 49.8942C180.833 44.107 170.768 42.6812 163.052 47.0845Z" fill="#F955A3" stroke="white" stroke-width="0.5" stroke-miterlimit="10"/>
<path d="M182.508 35.8046C188.17 32.5755 195.131 32.4916 202.386 34.9658C195.928 38.7401 189.428 42.5144 182.97 46.2467C175.715 43.7725 168.753 43.8563 163.092 47.0854C168.879 43.6886 176.637 39.1595 182.508 35.8046Z" stroke="white" stroke-width="0.5" stroke-miterlimit="10"/>
<path d="M263.53 133.136C257.072 136.91 250.572 140.684 244.114 144.417C234.72 139.636 225.829 138.923 218.742 142.11L238.159 130.829C245.246 127.642 254.094 128.313 263.53 133.136Z" fill="#F955A3"/>
<path d="M218.703 142.113L238.12 130.833C245.836 127.394 255.607 128.526 265.923 134.439C274.898 139.597 283.369 147.984 290.204 158.301L270.788 169.582C263.952 159.265 255.439 150.92 246.507 145.72C236.191 139.765 226.419 138.675 218.703 142.113Z" fill="#F955A3" stroke="white" stroke-width="0.5" stroke-miterlimit="10"/>
<path d="M263.53 133.136C257.072 136.91 250.572 140.684 244.114 144.417C234.72 139.636 225.829 138.923 218.742 142.11L238.159 130.829C245.246 127.642 254.094 128.313 263.53 133.136Z" stroke="white" stroke-width="0.5" stroke-miterlimit="10"/>
<path d="M292.76 162.993C286.302 166.767 279.802 170.542 273.344 174.274C279.802 170.542 286.302 166.767 292.76 162.993Z" fill="#F955A3"/>
<path d="M270.782 169.575L290.199 158.294C290.996 159.888 291.876 161.481 292.757 163.033C293.763 164.794 294.812 166.472 295.902 168.107L276.486 179.346C275.395 177.71 274.347 176.033 273.34 174.272C272.418 172.72 271.579 171.126 270.782 169.575Z" fill="#F955A3" stroke="white" stroke-width="0.5" stroke-miterlimit="10"/>
<path d="M292.76 162.993C286.302 166.767 279.802 170.542 273.344 174.274C279.802 170.542 286.302 166.767 292.76 162.993Z" stroke="white" stroke-width="0.5" stroke-miterlimit="10"/>
<path d="M292.76 162.993C293.767 164.754 294.815 166.432 295.905 168.067L276.489 179.348C275.399 177.713 274.35 176.035 273.344 174.274C279.802 170.542 286.302 166.767 292.76 162.993Z" fill="#F955A3"/>
<path d="M270.782 169.575L290.199 158.294C290.996 159.888 291.876 161.481 292.757 163.033C293.763 164.794 294.812 166.472 295.902 168.107L276.486 179.346C275.395 177.71 274.347 176.033 273.34 174.272C272.418 172.72 271.579 171.126 270.782 169.575Z" fill="#F955A3" stroke="white" stroke-width="0.5" stroke-miterlimit="10"/>
<path d="M292.76 162.993C293.767 164.754 294.815 166.432 295.905 168.067L276.489 179.348C275.399 177.713 274.35 176.035 273.344 174.274C279.802 170.542 286.302 166.767 292.76 162.993Z" stroke="white" stroke-width="0.5" stroke-miterlimit="10"/>
<path d="M304.71 201.661C304.668 213.655 300.6 222.587 293.177 226.781L273.761 238.062C281.142 233.868 285.251 224.936 285.293 212.942C285.335 202.416 282.232 190.674 276.529 179.351L295.945 168.07C301.648 179.393 304.71 191.177 304.71 201.661Z" fill="#F955A3"/>
<path d="M276.487 179.351L295.903 168.07C301.606 179.393 304.71 191.135 304.668 201.661C304.626 213.655 300.558 222.587 293.135 226.781L273.719 238.062C281.1 233.868 285.209 224.936 285.251 212.942C285.293 202.458 282.19 190.674 276.487 179.351Z" fill="#F955A3" stroke="white" stroke-width="0.5" stroke-miterlimit="10"/>
<path d="M304.71 201.661C304.668 213.655 300.6 222.587 293.177 226.781L273.761 238.062C281.142 233.868 285.251 224.936 285.293 212.942C285.335 202.416 282.232 190.674 276.529 179.351L295.945 168.07C301.648 179.393 304.71 191.177 304.71 201.661Z" stroke="white" stroke-width="0.5" stroke-miterlimit="10"/>
<path d="M221.385 140.936L240.801 129.655C247.93 127.181 256.695 128.69 265.879 133.974C274.392 138.881 282.486 146.639 289.154 156.243L269.737 167.523C263.069 157.962 254.976 150.204 246.463 145.255C237.279 139.971 228.514 138.462 221.385 140.936Z" fill="#E64086"/>
<path d="M221.385 140.936L240.801 129.655C247.93 127.181 256.695 128.69 265.879 133.974C274.392 138.881 282.486 146.639 289.154 156.243L269.737 167.523C263.069 157.962 254.976 150.204 246.463 145.255C237.279 139.971 228.514 138.462 221.385 140.936Z" fill="#E64086" stroke="white" stroke-width="0.5" stroke-miterlimit="10"/>
<path d="M221.385 140.936L240.801 129.655C247.93 127.181 256.695 128.69 265.879 133.974C274.392 138.881 282.486 146.639 289.154 156.243L269.737 167.523C263.069 157.962 254.976 150.204 246.463 145.255C237.279 139.971 228.514 138.462 221.385 140.936Z" stroke="white" stroke-width="0.5" stroke-miterlimit="10"/>
<path d="M295.908 168.07C296.327 168.699 296.746 169.328 297.208 169.957L277.791 181.238C277.372 180.609 276.953 179.98 276.533 179.351C282.991 175.619 289.45 171.844 295.866 168.112C289.408 171.844 282.949 175.619 276.533 179.351C282.32 175.996 290.079 171.467 295.908 168.07Z" fill="#F955A3"/>
<path d="M276.493 179.351L295.91 168.07C296.329 168.699 296.748 169.328 297.21 169.957L277.793 181.238C277.332 180.651 276.913 180.022 276.493 179.351Z" fill="#F955A3" stroke="white" stroke-width="0.5" stroke-miterlimit="10"/>
<path d="M295.908 168.07C296.327 168.699 296.746 169.328 297.208 169.957L277.791 181.238C277.372 180.609 276.953 179.98 276.533 179.351C282.991 175.619 289.45 171.844 295.866 168.112C289.408 171.844 282.949 175.619 276.533 179.351C282.32 175.996 290.079 171.467 295.908 168.07Z" stroke="white" stroke-width="0.5" stroke-miterlimit="10"/>
<path d="M305.089 201.91C305.048 214.029 300.938 223.045 293.431 227.281L274.015 238.562C281.479 234.284 285.631 225.31 285.673 213.19C285.715 203.168 282.947 192.055 277.789 181.235L297.205 169.954C302.322 180.774 305.131 191.887 305.089 201.91Z" fill="#F955A3"/>
<path d="M277.749 181.235L297.165 169.954C302.324 180.774 305.091 191.887 305.049 201.91C305.007 214.029 300.898 223.045 293.391 227.281L273.975 238.562C281.439 234.284 285.591 225.31 285.633 213.19C285.675 203.168 282.907 192.055 277.749 181.235Z" fill="#E64086" stroke="white" stroke-width="0.5" stroke-miterlimit="10"/>
<path d="M305.089 201.91C305.048 214.029 300.938 223.045 293.431 227.281L274.015 238.562C281.479 234.284 285.631 225.31 285.673 213.19C285.715 203.168 282.947 192.055 277.789 181.235L297.205 169.954C302.322 180.774 305.131 191.887 305.089 201.91Z" stroke="white" stroke-width="0.5" stroke-miterlimit="10"/>
<path d="M162.799 46.5805L182.215 35.2996C189.974 30.8544 200.164 32.2802 210.271 38.1093C219.119 43.2256 227.926 51.7386 235.055 62.684L215.639 73.9649C208.509 63.0195 199.703 54.5064 190.854 49.3902C180.748 43.5611 170.557 42.1772 162.799 46.5805Z" fill="#FF9DC0"/>
<path d="M162.799 46.5805L182.215 35.2996C189.974 30.8544 200.164 32.2802 210.271 38.1093C219.119 43.2256 227.926 51.7386 235.055 62.684L215.639 73.9649C208.509 63.0195 199.703 54.5064 190.854 49.3902C180.748 43.5611 170.557 42.1772 162.799 46.5805Z" fill="#E64086" stroke="white" stroke-width="0.5" stroke-miterlimit="10"/>
<path d="M162.799 46.5805L182.215 35.2996C189.974 30.8544 200.164 32.2802 210.271 38.1093C219.119 43.2256 227.926 51.7386 235.055 62.684L215.639 73.9649C208.509 63.0195 199.703 54.5064 190.854 49.3902C180.748 43.5611 170.557 42.1772 162.799 46.5805Z" stroke="white" stroke-width="0.5" stroke-miterlimit="10"/>
<path d="M219.164 79.1217L238.581 67.8408C245.5 80.5056 249.484 93.9252 249.442 105.877C249.4 117.829 245.375 126.677 238.12 130.787L218.703 142.068C225.958 137.916 229.984 129.068 230.026 117.158C230.026 105.248 226.084 91.7864 219.164 79.1217Z" fill="#F955A3"/>
<path d="M219.164 79.1217L238.581 67.8408C245.5 80.5056 249.484 93.9252 249.442 105.877C249.4 117.829 245.375 126.677 238.12 130.787L218.703 142.068C225.958 137.916 229.984 129.068 230.026 117.158C230.026 105.248 226.084 91.7864 219.164 79.1217Z" fill="#F955A3" stroke="white" stroke-width="0.5" stroke-miterlimit="10"/>
<path d="M219.164 79.1217L238.581 67.8408C245.5 80.5056 249.484 93.9252 249.442 105.877C249.4 117.829 245.375 126.677 238.12 130.787L218.703 142.068C225.958 137.916 229.984 129.068 230.026 117.158C230.026 105.248 226.084 91.7864 219.164 79.1217Z" stroke="white" stroke-width="0.5" stroke-miterlimit="10"/>
<path d="M221.762 83.984L241.179 72.7031C246.798 83.9001 249.818 95.6003 249.818 106.084C249.776 116.736 246.63 124.956 240.801 129.611L221.385 140.892C227.172 136.237 230.359 128.017 230.401 117.365C230.443 106.881 227.382 95.181 221.762 83.984Z" fill="#F955A3"/>
<path d="M221.762 83.984L241.179 72.7031C246.798 83.9001 249.818 95.6003 249.818 106.084C249.776 116.736 246.63 124.956 240.801 129.611L221.385 140.892C227.172 136.237 230.359 128.017 230.401 117.365C230.443 106.881 227.382 95.181 221.762 83.984Z" fill="#E64086" stroke="white" stroke-width="0.5" stroke-miterlimit="10"/>
<path d="M221.762 83.984L241.179 72.7031C246.798 83.9001 249.818 95.6003 249.818 106.084C249.776 116.736 246.63 124.956 240.801 129.611L221.385 140.892C227.172 136.237 230.359 128.017 230.401 117.365C230.443 106.881 227.382 95.181 221.762 83.984Z" stroke="white" stroke-width="0.5" stroke-miterlimit="10"/>
<path d="M218.868 79.2904L238.327 68.0095L238.578 67.8418L219.162 79.1227L218.868 79.2904Z" fill="#F955A3" stroke="white" stroke-width="0.5" stroke-miterlimit="10"/>
<path d="M219.162 79.1217L238.579 67.8408C245.75 80.2959 255.311 90.3606 265.46 96.2317L246.043 107.513C235.895 101.683 226.333 91.5768 219.162 79.1217Z" fill="#F955A3"/>
<path d="M219.162 79.1217L238.579 67.8408C245.75 80.2959 255.311 90.3606 265.46 96.2317L246.043 107.513C235.895 101.683 226.333 91.5768 219.162 79.1217Z" fill="#F955A3" stroke="white" stroke-width="0.5" stroke-miterlimit="10"/>
<path d="M219.162 79.1217L238.579 67.8408C245.75 80.2959 255.311 90.3606 265.46 96.2317L246.043 107.513C235.895 101.683 226.333 91.5768 219.162 79.1217Z" stroke="white" stroke-width="0.5" stroke-miterlimit="10"/>
<path d="M273.806 110.659L293.222 99.3779C285.842 103.613 281.732 112.504 281.69 124.498C281.648 136.492 285.674 150.121 293.055 162.828C300.394 175.576 310.207 185.892 320.649 191.931C331.091 197.97 340.904 198.935 348.285 194.741L328.868 206.022C321.487 210.257 311.632 209.251 301.232 203.212C290.79 197.173 281.019 186.857 273.638 174.108C266.299 161.402 262.273 147.772 262.273 135.779C262.273 123.785 266.383 114.894 273.806 110.659Z" fill="#F955A3"/>
<path d="M273.806 110.659L293.222 99.3779C285.842 103.613 281.732 112.504 281.69 124.498C281.648 136.492 285.674 150.121 293.055 162.828C300.394 175.576 310.207 185.892 320.649 191.931C331.091 197.97 340.904 198.935 348.285 194.741L328.868 206.022C321.487 210.257 311.632 209.251 301.232 203.212C290.79 197.173 281.019 186.857 273.638 174.108C266.299 161.402 262.273 147.772 262.273 135.779C262.273 123.785 266.383 114.894 273.806 110.659Z" fill="#F955A3" stroke="white" stroke-width="0.5" stroke-miterlimit="10"/>
<path d="M273.806 110.659L293.222 99.3779C285.842 103.613 281.732 112.504 281.69 124.498C281.648 136.492 285.674 150.121 293.055 162.828C300.394 175.576 310.207 185.892 320.649 191.931C331.091 197.97 340.904 198.935 348.285 194.741L328.868 206.022C321.487 210.257 311.632 209.251 301.232 203.212C290.79 197.173 281.019 186.857 273.638 174.108C266.299 161.402 262.273 147.772 262.273 135.779C262.273 123.785 266.383 114.894 273.806 110.659Z" stroke="white" stroke-width="0.5" stroke-miterlimit="10"/>
<path d="M246.043 107.555L265.459 96.2744C275.86 102.229 285.547 103.152 292.928 98.9164L273.511 110.197C266.13 114.391 256.443 113.468 246.043 107.555Z" fill="#F955A3"/>
<path d="M246.043 107.555L265.459 96.2744C275.86 102.229 285.547 103.152 292.928 98.9164L273.511 110.197C266.13 114.391 256.443 113.468 246.043 107.555Z" fill="#F955A3" stroke="white" stroke-width="0.5" stroke-miterlimit="10"/>
<path d="M246.043 107.555L265.459 96.2744C275.86 102.229 285.547 103.152 292.928 98.9164L273.511 110.197C266.13 114.391 256.443 113.468 246.043 107.555Z" stroke="white" stroke-width="0.5" stroke-miterlimit="10"/>
<path d="M218.744 15.3375L238.16 4.05664C230.822 8.25027 226.754 17.1408 226.712 29.0507C226.67 40.8767 230.57 54.3802 237.699 67.003L218.283 78.2839C211.153 65.6191 207.253 52.1576 207.295 40.3315C207.337 28.4216 211.405 19.5311 218.744 15.3375Z" fill="#F955A3"/>
<path d="M218.744 15.3375L238.16 4.05664C230.822 8.25027 226.754 17.1408 226.712 29.0507C226.67 40.8767 230.57 54.3802 237.699 67.003L218.283 78.2839C211.153 65.6191 207.253 52.1576 207.295 40.3315C207.337 28.4216 211.405 19.5311 218.744 15.3375Z" fill="#F955A3" stroke="white" stroke-width="0.5" stroke-miterlimit="10"/>
<path d="M218.744 15.3375L238.16 4.05664C230.822 8.25027 226.754 17.1408 226.712 29.0507C226.67 40.8767 230.57 54.3802 237.699 67.003L218.283 78.2839C211.153 65.6191 207.253 52.1576 207.295 40.3315C207.337 28.4216 211.405 19.5311 218.744 15.3375Z" stroke="white" stroke-width="0.5" stroke-miterlimit="10"/>
<path d="M241.596 2.54492C235.137 6.31919 228.637 10.0935 222.179 13.8258C221.005 14.2032 219.873 14.7064 218.782 15.3355L238.199 4.05463C239.289 3.42558 240.421 2.92235 241.596 2.54492Z" fill="#F955A3"/>
<path d="M218.741 15.3347L238.158 4.05382C245.538 -0.139805 255.352 0.82473 265.794 6.77968L246.377 18.0605C235.935 12.1056 226.122 11.1411 218.741 15.3347Z" fill="#F955A3" stroke="white" stroke-width="0.5" stroke-miterlimit="10"/>
<path d="M241.596 2.54492C235.137 6.31919 228.637 10.0935 222.179 13.8258C221.005 14.2032 219.873 14.7064 218.782 15.3355L238.199 4.05463C239.289 3.42558 240.421 2.92235 241.596 2.54492Z" stroke="white" stroke-width="0.5" stroke-miterlimit="10"/>
<path d="M241.594 2.54611C248.472 0.239617 256.901 1.70739 265.791 6.82361L246.375 18.1045C237.484 12.9882 229.055 11.5624 222.178 13.827C227.462 10.7656 232.788 7.66234 238.072 4.60099C238.659 4.2655 239.246 3.93001 239.833 3.55258C239.959 3.46871 240.168 3.38484 240.294 3.30096C240.378 3.25903 240.462 3.21709 240.504 3.17516C240.588 3.13322 240.672 3.09128 240.714 3.04935C240.797 3.00741 240.881 2.96548 240.923 2.92354C241.049 2.83967 241.217 2.75579 241.343 2.67192C241.468 2.62998 241.51 2.54611 241.594 2.54611Z" fill="#F955A3"/>
<path d="M218.741 15.3366L238.158 4.05578C245.538 -0.137852 255.352 0.826683 265.794 6.78163L246.377 18.0625C235.935 12.1075 226.122 11.143 218.741 15.3366Z" fill="#F955A3" stroke="white" stroke-width="0.5" stroke-miterlimit="10"/>
<path d="M241.594 2.54611C248.472 0.239617 256.901 1.70739 265.791 6.82361L246.375 18.1045C237.484 12.9882 229.055 11.5624 222.178 13.827C227.462 10.7656 232.788 7.66234 238.072 4.60099C238.659 4.2655 239.246 3.93001 239.833 3.55258C239.959 3.46871 240.168 3.38484 240.294 3.30096C240.378 3.25903 240.462 3.21709 240.504 3.17516C240.588 3.13322 240.672 3.09128 240.714 3.04935C240.797 3.00741 240.881 2.96548 240.923 2.92354C241.049 2.83967 241.217 2.75579 241.343 2.67192C241.468 2.62998 241.51 2.54611 241.594 2.54611Z" stroke="white" stroke-width="0.5" stroke-miterlimit="10"/>
<path d="M246.379 18.0611L265.795 6.78027C276.279 12.8191 285.925 22.9677 293.138 35.4228C308.319 61.7168 308.235 90.1915 292.97 98.8724L273.554 110.153C288.818 101.43 288.902 72.9557 273.721 46.7036C266.508 34.2905 256.863 24.1419 246.379 18.0611Z" fill="#F955A3"/>
<path d="M246.379 18.0611L265.795 6.78027C276.279 12.8191 285.925 22.9677 293.138 35.4228C308.319 61.7168 308.235 90.1915 292.97 98.8724L273.554 110.153C288.818 101.43 288.902 72.9557 273.721 46.7036C266.508 34.2905 256.863 24.1419 246.379 18.0611Z" fill="#F955A3" stroke="white" stroke-width="0.5" stroke-miterlimit="10"/>
<path d="M246.379 18.0611L265.795 6.78027C276.279 12.8191 285.925 22.9677 293.138 35.4228C308.319 61.7168 308.235 90.1915 292.97 98.8723L273.554 110.153C288.818 101.43 288.902 72.9557 273.721 46.7036C266.508 34.2905 256.863 24.1419 246.379 18.0611Z" stroke="white" stroke-width="0.5" stroke-miterlimit="10"/>
<path d="M359.815 169.62C359.773 181.614 355.705 190.547 348.283 194.74L328.866 206.021C336.247 201.785 340.357 192.895 340.399 180.901V180.859C346.857 177.085 353.315 173.353 359.815 169.62C359.815 169.578 359.815 169.578 359.815 169.62Z" fill="#F955A3"/>
<path d="M301.441 113.469L320.858 102.188C331.3 108.227 341.071 118.544 348.452 131.292C355.791 144.041 359.817 157.628 359.817 169.622C359.775 181.616 355.707 190.548 348.284 194.742L328.868 206.023C336.249 201.787 340.358 192.897 340.4 180.903C340.442 168.909 336.416 155.28 329.035 142.573C321.697 129.824 311.884 119.508 301.441 113.469Z" fill="#F955A3" stroke="white" stroke-width="0.5" stroke-miterlimit="10"/>
<path d="M359.815 169.62C359.773 181.614 355.705 190.547 348.283 194.74L328.866 206.021C336.247 201.785 340.357 192.895 340.399 180.901V180.859C346.857 177.085 353.315 173.353 359.815 169.62ZM359.815 169.62C359.815 169.578 359.815 169.578 359.815 169.62Z" stroke="white" stroke-width="0.5" stroke-miterlimit="10"/>
<path d="M293.22 99.3772C300.601 95.1836 310.456 96.1481 320.856 102.187L301.44 113.468C290.998 107.429 281.184 106.464 273.804 110.658C279.633 107.303 287.391 102.732 293.22 99.3772Z" fill="#F955A3"/>
<path d="M273.804 110.658L293.22 99.3772C300.601 95.1836 310.456 96.1481 320.856 102.187L301.44 113.468C290.998 107.471 281.184 106.464 273.804 110.658Z" fill="#F955A3" stroke="white" stroke-width="0.5" stroke-miterlimit="10"/>
<path d="M293.22 99.3772C300.601 95.1836 310.456 96.1481 320.856 102.187L301.44 113.468C290.998 107.429 281.184 106.464 273.804 110.658C279.633 107.303 287.391 102.732 293.22 99.3772Z" stroke="white" stroke-width="0.5" stroke-miterlimit="10"/>
<path d="M351.975 137.919C357.091 148.613 359.859 159.642 359.817 169.581C353.359 173.355 346.859 177.129 340.401 180.862C340.443 170.965 337.675 159.935 332.559 149.2C339.017 145.467 345.475 141.693 351.975 137.919Z" fill="#F955A3"/>
<path d="M301.441 113.469L320.858 102.188C331.3 108.227 341.071 118.544 348.452 131.292C355.791 144.041 359.817 157.628 359.817 169.622C359.775 181.616 355.707 190.548 348.284 194.742L328.868 206.023C336.249 201.787 340.358 192.897 340.4 180.903C340.442 168.909 336.416 155.28 329.035 142.573C321.697 129.824 311.884 119.508 301.441 113.469Z" fill="#F955A3" stroke="white" stroke-width="0.5" stroke-miterlimit="10"/>
<path d="M351.975 137.919C357.091 148.613 359.859 159.642 359.817 169.581C353.359 173.355 346.859 177.129 340.401 180.862C340.443 170.965 337.675 159.935 332.559 149.2C339.017 145.467 345.475 141.693 351.975 137.919Z" stroke="white" stroke-width="0.5" stroke-miterlimit="10"/>
<path d="M320.899 102.188C330.041 107.472 338.638 116.027 345.599 126.595C339.141 130.37 332.641 134.144 326.183 137.876C319.263 127.308 310.625 118.753 301.482 113.469C307.27 110.072 315.07 105.585 320.899 102.188Z" fill="#F955A3"/>
<path d="M301.441 113.469L320.858 102.188C331.3 108.227 341.071 118.544 348.452 131.292C355.791 144.041 359.817 157.628 359.817 169.622C359.775 181.616 355.707 190.548 348.284 194.742L328.868 206.023C336.249 201.787 340.358 192.897 340.4 180.903C340.442 168.909 336.416 155.28 329.035 142.573C321.697 129.824 311.884 119.508 301.441 113.469Z" fill="#F955A3" stroke="white" stroke-width="0.5" stroke-miterlimit="10"/>
<path d="M320.899 102.188C330.041 107.472 338.638 116.027 345.599 126.595C339.141 130.37 332.641 134.144 326.183 137.876C319.263 127.308 310.625 118.753 301.482 113.469C307.27 110.072 315.07 105.585 320.899 102.188Z" stroke="white" stroke-width="0.5" stroke-miterlimit="10"/>
<path d="M350.841 135.653C344.383 139.427 337.883 143.201 331.425 146.934C330.67 145.466 329.873 143.998 329.034 142.53C328.112 140.937 327.147 139.385 326.141 137.834C332.599 134.059 339.099 130.285 345.557 126.553C346.564 128.062 347.528 129.614 348.451 131.25C349.289 132.717 350.086 134.185 350.841 135.653Z" fill="#F955A3"/>
<path d="M301.441 113.469L320.858 102.188C331.3 108.227 341.071 118.544 348.452 131.292C355.791 144.041 359.817 157.628 359.817 169.622C359.775 181.616 355.707 190.548 348.284 194.742L328.868 206.023C336.249 201.787 340.358 192.897 340.4 180.903C340.442 168.909 336.416 155.28 329.035 142.573C321.697 129.824 311.884 119.508 301.441 113.469Z" fill="#F955A3" stroke="white" stroke-width="0.5" stroke-miterlimit="10"/>
<path d="M350.841 135.653C344.383 139.427 337.883 143.201 331.425 146.934C330.67 145.466 329.873 143.998 329.034 142.53C328.112 140.937 327.147 139.385 326.141 137.834C332.599 134.059 339.099 130.285 345.557 126.553C346.564 128.062 347.528 129.614 348.451 131.25C349.289 132.717 350.086 134.185 350.841 135.653Z" stroke="white" stroke-width="0.5" stroke-miterlimit="10"/>
<path d="M329.285 142.403C336.708 155.277 340.776 168.99 340.734 181.11C340.692 193.23 336.582 202.246 329.076 206.482C321.36 210.885 311.253 209.459 301.146 203.63C292.885 198.849 284.623 191.133 277.704 181.236C277.285 180.607 276.823 179.978 276.404 179.349C275.314 177.713 274.265 176.036 273.259 174.274C272.336 172.723 271.497 171.129 270.701 169.536C270.365 168.865 270.03 168.152 269.694 167.481C264.536 156.661 261.768 145.548 261.81 135.567C261.852 124.999 264.997 116.78 270.784 112.041C271.623 111.37 272.504 110.741 273.468 110.196C274.391 109.651 275.397 109.189 276.404 108.854C283.449 106.296 292.172 107.722 301.398 113.047C312.008 119.128 321.863 129.528 329.285 142.403ZM328.866 206.02C336.247 201.785 340.357 192.894 340.399 180.9C340.441 168.907 336.415 155.277 329.034 142.571C321.695 129.822 311.882 119.506 301.44 113.467C290.998 107.428 281.185 106.464 273.804 110.657C266.423 114.893 262.313 123.783 262.271 135.777C262.229 147.771 266.255 161.4 273.636 174.107C280.975 186.855 290.788 197.172 301.23 203.211C311.63 209.249 321.443 210.256 328.866 206.02Z" fill="#F955A3" stroke="white" stroke-width="0.5" stroke-miterlimit="10"/>
<path d="M277.747 181.235C282.905 192.054 285.673 203.167 285.631 213.19C285.589 225.31 281.48 234.326 273.973 238.561C266.257 242.965 256.15 241.539 246.043 235.71C235.937 229.881 225.872 219.606 218.198 206.354C210.775 193.48 206.623 179.725 206.581 167.731C206.539 157.037 209.727 148.776 215.64 144.079C208.552 146.553 199.746 145.044 190.562 139.76C180.078 133.721 170.223 123.321 162.842 110.53C147.535 83.9843 147.451 55.2999 162.716 46.5771C170.474 42.1319 180.665 43.5577 190.771 49.3869C199.62 54.5031 208.427 63.0162 215.556 73.9615C209.852 62.5129 206.791 50.6449 206.833 40.077C206.875 27.9994 210.985 19.0669 218.407 14.8314C225.872 10.5958 235.769 11.5603 246.295 17.5992C256.905 23.7219 266.634 33.9543 273.889 46.5352C288.273 71.4453 289.07 98.3265 276.363 108.811C275.357 109.188 274.35 109.649 273.428 110.153C288.693 101.43 288.776 72.997 273.596 46.7029C266.424 34.2479 256.779 24.0993 246.421 18.1443C235.853 12.1055 226.04 11.099 218.659 15.3346C211.32 19.5282 207.252 28.4187 207.21 40.3286C207.168 52.1547 211.069 65.6581 218.198 78.281C210.481 65.5323 200.626 55.5515 190.729 49.8482C180.707 44.061 170.642 42.6771 162.968 47.0384C147.871 55.6354 147.912 84.0682 163.093 110.32C170.39 122.985 180.12 133.259 190.52 139.256C200.794 145.211 210.565 146.302 218.03 142.402C210.943 147.098 206.875 155.989 206.917 167.941C206.959 179.851 211.027 193.438 218.407 206.187C225.998 219.313 235.979 229.461 246.001 235.248C256.024 241.036 266.005 242.42 273.637 238.058C281.018 233.865 285.128 224.932 285.17 212.938C285.212 202.412 282.109 190.67 276.405 179.347C276.908 180.018 277.328 180.647 277.747 181.235Z" fill="#F955A3" stroke="white" stroke-width="0.5" stroke-miterlimit="10"/>
<path d="M246.042 107.556C256.442 113.511 266.129 114.433 273.51 110.198C272.545 110.743 271.665 111.372 270.826 112.043C263.823 114.601 255.184 113.259 246.167 108.059C237.067 102.817 228.596 94.3879 221.761 83.9877C227.38 95.1846 230.399 106.885 230.399 117.369C230.357 128.021 227.212 136.24 221.383 140.895C228.512 138.421 237.277 139.931 246.461 145.215C254.974 150.121 263.068 157.879 269.736 167.483C270.071 168.154 270.407 168.867 270.742 169.538C263.906 159.221 255.393 150.876 246.461 145.676C236.187 139.721 226.415 138.631 218.951 142.531L218.657 142.069C225.912 137.918 229.938 129.069 229.98 117.159C230.022 105.207 226.08 91.7878 218.867 79.2908L219.16 79.123C226.332 91.5781 235.893 101.685 246.042 107.556Z" fill="#E64086" stroke="white" stroke-width="0.5" stroke-miterlimit="10"/>
<path d="M351.972 137.917C345.514 141.692 339.014 145.466 332.555 149.198C332.262 148.569 331.968 147.94 331.633 147.353C338.091 143.579 344.591 139.805 351.049 136.072C351.343 136.701 351.678 137.288 351.972 137.917Z" fill="#F955A3"/>
<path d="M301.441 113.469L320.858 102.188C331.3 108.227 341.071 118.544 348.452 131.292C355.791 144.041 359.817 157.628 359.817 169.622C359.775 181.616 355.707 190.548 348.284 194.742L328.868 206.023C336.249 201.787 340.358 192.897 340.4 180.903C340.442 168.909 336.416 155.28 329.035 142.573C321.697 129.824 311.884 119.508 301.441 113.469Z" fill="#F955A3" stroke="white" stroke-width="0.5" stroke-miterlimit="10"/>
<path d="M351.972 137.917C345.514 141.692 339.014 145.466 332.555 149.198C332.262 148.569 331.968 147.94 331.633 147.353C338.091 143.579 344.591 139.805 351.049 136.072C351.343 136.701 351.678 137.288 351.972 137.917Z" stroke="white" stroke-width="0.5" stroke-miterlimit="10"/>
<path d="M350.843 135.652C350.927 135.778 350.969 135.946 351.053 136.072C344.595 139.846 338.095 143.62 331.636 147.353C331.553 147.227 331.511 147.059 331.427 146.933C337.885 143.201 344.385 139.427 350.843 135.652Z" fill="#F955A3"/>
<path d="M301.441 113.469L320.858 102.188C331.3 108.227 341.071 118.544 348.452 131.292C355.791 144.041 359.817 157.628 359.817 169.622C359.775 181.616 355.707 190.548 348.284 194.742L328.868 206.023C336.249 201.787 340.358 192.897 340.4 180.903C340.442 168.909 336.416 155.28 329.035 142.573C321.697 129.824 311.884 119.508 301.441 113.469Z" fill="#F955A3" stroke="white" stroke-width="0.5" stroke-miterlimit="10"/>
<path d="M350.843 135.652C350.927 135.778 350.969 135.946 351.053 136.072C344.595 139.846 338.095 143.62 331.636 147.353C331.553 147.227 331.511 147.059 331.427 146.933C337.885 143.201 344.385 139.427 350.843 135.652Z" stroke="white" stroke-width="0.5" stroke-miterlimit="10"/>
<path d="M348.744 131.124C341.322 118.249 331.425 107.849 320.899 101.726C311.673 96.4003 302.95 94.9745 295.905 97.5326C294.898 97.91 293.892 98.3713 292.969 98.8745C292.927 98.9165 292.885 98.9165 292.843 98.9584L273.427 110.239C273.469 110.197 273.511 110.197 273.553 110.155C274.475 109.61 275.482 109.149 276.488 108.813C283.533 106.255 292.256 107.681 301.482 113.007C312.008 119.088 321.905 129.53 329.328 142.404C336.751 155.279 340.818 168.992 340.776 181.112C340.734 193.231 336.625 202.247 329.118 206.483L348.535 195.202C355.999 190.925 360.151 181.95 360.193 169.831C360.235 157.711 356.167 143.956 348.744 131.124Z" fill="#E64086" stroke="white" stroke-width="0.5" stroke-miterlimit="10"/>
<path d="M218.49 14.8769L237.907 3.59601C245.371 -0.639551 255.268 0.324983 265.794 6.36381C276.404 12.4865 286.133 22.719 293.388 35.2998C307.773 60.21 308.569 87.0911 295.863 97.5752L276.446 108.856C289.153 98.372 288.356 71.5328 273.972 46.5807C266.717 33.9998 256.946 23.7674 246.378 17.6447C235.852 11.6058 225.955 10.5994 218.49 14.8769Z" fill="#FF9DC0"/>
<path d="M218.49 14.8769L237.907 3.59601C245.371 -0.639551 255.268 0.324983 265.794 6.36381C276.404 12.4865 286.133 22.719 293.388 35.2998C307.773 60.21 308.569 87.0911 295.863 97.5752L276.446 108.856C289.153 98.372 288.356 71.5328 273.972 46.5807C266.717 33.9998 256.946 23.7674 246.378 17.6447C235.852 11.6058 225.955 10.5994 218.49 14.8769Z" fill="#E64086" stroke="white" stroke-width="0.5" stroke-miterlimit="10"/>
<path d="M218.49 14.8769L237.907 3.59601C245.371 -0.639551 255.268 0.324983 265.794 6.36381C276.404 12.4865 286.133 22.719 293.388 35.2998C307.773 60.21 308.569 87.0911 295.863 97.5752L276.446 108.856C289.153 98.372 288.356 71.5328 273.972 46.5807C266.717 33.9998 256.946 23.7674 246.378 17.6447C235.852 11.6058 225.955 10.5994 218.49 14.8769Z" stroke="white" stroke-width="0.5" stroke-miterlimit="10"/>
<path d="M301.44 113.469C311.882 119.507 321.653 129.824 329.034 142.572C336.373 155.321 340.399 168.908 340.399 180.902C340.357 192.896 336.289 201.828 328.866 206.022C321.486 210.257 311.63 209.251 301.23 203.212C290.788 197.173 281.017 186.857 273.636 174.108C266.297 161.402 262.271 147.772 262.271 135.779C262.313 123.785 266.381 114.852 273.804 110.659C281.185 106.465 290.998 107.472 301.44 113.469Z" fill="#FFBCD4" stroke="white" stroke-width="0.5" stroke-miterlimit="10"/>
<path d="M274.893 176.875C274.39 176.036 273.845 175.155 273.342 174.317C273.048 173.813 272.796 173.31 272.503 172.807C271.916 171.717 271.329 170.668 270.784 169.578C263.948 159.262 255.435 150.916 246.502 145.716C236.228 139.761 226.457 138.671 218.699 142.11C225.954 137.958 229.98 129.109 230.021 117.199C230.063 105.248 226.121 91.828 219.16 79.1633C226.331 91.6184 235.893 101.683 246.209 107.638C256.441 113.509 266.171 114.432 273.551 110.196C288.816 101.473 288.9 73.0406 273.719 46.7465C266.548 34.2915 256.903 24.1429 246.377 18.1041C235.935 12.1072 226.121 11.1426 218.741 15.3782C211.402 19.5718 207.334 28.4623 207.292 40.3722C207.25 52.1982 211.15 65.7017 217.986 78.4923C210.521 65.5759 200.708 55.5951 190.811 49.8918C180.788 44.1045 170.724 42.7207 163.049 47.082C147.952 55.679 147.994 84.1118 163.175 110.364C170.472 123.029 180.201 133.303 190.601 139.3C200.876 145.255 210.647 146.345 218.405 142.906C211.024 147.1 206.998 155.991 207.04 167.942C207.082 179.852 211.15 193.44 218.531 206.188C226.121 219.314 236.102 229.463 246.125 235.25C256.148 241.037 266.129 242.421 273.761 238.06C281.142 233.866 285.252 224.934 285.293 212.94C285.335 202.414 282.232 190.672 276.529 179.349C275.942 178.552 275.397 177.714 274.893 176.875Z" fill="#FFBCD4" stroke="white" stroke-width="0.5" stroke-miterlimit="10"/>
<path d="M451.358 358.247L363.04 307.253C362.956 307.211 362.872 307.169 362.789 307.169C362.872 307.211 362.956 307.211 363.04 307.253L409.296 280.371C409.044 280.204 408.793 280.204 408.625 280.288L362.369 307.211C362.411 307.169 362.453 307.169 362.537 307.169C362.118 307.253 361.95 307.756 362.243 308.469C363.627 311.824 366.982 315.556 370.882 317.82L442.09 358.918C445.487 360.889 448.422 361.225 450.1 360.176C450.058 360.218 450.016 360.218 449.974 360.26L496.23 333.379C496.943 332.959 497.404 332.33 497.614 331.408L451.358 358.247ZM362.747 307.169C362.705 307.169 362.621 307.169 362.579 307.169C362.663 307.127 362.705 307.169 362.747 307.169ZM450.561 359.757C450.519 359.799 450.519 359.799 450.477 359.841C450.435 359.883 450.435 359.883 450.394 359.883C450.435 359.883 450.477 359.841 450.561 359.757ZM451.19 358.834C451.148 358.876 451.148 358.96 451.106 359.002C451.106 358.96 451.148 358.918 451.19 358.834ZM450.897 359.337C450.855 359.379 450.813 359.463 450.771 359.505C450.813 359.463 450.855 359.421 450.897 359.337Z" fill="#F6448F" stroke="black" stroke-width="0.5" stroke-miterlimit="10" stroke-linecap="round" stroke-linejoin="round"/>
<path d="M363.04 307.252L409.296 280.371L497.614 331.366L451.358 358.247L363.04 307.252Z" fill="#E13E83" stroke="black" stroke-width="0.5" stroke-miterlimit="10" stroke-linecap="round" stroke-linejoin="round"/>
<path d="M491.407 255.167L415.754 211.47C412.987 209.876 410.47 209.708 408.667 210.757L406.57 211.973C408.374 210.924 410.89 211.05 413.658 212.686L489.311 256.383C494.804 259.57 499.249 267.245 499.249 273.577L499.124 323.439C499.124 326.585 497.991 328.807 496.23 329.814L498.327 328.598C500.13 327.549 501.22 325.369 501.22 322.223L501.346 272.361C501.346 266.029 496.901 258.354 491.407 255.167Z" fill="#D13A7A" stroke="black" stroke-width="0.5" stroke-miterlimit="10"/>
<path d="M489.309 256.385C494.803 259.573 499.248 267.247 499.248 273.579L499.123 323.442C499.123 329.774 494.635 332.332 489.142 329.145L413.447 285.447C407.953 282.26 403.508 274.586 403.508 268.253L403.634 218.391C403.634 212.059 408.121 209.501 413.614 212.688L489.309 256.385Z" fill="#E74086" stroke="black" stroke-width="0.5" stroke-miterlimit="10"/>
<path d="M485.958 260.955C490.99 263.849 495.1 270.517 495.058 275.843L494.932 317.779C494.932 323.105 490.822 325.076 485.748 322.182L416.302 282.343C411.269 279.449 407.16 272.781 407.201 267.455L407.327 225.519C407.327 220.193 411.437 218.222 416.511 221.116L485.958 260.955Z" fill="#FFDDE9" stroke="black" stroke-width="0.5" stroke-miterlimit="10"/>
<path d="M420.708 199.431L423.643 197.712L418.988 203.625L416.053 205.302L420.708 199.431Z" fill="black"/>
<path d="M416.053 205.301L418.988 203.624L429.179 206.182L426.201 207.901L416.053 205.301Z" fill="black"/>
<path d="M426.198 207.902L429.133 206.183C429.385 206.476 429.594 206.728 429.846 207.021L426.911 208.74C426.701 208.447 426.45 208.153 426.198 207.902Z" fill="black"/>
<path d="M426.953 208.741L429.889 207.021C430.811 208.07 431.734 208.992 432.698 209.873L429.763 211.593C428.798 210.712 427.834 209.747 426.953 208.741Z" fill="black"/>
<path d="M429.763 211.592L432.698 209.873C433.41 210.544 434.165 211.173 434.92 211.718L431.985 213.437C431.23 212.85 430.475 212.263 429.763 211.592Z" fill="black"/>
<path d="M431.985 213.437L434.92 211.718C435.591 212.221 436.262 212.682 436.891 213.101L433.956 214.82C433.285 214.401 432.656 213.94 431.985 213.437Z" fill="black"/>
<path d="M433.956 214.822L436.891 213.103C437.142 213.27 437.394 213.438 437.646 213.564L434.711 215.283C434.501 215.115 434.208 214.989 433.956 214.822Z" fill="black"/>
<path d="M422.009 172.548L424.945 170.828C423.225 171.835 421.884 173.386 420.961 175.483L418.025 177.202C418.948 175.106 420.332 173.554 422.009 172.548Z" fill="black"/>
<path d="M418.022 177.243L420.957 175.524C420.622 176.279 420.37 177.076 420.16 177.956L417.226 179.675C417.435 178.753 417.729 177.956 418.022 177.243Z" fill="black"/>
<path d="M417.227 179.636L420.162 177.917C419.994 178.63 419.868 179.343 419.784 180.139L416.85 181.858C416.975 181.061 417.101 180.349 417.227 179.636Z" fill="black"/>
<path d="M416.891 181.858L419.826 180.139C419.742 180.851 419.7 181.564 419.7 182.319L416.766 184.038C416.766 183.283 416.808 182.528 416.891 181.858Z" fill="black"/>
<path d="M416.766 184.039L419.7 182.32C419.7 182.362 419.7 182.362 419.7 182.404C419.7 183.117 419.742 183.872 419.784 184.584L416.85 186.303C416.808 185.549 416.766 184.836 416.766 184.123C416.766 184.081 416.766 184.081 416.766 184.039Z" fill="black"/>
<path d="M416.85 186.302L419.784 184.583C419.826 185.338 419.952 186.134 420.078 186.889L417.143 188.608C417.017 187.853 416.892 187.057 416.85 186.302Z" fill="black"/>
<path d="M417.143 188.61L420.077 186.891C420.203 187.729 420.371 188.526 420.581 189.364L417.646 191.083C417.436 190.287 417.268 189.448 417.143 188.61Z" fill="black"/>
<path d="M417.646 191.123L420.58 189.404C420.79 190.369 421.083 191.291 421.419 192.255L418.484 193.974C418.149 193.01 417.855 192.046 417.646 191.123Z" fill="black"/>
<path d="M418.443 193.977L421.378 192.258C421.797 193.516 422.301 194.815 422.888 196.073L419.953 197.792C419.366 196.534 418.863 195.235 418.443 193.977Z" fill="black"/>
<path d="M419.954 197.793L422.889 196.074C423.14 196.619 423.392 197.164 423.644 197.709L420.709 199.428C420.457 198.883 420.164 198.338 419.954 197.793Z" fill="black"/>
<path d="M434.754 215.286L437.689 213.567C438.066 213.777 438.443 213.987 438.821 214.196L435.886 215.915C435.509 215.706 435.131 215.496 434.754 215.286Z" fill="black"/>
<path d="M435.886 215.873L438.821 214.154C439.449 214.49 440.078 214.741 440.707 214.993L437.772 216.712C437.144 216.502 436.515 216.209 435.886 215.873Z" fill="black"/>
<path d="M437.73 216.712L440.665 214.993C441.294 215.245 441.965 215.454 442.552 215.58L439.617 217.299C439.03 217.173 438.401 216.964 437.73 216.712Z" fill="black"/>
<path d="M439.66 217.34L442.595 215.621C443.266 215.789 443.937 215.915 444.607 215.957L441.673 217.675C441.002 217.634 440.331 217.508 439.66 217.34Z" fill="black"/>
<path d="M441.631 217.676L444.566 215.957C445.362 216.041 446.159 216.041 446.914 215.957L443.979 217.676C443.266 217.76 442.469 217.76 441.631 217.676Z" fill="black"/>
<path d="M443.98 217.678L446.916 215.958C448.216 215.833 449.432 215.413 450.481 214.784L447.545 216.504C446.497 217.133 445.322 217.552 443.98 217.678Z" fill="black"/>
<path d="M422.007 172.55L424.942 170.83C425.991 170.201 427.207 169.824 428.507 169.656L425.571 171.376C424.271 171.543 423.097 171.921 422.007 172.55Z" fill="#803357"/>
<path d="M425.614 171.417L428.549 169.698C429.304 169.614 430.1 169.614 430.897 169.698L427.962 171.417C427.124 171.333 426.327 171.333 425.614 171.417Z" fill="#85355A"/>
<path d="M427.961 171.375L430.896 169.656C431.567 169.74 432.195 169.824 432.908 169.992L429.973 171.711C429.261 171.585 428.59 171.459 427.961 171.375Z" fill="#8A375E"/>
<path d="M429.933 171.753L432.867 170.034C433.496 170.202 434.125 170.412 434.754 170.621L431.819 172.34C431.19 172.089 430.562 171.921 429.933 171.753Z" fill="#8F3961"/>
<path d="M431.861 172.339L434.796 170.62C435.425 170.872 436.054 171.123 436.683 171.459L433.748 173.178C433.077 172.884 432.448 172.591 431.861 172.339Z" fill="#943B64"/>
<path d="M433.708 173.178L436.643 171.459C437.02 171.669 437.398 171.836 437.775 172.088L434.84 173.807C434.463 173.597 434.085 173.388 433.708 173.178Z" fill="#993D68"/>
<path d="M421.796 172.21L424.731 170.491C425.822 169.862 427.038 169.442 428.38 169.316L425.444 171.036C424.102 171.162 422.886 171.581 421.796 172.21Z" fill="#E64086"/>
<path d="M425.444 171.035L428.379 169.316C429.134 169.232 429.93 169.232 430.769 169.316L427.834 171.035C426.996 170.909 426.199 170.909 425.444 171.035Z" fill="#E64086"/>
<path d="M427.834 170.993L430.769 169.274C431.44 169.358 432.11 169.442 432.823 169.652L429.888 171.371C429.176 171.203 428.505 171.077 427.834 170.993Z" fill="#E64086"/>
<path d="M429.891 171.371L432.825 169.652C433.454 169.82 434.083 170.03 434.754 170.281L431.819 172C431.148 171.749 430.52 171.539 429.891 171.371Z" fill="#E64086"/>
<path d="M431.817 172L434.752 170.281C435.381 170.533 436.01 170.784 436.639 171.12L433.704 172.839C433.075 172.503 432.446 172.21 431.817 172Z" fill="#E64086"/>
<path d="M433.707 172.838L436.642 171.119C437.019 171.329 437.397 171.538 437.774 171.748L434.839 173.467C434.462 173.215 434.084 173.006 433.707 172.838Z" fill="#E64086"/>
<path d="M449.641 191.206L452.576 189.486C453.163 190.744 453.666 192.044 454.086 193.344L451.15 195.064C450.689 193.764 450.186 192.464 449.641 191.206Z" fill="#A84372"/>
<path d="M451.11 195.065L454.045 193.346C454.381 194.31 454.632 195.274 454.884 196.281L451.949 198C451.739 196.993 451.446 196.029 451.11 195.065Z" fill="#A3416E"/>
<path d="M451.949 197.957L454.884 196.238C455.094 197.077 455.261 197.915 455.387 198.754L452.452 200.473C452.327 199.634 452.159 198.796 451.949 197.957Z" fill="#9E3F6B"/>
<path d="M452.493 200.473L455.428 198.754C455.554 199.551 455.638 200.305 455.721 201.06L452.787 202.779C452.703 202.024 452.619 201.269 452.493 200.473Z" fill="#993D68"/>
<path d="M452.746 202.781L455.681 201.062C455.723 201.774 455.765 202.529 455.765 203.242C455.765 203.284 455.765 203.284 455.765 203.326L452.83 205.045C452.83 205.003 452.83 205.003 452.83 204.961C452.83 204.248 452.83 203.535 452.746 202.781Z" fill="#943B64"/>
<path d="M452.83 205.003L455.765 203.284C455.765 204.039 455.723 204.794 455.639 205.506L452.704 207.225C452.788 206.513 452.83 205.8 452.83 205.003Z" fill="#8F3961"/>
<path d="M452.702 207.225L455.636 205.506C455.553 206.261 455.427 207.015 455.259 207.728L452.324 209.447C452.534 208.734 452.66 207.979 452.702 207.225Z" fill="#8A375E"/>
<path d="M452.366 209.447L455.301 207.728C455.091 208.608 454.84 209.405 454.504 210.159L451.569 211.878C451.863 211.082 452.156 210.285 452.366 209.447Z" fill="#85355A"/>
<path d="M451.571 211.839L454.506 210.12C453.584 212.217 452.242 213.81 450.522 214.775L447.587 216.494C449.264 215.53 450.648 213.936 451.571 211.839Z" fill="#803357"/>
<path d="M434.84 173.807L437.775 172.088C438.026 172.256 438.32 172.381 438.571 172.549L435.636 174.268C435.385 174.1 435.133 173.975 434.84 173.807Z" fill="#993D68"/>
<path d="M435.636 174.268L438.571 172.549C439.241 172.968 439.912 173.429 440.583 173.932L437.648 175.651C436.977 175.148 436.307 174.687 435.636 174.268Z" fill="#9E3F6B"/>
<path d="M437.65 175.654L440.585 173.935C441.34 174.522 442.095 175.109 442.807 175.779L439.873 177.498C439.16 176.869 438.405 176.241 437.65 175.654Z" fill="#A3416E"/>
<path d="M439.87 177.498L442.806 175.778C443.77 176.659 444.693 177.623 445.573 178.63L442.638 180.349C441.757 179.343 440.835 178.378 439.87 177.498Z" fill="#A84372"/>
<path d="M442.641 180.348L445.576 178.629C448.386 181.816 450.776 185.548 452.538 189.49L449.602 191.21C447.841 187.268 445.45 183.535 442.641 180.348Z" fill="#AD4575"/>
<path d="M449.644 191.213L452.579 189.493C453.166 190.751 453.669 192.051 454.089 193.351L451.153 195.071C450.692 193.771 450.189 192.471 449.644 191.213Z" fill="#A84372"/>
<path d="M434.84 173.806C444.779 179.551 452.873 193.516 452.831 204.965C452.789 216.413 444.695 221.026 434.714 215.281C431.779 213.562 428.843 211.045 426.243 207.942L416.011 205.3L420.75 199.513C418.066 194.145 416.724 188.861 416.724 184.08C416.766 172.674 424.901 168.061 434.84 173.806Z" fill="white" stroke="black" stroke-miterlimit="10"/>
<path d="M434.84 173.469L437.775 171.75C438.026 171.918 438.32 172.085 438.571 172.253L435.636 173.972C435.385 173.762 435.133 173.595 434.84 173.469Z" fill="#E64086"/>
<path d="M435.679 173.929L438.614 172.21C439.284 172.629 439.955 173.09 440.626 173.594L437.691 175.313C437.02 174.851 436.35 174.39 435.679 173.929Z" fill="#E64086"/>
<path d="M437.692 175.356L440.627 173.637C441.382 174.224 442.137 174.853 442.891 175.523L439.956 177.242C439.202 176.572 438.447 175.943 437.692 175.356Z" fill="#E64086"/>
<path d="M439.957 177.244L442.893 175.524C443.857 176.405 444.822 177.37 445.702 178.418L442.767 180.137C441.886 179.089 440.922 178.124 439.957 177.244Z" fill="#E64086"/>
<path d="M442.766 180.094L445.701 178.375C448.553 181.604 450.985 185.42 452.788 189.446L449.853 191.166C448.092 187.14 445.617 183.323 442.766 180.094Z" fill="#E64086"/>
<path d="M449.854 191.168L452.789 189.448C453.376 190.748 453.879 192.048 454.299 193.348L451.363 195.068C450.944 193.768 450.441 192.468 449.854 191.168Z" fill="#E64086"/>
<path d="M451.405 195.067L454.34 193.348C454.676 194.354 454.969 195.318 455.179 196.324L452.244 198.043C451.992 197.037 451.741 196.073 451.405 195.067Z" fill="#E64086"/>
<path d="M452.245 198.043L455.18 196.324C455.39 197.163 455.557 198.001 455.683 198.882L452.748 200.601C452.622 199.72 452.455 198.882 452.245 198.043Z" fill="#E64086"/>
<path d="M452.748 200.559L455.683 198.84C455.809 199.636 455.892 200.433 455.976 201.188L453.042 202.907C453 202.152 452.916 201.355 452.748 200.559Z" fill="#E64086"/>
<path d="M453.041 202.949L455.976 201.23C456.018 201.985 456.06 202.698 456.06 203.411C456.06 203.453 456.06 203.453 456.06 203.494L453.125 205.213C453.125 205.172 453.125 205.172 453.125 205.13C453.125 204.417 453.125 203.662 453.041 202.949Z" fill="#E64086"/>
<path d="M453.125 205.215L456.06 203.496C456.06 204.293 456.018 205.005 455.934 205.718L452.999 207.437C453.083 206.724 453.125 205.97 453.125 205.215Z" fill="#E64086"/>
<path d="M453.04 207.437L455.975 205.718C455.891 206.514 455.766 207.269 455.598 207.94L452.663 209.659C452.789 208.988 452.957 208.233 453.04 207.437Z" fill="#E64086"/>
<path d="M452.662 209.661L455.597 207.942C455.387 208.823 455.135 209.661 454.8 210.416L451.865 212.135C452.159 211.38 452.452 210.542 452.662 209.661Z" fill="#E64086"/>
<path d="M451.825 212.133L454.76 210.414C453.838 212.553 452.454 214.146 450.692 215.153L447.757 216.872C449.518 215.866 450.902 214.272 451.825 212.133Z" fill="#E64086"/>
<path d="M434.841 173.471C444.948 179.301 453.167 193.517 453.125 205.133C453.083 216.75 444.822 221.447 434.715 215.617C431.738 213.898 428.76 211.34 426.16 208.237L415.341 205.511L420.373 199.346C417.815 194.146 416.389 188.694 416.431 183.914C416.473 172.339 424.735 167.642 434.841 173.471ZM434.757 215.282C444.696 221.027 452.832 216.414 452.874 204.966C452.916 193.517 444.822 179.552 434.883 173.807C424.944 168.062 416.809 172.675 416.767 184.123C416.767 188.904 418.109 194.188 420.709 199.43L416.054 205.343L426.202 207.901C428.844 211.046 431.78 213.563 434.757 215.282Z" fill="black"/>
<path d="M468.131 253.914L471.066 252.194L480.167 263.643L477.189 265.362L468.131 253.914Z" fill="black"/>
<path d="M473.623 252.779L476.559 251.06L480.165 263.64L477.188 265.36L473.623 252.779Z" fill="#B6497B"/>
<path d="M474.122 253.799L477.1 252.08L481 265.5L478.064 267.219L474.122 253.799Z" fill="#E64086"/>
<path d="M460.034 205.936L462.969 204.217C463.263 204.385 463.556 204.552 463.849 204.72L460.915 206.439C460.621 206.313 460.328 206.103 460.034 205.936Z" fill="#993D68"/>
<path d="M460.914 206.48L463.849 204.761C464.604 205.222 465.316 205.725 466.029 206.27L463.094 207.989C462.381 207.444 461.627 206.941 460.914 206.48Z" fill="#9E3F6B"/>
<path d="M463.096 207.989L466.031 206.271C466.869 206.899 467.666 207.57 468.462 208.283L465.527 210.002C464.731 209.289 463.892 208.618 463.096 207.989Z" fill="#A3416E"/>
<path d="M465.486 210.005L468.422 208.285C469.47 209.25 470.477 210.298 471.441 211.388L468.506 213.108C467.583 211.976 466.577 210.969 465.486 210.005Z" fill="#A84372"/>
<path d="M468.548 213.107L471.483 211.388C474.545 214.868 477.187 218.978 479.116 223.256L476.18 224.975C474.251 220.656 471.609 216.546 468.548 213.107Z" fill="#AD4575"/>
<path d="M476.18 224.976L479.115 223.257C479.744 224.641 480.289 226.067 480.751 227.45L477.815 229.17C477.354 227.744 476.767 226.36 476.18 224.976Z" fill="#A84372"/>
<path d="M477.816 229.168L480.751 227.449C481.087 228.497 481.422 229.587 481.674 230.636L478.739 232.355C478.445 231.306 478.152 230.216 477.816 229.168Z" fill="#A3416E"/>
<path d="M478.738 232.355L481.673 230.636C481.883 231.558 482.092 232.439 482.218 233.361L479.283 235.08C479.116 234.158 478.948 233.277 478.738 232.355Z" fill="#9E3F6B"/>
<path d="M479.283 235.08L482.218 233.361C482.344 234.2 482.47 235.038 482.512 235.877L479.577 237.596C479.535 236.757 479.409 235.919 479.283 235.08Z" fill="#993D68"/>
<path d="M479.577 237.597L482.512 235.878C482.596 236.675 482.596 237.471 482.596 238.226C482.596 238.268 482.596 238.268 482.596 238.31L479.661 240.029C479.661 239.987 479.661 239.987 479.661 239.945C479.661 239.19 479.661 238.394 479.577 237.597Z" fill="#943B64"/>
<path d="M479.66 240.031L482.595 238.312C482.595 239.15 482.553 239.947 482.469 240.743L479.534 242.462C479.618 241.708 479.66 240.869 479.66 240.031Z" fill="#8F3961"/>
<path d="M479.534 242.462L482.469 240.743C482.385 241.582 482.26 242.378 482.05 243.175L479.115 244.894C479.325 244.139 479.451 243.301 479.534 242.462Z" fill="#8A375E"/>
<path d="M479.158 244.895L482.093 243.176C481.883 244.098 481.59 244.979 481.254 245.775L478.319 247.494C478.655 246.698 478.906 245.817 479.158 244.895Z" fill="#85355A"/>
<path d="M478.275 247.495L481.211 245.775C480.246 248.04 478.779 249.759 476.85 250.85L473.914 252.569C475.843 251.479 477.311 249.759 478.275 247.495Z" fill="#803357"/>
<path d="M473.541 252.824L476.476 251.105C476.602 251.063 476.686 250.979 476.811 250.938L473.876 252.656C473.751 252.698 473.667 252.74 473.541 252.824Z" fill="black"/>
<path d="M446.025 204.592L448.961 202.873C447.116 203.963 445.606 205.683 444.6 207.989L441.664 209.709C442.671 207.402 444.18 205.683 446.025 204.592Z" fill="black"/>
<path d="M441.667 209.709L444.601 207.99C444.266 208.787 443.973 209.667 443.721 210.632L440.786 212.351C441.038 211.386 441.331 210.506 441.667 209.709Z" fill="black"/>
<path d="M440.826 212.352L443.76 210.633C443.593 211.387 443.425 212.184 443.341 213.023L440.406 214.742C440.49 213.903 440.616 213.106 440.826 212.352Z" fill="black"/>
<path d="M440.407 214.74L443.342 213.021C443.258 213.776 443.216 214.573 443.216 215.411L440.281 217.13C440.281 216.292 440.323 215.495 440.407 214.74Z" fill="black"/>
<path d="M440.281 217.132L443.216 215.413C443.216 215.455 443.216 215.455 443.216 215.497C443.216 216.294 443.258 217.048 443.3 217.845L440.365 219.564C440.281 218.767 440.281 217.971 440.281 217.216C440.281 217.174 440.281 217.174 440.281 217.132Z" fill="black"/>
<path d="M440.365 219.563L443.3 217.844C443.384 218.682 443.468 219.521 443.594 220.359L440.659 222.078C440.533 221.24 440.449 220.401 440.365 219.563Z" fill="black"/>
<path d="M440.7 222.121L443.635 220.402C443.761 221.325 443.97 222.205 444.18 223.128L441.245 224.847C440.994 223.924 440.826 223.002 440.7 222.121Z" fill="black"/>
<path d="M441.246 224.847L444.181 223.128C444.432 224.176 444.726 225.266 445.103 226.314L442.169 228.033C441.791 226.943 441.498 225.895 441.246 224.847Z" fill="black"/>
<path d="M442.168 228.035L445.104 226.315C445.565 227.741 446.11 229.125 446.739 230.509L443.803 232.228C443.174 230.845 442.629 229.419 442.168 228.035Z" fill="black"/>
<path d="M443.804 232.228L446.739 230.509C448.668 234.828 451.31 238.896 454.372 242.377L451.436 244.096C448.333 240.615 445.733 236.506 443.804 232.228Z" fill="black"/>
<path d="M451.396 244.097L454.331 242.378C455.296 243.468 456.302 244.517 457.35 245.481L454.415 247.201C453.408 246.236 452.402 245.188 451.396 244.097Z" fill="black"/>
<path d="M454.456 247.197L457.391 245.479C458.187 246.191 458.984 246.862 459.823 247.491L456.888 249.21C456.049 248.581 455.253 247.91 454.456 247.197Z" fill="black"/>
<path d="M456.888 249.212L459.823 247.493C460.535 248.038 461.248 248.541 462.003 249.002L459.068 250.721C458.313 250.26 457.6 249.757 456.888 249.212Z" fill="black"/>
<path d="M459.026 250.723L461.961 249.004C462.255 249.172 462.548 249.339 462.842 249.507C463.261 249.759 463.68 249.968 464.099 250.178L461.165 251.897C460.745 251.687 460.326 251.478 459.907 251.226C459.613 251.058 459.32 250.891 459.026 250.723Z" fill="black"/>
<path d="M461.166 251.897L464.101 250.178C464.772 250.513 465.443 250.807 466.113 251.1L463.178 252.819C462.508 252.568 461.837 252.232 461.166 251.897Z" fill="black"/>
<path d="M463.178 252.82L466.113 251.101C466.825 251.352 467.496 251.604 468.167 251.771L465.232 253.49C464.561 253.281 463.89 253.071 463.178 252.82Z" fill="black"/>
<path d="M465.233 253.448L468.168 251.729C468.923 251.938 469.678 252.064 470.39 252.106L467.455 253.825C466.743 253.783 465.988 253.657 465.233 253.448Z" fill="black"/>
<path d="M467.455 253.868L470.39 252.149C470.6 252.191 470.809 252.191 471.061 252.191L468.126 253.91C467.874 253.91 467.665 253.868 467.455 253.868Z" fill="black"/>
<path d="M446.031 204.601L448.967 202.882C450.141 202.211 451.441 201.792 452.867 201.624L449.931 203.343C448.506 203.511 447.205 203.931 446.031 204.601Z" fill="#803357"/>
<path d="M449.932 203.342L452.866 201.623C453.705 201.54 454.544 201.54 455.424 201.623L452.489 203.342C451.609 203.259 450.77 203.259 449.932 203.342Z" fill="#85355A"/>
<path d="M452.49 203.343L455.425 201.624C456.138 201.708 456.851 201.834 457.605 202.001L454.67 203.72C453.958 203.553 453.203 203.385 452.49 203.343Z" fill="#8A375E"/>
<path d="M454.669 203.72L457.604 202.001C458.275 202.169 458.987 202.378 459.658 202.672L456.723 204.391C456.053 204.097 455.382 203.888 454.669 203.72Z" fill="#8F3961"/>
<path d="M456.768 204.391L459.702 202.672C460.373 202.923 461.044 203.217 461.757 203.594L458.822 205.313C458.109 204.936 457.438 204.642 456.768 204.391Z" fill="#943B64"/>
<path d="M458.822 205.314L461.757 203.595C462.176 203.804 462.596 204.014 462.973 204.266L460.038 205.985C459.619 205.733 459.2 205.481 458.822 205.314Z" fill="#993D68"/>
<path d="M480.001 240.154L482.936 238.435C482.936 238.476 482.936 238.476 482.936 238.518L480.001 240.237C479.959 240.195 480.001 240.154 480.001 240.154Z" fill="#E64086"/>
<path d="M479.957 240.238L482.892 238.519C482.892 239.357 482.85 240.196 482.766 240.992L479.831 242.711C479.915 241.873 479.957 241.076 479.957 240.238Z" fill="#E64086"/>
<path d="M479.831 242.671L482.766 240.952C482.682 241.791 482.557 242.629 482.347 243.426L479.412 245.145C479.622 244.348 479.748 243.552 479.831 242.671Z" fill="#E64086"/>
<path d="M479.413 245.144L482.348 243.425C482.138 244.389 481.844 245.27 481.467 246.066L478.532 247.785C478.91 246.947 479.203 246.066 479.413 245.144Z" fill="#E64086"/>
<path d="M478.573 247.786L481.509 246.066C480.502 248.331 479.035 250.092 477.105 251.225L474.17 252.944C476.099 251.812 477.567 250.05 478.573 247.786Z" fill="#E64086"/>
<path d="M460.037 205.937C470.899 212.228 479.705 227.45 479.663 239.947C479.663 246.154 477.483 250.683 473.583 252.738L477.189 265.319L468.173 253.87C465.531 253.744 462.763 252.822 459.911 251.186C449.05 244.896 440.243 229.673 440.285 217.176C440.327 204.721 449.176 199.689 460.037 205.937Z" fill="white" stroke="black" stroke-miterlimit="10"/>
<path d="M445.824 204.22L448.76 202.5C449.934 201.829 451.276 201.368 452.702 201.2L449.766 202.92C448.34 203.129 446.998 203.549 445.824 204.22Z" fill="#E64086"/>
<path d="M449.807 202.961L452.741 201.242C453.58 201.158 454.46 201.158 455.341 201.242L452.406 202.961C451.484 202.877 450.603 202.877 449.807 202.961Z" fill="#E64086"/>
<path d="M452.408 202.961L455.343 201.242C456.056 201.326 456.81 201.452 457.565 201.62L454.63 203.339C453.834 203.171 453.121 203.003 452.408 202.961Z" fill="#E64086"/>
<path d="M454.631 203.338L457.566 201.619C458.237 201.787 458.949 201.996 459.662 202.29L456.727 204.009C456.014 203.757 455.302 203.506 454.631 203.338Z" fill="#E64086"/>
<path d="M456.728 204.009L459.662 202.29C460.333 202.542 461.046 202.877 461.717 203.212L458.782 204.931C458.111 204.596 457.398 204.261 456.728 204.009Z" fill="#E64086"/>
<path d="M458.783 204.932L461.718 203.213C462.137 203.423 462.557 203.632 462.976 203.884C463.269 204.051 463.563 204.219 463.856 204.429L460.921 206.148C460.628 205.98 460.334 205.77 460.041 205.603C459.622 205.393 459.202 205.141 458.783 204.932Z" fill="#E64086"/>
<path d="M460.921 206.147L463.856 204.428C464.61 204.889 465.323 205.392 466.078 205.937L463.143 207.656C462.43 207.111 461.676 206.608 460.921 206.147Z" fill="#E64086"/>
<path d="M463.146 207.657L466.08 205.938C466.919 206.567 467.757 207.238 468.554 207.993L465.619 209.712C464.781 208.999 463.984 208.328 463.146 207.657Z" fill="#E64086"/>
<path d="M465.576 209.713L468.512 207.993C469.56 208.958 470.609 210.006 471.615 211.138L468.679 212.858C467.715 211.726 466.667 210.677 465.576 209.713Z" fill="#E64086"/>
<path d="M468.68 212.859L471.615 211.14C474.719 214.662 477.402 218.814 479.332 223.175L476.396 224.895C474.467 220.533 471.783 216.382 468.68 212.859Z" fill="#E64086"/>
<path d="M476.395 224.893L479.33 223.174C479.959 224.6 480.504 226.026 481.008 227.451L478.072 229.171C477.611 227.745 477.024 226.319 476.395 224.893Z" fill="#E64086"/>
<path d="M478.073 229.17L481.008 227.451C481.385 228.541 481.679 229.589 481.93 230.679L478.996 232.398C478.744 231.35 478.451 230.26 478.073 229.17Z" fill="#E64086"/>
<path d="M478.996 232.4L481.931 230.681C482.141 231.603 482.35 232.525 482.476 233.448L479.541 235.167C479.415 234.244 479.248 233.322 478.996 232.4Z" fill="#E64086"/>
<path d="M479.582 235.167L482.517 233.448C482.643 234.329 482.768 235.167 482.852 236.006L479.917 237.725C479.834 236.886 479.708 236.048 479.582 235.167Z" fill="#E64086"/>
<path d="M479.875 237.767L482.81 236.048C482.894 236.844 482.894 237.641 482.894 238.438L479.959 240.157C480.001 239.36 479.959 238.563 479.875 237.767Z" fill="#E64086"/>
<path d="M458.526 212.585C462.468 214.85 465.781 220.721 466.41 226.215C466.41 226.215 466.368 226.215 466.368 226.173L465.319 225.586C464.69 220.847 461.88 215.856 458.526 213.927C455.171 211.998 452.319 213.676 451.69 217.702L450.642 217.114C450.642 217.114 450.6 217.114 450.6 217.073C451.271 212.376 454.584 210.321 458.526 212.585Z" fill="#FEFFCA"/>
<path d="M466.324 226.798C467.456 227.469 468.379 229.062 468.379 230.362L468.337 243.53C468.337 244.83 467.414 245.375 466.282 244.704L450.598 235.646C449.466 234.975 448.543 233.382 448.543 232.082L448.585 218.914C448.585 217.614 449.508 217.068 450.64 217.739L466.324 226.798ZM458.943 232.585C459.74 232.794 460.327 232.291 460.327 231.327C460.327 230.153 459.488 228.727 458.482 228.14C457.475 227.552 456.637 228.014 456.637 229.188C456.637 230.152 457.224 231.327 457.979 232.04V234.304L458.943 234.849V232.585Z" fill="#FEFFCA"/>
<path d="M458.484 228.098C459.49 228.685 460.329 230.111 460.329 231.285C460.329 232.25 459.742 232.753 458.945 232.543V234.808L457.981 234.263V231.998C457.184 231.285 456.597 230.153 456.639 229.147C456.597 227.972 457.436 227.511 458.484 228.098Z" fill="black"/>
<path d="M466.913 226.587C468.046 227.551 468.926 229.229 468.926 230.655L468.884 243.823C468.884 245.458 467.71 246.129 466.284 245.29L450.6 236.232C449.174 235.393 448 233.38 448 231.745L448.042 218.577C448.042 217.151 448.923 216.48 450.055 216.816C450.223 216.857 450.39 216.941 450.6 217.067L451.69 217.696L452.236 217.99L464.816 225.245L465.362 225.538L466.41 226.125C466.578 226.335 466.746 226.461 466.913 226.587ZM468.339 243.529L468.381 230.361C468.381 229.061 467.458 227.467 466.326 226.796L450.642 217.738C449.51 217.067 448.587 217.612 448.587 218.912L448.545 232.08C448.545 233.38 449.468 234.974 450.6 235.645L466.284 244.703C467.417 245.332 468.339 244.829 468.339 243.529Z" fill="black"/>
<path d="M458.526 213.925C461.881 215.854 464.691 220.844 465.32 225.583L464.775 225.289C464.187 220.886 461.587 216.315 458.526 214.554C455.465 212.792 452.865 214.344 452.236 218.034L451.69 217.741C452.319 213.715 455.171 211.996 458.526 213.925Z" fill="black"/>
<path d="M458.525 211.996C462.76 214.428 466.325 220.761 466.912 226.59C466.744 226.422 466.577 226.296 466.367 226.212C465.738 220.719 462.425 214.89 458.483 212.583C454.541 210.319 451.228 212.331 450.557 217.07C450.389 216.986 450.179 216.902 450.012 216.819C450.683 211.744 454.289 209.564 458.525 211.996Z" fill="black"/>
<path d="M76.4521 298.908L82.9103 295.176L145.479 331.283L139.021 335.057L76.4521 298.908Z" fill="black"/>
<path d="M76.7038 210.882L83.162 207.107L82.9103 295.174L76.4521 298.906L76.7038 210.882Z" fill="black"/>
<path d="M122.664 237.429L129.164 233.654L145.687 262.297L139.187 266.029L122.664 237.429Z" fill="#C63773"/>
<path d="M76.7021 210.882L83.1603 207.107L129.164 233.653L122.664 237.427L76.7021 210.882Z" fill="#B13168"/>
<path d="M122.959 236.797L139.859 266.068L139.649 336.144L75.8223 299.282L76.0739 209.748L122.959 236.797ZM139.02 335.054L139.23 266.068L122.707 237.426L76.7449 210.88L76.4932 298.947L139.02 335.054Z" fill="black"/>
<path d="M139.188 266.029L145.688 262.297L145.479 331.282L139.021 335.056L139.188 266.029Z" fill="#A82F62"/>
<path d="M139.018 335.266C138.976 335.266 138.934 335.266 138.934 335.224L76.365 299.075C76.2811 299.033 76.2392 298.949 76.2811 298.907L76.5327 210.883C76.5327 210.799 76.5747 210.757 76.6585 210.715C76.7005 210.715 76.7424 210.673 76.7424 210.673C76.7843 210.673 76.8263 210.673 76.8263 210.715L122.788 237.26C122.83 237.26 122.83 237.302 122.872 237.344L139.395 265.945C139.395 265.987 139.437 266.029 139.437 266.071L139.269 335.098C139.269 335.182 139.227 335.224 139.144 335.266C139.102 335.266 139.06 335.266 139.018 335.266Z" fill="white"/>
<path d="M76.7012 210.882L122.663 237.428L139.186 266.028L139.019 335.056L76.4496 298.907L76.7012 210.882ZM76.7012 210.463C76.6174 210.463 76.5754 210.463 76.4916 210.505C76.3658 210.589 76.2819 210.715 76.2819 210.882L76.0303 298.907C76.0303 299.074 76.1141 299.2 76.24 299.284L138.809 335.433C138.893 335.475 138.935 335.475 139.019 335.475C139.102 335.475 139.144 335.475 139.228 335.433C139.354 335.349 139.438 335.223 139.438 335.056L139.606 266.028C139.606 265.945 139.606 265.903 139.564 265.819L123.041 237.218C122.999 237.134 122.957 237.092 122.873 237.05L76.9109 210.505C76.8271 210.463 76.7851 210.463 76.7012 210.463Z" fill="black"/>
<path d="M81.6963 250.345L133.739 280.371V281.881L81.6963 251.854V250.345ZM133.446 281.378V280.539L82.0318 250.848V251.687L133.446 281.378Z" fill="black"/>
<path d="M133.445 285.741V286.579L81.9893 256.889V256.05L133.445 285.741Z" fill="black"/>
<path d="M81.6963 255.503L133.739 285.529V287.039L81.6963 257.013V255.503ZM133.446 286.578V285.739L82.0318 256.048V256.887L133.446 286.578Z" fill="black"/>
<path d="M81.6523 275.087L133.653 305.155V306.665L81.6523 276.639V275.087ZM133.36 306.162V305.323L81.9459 275.632V276.471L133.36 306.162Z" fill="black"/>
<path d="M133.36 305.324V306.162L81.9463 276.472V275.633L133.36 305.324Z" fill="black"/>
<path d="M133.319 320.841V321.68L81.9053 291.989V291.15L133.319 320.841Z" fill="black"/>
<path d="M81.6123 290.604L133.613 320.673V322.183L81.6123 292.156V290.604ZM133.32 321.679V320.841L81.9059 291.15V291.988L133.32 321.679Z" fill="black"/>
<path d="M81.6123 285.445L133.655 315.472V316.981L81.6123 286.955V285.445ZM133.362 316.52V315.681L81.9478 285.99V286.829L133.362 316.52Z" fill="black"/>
<path d="M133.361 315.639V316.52L81.9053 286.787V285.948L133.361 315.639Z" fill="black"/>
<path d="M81.6123 280.287L133.655 310.313V311.823L81.6123 281.797V280.287ZM133.362 311.32V310.481L81.9478 280.79V281.629L133.362 311.32Z" fill="black"/>
<path d="M133.361 310.481V311.32L81.9053 281.629L81.9472 280.79L133.361 310.481Z" fill="black"/>
<path d="M81.6523 265.86L133.695 295.887V297.396L81.6523 267.37V265.86ZM133.402 296.893V296.054L81.9878 266.364V267.202L133.402 296.893Z" fill="black"/>
<path d="M133.402 296.056V296.895L81.9463 267.204V266.365L133.402 296.056Z" fill="black"/>
<path d="M133.404 290.899V291.738L81.9902 262.047V261.208L133.404 290.899Z" fill="black"/>
<path d="M81.6963 260.702L133.739 290.729V292.238L81.6963 262.212V260.702ZM133.404 291.735V290.896L81.9898 261.205V262.044L133.404 291.735Z" fill="black"/>
<path d="M133.445 280.539V281.377L81.9893 251.686L82.0312 250.848L133.445 280.539Z" fill="black"/>
<path d="M123.294 237.712L139.314 265.432L123.252 256.164L123.294 237.712Z" fill="#EDF3FF" stroke="black" stroke-miterlimit="10"/>
<path d="M139.775 265.768C139.816 265.852 139.816 265.936 139.816 265.978C139.775 266.02 139.733 266.02 139.691 266.02L123.126 256.458C123.084 256.416 123.042 256.375 123.042 256.333C123 256.291 123 256.249 123 256.165L123.042 237.126C123.042 237.042 123.084 237 123.126 237H123.168C123.21 237.042 123.252 237.042 123.252 237.126L139.775 265.768ZM123.252 256.165L139.313 265.433L123.336 237.713L123.252 256.165Z" fill="black"/>
<path d="M29.9447 271.39C29.5253 271.139 29.1059 271.013 28.7704 271.055C28.5608 271.055 28.3511 271.139 28.1833 271.223L24.3252 273.445C24.7865 273.194 25.4155 273.236 26.0865 273.613C27.4704 274.41 28.5608 276.339 28.5608 277.891C28.5608 278.687 28.2672 279.232 27.8478 279.484L31.706 277.261C32.1673 277.01 32.4189 276.465 32.4189 275.668C32.4189 274.074 31.3286 272.187 29.9447 271.39Z" fill="#BF3570" stroke="black" stroke-width="0.3" stroke-miterlimit="10" stroke-linecap="round" stroke-linejoin="round"/>
<path d="M33.6338 279.106L37.4919 276.883L53.0083 285.815L49.1502 288.08L33.6338 279.106Z" fill="#A51554" stroke="black" stroke-width="0.3" stroke-miterlimit="10" stroke-linecap="round" stroke-linejoin="round"/>
<path d="M64.9602 289.8L65.9667 293.239L49.6954 291.478L33.6338 282.252V279.107L49.1502 288.081L64.9602 289.8Z" fill="#FB4693" stroke="black" stroke-width="0.3" stroke-miterlimit="10"/>
<path d="M64.9609 289.799L68.8191 287.534L69.8255 291.015L65.9674 293.238L64.9609 289.799Z" fill="#AF1659" stroke="black" stroke-width="0.3" stroke-miterlimit="10" stroke-linecap="round" stroke-linejoin="round"/>
<path d="M49.1484 288.08L53.0066 285.816L68.8166 287.535L64.9584 289.799L49.1484 288.08Z" fill="#8A1147" stroke="black" stroke-width="0.3" stroke-miterlimit="10" stroke-linecap="round" stroke-linejoin="round"/>
<path d="M26.0855 273.613C27.4694 274.41 28.5598 276.339 28.5598 277.891C28.5598 279.484 27.4275 280.114 26.0436 279.317C24.6597 278.52 23.5693 276.591 23.5693 275.039C23.6113 273.446 24.7016 272.817 26.0855 273.613Z" fill="#FB4693" stroke="black" stroke-width="0.3" stroke-miterlimit="10"/>
<path d="M29.9447 217.631C29.6092 217.421 29.2737 217.337 28.9801 217.295C28.6866 217.253 28.393 217.337 28.1833 217.463L24.3252 219.686C24.7865 219.434 25.4155 219.476 26.0865 219.853C27.4704 220.65 28.5608 222.579 28.5608 224.131C28.5608 224.718 28.393 225.179 28.1414 225.473C28.0575 225.557 27.9317 225.64 27.8478 225.724L31.706 223.502C32.1673 223.25 32.4189 222.705 32.4189 221.908C32.4189 220.357 31.3286 218.427 29.9447 217.631Z" fill="#BF3570" stroke="black" stroke-width="0.3" stroke-miterlimit="10" stroke-linecap="round" stroke-linejoin="round"/>
<path d="M33.6768 225.726L37.5349 223.461L53.5546 232.729L49.6964 234.952L33.6768 225.726Z" fill="#A51554" stroke="black" stroke-width="0.3" stroke-miterlimit="10" stroke-linecap="round" stroke-linejoin="round"/>
<path d="M49.6964 234.953L65.9677 251.979L64.9193 254.285L49.1512 237.762L33.6768 228.83V225.727L49.6964 234.953Z" fill="#FB4693" stroke="black" stroke-width="0.3" stroke-miterlimit="10"/>
<path d="M49.6963 234.949L53.5544 232.727L69.8257 249.753L65.9676 251.975L49.6963 234.949Z" fill="#B4175C" stroke="black" stroke-width="0.3" stroke-miterlimit="10" stroke-linecap="round" stroke-linejoin="round"/>
<path d="M65.9681 251.976L69.8253 249.754L68.7771 252.06L64.9199 254.282L65.9681 251.976Z" fill="#831143" stroke="black" stroke-width="0.3" stroke-miterlimit="10" stroke-linecap="round" stroke-linejoin="round"/>
<path d="M26.0855 219.852C27.4694 220.649 28.5598 222.578 28.5598 224.13C28.5598 225.723 27.4275 226.352 26.0436 225.555C24.6597 224.759 23.5693 222.83 23.5693 221.278C23.6113 219.726 24.7436 219.097 26.0855 219.852Z" fill="#FB4693" stroke="black" stroke-width="0.3" stroke-miterlimit="10"/>
<path d="M65.336 270.93V274.033L33.8418 255.833V252.73L65.336 270.93Z" fill="#FB4693" stroke="black" stroke-width="0.3" stroke-miterlimit="10"/>
<path d="M65.3359 270.927L69.1931 268.663V271.766L65.3359 274.03V270.927Z" fill="#9C1450" stroke="black" stroke-width="0.3" stroke-miterlimit="10" stroke-linecap="round" stroke-linejoin="round"/>
<path d="M33.8418 252.728L37.6999 250.464L69.1941 268.664L65.3359 270.929L33.8418 252.728Z" fill="#A51554" stroke="black" stroke-width="0.3" stroke-miterlimit="10" stroke-linecap="round" stroke-linejoin="round"/>
<path d="M29.8177 244.636C29.2306 244.301 28.6435 244.217 28.2241 244.385C28.1822 244.427 28.0983 244.427 28.0564 244.469L24.1982 246.691C24.6595 246.44 25.2886 246.482 25.9596 246.859C27.3435 247.656 28.4338 249.585 28.4338 251.136C28.4338 251.933 28.1402 252.478 27.7209 252.73L31.579 250.507C32.0403 250.256 32.2919 249.711 32.2919 248.914C32.3339 247.362 31.2016 245.433 29.8177 244.636Z" fill="#BF3570" stroke="black" stroke-width="0.3" stroke-miterlimit="10" stroke-linecap="round" stroke-linejoin="round"/>
<path d="M26.0006 246.901C27.3844 247.697 28.4748 249.626 28.4748 251.178C28.4748 252.772 27.3425 253.401 25.9586 252.604C24.5747 251.807 23.4844 249.878 23.4844 248.326C23.4844 246.733 24.6167 246.104 26.0006 246.901Z" fill="#FB4693" stroke="black" stroke-width="0.3" stroke-miterlimit="10"/>
<path d="M199.239 361.219C199.281 361.136 199.323 361.052 199.323 360.968C199.323 360.884 199.323 360.842 199.365 360.758C199.365 360.674 199.407 360.59 199.407 360.506C199.407 360.465 199.407 360.465 199.407 360.423C199.407 360.255 199.407 360.045 199.365 359.877C199.365 359.835 199.365 359.794 199.365 359.752C199.365 359.71 199.365 359.71 199.365 359.668C199.323 359.5 199.281 359.332 199.239 359.206C199.239 359.206 199.239 359.165 199.197 359.165C199.155 359.039 199.113 358.913 199.071 358.787C199.071 358.745 199.029 358.703 199.029 358.661C199.029 358.619 198.987 358.577 198.987 358.535C198.903 358.368 198.82 358.2 198.736 358.032C198.736 357.99 198.694 357.99 198.694 357.948C198.61 357.781 198.484 357.613 198.4 357.487C198.4 357.487 198.4 357.445 198.358 357.445C198.232 357.277 198.107 357.152 197.981 356.984C197.939 356.942 197.939 356.942 197.897 356.9C197.771 356.774 197.645 356.648 197.478 356.523C197.436 356.523 197.436 356.481 197.394 356.481C197.352 356.439 197.31 356.397 197.226 356.355C197.142 356.271 197.016 356.229 196.932 356.145C196.807 356.061 196.681 356.019 196.555 355.977H196.513C196.513 355.977 196.513 355.977 196.471 355.977C196.387 355.935 196.261 355.893 196.178 355.893H196.136C196.052 355.893 195.968 355.852 195.884 355.852H195.842C195.842 355.852 195.842 355.852 195.8 355.852C195.674 355.852 195.59 355.852 195.465 355.893H195.423C195.339 355.935 195.213 355.977 195.129 356.019L191.648 358.032C191.732 357.99 191.858 357.948 191.942 357.906H191.984C192.068 357.865 192.194 357.864 192.319 357.864C192.361 357.864 192.361 357.864 192.403 357.864C192.487 357.864 192.571 357.865 192.655 357.906H192.697C192.781 357.906 192.907 357.948 192.99 357.99C193.032 357.99 193.032 357.99 193.074 358.032C193.2 358.074 193.326 358.158 193.452 358.2C193.619 358.284 193.745 358.41 193.913 358.535C193.955 358.535 193.955 358.577 193.997 358.577C194.123 358.703 194.29 358.829 194.416 358.955C194.458 358.997 194.458 358.997 194.5 359.039C194.626 359.165 194.752 359.332 194.878 359.5C194.878 359.5 194.878 359.542 194.919 359.542C195.045 359.71 195.129 359.877 195.213 360.003C195.213 360.045 195.255 360.045 195.255 360.087C195.339 360.255 195.423 360.423 195.507 360.59C195.507 360.632 195.549 360.674 195.549 360.716C195.632 360.884 195.674 361.052 195.758 361.219C195.758 361.219 195.758 361.261 195.8 361.261C195.842 361.429 195.884 361.639 195.926 361.807C195.926 361.848 195.926 361.89 195.926 361.932C195.968 362.1 195.968 362.31 195.968 362.477C195.968 362.603 195.968 362.729 195.926 362.813C195.926 362.897 195.926 362.981 195.884 363.023C195.884 363.107 195.842 363.19 195.8 363.274C195.8 363.316 195.758 363.4 195.758 363.442C195.716 363.526 195.674 363.61 195.59 363.694C195.548 363.736 195.548 363.778 195.507 363.819C195.423 363.903 195.339 363.987 195.213 364.071L198.694 362.058C198.82 361.974 198.903 361.932 198.987 361.807C199.029 361.765 199.029 361.723 199.071 361.681C199.113 361.597 199.197 361.555 199.239 361.429C199.197 361.345 199.239 361.261 199.239 361.219Z" fill="#CE3978" stroke="black" stroke-width="0.3" stroke-miterlimit="10"/>
<path d="M154.62 329.389L158.059 327.376L173.827 343.899L170.388 345.912L154.62 329.389Z" fill="#CB1A68" stroke="black" stroke-width="0.3" stroke-miterlimit="10" stroke-linecap="round" stroke-linejoin="round"/>
<path d="M154.62 329.39L170.388 345.913L185.862 354.845V357.99L169.843 348.722L153.571 331.696L154.62 329.39Z" fill="#FB4693" stroke="black" stroke-width="0.3" stroke-miterlimit="10"/>
<path d="M170.386 345.91L173.825 343.897L189.341 352.83L185.86 354.843L170.386 345.91Z" fill="#C81966" stroke="black" stroke-width="0.3" stroke-miterlimit="10" stroke-linecap="round" stroke-linejoin="round"/>
<path d="M185.861 354.845L189.341 352.833V355.977L185.861 357.99V354.845Z" fill="#C41964" stroke="black" stroke-width="0.3" stroke-miterlimit="10" stroke-linecap="round" stroke-linejoin="round"/>
<path d="M199.28 309.3C199.322 309.217 199.364 309.133 199.364 309.049C199.364 308.965 199.364 308.923 199.406 308.839C199.406 308.755 199.448 308.671 199.448 308.588C199.448 308.546 199.448 308.504 199.448 308.504C199.448 308.336 199.448 308.126 199.406 307.958C199.406 307.917 199.406 307.875 199.406 307.833C199.406 307.791 199.406 307.791 199.406 307.749C199.364 307.581 199.322 307.413 199.28 307.288C199.28 307.288 199.28 307.246 199.238 307.246C199.196 307.12 199.154 306.994 199.112 306.868C199.112 306.826 199.07 306.784 199.07 306.742C199.07 306.7 199.028 306.658 199.028 306.617C198.944 306.449 198.861 306.281 198.777 306.113C198.777 306.071 198.735 306.071 198.735 306.029C198.651 305.862 198.525 305.694 198.441 305.568C198.441 305.568 198.441 305.526 198.399 305.526C198.273 305.358 198.148 305.233 198.022 305.065C197.98 305.023 197.98 305.023 197.938 304.981C197.812 304.855 197.686 304.729 197.519 304.604C197.477 304.604 197.477 304.562 197.435 304.562C197.393 304.52 197.351 304.478 197.267 304.436C197.183 304.352 197.057 304.31 196.973 304.226C196.848 304.142 196.722 304.1 196.596 304.058H196.554C196.554 304.058 196.554 304.058 196.512 304.058C196.428 304.016 196.302 303.975 196.219 303.975H196.177C196.093 303.975 196.009 303.933 195.925 303.933H195.883C195.883 303.933 195.883 303.933 195.841 303.933C195.715 303.933 195.631 303.933 195.506 303.975H195.464C195.38 304.016 195.254 304.058 195.17 304.1L191.689 306.113C191.773 306.071 191.899 306.029 191.983 305.987H192.025C192.109 305.946 192.235 305.946 192.36 305.946C192.402 305.946 192.402 305.946 192.444 305.946C192.528 305.946 192.612 305.946 192.696 305.987H192.738C192.822 305.987 192.948 306.029 193.031 306.071C193.073 306.071 193.073 306.071 193.115 306.113C193.241 306.155 193.367 306.239 193.493 306.281C193.66 306.365 193.786 306.491 193.954 306.617C193.996 306.617 193.996 306.658 194.038 306.658C194.164 306.784 194.331 306.91 194.457 307.036C194.499 307.078 194.499 307.078 194.541 307.12C194.667 307.246 194.793 307.413 194.919 307.581C194.919 307.581 194.919 307.623 194.96 307.623C195.086 307.791 195.17 307.958 195.254 308.084C195.254 308.126 195.296 308.126 195.296 308.168C195.38 308.336 195.464 308.504 195.548 308.671C195.548 308.713 195.59 308.755 195.59 308.797C195.673 308.965 195.715 309.133 195.799 309.3C195.799 309.3 195.799 309.342 195.841 309.342C195.883 309.51 195.925 309.72 195.967 309.888C195.967 309.93 195.967 309.971 195.967 310.013C196.009 310.181 196.009 310.391 196.009 310.559C196.009 310.684 196.009 310.81 195.967 310.894C195.967 310.978 195.967 311.062 195.925 311.104C195.925 311.188 195.883 311.271 195.841 311.355C195.841 311.397 195.799 311.481 195.799 311.523C195.757 311.607 195.715 311.691 195.631 311.775C195.59 311.817 195.59 311.859 195.548 311.901C195.464 311.984 195.38 312.068 195.254 312.152L198.735 310.139C198.861 310.055 198.944 310.013 199.028 309.888C199.07 309.846 199.07 309.804 199.112 309.762C199.154 309.678 199.238 309.636 199.28 309.51C199.238 309.426 199.238 309.342 199.28 309.3Z" fill="#CE3978" stroke="black" stroke-width="0.3" stroke-miterlimit="10"/>
<path d="M153.571 292.233L157.01 290.22L173.323 291.981L169.843 293.994L153.571 292.233Z" fill="#C31963" stroke="black" stroke-width="0.3" stroke-miterlimit="10" stroke-linecap="round" stroke-linejoin="round"/>
<path d="M185.904 303.262V306.407L170.388 297.432L154.578 295.713L153.571 292.232L169.843 293.994L185.904 303.262Z" fill="#FB4693" stroke="black" stroke-width="0.3" stroke-miterlimit="10"/>
<path d="M185.903 303.261L189.341 301.249V304.393L185.903 306.406V303.261Z" fill="#C41964" stroke="black" stroke-width="0.3" stroke-miterlimit="10" stroke-linecap="round" stroke-linejoin="round"/>
<path d="M169.843 293.994L173.323 291.981L189.343 301.249L185.904 303.262L169.843 293.994Z" fill="#C81966" stroke="black" stroke-width="0.3" stroke-miterlimit="10" stroke-linecap="round" stroke-linejoin="round"/>
<path d="M193.452 306.197C194.836 306.994 195.926 308.923 195.926 310.475C195.926 312.068 194.794 312.697 193.452 311.901C192.068 311.104 190.978 309.175 190.978 307.623C190.978 306.03 192.11 305.401 193.452 306.197Z" fill="#FD4694" stroke="black" stroke-width="0.3" stroke-miterlimit="10"/>
<path d="M184.977 327.838V330.941L153.44 312.783L153.482 309.638L184.977 327.838Z" fill="#FB4693" stroke="black" stroke-width="0.3" stroke-miterlimit="10"/>
<path d="M184.978 327.838L188.415 325.825V328.928L184.978 330.94V327.838Z" fill="#C41964" stroke="black" stroke-width="0.3" stroke-miterlimit="10" stroke-linecap="round" stroke-linejoin="round"/>
<path d="M153.483 309.638L156.922 307.625L188.416 325.825L184.978 327.838L153.483 309.638Z" fill="#C81966" stroke="black" stroke-width="0.3" stroke-miterlimit="10" stroke-linecap="round" stroke-linejoin="round"/>
<path d="M198.649 334.171C198.691 334.087 198.733 334.003 198.733 333.919C198.733 333.835 198.733 333.793 198.775 333.709C198.775 333.625 198.817 333.541 198.817 333.458C198.817 333.416 198.817 333.374 198.817 333.374C198.817 333.206 198.817 332.996 198.775 332.829C198.775 332.787 198.775 332.745 198.775 332.703C198.775 332.661 198.775 332.661 198.775 332.619C198.733 332.451 198.691 332.283 198.649 332.158C198.649 332.116 198.649 332.116 198.607 332.074C198.565 331.948 198.523 331.822 198.481 331.696C198.481 331.654 198.439 331.612 198.439 331.57C198.439 331.529 198.397 331.487 198.397 331.445C198.314 331.277 198.23 331.109 198.146 330.941C198.146 330.899 198.104 330.899 198.104 330.858C198.02 330.69 197.894 330.522 197.81 330.396C197.81 330.396 197.81 330.354 197.768 330.354C197.643 330.187 197.517 330.061 197.391 329.893C197.349 329.851 197.349 329.851 197.307 329.809C197.181 329.683 197.055 329.558 196.888 329.432C196.846 329.432 196.846 329.39 196.804 329.39C196.762 329.348 196.72 329.306 196.636 329.264C196.552 329.18 196.426 329.138 196.343 329.054C196.217 328.97 196.091 328.928 195.965 328.887H195.923C195.923 328.887 195.923 328.887 195.881 328.887C195.797 328.845 195.672 328.803 195.588 328.803H195.546C195.462 328.803 195.378 328.761 195.294 328.761H195.252C195.252 328.761 195.252 328.761 195.21 328.761C195.084 328.761 195.001 328.761 194.875 328.803H194.833C194.749 328.845 194.623 328.887 194.539 328.928L191.059 330.941C191.142 330.899 191.268 330.858 191.352 330.816H191.394C191.478 330.774 191.604 330.774 191.73 330.774C191.772 330.774 191.772 330.774 191.813 330.774C191.897 330.774 191.981 330.774 192.065 330.816H192.107C192.191 330.816 192.317 330.858 192.401 330.899C192.442 330.899 192.443 330.899 192.484 330.941C192.61 330.983 192.736 331.067 192.862 331.109C193.03 331.193 193.155 331.319 193.323 331.445C193.365 331.445 193.365 331.487 193.407 331.487C193.533 331.612 193.701 331.738 193.826 331.864C193.868 331.906 193.868 331.906 193.91 331.948C194.036 332.074 194.162 332.241 194.288 332.409C194.288 332.409 194.288 332.451 194.33 332.451C194.455 332.619 194.539 332.787 194.623 332.912C194.623 332.954 194.665 332.954 194.665 332.996C194.749 333.164 194.833 333.332 194.917 333.5C194.917 333.541 194.959 333.583 194.959 333.625C195.043 333.793 195.084 333.961 195.126 334.129C195.126 334.129 195.126 334.171 195.168 334.171C195.21 334.338 195.252 334.548 195.294 334.716C195.294 334.758 195.294 334.8 195.294 334.842C195.336 335.009 195.336 335.219 195.336 335.387C195.336 335.512 195.336 335.638 195.294 335.722C195.294 335.806 195.294 335.89 195.252 335.932C195.252 336.016 195.21 336.1 195.168 336.183C195.168 336.225 195.126 336.309 195.126 336.351C195.084 336.435 195.043 336.519 194.959 336.561C194.917 336.603 194.917 336.645 194.875 336.687C194.791 336.771 194.707 336.854 194.581 336.938L198.062 334.925C198.188 334.841 198.272 334.8 198.356 334.674C198.397 334.632 198.397 334.59 198.439 334.548C198.481 334.464 198.565 334.422 198.607 334.338C198.607 334.296 198.607 334.254 198.649 334.171Z" fill="#CE3978" stroke="black" stroke-width="0.3" stroke-miterlimit="10"/>
<path d="M192.82 331.068C194.204 331.864 195.294 333.794 195.294 335.345C195.294 336.939 194.162 337.568 192.82 336.771C191.436 335.974 190.346 334.045 190.346 332.494C190.346 330.942 191.478 330.271 192.82 331.068Z" fill="#FD4694" stroke="black" stroke-width="0.3" stroke-miterlimit="10"/>
<path d="M193.451 358.112C194.835 358.909 195.925 360.838 195.925 362.39C195.925 363.983 194.793 364.612 193.451 363.816C192.067 363.019 190.977 361.09 190.977 359.538C190.977 357.945 192.067 357.316 193.451 358.112Z" fill="#FD4694" stroke="black" stroke-width="0.3" stroke-miterlimit="10"/>
<path d="M84.2908 109.355L75.3164 104.155L83.7456 99.248C86.3037 97.7383 87.8973 94.5931 87.8973 90.0639C87.9393 81.0057 81.5649 69.9765 73.639 65.4054C69.655 63.0989 66.0905 62.8892 63.4904 64.3989L54.6419 69.5571C57.2419 68.0474 60.8484 68.2571 64.7904 70.5636C72.6744 75.1346 79.0488 86.1639 79.0488 95.2221C79.0488 99.4577 77.6229 102.519 75.3164 104.113L62.8614 96.8996C61.2678 95.977 59.7161 95.4318 58.2903 95.1802C57.8709 95.1382 57.4935 95.0963 57.0742 95.0963C56.487 95.0963 55.9419 95.1382 55.3967 95.264C54.6838 95.3899 54.0128 95.6415 53.4257 96.0189L44.5771 101.177C47.0095 99.7932 50.3224 99.9609 54.0128 102.1L75.4842 114.513C82.7811 118.706 88.6941 129.023 88.6941 137.368L88.6522 158.588L97.5007 153.43L97.5427 132.21C97.5007 123.865 91.5458 113.548 84.2908 109.355Z" fill="#52587C" stroke="black" stroke-miterlimit="10"/>
<path d="M75.3979 114.514C82.6948 118.707 88.6079 129.024 88.6079 137.369L88.5659 158.589L40.5908 130.911L40.6327 109.691C40.6747 101.304 46.6296 97.9069 53.9266 102.101L75.3979 114.514Z" fill="#A5B2FE" stroke="black" stroke-miterlimit="10"/>
<path d="M64.7907 70.6048C72.6747 75.1759 79.049 86.2051 79.049 95.2634C79.0071 104.322 72.5909 107.97 64.7069 103.441C56.8228 98.8699 50.4485 87.8406 50.4904 78.7824C50.4904 69.7242 56.9067 66.0757 64.7907 70.6048Z" fill="#A5B2FE" stroke="black" stroke-miterlimit="10"/>
<path d="M139.856 266.114L146.314 262.34L146.147 332.415L139.646 336.148L139.856 266.114Z" fill="#C4C4C4" stroke="black" stroke-width="0.5" stroke-miterlimit="10" stroke-linecap="round" stroke-linejoin="round"/>
<path d="M76.0723 209.753L82.5305 205.979L129.415 233.069L122.957 236.802L76.0723 209.753Z" fill="#C4C4C4" stroke="black" stroke-width="0.3" stroke-miterlimit="10" stroke-linecap="round" stroke-linejoin="round"/>
<path d="M122.956 236.801L129.414 233.068L146.315 262.34L139.856 266.114L122.956 236.801Z" fill="#C4C4C4" stroke="black" stroke-width="0.3" stroke-miterlimit="10" stroke-linecap="round" stroke-linejoin="round"/>
</svg>
