<svg width="578" height="536" viewBox="0 0 578 536" fill="none" xmlns="http://www.w3.org/2000/svg">
<path d="M257.344 378.621L172.241 336.218L87.1029 378.621L2 421.023L87.1029 463.426L172.241 505.863L257.344 463.426L342.447 421.023L257.344 378.621Z" fill="#FF7B9F" stroke="black"/>
<path d="M2 421.023V449.734L172.241 534.539V505.863L2 421.023Z" fill="#FF99B5" stroke="black"/>
<path d="M342.447 421.023L172.241 505.863V534.539L342.447 449.734V421.023Z" fill="#FF648E" stroke="black"/>
<path d="M257.345 237.276L172.242 194.874L87.1039 237.276L2.00098 279.679L87.1039 322.116L172.242 364.518L257.345 322.116L342.448 279.679L257.345 237.276Z" fill="#FFDDE9" stroke="black"/>
<path d="M2.00098 279.678V308.389L172.242 393.194V364.518L2.00098 279.678Z" fill="#FFE6EF" stroke="black"/>
<path d="M342.448 279.678L172.242 364.518V393.194L342.448 308.389V279.678Z" fill="#FFC6DA" stroke="black"/>
<path d="M257.345 103.417L172.242 61.0142L87.1039 103.417L2.00098 145.819L87.1039 188.257L172.242 230.659L257.345 188.257L342.448 145.819L257.345 103.417Z" fill="#FEFFCA" stroke="black"/>
<path d="M2.00098 145.562V174.273L172.242 259.078V230.402L2.00098 145.562Z" fill="#FEFFE4" stroke="black"/>
<path d="M342.448 145.562L172.242 230.402V259.078L342.448 174.273V145.562Z" fill="#F3F4AA" stroke="black"/>
<path d="M408.517 7.54545H413.068L417.875 19.2727H418.08L422.886 7.54545H427.438V25H423.858V13.6392H423.713L419.196 24.9148H416.759L412.241 13.5966H412.097V25H408.517V7.54545ZM436.376 25.2557C435.029 25.2557 433.87 24.983 432.898 24.4375C431.933 23.8864 431.188 23.108 430.665 22.1023C430.143 21.0909 429.881 19.8949 429.881 18.5142C429.881 17.1676 430.143 15.9858 430.665 14.9688C431.188 13.9517 431.924 13.1591 432.873 12.5909C433.827 12.0227 434.947 11.7386 436.231 11.7386C437.094 11.7386 437.898 11.8778 438.643 12.1562C439.393 12.429 440.046 12.8409 440.603 13.392C441.165 13.9432 441.603 14.6364 441.915 15.4716C442.228 16.3011 442.384 17.2727 442.384 18.3864V19.3835H431.33V17.1335H438.967C438.967 16.6108 438.853 16.1477 438.626 15.7443C438.398 15.3409 438.083 15.0256 437.68 14.7983C437.282 14.5653 436.819 14.4489 436.29 14.4489C435.739 14.4489 435.251 14.5767 434.825 14.8324C434.404 15.0824 434.075 15.4205 433.836 15.8466C433.597 16.267 433.475 16.7358 433.469 17.2528V19.392C433.469 20.0398 433.589 20.5994 433.827 21.071C434.072 21.5426 434.415 21.9062 434.859 22.1619C435.302 22.4176 435.827 22.5455 436.435 22.5455C436.839 22.5455 437.208 22.4886 437.543 22.375C437.879 22.2614 438.165 22.0909 438.404 21.8636C438.643 21.6364 438.825 21.358 438.95 21.0284L442.308 21.25C442.137 22.0568 441.788 22.7614 441.259 23.3636C440.737 23.9602 440.06 24.4261 439.231 24.7614C438.407 25.0909 437.455 25.2557 436.376 25.2557ZM451.717 11.9091V14.6364H443.833V11.9091H451.717ZM445.623 8.77273H449.254V20.9773C449.254 21.3125 449.305 21.5739 449.407 21.7614C449.509 21.9432 449.651 22.071 449.833 22.1449C450.021 22.2187 450.237 22.2557 450.481 22.2557C450.651 22.2557 450.822 22.2415 450.992 22.2131C451.163 22.179 451.293 22.1534 451.384 22.1364L451.955 24.8381C451.773 24.8949 451.518 24.9602 451.188 25.0341C450.859 25.1136 450.458 25.1619 449.987 25.179C449.112 25.2131 448.344 25.0966 447.685 24.8295C447.032 24.5625 446.523 24.1477 446.16 23.5852C445.796 23.0227 445.617 22.3125 445.623 21.4545V8.77273ZM457.815 25.2472C456.979 25.2472 456.235 25.1023 455.582 24.8125C454.928 24.517 454.411 24.0824 454.031 23.5085C453.656 22.929 453.468 22.2074 453.468 21.3438C453.468 20.6165 453.602 20.0057 453.869 19.5114C454.136 19.017 454.499 18.6193 454.96 18.3182C455.42 18.017 455.942 17.7898 456.528 17.6364C457.119 17.483 457.738 17.375 458.386 17.3125C459.147 17.233 459.761 17.1591 460.227 17.0909C460.692 17.017 461.031 16.9091 461.241 16.767C461.451 16.625 461.556 16.4148 461.556 16.1364V16.0852C461.556 15.5455 461.386 15.1278 461.045 14.8324C460.71 14.5369 460.232 14.3892 459.613 14.3892C458.96 14.3892 458.44 14.5341 458.053 14.8239C457.667 15.108 457.411 15.4659 457.286 15.8977L453.928 15.625C454.099 14.8295 454.434 14.142 454.934 13.5625C455.434 12.9773 456.079 12.5284 456.869 12.2159C457.664 11.8977 458.585 11.7386 459.63 11.7386C460.357 11.7386 461.053 11.8239 461.718 11.9943C462.388 12.1648 462.982 12.429 463.499 12.7869C464.022 13.1449 464.434 13.6051 464.735 14.1676C465.036 14.7244 465.187 15.392 465.187 16.1705V25H461.744V23.1847H461.641C461.431 23.5938 461.15 23.9545 460.798 24.267C460.445 24.5739 460.022 24.8153 459.528 24.9915C459.033 25.1619 458.462 25.2472 457.815 25.2472ZM458.854 22.7415C459.388 22.7415 459.86 22.6364 460.269 22.4261C460.678 22.2102 460.999 21.9205 461.232 21.5568C461.465 21.1932 461.582 20.7812 461.582 20.321V18.9318C461.468 19.0057 461.312 19.0739 461.113 19.1364C460.92 19.1932 460.701 19.2472 460.457 19.2983C460.212 19.3437 459.968 19.3864 459.724 19.4261C459.479 19.4602 459.258 19.4915 459.059 19.5199C458.633 19.5824 458.261 19.6818 457.942 19.8182C457.624 19.9545 457.377 20.1392 457.201 20.3722C457.025 20.5994 456.937 20.8835 456.937 21.2244C456.937 21.7188 457.116 22.0966 457.474 22.358C457.837 22.6136 458.298 22.7415 458.854 22.7415ZM479.739 11.9091L475.163 25H471.072L466.495 11.9091H470.33L473.049 21.2756H473.185L475.896 11.9091H479.739ZM487.141 25.2557C485.795 25.2557 484.636 24.983 483.664 24.4375C482.698 23.8864 481.954 23.108 481.431 22.1023C480.908 21.0909 480.647 19.8949 480.647 18.5142C480.647 17.1676 480.908 15.9858 481.431 14.9688C481.954 13.9517 482.69 13.1591 483.638 12.5909C484.593 12.0227 485.712 11.7386 486.996 11.7386C487.86 11.7386 488.664 11.8778 489.408 12.1562C490.158 12.429 490.812 12.8409 491.369 13.392C491.931 13.9432 492.369 14.6364 492.681 15.4716C492.994 16.3011 493.15 17.2727 493.15 18.3864V19.3835H482.096V17.1335H489.732C489.732 16.6108 489.619 16.1477 489.391 15.7443C489.164 15.3409 488.849 15.0256 488.445 14.7983C488.048 14.5653 487.585 14.4489 487.056 14.4489C486.505 14.4489 486.016 14.5767 485.59 14.8324C485.17 15.0824 484.84 15.4205 484.602 15.8466C484.363 16.267 484.241 16.7358 484.235 17.2528V19.392C484.235 20.0398 484.354 20.5994 484.593 21.071C484.837 21.5426 485.181 21.9062 485.624 22.1619C486.067 22.4176 486.593 22.5455 487.201 22.5455C487.604 22.5455 487.974 22.4886 488.309 22.375C488.644 22.2614 488.931 22.0909 489.17 21.8636C489.408 21.6364 489.59 21.358 489.715 21.0284L493.073 21.25C492.903 22.0568 492.553 22.7614 492.025 23.3636C491.502 23.9602 490.826 24.4261 489.996 24.7614C489.173 25.0909 488.221 25.2557 487.141 25.2557ZM495.519 25V11.9091H499.039V14.1932H499.175C499.414 13.3807 499.815 12.767 500.377 12.3523C500.94 11.9318 501.587 11.7216 502.32 11.7216C502.502 11.7216 502.698 11.733 502.908 11.7557C503.119 11.7784 503.303 11.8097 503.462 11.8494V15.071C503.292 15.0199 503.056 14.9744 502.755 14.9347C502.454 14.8949 502.178 14.875 501.928 14.875C501.394 14.875 500.917 14.9915 500.496 15.2244C500.082 15.4517 499.752 15.7699 499.508 16.179C499.269 16.5881 499.15 17.0597 499.15 17.5938V25H495.519ZM516.232 15.642L512.908 15.8466C512.851 15.5625 512.729 15.3068 512.541 15.0795C512.354 14.8466 512.107 14.6619 511.8 14.5256C511.499 14.3835 511.138 14.3125 510.717 14.3125C510.155 14.3125 509.68 14.4318 509.294 14.6705C508.908 14.9034 508.714 15.2159 508.714 15.608C508.714 15.9205 508.839 16.1847 509.089 16.4006C509.339 16.6165 509.768 16.7898 510.376 16.9205L512.746 17.3977C514.018 17.6591 514.967 18.0795 515.592 18.6591C516.217 19.2386 516.53 20 516.53 20.9432C516.53 21.8011 516.277 22.554 515.771 23.2017C515.271 23.8494 514.584 24.3551 513.709 24.7188C512.839 25.0767 511.837 25.2557 510.7 25.2557C508.967 25.2557 507.587 24.8949 506.558 24.1733C505.536 23.446 504.936 22.4574 504.76 21.2074L508.331 21.0199C508.439 21.5483 508.7 21.9517 509.115 22.2301C509.53 22.5028 510.061 22.6392 510.709 22.6392C511.345 22.6392 511.857 22.517 512.243 22.2727C512.635 22.0227 512.834 21.7017 512.839 21.3097C512.834 20.9801 512.695 20.7102 512.422 20.5C512.149 20.2841 511.729 20.1193 511.161 20.0057L508.893 19.554C507.615 19.2983 506.663 18.8551 506.038 18.2244C505.419 17.5937 505.109 16.7898 505.109 15.8125C505.109 14.9716 505.337 14.2472 505.791 13.6392C506.251 13.0312 506.896 12.5625 507.726 12.233C508.561 11.9034 509.538 11.7386 510.658 11.7386C512.311 11.7386 513.612 12.0881 514.561 12.7869C515.516 13.4858 516.072 14.4375 516.232 15.642ZM524.782 25.2557C523.435 25.2557 522.276 24.983 521.305 24.4375C520.339 23.8864 519.594 23.108 519.072 22.1023C518.549 21.0909 518.288 19.8949 518.288 18.5142C518.288 17.1676 518.549 15.9858 519.072 14.9688C519.594 13.9517 520.33 13.1591 521.279 12.5909C522.234 12.0227 523.353 11.7386 524.637 11.7386C525.501 11.7386 526.305 11.8778 527.049 12.1562C527.799 12.429 528.452 12.8409 529.009 13.392C529.572 13.9432 530.009 14.6364 530.322 15.4716C530.634 16.3011 530.79 17.2727 530.79 18.3864V19.3835H519.737V17.1335H527.373C527.373 16.6108 527.259 16.1477 527.032 15.7443C526.805 15.3409 526.489 15.0256 526.086 14.7983C525.688 14.5653 525.225 14.4489 524.697 14.4489C524.146 14.4489 523.657 14.5767 523.231 14.8324C522.81 15.0824 522.481 15.4205 522.242 15.8466C522.004 16.267 521.881 16.7358 521.876 17.2528V19.392C521.876 20.0398 521.995 20.5994 522.234 21.071C522.478 21.5426 522.822 21.9062 523.265 22.1619C523.708 22.4176 524.234 22.5455 524.842 22.5455C525.245 22.5455 525.614 22.4886 525.95 22.375C526.285 22.2614 526.572 22.0909 526.81 21.8636C527.049 21.6364 527.231 21.358 527.356 21.0284L530.714 21.25C530.543 22.0568 530.194 22.7614 529.665 23.3636C529.143 23.9602 528.467 24.4261 527.637 24.7614C526.813 25.0909 525.862 25.2557 524.782 25.2557ZM420.091 45.1875C419.972 44.7727 419.804 44.4062 419.588 44.0881C419.372 43.7642 419.108 43.4915 418.795 43.2699C418.489 43.0426 418.136 42.8693 417.739 42.75C417.347 42.6307 416.912 42.571 416.435 42.571C415.543 42.571 414.759 42.7926 414.082 43.2358C413.412 43.679 412.889 44.3239 412.514 45.1705C412.139 46.0114 411.952 47.0398 411.952 48.2557C411.952 49.4716 412.136 50.5057 412.506 51.358C412.875 52.2102 413.398 52.8608 414.074 53.3097C414.75 53.7528 415.548 53.9744 416.469 53.9744C417.304 53.9744 418.017 53.8267 418.608 53.5312C419.205 53.2301 419.659 52.8068 419.972 52.2614C420.29 51.7159 420.449 51.071 420.449 50.3267L421.199 50.4375H416.699V47.6591H424.003V49.858C424.003 51.392 423.679 52.7102 423.031 53.8125C422.384 54.9091 421.491 55.7557 420.355 56.3523C419.219 56.9432 417.918 57.2386 416.452 57.2386C414.815 57.2386 413.378 56.8778 412.139 56.1562C410.901 55.429 409.935 54.3977 409.241 53.0625C408.554 51.7216 408.21 50.1307 408.21 48.2898C408.21 46.875 408.415 45.6136 408.824 44.5057C409.239 43.392 409.818 42.4489 410.562 41.6761C411.307 40.9034 412.173 40.3153 413.162 39.9119C414.151 39.5085 415.222 39.3068 416.375 39.3068C417.364 39.3068 418.284 39.4517 419.136 39.7415C419.989 40.0256 420.744 40.429 421.403 40.9517C422.068 41.4744 422.611 42.0966 423.031 42.8182C423.452 43.5341 423.722 44.3239 423.841 45.1875H420.091ZM432.621 57.2557C431.298 57.2557 430.153 56.9744 429.187 56.4119C428.227 55.8437 427.485 55.054 426.962 54.0426C426.44 53.0256 426.178 51.8466 426.178 50.5057C426.178 49.1534 426.44 47.9716 426.962 46.9602C427.485 45.9432 428.227 45.1534 429.187 44.5909C430.153 44.0227 431.298 43.7386 432.621 43.7386C433.945 43.7386 435.087 44.0227 436.048 44.5909C437.013 45.1534 437.758 45.9432 438.281 46.9602C438.803 47.9716 439.065 49.1534 439.065 50.5057C439.065 51.8466 438.803 53.0256 438.281 54.0426C437.758 55.054 437.013 55.8437 436.048 56.4119C435.087 56.9744 433.945 57.2557 432.621 57.2557ZM432.638 54.4432C433.241 54.4432 433.744 54.2727 434.147 53.9318C434.55 53.5852 434.854 53.1136 435.059 52.517C435.269 51.9205 435.374 51.2415 435.374 50.4801C435.374 49.7188 435.269 49.0398 435.059 48.4432C434.854 47.8466 434.55 47.375 434.147 47.0284C433.744 46.6818 433.241 46.5085 432.638 46.5085C432.031 46.5085 431.519 46.6818 431.104 47.0284C430.695 47.375 430.386 47.8466 430.175 48.4432C429.971 49.0398 429.869 49.7188 429.869 50.4801C429.869 51.2415 429.971 51.9205 430.175 52.517C430.386 53.1136 430.695 53.5852 431.104 53.9318C431.519 54.2727 432.031 54.4432 432.638 54.4432ZM453.208 43.9091L448.631 57H444.54L439.964 43.9091H443.799L446.518 53.2756H446.654L449.364 43.9091H453.208ZM460.61 57.2557C459.263 57.2557 458.104 56.983 457.133 56.4375C456.167 55.8864 455.423 55.108 454.9 54.1023C454.377 53.0909 454.116 51.8949 454.116 50.5142C454.116 49.1676 454.377 47.9858 454.9 46.9688C455.423 45.9517 456.158 45.1591 457.107 44.5909C458.062 44.0227 459.181 43.7386 460.465 43.7386C461.329 43.7386 462.133 43.8778 462.877 44.1562C463.627 44.429 464.281 44.8409 464.837 45.392C465.4 45.9432 465.837 46.6364 466.15 47.4716C466.462 48.3011 466.619 49.2727 466.619 50.3864V51.3835H455.565V49.1335H463.201C463.201 48.6108 463.087 48.1477 462.86 47.7443C462.633 47.3409 462.317 47.0256 461.914 46.7983C461.516 46.5653 461.053 46.4489 460.525 46.4489C459.974 46.4489 459.485 46.5767 459.059 46.8324C458.638 47.0824 458.309 47.4205 458.07 47.8466C457.832 48.267 457.71 48.7358 457.704 49.2528V51.392C457.704 52.0398 457.823 52.5994 458.062 53.071C458.306 53.5426 458.65 53.9062 459.093 54.1619C459.536 54.4176 460.062 54.5455 460.67 54.5455C461.073 54.5455 461.442 54.4886 461.778 54.375C462.113 54.2614 462.4 54.0909 462.638 53.8636C462.877 53.6364 463.059 53.358 463.184 53.0284L466.542 53.25C466.371 54.0568 466.022 54.7614 465.494 55.3636C464.971 55.9602 464.295 56.4261 463.465 56.7614C462.641 57.0909 461.69 57.2557 460.61 57.2557ZM468.988 57V43.9091H472.508V46.1932H472.644C472.883 45.3807 473.283 44.767 473.846 44.3523C474.408 43.9318 475.056 43.7216 475.789 43.7216C475.971 43.7216 476.167 43.733 476.377 43.7557C476.587 43.7784 476.772 43.8097 476.931 43.8494V47.071C476.761 47.0199 476.525 46.9744 476.224 46.9347C475.923 46.8949 475.647 46.875 475.397 46.875C474.863 46.875 474.386 46.9915 473.965 47.2244C473.55 47.4517 473.221 47.7699 472.977 48.179C472.738 48.5881 472.619 49.0597 472.619 49.5938V57H468.988ZM482.439 49.4318V57H478.808V43.9091H482.268V46.2188H482.422C482.712 45.4574 483.197 44.8551 483.879 44.4119C484.561 43.9631 485.388 43.7386 486.359 43.7386C487.268 43.7386 488.061 43.9375 488.737 44.3352C489.413 44.733 489.939 45.3011 490.314 46.0398C490.689 46.7727 490.876 47.6477 490.876 48.6648V57H487.246V49.3125C487.251 48.5114 487.047 47.8864 486.632 47.4375C486.217 46.983 485.646 46.7557 484.919 46.7557C484.43 46.7557 483.999 46.8608 483.624 47.071C483.254 47.2812 482.964 47.5881 482.754 47.9915C482.55 48.3892 482.445 48.8693 482.439 49.4318ZM497.471 57.2472C496.636 57.2472 495.891 57.1023 495.238 56.8125C494.585 56.517 494.067 56.0824 493.687 55.5085C493.312 54.929 493.124 54.2074 493.124 53.3438C493.124 52.6165 493.258 52.0057 493.525 51.5114C493.792 51.017 494.156 50.6193 494.616 50.3182C495.076 50.017 495.599 49.7898 496.184 49.6364C496.775 49.483 497.394 49.375 498.042 49.3125C498.803 49.233 499.417 49.1591 499.883 49.0909C500.349 49.017 500.687 48.9091 500.897 48.767C501.107 48.625 501.212 48.4148 501.212 48.1364V48.0852C501.212 47.5455 501.042 47.1278 500.701 46.8324C500.366 46.5369 499.888 46.3892 499.269 46.3892C498.616 46.3892 498.096 46.5341 497.71 46.8239C497.323 47.108 497.067 47.4659 496.942 47.8977L493.585 47.625C493.755 46.8295 494.09 46.142 494.59 45.5625C495.09 44.9773 495.735 44.5284 496.525 44.2159C497.32 43.8977 498.241 43.7386 499.286 43.7386C500.013 43.7386 500.71 43.8239 501.374 43.9943C502.045 44.1648 502.638 44.429 503.156 44.7869C503.678 45.1449 504.09 45.6051 504.391 46.1676C504.692 46.7244 504.843 47.392 504.843 48.1705V57H501.4V55.1847H501.298C501.087 55.5938 500.806 55.9545 500.454 56.267C500.102 56.5739 499.678 56.8153 499.184 56.9915C498.69 57.1619 498.119 57.2472 497.471 57.2472ZM498.511 54.7415C499.045 54.7415 499.516 54.6364 499.925 54.4261C500.335 54.2102 500.656 53.9205 500.888 53.5568C501.121 53.1932 501.238 52.7812 501.238 52.321V50.9318C501.124 51.0057 500.968 51.0739 500.769 51.1364C500.576 51.1932 500.357 51.2472 500.113 51.2983C499.869 51.3437 499.624 51.3864 499.38 51.4261C499.136 51.4602 498.914 51.4915 498.715 51.5199C498.289 51.5824 497.917 51.6818 497.599 51.8182C497.281 51.9545 497.033 52.1392 496.857 52.3722C496.681 52.5994 496.593 52.8835 496.593 53.2244C496.593 53.7188 496.772 54.0966 497.13 54.358C497.494 54.6136 497.954 54.7415 498.511 54.7415ZM511.29 49.4318V57H507.66V43.9091H511.12V46.2188H511.273C511.563 45.4574 512.049 44.8551 512.731 44.4119C513.413 43.9631 514.239 43.7386 515.211 43.7386C516.12 43.7386 516.913 43.9375 517.589 44.3352C518.265 44.733 518.79 45.3011 519.165 46.0398C519.54 46.7727 519.728 47.6477 519.728 48.6648V57H516.097V49.3125C516.103 48.5114 515.898 47.8864 515.484 47.4375C515.069 46.983 514.498 46.7557 513.771 46.7557C513.282 46.7557 512.85 46.8608 512.475 47.071C512.106 47.2812 511.816 47.5881 511.606 47.9915C511.401 48.3892 511.296 48.8693 511.29 49.4318ZM528.504 57.2557C527.163 57.2557 526.01 56.9716 525.044 56.4034C524.084 55.8295 523.345 55.0341 522.828 54.017C522.317 53 522.061 51.8295 522.061 50.5057C522.061 49.1648 522.32 47.9886 522.837 46.9773C523.359 45.9602 524.101 45.1676 525.061 44.5994C526.021 44.0256 527.163 43.7386 528.487 43.7386C529.629 43.7386 530.629 43.946 531.487 44.3608C532.345 44.7756 533.024 45.358 533.524 46.108C534.024 46.858 534.3 47.7386 534.351 48.75H530.925C530.828 48.0966 530.572 47.571 530.158 47.1733C529.749 46.7699 529.212 46.5682 528.547 46.5682C527.984 46.5682 527.493 46.7216 527.072 47.0284C526.658 47.3295 526.334 47.7699 526.101 48.3494C525.868 48.929 525.751 49.6307 525.751 50.4545C525.751 51.2898 525.865 52 526.092 52.5852C526.325 53.1705 526.652 53.6165 527.072 53.9233C527.493 54.2301 527.984 54.3835 528.547 54.3835C528.962 54.3835 529.334 54.2983 529.663 54.1278C529.999 53.9574 530.274 53.7102 530.49 53.3864C530.712 53.0568 530.857 52.6619 530.925 52.2017H534.351C534.294 53.2017 534.021 54.0824 533.533 54.8438C533.05 55.5994 532.382 56.1903 531.53 56.6165C530.678 57.0426 529.669 57.2557 528.504 57.2557ZM542.641 57.2557C541.295 57.2557 540.136 56.983 539.164 56.4375C538.198 55.8864 537.454 55.108 536.931 54.1023C536.408 53.0909 536.147 51.8949 536.147 50.5142C536.147 49.1676 536.408 47.9858 536.931 46.9688C537.454 45.9517 538.19 45.1591 539.138 44.5909C540.093 44.0227 541.212 43.7386 542.496 43.7386C543.36 43.7386 544.164 43.8778 544.908 44.1562C545.658 44.429 546.312 44.8409 546.869 45.392C547.431 45.9432 547.869 46.6364 548.181 47.4716C548.494 48.3011 548.65 49.2727 548.65 50.3864V51.3835H537.596V49.1335H545.232C545.232 48.6108 545.119 48.1477 544.891 47.7443C544.664 47.3409 544.349 47.0256 543.945 46.7983C543.548 46.5653 543.085 46.4489 542.556 46.4489C542.005 46.4489 541.516 46.5767 541.09 46.8324C540.67 47.0824 540.34 47.4205 540.102 47.8466C539.863 48.267 539.741 48.7358 539.735 49.2528V51.392C539.735 52.0398 539.854 52.5994 540.093 53.071C540.337 53.5426 540.681 53.9062 541.124 54.1619C541.567 54.4176 542.093 54.5455 542.701 54.5455C543.104 54.5455 543.474 54.4886 543.809 54.375C544.144 54.2614 544.431 54.0909 544.67 53.8636C544.908 53.6364 545.09 53.358 545.215 53.0284L548.573 53.25C548.403 54.0568 548.053 54.7614 547.525 55.3636C547.002 55.9602 546.326 56.4261 545.496 56.7614C544.673 57.0909 543.721 57.2557 542.641 57.2557Z" fill="#FF7B9F"/>
<path d="M408.517 130.545H413.068L417.875 142.273H418.08L422.886 130.545H427.438V148H423.858V136.639H423.713L419.196 147.915H416.759L412.241 136.597H412.097V148H408.517V130.545ZM436.376 148.256C435.029 148.256 433.87 147.983 432.898 147.438C431.933 146.886 431.188 146.108 430.665 145.102C430.143 144.091 429.881 142.895 429.881 141.514C429.881 140.168 430.143 138.986 430.665 137.969C431.188 136.952 431.924 136.159 432.873 135.591C433.827 135.023 434.947 134.739 436.231 134.739C437.094 134.739 437.898 134.878 438.643 135.156C439.393 135.429 440.046 135.841 440.603 136.392C441.165 136.943 441.603 137.636 441.915 138.472C442.228 139.301 442.384 140.273 442.384 141.386V142.384H431.33V140.134H438.967C438.967 139.611 438.853 139.148 438.626 138.744C438.398 138.341 438.083 138.026 437.68 137.798C437.282 137.565 436.819 137.449 436.29 137.449C435.739 137.449 435.251 137.577 434.825 137.832C434.404 138.082 434.075 138.42 433.836 138.847C433.597 139.267 433.475 139.736 433.469 140.253V142.392C433.469 143.04 433.589 143.599 433.827 144.071C434.072 144.543 434.415 144.906 434.859 145.162C435.302 145.418 435.827 145.545 436.435 145.545C436.839 145.545 437.208 145.489 437.543 145.375C437.879 145.261 438.165 145.091 438.404 144.864C438.643 144.636 438.825 144.358 438.95 144.028L442.308 144.25C442.137 145.057 441.788 145.761 441.259 146.364C440.737 146.96 440.06 147.426 439.231 147.761C438.407 148.091 437.455 148.256 436.376 148.256ZM451.717 134.909V137.636H443.833V134.909H451.717ZM445.623 131.773H449.254V143.977C449.254 144.312 449.305 144.574 449.407 144.761C449.509 144.943 449.651 145.071 449.833 145.145C450.021 145.219 450.237 145.256 450.481 145.256C450.651 145.256 450.822 145.241 450.992 145.213C451.163 145.179 451.293 145.153 451.384 145.136L451.955 147.838C451.773 147.895 451.518 147.96 451.188 148.034C450.859 148.114 450.458 148.162 449.987 148.179C449.112 148.213 448.344 148.097 447.685 147.83C447.032 147.562 446.523 147.148 446.16 146.585C445.796 146.023 445.617 145.312 445.623 144.455V131.773ZM457.815 148.247C456.979 148.247 456.235 148.102 455.582 147.812C454.928 147.517 454.411 147.082 454.031 146.509C453.656 145.929 453.468 145.207 453.468 144.344C453.468 143.616 453.602 143.006 453.869 142.511C454.136 142.017 454.499 141.619 454.96 141.318C455.42 141.017 455.942 140.79 456.528 140.636C457.119 140.483 457.738 140.375 458.386 140.312C459.147 140.233 459.761 140.159 460.227 140.091C460.692 140.017 461.031 139.909 461.241 139.767C461.451 139.625 461.556 139.415 461.556 139.136V139.085C461.556 138.545 461.386 138.128 461.045 137.832C460.71 137.537 460.232 137.389 459.613 137.389C458.96 137.389 458.44 137.534 458.053 137.824C457.667 138.108 457.411 138.466 457.286 138.898L453.928 138.625C454.099 137.83 454.434 137.142 454.934 136.562C455.434 135.977 456.079 135.528 456.869 135.216C457.664 134.898 458.585 134.739 459.63 134.739C460.357 134.739 461.053 134.824 461.718 134.994C462.388 135.165 462.982 135.429 463.499 135.787C464.022 136.145 464.434 136.605 464.735 137.168C465.036 137.724 465.187 138.392 465.187 139.17V148H461.744V146.185H461.641C461.431 146.594 461.15 146.955 460.798 147.267C460.445 147.574 460.022 147.815 459.528 147.991C459.033 148.162 458.462 148.247 457.815 148.247ZM458.854 145.741C459.388 145.741 459.86 145.636 460.269 145.426C460.678 145.21 460.999 144.92 461.232 144.557C461.465 144.193 461.582 143.781 461.582 143.321V141.932C461.468 142.006 461.312 142.074 461.113 142.136C460.92 142.193 460.701 142.247 460.457 142.298C460.212 142.344 459.968 142.386 459.724 142.426C459.479 142.46 459.258 142.491 459.059 142.52C458.633 142.582 458.261 142.682 457.942 142.818C457.624 142.955 457.377 143.139 457.201 143.372C457.025 143.599 456.937 143.884 456.937 144.224C456.937 144.719 457.116 145.097 457.474 145.358C457.837 145.614 458.298 145.741 458.854 145.741ZM479.739 134.909L475.163 148H471.072L466.495 134.909H470.33L473.049 144.276H473.185L475.896 134.909H479.739ZM487.141 148.256C485.795 148.256 484.636 147.983 483.664 147.438C482.698 146.886 481.954 146.108 481.431 145.102C480.908 144.091 480.647 142.895 480.647 141.514C480.647 140.168 480.908 138.986 481.431 137.969C481.954 136.952 482.69 136.159 483.638 135.591C484.593 135.023 485.712 134.739 486.996 134.739C487.86 134.739 488.664 134.878 489.408 135.156C490.158 135.429 490.812 135.841 491.369 136.392C491.931 136.943 492.369 137.636 492.681 138.472C492.994 139.301 493.15 140.273 493.15 141.386V142.384H482.096V140.134H489.732C489.732 139.611 489.619 139.148 489.391 138.744C489.164 138.341 488.849 138.026 488.445 137.798C488.048 137.565 487.585 137.449 487.056 137.449C486.505 137.449 486.016 137.577 485.59 137.832C485.17 138.082 484.84 138.42 484.602 138.847C484.363 139.267 484.241 139.736 484.235 140.253V142.392C484.235 143.04 484.354 143.599 484.593 144.071C484.837 144.543 485.181 144.906 485.624 145.162C486.067 145.418 486.593 145.545 487.201 145.545C487.604 145.545 487.974 145.489 488.309 145.375C488.644 145.261 488.931 145.091 489.17 144.864C489.408 144.636 489.59 144.358 489.715 144.028L493.073 144.25C492.903 145.057 492.553 145.761 492.025 146.364C491.502 146.96 490.826 147.426 489.996 147.761C489.173 148.091 488.221 148.256 487.141 148.256ZM495.519 148V134.909H499.039V137.193H499.175C499.414 136.381 499.815 135.767 500.377 135.352C500.94 134.932 501.587 134.722 502.32 134.722C502.502 134.722 502.698 134.733 502.908 134.756C503.119 134.778 503.303 134.81 503.462 134.849V138.071C503.292 138.02 503.056 137.974 502.755 137.935C502.454 137.895 502.178 137.875 501.928 137.875C501.394 137.875 500.917 137.991 500.496 138.224C500.082 138.452 499.752 138.77 499.508 139.179C499.269 139.588 499.15 140.06 499.15 140.594V148H495.519ZM516.232 138.642L512.908 138.847C512.851 138.562 512.729 138.307 512.541 138.08C512.354 137.847 512.107 137.662 511.8 137.526C511.499 137.384 511.138 137.312 510.717 137.312C510.155 137.312 509.68 137.432 509.294 137.67C508.908 137.903 508.714 138.216 508.714 138.608C508.714 138.92 508.839 139.185 509.089 139.401C509.339 139.616 509.768 139.79 510.376 139.92L512.746 140.398C514.018 140.659 514.967 141.08 515.592 141.659C516.217 142.239 516.53 143 516.53 143.943C516.53 144.801 516.277 145.554 515.771 146.202C515.271 146.849 514.584 147.355 513.709 147.719C512.839 148.077 511.837 148.256 510.7 148.256C508.967 148.256 507.587 147.895 506.558 147.173C505.536 146.446 504.936 145.457 504.76 144.207L508.331 144.02C508.439 144.548 508.7 144.952 509.115 145.23C509.53 145.503 510.061 145.639 510.709 145.639C511.345 145.639 511.857 145.517 512.243 145.273C512.635 145.023 512.834 144.702 512.839 144.31C512.834 143.98 512.695 143.71 512.422 143.5C512.149 143.284 511.729 143.119 511.161 143.006L508.893 142.554C507.615 142.298 506.663 141.855 506.038 141.224C505.419 140.594 505.109 139.79 505.109 138.812C505.109 137.972 505.337 137.247 505.791 136.639C506.251 136.031 506.896 135.562 507.726 135.233C508.561 134.903 509.538 134.739 510.658 134.739C512.311 134.739 513.612 135.088 514.561 135.787C515.516 136.486 516.072 137.437 516.232 138.642ZM524.782 148.256C523.435 148.256 522.276 147.983 521.305 147.438C520.339 146.886 519.594 146.108 519.072 145.102C518.549 144.091 518.288 142.895 518.288 141.514C518.288 140.168 518.549 138.986 519.072 137.969C519.594 136.952 520.33 136.159 521.279 135.591C522.234 135.023 523.353 134.739 524.637 134.739C525.501 134.739 526.305 134.878 527.049 135.156C527.799 135.429 528.452 135.841 529.009 136.392C529.572 136.943 530.009 137.636 530.322 138.472C530.634 139.301 530.79 140.273 530.79 141.386V142.384H519.737V140.134H527.373C527.373 139.611 527.259 139.148 527.032 138.744C526.805 138.341 526.489 138.026 526.086 137.798C525.688 137.565 525.225 137.449 524.697 137.449C524.146 137.449 523.657 137.577 523.231 137.832C522.81 138.082 522.481 138.42 522.242 138.847C522.004 139.267 521.881 139.736 521.876 140.253V142.392C521.876 143.04 521.995 143.599 522.234 144.071C522.478 144.543 522.822 144.906 523.265 145.162C523.708 145.418 524.234 145.545 524.842 145.545C525.245 145.545 525.614 145.489 525.95 145.375C526.285 145.261 526.572 145.091 526.81 144.864C527.049 144.636 527.231 144.358 527.356 144.028L530.714 144.25C530.543 145.057 530.194 145.761 529.665 146.364C529.143 146.96 528.467 147.426 527.637 147.761C526.813 148.091 525.862 148.256 524.782 148.256ZM408.517 180V162.545H420.074V165.588H412.207V169.747H419.307V172.79H412.207V180H408.517ZM427.442 180.256C426.118 180.256 424.973 179.974 424.007 179.412C423.047 178.844 422.305 178.054 421.783 177.043C421.26 176.026 420.999 174.847 420.999 173.506C420.999 172.153 421.26 170.972 421.783 169.96C422.305 168.943 423.047 168.153 424.007 167.591C424.973 167.023 426.118 166.739 427.442 166.739C428.766 166.739 429.908 167.023 430.868 167.591C431.834 168.153 432.578 168.943 433.101 169.96C433.624 170.972 433.885 172.153 433.885 173.506C433.885 174.847 433.624 176.026 433.101 177.043C432.578 178.054 431.834 178.844 430.868 179.412C429.908 179.974 428.766 180.256 427.442 180.256ZM427.459 177.443C428.061 177.443 428.564 177.273 428.967 176.932C429.371 176.585 429.675 176.114 429.879 175.517C430.089 174.92 430.195 174.241 430.195 173.48C430.195 172.719 430.089 172.04 429.879 171.443C429.675 170.847 429.371 170.375 428.967 170.028C428.564 169.682 428.061 169.509 427.459 169.509C426.851 169.509 426.339 169.682 425.925 170.028C425.516 170.375 425.206 170.847 424.996 171.443C424.791 172.04 424.689 172.719 424.689 173.48C424.689 174.241 424.791 174.92 424.996 175.517C425.206 176.114 425.516 176.585 425.925 176.932C426.339 177.273 426.851 177.443 427.459 177.443ZM444.641 174.426V166.909H448.271V180H444.786V177.622H444.649C444.354 178.389 443.862 179.006 443.175 179.472C442.493 179.937 441.661 180.17 440.678 180.17C439.803 180.17 439.033 179.972 438.368 179.574C437.703 179.176 437.183 178.611 436.808 177.878C436.439 177.145 436.251 176.267 436.246 175.244V166.909H439.876V174.597C439.882 175.369 440.089 175.98 440.499 176.429C440.908 176.878 441.456 177.102 442.143 177.102C442.581 177.102 442.99 177.003 443.371 176.804C443.751 176.599 444.058 176.298 444.291 175.901C444.53 175.503 444.646 175.011 444.641 174.426ZM454.806 172.432V180H451.175V166.909H454.636V169.219H454.789C455.079 168.457 455.565 167.855 456.246 167.412C456.928 166.963 457.755 166.739 458.727 166.739C459.636 166.739 460.428 166.938 461.104 167.335C461.781 167.733 462.306 168.301 462.681 169.04C463.056 169.773 463.244 170.648 463.244 171.665V180H459.613V172.312C459.619 171.511 459.414 170.886 458.999 170.438C458.585 169.983 458.013 169.756 457.286 169.756C456.798 169.756 456.366 169.861 455.991 170.071C455.621 170.281 455.332 170.588 455.121 170.991C454.917 171.389 454.812 171.869 454.806 172.432ZM470.929 180.213C469.935 180.213 469.034 179.957 468.227 179.446C467.426 178.929 466.79 178.17 466.318 177.17C465.852 176.165 465.619 174.932 465.619 173.472C465.619 171.972 465.861 170.724 466.344 169.73C466.827 168.73 467.469 167.983 468.27 167.489C469.077 166.989 469.96 166.739 470.92 166.739C471.653 166.739 472.264 166.864 472.753 167.114C473.247 167.358 473.645 167.665 473.946 168.034C474.253 168.398 474.486 168.756 474.645 169.108H474.756V162.545H478.378V180H474.798V177.903H474.645C474.474 178.267 474.233 178.628 473.92 178.986C473.614 179.338 473.213 179.631 472.719 179.864C472.23 180.097 471.634 180.213 470.929 180.213ZM472.08 177.324C472.665 177.324 473.159 177.165 473.562 176.847C473.972 176.523 474.284 176.071 474.5 175.491C474.722 174.912 474.832 174.233 474.832 173.455C474.832 172.676 474.724 172 474.509 171.426C474.293 170.852 473.98 170.409 473.571 170.097C473.162 169.784 472.665 169.628 472.08 169.628C471.483 169.628 470.98 169.79 470.571 170.114C470.162 170.437 469.852 170.886 469.642 171.46C469.432 172.034 469.327 172.699 469.327 173.455C469.327 174.216 469.432 174.889 469.642 175.474C469.858 176.054 470.168 176.509 470.571 176.838C470.98 177.162 471.483 177.324 472.08 177.324ZM485.096 180.247C484.261 180.247 483.516 180.102 482.863 179.812C482.21 179.517 481.692 179.082 481.312 178.509C480.937 177.929 480.749 177.207 480.749 176.344C480.749 175.616 480.883 175.006 481.15 174.511C481.417 174.017 481.781 173.619 482.241 173.318C482.701 173.017 483.224 172.79 483.809 172.636C484.4 172.483 485.019 172.375 485.667 172.312C486.428 172.233 487.042 172.159 487.508 172.091C487.974 172.017 488.312 171.909 488.522 171.767C488.732 171.625 488.837 171.415 488.837 171.136V171.085C488.837 170.545 488.667 170.128 488.326 169.832C487.991 169.537 487.513 169.389 486.894 169.389C486.241 169.389 485.721 169.534 485.335 169.824C484.948 170.108 484.692 170.466 484.567 170.898L481.21 170.625C481.38 169.83 481.715 169.142 482.215 168.562C482.715 167.977 483.36 167.528 484.15 167.216C484.945 166.898 485.866 166.739 486.911 166.739C487.638 166.739 488.335 166.824 488.999 166.994C489.67 167.165 490.263 167.429 490.781 167.787C491.303 168.145 491.715 168.605 492.016 169.168C492.317 169.724 492.468 170.392 492.468 171.17V180H489.025V178.185H488.923C488.712 178.594 488.431 178.955 488.079 179.267C487.727 179.574 487.303 179.815 486.809 179.991C486.315 180.162 485.744 180.247 485.096 180.247ZM486.136 177.741C486.67 177.741 487.141 177.636 487.55 177.426C487.96 177.21 488.281 176.92 488.513 176.557C488.746 176.193 488.863 175.781 488.863 175.321V173.932C488.749 174.006 488.593 174.074 488.394 174.136C488.201 174.193 487.982 174.247 487.738 174.298C487.494 174.344 487.249 174.386 487.005 174.426C486.761 174.46 486.539 174.491 486.34 174.52C485.914 174.582 485.542 174.682 485.224 174.818C484.906 174.955 484.658 175.139 484.482 175.372C484.306 175.599 484.218 175.884 484.218 176.224C484.218 176.719 484.397 177.097 484.755 177.358C485.119 177.614 485.579 177.741 486.136 177.741ZM502.248 166.909V169.636H494.364V166.909H502.248ZM496.154 163.773H499.785V175.977C499.785 176.312 499.836 176.574 499.938 176.761C500.04 176.943 500.183 177.071 500.364 177.145C500.552 177.219 500.768 177.256 501.012 177.256C501.183 177.256 501.353 177.241 501.523 177.213C501.694 177.179 501.825 177.153 501.915 177.136L502.487 179.838C502.305 179.895 502.049 179.96 501.719 180.034C501.39 180.114 500.989 180.162 500.518 180.179C499.643 180.213 498.876 180.097 498.217 179.83C497.563 179.562 497.055 179.148 496.691 178.585C496.327 178.023 496.148 177.312 496.154 176.455V163.773ZM504.613 180V166.909H508.244V180H504.613ZM506.437 165.222C505.897 165.222 505.434 165.043 505.048 164.685C504.667 164.321 504.477 163.886 504.477 163.381C504.477 162.881 504.667 162.452 505.048 162.094C505.434 161.73 505.897 161.548 506.437 161.548C506.977 161.548 507.437 161.73 507.817 162.094C508.204 162.452 508.397 162.881 508.397 163.381C508.397 163.886 508.204 164.321 507.817 164.685C507.437 165.043 506.977 165.222 506.437 165.222ZM517.067 180.256C515.743 180.256 514.598 179.974 513.632 179.412C512.672 178.844 511.93 178.054 511.408 177.043C510.885 176.026 510.624 174.847 510.624 173.506C510.624 172.153 510.885 170.972 511.408 169.96C511.93 168.943 512.672 168.153 513.632 167.591C514.598 167.023 515.743 166.739 517.067 166.739C518.391 166.739 519.533 167.023 520.493 167.591C521.459 168.153 522.203 168.943 522.726 169.96C523.249 170.972 523.51 172.153 523.51 173.506C523.51 174.847 523.249 176.026 522.726 177.043C522.203 178.054 521.459 178.844 520.493 179.412C519.533 179.974 518.391 180.256 517.067 180.256ZM517.084 177.443C517.686 177.443 518.189 177.273 518.592 176.932C518.996 176.585 519.3 176.114 519.504 175.517C519.714 174.92 519.82 174.241 519.82 173.48C519.82 172.719 519.714 172.04 519.504 171.443C519.3 170.847 518.996 170.375 518.592 170.028C518.189 169.682 517.686 169.509 517.084 169.509C516.476 169.509 515.964 169.682 515.55 170.028C515.141 170.375 514.831 170.847 514.621 171.443C514.416 172.04 514.314 172.719 514.314 173.48C514.314 174.241 514.416 174.92 514.621 175.517C514.831 176.114 515.141 176.585 515.55 176.932C515.964 177.273 516.476 177.443 517.084 177.443ZM529.501 172.432V180H525.871V166.909H529.331V169.219H529.484C529.774 168.457 530.26 167.855 530.942 167.412C531.624 166.963 532.45 166.739 533.422 166.739C534.331 166.739 535.124 166.938 535.8 167.335C536.476 167.733 537.001 168.301 537.376 169.04C537.751 169.773 537.939 170.648 537.939 171.665V180H534.308V172.312C534.314 171.511 534.109 170.886 533.695 170.438C533.28 169.983 532.709 169.756 531.982 169.756C531.493 169.756 531.061 169.861 530.686 170.071C530.317 170.281 530.027 170.588 529.817 170.991C529.612 171.389 529.507 171.869 529.501 172.432ZM544.533 180.247C543.698 180.247 542.954 180.102 542.3 179.812C541.647 179.517 541.13 179.082 540.749 178.509C540.374 177.929 540.187 177.207 540.187 176.344C540.187 175.616 540.32 175.006 540.587 174.511C540.854 174.017 541.218 173.619 541.678 173.318C542.138 173.017 542.661 172.79 543.246 172.636C543.837 172.483 544.457 172.375 545.104 172.312C545.866 172.233 546.479 172.159 546.945 172.091C547.411 172.017 547.749 171.909 547.96 171.767C548.17 171.625 548.275 171.415 548.275 171.136V171.085C548.275 170.545 548.104 170.128 547.763 169.832C547.428 169.537 546.951 169.389 546.332 169.389C545.678 169.389 545.158 169.534 544.772 169.824C544.386 170.108 544.13 170.466 544.005 170.898L540.647 170.625C540.817 169.83 541.153 169.142 541.653 168.562C542.153 167.977 542.798 167.528 543.587 167.216C544.383 166.898 545.303 166.739 546.349 166.739C547.076 166.739 547.772 166.824 548.437 166.994C549.107 167.165 549.701 167.429 550.218 167.787C550.741 168.145 551.153 168.605 551.454 169.168C551.755 169.724 551.906 170.392 551.906 171.17V180H548.462V178.185H548.36C548.15 178.594 547.869 178.955 547.516 179.267C547.164 179.574 546.741 179.815 546.246 179.991C545.752 180.162 545.181 180.247 544.533 180.247ZM545.573 177.741C546.107 177.741 546.579 177.636 546.988 177.426C547.397 177.21 547.718 176.92 547.951 176.557C548.184 176.193 548.3 175.781 548.3 175.321V173.932C548.187 174.006 548.031 174.074 547.832 174.136C547.638 174.193 547.42 174.247 547.175 174.298C546.931 174.344 546.687 174.386 546.442 174.426C546.198 174.46 545.977 174.491 545.778 174.52C545.352 174.582 544.979 174.682 544.661 174.818C544.343 174.955 544.096 175.139 543.92 175.372C543.744 175.599 543.656 175.884 543.656 176.224C543.656 176.719 543.835 177.097 544.192 177.358C544.556 177.614 545.016 177.741 545.573 177.741ZM558.353 162.545V180H554.722V162.545H558.353ZM417.986 199.565C417.918 198.878 417.625 198.344 417.108 197.963C416.591 197.582 415.889 197.392 415.003 197.392C414.401 197.392 413.892 197.477 413.477 197.648C413.063 197.812 412.744 198.043 412.523 198.338C412.307 198.634 412.199 198.969 412.199 199.344C412.188 199.656 412.253 199.929 412.395 200.162C412.543 200.395 412.744 200.597 413 200.767C413.256 200.932 413.551 201.077 413.886 201.202C414.222 201.321 414.58 201.423 414.96 201.509L416.528 201.884C417.29 202.054 417.989 202.281 418.625 202.565C419.261 202.849 419.813 203.199 420.278 203.614C420.744 204.028 421.105 204.517 421.361 205.08C421.622 205.642 421.756 206.287 421.761 207.014C421.756 208.082 421.483 209.009 420.943 209.793C420.409 210.571 419.636 211.176 418.625 211.608C417.619 212.034 416.406 212.247 414.986 212.247C413.577 212.247 412.349 212.031 411.304 211.599C410.264 211.168 409.452 210.528 408.866 209.682C408.287 208.83 407.983 207.776 407.955 206.52H411.526C411.565 207.105 411.733 207.594 412.028 207.986C412.33 208.372 412.73 208.665 413.23 208.864C413.736 209.057 414.307 209.153 414.943 209.153C415.568 209.153 416.111 209.062 416.571 208.881C417.037 208.699 417.398 208.446 417.653 208.122C417.909 207.798 418.037 207.426 418.037 207.006C418.037 206.614 417.92 206.284 417.688 206.017C417.46 205.75 417.125 205.523 416.682 205.335C416.244 205.148 415.707 204.977 415.071 204.824L413.17 204.347C411.699 203.989 410.537 203.429 409.685 202.668C408.832 201.906 408.409 200.881 408.415 199.591C408.409 198.534 408.69 197.611 409.259 196.821C409.832 196.031 410.619 195.415 411.619 194.972C412.619 194.528 413.756 194.307 415.028 194.307C416.324 194.307 417.455 194.528 418.42 194.972C419.392 195.415 420.148 196.031 420.688 196.821C421.227 197.611 421.506 198.526 421.523 199.565H417.986ZM432.57 206.426V198.909H436.201V212H432.715V209.622H432.579C432.283 210.389 431.792 211.006 431.104 211.472C430.423 211.937 429.59 212.17 428.607 212.17C427.732 212.17 426.962 211.972 426.298 211.574C425.633 211.176 425.113 210.611 424.738 209.878C424.369 209.145 424.181 208.267 424.175 207.244V198.909H427.806V206.597C427.812 207.369 428.019 207.98 428.428 208.429C428.837 208.878 429.386 209.102 430.073 209.102C430.511 209.102 430.92 209.003 431.3 208.804C431.681 208.599 431.988 208.298 432.221 207.901C432.46 207.503 432.576 207.011 432.57 206.426ZM439.105 216.909V198.909H442.685V201.108H442.847C443.006 200.756 443.236 200.398 443.537 200.034C443.844 199.665 444.241 199.358 444.73 199.114C445.224 198.864 445.838 198.739 446.571 198.739C447.526 198.739 448.406 198.989 449.213 199.489C450.02 199.983 450.665 200.73 451.148 201.73C451.631 202.724 451.872 203.972 451.872 205.472C451.872 206.932 451.636 208.165 451.165 209.17C450.699 210.17 450.063 210.929 449.256 211.446C448.455 211.957 447.557 212.213 446.562 212.213C445.858 212.213 445.259 212.097 444.764 211.864C444.276 211.631 443.875 211.338 443.562 210.986C443.25 210.628 443.011 210.267 442.847 209.903H442.736V216.909H439.105ZM442.659 205.455C442.659 206.233 442.767 206.912 442.983 207.491C443.199 208.071 443.511 208.523 443.92 208.847C444.33 209.165 444.827 209.324 445.412 209.324C446.003 209.324 446.503 209.162 446.912 208.838C447.321 208.509 447.631 208.054 447.841 207.474C448.057 206.889 448.165 206.216 448.165 205.455C448.165 204.699 448.06 204.034 447.849 203.46C447.639 202.886 447.33 202.437 446.92 202.114C446.511 201.79 446.009 201.628 445.412 201.628C444.821 201.628 444.321 201.784 443.912 202.097C443.509 202.409 443.199 202.852 442.983 203.426C442.767 204 442.659 204.676 442.659 205.455ZM454.293 216.909V198.909H457.872V201.108H458.034C458.193 200.756 458.423 200.398 458.724 200.034C459.031 199.665 459.429 199.358 459.918 199.114C460.412 198.864 461.026 198.739 461.759 198.739C462.713 198.739 463.594 198.989 464.401 199.489C465.207 199.983 465.852 200.73 466.335 201.73C466.818 202.724 467.06 203.972 467.06 205.472C467.06 206.932 466.824 208.165 466.352 209.17C465.886 210.17 465.25 210.929 464.443 211.446C463.642 211.957 462.744 212.213 461.75 212.213C461.045 212.213 460.446 212.097 459.952 211.864C459.463 211.631 459.062 211.338 458.75 210.986C458.438 210.628 458.199 210.267 458.034 209.903H457.923V216.909H454.293ZM457.847 205.455C457.847 206.233 457.955 206.912 458.17 207.491C458.386 208.071 458.699 208.523 459.108 208.847C459.517 209.165 460.014 209.324 460.599 209.324C461.19 209.324 461.69 209.162 462.099 208.838C462.509 208.509 462.818 208.054 463.028 207.474C463.244 206.889 463.352 206.216 463.352 205.455C463.352 204.699 463.247 204.034 463.037 203.46C462.827 202.886 462.517 202.437 462.108 202.114C461.699 201.79 461.196 201.628 460.599 201.628C460.009 201.628 459.509 201.784 459.099 202.097C458.696 202.409 458.386 202.852 458.17 203.426C457.955 204 457.847 204.676 457.847 205.455ZM475.395 212.256C474.071 212.256 472.926 211.974 471.96 211.412C471 210.844 470.259 210.054 469.736 209.043C469.213 208.026 468.952 206.847 468.952 205.506C468.952 204.153 469.213 202.972 469.736 201.96C470.259 200.943 471 200.153 471.96 199.591C472.926 199.023 474.071 198.739 475.395 198.739C476.719 198.739 477.861 199.023 478.821 199.591C479.787 200.153 480.531 200.943 481.054 201.96C481.577 202.972 481.838 204.153 481.838 205.506C481.838 206.847 481.577 208.026 481.054 209.043C480.531 210.054 479.787 210.844 478.821 211.412C477.861 211.974 476.719 212.256 475.395 212.256ZM475.412 209.443C476.014 209.443 476.517 209.273 476.92 208.932C477.324 208.585 477.628 208.114 477.832 207.517C478.043 206.92 478.148 206.241 478.148 205.48C478.148 204.719 478.043 204.04 477.832 203.443C477.628 202.847 477.324 202.375 476.92 202.028C476.517 201.682 476.014 201.509 475.412 201.509C474.804 201.509 474.293 201.682 473.878 202.028C473.469 202.375 473.159 202.847 472.949 203.443C472.744 204.04 472.642 204.719 472.642 205.48C472.642 206.241 472.744 206.92 472.949 207.517C473.159 208.114 473.469 208.585 473.878 208.932C474.293 209.273 474.804 209.443 475.412 209.443ZM484.199 212V198.909H487.719V201.193H487.855C488.094 200.381 488.494 199.767 489.057 199.352C489.619 198.932 490.267 198.722 491 198.722C491.182 198.722 491.378 198.733 491.588 198.756C491.798 198.778 491.983 198.81 492.142 198.849V202.071C491.972 202.02 491.736 201.974 491.435 201.935C491.134 201.895 490.858 201.875 490.608 201.875C490.074 201.875 489.597 201.991 489.176 202.224C488.761 202.452 488.432 202.77 488.188 203.179C487.949 203.588 487.83 204.06 487.83 204.594V212H484.199ZM501.638 198.909V201.636H493.755V198.909H501.638ZM495.545 195.773H499.175V207.977C499.175 208.312 499.227 208.574 499.329 208.761C499.431 208.943 499.573 209.071 499.755 209.145C499.942 209.219 500.158 209.256 500.403 209.256C500.573 209.256 500.744 209.241 500.914 209.213C501.085 209.179 501.215 209.153 501.306 209.136L501.877 211.838C501.695 211.895 501.44 211.96 501.11 212.034C500.781 212.114 500.38 212.162 499.908 212.179C499.033 212.213 498.266 212.097 497.607 211.83C496.954 211.562 496.445 211.148 496.082 210.585C495.718 210.023 495.539 209.312 495.545 208.455V195.773Z" fill="#FF7B9F"/>
<path d="M423.918 274.656H420.185C420.116 274.173 419.977 273.744 419.767 273.369C419.557 272.989 419.287 272.665 418.957 272.398C418.628 272.131 418.247 271.926 417.815 271.784C417.389 271.642 416.926 271.571 416.426 271.571C415.523 271.571 414.736 271.795 414.065 272.244C413.395 272.687 412.875 273.335 412.506 274.188C412.136 275.034 411.952 276.062 411.952 277.273C411.952 278.517 412.136 279.562 412.506 280.409C412.881 281.256 413.403 281.895 414.074 282.327C414.744 282.759 415.52 282.974 416.401 282.974C416.895 282.974 417.352 282.909 417.773 282.778C418.199 282.648 418.577 282.457 418.906 282.207C419.236 281.952 419.509 281.642 419.724 281.278C419.946 280.915 420.099 280.5 420.185 280.034L423.918 280.051C423.821 280.852 423.58 281.625 423.193 282.369C422.813 283.108 422.298 283.77 421.651 284.355C421.009 284.935 420.241 285.395 419.349 285.736C418.463 286.071 417.46 286.239 416.341 286.239C414.784 286.239 413.392 285.886 412.165 285.182C410.943 284.477 409.977 283.457 409.267 282.122C408.562 280.787 408.21 279.17 408.21 277.273C408.21 275.369 408.568 273.75 409.284 272.415C410 271.08 410.972 270.062 412.199 269.364C413.426 268.659 414.807 268.307 416.341 268.307C417.352 268.307 418.29 268.449 419.153 268.733C420.023 269.017 420.793 269.432 421.463 269.977C422.134 270.517 422.679 271.179 423.099 271.963C423.526 272.747 423.798 273.645 423.918 274.656ZM426.496 286V272.909H430.016V275.193H430.152C430.391 274.381 430.791 273.767 431.354 273.352C431.916 272.932 432.564 272.722 433.297 272.722C433.479 272.722 433.675 272.733 433.885 272.756C434.095 272.778 434.28 272.81 434.439 272.849V276.071C434.268 276.02 434.033 275.974 433.732 275.935C433.43 275.895 433.155 275.875 432.905 275.875C432.371 275.875 431.893 275.991 431.473 276.224C431.058 276.452 430.729 276.77 430.484 277.179C430.246 277.588 430.126 278.06 430.126 278.594V286H426.496ZM441.621 286.256C440.298 286.256 439.153 285.974 438.187 285.412C437.227 284.844 436.485 284.054 435.962 283.043C435.44 282.026 435.178 280.847 435.178 279.506C435.178 278.153 435.44 276.972 435.962 275.96C436.485 274.943 437.227 274.153 438.187 273.591C439.153 273.023 440.298 272.739 441.621 272.739C442.945 272.739 444.087 273.023 445.048 273.591C446.013 274.153 446.758 274.943 447.281 275.96C447.803 276.972 448.065 278.153 448.065 279.506C448.065 280.847 447.803 282.026 447.281 283.043C446.758 284.054 446.013 284.844 445.048 285.412C444.087 285.974 442.945 286.256 441.621 286.256ZM441.638 283.443C442.241 283.443 442.744 283.273 443.147 282.932C443.55 282.585 443.854 282.114 444.059 281.517C444.269 280.92 444.374 280.241 444.374 279.48C444.374 278.719 444.269 278.04 444.059 277.443C443.854 276.847 443.55 276.375 443.147 276.028C442.744 275.682 442.241 275.509 441.638 275.509C441.031 275.509 440.519 275.682 440.104 276.028C439.695 276.375 439.386 276.847 439.175 277.443C438.971 278.04 438.869 278.719 438.869 279.48C438.869 280.241 438.971 280.92 439.175 281.517C439.386 282.114 439.695 282.585 440.104 282.932C440.519 283.273 441.031 283.443 441.638 283.443ZM461.317 276.642L457.994 276.847C457.937 276.562 457.815 276.307 457.627 276.08C457.44 275.847 457.192 275.662 456.886 275.526C456.585 275.384 456.224 275.312 455.803 275.312C455.241 275.312 454.766 275.432 454.38 275.67C453.994 275.903 453.8 276.216 453.8 276.608C453.8 276.92 453.925 277.185 454.175 277.401C454.425 277.616 454.854 277.79 455.462 277.92L457.832 278.398C459.104 278.659 460.053 279.08 460.678 279.659C461.303 280.239 461.616 281 461.616 281.943C461.616 282.801 461.363 283.554 460.857 284.202C460.357 284.849 459.67 285.355 458.795 285.719C457.925 286.077 456.923 286.256 455.786 286.256C454.053 286.256 452.673 285.895 451.644 285.173C450.621 284.446 450.022 283.457 449.846 282.207L453.417 282.02C453.525 282.548 453.786 282.952 454.201 283.23C454.616 283.503 455.147 283.639 455.795 283.639C456.431 283.639 456.942 283.517 457.329 283.273C457.721 283.023 457.92 282.702 457.925 282.31C457.92 281.98 457.781 281.71 457.508 281.5C457.235 281.284 456.815 281.119 456.246 281.006L453.979 280.554C452.701 280.298 451.749 279.855 451.124 279.224C450.505 278.594 450.195 277.79 450.195 276.812C450.195 275.972 450.423 275.247 450.877 274.639C451.337 274.031 451.982 273.562 452.812 273.233C453.647 272.903 454.624 272.739 455.744 272.739C457.397 272.739 458.698 273.088 459.647 273.787C460.602 274.486 461.158 275.437 461.317 276.642ZM474.794 276.642L471.47 276.847C471.413 276.562 471.291 276.307 471.104 276.08C470.916 275.847 470.669 275.662 470.362 275.526C470.061 275.384 469.7 275.312 469.28 275.312C468.717 275.312 468.243 275.432 467.857 275.67C467.47 275.903 467.277 276.216 467.277 276.608C467.277 276.92 467.402 277.185 467.652 277.401C467.902 277.616 468.331 277.79 468.939 277.92L471.308 278.398C472.581 278.659 473.53 279.08 474.155 279.659C474.78 280.239 475.092 281 475.092 281.943C475.092 282.801 474.839 283.554 474.334 284.202C473.834 284.849 473.146 285.355 472.271 285.719C471.402 286.077 470.399 286.256 469.263 286.256C467.53 286.256 466.149 285.895 465.121 285.173C464.098 284.446 463.499 283.457 463.322 282.207L466.893 282.02C467.001 282.548 467.263 282.952 467.678 283.23C468.092 283.503 468.624 283.639 469.271 283.639C469.908 283.639 470.419 283.517 470.805 283.273C471.197 283.023 471.396 282.702 471.402 282.31C471.396 281.98 471.257 281.71 470.984 281.5C470.712 281.284 470.291 281.119 469.723 281.006L467.456 280.554C466.178 280.298 465.226 279.855 464.601 279.224C463.982 278.594 463.672 277.79 463.672 276.812C463.672 275.972 463.899 275.247 464.354 274.639C464.814 274.031 465.459 273.562 466.288 273.233C467.124 272.903 468.101 272.739 469.22 272.739C470.874 272.739 472.175 273.088 473.124 273.787C474.078 274.486 474.635 275.437 474.794 276.642ZM485.535 277.392V280.273H477.575V277.392H485.535ZM494.543 286.256C493.202 286.256 492.049 285.972 491.083 285.403C490.123 284.83 489.384 284.034 488.867 283.017C488.356 282 488.1 280.83 488.1 279.506C488.1 278.165 488.359 276.989 488.876 275.977C489.398 274.96 490.14 274.168 491.1 273.599C492.06 273.026 493.202 272.739 494.526 272.739C495.668 272.739 496.668 272.946 497.526 273.361C498.384 273.776 499.063 274.358 499.563 275.108C500.063 275.858 500.339 276.739 500.39 277.75H496.964C496.867 277.097 496.612 276.571 496.197 276.173C495.788 275.77 495.251 275.568 494.586 275.568C494.023 275.568 493.532 275.722 493.112 276.028C492.697 276.33 492.373 276.77 492.14 277.349C491.907 277.929 491.79 278.631 491.79 279.455C491.79 280.29 491.904 281 492.131 281.585C492.364 282.17 492.691 282.616 493.112 282.923C493.532 283.23 494.023 283.384 494.586 283.384C495.001 283.384 495.373 283.298 495.702 283.128C496.038 282.957 496.313 282.71 496.529 282.386C496.751 282.057 496.896 281.662 496.964 281.202H500.39C500.333 282.202 500.06 283.082 499.572 283.844C499.089 284.599 498.421 285.19 497.569 285.616C496.717 286.043 495.708 286.256 494.543 286.256ZM506.345 278.432V286H502.714V268.545H506.243V275.219H506.396C506.692 274.446 507.169 273.841 507.828 273.403C508.487 272.96 509.314 272.739 510.308 272.739C511.217 272.739 512.01 272.938 512.686 273.335C513.368 273.727 513.896 274.293 514.271 275.031C514.652 275.764 514.839 276.642 514.834 277.665V286H511.203V278.312C511.209 277.506 511.004 276.878 510.589 276.429C510.18 275.98 509.607 275.756 508.868 275.756C508.374 275.756 507.936 275.861 507.555 276.071C507.18 276.281 506.885 276.588 506.669 276.991C506.459 277.389 506.351 277.869 506.345 278.432ZM521.424 286.247C520.589 286.247 519.844 286.102 519.191 285.812C518.538 285.517 518.021 285.082 517.64 284.509C517.265 283.929 517.077 283.207 517.077 282.344C517.077 281.616 517.211 281.006 517.478 280.511C517.745 280.017 518.109 279.619 518.569 279.318C519.029 279.017 519.552 278.79 520.137 278.636C520.728 278.483 521.347 278.375 521.995 278.312C522.756 278.233 523.37 278.159 523.836 278.091C524.302 278.017 524.64 277.909 524.85 277.767C525.06 277.625 525.165 277.415 525.165 277.136V277.085C525.165 276.545 524.995 276.128 524.654 275.832C524.319 275.537 523.842 275.389 523.222 275.389C522.569 275.389 522.049 275.534 521.663 275.824C521.276 276.108 521.021 276.466 520.896 276.898L517.538 276.625C517.708 275.83 518.043 275.142 518.543 274.562C519.043 273.977 519.688 273.528 520.478 273.216C521.273 272.898 522.194 272.739 523.239 272.739C523.967 272.739 524.663 272.824 525.327 272.994C525.998 273.165 526.592 273.429 527.109 273.787C527.631 274.145 528.043 274.605 528.344 275.168C528.646 275.724 528.796 276.392 528.796 277.17V286H525.353V284.185H525.251C525.04 284.594 524.759 284.955 524.407 285.267C524.055 285.574 523.631 285.815 523.137 285.991C522.643 286.162 522.072 286.247 521.424 286.247ZM522.464 283.741C522.998 283.741 523.469 283.636 523.879 283.426C524.288 283.21 524.609 282.92 524.842 282.557C525.075 282.193 525.191 281.781 525.191 281.321V279.932C525.077 280.006 524.921 280.074 524.722 280.136C524.529 280.193 524.31 280.247 524.066 280.298C523.822 280.344 523.577 280.386 523.333 280.426C523.089 280.46 522.867 280.491 522.668 280.52C522.242 280.582 521.87 280.682 521.552 280.818C521.234 280.955 520.987 281.139 520.81 281.372C520.634 281.599 520.546 281.884 520.546 282.224C520.546 282.719 520.725 283.097 521.083 283.358C521.447 283.614 521.907 283.741 522.464 283.741ZM531.613 286V272.909H535.244V286H531.613ZM533.437 271.222C532.897 271.222 532.434 271.043 532.048 270.685C531.667 270.321 531.477 269.886 531.477 269.381C531.477 268.881 531.667 268.452 532.048 268.094C532.434 267.73 532.897 267.548 533.437 267.548C533.977 267.548 534.437 267.73 534.817 268.094C535.204 268.452 535.397 268.881 535.397 269.381C535.397 269.886 535.204 270.321 534.817 270.685C534.437 271.043 533.977 271.222 533.437 271.222ZM541.783 278.432V286H538.152V272.909H541.612V275.219H541.766C542.055 274.457 542.541 273.855 543.223 273.412C543.905 272.963 544.732 272.739 545.703 272.739C546.612 272.739 547.405 272.938 548.081 273.335C548.757 273.733 549.283 274.301 549.658 275.04C550.033 275.773 550.22 276.648 550.22 277.665V286H546.589V278.312C546.595 277.511 546.391 276.886 545.976 276.438C545.561 275.983 544.99 275.756 544.263 275.756C543.774 275.756 543.342 275.861 542.967 276.071C542.598 276.281 542.308 276.588 542.098 276.991C541.893 277.389 541.788 277.869 541.783 278.432ZM408.517 318V300.545H420.074V303.588H412.207V307.747H419.307V310.79H412.207V318H408.517ZM427.442 318.256C426.118 318.256 424.973 317.974 424.007 317.412C423.047 316.844 422.305 316.054 421.783 315.043C421.26 314.026 420.999 312.847 420.999 311.506C420.999 310.153 421.26 308.972 421.783 307.96C422.305 306.943 423.047 306.153 424.007 305.591C424.973 305.023 426.118 304.739 427.442 304.739C428.766 304.739 429.908 305.023 430.868 305.591C431.834 306.153 432.578 306.943 433.101 307.96C433.624 308.972 433.885 310.153 433.885 311.506C433.885 312.847 433.624 314.026 433.101 315.043C432.578 316.054 431.834 316.844 430.868 317.412C429.908 317.974 428.766 318.256 427.442 318.256ZM427.459 315.443C428.061 315.443 428.564 315.273 428.967 314.932C429.371 314.585 429.675 314.114 429.879 313.517C430.089 312.92 430.195 312.241 430.195 311.48C430.195 310.719 430.089 310.04 429.879 309.443C429.675 308.847 429.371 308.375 428.967 308.028C428.564 307.682 428.061 307.509 427.459 307.509C426.851 307.509 426.339 307.682 425.925 308.028C425.516 308.375 425.206 308.847 424.996 309.443C424.791 310.04 424.689 310.719 424.689 311.48C424.689 312.241 424.791 312.92 424.996 313.517C425.206 314.114 425.516 314.585 425.925 314.932C426.339 315.273 426.851 315.443 427.459 315.443ZM444.641 312.426V304.909H448.271V318H444.786V315.622H444.649C444.354 316.389 443.862 317.006 443.175 317.472C442.493 317.937 441.661 318.17 440.678 318.17C439.803 318.17 439.033 317.972 438.368 317.574C437.703 317.176 437.183 316.611 436.808 315.878C436.439 315.145 436.251 314.267 436.246 313.244V304.909H439.876V312.597C439.882 313.369 440.089 313.98 440.499 314.429C440.908 314.878 441.456 315.102 442.143 315.102C442.581 315.102 442.99 315.003 443.371 314.804C443.751 314.599 444.058 314.298 444.291 313.901C444.53 313.503 444.646 313.011 444.641 312.426ZM454.806 310.432V318H451.175V304.909H454.636V307.219H454.789C455.079 306.457 455.565 305.855 456.246 305.412C456.928 304.963 457.755 304.739 458.727 304.739C459.636 304.739 460.428 304.938 461.104 305.335C461.781 305.733 462.306 306.301 462.681 307.04C463.056 307.773 463.244 308.648 463.244 309.665V318H459.613V310.312C459.619 309.511 459.414 308.886 458.999 308.438C458.585 307.983 458.013 307.756 457.286 307.756C456.798 307.756 456.366 307.861 455.991 308.071C455.621 308.281 455.332 308.588 455.121 308.991C454.917 309.389 454.812 309.869 454.806 310.432ZM470.929 318.213C469.935 318.213 469.034 317.957 468.227 317.446C467.426 316.929 466.79 316.17 466.318 315.17C465.852 314.165 465.619 312.932 465.619 311.472C465.619 309.972 465.861 308.724 466.344 307.73C466.827 306.73 467.469 305.983 468.27 305.489C469.077 304.989 469.96 304.739 470.92 304.739C471.653 304.739 472.264 304.864 472.753 305.114C473.247 305.358 473.645 305.665 473.946 306.034C474.253 306.398 474.486 306.756 474.645 307.108H474.756V300.545H478.378V318H474.798V315.903H474.645C474.474 316.267 474.233 316.628 473.92 316.986C473.614 317.338 473.213 317.631 472.719 317.864C472.23 318.097 471.634 318.213 470.929 318.213ZM472.08 315.324C472.665 315.324 473.159 315.165 473.562 314.847C473.972 314.523 474.284 314.071 474.5 313.491C474.722 312.912 474.832 312.233 474.832 311.455C474.832 310.676 474.724 310 474.509 309.426C474.293 308.852 473.98 308.409 473.571 308.097C473.162 307.784 472.665 307.628 472.08 307.628C471.483 307.628 470.98 307.79 470.571 308.114C470.162 308.437 469.852 308.886 469.642 309.46C469.432 310.034 469.327 310.699 469.327 311.455C469.327 312.216 469.432 312.889 469.642 313.474C469.858 314.054 470.168 314.509 470.571 314.838C470.98 315.162 471.483 315.324 472.08 315.324ZM485.096 318.247C484.261 318.247 483.516 318.102 482.863 317.812C482.21 317.517 481.692 317.082 481.312 316.509C480.937 315.929 480.749 315.207 480.749 314.344C480.749 313.616 480.883 313.006 481.15 312.511C481.417 312.017 481.781 311.619 482.241 311.318C482.701 311.017 483.224 310.79 483.809 310.636C484.4 310.483 485.019 310.375 485.667 310.312C486.428 310.233 487.042 310.159 487.508 310.091C487.974 310.017 488.312 309.909 488.522 309.767C488.732 309.625 488.837 309.415 488.837 309.136V309.085C488.837 308.545 488.667 308.128 488.326 307.832C487.991 307.537 487.513 307.389 486.894 307.389C486.241 307.389 485.721 307.534 485.335 307.824C484.948 308.108 484.692 308.466 484.567 308.898L481.21 308.625C481.38 307.83 481.715 307.142 482.215 306.562C482.715 305.977 483.36 305.528 484.15 305.216C484.945 304.898 485.866 304.739 486.911 304.739C487.638 304.739 488.335 304.824 488.999 304.994C489.67 305.165 490.263 305.429 490.781 305.787C491.303 306.145 491.715 306.605 492.016 307.168C492.317 307.724 492.468 308.392 492.468 309.17V318H489.025V316.185H488.923C488.712 316.594 488.431 316.955 488.079 317.267C487.727 317.574 487.303 317.815 486.809 317.991C486.315 318.162 485.744 318.247 485.096 318.247ZM486.136 315.741C486.67 315.741 487.141 315.636 487.55 315.426C487.96 315.21 488.281 314.92 488.513 314.557C488.746 314.193 488.863 313.781 488.863 313.321V311.932C488.749 312.006 488.593 312.074 488.394 312.136C488.201 312.193 487.982 312.247 487.738 312.298C487.494 312.344 487.249 312.386 487.005 312.426C486.761 312.46 486.539 312.491 486.34 312.52C485.914 312.582 485.542 312.682 485.224 312.818C484.906 312.955 484.658 313.139 484.482 313.372C484.306 313.599 484.218 313.884 484.218 314.224C484.218 314.719 484.397 315.097 484.755 315.358C485.119 315.614 485.579 315.741 486.136 315.741ZM502.248 304.909V307.636H494.364V304.909H502.248ZM496.154 301.773H499.785V313.977C499.785 314.312 499.836 314.574 499.938 314.761C500.04 314.943 500.183 315.071 500.364 315.145C500.552 315.219 500.768 315.256 501.012 315.256C501.183 315.256 501.353 315.241 501.523 315.213C501.694 315.179 501.825 315.153 501.915 315.136L502.487 317.838C502.305 317.895 502.049 317.96 501.719 318.034C501.39 318.114 500.989 318.162 500.518 318.179C499.643 318.213 498.876 318.097 498.217 317.83C497.563 317.562 497.055 317.148 496.691 316.585C496.327 316.023 496.148 315.312 496.154 314.455V301.773ZM504.613 318V304.909H508.244V318H504.613ZM506.437 303.222C505.897 303.222 505.434 303.043 505.048 302.685C504.667 302.321 504.477 301.886 504.477 301.381C504.477 300.881 504.667 300.452 505.048 300.094C505.434 299.73 505.897 299.548 506.437 299.548C506.977 299.548 507.437 299.73 507.817 300.094C508.204 300.452 508.397 300.881 508.397 301.381C508.397 301.886 508.204 302.321 507.817 302.685C507.437 303.043 506.977 303.222 506.437 303.222ZM517.067 318.256C515.743 318.256 514.598 317.974 513.632 317.412C512.672 316.844 511.93 316.054 511.408 315.043C510.885 314.026 510.624 312.847 510.624 311.506C510.624 310.153 510.885 308.972 511.408 307.96C511.93 306.943 512.672 306.153 513.632 305.591C514.598 305.023 515.743 304.739 517.067 304.739C518.391 304.739 519.533 305.023 520.493 305.591C521.459 306.153 522.203 306.943 522.726 307.96C523.249 308.972 523.51 310.153 523.51 311.506C523.51 312.847 523.249 314.026 522.726 315.043C522.203 316.054 521.459 316.844 520.493 317.412C519.533 317.974 518.391 318.256 517.067 318.256ZM517.084 315.443C517.686 315.443 518.189 315.273 518.592 314.932C518.996 314.585 519.3 314.114 519.504 313.517C519.714 312.92 519.82 312.241 519.82 311.48C519.82 310.719 519.714 310.04 519.504 309.443C519.3 308.847 518.996 308.375 518.592 308.028C518.189 307.682 517.686 307.509 517.084 307.509C516.476 307.509 515.964 307.682 515.55 308.028C515.141 308.375 514.831 308.847 514.621 309.443C514.416 310.04 514.314 310.719 514.314 311.48C514.314 312.241 514.416 312.92 514.621 313.517C514.831 314.114 515.141 314.585 515.55 314.932C515.964 315.273 516.476 315.443 517.084 315.443ZM529.501 310.432V318H525.871V304.909H529.331V307.219H529.484C529.774 306.457 530.26 305.855 530.942 305.412C531.624 304.963 532.45 304.739 533.422 304.739C534.331 304.739 535.124 304.938 535.8 305.335C536.476 305.733 537.001 306.301 537.376 307.04C537.751 307.773 537.939 308.648 537.939 309.665V318H534.308V310.312C534.314 309.511 534.109 308.886 533.695 308.438C533.28 307.983 532.709 307.756 531.982 307.756C531.493 307.756 531.061 307.861 530.686 308.071C530.317 308.281 530.027 308.588 529.817 308.991C529.612 309.389 529.507 309.869 529.501 310.432ZM544.533 318.247C543.698 318.247 542.954 318.102 542.3 317.812C541.647 317.517 541.13 317.082 540.749 316.509C540.374 315.929 540.187 315.207 540.187 314.344C540.187 313.616 540.32 313.006 540.587 312.511C540.854 312.017 541.218 311.619 541.678 311.318C542.138 311.017 542.661 310.79 543.246 310.636C543.837 310.483 544.457 310.375 545.104 310.312C545.866 310.233 546.479 310.159 546.945 310.091C547.411 310.017 547.749 309.909 547.96 309.767C548.17 309.625 548.275 309.415 548.275 309.136V309.085C548.275 308.545 548.104 308.128 547.763 307.832C547.428 307.537 546.951 307.389 546.332 307.389C545.678 307.389 545.158 307.534 544.772 307.824C544.386 308.108 544.13 308.466 544.005 308.898L540.647 308.625C540.817 307.83 541.153 307.142 541.653 306.562C542.153 305.977 542.798 305.528 543.587 305.216C544.383 304.898 545.303 304.739 546.349 304.739C547.076 304.739 547.772 304.824 548.437 304.994C549.107 305.165 549.701 305.429 550.218 305.787C550.741 306.145 551.153 306.605 551.454 307.168C551.755 307.724 551.906 308.392 551.906 309.17V318H548.462V316.185H548.36C548.15 316.594 547.869 316.955 547.516 317.267C547.164 317.574 546.741 317.815 546.246 317.991C545.752 318.162 545.181 318.247 544.533 318.247ZM545.573 315.741C546.107 315.741 546.579 315.636 546.988 315.426C547.397 315.21 547.718 314.92 547.951 314.557C548.184 314.193 548.3 313.781 548.3 313.321V311.932C548.187 312.006 548.031 312.074 547.832 312.136C547.638 312.193 547.42 312.247 547.175 312.298C546.931 312.344 546.687 312.386 546.442 312.426C546.198 312.46 545.977 312.491 545.778 312.52C545.352 312.582 544.979 312.682 544.661 312.818C544.343 312.955 544.096 313.139 543.92 313.372C543.744 313.599 543.656 313.884 543.656 314.224C543.656 314.719 543.835 315.097 544.192 315.358C544.556 315.614 545.016 315.741 545.573 315.741ZM558.353 300.545V318H554.722V300.545H558.353ZM417.986 337.565C417.918 336.878 417.625 336.344 417.108 335.963C416.591 335.582 415.889 335.392 415.003 335.392C414.401 335.392 413.892 335.477 413.477 335.648C413.063 335.812 412.744 336.043 412.523 336.338C412.307 336.634 412.199 336.969 412.199 337.344C412.188 337.656 412.253 337.929 412.395 338.162C412.543 338.395 412.744 338.597 413 338.767C413.256 338.932 413.551 339.077 413.886 339.202C414.222 339.321 414.58 339.423 414.96 339.509L416.528 339.884C417.29 340.054 417.989 340.281 418.625 340.565C419.261 340.849 419.813 341.199 420.278 341.614C420.744 342.028 421.105 342.517 421.361 343.08C421.622 343.642 421.756 344.287 421.761 345.014C421.756 346.082 421.483 347.009 420.943 347.793C420.409 348.571 419.636 349.176 418.625 349.608C417.619 350.034 416.406 350.247 414.986 350.247C413.577 350.247 412.349 350.031 411.304 349.599C410.264 349.168 409.452 348.528 408.866 347.682C408.287 346.83 407.983 345.776 407.955 344.52H411.526C411.565 345.105 411.733 345.594 412.028 345.986C412.33 346.372 412.73 346.665 413.23 346.864C413.736 347.057 414.307 347.153 414.943 347.153C415.568 347.153 416.111 347.062 416.571 346.881C417.037 346.699 417.398 346.446 417.653 346.122C417.909 345.798 418.037 345.426 418.037 345.006C418.037 344.614 417.92 344.284 417.688 344.017C417.46 343.75 417.125 343.523 416.682 343.335C416.244 343.148 415.707 342.977 415.071 342.824L413.17 342.347C411.699 341.989 410.537 341.429 409.685 340.668C408.832 339.906 408.409 338.881 408.415 337.591C408.409 336.534 408.69 335.611 409.259 334.821C409.832 334.031 410.619 333.415 411.619 332.972C412.619 332.528 413.756 332.307 415.028 332.307C416.324 332.307 417.455 332.528 418.42 332.972C419.392 333.415 420.148 334.031 420.688 334.821C421.227 335.611 421.506 336.526 421.523 337.565H417.986ZM432.57 344.426V336.909H436.201V350H432.715V347.622H432.579C432.283 348.389 431.792 349.006 431.104 349.472C430.423 349.937 429.59 350.17 428.607 350.17C427.732 350.17 426.962 349.972 426.298 349.574C425.633 349.176 425.113 348.611 424.738 347.878C424.369 347.145 424.181 346.267 424.175 345.244V336.909H427.806V344.597C427.812 345.369 428.019 345.98 428.428 346.429C428.837 346.878 429.386 347.102 430.073 347.102C430.511 347.102 430.92 347.003 431.3 346.804C431.681 346.599 431.988 346.298 432.221 345.901C432.46 345.503 432.576 345.011 432.57 344.426ZM439.105 354.909V336.909H442.685V339.108H442.847C443.006 338.756 443.236 338.398 443.537 338.034C443.844 337.665 444.241 337.358 444.73 337.114C445.224 336.864 445.838 336.739 446.571 336.739C447.526 336.739 448.406 336.989 449.213 337.489C450.02 337.983 450.665 338.73 451.148 339.73C451.631 340.724 451.872 341.972 451.872 343.472C451.872 344.932 451.636 346.165 451.165 347.17C450.699 348.17 450.063 348.929 449.256 349.446C448.455 349.957 447.557 350.213 446.562 350.213C445.858 350.213 445.259 350.097 444.764 349.864C444.276 349.631 443.875 349.338 443.562 348.986C443.25 348.628 443.011 348.267 442.847 347.903H442.736V354.909H439.105ZM442.659 343.455C442.659 344.233 442.767 344.912 442.983 345.491C443.199 346.071 443.511 346.523 443.92 346.847C444.33 347.165 444.827 347.324 445.412 347.324C446.003 347.324 446.503 347.162 446.912 346.838C447.321 346.509 447.631 346.054 447.841 345.474C448.057 344.889 448.165 344.216 448.165 343.455C448.165 342.699 448.06 342.034 447.849 341.46C447.639 340.886 447.33 340.437 446.92 340.114C446.511 339.79 446.009 339.628 445.412 339.628C444.821 339.628 444.321 339.784 443.912 340.097C443.509 340.409 443.199 340.852 442.983 341.426C442.767 342 442.659 342.676 442.659 343.455ZM454.293 354.909V336.909H457.872V339.108H458.034C458.193 338.756 458.423 338.398 458.724 338.034C459.031 337.665 459.429 337.358 459.918 337.114C460.412 336.864 461.026 336.739 461.759 336.739C462.713 336.739 463.594 336.989 464.401 337.489C465.207 337.983 465.852 338.73 466.335 339.73C466.818 340.724 467.06 341.972 467.06 343.472C467.06 344.932 466.824 346.165 466.352 347.17C465.886 348.17 465.25 348.929 464.443 349.446C463.642 349.957 462.744 350.213 461.75 350.213C461.045 350.213 460.446 350.097 459.952 349.864C459.463 349.631 459.062 349.338 458.75 348.986C458.438 348.628 458.199 348.267 458.034 347.903H457.923V354.909H454.293ZM457.847 343.455C457.847 344.233 457.955 344.912 458.17 345.491C458.386 346.071 458.699 346.523 459.108 346.847C459.517 347.165 460.014 347.324 460.599 347.324C461.19 347.324 461.69 347.162 462.099 346.838C462.509 346.509 462.818 346.054 463.028 345.474C463.244 344.889 463.352 344.216 463.352 343.455C463.352 342.699 463.247 342.034 463.037 341.46C462.827 340.886 462.517 340.437 462.108 340.114C461.699 339.79 461.196 339.628 460.599 339.628C460.009 339.628 459.509 339.784 459.099 340.097C458.696 340.409 458.386 340.852 458.17 341.426C457.955 342 457.847 342.676 457.847 343.455ZM475.395 350.256C474.071 350.256 472.926 349.974 471.96 349.412C471 348.844 470.259 348.054 469.736 347.043C469.213 346.026 468.952 344.847 468.952 343.506C468.952 342.153 469.213 340.972 469.736 339.96C470.259 338.943 471 338.153 471.96 337.591C472.926 337.023 474.071 336.739 475.395 336.739C476.719 336.739 477.861 337.023 478.821 337.591C479.787 338.153 480.531 338.943 481.054 339.96C481.577 340.972 481.838 342.153 481.838 343.506C481.838 344.847 481.577 346.026 481.054 347.043C480.531 348.054 479.787 348.844 478.821 349.412C477.861 349.974 476.719 350.256 475.395 350.256ZM475.412 347.443C476.014 347.443 476.517 347.273 476.92 346.932C477.324 346.585 477.628 346.114 477.832 345.517C478.043 344.92 478.148 344.241 478.148 343.48C478.148 342.719 478.043 342.04 477.832 341.443C477.628 340.847 477.324 340.375 476.92 340.028C476.517 339.682 476.014 339.509 475.412 339.509C474.804 339.509 474.293 339.682 473.878 340.028C473.469 340.375 473.159 340.847 472.949 341.443C472.744 342.04 472.642 342.719 472.642 343.48C472.642 344.241 472.744 344.92 472.949 345.517C473.159 346.114 473.469 346.585 473.878 346.932C474.293 347.273 474.804 347.443 475.412 347.443ZM484.199 350V336.909H487.719V339.193H487.855C488.094 338.381 488.494 337.767 489.057 337.352C489.619 336.932 490.267 336.722 491 336.722C491.182 336.722 491.378 336.733 491.588 336.756C491.798 336.778 491.983 336.81 492.142 336.849V340.071C491.972 340.02 491.736 339.974 491.435 339.935C491.134 339.895 490.858 339.875 490.608 339.875C490.074 339.875 489.597 339.991 489.176 340.224C488.761 340.452 488.432 340.77 488.188 341.179C487.949 341.588 487.83 342.06 487.83 342.594V350H484.199ZM501.638 336.909V339.636H493.755V336.909H501.638ZM495.545 333.773H499.175V345.977C499.175 346.312 499.227 346.574 499.329 346.761C499.431 346.943 499.573 347.071 499.755 347.145C499.942 347.219 500.158 347.256 500.403 347.256C500.573 347.256 500.744 347.241 500.914 347.213C501.085 347.179 501.215 347.153 501.306 347.136L501.877 349.838C501.695 349.895 501.44 349.96 501.11 350.034C500.781 350.114 500.38 350.162 499.908 350.179C499.033 350.213 498.266 350.097 497.607 349.83C496.954 349.562 496.445 349.148 496.082 348.585C495.718 348.023 495.539 347.312 495.545 346.455V333.773Z" fill="#FF7B9F"/>
<path d="M261.707 133.754L265.754 134.293L266.293 130.246L262.246 129.707L261.707 133.754ZM332 80V79.5H331.831L331.696 79.6028L332 80ZM264.304 132.397L332.304 80.3972L331.696 79.6028L263.696 131.603L264.304 132.397ZM332 80.5H470V79.5H332V80.5Z" fill="#BABABA"/>
<path d="M261.707 288.754L265.754 289.293L266.293 285.246L262.246 284.707L261.707 288.754ZM332 235V234.5H331.831L331.696 234.603L332 235ZM264.304 287.397L332.304 235.397L331.696 234.603L263.696 286.603L264.304 287.397ZM332 235.5H470V234.5H332V235.5Z" fill="#BABABA"/>
<path d="M261.707 426.754L265.754 427.293L266.293 423.246L262.246 422.707L261.707 426.754ZM332 373V372.5H331.831L331.696 372.603L332 373ZM264.304 425.397L332.304 373.397L331.696 372.603L263.696 424.603L264.304 425.397ZM332 373.5H470V372.5H332V373.5Z" fill="#BABABA"/>
</svg>
