<svg width="69" height="69" viewBox="0 0 69 69" fill="none" xmlns="http://www.w3.org/2000/svg">
<circle cx="34.5" cy="34.5" r="34.5" fill="#06E594"/>
<path fill-rule="evenodd" clip-rule="evenodd" d="M34.7353 40.5588C34.5882 40.4804 34.4118 40.4804 34.2647 40.5588L26.766 44.5581C26.7581 44.5623 26.7504 44.5667 26.7428 44.5713C26.5921 44.6616 26.5 44.8244 26.5 45V54C26.5 54.1756 26.5921 54.3384 26.7428 54.4287L34.2415 58.928L34.2537 58.9351C34.4062 59.0215 34.5933 59.0218 34.7463 58.9351L34.7585 58.928L42.2572 54.4287C42.4079 54.3384 42.5 54.1756 42.5 54V45C42.5 44.8244 42.4079 44.6616 42.2572 44.5713C42.2496 44.5667 42.2419 44.5623 42.234 44.5582L34.7353 40.5588ZM40.9375 45L34.5 41.5667L28.0625 45L34.5 48.4333L40.9375 45ZM34 49.3V57.6169L27.5 53.7169V45.8333L34 49.3ZM41.5 53.7169L35 57.6169V49.3L41.5 45.8333V53.7169Z" fill="white"/>
<path fill-rule="evenodd" clip-rule="evenodd" d="M34.7353 10.0588C34.5882 9.98039 34.4118 9.98039 34.2647 10.0588L26.766 14.0581C26.7581 14.0623 26.7504 14.0667 26.7428 14.0713C26.5921 14.1616 26.5 14.3244 26.5 14.5V23.5C26.5 23.6756 26.5921 23.8384 26.7428 23.9287L34.2415 28.428L34.2537 28.4351C34.4062 28.5215 34.5933 28.5218 34.7463 28.4351L34.7585 28.428L42.2572 23.9287C42.4079 23.8384 42.5 23.6756 42.5 23.5V14.5C42.5 14.3244 42.4079 14.1616 42.2572 14.0713C42.2496 14.0667 42.2419 14.0623 42.234 14.0582L34.7353 10.0588ZM40.9375 14.5L34.5 11.0667L28.0625 14.5L34.5 17.9333L40.9375 14.5ZM34 18.8V27.1169L27.5 23.2169V15.3333L34 18.8ZM41.5 23.2169L35 27.1169V18.8L41.5 15.3333V23.2169Z" fill="white"/>
<path fill-rule="evenodd" clip-rule="evenodd" d="M53.2353 26.0588C53.0882 25.9804 52.9118 25.9804 52.7647 26.0588L45.266 30.0581C45.2581 30.0623 45.2504 30.0667 45.2428 30.0713C45.0921 30.1616 45 30.3244 45 30.5V39.5C45 39.6756 45.0921 39.8384 45.2428 39.9287L52.7415 44.428L52.7537 44.4351C52.9062 44.5215 53.0933 44.5218 53.2463 44.4351L53.2585 44.428L60.7572 39.9287C60.9079 39.8384 61 39.6756 61 39.5V30.5C61 30.3244 60.9079 30.1616 60.7572 30.0713C60.7496 30.0667 60.7419 30.0623 60.734 30.0582L53.2353 26.0588ZM59.4375 30.5L53 27.0667L46.5625 30.5L53 33.9333L59.4375 30.5ZM52.5 34.8V43.1169L46 39.2169V31.3333L52.5 34.8ZM60 39.2169L53.5 43.1169V34.8L60 31.3333V39.2169Z" fill="white"/>
<path fill-rule="evenodd" clip-rule="evenodd" d="M16.2353 26.0588C16.0882 25.9804 15.9118 25.9804 15.7647 26.0588L8.26598 30.0581C8.25815 30.0623 8.2504 30.0667 8.24275 30.0713C8.09215 30.1616 8 30.3244 8 30.5V39.5C8 39.6756 8.09215 39.8384 8.24275 39.9287L15.7415 44.428L15.7537 44.4351C15.9062 44.5215 16.0933 44.5218 16.2463 44.4351L16.2585 44.428L23.7572 39.9287C23.9079 39.8384 24 39.6756 24 39.5V30.5C24 30.3244 23.9079 30.1616 23.7572 30.0713C23.7496 30.0667 23.7419 30.0623 23.734 30.0582L16.2353 26.0588ZM22.4375 30.5L16 27.0667L9.5625 30.5L16 33.9333L22.4375 30.5ZM15.5 34.8V43.1169L9 39.2169V31.3333L15.5 34.8ZM23 39.2169L16.5 43.1169V34.8L23 31.3333V39.2169Z" fill="white"/>
<path fill-rule="evenodd" clip-rule="evenodd" d="M29.9999 23.118C30.2469 22.9945 30.347 22.6941 30.2236 22.4472C30.1001 22.2002 29.7997 22.1001 29.5527 22.2236L22.4472 25.7763C22.2002 25.8998 22.1001 26.2002 22.2236 26.4472C22.347 26.6941 22.6474 26.7943 22.8944 26.6708L29.9999 23.118ZM27.9999 40.8819C28.2469 41.0054 28.347 41.3057 28.2235 41.5527C28.1001 41.7997 27.7997 41.8998 27.5527 41.7763L20.4472 38.2235C20.2002 38.1001 20.1001 37.7997 20.2236 37.5527C20.347 37.3057 20.6474 37.2056 20.8944 37.3291L27.9999 40.8819Z" fill="white"/>
<path fill-rule="evenodd" clip-rule="evenodd" d="M39.2764 23.118C39.0294 22.9945 38.9293 22.6941 39.0528 22.4472C39.1763 22.2002 39.4766 22.1001 39.7236 22.2236L46.8292 25.7763C47.0762 25.8998 47.1763 26.2002 47.0528 26.4472C46.9293 26.6941 46.629 26.7943 46.382 26.6708L39.2764 23.118ZM41.2764 40.8819C41.0294 41.0054 40.9293 41.3057 41.0528 41.5527C41.1763 41.7997 41.4766 41.8998 41.7236 41.7763L48.8292 38.2235C49.0762 38.1001 49.1763 37.7997 49.0528 37.5527C48.9293 37.3057 48.629 37.2056 48.382 37.3291L41.2764 40.8819Z" fill="white"/>
</svg>
