<svg width="25" height="24" viewBox="0 0 25 24" fill="none" xmlns="http://www.w3.org/2000/svg">
<path fill-rule="evenodd" clip-rule="evenodd" d="M12.5 24C19.1274 24 24.5 18.6274 24.5 12C24.5 5.37258 19.1274 0 12.5 0C5.87258 0 0.5 5.37258 0.5 12C0.5 18.6274 5.87258 24 12.5 24ZM14.1542 5.00322C13.7049 5.00391 13.2547 5.00461 12.8024 5.01151C12.7916 6.45746 12.7921 7.90341 12.7925 9.35076C12.7928 10.2192 12.7931 11.0882 12.7909 11.958C12.7894 12.2291 12.7899 12.4999 12.7903 12.7704C12.7917 13.5278 12.793 14.2837 12.7506 15.0427C12.7452 15.2541 12.6377 15.4399 12.5339 15.6194C12.5275 15.6305 12.521 15.6417 12.5146 15.6528C12.1808 16.1995 11.565 16.5736 10.9205 16.5794C9.95361 16.6657 9.04429 15.8715 8.90617 14.9276C8.90528 14.8794 8.90369 14.8308 8.9021 14.7821C8.89344 14.5174 8.88466 14.249 8.98674 14.001C9.13062 13.5924 9.40687 13.2299 9.76944 12.9939C10.2701 12.6486 10.9377 12.5968 11.5075 12.781C11.5075 12.4159 11.5138 12.0509 11.5202 11.6858C11.5286 11.1991 11.5371 10.7124 11.5305 10.2257C10.2816 9.98971 8.94646 10.3868 7.9911 11.2156C7.15085 11.9292 6.60987 12.9766 6.50627 14.0701C6.49476 14.3521 6.50052 14.6399 6.51203 14.9276C6.63289 16.2743 7.45012 17.529 8.61266 18.2138C9.31479 18.6282 10.1378 18.8526 10.9608 18.8066C12.3017 18.7836 13.6081 18.0642 14.362 16.9592C14.8282 16.2974 15.093 15.4974 15.139 14.6917C15.1498 13.645 15.1493 12.5961 15.1489 11.5463C15.1486 10.9164 15.1483 10.2861 15.1505 9.65591C15.4498 9.85159 15.7548 10.0415 16.0828 10.1911C16.8368 10.548 17.6713 10.7206 18.5 10.7494V8.43007C17.6137 8.33223 16.7044 8.03872 16.0598 7.3999C15.4152 6.77834 15.0987 5.88054 15.0527 5C14.7533 5.0023 14.454 5.00276 14.1542 5.00322Z" fill="white"/>
</svg>
