<svg width="38" height="38" viewBox="0 0 38 38" fill="none" xmlns="http://www.w3.org/2000/svg">
<g clip-path="url(#clip0_557:3959)">
<path d="M19.022 37.9992C8.47235 37.9895 0.00976064 29.5271 8.29873e-06 18.9736C-0.00974404 8.49085 8.57719 -0.0495709 19.078 -0.000768445C29.6081 0.048034 38.022 8.54941 38 19.1176C37.9805 29.5247 29.4521 38.009 19.022 37.9992ZM10.7666 20.9769C11.4736 22.6802 12.9828 23.2341 14.4822 23.8319C12.8365 25.2106 10.9714 25.7596 8.94534 25.945C10.9056 27.4311 13.112 27.9557 15.4648 27.8459C18.1662 27.719 20.4702 26.4892 22.5864 24.9348C25.9095 22.4947 27.4675 19.1322 27.426 15.0279C27.4212 14.5204 27.5553 14.2398 27.9868 13.9787C28.4354 13.7054 28.8084 13.3052 29.4082 12.7977C28.5159 12.8416 27.9185 12.8709 27.3261 12.9001C27.9015 12.1974 28.4037 11.5849 28.906 10.97C28.0892 11.053 27.4553 11.2872 26.8019 11.4117C26.5361 11.4629 26.1607 11.358 25.9412 11.1872C23.2374 9.08136 19.8704 10.2209 19.0415 13.5565C18.8879 14.1715 18.8367 14.8132 18.7318 15.4964C15.0406 15.455 12.1344 13.8006 9.65727 11.053C8.73079 13.3638 9.10626 15.228 10.9738 16.7848C10.908 16.8263 10.8422 16.8678 10.7763 16.9093C10.2253 16.8117 9.67677 16.7141 9.0575 16.6043C9.08675 17.6242 9.41346 18.4587 10.1132 19.0785C10.7788 19.669 11.5346 20.1619 12.2928 20.7305C11.7979 20.811 11.342 20.8842 10.7666 20.9769Z" fill="#FF5995"/>
</g>
<defs>
<clipPath id="clip0_557:3959">
<rect width="38" height="38" fill="white"/>
</clipPath>
</defs>
</svg>
