<svg width="32" height="32" viewBox="0 0 32 32" fill="none" xmlns="http://www.w3.org/2000/svg">
<path d="M9.99992 14.6663H22.1333C22.5333 14.6663 22.7999 14.2663 22.6666 13.8663L21.3333 5.86634C21.3333 5.59967 20.9333 5.33301 20.6666 5.33301H11.3333C11.0666 5.33301 10.6666 5.59967 10.6666 5.86634L9.33325 13.8663V13.9997C9.33325 14.3997 9.59992 14.6663 9.99992 14.6663ZM11.8666 6.66634H20.1333L21.1999 13.333H10.7999L11.8666 6.66634ZM29.3333 17.8663C29.3333 17.5997 29.0666 17.333 28.6666 17.333H19.3333C19.0666 17.333 18.6666 17.5997 18.6666 17.8663L17.3333 25.8663V25.9997C17.3333 26.3997 17.5999 26.6663 17.9999 26.6663H30.1333C30.5333 26.6663 30.7999 26.2663 30.6666 25.8663L29.3333 17.8663ZM18.7999 25.333L19.8666 18.6663H28.1333L29.1999 25.333H18.7999ZM12.6666 17.333H3.33325C3.06659 17.333 2.66659 17.5997 2.66659 17.8663L1.33325 25.8663V25.9997C1.33325 26.3997 1.59992 26.6663 1.99992 26.6663H14.1333C14.5333 26.6663 14.7999 26.2663 14.6666 25.8663L13.3333 17.8663C13.3333 17.5997 12.9333 17.333 12.6666 17.333ZM2.79992 25.333L3.86659 18.6663H12.1333L13.1999 25.333H2.79992Z" fill="#FF5995" stroke="#FF5995"/>
</svg>
