<?xml version="1.0" encoding="iso-8859-1"?>
<!-- Generator: Adobe Illustrator 21.0.0, SVG Export Plug-In . SVG Version: 6.00 Build 0)  -->
<svg version="1.1" id="&#x56FE;&#x5C42;_1" xmlns="http://www.w3.org/2000/svg" xmlns:xlink="http://www.w3.org/1999/xlink" x="0px"
	 y="0px" viewBox="0 0 200 200" style="enable-background:new 0 0 200 200;" xml:space="preserve">
<g>
	<polygon style="fill:#0F68AA;" points="100.17,90.89 30.022,132.079 30.022,154.716 100.17,113.527 170.319,154.716 
		170.319,132.079 	"/>
	<polygon style="fill:#2FBDF4;" points="50.517,65.907 100.17,37.24 149.823,65.907 168.361,58.37 100.17,19 31.98,58.369 	"/>
	<polygon style="fill:#0F68AA;" points="149.823,70.7 149.823,134.093 142.448,138.351 158.111,147.547 170.318,140.5 
		170.318,62.367 	"/>
	<polygon style="fill:#0F68AA;" points="57.892,138.351 50.456,134.058 50.456,70.676 30.022,62.367 30.022,140.5 42.229,147.547 	
		"/>
	<polygon style="fill:#2FBDF4;" points="138.076,140.875 100.17,162.76 62.264,140.875 46.601,150.072 100.17,181 153.74,150.072 	
		"/>
</g>
</svg>
