<svg width="24" height="24" viewBox="0 0 24 24" fill="none" xmlns="http://www.w3.org/2000/svg">
<g clip-path="url(#clip0_1403:22)">
<path d="M11.7553 2C6.3617 2 2 6.3617 2 11.7553C2 17.1383 6.3617 21.5106 11.7553 21.5106C17.1489 21.5106 21.5106 17.1489 21.5106 11.7553C21.5 6.3617 17.1383 2 11.7553 2ZM16.0957 8.35106L14.5532 14.0106C14.4787 14.2766 14.2766 14.4787 14.0106 14.5532L8.35106 16.0957C7.93617 16.2021 7.51064 15.9681 7.40425 15.5532C7.37234 15.4149 7.37234 15.2766 7.40425 15.1489L8.94681 9.48936C9.02128 9.2234 9.2234 9.02128 9.48936 8.94681L15.1489 7.40425C15.5638 7.29787 15.9894 7.53191 16.0957 7.94681C16.1383 8.08511 16.1383 8.2234 16.0957 8.35106Z" fill="white"/>
</g>
<defs>
<clipPath id="clip0_1403:22">
<rect width="19.5" height="19.5" fill="white" transform="translate(2 2)"/>
</clipPath>
</defs>
</svg>
