<svg width="273" height="360" viewBox="0 0 273 360" fill="none" xmlns="http://www.w3.org/2000/svg">
<mask id="path-1-inside-1_2_162" fill="white">
<path fill-rule="evenodd" clip-rule="evenodd" d="M148.872 0.501396C140.31 -1.68513 131.597 3.48302 129.41 12.0448L111.226 83.2477C109.706 89.2004 111.741 95.2262 116 99.0809C110.629 100.549 106.178 104.782 104.702 110.562L53.551 310.856C51.3644 319.418 56.5326 328.131 65.0944 330.317L177.052 358.909C185.614 361.096 194.327 355.928 196.514 347.366L247.665 147.072C249.185 141.12 247.15 135.094 242.891 131.239C248.262 129.771 252.713 125.538 254.189 119.758L272.373 48.5549C274.559 39.9931 269.391 31.2799 260.829 29.0934L148.872 0.501396Z"/>
</mask>
<path fill-rule="evenodd" clip-rule="evenodd" d="M148.872 0.501396C140.31 -1.68513 131.597 3.48302 129.41 12.0448L111.226 83.2477C109.706 89.2004 111.741 95.2262 116 99.0809C110.629 100.549 106.178 104.782 104.702 110.562L53.551 310.856C51.3644 319.418 56.5326 328.131 65.0944 330.317L177.052 358.909C185.614 361.096 194.327 355.928 196.514 347.366L247.665 147.072C249.185 141.12 247.15 135.094 242.891 131.239C248.262 129.771 252.713 125.538 254.189 119.758L272.373 48.5549C274.559 39.9931 269.391 31.2799 260.829 29.0934L148.872 0.501396Z" fill="white"/>
<path d="M129.41 12.0448L128.441 11.7973L129.41 12.0448ZM148.872 0.501396L149.119 -0.467507L148.872 0.501396ZM111.226 83.2477L110.257 83.0003L111.226 83.2477ZM116 99.0809L116.263 100.046L118.024 99.5643L116.671 98.3395L116 99.0809ZM104.702 110.562L105.671 110.81L104.702 110.562ZM53.551 310.856L54.5199 311.103L53.551 310.856ZM65.0944 330.317L64.8469 331.286H64.8469L65.0944 330.317ZM177.052 358.909L176.805 359.878L177.052 358.909ZM196.514 347.366L195.545 347.118L196.514 347.366ZM247.665 147.072L246.696 146.825L247.665 147.072ZM242.891 131.239L242.628 130.275L240.867 130.756L242.22 131.981L242.891 131.239ZM254.189 119.758L255.158 120.005L254.189 119.758ZM272.373 48.5549L271.404 48.3075L272.373 48.5549ZM260.829 29.0934L260.582 30.0623L260.829 29.0934ZM130.379 12.2922C132.429 4.26557 140.597 -0.579566 148.624 1.4703L149.119 -0.467507C140.022 -2.79069 130.764 2.70047 128.441 11.7973L130.379 12.2922ZM112.195 83.4952L130.379 12.2922L128.441 11.7973L110.257 83.0003L112.195 83.4952ZM116.671 98.3395C112.676 94.7238 110.77 89.0744 112.195 83.4952L110.257 83.0003C108.642 89.3263 110.806 95.7286 115.329 99.8223L116.671 98.3395ZM105.671 110.81C107.055 105.392 111.226 101.423 116.263 100.046L115.736 98.1163C110.033 99.6752 105.302 104.172 103.733 110.315L105.671 110.81ZM54.5199 311.103L105.671 110.81L103.733 110.315L52.5821 310.608L54.5199 311.103ZM65.3418 329.348C57.3152 327.298 52.47 319.13 54.5199 311.103L52.5821 310.608C50.2589 319.705 55.7501 328.963 64.8469 331.286L65.3418 329.348ZM177.3 357.94L65.3418 329.348L64.8469 331.286L176.805 359.878L177.3 357.94ZM195.545 347.118C193.495 355.145 185.326 359.99 177.3 357.94L176.805 359.878C185.902 362.201 195.159 356.71 197.482 347.613L195.545 347.118ZM246.696 146.825L195.545 347.118L197.482 347.613L248.634 147.32L246.696 146.825ZM242.22 131.981C246.215 135.596 248.121 141.246 246.696 146.825L248.634 147.32C250.249 140.994 248.085 134.592 243.562 130.498L242.22 131.981ZM253.22 119.51C251.836 124.928 247.665 128.898 242.628 130.275L243.155 132.204C248.858 130.645 253.589 126.148 255.158 120.005L253.22 119.51ZM271.404 48.3075L253.22 119.51L255.158 120.005L273.342 48.8023L271.404 48.3075ZM260.582 30.0623C268.608 32.1122 273.454 40.2808 271.404 48.3075L273.342 48.8023C275.665 39.7055 270.174 30.4477 261.077 28.1245L260.582 30.0623ZM148.624 1.4703L260.582 30.0623L261.077 28.1245L149.119 -0.467507L148.624 1.4703Z" fill="black" mask="url(#path-1-inside-1_2_162)"/>
<mask id="mask0_2_162" style="mask-type:alpha" maskUnits="userSpaceOnUse" x="53" y="0" width="220" height="360">
<mask id="path-3-inside-2_2_162" fill="white">
<path fill-rule="evenodd" clip-rule="evenodd" d="M148.872 0.501396C140.31 -1.68513 131.597 3.48302 129.41 12.0448L111.226 83.2477C109.706 89.2004 111.741 95.2262 116 99.0809C110.629 100.549 106.178 104.782 104.702 110.562L53.551 310.856C51.3644 319.418 56.5326 328.131 65.0944 330.317L177.052 358.909C185.614 361.096 194.327 355.928 196.514 347.366L247.665 147.072C249.185 141.12 247.15 135.094 242.891 131.239C248.262 129.771 252.713 125.538 254.189 119.758L272.373 48.5549C274.559 39.9931 269.391 31.2799 260.829 29.0934L148.872 0.501396Z"/>
</mask>
<path fill-rule="evenodd" clip-rule="evenodd" d="M148.872 0.501396C140.31 -1.68513 131.597 3.48302 129.41 12.0448L111.226 83.2477C109.706 89.2004 111.741 95.2262 116 99.0809C110.629 100.549 106.178 104.782 104.702 110.562L53.551 310.856C51.3644 319.418 56.5326 328.131 65.0944 330.317L177.052 358.909C185.614 361.096 194.327 355.928 196.514 347.366L247.665 147.072C249.185 141.12 247.15 135.094 242.891 131.239C248.262 129.771 252.713 125.538 254.189 119.758L272.373 48.5549C274.559 39.9931 269.391 31.2799 260.829 29.0934L148.872 0.501396Z" fill="#C4C4C4"/>
<path d="M129.41 12.0448L128.441 11.7973L129.41 12.0448ZM148.872 0.501396L149.119 -0.467507L148.872 0.501396ZM111.226 83.2477L110.257 83.0003L111.226 83.2477ZM116 99.0809L116.263 100.046L118.024 99.5643L116.671 98.3395L116 99.0809ZM104.702 110.562L105.671 110.81L104.702 110.562ZM53.551 310.856L54.5199 311.103L53.551 310.856ZM65.0944 330.317L64.8469 331.286H64.8469L65.0944 330.317ZM177.052 358.909L176.805 359.878L177.052 358.909ZM196.514 347.366L195.545 347.118L196.514 347.366ZM247.665 147.072L246.696 146.825L247.665 147.072ZM242.891 131.239L242.628 130.275L240.867 130.756L242.22 131.981L242.891 131.239ZM254.189 119.758L255.158 120.005L254.189 119.758ZM272.373 48.5549L271.404 48.3075L272.373 48.5549ZM260.829 29.0934L260.582 30.0623L260.829 29.0934ZM130.379 12.2922C132.429 4.26557 140.597 -0.579566 148.624 1.4703L149.119 -0.467507C140.022 -2.79069 130.764 2.70047 128.441 11.7973L130.379 12.2922ZM112.195 83.4952L130.379 12.2922L128.441 11.7973L110.257 83.0003L112.195 83.4952ZM116.671 98.3395C112.676 94.7238 110.77 89.0744 112.195 83.4952L110.257 83.0003C108.642 89.3263 110.806 95.7286 115.329 99.8223L116.671 98.3395ZM105.671 110.81C107.055 105.392 111.226 101.423 116.263 100.046L115.736 98.1163C110.033 99.6752 105.302 104.172 103.733 110.315L105.671 110.81ZM54.5199 311.103L105.671 110.81L103.733 110.315L52.5821 310.608L54.5199 311.103ZM65.3418 329.348C57.3152 327.298 52.47 319.13 54.5199 311.103L52.5821 310.608C50.2589 319.705 55.7501 328.963 64.8469 331.286L65.3418 329.348ZM177.3 357.94L65.3418 329.348L64.8469 331.286L176.805 359.878L177.3 357.94ZM195.545 347.118C193.495 355.145 185.326 359.99 177.3 357.94L176.805 359.878C185.902 362.201 195.159 356.71 197.482 347.613L195.545 347.118ZM246.696 146.825L195.545 347.118L197.482 347.613L248.634 147.32L246.696 146.825ZM242.22 131.981C246.215 135.596 248.121 141.246 246.696 146.825L248.634 147.32C250.249 140.994 248.085 134.592 243.562 130.498L242.22 131.981ZM253.22 119.51C251.836 124.928 247.665 128.898 242.628 130.275L243.155 132.204C248.858 130.645 253.589 126.148 255.158 120.005L253.22 119.51ZM271.404 48.3075L253.22 119.51L255.158 120.005L273.342 48.8023L271.404 48.3075ZM260.582 30.0623C268.608 32.1122 273.454 40.2808 271.404 48.3075L273.342 48.8023C275.665 39.7055 270.174 30.4477 261.077 28.1245L260.582 30.0623ZM148.624 1.4703L260.582 30.0623L261.077 28.1245L149.119 -0.467507L148.624 1.4703Z" fill="black" mask="url(#path-3-inside-2_2_162)"/>
</mask>
<g mask="url(#mask0_2_162)">
<rect x="234.823" y="10.9969" width="66.4922" height="356.552" transform="rotate(14.33 234.823 10.9969)" fill="#779BEA"/>
<rect x="117.257" y="-21.7672" width="66.4922" height="356.552" transform="rotate(14.33 117.257 -21.7672)" fill="#779BEA"/>
</g>
<mask id="path-7-inside-3_2_162" fill="white">
<path fill-rule="evenodd" clip-rule="evenodd" d="M148.872 0.501396C140.31 -1.68513 131.597 3.48302 129.41 12.0448L111.226 83.2477C109.706 89.2004 111.741 95.2262 116 99.0809C110.629 100.549 106.178 104.782 104.702 110.562L53.551 310.856C51.3644 319.418 56.5326 328.131 65.0944 330.317L177.052 358.909C185.614 361.096 194.327 355.928 196.514 347.366L247.665 147.072C249.185 141.12 247.15 135.094 242.891 131.239C248.262 129.771 252.713 125.538 254.189 119.758L272.373 48.5549C274.559 39.9931 269.391 31.2799 260.829 29.0934L148.872 0.501396Z"/>
</mask>
<path d="M129.41 12.0448L128.441 11.7973L129.41 12.0448ZM148.872 0.501396L149.119 -0.467507L148.872 0.501396ZM111.226 83.2477L110.257 83.0003L111.226 83.2477ZM116 99.0809L116.263 100.046L118.024 99.5643L116.671 98.3395L116 99.0809ZM104.702 110.562L105.671 110.81L104.702 110.562ZM53.551 310.856L54.5199 311.103L53.551 310.856ZM65.0944 330.317L64.8469 331.286H64.8469L65.0944 330.317ZM177.052 358.909L176.805 359.878L177.052 358.909ZM196.514 347.366L195.545 347.118L196.514 347.366ZM247.665 147.072L246.696 146.825L247.665 147.072ZM242.891 131.239L242.628 130.275L240.867 130.756L242.22 131.981L242.891 131.239ZM254.189 119.758L255.158 120.005L254.189 119.758ZM272.373 48.5549L271.404 48.3075L272.373 48.5549ZM260.829 29.0934L260.582 30.0623L260.829 29.0934ZM130.379 12.2922C132.429 4.26557 140.597 -0.579566 148.624 1.4703L149.119 -0.467507C140.022 -2.79069 130.764 2.70047 128.441 11.7973L130.379 12.2922ZM112.195 83.4952L130.379 12.2922L128.441 11.7973L110.257 83.0003L112.195 83.4952ZM116.671 98.3395C112.676 94.7238 110.77 89.0744 112.195 83.4952L110.257 83.0003C108.642 89.3263 110.806 95.7286 115.329 99.8223L116.671 98.3395ZM105.671 110.81C107.055 105.392 111.226 101.423 116.263 100.046L115.736 98.1163C110.033 99.6752 105.302 104.172 103.733 110.315L105.671 110.81ZM54.5199 311.103L105.671 110.81L103.733 110.315L52.5821 310.608L54.5199 311.103ZM65.3418 329.348C57.3152 327.298 52.47 319.13 54.5199 311.103L52.5821 310.608C50.2589 319.705 55.7501 328.963 64.8469 331.286L65.3418 329.348ZM177.3 357.94L65.3418 329.348L64.8469 331.286L176.805 359.878L177.3 357.94ZM195.545 347.118C193.495 355.145 185.326 359.99 177.3 357.94L176.805 359.878C185.902 362.201 195.159 356.71 197.482 347.613L195.545 347.118ZM246.696 146.825L195.545 347.118L197.482 347.613L248.634 147.32L246.696 146.825ZM242.22 131.981C246.215 135.596 248.121 141.246 246.696 146.825L248.634 147.32C250.249 140.994 248.085 134.592 243.562 130.498L242.22 131.981ZM253.22 119.51C251.836 124.928 247.665 128.898 242.628 130.275L243.155 132.204C248.858 130.645 253.589 126.148 255.158 120.005L253.22 119.51ZM271.404 48.3075L253.22 119.51L255.158 120.005L273.342 48.8023L271.404 48.3075ZM260.582 30.0623C268.608 32.1122 273.454 40.2808 271.404 48.3075L273.342 48.8023C275.665 39.7055 270.174 30.4477 261.077 28.1245L260.582 30.0623ZM148.624 1.4703L260.582 30.0623L261.077 28.1245L149.119 -0.467507L148.624 1.4703Z" fill="black" mask="url(#path-7-inside-3_2_162)"/>
<path d="M33.8787 311.497L3.7407 75.6455L158.828 50.7276C169.806 48.9639 180.034 56.7212 181.296 67.7677L205.442 279.159C206.703 290.196 198.502 300.055 187.42 300.825L33.8787 311.497Z" fill="#1A7C59" stroke="black"/>
<path d="M181.464 106.718L200.68 274.858C201.919 285.704 194.013 295.456 183.144 296.485L34.2163 310.591L144.824 99.8697C153.748 82.8682 179.283 87.6413 181.464 106.718Z" fill="white" stroke="black"/>
<path d="M172.395 37.2761L198.969 269.979C200.239 281.103 192.129 291.104 180.982 292.159L32.6249 306.198" stroke="black"/>
<path d="M1.94674 55.795L1.47084 55.8713L1.52963 56.3497L32.8495 311.236L32.9136 311.758L33.4312 311.668L189.741 284.54C200.441 282.683 207.836 272.804 206.603 262.014L182.212 48.5933C180.885 36.9836 170.137 28.8297 158.599 30.6795L1.94674 55.795Z" fill="#06E594" stroke="black"/>
<path d="M93.9734 214.842L90.6492 215.339L93.7544 236.094L97.0786 235.597L93.9734 214.842Z" fill="black"/>
<path fill-rule="evenodd" clip-rule="evenodd" d="M80.0771 227.767C80.7067 226.873 81.5548 226.346 82.6214 226.187C83.5991 226.041 84.3856 226.195 84.996 226.631C85.6215 227.046 86.0852 227.594 86.3898 228.294L89.214 226.763C88.7053 225.549 87.8143 224.574 86.5792 223.851C85.3593 223.107 83.8707 222.875 82.1286 223.136C80.1021 223.439 78.4992 224.387 77.3404 225.996C76.1994 227.602 75.7694 229.465 76.091 231.615C76.4074 233.729 77.3666 235.403 78.948 236.619C80.5651 237.831 82.3753 238.269 84.4196 237.963C86.1261 237.707 87.4462 237.056 88.4128 235.985C89.3794 234.913 89.9665 233.736 90.1714 232.433L87.0788 231.806C86.9843 232.51 86.6836 233.173 86.1767 233.794C85.685 234.394 84.9427 234.778 83.965 234.924C82.8806 235.086 81.88 234.836 80.9986 234.169C80.135 233.499 79.6022 232.488 79.3975 231.12C79.2283 229.747 79.4448 228.642 80.0771 227.767Z" fill="black"/>
<path fill-rule="evenodd" clip-rule="evenodd" d="M104.182 230.719C105.063 231.386 106.046 231.639 107.148 231.474C108.233 231.312 109.098 230.783 109.728 229.889C110.376 228.993 110.604 227.85 110.394 226.447C110.19 225.078 109.636 224.053 108.758 223.403C107.894 222.733 106.911 222.48 105.827 222.643C104.743 222.805 103.859 223.337 103.211 224.233C102.579 225.109 102.365 226.231 102.573 227.617C102.78 229.003 103.316 230.031 104.182 230.719ZM105.36 219.642C107.457 219.328 109.303 219.761 110.864 220.962C112.461 222.159 113.417 223.814 113.739 225.964C114.061 228.114 113.633 229.995 112.475 231.604C111.334 233.21 109.695 234.163 107.598 234.477C105.518 234.788 103.672 234.356 102.093 233.157C100.529 231.938 99.5702 230.264 99.2512 228.132C98.9322 226 99.3418 224.122 100.501 222.513C101.659 220.904 103.28 219.953 105.36 219.642Z" fill="black"/>
<path fill-rule="evenodd" clip-rule="evenodd" d="M124.721 231.462L128.107 216.676L124.605 217.199L122.49 227.726L117.281 218.295L113.619 218.843L121.379 231.962L124.721 231.462Z" fill="black"/>
<path fill-rule="evenodd" clip-rule="evenodd" d="M133.278 221.479L140.139 220.453C139.973 219.587 139.542 218.889 138.867 218.39C138.211 217.889 137.33 217.712 136.246 217.874C135.25 218.023 134.498 218.462 133.969 219.177C133.437 219.875 133.209 220.654 133.278 221.479ZM141.04 224.042L143.981 224.51C143.764 225.851 143.177 227.029 142.182 228.032C141.22 229.011 139.93 229.622 138.312 229.864C136.321 230.162 134.532 229.739 132.923 228.581C131.352 227.435 130.385 225.709 130.044 223.434C129.725 221.302 130.138 219.442 131.263 217.856C132.41 216.286 133.906 215.354 135.737 215.08C137.87 214.76 139.657 215.165 141.045 216.302C142.448 217.418 143.315 219.087 143.648 221.308C143.736 221.895 143.753 222.255 143.718 222.388L133.515 223.914C133.707 224.957 134.228 225.77 135.061 226.354C135.911 226.935 136.851 227.14 137.882 226.985C139.715 226.729 140.748 225.739 141.04 224.042Z" fill="black"/>
<path fill-rule="evenodd" clip-rule="evenodd" d="M154.519 216.103L154.014 212.727C153.722 212.716 153.414 212.726 153.112 212.771C152.188 212.909 151.402 213.245 150.74 213.798C150.074 214.333 149.644 214.979 149.418 215.776L149.083 213.537L145.848 214.021L147.937 227.988L151.261 227.491L150.267 220.845C149.858 218.108 150.897 216.554 153.404 216.179C153.759 216.126 154.138 216.105 154.519 216.103Z" fill="black"/>
<path d="M102.97 138.858L100.992 139.15C102.566 150.282 94.9309 160.597 83.818 162.306L84.114 164.284C95.2857 162.658 105.663 170.37 107.333 181.531C109.01 192.737 101.301 203.156 90.0896 204.833C78.8787 206.511 68.4574 198.805 66.7807 187.599C65.1107 176.438 72.7761 166.026 83.9345 164.311L83.6386 162.333C72.4668 163.959 62.0894 156.246 60.4194 145.085C58.7427 133.88 66.452 123.461 77.6629 121.784C88.8269 120.113 99.1991 127.78 100.952 138.885L102.93 138.589C101.356 127.457 109.029 117.09 120.193 115.42C131.359 113.749 141.826 121.45 143.502 132.654C145.179 143.859 137.47 154.278 126.259 155.956C115.091 157.627 104.677 149.963 102.97 138.858Z" fill="black" stroke="black" stroke-width="2"/>
<path d="M149.864 175.167C151.539 186.361 143.819 196.794 132.62 198.469C121.422 200.145 110.986 192.429 109.311 181.235C107.637 170.042 115.356 159.609 126.555 157.933C137.754 156.258 148.189 163.974 149.864 175.167Z" fill="black" stroke="black" stroke-width="2"/>
</svg>
