<svg width="25" height="24" viewBox="0 0 25 24" fill="none" xmlns="http://www.w3.org/2000/svg">
<path d="M14.5038 11.7913L11.6963 10.4813C11.4513 10.3675 11.25 10.495 11.25 10.7662V13.2338C11.25 13.505 11.4513 13.6325 11.6963 13.5188L14.5025 12.2088C14.7488 12.0938 14.7488 11.9063 14.5038 11.7913ZM12.5 0C5.8725 0 0.5 5.3725 0.5 12C0.5 18.6275 5.8725 24 12.5 24C19.1275 24 24.5 18.6275 24.5 12C24.5 5.3725 19.1275 0 12.5 0ZM12.5 16.875C6.3575 16.875 6.25 16.3212 6.25 12C6.25 7.67875 6.3575 7.125 12.5 7.125C18.6425 7.125 18.75 7.67875 18.75 12C18.75 16.3212 18.6425 16.875 12.5 16.875Z" fill="white"/>
</svg>
