<svg width="142" height="44" viewBox="0 0 142 44" fill="none" xmlns="http://www.w3.org/2000/svg">
    <path d="M48.7534 21.5367C48.5877 17.2767 51.9247 13.703 56.1847 13.5374H56.4924C60.4211 13.5374 62.7404 15.833 63.4267 18.531L60.9654 19.3594C60.5157 17.2767 58.5987 15.833 56.4924 15.9987C53.9601 15.9987 51.4041 17.8447 51.4041 21.584C51.4041 25.3234 53.8891 27.0984 56.5161 27.0984C58.6461 27.1457 60.5394 25.7494 61.1074 23.714L63.4977 24.495C62.6457 27.619 59.7347 29.749 56.4924 29.5834C52.2797 29.6544 48.8007 26.3173 48.7297 22.1047C48.7297 21.9153 48.7297 21.726 48.7534 21.5367Z" fill="#1D2D31"/>
    <path d="M68.2784 29.2283H65.6987V13.49H68.2784V19.667C69.0121 18.7913 70.1244 18.2943 71.2841 18.3417C73.8874 18.3417 75.1654 20.2113 75.1654 22.5307V29.2283H72.6567V22.9567C72.8224 21.8443 72.0414 20.803 70.9291 20.6373C70.7871 20.6137 70.6214 20.6137 70.4794 20.6373C69.2724 20.6373 68.2784 21.6313 68.2784 22.8383C68.2784 22.9093 68.2784 22.9567 68.2784 23.0277V29.2283Z" fill="#1D2D31"/>
    <path d="M80.7507 23.1698L83.4724 22.7438C84.0877 22.6728 84.2534 22.3414 84.2534 21.9864C84.2534 21.0871 83.6617 20.3771 82.2417 20.3771C81.1531 20.2824 80.1827 21.0871 80.0644 22.1758V22.2704L77.7687 21.7498C77.958 19.9274 79.6147 18.2944 82.2181 18.2944C85.4841 18.2944 86.7147 20.1404 86.7147 22.2941V27.5481C86.7147 28.1161 86.7384 28.6841 86.8567 29.2521H84.5137C84.419 28.8024 84.3954 28.3528 84.419 27.9031C83.709 28.9918 82.4547 29.6308 81.1531 29.5834C79.3307 29.7254 77.745 28.4001 77.5557 26.5778V26.4121C77.532 24.4478 78.9284 23.4301 80.7507 23.1698ZM84.2297 24.8738V24.4004L81.4607 24.8028C80.6797 24.8264 80.0644 25.4654 80.0407 26.2464C80.0407 27.0274 80.6797 27.6428 81.4607 27.6191H81.579C82.9044 27.7848 84.1114 26.8144 84.2534 25.4891C84.2534 25.4654 84.2534 25.4654 84.2534 25.4418C84.3007 25.2524 84.2771 25.0631 84.2297 24.8738Z" fill="#1D2D31"/>
    <path d="M90.9983 13.2771C91.8977 13.2771 92.655 13.9871 92.6786 14.9101C92.6786 15.8094 91.945 16.5431 91.0457 16.5668C90.1463 16.5668 89.4127 15.8331 89.389 14.9338C89.3653 14.0108 90.099 13.2771 90.9983 13.2771ZM89.7677 29.2758V18.6494H92.3V29.2284L89.7677 29.2758Z" fill="#1D2D31"/>
    <path d="M98.0274 29.2283H95.4951V18.6493H97.9564V20.0693C98.6191 18.9807 99.8024 18.318 101.08 18.3417C103.66 18.3417 104.891 20.2113 104.891 22.5307V29.2283H102.382V22.9567C102.382 21.655 101.79 20.6137 100.205 20.6137C98.9741 20.6137 97.9801 21.6313 97.9801 22.862C97.9801 22.9567 97.9801 23.0277 97.9801 23.1223L98.0274 29.2283Z" fill="#1D2D31"/>
    <path d="M110.5 13.49H107.991V29.2283H110.5V13.49Z" fill="#1D2D31"/>
    <path d="M115.02 13.2771C115.919 13.2771 116.653 14.0108 116.677 14.9101C116.677 15.8094 115.943 16.5431 115.044 16.5668C114.144 16.5668 113.411 15.8331 113.387 14.9338V14.9101C113.387 14.0108 114.097 13.2771 115.02 13.2771ZM113.766 29.2758V18.6494H116.274V29.2284L113.766 29.2758Z" fill="#1D2D31"/>
    <path d="M122.049 29.2283H119.54V18.6493H122.002V20.0693C122.664 18.9807 123.848 18.318 125.126 18.3417C127.705 18.3417 128.96 20.2113 128.96 22.5307V29.2283H126.451V22.9567C126.617 21.8443 125.836 20.803 124.723 20.6373C124.581 20.6137 124.416 20.6137 124.274 20.6373C123.043 20.6373 122.049 21.6313 122.073 22.862C122.073 22.9567 122.073 23.0513 122.073 23.1223L122.049 29.2283Z" fill="#1D2D31"/>
    <path d="M137.551 23.0987L142 29.2283H138.9L135.799 24.85L134.498 26.2227V29.2283H131.989V13.49H134.498V22.9093L138.568 18.6493H141.905L137.551 23.0987Z" fill="#1D2D31"/>
    <path d="M18.886 9.23L29.7963 15.5017V28.0687L18.9333 34.364L8.023 28.1633V15.549L18.886 9.23ZM18.886 0L14.8863 2.31933L3.99967 8.63833L0 10.9577V32.7547L3.99967 35.0503L14.91 41.2983L18.9097 43.594L22.9093 41.2747L33.7723 34.9557L37.772 32.6363V10.8157L33.7723 8.52L22.862 2.24833L18.886 0Z" fill="#1D2D31"/>
</svg>
