<svg width="101" height="28" viewBox="0 0 101 28" fill="none" xmlns="http://www.w3.org/2000/svg">
    <path d="M6.62628 27.3989V6.9267C11.0819 6.9267 14.8139 9.08167 14.8139 14.2382C14.8139 17.8555 11.9578 20.934 8.22572 20.934V27.3989C15.8421 27.3989 21.5925 21.9345 21.5925 14.1613C21.5925 6.61885 16.3372 0.46178 6.74052 0.46178H0V27.3989H6.62628ZM40.4431 27.3989V21.1649C34.4642 21.1649 33.3218 20.7801 31.57 16.855H40.4431V11.0058H31.57C33.2456 7.38848 34.3119 6.69581 40.4431 6.69581V0.46178H36.673C29.5136 0.46178 24.4867 6.46492 24.4867 13.9304C24.4867 21.3958 29.5136 27.3989 36.673 27.3989H40.4431ZM57.085 27.8607C65.463 27.8607 70.6803 20.934 70.6803 13.5455V10.6979H56.7803V16.778H63.4447C62.5688 19.3948 59.7888 21.3958 57.58 21.3958C53.4291 21.3958 50.4587 18.1633 50.4587 13.8534C50.4587 9.8513 52.934 6.46492 57.4277 6.46492C59.9792 6.46492 61.4263 7.15759 63.5208 8.96623L68.1668 4.30994C65.2345 1.65471 61.3882 0 57.085 0C49.5066 0 43.5278 6.38795 43.5278 13.9304C43.5278 21.4728 49.5066 27.8607 57.085 27.8607ZM86.7128 27.8607C94.2911 27.8607 100.27 21.4728 100.27 13.9304C100.27 6.38795 94.2911 0 86.7128 0C79.1345 0 73.1556 6.38795 73.1556 13.9304C73.1556 21.4728 79.1345 27.8607 86.7128 27.8607ZM86.7128 21.011C82.8284 21.011 79.858 17.7785 79.858 13.9304C79.858 10.0822 82.8284 6.84974 86.7128 6.84974C90.5972 6.84974 93.5676 10.0822 93.5676 13.9304C93.5676 17.7785 90.5972 21.011 86.7128 21.011Z" fill="#4E4E4E"/>
</svg>
