<svg width="130" height="31" viewBox="0 0 130 31" fill="none" xmlns="http://www.w3.org/2000/svg">
    <path fill-rule="evenodd" clip-rule="evenodd" d="M24.4896 6.93788C24.3611 7.25527 24.2086 7.54875 24.0403 7.81322C32.7745 9.77192 38.9687 17.0227 38.8716 29.6257H33.5557C33.6382 18.9432 27.4992 13.6687 19.4664 13.5028C10.7188 13.3223 5.87681 19.2072 5.31624 29.6257H0C0.681138 16.9702 6.09156 9.25907 15.5957 7.74323C15.4436 7.52033 15.1634 7.06962 15.0386 6.80731C14.2935 5.24423 14.3994 3.63469 15.275 3.21202C15.9751 2.87423 16.9552 3.39846 17.7008 4.42163C17.691 4.27107 17.6856 4.11815 17.6856 3.96288C17.6856 1.77441 18.6792 0 19.9049 0C21.1306 0 22.1241 1.77441 22.1241 3.96288C22.1241 4.01581 22.1231 4.06815 22.1219 4.12049C22.78 3.33122 23.548 2.93991 24.1339 3.18967C24.7298 3.44375 24.9833 4.29655 24.8627 5.34657C24.8332 5.84414 24.7109 6.39051 24.4896 6.93788ZM13.8897 20.9548C13.8897 20.2362 14.4091 19.6533 15.0499 19.6533C15.6905 19.6533 16.2098 20.2362 16.2098 20.9548V24.1519C16.2098 24.8708 15.6905 25.4535 15.0499 25.4535C14.4091 25.4535 13.8897 24.8708 13.8897 24.1519V20.9548ZM24.3301 19.6533C23.6895 19.6533 23.1702 20.2362 23.1702 20.9548V24.1519C23.1702 24.8708 23.6895 25.4535 24.3301 25.4535C24.9709 25.4535 25.4902 24.8708 25.4902 24.1519V20.9548C25.4902 20.2362 24.9709 19.6533 24.3301 19.6533ZM55.8273 24.1075C56.2565 23.5835 56.5947 22.9626 56.8416 22.2449C57.0881 21.5271 57.2116 20.7606 57.2116 19.9455C57.2116 19.1115 57.0881 18.3301 56.8416 17.6027C56.5947 16.8753 56.2565 16.2444 55.8273 15.7112C55.3977 15.1775 54.8906 14.7557 54.3057 14.4449C53.721 14.1345 53.0998 13.9792 52.4415 13.9792H49.3437V25.7955H52.4415C53.0998 25.7955 53.721 25.6452 54.3057 25.3444C54.8906 25.0436 55.3977 24.6314 55.8273 24.1075ZM59.2816 12.6696C60.1493 13.5815 60.8345 14.6632 61.3374 15.9146C61.8397 17.166 62.0912 18.5099 62.0912 19.9455C62.0912 21.3425 61.8397 22.6623 61.3374 23.9036C60.8345 25.1457 60.1493 26.2223 59.2816 27.1342C58.4131 28.0463 57.3897 28.764 56.211 29.288C55.0323 29.812 53.7756 30.0737 52.4415 30.0737H44.6289V9.70101H52.4415C53.7756 9.70101 55.0323 9.96763 56.211 10.5012C57.3897 11.0352 58.4131 11.7579 59.2816 12.6696ZM79.1064 22.2851C78.8568 23.0074 78.5133 23.6263 78.0762 24.1421C77.6395 24.6582 77.1177 25.0664 76.5112 25.3664C75.9047 25.6664 75.2536 25.8168 74.5578 25.8168C73.8623 25.8168 73.2113 25.6664 72.6047 25.3664C71.9982 25.0664 71.4767 24.6582 71.0397 24.1421C70.6026 23.6263 70.2591 23.0074 70.0095 22.2851C69.7599 21.5629 69.6349 20.7891 69.6349 19.9636C69.6349 19.1378 69.7599 18.364 70.0095 17.6421C70.2591 16.9195 70.6026 16.3005 71.0397 15.7848C71.4767 15.2685 71.9982 14.8605 72.6047 14.5605C73.2113 14.2604 73.8623 14.1101 74.5578 14.1101C75.2536 14.1101 75.9047 14.2604 76.5112 14.5605C77.1177 14.8605 77.6395 15.2685 78.0762 15.7848C78.5133 16.3005 78.8568 16.9195 79.1064 17.6421C79.356 18.364 79.481 19.1378 79.481 19.9636C79.481 20.7891 79.356 21.5629 79.1064 22.2851ZM83.6526 15.8945C83.1515 14.6439 82.467 13.5618 81.5994 12.6495C80.7318 11.737 79.7074 11.0176 78.5268 10.4907C77.3459 9.96426 76.0756 9.70101 74.7158 9.70101C73.3565 9.70101 72.0815 9.96426 70.8921 10.4907C69.702 11.0176 68.6733 11.737 67.8057 12.6495C66.9381 13.5618 66.2536 14.6439 65.7528 15.8945C65.2518 17.1456 65.0015 18.4764 65.0015 19.8876C65.0015 21.2984 65.2518 22.6292 65.7528 23.8803C66.2536 25.1313 66.9381 26.2129 67.8057 27.1252C68.6733 28.0378 69.702 28.7571 70.8921 29.284C72.0815 29.8106 73.3565 30.0737 74.7158 30.0737C76.0756 30.0737 77.3459 29.8106 78.5268 29.284C79.7074 28.7571 80.7318 28.0378 81.5994 27.1252C82.467 26.2129 83.1515 25.1313 83.6526 23.8803C84.1533 22.6292 84.404 21.2984 84.404 19.8876C84.404 18.4764 84.1533 17.1456 83.6526 15.8945ZM124.702 22.2851C124.453 23.0074 124.109 23.6263 123.672 24.1421C123.235 24.6582 122.713 25.0664 122.107 25.3664C121.5 25.6664 120.849 25.8168 120.154 25.8168C119.458 25.8168 118.807 25.6664 118.201 25.3664C117.594 25.0664 117.073 24.6582 116.635 24.1421C116.198 23.6263 115.855 23.0074 115.605 22.2851C115.356 21.5629 115.231 20.7891 115.231 19.9636C115.231 19.1378 115.356 18.364 115.605 17.6421C115.855 16.9195 116.198 16.3005 116.635 15.7848C117.073 15.2685 117.594 14.8605 118.201 14.5605C118.807 14.2604 119.458 14.1101 120.154 14.1101C120.849 14.1101 121.5 14.2604 122.107 14.5605C122.713 14.8605 123.235 15.2685 123.672 15.7848C124.109 16.3005 124.453 16.9195 124.702 17.6421C124.952 18.364 125.077 19.1378 125.077 19.9636C125.077 20.7891 124.952 21.5629 124.702 22.2851ZM129.248 15.8945C128.747 14.6439 128.063 13.5618 127.195 12.6495C126.328 11.737 125.303 11.0176 124.123 10.4907C122.942 9.96426 121.671 9.70101 120.312 9.70101C118.952 9.70101 117.677 9.96426 116.488 10.4907C115.298 11.0176 114.269 11.737 113.401 12.6495C112.534 13.5618 111.849 14.6439 111.349 15.8945C110.848 17.1456 110.597 18.4764 110.597 19.8876C110.597 21.2984 110.848 22.6292 111.349 23.8803C111.849 25.1313 112.534 26.2129 113.401 27.1252C114.269 28.0378 115.298 28.7571 116.488 29.284C117.677 29.8106 118.952 30.0737 120.312 30.0737C121.671 30.0737 122.942 29.8106 124.123 29.284C125.303 28.7571 126.328 28.0378 127.195 27.1252C128.063 26.2129 128.747 25.1313 129.248 23.8803C129.749 22.6292 130 21.2984 130 19.8876C130 18.4764 129.749 17.1456 129.248 15.8945ZM102.437 22.2449C102.19 22.9626 101.852 23.5835 101.423 24.1075C100.994 24.6314 100.486 25.0436 99.9015 25.3444C99.3168 25.6452 98.6956 25.7955 98.0373 25.7955H94.9395V13.9792H98.0373C98.6956 13.9792 99.3168 14.1345 99.9015 14.4449C100.486 14.7557 100.994 15.1775 101.423 15.7112C101.852 16.2444 102.19 16.8753 102.437 17.6027C102.684 18.3301 102.807 19.1115 102.807 19.9455C102.807 20.7606 102.684 21.5271 102.437 22.2449ZM106.933 15.9146C106.43 14.6632 105.745 13.5815 104.877 12.6696C104.009 11.7579 102.985 11.0352 101.807 10.5012C100.628 9.96763 99.3714 9.70101 98.0373 9.70101H90.2247V30.0737H98.0373C99.3714 30.0737 100.628 29.812 101.807 29.288C102.985 28.764 104.009 28.0463 104.877 27.1342C105.745 26.2223 106.43 25.1457 106.933 23.9036C107.435 22.6623 107.687 21.3425 107.687 19.9455C107.687 18.5099 107.435 17.166 106.933 15.9146Z" fill="#1D2D31"/>
</svg>
