<svg width="129" height="37" viewBox="0 0 129 37" fill="none" xmlns="http://www.w3.org/2000/svg">
    <path d="M39.6827 22.8414L10.6699 9.42382V0.0317383L39.6827 13.4493V22.8414Z" fill="#D2D5D8"/>
    <path d="M10.6699 36.2591L39.6827 22.8414V13.4492L10.6699 26.8669V36.2591Z" fill="#D2D5D8"/>
    <path d="M47.2142 9.45275H10.6699V0H50.5627L47.2142 9.45275Z" fill="#484848"/>
    <path d="M39.6828 22.8561H3.34845L0 13.4033H39.6828V22.8561Z" fill="#484848"/>
    <path d="M47.2142 36.2589H10.6699V26.8062H50.5627L47.2142 36.2589Z" fill="#484848"/>
    <path fill-rule="evenodd" clip-rule="evenodd" d="M84.633 2.10733H90.2829V1.18872H77.9733V2.10733H83.6308V17.6924H84.633V2.10733ZM73.6054 1.18878H64.0603V17.6924H73.8328V16.7738H65.0624V9.83227H72.518V8.91366H65.0624V2.10725H73.6054V1.18878ZM95.9092 1.18872H96.9111V8.90654H107.458V1.18872H108.46V17.6924H107.458V9.82501H96.9111V17.6924H95.9092V1.18872ZM117.05 12.7726H125.252L127.185 17.6924H128.258L121.763 1.18872H120.54L114.115 17.6924H115.138L117.05 12.7726ZM121.13 2.29963L124.889 11.8542H117.413L121.13 2.29963ZM72.1842 35.2809V36.1963H64.0659V21.3096H65.1476V35.2809H72.1842ZM88.1793 36.1963L88.2004 35.3021H80.3553V29.0948H86.8664V28.2215H80.3553V22.2038H88.1793V21.3096H79.2734V36.1963H88.1793ZM107.503 21.3096V36.1963H106.999C106.908 36.1963 106.833 36.1805 106.774 36.1489C106.714 36.1173 106.656 36.0632 106.6 35.9859L96.9489 23.0667C96.9698 23.277 96.9804 23.4769 96.9804 23.6663V36.1964H96.0352V21.3096H96.5708C96.6688 21.3096 96.744 21.3219 96.7967 21.3464C96.8492 21.3711 96.907 21.4254 96.9698 21.5094L106.6 34.3973C106.579 34.1869 106.569 33.987 106.569 33.7975V21.3096H107.503ZM128.476 31.8512C128.818 30.9324 128.99 29.8979 128.99 28.7476C128.99 27.6044 128.818 26.5734 128.476 25.6546C128.132 24.7357 127.649 23.9538 127.026 23.3084C126.403 22.6631 125.656 22.1687 124.784 21.8249C123.912 21.4815 122.951 21.3095 121.901 21.3095H116.472V36.1962H121.901C122.951 36.1962 123.912 36.0245 124.784 35.6807C125.656 35.3371 126.403 34.8426 127.026 34.1973C127.649 33.5521 128.132 32.7701 128.476 31.8512ZM127.446 25.97C127.733 26.7838 127.877 27.7098 127.877 28.7476C127.877 29.7927 127.733 30.7221 127.446 31.5354C127.159 32.3491 126.753 33.0363 126.228 33.5974C125.703 34.1588 125.073 34.5864 124.337 34.881C123.602 35.1756 122.79 35.3229 121.901 35.3229H117.553V22.1826H121.901C122.79 22.1826 123.602 22.3299 124.337 22.6245C125.073 22.9192 125.703 23.347 126.228 23.9081C126.753 24.4692 127.159 25.1565 127.446 25.97Z" fill="#484848"/>
</svg>
