<svg width="35" height="45" viewBox="0 0 35 45" fill="none" xmlns="http://www.w3.org/2000/svg">
    <path fill-rule="evenodd" clip-rule="evenodd" d="M15.0026 24.9308C9.47673 24.9308 5.00386 20.4615 5.00386 14.9603C5.00386 9.45 9.47673 4.98974 15.0026 4.98974C20.5284 4.98974 25.0013 9.45 25.0013 14.9603C25.0013 20.4615 20.5284 24.9308 15.0026 24.9308ZM15.0026 0C23.2823 0 30.0051 6.69487 30.0051 14.9603C30.0051 23.2256 23.2913 29.9205 15.0026 29.9205C6.72281 29.9205 0 23.2256 0 14.9603C0 6.69487 6.72281 0 15.0026 0ZM29.2672 30.6474C30.2391 31.6167 30.2391 33.1962 29.2672 34.1744L19.2685 44.1449C18.2965 45.1141 16.7125 45.1141 15.7316 44.1449C14.7596 43.1756 14.7596 41.5962 15.7316 40.618L25.7303 30.6474C26.7112 29.6692 28.2952 29.6692 29.2672 30.6474ZM35 2.49487C35 3.86795 33.884 4.98974 32.4981 4.98974C31.1211 4.98974 29.9961 3.87692 29.9961 2.49487C29.9961 1.11282 31.1211 0 32.5071 0C33.884 0 35 1.11282 35 2.49487Z" fill="black"/>
</svg>
