<?xml version="1.0" encoding="utf-8"?>
<!-- Generator: Adobe Illustrator 23.1.1, SVG Export Plug-In . SVG Version: 6.00 Build 0)  -->
<svg version="1.1" id="Layer_1" xmlns="http://www.w3.org/2000/svg" xmlns:xlink="http://www.w3.org/1999/xlink" x="0px" y="0px"
	 viewBox="0 0 300 100" style="enable-background:new 0 0 300 100;" xml:space="preserve">
<style type="text/css">
	.st0{fill:#16223A;}
	.st1{fill:none;}
	.st2{fill:#FFFFFF;}
	.st3{fill:url(#SVGID_1_);}
	.st4{fill:#16223A;stroke:#16223A;stroke-width:0.15;stroke-miterlimit:10;}
	.st5{fill:url(#SVGID_2_);}
	.st6{fill:url(#SVGID_3_);}
	.st7{fill:url(#SVGID_4_);}
	.st8{fill:url(#SVGID_5_);}
	.st9{fill:url(#SVGID_6_);}
</style>
<g>
	<g>
		<linearGradient id="SVGID_1_" gradientUnits="userSpaceOnUse" x1="-0.1356" y1="50" x2="78.0182" y2="50">
			<stop  offset="0" style="stop-color:#7E5821"/>
			<stop  offset="0.5484" style="stop-color:#FDD068"/>
			<stop  offset="0.5995" style="stop-color:#F7CB65"/>
			<stop  offset="0.6672" style="stop-color:#E6BD5E"/>
			<stop  offset="0.7443" style="stop-color:#CBA552"/>
			<stop  offset="0.8283" style="stop-color:#A48441"/>
			<stop  offset="0.9169" style="stop-color:#745A2B"/>
			<stop  offset="1" style="stop-color:#3F2D14"/>
		</linearGradient>
		<path class="st3" d="M0.44,8.73v50.19c0,4.74,1.32,9.39,3.83,13.41c4.53,7.23,14.22,17.78,34.57,26.55
			c0.08,0.1,0.16,0.14,0.24,0.11c0,0,0,0,0,0c0,0,0,0,0,0c0.09,0.04,0.17,0,0.24-0.11c20.46-8.77,30.2-19.3,34.77-26.53
			c2.54-4.03,3.87-8.7,3.87-13.47V8.73L39.09,1L0.44,8.73z"/>
		<g>
			<path class="st0" d="M4.11,50.17v8.75c0,4.08,1.13,8.04,3.27,11.46c4.18,6.67,13.03,16.26,31.5,24.51V50.17H4.11z"/>
			<polygon class="st0" points="39.1,4.74 39.1,50.17 74.3,50.17 74.3,11.74 			"/>
		</g>
		<g>
			<g>
				<path class="st4" d="M25.61,17.57v0.47h-3.06v22.74h3.06v0.47H14.68v-0.47h3.06V18.04h-3.06v-0.47H25.61z"/>
			</g>
		</g>
		<g>
			<path class="st4" d="M63.52,62.77c-0.58-2.17-1.44-3.86-2.59-5.07c-1.15-1.21-2.69-1.8-4.62-1.78c-1.53,0-2.76,0.29-3.69,0.88
				c-0.93,0.59-1.65,1.35-2.14,2.29c-0.5,0.94-0.83,2.02-0.98,3.22c-0.15,1.21-0.23,2.43-0.23,3.67v2.89c0,2.02,0.13,3.71,0.4,5.09
				c0.27,1.38,0.68,2.48,1.25,3.33c0.56,0.84,1.3,1.44,2.19,1.81c0.9,0.37,1.97,0.55,3.21,0.55c1.02,0,1.83-0.18,2.43-0.55
				c0.6-0.37,1.06-0.86,1.38-1.5c0.32-0.63,0.53-1.38,0.61-2.24s0.13-1.81,0.13-2.82v-1.26h-3.43v-0.46h10.27v0.46h-2.16v7.61h-0.6
				c-0.04-0.27-0.17-0.46-0.38-0.58c-0.21-0.12-0.45-0.18-0.71-0.18c-0.53,0-1.04,0.11-1.51,0.32c-0.48,0.21-0.99,0.44-1.55,0.68
				c-0.55,0.24-1.19,0.47-1.91,0.68c-0.72,0.21-1.59,0.31-2.61,0.31c-1.62,0-3.18-0.31-4.69-0.95c-1.51-0.63-2.83-1.5-3.97-2.59
				c-1.14-1.1-2.06-2.39-2.74-3.87c-0.69-1.48-1.03-3.09-1.03-4.82c0-1.88,0.38-3.59,1.15-5.12c0.77-1.53,1.75-2.84,2.94-3.92
				c1.2-1.09,2.53-1.92,4.01-2.51c1.47-0.59,2.92-0.88,4.34-0.88c0.66,0,1.31,0.07,1.93,0.2c0.62,0.13,1.2,0.27,1.73,0.41
				s1.01,0.28,1.43,0.42c0.42,0.13,0.78,0.2,1.07,0.2c0.31,0,0.53-0.05,0.66-0.15c0.13-0.1,0.26-0.28,0.37-0.55h0.56v6.78H63.52z"/>
		</g>
	</g>
	<g>
		<path class="st0" d="M99.6,48.59c-0.06,0-0.06-0.7,0-0.7h2.47c0.06,0,0.12-0.03,0.12-0.12V28.77c0-0.09-0.06-0.12-0.12-0.12H99.6
			c-0.06,0-0.06-0.7,0-0.7h9.37c0.06,0,0.06,0.7,0,0.7h-2.48c-0.12,0-0.17,0.03-0.17,0.12v19.01c0,0.09,0.06,0.12,0.17,0.12h2.48
			c0.06,0,0.06,0.7,0,0.7H99.6z"/>
		<path class="st0" d="M128.96,48.59h-15.63c-0.06,0-0.06-0.7,0-0.7h2.48c0.06,0,0.12-0.03,0.12-0.12V28.77
			c0-0.09-0.06-0.12-0.12-0.12h-2.48c-0.06,0-0.06-0.7,0-0.7h9.37c0.06,0,0.06,0.7,0,0.7h-2.47c-0.06,0-0.12,0.03-0.12,0.12v19.01
			c0,0.09,0.06,0.12,0.12,0.12h1.83c4.19,0,6.35-3.7,6.35-6.67c0-0.03,0.64-0.03,0.64,0v7.28
			C129.05,48.56,129.02,48.59,128.96,48.59z"/>
		<path class="st0" d="M148.51,48.59h-15.63c-0.06,0-0.06-0.7,0-0.7h2.47c0.06,0,0.12-0.03,0.12-0.12V28.77
			c0-0.09-0.06-0.12-0.12-0.12h-2.47c-0.06,0-0.06-0.7,0-0.7h9.37c0.06,0,0.06,0.7,0,0.7h-2.48c-0.06,0-0.12,0.03-0.12,0.12v19.01
			c0,0.09,0.06,0.12,0.12,0.12h1.83c4.19,0,6.35-3.7,6.35-6.67c0-0.03,0.64-0.03,0.64,0v7.28C148.6,48.56,148.57,48.59,148.51,48.59
			z"/>
		<path class="st0" d="M168.41,28.65c-0.06,0-0.12,0.03-0.12,0.12v13.71c0,4.02-2.04,6.61-6.69,6.61c-4.13,0-7.1-1.86-7.1-6.2V28.77
			c0-0.09-0.06-0.12-0.15-0.12h-2.45c-0.06,0-0.06-0.7,0-0.7h9.34c0.06,0,0.06,0.7,0,0.7h-2.44c-0.15,0-0.2,0.03-0.2,0.12v14.12
			c0,3.35,0.79,5.24,3.73,5.24c3.67,0,5.27-2.27,5.27-5.65V28.77c0-0.09-0.06-0.12-0.17-0.12h-2.62c-0.06,0-0.06-0.7,0-0.7h6.08
			c0.06,0,0.06,0.7,0,0.7H168.41z"/>
		<path class="st0" d="M182.66,49.08c-1.83,0-3.61-1.19-4.57-1.19c-0.82,0-1.46,0.58-1.51,1.11c-0.06,0.09-0.67,0.09-0.67,0v-7.28
			c0-0.09,0.67-0.09,0.67,0c0,2.33,2.47,6.69,6.06,6.69c3.2,0,4.4-1.75,4.4-3.64c0-2.85-1.6-3.11-5.88-4.74
			c-2.59-0.99-4.63-2.45-4.63-5.91c0-3.93,2.59-6.67,5.38-6.67c1.8,0,1.8,0.79,3.38,0.79c0.79,0,1.08-0.38,1.13-0.7
			c0-0.09,0.64-0.09,0.64,0v5.71c0,0.06-0.64,0.06-0.64,0c0-2.77-1.89-5.09-4.48-5.09c-2.21,0-3.46,1.37-3.46,3.35
			c0,2.1,1.46,2.82,4.92,4.16c3.58,1.4,5.79,2.71,5.79,6.26C189.18,45.3,187,49.08,182.66,49.08z"/>
		<path class="st0" d="M191.91,48.59c-0.06,0-0.06-0.7,0-0.7h2.48c0.06,0,0.12-0.03,0.12-0.12V28.77c0-0.09-0.06-0.12-0.12-0.12
			h-2.48c-0.06,0-0.06-0.7,0-0.7h9.37c0.06,0,0.06,0.7,0,0.7h-2.47c-0.12,0-0.17,0.03-0.17,0.12v19.01c0,0.09,0.06,0.12,0.17,0.12
			h2.47c0.06,0,0.06,0.7,0,0.7H191.91z"/>
		<path class="st0" d="M214.93,49.08c-4.95,0-8.99-4.83-8.99-10.8c0-5.79,3.78-10.83,8.99-10.83c5.01,0,9.02,4.83,9.02,10.83
			C223.95,44.25,219.93,49.08,214.93,49.08z M217.75,29.2c-0.73-0.79-1.69-1.05-2.82-1.05c-1.11,0-2.04,0.26-2.77,1.05
			c-1.25,1.34-1.66,4.22-1.66,9.08c0,5.59,0.44,7.68,1.66,9.05c0.76,0.82,1.66,1.08,2.77,1.08c1.13,0,2.07-0.23,2.82-1.08
			c1.19-1.34,1.63-3.46,1.63-9.05C219.38,33.42,218.97,30.54,217.75,29.2z"/>
		<path class="st0" d="M245.07,28.65c-0.12,0-0.17,0.03-0.17,0.12v20.2c0,0.09-0.61,0.12-0.7,0l-12.37-19.82v18.63
			c0,0.09,0,0.12,0.12,0.12h2.47c0.06,0,0.06,0.7,0,0.7h-5.91c-0.09,0-0.09-0.7,0-0.7h2.41c0.17,0,0.17-0.03,0.17-0.12V28.77
			c0-0.09,0-0.12-0.17-0.12h-2.41c-0.09,0-0.09-0.7,0-0.7h7.07c0.2,0,0.35,0.15,0.58,0.52l8.06,13.13V28.77
			c0-0.09-0.06-0.12-0.17-0.12h-2.41c-0.12,0-0.12-0.7,0-0.7h5.88c0.03,0,0.03,0.7,0,0.7H245.07z"/>
		<path class="st0" d="M251,48.59c-0.06,0-0.06-0.7,0-0.7h2.48c0.06,0,0.12-0.03,0.12-0.12V28.77c0-0.09-0.06-0.12-0.12-0.12H251
			c-0.06,0-0.06-0.7,0-0.7h9.37c0.06,0,0.06,0.7,0,0.7h-2.47c-0.12,0-0.17,0.03-0.17,0.12v19.01c0,0.09,0.06,0.12,0.17,0.12h2.47
			c0.06,0,0.06,0.7,0,0.7H251z"/>
		<path class="st0" d="M271.95,49.08c-1.83,0-3.61-1.19-4.57-1.19c-0.82,0-1.46,0.58-1.51,1.11c-0.06,0.09-0.67,0.09-0.67,0v-7.28
			c0-0.09,0.67-0.09,0.67,0c0,2.33,2.47,6.69,6.05,6.69c3.2,0,4.4-1.75,4.4-3.64c0-2.85-1.6-3.11-5.88-4.74
			c-2.59-0.99-4.63-2.45-4.63-5.91c0-3.93,2.59-6.67,5.39-6.67c1.8,0,1.8,0.79,3.38,0.79c0.79,0,1.08-0.38,1.13-0.7
			c0-0.09,0.64-0.09,0.64,0v5.71c0,0.06-0.64,0.06-0.64,0c0-2.77-1.89-5.09-4.48-5.09c-2.21,0-3.46,1.37-3.46,3.35
			c0,2.1,1.46,2.82,4.92,4.16c3.58,1.4,5.79,2.71,5.79,6.26C278.47,45.3,276.28,49.08,271.95,49.08z"/>
		<path class="st0" d="M298.95,35.35c0-3.38-1.72-6.69-5.76-6.69h-0.26c-0.12,0-0.17,0.03-0.17,0.12v19.01
			c0,0.09,0.06,0.12,0.17,0.12h2.42c0.06,0,0.06,0.7,0,0.7h-9.31c-0.03,0-0.03-0.7,0-0.7h2.44c0.12,0,0.18-0.03,0.18-0.12V28.77
			c0-0.09-0.06-0.12-0.18-0.12h-0.29c-4.02,0-5.59,3.32-5.59,6.69c0,0.06-0.64,0.06-0.64,0v-7.31c0-0.03,0.03-0.09,0.09-0.09h17.46
			c0.06,0,0.06,0.06,0.06,0.09v7.31C299.56,35.4,298.95,35.4,298.95,35.35z"/>
		<path class="st0" d="M172.65,71.19h0.92v4.9c-0.57,0.55-1.27,0.97-2.08,1.25c-0.82,0.29-1.68,0.43-2.59,0.43
			c-1.3,0-2.47-0.29-3.51-0.86c-1.04-0.57-1.86-1.37-2.45-2.37c-0.59-1.01-0.89-2.14-0.89-3.41c0-1.26,0.3-2.39,0.89-3.4
			s1.41-1.8,2.45-2.37c1.04-0.57,2.22-0.86,3.52-0.86c0.96,0,1.84,0.15,2.65,0.46c0.81,0.3,1.49,0.75,2.07,1.34l-0.6,0.64
			c-0.55-0.55-1.16-0.95-1.84-1.19c-0.68-0.24-1.43-0.37-2.25-0.37c-1.12,0-2.14,0.25-3.04,0.75c-0.91,0.5-1.61,1.19-2.12,2.07
			c-0.51,0.88-0.77,1.86-0.77,2.94c0,1.07,0.26,2.05,0.78,2.93c0.52,0.88,1.22,1.57,2.12,2.08c0.9,0.51,1.91,0.76,3.03,0.76
			c1.5,0,2.74-0.4,3.72-1.2V71.19z"/>
		<path class="st0" d="M188.25,77.68l-3.12-4.38c-0.46,0.06-0.89,0.1-1.27,0.1h-3.74v4.28h-0.95V64.59h4.69
			c1.65,0,2.94,0.39,3.87,1.17c0.93,0.78,1.4,1.86,1.4,3.24c0,1.03-0.27,1.9-0.8,2.61c-0.53,0.71-1.29,1.2-2.27,1.49l3.27,4.58
			H188.25z M183.85,72.56c1.4,0,2.46-0.31,3.2-0.93c0.73-0.62,1.1-1.49,1.1-2.63s-0.37-2.01-1.1-2.63c-0.74-0.62-1.8-0.93-3.2-0.93
			h-3.74v7.11H183.85z"/>
		<path class="st0" d="M196.1,76.91c-1.03-0.58-1.85-1.38-2.44-2.39c-0.59-1.01-0.89-2.14-0.89-3.38c0-1.25,0.3-2.37,0.89-3.38
			c0.59-1.01,1.41-1.8,2.44-2.38c1.03-0.58,2.19-0.87,3.48-0.87s2.44,0.29,3.48,0.86c1.03,0.57,1.85,1.36,2.44,2.37
			s0.89,2.14,0.89,3.4c0,1.26-0.3,2.39-0.89,3.41c-0.59,1.01-1.41,1.8-2.44,2.37c-1.03,0.57-2.19,0.86-3.48,0.86
			S197.13,77.48,196.1,76.91z M202.55,76.15c0.88-0.5,1.58-1.19,2.09-2.07c0.51-0.88,0.77-1.86,0.77-2.95
			c0-1.08-0.26-2.07-0.77-2.94c-0.51-0.88-1.21-1.57-2.09-2.07c-0.89-0.5-1.88-0.75-2.97-0.75c-1.1,0-2.09,0.25-2.98,0.75
			c-0.89,0.5-1.59,1.19-2.1,2.07c-0.51,0.88-0.77,1.86-0.77,2.94c0,1.09,0.26,2.07,0.77,2.95c0.51,0.88,1.21,1.57,2.1,2.07
			c0.89,0.5,1.89,0.75,2.98,0.75C200.67,76.9,201.66,76.65,202.55,76.15z"/>
		<path class="st0" d="M212.36,76.33c-0.92-0.96-1.38-2.36-1.38-4.21v-7.54h0.95v7.5c0,1.61,0.37,2.81,1.1,3.61
			c0.74,0.8,1.8,1.2,3.2,1.2c1.38,0,2.44-0.4,3.18-1.2c0.73-0.8,1.1-2,1.1-3.61v-7.5h0.95v7.54c0,1.84-0.46,3.25-1.38,4.21
			c-0.92,0.96-2.21,1.44-3.87,1.44C214.57,77.77,213.28,77.3,212.36,76.33z"/>
		<path class="st0" d="M235.9,65.76c0.94,0.78,1.4,1.86,1.4,3.24c0,1.37-0.47,2.45-1.4,3.23c-0.94,0.78-2.23,1.17-3.87,1.17h-3.74
			v4.28h-0.95V64.59h4.69C233.67,64.59,234.96,64.98,235.9,65.76z M235.22,71.62c0.74-0.61,1.1-1.48,1.1-2.62s-0.37-2.01-1.1-2.63
			c-0.73-0.62-1.8-0.93-3.2-0.93h-3.74v7.09h3.74C233.42,72.54,234.49,72.23,235.22,71.62z"/>
	</g>
</g>
</svg>
