<svg width="368" height="140" viewBox="0 0 368 140" fill="none" xmlns="http://www.w3.org/2000/svg">
<path d="M312.965 18.15C311.585 18.15 310.585 17.735 309.965 16.905C309.345 16.075 309.035 14.87 309.035 13.29V6.975H310.715V13.32C310.715 14.49 310.89 15.33 311.24 15.84C311.59 16.34 312.165 16.59 312.965 16.59C313.765 16.59 314.335 16.345 314.675 15.855C315.025 15.355 315.2 14.51 315.2 13.32V6.975H316.895V13.29C316.895 14.86 316.565 16.065 315.905 16.905C315.255 17.735 314.275 18.15 312.965 18.15ZM321.367 18.15C320.887 18.15 320.387 18.09 319.867 17.97C319.357 17.84 318.992 17.69 318.772 17.52L319.312 16.245C319.912 16.665 320.597 16.875 321.367 16.875C322.137 16.875 322.522 16.65 322.522 16.2C322.522 16 322.442 15.845 322.282 15.735C322.122 15.625 321.837 15.495 321.427 15.345L320.857 15.135C320.257 14.895 319.782 14.61 319.432 14.28C319.082 13.94 318.907 13.495 318.907 12.945C318.907 12.315 319.152 11.825 319.642 11.475C320.142 11.115 320.807 10.935 321.637 10.935C322.047 10.935 322.447 10.98 322.837 11.07C323.237 11.16 323.542 11.275 323.752 11.415L323.167 12.705C323.037 12.575 322.827 12.465 322.537 12.375C322.257 12.275 321.942 12.225 321.592 12.225C320.882 12.225 320.527 12.44 320.527 12.87C320.527 13.11 320.622 13.295 320.812 13.425C321.002 13.545 321.312 13.68 321.742 13.83C321.782 13.84 321.937 13.895 322.207 13.995C322.847 14.245 323.322 14.53 323.632 14.85C323.942 15.17 324.097 15.58 324.097 16.08C324.097 16.76 323.837 17.275 323.317 17.625C322.807 17.975 322.157 18.15 321.367 18.15ZM328.824 18.15C328.204 18.15 327.629 18.005 327.099 17.715C326.579 17.415 326.159 16.995 325.839 16.455C325.529 15.905 325.374 15.265 325.374 14.535C325.374 13.815 325.509 13.185 325.779 12.645C326.059 12.105 326.454 11.685 326.964 11.385C327.474 11.085 328.074 10.935 328.764 10.935C329.164 10.935 329.539 11.005 329.889 11.145C330.239 11.285 330.534 11.46 330.774 11.67C331.014 11.87 331.174 12.07 331.254 12.27L331.284 11.115H332.829V18H331.299L331.269 16.785C331.099 17.145 330.789 17.465 330.339 17.745C329.889 18.015 329.384 18.15 328.824 18.15ZM329.094 16.8C329.664 16.8 330.144 16.605 330.534 16.215C330.924 15.815 331.119 15.295 331.119 14.655V14.55C331.119 14.12 331.029 13.735 330.849 13.395C330.669 13.055 330.424 12.79 330.114 12.6C329.804 12.41 329.464 12.315 329.094 12.315C328.454 12.315 327.959 12.525 327.609 12.945C327.259 13.355 327.084 13.89 327.084 14.55C327.084 15.22 327.254 15.765 327.594 16.185C327.944 16.595 328.444 16.8 329.094 16.8ZM338.352 21.6C337.842 21.6 337.337 21.53 336.837 21.39C336.347 21.25 335.997 21.12 335.787 21L336.147 19.5C336.807 19.93 337.527 20.145 338.307 20.145C338.907 20.145 339.412 20 339.822 19.71C340.232 19.42 340.442 18.855 340.452 18.015V16.785C340.242 17.175 339.902 17.5 339.432 17.76C338.962 18.02 338.442 18.15 337.872 18.15C337.272 18.15 336.722 18.005 336.222 17.715C335.722 17.415 335.327 16.99 335.037 16.44C334.747 15.89 334.602 15.25 334.602 14.52C334.602 13.82 334.737 13.2 335.007 12.66C335.287 12.11 335.682 11.685 336.192 11.385C336.702 11.085 337.297 10.935 337.977 10.935C338.377 10.935 338.752 11.005 339.102 11.145C339.452 11.285 339.747 11.46 339.987 11.67C340.237 11.87 340.402 12.07 340.482 12.27L340.512 11.115H342.042V17.955C342.042 19.125 341.742 20.025 341.142 20.655C340.542 21.285 339.612 21.6 338.352 21.6ZM338.322 16.785C338.892 16.785 339.372 16.59 339.762 16.2C340.152 15.8 340.347 15.28 340.347 14.64V14.535C340.347 14.105 340.257 13.72 340.077 13.38C339.897 13.04 339.652 12.775 339.342 12.585C339.032 12.395 338.692 12.3 338.322 12.3C337.682 12.3 337.187 12.51 336.837 12.93C336.487 13.34 336.312 13.875 336.312 14.535C336.312 15.205 336.482 15.75 336.822 16.17C337.172 16.58 337.672 16.785 338.322 16.785ZM347.374 18.15C346.554 18.15 345.869 17.99 345.319 17.67C344.769 17.34 344.364 16.905 344.104 16.365C343.844 15.815 343.714 15.215 343.714 14.565C343.714 13.835 343.864 13.195 344.164 12.645C344.474 12.095 344.899 11.675 345.439 11.385C345.979 11.085 346.589 10.935 347.269 10.935C348.329 10.935 349.114 11.23 349.624 11.82C350.144 12.4 350.404 13.22 350.404 14.28C350.404 14.55 350.389 14.83 350.359 15.12H345.409C345.519 15.73 345.734 16.17 346.054 16.44C346.384 16.71 346.839 16.845 347.419 16.845C347.899 16.845 348.294 16.805 348.604 16.725C348.914 16.645 349.199 16.535 349.459 16.395L349.954 17.55C349.704 17.71 349.364 17.85 348.934 17.97C348.504 18.09 347.984 18.15 347.374 18.15ZM348.829 13.995C348.839 13.375 348.704 12.94 348.424 12.69C348.144 12.43 347.744 12.3 347.224 12.3C346.174 12.3 345.569 12.865 345.409 13.995H348.829Z" fill="white"/>
<path d="M314.315 133.15C313.225 133.15 312.25 132.9 311.39 132.4C310.53 131.9 309.855 131.215 309.365 130.345C308.885 129.465 308.645 128.48 308.645 127.39C308.645 126.33 308.89 125.375 309.38 124.525C309.87 123.675 310.55 123.01 311.42 122.53C312.29 122.05 313.27 121.81 314.36 121.81C314.95 121.81 315.48 121.865 315.95 121.975C316.43 122.075 316.82 122.195 317.12 122.335C317.42 122.465 317.625 122.58 317.735 122.68L317.075 124.09C316.455 123.59 315.54 123.34 314.33 123.34C313.53 123.34 312.835 123.515 312.245 123.865C311.655 124.215 311.205 124.69 310.895 125.29C310.585 125.89 310.43 126.56 310.43 127.3C310.43 128.14 310.595 128.89 310.925 129.55C311.265 130.21 311.73 130.725 312.32 131.095C312.92 131.455 313.595 131.635 314.345 131.635C314.815 131.635 315.265 131.58 315.695 131.47C316.125 131.35 316.49 131.165 316.79 130.915V128.785H314.525V127.24H318.455V131.56C318.095 132.01 317.55 132.39 316.82 132.7C316.1 133 315.265 133.15 314.315 133.15ZM323.272 133.15C322.652 133.15 322.077 133.005 321.547 132.715C321.027 132.415 320.607 131.995 320.287 131.455C319.977 130.905 319.822 130.265 319.822 129.535C319.822 128.815 319.957 128.185 320.227 127.645C320.507 127.105 320.902 126.685 321.412 126.385C321.922 126.085 322.522 125.935 323.212 125.935C323.612 125.935 323.987 126.005 324.337 126.145C324.687 126.285 324.982 126.46 325.222 126.67C325.462 126.87 325.622 127.07 325.702 127.27L325.732 126.115H327.277V133H325.747L325.717 131.785C325.547 132.145 325.237 132.465 324.787 132.745C324.337 133.015 323.832 133.15 323.272 133.15ZM323.542 131.8C324.112 131.8 324.592 131.605 324.982 131.215C325.372 130.815 325.567 130.295 325.567 129.655V129.55C325.567 129.12 325.477 128.735 325.297 128.395C325.117 128.055 324.872 127.79 324.562 127.6C324.252 127.41 323.912 127.315 323.542 127.315C322.902 127.315 322.407 127.525 322.057 127.945C321.707 128.355 321.532 128.89 321.532 129.55C321.532 130.22 321.702 130.765 322.042 131.185C322.392 131.595 322.892 131.8 323.542 131.8ZM331.826 133.15C331.346 133.15 330.846 133.09 330.326 132.97C329.816 132.84 329.451 132.69 329.231 132.52L329.771 131.245C330.371 131.665 331.056 131.875 331.826 131.875C332.596 131.875 332.981 131.65 332.981 131.2C332.981 131 332.901 130.845 332.741 130.735C332.581 130.625 332.296 130.495 331.886 130.345L331.316 130.135C330.716 129.895 330.241 129.61 329.891 129.28C329.541 128.94 329.366 128.495 329.366 127.945C329.366 127.315 329.611 126.825 330.101 126.475C330.601 126.115 331.266 125.935 332.096 125.935C332.506 125.935 332.906 125.98 333.296 126.07C333.696 126.16 334.001 126.275 334.211 126.415L333.626 127.705C333.496 127.575 333.286 127.465 332.996 127.375C332.716 127.275 332.401 127.225 332.051 127.225C331.341 127.225 330.986 127.44 330.986 127.87C330.986 128.11 331.081 128.295 331.271 128.425C331.461 128.545 331.771 128.68 332.201 128.83C332.241 128.84 332.396 128.895 332.666 128.995C333.306 129.245 333.781 129.53 334.091 129.85C334.401 130.17 334.556 130.58 334.556 131.08C334.556 131.76 334.296 132.275 333.776 132.625C333.266 132.975 332.616 133.15 331.826 133.15ZM340.56 127.405H339.45V126.115H340.56V124.63C340.56 123.73 340.775 123.035 341.205 122.545C341.645 122.045 342.285 121.795 343.125 121.795C343.465 121.795 343.85 121.89 344.28 122.08L343.965 123.61C343.895 123.53 343.785 123.455 343.635 123.385C343.495 123.305 343.34 123.265 343.17 123.265C342.5 123.265 342.16 123.7 342.15 124.57V126.115H343.77V127.405H342.15V133H340.56V127.405ZM348.604 133.15C347.784 133.15 347.099 132.99 346.549 132.67C345.999 132.34 345.594 131.905 345.334 131.365C345.074 130.815 344.944 130.215 344.944 129.565C344.944 128.835 345.094 128.195 345.394 127.645C345.704 127.095 346.129 126.675 346.669 126.385C347.209 126.085 347.819 125.935 348.499 125.935C349.559 125.935 350.344 126.23 350.854 126.82C351.374 127.4 351.634 128.22 351.634 129.28C351.634 129.55 351.619 129.83 351.589 130.12H346.639C346.749 130.73 346.964 131.17 347.284 131.44C347.614 131.71 348.069 131.845 348.649 131.845C349.129 131.845 349.524 131.805 349.834 131.725C350.144 131.645 350.429 131.535 350.689 131.395L351.184 132.55C350.934 132.71 350.594 132.85 350.164 132.97C349.734 133.09 349.214 133.15 348.604 133.15ZM350.059 128.995C350.069 128.375 349.934 127.94 349.654 127.69C349.374 127.43 348.974 127.3 348.454 127.3C347.404 127.3 346.799 127.865 346.639 128.995H350.059ZM356.588 133.15C355.768 133.15 355.083 132.99 354.533 132.67C353.983 132.34 353.578 131.905 353.318 131.365C353.058 130.815 352.928 130.215 352.928 129.565C352.928 128.835 353.078 128.195 353.378 127.645C353.688 127.095 354.113 126.675 354.653 126.385C355.193 126.085 355.803 125.935 356.483 125.935C357.543 125.935 358.328 126.23 358.838 126.82C359.358 127.4 359.618 128.22 359.618 129.28C359.618 129.55 359.603 129.83 359.573 130.12H354.623C354.733 130.73 354.948 131.17 355.268 131.44C355.598 131.71 356.053 131.845 356.633 131.845C357.113 131.845 357.508 131.805 357.818 131.725C358.128 131.645 358.413 131.535 358.673 131.395L359.168 132.55C358.918 132.71 358.578 132.85 358.148 132.97C357.718 133.09 357.198 133.15 356.588 133.15ZM358.043 128.995C358.053 128.375 357.918 127.94 357.638 127.69C357.358 127.43 356.958 127.3 356.438 127.3C355.388 127.3 354.783 127.865 354.623 128.995H358.043ZM363.686 133.15C363.206 133.15 362.706 133.09 362.186 132.97C361.676 132.84 361.311 132.69 361.091 132.52L361.631 131.245C362.231 131.665 362.916 131.875 363.686 131.875C364.456 131.875 364.841 131.65 364.841 131.2C364.841 131 364.761 130.845 364.601 130.735C364.441 130.625 364.156 130.495 363.746 130.345L363.176 130.135C362.576 129.895 362.101 129.61 361.751 129.28C361.401 128.94 361.226 128.495 361.226 127.945C361.226 127.315 361.471 126.825 361.961 126.475C362.461 126.115 363.126 125.935 363.956 125.935C364.366 125.935 364.766 125.98 365.156 126.07C365.556 126.16 365.861 126.275 366.071 126.415L365.486 127.705C365.356 127.575 365.146 127.465 364.856 127.375C364.576 127.275 364.261 127.225 363.911 127.225C363.201 127.225 362.846 127.44 362.846 127.87C362.846 128.11 362.941 128.295 363.131 128.425C363.321 128.545 363.631 128.68 364.061 128.83C364.101 128.84 364.256 128.895 364.526 128.995C365.166 129.245 365.641 129.53 365.951 129.85C366.261 130.17 366.416 130.58 366.416 131.08C366.416 131.76 366.156 132.275 365.636 132.625C365.126 132.975 364.476 133.15 363.686 133.15Z" fill="white"/>
<path d="M1 1.87779C26 -1.95554 87 4.37744 154 69.8778C195.938 110.877 251 127.378 294.5 127.378" stroke="black" stroke-width="2"/>
<path d="M1 1.87779C26 -1.95554 87 4.37744 154 69.8778C195.938 110.877 251 127.378 294.5 127.378" stroke="url(#paint0_linear)" stroke-width="2"/>
<path d="M295 13.2552C270 9.4219 209 15.7549 142 81.2552C100.062 122.255 45 138.755 1.5 138.755" stroke="url(#paint1_linear)" stroke-width="2"/>
<defs>
<linearGradient id="paint0_linear" x1="147.75" y1="1" x2="147.75" y2="127.378" gradientUnits="userSpaceOnUse">
<stop stop-color="#5EF0EE"/>
<stop offset="0.651042" stop-color="#21AA87"/>
<stop offset="1" stop-color="#44F2B3"/>
</linearGradient>
<linearGradient id="paint1_linear" x1="148.25" y1="12.3774" x2="148.25" y2="138.755" gradientUnits="userSpaceOnUse">
<stop stop-color="#B5FFE7"/>
<stop offset="1" stop-color="#8CFFF8"/>
</linearGradient>
</defs>
</svg>
