<svg width="390" height="63" viewBox="0 0 390 63" fill="none" xmlns="http://www.w3.org/2000/svg">
<path d="M331.965 17.15C330.585 17.15 329.585 16.735 328.965 15.905C328.345 15.075 328.035 13.87 328.035 12.29V5.975H329.715V12.32C329.715 13.49 329.89 14.33 330.24 14.84C330.59 15.34 331.165 15.59 331.965 15.59C332.765 15.59 333.335 15.345 333.675 14.855C334.025 14.355 334.2 13.51 334.2 12.32V5.975H335.895V12.29C335.895 13.86 335.565 15.065 334.905 15.905C334.255 16.735 333.275 17.15 331.965 17.15ZM340.367 17.15C339.887 17.15 339.387 17.09 338.867 16.97C338.357 16.84 337.992 16.69 337.772 16.52L338.312 15.245C338.912 15.665 339.597 15.875 340.367 15.875C341.137 15.875 341.522 15.65 341.522 15.2C341.522 15 341.442 14.845 341.282 14.735C341.122 14.625 340.837 14.495 340.427 14.345L339.857 14.135C339.257 13.895 338.782 13.61 338.432 13.28C338.082 12.94 337.907 12.495 337.907 11.945C337.907 11.315 338.152 10.825 338.642 10.475C339.142 10.115 339.807 9.935 340.637 9.935C341.047 9.935 341.447 9.98 341.837 10.07C342.237 10.16 342.542 10.275 342.752 10.415L342.167 11.705C342.037 11.575 341.827 11.465 341.537 11.375C341.257 11.275 340.942 11.225 340.592 11.225C339.882 11.225 339.527 11.44 339.527 11.87C339.527 12.11 339.622 12.295 339.812 12.425C340.002 12.545 340.312 12.68 340.742 12.83C340.782 12.84 340.937 12.895 341.207 12.995C341.847 13.245 342.322 13.53 342.632 13.85C342.942 14.17 343.097 14.58 343.097 15.08C343.097 15.76 342.837 16.275 342.317 16.625C341.807 16.975 341.157 17.15 340.367 17.15ZM347.824 17.15C347.204 17.15 346.629 17.005 346.099 16.715C345.579 16.415 345.159 15.995 344.839 15.455C344.529 14.905 344.374 14.265 344.374 13.535C344.374 12.815 344.509 12.185 344.779 11.645C345.059 11.105 345.454 10.685 345.964 10.385C346.474 10.085 347.074 9.935 347.764 9.935C348.164 9.935 348.539 10.005 348.889 10.145C349.239 10.285 349.534 10.46 349.774 10.67C350.014 10.87 350.174 11.07 350.254 11.27L350.284 10.115H351.829V17H350.299L350.269 15.785C350.099 16.145 349.789 16.465 349.339 16.745C348.889 17.015 348.384 17.15 347.824 17.15ZM348.094 15.8C348.664 15.8 349.144 15.605 349.534 15.215C349.924 14.815 350.119 14.295 350.119 13.655V13.55C350.119 13.12 350.029 12.735 349.849 12.395C349.669 12.055 349.424 11.79 349.114 11.6C348.804 11.41 348.464 11.315 348.094 11.315C347.454 11.315 346.959 11.525 346.609 11.945C346.259 12.355 346.084 12.89 346.084 13.55C346.084 14.22 346.254 14.765 346.594 15.185C346.944 15.595 347.444 15.8 348.094 15.8ZM357.352 20.6C356.842 20.6 356.337 20.53 355.837 20.39C355.347 20.25 354.997 20.12 354.787 20L355.147 18.5C355.807 18.93 356.527 19.145 357.307 19.145C357.907 19.145 358.412 19 358.822 18.71C359.232 18.42 359.442 17.855 359.452 17.015V15.785C359.242 16.175 358.902 16.5 358.432 16.76C357.962 17.02 357.442 17.15 356.872 17.15C356.272 17.15 355.722 17.005 355.222 16.715C354.722 16.415 354.327 15.99 354.037 15.44C353.747 14.89 353.602 14.25 353.602 13.52C353.602 12.82 353.737 12.2 354.007 11.66C354.287 11.11 354.682 10.685 355.192 10.385C355.702 10.085 356.297 9.935 356.977 9.935C357.377 9.935 357.752 10.005 358.102 10.145C358.452 10.285 358.747 10.46 358.987 10.67C359.237 10.87 359.402 11.07 359.482 11.27L359.512 10.115H361.042V16.955C361.042 18.125 360.742 19.025 360.142 19.655C359.542 20.285 358.612 20.6 357.352 20.6ZM357.322 15.785C357.892 15.785 358.372 15.59 358.762 15.2C359.152 14.8 359.347 14.28 359.347 13.64V13.535C359.347 13.105 359.257 12.72 359.077 12.38C358.897 12.04 358.652 11.775 358.342 11.585C358.032 11.395 357.692 11.3 357.322 11.3C356.682 11.3 356.187 11.51 355.837 11.93C355.487 12.34 355.312 12.875 355.312 13.535C355.312 14.205 355.482 14.75 355.822 15.17C356.172 15.58 356.672 15.785 357.322 15.785ZM366.374 17.15C365.554 17.15 364.869 16.99 364.319 16.67C363.769 16.34 363.364 15.905 363.104 15.365C362.844 14.815 362.714 14.215 362.714 13.565C362.714 12.835 362.864 12.195 363.164 11.645C363.474 11.095 363.899 10.675 364.439 10.385C364.979 10.085 365.589 9.935 366.269 9.935C367.329 9.935 368.114 10.23 368.624 10.82C369.144 11.4 369.404 12.22 369.404 13.28C369.404 13.55 369.389 13.83 369.359 14.12H364.409C364.519 14.73 364.734 15.17 365.054 15.44C365.384 15.71 365.839 15.845 366.419 15.845C366.899 15.845 367.294 15.805 367.604 15.725C367.914 15.645 368.199 15.535 368.459 15.395L368.954 16.55C368.704 16.71 368.364 16.85 367.934 16.97C367.504 17.09 366.984 17.15 366.374 17.15ZM367.829 12.995C367.839 12.375 367.704 11.94 367.424 11.69C367.144 11.43 366.744 11.3 366.224 11.3C365.174 11.3 364.569 11.865 364.409 12.995H367.829Z" fill="white"/>
<path d="M332.315 62.15C331.225 62.15 330.25 61.9 329.39 61.4C328.53 60.9 327.855 60.215 327.365 59.345C326.885 58.465 326.645 57.48 326.645 56.39C326.645 55.33 326.89 54.375 327.38 53.525C327.87 52.675 328.55 52.01 329.42 51.53C330.29 51.05 331.27 50.81 332.36 50.81C332.95 50.81 333.48 50.865 333.95 50.975C334.43 51.075 334.82 51.195 335.12 51.335C335.42 51.465 335.625 51.58 335.735 51.68L335.075 53.09C334.455 52.59 333.54 52.34 332.33 52.34C331.53 52.34 330.835 52.515 330.245 52.865C329.655 53.215 329.205 53.69 328.895 54.29C328.585 54.89 328.43 55.56 328.43 56.3C328.43 57.14 328.595 57.89 328.925 58.55C329.265 59.21 329.73 59.725 330.32 60.095C330.92 60.455 331.595 60.635 332.345 60.635C332.815 60.635 333.265 60.58 333.695 60.47C334.125 60.35 334.49 60.165 334.79 59.915V57.785H332.525V56.24H336.455V60.56C336.095 61.01 335.55 61.39 334.82 61.7C334.1 62 333.265 62.15 332.315 62.15ZM341.272 62.15C340.652 62.15 340.077 62.005 339.547 61.715C339.027 61.415 338.607 60.995 338.287 60.455C337.977 59.905 337.822 59.265 337.822 58.535C337.822 57.815 337.957 57.185 338.227 56.645C338.507 56.105 338.902 55.685 339.412 55.385C339.922 55.085 340.522 54.935 341.212 54.935C341.612 54.935 341.987 55.005 342.337 55.145C342.687 55.285 342.982 55.46 343.222 55.67C343.462 55.87 343.622 56.07 343.702 56.27L343.732 55.115H345.277V62H343.747L343.717 60.785C343.547 61.145 343.237 61.465 342.787 61.745C342.337 62.015 341.832 62.15 341.272 62.15ZM341.542 60.8C342.112 60.8 342.592 60.605 342.982 60.215C343.372 59.815 343.567 59.295 343.567 58.655V58.55C343.567 58.12 343.477 57.735 343.297 57.395C343.117 57.055 342.872 56.79 342.562 56.6C342.252 56.41 341.912 56.315 341.542 56.315C340.902 56.315 340.407 56.525 340.057 56.945C339.707 57.355 339.532 57.89 339.532 58.55C339.532 59.22 339.702 59.765 340.042 60.185C340.392 60.595 340.892 60.8 341.542 60.8ZM349.826 62.15C349.346 62.15 348.846 62.09 348.326 61.97C347.816 61.84 347.451 61.69 347.231 61.52L347.771 60.245C348.371 60.665 349.056 60.875 349.826 60.875C350.596 60.875 350.981 60.65 350.981 60.2C350.981 60 350.901 59.845 350.741 59.735C350.581 59.625 350.296 59.495 349.886 59.345L349.316 59.135C348.716 58.895 348.241 58.61 347.891 58.28C347.541 57.94 347.366 57.495 347.366 56.945C347.366 56.315 347.611 55.825 348.101 55.475C348.601 55.115 349.266 54.935 350.096 54.935C350.506 54.935 350.906 54.98 351.296 55.07C351.696 55.16 352.001 55.275 352.211 55.415L351.626 56.705C351.496 56.575 351.286 56.465 350.996 56.375C350.716 56.275 350.401 56.225 350.051 56.225C349.341 56.225 348.986 56.44 348.986 56.87C348.986 57.11 349.081 57.295 349.271 57.425C349.461 57.545 349.771 57.68 350.201 57.83C350.241 57.84 350.396 57.895 350.666 57.995C351.306 58.245 351.781 58.53 352.091 58.85C352.401 59.17 352.556 59.58 352.556 60.08C352.556 60.76 352.296 61.275 351.776 61.625C351.266 61.975 350.616 62.15 349.826 62.15ZM358.56 56.405H357.45V55.115H358.56V53.63C358.56 52.73 358.775 52.035 359.205 51.545C359.645 51.045 360.285 50.795 361.125 50.795C361.465 50.795 361.85 50.89 362.28 51.08L361.965 52.61C361.895 52.53 361.785 52.455 361.635 52.385C361.495 52.305 361.34 52.265 361.17 52.265C360.5 52.265 360.16 52.7 360.15 53.57V55.115H361.77V56.405H360.15V62H358.56V56.405ZM366.604 62.15C365.784 62.15 365.099 61.99 364.549 61.67C363.999 61.34 363.594 60.905 363.334 60.365C363.074 59.815 362.944 59.215 362.944 58.565C362.944 57.835 363.094 57.195 363.394 56.645C363.704 56.095 364.129 55.675 364.669 55.385C365.209 55.085 365.819 54.935 366.499 54.935C367.559 54.935 368.344 55.23 368.854 55.82C369.374 56.4 369.634 57.22 369.634 58.28C369.634 58.55 369.619 58.83 369.589 59.12H364.639C364.749 59.73 364.964 60.17 365.284 60.44C365.614 60.71 366.069 60.845 366.649 60.845C367.129 60.845 367.524 60.805 367.834 60.725C368.144 60.645 368.429 60.535 368.689 60.395L369.184 61.55C368.934 61.71 368.594 61.85 368.164 61.97C367.734 62.09 367.214 62.15 366.604 62.15ZM368.059 57.995C368.069 57.375 367.934 56.94 367.654 56.69C367.374 56.43 366.974 56.3 366.454 56.3C365.404 56.3 364.799 56.865 364.639 57.995H368.059ZM374.588 62.15C373.768 62.15 373.083 61.99 372.533 61.67C371.983 61.34 371.578 60.905 371.318 60.365C371.058 59.815 370.928 59.215 370.928 58.565C370.928 57.835 371.078 57.195 371.378 56.645C371.688 56.095 372.113 55.675 372.653 55.385C373.193 55.085 373.803 54.935 374.483 54.935C375.543 54.935 376.328 55.23 376.838 55.82C377.358 56.4 377.618 57.22 377.618 58.28C377.618 58.55 377.603 58.83 377.573 59.12H372.623C372.733 59.73 372.948 60.17 373.268 60.44C373.598 60.71 374.053 60.845 374.633 60.845C375.113 60.845 375.508 60.805 375.818 60.725C376.128 60.645 376.413 60.535 376.673 60.395L377.168 61.55C376.918 61.71 376.578 61.85 376.148 61.97C375.718 62.09 375.198 62.15 374.588 62.15ZM376.043 57.995C376.053 57.375 375.918 56.94 375.638 56.69C375.358 56.43 374.958 56.3 374.438 56.3C373.388 56.3 372.783 56.865 372.623 57.995H376.043ZM381.686 62.15C381.206 62.15 380.706 62.09 380.186 61.97C379.676 61.84 379.311 61.69 379.091 61.52L379.631 60.245C380.231 60.665 380.916 60.875 381.686 60.875C382.456 60.875 382.841 60.65 382.841 60.2C382.841 60 382.761 59.845 382.601 59.735C382.441 59.625 382.156 59.495 381.746 59.345L381.176 59.135C380.576 58.895 380.101 58.61 379.751 58.28C379.401 57.94 379.226 57.495 379.226 56.945C379.226 56.315 379.471 55.825 379.961 55.475C380.461 55.115 381.126 54.935 381.956 54.935C382.366 54.935 382.766 54.98 383.156 55.07C383.556 55.16 383.861 55.275 384.071 55.415L383.486 56.705C383.356 56.575 383.146 56.465 382.856 56.375C382.576 56.275 382.261 56.225 381.911 56.225C381.201 56.225 380.846 56.44 380.846 56.87C380.846 57.11 380.941 57.295 381.131 57.425C381.321 57.545 381.631 57.68 382.061 57.83C382.101 57.84 382.256 57.895 382.526 57.995C383.166 58.245 383.641 58.53 383.951 58.85C384.261 59.17 384.416 59.58 384.416 60.08C384.416 60.76 384.156 61.275 383.636 61.625C383.126 61.975 382.476 62.15 381.686 62.15Z" fill="white"/>
<path d="M1 7.34409C27.4305 5.84143 91.921 8.32396 162.755 34.0001C207.093 50.0719 265.305 56.54 311.294 56.54" stroke="black" stroke-width="2"/>
<path d="M1 7.34409C27.4305 5.84143 91.921 8.32396 162.755 34.0001C207.093 50.0719 265.305 56.54 311.294 56.54" stroke="url(#paint0_linear)" stroke-width="2"/>
<path d="M311.823 11.8041C285.392 10.3014 220.902 12.7839 150.068 38.46C105.73 54.5319 47.5177 61 1.5286 61" stroke="url(#paint1_linear)" stroke-width="2"/>
<defs>
<linearGradient id="paint0_linear" x1="156.147" y1="7" x2="156.147" y2="56.54" gradientUnits="userSpaceOnUse">
<stop stop-color="#5EF0EE"/>
<stop offset="0.651042" stop-color="#21AA87"/>
<stop offset="1" stop-color="#44F2B3"/>
</linearGradient>
<linearGradient id="paint1_linear" x1="156.676" y1="11.46" x2="156.676" y2="61" gradientUnits="userSpaceOnUse">
<stop stop-color="#B5FFE7"/>
<stop offset="1" stop-color="#8CFFF8"/>
</linearGradient>
</defs>
</svg>
