<svg
  width="360"
  height="621"
  viewBox="0 0 360 621"
  fill="none"
  xmlns="http://www.w3.org/2000/svg"
>
<rect width="360" height="621" fill="#1C2833" />
<path d="M212 173.5H360" stroke="#151E26" stroke-width="4" />
<path
    d="M212 180.5H281C287.627 180.5 293 185.873 293 192.5V621"
    stroke="#151E26"
    stroke-width="4"
  />
<g filter="url(#filter0_d)">
<circle cx="293" cy="495" r="15" fill="#070A0D" />
<circle
      cx="293"
      cy="495"
      r="14.75"
      stroke="white"
      stroke-opacity="0.15"
      stroke-width="0.5"
    />
</g>
<path
    d="M301.791 489.146C301.479 488.908 301.107 488.584 300.43 488.503C299.795 488.421 299.147 488.833 298.71 489.106C298.272 489.378 297.445 490.178 297.104 490.422C296.762 490.665 295.887 490.891 294.478 491.709C293.07 492.526 287.544 495.959 287.544 495.959L288.982 495.976L282.569 499.171H283.21L282.287 499.849C282.287 499.849 283.102 500.058 283.786 499.64V499.832C283.786 499.832 291.422 496.921 292.896 497.675L291.997 497.93C292.075 497.93 293.525 498.023 293.525 498.023C293.525 498.023 293.573 498.898 294.448 499.461C295.323 500.017 295.341 500.324 295.341 500.324C295.341 500.324 294.886 500.504 294.886 500.73C294.886 500.73 295.557 500.533 296.181 500.551C296.804 500.568 297.349 500.73 297.349 500.73C297.349 500.73 297.301 500.487 296.696 500.324C296.085 500.156 295.491 499.524 295.198 499.176C294.904 498.829 294.7 498.208 294.952 497.588C295.162 497.06 295.893 496.77 297.403 496.017C299.183 495.124 299.591 494.463 299.843 493.947C300.094 493.431 300.466 492.405 300.676 491.923C300.94 491.303 301.263 490.972 301.533 490.775C301.797 490.578 303.001 490.143 303.001 490.143C303.001 490.143 302.084 489.372 301.791 489.146Z"
    fill="white"
  />
<path
    d="M160 177H61C54.3726 177 49 182.373 49 189V621"
    stroke="#151E26"
    stroke-width="4"
  />
<path
    d="M160 184H111C104.373 184 99 189.373 99 196V481C99 487.627 104.373 493 111 493H162C168.627 493 174 498.373 174 505V621"
    stroke="#151E26"
    stroke-width="4"
  />
<path
    d="M160 170H61C54.3726 170 49 164.627 49 158L49 0"
    stroke="#151E26"
    stroke-width="4"
  />
<path
    d="M212 173.5H249C255.627 173.5 261 168.127 261 161.5L261 0"
    stroke="#151E26"
    stroke-width="4"
  />
<g filter="url(#filter1_d)">
<circle cx="261" cy="63" r="15" fill="#070A0D" />
<circle
      cx="261"
      cy="63"
      r="14.75"
      stroke="white"
      stroke-opacity="0.15"
      stroke-width="0.5"
    />
</g>
<path
    fill-rule="evenodd"
    clip-rule="evenodd"
    d="M261.518 52.2856L267.431 56.0041V70.7333L261.482 73.9398L254.574 69.7389V55.9804L261.518 52.2856ZM255.563 57.1231L260.021 59.6929L255.563 62.2627V57.1231ZM255.563 63.9642V69.1928L261.512 72.8104L266.442 70.1531V63.9642L261.003 67.0997L255.563 63.9642ZM266.442 62.2627L261.984 59.6929L266.442 57.1231V62.2627ZM265.987 56.2541L261.003 59.1271L256.08 56.2893L261.476 53.4178L265.987 56.2541ZM260.508 60.5436L256.05 63.1134L260.508 65.6832V60.5436ZM261.497 65.6832L265.955 63.1134L261.497 60.5436V65.6832Z"
    fill="white"
  />
<g filter="url(#filter2_d)">
<circle cx="49" cy="471" r="15" fill="#070A0D" />
<circle
      cx="49"
      cy="471"
      r="14.75"
      stroke="white"
      stroke-opacity="0.15"
      stroke-width="0.5"
    />
</g>
<path
    fill-rule="evenodd"
    clip-rule="evenodd"
    d="M45.3981 469.438L49.0046 465.832L52.6131 469.44L54.7116 467.341L49.0046 461.635L43.2996 467.339L45.3981 469.438ZM43.9166 470.919L41.8177 468.82L39.7188 470.919L41.8176 473.017L43.9166 470.919ZM49.0058 476.006L45.3993 472.401L43.2977 474.496L43.3006 474.499L49.0058 480.203L54.7128 474.497L54.7138 474.496L52.6141 472.399L49.0058 476.006ZM56.1912 473.018L58.2901 470.92L56.1913 468.821L54.0924 470.92L56.1912 473.018ZM51.1356 470.918H51.1348L51.1367 470.919L51.1356 470.92L49.0062 473.05L46.8786 470.922L46.8757 470.919L46.8786 470.916L47.2516 470.543L47.4323 470.362H47.4325L49.0062 468.788L51.1356 470.918Z"
    fill="#F3BA2F"
  />
<g filter="url(#filter3_d)">
<circle cx="174" cy="543" r="15" fill="#070A0D" />
<circle
      cx="174"
      cy="543"
      r="14.75"
      stroke="white"
      stroke-opacity="0.15"
      stroke-width="0.5"
    />
</g>
<path
    fill-rule="evenodd"
    clip-rule="evenodd"
    d="M175.236 535.162L176.497 537.431C176.804 538.001 176.804 538.928 176.497 539.476L172.266 546.942C171.948 547.512 171.159 547.97 170.523 547.97H170.293H168.956H167.005C166.238 547.97 165.92 547.422 166.304 546.74L173.318 534.19C173.702 533.508 174.316 533.508 174.699 534.19L175.236 535.162ZM177.92 542.471C178.303 541.789 178.917 541.789 179.301 542.471L181.69 546.751C182.074 547.422 181.756 547.98 180.989 547.98H176.188C175.432 547.98 175.114 547.422 175.498 546.751L177.92 542.471Z"
    fill="#E3453D"
  />
<g filter="url(#filter4_d)">
<circle cx="49" cy="124" r="15" fill="#070A0D" />
<circle
      cx="49"
      cy="124"
      r="14.75"
      stroke="white"
      stroke-opacity="0.15"
      stroke-width="0.5"
    />
</g>
<path
    d="M49.0002 114L48.8691 114.456V127.68L49.0002 127.814L54.9988 124.185L49.0002 114Z"
    fill="#595959"
  />
<path
    d="M49.0006 114L43.002 124.185L49.0006 127.814V121.395V114Z"
    fill="#B3B3B3"
  />
<path
    d="M48.9996 128.976L48.9258 129.068V133.779L48.9996 134L55.0019 125.35L48.9996 128.976Z"
    fill="#636362"
  />
<path d="M48.9987 133.999V128.976L43 125.349L48.9987 133.999Z" fill="#B3B3B3" />
<path d="M49 127.814L54.9986 124.185L49 121.395V127.814Z" fill="#3B3B3B" />
<path d="M43 124.185L48.9986 127.814V121.395L43 124.185Z" fill="#5C5C5C" />
<g filter="url(#filter5_d)">
<circle cx="327" cy="173" r="15" fill="#070A0D" />
<circle
      cx="327"
      cy="173"
      r="14.75"
      stroke="white"
      stroke-opacity="0.15"
      stroke-width="0.5"
    />
</g>
<path
    d="M327.242 163.691C325.476 163.698 323.784 164.404 322.535 165.656C321.285 166.908 320.581 168.604 320.574 170.374C320.574 171.112 320.693 171.845 320.926 172.546C321.009 172.775 321.177 172.963 321.395 173.072C321.613 173.181 321.864 173.203 322.097 173.133C322.323 173.046 322.508 172.877 322.614 172.659C322.719 172.441 322.738 172.19 322.666 171.959C322.468 171.414 322.38 170.836 322.406 170.257C322.434 169.322 322.732 168.416 323.265 167.648C323.797 166.88 324.541 166.284 325.406 165.932C326.27 165.581 327.218 165.489 328.134 165.667C329.05 165.846 329.894 166.287 330.564 166.938C331.233 167.589 331.7 168.421 331.906 169.333C332.113 170.245 332.05 171.197 331.726 172.074C331.402 172.951 330.83 173.715 330.081 174.272C329.332 174.829 328.437 175.155 327.506 175.212C327.506 175.212 326.573 175.271 326.104 175.329C325.933 175.354 325.762 175.387 325.594 175.43C325.582 175.439 325.567 175.443 325.552 175.442C325.537 175.441 325.523 175.435 325.512 175.424C325.501 175.413 325.495 175.399 325.494 175.384C325.493 175.369 325.497 175.354 325.506 175.342L325.653 174.55L326.531 170.563C326.581 170.325 326.536 170.077 326.404 169.874C326.272 169.67 326.065 169.527 325.828 169.477C325.591 169.426 325.344 169.472 325.141 169.604C324.938 169.736 324.795 169.944 324.745 170.181C324.745 170.181 322.653 179.916 322.653 180.004C322.624 180.121 322.62 180.243 322.64 180.363C322.66 180.482 322.704 180.596 322.769 180.697C322.835 180.799 322.92 180.886 323.02 180.954C323.12 181.021 323.233 181.067 323.352 181.09C323.469 181.118 323.591 181.122 323.71 181.101C323.829 181.081 323.943 181.036 324.044 180.97C324.146 180.904 324.233 180.819 324.3 180.718C324.367 180.617 324.413 180.504 324.435 180.385C324.465 180.268 324.728 178.977 324.728 178.977C324.825 178.501 325.065 178.067 325.416 177.733C325.767 177.399 326.211 177.18 326.69 177.107C326.891 177.078 327.74 177.019 327.74 177.019C329.437 176.862 331.009 176.059 332.134 174.775C333.258 173.492 333.849 171.826 333.786 170.119C333.722 168.412 333.008 166.795 331.791 165.599C330.574 164.404 328.946 163.721 327.242 163.691Z"
    fill="white"
  />
<path
    d="M328.905 179.081C328.761 179.052 328.612 179.052 328.468 179.08C328.323 179.109 328.186 179.165 328.063 179.247C327.941 179.329 327.836 179.434 327.754 179.557C327.672 179.68 327.616 179.818 327.587 179.962C327.556 180.107 327.554 180.257 327.582 180.402C327.61 180.547 327.666 180.686 327.748 180.809C327.83 180.932 327.936 181.038 328.059 181.119C328.182 181.201 328.321 181.257 328.466 181.284C328.61 181.316 328.759 181.32 328.905 181.293C329.05 181.266 329.189 181.209 329.312 181.127C329.435 181.044 329.54 180.938 329.62 180.813C329.7 180.689 329.755 180.549 329.779 180.403C329.829 180.112 329.766 179.814 329.603 179.568C329.441 179.323 329.191 179.149 328.905 179.081Z"
    fill="#E6007A"
  />
<defs>
<filter
      id="filter0_d"
      x="254"
      y="465"
      width="78"
      height="78"
      filterUnits="userSpaceOnUse"
      color-interpolation-filters="sRGB"
    >
<feFlood flood-opacity="0" result="BackgroundImageFix" />
<feColorMatrix
        in="SourceAlpha"
        type="matrix"
        values="0 0 0 0 0 0 0 0 0 0 0 0 0 0 0 0 0 0 127 0"
      />
<feOffset dy="9" />
<feGaussianBlur stdDeviation="12" />
<feColorMatrix
        type="matrix"
        values="0 0 0 0 0.0823529 0 0 0 0 0.117647 0 0 0 0 0.14902 0 0 0 0.5 0"
      />
<feBlend mode="normal" in2="BackgroundImageFix" result="effect1_dropShadow" />
<feBlend
        mode="normal"
        in="SourceGraphic"
        in2="effect1_dropShadow"
        result="shape"
      />
</filter>
<filter
      id="filter1_d"
      x="222"
      y="33"
      width="78"
      height="78"
      filterUnits="userSpaceOnUse"
      color-interpolation-filters="sRGB"
    >
<feFlood flood-opacity="0" result="BackgroundImageFix" />
<feColorMatrix
        in="SourceAlpha"
        type="matrix"
        values="0 0 0 0 0 0 0 0 0 0 0 0 0 0 0 0 0 0 127 0"
      />
<feOffset dy="9" />
<feGaussianBlur stdDeviation="12" />
<feColorMatrix
        type="matrix"
        values="0 0 0 0 0.0823529 0 0 0 0 0.117647 0 0 0 0 0.14902 0 0 0 0.5 0"
      />
<feBlend mode="normal" in2="BackgroundImageFix" result="effect1_dropShadow" />
<feBlend
        mode="normal"
        in="SourceGraphic"
        in2="effect1_dropShadow"
        result="shape"
      />
</filter>
<filter
      id="filter2_d"
      x="10"
      y="441"
      width="78"
      height="78"
      filterUnits="userSpaceOnUse"
      color-interpolation-filters="sRGB"
    >
<feFlood flood-opacity="0" result="BackgroundImageFix" />
<feColorMatrix
        in="SourceAlpha"
        type="matrix"
        values="0 0 0 0 0 0 0 0 0 0 0 0 0 0 0 0 0 0 127 0"
      />
<feOffset dy="9" />
<feGaussianBlur stdDeviation="12" />
<feColorMatrix
        type="matrix"
        values="0 0 0 0 0.0823529 0 0 0 0 0.117647 0 0 0 0 0.14902 0 0 0 0.5 0"
      />
<feBlend mode="normal" in2="BackgroundImageFix" result="effect1_dropShadow" />
<feBlend
        mode="normal"
        in="SourceGraphic"
        in2="effect1_dropShadow"
        result="shape"
      />
</filter>
<filter
      id="filter3_d"
      x="135"
      y="513"
      width="78"
      height="78"
      filterUnits="userSpaceOnUse"
      color-interpolation-filters="sRGB"
    >
<feFlood flood-opacity="0" result="BackgroundImageFix" />
<feColorMatrix
        in="SourceAlpha"
        type="matrix"
        values="0 0 0 0 0 0 0 0 0 0 0 0 0 0 0 0 0 0 127 0"
      />
<feOffset dy="9" />
<feGaussianBlur stdDeviation="12" />
<feColorMatrix
        type="matrix"
        values="0 0 0 0 0.0823529 0 0 0 0 0.117647 0 0 0 0 0.14902 0 0 0 0.5 0"
      />
<feBlend mode="normal" in2="BackgroundImageFix" result="effect1_dropShadow" />
<feBlend
        mode="normal"
        in="SourceGraphic"
        in2="effect1_dropShadow"
        result="shape"
      />
</filter>
<filter
      id="filter4_d"
      x="10"
      y="94"
      width="78"
      height="78"
      filterUnits="userSpaceOnUse"
      color-interpolation-filters="sRGB"
    >
<feFlood flood-opacity="0" result="BackgroundImageFix" />
<feColorMatrix
        in="SourceAlpha"
        type="matrix"
        values="0 0 0 0 0 0 0 0 0 0 0 0 0 0 0 0 0 0 127 0"
      />
<feOffset dy="9" />
<feGaussianBlur stdDeviation="12" />
<feColorMatrix
        type="matrix"
        values="0 0 0 0 0.0823529 0 0 0 0 0.117647 0 0 0 0 0.14902 0 0 0 0.5 0"
      />
<feBlend mode="normal" in2="BackgroundImageFix" result="effect1_dropShadow" />
<feBlend
        mode="normal"
        in="SourceGraphic"
        in2="effect1_dropShadow"
        result="shape"
      />
</filter>
<filter
      id="filter5_d"
      x="288"
      y="143"
      width="78"
      height="78"
      filterUnits="userSpaceOnUse"
      color-interpolation-filters="sRGB"
    >
<feFlood flood-opacity="0" result="BackgroundImageFix" />
<feColorMatrix
        in="SourceAlpha"
        type="matrix"
        values="0 0 0 0 0 0 0 0 0 0 0 0 0 0 0 0 0 0 127 0"
      />
<feOffset dy="9" />
<feGaussianBlur stdDeviation="12" />
<feColorMatrix
        type="matrix"
        values="0 0 0 0 0.0823529 0 0 0 0 0.117647 0 0 0 0 0.14902 0 0 0 0.5 0"
      />
<feBlend mode="normal" in2="BackgroundImageFix" result="effect1_dropShadow" />
<feBlend
        mode="normal"
        in="SourceGraphic"
        in2="effect1_dropShadow"
        result="shape"
      />
</filter>
</defs>
</svg>
