<svg width="72" height="56" viewBox="0 0 72 56" fill="none" xmlns="http://www.w3.org/2000/svg">
    <path d="M66.7103 21.171C67.2928 21.171 67.765 20.6987 67.765 20.1163V6.81836C67.765 5.84903 66.9765 5.06055 66.0072 5.06055H17.4473C16.8648 5.06055 16.3926 5.53277 16.3926 6.11523C16.3926 6.6977 16.8648 7.16992 17.4473 7.16992H65.6556V20.1163C65.6556 20.6987 66.1279 21.171 66.7103 21.171Z" fill="black"/>
    <path d="M66.7266 0.824707H5.27344C2.36559 0.824707 0 3.1903 0 6.09814V49.9021C0 52.81 2.36559 55.1756 5.27344 55.1756H35.9491C36.5316 55.1756 37.0038 54.7033 37.0038 54.1209C37.0038 53.5384 36.5316 53.0662 35.9491 53.0662H5.27344C3.5287 53.0662 2.10938 51.6469 2.10938 49.9021V6.09814C2.10938 4.35341 3.5287 2.93408 5.27344 2.93408H66.7266C68.4713 2.93408 69.8906 4.35341 69.8906 6.09814V49.9021C69.8906 51.6469 68.4713 53.0662 66.7266 53.0662H40.868C40.2855 53.0662 39.8133 53.5384 39.8133 54.1209C39.8133 54.7033 40.2855 55.1756 40.868 55.1756H66.7266C69.6344 55.1756 72 52.81 72 49.9021V6.09814C72 3.19044 69.6344 0.824707 66.7266 0.824707Z" fill="black"/>
    <path d="M12.4362 5.06104H5.99316C5.02384 5.06104 4.23535 5.84952 4.23535 6.81885V49.1825C4.23535 50.1519 5.02384 50.9403 5.99316 50.9403H66.006C66.9753 50.9403 67.7638 50.1519 67.7638 49.1825V25.0804C67.7638 24.4979 67.2916 24.0257 66.7091 24.0257C66.1267 24.0257 65.6544 24.4979 65.6544 25.0804V48.831H6.34473V7.17041H12.4362C13.0186 7.17041 13.4909 6.69819 13.4909 6.11572C13.4909 5.53325 13.0188 5.06104 12.4362 5.06104Z" fill="black"/>
    <path d="M26.453 31.7002C27.0355 31.7002 27.5077 31.228 27.5077 30.6455C27.5077 30.063 27.0355 29.5908 26.453 29.5908H20.7354C20.1529 29.5908 19.6807 30.063 19.6807 30.6455V44.7528C19.6807 45.3353 20.1529 45.8075 20.7354 45.8075C21.3178 45.8075 21.79 45.3353 21.79 44.7528V38.6203H25.9988C26.5813 38.6203 27.0535 38.1481 27.0535 37.5656C27.0535 36.9832 26.5813 36.511 25.9988 36.511H21.79V31.7002H26.453Z" fill="black"/>
    <path d="M38.6326 43.6854H33.7539V38.7539H38.1951C38.7776 38.7539 39.2498 38.2817 39.2498 37.6992C39.2498 37.1168 38.7776 36.6446 38.1951 36.6446H33.7539V31.7131H38.6326C39.2151 31.7131 39.6873 31.2409 39.6873 30.6584C39.6873 30.076 39.2151 29.6038 38.6326 29.6038H32.6992C32.1168 29.6038 31.6445 30.076 31.6445 30.6584V44.74C31.6445 45.3225 32.1168 45.7947 32.6992 45.7947H38.6326C39.2151 45.7947 39.6873 45.3225 39.6873 44.74C39.6873 44.1576 39.2151 43.6854 38.6326 43.6854Z" fill="black"/>
    <path d="M51.2664 43.6854H46.3877V38.7539H50.8289C51.4114 38.7539 51.8836 38.2817 51.8836 37.6992C51.8836 37.1168 51.4114 36.6446 50.8289 36.6446H46.3877V31.7131H51.2664C51.8489 31.7131 52.3211 31.2409 52.3211 30.6584C52.3211 30.076 51.8489 29.6038 51.2664 29.6038H45.333C44.7505 29.6038 44.2783 30.076 44.2783 30.6584V44.74C44.2783 45.3225 44.7505 45.7947 45.333 45.7947H51.2664C51.8489 45.7947 52.3211 45.3225 52.3211 44.74C52.3211 44.1576 51.8489 43.6854 51.2664 43.6854Z" fill="black"/>
    <path d="M20.6787 26.4104C20.0962 26.4104 19.624 25.9382 19.624 25.3558V11.2748C19.624 10.8133 19.9241 10.4053 20.3648 10.268C20.8056 10.1307 21.2844 10.2957 21.5465 10.6755L29.4832 22.1685L29.3778 11.2587C29.3722 10.6762 29.8397 10.1995 30.4222 10.1938H30.4326C31.0103 10.1938 31.4814 10.6593 31.487 11.2383L31.6189 24.8702C31.6189 25.5144 31.2738 26.0319 30.7397 26.1987C30.2224 26.3604 29.6699 26.1492 29.3316 25.6609L21.7334 14.6581V25.3558C21.7334 25.9384 21.2612 26.4104 20.6787 26.4104Z" fill="black"/>
    <path d="M44.2675 26.4096C39.7966 26.4096 36.1592 22.7722 36.1592 18.3012C36.1592 13.8301 39.7966 10.1929 44.2675 10.1929C48.7384 10.1929 52.3758 13.8303 52.3758 18.3012C52.3758 22.7721 48.7385 26.4096 44.2675 26.4096ZM44.2675 12.3024C40.9597 12.3024 38.2686 14.9935 38.2686 18.3013C38.2686 21.6091 40.9597 24.3004 44.2675 24.3004C47.5753 24.3004 50.2664 21.6092 50.2664 18.3013C50.2664 14.9934 47.5754 12.3024 44.2675 12.3024Z" fill="black"/>
</svg>
