<svg width="85" height="85" viewBox="0 0 85 85" fill="none" xmlns="http://www.w3.org/2000/svg">
    <path d="M83.7505 41.2552H63.7026V38.4222H69.1116C69.7993 38.4222 70.3567 37.8648 70.3567 37.1771C70.3567 36.4895 69.7993 35.932 69.1116 35.932H63.7026V33.0989H67.4579C68.8569 33.0989 70.1723 32.5542 71.1614 31.5649L79.3504 23.376C79.8839 23.6418 80.4755 23.7832 81.0891 23.7832C82.1326 23.7832 83.1136 23.3768 83.8516 22.639C84.5895 21.9011 84.9959 20.9201 84.9959 19.8765C84.9959 18.8329 84.5895 17.8519 83.8516 17.114C83.1138 16.3761 82.1326 15.9696 81.0891 15.9696C80.0455 15.9696 79.0645 16.3761 78.3265 17.1138C77.5886 17.8518 77.1822 18.8328 77.1822 19.8764C77.1822 20.49 77.3236 21.0815 77.5894 21.615L69.4005 29.804C68.8817 30.3228 68.1917 30.6087 67.4578 30.6087H63.7025V27.8614C63.7025 24.2396 60.7558 21.2931 57.1342 21.2931H54.3869V10.2705C55.9322 9.74933 57.0485 8.28722 57.0485 6.56829C57.0485 4.41405 55.2959 2.66158 53.1418 2.66158C50.9877 2.66158 49.2351 4.41422 49.2351 6.56829C49.2351 8.28722 50.3514 9.74917 51.8967 10.2705V21.293H49.0638V15.884C49.0638 15.1963 48.5063 14.6389 47.8186 14.6389C47.131 14.6389 46.5735 15.1963 46.5735 15.884V21.293H43.7404V1.24513C43.7404 0.557484 43.183 0 42.4953 0C41.8077 0 41.2502 0.557484 41.2502 1.24513V21.293H38.4173V15.884C38.4173 15.1963 37.8598 14.6389 37.1722 14.6389C36.4845 14.6389 35.927 15.1963 35.927 15.884V21.293H33.0941V17.5378C33.0941 16.1388 32.5493 14.8235 31.56 13.8343L23.3682 5.64258C24.0919 4.18146 23.8493 2.3596 22.6342 1.14435C21.1109 -0.37885 18.6324 -0.378684 17.1092 1.14435C15.586 2.66756 15.586 5.14602 17.1092 6.66939C17.8709 7.43091 18.8713 7.81175 19.8717 7.81175C20.4674 7.81175 21.0621 7.67346 21.6074 7.40335L29.7992 15.5953C30.3182 16.1141 30.6039 16.804 30.6039 17.5378V21.293H27.8566C27.3013 21.293 26.749 21.3627 26.2151 21.5C25.5492 21.6713 25.1482 22.3502 25.3196 23.0162C25.4909 23.6823 26.1699 24.0832 26.8358 23.9117C27.167 23.8266 27.5103 23.7832 27.8565 23.7832H57.1342C59.3829 23.7832 61.2122 25.6127 61.2122 27.8613V57.1391C61.2122 57.485 61.169 57.8281 61.084 58.159C60.9129 58.825 61.314 59.5037 61.9799 59.6749C62.0838 59.7016 62.188 59.7144 62.2908 59.7144C62.8455 59.7144 63.3513 59.341 63.4958 58.7789C63.6329 58.2456 63.7025 57.6938 63.7025 57.139V54.3917H74.725C75.2461 55.937 76.7082 57.0533 78.4271 57.0533C80.5814 57.0533 82.3338 55.3008 82.3338 53.1466C82.3338 50.9924 80.5812 49.2399 78.4271 49.2399C76.7082 49.2399 75.2463 50.3562 74.725 51.9015H63.7025V49.0684H69.1114C69.7991 49.0684 70.3566 48.5109 70.3566 47.8233C70.3566 47.1356 69.7991 46.5782 69.1114 46.5782H63.7025V43.7454H83.7505C84.4381 43.7454 84.9956 43.1879 84.9956 42.5003C84.9956 41.8126 84.4381 41.2552 83.7505 41.2552ZM80.0873 18.8749C80.3549 18.6073 80.7105 18.4601 81.0889 18.4601C81.4672 18.4601 81.8228 18.6073 82.0905 18.8749C82.3581 19.1426 82.5053 19.4982 82.5053 19.8765C82.5053 20.2549 82.3581 20.6105 82.0905 20.8781C81.8228 21.1457 81.4672 21.293 81.0889 21.293C80.7105 21.293 80.3549 21.1457 80.0873 20.8781C79.8197 20.6105 79.6724 20.2549 79.6724 19.8765C79.6724 19.4982 79.8197 19.1424 80.0873 18.8749ZM20.8731 4.90862C20.321 5.46062 19.4223 5.46079 18.8698 4.90845C18.3175 4.35611 18.3175 3.45746 18.8698 2.90529C19.1461 2.62904 19.5086 2.49108 19.8716 2.49108C20.2343 2.49108 20.597 2.62921 20.8731 2.90529C21.4255 3.45763 21.4255 4.35628 20.8731 4.90862ZM53.1418 7.98474C52.3609 7.98474 51.7253 7.34923 51.7253 6.56829C51.7253 5.78734 52.3607 5.15183 53.1418 5.15183C53.9229 5.15183 54.5583 5.78734 54.5583 6.56829C54.5583 7.34923 53.9227 7.98474 53.1418 7.98474ZM78.4273 51.7303C79.2084 51.7303 79.8438 52.3658 79.8438 53.1468C79.8438 53.9279 79.2082 54.5632 78.4273 54.5632C77.6464 54.5632 77.0108 53.9277 77.0108 53.1468C77.0107 52.3657 77.6462 51.7303 78.4273 51.7303Z" fill="#1E3723"/>
    <g clip-path="url(#clip0)">
        <path d="M43.8551 30.7959C38.6928 30.8155 34.5129 34.7738 34.4922 39.6625C34.4922 40.6415 34.6591 41.614 34.9859 42.5426C35.2298 43.1747 35.9536 43.5151 36.633 43.3197C37.2896 43.0812 37.6382 42.4014 37.4288 41.7655C37.1514 41.0418 37.0279 40.274 37.0645 39.5054C37.177 35.9745 40.2904 33.1982 44.019 33.3048C47.7476 33.4114 50.6793 36.3597 50.5668 39.8907C50.4611 43.1962 47.7121 45.8809 44.2254 46.0819C44.2254 46.0819 42.9111 46.1577 42.2574 46.2334C42.0165 46.2661 41.7775 46.311 41.5415 46.3681C41.508 46.4008 41.4537 46.4008 41.4191 46.369L41.4181 46.3681C41.3944 46.3391 41.3944 46.2979 41.4181 46.269L41.6215 45.2179L42.8558 39.9608C43.0039 39.3043 42.5626 38.6582 41.8694 38.5179C41.1762 38.3777 40.4939 38.7957 40.3457 39.4521C40.3457 39.4521 37.4101 52.32 37.4101 52.4369C37.2422 53.0624 37.6411 53.6983 38.3017 53.8573C38.3087 53.8591 38.3166 53.861 38.3235 53.8619H38.3916C39.0512 54.0237 39.7246 53.6478 39.8945 53.0232C39.8974 53.0129 39.9004 53.0026 39.9024 52.9914C39.9004 52.9717 39.9004 52.9521 39.9024 52.9334C39.9389 52.7819 40.3092 51.0697 40.3092 51.0697C40.5896 49.7774 41.6897 48.7872 43.0661 48.5871C43.3495 48.5459 44.5404 48.4702 44.5404 48.4702C49.683 47.9849 53.4363 43.6432 52.9228 38.7732C52.4548 34.3315 48.5692 30.9119 43.8551 30.7959Z" fill="#1E3723"/>
        <path d="M44.4245 51.2401C43.5802 51.0736 42.7547 51.587 42.579 52.3856C42.577 52.3931 42.576 52.4005 42.574 52.408C42.3914 53.2019 42.9226 53.9865 43.7619 54.1595C43.7629 54.1595 43.7639 54.1595 43.7649 54.1604H43.8083C44.6299 54.3484 45.4563 53.8696 45.6538 53.0925C45.6558 53.0869 45.6568 53.0804 45.6587 53.0748V52.9934C45.8039 52.1911 45.2628 51.4215 44.4245 51.2401Z" fill="#E6007A"/>
    </g>
    <path d="M67.8866 78.3308C66.6715 77.1156 64.8495 76.873 63.3883 77.5967L55.1966 69.4047C54.6776 68.8859 54.3919 68.196 54.3919 67.4622V63.707H57.1391C57.6945 63.707 58.2466 63.6373 58.7804 63.5C59.4463 63.3287 59.8472 62.6498 59.6759 61.9838C59.5045 61.3179 58.826 60.917 58.1596 61.0883C57.8286 61.1735 57.4853 61.2166 57.1391 61.2166H27.8614C25.6127 61.2166 23.7834 59.3871 23.7834 57.1386V27.8609C23.7834 27.5147 23.8266 27.1714 23.9117 26.8405C24.0832 26.1746 23.6823 25.4958 23.0164 25.3243C22.3503 25.1528 21.6715 25.5537 21.5002 26.2196C21.3627 26.7532 21.2931 27.3054 21.2931 27.8609V30.6081H10.2705C9.74933 29.0628 8.28722 27.9465 6.56829 27.9465C4.41405 27.9465 2.66158 29.699 2.66158 31.8532C2.66158 34.0075 4.41422 35.76 6.56829 35.76C8.28722 35.76 9.74917 34.6437 10.2705 33.0984H21.293V35.9314H15.884C15.1963 35.9314 14.6389 36.4889 14.6389 37.1766C14.6389 37.8642 15.1963 38.4217 15.884 38.4217H21.293V41.2546H1.24513C0.557484 41.2546 0 41.8121 0 42.4997C0 43.1874 0.557484 43.7449 1.24513 43.7449H21.293V46.5778H15.884C15.1963 46.5778 14.6389 47.1352 14.6389 47.8229C14.6389 48.5105 15.1963 49.068 15.884 49.068H21.293V51.9011H17.5377C16.1387 51.9011 14.8233 52.4458 13.8342 53.4351L5.64523 61.624C5.11166 61.3582 4.52014 61.2168 3.90654 61.2168C2.86296 61.2168 1.88197 61.6232 1.14402 62.361C0.406409 63.0989 0 64.0801 0 65.1235C0 66.1669 0.406409 67.1481 1.14435 67.886C1.88213 68.624 2.86329 69.0302 3.90687 69.0302C4.95045 69.0302 5.93145 68.6238 6.66939 67.886C7.40733 67.1481 7.81374 66.1671 7.81374 65.1235C7.81374 64.5099 7.6723 63.9184 7.4065 63.3848L15.5954 55.1959C16.1142 54.6771 16.8042 54.3912 17.5382 54.3912H21.2935V57.1384C21.2935 60.7602 24.2401 63.7067 27.8618 63.7067H30.609V74.7292C29.0637 75.2504 27.9474 76.7125 27.9474 78.4314C27.9474 80.5856 29.7001 82.3381 31.8541 82.3381C34.0082 82.3381 35.7608 80.5855 35.7608 78.4314C35.7608 76.7125 34.6445 75.2505 33.0993 74.7292V63.7067H35.9322V69.1157C35.9322 69.8033 36.4896 70.3608 37.1773 70.3608C37.8649 70.3608 38.4224 69.8033 38.4224 69.1157V63.7067H41.2552V83.7549C41.2552 84.4425 41.8126 85 42.5003 85C43.1879 85 43.7454 84.4425 43.7454 83.7549V63.707H46.5783V69.116C46.5783 69.8037 47.1358 70.3612 47.8234 70.3612C48.5111 70.3612 49.0686 69.8037 49.0686 69.116V63.707H51.9015V67.4622C51.9015 68.8612 52.4463 70.1765 53.4356 71.1657L61.6274 79.3574C60.9037 80.8186 61.1463 82.6404 62.3615 83.8557C63.123 84.6173 64.1236 84.998 65.124 84.998C66.1245 84.998 67.125 84.6173 67.8866 83.8557C69.4098 82.3325 69.4098 79.854 67.8866 78.3308ZM6.56829 33.2697C5.78718 33.2697 5.15183 32.6342 5.15183 31.8532C5.15183 31.0721 5.78734 30.4368 6.56829 30.4368C7.34923 30.4368 7.98474 31.0723 7.98474 31.8532C7.98491 32.6344 7.34939 33.2697 6.56829 33.2697ZM4.90828 66.1251C4.64067 66.3927 4.28506 66.5399 3.90671 66.5399C3.52835 66.5399 3.17275 66.3927 2.90513 66.1251C2.63751 65.8575 2.49025 65.5018 2.49025 65.1235C2.49025 64.7451 2.63751 64.3895 2.90513 64.1219C3.17275 63.8543 3.52835 63.707 3.90671 63.707C4.28506 63.707 4.64067 63.8543 4.90828 64.1219C5.1759 64.3895 5.32316 64.7451 5.32316 65.1235C5.32316 65.5018 5.1759 65.8576 4.90828 66.1251ZM33.2702 78.4317C33.2702 79.2127 32.6349 79.8482 31.8538 79.8482C31.0727 79.8482 30.4373 79.2127 30.4373 78.4317C30.4373 77.6508 31.0729 77.0153 31.8538 77.0153C32.6347 77.0153 33.2702 77.6508 33.2702 78.4317ZM66.1258 82.0949C65.5735 82.6472 64.6748 82.6471 64.1225 82.0949C63.5701 81.5426 63.5701 80.6439 64.1225 80.0917C64.3987 79.8156 64.7615 79.6775 65.1242 79.6775C65.487 79.6775 65.8497 79.8156 66.1258 80.0917C66.678 80.6439 66.678 81.5426 66.1258 82.0949Z" fill="#1E3723"/>
    <defs>
        <clipPath id="clip0">
            <rect width="18.478" height="23.4055" fill="white" transform="translate(34.4922 30.7959)"/>
        </clipPath>
    </defs>
</svg>
