<svg width="21" height="17" viewBox="0 0 21 17" xmlns="http://www.w3.org/2000/svg">
    <path d="M20.54 1.99942C19.7762 2.3385 18.9623 2.56325 18.1137 2.67238C18.9867 2.14492 19.6529 1.31606 19.9662 0.316996C19.1523 0.808081 18.2536 1.15496 17.296 1.34853C16.5231 0.515769 15.4217 0 14.2201 0C11.8888 0 10.012 1.91497 10.012 4.26256C10.012 4.60035 10.0402 4.92514 10.1095 5.23434C6.60875 5.06155 3.51106 3.36354 1.4301 0.776901C1.0668 1.41479 0.853694 2.14492 0.853694 2.93092C0.853694 4.40677 1.60469 5.71503 2.72412 6.47245C2.04758 6.45945 1.38388 6.26068 0.8216 5.94758C0.8216 5.96057 0.8216 5.97746 0.8216 5.99435C0.8216 8.06522 2.28122 9.78532 4.19529 10.1816C3.85253 10.2764 3.47896 10.3219 3.09127 10.3219C2.82168 10.3219 2.54953 10.3063 2.29406 10.2491C2.83966 11.9367 4.38786 13.1774 6.22876 13.2177C4.79609 14.3519 2.97702 15.0353 1.00774 15.0353C0.662415 15.0353 0.331207 15.0197 0 14.9768C1.86529 16.1941 4.07591 16.8892 6.45983 16.8892C14.2085 16.8892 18.4449 10.3933 18.4449 4.76274C18.4449 4.57436 18.4385 4.39248 18.4295 4.2119C19.2652 3.61168 19.9674 2.86206 20.54 1.99942Z" />
</svg>
