<svg
  width="286"
  height="198"
  viewBox="0 0 286 198"
  fill="none"
  xmlns="http://www.w3.org/2000/svg"
>
<g opacity="0.25">
<path
      fill-rule="evenodd"
      clip-rule="evenodd"
      d="M181.446 104.358C161.91 104.539 142.274 100.326 127.366 91.7196C112.459 83.1135 105.161 71.7779 105.473 60.4995C86.738 60.6723 68.0937 64.8853 53.7977 73.1384C24.5941 89.9976 24.5941 117.332 53.7977 134.191C83.0012 151.05 130.35 151.05 159.553 134.191C173.849 125.938 181.147 115.174 181.446 104.358ZM181.446 104.358C200.182 104.186 218.826 99.9727 233.122 91.7196C262.325 74.8603 262.325 47.5261 233.122 30.6669C203.918 13.8077 156.57 13.8077 127.366 30.6669C113.07 38.9201 105.773 49.6835 105.473 60.4995C125.01 60.3193 144.646 64.5323 159.553 73.1384C174.461 81.7444 181.758 93.08 181.446 104.358Z"
      fill="white"
    />
<path
      d="M129.532 90.4696C143.829 98.7236 162.655 102.764 181.397 102.591L181.495 106.126C161.164 106.313 140.719 101.928 125.201 92.9695L129.532 90.4696ZM108.535 60.5277C108.236 71.3474 115.234 82.2158 129.532 90.4696L125.201 92.9695C109.684 84.0113 102.087 72.2085 102.412 60.4713L108.535 60.5277ZM105.522 62.2669C87.5499 62.4327 69.6743 66.4726 55.9628 74.3883L51.6326 71.8885C66.5132 63.2979 85.9261 58.9119 105.424 58.7321L105.522 62.2669ZM55.9628 74.3883C27.955 90.5572 27.955 116.772 55.9628 132.941L51.6326 135.441C21.2333 117.891 21.2333 89.438 51.6326 71.8885L55.9628 74.3883ZM55.9628 132.941C83.9706 149.11 129.38 149.11 157.388 132.941L161.718 135.441C131.319 152.99 82.0319 152.99 51.6326 135.441L55.9628 132.941ZM157.388 132.941C171.1 125.025 178.098 114.706 178.385 104.33L184.508 104.387C184.196 115.643 176.599 126.85 161.718 135.441L157.388 132.941ZM181.397 102.591C199.37 102.425 217.245 98.3853 230.957 90.4696L235.287 92.9695C220.406 101.56 200.993 105.946 181.495 106.126L181.397 102.591ZM230.957 90.4696C258.965 74.3007 258.965 48.0858 230.957 31.9169L235.287 29.417C265.686 46.9665 265.686 75.4199 235.287 92.9695L230.957 90.4696ZM230.957 31.9169C202.949 15.7479 157.539 15.7479 129.532 31.9169L125.201 29.417C155.601 11.8675 204.888 11.8675 235.287 29.417L230.957 31.9169ZM129.532 31.9169C115.82 39.8326 108.822 50.1522 108.535 60.5277L102.412 60.4713C102.723 49.2149 110.321 38.0076 125.201 29.417L129.532 31.9169ZM157.388 74.3883C143.091 66.1344 124.264 62.0941 105.522 62.2669L105.424 58.7321C125.756 58.5446 146.201 62.9302 161.718 71.8885L157.388 74.3883ZM178.385 104.33C178.684 93.5105 171.685 82.6422 157.388 74.3883L161.718 71.8885C177.236 80.8467 184.832 92.6495 184.508 104.387L178.385 104.33Z"
      fill="white"
    />
<path
      d="M31.3975 103.229V152.03C32.0641 166.297 48.7176 194.83 109.198 194.83C169.679 194.83 184.799 165.63 184.799 152.03C209.333 151.496 255.4 142.19 255.4 109.229C255.4 76.269 255.4 62.6955 255.4 60.0288"
      stroke="white"
      stroke-width="5"
      stroke-linecap="round"
      stroke-linejoin="round"
    />
</g>
</svg>
