<svg
  width="349"
  height="211"
  viewBox="0 0 349 211"
  fill="none"
  xmlns="http://www.w3.org/2000/svg"
>
<g opacity="0.25">
<path
      fill-rule="evenodd"
      clip-rule="evenodd"
      d="M139.553 40.2076H278.849L278.849 120.623L210.186 120.623L210.186 160.591H70.8905L70.8906 80.1759H139.553V40.2076ZM139.553 80.1759H210.186V120.623H139.553V80.1759Z"
      fill="white"
    />
<path
      d="M278.849 40.2076L278.849 38.44C280.54 38.44 281.911 39.2314 281.911 40.2076L278.849 40.2076ZM139.553 40.2076L136.492 40.2076C136.492 39.7388 136.814 39.2892 137.388 38.9577C137.963 38.6262 138.741 38.44 139.553 38.44L139.553 40.2076ZM278.849 120.623H281.911C281.911 121.092 281.588 121.541 281.014 121.873C280.44 122.204 279.661 122.391 278.849 122.391L278.849 120.623ZM210.186 160.591H213.248C213.248 161.567 211.877 162.359 210.186 162.359L210.186 160.591ZM70.8905 160.591L70.8905 162.359C70.0785 162.359 69.2997 162.173 68.7254 161.841C68.1512 161.51 67.8286 161.06 67.8286 160.591L70.8905 160.591ZM70.8906 80.1759L67.8286 80.1759C67.8286 79.1996 69.1995 78.4082 70.8906 78.4082L70.8906 80.1759ZM210.186 80.1759V78.4082C211.877 78.4082 213.248 79.1996 213.248 80.1759L210.186 80.1759ZM139.553 120.623L139.553 122.391C137.862 122.391 136.492 121.599 136.491 120.623L139.553 120.623ZM278.849 41.9753H139.553L139.553 38.44H278.849L278.849 41.9753ZM275.787 120.623L275.787 40.2076L281.911 40.2076L281.911 120.623L275.787 120.623ZM210.186 118.855H278.849L278.849 122.391L210.186 122.391V118.855ZM207.124 160.591L207.124 120.623H213.248V160.591H207.124ZM70.8905 158.824L210.186 158.824V162.359L70.8905 162.359L70.8905 158.824ZM73.9525 80.1759L73.9525 160.591L67.8286 160.591L67.8286 80.1759L73.9525 80.1759ZM139.553 81.9435L70.8905 81.9435L70.8906 78.4082L139.553 78.4082L139.553 81.9435ZM142.615 40.2076L142.615 80.1759L136.491 80.1759L136.492 40.2076L142.615 40.2076ZM210.186 81.9435L139.553 81.9435V78.4082L210.186 78.4082V81.9435ZM207.124 120.623V80.1759H213.248V120.623H207.124ZM139.553 118.855H210.186V122.391L139.553 122.391L139.553 118.855ZM142.615 80.1759L142.615 120.623L136.491 120.623L136.492 80.1759H142.615Z"
      fill="white"
    />
<path
      d="M70.5576 159.999V207.999H214.957V168.799H279.356V119.599"
      stroke="white"
      stroke-width="5"
      stroke-linecap="round"
      stroke-linejoin="round"
    />
</g>
</svg>
