<svg
  width="221"
  height="179"
  viewBox="0 0 221 179"
  fill="none"
  xmlns="http://www.w3.org/2000/svg"
>
<g opacity="0.25">
<path
      fill-rule="evenodd"
      clip-rule="evenodd"
      d="M220.943 2.57081C220.958 2.00981 220.785 1.44962 220.434 0.987669C219.882 0.261194 218.978 -0.106923 218.076 0.0272244L44.0477 25.8963C43.2836 26.0099 42.615 26.4703 42.2363 27.1436C41.9144 27.7159 41.8327 28.3874 41.9996 29.0132V53.2761L34.1821 34.4651C33.7791 33.4954 32.8131 32.8809 31.764 32.9269C30.715 32.9728 29.8064 33.6695 29.4898 34.6707L0.485098 126.388C0.428793 126.566 0.393203 126.748 0.37771 126.93C0.138324 127.314 0 127.767 0 128.252V176.019C0 177.399 1.11929 178.519 2.5 178.519C2.67547 178.519 2.8467 178.5 3.01196 178.466C3.05027 178.464 3.0887 178.461 3.12725 178.457L161.477 161.995C162.751 161.862 163.719 160.789 163.719 159.508V152.117L173.454 153.322C174.546 153.457 175.597 152.862 176.045 151.857L220.728 51.5167C220.87 51.1966 220.944 50.8501 220.944 50.4997V2.65318C220.944 2.62562 220.944 2.59816 220.943 2.57081ZM5 173.235L158.719 157.254V149.299C158.719 147.918 159.838 146.799 161.219 146.799L161.249 146.799C161.367 146.797 161.486 146.803 161.606 146.818L172.23 148.132L215.944 49.9682V14.2588L176.044 103.858C175.59 104.878 174.513 105.474 173.407 105.316L69.1469 90.4213C68.2775 90.2971 67.5371 89.7259 67.1963 88.9165L46.9996 40.9494V65.3074L58.7211 93.5121L161.572 108.205C162.822 108.384 163.743 109.466 163.718 110.728C163.694 111.99 162.733 113.036 161.477 113.167L5 129.434V173.235ZM32.1926 42.7067L42.0002 66.3063C42.0139 66.9582 42.2772 67.5487 42.6983 67.9862L54.6501 96.7451C54.9887 97.5598 55.7317 98.1358 56.6051 98.2605L140.804 110.289L6.40179 124.261L32.1926 42.7067ZM47.9696 30.3683L71.2552 85.6717L172.245 100.099L214.308 5.64233L47.9696 30.3683Z"
      fill="white"
    />
<path
      d="M31.8739 35.4243L2.86914 127.142L161.219 110.68L56.959 95.7855L31.8739 35.4243Z"
      fill="white"
      stroke="white"
      stroke-width="5"
      stroke-linecap="round"
      stroke-linejoin="round"
    />
<path
      d="M44.415 28.3691L69.5002 87.9464L173.76 102.841L218.443 2.5L44.415 28.3691Z"
      fill="white"
      stroke="white"
      stroke-width="5"
      stroke-linecap="round"
      stroke-linejoin="round"
    />
</g>
</svg>
