<svg width="389" height="229" viewBox="0 0 389 229" fill="none" xmlns="http://www.w3.org/2000/svg">
<g opacity="0.25">
<mask id="path-1-inside-1" fill="white">
<path fill-rule="evenodd" clip-rule="evenodd" d="M304.142 66.9743L272.787 48.8732L84.6581 157.48L116.013 175.581L304.142 66.9743ZM94.0644 97.7462C114.845 109.743 148.536 109.743 169.316 97.7462C190.096 85.7498 190.096 66.2998 169.316 54.3034C148.536 42.307 114.845 42.307 94.0644 54.3034C73.2843 66.2998 73.2843 85.7498 94.0644 97.7462ZM119.149 83.2652C126.075 87.264 137.306 87.264 144.233 83.2652C151.159 79.2664 151.159 72.7831 144.233 68.7843C137.306 64.7855 126.075 64.7855 119.149 68.7843C112.222 72.7831 112.222 79.2664 119.149 83.2652ZM219.484 170.151C240.264 182.147 273.955 182.147 294.736 170.151C315.516 158.154 315.516 138.704 294.736 126.708C273.955 114.712 240.264 114.712 219.484 126.708C198.704 138.704 198.704 158.154 219.484 170.151ZM244.568 155.67C251.494 159.669 262.725 159.669 269.652 155.67C276.578 151.671 276.578 145.188 269.652 141.189C262.725 137.19 251.494 137.19 244.568 141.189C237.641 145.188 237.641 151.671 244.568 155.67Z"/>
</mask>
<path fill-rule="evenodd" clip-rule="evenodd" d="M304.142 66.9743L272.787 48.8732L84.6581 157.48L116.013 175.581L304.142 66.9743ZM94.0644 97.7462C114.845 109.743 148.536 109.743 169.316 97.7462C190.096 85.7498 190.096 66.2998 169.316 54.3034C148.536 42.307 114.845 42.307 94.0644 54.3034C73.2843 66.2998 73.2843 85.7498 94.0644 97.7462ZM119.149 83.2652C126.075 87.264 137.306 87.264 144.233 83.2652C151.159 79.2664 151.159 72.7831 144.233 68.7843C137.306 64.7855 126.075 64.7855 119.149 68.7843C112.222 72.7831 112.222 79.2664 119.149 83.2652ZM219.484 170.151C240.264 182.147 273.955 182.147 294.736 170.151C315.516 158.154 315.516 138.704 294.736 126.708C273.955 114.712 240.264 114.712 219.484 126.708C198.704 138.704 198.704 158.154 219.484 170.151ZM244.568 155.67C251.494 159.669 262.725 159.669 269.652 155.67C276.578 151.671 276.578 145.188 269.652 141.189C262.725 137.19 251.494 137.19 244.568 141.189C237.641 145.188 237.641 151.671 244.568 155.67Z" fill="white"/>
<path d="M272.787 48.8732L277.117 46.3733L272.787 43.8735L268.457 46.3733L272.787 48.8732ZM304.142 66.9743L308.472 69.4741L312.802 66.9743L308.472 64.4745L304.142 66.9743ZM84.6581 157.48L80.3278 154.98L75.9976 157.48L80.3278 159.98L84.6581 157.48ZM116.013 175.581L111.683 178.081L116.013 180.581L120.343 178.081L116.013 175.581ZM268.457 51.373L299.812 69.4741L308.472 64.4745L277.117 46.3733L268.457 51.373ZM88.9883 159.98L277.117 51.373L268.457 46.3733L80.3278 154.98L88.9883 159.98ZM120.343 173.081L88.9883 154.98L80.3278 159.98L111.683 178.081L120.343 173.081ZM299.812 64.4745L111.683 173.081L120.343 178.081L308.472 69.4741L299.812 64.4745ZM164.986 95.2463C146.597 105.862 116.783 105.862 98.3947 95.2463L89.7342 100.246C112.906 113.623 150.475 113.623 173.646 100.246L164.986 95.2463ZM164.986 56.8033C183.374 67.419 183.374 84.6306 164.986 95.2463L173.646 100.246C196.818 86.869 196.818 65.1806 173.646 51.8036L164.986 56.8033ZM98.3946 56.8033C116.783 46.1875 146.597 46.1875 164.986 56.8033L173.646 51.8036C150.475 38.4266 112.906 38.4266 89.7342 51.8036L98.3946 56.8033ZM98.3947 95.2463C80.006 84.6306 80.006 67.419 98.3946 56.8033L89.7342 51.8036C66.5625 65.1806 66.5625 86.869 89.7342 100.246L98.3947 95.2463ZM139.902 80.7654C135.367 83.3836 128.014 83.3836 123.479 80.7654L114.818 85.7651C124.137 91.1445 139.245 91.1445 148.563 85.7651L139.902 80.7654ZM139.902 71.2842C144.438 73.9023 144.438 78.1472 139.902 80.7654L148.563 85.7651C157.881 80.3857 157.881 71.6639 148.563 66.2845L139.902 71.2842ZM123.479 71.2842C128.014 68.666 135.367 68.666 139.902 71.2842L148.563 66.2845C139.245 60.9051 124.137 60.9051 114.818 66.2845L123.479 71.2842ZM123.479 80.7654C118.944 78.1472 118.944 73.9023 123.479 71.2842L114.818 66.2845C105.5 71.6639 105.5 80.3856 114.818 85.7651L123.479 80.7654ZM290.405 167.651C272.017 178.267 242.203 178.267 223.814 167.651L215.154 172.651C238.325 186.028 275.894 186.028 299.066 172.651L290.405 167.651ZM290.405 129.208C308.794 139.824 308.794 157.035 290.405 167.651L299.066 172.651C322.237 159.274 322.237 137.585 299.066 124.208L290.405 129.208ZM223.814 129.208C242.203 118.592 272.017 118.592 290.405 129.208L299.066 124.208C275.894 110.831 238.325 110.831 215.154 124.208L223.814 129.208ZM223.814 167.651C205.426 157.035 205.426 139.824 223.814 129.208L215.154 124.208C191.982 137.585 191.982 159.274 215.154 172.651L223.814 167.651ZM265.321 153.17C260.786 155.788 253.433 155.788 248.898 153.17L240.238 158.17C249.556 163.549 264.664 163.549 273.982 158.17L265.321 153.17ZM265.321 143.689C269.857 146.307 269.857 150.552 265.321 153.17L273.982 158.17C283.3 152.79 283.3 144.068 273.982 138.689L265.321 143.689ZM248.898 143.689C253.433 141.071 260.786 141.071 265.321 143.689L273.982 138.689C264.664 133.31 249.556 133.31 240.238 138.689L248.898 143.689ZM248.898 153.17C244.363 150.552 244.363 146.307 248.898 143.689L240.238 138.689C230.919 144.068 230.919 152.79 240.238 158.17L248.898 153.17Z" fill="white" mask="url(#path-1-inside-1)"/>
<path d="M86.8008 158.4V206.4L116.001 221.6L203.601 171.2M302.001 68.3999V114.8L276.001 129.729" stroke="white" stroke-width="5" stroke-linecap="round" stroke-linejoin="round"/>
<path d="M80.4003 76V124.8C80.267 130.8 84.8003 144.16 104 149.6" stroke="white" stroke-width="5" stroke-linecap="round" stroke-linejoin="round"/>
<path d="M182.801 76V104" stroke="white" stroke-width="5"/>
<path d="M203.601 171.2V196C204.001 206 217.281 226 257.601 226C297.921 226 308.267 206 308.401 196V148" stroke="white" stroke-width="5" stroke-linecap="round" stroke-linejoin="round"/>
</g>
</svg>
