<svg
  width="284"
  height="195"
  viewBox="0 0 284 195"
  fill="none"
  xmlns="http://www.w3.org/2000/svg"
>
<g opacity="0.1">
<path
      fill-rule="evenodd"
      clip-rule="evenodd"
      d="M227.93 32.2908C197.039 14.4571 146.954 14.4571 116.062 32.2908L56.3987 66.7344C25.5071 84.5681 25.5071 113.482 56.3987 131.316C87.2903 149.15 137.375 149.15 168.267 131.316L227.93 96.8725C258.822 79.0387 258.822 50.1245 227.93 32.2908ZM190.641 53.8181C180.344 47.8735 163.649 47.8735 153.352 53.8181L93.6885 88.2616C83.3913 94.2062 83.3913 103.844 93.6885 109.789C103.986 115.733 120.681 115.733 130.978 109.789L190.641 75.3453C200.938 69.4007 200.938 59.7627 190.641 53.8181Z"
      fill="#2D4359"
    />
<path
      d="M116.062 32.2908L113.897 31.0409L116.062 32.2908ZM56.3987 66.7344L58.5638 67.9843L56.3987 66.7344ZM130.978 109.789L133.143 111.039L130.978 109.789ZM190.641 75.3453L188.476 74.0954L190.641 75.3453ZM118.227 33.5407C147.923 16.3973 196.069 16.3973 225.765 33.5407L230.095 31.0409C198.008 12.5169 145.984 12.5168 113.897 31.0409L118.227 33.5407ZM58.5638 67.9843L118.227 33.5407L113.897 31.0409L54.2336 65.4844L58.5638 67.9843ZM58.5638 130.066C28.868 112.923 28.868 85.1277 58.5638 67.9843L54.2336 65.4844C22.1463 84.0085 22.1463 114.042 54.2336 132.566L58.5638 130.066ZM166.102 130.066C136.406 147.21 88.2597 147.209 58.5638 130.066L54.2336 132.566C86.321 151.09 138.345 151.09 170.432 132.566L166.102 130.066ZM225.765 95.6225L166.102 130.066L170.432 132.566L230.095 98.1224L225.765 95.6225ZM225.765 33.5407C255.461 50.6841 255.461 78.4791 225.765 95.6225L230.095 98.1224C262.183 79.5983 262.183 49.5649 230.095 31.0409L225.765 33.5407ZM155.517 55.068C164.618 49.8137 179.375 49.8137 188.476 55.068L192.806 52.5682C181.313 45.9333 162.68 45.9333 151.187 52.5682L155.517 55.068ZM95.8536 89.5115L155.517 55.068L151.187 52.5682L91.5234 87.0117L95.8536 89.5115ZM95.8536 108.539C86.7522 103.285 86.7522 94.7658 95.8536 89.5115L91.5234 87.0117C80.0304 93.6466 80.0304 104.404 91.5234 111.039L95.8536 108.539ZM128.813 108.539C119.711 113.793 104.955 113.793 95.8536 108.539L91.5234 111.039C103.016 117.674 121.65 117.674 133.143 111.039L128.813 108.539ZM188.476 74.0954L128.813 108.539L133.143 111.039L192.806 76.5952L188.476 74.0954ZM188.476 55.068C197.577 60.3223 197.577 68.8411 188.476 74.0954L192.806 76.5952C204.299 69.9603 204.299 59.203 192.806 52.5682L188.476 55.068Z"
      fill="#1C2833"
    />
<path
      d="M32.8926 98.8687V142.878C33.9464 171.829 70.8309 192.358 108.769 192.358C146.708 192.358 157.246 184.463 180.431 171.829L232.596 141.298C239.095 137.614 251.692 126.244 251.692 110.241C251.692 94.2389 251.692 79.9186 251.692 66.7588"
      stroke="#1C2833"
      stroke-width="5"
    />
</g>
</svg>
