<svg
  width="291"
  height="216"
  viewBox="0 0 291 216"
  fill="none"
  xmlns="http://www.w3.org/2000/svg"
>
<g opacity="0.25">
<path
      fill-rule="evenodd"
      clip-rule="evenodd"
      d="M141.664 86.1558C163.85 98.9174 199.755 98.9032 221.91 86.1131C244.09 73.3088 244.09 52.5489 221.91 39.7446C199.73 26.9402 163.77 26.9402 141.59 39.7446C119.435 52.5346 119.411 73.2626 141.516 86.0703C103.488 64.1628 41.897 64.177 3.89943 86.113L141.59 165.602C179.588 143.666 179.613 108.11 141.664 86.1558Z"
      fill="white"
    />
<path
      d="M141.664 86.1558L143.826 84.9036C142.629 84.2153 140.693 84.2165 139.498 84.9064C138.304 85.5962 138.304 86.7141 139.497 87.4044L141.664 86.1558ZM141.516 86.0703L139.353 87.3216C140.549 88.0105 142.486 88.0101 143.681 87.3207C144.876 86.6314 144.878 85.5135 143.685 84.8227L141.516 86.0703ZM3.89943 86.113L1.73432 84.8631C0.538562 85.5534 0.538557 86.6726 1.73432 87.363L3.89943 86.113ZM141.59 165.602L139.425 166.852C140.621 167.542 142.56 167.542 143.755 166.852L141.59 165.602ZM219.745 84.8632C198.784 96.9637 164.815 96.9772 143.826 84.9036L139.503 87.408C162.885 100.858 200.726 100.843 224.075 87.363L219.745 84.8632ZM219.745 40.9945C240.729 53.1085 240.729 72.7492 219.745 84.8632L224.075 87.363C247.45 73.8684 247.45 51.9893 224.075 38.4947L219.745 40.9945ZM143.755 40.9945C164.739 28.8805 198.761 28.8805 219.745 40.9945L224.075 38.4947C200.7 25 162.801 25 139.425 38.4947L143.755 40.9945ZM143.685 84.8227C122.771 72.7055 122.795 53.095 143.755 40.9945L139.425 38.4947C116.076 51.9743 116.05 73.8197 139.347 87.318L143.685 84.8227ZM143.679 84.8191C104.455 62.2225 40.9269 62.2372 1.73432 84.8631L6.06454 87.363C42.8672 66.1168 102.521 66.103 139.353 87.3216L143.679 84.8191ZM1.73432 87.363L139.425 166.852L143.755 164.352L6.06454 84.8631L1.73432 87.363ZM143.755 166.852C182.948 144.226 182.973 107.551 143.832 84.9072L139.497 87.4044C176.252 108.668 176.228 143.106 139.425 164.352L143.755 166.852Z"
      fill="white"
    />
<path
      d="M3.5 86.8011V134.002L141.102 213.203C151.102 207.869 176.702 186.482 176.702 169.202C176.702 151.922 176.702 140.402 176.702 136.802C198.036 141.602 239.103 133.602 239.103 106.001V63.6008"
      stroke="white"
      stroke-width="5"
      stroke-linecap="round"
      stroke-linejoin="round"
    />
</g>
</svg>
