<svg width="28" height="28" viewBox="0 0 28 28" fill="none" xmlns="http://www.w3.org/2000/svg">
<circle cx="14" cy="14" r="14" fill="white"/>
<mask id="path-2-outside-1" maskUnits="userSpaceOnUse" x="9" y="7" width="10" height="14" fill="black">
<rect fill="white" x="9" y="7" width="10" height="14"/>
<path fill-rule="evenodd" clip-rule="evenodd" d="M13.7833 19.485L10.3028 15.8857L10 16.1983L14.0046 20.3291L18 16.1983L17.6976 15.8856L14.2109 19.4914L14.2109 8.00002L13.7833 8L13.7833 19.485Z"/>
</mask>
<path fill-rule="evenodd" clip-rule="evenodd" d="M13.7833 19.485L10.3028 15.8857L10 16.1983L14.0046 20.3291L18 16.1983L17.6976 15.8856L14.2109 19.4914L14.2109 8.00002L13.7833 8L13.7833 19.485Z" fill="#27A577"/>
<path d="M13.8968 20.2248L13.8928 20.229L14.1084 20.4376L14.1124 20.4334L13.8968 20.2248ZM13.7833 19.485L13.5676 19.6935L14.0833 20.2268L14.0833 19.485L13.7833 19.485ZM10.3028 15.8857L10.5184 15.6771L10.3029 15.4543L10.0873 15.6769L10.3028 15.8857ZM10 16.1983L9.78451 15.9895L9.58226 16.1984L9.7846 16.4071L10 16.1983ZM14.0046 20.3291L13.7892 20.5379L14.0049 20.7604L14.2203 20.5377L14.0046 20.3291ZM18 16.1983L18.2156 16.4068L18.4174 16.1983L18.2156 15.9897L18 16.1983ZM17.6976 15.8856L17.9133 15.6771L17.6976 15.4541L17.482 15.6771L17.6976 15.8856ZM14.2109 19.4914L13.9109 19.4914L13.9109 20.2332L14.4266 19.7L14.2109 19.4914ZM14.2109 8.00002L14.5109 8.00002L14.5109 7.70003L14.2109 7.70002L14.2109 8.00002ZM13.7833 8L13.7833 7.7L13.4833 7.69999L13.4833 8L13.7833 8ZM13.9989 19.2765L10.5184 15.6771L10.0871 16.0942L13.5676 19.6935L13.9989 19.2765ZM10.0873 15.6769L9.78451 15.9895L10.2155 16.407L10.5183 16.0944L10.0873 15.6769ZM9.7846 16.4071L13.7892 20.5379L14.22 20.1203L10.2154 15.9894L9.7846 16.4071ZM14.2203 20.5377L18.2156 16.4068L17.7844 15.9897L13.789 20.1206L14.2203 20.5377ZM18.2156 15.9897L17.9133 15.6771L17.482 16.0942L17.7844 16.4068L18.2156 15.9897ZM17.482 15.6771L13.9953 19.2829L14.4266 19.7L17.9133 16.0942L17.482 15.6771ZM14.5109 19.4914L14.5109 8.00002L13.9109 8.00002L13.9109 19.4914L14.5109 19.4914ZM14.2109 7.70002L13.7833 7.7L13.7833 8.3L14.2109 8.30002L14.2109 7.70002ZM13.4833 8L13.4833 19.485L14.0833 19.485L14.0833 8L13.4833 8Z" fill="#27A577" mask="url(#path-2-outside-1)"/>
</svg>
