<svg
  width="54"
  height="54"
  viewBox="0 0 54 54"
  fill="none"
  xmlns="http://www.w3.org/2000/svg"
>
<path
    fill-rule="evenodd"
    clip-rule="evenodd"
    d="M51.2588 0L40.5988 10.7187C36.5991 8.35617 31.9495 6.99901 27 6.99901C21.9624 6.99901 17.2355 8.40492 13.1882 10.8458L2.41522 0.0151948L0.0283203 2.41553L10.3619 12.8044C4.06314 17.7858 0 25.5127 0 34.1475V53.9998H54V34.1475C54 25.4258 49.8546 17.6303 43.4471 12.6547L53.6457 2.40003L51.2588 0ZM50.625 34.1475V50.6062H3.375V34.1475C3.375 21.0823 14.0063 10.3926 27 10.3926C39.9938 10.3926 50.625 21.0823 50.625 34.1475ZM16.875 21.7615H20.25V28.551H16.875V21.7615ZM37.125 21.7615H33.75V28.551H37.125V21.7615ZM8.4375 45.5163H45.5625V35.3357H8.4375V45.5163ZM42.1875 38.7292V42.1227H11.8125V38.7292H42.1875Z"
    fill="#42C37B"
  />
</svg>
