<svg width="88" height="88" viewBox="0 0 88 88" fill="none" xmlns="http://www.w3.org/2000/svg">
<path d="M87 44C87 67.7482 67.7482 87 44 87C20.2518 87 1 67.7482 1 44C1 20.2518 20.2518 1 44 1C67.7482 1 87 20.2518 87 44Z" stroke="white" stroke-width="2"/>
<path fill-rule="evenodd" clip-rule="evenodd" d="M43.9494 53.879C43.9494 59.3342 39.4364 63.7565 33.8692 63.7565C28.3021 63.7565 23.7891 59.3342 23.7891 53.879C23.7891 48.4408 28.2738 44.0293 33.817 44.0017C28.2741 43.9738 23.7894 39.562 23.7894 34.1241C23.7894 28.6688 28.3025 24.2466 33.8697 24.2466C39.4156 24.2466 43.9154 28.6353 43.9496 34.0618C43.9837 28.635 48.4837 24.2463 54.0296 24.2463C59.5967 24.2463 64.1097 28.6686 64.1097 34.1239C64.1097 39.5778 59.5988 43.9995 54.0332 44.0014C59.5988 44.0034 64.1097 48.425 64.1097 53.879C64.1097 59.3342 59.5967 63.7565 54.0296 63.7565C48.4624 63.7565 43.9494 59.3342 43.9494 53.879ZM54.0296 43.9718C48.4691 43.9718 43.9575 39.5686 43.9232 34.1239C43.8889 39.5515 39.4057 43.9444 33.8692 43.972C39.4254 43.9999 43.921 48.4244 43.923 53.879C43.925 48.407 48.449 43.9718 54.0296 43.9718Z" fill="white"/>
</svg>
