<svg
  width="90"
  height="90"
  viewBox="0 0 90 90"
  fill="none"
  xmlns="http://www.w3.org/2000/svg"
>
<rect width="90" height="90" rx="45" fill="#42C37B" />
<path
    fill-rule="evenodd"
    clip-rule="evenodd"
    d="M32.5049 45C39.4062 44.9973 45 39.4019 45 32.5C45 39.4019 50.5938 44.9973 57.4951 45C50.5954 45.0027 45.0027 50.5954 45 57.4951C44.9973 50.5954 39.4046 45.0027 32.5049 45ZM45 57.5049C44.9973 64.4062 39.4019 70 32.5 70C25.5964 70 20 64.4036 20 57.5C20 50.5981 25.5938 45.0027 32.4951 45C25.5938 44.9973 20 39.4019 20 32.5C20 25.5964 25.5964 20 32.5 20C39.4028 20 44.9988 25.5953 45 32.4978C45.0012 25.5953 50.5972 20 57.5 20C64.4036 20 70 25.5964 70 32.5C70 39.4019 64.4062 44.9973 57.5049 45C64.4062 45.0027 70 50.5981 70 57.5C70 64.4036 64.4036 70 57.5 70C50.5981 70 45.0027 64.4062 45 57.5049Z"
    fill="#151E26"
  />
<path
    fill-rule="evenodd"
    clip-rule="evenodd"
    d="M32.5049 45C39.4062 44.9973 45 39.4019 45 32.5C45 39.4019 50.5938 44.9973 57.4951 45C50.5954 45.0027 45.0027 50.5954 45 57.4951C44.9973 50.5954 39.4046 45.0027 32.5049 45ZM45 57.5049C44.9973 64.4062 39.4019 70 32.5 70C25.5964 70 20 64.4036 20 57.5C20 50.5981 25.5938 45.0027 32.4951 45C25.5938 44.9973 20 39.4019 20 32.5C20 25.5964 25.5964 20 32.5 20C39.4028 20 44.9988 25.5953 45 32.4978C45.0012 25.5953 50.5972 20 57.5 20C64.4036 20 70 25.5964 70 32.5C70 39.4019 64.4062 44.9973 57.5049 45C64.4062 45.0027 70 50.5981 70 57.5C70 64.4036 64.4036 70 57.5 70C50.5981 70 45.0027 64.4062 45 57.5049Z"
    fill="white"
  />
</svg>
