<svg
  width="64"
  height="44"
  viewBox="0 0 64 44"
  fill="none"
  xmlns="http://www.w3.org/2000/svg"
>
<path
    d="M62.8 25.4312C62.8 23.4128 61.6 21.5963 59.8 20.9908L54.4 18.1651V17.3578L57.4 14.1284V7.06422C57.4 5.65138 56.8 4.23853 55.8 3.43119L53.2 1.21101C52.4 0.40367 51.2 0 50 0H46.8C45.6 0 44.6 0.40367 43.6 1.21101L41 3.43119C40.6 3.63303 40.4 4.0367 40.2 4.44037C40 4.0367 39.8 3.83486 39.4 3.63303L36.8 1.41284C36 0.605505 34.8 0.201835 33.6 0.201835H30.4C29.2 0.201835 28.2 0.605505 27.2 1.41284L24.6 3.63303C24.4 3.83486 24.2 4.0367 24 4.44037C24 4.0367 23.8 3.63303 23.6 3.43119L21 1.21101C20.2 0.40367 19 0 17.8 0H14.6C13.4 0 12.4 0.40367 11.4 1.21101L9 3.43119C7.8 4.44037 7.2 5.65138 7.2 7.06422V14.1284L10.2 17.3578V18.1651L4.4 20.9908C2.6 21.5963 1.4 23.4128 1.4 25.4312L0 39.9633V44H11.8V39.9633H4L5.4 25.4312C5.4 25.0275 5.6 24.8257 6 24.6239L14.2 20.5872V15.7431L11.2 12.5138V7.06422C11.2 6.86239 11.4 6.66055 11.4 6.45872L14 4.23853C14.2 4.0367 14.4 4.0367 14.6 4.0367H17.8C18 4.0367 18.2 4.0367 18.4 4.23853L21 6.45872C21.2 6.66055 21.2 6.86239 21.2 7.06422V12.5138L18.2 15.7431V20.5872L19.6 21.3945C18.2 22.2018 17.4 23.8165 17.4 25.4312L16 37.5413V44H48.2V37.7431L46.6 25.2294C46.6 23.8165 45.8 22.4037 44.6 21.5963L46.4 20.789V15.7431L43.4 12.5138V7.06422C43.4 6.86239 43.6 6.66055 43.6 6.45872L46.2 4.23853C46.4 4.0367 46.6 4.0367 46.8 4.0367H50C50.2 4.0367 50.4 4.0367 50.4 4.23853L53 6.45872C53.2 6.66055 53.2 6.86239 53.2 7.06422V12.5138L50.2 15.7431V20.5872L57.8 24.422L58 24.6239C58.4 24.8257 58.6 25.2294 58.6 25.633L59.8 37.7431V39.9633H52V44H64V37.5413L62.8 25.4312ZM38.2 17.3578L40.2 15.1376L42.4 17.3578V18.1651L40.2 19.1743L38.2 18.1651V17.3578ZM22.2 17.3578L24.2 15.1376L26.2 17.3578V18.1651L24.2 19.1743L22.2 18.1651V17.3578ZM44.2 39.9633H20V37.945L21.4 25.633V25.4312C21.4 25.0275 21.6 24.8257 22 24.6239L30.2 20.5872V15.7431L27.2 12.5138V7.06422C27.2 6.86239 27.4 6.66055 27.4 6.45872L30 4.23853C30.2 4.0367 30.4 4.0367 30.6 4.0367H33.8C34 4.0367 34.2 4.0367 34.2 4.23853L36.8 6.45872C37 6.66055 37 6.86239 37 7.06422V12.5138L34 15.7431V20.5872L41.6 24.422L41.8 24.6239C42.2 24.8257 42.4 25.0275 42.4 25.4312L44 37.945L44.2 39.9633Z"
    fill="#42C37B"
  />
</svg>
