<svg width="35" height="38" viewBox="0 0 35 38" fill="none" xmlns="http://www.w3.org/2000/svg">
<path d="M32.2667 25.8115H30.0333V20.2281C30.0333 19.6116 29.5332 19.1117 28.9165 19.1117H18.8668V12.4117H21.0998C22.3283 12.4117 23.3334 11.4067 23.3334 10.1784V3.47839C23.3334 2.25006 22.3283 1.24512 21.0998 1.24512H14.4C13.1716 1.24512 12.1667 2.25006 12.1667 3.47839V10.1784C12.1667 11.4067 13.1716 12.4118 14.4 12.4118H16.6332V19.1117H6.58334C5.96666 19.1117 5.46657 19.6116 5.46657 20.2281V25.8115H3.23337C2.00497 25.8115 1 26.8165 1 28.0449V34.7448C1 35.9733 2.00494 36.9784 3.23337 36.9784H9.93332C11.1616 36.9784 12.1667 35.9733 12.1667 34.7448V28.0449C12.1667 26.8165 11.1616 25.8115 9.93332 25.8115H7.69994V21.3449H27.7997V25.8115H25.5667C24.3384 25.8115 23.3333 26.8165 23.3333 28.0449V34.7448C23.3333 35.9733 24.3384 36.9784 25.5667 36.9784H32.2666C33.495 36.9784 34.5 35.9733 34.5 34.7448V28.0449C34.5 26.8165 33.495 25.8115 32.2667 25.8115ZM14.4 3.47839H21.0998V10.1784H14.4V3.47839ZM9.93332 34.7448H3.23337V28.0448H9.93332V34.7448ZM32.2667 34.7448H25.5667V28.0448H32.2666V34.7448H32.2667Z" fill="#27A577" stroke="#27A577"/>
</svg>
