<svg
  width="38"
  height="40"
  viewBox="0 0 38 40"
  fill="none"
  xmlns="http://www.w3.org/2000/svg"
>
<path
    fill-rule="evenodd"
    clip-rule="evenodd"
    d="M12.5 3.5C12.5 1.567 14.067 0 16 0H22C23.933 0 25.5 1.567 25.5 3.5V9.5C25.5 11.433 23.933 13 22 13H20.5V18.5H28C30.4853 18.5 32.5 20.5147 32.5 23V27H34.5C36.433 27 38 28.567 38 30.5V36.5C38 38.433 36.433 40 34.5 40H28.5C26.567 40 25 38.433 25 36.5V30.5C25 28.567 26.567 27 28.5 27H29.5V23C29.5 22.1716 28.8284 21.5 28 21.5H10C9.17157 21.5 8.5 22.1716 8.5 23V27H9.5C11.433 27 13 28.567 13 30.5V36.5C13 38.433 11.433 40 9.5 40H3.5C1.567 40 0 38.433 0 36.5V30.5C0 28.567 1.567 27 3.5 27H5.5V23C5.5 20.5147 7.51472 18.5 10 18.5H17.5V13H16C14.067 13 12.5 11.433 12.5 9.5V3.5ZM16 3C15.7239 3 15.5 3.22386 15.5 3.5V9.5C15.5 9.77614 15.7239 10 16 10H22C22.2761 10 22.5 9.77614 22.5 9.5V3.5C22.5 3.22386 22.2761 3 22 3H16ZM3.5 30C3.22386 30 3 30.2239 3 30.5V36.5C3 36.7761 3.22386 37 3.5 37H9.5C9.77614 37 10 36.7761 10 36.5V30.5C10 30.2239 9.77614 30 9.5 30H3.5ZM28 30.5C28 30.2239 28.2239 30 28.5 30H34.5C34.7761 30 35 30.2239 35 30.5V36.5C35 36.7761 34.7761 37 34.5 37H28.5C28.2239 37 28 36.7761 28 36.5V30.5Z"
    fill="#42C37B"
  />
</svg>
