<svg width="35" height="38" viewBox="0 0 35 38" fill="none" xmlns="http://www.w3.org/2000/svg">
<path d="M32.2667 25.5663H30.0333V19.983C30.0333 19.3665 29.5332 18.8666 28.9165 18.8666H18.8668V12.1666H21.0998C22.3283 12.1666 23.3334 11.1616 23.3334 9.93325V3.23327C23.3334 2.00494 22.3283 1 21.0998 1H14.4C13.1716 1 12.1667 2.00494 12.1667 3.23327V9.93328C12.1667 11.1616 13.1716 12.1667 14.4 12.1667H16.6332V18.8666H6.58334C5.96666 18.8666 5.46657 19.3665 5.46657 19.983V25.5664H3.23337C2.00497 25.5664 1 26.5714 1 27.7997V34.4997C1 35.7282 2.00494 36.7332 3.23337 36.7332H9.93332C11.1616 36.7332 12.1667 35.7282 12.1667 34.4997V27.7997C12.1667 26.5714 11.1616 25.5664 9.93332 25.5664H7.69994V21.0998H27.7997V25.5664H25.5667C24.3384 25.5664 23.3333 26.5714 23.3333 27.7997V34.4997C23.3333 35.7282 24.3384 36.7332 25.5667 36.7332H32.2666C33.495 36.7332 34.5 35.7282 34.5 34.4997V27.7997C34.5 26.5714 33.495 25.5663 32.2667 25.5663ZM14.4 3.23327H21.0998V9.93328H14.4V3.23327ZM9.93332 34.4997H3.23337V27.7997H9.93332V34.4997ZM32.2667 34.4997H25.5667V27.7997H32.2666V34.4997H32.2667Z" fill="white" stroke="white"/>
</svg>
