<svg width="48" height="33" viewBox="0 0 48 33" fill="none" xmlns="http://www.w3.org/2000/svg">
<path d="M10.52 22C10.4133 22 10.3173 21.9627 10.232 21.888C10.1573 21.8027 10.12 21.7067 10.12 21.6V11.2C10.12 11.0827 10.1573 10.9867 10.232 10.912C10.3173 10.8373 10.4133 10.8 10.52 10.8H17.88C17.9973 10.8 18.0933 10.8373 18.168 10.912C18.2427 10.9867 18.28 11.0827 18.28 11.2V12.816C18.28 12.9227 18.2427 13.0187 18.168 13.104C18.0933 13.1787 17.9973 13.216 17.88 13.216H12.936V15.568H17.56C17.6773 15.568 17.7733 15.6107 17.848 15.696C17.9227 15.7707 17.96 15.8667 17.96 15.984V17.584C17.96 17.6907 17.9227 17.7867 17.848 17.872C17.7733 17.9467 17.6773 17.984 17.56 17.984H12.936V21.6C12.936 21.7173 12.8987 21.8133 12.824 21.888C12.7493 21.9627 12.6533 22 12.536 22H10.52ZM20.4106 22C20.304 22 20.208 21.9627 20.1226 21.888C20.048 21.8027 20.0106 21.7067 20.0106 21.6V11.2C20.0106 11.0827 20.048 10.9867 20.1226 10.912C20.208 10.8373 20.304 10.8 20.4106 10.8H27.8826C28 10.8 28.096 10.8373 28.1706 10.912C28.2453 10.9867 28.2826 11.0827 28.2826 11.2V12.704C28.2826 12.8107 28.2453 12.9067 28.1706 12.992C28.096 13.0667 28 13.104 27.8826 13.104H22.7786V15.264H27.5306C27.648 15.264 27.744 15.3067 27.8186 15.392C27.8933 15.4667 27.9306 15.5627 27.9306 15.68V17.072C27.9306 17.1787 27.8933 17.2747 27.8186 17.36C27.744 17.4347 27.648 17.472 27.5306 17.472H22.7786V19.696H28.0106C28.128 19.696 28.224 19.7333 28.2986 19.808C28.3733 19.8827 28.4106 19.9787 28.4106 20.096V21.6C28.4106 21.7067 28.3733 21.8027 28.2986 21.888C28.224 21.9627 28.128 22 28.0106 22H20.4106ZM30.6294 22C30.5227 22 30.4267 21.9627 30.3414 21.888C30.2667 21.8027 30.2294 21.7067 30.2294 21.6V11.2C30.2294 11.0827 30.2667 10.9867 30.3414 10.912C30.4267 10.8373 30.5227 10.8 30.6294 10.8H38.1014C38.2187 10.8 38.3147 10.8373 38.3894 10.912C38.464 10.9867 38.5014 11.0827 38.5014 11.2V12.704C38.5014 12.8107 38.464 12.9067 38.3894 12.992C38.3147 13.0667 38.2187 13.104 38.1014 13.104H32.9974V15.264H37.7494C37.8667 15.264 37.9627 15.3067 38.0374 15.392C38.112 15.4667 38.1494 15.5627 38.1494 15.68V17.072C38.1494 17.1787 38.112 17.2747 38.0374 17.36C37.9627 17.4347 37.8667 17.472 37.7494 17.472H32.9974V19.696H38.2294C38.3467 19.696 38.4427 19.7333 38.5174 19.808C38.592 19.8827 38.6294 19.9787 38.6294 20.096V21.6C38.6294 21.7067 38.592 21.8027 38.5174 21.888C38.4427 21.9627 38.3467 22 38.2294 22H30.6294Z" fill="white"/>
<rect x="1.5" y="1.5" width="45" height="29.2623" rx="6.5" stroke="white" stroke-width="3"/>
</svg>
