<svg
  width="43"
  height="44"
  viewBox="0 0 43 44"
  fill="none"
  xmlns="http://www.w3.org/2000/svg"
>
<path
    fill-rule="evenodd"
    clip-rule="evenodd"
    d="M35.9004 4.4004C34.9241 3.42409 33.3412 3.42409 32.3649 4.4004L28.8804 7.88492L22.8694 1.87287C21.6979 0.701197 19.7986 0.701197 18.6271 1.87287L12.2637 8.2374C11.0923 9.40908 11.0923 11.3087 12.2637 12.4804L18.2738 18.4915L0.787703 35.9776C-0.188607 36.9539 -0.188607 38.5368 0.787703 39.5131L3.61613 42.3415C4.59244 43.3178 6.17535 43.3178 7.15166 42.3415L24.6372 24.856L30.6469 30.8668C31.8183 32.0385 33.7177 32.0385 34.8891 30.8668L41.2525 24.5023C42.424 23.3306 42.424 21.431 41.2525 20.2593L35.2438 14.2494L38.7288 10.7644C39.7051 9.78806 39.7051 8.20514 38.7288 7.22883L35.9004 4.4004ZM33.1226 12.1279L36.254 8.9966L34.1326 6.87528L31.0015 10.0064L33.1226 12.1279ZM22.516 22.7345L20.3949 20.613L3.26258 37.7453L5.3839 39.8667L22.516 22.7345ZM14.3849 10.3589L20.7483 3.99438L39.1314 22.3808L32.768 28.7453L14.3849 10.3589Z"
    fill="#42C37B"
  />
</svg>
