<svg width="63" height="63" viewBox="0 0 63 63" fill="none" xmlns="http://www.w3.org/2000/svg">
    <path d="M8.74902 7.51587C8.06944 7.51587 7.51855 8.06675 7.51855 8.74634V29.2849C7.51855 29.9645 8.06944 30.5154 8.74902 30.5154H42.3408C43.0204 30.5154 43.5713 29.9645 43.5713 29.2849C43.5713 28.6054 43.0204 28.0545 42.3408 28.0545H9.97949V23.5651L15.7012 17.8434L17.7317 19.8741C17.9624 20.1048 18.2754 20.2345 18.6018 20.2345C18.9281 20.2345 19.2411 20.1048 19.4718 19.8741L27.5944 11.7514L33.8265 17.9835C34.0572 18.2142 34.3702 18.3439 34.6965 18.3439C35.0229 18.3439 35.3359 18.2142 35.5666 17.9835L42.9397 10.6104C43.4202 10.1299 43.4202 9.35074 42.9397 8.87012C42.4592 8.38975 41.6799 8.38975 41.1996 8.87012L34.6964 15.3733L28.4643 9.14119C28.2336 8.91048 27.9206 8.78079 27.5943 8.78079C27.2679 8.78079 26.9549 8.91048 26.7242 9.14119L18.6016 17.2639L16.5711 15.2332C16.3404 15.0025 16.0274 14.8728 15.701 14.8728C15.3747 14.8728 15.0617 15.0025 14.831 15.2332L9.97949 20.0847V8.74634C9.97949 8.06687 9.42861 7.51587 8.74902 7.51587Z" fill="black"/>
    <path d="M34.2454 53.7781C33.352 53.7781 32.625 53.1694 32.625 52.4213C32.625 51.7418 32.0741 51.1908 31.3945 51.1908C30.7149 51.1908 30.1641 51.7418 30.1641 52.4213C30.1641 54.1254 31.364 55.572 33.0149 56.0614V56.2324C33.0149 56.9119 33.5658 57.4629 34.2454 57.4629C34.925 57.4629 35.4759 56.9119 35.4759 56.2324V56.0614C37.1268 55.5719 38.3266 54.1254 38.3266 52.4213C38.3266 50.3162 36.4958 48.6036 34.2454 48.6036C33.352 48.6036 32.625 47.995 32.625 47.2469C32.625 46.4988 33.352 45.8901 34.2454 45.8901C35.1388 45.8901 35.8657 46.4988 35.8657 47.2469C35.8657 47.9264 36.4166 48.4774 37.0961 48.4774C37.7757 48.4774 38.3266 47.9264 38.3266 47.2469C38.3266 45.5428 37.1267 44.0962 35.4759 43.6068V43.4355C35.4759 42.7561 34.925 42.2051 34.2454 42.2051C33.5658 42.2051 33.0149 42.7561 33.0149 43.4355V43.6066C31.364 44.0961 30.1641 45.5426 30.1641 47.2467C30.1641 49.3518 31.9949 51.0643 34.2454 51.0643C35.1388 51.0643 35.8657 51.6729 35.8657 52.421C35.8657 53.1692 35.139 53.7781 34.2454 53.7781Z" fill="black"/>
    <path d="M61.7695 32.9766H51.085V24.9785C51.085 24.2989 50.5341 23.748 49.8545 23.748C49.1749 23.748 48.6241 24.2989 48.6241 24.9785V32.9766H37.9395C37.2599 32.9766 36.7091 33.5276 36.7091 34.207V36.4219H2.46094V2.46094H48.6241V14.1855C48.6241 14.8651 49.1749 15.416 49.8545 15.416C50.5341 15.416 51.085 14.8651 51.085 14.1855V1.23047C51.085 0.550881 50.5341 0 49.8545 0H1.23047C0.550881 0 0 0.550881 0 1.23047V37.6523C0 38.3318 0.550881 38.8828 1.23047 38.8828H26.9478C24.2344 40.6975 22.2304 43.4928 21.4458 46.7578H14.1094C13.4298 46.7578 12.8789 47.3088 12.8789 47.9883V61.7695C12.8789 62.449 13.4298 63 14.1094 63H61.7695C62.4491 63 63 62.449 63 61.7695V34.207C63 33.5276 62.4491 32.9766 61.7695 32.9766ZM60.5391 46.7578H47.0503C46.6631 45.1463 45.9788 43.6494 45.0585 42.3281H60.5391V46.7578ZM47.3993 49.2188H60.5391V53.6484H46.85C47.2163 52.4405 47.4141 51.1599 47.4141 49.834C47.414 49.6278 47.4087 49.4228 47.3993 49.2188ZM60.5391 35.4375V39.8672H42.8415C41.7571 38.9309 40.5185 38.1688 39.17 37.6232V35.4375H60.5391ZM34.248 39.1289C40.1508 39.1289 44.9531 43.9312 44.9531 49.834C44.9531 55.7368 40.1508 60.5391 34.248 60.5391C28.3452 60.5391 23.5429 55.7368 23.5429 49.834C23.5429 43.9312 28.3452 39.1289 34.248 39.1289ZM15.3399 49.2188H21.097C21.0875 49.4228 21.0821 49.6278 21.0821 49.834C21.0821 51.1599 21.28 52.4405 21.6463 53.6484H15.3399V49.2188ZM15.3399 60.5391V56.1094H22.6762C23.6321 57.8651 24.9763 59.3801 26.5923 60.5391H15.3399ZM41.9039 60.5391C43.5198 59.3801 44.864 57.8651 45.82 56.1094H60.5391V60.5391H41.9039Z" fill="black"/>
    <path d="M49.8516 18.2109C49.5279 18.2109 49.2105 18.3426 48.9816 18.5715C48.7515 18.8003 48.6211 19.1178 48.6211 19.4414C48.6211 19.765 48.7515 20.0825 48.9816 20.3113C49.2105 20.5402 49.5267 20.6719 49.8516 20.6719C50.1752 20.6719 50.4926 20.5402 50.7215 20.3113C50.9504 20.0825 51.082 19.765 51.082 19.4414C51.082 19.1178 50.9504 18.8003 50.7215 18.5715C50.4926 18.3426 50.1752 18.2109 49.8516 18.2109Z" fill="black"/>
</svg>
