<svg width="18" height="18" viewBox="0 0 18 18" xmlns="http://www.w3.org/2000/svg">
    <path fill-rule="evenodd" clip-rule="evenodd" d="M0 2.16149C0 0.968247 0.968247 0 2.16149 0C3.35399 0 4.32224 0.968247 4.32299 2.16149C4.32299 3.35474 3.35474 4.34324 2.16149 4.34324C0.968247 4.34324 0 3.35474 0 2.16149ZM17.9957 18V17.9992H18.0002V11.3977C18.0002 8.16826 17.3049 5.68052 13.5295 5.68052C11.7145 5.68052 10.4965 6.67651 9.99923 7.62076H9.94673V5.98202H6.36699V17.9992H10.0945V12.0487C10.0945 10.482 10.3915 8.96701 12.3317 8.96701C14.2435 8.96701 14.272 10.755 14.272 12.1492V18H17.9957ZM0.294203 5.98264H4.02619V17.9998H0.294203V5.98264Z" />
</svg>
