<svg
  width="18"
  height="19"
  viewBox="0 0 18 19"
  fill="none"
  xmlns="http://www.w3.org/2000/svg"
>
<path
    fill-rule="evenodd"
    clip-rule="evenodd"
    d="M4.49993 9.75718C6.98517 9.75718 8.99986 7.7425 8.99986 5.25725C8.99986 2.77201 6.98517 0.757324 4.49993 0.757324C2.01469 0.757324 0 2.77201 0 5.25725C0 7.7425 2.01469 9.75718 4.49993 9.75718ZM4.49993 18.7575C6.98517 18.7575 8.99986 16.7428 8.99986 14.2576C8.99986 11.7724 6.98517 9.75767 4.49993 9.75767C2.01469 9.75767 0 11.7724 0 14.2576C0 16.7428 2.01469 18.7575 4.49993 18.7575ZM18.0002 5.25725C18.0002 7.7425 15.9855 9.75718 13.5003 9.75718C11.015 9.75718 9.00035 7.7425 9.00035 5.25725C9.00035 2.77201 11.015 0.757324 13.5003 0.757324C15.9855 0.757324 18.0002 2.77201 18.0002 5.25725ZM13.5003 9.75767C11.015 9.75767 9.00035 11.7724 9.00035 14.2576C9.00035 16.7428 11.015 18.7575 13.5003 18.7575C15.9855 18.7575 18.0002 16.7428 18.0002 14.2576C18.0002 11.7724 15.9855 9.75767 13.5003 9.75767Z"
    fill="#42C37B"
  />
</svg>
