<svg
  width="24"
  height="24"
  viewBox="0 0 24 24"
  fill="none"
  xmlns="http://www.w3.org/2000/svg"
>
<path
    fill-rule="evenodd"
    clip-rule="evenodd"
    d="M6 12C9.31371 12 12 9.31371 12 6C12 9.31371 14.6863 12 18 12C14.6863 12 12 14.6863 12 18C12 14.6863 9.31371 12 6 12ZM6 12C2.68629 12 0 14.6863 0 18C0 21.3137 2.68629 24 6 24C9.31371 24 12 21.3137 12 18C12 21.3137 14.6863 24 18 24C21.3137 24 24 21.3137 24 18C24 14.6863 21.3137 12 18 12C21.3137 12 24 9.31371 24 6C24 2.68629 21.3137 0 18 0C14.6863 0 12 2.68629 12 6C12 2.68629 9.31371 0 6 0C2.68629 0 0 2.68629 0 6C0 9.31371 2.68629 12 6 12Z"
    fill="#151E26"
  />
<path
    fill-rule="evenodd"
    clip-rule="evenodd"
    d="M6 12C9.31371 12 12 9.31371 12 6C12 9.31371 14.6863 12 18 12C14.6863 12 12 14.6863 12 18C12 14.6863 9.31371 12 6 12ZM6 12C2.68629 12 0 14.6863 0 18C0 21.3137 2.68629 24 6 24C9.31371 24 12 21.3137 12 18C12 21.3137 14.6863 24 18 24C21.3137 24 24 21.3137 24 18C24 14.6863 21.3137 12 18 12C21.3137 12 24 9.31371 24 6C24 2.68629 21.3137 0 18 0C14.6863 0 12 2.68629 12 6C12 2.68629 9.31371 0 6 0C2.68629 0 0 2.68629 0 6C0 9.31371 2.68629 12 6 12Z"
    fill="#42C37B"
  />
</svg>
