<svg width="36" height="36" viewBox="0 0 36 36" xmlns="http://www.w3.org/2000/svg">
    <path fill-rule="evenodd" clip-rule="evenodd" d="M9 18C13.9706 18 18 13.9706 18 9C18 13.9706 22.0294 18 27 18C22.0294 18 18 22.0294 18 27C18 22.0294 13.9706 18 9 18ZM9 18C4.02944 18 0 22.0294 0 27C0 31.9706 4.02944 36 9 36C13.9706 36 18 31.9706 18 27C18 31.9706 22.0294 36 27 36C31.9706 36 36 31.9706 36 27C36 22.0294 31.9706 18 27 18C31.9706 18 36 13.9706 36 9C36 4.02944 31.9706 0 27 0C22.0294 0 18 4.02944 18 9C18 4.02944 13.9706 0 9 0C4.02944 0 0 4.02944 0 9C0 13.9706 4.02944 18 9 18Z" />
</svg>