<svg width="26" height="26" viewBox="0 0 26 26" fill="none" xmlns="http://www.w3.org/2000/svg">
<path opacity="0.5" fill-rule="evenodd" clip-rule="evenodd" d="M26 13C26 20.1797 20.1797 26 13 26C5.8203 26 0 20.1797 0 13C0 5.8203 5.8203 0 13 0C20.1797 0 26 5.8203 26 13ZM16.2916 6.39256C16.2916 5.87301 15.9875 5.39782 15.5 5.16022V5.15706C15.2612 5.03946 14.995 4.98631 14.7285 5.003C14.4619 5.0197 14.2047 5.10565 13.9829 5.25209L8.15887 9.117L7.82262 9.32609L5.46727 9.31341C4.65963 9.31341 4 9.93592 4 10.7041V15.2961C4 16.0643 4.65802 16.6868 5.46727 16.6868H7.86606L13.9829 20.7481C14.2048 20.8944 14.462 20.9803 14.7285 20.997C14.9949 21.0137 15.2612 20.9606 15.5 20.8432C15.9875 20.6024 16.2916 20.1304 16.2916 19.6093V6.39256ZM14.8678 6.46016L9.02443 10.3382L8.49351 10.6661C8.40979 10.7175 8.31702 10.753 8.22001 10.7707L8.072 10.7865H5.54449L5.46405 15.2169H8.07039C8.17014 15.2169 8.26828 15.2343 8.35998 15.2708L8.4903 15.3341L9.00674 15.6525L14.7423 19.6093L14.8678 6.46016ZM18.1321 12.304H21.0651C21.1587 12.304 21.2513 12.3221 21.3378 12.3574C21.4243 12.3926 21.5028 12.4443 21.569 12.5095C21.6352 12.5746 21.6877 12.652 21.7235 12.7371C21.7593 12.8223 21.7778 12.9135 21.7778 13.0057C21.7778 13.0978 21.7593 13.1891 21.7235 13.2742C21.6877 13.3593 21.6352 13.4367 21.569 13.5018C21.5028 13.567 21.4243 13.6187 21.3378 13.654C21.2513 13.6892 21.1587 13.7074 21.0651 13.7074H18.1321C17.9431 13.7074 17.7618 13.6334 17.6282 13.5018C17.4945 13.3702 17.4194 13.1918 17.4194 13.0057C17.4194 12.8196 17.4945 12.6411 17.6282 12.5095C17.7618 12.3779 17.9431 12.304 18.1321 12.304ZM17.7131 16.7961C17.7131 16.6153 17.7843 16.4416 17.9117 16.3114V16.3098C17.9731 16.247 18.0467 16.1971 18.1282 16.163C18.2097 16.129 18.2973 16.1115 18.3859 16.1116C18.4744 16.1118 18.562 16.1296 18.6433 16.1639C18.7247 16.1982 18.7982 16.2484 18.8593 16.3114L20.5663 18.0633C20.6932 18.1934 20.7641 18.3668 20.7641 18.5472C20.7641 18.7276 20.6932 18.901 20.5663 19.0311C20.505 19.0943 20.4314 19.1445 20.3498 19.1789C20.2682 19.2132 20.1804 19.2309 20.0917 19.2309C20.003 19.2309 19.9152 19.2132 19.8336 19.1789C19.752 19.1445 19.6784 19.0943 19.6171 19.0311L17.9117 17.2808C17.7843 17.1506 17.7131 16.9769 17.7131 16.7961ZM17.894 8.7115L19.5994 6.96121H19.601C19.6624 6.89853 19.736 6.8486 19.8173 6.81436C19.8987 6.78011 19.9861 6.76224 20.0746 6.76179C20.1631 6.76135 20.2507 6.77835 20.3324 6.81178C20.4141 6.84521 20.4882 6.8944 20.5502 6.95645C20.6781 7.08474 20.7502 7.25697 20.7514 7.4367C20.7526 7.61643 20.6828 7.78958 20.5567 7.91951L18.84 9.6809C18.7788 9.74356 18.7053 9.79341 18.624 9.82746C18.5428 9.86151 18.4553 9.87906 18.367 9.87906C18.2787 9.87906 18.1913 9.86151 18.11 9.82746C18.0287 9.79341 17.9553 9.74356 17.894 9.6809C17.7666 9.55072 17.6954 9.37698 17.6954 9.1962C17.6954 9.01542 17.7666 8.84168 17.894 8.7115Z" fill="white"/>
</svg>
