<svg width="27" height="16" viewBox="0 0 27 16" xmlns="http://www.w3.org/2000/svg">
    <path fill-rule="evenodd" clip-rule="evenodd" d="M15.2299 7.68558C15.2299 11.9301 11.8205 15.3709 7.61507 15.3709C3.40963 15.3709 0 11.9301 0 7.68558C0 3.44108 3.40937 0 7.61507 0C11.8208 0 15.2299 3.44108 15.2299 7.68558ZM23.5823 7.68532C23.5823 11.6806 21.8776 14.9207 19.7748 14.9207C17.6719 14.9207 15.9672 11.6806 15.9672 7.68532C15.9672 3.69005 17.6717 0.449948 19.7745 0.449948C21.8774 0.449948 23.582 3.68901 23.582 7.68532H23.5823ZM25.6608 14.1672C26.4004 14.1672 26.9999 11.2642 26.9999 7.68544C26.9999 4.10562 26.4002 1.20369 25.6608 1.20369C24.9213 1.20369 24.3219 4.10588 24.3219 7.68544C24.3219 11.265 24.9211 14.1672 25.6608 14.1672Z" />
</svg>
