<svg width="48" height="33" viewBox="0 0 48 33" fill="none" xmlns="http://www.w3.org/2000/svg">
<rect x="1.5" y="1.74512" width="45" height="29.2623" rx="6.5" stroke="#27A577" stroke-width="3"/>
<mask id="path-2-inside-1" fill="white">
<path d="M26.2474 22.9855C24.9402 24.208 23.2999 25.0154 21.5338 25.3057C19.7677 25.596 17.9553 25.356 16.3256 24.6162C14.6959 23.8763 13.3222 22.6699 12.3782 21.1493C11.4342 19.6287 10.9622 17.8624 11.0221 16.0737C11.082 14.2849 11.6709 12.5541 12.7145 11.1C13.758 9.64598 15.2093 8.53404 16.8848 7.90482C18.5603 7.27559 20.3848 7.15734 22.1275 7.56502C23.8702 7.9727 25.4529 8.888 26.6754 10.1952L24.4116 12.3124C23.6078 11.4529 22.5673 10.8511 21.4215 10.5831C20.2757 10.315 19.0761 10.3928 17.9745 10.8065C16.8729 11.2202 15.9187 11.9513 15.2326 12.9073C14.5465 13.8633 14.1593 15.0013 14.1199 16.1773C14.0806 17.3534 14.3908 18.5147 15.0115 19.5144C15.6322 20.5142 16.5353 21.3074 17.6068 21.7938C18.6783 22.2803 19.87 22.438 21.0311 22.2472C22.1923 22.0563 23.2708 21.5255 24.1302 20.7217L26.2474 22.9855Z"/>
</mask>
<path d="M26.2474 22.9855C24.9402 24.208 23.2999 25.0154 21.5338 25.3057C19.7677 25.596 17.9553 25.356 16.3256 24.6162C14.6959 23.8763 13.3222 22.6699 12.3782 21.1493C11.4342 19.6287 10.9622 17.8624 11.0221 16.0737C11.082 14.2849 11.6709 12.5541 12.7145 11.1C13.758 9.64598 15.2093 8.53404 16.8848 7.90482C18.5603 7.27559 20.3848 7.15734 22.1275 7.56502C23.8702 7.9727 25.4529 8.888 26.6754 10.1952L24.4116 12.3124C23.6078 11.4529 22.5673 10.8511 21.4215 10.5831C20.2757 10.315 19.0761 10.3928 17.9745 10.8065C16.8729 11.2202 15.9187 11.9513 15.2326 12.9073C14.5465 13.8633 14.1593 15.0013 14.1199 16.1773C14.0806 17.3534 14.3908 18.5147 15.0115 19.5144C15.6322 20.5142 16.5353 21.3074 17.6068 21.7938C18.6783 22.2803 19.87 22.438 21.0311 22.2472C22.1923 22.0563 23.2708 21.5255 24.1302 20.7217L26.2474 22.9855Z" stroke="#27A577" stroke-width="8" mask="url(#path-2-inside-1)"/>
<mask id="path-3-inside-2" fill="white">
<path d="M39.7373 20.0057C38.8976 21.9235 37.4189 23.4908 35.5532 24.4406C33.6875 25.3904 31.5501 25.6638 29.5053 25.2144C27.4606 24.765 25.6349 23.6205 24.3394 21.9759C23.0439 20.3313 22.3587 18.2884 22.4005 16.1952C22.4424 14.1021 23.2087 12.0882 24.569 10.4967C25.9292 8.90525 27.7992 7.83466 29.8603 7.46737C31.9214 7.10008 34.0461 7.45881 35.8724 8.48245C37.6987 9.50608 39.1135 11.1313 39.8758 13.0811L36.9891 14.2098C36.4879 12.9278 35.5576 11.8593 34.3569 11.1862C33.1562 10.5132 31.7592 10.2774 30.4041 10.5188C29.049 10.7603 27.8195 11.4642 26.9252 12.5106C26.0308 13.5569 25.527 14.881 25.4994 16.2572C25.4719 17.6334 25.9224 18.9766 26.7742 20.0579C27.626 21.1392 28.8263 21.8917 30.1707 22.1871C31.5151 22.4826 32.9204 22.3028 34.147 21.6784C35.3737 21.0539 36.3459 20.0234 36.898 18.7625L39.7373 20.0057Z"/>
</mask>
<path d="M39.7373 20.0057C38.8976 21.9235 37.4189 23.4908 35.5532 24.4406C33.6875 25.3904 31.5501 25.6638 29.5053 25.2144C27.4606 24.765 25.6349 23.6205 24.3394 21.9759C23.0439 20.3313 22.3587 18.2884 22.4005 16.1952C22.4424 14.1021 23.2087 12.0882 24.569 10.4967C25.9292 8.90525 27.7992 7.83466 29.8603 7.46737C31.9214 7.10008 34.0461 7.45881 35.8724 8.48245C37.6987 9.50608 39.1135 11.1313 39.8758 13.0811L36.9891 14.2098C36.4879 12.9278 35.5576 11.8593 34.3569 11.1862C33.1562 10.5132 31.7592 10.2774 30.4041 10.5188C29.049 10.7603 27.8195 11.4642 26.9252 12.5106C26.0308 13.5569 25.527 14.881 25.4994 16.2572C25.4719 17.6334 25.9224 18.9766 26.7742 20.0579C27.626 21.1392 28.8263 21.8917 30.1707 22.1871C31.5151 22.4826 32.9204 22.3028 34.147 21.6784C35.3737 21.0539 36.3459 20.0234 36.898 18.7625L39.7373 20.0057Z" stroke="#27A577" stroke-width="8" mask="url(#path-3-inside-2)"/>
</svg>
