<svg
  width="42"
  height="32"
  viewBox="0 0 42 32"
  fill="none"
  xmlns="http://www.w3.org/2000/svg"
>
<path
    fill-rule="evenodd"
    clip-rule="evenodd"
    d="M34 3H8C5.23858 3 3 5.23858 3 8V24C3 26.7614 5.23858 29 8 29H34C36.7614 29 39 26.7614 39 24V8C39 5.23858 36.7614 3 34 3ZM8 0C3.58172 0 0 3.58172 0 8V24C0 28.4183 3.58172 32 8 32H34C38.4183 32 42 28.4183 42 24V8C42 3.58172 38.4183 0 34 0H8ZM18.6222 24.6598C18.2447 24.7741 17.8588 24.8641 17.4667 24.9285C15.7006 25.2188 13.8882 24.9788 12.2585 24.239C10.6288 23.4991 9.25507 22.2927 8.31106 20.7721C7.36705 19.2516 6.89514 17.4852 6.955 15.6965C7.01486 13.9077 7.60381 12.1769 8.64736 10.7228C9.69091 9.26878 11.1422 8.15684 12.8177 7.52762C14.4932 6.89839 16.3177 6.78015 18.0604 7.18783C18.4473 7.27834 18.8264 7.39388 19.1953 7.53318C20.0978 7.87391 20.94 8.35678 21.6898 8.96325C22.8707 8.00819 24.2804 7.35983 25.793 7.09027C27.8541 6.72298 29.9788 7.08171 31.8051 8.10534C32.4133 8.44625 32.9759 8.85389 33.4839 9.31802C34.5012 10.2473 35.2998 11.4032 35.8083 12.7034L35.8085 12.704L32.9218 13.8327C32.4206 12.5507 31.4903 11.4821 30.2896 10.8091C29.0889 10.1361 27.6919 9.90026 26.3368 10.1417C24.9817 10.3832 23.7522 11.0871 22.8579 12.1335C21.9635 13.1798 21.4597 14.5039 21.4321 15.8801C21.4046 17.2563 21.8551 18.5995 22.7069 19.6808C23.5587 20.7621 24.759 21.5146 26.1034 21.81C27.4478 22.1055 28.8531 21.9257 30.0797 21.3013C31.3064 20.6768 32.2786 19.6463 32.8307 18.3854L35.67 19.6286C35.11 20.9077 34.2657 22.0309 33.2119 22.9189C32.6857 23.3624 32.1073 23.7472 31.4859 24.0635C29.6202 25.0133 27.4828 25.2867 25.438 24.8373C24.0567 24.5337 22.7753 23.9129 21.6899 23.035C20.7805 23.7705 19.7384 24.3217 18.6222 24.6598ZM19.6475 20.6988C18.8668 21.3049 17.9449 21.7088 16.964 21.87C15.8029 22.0608 14.6112 21.9031 13.5397 21.4166C12.4682 20.9302 11.5651 20.137 10.9444 19.1373C10.3237 18.1375 10.0135 16.9762 10.0528 15.8001C10.0922 14.6241 10.4794 13.4861 11.1655 12.5301C11.8516 11.5741 12.8058 10.843 13.9074 10.4293C15.009 10.0156 16.2086 9.93785 17.3544 10.2059C18.1921 10.4019 18.9737 10.7763 19.6475 11.2994C18.823 12.6561 18.3653 14.2138 18.3332 15.8181C18.2987 17.5443 18.7586 19.2362 19.6475 20.6988Z"
    fill="#42C37B"
  />
</svg>
