<svg width="48" height="33" viewBox="0 0 48 33" fill="none" xmlns="http://www.w3.org/2000/svg">
<rect x="1.5" y="1.5" width="45" height="29.2623" rx="6.5" stroke="white" stroke-width="3"/>
<mask id="path-2-inside-1" fill="white">
<path d="M26.2474 22.7404C24.9402 23.9629 23.2999 24.7703 21.5338 25.0606C19.7677 25.3508 17.9553 25.1109 16.3256 24.371C14.6959 23.6312 13.3222 22.4247 12.3782 20.9042C11.4342 19.3836 10.9622 17.6173 11.0221 15.8285C11.082 14.0398 11.6709 12.3089 12.7145 10.8549C13.758 9.40086 15.2093 8.28892 16.8848 7.6597C18.5603 7.03047 20.3848 6.91223 22.1275 7.31991C23.8702 7.72759 25.4529 8.64289 26.6754 9.95006L24.4116 12.0672C23.6078 11.2078 22.5673 10.606 21.4215 10.338C20.2757 10.0699 19.0761 10.1477 17.9745 10.5614C16.8729 10.9751 15.9187 11.7061 15.2326 12.6621C14.5465 13.6181 14.1593 14.7561 14.1199 15.9322C14.0806 17.1083 14.3908 18.2696 15.0115 19.2693C15.6322 20.2691 16.5353 21.0623 17.6068 21.5487C18.6783 22.0351 19.87 22.1929 21.0311 22.0021C22.1923 21.8112 23.2708 21.2804 24.1302 20.4766L26.2474 22.7404Z"/>
</mask>
<path d="M26.2474 22.7404C24.9402 23.9629 23.2999 24.7703 21.5338 25.0606C19.7677 25.3508 17.9553 25.1109 16.3256 24.371C14.6959 23.6312 13.3222 22.4247 12.3782 20.9042C11.4342 19.3836 10.9622 17.6173 11.0221 15.8285C11.082 14.0398 11.6709 12.3089 12.7145 10.8549C13.758 9.40086 15.2093 8.28892 16.8848 7.6597C18.5603 7.03047 20.3848 6.91223 22.1275 7.31991C23.8702 7.72759 25.4529 8.64289 26.6754 9.95006L24.4116 12.0672C23.6078 11.2078 22.5673 10.606 21.4215 10.338C20.2757 10.0699 19.0761 10.1477 17.9745 10.5614C16.8729 10.9751 15.9187 11.7061 15.2326 12.6621C14.5465 13.6181 14.1593 14.7561 14.1199 15.9322C14.0806 17.1083 14.3908 18.2696 15.0115 19.2693C15.6322 20.2691 16.5353 21.0623 17.6068 21.5487C18.6783 22.0351 19.87 22.1929 21.0311 22.0021C22.1923 21.8112 23.2708 21.2804 24.1302 20.4766L26.2474 22.7404Z" stroke="white" stroke-width="8" mask="url(#path-2-inside-1)"/>
<mask id="path-3-inside-2" fill="white">
<path d="M39.7371 19.7607C38.8974 21.6785 37.4187 23.2458 35.5529 24.1956C33.6872 25.1454 31.5499 25.4189 29.5051 24.9694C27.4603 24.52 25.6346 23.3755 24.3391 21.7309C23.0436 20.0863 22.3584 18.0434 22.4003 15.9502C22.4421 13.8571 23.2085 11.8432 24.5687 10.2517C25.929 8.66026 27.799 7.58967 29.8601 7.22238C31.9212 6.85509 34.0459 7.21382 35.8721 8.23745C37.6984 9.26108 39.1132 10.8863 39.8756 12.8361L36.9888 13.9648C36.4876 12.6828 35.5574 11.6143 34.3567 10.9412C33.1559 10.2682 31.759 10.0324 30.4039 10.2739C29.0487 10.5153 27.8193 11.2192 26.9249 12.2656C26.0306 13.3119 25.5267 14.636 25.4992 16.0122C25.4717 17.3884 25.9222 18.7316 26.774 19.8129C27.6257 20.8942 28.8261 21.6467 30.1705 21.9421C31.5149 22.2376 32.9201 22.0578 34.1468 21.4334C35.3735 20.8089 36.3457 19.7784 36.8978 18.5175L39.7371 19.7607Z"/>
</mask>
<path d="M39.7371 19.7607C38.8974 21.6785 37.4187 23.2458 35.5529 24.1956C33.6872 25.1454 31.5499 25.4189 29.5051 24.9694C27.4603 24.52 25.6346 23.3755 24.3391 21.7309C23.0436 20.0863 22.3584 18.0434 22.4003 15.9502C22.4421 13.8571 23.2085 11.8432 24.5687 10.2517C25.929 8.66026 27.799 7.58967 29.8601 7.22238C31.9212 6.85509 34.0459 7.21382 35.8721 8.23745C37.6984 9.26108 39.1132 10.8863 39.8756 12.8361L36.9888 13.9648C36.4876 12.6828 35.5574 11.6143 34.3567 10.9412C33.1559 10.2682 31.759 10.0324 30.4039 10.2739C29.0487 10.5153 27.8193 11.2192 26.9249 12.2656C26.0306 13.3119 25.5267 14.636 25.4992 16.0122C25.4717 17.3884 25.9222 18.7316 26.774 19.8129C27.6257 20.8942 28.8261 21.6467 30.1705 21.9421C31.5149 22.2376 32.9201 22.0578 34.1468 21.4334C35.3735 20.8089 36.3457 19.7784 36.8978 18.5175L39.7371 19.7607Z" stroke="white" stroke-width="8" mask="url(#path-3-inside-2)"/>
</svg>
