<svg width="26" height="26" viewBox="0 0 26 26" fill="none" xmlns="http://www.w3.org/2000/svg">
<circle cx="13" cy="13" r="13" fill="#16674C"/>
<path d="M11.8749 6.338H14.1789L13.8369 15.302H12.2169L11.8749 6.338ZM12.9909 20.198C12.6309 20.198 12.3249 20.078 12.0729 19.838C11.8209 19.586 11.6949 19.274 11.6949 18.902C11.6949 18.542 11.8149 18.236 12.0549 17.984C12.3069 17.732 12.6189 17.606 12.9909 17.606C13.3629 17.606 13.6689 17.732 13.9089 17.984C14.1609 18.236 14.2869 18.542 14.2869 18.902C14.2869 19.274 14.1609 19.586 13.9089 19.838C13.6689 20.078 13.3629 20.198 12.9909 20.198Z" fill="#22D297"/>
</svg>
