<svg
  width="90"
  height="90"
  viewBox="0 0 90 90"
  fill="none"
  xmlns="http://www.w3.org/2000/svg"
>
<rect width="90" height="90" rx="45" fill="#FF5995" />
<path
    fill-rule="evenodd"
    clip-rule="evenodd"
    d="M36.1647 36.1645C41.0465 41.0426 48.9584 41.0414 53.8388 36.161C48.9584 41.0414 48.9573 48.9534 53.8353 53.8352C48.9547 48.9583 41.0453 48.9583 36.1647 53.8352C41.0416 48.9545 41.0416 41.0452 36.1647 36.1645ZM36.1577 53.8422C31.2758 58.7203 23.3639 58.7191 18.4835 53.8387C13.6019 48.9572 13.6019 41.0426 18.4835 36.161C23.3639 31.2806 31.2758 31.2795 36.1577 36.1575C31.2796 31.2757 31.2808 23.3638 36.1612 18.4834C41.0427 13.6018 48.9573 13.6018 53.8388 18.4834C58.7199 23.3644 58.7204 31.2778 53.8404 36.1595C58.722 31.2795 66.6355 31.28 71.5165 36.161C76.3981 41.0426 76.3981 48.9572 71.5165 53.8387C66.6361 58.7191 58.7242 58.7203 53.8423 53.8422C58.7204 58.724 58.7192 66.636 53.8388 71.5164C48.9573 76.3979 41.0427 76.3979 36.1612 71.5164C31.2808 66.636 31.2796 58.724 36.1577 53.8422Z"
    fill="white"
  />
<path
    fill-rule="evenodd"
    clip-rule="evenodd"
    d="M36.1647 36.1645C41.0465 41.0426 48.9584 41.0414 53.8388 36.161C48.9584 41.0414 48.9573 48.9534 53.8353 53.8352C48.9547 48.9583 41.0453 48.9583 36.1647 53.8352C41.0416 48.9545 41.0416 41.0452 36.1647 36.1645ZM36.1577 53.8422C31.2758 58.7203 23.3639 58.7191 18.4835 53.8387C13.6019 48.9572 13.6019 41.0426 18.4835 36.161C23.3639 31.2806 31.2758 31.2795 36.1577 36.1575C31.2796 31.2757 31.2808 23.3638 36.1612 18.4834C41.0427 13.6018 48.9573 13.6018 53.8388 18.4834C58.7199 23.3644 58.7204 31.2778 53.8404 36.1595C58.722 31.2795 66.6355 31.28 71.5165 36.161C76.3981 41.0426 76.3981 48.9572 71.5165 53.8387C66.6361 58.7191 58.7242 58.7203 53.8423 53.8422C58.7204 58.724 58.7192 66.636 53.8388 71.5164C48.9573 76.3979 41.0427 76.3979 36.1612 71.5164C31.2808 66.636 31.2796 58.724 36.1577 53.8422Z"
    fill="white"
  />
</svg>
