<svg
  width="26"
  height="26"
  viewBox="0 0 26 26"
  fill="none"
  xmlns="http://www.w3.org/2000/svg"
>
<path
    fill-rule="evenodd"
    clip-rule="evenodd"
    d="M9.81807 9.54579C11.5754 11.3031 14.4246 11.3031 16.1819 9.54579C17.9393 7.78846 17.9393 4.93926 16.1819 3.18193C14.4246 1.4246 11.5754 1.4246 9.81807 3.18193C8.06074 4.93926 8.06074 7.78846 9.81807 9.54579ZM3.45386 15.91C5.2112 17.6673 8.06039 17.6673 9.81772 15.91C11.5751 14.1527 11.5751 11.3035 9.81772 9.54614C8.06039 7.7888 5.2112 7.7888 3.45386 9.54614C1.69653 11.3035 1.69653 14.1527 3.45386 15.91ZM22.5461 15.91C20.7888 17.6673 17.9396 17.6673 16.1823 15.91C14.4249 14.1527 14.4249 11.3035 16.1823 9.54614C17.9396 7.7888 20.7888 7.7888 22.5461 9.54614C24.3035 11.3035 24.3035 14.1527 22.5461 15.91ZM16.1819 15.9103C14.4246 14.153 11.5754 14.153 9.81807 15.9103C8.06074 17.6677 8.06074 20.5169 9.81807 22.2742C11.5754 24.0315 14.4246 24.0315 16.1819 22.2742C17.9393 20.5169 17.9393 17.6677 16.1819 15.9103Z"
    fill="#FF5995"
  />
</svg>
