<svg width="25" height="25" viewBox="0 0 25 25" fill="none" xmlns="http://www.w3.org/2000/svg">
    <path fill-rule="evenodd" clip-rule="evenodd"
        d="M9.16263 15.8388C7.188 17.8134 7.18799 21.0149 9.16263 22.9895C11.1372 24.9641 14.3387 24.9641 16.3133 22.9895C18.2817 21.0211 18.2879 17.8335 16.3318 15.8574C18.3079 17.8133 21.4954 17.8071 23.4638 15.8388C25.4384 13.8641 25.4384 10.6627 23.4638 8.68808C21.4967 6.72099 18.3121 6.71348 16.3358 8.66555C18.2879 6.68916 18.2804 3.50452 16.3133 1.53743C14.3387 -0.437209 11.1373 -0.437208 9.16263 1.53743C7.18845 3.5116 7.18799 6.71211 9.16133 8.68681C7.18662 6.71348 3.98611 6.71394 2.01193 8.68812C0.0372957 10.6628 0.0372972 13.8642 2.01193 15.8388C3.98657 17.8134 7.188 17.8134 9.16263 15.8388ZM9.17405 8.67742C11.1463 10.6496 14.3403 10.656 16.3234 8.69743C14.3709 10.6742 14.371 13.8545 16.3247 15.8282C14.3439 13.8676 11.1478 13.8745 9.17273 15.8482C11.1527 13.8669 11.1534 10.6568 9.17405 8.67742Z"
        fill="#F92672" />
</svg>