<svg width="70" height="70" viewBox="0 0 70 70" fill="none" xmlns="http://www.w3.org/2000/svg">
    <path d="M69.4594 62.209L68.4608 61.2102C68.0604 60.8096 67.4111 60.8098 67.0108 61.2101C66.6102 61.6105 66.6102 62.2598 67.0106 62.6601L67.8642 63.5138L63.5141 67.864L56.1184 60.4685L60.4687 56.1183L63.9189 59.5685C64.3195 59.9688 64.9686 59.9688 65.3691 59.5685C65.7695 59.1679 65.7695 58.5188 65.3691 58.1183L61.1956 53.945L61.1938 53.9429L58.2936 51.0427L58.2911 51.0405L55.7316 48.481C55.383 48.1322 54.9195 47.9402 54.4264 47.9402C53.9332 47.9402 53.4697 48.1322 53.1213 48.4807L52.9762 48.6259L49.3071 44.9559C51.9296 41.6793 53.8237 37.7963 54.743 33.5538H61.9679C62.5343 33.5538 62.9933 33.0948 62.9933 32.5284C62.9933 31.962 62.5343 31.503 61.9679 31.503H55.1065C55.1969 30.8509 55.2645 30.1916 55.3083 29.5259H66.8555C67.4219 29.5259 67.8809 29.067 67.8809 28.5005C67.8809 27.9341 67.4219 27.4751 66.8555 27.4751H55.3689C55.364 26.8116 55.3365 26.1524 55.2862 25.4979H61.9681C62.5345 25.4979 62.9934 25.0389 62.9934 24.4725C62.9934 23.9061 62.5345 23.4471 61.9681 23.4471H55.052C54.3356 18.7332 52.4197 14.3238 49.405 10.515C49.0535 10.0711 48.4087 9.99619 47.9645 10.3474C47.5206 10.6989 47.4455 11.3438 47.7969 11.7879C51.4104 16.3528 53.3203 21.8501 53.3203 27.6855C53.3203 41.8206 41.8206 53.3203 27.6855 53.3203C13.5505 53.3203 2.05078 41.8206 2.05078 27.6855C2.05078 13.5505 13.5505 2.05078 27.6855 2.05078C34.0755 2.05078 40.1968 4.41574 44.9215 8.70994C45.3405 9.09111 45.9893 9.05994 46.3699 8.6409C46.7508 8.22186 46.7199 7.57326 46.3008 7.19236C41.1979 2.55432 34.5868 0 27.6855 0C12.4197 0 0 12.4197 0 27.6855C0 41.1636 9.6816 52.4208 22.4551 54.8733V61.7911C22.4551 62.3576 22.9141 62.8165 23.4805 62.8165C24.0469 62.8165 24.5059 62.3576 24.5059 61.7911V55.1875C25.1584 55.2624 25.8177 55.3149 26.4831 55.3435V66.6132C26.4831 67.1796 26.9421 67.6386 27.5085 67.6386C28.0749 67.6386 28.5339 67.1796 28.5339 66.6132V55.3569C29.1989 55.3368 29.8584 55.2944 30.5111 55.228V61.7911C30.5111 62.3576 30.9701 62.8165 31.5365 62.8165C32.1029 62.8165 32.5619 62.3576 32.5619 61.7911V54.941C37.1916 54.1149 41.4254 52.133 44.956 49.3071L48.6261 52.9763L48.4812 53.1213C48.1324 53.4699 47.9403 53.9334 47.9403 54.4265C47.9403 54.9196 48.1324 55.3831 48.4809 55.7316L51.0413 58.292L51.0429 58.2936L53.9431 61.1938L53.945 61.1956L62.2087 69.4591C62.5573 69.8081 63.0208 70 63.5139 70C64.0071 70 64.4704 69.8081 64.8192 69.4594L69.4594 64.8192C69.8081 64.4704 70 64.0071 70 63.5139C70 63.0208 69.8081 62.5573 69.4594 62.209ZM47.9638 46.5128L51.5259 50.0757L50.0758 51.5257L46.513 47.9637C47.0142 47.4981 47.4981 47.0142 47.9638 46.5128ZM54.6682 59.0185L53.218 57.5684L57.5683 53.2182L59.0183 54.6684L54.6682 59.0185ZM54.4265 50.0761L56.1183 51.7679L51.768 56.1181L50.0763 54.4264L54.4265 50.0761Z" fill="black"/>
    <path d="M13.4054 46.4559C17.5123 49.5429 22.446 51.2075 27.6849 51.2695C40.6892 51.2695 51.2689 40.6898 51.2689 27.6855C51.2689 14.6813 40.6892 4.10156 27.6849 4.10156C21.4091 4.10156 15.5063 6.55799 11.0641 11.0183C6.64074 15.4596 4.16791 21.375 4.10092 27.6746C4.0394 33.4741 6.14664 39.0484 10.0344 43.3706C10.4131 43.7916 11.0614 43.826 11.4825 43.4473C11.9036 43.0686 11.9379 42.4201 11.5592 41.9992C8.016 38.06 6.09551 32.9805 6.1517 27.6965C6.21281 21.9347 8.47346 16.5256 12.5172 12.4656C16.5717 8.39439 21.9583 6.15234 27.6849 6.15234C39.5584 6.15234 49.2181 15.8121 49.2181 27.6855C49.2181 39.559 39.5584 49.2188 27.6971 49.2189C22.9093 49.162 18.3935 47.6396 14.6376 44.8167C14.1852 44.4761 13.542 44.5676 13.2019 45.0203C12.8614 45.4729 12.9526 46.1158 13.4054 46.4559Z" fill="black"/>
    <path d="M31.5823 9.36523H24.473C23.606 9.36523 22.9007 10.0706 22.9007 10.9375V14.5605H16.2698C15.4029 14.5605 14.6976 15.2659 14.6976 16.1328V27.1387H13.3252C12.7588 27.1387 12.2998 27.5976 12.2998 28.1641C12.2998 28.7305 12.7588 29.1895 13.3252 29.1895H42.7301C43.2966 29.1895 43.7555 28.7305 43.7555 28.1641C43.7555 27.5976 43.2966 27.1387 42.7301 27.1387H41.3577V21.3281C41.3577 20.4612 40.6524 19.7559 39.7855 19.7559H33.1546V10.9375C33.1546 10.0706 32.4493 9.36523 31.5823 9.36523ZM16.7484 16.6113H22.9007V27.1387H16.7484V16.6113ZM24.9515 11.416H31.1038V27.1387H24.9515V11.416ZM39.307 21.8066V27.1387H33.1546V21.8066H39.307Z" fill="black"/>
    <path d="M39.5125 37.8784H34.6851L32.4922 32.2725C32.3371 31.8764 31.9573 31.6201 31.5282 31.6206C31.1027 31.6244 30.7237 31.8906 30.5758 32.2896L27.5789 40.3709L25.4844 34.4341C25.3504 34.0541 25.0061 33.7877 24.6045 33.7536C24.2033 33.7188 23.8186 33.9236 23.622 34.2753L21.6106 37.8782H16.7959C16.2295 37.8782 15.7705 38.3372 15.7705 38.9036C15.7705 39.47 16.2295 39.929 16.7959 39.929H22.2124C22.584 39.929 22.9266 39.7279 23.1078 39.4034L24.3059 37.2576L26.5878 43.7258C26.7315 44.1331 27.1147 44.4065 27.5466 44.4101H27.555C27.9833 44.4101 28.3671 44.1435 28.5162 43.7411L31.5628 35.526L33.0302 39.2773C33.184 39.6703 33.5628 39.9291 33.985 39.9291H39.5125C40.079 39.9291 40.5379 39.4702 40.5379 38.9037C40.5379 38.3373 40.079 37.8784 39.5125 37.8784Z" fill="black"/>
</svg>
