<svg width="56" height="55" viewBox="0 0 56 55" fill="none" xmlns="http://www.w3.org/2000/svg">
<path d="M27.9996 54.2361C43.034 54.2361 55.2218 42.2659 55.2218 27.5C55.2218 12.734 43.034 0.763885 27.9996 0.763885C12.9651 0.763885 0.777344 12.734 0.777344 27.5C0.777344 42.2659 12.9651 54.2361 27.9996 54.2361Z" fill="white" stroke="#ECEFF2"/>
<path d="M43.1106 17.8669C42.5957 17.4812 41.9817 16.9542 40.8628 16.8225C39.8131 16.6907 38.7437 17.3588 38.0208 17.8011C37.298 18.2432 35.9316 19.5418 35.367 19.9369C34.8027 20.3321 33.357 20.6991 31.0298 22.0258C28.7029 23.3526 19.573 28.9228 19.573 28.9228L21.9494 28.9511L11.3541 34.1356H12.4136L10.8887 35.2365C10.8887 35.2365 12.2354 35.5752 13.3642 34.8977V35.2083C13.3642 35.2083 25.9797 30.4848 28.4157 31.708L26.9303 32.122C27.0591 32.122 29.4555 32.2725 29.4555 32.2725C29.4555 32.2725 29.5346 33.6933 30.9804 34.606C32.4261 35.5094 32.4558 36.0081 32.4558 36.0081C32.4558 36.0081 31.7032 36.2997 31.7032 36.6667C31.7032 36.6667 32.8124 36.3468 33.8421 36.375C34.8719 36.4033 35.773 36.6667 35.773 36.6667C35.773 36.6667 35.6939 36.2714 34.6936 36.0081C33.6836 35.7352 32.7033 34.7096 32.2181 34.1449C31.733 33.5804 31.3962 32.5736 31.8121 31.5668C32.1587 30.7106 33.3668 30.2401 35.8622 29.0169C38.8031 27.5678 39.4765 26.4952 39.8925 25.6578C40.3083 24.8204 40.9222 23.1549 41.2688 22.374C41.7045 21.3672 42.2392 20.8308 42.6848 20.5109C43.1206 20.191 45.1109 19.4853 45.1109 19.4853C45.1109 19.4853 43.5958 18.2339 43.1106 17.8669Z" fill="black"/>
</svg>
