<svg width="68" height="68" viewBox="0 0 68 68" fill="none" xmlns="http://www.w3.org/2000/svg">
<path d="M34 0.5C52.4987 0.5 67.5 15.5013 67.5 34C67.5 52.4987 52.4987 67.5 34 67.5C15.5013 67.5 0.5 52.4987 0.5 34C0.5 15.5013 15.5013 0.5 34 0.5Z" fill="white" stroke="#D5D8DB"/>
<path fill-rule="evenodd" clip-rule="evenodd" d="M35.277 13.0918L46.7888 20.4175V49.146L35.1921 55.4715L21.7773 47.2163V20.3608L35.277 13.0918ZM24.1222 23.1023L31.9563 27.6722L24.1222 32.2421V23.1023ZM24.1222 36.3246V45.906L35.263 52.7619L44.444 47.754V36.3246L34.2831 42.2518L24.1222 36.3246ZM44.444 32.2421L36.6099 27.6722L44.444 23.1023V32.2421ZM43.3642 21.0176L34.2831 26.3149L25.3467 21.102L35.1781 15.8082L43.3642 21.0176ZM33.1107 29.7134L25.2766 34.2833L33.1107 38.8532V29.7134ZM35.4555 38.8532L43.2896 34.2833L35.4555 29.7134V38.8532Z" fill="black"/>
</svg>
