<svg width="95" height="95" viewBox="0 0 95 95" fill="none" xmlns="http://www.w3.org/2000/svg">
<path d="M47.5009 93.6806C73.0057 93.6806 93.6814 73.0048 93.6814 47.5C93.6814 21.9952 73.0057 1.31944 47.5009 1.31944C21.9961 1.31944 1.32031 21.9952 1.32031 47.5C1.32031 73.0048 21.9961 93.6806 47.5009 93.6806Z" fill="white" stroke="#ECEFF2"/>
<path d="M35.2013 42.4465L47.5009 30.1477L59.8068 42.4531L66.9632 35.2965L47.5009 15.8333L28.0449 35.2899L35.2013 42.4465Z" fill="#F3BA2F"/>
<path d="M30.1475 47.4995L22.9908 40.3428L15.834 47.4997L22.9905 54.6564L30.1475 47.4995Z" fill="#F3BA2F"/>
<path d="M35.2004 52.5537L47.4998 64.8528L59.8052 52.5477L66.9658 59.7004L66.9624 59.7043L47.4998 79.1669L28.0432 59.7109L28.0332 59.7009L35.2004 52.5537Z" fill="#F3BA2F"/>
<path d="M72.0099 54.6596L79.1668 47.5026L72.0104 40.346L64.8535 47.5029L72.0099 54.6596Z" fill="#F3BA2F"/>
<path d="M54.7574 47.4963H54.7603L47.4981 40.2341L42.1314 45.6008H42.1308L41.5144 46.2178L40.2424 47.4897L40.2324 47.4997L40.2424 47.5103L47.4981 54.7659L54.7603 47.5037L54.7637 47.4997L54.7574 47.4963Z" fill="#F3BA2F"/>
</svg>
