<svg width="94" height="94" viewBox="0 0 94 94" fill="none" xmlns="http://www.w3.org/2000/svg">
<circle cx="47" cy="47" r="46.5" fill="#D30070" stroke="#D5D8DB"/>
<path d="M46.802 21.15C41.5629 21.1697 36.5441 23.2645 32.8395 26.9779C29.1349 30.6913 27.045 35.722 27.0254 40.9735C27.0251 43.163 27.377 45.3383 28.0676 47.4155C28.3155 48.0954 28.8134 48.6544 29.4593 48.9781C30.1052 49.3019 30.8502 49.3657 31.5415 49.1566C32.2125 48.901 32.7608 48.3983 33.0744 47.7511C33.388 47.1039 33.4432 46.3611 33.2288 45.6745C32.6414 44.0591 32.38 42.3428 32.4596 40.6253C32.5417 37.8528 33.4263 35.164 35.0057 32.8864C36.5851 30.6088 38.7912 28.8408 41.3552 27.7976C43.9192 26.7544 46.7306 26.4811 49.4468 27.011C52.163 27.5408 54.6669 28.851 56.6535 30.7819C58.6401 32.7128 60.0237 35.1811 60.6358 37.8861C61.2478 40.5912 61.0619 43.4163 60.1007 46.0173C59.1395 48.6183 57.4445 50.8831 55.222 52.5357C52.9996 54.1883 50.3457 55.1574 47.5836 55.325C47.5836 55.325 44.8169 55.4992 43.4273 55.6733C42.9177 55.7454 42.4125 55.845 41.9137 55.9717C41.8778 55.9987 41.8335 56.0118 41.7888 56.0086C41.7441 56.0054 41.7021 55.9862 41.6704 55.9544C41.6387 55.9227 41.6195 55.8805 41.6164 55.8357C41.6132 55.7909 41.6262 55.7465 41.6531 55.7106L42.0873 53.3601L44.6928 41.5332C44.8425 40.829 44.707 40.094 44.3161 39.4899C43.9252 38.8859 43.311 38.4622 42.6084 38.3121C41.9059 38.1621 41.1727 38.2979 40.5701 38.6897C39.9674 39.0815 39.5448 39.6973 39.3951 40.4014C39.3951 40.4014 33.1916 69.2786 33.1916 69.5398C33.1062 69.8882 33.0926 70.2504 33.1517 70.6043C33.2108 70.9581 33.3413 71.2962 33.5353 71.5977C33.7293 71.8993 33.9826 72.1579 34.2798 72.3579C34.5769 72.5579 34.9117 72.695 35.2636 72.7608C35.6119 72.8445 35.9737 72.8563 36.3267 72.7955C36.6798 72.7347 37.0168 72.6025 37.3174 72.4071C37.6179 72.2117 37.8757 71.9571 38.075 71.6587C38.2744 71.3603 38.4111 71.0245 38.4769 70.6715C38.5638 70.3233 39.3454 66.4929 39.3454 66.4929C39.6333 65.083 40.3455 63.7954 41.3859 62.8037C42.4263 61.8119 43.745 61.1637 45.1643 60.9463C45.7598 60.8592 48.2784 60.6851 48.2784 60.6851C53.3115 60.2188 57.9751 57.8373 61.3103 54.0303C64.6455 50.2233 66.3988 45.28 66.2098 40.217C66.0207 35.154 63.9036 30.356 60.2938 26.8096C56.6839 23.2631 51.8558 21.2378 46.802 21.15Z" fill="white"/>
<path d="M51.7495 66.8031C51.3216 66.7161 50.8808 66.7148 50.4525 66.7991C50.0241 66.8835 49.6166 67.0519 49.2533 67.2946C48.8901 67.5374 48.5783 67.8497 48.3358 68.2136C48.0934 68.5775 47.9251 68.9859 47.8406 69.4152C47.7486 69.8444 47.7435 70.2878 47.8255 70.7191C47.9074 71.1504 48.0748 71.5608 48.3178 71.9261C48.5607 72.2914 48.8743 72.6042 49.2399 72.8459C49.6056 73.0876 50.0158 73.2534 50.4465 73.3334C50.8743 73.4309 51.3175 73.44 51.749 73.36C52.1804 73.28 52.5911 73.1126 52.9558 72.8681C53.3205 72.6236 53.6316 72.3072 53.8701 71.938C54.1086 71.5689 54.2696 71.1549 54.343 70.7213C54.4892 69.86 54.3024 68.9752 53.8205 68.2472C53.3386 67.5192 52.598 67.0028 51.7495 66.8031V66.8031Z" fill="white"/>
</svg>
