<svg width="72" height="63" viewBox="0 0 72 63" fill="none" xmlns="http://www.w3.org/2000/svg">
<path d="M71.5 31.5C71.5 48.5602 55.6709 62.5 36 62.5C16.3291 62.5 0.5 48.5602 0.5 31.5C0.5 14.4398 16.3291 0.5 36 0.5C55.6709 0.5 71.5 14.4398 71.5 31.5Z" fill="white" stroke="#D5D8DB"/>
<path d="M36.3572 12.6L36.0742 13.4612V38.4498L36.3572 38.7027L49.3114 31.8463L36.3572 12.6Z" fill="#343434"/>
<path d="M36.3585 12.6L23.4043 31.8463L36.3585 38.7028V26.574V12.6Z" fill="#8C8C8C"/>
<path d="M36.3567 40.899L36.1973 41.073V49.9745L36.3567 50.3915L49.3187 34.0461L36.3567 40.899Z" fill="#3C3C3B"/>
<path d="M36.3546 50.3903V40.8977L23.4004 34.0448L36.3546 50.3903Z" fill="#8C8C8C"/>
<path d="M36.3574 38.7021L49.3115 31.8458L36.3574 26.5735V38.7021Z" fill="#141414"/>
<path d="M23.4004 31.8457L36.3544 38.7021V26.5735L23.4004 31.8457Z" fill="#393939"/>
</svg>
