<svg width="48" height="48" viewBox="0 0 48 48" fill="none" xmlns="http://www.w3.org/2000/svg">
<circle cx="24" cy="24" r="24" fill="#D3443D"/>
<path fill-rule="evenodd" clip-rule="evenodd" d="M25.8916 14.2663L27.8167 17.732C28.2854 18.6027 28.2854 20.0197 27.8167 20.8562L21.3552 32.2605C20.8697 33.1311 19.6645 33.8311 18.6936 33.8311H18.342H16.2998H13.3202C12.1484 33.8311 11.6629 32.9945 12.2488 31.9532L22.9622 12.7811C23.5481 11.7396 24.4855 11.7396 25.0714 12.7811L25.8916 14.2663ZM29.9931 25.4315C30.579 24.39 31.5164 24.39 32.1023 25.4315L35.7516 31.9701C36.3374 32.9944 35.852 33.848 34.6802 33.848H27.3483C26.1932 33.848 25.7078 32.9944 26.2937 31.9701L29.9931 25.4315Z" fill="white"/>
</svg>
