<svg
  width="40"
  height="40"
  viewBox="0 0 40 40"
  fill="none"
  xmlns="http://www.w3.org/2000/svg"
>
<path
    fill-rule="evenodd"
    clip-rule="evenodd"
    d="M37 20C37 29.3888 29.3888 37 20 37C10.6112 37 3 29.3888 3 20C3 10.6112 10.6112 3 20 3C29.3888 3 37 10.6112 37 20ZM40 20C40 31.0457 31.0457 40 20 40C8.9543 40 0 31.0457 0 20C0 8.9543 8.9543 0 20 0C31.0457 0 40 8.9543 40 20ZM20.0985 17.7217C22.8322 17.7217 25.2425 19.4722 25.9866 22.0197C26.9087 25.1612 25.016 28.4121 21.7646 29.303V30.6784C21.7646 31.538 21.0367 32.2413 20.147 32.2413C19.2573 32.2413 18.5294 31.538 18.5294 30.6784V29.3186C15.8603 28.6153 14.0162 26.2865 14 23.6139C14 22.7543 14.7279 22.051 15.6176 22.051C16.5073 22.051 17.2353 22.7543 17.2353 23.6139C17.2353 25.1456 18.5294 26.3803 20.1146 26.3803C21.6999 26.3803 22.9778 25.13 22.9778 23.5983C22.9778 22.0666 21.6837 20.8319 20.0985 20.8319C17.3323 20.8319 14.922 19.0345 14.2103 16.4557C13.3368 13.3142 15.2779 10.079 18.5294 9.23499V8.56293C18.5294 7.70332 19.2573 7 20.147 7C21.0367 7 21.7646 7.70332 21.7646 8.56293V9.26624C24.4013 9.98519 26.2131 12.314 26.2131 14.9553C26.2131 15.8149 25.4852 16.5182 24.5955 16.5182C23.7058 16.5182 22.9778 15.8149 22.9778 14.9553C22.9778 13.4236 21.6837 12.1733 20.0985 12.1733C18.5132 12.1733 17.2353 13.408 17.2191 14.9553C17.2191 16.487 18.5132 17.7217 20.0985 17.7217Z"
    fill="#42C37B"
  />
</svg>
