<svg width="62" height="42" viewBox="0 0 62 42" fill="none" xmlns="http://www.w3.org/2000/svg">
<mask id="path-1-outside-1" maskUnits="userSpaceOnUse" x="0" y="0" width="62" height="42" fill="black">
<rect fill="white" width="62" height="42"/>
<path fill-rule="evenodd" clip-rule="evenodd" d="M56.1464 19.6771C59.2905 20.6012 60.9163 21.8833 60.988 23.4888C61 23.5581 61 23.6389 61 23.7082V36.3906C61 38.4582 58.4059 39.671 56.2421 40.3178C53.6001 41.1148 50.1213 41.5537 46.4393 41.5537C39.7567 41.5537 32.584 40.0868 31.9743 36.8873C29.1889 36.8642 26.5589 36.587 24.3234 36.0788C21.777 38.0886 18.5971 39.1743 15.3096 39.1743C7.41961 39.1743 1 32.9717 1 25.3484C1 24.4821 1.08368 23.6274 1.25105 22.7726C2.72146 15.2764 10.217 10.3443 17.9874 11.7766L17.8559 6.50957C17.832 6.38252 17.8201 6.25547 17.8201 6.12841C17.8201 4.06088 20.4142 2.85963 22.578 2.2128C25.22 1.42737 28.6987 1 32.3808 1C36.0747 1 39.5894 1.42737 42.2791 2.2128C45.1363 3.04443 46.7501 4.17638 47.0849 5.57399C47.1925 5.74724 47.2522 5.9436 47.2642 6.15151V18.4759C50.6115 18.5452 53.7077 18.9725 56.1464 19.6771ZM41.5977 14.2484C44.1919 13.4861 44.7657 12.6891 44.7657 12.5389C44.7657 12.5264 44.7656 12.514 44.7655 12.5016C44.7647 12.3539 44.7639 12.2146 44.8852 12.0654V9.03913C44.0604 9.45495 43.1877 9.78991 42.2911 10.044C39.6013 10.8295 36.0747 11.2568 32.3927 11.2568C28.8661 11.2568 25.5069 10.8641 22.9127 10.1364C22.0161 9.90541 21.1554 9.582 20.3305 9.17773L20.4142 12.435C21.7651 12.9201 23.0203 13.6131 24.156 14.4794C24.1739 14.4852 24.1889 14.4881 24.2038 14.491C24.2188 14.4938 24.2337 14.4967 24.2516 14.5025C26.5469 15.0685 29.4399 15.3688 32.3927 15.3688C35.8117 15.3688 39.171 14.953 41.5977 14.2484ZM32.3808 3.32164C28.9378 3.32164 25.7101 3.72591 23.2953 4.44204C20.7729 5.18127 20.223 5.9205 20.211 6.13996C20.211 6.13996 20.223 6.13996 20.223 6.16306C20.2827 6.41717 21 7.2026 23.5702 7.91873C25.9492 8.58866 29.0813 8.95828 32.3808 8.95828C35.7998 8.95828 39.147 8.55401 41.5738 7.84943C44.168 7.09865 44.7537 6.30167 44.7537 6.13996C44.7537 5.9898 44.1799 5.20437 41.5858 4.44204C39.159 3.72591 35.7998 3.32164 32.3808 3.32164ZM6.4991 33.1103C10.9223 37.8114 18.4656 38.1463 23.3311 33.8726C25.8177 31.6896 27.2403 28.6056 27.2283 25.3599C27.2283 24.5861 27.1446 23.8006 26.9892 23.0383C26.1046 18.9379 22.9845 15.6113 18.8362 14.3639C17.6886 14.0289 16.5051 13.8557 15.3096 13.8557C12.3449 13.8557 9.47579 14.9183 7.28811 16.8472C2.42259 21.1209 2.07591 28.4093 6.4991 33.1103ZM28.6629 30.3266C28.113 31.7012 27.3359 32.9833 26.3676 34.1268C28.1967 34.4155 30.0496 34.5772 31.9026 34.6003L31.8308 30.6847V30.4768C30.731 30.4653 29.679 30.4075 28.6629 30.3266ZM31.7233 24.0663C30.9821 24.0547 30.2528 24.0316 29.5595 23.9854C29.5953 24.4475 29.6192 24.8979 29.6192 25.3484C29.6192 26.2493 29.5236 27.1618 29.3443 28.0512C30.1333 28.109 30.9582 28.1436 31.795 28.1552L31.7233 24.0663ZM32.3808 21.7677H32.5003C34.4608 19.6887 39.7328 18.6491 44.8613 18.5105V15.4843C44.0365 15.8886 43.1757 16.2235 42.2791 16.4776C39.5894 17.2631 36.0628 17.6904 32.3688 17.6904C30.5517 17.6904 28.7466 17.5749 26.9534 17.3555C27.9217 18.6491 28.639 20.1045 29.0932 21.6522C30.1213 21.7215 31.2331 21.7677 32.3808 21.7677ZM34.0903 23.5581C34.0783 23.5812 34.0783 23.5927 34.0783 23.6043L34.1022 23.6505C34.1739 23.893 34.8793 24.69 37.4495 25.4062C39.8285 26.0645 42.9606 26.4341 46.26 26.4341C49.6671 26.4341 52.8948 26.053 55.3455 25.3484C57.9994 24.5861 58.5971 23.7891 58.6091 23.6158V23.6043C58.5971 23.431 57.9994 22.6687 55.4531 21.9295C53.0143 21.2133 49.6671 20.8322 46.2481 20.8322H46.0448C42.8649 20.8322 39.8404 21.1787 37.5212 21.814C35.0466 22.4839 34.1978 23.2462 34.0903 23.5581ZM46.4513 39.2552C49.8942 39.2552 53.1339 38.8509 55.5487 38.1232C58.0711 37.3609 58.621 36.5639 58.621 36.4022H58.6091V32.9371C57.8081 33.3298 56.9713 33.6647 56.0986 33.9188C53.4208 34.7043 49.9181 35.1316 46.2241 35.1316C42.9486 35.1316 39.7567 34.7736 37.2463 34.1383C36.2182 33.8842 35.2259 33.5377 34.2696 33.0872L34.3293 36.4369V36.4599C34.3293 36.6332 34.8554 37.4071 37.3778 38.1579C39.7687 38.8624 42.9964 39.2552 46.4513 39.2552ZM58.621 29.6221H58.633V26.5496C57.7962 26.9655 56.9235 27.3004 56.0149 27.543C53.3491 28.3053 49.8822 28.7211 46.2481 28.7211C42.7215 28.7211 39.3622 28.3284 36.7681 27.6007C35.8715 27.3582 34.9988 27.0348 34.162 26.6305L34.2098 29.2871L34.2218 30.2573C35.1542 31.3777 39.6133 32.8216 46.2361 32.8216C49.691 32.8216 52.9546 32.4288 55.4053 31.7127C57.9874 30.9504 58.5493 30.1649 58.5493 30.0032C58.5493 29.9382 58.5681 29.8701 58.5865 29.8037C58.604 29.7403 58.621 29.6784 58.621 29.6221ZM15.3049 23.812C17.3253 23.812 19.1065 25.1056 19.6564 26.9883C20.3378 29.3099 18.9391 31.7124 16.5363 32.3708V33.3872C16.5363 34.0225 15.9983 34.5422 15.3408 34.5422C14.6833 34.5422 14.1453 34.0225 14.1453 33.3872V32.3823C12.1728 31.8626 10.81 30.1416 10.7981 28.1664C10.7981 27.5312 11.336 27.0114 11.9935 27.0114C12.651 27.0114 13.189 27.5312 13.189 28.1664C13.189 29.2984 14.1454 30.2109 15.3169 30.2109C16.4884 30.2109 17.4329 29.2868 17.4329 28.1549C17.4329 27.023 16.4765 26.1105 15.3049 26.1105C13.2607 26.1105 11.4795 24.7822 10.9535 22.8764C10.3079 20.5548 11.7425 18.1638 14.1453 17.5401V17.0435C14.1453 16.4082 14.6833 15.8884 15.3408 15.8884C15.9983 15.8884 16.5363 16.4082 16.5363 17.0435V17.5632C18.4849 18.0945 19.8238 19.8155 19.8238 21.7676C19.8238 22.4028 19.2858 22.9226 18.6283 22.9226C17.9708 22.9226 17.4329 22.4028 17.4329 21.7676C17.4329 20.6356 16.4765 19.7116 15.3049 19.7116C14.1334 19.7116 13.189 20.6241 13.177 21.7676C13.177 22.8995 14.1334 23.812 15.3049 23.812Z"/>
</mask>
<path fill-rule="evenodd" clip-rule="evenodd" d="M56.1464 19.6771C59.2905 20.6012 60.9163 21.8833 60.988 23.4888C61 23.5581 61 23.6389 61 23.7082V36.3906C61 38.4582 58.4059 39.671 56.2421 40.3178C53.6001 41.1148 50.1213 41.5537 46.4393 41.5537C39.7567 41.5537 32.584 40.0868 31.9743 36.8873C29.1889 36.8642 26.5589 36.587 24.3234 36.0788C21.777 38.0886 18.5971 39.1743 15.3096 39.1743C7.41961 39.1743 1 32.9717 1 25.3484C1 24.4821 1.08368 23.6274 1.25105 22.7726C2.72146 15.2764 10.217 10.3443 17.9874 11.7766L17.8559 6.50957C17.832 6.38252 17.8201 6.25547 17.8201 6.12841C17.8201 4.06088 20.4142 2.85963 22.578 2.2128C25.22 1.42737 28.6987 1 32.3808 1C36.0747 1 39.5894 1.42737 42.2791 2.2128C45.1363 3.04443 46.7501 4.17638 47.0849 5.57399C47.1925 5.74724 47.2522 5.9436 47.2642 6.15151V18.4759C50.6115 18.5452 53.7077 18.9725 56.1464 19.6771ZM41.5977 14.2484C44.1919 13.4861 44.7657 12.6891 44.7657 12.5389C44.7657 12.5264 44.7656 12.514 44.7655 12.5016C44.7647 12.3539 44.7639 12.2146 44.8852 12.0654V9.03913C44.0604 9.45495 43.1877 9.78991 42.2911 10.044C39.6013 10.8295 36.0747 11.2568 32.3927 11.2568C28.8661 11.2568 25.5069 10.8641 22.9127 10.1364C22.0161 9.90541 21.1554 9.582 20.3305 9.17773L20.4142 12.435C21.7651 12.9201 23.0203 13.6131 24.156 14.4794C24.1739 14.4852 24.1889 14.4881 24.2038 14.491C24.2188 14.4938 24.2337 14.4967 24.2516 14.5025C26.5469 15.0685 29.4399 15.3688 32.3927 15.3688C35.8117 15.3688 39.171 14.953 41.5977 14.2484ZM32.3808 3.32164C28.9378 3.32164 25.7101 3.72591 23.2953 4.44204C20.7729 5.18127 20.223 5.9205 20.211 6.13996C20.211 6.13996 20.223 6.13996 20.223 6.16306C20.2827 6.41717 21 7.2026 23.5702 7.91873C25.9492 8.58866 29.0813 8.95828 32.3808 8.95828C35.7998 8.95828 39.147 8.55401 41.5738 7.84943C44.168 7.09865 44.7537 6.30167 44.7537 6.13996C44.7537 5.9898 44.1799 5.20437 41.5858 4.44204C39.159 3.72591 35.7998 3.32164 32.3808 3.32164ZM6.4991 33.1103C10.9223 37.8114 18.4656 38.1463 23.3311 33.8726C25.8177 31.6896 27.2403 28.6056 27.2283 25.3599C27.2283 24.5861 27.1446 23.8006 26.9892 23.0383C26.1046 18.9379 22.9845 15.6113 18.8362 14.3639C17.6886 14.0289 16.5051 13.8557 15.3096 13.8557C12.3449 13.8557 9.47579 14.9183 7.28811 16.8472C2.42259 21.1209 2.07591 28.4093 6.4991 33.1103ZM28.6629 30.3266C28.113 31.7012 27.3359 32.9833 26.3676 34.1268C28.1967 34.4155 30.0496 34.5772 31.9026 34.6003L31.8308 30.6847V30.4768C30.731 30.4653 29.679 30.4075 28.6629 30.3266ZM31.7233 24.0663C30.9821 24.0547 30.2528 24.0316 29.5595 23.9854C29.5953 24.4475 29.6192 24.8979 29.6192 25.3484C29.6192 26.2493 29.5236 27.1618 29.3443 28.0512C30.1333 28.109 30.9582 28.1436 31.795 28.1552L31.7233 24.0663ZM32.3808 21.7677H32.5003C34.4608 19.6887 39.7328 18.6491 44.8613 18.5105V15.4843C44.0365 15.8886 43.1757 16.2235 42.2791 16.4776C39.5894 17.2631 36.0628 17.6904 32.3688 17.6904C30.5517 17.6904 28.7466 17.5749 26.9534 17.3555C27.9217 18.6491 28.639 20.1045 29.0932 21.6522C30.1213 21.7215 31.2331 21.7677 32.3808 21.7677ZM34.0903 23.5581C34.0783 23.5812 34.0783 23.5927 34.0783 23.6043L34.1022 23.6505C34.1739 23.893 34.8793 24.69 37.4495 25.4062C39.8285 26.0645 42.9606 26.4341 46.26 26.4341C49.6671 26.4341 52.8948 26.053 55.3455 25.3484C57.9994 24.5861 58.5971 23.7891 58.6091 23.6158V23.6043C58.5971 23.431 57.9994 22.6687 55.4531 21.9295C53.0143 21.2133 49.6671 20.8322 46.2481 20.8322H46.0448C42.8649 20.8322 39.8404 21.1787 37.5212 21.814C35.0466 22.4839 34.1978 23.2462 34.0903 23.5581ZM46.4513 39.2552C49.8942 39.2552 53.1339 38.8509 55.5487 38.1232C58.0711 37.3609 58.621 36.5639 58.621 36.4022H58.6091V32.9371C57.8081 33.3298 56.9713 33.6647 56.0986 33.9188C53.4208 34.7043 49.9181 35.1316 46.2241 35.1316C42.9486 35.1316 39.7567 34.7736 37.2463 34.1383C36.2182 33.8842 35.2259 33.5377 34.2696 33.0872L34.3293 36.4369V36.4599C34.3293 36.6332 34.8554 37.4071 37.3778 38.1579C39.7687 38.8624 42.9964 39.2552 46.4513 39.2552ZM58.621 29.6221H58.633V26.5496C57.7962 26.9655 56.9235 27.3004 56.0149 27.543C53.3491 28.3053 49.8822 28.7211 46.2481 28.7211C42.7215 28.7211 39.3622 28.3284 36.7681 27.6007C35.8715 27.3582 34.9988 27.0348 34.162 26.6305L34.2098 29.2871L34.2218 30.2573C35.1542 31.3777 39.6133 32.8216 46.2361 32.8216C49.691 32.8216 52.9546 32.4288 55.4053 31.7127C57.9874 30.9504 58.5493 30.1649 58.5493 30.0032C58.5493 29.9382 58.5681 29.8701 58.5865 29.8037C58.604 29.7403 58.621 29.6784 58.621 29.6221ZM15.3049 23.812C17.3253 23.812 19.1065 25.1056 19.6564 26.9883C20.3378 29.3099 18.9391 31.7124 16.5363 32.3708V33.3872C16.5363 34.0225 15.9983 34.5422 15.3408 34.5422C14.6833 34.5422 14.1453 34.0225 14.1453 33.3872V32.3823C12.1728 31.8626 10.81 30.1416 10.7981 28.1664C10.7981 27.5312 11.336 27.0114 11.9935 27.0114C12.651 27.0114 13.189 27.5312 13.189 28.1664C13.189 29.2984 14.1454 30.2109 15.3169 30.2109C16.4884 30.2109 17.4329 29.2868 17.4329 28.1549C17.4329 27.023 16.4765 26.1105 15.3049 26.1105C13.2607 26.1105 11.4795 24.7822 10.9535 22.8764C10.3079 20.5548 11.7425 18.1638 14.1453 17.5401V17.0435C14.1453 16.4082 14.6833 15.8884 15.3408 15.8884C15.9983 15.8884 16.5363 16.4082 16.5363 17.0435V17.5632C18.4849 18.0945 19.8238 19.8155 19.8238 21.7676C19.8238 22.4028 19.2858 22.9226 18.6283 22.9226C17.9708 22.9226 17.4329 22.4028 17.4329 21.7676C17.4329 20.6356 16.4765 19.7116 15.3049 19.7116C14.1334 19.7116 13.189 20.6241 13.177 21.7676C13.177 22.8995 14.1334 23.812 15.3049 23.812Z" fill="white"/>
<path d="M60.988 23.4888L60.7882 23.4977L60.7888 23.5103L60.791 23.5228L60.988 23.4888ZM56.1464 19.6771L56.2028 19.4852L56.202 19.485L56.1464 19.6771ZM56.2421 40.3178L56.1848 40.1262L56.1843 40.1263L56.2421 40.3178ZM31.9743 36.8873L32.1708 36.8499L32.14 36.6887L31.976 36.6873L31.9743 36.8873ZM24.3234 36.0788L24.3677 35.8838L24.2745 35.8626L24.1995 35.9218L24.3234 36.0788ZM1.25105 22.7726L1.05479 22.7341L1.05477 22.7342L1.25105 22.7726ZM17.9874 11.7766L17.9512 11.9733L18.1935 12.0179L18.1874 11.7716L17.9874 11.7766ZM17.8559 6.50957L18.0559 6.50458L18.0555 6.48845L18.0525 6.47259L17.8559 6.50957ZM22.578 2.2128L22.521 2.02109L22.5207 2.02118L22.578 2.2128ZM42.2791 2.2128L42.2231 2.40478L42.2232 2.40483L42.2791 2.2128ZM47.0849 5.57399L46.8904 5.62057L46.8979 5.65202L46.915 5.6795L47.0849 5.57399ZM47.2642 6.15151H47.4645L47.4639 6.14003L47.2642 6.15151ZM47.2642 18.4759H47.0642V18.6718L47.2601 18.6758L47.2642 18.4759ZM41.5977 14.2484L41.6535 14.4405L41.6541 14.4403L41.5977 14.2484ZM44.7655 12.5016L44.5655 12.5028V12.5028L44.7655 12.5016ZM44.8852 12.0654L45.0404 12.1915L45.0852 12.1364V12.0654H44.8852ZM44.8852 9.03913H45.0852V8.71433L44.7952 8.86054L44.8852 9.03913ZM42.2911 10.044L42.2366 9.85159L42.235 9.85204L42.2911 10.044ZM22.9127 10.1364L22.9668 9.94381L22.9626 9.94275L22.9127 10.1364ZM20.3305 9.17773L20.4186 8.99814L20.1221 8.85286L20.1306 9.18287L20.3305 9.17773ZM20.4142 12.435L20.2143 12.4401L20.2178 12.5769L20.3466 12.6232L20.4142 12.435ZM24.156 14.4794L24.0347 14.6384L24.062 14.6592L24.0947 14.6698L24.156 14.4794ZM24.2038 14.491L24.2418 14.2946L24.2418 14.2946L24.2038 14.491ZM24.2516 14.5025L24.1902 14.6933L24.2038 14.6967L24.2516 14.5025ZM23.2953 4.44204L23.3515 4.63397L23.3521 4.63379L23.2953 4.44204ZM20.211 6.13996L20.0113 6.12908L19.9998 6.33997L20.211 6.33996L20.211 6.13996ZM20.223 6.16306H20.023V6.18627L20.0283 6.20886L20.223 6.16306ZM23.5702 7.91873L23.6244 7.72622L23.6239 7.72607L23.5702 7.91873ZM41.5738 7.84943L41.5182 7.65731L41.5181 7.65736L41.5738 7.84943ZM41.5858 4.44204L41.5292 4.63386L41.5294 4.63393L41.5858 4.44204ZM23.3311 33.8726L23.1992 33.7224L23.1992 33.7224L23.3311 33.8726ZM27.2283 25.3599H27.0283L27.0283 25.3607L27.2283 25.3599ZM26.9892 23.0383L27.1852 22.9984L27.1847 22.9961L26.9892 23.0383ZM18.8362 14.3639L18.8938 14.1724L18.8923 14.1719L18.8362 14.3639ZM7.28811 16.8472L7.42009 16.9975L7.42038 16.9973L7.28811 16.8472ZM26.3676 34.1268L26.215 33.9975L25.9852 34.2689L26.3364 34.3243L26.3676 34.1268ZM28.6629 30.3266L28.6787 30.1273L28.5319 30.1156L28.4772 30.2524L28.6629 30.3266ZM31.9026 34.6003L31.9001 34.8003L32.1063 34.8029L32.1025 34.5967L31.9026 34.6003ZM31.8308 30.6847H31.6308L31.6309 30.6884L31.8308 30.6847ZM31.8308 30.4768H32.0308V30.2789L31.8329 30.2768L31.8308 30.4768ZM29.5595 23.9854L29.5728 23.7859L29.3422 23.7705L29.3601 24.0009L29.5595 23.9854ZM31.7233 24.0663L31.9232 24.0628L31.9198 23.8693L31.7264 23.8663L31.7233 24.0663ZM29.3443 28.0512L29.1482 28.0117L29.1034 28.2341L29.3297 28.2507L29.3443 28.0512ZM31.795 28.1552L31.7922 28.3551L31.9986 28.358L31.9949 28.1517L31.795 28.1552ZM32.5003 21.7677V21.9677H32.5866L32.6458 21.905L32.5003 21.7677ZM44.8613 18.5105L44.8667 18.7104L45.0613 18.7052V18.5105H44.8613ZM44.8613 15.4843H45.0613V15.1635L44.7733 15.3047L44.8613 15.4843ZM42.2791 16.4776L42.2246 16.2852L42.2231 16.2857L42.2791 16.4776ZM26.9534 17.3555L26.9777 17.157L26.5123 17.1L26.7933 17.4753L26.9534 17.3555ZM29.0932 21.6522L28.9013 21.7086L28.9406 21.8424L29.0798 21.8518L29.0932 21.6522ZM34.0783 23.6043H33.8783V23.653L33.9007 23.6962L34.0783 23.6043ZM34.0903 23.5581L34.2679 23.65L34.2746 23.6371L34.2793 23.6233L34.0903 23.5581ZM34.1022 23.6505L34.294 23.5938L34.2886 23.5755L34.2798 23.5586L34.1022 23.6505ZM37.4495 25.4062L37.3958 25.5988L37.3961 25.5989L37.4495 25.4062ZM55.3455 25.3484L55.2903 25.1562L55.2902 25.1562L55.3455 25.3484ZM58.6091 23.6158L58.8091 23.6296V23.6158H58.6091ZM58.6091 23.6043H58.8096L58.8086 23.5905L58.6091 23.6043ZM55.4531 21.9295L55.3967 22.1214L55.3973 22.1215L55.4531 21.9295ZM37.5212 21.814L37.5735 22.007L37.5741 22.0068L37.5212 21.814ZM55.5487 38.1232L55.6064 38.3147L55.6066 38.3147L55.5487 38.1232ZM58.621 36.4022H58.821V36.2022H58.621V36.4022ZM58.6091 36.4022H58.4091V36.6022H58.6091V36.4022ZM58.6091 32.9371H58.8091V32.6162L58.521 32.7575L58.6091 32.9371ZM56.0986 33.9188L56.0427 33.7268L56.0423 33.7269L56.0986 33.9188ZM37.2463 34.1383L37.2953 33.9444L37.2943 33.9441L37.2463 34.1383ZM34.2696 33.0872L34.3548 32.9063L34.0639 32.7692L34.0696 33.0908L34.2696 33.0872ZM34.3293 36.4369H34.5294L34.5293 36.4333L34.3293 36.4369ZM37.3778 38.1579L37.3207 38.3496L37.3212 38.3497L37.3778 38.1579ZM58.633 29.6221V29.8221H58.833V29.6221H58.633ZM58.621 29.6221V29.4221H58.421V29.6221H58.621ZM58.633 26.5496H58.833V26.2269L58.544 26.3705L58.633 26.5496ZM56.0149 27.543L55.9633 27.3497L55.96 27.3507L56.0149 27.543ZM36.7681 27.6007L36.8221 27.4082L36.8203 27.4077L36.7681 27.6007ZM34.162 26.6305L34.249 26.4504L33.9562 26.309L33.962 26.6341L34.162 26.6305ZM34.2098 29.2871L34.4098 29.2846L34.4098 29.2835L34.2098 29.2871ZM34.2218 30.2573L34.0218 30.2598L34.0226 30.3308L34.068 30.3853L34.2218 30.2573ZM55.4053 31.7127L55.4614 31.9047L55.4619 31.9045L55.4053 31.7127ZM58.5865 29.8037L58.7792 29.8569L58.5865 29.8037ZM19.6564 26.9883L19.4644 27.0444L19.4645 27.0446L19.6564 26.9883ZM16.5363 32.3708L16.4834 32.1779L16.3363 32.2182V32.3708H16.5363ZM14.1453 32.3823H14.3453V32.2282L14.1963 32.1889L14.1453 32.3823ZM10.7981 28.1664H10.5981L10.5981 28.1677L10.7981 28.1664ZM10.9535 22.8764L11.1463 22.8232L11.1462 22.8228L10.9535 22.8764ZM14.1453 17.5401L14.1956 17.7337L14.3453 17.6948V17.5401H14.1453ZM16.5363 17.5632H16.3363V17.716L16.4837 17.7562L16.5363 17.5632ZM13.177 21.7676L12.977 21.7655V21.7676H13.177ZM61.1878 23.4798C61.1487 22.6034 60.6833 21.832 59.8431 21.1703C59.0064 20.5113 57.7867 19.9507 56.2028 19.4852L56.09 19.869C57.6503 20.3276 58.8155 20.8701 59.5956 21.4845C60.3722 22.0962 60.7557 22.7687 60.7882 23.4977L61.1878 23.4798ZM61.2 23.7082C61.2 23.643 61.2006 23.5441 61.1851 23.4548L60.791 23.5228C60.7994 23.572 60.8 23.6349 60.8 23.7082H61.2ZM61.2 36.3906V23.7082H60.8V36.3906H61.2ZM56.2994 40.5094C57.3895 40.1836 58.6025 39.7113 59.5471 39.0509C60.49 38.3916 61.2 37.5189 61.2 36.3906H60.8C60.8 37.3299 60.2129 38.0974 59.3179 38.7231C58.4244 39.3477 57.2585 39.8052 56.1848 40.1262L56.2994 40.5094ZM46.4393 41.7537C50.1348 41.7537 53.6341 41.3134 56.2998 40.5093L56.1843 40.1263C53.5661 40.9161 50.1079 41.3537 46.4393 41.3537V41.7537ZM31.7778 36.9248C31.9439 37.7965 32.5531 38.5279 33.4394 39.1315C34.3265 39.7357 35.5116 40.2263 36.8749 40.6127C39.6029 41.386 43.0863 41.7537 46.4393 41.7537V41.3537C43.1098 41.3537 39.6655 40.988 36.984 40.2279C35.6427 39.8477 34.5026 39.3717 33.6645 38.8009C32.8256 38.2296 32.3095 37.5779 32.1708 36.8499L31.7778 36.9248ZM24.279 36.2738C26.5312 36.7858 29.1759 37.0641 31.9726 37.0873L31.976 36.6873C29.2019 36.6643 26.5865 36.3882 24.3677 35.8838L24.279 36.2738ZM15.3096 39.3743C18.641 39.3743 21.8648 38.2741 24.4473 36.2358L24.1995 35.9218C21.6893 37.9031 18.5532 38.9743 15.3096 38.9743V39.3743ZM0.8 25.3484C0.8 33.0886 7.31569 39.3743 15.3096 39.3743V38.9743C7.52352 38.9743 1.2 32.8548 1.2 25.3484H0.8ZM1.05477 22.7342C0.88496 23.6014 0.8 24.4691 0.8 25.3484H1.2C1.2 24.4952 1.2824 23.6533 1.44732 22.8111L1.05477 22.7342ZM18.0237 11.5799C10.1514 10.1289 2.54743 15.1246 1.05479 22.7341L1.44731 22.8111C2.89549 15.4282 10.2826 10.5598 17.9512 11.9733L18.0237 11.5799ZM17.656 6.51457L17.7875 11.7816L18.1874 11.7716L18.0559 6.50458L17.656 6.51457ZM17.6201 6.12841C17.6201 6.26809 17.6332 6.40753 17.6594 6.54656L18.0525 6.47259C18.0308 6.35751 18.0201 6.24284 18.0201 6.12841H17.6201ZM22.5207 2.02118C21.4309 2.34695 20.218 2.81628 19.2734 3.47368C18.3303 4.13005 17.6201 4.9999 17.6201 6.12841H18.0201C18.0201 5.18938 18.607 4.42484 19.5019 3.802C20.3953 3.18018 21.5613 2.72547 22.6353 2.40442L22.5207 2.02118ZM32.3808 0.8C28.6857 0.8 25.1866 1.22862 22.521 2.02109L22.635 2.40451C25.2533 1.62611 28.7118 1.2 32.3808 1.2V0.8ZM42.3352 2.02082C39.6223 1.22864 36.0878 0.8 32.3808 0.8V1.2C36.0616 1.2 39.5564 1.6261 42.2231 2.40478L42.3352 2.02082ZM47.2794 5.5274C47.097 4.76611 46.5704 4.09667 45.7426 3.5173C44.9155 2.93844 43.775 2.43991 42.335 2.02077L42.2232 2.40483C43.6404 2.81733 44.7354 3.30058 45.5132 3.84501C46.2904 4.38892 46.738 4.98426 46.8904 5.62057L47.2794 5.5274ZM47.4639 6.14003C47.4501 5.90071 47.381 5.6717 47.2548 5.46848L46.915 5.6795C47.004 5.82279 47.0544 5.98649 47.0645 6.16299L47.4639 6.14003ZM47.4642 18.4759V6.15151H47.0642V18.4759H47.4642ZM56.202 19.485C53.7427 18.7745 50.6285 18.3455 47.2683 18.2759L47.2601 18.6758C50.5945 18.7449 53.6728 19.1706 56.0909 19.8693L56.202 19.485ZM44.5657 12.5389C44.5657 12.5063 44.5767 12.4989 44.5608 12.5277C44.5486 12.5498 44.5253 12.5845 44.485 12.6304C44.4048 12.722 44.2663 12.8485 44.0432 12.9979C43.5972 13.2967 42.8254 13.6792 41.5413 14.0565L41.6541 14.4403C42.9642 14.0553 43.7764 13.6581 44.2658 13.3303C44.5104 13.1664 44.6775 13.0178 44.786 12.8939C44.8401 12.8321 44.8818 12.774 44.9111 12.7208C44.9368 12.6742 44.9657 12.609 44.9657 12.5389H44.5657ZM44.5655 12.5028C44.5656 12.5153 44.5657 12.5271 44.5657 12.5389H44.9657C44.9657 12.5257 44.9656 12.5127 44.9655 12.5005L44.5655 12.5028ZM44.7301 11.9392C44.56 12.1483 44.5647 12.354 44.5655 12.5028L44.9655 12.5005C44.9647 12.3539 44.9678 12.2808 45.0404 12.1915L44.7301 11.9392ZM44.6852 9.03913V12.0654H45.0852V9.03913H44.6852ZM42.3456 10.2364C43.2537 9.97906 44.1384 9.63959 44.9753 9.21772L44.7952 8.86054C43.9824 9.2703 43.1216 9.60075 42.2366 9.8516L42.3456 10.2364ZM32.3927 11.4568C36.0878 11.4568 39.6342 11.0282 42.3472 10.236L42.235 9.85204C39.5684 10.6307 36.0617 11.0568 32.3927 11.0568V11.4568ZM22.8587 10.329C25.4751 11.0629 28.8534 11.4568 32.3927 11.4568V11.0568C28.8788 11.0568 25.5386 10.6653 22.9667 9.94386L22.8587 10.329ZM20.2425 9.35733C21.079 9.76726 21.9524 10.0955 22.8628 10.3301L22.9626 9.94275C22.0798 9.7153 21.2319 9.39674 20.4186 8.99814L20.2425 9.35733ZM20.6142 12.4298L20.5305 9.1726L20.1306 9.18287L20.2143 12.4401L20.6142 12.4298ZM24.2773 14.3204C23.126 13.4422 21.8527 12.7391 20.4818 12.2467L20.3466 12.6232C21.6775 13.1011 22.9147 13.7841 24.0347 14.6384L24.2773 14.3204ZM24.2418 14.2946C24.2268 14.2917 24.2225 14.2907 24.2173 14.289L24.0947 14.6698C24.1253 14.6796 24.151 14.6844 24.1659 14.6873L24.2418 14.2946ZM24.313 14.3121C24.2823 14.3023 24.2567 14.2975 24.2418 14.2946L24.1659 14.6873C24.1809 14.6902 24.1851 14.6912 24.1903 14.6929L24.313 14.3121ZM32.3927 15.1688C29.4516 15.1688 26.5753 14.8695 24.2995 14.3083L24.2038 14.6967C26.5185 15.2675 29.4282 15.5688 32.3927 15.5688V15.1688ZM41.542 14.0563C39.138 14.7543 35.7985 15.1688 32.3927 15.1688V15.5688C35.8249 15.5688 39.2039 15.1517 41.6535 14.4405L41.542 14.0563ZM23.3521 4.63379C25.7435 3.92462 28.951 3.52164 32.3808 3.52164V3.12164C28.9246 3.12164 25.6767 3.5272 23.2384 4.25029L23.3521 4.63379ZM20.4107 6.15084C20.4102 6.15977 20.4145 6.11341 20.4972 6.0137C20.5745 5.92051 20.7073 5.79672 20.9231 5.65202C21.3548 5.36256 22.102 5.00015 23.3515 4.63397L23.239 4.25011C21.9661 4.62317 21.1772 4.99999 20.7003 5.31981C20.4618 5.47975 20.2973 5.62813 20.1893 5.75836C20.0867 5.88208 20.0178 6.01042 20.0113 6.12908L20.4107 6.15084ZM20.423 6.16306C20.423 6.1189 20.4111 6.05235 20.3559 5.99901C20.3297 5.97365 20.3005 5.95842 20.2742 5.94995C20.2613 5.9458 20.2493 5.94333 20.2388 5.94188C20.2336 5.94116 20.2286 5.94068 20.224 5.94038C20.2217 5.94023 20.2194 5.94012 20.2173 5.94006C20.2162 5.94002 20.2151 5.94 20.2141 5.93998C20.2135 5.93998 20.213 5.93997 20.2125 5.93997C20.2123 5.93996 20.212 5.93996 20.2117 5.93996C20.2116 5.93996 20.2114 5.93996 20.2114 5.93996C20.2112 5.93996 20.211 5.93996 20.211 6.13996C20.211 6.33996 20.2108 6.33996 20.2106 6.33996C20.2106 6.33996 20.2104 6.33996 20.2102 6.33996C20.21 6.33996 20.2097 6.33996 20.2095 6.33995C20.209 6.33995 20.2085 6.33994 20.2079 6.33994C20.2069 6.33992 20.2059 6.3399 20.2048 6.33986C20.2027 6.3398 20.2005 6.3397 20.1983 6.33955C20.1938 6.33927 20.1891 6.33881 20.1842 6.33813C20.1743 6.33677 20.1633 6.33448 20.1516 6.33069C20.1275 6.32294 20.1013 6.30916 20.078 6.28668C20.0288 6.23912 20.023 6.18412 20.023 6.16306H20.423ZM23.6239 7.72607C22.3512 7.37145 21.5484 7.00265 21.0612 6.69805C20.8176 6.54574 20.6558 6.41132 20.554 6.30533C20.5031 6.25236 20.4687 6.2081 20.4467 6.1739C20.4358 6.15689 20.4285 6.14325 20.4238 6.13308C20.4215 6.12805 20.4199 6.12415 20.4189 6.12137C20.4179 6.11857 20.4176 6.11723 20.4176 6.11727L20.0283 6.20886C20.0554 6.32435 20.1408 6.45261 20.2655 6.58243C20.3953 6.71756 20.5847 6.8719 20.8491 7.03723C21.3781 7.36791 22.2191 7.74988 23.5166 8.11139L23.6239 7.72607ZM32.3808 8.75828C29.0939 8.75828 25.981 8.38984 23.6244 7.72622L23.516 8.11125C25.9174 8.78748 29.0687 9.15828 32.3808 9.15828V8.75828ZM41.5181 7.65736C39.1145 8.35521 35.787 8.75828 32.3808 8.75828V9.15828C35.8125 9.15828 39.1796 8.75281 41.6296 8.0415L41.5181 7.65736ZM44.5537 6.13996C44.5537 6.1102 44.5634 6.10485 44.5478 6.13343C44.5354 6.15623 44.5118 6.19157 44.4711 6.23808C44.39 6.33082 44.2503 6.45786 44.0258 6.6073C43.577 6.90603 42.8023 7.28568 41.5182 7.65731L41.6294 8.04155C42.9395 7.66239 43.7548 7.26817 44.2474 6.94028C44.4936 6.77642 44.6624 6.62697 44.7723 6.50134C44.827 6.43866 44.8694 6.37934 44.8992 6.32466C44.9258 6.27577 44.9537 6.21015 44.9537 6.13996H44.5537ZM41.5294 4.63393C42.8137 5.01135 43.5858 5.39109 44.032 5.68721C44.2552 5.83533 44.3936 5.96044 44.4737 6.05101C44.5139 6.09645 44.5372 6.13067 44.5492 6.15234C44.5649 6.18055 44.5537 6.17282 44.5537 6.13996H44.9537C44.9537 6.06956 44.9246 6.00444 44.8988 5.95798C44.8694 5.90498 44.8275 5.84724 44.7734 5.78602C44.6648 5.66327 44.4977 5.51622 44.2532 5.35393C43.7639 5.02921 42.952 4.63506 41.6422 4.25015L41.5294 4.63393ZM32.3808 3.52164C35.7872 3.52164 39.1262 3.92475 41.5292 4.63386L41.6424 4.25022C39.1918 3.52707 35.8123 3.12164 32.3808 3.12164V3.52164ZM23.1992 33.7224C18.4139 37.9255 10.9934 37.5951 6.64476 32.9733L6.35344 33.2474C10.8512 38.0276 18.5173 38.3671 23.4631 34.0229L23.1992 33.7224ZM27.0283 25.3607C27.0401 28.5466 25.6438 31.5761 23.1992 33.7224L23.4631 34.0229C25.9916 31.8031 27.4405 28.6647 27.4283 25.3592L27.0283 25.3607ZM26.7933 23.0783C26.9462 23.8282 27.0283 24.6003 27.0283 25.3599H27.4283C27.4283 24.5719 27.3431 23.773 27.1852 22.9984L26.7933 23.0783ZM18.7786 14.5554C22.8597 15.7827 25.925 19.0538 26.7937 23.0805L27.1847 22.9961C26.2842 18.822 23.1092 15.44 18.8938 14.1724L18.7786 14.5554ZM15.3096 14.0557C16.4857 14.0557 17.6503 14.2261 18.7802 14.5559L18.8923 14.1719C17.7269 13.8318 16.5245 13.6557 15.3096 13.6557V14.0557ZM7.42038 16.9973C9.57048 15.1015 12.3922 14.0557 15.3096 14.0557V13.6557C12.2976 13.6557 9.3811 14.7352 7.15583 16.6972L7.42038 16.9973ZM6.64476 32.9733C2.29927 28.3548 2.6394 21.1967 7.42009 16.9975L7.15612 16.697C2.20578 21.0452 1.85256 28.4637 6.35344 33.2474L6.64476 32.9733ZM26.5202 34.256C27.5021 33.0965 28.2905 31.796 28.8486 30.4009L28.4772 30.2524C27.9355 31.6064 27.1698 32.87 26.215 33.9975L26.5202 34.256ZM31.9051 34.4003C30.062 34.3774 28.2187 34.2165 26.3988 33.9292L26.3364 34.3243C28.1746 34.6145 30.0372 34.7771 31.9001 34.8003L31.9051 34.4003ZM31.6309 30.6884L31.7026 34.604L32.1025 34.5967L32.0308 30.6811L31.6309 30.6884ZM31.6308 30.4768V30.6847H32.0308V30.4768H31.6308ZM28.647 30.526C29.6665 30.6071 30.7233 30.6652 31.8287 30.6768L31.8329 30.2768C30.7388 30.2653 29.6915 30.2079 28.6787 30.1273L28.647 30.526ZM29.5462 24.185C30.2442 24.2315 30.9771 24.2547 31.7201 24.2663L31.7264 23.8663C30.9871 23.8548 30.2615 23.8318 29.5728 23.7859L29.5462 24.185ZM29.8192 25.3484C29.8192 24.891 29.795 24.435 29.7589 23.97L29.3601 24.0009C29.3957 24.4599 29.4192 24.9049 29.4192 25.3484H29.8192ZM29.5403 28.0907C29.7221 27.189 29.8192 26.2633 29.8192 25.3484H29.4192C29.4192 26.2354 29.3251 27.1346 29.1482 28.0117L29.5403 28.0907ZM31.7977 27.9552C30.9646 27.9437 30.1437 27.9092 29.3589 27.8517L29.3297 28.2507C30.1229 28.3087 30.9518 28.3435 31.7922 28.3551L31.7977 27.9552ZM31.5233 24.0698L31.595 28.1587L31.9949 28.1517L31.9232 24.0628L31.5233 24.0698ZM32.5003 21.5677H32.3808V21.9677H32.5003V21.5677ZM44.8559 18.3106C42.2814 18.3802 39.6667 18.6759 37.4455 19.2171C35.2335 19.7562 33.3768 20.5468 32.3548 21.6305L32.6458 21.905C33.5844 20.9096 35.3439 20.1409 37.5402 19.6058C39.7272 19.0728 42.3127 18.7795 44.8667 18.7104L44.8559 18.3106ZM44.6613 15.4843V18.5105H45.0613V15.4843H44.6613ZM42.3337 16.6701C43.2424 16.4125 44.1143 16.0731 44.9493 15.6639L44.7733 15.3047C43.9586 15.704 43.1091 16.0345 42.2246 16.2852L42.3337 16.6701ZM32.3688 17.8904C36.0758 17.8904 39.6223 17.4618 42.3352 16.6696L42.2231 16.2857C39.5564 17.0643 36.0497 17.4904 32.3688 17.4904V17.8904ZM26.9291 17.554C28.7299 17.7744 30.5432 17.8904 32.3688 17.8904V17.4904C30.5602 17.4904 28.7632 17.3755 26.9777 17.157L26.9291 17.554ZM29.2852 21.5959C28.8244 20.026 28.0966 18.549 27.1135 17.2356L26.7933 17.4753C27.7468 18.7492 28.4536 20.1829 28.9013 21.7086L29.2852 21.5959ZM32.3808 21.5677C31.2384 21.5677 30.1312 21.5218 29.1067 21.4527L29.0798 21.8518C30.1115 21.9213 31.2278 21.9677 32.3808 21.9677V21.5677ZM34.2783 23.6043C34.2783 23.5988 34.2787 23.6113 34.2757 23.626C34.2726 23.6406 34.2682 23.6493 34.2679 23.65L33.9126 23.4662C33.9003 23.4899 33.8899 23.516 33.8839 23.545C33.8779 23.5742 33.8783 23.5982 33.8783 23.6043H34.2783ZM34.2798 23.5586L34.2559 23.5124L33.9007 23.6962L33.9246 23.7424L34.2798 23.5586ZM37.5032 25.2135C36.2309 24.859 35.4312 24.4875 34.9455 24.1815C34.7027 24.0285 34.5407 23.8935 34.4376 23.7872C34.3302 23.6765 34.2985 23.609 34.294 23.5938L33.9104 23.7072C33.9418 23.8132 34.0251 23.9364 34.1505 24.0656C34.2802 24.1994 34.4686 24.3538 34.7323 24.52C35.2597 24.8522 36.0978 25.2372 37.3958 25.5988L37.5032 25.2135ZM46.26 26.2341C42.9733 26.2341 39.86 25.8657 37.5028 25.2134L37.3961 25.5989C39.797 26.2633 42.9478 26.6341 46.26 26.6341V26.2341ZM55.2902 25.1562C52.8626 25.8541 49.6546 26.2341 46.26 26.2341V26.6341C49.6796 26.6341 52.927 26.2518 55.4008 25.5406L55.2902 25.1562ZM58.4096 23.6021C58.4111 23.5801 58.417 23.5807 58.4004 23.6099C58.3863 23.6347 58.3607 23.6716 58.3182 23.7192C58.2333 23.8141 58.089 23.9429 57.8584 24.0939C57.3975 24.3959 56.6046 24.7786 55.2903 25.1562L55.4007 25.5406C56.7403 25.1558 57.5732 24.7589 58.0776 24.4285C58.3298 24.2633 58.5029 24.1127 58.6164 23.9857C58.6731 23.9223 58.7169 23.8625 58.7481 23.8076C58.7769 23.7571 58.8041 23.6949 58.8086 23.6296L58.4096 23.6021ZM58.4091 23.6043V23.6158H58.8091V23.6043H58.4091ZM55.3973 22.1215C56.6581 22.4876 57.4246 22.856 57.8726 23.1469C58.0966 23.2923 58.2377 23.4163 58.3209 23.5079C58.3626 23.5538 58.3876 23.5892 58.4013 23.613C58.4175 23.6409 58.4111 23.6406 58.4096 23.618L58.8086 23.5905C58.8041 23.5246 58.7764 23.4626 58.7477 23.4128C58.7164 23.3588 58.6729 23.3005 58.6171 23.239C58.5052 23.1158 58.3355 22.9705 58.0904 22.8114C57.5999 22.4929 56.7944 22.1106 55.5088 21.7374L55.3973 22.1215ZM46.2481 21.0322C49.6555 21.0322 52.9823 21.4124 55.3967 22.1214L55.5094 21.7376C53.0464 21.0143 49.6786 20.6322 46.2481 20.6322V21.0322ZM46.0448 21.0322H46.2481V20.6322H46.0448V21.0322ZM37.5741 22.0068C39.8714 21.3776 42.8772 21.0322 46.0448 21.0322V20.6322C42.8526 20.6322 39.8094 20.9798 37.4684 21.6211L37.5741 22.0068ZM34.2793 23.6233C34.2908 23.5899 34.3372 23.5104 34.461 23.3937C34.5808 23.2807 34.7613 23.1439 35.0192 22.9929C35.5348 22.6909 36.348 22.3388 37.5735 22.007L37.469 21.6209C36.2198 21.9591 35.3714 22.3231 34.817 22.6477C34.5399 22.81 34.3334 22.9641 34.1865 23.1027C34.0435 23.2375 33.9435 23.3703 33.9012 23.4928L34.2793 23.6233ZM55.491 37.9317C53.1003 38.6521 49.8812 39.0552 46.4513 39.0552V39.4552C49.9072 39.4552 53.1675 39.0496 55.6064 38.3147L55.491 37.9317ZM58.421 36.4022C58.421 36.3753 58.4292 36.3716 58.4147 36.3997C58.4029 36.4226 58.3805 36.4579 58.3419 36.5042C58.2651 36.5966 58.132 36.7235 57.9166 36.8733C57.486 37.1726 56.7387 37.5546 55.4909 37.9318L55.6066 38.3147C56.8811 37.9295 57.67 37.5319 58.1449 37.2017C58.3824 37.0367 58.5444 36.8863 58.6495 36.76C58.7019 36.697 58.7422 36.6375 58.7703 36.5829C58.7957 36.5335 58.821 36.4695 58.821 36.4022H58.421ZM58.6091 36.6022H58.621V36.2022H58.6091V36.6022ZM58.4091 32.9371V36.4022H58.8091V32.9371H58.4091ZM56.1545 34.1109C57.0396 33.8532 57.8871 33.5138 58.6971 33.1166L58.521 32.7575C57.7291 33.1458 56.9031 33.4763 56.0427 33.7268L56.1545 34.1109ZM46.2241 35.3316C49.9312 35.3316 53.4539 34.903 56.1549 34.1108L56.0423 33.7269C53.3877 34.5056 49.905 34.9316 46.2241 34.9316V35.3316ZM37.1972 34.3322C39.727 34.9724 42.9358 35.3316 46.2241 35.3316V34.9316C42.9614 34.9316 39.7865 34.5748 37.2953 33.9444L37.1972 34.3322ZM34.1843 33.2682C35.1533 33.7245 36.1581 34.0754 37.1983 34.3325L37.2943 33.9441C36.2783 33.693 35.2986 33.3508 34.3548 32.9063L34.1843 33.2682ZM34.5293 36.4333L34.4695 33.0836L34.0696 33.0908L34.1294 36.4404L34.5293 36.4333ZM34.5293 36.4599V36.4369H34.1293V36.4599H34.5293ZM37.4348 37.9662C36.1865 37.5946 35.4455 37.2211 35.0214 36.9278C34.8093 36.7812 34.6799 36.657 34.6059 36.5663C34.5688 36.5208 34.5475 36.4862 34.5363 36.4635C34.5232 36.4369 34.5293 36.4379 34.5293 36.4599H34.1293C34.1293 36.5253 34.1519 36.5884 34.1775 36.6402C34.2049 36.696 34.2444 36.756 34.296 36.8193C34.3994 36.9459 34.5592 37.0945 34.7939 37.2568C35.2634 37.5815 36.0467 37.9703 37.3207 38.3496L37.4348 37.9662ZM46.4513 39.0552C43.0089 39.0552 39.8014 38.6636 37.4343 37.966L37.3212 38.3497C39.7359 39.0613 42.9839 39.4552 46.4513 39.4552V39.0552ZM58.633 29.4221H58.621V29.8221H58.633V29.4221ZM58.433 26.5496V29.6221H58.833V26.5496H58.433ZM56.0665 27.7362C56.9887 27.49 57.8738 27.1502 58.722 26.7288L58.544 26.3705C57.7185 26.7807 56.8583 27.1108 55.9634 27.3498L56.0665 27.7362ZM46.2481 28.9211C49.8953 28.9211 53.3815 28.5041 56.0699 27.7353L55.96 27.3507C53.3166 28.1066 49.8692 28.5211 46.2481 28.5211V28.9211ZM36.7141 27.7933C39.3305 28.5272 42.7088 28.9211 46.2481 28.9211V28.5211C42.7341 28.5211 39.394 28.1296 36.8221 27.4082L36.7141 27.7933ZM34.075 26.8106C34.9232 27.2204 35.8076 27.5481 36.7159 27.7938L36.8203 27.4077C35.9354 27.1683 35.0744 26.8492 34.249 26.4504L34.075 26.8106ZM34.4098 29.2835L34.3619 26.6269L33.962 26.6341L34.0098 29.2907L34.4098 29.2835ZM34.4217 30.2549L34.4098 29.2846L34.0098 29.2896L34.0218 30.2598L34.4217 30.2549ZM46.2361 32.6216C42.9385 32.6216 40.1841 32.262 38.1423 31.7653C37.1212 31.5168 36.2816 31.2349 35.6429 30.9482C34.9981 30.6588 34.5788 30.3737 34.3755 30.1294L34.068 30.3853C34.331 30.7012 34.8187 31.0167 35.4791 31.3131C36.1457 31.6123 37.0097 31.9014 38.0478 32.1539C40.1244 32.6592 42.9109 33.0216 46.2361 33.0216V32.6216ZM55.3492 31.5207C52.9219 32.23 49.6784 32.6216 46.2361 32.6216V33.0216C49.7036 33.0216 52.9872 32.6277 55.4614 31.9047L55.3492 31.5207ZM58.3493 30.0032C58.3493 29.9751 58.3582 29.9704 58.3435 29.9981C58.3316 30.0204 58.3089 30.0552 58.2695 30.101C58.1909 30.1925 58.0546 30.3182 57.8339 30.4668C57.3926 30.7639 56.627 31.1435 55.3486 31.5209L55.4619 31.9045C56.7657 31.5196 57.5721 31.1253 58.0573 30.7986C58.2998 30.6354 58.4654 30.4868 58.5729 30.3617C58.6265 30.2993 58.6678 30.2402 58.6968 30.1856C58.7229 30.1364 58.7493 30.0718 58.7493 30.0032H58.3493ZM58.3937 29.7504C58.377 29.8109 58.3493 29.9061 58.3493 30.0032H58.7493C58.7493 29.9703 58.7592 29.9294 58.7792 29.8569L58.3937 29.7504ZM58.421 29.6221C58.421 29.646 58.4132 29.6799 58.3937 29.7504L58.7792 29.8569C58.7947 29.8008 58.821 29.7109 58.821 29.6221H58.421ZM19.8484 26.9322C19.2723 24.96 17.4096 23.612 15.3049 23.612V24.012C17.2409 24.012 18.9407 25.2512 19.4644 27.0444L19.8484 26.9322ZM16.5891 32.5637C19.0936 31.8775 20.563 29.3671 19.8483 26.932L19.4645 27.0446C20.1126 29.2528 18.7847 31.5474 16.4834 32.1779L16.5891 32.5637ZM16.7363 33.3872V32.3708H16.3363V33.3872H16.7363ZM15.3408 34.7422C16.1022 34.7422 16.7363 34.1394 16.7363 33.3872H16.3363C16.3363 33.9056 15.8944 34.3422 15.3408 34.3422V34.7422ZM13.9453 33.3872C13.9453 34.1394 14.5794 34.7422 15.3408 34.7422V34.3422C14.7872 34.3422 14.3453 33.9056 14.3453 33.3872H13.9453ZM13.9453 32.3823V33.3872H14.3453V32.3823H13.9453ZM10.5981 28.1677C10.6106 30.2368 12.0381 32.0339 14.0944 32.5757L14.1963 32.1889C12.3076 31.6912 11.0094 30.0463 10.9981 28.1652L10.5981 28.1677ZM11.9935 26.8114C11.2321 26.8114 10.5981 27.4143 10.5981 28.1664H10.9981C10.9981 27.6481 11.4399 27.2114 11.9935 27.2114V26.8114ZM13.389 28.1664C13.389 27.4143 12.7549 26.8114 11.9935 26.8114V27.2114C12.5471 27.2114 12.989 27.6481 12.989 28.1664H13.389ZM15.3169 30.0109C14.2478 30.0109 13.389 29.1801 13.389 28.1664H12.989C12.989 29.4167 14.0429 30.4109 15.3169 30.4109V30.0109ZM17.2329 28.1549C17.2329 29.1714 16.383 30.0109 15.3169 30.0109V30.4109C16.5939 30.4109 17.6329 29.4023 17.6329 28.1549H17.2329ZM15.3049 26.3105C16.3741 26.3105 17.2329 27.1413 17.2329 28.1549H17.6329C17.6329 26.9046 16.5789 25.9105 15.3049 25.9105V26.3105ZM10.7607 22.9296C11.3116 24.9257 13.1745 26.3105 15.3049 26.3105V25.9105C13.3469 25.9105 11.6473 24.6387 11.1463 22.8232L10.7607 22.9296ZM14.0951 17.3465C11.5902 17.9967 10.0836 20.4946 10.7608 22.93L11.1462 22.8228C10.5323 20.615 11.8948 18.3309 14.1956 17.7337L14.0951 17.3465ZM13.9453 17.0435V17.5401H14.3453V17.0435H13.9453ZM15.3408 15.6884C14.5794 15.6884 13.9453 16.2913 13.9453 17.0435H14.3453C14.3453 16.5251 14.7872 16.0884 15.3408 16.0884V15.6884ZM16.7363 17.0435C16.7363 16.2913 16.1022 15.6884 15.3408 15.6884V16.0884C15.8944 16.0884 16.3363 16.5251 16.3363 17.0435H16.7363ZM16.7363 17.5632V17.0435H16.3363V17.5632H16.7363ZM20.0238 21.7676C20.0238 19.7218 18.621 17.9244 16.5889 17.3703L16.4837 17.7562C18.3487 18.2647 19.6238 19.9093 19.6238 21.7676H20.0238ZM18.6283 23.1226C19.3897 23.1226 20.0238 22.5197 20.0238 21.7676H19.6238C19.6238 22.2859 19.1819 22.7226 18.6283 22.7226V23.1226ZM17.2329 21.7676C17.2329 22.5197 17.8669 23.1226 18.6283 23.1226V22.7226C18.0747 22.7226 17.6329 22.2859 17.6329 21.7676H17.2329ZM15.3049 19.9116C16.3726 19.9116 17.2329 20.7525 17.2329 21.7676H17.6329C17.6329 20.5187 16.5804 19.5116 15.3049 19.5116V19.9116ZM13.377 21.7696C13.3878 20.7403 14.2385 19.9116 15.3049 19.9116V19.5116C14.0283 19.5116 12.9902 20.5079 12.977 21.7655L13.377 21.7696ZM15.3049 23.612C14.2358 23.612 13.377 22.7812 13.377 21.7676H12.977C12.977 23.0178 14.031 24.012 15.3049 24.012V23.612Z" fill="white" mask="url(#path-1-outside-1)"/>
</svg>
