<svg width="62" height="41" viewBox="0 0 62 41" fill="none" xmlns="http://www.w3.org/2000/svg">
<mask id="path-1-outside-1" maskUnits="userSpaceOnUse" x="0" y="-0.754883" width="62" height="42" fill="black">
<rect fill="white" y="-0.754883" width="62" height="42"/>
<path fill-rule="evenodd" clip-rule="evenodd" d="M56.1464 18.9222C59.2905 19.8463 60.9163 21.1284 60.988 22.7339C61 22.8032 61 22.884 61 22.9533V35.6358C61 37.7033 58.4059 38.9161 56.2421 39.5629C53.6001 40.3599 50.1213 40.7988 46.4393 40.7988C39.7567 40.7988 32.584 39.3319 31.9743 36.1324C29.1889 36.1093 26.5589 35.8321 24.3234 35.3239C21.777 37.3337 18.5971 38.4194 15.3096 38.4194C7.41961 38.4194 1 32.2168 1 24.5935C1 23.7272 1.08368 22.8725 1.25105 22.0178C2.72146 14.5215 10.217 9.58945 17.9874 11.0217L17.8559 5.75469C17.832 5.62764 17.8201 5.50058 17.8201 5.37353C17.8201 3.30599 20.4142 2.10474 22.578 1.45792C25.22 0.672485 28.6987 0.245117 32.3808 0.245117C36.0747 0.245117 39.5894 0.672485 42.2791 1.45792C45.1363 2.28955 46.7501 3.4215 47.0849 4.8191C47.1925 4.99236 47.2522 5.18872 47.2642 5.39663V17.721C50.6115 17.7903 53.7077 18.2177 56.1464 18.9222ZM41.5977 13.4935C44.1919 12.7312 44.7657 11.9342 44.7657 11.784C44.7657 11.7715 44.7656 11.7591 44.7655 11.7468C44.7647 11.5991 44.7639 11.4597 44.8852 11.3105V8.28425C44.0604 8.70006 43.1877 9.03503 42.2911 9.28914C39.6013 10.0746 36.0747 10.5019 32.3927 10.5019C28.8661 10.5019 25.5069 10.1092 22.9127 9.38154C22.0161 9.15053 21.1554 8.82712 20.3305 8.42285L20.4142 11.6801C21.7651 12.1652 23.0203 12.8582 24.156 13.7245C24.1739 13.7303 24.1889 13.7332 24.2038 13.7361C24.2188 13.739 24.2337 13.7418 24.2516 13.7476C26.5469 14.3136 29.4399 14.6139 32.3927 14.6139C35.8117 14.6139 39.171 14.1981 41.5977 13.4935ZM32.3808 2.56676C28.9378 2.56676 25.7101 2.97103 23.2953 3.68716C20.7729 4.42639 20.223 5.16562 20.211 5.38508C20.211 5.38508 20.223 5.38508 20.223 5.40818C20.2827 5.66229 21 6.44772 23.5702 7.16385C25.9492 7.83378 29.0813 8.20339 32.3808 8.20339C35.7998 8.20339 39.147 7.79913 41.5738 7.09455C44.168 6.34377 44.7537 5.54678 44.7537 5.38508C44.7537 5.23492 44.1799 4.44949 41.5858 3.68716C39.159 2.97103 35.7998 2.56676 32.3808 2.56676ZM6.4991 32.3554C10.9223 37.0565 18.4656 37.3914 23.3311 33.1178C25.8177 30.9347 27.2403 27.8507 27.2283 24.6051C27.2283 23.8312 27.1446 23.0458 26.9892 22.2834C26.1046 18.183 22.9845 14.8565 18.8362 13.609C17.6886 13.2741 16.5051 13.1008 15.3096 13.1008C12.3449 13.1008 9.47579 14.1634 7.28811 16.0924C2.42259 20.366 2.07591 27.6544 6.4991 32.3554ZM28.6629 29.5718C28.113 30.9463 27.3359 32.2284 26.3676 33.3719C28.1967 33.6606 30.0496 33.8223 31.9026 33.8454L31.8308 29.9298V29.7219C30.731 29.7104 29.679 29.6526 28.6629 29.5718ZM31.7233 23.3114C30.9821 23.2999 30.2528 23.2768 29.5595 23.2306C29.5953 23.6926 29.6192 24.143 29.6192 24.5935C29.6192 25.4945 29.5236 26.4069 29.3443 27.2963C30.1333 27.3541 30.9582 27.3887 31.795 27.4003L31.7233 23.3114ZM32.3808 21.0129H32.5003C34.4608 18.9338 39.7328 17.8942 44.8613 17.7556V14.7294C44.0365 15.1337 43.1757 15.4686 42.2791 15.7228C39.5894 16.5082 36.0628 16.9356 32.3688 16.9356C30.5517 16.9356 28.7466 16.82 26.9534 16.6006C27.9217 17.8942 28.639 19.3496 29.0932 20.8974C30.1213 20.9667 31.2331 21.0129 32.3808 21.0129ZM34.0903 22.8032C34.0783 22.8263 34.0783 22.8378 34.0783 22.8494L34.1022 22.8956C34.1739 23.1382 34.8793 23.9351 37.4495 24.6513C39.8285 25.3096 42.9606 25.6793 46.26 25.6793C49.6671 25.6793 52.8948 25.2981 55.3455 24.5935C57.9994 23.8312 58.5971 23.0342 58.6091 22.8609V22.8494C58.5971 22.6761 57.9994 21.9138 55.4531 21.1746C53.0143 20.4584 49.6671 20.0773 46.2481 20.0773H46.0448C42.8649 20.0773 39.8404 20.4238 37.5212 21.0591C35.0466 21.729 34.1978 22.4913 34.0903 22.8032ZM46.4513 38.5003C49.8942 38.5003 53.1339 38.096 55.5487 37.3683C58.0711 36.606 58.621 35.809 58.621 35.6473H58.6091V32.1822C57.8081 32.5749 56.9713 32.9099 56.0986 33.164C53.4208 33.9494 49.9181 34.3768 46.2241 34.3768C42.9486 34.3768 39.7567 34.0187 37.2463 33.3834C36.2182 33.1293 35.2259 32.7828 34.2696 32.3323L34.3293 35.682V35.7051C34.3293 35.8783 34.8554 36.6522 37.3778 37.403C39.7687 38.1076 42.9964 38.5003 46.4513 38.5003ZM58.621 28.8672H58.633V25.7948C57.7962 26.2106 56.9235 26.5455 56.0149 26.7881C53.3491 27.5504 49.8822 27.9663 46.2481 27.9663C42.7215 27.9663 39.3622 27.5735 36.7681 26.8459C35.8715 26.6033 34.9988 26.2799 34.162 25.8756L34.2098 28.5322L34.2218 29.5025C35.1542 30.6229 39.6133 32.0667 46.2361 32.0667C49.691 32.0667 52.9546 31.674 55.4053 30.9578C57.9874 30.1955 58.5493 29.4101 58.5493 29.2484C58.5493 29.1833 58.5681 29.1152 58.5865 29.0488C58.604 28.9854 58.621 28.9236 58.621 28.8672ZM15.3049 23.0571C17.3253 23.0571 19.1065 24.3507 19.6564 26.2334C20.3378 28.555 18.9391 30.9575 16.5363 31.6159V32.6323C16.5363 33.2676 15.9983 33.7874 15.3408 33.7874C14.6833 33.7874 14.1453 33.2676 14.1453 32.6323V31.6274C12.1728 31.1077 10.81 29.3867 10.7981 27.4116C10.7981 26.7763 11.336 26.2565 11.9935 26.2565C12.651 26.2565 13.189 26.7763 13.189 27.4116C13.189 28.5435 14.1454 29.456 15.3169 29.456C16.4884 29.456 17.4329 28.5319 17.4329 27.4C17.4329 26.2681 16.4765 25.3556 15.3049 25.3556C13.2607 25.3556 11.4795 24.0273 10.9535 22.1215C10.3079 19.7999 11.7425 17.409 14.1453 16.7852V16.2886C14.1453 15.6533 14.6833 15.1335 15.3408 15.1335C15.9983 15.1335 16.5363 15.6533 16.5363 16.2886V16.8083C18.4849 17.3397 19.8238 19.0607 19.8238 21.0127C19.8238 21.6479 19.2858 22.1677 18.6283 22.1677C17.9708 22.1677 17.4329 21.6479 17.4329 21.0127C17.4329 19.8807 16.4765 18.9567 15.3049 18.9567C14.1334 18.9567 13.189 19.8692 13.177 21.0127C13.177 22.1446 14.1334 23.0571 15.3049 23.0571Z"/>
</mask>
<path fill-rule="evenodd" clip-rule="evenodd" d="M56.1464 18.9222C59.2905 19.8463 60.9163 21.1284 60.988 22.7339C61 22.8032 61 22.884 61 22.9533V35.6358C61 37.7033 58.4059 38.9161 56.2421 39.5629C53.6001 40.3599 50.1213 40.7988 46.4393 40.7988C39.7567 40.7988 32.584 39.3319 31.9743 36.1324C29.1889 36.1093 26.5589 35.8321 24.3234 35.3239C21.777 37.3337 18.5971 38.4194 15.3096 38.4194C7.41961 38.4194 1 32.2168 1 24.5935C1 23.7272 1.08368 22.8725 1.25105 22.0178C2.72146 14.5215 10.217 9.58945 17.9874 11.0217L17.8559 5.75469C17.832 5.62764 17.8201 5.50058 17.8201 5.37353C17.8201 3.30599 20.4142 2.10474 22.578 1.45792C25.22 0.672485 28.6987 0.245117 32.3808 0.245117C36.0747 0.245117 39.5894 0.672485 42.2791 1.45792C45.1363 2.28955 46.7501 3.4215 47.0849 4.8191C47.1925 4.99236 47.2522 5.18872 47.2642 5.39663V17.721C50.6115 17.7903 53.7077 18.2177 56.1464 18.9222ZM41.5977 13.4935C44.1919 12.7312 44.7657 11.9342 44.7657 11.784C44.7657 11.7715 44.7656 11.7591 44.7655 11.7468C44.7647 11.5991 44.7639 11.4597 44.8852 11.3105V8.28425C44.0604 8.70006 43.1877 9.03503 42.2911 9.28914C39.6013 10.0746 36.0747 10.5019 32.3927 10.5019C28.8661 10.5019 25.5069 10.1092 22.9127 9.38154C22.0161 9.15053 21.1554 8.82712 20.3305 8.42285L20.4142 11.6801C21.7651 12.1652 23.0203 12.8582 24.156 13.7245C24.1739 13.7303 24.1889 13.7332 24.2038 13.7361C24.2188 13.739 24.2337 13.7418 24.2516 13.7476C26.5469 14.3136 29.4399 14.6139 32.3927 14.6139C35.8117 14.6139 39.171 14.1981 41.5977 13.4935ZM32.3808 2.56676C28.9378 2.56676 25.7101 2.97103 23.2953 3.68716C20.7729 4.42639 20.223 5.16562 20.211 5.38508C20.211 5.38508 20.223 5.38508 20.223 5.40818C20.2827 5.66229 21 6.44772 23.5702 7.16385C25.9492 7.83378 29.0813 8.20339 32.3808 8.20339C35.7998 8.20339 39.147 7.79913 41.5738 7.09455C44.168 6.34377 44.7537 5.54678 44.7537 5.38508C44.7537 5.23492 44.1799 4.44949 41.5858 3.68716C39.159 2.97103 35.7998 2.56676 32.3808 2.56676ZM6.4991 32.3554C10.9223 37.0565 18.4656 37.3914 23.3311 33.1178C25.8177 30.9347 27.2403 27.8507 27.2283 24.6051C27.2283 23.8312 27.1446 23.0458 26.9892 22.2834C26.1046 18.183 22.9845 14.8565 18.8362 13.609C17.6886 13.2741 16.5051 13.1008 15.3096 13.1008C12.3449 13.1008 9.47579 14.1634 7.28811 16.0924C2.42259 20.366 2.07591 27.6544 6.4991 32.3554ZM28.6629 29.5718C28.113 30.9463 27.3359 32.2284 26.3676 33.3719C28.1967 33.6606 30.0496 33.8223 31.9026 33.8454L31.8308 29.9298V29.7219C30.731 29.7104 29.679 29.6526 28.6629 29.5718ZM31.7233 23.3114C30.9821 23.2999 30.2528 23.2768 29.5595 23.2306C29.5953 23.6926 29.6192 24.143 29.6192 24.5935C29.6192 25.4945 29.5236 26.4069 29.3443 27.2963C30.1333 27.3541 30.9582 27.3887 31.795 27.4003L31.7233 23.3114ZM32.3808 21.0129H32.5003C34.4608 18.9338 39.7328 17.8942 44.8613 17.7556V14.7294C44.0365 15.1337 43.1757 15.4686 42.2791 15.7228C39.5894 16.5082 36.0628 16.9356 32.3688 16.9356C30.5517 16.9356 28.7466 16.82 26.9534 16.6006C27.9217 17.8942 28.639 19.3496 29.0932 20.8974C30.1213 20.9667 31.2331 21.0129 32.3808 21.0129ZM34.0903 22.8032C34.0783 22.8263 34.0783 22.8378 34.0783 22.8494L34.1022 22.8956C34.1739 23.1382 34.8793 23.9351 37.4495 24.6513C39.8285 25.3096 42.9606 25.6793 46.26 25.6793C49.6671 25.6793 52.8948 25.2981 55.3455 24.5935C57.9994 23.8312 58.5971 23.0342 58.6091 22.8609V22.8494C58.5971 22.6761 57.9994 21.9138 55.4531 21.1746C53.0143 20.4584 49.6671 20.0773 46.2481 20.0773H46.0448C42.8649 20.0773 39.8404 20.4238 37.5212 21.0591C35.0466 21.729 34.1978 22.4913 34.0903 22.8032ZM46.4513 38.5003C49.8942 38.5003 53.1339 38.096 55.5487 37.3683C58.0711 36.606 58.621 35.809 58.621 35.6473H58.6091V32.1822C57.8081 32.5749 56.9713 32.9099 56.0986 33.164C53.4208 33.9494 49.9181 34.3768 46.2241 34.3768C42.9486 34.3768 39.7567 34.0187 37.2463 33.3834C36.2182 33.1293 35.2259 32.7828 34.2696 32.3323L34.3293 35.682V35.7051C34.3293 35.8783 34.8554 36.6522 37.3778 37.403C39.7687 38.1076 42.9964 38.5003 46.4513 38.5003ZM58.621 28.8672H58.633V25.7948C57.7962 26.2106 56.9235 26.5455 56.0149 26.7881C53.3491 27.5504 49.8822 27.9663 46.2481 27.9663C42.7215 27.9663 39.3622 27.5735 36.7681 26.8459C35.8715 26.6033 34.9988 26.2799 34.162 25.8756L34.2098 28.5322L34.2218 29.5025C35.1542 30.6229 39.6133 32.0667 46.2361 32.0667C49.691 32.0667 52.9546 31.674 55.4053 30.9578C57.9874 30.1955 58.5493 29.4101 58.5493 29.2484C58.5493 29.1833 58.5681 29.1152 58.5865 29.0488C58.604 28.9854 58.621 28.9236 58.621 28.8672ZM15.3049 23.0571C17.3253 23.0571 19.1065 24.3507 19.6564 26.2334C20.3378 28.555 18.9391 30.9575 16.5363 31.6159V32.6323C16.5363 33.2676 15.9983 33.7874 15.3408 33.7874C14.6833 33.7874 14.1453 33.2676 14.1453 32.6323V31.6274C12.1728 31.1077 10.81 29.3867 10.7981 27.4116C10.7981 26.7763 11.336 26.2565 11.9935 26.2565C12.651 26.2565 13.189 26.7763 13.189 27.4116C13.189 28.5435 14.1454 29.456 15.3169 29.456C16.4884 29.456 17.4329 28.5319 17.4329 27.4C17.4329 26.2681 16.4765 25.3556 15.3049 25.3556C13.2607 25.3556 11.4795 24.0273 10.9535 22.1215C10.3079 19.7999 11.7425 17.409 14.1453 16.7852V16.2886C14.1453 15.6533 14.6833 15.1335 15.3408 15.1335C15.9983 15.1335 16.5363 15.6533 16.5363 16.2886V16.8083C18.4849 17.3397 19.8238 19.0607 19.8238 21.0127C19.8238 21.6479 19.2858 22.1677 18.6283 22.1677C17.9708 22.1677 17.4329 21.6479 17.4329 21.0127C17.4329 19.8807 16.4765 18.9567 15.3049 18.9567C14.1334 18.9567 13.189 19.8692 13.177 21.0127C13.177 22.1446 14.1334 23.0571 15.3049 23.0571Z" fill="#27A577"/>
<path d="M60.988 22.7339L60.7882 22.7428L60.7888 22.7554L60.791 22.7679L60.988 22.7339ZM56.1464 18.9222L56.2028 18.7303L56.202 18.7301L56.1464 18.9222ZM56.2421 39.5629L56.1848 39.3713L56.1843 39.3714L56.2421 39.5629ZM31.9743 36.1324L32.1708 36.095L32.14 35.9338L31.976 35.9324L31.9743 36.1324ZM24.3234 35.3239L24.3677 35.1289L24.2745 35.1077L24.1995 35.1669L24.3234 35.3239ZM1.25105 22.0178L1.05479 21.9793L1.05477 21.9793L1.25105 22.0178ZM17.9874 11.0217L17.9512 11.2184L18.1935 11.2631L18.1874 11.0167L17.9874 11.0217ZM17.8559 5.75469L18.0559 5.7497L18.0555 5.73357L18.0525 5.71771L17.8559 5.75469ZM22.578 1.45792L22.521 1.26621L22.5207 1.2663L22.578 1.45792ZM42.2791 1.45792L42.2231 1.6499L42.2232 1.64995L42.2791 1.45792ZM47.0849 4.8191L46.8904 4.86569L46.8979 4.89714L46.915 4.92462L47.0849 4.8191ZM47.2642 5.39663H47.4645L47.4639 5.38515L47.2642 5.39663ZM47.2642 17.721H47.0642V17.9169L47.2601 17.9209L47.2642 17.721ZM41.5977 13.4935L41.6535 13.6856L41.6541 13.6854L41.5977 13.4935ZM44.7655 11.7468L44.5655 11.7479V11.7479L44.7655 11.7468ZM44.8852 11.3105L45.0404 11.4367L45.0852 11.3815V11.3105H44.8852ZM44.8852 8.28425H45.0852V7.95945L44.7952 8.10565L44.8852 8.28425ZM42.2911 9.28914L42.2366 9.09671L42.235 9.09715L42.2911 9.28914ZM22.9127 9.38154L22.9668 9.18893L22.9626 9.18787L22.9127 9.38154ZM20.3305 8.42285L20.4186 8.24326L20.1221 8.09798L20.1306 8.42799L20.3305 8.42285ZM20.4142 11.6801L20.2143 11.6852L20.2178 11.8221L20.3466 11.8683L20.4142 11.6801ZM24.156 13.7245L24.0347 13.8835L24.062 13.9044L24.0947 13.9149L24.156 13.7245ZM24.2038 13.7361L24.2418 13.5397L24.2418 13.5397L24.2038 13.7361ZM24.2516 13.7476L24.1902 13.9385L24.2038 13.9418L24.2516 13.7476ZM23.2953 3.68716L23.3515 3.87909L23.3521 3.8789L23.2953 3.68716ZM20.211 5.38508L20.0113 5.3742L19.9998 5.58509L20.211 5.58508L20.211 5.38508ZM20.223 5.40818H20.023V5.43138L20.0283 5.45397L20.223 5.40818ZM23.5702 7.16385L23.6244 6.97134L23.6239 6.97119L23.5702 7.16385ZM41.5738 7.09455L41.5182 6.90243L41.5181 6.90248L41.5738 7.09455ZM41.5858 3.68716L41.5292 3.87898L41.5294 3.87904L41.5858 3.68716ZM23.3311 33.1178L23.1992 32.9675L23.1992 32.9675L23.3311 33.1178ZM27.2283 24.6051H27.0283L27.0283 24.6058L27.2283 24.6051ZM26.9892 22.2834L27.1852 22.2435L27.1847 22.2412L26.9892 22.2834ZM18.8362 13.609L18.8938 13.4175L18.8923 13.417L18.8362 13.609ZM7.28811 16.0924L7.42009 16.2426L7.42038 16.2424L7.28811 16.0924ZM26.3676 33.3719L26.215 33.2426L25.9852 33.514L26.3364 33.5694L26.3676 33.3719ZM28.6629 29.5718L28.6787 29.3724L28.5319 29.3607L28.4772 29.4975L28.6629 29.5718ZM31.9026 33.8454L31.9001 34.0454L32.1063 34.048L32.1025 33.8418L31.9026 33.8454ZM31.8308 29.9298H31.6308L31.6309 29.9335L31.8308 29.9298ZM31.8308 29.7219H32.0308V29.524L31.8329 29.5219L31.8308 29.7219ZM29.5595 23.2306L29.5728 23.031L29.3422 23.0156L29.3601 23.246L29.5595 23.2306ZM31.7233 23.3114L31.9232 23.3079L31.9198 23.1145L31.7264 23.1114L31.7233 23.3114ZM29.3443 27.2963L29.1482 27.2568L29.1034 27.4792L29.3297 27.4958L29.3443 27.2963ZM31.795 27.4003L31.7922 27.6003L31.9986 27.6031L31.9949 27.3968L31.795 27.4003ZM32.5003 21.0129V21.2129H32.5866L32.6458 21.1501L32.5003 21.0129ZM44.8613 17.7556L44.8667 17.9556L45.0613 17.9503V17.7556H44.8613ZM44.8613 14.7294H45.0613V14.4087L44.7733 14.5498L44.8613 14.7294ZM42.2791 15.7228L42.2246 15.5303L42.2231 15.5308L42.2791 15.7228ZM26.9534 16.6006L26.9777 16.4021L26.5123 16.3451L26.7933 16.7204L26.9534 16.6006ZM29.0932 20.8974L28.9013 20.9537L28.9406 21.0875L29.0798 21.0969L29.0932 20.8974ZM34.0783 22.8494H33.8783V22.8981L33.9007 22.9413L34.0783 22.8494ZM34.0903 22.8032L34.2679 22.8951L34.2746 22.8822L34.2793 22.8684L34.0903 22.8032ZM34.1022 22.8956L34.294 22.8389L34.2886 22.8206L34.2798 22.8037L34.1022 22.8956ZM37.4495 24.6513L37.3958 24.8439L37.3961 24.844L37.4495 24.6513ZM55.3455 24.5935L55.2903 24.4013L55.2902 24.4013L55.3455 24.5935ZM58.6091 22.8609L58.8091 22.8747V22.8609H58.6091ZM58.6091 22.8494H58.8096L58.8086 22.8356L58.6091 22.8494ZM55.4531 21.1746L55.3967 21.3665L55.3973 21.3666L55.4531 21.1746ZM37.5212 21.0591L37.5735 21.2521L37.5741 21.252L37.5212 21.0591ZM55.5487 37.3683L55.6064 37.5598L55.6066 37.5598L55.5487 37.3683ZM58.621 35.6473H58.821V35.4473H58.621V35.6473ZM58.6091 35.6473H58.4091V35.8473H58.6091V35.6473ZM58.6091 32.1822H58.8091V31.8614L58.521 32.0026L58.6091 32.1822ZM56.0986 33.164L56.0427 32.9719L56.0423 32.972L56.0986 33.164ZM37.2463 33.3834L37.2953 33.1895L37.2943 33.1893L37.2463 33.3834ZM34.2696 32.3323L34.3548 32.1514L34.0639 32.0144L34.0696 32.3359L34.2696 32.3323ZM34.3293 35.682H34.5294L34.5293 35.6784L34.3293 35.682ZM37.3778 37.403L37.3207 37.5947L37.3212 37.5948L37.3778 37.403ZM58.633 28.8672V29.0672H58.833V28.8672H58.633ZM58.621 28.8672V28.6672H58.421V28.8672H58.621ZM58.633 25.7948H58.833V25.4721L58.544 25.6157L58.633 25.7948ZM56.0149 26.7881L55.9633 26.5948L55.96 26.5958L56.0149 26.7881ZM36.7681 26.8459L36.8221 26.6533L36.8203 26.6528L36.7681 26.8459ZM34.162 25.8756L34.249 25.6955L33.9562 25.5541L33.962 25.8792L34.162 25.8756ZM34.2098 28.5322L34.4098 28.5298L34.4098 28.5286L34.2098 28.5322ZM34.2218 29.5025L34.0218 29.5049L34.0226 29.5759L34.068 29.6304L34.2218 29.5025ZM55.4053 30.9578L55.4614 31.1498L55.4619 31.1496L55.4053 30.9578ZM58.5865 29.0488L58.7792 29.102L58.5865 29.0488ZM19.6564 26.2334L19.4644 26.2895L19.4645 26.2898L19.6564 26.2334ZM16.5363 31.6159L16.4834 31.423L16.3363 31.4633V31.6159H16.5363ZM14.1453 31.6274H14.3453V31.4733L14.1963 31.434L14.1453 31.6274ZM10.7981 27.4116H10.5981L10.5981 27.4128L10.7981 27.4116ZM10.9535 22.1215L11.1463 22.0683L11.1462 22.0679L10.9535 22.1215ZM14.1453 16.7852L14.1956 16.9788L14.3453 16.94V16.7852H14.1453ZM16.5363 16.8083H16.3363V16.9611L16.4837 17.0013L16.5363 16.8083ZM13.177 21.0127L12.977 21.0106V21.0127H13.177ZM61.1878 22.725C61.1487 21.8485 60.6833 21.0772 59.8431 20.4154C59.0064 19.7564 57.7867 19.1958 56.2028 18.7303L56.09 19.1141C57.6503 19.5727 58.8155 20.1152 59.5956 20.7296C60.3722 21.3413 60.7557 22.0138 60.7882 22.7428L61.1878 22.725ZM61.2 22.9533C61.2 22.8881 61.2006 22.7892 61.1851 22.6999L60.791 22.7679C60.7994 22.8171 60.8 22.88 60.8 22.9533H61.2ZM61.2 35.6358V22.9533H60.8V35.6358H61.2ZM56.2994 39.7545C57.3895 39.4287 58.6025 38.9564 59.5471 38.296C60.49 37.6368 61.2 36.7641 61.2 35.6358H60.8C60.8 36.575 60.2129 37.3425 59.3179 37.9682C58.4244 38.5928 57.2585 39.0504 56.1848 39.3713L56.2994 39.7545ZM46.4393 40.9988C50.1348 40.9988 53.6341 40.5586 56.2998 39.7544L56.1843 39.3714C53.5661 40.1613 50.1079 40.5988 46.4393 40.5988V40.9988ZM31.7778 36.1699C31.9439 37.0416 32.5531 37.7731 33.4394 38.3766C34.3265 38.9808 35.5116 39.4714 36.8749 39.8579C39.6029 40.6311 43.0863 40.9988 46.4393 40.9988V40.5988C43.1098 40.5988 39.6655 40.2331 36.984 39.473C35.6427 39.0928 34.5026 38.6168 33.6645 38.046C32.8256 37.4747 32.3095 36.823 32.1708 36.095L31.7778 36.1699ZM24.279 35.5189C26.5312 36.0309 29.1759 36.3092 31.9726 36.3324L31.976 35.9324C29.2019 35.9094 26.5865 35.6333 24.3677 35.1289L24.279 35.5189ZM15.3096 38.6194C18.641 38.6194 21.8648 37.5192 24.4473 35.4809L24.1995 35.1669C21.6893 37.1482 18.5532 38.2194 15.3096 38.2194V38.6194ZM0.8 24.5935C0.8 32.3337 7.31569 38.6194 15.3096 38.6194V38.2194C7.52352 38.2194 1.2 32.0999 1.2 24.5935H0.8ZM1.05477 21.9793C0.88496 22.8466 0.8 23.7142 0.8 24.5935H1.2C1.2 23.7403 1.2824 22.8984 1.44732 22.0562L1.05477 21.9793ZM18.0237 10.825C10.1514 9.37399 2.54743 14.3697 1.05479 21.9793L1.44731 22.0563C2.89549 14.6733 10.2826 9.80491 17.9512 11.2184L18.0237 10.825ZM17.656 5.75968L17.7875 11.0267L18.1874 11.0167L18.0559 5.7497L17.656 5.75968ZM17.6201 5.37353C17.6201 5.51321 17.6332 5.65264 17.6594 5.79168L18.0525 5.71771C18.0308 5.60263 18.0201 5.48796 18.0201 5.37353H17.6201ZM22.5207 1.2663C21.4309 1.59207 20.218 2.0614 19.2734 2.7188C18.3303 3.37517 17.6201 4.24502 17.6201 5.37353H18.0201C18.0201 4.4345 18.607 3.66996 19.5019 3.04711C20.3953 2.4253 21.5613 1.97059 22.6353 1.64954L22.5207 1.2663ZM32.3808 0.0451172C28.6857 0.0451172 25.1866 0.473741 22.521 1.26621L22.635 1.64962C25.2533 0.871228 28.7118 0.445117 32.3808 0.445117V0.0451172ZM42.3352 1.26593C39.6223 0.473755 36.0878 0.0451172 32.3808 0.0451172V0.445117C36.0616 0.445117 39.5564 0.871214 42.2231 1.6499L42.3352 1.26593ZM47.2794 4.77252C47.097 4.01122 46.5704 3.34178 45.7426 2.76242C44.9155 2.18356 43.775 1.68502 42.335 1.26589L42.2232 1.64995C43.6404 2.06244 44.7354 2.5457 45.5132 3.09012C46.2904 3.63404 46.738 4.22938 46.8904 4.86569L47.2794 4.77252ZM47.4639 5.38515C47.4501 5.14583 47.381 4.91681 47.2548 4.71359L46.915 4.92462C47.004 5.06791 47.0544 5.23161 47.0645 5.40811L47.4639 5.38515ZM47.4642 17.721V5.39663H47.0642V17.721H47.4642ZM56.202 18.7301C53.7427 18.0196 50.6285 17.5906 47.2683 17.521L47.2601 17.9209C50.5945 17.99 53.6728 18.4157 56.0909 19.1144L56.202 18.7301ZM44.5657 11.784C44.5657 11.7515 44.5767 11.7441 44.5608 11.7728C44.5486 11.7949 44.5253 11.8296 44.485 11.8755C44.4048 11.9672 44.2663 12.0936 44.0432 12.243C43.5972 12.5418 42.8254 12.9243 41.5413 13.3016L41.6541 13.6854C42.9642 13.3004 43.7764 12.9032 44.2658 12.5754C44.5104 12.4115 44.6775 12.2629 44.786 12.139C44.8401 12.0772 44.8818 12.0191 44.9111 11.9659C44.9368 11.9193 44.9657 11.8542 44.9657 11.784H44.5657ZM44.5655 11.7479C44.5656 11.7604 44.5657 11.7722 44.5657 11.784H44.9657C44.9657 11.7709 44.9656 11.7579 44.9655 11.7456L44.5655 11.7479ZM44.7301 11.1843C44.56 11.3934 44.5647 11.5991 44.5655 11.7479L44.9655 11.7456C44.9647 11.599 44.9678 11.5259 45.0404 11.4367L44.7301 11.1843ZM44.6852 8.28425V11.3105H45.0852V8.28425H44.6852ZM42.3456 9.48156C43.2537 9.22418 44.1384 8.88471 44.9753 8.46284L44.7952 8.10565C43.9824 8.51542 43.1216 8.84587 42.2366 9.09672L42.3456 9.48156ZM32.3927 10.7019C36.0878 10.7019 39.6342 10.2733 42.3472 9.48112L42.235 9.09715C39.5684 9.87583 36.0617 10.3019 32.3927 10.3019V10.7019ZM22.8587 9.57411C25.4751 10.308 28.8534 10.7019 32.3927 10.7019V10.3019C28.8788 10.3019 25.5386 9.91041 22.9667 9.18897L22.8587 9.57411ZM20.2425 8.60244C21.079 9.01238 21.9524 9.34065 22.8628 9.57522L22.9626 9.18787C22.0798 8.96041 21.2319 8.64185 20.4186 8.24326L20.2425 8.60244ZM20.6142 11.6749L20.5305 8.41772L20.1306 8.42799L20.2143 11.6852L20.6142 11.6749ZM24.2773 13.5655C23.126 12.6873 21.8527 11.9842 20.4818 11.4919L20.3466 11.8683C21.6775 12.3462 22.9147 13.0292 24.0347 13.8835L24.2773 13.5655ZM24.2418 13.5397C24.2268 13.5368 24.2225 13.5358 24.2173 13.5342L24.0947 13.9149C24.1253 13.9248 24.151 13.9296 24.1659 13.9324L24.2418 13.5397ZM24.313 13.5572C24.2823 13.5474 24.2567 13.5426 24.2418 13.5397L24.1659 13.9324C24.1809 13.9353 24.1851 13.9363 24.1903 13.938L24.313 13.5572ZM32.3927 14.4139C29.4516 14.4139 26.5753 14.1146 24.2995 13.5534L24.2038 13.9418C26.5185 14.5126 29.4282 14.8139 32.3927 14.8139V14.4139ZM41.542 13.3014C39.138 13.9994 35.7985 14.4139 32.3927 14.4139V14.8139C35.8249 14.8139 39.2039 14.3968 41.6535 13.6856L41.542 13.3014ZM23.3521 3.8789C25.7435 3.16974 28.951 2.76676 32.3808 2.76676V2.36676C28.9246 2.36676 25.6767 2.77232 23.2384 3.49541L23.3521 3.8789ZM20.4107 5.39595C20.4102 5.40488 20.4145 5.35852 20.4972 5.25882C20.5745 5.16562 20.7073 5.04184 20.9231 4.89714C21.3548 4.60767 22.102 4.24526 23.3515 3.87909L23.239 3.49523C21.9661 3.86828 21.1772 4.2451 20.7003 4.56493C20.4618 4.72486 20.2973 4.87324 20.1893 5.00348C20.0867 5.1272 20.0178 5.25554 20.0113 5.3742L20.4107 5.39595ZM20.423 5.40818C20.423 5.36402 20.4111 5.29746 20.3559 5.24413C20.3297 5.21876 20.3005 5.20354 20.2742 5.19507C20.2613 5.19092 20.2493 5.18845 20.2388 5.187C20.2336 5.18627 20.2286 5.18579 20.224 5.1855C20.2217 5.18535 20.2194 5.18524 20.2173 5.18517C20.2162 5.18514 20.2151 5.18512 20.2141 5.1851C20.2135 5.18509 20.213 5.18509 20.2125 5.18508C20.2123 5.18508 20.212 5.18508 20.2117 5.18508C20.2116 5.18508 20.2114 5.18508 20.2114 5.18508C20.2112 5.18508 20.211 5.18508 20.211 5.38508C20.211 5.58508 20.2108 5.58508 20.2106 5.58508C20.2106 5.58508 20.2104 5.58508 20.2102 5.58508C20.21 5.58507 20.2097 5.58507 20.2095 5.58507C20.209 5.58507 20.2085 5.58506 20.2079 5.58505C20.2069 5.58504 20.2059 5.58501 20.2048 5.58498C20.2027 5.58492 20.2005 5.58481 20.1983 5.58467C20.1938 5.58438 20.1891 5.58393 20.1842 5.58325C20.1743 5.58189 20.1633 5.5796 20.1516 5.57581C20.1275 5.56806 20.1013 5.55428 20.078 5.5318C20.0288 5.48424 20.023 5.42924 20.023 5.40818H20.423ZM23.6239 6.97119C22.3512 6.61657 21.5484 6.24777 21.0612 5.94317C20.8176 5.79086 20.6558 5.65644 20.554 5.55045C20.5031 5.49747 20.4687 5.45321 20.4467 5.41902C20.4358 5.40201 20.4285 5.38837 20.4238 5.3782C20.4215 5.37316 20.4199 5.36927 20.4189 5.36649C20.4179 5.36369 20.4176 5.36234 20.4176 5.36238L20.0283 5.45397C20.0554 5.56947 20.1408 5.69773 20.2655 5.82755C20.3953 5.96268 20.5847 6.11702 20.8491 6.28234C21.3781 6.61302 22.2191 6.995 23.5166 7.35651L23.6239 6.97119ZM32.3808 8.00339C29.0939 8.00339 25.981 7.63496 23.6244 6.97134L23.516 7.35636C25.9174 8.0326 29.0687 8.40339 32.3808 8.40339V8.00339ZM41.5181 6.90248C39.1145 7.60032 35.787 8.00339 32.3808 8.00339V8.40339C35.8125 8.40339 39.1796 7.99793 41.6296 7.28662L41.5181 6.90248ZM44.5537 5.38508C44.5537 5.35532 44.5634 5.34997 44.5478 5.37855C44.5354 5.40134 44.5118 5.43668 44.4711 5.48319C44.39 5.57594 44.2503 5.70298 44.0258 5.85242C43.577 6.15115 42.8023 6.5308 41.5182 6.90243L41.6294 7.28666C42.9395 6.90751 43.7548 6.51329 44.2474 6.1854C44.4936 6.02153 44.6624 5.87209 44.7723 5.74645C44.827 5.68378 44.8694 5.62445 44.8992 5.56978C44.9258 5.52089 44.9537 5.45526 44.9537 5.38508H44.5537ZM41.5294 3.87904C42.8137 4.25647 43.5858 4.6362 44.032 4.93232C44.2552 5.08045 44.3936 5.20555 44.4737 5.29613C44.5139 5.34157 44.5372 5.37578 44.5492 5.39746C44.5649 5.42567 44.5537 5.41794 44.5537 5.38508H44.9537C44.9537 5.31468 44.9246 5.24956 44.8988 5.20309C44.8694 5.1501 44.8275 5.09236 44.7734 5.03114C44.6648 4.90839 44.4977 4.76134 44.2532 4.59904C43.7639 4.27432 42.952 3.88017 41.6422 3.49527L41.5294 3.87904ZM32.3808 2.76676C35.7872 2.76676 39.1262 3.16987 41.5292 3.87898L41.6424 3.49534C39.1918 2.77219 35.8123 2.36676 32.3808 2.36676V2.76676ZM23.1992 32.9675C18.4139 37.1707 10.9934 36.8402 6.64476 32.2184L6.35344 32.4925C10.8512 37.2727 18.5173 37.6122 23.4631 33.268L23.1992 32.9675ZM27.0283 24.6058C27.0401 27.7917 25.6438 30.8212 23.1992 32.9675L23.4631 33.2681C25.9916 31.0482 27.4405 27.9098 27.4283 24.6043L27.0283 24.6058ZM26.7933 22.3234C26.9462 23.0733 27.0283 23.8454 27.0283 24.6051H27.4283C27.4283 23.817 27.3431 23.0182 27.1852 22.2435L26.7933 22.3234ZM18.7786 13.8005C22.8597 15.0278 25.925 18.2989 26.7937 22.3256L27.1847 22.2412C26.2842 18.0671 23.1092 14.6851 18.8938 13.4175L18.7786 13.8005ZM15.3096 13.3008C16.4857 13.3008 17.6503 13.4712 18.7802 13.801L18.8923 13.417C17.7269 13.0769 16.5245 12.9008 15.3096 12.9008V13.3008ZM7.42038 16.2424C9.57048 14.3466 12.3922 13.3008 15.3096 13.3008V12.9008C12.2976 12.9008 9.3811 13.9803 7.15583 15.9424L7.42038 16.2424ZM6.64476 32.2184C2.29927 27.5999 2.6394 20.4418 7.42009 16.2426L7.15612 15.9421C2.20578 20.2903 1.85256 27.7089 6.35344 32.4925L6.64476 32.2184ZM26.5202 33.5011C27.5021 32.3416 28.2905 31.0411 28.8486 29.6461L28.4772 29.4975C27.9355 30.8515 27.1698 32.1151 26.215 33.2426L26.5202 33.5011ZM31.9051 33.6455C30.062 33.6225 28.2187 33.4616 26.3988 33.1743L26.3364 33.5694C28.1746 33.8596 30.0372 34.0222 31.9001 34.0454L31.9051 33.6455ZM31.6309 29.9335L31.7026 33.8491L32.1025 33.8418L32.0308 29.9262L31.6309 29.9335ZM31.6308 29.7219V29.9298H32.0308V29.7219H31.6308ZM28.647 29.7711C29.6665 29.8523 30.7233 29.9103 31.8287 29.9219L31.8329 29.5219C30.7388 29.5104 29.6915 29.453 28.6787 29.3724L28.647 29.7711ZM29.5462 23.4301C30.2442 23.4766 30.9771 23.4998 31.7201 23.5114L31.7264 23.1114C30.9871 23.0999 30.2615 23.0769 29.5728 23.031L29.5462 23.4301ZM29.8192 24.5935C29.8192 24.1361 29.795 23.6801 29.7589 23.2151L29.3601 23.246C29.3957 23.7051 29.4192 24.15 29.4192 24.5935H29.8192ZM29.5403 27.3359C29.7221 26.4342 29.8192 25.5084 29.8192 24.5935H29.4192C29.4192 25.4805 29.3251 26.3797 29.1482 27.2568L29.5403 27.3359ZM31.7977 27.2003C30.9646 27.1888 30.1437 27.1543 29.3589 27.0969L29.3297 27.4958C30.1229 27.5539 30.9518 27.5887 31.7922 27.6003L31.7977 27.2003ZM31.5233 23.3149L31.595 27.4038L31.9949 27.3968L31.9232 23.3079L31.5233 23.3149ZM32.5003 20.8129H32.3808V21.2129H32.5003V20.8129ZM44.8559 17.5557C42.2814 17.6253 39.6667 17.921 37.4455 18.4623C35.2335 19.0013 33.3768 19.7919 32.3548 20.8757L32.6458 21.1501C33.5844 20.1547 35.3439 19.3861 37.5402 18.8509C39.7272 18.3179 42.3127 18.0246 44.8667 17.9556L44.8559 17.5557ZM44.6613 14.7294V17.7556H45.0613V14.7294H44.6613ZM42.3337 15.9152C43.2424 15.6576 44.1143 15.3183 44.9493 14.909L44.7733 14.5498C43.9586 14.9491 43.1091 15.2796 42.2246 15.5303L42.3337 15.9152ZM32.3688 17.1356C36.0758 17.1356 39.6223 16.7069 42.3352 15.9147L42.2231 15.5308C39.5564 16.3094 36.0497 16.7355 32.3688 16.7355V17.1356ZM26.9291 16.7991C28.7299 17.0195 30.5432 17.1356 32.3688 17.1356V16.7355C30.5602 16.7355 28.7632 16.6206 26.9777 16.4021L26.9291 16.7991ZM29.2852 20.841C28.8244 19.2712 28.0966 17.7941 27.1135 16.4807L26.7933 16.7204C27.7468 17.9943 28.4536 19.428 28.9013 20.9537L29.2852 20.841ZM32.3808 20.8129C31.2384 20.8129 30.1312 20.7669 29.1067 20.6978L29.0798 21.0969C30.1115 21.1665 31.2278 21.2129 32.3808 21.2129V20.8129ZM34.2783 22.8494C34.2783 22.8439 34.2787 22.8564 34.2757 22.8711C34.2726 22.8857 34.2682 22.8944 34.2679 22.8951L33.9126 22.7113C33.9003 22.735 33.8899 22.7611 33.8839 22.7901C33.8779 22.8193 33.8783 22.8433 33.8783 22.8494H34.2783ZM34.2798 22.8037L34.2559 22.7575L33.9007 22.9413L33.9246 22.9875L34.2798 22.8037ZM37.5032 24.4586C36.2309 24.1041 35.4312 23.7326 34.9455 23.4266C34.7027 23.2737 34.5407 23.1386 34.4376 23.0323C34.3302 22.9216 34.2985 22.8541 34.294 22.8389L33.9104 22.9523C33.9418 23.0583 34.0251 23.1815 34.1505 23.3108C34.2802 23.4445 34.4686 23.599 34.7323 23.7651C35.2597 24.0973 36.0978 24.4823 37.3958 24.8439L37.5032 24.4586ZM46.26 25.4793C42.9733 25.4793 39.86 25.1108 37.5028 24.4585L37.3961 24.844C39.797 25.5084 42.9478 25.8793 46.26 25.8793V25.4793ZM55.2902 24.4013C52.8626 25.0992 49.6546 25.4793 46.26 25.4793V25.8793C49.6796 25.8793 52.927 25.4969 55.4008 24.7857L55.2902 24.4013ZM58.4096 22.8472C58.4111 22.8252 58.417 22.8258 58.4004 22.855C58.3863 22.8798 58.3607 22.9167 58.3182 22.9643C58.2333 23.0593 58.089 23.188 57.8584 23.339C57.3975 23.641 56.6046 24.0237 55.2903 24.4013L55.4007 24.7857C56.7403 24.401 57.5732 24.004 58.0776 23.6736C58.3298 23.5084 58.5029 23.3578 58.6164 23.2308C58.6731 23.1674 58.7169 23.1076 58.7481 23.0527C58.7769 23.0022 58.8041 22.94 58.8086 22.8747L58.4096 22.8472ZM58.4091 22.8494V22.8609H58.8091V22.8494H58.4091ZM55.3973 21.3666C56.6581 21.7327 57.4246 22.1011 57.8726 22.392C58.0966 22.5375 58.2377 22.6614 58.3209 22.753C58.3626 22.7989 58.3876 22.8344 58.4013 22.8581C58.4175 22.886 58.4111 22.8858 58.4096 22.8632L58.8086 22.8356C58.8041 22.7697 58.7764 22.7077 58.7477 22.6579C58.7164 22.6039 58.6729 22.5456 58.6171 22.4841C58.5052 22.361 58.3355 22.2156 58.0904 22.0565C57.5999 21.738 56.7944 21.3557 55.5088 20.9825L55.3973 21.3666ZM46.2481 20.2773C49.6555 20.2773 52.9823 20.6575 55.3967 21.3665L55.5094 20.9827C53.0464 20.2594 49.6786 19.8773 46.2481 19.8773V20.2773ZM46.0448 20.2773H46.2481V19.8773H46.0448V20.2773ZM37.5741 21.252C39.8714 20.6227 42.8772 20.2773 46.0448 20.2773V19.8773C42.8526 19.8773 39.8094 20.2249 37.4684 20.8662L37.5741 21.252ZM34.2793 22.8684C34.2908 22.835 34.3372 22.7555 34.461 22.6388C34.5808 22.5258 34.7613 22.389 35.0192 22.238C35.5348 21.936 36.348 21.5839 37.5735 21.2521L37.469 20.866C36.2198 21.2042 35.3714 21.5682 34.817 21.8928C34.5399 22.0551 34.3334 22.2093 34.1865 22.3478C34.0435 22.4827 33.9435 22.6154 33.9012 22.738L34.2793 22.8684ZM55.491 37.1768C53.1003 37.8973 49.8812 38.3003 46.4513 38.3003V38.7003C49.9072 38.7003 53.1675 38.2948 55.6064 37.5598L55.491 37.1768ZM58.421 35.6473C58.421 35.6204 58.4292 35.6167 58.4147 35.6448C58.4029 35.6677 58.3805 35.703 58.3419 35.7493C58.2651 35.8418 58.132 35.9687 57.9166 36.1184C57.486 36.4177 56.7387 36.7997 55.4909 37.1769L55.6066 37.5598C56.8811 37.1746 57.67 36.777 58.1449 36.4468C58.3824 36.2818 58.5444 36.1315 58.6495 36.0051C58.7019 35.9421 58.7422 35.8826 58.7703 35.828C58.7957 35.7786 58.821 35.7147 58.821 35.6473H58.421ZM58.6091 35.8473H58.621V35.4473H58.6091V35.8473ZM58.4091 32.1822V35.6473H58.8091V32.1822H58.4091ZM56.1545 33.356C57.0396 33.0983 57.8871 32.7589 58.6971 32.3618L58.521 32.0026C57.7291 32.3909 56.9031 32.7214 56.0427 32.9719L56.1545 33.356ZM46.2241 34.5768C49.9312 34.5768 53.4539 34.1481 56.1549 33.3559L56.0423 32.972C53.3877 33.7507 49.905 34.1768 46.2241 34.1768V34.5768ZM37.1972 33.5773C39.727 34.2175 42.9358 34.5768 46.2241 34.5768V34.1768C42.9614 34.1768 39.7865 33.8199 37.2953 33.1895L37.1972 33.5773ZM34.1843 32.5133C35.1533 32.9697 36.1581 33.3205 37.1983 33.5776L37.2943 33.1893C36.2783 32.9381 35.2986 32.5959 34.3548 32.1514L34.1843 32.5133ZM34.5293 35.6784L34.4695 32.3288L34.0696 32.3359L34.1294 35.6855L34.5293 35.6784ZM34.5293 35.7051V35.682H34.1293V35.7051H34.5293ZM37.4348 37.2113C36.1865 36.8397 35.4455 36.4662 35.0214 36.173C34.8093 36.0263 34.6799 35.9021 34.6059 35.8114C34.5688 35.766 34.5475 35.7313 34.5363 35.7086C34.5232 35.6821 34.5293 35.683 34.5293 35.7051H34.1293C34.1293 35.7705 34.1519 35.8335 34.1775 35.8853C34.2049 35.9411 34.2444 36.0012 34.296 36.0644C34.3994 36.191 34.5592 36.3396 34.7939 36.502C35.2634 36.8266 36.0467 37.2155 37.3207 37.5947L37.4348 37.2113ZM46.4513 38.3003C43.0089 38.3003 39.8014 37.9087 37.4343 37.2111L37.3212 37.5948C39.7359 38.3064 42.9839 38.7003 46.4513 38.7003V38.3003ZM58.633 28.6672H58.621V29.0672H58.633V28.6672ZM58.433 25.7948V28.8672H58.833V25.7948H58.433ZM56.0665 26.9813C56.9887 26.7352 57.8738 26.3953 58.722 25.9739L58.544 25.6157C57.7185 26.0258 56.8583 26.3559 55.9634 26.5949L56.0665 26.9813ZM46.2481 28.1663C49.8953 28.1663 53.3815 27.7492 56.0699 26.9804L55.96 26.5958C53.3166 27.3517 49.8692 27.7663 46.2481 27.7663V28.1663ZM36.7141 27.0384C39.3305 27.7724 42.7088 28.1663 46.2481 28.1663V27.7663C42.7341 27.7663 39.394 27.3747 36.8221 26.6533L36.7141 27.0384ZM34.075 26.0557C34.9232 26.4655 35.8076 26.7932 36.7159 27.0389L36.8203 26.6528C35.9354 26.4134 35.0744 26.0943 34.249 25.6955L34.075 26.0557ZM34.4098 28.5286L34.3619 25.872L33.962 25.8792L34.0098 28.5358L34.4098 28.5286ZM34.4217 29.5L34.4098 28.5298L34.0098 28.5347L34.0218 29.5049L34.4217 29.5ZM46.2361 31.8667C42.9385 31.8667 40.1841 31.5071 38.1423 31.0104C37.1212 30.7619 36.2816 30.48 35.6429 30.1933C34.9981 29.9039 34.5788 29.6188 34.3755 29.3745L34.068 29.6304C34.331 29.9464 34.8187 30.2618 35.4791 30.5583C36.1457 30.8574 37.0097 31.1465 38.0478 31.399C40.1244 31.9043 42.9109 32.2667 46.2361 32.2667V31.8667ZM55.3492 30.7659C52.9219 31.4751 49.6784 31.8667 46.2361 31.8667V32.2667C49.7036 32.2667 52.9872 31.8728 55.4614 31.1498L55.3492 30.7659ZM58.3493 29.2484C58.3493 29.2202 58.3582 29.2155 58.3435 29.2432C58.3316 29.2655 58.3089 29.3003 58.2695 29.3462C58.1909 29.4376 58.0546 29.5634 57.8339 29.7119C57.3926 30.009 56.627 30.3886 55.3486 30.766L55.4619 31.1496C56.7657 30.7647 57.5721 30.3704 58.0573 30.0438C58.2998 29.8805 58.4654 29.7319 58.5729 29.6068C58.6265 29.5444 58.6678 29.4853 58.6968 29.4307C58.7229 29.3815 58.7493 29.317 58.7493 29.2484H58.3493ZM58.3937 28.9956C58.377 29.056 58.3493 29.1512 58.3493 29.2484H58.7493C58.7493 29.2154 58.7592 29.1745 58.7792 29.102L58.3937 28.9956ZM58.421 28.8672C58.421 28.8911 58.4132 28.925 58.3937 28.9956L58.7792 29.102C58.7947 29.0459 58.821 28.9561 58.821 28.8672H58.421ZM19.8484 26.1774C19.2723 24.2051 17.4096 22.8571 15.3049 22.8571V23.2571C17.2409 23.2571 18.9407 24.4964 19.4644 26.2895L19.8484 26.1774ZM16.5891 31.8088C19.0936 31.1226 20.563 28.6122 19.8483 26.1771L19.4645 26.2898C20.1126 28.4979 18.7847 30.7925 16.4834 31.423L16.5891 31.8088ZM16.7363 32.6323V31.6159H16.3363V32.6323H16.7363ZM15.3408 33.9874C16.1022 33.9874 16.7363 33.3845 16.7363 32.6323H16.3363C16.3363 33.1507 15.8944 33.5874 15.3408 33.5874V33.9874ZM13.9453 32.6323C13.9453 33.3845 14.5794 33.9874 15.3408 33.9874V33.5874C14.7872 33.5874 14.3453 33.1507 14.3453 32.6323H13.9453ZM13.9453 31.6274V32.6323H14.3453V31.6274H13.9453ZM10.5981 27.4128C10.6106 29.482 12.0381 31.279 14.0944 31.8208L14.1963 31.434C12.3076 30.9364 11.0094 29.2914 10.9981 27.4104L10.5981 27.4128ZM11.9935 26.0565C11.2321 26.0565 10.5981 26.6594 10.5981 27.4116H10.9981C10.9981 26.8932 11.4399 26.4565 11.9935 26.4565V26.0565ZM13.389 27.4116C13.389 26.6594 12.7549 26.0565 11.9935 26.0565V26.4565C12.5471 26.4565 12.989 26.8932 12.989 27.4116H13.389ZM15.3169 29.256C14.2478 29.256 13.389 28.4252 13.389 27.4116H12.989C12.989 28.6618 14.0429 29.656 15.3169 29.656V29.256ZM17.2329 27.4C17.2329 28.4165 16.383 29.256 15.3169 29.256V29.656C16.5939 29.656 17.6329 28.6474 17.6329 27.4H17.2329ZM15.3049 25.5556C16.3741 25.5556 17.2329 26.3864 17.2329 27.4H17.6329C17.6329 26.1498 16.5789 25.1556 15.3049 25.1556V25.5556ZM10.7607 22.1747C11.3116 24.1708 13.1745 25.5556 15.3049 25.5556V25.1556C13.3469 25.1556 11.6473 23.8838 11.1463 22.0683L10.7607 22.1747ZM14.0951 16.5917C11.5902 17.2419 10.0836 19.7397 10.7608 22.1751L11.1462 22.0679C10.5323 19.8601 11.8948 17.5761 14.1956 16.9788L14.0951 16.5917ZM13.9453 16.2886V16.7852H14.3453V16.2886H13.9453ZM15.3408 14.9335C14.5794 14.9335 13.9453 15.5364 13.9453 16.2886H14.3453C14.3453 15.7702 14.7872 15.3335 15.3408 15.3335V14.9335ZM16.7363 16.2886C16.7363 15.5364 16.1022 14.9335 15.3408 14.9335V15.3335C15.8944 15.3335 16.3363 15.7702 16.3363 16.2886H16.7363ZM16.7363 16.8083V16.2886H16.3363V16.8083H16.7363ZM20.0238 21.0127C20.0238 18.9669 18.621 17.1695 16.5889 16.6154L16.4837 17.0013C18.3487 17.5098 19.6238 19.1544 19.6238 21.0127H20.0238ZM18.6283 22.3677C19.3897 22.3677 20.0238 21.7648 20.0238 21.0127H19.6238C19.6238 21.5311 19.1819 21.9677 18.6283 21.9677V22.3677ZM17.2329 21.0127C17.2329 21.7648 17.8669 22.3677 18.6283 22.3677V21.9677C18.0747 21.9677 17.6329 21.5311 17.6329 21.0127H17.2329ZM15.3049 19.1567C16.3726 19.1567 17.2329 19.9976 17.2329 21.0127H17.6329C17.6329 19.7639 16.5804 18.7567 15.3049 18.7567V19.1567ZM13.377 21.0148C13.3878 19.9854 14.2385 19.1567 15.3049 19.1567V18.7567C14.0283 18.7567 12.9902 19.753 12.977 21.0106L13.377 21.0148ZM15.3049 22.8571C14.2358 22.8571 13.377 22.0263 13.377 21.0127H12.977C12.977 22.2629 14.031 23.2571 15.3049 23.2571V22.8571Z" fill="#27A577" mask="url(#path-1-outside-1)"/>
</svg>
