<svg width="102" height="40" viewBox="0 0 102 40" fill="none" xmlns="http://www.w3.org/2000/svg">
<g opacity="0.8">
<path d="M3.61425 14.0525H0.887712V0.229117H3.65653V5.68974C3.91016 5.33333 4.31174 5.03421 4.86128 4.79236C5.42491 4.53779 6.07308 4.4105 6.80579 4.4105C8.28531 4.4105 9.45483 4.86874 10.3144 5.7852C11.1739 6.70167 11.6037 7.87908 11.6037 9.31742C11.6037 10.7558 11.1528 11.9459 10.251 12.8878C9.34915 13.817 8.16554 14.2816 6.70011 14.2816C5.27695 14.2816 4.24833 13.8234 3.61425 12.9069V14.0525ZM8.05281 11.3031C8.54599 10.8194 8.79257 10.1639 8.79257 9.33652C8.79257 8.50915 8.54599 7.85999 8.05281 7.38902C7.57373 6.91806 6.96079 6.68258 6.21398 6.68258C5.46718 6.68258 4.84719 6.91806 4.35401 7.38902C3.86084 7.85999 3.61425 8.50915 3.61425 9.33652C3.61425 10.1639 3.86084 10.8194 4.35401 11.3031C4.86128 11.7741 5.48127 12.0095 6.21398 12.0095C6.96079 12.0095 7.57373 11.7741 8.05281 11.3031Z" fill="black"/>
<path d="M20.5939 14.0525C20.5375 13.7979 20.5093 13.4606 20.5093 13.0406C20.2416 13.4606 19.84 13.7788 19.3046 13.9952C18.7832 14.1989 18.2267 14.3007 17.6348 14.3007C16.409 14.3007 15.4438 13.9507 14.7392 13.2506C14.0347 12.5378 13.6824 11.6531 13.6824 10.5967V4.65871H16.4935V10.0811C16.4935 10.6412 16.6555 11.0994 16.9796 11.4558C17.3037 11.7995 17.7758 11.9714 18.3957 11.9714C19.0016 11.9714 19.4807 11.8059 19.833 11.4749C20.1853 11.1313 20.3614 10.6794 20.3614 10.1193V4.65871H23.1725V12.3532C23.1725 12.9515 23.2077 13.5179 23.2782 14.0525H20.5939Z" fill="black"/>
<path d="M28.9836 14.0525H26.1725V4.65871H28.9836V14.0525ZM25.8343 1.58473C25.8343 1.15195 26.0034 0.782817 26.3416 0.477328C26.6797 0.159109 27.0884 0 27.5674 0C28.0465 0 28.4552 0.152745 28.7933 0.458235C29.1315 0.763724 29.3006 1.13922 29.3006 1.58473C29.3006 2.00477 29.1315 2.36754 28.7933 2.67303C28.4552 2.97852 28.0465 3.13127 27.5674 3.13127C27.0884 3.13127 26.6797 2.97852 26.3416 2.67303C26.0034 2.36754 25.8343 2.00477 25.8343 1.58473Z" fill="black"/>
<path d="M34.8042 14.0525H31.9931V0.229117H34.8042V14.0525Z" fill="black"/>
<path d="M41.2801 1.85203V4.65871H43.3725V6.9117H41.2801V10.8449C41.2801 11.2395 41.3787 11.5195 41.576 11.685C41.7733 11.8504 42.0833 11.9332 42.506 11.9332C42.8864 11.9332 43.1753 11.9077 43.3725 11.8568V13.957C42.9639 14.1098 42.4355 14.1862 41.7873 14.1862C40.7728 14.1862 39.9697 13.9316 39.3778 13.4224C38.786 12.9006 38.4901 12.1877 38.4901 11.284V6.9117H36.609V4.65871H37.1374C37.6588 4.65871 38.0533 4.52506 38.321 4.25776C38.6029 3.97773 38.7438 3.61496 38.7438 3.16945V1.85203H41.2801Z" fill="black"/>
<path d="M53.7105 11.3222C54.2319 11.7932 54.8589 12.0286 55.5916 12.0286C56.3243 12.0286 56.9443 11.7932 57.4516 11.3222C57.9729 10.8512 58.2336 10.1957 58.2336 9.35561C58.2336 8.51551 57.9729 7.85999 57.4516 7.38902C56.9443 6.91806 56.3243 6.68258 55.5916 6.68258C54.8589 6.68258 54.2319 6.91806 53.7105 7.38902C53.2033 7.85999 52.9496 8.51551 52.9496 9.35561C52.9496 10.1957 53.2033 10.8512 53.7105 11.3222ZM51.6815 5.7852C52.7242 4.84328 54.0276 4.37232 55.5916 4.37232C57.1557 4.37232 58.452 4.84328 59.4807 5.7852C60.5234 6.72713 61.0447 7.91726 61.0447 9.35561C61.0447 10.794 60.5234 11.9841 59.4807 12.926C58.452 13.8679 57.1557 14.3389 55.5916 14.3389C54.0276 14.3389 52.7242 13.8679 51.6815 12.926C50.6529 11.9841 50.1385 10.794 50.1385 9.35561C50.1385 7.91726 50.6529 6.72713 51.6815 5.7852Z" fill="black"/>
<path d="M66.0747 8.64917V14.0525H63.2637V4.65871H65.9902V5.82339C66.2861 5.36516 66.7088 5.01512 67.2584 4.77327C67.8079 4.53142 68.3856 4.4105 68.9915 4.4105C70.2174 4.4105 71.1474 4.76054 71.7815 5.46062C72.4296 6.14797 72.7537 7.03898 72.7537 8.13365V14.0525H69.9426V8.57279C69.9426 8.01273 69.7806 7.56086 69.4565 7.21718C69.1465 6.87351 68.6674 6.70167 68.0193 6.70167C67.4275 6.70167 66.9554 6.88624 66.6031 7.25537C66.2509 7.6245 66.0747 8.0891 66.0747 8.64917Z" fill="black"/>
<path d="M0 35.3031L2.4095 34.8258C2.43768 35.2331 2.61382 35.5768 2.9379 35.8568C3.27608 36.1241 3.73403 36.2578 4.31174 36.2578C4.74855 36.2578 5.08673 36.1687 5.32627 35.9905C5.56581 35.8122 5.68558 35.5895 5.68558 35.3222C5.68558 34.8512 5.31218 34.5457 4.56537 34.4057L3.19154 34.1193C2.21928 33.9284 1.48657 33.5847 0.993392 33.0883C0.514309 32.5919 0.274768 32 0.274768 31.3127C0.274768 30.4598 0.641125 29.7343 1.37384 29.136C2.12064 28.5378 3.05063 28.2387 4.16379 28.2387C4.86832 28.2387 5.48831 28.3341 6.02376 28.5251C6.5592 28.7033 6.97488 28.9387 7.27078 29.2315C7.56669 29.5115 7.79214 29.7979 7.94713 30.0907C8.10213 30.3835 8.20077 30.6698 8.24304 30.9499L5.89694 31.4272C5.84058 31.0963 5.67149 30.8035 5.38968 30.5489C5.12196 30.2944 4.72037 30.1671 4.18493 30.1671C3.81857 30.1671 3.50153 30.2562 3.23381 30.4344C2.98018 30.6126 2.85336 30.8353 2.85336 31.1026C2.85336 31.5609 3.1704 31.8409 3.80448 31.9427L5.284 32.2291C6.28444 32.42 7.04533 32.7701 7.56669 33.2792C8.10213 33.7884 8.36985 34.3994 8.36985 35.1122C8.36985 35.9523 8.01759 36.6778 7.31305 37.2888C6.60852 37.8998 5.61513 38.2053 4.33288 38.2053C3.60016 38.2053 2.94495 38.1098 2.36723 37.9189C1.78951 37.7152 1.33861 37.4606 1.01453 37.1551C0.704533 36.8369 0.464992 36.5251 0.295904 36.2196C0.140907 35.9014 0.042272 35.5959 0 35.3031Z" fill="black"/>
<path d="M17.3533 37.9189C17.2969 37.6643 17.2688 37.327 17.2688 36.9069C17.001 37.327 16.5995 37.6452 16.064 37.8616C15.5427 38.0652 14.9861 38.1671 14.3943 38.1671C13.1684 38.1671 12.2032 37.817 11.4986 37.1169C10.7941 36.4041 10.4418 35.5195 10.4418 34.463V28.5251H13.2529V33.9475C13.2529 34.5076 13.415 34.9658 13.7391 35.3222C14.0631 35.6659 14.5352 35.8377 15.1552 35.8377C15.7611 35.8377 16.2402 35.6722 16.5924 35.3413C16.9447 34.9976 17.1208 34.5457 17.1208 33.9857V28.5251H19.9319V36.2196C19.9319 36.8178 19.9671 37.3842 20.0376 37.9189H17.3533Z" fill="black"/>
<path d="M25.6584 37.9189H22.9319V24.0955H25.7007V29.5561C25.9543 29.1997 26.3559 28.9006 26.9055 28.6587C27.4691 28.4041 28.1173 28.2768 28.85 28.2768C30.3295 28.2768 31.499 28.7351 32.3585 29.6516C33.2181 30.568 33.6478 31.7454 33.6478 33.1838C33.6478 34.6221 33.1969 35.8123 32.2951 36.7542C31.3933 37.6834 30.2097 38.148 28.7443 38.148C27.3211 38.148 26.2925 37.6897 25.6584 36.7733V37.9189ZM30.097 35.1695C30.5902 34.6858 30.8368 34.0302 30.8368 33.2029C30.8368 32.3755 30.5902 31.7263 30.097 31.2554C29.6179 30.7844 29.005 30.5489 28.2582 30.5489C27.5114 30.5489 26.8914 30.7844 26.3982 31.2554C25.905 31.7263 25.6584 32.3755 25.6584 33.2029C25.6584 34.0302 25.905 34.6858 26.3982 35.1695C26.9055 35.6404 27.5254 35.8759 28.2582 35.8759C29.005 35.8759 29.6179 35.6404 30.097 35.1695Z" fill="black"/>
<path d="M34.9858 35.3031L37.3954 34.8258C37.4235 35.2331 37.5997 35.5768 37.9238 35.8568C38.2619 36.1241 38.7199 36.2578 39.2976 36.2578C39.7344 36.2578 40.0726 36.1687 40.3121 35.9905C40.5517 35.8122 40.6714 35.5895 40.6714 35.3222C40.6714 34.8512 40.298 34.5457 39.5512 34.4057L38.1774 34.1193C37.2051 33.9284 36.4724 33.5847 35.9792 33.0883C35.5002 32.5919 35.2606 32 35.2606 31.3127C35.2606 30.4598 35.627 29.7343 36.3597 29.136C37.1065 28.5378 38.0365 28.2387 39.1496 28.2387C39.8542 28.2387 40.4742 28.3341 41.0096 28.5251C41.5451 28.7033 41.9607 28.9387 42.2566 29.2315C42.5525 29.5115 42.778 29.7979 42.933 30.0907C43.088 30.3835 43.1866 30.6698 43.2289 30.9499L40.8828 31.4272C40.8264 31.0963 40.6573 30.8035 40.3755 30.5489C40.1078 30.2944 39.7062 30.1671 39.1708 30.1671C38.8044 30.1671 38.4874 30.2562 38.2197 30.4344C37.966 30.6126 37.8392 30.8353 37.8392 31.1026C37.8392 31.5609 38.1562 31.8409 38.7903 31.9427L40.2698 32.2291C41.2703 32.42 42.0312 32.7701 42.5525 33.2792C43.088 33.7884 43.3557 34.3994 43.3557 35.1122C43.3557 35.9523 43.0034 36.6778 42.2989 37.2888C41.5944 37.8998 40.601 38.2053 39.3187 38.2053C38.586 38.2053 37.9308 38.1098 37.3531 37.9189C36.7754 37.7152 36.3245 37.4606 36.0004 37.1551C35.6904 36.8369 35.4508 36.5251 35.2818 36.2196C35.1268 35.9014 35.0281 35.5959 34.9858 35.3031Z" fill="black"/>
<path d="M49.0822 25.7184V28.5251H51.1747V30.778H49.0822V34.7112C49.0822 35.1058 49.1809 35.3858 49.3781 35.5513C49.5754 35.7168 49.8854 35.7995 50.3081 35.7995C50.6886 35.7995 50.9774 35.7741 51.1747 35.7232V37.8234C50.7661 37.9761 50.2377 38.0525 49.5895 38.0525C48.575 38.0525 47.7718 37.7979 47.18 37.2888C46.5882 36.7669 46.2923 36.0541 46.2923 35.1504V30.778H44.4112V28.5251H44.9396C45.4609 28.5251 45.8555 28.3914 46.1232 28.1241C46.405 27.8441 46.5459 27.4813 46.5459 27.0358V25.7184H49.0822Z" fill="black"/>
<path d="M59.7589 28.4869V31.0453C59.4771 30.9944 59.1953 30.969 58.9134 30.969C58.1103 30.969 57.4621 31.179 56.9689 31.599C56.4758 32.0064 56.2292 32.681 56.2292 33.6229V37.9189H53.4181V28.5251H56.1446V29.9189C56.6519 28.9387 57.6382 28.4487 59.1037 28.4487C59.2587 28.4487 59.4771 28.4614 59.7589 28.4869Z" fill="black"/>
<path d="M61.1641 35.3604C61.1641 34.5585 61.453 33.9157 62.0307 33.432C62.6084 32.9483 63.3552 32.6428 64.2711 32.5155L66.8285 32.1718C67.3499 32.1082 67.6106 31.8854 67.6106 31.5036C67.6106 31.1472 67.4556 30.8544 67.1456 30.6253C66.8497 30.3962 66.4199 30.2816 65.8563 30.2816C65.2645 30.2816 64.7924 30.428 64.4402 30.7208C64.102 31.0135 63.9118 31.3763 63.8695 31.8091L61.3755 31.3317C61.4741 30.5171 61.9179 29.7979 62.707 29.1742C63.4961 28.5505 64.5388 28.2387 65.8352 28.2387C67.3851 28.2387 68.5265 28.576 69.2592 29.2506C69.9919 29.9125 70.3583 30.7653 70.3583 31.8091V36.4296C70.3583 36.9897 70.4005 37.4861 70.4851 37.9189H67.9065C67.836 37.6388 67.8008 37.2633 67.8008 36.7924C67.1385 37.7216 66.117 38.1862 64.7361 38.1862C63.6652 38.1862 62.7986 37.9061 62.1364 37.3461C61.4882 36.786 61.1641 36.1241 61.1641 35.3604ZM65.3279 36.2959C65.9902 36.2959 66.5326 36.1305 66.9554 35.7995C67.3922 35.4558 67.6106 34.8958 67.6106 34.1193V33.6993L65.2645 34.0239C64.405 34.1384 63.9752 34.533 63.9752 35.2076C63.9752 35.5131 64.095 35.7741 64.3345 35.9905C64.574 36.1941 64.9052 36.2959 65.3279 36.2959Z" fill="black"/>
<path d="M76.5962 25.7184V28.5251H78.6886V30.778H76.5962V34.7112C76.5962 35.1058 76.6948 35.3858 76.8921 35.5513C77.0894 35.7168 77.3993 35.7995 77.8221 35.7995C78.2025 35.7995 78.4914 35.7741 78.6886 35.7232V37.8234C78.28 37.9761 77.7516 38.0525 77.1034 38.0525C76.0889 38.0525 75.2857 37.7979 74.6939 37.2888C74.1021 36.7669 73.8062 36.0541 73.8062 35.1504V30.778H71.9251V28.5251H72.4535C72.9749 28.5251 73.3694 28.3914 73.6371 28.1241C73.919 27.8441 74.0599 27.4813 74.0599 27.0358V25.7184H76.5962Z" fill="black"/>
<path d="M83.0235 32.1527H87.6734C87.6452 31.6309 87.4339 31.1917 87.0393 30.8353C86.6589 30.4789 86.0953 30.3007 85.3485 30.3007C84.6721 30.3007 84.1226 30.4916 83.6999 30.8735C83.2771 31.2554 83.0517 31.6818 83.0235 32.1527ZM87.9482 34.5967L90.2943 35.2267C90.0125 36.0923 89.4559 36.8051 88.6245 37.3652C87.8073 37.9252 86.7857 38.2053 85.5598 38.2053C84.0662 38.2053 82.7981 37.7534 81.7553 36.8496C80.7126 35.9332 80.1913 34.7112 80.1913 33.1838C80.1913 31.7327 80.6985 30.5489 81.7131 29.6325C82.7276 28.7033 83.9253 28.2387 85.3062 28.2387C86.9125 28.2387 88.1666 28.6714 89.0684 29.537C89.9843 30.4025 90.4422 31.5927 90.4422 33.1074C90.4422 33.2092 90.4352 33.3238 90.4211 33.4511C90.4211 33.5784 90.4211 33.6802 90.4211 33.7566L90.4 33.8902H82.9601C82.9883 34.5012 83.256 35.0103 83.7633 35.4177C84.2705 35.825 84.8764 36.0286 85.581 36.0286C86.7787 36.0286 87.5677 35.5513 87.9482 34.5967Z" fill="black"/>
<path d="M102 40H91.1995V37.9189H102V40Z" fill="black"/>
</g>
</svg>
