<svg width="91" height="22" viewBox="0 0 91 22" fill="none" xmlns="http://www.w3.org/2000/svg">
<path opacity="0.8" d="M13.3992 6.61901C13.1764 6.43334 12.9191 6.29339 12.6422 6.20716C12.3652 6.12093 12.074 6.09012 11.7852 6.11647C11.4963 6.14283 11.2155 6.22584 10.9587 6.36076C10.702 6.49568 10.4743 6.67988 10.2887 6.90281L5.83401 12.2458C5.50295 12.6428 5.32162 13.1432 5.32162 13.6601C5.32162 14.177 5.50295 14.6775 5.83401 15.0744L10.2887 20.4146C10.6637 20.8644 11.202 21.1469 11.7852 21.1999C12.3685 21.2528 12.9489 21.0719 13.3987 20.6969C13.8486 20.322 14.1311 19.7837 14.184 19.2004C14.237 18.6172 14.0561 18.0368 13.6811 17.587L10.4051 13.6601L13.6811 9.72947C13.8669 9.50675 14.007 9.24961 14.0934 8.97274C14.1797 8.69586 14.2107 8.40469 14.1845 8.11584C14.1584 7.82699 14.0755 7.54613 13.9408 7.2893C13.806 7.03247 13.622 6.8047 13.3992 6.61901ZM2.6318 6.10722C2.34176 6.10722 2.05457 6.16437 1.78663 6.27539C1.51868 6.38641 1.27523 6.54913 1.07019 6.75426C0.865152 6.95939 0.702534 7.2029 0.591628 7.4709C0.480723 7.73889 0.423704 8.02611 0.423828 8.31614V19.006C0.435788 19.5838 0.673716 20.1339 1.08658 20.5383C1.49944 20.9427 2.05435 21.1692 2.63227 21.1692C3.2102 21.1692 3.7651 20.9427 4.17796 20.5383C4.59083 20.1339 4.82875 19.5838 4.84071 19.006V8.31614C4.84084 8.02603 4.78379 7.73873 4.67282 7.47068C4.56186 7.20262 4.39916 6.95906 4.19401 6.75392C3.98887 6.54878 3.74531 6.38608 3.47726 6.27512C3.20921 6.16415 2.92191 6.1071 2.6318 6.10722ZM41.3801 10.5241C41.9579 10.5121 42.5079 10.2742 42.9124 9.86136C43.3168 9.4485 43.5433 8.89359 43.5433 8.31567C43.5433 7.73774 43.3168 7.18283 42.9124 6.76997C42.5079 6.35711 41.9579 6.11918 41.3801 6.10722H32.0269C31.4411 6.10722 30.8792 6.33995 30.465 6.7542C30.0507 7.16845 29.818 7.7303 29.818 8.31614V12.3244C29.8182 12.8044 29.9747 13.2713 30.2639 13.6544C30.553 14.0376 30.959 14.3162 31.4205 14.4481L39.1711 16.6627V16.7961H32.0269C31.7331 16.79 31.4409 16.8426 31.1677 16.9509C30.8944 17.0592 30.6455 17.2209 30.4355 17.4265C30.2255 17.6322 30.0587 17.8777 29.9448 18.1487C29.831 18.4197 29.7723 18.7106 29.7723 19.0045C29.7723 19.2985 29.831 19.5894 29.9448 19.8604C30.0587 20.1314 30.2255 20.3769 30.4355 20.5826C30.6455 20.7882 30.8944 20.9499 31.1677 21.0582C31.4409 21.1664 31.7331 21.2191 32.0269 21.213H41.3801C41.9656 21.213 42.5272 20.9804 42.9413 20.5663C43.3554 20.1522 43.588 19.5906 43.588 19.005V14.9968C43.5881 14.5167 43.4317 14.0497 43.1426 13.6664C42.8534 13.2832 42.4472 13.0047 41.9855 12.873L34.2349 10.6584V10.5241H41.3801ZM26.682 6.10722C26.392 6.10722 26.1048 6.16437 25.8368 6.27539C25.5689 6.38641 25.3254 6.54913 25.1204 6.75426C24.9154 6.95939 24.7527 7.2029 24.6418 7.4709C24.5309 7.73889 24.4739 8.02611 24.474 8.31614V16.7961H19.5378V8.31614C19.5439 8.02228 19.4913 7.73016 19.383 7.45689C19.2748 7.18363 19.1131 6.93471 18.9074 6.72474C18.7017 6.51476 18.4562 6.34794 18.1852 6.23406C17.9143 6.12017 17.6233 6.06151 17.3294 6.06151C17.0354 6.06151 16.7445 6.12017 16.4735 6.23406C16.2025 6.34794 15.957 6.51476 15.7513 6.72474C15.5457 6.93471 15.384 7.18363 15.2757 7.45689C15.1675 7.73016 15.1148 8.02228 15.1209 8.31614V19.006C15.1209 19.296 15.1781 19.5832 15.2891 19.8511C15.4001 20.1191 15.5628 20.3625 15.768 20.5676C15.9731 20.7726 16.2166 20.9352 16.4846 21.0461C16.7526 21.157 17.0398 21.2141 17.3298 21.2139H26.682C26.972 21.2141 27.2593 21.157 27.5273 21.0461C27.7952 20.9352 28.0388 20.7726 28.2439 20.5676C28.449 20.3625 28.6117 20.1191 28.7228 19.8511C28.8338 19.5832 28.8909 19.296 28.8909 19.006V8.31614C28.8911 8.02603 28.834 7.73873 28.723 7.47068C28.6121 7.20262 28.4494 6.95906 28.2442 6.75392C28.0391 6.54878 27.7955 6.38608 27.5275 6.27512C27.2594 6.16415 26.9721 6.1071 26.682 6.10722ZM52.4294 6.90187C52.2222 6.65313 51.9629 6.45301 51.6697 6.31568C51.3766 6.17835 51.0569 6.10719 50.7332 6.10722H46.724C46.434 6.10722 46.1468 6.16437 45.8788 6.27539C45.6109 6.38641 45.3675 6.54913 45.1624 6.75426C44.9574 6.95939 44.7948 7.2029 44.6838 7.4709C44.5729 7.73889 44.5159 8.02611 44.516 8.31614V19.006C44.516 19.5916 44.7487 20.1532 45.1627 20.5672C45.5768 20.9813 46.1384 21.2139 46.724 21.2139H52.2534C52.8312 21.202 53.3813 20.964 53.7857 20.5512C54.1901 20.1383 54.4166 19.5834 54.4166 19.0055C54.4166 18.4276 54.1901 17.8727 53.7857 17.4598C53.3813 17.0469 52.8312 16.809 52.2534 16.7971H48.9329V10.5251H49.6982L55.2049 17.1329V19.006C55.2169 19.5838 55.4548 20.1339 55.8677 20.5383C56.2805 20.9427 56.8354 21.1692 57.4134 21.1692C57.9913 21.1692 58.5462 20.9427 58.9591 20.5383C59.3719 20.1339 59.6099 19.5838 59.6218 19.006V16.3326C59.6214 15.8156 59.4396 15.3151 59.1081 14.9183L52.4294 6.90187ZM89.8466 14.9183L83.1659 6.90187C82.9588 6.65313 82.6994 6.45301 82.4063 6.31568C82.1132 6.17835 81.7934 6.10719 81.4697 6.10722H77.4606C77.1705 6.1071 76.8832 6.16415 76.6151 6.27512C76.3471 6.38608 76.1035 6.54878 75.8984 6.75392C75.6932 6.95906 75.5305 7.20262 75.4196 7.47068C75.3086 7.73873 75.2515 8.02603 75.2517 8.31614V19.006C75.2518 19.2959 75.309 19.583 75.4201 19.8508C75.5312 20.1187 75.6939 20.362 75.899 20.567C76.1041 20.7719 76.3476 20.9344 76.6155 21.0453C76.8835 21.1561 77.1706 21.2131 77.4606 21.213H82.989C83.5668 21.201 84.1169 20.9631 84.5213 20.5502C84.9257 20.1374 85.1522 19.5825 85.1522 19.0045C85.1522 18.4266 84.9257 17.8717 84.5213 17.4589C84.1169 17.046 83.5668 16.8081 82.989 16.7961H79.6685V10.5241H80.4339L85.9405 17.1319V19.005C85.9525 19.5828 86.1904 20.1329 86.6033 20.5373C87.0162 20.9417 87.5711 21.1682 88.149 21.1682C88.7269 21.1682 89.2818 20.9417 89.6947 20.5373C90.1075 20.1329 90.3455 19.5828 90.3574 19.005V16.3326C90.3578 15.8159 90.177 15.3155 89.8466 14.9183ZM73.039 6.30967C72.6554 6.13322 72.2293 6.07045 71.8111 6.1288C71.3929 6.18715 71.0003 6.36417 70.6796 6.63888L67.4396 9.41634L64.1938 6.63793C63.8731 6.3633 63.4803 6.18641 63.0621 6.12821C62.6439 6.07002 62.2177 6.13297 61.8342 6.30961C61.4507 6.48624 61.1258 6.76915 60.8982 7.12479C60.6705 7.48043 60.5496 7.89388 60.5498 8.31614V19.006C60.5618 19.5838 60.7997 20.1339 61.2126 20.5383C61.6255 20.9427 62.1804 21.1692 62.7583 21.1692C63.3362 21.1692 63.8911 20.9427 64.304 20.5383C64.7168 20.1339 64.9548 19.5838 64.9667 19.006V13.1133L66.0073 14.0016C66.4076 14.3445 66.9173 14.5329 67.4443 14.5329C67.9713 14.5329 68.481 14.3445 68.8813 14.0016L69.9115 13.118V19.005C69.9115 19.5909 70.1442 20.1527 70.5585 20.567C70.9727 20.9812 71.5346 21.2139 72.1204 21.2139C72.7062 21.2139 73.2681 20.9812 73.6823 20.567C74.0966 20.1527 74.3293 19.5909 74.3293 19.005V8.31519C74.3288 7.89246 74.2069 7.47875 73.9782 7.12324C73.7494 6.76773 73.4235 6.48536 73.039 6.30967ZM57.5605 5.10068V5.18393C57.5605 5.18393 60.5981 3.9825 61.1893 4.29279L60.8327 4.3978C60.8639 4.3978 61.4419 4.43564 61.4419 4.43564C61.4555 4.55499 61.4953 4.66985 61.5586 4.77193C61.6219 4.87401 61.7071 4.96077 61.808 5.02594C62.1562 5.25582 62.1628 5.3807 62.1628 5.3807C62.1628 5.3807 61.9821 5.45448 61.9821 5.54814C62.1501 5.50004 62.3239 5.4749 62.4986 5.4734C62.6562 5.47903 62.8126 5.50413 62.964 5.54814C62.964 5.54814 62.9461 5.45354 62.7029 5.3807C62.4598 5.30785 62.2252 5.05054 62.107 4.90769C62.036 4.81639 61.99 4.70823 61.9735 4.59382C61.9569 4.4794 61.9703 4.36264 62.0124 4.25495C62.0966 4.03926 62.3908 3.91912 62.9877 3.60883C63.6962 3.24273 63.858 2.96839 63.9573 2.75743C64.0567 2.54647 64.2061 2.12361 64.2884 1.92495C64.3569 1.73926 64.4746 1.57574 64.629 1.45195C64.734 1.37154 65.2127 1.19085 65.2127 1.19085C65.2127 1.19085 64.8475 0.879616 64.7283 0.785962C64.5793 0.644865 64.3909 0.552474 64.1882 0.521081C63.9346 0.487971 63.6773 0.65636 63.5033 0.768934C63.3292 0.881508 62.9924 1.21072 62.8562 1.30532C62.72 1.39992 62.3709 1.49452 61.8156 1.83413C61.2603 2.17375 59.0561 3.58045 59.0561 3.58045L59.6237 3.58613L57.0761 4.90769H57.3306L56.9635 5.19149C57.1668 5.23804 57.3802 5.20557 57.5605 5.10068Z" fill="#1D2D31"/>
</svg>
