<svg width="60" height="60" viewBox="0 0 60 60" fill="none" xmlns="http://www.w3.org/2000/svg">
<path d="M55.5916 24.3093C56.077 24.3093 56.4705 23.9157 56.4705 23.4304V12.3488C56.4705 11.541 55.8134 10.8839 55.0057 10.8839H14.5391C14.0537 10.8839 13.6602 11.2774 13.6602 11.7628C13.6602 12.2482 14.0537 12.6417 14.5391 12.6417H54.7127V23.4304C54.7127 23.9157 55.1062 24.3093 55.5916 24.3093Z" fill="black"/>
<path d="M55.6055 7.354H4.39453C1.97133 7.354 0 9.32533 0 11.7485V48.2519C0 50.6751 1.97133 52.6464 4.39453 52.6464H29.9576C30.443 52.6464 30.8365 52.2529 30.8365 51.7675C30.8365 51.2821 30.443 50.8886 29.9576 50.8886H4.39453C2.94059 50.8886 1.75781 49.7058 1.75781 48.2519V11.7485C1.75781 10.2946 2.94059 9.11182 4.39453 9.11182H55.6055C57.0594 9.11182 58.2422 10.2946 58.2422 11.7485V48.2519C58.2422 49.7058 57.0594 50.8886 55.6055 50.8886H34.0567C33.5713 50.8886 33.1778 51.2821 33.1778 51.7675C33.1778 52.2529 33.5713 52.6464 34.0567 52.6464H55.6055C58.0287 52.6464 60 50.6751 60 48.2519V11.7485C60 9.32545 58.0287 7.354 55.6055 7.354Z" fill="black"/>
<path d="M10.3633 10.8842H4.99414C4.18637 10.8842 3.5293 11.5412 3.5293 12.349V47.6521C3.5293 48.4598 4.18637 49.1169 4.99414 49.1169H55.0048C55.8126 49.1169 56.4697 48.4598 56.4697 47.6521V27.567C56.4697 27.0816 56.0762 26.6881 55.5908 26.6881C55.1054 26.6881 54.7119 27.0816 54.7119 27.567V47.3591H5.28711V12.642H10.3633C10.8487 12.642 11.2422 12.2485 11.2422 11.7631C11.2422 11.2777 10.8488 10.8842 10.3633 10.8842Z" fill="black"/>
<path d="M22.044 33.0836C22.5294 33.0836 22.9229 32.6901 22.9229 32.2047C22.9229 31.7193 22.5294 31.3258 22.044 31.3258H17.2793C16.7939 31.3258 16.4004 31.7193 16.4004 32.2047V43.9608C16.4004 44.4462 16.7939 44.8397 17.2793 44.8397C17.7647 44.8397 18.1582 44.4462 18.1582 43.9608V38.8504H21.6655C22.1509 38.8504 22.5444 38.4569 22.5444 37.9715C22.5444 37.4861 22.1509 37.0926 21.6655 37.0926H18.1582V33.0836H22.044Z" fill="black"/>
<path d="M32.1945 43.0712H28.1289V38.9617H31.8299C32.3153 38.9617 32.7088 38.5682 32.7088 38.0828C32.7088 37.5974 32.3153 37.2039 31.8299 37.2039H28.1289V33.0944H32.1945C32.6799 33.0944 33.0734 32.7008 33.0734 32.2155C33.0734 31.7301 32.6799 31.3365 32.1945 31.3365H27.25C26.7646 31.3365 26.3711 31.7301 26.3711 32.2155V43.9501C26.3711 44.4355 26.7646 44.829 27.25 44.829H32.1945C32.6799 44.829 33.0734 44.4355 33.0734 43.9501C33.0734 43.4647 32.6799 43.0712 32.1945 43.0712Z" fill="black"/>
<path d="M42.7218 43.0712H38.6563V38.9617H42.3573C42.8427 38.9617 43.2362 38.5682 43.2362 38.0828C43.2362 37.5974 42.8427 37.2039 42.3573 37.2039H38.6563V33.0944H42.7218C43.2072 33.0944 43.6007 32.7008 43.6007 32.2155C43.6007 31.7301 43.2072 31.3365 42.7218 31.3365H37.7773C37.292 31.3365 36.8984 31.7301 36.8984 32.2155V43.9501C36.8984 44.4355 37.292 44.829 37.7773 44.829H42.7218C43.2072 44.829 43.6007 44.4355 43.6007 43.9501C43.6007 43.4647 43.2072 43.0712 42.7218 43.0712Z" fill="black"/>
<path d="M17.2324 28.6757C16.747 28.6757 16.3535 28.2822 16.3535 27.7968V16.0627C16.3535 15.6781 16.6036 15.3381 16.9709 15.2236C17.3381 15.1092 17.7371 15.2467 17.9556 15.5632L24.5695 25.1407L24.4816 16.0492C24.477 15.5638 24.8666 15.1666 25.352 15.1619H25.3607C25.8421 15.1619 26.2347 15.5498 26.2393 16.0322L26.3493 27.3921C26.3493 27.929 26.0617 28.3602 25.6166 28.4992C25.1855 28.634 24.725 28.458 24.4432 28.0511L18.1113 18.8821V27.7968C18.1113 28.2823 17.7178 28.6757 17.2324 28.6757Z" fill="black"/>
<path d="M36.8897 28.6748C33.164 28.6748 30.1328 25.6437 30.1328 21.9178C30.1328 18.1919 33.164 15.1609 36.8897 15.1609C40.6155 15.1609 43.6466 18.1921 43.6466 21.9178C43.6466 25.6435 40.6156 28.6748 36.8897 28.6748ZM36.8897 16.9188C34.1332 16.9188 31.8906 19.1614 31.8906 21.9179C31.8906 24.6744 34.1332 26.9171 36.8897 26.9171C39.6462 26.9171 41.8888 24.6745 41.8888 21.9179C41.8888 19.1613 39.6463 16.9188 36.8897 16.9188Z" fill="black"/>
</svg>
