<svg width="62" height="62" viewBox="0 0 62 62" fill="none" xmlns="http://www.w3.org/2000/svg">
<circle opacity="0.6" cx="24" cy="24" r="24" fill="#5CCF00"/>
<path d="M43 40.5L40 43L44 46.5L43.5 48C44 48.6667 45.1 50.1 45.5 50.5L49 54C49.4 54.4 50.8333 56.5 51.5 57.5L56 60.5L57.5 59.5L60 57.5L60.5 56L56 51L54 48.5L51.5 46L48.5 43L46.5 44L43 40.5Z" fill="#96DE5E"/>
<path d="M61.5212 55.0994L60.6367 54.2148C60.282 53.86 59.707 53.8601 59.3524 54.2146C58.9976 54.5693 58.9976 55.1444 59.3523 55.499L60.1083 56.2551L56.2553 60.1082L49.7049 53.5578L53.5579 49.7047L56.6139 52.7607C56.9687 53.1152 57.5436 53.1152 57.8983 52.7607C58.253 52.4059 58.253 51.8309 57.8983 51.4762L54.2018 47.7798L54.2002 47.778L51.6315 45.2093L51.6293 45.2073L49.3623 42.9403C49.0535 42.6314 48.643 42.4613 48.2062 42.4613C47.7694 42.4613 47.3589 42.6314 47.0502 42.9401L46.9218 43.0687L43.672 39.818C45.9948 36.9159 47.6724 33.4767 48.4867 29.7191H54.8859C55.3876 29.7191 55.7941 29.3126 55.7941 28.8109C55.7941 28.3092 55.3876 27.9027 54.8859 27.9027H48.8087C48.8887 27.325 48.9485 26.7411 48.9874 26.1515H59.2148C59.7165 26.1515 60.123 25.745 60.123 25.2433C60.123 24.7416 59.7165 24.3351 59.2148 24.3351H49.041C49.0367 23.7475 49.0123 23.1635 48.9678 22.5839H54.886C55.3877 22.5839 55.7942 22.1774 55.7942 21.6757C55.7942 21.174 55.3877 20.7675 54.886 20.7675H48.7603C48.1258 16.5923 46.4289 12.6868 43.7587 9.31332C43.4473 8.92013 42.8763 8.85377 42.4828 9.16486C42.0896 9.47619 42.0232 10.0474 42.3344 10.4407C45.5349 14.4839 47.2266 19.353 47.2266 24.5215C47.2266 37.0411 37.0411 47.2266 24.5215 47.2266C12.0018 47.2266 1.81641 37.0411 1.81641 24.5215C1.81641 12.0018 12.0018 1.81641 24.5215 1.81641C30.1812 1.81641 35.6029 3.91109 39.7877 7.71452C40.1587 8.05213 40.7334 8.02452 41.0705 7.65337C41.4079 7.28221 41.3805 6.70775 41.0092 6.37038C36.4895 2.26239 30.6341 0 24.5215 0C11.0003 0 0 11.0003 0 24.5215C0 36.4591 8.57513 46.4299 19.8888 48.6021V54.7293C19.8888 55.231 20.2953 55.6375 20.797 55.6375C21.2987 55.6375 21.7052 55.231 21.7052 54.7293V48.8803C22.2832 48.9467 22.8671 48.9932 23.4565 49.0185V59.0003C23.4565 59.502 23.863 59.9085 24.3647 59.9085C24.8664 59.9085 25.2729 59.502 25.2729 59.0003V49.0304C25.8619 49.0126 26.446 48.975 27.0241 48.9162V54.7293C27.0241 55.231 27.4306 55.6375 27.9323 55.6375C28.434 55.6375 28.8405 55.231 28.8405 54.7293V48.662C32.9411 47.9304 36.691 46.175 39.8182 43.672L43.0688 46.9219L42.9404 47.0502C42.6315 47.359 42.4614 47.7695 42.4614 48.2063C42.4614 48.6431 42.6315 49.0536 42.9402 49.3623L45.208 51.63L45.2094 51.6315L47.7781 54.2002L47.7798 54.2018L55.0991 61.521C55.4079 61.83 55.8184 62 56.2552 62C56.692 62 57.1024 61.83 57.4113 61.5212L61.5212 57.4113C61.83 57.1024 62 56.692 62 56.2552C62 55.8184 61.83 55.4079 61.5212 55.0994ZM42.4822 41.1971L45.6372 44.3528L44.3529 45.6371L41.1972 42.4821C41.6411 42.0698 42.0698 41.6411 42.4822 41.1971ZM48.4204 52.2735L47.136 50.9892L50.9891 47.1361L52.2734 48.4205L48.4204 52.2735ZM48.2063 44.3531L49.7047 45.8515L45.8517 49.7046L44.3532 48.2062L48.2063 44.3531Z" fill="black"/>
<path d="M11.8732 41.1467C15.5107 43.8809 19.8805 45.3552 24.5207 45.4102C36.0387 45.4102 45.4093 36.0396 45.4093 24.5215C45.4093 13.0034 36.0387 3.63281 24.5207 3.63281C18.9621 3.63281 13.7339 5.8085 9.79944 9.75907C5.88158 13.6928 3.69136 18.9322 3.63202 24.5118C3.57753 29.6485 5.44394 34.5857 8.88736 38.414C9.22279 38.7868 9.79702 38.8173 10.17 38.4819C10.543 38.1465 10.5734 37.5721 10.2379 37.1993C7.09966 33.7103 5.39866 29.2113 5.44842 24.5312C5.50255 19.4279 7.50484 14.637 11.0864 11.041C14.6776 7.43504 19.4485 5.44922 24.5207 5.44922C35.0372 5.44922 43.5929 14.005 43.5929 24.5215C43.5929 35.038 35.0372 43.5938 24.5315 43.5939C20.2909 43.5435 16.2912 42.1951 12.9645 39.6948C12.5638 39.3931 11.9941 39.4741 11.6929 39.8751C11.3913 40.276 11.4721 40.8454 11.8732 41.1467Z" fill="black"/>
<path d="M27.9734 8.29492H21.6765C20.9086 8.29492 20.2839 8.91964 20.2839 9.6875V12.8965H14.4109C13.643 12.8965 13.0183 13.5212 13.0183 14.2891V24.0371H11.8027C11.301 24.0371 10.8945 24.4436 10.8945 24.9453C10.8945 25.447 11.301 25.8535 11.8027 25.8535H37.8471C38.3488 25.8535 38.7553 25.447 38.7553 24.9453C38.7553 24.4436 38.3488 24.0371 37.8471 24.0371H36.6316V18.8906C36.6316 18.1228 36.0068 17.498 35.239 17.498H29.3659V9.6875C29.3659 8.91964 28.7412 8.29492 27.9734 8.29492ZM14.8347 14.7129H20.2839V24.0371H14.8347V14.7129ZM22.1003 10.1113H27.5495V24.0371H22.1003V10.1113ZM34.8152 19.3145V24.0371H29.3659V19.3145H34.8152Z" fill="black"/>
<path d="M34.9974 33.5494H30.7217L28.7794 28.5842C28.642 28.2334 28.3056 28.0064 27.9255 28.0068C27.5487 28.0102 27.213 28.246 27.082 28.5993L24.4276 35.7571L22.5725 30.4988C22.4538 30.1622 22.1489 29.9263 21.7931 29.896C21.4378 29.8653 21.0971 30.0467 20.9229 30.3581L19.1414 33.5493H14.877C14.3753 33.5493 13.9688 33.9558 13.9688 34.4575C13.9688 34.9592 14.3753 35.3657 14.877 35.3657H19.6744C20.0036 35.3657 20.307 35.1876 20.4675 34.9002L21.5286 32.9996L23.5498 38.7286C23.6771 39.0893 24.0165 39.3315 24.399 39.3347H24.4064C24.7858 39.3347 25.1257 39.0985 25.2578 38.7421L27.9562 31.4659L29.2559 34.7884C29.3921 35.1366 29.7276 35.3658 30.1016 35.3658H34.9974C35.4991 35.3658 35.9056 34.9593 35.9056 34.4576C35.9056 33.9559 35.4991 33.5494 34.9974 33.5494Z" fill="black"/>
</svg>
