<svg width="80" height="80" viewBox="0 0 80 80" fill="none" xmlns="http://www.w3.org/2000/svg">
<rect x="20.8691" y="22.0283" width="37.101" height="37.101" rx="4" fill="#96DE5E"/>
<path d="M78.8239 38.8285H59.9553V36.1622H65.0461C65.6933 36.1622 66.218 35.6375 66.218 34.9903C66.218 34.3431 65.6933 33.8184 65.0461 33.8184H59.9553V31.152H63.4897C64.8064 31.152 66.0444 30.6393 66.9753 29.7082L74.6826 22.001C75.1848 22.2511 75.7415 22.3843 76.319 22.3843C77.3012 22.3843 78.2245 22.0017 78.919 21.3074C79.6135 20.6128 79.9961 19.6895 79.9961 18.7073C79.9961 17.7252 79.6135 16.8019 78.919 16.1073C78.2246 15.4128 77.3012 15.0303 76.319 15.0303C75.3368 15.0303 74.4135 15.4128 73.719 16.1072C73.0244 16.8017 72.6419 17.725 72.6419 18.7072C72.6419 19.2847 72.7751 19.8414 73.0252 20.3436L65.318 28.0509C64.8297 28.5391 64.1803 28.8082 63.4895 28.8082H59.9551V26.2226C59.9551 22.8138 57.1818 20.0406 53.7732 20.0406H51.1875V9.66633C52.6419 9.17586 53.6926 7.79975 53.6926 6.18193C53.6926 4.15441 52.043 2.50502 50.0156 2.50502C47.9883 2.50502 46.3387 4.15457 46.3387 6.18193C46.3387 7.79975 47.3894 9.1757 48.8438 9.66633V20.0405H46.1775V14.9497C46.1775 14.3025 45.6528 13.7778 45.0056 13.7778C44.3584 13.7778 43.8337 14.3025 43.8337 14.9497V20.0405H41.1673V1.17188C41.1673 0.524692 40.6426 0 39.9954 0C39.3482 0 38.8235 0.524692 38.8235 1.17188V20.0405H36.1572V14.9497C36.1572 14.3025 35.6326 13.7778 34.9854 13.7778C34.3382 13.7778 33.8135 14.3025 33.8135 14.9497V20.0405H31.1472V16.5062C31.1472 15.1895 30.6344 13.9515 29.7033 13.0206L21.9934 5.31067C22.6745 3.9355 22.4462 2.2208 21.3026 1.07704C19.8688 -0.356566 17.5362 -0.356409 16.1025 1.07704C14.6689 2.51065 14.6689 4.84332 16.1025 6.27708C16.8194 6.99381 17.761 7.35225 18.7026 7.35225C19.2632 7.35225 19.8229 7.22209 20.3362 6.96787L28.0461 14.6779C28.5345 15.1662 28.8034 15.8156 28.8034 16.5062V20.0405H26.2178C25.6951 20.0405 25.1753 20.1061 24.6728 20.2353C24.0461 20.3966 23.6687 21.0355 23.83 21.6624C23.9912 22.2893 24.6303 22.6666 25.257 22.5052C25.5687 22.425 25.8918 22.3843 26.2176 22.3843H53.7732C55.8896 22.3843 57.6113 24.1061 57.6113 26.2224V53.7781C57.6113 54.1036 57.5707 54.4266 57.4907 54.738C57.3296 55.3648 57.7071 56.0036 58.3338 56.1647C58.4317 56.1898 58.5298 56.2019 58.6265 56.2019C59.1485 56.2019 59.6246 55.8505 59.7606 55.3214C59.8896 54.8195 59.9551 54.3001 59.9551 53.778V51.1923H70.3293C70.8197 52.6467 72.1958 53.6973 73.8137 53.6973C75.8412 53.6973 77.4906 52.0479 77.4906 50.0204C77.4906 47.9929 75.841 46.3435 73.8137 46.3435C72.1958 46.3435 70.8199 47.3941 70.3293 48.8485H59.9551V46.1821H65.0459C65.6931 46.1821 66.2178 45.6574 66.2178 45.0102C66.2178 44.363 65.6931 43.8383 65.0459 43.8383H59.9551V41.1722H78.8239C79.471 41.1722 79.9957 40.6475 79.9957 40.0003C79.9957 39.3531 79.471 38.8285 78.8239 38.8285ZM75.3762 17.7647C75.628 17.5128 75.9627 17.3742 76.3188 17.3742C76.6749 17.3742 77.0096 17.5128 77.2615 17.7647C77.5134 18.0166 77.652 18.3512 77.652 18.7073C77.652 19.0634 77.5134 19.3981 77.2615 19.65C77.0096 19.9019 76.6749 20.0405 76.3188 20.0405C75.9627 20.0405 75.628 19.9019 75.3762 19.65C75.1243 19.3981 74.9857 19.0634 74.9857 18.7073C74.9857 18.3512 75.1243 18.0164 75.3762 17.7647ZM19.6451 4.61988C19.1254 5.13942 18.2796 5.13958 17.7596 4.61973C17.2397 4.09988 17.2397 3.25409 17.7596 2.7344C18.0196 2.4744 18.3608 2.34455 18.7024 2.34455C19.0438 2.34455 19.3852 2.47455 19.6451 2.7344C20.1649 3.25425 20.1649 4.10004 19.6451 4.61988ZM50.0156 7.51506C49.2806 7.51506 48.6825 6.91693 48.6825 6.18193C48.6825 5.44692 49.2805 4.84879 50.0156 4.84879C50.7508 4.84879 51.3488 5.44692 51.3488 6.18193C51.3488 6.91693 50.7507 7.51506 50.0156 7.51506ZM73.8138 48.6874C74.549 48.6874 75.1469 49.2856 75.1469 50.0206C75.1469 50.7557 74.5488 51.3537 73.8138 51.3537C73.0788 51.3537 72.4807 50.7556 72.4807 50.0206C72.4805 49.2854 73.0787 48.6874 73.8138 48.6874Z" fill="black"/>
<g clip-path="url(#clip0)">
<path d="M41.2751 28.9844C36.4164 29.0029 32.4824 32.7283 32.4629 37.3294C32.4629 38.2509 32.62 39.1662 32.9276 40.0401C33.1571 40.635 33.8383 40.9554 34.4777 40.7715C35.0958 40.547 35.4238 39.9072 35.2268 39.3087C34.9657 38.6276 34.8495 37.905 34.8839 37.1816C34.9898 33.8583 37.9201 31.2453 41.4293 31.3457C44.9386 31.446 47.6979 34.2209 47.5919 37.5442C47.4925 40.6553 44.9052 43.182 41.6236 43.3713C41.6236 43.3713 40.3866 43.4425 39.7714 43.5138C39.5446 43.5446 39.3197 43.5869 39.0976 43.6406C39.066 43.6714 39.0149 43.6714 38.9823 43.6414L38.9814 43.6406C38.9591 43.6133 38.9591 43.5746 38.9814 43.5473L39.1729 42.558L40.3346 37.6102C40.474 36.9923 40.0585 36.3842 39.4061 36.2522C38.7537 36.1202 38.1115 36.5136 37.9721 37.1314C37.9721 37.1314 35.2091 49.2424 35.2091 49.3524C35.0512 49.9411 35.4266 50.5396 36.0484 50.6892C36.0549 50.691 36.0623 50.6927 36.0688 50.6936H36.1329C36.7537 50.8459 37.3876 50.4921 37.5474 49.9042C37.5502 49.8945 37.553 49.8848 37.5548 49.8743C37.553 49.8558 37.553 49.8373 37.5548 49.8197C37.5892 49.6771 37.9377 48.0657 37.9377 48.0657C38.2017 46.8494 39.237 45.9174 40.5325 45.729C40.7992 45.6903 41.92 45.619 41.92 45.619C46.7602 45.1622 50.2926 41.076 49.8094 36.4924C49.3689 32.312 45.7118 29.0935 41.2751 28.9844Z" fill="#1E1E1E"/>
<path d="M41.8106 48.2259C41.016 48.0692 40.2391 48.5524 40.0736 49.304C40.0718 49.3111 40.0709 49.3181 40.069 49.3251C39.8971 50.0724 40.3971 50.8108 41.187 50.9736C41.1879 50.9736 41.1889 50.9736 41.1898 50.9745H41.2307C42.0039 51.1514 42.7817 50.7008 42.9676 49.9694C42.9695 49.9641 42.9704 49.9579 42.9723 49.9527V49.8761C43.1089 49.121 42.5996 48.3966 41.8106 48.2259Z" fill="#E6007A"/>
</g>
<path d="M63.8934 73.7233C62.7498 72.5796 61.0349 72.3513 59.6597 73.0324L51.9498 65.3223C51.4614 64.834 51.1925 64.1847 51.1925 63.494V59.9598H53.7781C54.3008 59.9598 54.8205 59.8942 55.3228 59.7649C55.9495 59.6037 56.3269 58.9648 56.1656 58.3379C56.0044 57.7112 55.3658 57.3338 54.7386 57.4951C54.427 57.5752 54.1039 57.6159 53.7781 57.6159H26.2226C24.1061 57.6159 22.3844 55.894 22.3844 53.7777V26.2222C22.3844 25.8964 22.425 25.5732 22.5052 25.2618C22.6666 24.6351 22.2893 23.9962 21.6625 23.8348C21.0356 23.6734 20.3967 24.0507 20.2355 24.6775C20.1061 25.1796 20.0406 25.6993 20.0406 26.2222V28.8078H9.66633C9.17586 27.3534 7.79975 26.3028 6.18193 26.3028C4.15441 26.3028 2.50502 27.9522 2.50502 29.9797C2.50502 32.0072 4.15457 33.6566 6.18193 33.6566C7.79975 33.6566 9.1757 32.606 9.66633 31.1516H20.0405V33.818H14.9497C14.3025 33.818 13.7778 34.3427 13.7778 34.9899C13.7778 35.6371 14.3025 36.1618 14.9497 36.1618H20.0405V38.828H1.17188C0.524692 38.828 0 39.3527 0 39.9999C0 40.6471 0.524692 41.1718 1.17188 41.1718H20.0405V43.8381H14.9497C14.3025 43.8381 13.7778 44.3628 13.7778 45.01C13.7778 45.6572 14.3025 46.1819 14.9497 46.1819H20.0405V48.8483H16.5061C15.1893 48.8483 13.9514 49.3609 13.0204 50.292L5.31317 57.9993C4.81098 57.7491 4.25425 57.616 3.67675 57.616C2.69455 57.616 1.77127 57.9985 1.07673 58.6929C0.382503 59.3874 0 60.3109 0 61.2929C0 62.275 0.382503 63.1984 1.07704 63.8929C1.77142 64.5875 2.69487 64.9698 3.67706 64.9698C4.65926 64.9698 5.58255 64.5873 6.27708 63.8929C6.97162 63.1984 7.35413 62.2751 7.35413 61.2929C7.35413 60.7154 7.221 60.1587 6.97084 59.6565L14.6781 51.9492C15.1664 51.461 15.8158 51.1919 16.5065 51.1919H20.041V53.7775C20.041 57.1863 22.8143 59.9595 26.2229 59.9595H28.8085V70.3336C27.3541 70.8241 26.3035 72.2002 26.3035 73.818C26.3035 75.8455 27.9531 77.4949 29.9804 77.4949C32.0078 77.4949 33.6573 75.8454 33.6573 73.818C33.6573 72.2002 32.6067 70.8243 31.1523 70.3336V59.9595H33.8186V65.0503C33.8186 65.6975 34.3433 66.2222 34.9905 66.2222C35.6376 66.2222 36.1623 65.6975 36.1623 65.0503V59.9595H38.8285V78.8284C38.8285 79.4756 39.3531 80.0003 40.0003 80.0003C40.6475 80.0003 41.1722 79.4756 41.1722 78.8284V59.9598H43.8385V65.0506C43.8385 65.6978 44.3632 66.2225 45.0104 66.2225C45.6576 66.2225 46.1823 65.6978 46.1823 65.0506V59.9598H48.8485V63.494C48.8485 64.8108 49.3614 66.0487 50.2925 66.9797L58.0024 74.6896C57.3213 76.0648 57.5496 77.7795 58.6933 78.9232C59.41 79.6401 60.3518 79.9984 61.2933 79.9984C62.2349 79.9984 63.1766 79.6401 63.8934 78.9232C65.327 77.4896 65.327 75.1569 63.8934 73.7233ZM6.18193 31.3128C5.44676 31.3128 4.84879 30.7147 4.84879 29.9797C4.84879 29.2445 5.44692 28.6465 6.18193 28.6465C6.91693 28.6465 7.51506 29.2447 7.51506 29.9797C7.51522 30.7148 6.91709 31.3128 6.18193 31.3128ZM4.61957 62.2356C4.36769 62.4875 4.033 62.6261 3.67691 62.6261C3.32081 62.6261 2.98612 62.4875 2.73424 62.2356C2.48236 61.9837 2.34377 61.649 2.34377 61.2929C2.34377 60.9368 2.48236 60.6021 2.73424 60.3503C2.98612 60.0984 3.32081 59.9598 3.67691 59.9598C4.033 59.9598 4.36769 60.0984 4.61957 60.3503C4.87145 60.6021 5.01004 60.9368 5.01004 61.2929C5.01004 61.649 4.87145 61.9839 4.61957 62.2356ZM31.3132 73.8183C31.3132 74.5533 30.7153 75.1515 29.9801 75.1515C29.2449 75.1515 28.647 74.5533 28.647 73.8183C28.647 73.0833 29.2451 72.4852 29.9801 72.4852C30.7151 72.4852 31.3132 73.0833 31.3132 73.8183ZM62.2362 77.266C61.7163 77.7859 60.8705 77.7857 60.3507 77.266C59.8308 76.7462 59.8308 75.9004 60.3507 75.3807C60.6107 75.1209 60.9521 74.9909 61.2935 74.9909C61.6349 74.9909 61.9763 75.1209 62.2362 75.3807C62.7558 75.9004 62.7558 76.7462 62.2362 77.266Z" fill="black"/>
<defs>
<clipPath id="clip0">
<rect width="17.3911" height="22.0287" fill="white" transform="translate(32.4629 28.9844)"/>
</clipPath>
</defs>
</svg>
