<svg width="56" height="56" viewBox="0 0 56 56" fill="none" xmlns="http://www.w3.org/2000/svg">
<rect width="45" height="33" fill="#96DE5E"/>
<rect x="34" y="30" width="20" height="26" fill="#96DE5E"/>
<rect x="13" y="43" width="19" height="13" fill="#96DE5E"/>
<path d="M7.77734 6.68066C7.17327 6.68066 6.68359 7.17034 6.68359 7.77441V26.031C6.68359 26.635 7.17327 27.1247 7.77734 27.1247H37.6367C38.2408 27.1247 38.7305 26.635 38.7305 26.031C38.7305 25.4269 38.2408 24.9372 37.6367 24.9372H8.87109V20.9467L13.957 15.8607L15.7619 17.6657C15.967 17.8708 16.2453 17.9861 16.5353 17.9861C16.8254 17.9861 17.1036 17.8708 17.3087 17.6657L24.5288 10.4456L30.0684 15.9852C30.2735 16.1903 30.5517 16.3056 30.8418 16.3056C31.1319 16.3056 31.4101 16.1903 31.6152 15.9852L38.169 9.43134C38.5962 9.00423 38.5962 8.31166 38.169 7.88444C37.7419 7.45744 37.0493 7.45744 36.6223 7.88444L30.8417 13.665L25.3021 8.1254C25.097 7.92032 24.8187 7.80504 24.5287 7.80504C24.2386 7.80504 23.9604 7.92032 23.7553 8.1254L16.5352 15.3456L14.7303 13.5406C14.5252 13.3355 14.247 13.2202 13.9569 13.2202C13.6669 13.2202 13.3886 13.3355 13.1835 13.5406L8.87109 17.853V7.77441C8.87109 7.17045 8.38142 6.68066 7.77734 6.68066Z" fill="black"/>
<path d="M30.4404 47.8028C29.6462 47.8028 29 47.2617 29 46.5967C29 45.9927 28.5103 45.503 27.9062 45.503C27.3022 45.503 26.8125 45.9927 26.8125 46.5967C26.8125 48.1114 27.8791 49.3974 29.3466 49.8323V49.9844C29.3466 50.5883 29.8363 51.0781 30.4404 51.0781C31.0444 51.0781 31.5341 50.5883 31.5341 49.9844V49.8323C33.0016 49.3972 34.0681 48.1114 34.0681 46.5967C34.0681 44.7255 32.4407 43.2032 30.4404 43.2032C29.6462 43.2032 29 42.6623 29 41.9973C29 41.3323 29.6462 40.7912 30.4404 40.7912C31.2345 40.7912 31.8806 41.3323 31.8806 41.9973C31.8806 42.6012 32.3703 43.091 32.9744 43.091C33.5784 43.091 34.0681 42.6012 34.0681 41.9973C34.0681 40.4825 33.0015 39.1966 31.5341 38.7616V38.6094C31.5341 38.0054 31.0444 37.5156 30.4404 37.5156C29.8363 37.5156 29.3466 38.0054 29.3466 38.6094V38.7614C27.8791 39.1965 26.8125 40.4823 26.8125 41.997C26.8125 43.8682 28.4399 45.3905 30.4404 45.3905C31.2345 45.3905 31.8806 45.9315 31.8806 46.5965C31.8806 47.2615 31.2346 47.8028 30.4404 47.8028Z" fill="black"/>
<path d="M54.9062 29.3125H45.4089V22.2031C45.4089 21.599 44.9192 21.1094 44.3151 21.1094C43.7111 21.1094 43.2214 21.599 43.2214 22.2031V29.3125H33.724C33.12 29.3125 32.6303 29.8023 32.6303 30.4062V32.375H2.1875V2.1875H43.2214V12.6094C43.2214 13.2135 43.7111 13.7031 44.3151 13.7031C44.9192 13.7031 45.4089 13.2135 45.4089 12.6094V1.09375C45.4089 0.489672 44.9192 0 44.3151 0H1.09375C0.489672 0 0 0.489672 0 1.09375V33.4688C0 34.0727 0.489672 34.5625 1.09375 34.5625H23.9536C21.5417 36.1756 19.7603 38.6602 19.063 41.5625H12.5417C11.9376 41.5625 11.448 42.0523 11.448 42.6562V54.9062C11.448 55.5102 11.9376 56 12.5417 56H54.9062C55.5103 56 56 55.5102 56 54.9062V30.4062C56 29.8023 55.5103 29.3125 54.9062 29.3125ZM53.8125 41.5625H41.8225C41.4783 40.13 40.87 38.7995 40.052 37.625H53.8125V41.5625ZM42.1327 43.75H53.8125V47.6875H41.6444C41.97 46.6138 42.1459 45.4755 42.1459 44.2969C42.1458 44.1136 42.1411 43.9313 42.1327 43.75ZM53.8125 31.5V35.4375H38.0813C37.1174 34.6053 36.0164 33.9278 34.8178 33.4428V31.5H53.8125ZM30.4427 34.7812C35.6896 34.7812 39.9583 39.0499 39.9583 44.2969C39.9583 49.5438 35.6896 53.8125 30.4427 53.8125C25.1957 53.8125 20.927 49.5438 20.927 44.2969C20.927 39.0499 25.1957 34.7812 30.4427 34.7812ZM13.6355 43.75H18.7529C18.7445 43.9313 18.7397 44.1136 18.7397 44.2969C18.7397 45.4755 18.9155 46.6138 19.2411 47.6875H13.6355V43.75ZM13.6355 53.8125V49.875H20.1566C21.0063 51.4357 22.2012 52.7823 23.6376 53.8125H13.6355ZM37.2479 53.8125C38.6843 52.7823 39.8791 51.4357 40.7288 49.875H53.8125V53.8125H37.2479Z" fill="black"/>
<path d="M44.3125 16.1875C44.0248 16.1875 43.7427 16.3045 43.5392 16.508C43.3347 16.7114 43.2188 16.9936 43.2188 17.2812C43.2188 17.5689 43.3347 17.8511 43.5392 18.0545C43.7427 18.258 44.0238 18.375 44.3125 18.375C44.6002 18.375 44.8823 18.258 45.0858 18.0545C45.2892 17.8511 45.4062 17.5689 45.4062 17.2812C45.4062 16.9936 45.2892 16.7114 45.0858 16.508C44.8823 16.3045 44.6002 16.1875 44.3125 16.1875Z" fill="black"/>
</svg>
