<svg width="192" height="40" viewBox="0 0 192 40" fill="none" xmlns="http://www.w3.org/2000/svg">
<path d="M43.4556 39.4931V2.56201H56.1126C60.2893 2.56201 63.4684 3.39905 65.6498 5.07311C67.8312 6.74718 68.9218 9.24137 68.9218 12.5558C68.9218 14.2468 68.4652 15.7686 67.5521 17.1214C66.6389 18.4742 65.3031 19.5226 63.5445 20.2666C65.5398 20.8077 67.0786 21.8308 68.1609 23.3357C69.26 24.8239 69.8096 26.6163 69.8096 28.7132C69.8096 32.1796 68.6936 34.8429 66.4614 36.703C64.2462 38.563 61.0672 39.4931 56.9242 39.4931H43.4556ZM49.8729 22.8284V34.3694H57.0003C59.0126 34.3694 60.5853 33.8706 61.7182 32.873C62.8511 31.8752 63.4176 30.4886 63.4176 28.7132C63.4176 24.8746 61.4561 22.913 57.533 22.8284H49.8729ZM49.8729 18.1106H56.1633C58.1586 18.1106 59.7144 17.6626 60.8304 16.7663C61.9633 15.8532 62.5299 14.568 62.5299 12.9109C62.5299 11.0846 62.0056 9.7656 60.9573 8.95394C59.9257 8.14228 58.3109 7.73644 56.1126 7.73644H49.8729V18.1106Z" fill="#1D2D31"/>
<path d="M81.5674 39.493H75.4038V12.0483H81.5674V39.493Z" fill="#1D2D31"/>
<path d="M123.185 25.5155C123.185 22.8268 123.719 20.4087 124.784 18.2612C125.849 16.0967 127.345 14.4396 129.273 13.2897C131.201 12.123 133.416 11.5396 135.919 11.5396C139.622 11.5396 142.624 12.7317 144.923 15.116C147.24 17.5003 148.492 20.6623 148.677 24.6024L148.703 26.0482C148.703 28.7538 148.178 31.1719 147.13 33.3025C146.098 35.4332 144.61 37.0819 142.666 38.2486C140.738 39.4154 138.506 39.9988 135.969 39.9988C132.097 39.9988 128.994 38.7137 126.661 36.1434C124.344 33.5561 123.185 30.115 123.185 25.8199V25.5155ZM129.35 26.0482C129.35 28.8721 129.933 31.0873 131.099 32.6937C132.266 34.2832 133.889 35.0781 135.969 35.0781C138.049 35.0781 139.664 34.2663 140.814 32.643C141.981 31.0197 142.565 28.6439 142.565 25.5155C142.565 22.7424 141.963 20.5441 140.763 18.9207C139.579 17.2973 137.965 16.4856 135.919 16.4856C133.906 16.4856 132.309 17.2888 131.125 18.8954C129.941 20.4849 129.35 22.8691 129.35 26.0482Z" fill="#1D2D31"/>
<path d="M169.299 32.0343C169.299 30.9351 168.843 30.0981 167.93 29.5232C167.034 28.9482 165.537 28.4409 163.44 28.0013C161.344 27.5616 159.593 27.0036 158.189 26.3272C155.112 24.8392 153.573 22.6832 153.573 19.8591C153.573 17.4918 154.571 15.5134 156.566 13.9238C158.562 12.3343 161.098 11.5396 164.176 11.5396C167.456 11.5396 170.103 12.3512 172.115 13.9745C174.144 15.5979 175.159 17.7031 175.159 20.2903H168.995C168.995 19.1067 168.555 18.1259 167.676 17.348C166.796 16.5533 165.631 16.1559 164.176 16.1559C162.822 16.1559 161.715 16.4687 160.853 17.0944C160.008 17.72 159.585 18.5571 159.585 19.6055C159.585 20.5525 159.982 21.2881 160.777 21.8123C161.571 22.3365 163.178 22.8691 165.596 23.4103C168.015 23.9345 169.908 24.5685 171.277 25.3127C172.665 26.0398 173.688 26.9191 174.347 27.9505C175.024 28.9821 175.362 30.2334 175.362 31.7045C175.362 34.1734 174.338 36.1772 172.292 37.7159C170.247 39.2379 167.567 39.9988 164.252 39.9988C162.003 39.9988 159.998 39.593 158.241 38.7813C156.482 37.9697 155.112 36.8535 154.131 35.4332C153.15 34.0127 152.66 32.4824 152.66 30.8421H158.646C158.731 32.2964 159.281 33.4208 160.294 34.2157C161.309 34.9935 162.653 35.3824 164.328 35.3824C165.952 35.3824 167.186 35.0781 168.032 34.4693C168.876 33.8436 169.299 33.0319 169.299 32.0343Z" fill="#1D2D31"/>
<path d="M186.392 5.37695V12.048H191.388V16.6136H186.392V31.9339C186.392 32.9823 186.594 33.7433 187 34.2168C187.423 34.6734 188.167 34.9016 189.232 34.9016C189.943 34.9016 190.661 34.817 191.388 34.648V39.4165C189.985 39.8054 188.632 39.9999 187.33 39.9999C182.595 39.9999 180.227 37.3873 180.227 32.1622V5.37695H186.392Z" fill="#1D2D31"/>
<path d="M88.5435 9.5372C88.5435 6.49341 89.3889 4.14288 91.0799 2.48573C92.7709 0.828576 95.1384 0 98.1826 0C99.2649 0 101.481 0.536117 102.527 0.911091L101.48 5.27592C100.803 5.14061 100.017 5.07295 99.1209 5.07295C96.178 5.07295 94.7072 6.58644 94.7072 9.6132V12.0483H102.417L101.154 16.7662L94.7072 16.6139V39.4929H88.5435V9.5372Z" fill="#1D2D31"/>
<path d="M75.4038 3.36426H81.5681V7.98738H75.4038V3.36426Z" fill="#1D2D31"/>
<path d="M122.408 12.0483L121.255 16.614H113.058V39.493H106.894V12.0483H122.408Z" fill="#1D2D31"/>
<path d="M36.5924 12.0483H27.4443L0 39.4926H18.2962L36.5924 12.0483Z" fill="#1D2D31"/>
</svg>
