<svg width="186" height="45" viewBox="0 0 186 45" fill="none" xmlns="http://www.w3.org/2000/svg">
<path d="M0.994168 10.4707L18.8063 0.261896C19.4277 -0.0872988 20.1733 -0.0872988 20.7947 0.261896L32.0205 6.6912C32.9732 7.22526 33.3046 8.43717 32.7454 9.38205C32.6626 9.52584 32.559 9.66963 32.4347 9.79287L28.6445 13.5724C28.0024 14.2092 27.0289 14.3324 26.2419 13.8805L20.8154 10.7788C20.194 10.4296 19.407 10.4296 18.7856 10.7788L0 21.645V12.1551C0 11.4567 0.372813 10.8199 0.994168 10.4707Z" fill="#1D2D31"/>
<path d="M32.0298 37.9548L20.7738 44.492C20.1531 44.8459 19.4082 44.8459 18.7875 44.492L0.993171 34.1449C0.372439 33.791 0 33.1248 0 32.417V23.6938L9.16614 18.3433V27.0873C9.16614 27.7951 9.53858 28.4613 10.1593 28.8153L18.7875 33.8327C19.4082 34.1866 20.1531 34.1866 20.7738 33.8327L26.2363 30.6682C27.0225 30.2101 27.995 30.3559 28.6364 30.9804L32.4436 34.8111C33.2091 35.5815 33.2091 36.8514 32.4436 37.6217C32.3194 37.7675 32.1746 37.8716 32.0298 37.9548Z" fill="#1D2D31"/>
<path d="M103.926 5.17745V31.6792C103.926 33.5133 103.161 33.7194 101.424 33.7194H87.7759C87.2383 33.74 86.7213 33.5546 86.3284 33.1836C86.1216 32.9981 85.7701 33.0187 85.7701 31.3495V5.17745H78.8841V32.4005C78.8841 34.688 79.6699 36.6045 81.2415 38.1089C82.7303 39.5721 84.8602 40.2933 87.5692 40.2933H102.127C104.608 40.2933 106.697 39.5308 108.331 38.0265C110.006 36.4809 110.853 34.7704 110.853 31.7617V5.17745H103.926ZM145.676 21.9111C144.312 20.4685 142.513 19.7266 140.3 19.7266H127.81C127.045 19.7266 126.528 19.5618 125.97 19.0466C125.411 18.5314 125.349 17.9956 125.349 17.3361V13.7091C125.349 13.0291 125.453 12.452 125.928 11.9781C126.176 11.7308 126.59 11.4216 128.058 11.4216H147.455V5.17745H125.577C122.992 5.17745 120.924 6.24906 119.394 8.39228C118.753 9.27842 118.463 10.7622 118.463 12.9466V19.4587C118.463 21.4989 118.98 23.0445 120.014 24.0749C121.255 25.332 122.93 25.9708 124.977 25.9708H138.129C138.956 25.9708 139.576 26.1357 139.948 26.4448C140.507 26.8982 140.796 27.3928 140.796 27.9492V31.4938C140.796 33.2248 140.465 33.1836 140.259 33.3691C139.762 33.8225 139.121 34.0697 138.294 34.0697H118.443V40.3346H139.638C142.099 40.3346 144.125 39.5308 145.635 37.9646C147 36.5633 147.703 34.5849 147.703 32.112V28.011C147.682 25.3732 147.021 23.333 145.676 21.9111ZM155.933 5.17745V11.4423H167.451V40.2933H174.337V11.4423H186V5.17745H155.933ZM71.7706 19.7472C71.936 17.7071 71.7706 12.8848 71.7706 12.8848C71.7706 9.7524 70.3644 7.42371 67.6142 6.00176C66.5389 5.42474 64.9053 5.15684 62.6099 5.15684H49.603C47.5351 5.15684 41.4556 5.13623 41.4556 5.13623L44.5574 11.401H61.6173C63.1269 11.401 64.8639 11.6689 64.8639 13.7709V18.8817C64.8639 20.5303 64.0367 21.2722 62.1757 21.2722H41.4556V40.3346H48.3623V27.537H58.8464L63.6232 40.3552H71.8326C71.8326 40.3552 66.9731 27.4134 66.8284 27.1043C66.6423 26.6921 68.8756 26.3624 70.2404 24.8786C71.6052 23.3948 71.5845 21.7874 71.7706 19.7472Z" fill="#1D2D31"/>
</svg>
