<svg width="129" height="30" viewBox="0 0 129 30" fill="none" xmlns="http://www.w3.org/2000/svg">
<path opacity="0.8" d="M18.5944 8.74472C18.275 8.47864 17.9064 8.27809 17.5095 8.15452C17.1127 8.03095 16.6953 7.98679 16.2814 8.02456C15.8674 8.06232 15.465 8.18128 15.097 8.37463C14.7291 8.56799 14.4028 8.83194 14.1369 9.15142L7.75308 16.8082C7.27864 17.3771 7.01878 18.0943 7.01878 18.835C7.01878 19.5757 7.27864 20.2929 7.75308 20.8617L14.1369 28.5145C14.6743 29.1591 15.4457 29.5639 16.2815 29.6398C17.1173 29.7157 17.949 29.4565 18.5937 28.9191C19.2384 28.3818 19.6432 27.6104 19.7191 26.7746C19.7949 25.9387 19.5357 25.107 18.9984 24.4624L14.3037 18.835L18.9984 13.2022C19.2646 12.883 19.4653 12.5145 19.5891 12.1177C19.7129 11.721 19.7573 11.3037 19.7198 10.8897C19.6823 10.4758 19.5636 10.0733 19.3705 9.70527C19.1774 9.33722 18.9137 9.01082 18.5944 8.74472ZM3.16413 8.0113C2.7485 8.0113 2.33694 8.09319 1.95296 8.25229C1.56898 8.41139 1.22011 8.64458 0.926275 8.93854C0.63244 9.2325 0.399399 9.58147 0.240467 9.96552C0.0815336 10.3496 -0.000177788 10.7612 2.90444e-07 11.1768V26.4959C0.0171385 27.3239 0.358103 28.1122 0.949754 28.6917C1.5414 29.2713 2.33662 29.5959 3.16481 29.5959C3.99301 29.5959 4.78822 29.2713 5.37987 28.6917C5.97152 28.1122 6.31249 27.3239 6.32963 26.4959V11.1768C6.3298 10.761 6.24805 10.3493 6.08903 9.9652C5.93001 9.58107 5.69685 9.23203 5.40287 8.93806C5.10889 8.64408 4.75986 8.41092 4.37573 8.2519C3.99159 8.09288 3.57988 8.01113 3.16413 8.0113ZM58.6924 14.3409C59.5204 14.3238 60.3087 13.9828 60.8883 13.3912C61.4678 12.7995 61.7924 12.0043 61.7924 11.1761C61.7924 10.3479 61.4678 9.55271 60.8883 8.96106C60.3087 8.36941 59.5204 8.02844 58.6924 8.0113H45.2889C44.4493 8.0113 43.6442 8.34481 43.0505 8.93845C42.4569 9.5321 42.1234 10.3373 42.1234 11.1768V16.9208C42.1237 17.6087 42.348 18.2777 42.7623 18.8268C43.1766 19.3759 43.7585 19.7752 44.4199 19.9642L55.5269 23.1379V23.329H45.2889C44.8678 23.3203 44.4491 23.3957 44.0575 23.5509C43.6659 23.706 43.3092 23.9377 43.0083 24.2325C42.7074 24.5272 42.4683 24.879 42.3051 25.2673C42.1419 25.6556 42.0579 26.0726 42.0579 26.4938C42.0579 26.915 42.1419 27.332 42.3051 27.7203C42.4683 28.1086 42.7074 28.4605 43.0083 28.7552C43.3092 29.05 43.6659 29.2817 44.0575 29.4368C44.4491 29.5919 44.8678 29.6674 45.2889 29.6586H58.6924C59.5316 29.6586 60.3364 29.3253 60.9298 28.7319C61.5232 28.1385 61.8565 27.3337 61.8565 26.4945V20.7505C61.8567 20.0625 61.6326 19.3932 61.2182 18.8441C60.8038 18.2949 60.2216 17.8957 59.56 17.7071L48.453 14.5334V14.3409H58.6924ZM37.6293 8.0113C37.2137 8.0113 36.8021 8.09319 36.4182 8.25229C36.0342 8.41139 35.6853 8.64458 35.3915 8.93854C35.0976 9.2325 34.8646 9.58147 34.7057 9.96552C34.5467 10.3496 34.465 10.7612 34.4652 11.1768V23.329H27.3913V11.1768C27.4 10.7557 27.3246 10.337 27.1695 9.94544C27.0144 9.55384 26.7826 9.19714 26.4879 8.89623C26.1931 8.59532 25.8413 8.35627 25.453 8.19306C25.0647 8.02986 24.6477 7.9458 24.2265 7.9458C23.8053 7.9458 23.3883 8.02986 23 8.19306C22.6117 8.35627 22.2599 8.59532 21.9651 8.89623C21.6704 9.19714 21.4387 9.55384 21.2835 9.94544C21.1284 10.337 21.053 10.7557 21.0617 11.1768V26.4959C21.0617 26.9115 21.1436 27.3231 21.3027 27.707C21.4618 28.091 21.695 28.4399 21.9889 28.7337C22.2829 29.0276 22.6319 29.2606 23.0159 29.4195C23.4 29.5785 23.8116 29.6602 24.2272 29.66H37.6293C38.045 29.6602 38.4566 29.5785 38.8406 29.4195C39.2247 29.2606 39.5736 29.0276 39.8676 28.7337C40.1616 28.4399 40.3948 28.091 40.5538 27.707C40.7129 27.3231 40.7948 26.9115 40.7948 26.4959V11.1768C40.795 10.761 40.7133 10.3493 40.5542 9.9652C40.3952 9.58107 40.1621 9.23203 39.8681 8.93806C39.5741 8.64408 39.2251 8.41092 38.8409 8.2519C38.4568 8.09288 38.0451 8.01113 37.6293 8.0113ZM74.5266 9.15007C74.2298 8.79361 73.8581 8.50682 73.4381 8.31003C73.018 8.11323 72.5598 8.01125 72.0959 8.0113H66.3506C65.9349 8.0113 65.5234 8.09319 65.1394 8.25229C64.7554 8.41139 64.4065 8.64458 64.1127 8.93854C63.8189 9.2325 63.5858 9.58147 63.4269 9.96552C63.268 10.3496 63.1863 10.7612 63.1864 11.1768V26.4959C63.1864 27.335 63.5198 28.1399 64.1132 28.7332C64.7066 29.3266 65.5114 29.66 66.3506 29.66H74.2745C75.1025 29.6429 75.8908 29.3019 76.4704 28.7102C77.0499 28.1186 77.3745 27.3234 77.3745 26.4952C77.3745 25.667 77.0499 24.8718 76.4704 24.2801C75.8908 23.6885 75.1025 23.3475 74.2745 23.3304H69.5161V14.3423H70.6128L78.5042 23.8116V26.4959C78.5213 27.3239 78.8623 28.1122 79.4539 28.6917C80.0456 29.2713 80.8408 29.5959 81.669 29.5959C82.4972 29.5959 83.2924 29.2713 83.884 28.6917C84.4757 28.1122 84.8167 27.3239 84.8338 26.4959V22.6647C84.8332 21.9238 84.5727 21.2066 84.0977 20.638L74.5266 9.15007ZM128.147 20.638L118.574 9.15007C118.277 8.79361 117.905 8.50682 117.485 8.31003C117.065 8.11323 116.607 8.01125 116.143 8.0113H110.398C109.982 8.01113 109.57 8.09288 109.186 8.2519C108.802 8.41092 108.453 8.64408 108.159 8.93806C107.865 9.23203 107.632 9.58107 107.473 9.9652C107.314 10.3493 107.232 10.761 107.232 11.1768V26.4959C107.232 26.9114 107.314 27.3228 107.474 27.7066C107.633 28.0904 107.866 28.4392 108.16 28.7329C108.454 29.0265 108.803 29.2595 109.187 29.4183C109.571 29.5772 109.982 29.6588 110.398 29.6586H118.32C119.148 29.6415 119.937 29.3005 120.516 28.7089C121.096 28.1172 121.42 27.322 121.42 26.4938C121.42 25.6656 121.096 24.8704 120.516 24.2788C119.937 23.6871 119.148 23.3462 118.32 23.329H113.562V14.3409H114.659L122.55 23.8103V26.4945C122.567 27.3225 122.908 28.1109 123.5 28.6904C124.091 29.2699 124.887 29.5945 125.715 29.5945C126.543 29.5945 127.338 29.2699 127.93 28.6904C128.521 28.1109 128.862 27.3225 128.88 26.4945V22.6647C128.88 21.9243 128.621 21.2072 128.147 20.638ZM104.061 8.30142C103.512 8.04856 102.901 7.9586 102.302 8.04222C101.702 8.12584 101.14 8.37951 100.68 8.77319L96.037 12.7534L91.3857 8.77183C90.9261 8.37828 90.3632 8.12477 89.7639 8.04138C89.1646 7.95799 88.5539 8.0482 88.0042 8.30133C87.4546 8.55445 86.9891 8.95987 86.6629 9.46952C86.3367 9.97917 86.1634 10.5717 86.1637 11.1768V26.4959C86.1808 27.3239 86.5218 28.1122 87.1135 28.6917C87.7051 29.2713 88.5003 29.5959 89.3285 29.5959C90.1567 29.5959 90.9519 29.2713 91.5436 28.6917C92.1352 28.1122 92.4762 27.3239 92.4933 26.4959V18.0514L93.9846 19.3244C94.5582 19.8157 95.2886 20.0857 96.0438 20.0857C96.7991 20.0857 97.5295 19.8157 98.1031 19.3244L99.5794 18.0582V26.4945C99.5794 27.3341 99.9129 28.1392 100.507 28.7329C101.1 29.3265 101.905 29.66 102.745 29.66C103.584 29.66 104.39 29.3265 104.983 28.7329C105.577 28.1392 105.91 27.3341 105.91 26.4945V11.1754C105.91 10.5696 105.735 9.97678 105.407 9.46731C105.079 8.95784 104.612 8.55319 104.061 8.30142ZM81.8798 6.56887V6.68817C81.8798 6.68817 86.2328 4.96647 87.0801 5.41113L86.569 5.56161C86.6138 5.56161 87.4421 5.61583 87.4421 5.61583C87.4615 5.78687 87.5186 5.95147 87.6094 6.09776C87.7001 6.24405 87.8221 6.36837 87.9667 6.46177C88.4656 6.7912 88.4751 6.97015 88.4751 6.97015C88.4751 6.97015 88.2162 7.07589 88.2162 7.2101C88.457 7.14118 88.706 7.10516 88.9564 7.103C89.1823 7.11107 89.4063 7.14704 89.6234 7.2101C89.6234 7.2101 89.5976 7.07454 89.2492 6.97015C88.9008 6.86576 88.5646 6.49702 88.3951 6.29231C88.2935 6.16146 88.2276 6.00647 88.2038 5.84251C88.1801 5.67854 88.1993 5.51122 88.2596 5.3569C88.3802 5.04781 88.8018 4.87564 89.6573 4.43098C90.6727 3.90633 90.9045 3.51319 91.0468 3.21087C91.1892 2.90856 91.4034 2.30258 91.5213 2.01788C91.6194 1.75179 91.7881 1.51745 92.0094 1.34005C92.1598 1.22482 92.8458 0.965885 92.8458 0.965885C92.8458 0.965885 92.3225 0.519869 92.1517 0.385658C91.9382 0.183458 91.6682 0.0510575 91.3776 0.00607004C91.0143 -0.0413784 90.6456 0.199931 90.3961 0.361256C90.1467 0.522581 89.664 0.994354 89.4688 1.12992C89.2736 1.26549 88.7734 1.40105 87.9776 1.88774C87.1818 2.37443 84.0231 4.39031 84.0231 4.39031L84.8365 4.39844L81.1857 6.29231H81.5504L81.0244 6.69901C81.3157 6.76571 81.6215 6.71919 81.8798 6.56887Z" fill="#1D2D31"/>
</svg>