<svg width="158" height="44" viewBox="0 0 158 44" fill="none" xmlns="http://www.w3.org/2000/svg">
<path d="M35.0822 21.9424H8.76611V30.7081H35.0822V21.9424Z" fill="#1D2D31"/>
<path d="M43.8667 8.78418H35.1011V21.9422H43.8667V8.78418Z" fill="#1D2D31"/>
<path d="M8.76567 30.7075H0V32.9037V35.0999V43.8656H8.76567V35.0999V30.7075Z" fill="#1D2D31"/>
<path d="M35.1009 0H8.76567H7.50525H0V17.5504V20.3577V21.9428H8.76567V20.3577V17.5504V8.78477H35.1009V0Z" fill="#1D2D31"/>
<path d="M35.0822 21.9424H8.76611V30.7081H35.0822V21.9424Z" fill="#1D2D31"/>
<path d="M55.955 17.5503V21.9427H52.5557V8.78467H57.731C58.7623 8.78467 59.6599 8.89925 60.3856 9.10932C61.1304 9.33849 61.7415 9.62495 62.2189 10.026C62.6963 10.4079 63.0592 10.8663 63.2884 11.3819C63.5175 11.8975 63.6321 12.4705 63.6321 13.0816C63.6321 13.7309 63.5175 14.342 63.2884 14.8958C63.0592 15.4496 62.6963 15.908 62.2189 16.309C61.7415 16.691 61.1304 16.9965 60.3856 17.2257C59.6408 17.4549 58.7623 17.5503 57.7501 17.5503H55.955ZM55.955 15.2396H57.731C58.6095 15.2396 59.2588 15.0486 59.6408 14.6666C60.0227 14.2847 60.2328 13.75 60.2328 13.0816C60.2328 12.776 60.1755 12.5086 60.08 12.2604C59.9845 12.0121 59.8317 11.802 59.6217 11.6302C59.4116 11.4583 59.1633 11.3246 58.8387 11.21C58.5331 11.1145 58.1512 11.0572 57.731 11.0572H55.955V15.2396Z" fill="#1D2D31"/>
<path d="M78.6424 21.9427H75.224V16.3854H69.2656V21.9427H65.8472V8.78467H69.2656V14.2847H75.224V8.78467H78.6424V21.9427Z" fill="#1D2D31"/>
<path d="M95.2565 21.9427H92.6211C92.3346 21.9427 92.0864 21.8854 91.8954 21.7518C91.7044 21.6372 91.5708 21.4653 91.4944 21.2743L90.635 18.9826H85.0586L84.1992 21.2743C84.1228 21.4462 84.0082 21.599 83.7981 21.7327C83.6072 21.8663 83.3589 21.9427 83.0915 21.9427H80.437L86.1089 8.78467H89.5846L95.2565 21.9427ZM85.8416 16.901H89.852L88.4961 13.2916C88.4006 13.0625 88.3051 12.7951 88.1905 12.4895C88.0759 12.184 87.9614 11.8402 87.8468 11.4774C87.7322 11.8402 87.6367 12.184 87.5221 12.4895C87.4075 12.7951 87.293 13.0816 87.1975 13.3107L85.8416 16.901Z" fill="#1D2D31"/>
<path d="M100.394 19.4983H105.818V21.9427H96.9951V8.78467H100.394V19.4983Z" fill="#1D2D31"/>
<path d="M121.802 21.9427H119.167C118.881 21.9427 118.632 21.8854 118.441 21.7518C118.25 21.6372 118.117 21.4653 118.04 21.2743L117.181 18.9826H111.604L110.745 21.2743C110.669 21.4462 110.554 21.599 110.344 21.7327C110.153 21.8663 109.905 21.9427 109.637 21.9427H106.983L112.655 8.78467H116.131L121.802 21.9427ZM112.387 16.901H116.398L115.042 13.2916C114.946 13.0625 114.851 12.7951 114.736 12.4895C114.622 12.184 114.507 11.8402 114.393 11.4774C114.278 11.8402 114.183 12.184 114.068 12.4895C113.953 12.7951 113.839 13.0816 113.743 13.3107L112.387 16.901Z" fill="#1D2D31"/>
<path d="M54.7136 30.881C54.809 30.9001 54.9045 30.9192 54.9809 30.9574C55.0573 30.9956 55.1337 31.0338 55.2101 31.0911C55.2865 31.1484 55.3629 31.2248 55.4583 31.3394L62.3525 39.1502C62.3334 38.9019 62.3143 38.6536 62.2952 38.4245C62.2761 38.1953 62.2761 37.9661 62.2761 37.7561V30.881H65.2362V43.8672H63.4792C63.2119 43.8672 63.0018 43.829 62.8299 43.7526C62.658 43.6762 62.4862 43.5425 62.3143 43.3516L55.4774 35.6172C55.4965 35.8463 55.5156 36.0564 55.5347 36.2856C55.5538 36.4956 55.5538 36.7057 55.5538 36.8967V43.8672H52.5938V30.881H54.3698C54.4844 30.8619 54.599 30.8619 54.7136 30.881Z" fill="#1D2D31"/>
<path d="M77.2859 30.8618V33.1726H71.3275V36.2091H75.8918V38.4435H71.3275V41.5372H77.2859V43.848H67.9473V30.8618H77.2859Z" fill="#1D2D31"/>
<path d="M90.3683 30.8618V33.249H86.2815V43.848H82.9203V33.249H78.8335V30.8618H90.3683Z" fill="#1D2D31"/>
<path d="M91.3994 30.8619H94.2258C94.5123 30.8619 94.7605 30.9192 94.9515 31.0337C95.1425 31.1483 95.2762 31.3011 95.3335 31.5112L97.3196 38.2907C97.3769 38.5199 97.4533 38.7491 97.5106 38.9973C97.5679 39.2456 97.6251 39.513 97.6633 39.7803C97.7206 39.4939 97.797 39.2456 97.8734 38.9973C97.9498 38.7491 98.0262 38.5199 98.1026 38.2907L100.452 31.5112C100.509 31.3393 100.643 31.1865 100.833 31.0528C101.024 30.9192 101.273 30.8428 101.54 30.8428H102.533C102.82 30.8428 103.068 30.9001 103.259 31.0147C103.45 31.1292 103.584 31.282 103.66 31.4921L105.99 38.2716C106.066 38.4817 106.143 38.7109 106.219 38.94C106.295 39.1692 106.372 39.4175 106.429 39.6848C106.486 39.4175 106.544 39.1692 106.601 38.94C106.658 38.7109 106.715 38.4817 106.773 38.2716L108.759 31.4921C108.816 31.3202 108.931 31.1674 109.141 31.0337C109.332 30.9001 109.58 30.8428 109.867 30.8428H112.521L108.033 43.829H104.978L102.247 35.7699C102.209 35.6362 102.151 35.5025 102.094 35.3688C102.037 35.2161 101.998 35.0633 101.941 34.8914C101.903 35.0633 101.846 35.2161 101.788 35.3688C101.731 35.5216 101.693 35.6553 101.636 35.7699L98.8665 43.829H95.8109L91.3994 30.8619Z" fill="#1D2D31"/>
<path d="M128.849 37.3538C128.849 38.2896 128.678 39.1681 128.315 39.9702C127.952 40.7722 127.436 41.4788 126.787 42.0709C126.138 42.6629 125.336 43.1403 124.419 43.4841C123.483 43.8278 122.471 43.9997 121.344 43.9997C120.217 43.9997 119.186 43.8278 118.25 43.4841C117.315 43.1403 116.532 42.682 115.863 42.0709C115.195 41.4788 114.698 40.7722 114.336 39.9702C113.973 39.1681 113.801 38.2896 113.801 37.3538C113.801 36.4181 113.973 35.5396 114.336 34.7375C114.698 33.9354 115.214 33.2288 115.863 32.6368C116.532 32.0448 117.315 31.5673 118.25 31.2427C119.186 30.8989 120.217 30.7271 121.344 30.7271C122.471 30.7271 123.502 30.8989 124.419 31.2427C125.355 31.5864 126.138 32.0448 126.787 32.6559C127.436 33.2479 127.952 33.9545 128.315 34.7566C128.678 35.5396 128.849 36.4181 128.849 37.3538ZM125.412 37.3538C125.412 36.7045 125.316 36.1316 125.125 35.616C124.935 35.1003 124.667 34.6611 124.323 34.3173C123.98 33.9545 123.54 33.6871 123.044 33.4962C122.547 33.3052 121.955 33.2097 121.325 33.2097C120.676 33.2097 120.103 33.3052 119.587 33.4962C119.072 33.6871 118.651 33.9545 118.308 34.3173C117.964 34.6802 117.697 35.1194 117.506 35.616C117.315 36.1316 117.219 36.7045 117.219 37.3538C117.219 38.0031 117.315 38.5761 117.506 39.0917C117.697 39.6073 117.964 40.0465 118.308 40.3903C118.651 40.7531 119.091 41.0205 119.587 41.2115C120.084 41.4025 120.676 41.4979 121.325 41.4979C121.974 41.4979 122.547 41.4025 123.044 41.2115C123.54 41.0205 123.98 40.7531 124.323 40.3903C124.667 40.0274 124.935 39.6073 125.125 39.0917C125.316 38.5761 125.412 38.0031 125.412 37.3538Z" fill="#1D2D31"/>
<path d="M134.311 39.0355V43.848H130.95V30.8618H135.667C136.717 30.8618 137.615 30.9573 138.359 31.1483C139.104 31.3392 139.696 31.6066 140.174 31.9504C140.651 32.2941 140.976 32.6952 141.186 33.1726C141.396 33.65 141.511 34.1466 141.511 34.7004C141.511 35.1205 141.453 35.5216 141.32 35.9035C141.186 36.2855 141.014 36.6292 140.766 36.9348C140.517 37.2594 140.212 37.5459 139.849 37.7942C139.486 38.0424 139.066 38.2525 138.608 38.4053C138.837 38.5007 139.047 38.6344 139.238 38.7872C139.429 38.94 139.601 39.1119 139.754 39.3219L142.847 43.848H139.792C139.219 43.848 138.818 43.657 138.57 43.2751L136.144 39.5129C136.03 39.341 135.915 39.2264 135.762 39.1501C135.629 39.0737 135.418 39.0355 135.151 39.0355H134.311ZM134.311 36.973H135.667C136.125 36.973 136.507 36.9157 136.832 36.8202C137.156 36.7247 137.424 36.5719 137.615 36.3809C137.825 36.19 137.978 35.9799 138.073 35.7316C138.168 35.4834 138.207 35.216 138.207 34.9296C138.207 34.3566 137.997 33.9174 137.576 33.5927C137.156 33.2681 136.526 33.1153 135.648 33.1153H134.292V36.973H134.311Z" fill="#1D2D31"/>
<path d="M148.08 36.1136H148.615C149.111 36.1136 149.474 35.98 149.684 35.6935L152.95 31.4539C153.122 31.2247 153.332 31.0719 153.561 30.9765C153.79 30.9001 154.076 30.8428 154.401 30.8428H157.342L153.045 36.0945C152.892 36.2855 152.74 36.4383 152.568 36.572C152.396 36.7057 152.224 36.8011 152.052 36.8775C152.3 36.9539 152.53 37.0685 152.74 37.2213C152.95 37.3741 153.141 37.565 153.313 37.8133L157.705 43.8481H154.688C154.497 43.8481 154.325 43.829 154.191 43.8099C154.057 43.7908 153.943 43.7526 153.828 43.6953C153.733 43.6571 153.637 43.5807 153.561 43.5234C153.484 43.447 153.427 43.3706 153.351 43.2942L150.085 38.7682C149.971 38.5963 149.818 38.4817 149.627 38.4244C149.436 38.348 149.188 38.3289 148.882 38.3289H148.061V43.8672H144.7V30.881H148.061V36.1136H148.08Z" fill="#1D2D31"/>
</svg>
