<svg width="122" height="47" viewBox="0 0 122 47" fill="none" xmlns="http://www.w3.org/2000/svg">
<g opacity="0.8">
<path d="M4.32293 16.5117H1.06177V0.269213H4.37349V6.68544C4.67686 6.26667 5.15718 5.9152 5.81447 5.63103C6.48861 5.3319 7.26387 5.18234 8.14026 5.18234C9.90988 5.18234 11.3087 5.72077 12.3368 6.79761C13.3649 7.87446 13.8789 9.25792 13.8789 10.948C13.8789 12.638 13.3396 14.0364 12.2609 15.1432C11.1823 16.235 9.76663 16.7809 8.01386 16.7809C6.31165 16.7809 5.08134 16.2425 4.32293 15.1656V16.5117ZM9.6318 13.2811C10.2217 12.7128 10.5166 11.9426 10.5166 10.9704C10.5166 9.99825 10.2217 9.23548 9.6318 8.6821C9.05878 8.12872 8.32565 7.85203 7.43241 7.85203C6.53917 7.85203 5.79762 8.12872 5.20774 8.6821C4.61787 9.23548 4.32293 9.99825 4.32293 10.9704C4.32293 11.9426 4.61787 12.7128 5.20774 13.2811C5.81447 13.8345 6.55603 14.1112 7.43241 14.1112C8.32565 14.1112 9.05878 13.8345 9.6318 13.2811Z" fill="black"/>
<path d="M24.6319 16.5117C24.5645 16.2126 24.5308 15.8162 24.5308 15.3227C24.2106 15.8162 23.7302 16.1901 23.0898 16.4444C22.4662 16.6837 21.8005 16.8033 21.0927 16.8033C19.6264 16.8033 18.4719 16.392 17.6293 15.5695C16.7866 14.7319 16.3652 13.6924 16.3652 12.4511V5.47399H19.7275V11.8453C19.7275 12.5034 19.9213 13.0418 20.309 13.4606C20.6966 13.8644 21.2612 14.0663 22.0028 14.0663C22.7275 14.0663 23.3005 13.8719 23.7218 13.4831C24.1432 13.0792 24.3538 12.5483 24.3538 11.8902V5.47399H27.7161V14.515C27.7161 15.218 27.7582 15.8835 27.8425 16.5117H24.6319Z" fill="black"/>
<path d="M34.6666 16.5117H31.3043V5.47399H34.6666V16.5117ZM30.8998 1.86205C30.8998 1.35354 31.1021 0.91981 31.5066 0.56086C31.9111 0.186953 32.3998 0 32.9728 0C33.5458 0 34.0346 0.179475 34.4391 0.538426C34.8436 0.897376 35.0458 1.33858 35.0458 1.86205C35.0458 2.35561 34.8436 2.78186 34.4391 3.14081C34.0346 3.49976 33.5458 3.67924 32.9728 3.67924C32.3998 3.67924 31.9111 3.49976 31.5066 3.14081C31.1021 2.78186 30.8998 2.35561 30.8998 1.86205Z" fill="black"/>
<path d="M41.6286 16.5117H38.2663V0.269213H41.6286V16.5117Z" fill="black"/>
<path d="M49.3742 2.17613V5.47399H51.877V8.12124H49.3742V12.7427C49.3742 13.2064 49.4922 13.5354 49.7281 13.7298C49.9641 13.9243 50.3349 14.0215 50.8405 14.0215C51.2955 14.0215 51.641 13.9916 51.877 13.9317V16.3995C51.3882 16.579 50.7562 16.6687 49.9809 16.6687C48.7675 16.6687 47.8068 16.3696 47.099 15.7714C46.3911 15.1582 46.0372 14.3206 46.0372 13.2587V8.12124H43.7873V5.47399H44.4193C45.0429 5.47399 45.5148 5.31695 45.835 5.00287C46.172 4.67383 46.3406 4.24757 46.3406 3.72411V2.17613H49.3742Z" fill="black"/>
<path d="M64.242 13.3036C64.8656 13.857 65.6156 14.1337 66.4919 14.1337C67.3683 14.1337 68.1099 13.857 68.7166 13.3036C69.3402 12.7502 69.652 11.98 69.652 10.9928C69.652 10.0057 69.3402 9.23548 68.7166 8.6821C68.1099 8.12872 67.3683 7.85203 66.4919 7.85203C65.6156 7.85203 64.8656 8.12872 64.242 8.6821C63.6353 9.23548 63.3319 10.0057 63.3319 10.9928C63.3319 11.98 63.6353 12.7502 64.242 13.3036ZM61.8151 6.79761C63.0623 5.69085 64.6212 5.13747 66.4919 5.13747C68.3627 5.13747 69.9132 5.69085 71.1435 6.79761C72.3907 7.90438 73.0143 9.30279 73.0143 10.9928C73.0143 12.6829 72.3907 14.0813 71.1435 15.1881C69.9132 16.2948 68.3627 16.8482 66.4919 16.8482C64.6212 16.8482 63.0623 16.2948 61.8151 15.1881C60.5848 14.0813 59.9696 12.6829 59.9696 10.9928C59.9696 9.30279 60.5848 7.90438 61.8151 6.79761Z" fill="black"/>
<path d="M79.0306 10.1628V16.5117H75.6683V5.47399H78.9295V6.84248C79.2834 6.30406 79.789 5.89276 80.4463 5.60859C81.1036 5.32442 81.7946 5.18234 82.5193 5.18234C83.9855 5.18234 85.0979 5.59364 85.8563 6.41623C86.6315 7.22387 87.0192 8.2708 87.0192 9.55704V16.5117H83.6569V10.073C83.6569 9.41496 83.4631 8.88401 83.0754 8.48019C82.7047 8.07637 82.1316 7.87446 81.3564 7.87446C80.6485 7.87446 80.0839 8.09133 79.6626 8.52506C79.2412 8.95879 79.0306 9.5047 79.0306 10.1628Z" fill="black"/>
<path d="M0 41.4811L2.88196 40.9203C2.91566 41.3989 3.12633 41.8027 3.51396 42.1317C3.91845 42.4458 4.46619 42.6029 5.15718 42.6029C5.67964 42.6029 6.08413 42.4982 6.37064 42.2888C6.65715 42.0794 6.8004 41.8177 6.8004 41.5036C6.8004 40.9502 6.35378 40.5913 5.46055 40.4267L3.81733 40.0902C2.65443 39.8659 1.77805 39.4621 1.18817 38.8788C0.615154 38.2955 0.328644 37.6 0.328644 36.7924C0.328644 35.7903 0.766836 34.9378 1.64322 34.2348C2.53646 33.5319 3.64879 33.1804 4.98022 33.1804C5.8229 33.1804 6.56445 33.2926 7.20489 33.5169C7.84532 33.7263 8.3425 34.003 8.69643 34.347C9.05035 34.6761 9.32001 35.0126 9.5054 35.3566C9.69078 35.7006 9.80876 36.0371 9.85932 36.3661L7.05321 36.927C6.98579 36.5381 6.78355 36.1941 6.44648 35.895C6.12626 35.5959 5.64594 35.4463 5.0055 35.4463C4.56731 35.4463 4.1881 35.551 3.86789 35.7604C3.56452 35.9698 3.41284 36.2315 3.41284 36.5456C3.41284 37.084 3.79205 37.4131 4.55046 37.5327L6.32008 37.8692C7.51668 38.0936 8.42677 38.5049 9.05035 39.1031C9.69078 39.7014 10.011 40.4193 10.011 41.2568C10.011 42.2439 9.58966 43.0964 8.74699 43.8143C7.90431 44.5322 6.71614 44.8912 5.18246 44.8912C4.30608 44.8912 3.52239 44.779 2.83139 44.5547C2.1404 44.3154 1.60109 44.0162 1.21345 43.6573C0.842677 43.2834 0.556167 42.9169 0.353924 42.558C0.168535 42.1841 0.0505606 41.8251 0 41.4811Z" fill="black"/>
<path d="M20.7559 44.5547C20.6885 44.2555 20.6548 43.8592 20.6548 43.3656C20.3346 43.8592 19.8543 44.2331 19.2138 44.4874C18.5902 44.7267 17.9245 44.8463 17.2167 44.8463C15.7504 44.8463 14.596 44.435 13.7533 43.6124C12.9106 42.7749 12.4893 41.7354 12.4893 40.494V33.5169H15.8515V39.8883C15.8515 40.5464 16.0454 41.0848 16.433 41.5036C16.8206 41.9074 17.3852 42.1093 18.1268 42.1093C18.8515 42.1093 19.4245 41.9149 19.8458 41.526C20.2672 41.1222 20.4778 40.5913 20.4778 39.9332V33.5169H23.8401V42.558C23.8401 43.2609 23.8823 43.9265 23.9665 44.5547H20.7559Z" fill="black"/>
<path d="M30.6895 44.5547H27.4283V28.3122H30.7401V34.7284C31.0434 34.3096 31.5238 33.9582 32.181 33.674C32.8552 33.3749 33.6304 33.2253 34.5068 33.2253C36.2765 33.2253 37.6753 33.7637 38.7034 34.8406C39.7314 35.9174 40.2455 37.3009 40.2455 38.9909C40.2455 40.681 39.7061 42.0794 38.6275 43.1862C37.5489 44.278 36.1332 44.8239 34.3804 44.8239C32.6782 44.8239 31.4479 44.2854 30.6895 43.2086V44.5547ZM35.9984 41.3241C36.5882 40.7558 36.8832 39.9855 36.8832 39.0134C36.8832 38.0412 36.5882 37.2784 35.9984 36.7251C35.4253 36.1717 34.6922 35.895 33.799 35.895C32.9057 35.895 32.1642 36.1717 31.5743 36.7251C30.9844 37.2784 30.6895 38.0412 30.6895 39.0134C30.6895 39.9855 30.9844 40.7558 31.5743 41.3241C32.181 41.8775 32.9226 42.1542 33.799 42.1542C34.6922 42.1542 35.4253 41.8775 35.9984 41.3241Z" fill="black"/>
<path d="M41.8458 41.4811L44.7278 40.9203C44.7615 41.3989 44.9721 41.8027 45.3598 42.1317C45.7643 42.4458 46.312 42.6029 47.003 42.6029C47.5255 42.6029 47.9299 42.4982 48.2165 42.2888C48.503 42.0794 48.6462 41.8177 48.6462 41.5036C48.6462 40.9502 48.1996 40.5913 47.3064 40.4267L45.6631 40.0902C44.5003 39.8659 43.6239 39.4621 43.034 38.8788C42.461 38.2955 42.1745 37.6 42.1745 36.7924C42.1745 35.7903 42.6127 34.9378 43.489 34.2348C44.3823 33.5319 45.4946 33.1804 46.826 33.1804C47.6687 33.1804 48.4103 33.2926 49.0507 33.5169C49.6911 33.7263 50.1883 34.003 50.5422 34.347C50.8962 34.6761 51.1658 35.0126 51.3512 35.3566C51.5366 35.7006 51.6546 36.0371 51.7051 36.3661L48.899 36.927C48.8316 36.5381 48.6294 36.1941 48.2923 35.895C47.9721 35.5959 47.4918 35.4463 46.8513 35.4463C46.4131 35.4463 46.0339 35.551 45.7137 35.7604C45.4103 35.9698 45.2587 36.2315 45.2587 36.5456C45.2587 37.084 45.6379 37.4131 46.3963 37.5327L48.1659 37.8692C49.3625 38.0936 50.2726 38.5049 50.8962 39.1031C51.5366 39.7014 51.8568 40.4193 51.8568 41.2568C51.8568 42.2439 51.4355 43.0964 50.5928 43.8143C49.7501 44.5322 48.562 44.8912 47.0283 44.8912C46.1519 44.8912 45.3682 44.779 44.6772 44.5547C43.9862 44.3154 43.4469 44.0162 43.0593 43.6573C42.6885 43.2834 42.402 42.9169 42.1997 42.558C42.0144 42.1841 41.8964 41.8251 41.8458 41.4811Z" fill="black"/>
<path d="M58.7062 30.2191V33.5169H61.209V36.1642H58.7062V40.7857C58.7062 41.2493 58.8242 41.5784 59.0601 41.7728C59.2961 41.9672 59.6669 42.0644 60.1725 42.0644C60.6275 42.0644 60.973 42.0345 61.209 41.9747V44.4425C60.7202 44.622 60.0882 44.7117 59.3129 44.7117C58.0995 44.7117 57.1388 44.4126 56.431 43.8143C55.7231 43.2011 55.3692 42.3636 55.3692 41.3017V36.1642H53.1193V33.5169H53.7513C54.3748 33.5169 54.8467 33.3599 55.167 33.0458C55.504 32.7168 55.6726 32.2905 55.6726 31.7671V30.2191H58.7062Z" fill="black"/>
<path d="M71.4763 33.4721V36.4783C71.1392 36.4185 70.8022 36.3885 70.4651 36.3885C69.5044 36.3885 68.7292 36.6353 68.1393 37.1289C67.5494 37.6075 67.2545 38.4002 67.2545 39.5069V44.5547H63.8922V33.5169H67.1534V35.1547C67.7601 34.003 68.9398 33.4272 70.6926 33.4272C70.878 33.4272 71.1392 33.4422 71.4763 33.4721Z" fill="black"/>
<path d="M73.1571 41.5485C73.1571 40.6062 73.5026 39.8509 74.1936 39.2826C74.8845 38.7142 75.7778 38.3553 76.8733 38.2057L79.9322 37.8019C80.5558 37.7271 80.8675 37.4654 80.8675 37.0167C80.8675 36.5979 80.6822 36.2539 80.3114 35.9847C79.9575 35.7155 79.4434 35.5809 78.7693 35.5809C78.0614 35.5809 77.4968 35.7529 77.0755 36.0969C76.671 36.4409 76.4435 36.8671 76.3929 37.3757L73.4099 36.8148C73.5278 35.8576 74.0587 35.0126 75.0025 34.2797C75.9463 33.5469 77.1935 33.1804 78.744 33.1804C80.5979 33.1804 81.963 33.5768 82.8394 34.3695C83.7158 35.1472 84.154 36.1492 84.154 37.3757V42.8048C84.154 43.4628 84.2046 44.0461 84.3057 44.5547H81.2215C81.1372 44.2256 81.0951 43.7844 81.0951 43.231C80.303 44.3228 79.0811 44.8687 77.4294 44.8687C76.1486 44.8687 75.1121 44.5397 74.3199 43.8816C73.5447 43.2236 73.1571 42.4458 73.1571 41.5485ZM78.1373 42.6477C78.9294 42.6477 79.5783 42.4533 80.0839 42.0644C80.6063 41.6606 80.8675 41.0025 80.8675 40.0902V39.5967L78.0614 39.978C77.0334 40.1127 76.5193 40.5763 76.5193 41.369C76.5193 41.7279 76.6626 42.0345 76.9491 42.2888C77.2356 42.5281 77.6317 42.6477 78.1373 42.6477Z" fill="black"/>
<path d="M91.615 30.2191V33.5169H94.1178V36.1642H91.615V40.7857C91.615 41.2493 91.733 41.5784 91.969 41.7728C92.2049 41.9672 92.5757 42.0644 93.0813 42.0644C93.5363 42.0644 93.8818 42.0345 94.1178 41.9747V44.4425C93.629 44.622 92.997 44.7117 92.2218 44.7117C91.0083 44.7117 90.0477 44.4126 89.3398 43.8143C88.632 43.2011 88.278 42.3636 88.278 41.3017V36.1642H86.0281V33.5169H86.6601C87.2837 33.5169 87.7556 33.3599 88.0758 33.0458C88.4129 32.7168 88.5814 32.2905 88.5814 31.7671V30.2191H91.615Z" fill="black"/>
<path d="M99.3026 37.7795H104.864C104.831 37.1663 104.578 36.6503 104.106 36.2315C103.651 35.8127 102.977 35.6033 102.083 35.6033C101.274 35.6033 100.617 35.8277 100.112 36.2764C99.606 36.7251 99.3363 37.2261 99.3026 37.7795ZM105.193 40.6511L107.999 41.3914C107.662 42.4084 106.996 43.246 106.002 43.9041C105.024 44.5621 103.803 44.8912 102.336 44.8912C100.55 44.8912 99.033 44.3602 97.7858 43.2983C96.5386 42.2215 95.9151 40.7857 95.9151 38.9909C95.9151 37.2859 96.5218 35.895 97.7352 34.8181C98.9487 33.7263 100.381 33.1804 102.033 33.1804C103.954 33.1804 105.454 33.6889 106.533 34.706C107.628 35.723 108.176 37.1214 108.176 38.9012C108.176 39.0208 108.168 39.1555 108.151 39.305C108.151 39.4546 108.151 39.5742 108.151 39.664L108.125 39.821H99.2268C99.2605 40.5389 99.5807 41.1372 100.187 41.6158C100.794 42.0944 101.519 42.3337 102.362 42.3337C103.794 42.3337 104.738 41.7728 105.193 40.6511Z" fill="black"/>
<path d="M122 47H109.082V44.5547H122V47Z" fill="black"/>
</g>
</svg>
