<svg width="538" height="421" viewBox="0 0 538 421" fill="none" xmlns="http://www.w3.org/2000/svg">
<path d="M538 192.053L347.61 309.42L71.6449 270.961L0 116.461L192.761 0.419922L458.395 38.8791L538 192.053Z" fill="#172026"/>
<path d="M97.8617 120.979L104.831 134.52L87.9195 144.848L63.6094 141.39L56.6569 127.849L73.5686 117.52L97.8617 120.979Z" fill="url(#paint0_linear)" stroke="#E11B7B"/>
<path d="M56 127.664V275.375L63.2654 292.024L63.2828 141.848L56 127.664Z" fill="url(#paint1_linear)"/>
<path d="M63.2827 141.848V293.076L88.0268 298V145.368L63.2827 141.848Z" fill="url(#paint2_linear)"/>
<path d="M105.488 134.704L88.0269 145.368L88.0269 296.162L105.488 280.071V134.704Z" fill="url(#paint3_linear)"/>
<path d="M140.862 215.979L147.831 229.52L130.919 239.848L106.609 236.39L99.6569 222.849L116.569 212.52L140.862 215.979Z" fill="url(#paint4_linear)" stroke="#E11B7B"/>
<path d="M99 222.664V370.375L106.265 387.024L106.283 236.848L99 222.664Z" fill="url(#paint5_linear)"/>
<path d="M106.283 236.848V388.076L131.027 393V240.368L106.283 236.848Z" fill="url(#paint6_linear)"/>
<path d="M148.488 229.704L131.027 240.368L131.027 391.162L148.488 375.071V229.704Z" fill="url(#paint7_linear)"/>
<path d="M226.862 39.9786L233.831 53.5196L216.919 63.8478L192.609 60.3895L185.657 46.8487L202.569 36.5203L226.862 39.9786Z" fill="url(#paint8_linear)" stroke="#E11B7B"/>
<path d="M185 46.6641V194.375L192.265 211.024L192.283 60.8481L185 46.6641Z" fill="url(#paint9_linear)"/>
<path d="M192.283 60.8481V212.076L217.027 217V64.3681L192.283 60.8481Z" fill="url(#paint10_linear)"/>
<path d="M234.488 53.7041L217.027 64.3682L217.027 215.162L234.488 199.071V53.7041Z" fill="url(#paint11_linear)"/>
<path d="M428.862 64.9786L435.831 78.5196L418.919 88.8478L394.609 85.3895L387.657 71.8487L404.569 61.5203L428.862 64.9786Z" fill="url(#paint12_linear)" stroke="#E11B7B"/>
<path d="M387 71.6641V219.375L394.265 236.024L394.283 85.8481L387 71.6641Z" fill="url(#paint13_linear)"/>
<path d="M394.283 85.8481V237.076L419.027 242V89.3681L394.283 85.8481Z" fill="url(#paint14_linear)"/>
<path d="M436.488 78.7041L419.027 89.3682L419.027 240.162L436.488 224.071V78.7041Z" fill="url(#paint15_linear)"/>
<path d="M477.862 164.979L484.831 178.52L467.919 188.848L443.609 185.39L436.657 171.849L453.569 161.52L477.862 164.979Z" fill="url(#paint16_linear)" stroke="#E11B7B"/>
<path d="M436 171.664V319.375L443.265 336.024L443.283 185.848L436 171.664Z" fill="url(#paint17_linear)"/>
<path d="M443.283 185.848V337.076L468.027 342V189.368L443.283 185.848Z" fill="url(#paint18_linear)"/>
<path d="M485.488 178.704L468.027 189.368L468.027 340.162L485.488 324.071V178.704Z" fill="url(#paint19_linear)"/>
<path d="M337.862 243.979L344.831 257.52L327.919 267.848L303.609 264.39L296.657 250.849L313.569 240.52L337.862 243.979Z" fill="url(#paint20_linear)" stroke="#E11B7B"/>
<path d="M296 250.664V398.375L303.265 415.024L303.283 264.848L296 250.664Z" fill="url(#paint21_linear)"/>
<path d="M303.283 264.848V416.076L328.027 421V268.368L303.283 264.848Z" fill="url(#paint22_linear)"/>
<path d="M345.488 257.704L328.027 268.368L328.027 419.162L345.488 403.071V257.704Z" fill="url(#paint23_linear)"/>
<path d="M115 332L115 279" stroke="url(#paint24_linear)" stroke-width="3" stroke-linecap="round"/>
<path d="M325 353L325 322" stroke="url(#paint25_linear)" stroke-width="3" stroke-linecap="round"/>
<path d="M452 271L452 240" stroke="url(#paint26_linear)" stroke-width="3" stroke-linecap="round"/>
<path opacity="0.6" d="M133 368L133 336" stroke="url(#paint27_linear)" stroke-width="3" stroke-linecap="round"/>
<path d="M514 186.899L330.635 291L82.9628 257.167L23 122.703L198.022 16L445.347 48.9653L514 186.899Z" fill="#FB822A" fill-opacity="0.1"/>
<path d="M444.359 50.3469L512.024 186.296L330.336 289.445L83.9928 255.794L24.9073 123.297L198.35 17.557L444.359 50.3469Z" stroke="url(#paint28_linear)" stroke-opacity="0.3" stroke-width="3"/>
<defs>
<linearGradient id="paint0_linear" x1="80.7441" y1="117" x2="80.7441" y2="145.368" gradientUnits="userSpaceOnUse">
<stop/>
<stop offset="1" stop-opacity="0"/>
</linearGradient>
<linearGradient id="paint1_linear" x1="59.6414" y1="127.664" x2="59.6414" y2="292.024" gradientUnits="userSpaceOnUse">
<stop/>
<stop offset="1" stop-opacity="0"/>
</linearGradient>
<linearGradient id="paint2_linear" x1="75.6367" y1="111.451" x2="75.6548" y2="298" gradientUnits="userSpaceOnUse">
<stop stop-color="#172026"/>
<stop offset="1" stop-opacity="0"/>
</linearGradient>
<linearGradient id="paint3_linear" x1="96.9812" y1="140.052" x2="96.7575" y2="296.162" gradientUnits="userSpaceOnUse">
<stop/>
<stop offset="1" stop-opacity="0"/>
</linearGradient>
<linearGradient id="paint4_linear" x1="123.744" y1="212" x2="123.744" y2="240.368" gradientUnits="userSpaceOnUse">
<stop/>
<stop offset="1" stop-opacity="0"/>
</linearGradient>
<linearGradient id="paint5_linear" x1="102.641" y1="222.664" x2="102.641" y2="387.024" gradientUnits="userSpaceOnUse">
<stop/>
<stop offset="1" stop-opacity="0"/>
</linearGradient>
<linearGradient id="paint6_linear" x1="118.637" y1="206.451" x2="118.655" y2="393" gradientUnits="userSpaceOnUse">
<stop stop-color="#172026"/>
<stop offset="1" stop-opacity="0"/>
</linearGradient>
<linearGradient id="paint7_linear" x1="139.981" y1="235.052" x2="139.758" y2="391.162" gradientUnits="userSpaceOnUse">
<stop/>
<stop offset="1" stop-opacity="0"/>
</linearGradient>
<linearGradient id="paint8_linear" x1="209.744" y1="36" x2="209.744" y2="64.3681" gradientUnits="userSpaceOnUse">
<stop/>
<stop offset="1" stop-opacity="0"/>
</linearGradient>
<linearGradient id="paint9_linear" x1="188.641" y1="46.6641" x2="188.641" y2="211.024" gradientUnits="userSpaceOnUse">
<stop/>
<stop offset="1" stop-opacity="0"/>
</linearGradient>
<linearGradient id="paint10_linear" x1="204.637" y1="30.4506" x2="204.655" y2="217" gradientUnits="userSpaceOnUse">
<stop stop-color="#172026"/>
<stop offset="1" stop-opacity="0"/>
</linearGradient>
<linearGradient id="paint11_linear" x1="225.981" y1="59.0519" x2="225.758" y2="215.162" gradientUnits="userSpaceOnUse">
<stop/>
<stop offset="1" stop-opacity="0"/>
</linearGradient>
<linearGradient id="paint12_linear" x1="411.744" y1="61" x2="411.744" y2="89.3681" gradientUnits="userSpaceOnUse">
<stop/>
<stop offset="1" stop-opacity="0"/>
</linearGradient>
<linearGradient id="paint13_linear" x1="390.641" y1="71.6641" x2="390.641" y2="236.024" gradientUnits="userSpaceOnUse">
<stop/>
<stop offset="1" stop-opacity="0"/>
</linearGradient>
<linearGradient id="paint14_linear" x1="406.637" y1="55.4506" x2="406.655" y2="242" gradientUnits="userSpaceOnUse">
<stop stop-color="#172026"/>
<stop offset="1" stop-opacity="0"/>
</linearGradient>
<linearGradient id="paint15_linear" x1="427.981" y1="84.0519" x2="427.758" y2="240.162" gradientUnits="userSpaceOnUse">
<stop/>
<stop offset="1" stop-opacity="0"/>
</linearGradient>
<linearGradient id="paint16_linear" x1="460.744" y1="161" x2="460.744" y2="189.368" gradientUnits="userSpaceOnUse">
<stop/>
<stop offset="1" stop-opacity="0"/>
</linearGradient>
<linearGradient id="paint17_linear" x1="439.641" y1="171.664" x2="439.641" y2="336.024" gradientUnits="userSpaceOnUse">
<stop/>
<stop offset="1" stop-opacity="0"/>
</linearGradient>
<linearGradient id="paint18_linear" x1="455.637" y1="155.451" x2="455.655" y2="342" gradientUnits="userSpaceOnUse">
<stop stop-color="#172026"/>
<stop offset="1" stop-opacity="0"/>
</linearGradient>
<linearGradient id="paint19_linear" x1="476.981" y1="184.052" x2="476.758" y2="340.162" gradientUnits="userSpaceOnUse">
<stop/>
<stop offset="1" stop-opacity="0"/>
</linearGradient>
<linearGradient id="paint20_linear" x1="320.744" y1="240" x2="320.744" y2="268.368" gradientUnits="userSpaceOnUse">
<stop/>
<stop offset="1" stop-opacity="0"/>
</linearGradient>
<linearGradient id="paint21_linear" x1="299.641" y1="250.664" x2="299.641" y2="415.024" gradientUnits="userSpaceOnUse">
<stop/>
<stop offset="1" stop-opacity="0"/>
</linearGradient>
<linearGradient id="paint22_linear" x1="315.637" y1="234.451" x2="315.655" y2="421" gradientUnits="userSpaceOnUse">
<stop stop-color="#172026"/>
<stop offset="1" stop-opacity="0"/>
</linearGradient>
<linearGradient id="paint23_linear" x1="336.981" y1="263.052" x2="336.758" y2="419.162" gradientUnits="userSpaceOnUse">
<stop/>
<stop offset="1" stop-opacity="0"/>
</linearGradient>
<linearGradient id="paint24_linear" x1="115.5" y1="279" x2="115.5" y2="332" gradientUnits="userSpaceOnUse">
<stop stop-color="#FB822A"/>
<stop offset="1" stop-color="#E11B7B" stop-opacity="0"/>
</linearGradient>
<linearGradient id="paint25_linear" x1="325.5" y1="322" x2="325.5" y2="353" gradientUnits="userSpaceOnUse">
<stop stop-color="#FB822A"/>
<stop offset="1" stop-color="#E11B7B" stop-opacity="0"/>
</linearGradient>
<linearGradient id="paint26_linear" x1="452.5" y1="240" x2="452.5" y2="271" gradientUnits="userSpaceOnUse">
<stop stop-color="#FB822A"/>
<stop offset="1" stop-color="#E11B7B" stop-opacity="0"/>
</linearGradient>
<linearGradient id="paint27_linear" x1="133.5" y1="336" x2="133.5" y2="368" gradientUnits="userSpaceOnUse">
<stop stop-color="#FB822A"/>
<stop offset="1" stop-color="#E11B7B" stop-opacity="0"/>
</linearGradient>
<linearGradient id="paint28_linear" x1="108" y1="219.58" x2="459.5" y2="15.5803" gradientUnits="userSpaceOnUse">
<stop stop-color="#FB822A"/>
<stop offset="1" stop-color="#FB822A" stop-opacity="0.37"/>
</linearGradient>
</defs>
</svg>
