<svg width="204" height="276" viewBox="0 0 204 276" fill="none" xmlns="http://www.w3.org/2000/svg">
<path d="M192.587 24.84L18.2314 0L0.148682 9.70759L52.779 108.782L84.9473 113.35L203.151 45.2069L192.587 24.84Z" fill="url(#paint0_linear)"/>
<path d="M178.597 33.7864L25.8452 11.4209L18.2314 16.1795L61.9403 92.864L85.1654 96.1243L181.928 42.3519L178.597 33.7864Z" fill="url(#paint1_linear)"/>
<path d="M176 37L27 14.5L23 17L66.9156 87.1902L87.0624 90L177.5 41L176 37Z" fill="url(#paint2_linear)"/>
<path d="M21.0868 14.2756L23.4661 12.848L11.0937 3.80664L8.71436 5.23423L21.0868 14.2756Z" fill="#FDE22B"/>
<path d="M180.501 39.0212L179.549 36.166L196.68 32.835L198.107 35.2143L180.501 39.0212Z" fill="#FC882B"/>
<path d="M0.148682 9.70801V172.358L52.779 271.337V108.783L0.148682 9.70801Z" fill="url(#paint3_linear)"/>
<path d="M52.7791 108.782L84.9473 113.35V276L52.7791 271.337V108.782Z" fill="url(#paint4_linear)"/>
<path d="M203.151 45.207L84.9473 113.351V276L203.151 207.857V45.207Z" fill="url(#paint5_linear)"/>
<path d="M65.3418 110.4L71.0521 94.2207L75.8108 94.6966L72.4797 111.352L72.0039 141.331L65.3418 140.379V110.4Z" fill="#FCB02B"/>
<path fill-rule="evenodd" clip-rule="evenodd" d="M172 141.67C172 140.735 171.844 139.956 171.454 139.41C171.143 138.864 170.675 138.475 170.052 138.163C169.506 138.007 168.882 137.929 168.181 138.085C167.479 138.241 166.778 138.553 165.999 138.942C165.219 139.41 164.518 140.033 163.816 140.735C163.115 141.436 162.569 142.216 162.179 142.995V141.203L159.452 142.761L159.685 160.298L162.413 158.739L162.335 151.569C162.725 151.881 163.271 151.958 163.972 151.881C164.674 151.803 165.453 151.491 166.232 151.023C166.934 150.556 167.635 150.088 168.337 149.386C169.038 148.685 169.662 147.983 170.207 147.126C170.753 146.269 171.221 145.411 171.532 144.476C171.844 143.541 172 142.606 172 141.67ZM169.272 143.151C169.272 143.697 169.194 144.164 169.038 144.71C168.882 145.256 168.649 145.801 168.337 146.347C168.025 146.892 167.713 147.282 167.246 147.75C166.778 148.217 166.31 148.529 165.843 148.841C165.375 149.153 164.907 149.308 164.44 149.386C164.05 149.386 163.66 149.386 163.349 149.231C163.037 149.075 162.725 148.841 162.569 148.529C162.335 148.139 162.257 147.75 162.257 147.282C162.257 146.814 162.335 146.347 162.491 145.801C162.647 145.256 162.881 144.71 163.193 144.242C163.504 143.697 163.816 143.229 164.284 142.839C164.674 142.372 165.141 142.06 165.687 141.748C166.154 141.436 166.622 141.281 167.09 141.203H168.181C168.493 141.358 168.804 141.592 168.96 141.904C169.194 142.216 169.272 142.683 169.272 143.151ZM158.438 149.387C158.438 148.451 158.204 147.672 157.893 147.126C157.581 146.581 157.113 146.191 156.568 145.957C156.022 145.801 155.398 145.723 154.697 145.879C153.996 146.035 153.294 146.347 152.515 146.737C151.657 147.204 150.956 147.828 150.254 148.529C149.553 149.231 149.007 150.01 148.618 150.789V148.997L145.89 150.556L146.123 168.014L148.851 166.456L148.773 159.285C149.163 159.597 149.709 159.675 150.41 159.597C151.112 159.519 151.891 159.207 152.671 158.739C153.372 158.35 154.073 157.804 154.775 157.103C155.476 156.401 156.1 155.7 156.646 154.842C157.191 153.985 157.659 153.128 157.971 152.192C158.282 151.257 158.438 150.322 158.438 149.387ZM155.71 150.945C155.71 151.491 155.632 151.959 155.476 152.504C155.321 153.05 155.087 153.517 154.697 154.141C154.385 154.687 154.073 155.076 153.606 155.544C153.138 156.012 152.671 156.323 152.203 156.635C151.735 156.947 151.268 157.103 150.8 157.181C150.41 157.181 150.021 157.181 149.709 157.025C149.397 156.869 149.085 156.635 148.929 156.323C148.696 156.012 148.618 155.544 148.618 155.076C148.618 154.609 148.696 154.141 148.851 153.595C149.007 153.05 149.241 152.504 149.553 152.037C149.865 151.491 150.254 151.023 150.644 150.634C151.034 150.166 151.501 149.854 152.047 149.542C152.515 149.231 152.982 149.075 153.45 148.997C153.918 148.919 154.307 148.919 154.619 149.075C154.931 149.153 155.243 149.387 155.398 149.698C155.632 150.088 155.71 150.478 155.71 150.945ZM141.447 153.05L144.175 151.491L144.331 163.494L141.603 165.053V163.338C141.213 164.117 140.668 164.897 139.966 165.52C139.265 166.222 138.563 166.767 137.784 167.235C137.082 167.625 136.381 167.937 135.679 168.014C134.978 168.17 134.354 168.092 133.809 167.937C133.263 167.703 132.796 167.391 132.406 166.845C132.016 166.3 131.86 165.52 131.86 164.585C131.86 163.65 132.016 162.714 132.328 161.701C132.64 160.766 133.107 159.909 133.653 159.051C134.198 158.194 134.822 157.492 135.523 156.791C136.225 156.089 136.926 155.544 137.706 155.154C138.485 154.687 139.187 154.453 139.888 154.375C140.59 154.297 141.135 154.375 141.525 154.609L141.447 153.05ZM141.447 160.454C141.603 159.909 141.681 159.441 141.681 158.895C141.681 158.428 141.603 158.038 141.369 157.726C141.213 157.414 140.901 157.181 140.59 157.025C140.278 156.869 139.888 156.869 139.498 156.947C139.031 157.025 138.563 157.181 138.096 157.492C137.628 157.804 137.16 158.116 136.693 158.584C136.27 158.936 135.975 159.351 135.634 159.831L135.634 159.831C135.598 159.882 135.561 159.934 135.523 159.987C135.212 160.454 134.978 161 134.744 161.545C134.588 162.091 134.51 162.559 134.51 163.104C134.51 163.572 134.588 163.962 134.822 164.351C134.978 164.663 135.29 164.897 135.601 165.053C135.913 165.209 136.303 165.209 136.771 165.131C137.238 165.053 137.706 164.897 138.173 164.585C138.719 164.273 139.187 163.962 139.576 163.494C140.044 163.026 140.356 162.637 140.668 162.091C141.057 161.545 141.291 161 141.447 160.454ZM131.003 163.572C131.003 162.559 130.847 161.623 130.457 160.922C130.068 160.22 129.6 159.675 128.899 159.363C128.197 159.129 127.418 159.051 126.404 159.207C125.391 159.363 124.3 159.831 123.053 160.532L119 162.87L119.234 177.835L123.365 175.419C124.534 174.795 125.547 174.016 126.482 173.081C127.418 172.145 128.197 171.21 128.899 170.119C129.6 169.106 130.068 168.014 130.457 166.845C130.847 165.754 131.003 164.663 131.003 163.572ZM128.197 165.131C128.275 165.832 128.119 166.611 127.885 167.313C127.651 168.014 127.34 168.794 126.872 169.495C126.404 170.197 125.859 170.82 125.235 171.444C124.612 172.067 123.832 172.613 123.053 173.081L121.962 173.704L121.806 163.884L122.741 163.338C123.676 162.792 124.456 162.481 125.079 162.247C125.781 162.091 126.326 162.169 126.794 162.325C127.262 162.559 127.574 162.87 127.807 163.338C128.041 163.806 128.197 164.429 128.197 165.131Z" fill="url(#paint6_linear)"/>
<path d="M65.3418 149.896V146.565L72.0039 147.517V150.848L65.3418 149.896Z" fill="#FCB02B"/>
<path d="M65.3418 156.559V153.228L72.0039 154.179V157.51L65.3418 156.559Z" fill="#FCB02B"/>
<path d="M65.3418 250.779V247.448L72.0039 248.4V251.731L65.3418 250.779Z" fill="#FCB02B"/>
<path d="M65.3418 273.145V254.11L72.0039 255.062V274.097L65.3418 273.145Z" fill="#FCB02B"/>
<defs>
<linearGradient id="paint0_linear" x1="169.08" y1="79.9449" x2="0.148582" y2="9.99316" gradientUnits="userSpaceOnUse">
<stop stop-color="#F2F9F6"/>
<stop offset="1" stop-color="white"/>
</linearGradient>
<linearGradient id="paint1_linear" x1="145.908" y1="72.2834" x2="24.358" y2="21.366" gradientUnits="userSpaceOnUse">
<stop stop-color="#FB872A"/>
<stop offset="1" stop-color="#FCE22A"/>
</linearGradient>
<linearGradient id="paint2_linear" x1="139.754" y1="69.4532" x2="34.5204" y2="25.0828" gradientUnits="userSpaceOnUse">
<stop stop-color="#FCE22A"/>
<stop offset="1" stop-color="#FB872A"/>
</linearGradient>
<linearGradient id="paint3_linear" x1="40.1211" y1="50.4418" x2="0.148682" y2="216.042" gradientUnits="userSpaceOnUse">
<stop stop-color="#EBEDF3"/>
<stop offset="1" stop-color="#F4F2DB" stop-opacity="0.99"/>
</linearGradient>
<linearGradient id="paint4_linear" x1="68.8632" y1="108.782" x2="69.6245" y2="290.276" gradientUnits="userSpaceOnUse">
<stop stop-color="white"/>
<stop offset="1" stop-color="#F0E7BA"/>
</linearGradient>
<linearGradient id="paint5_linear" x1="143.859" y1="70.4277" x2="170.983" y2="264.579" gradientUnits="userSpaceOnUse">
<stop stop-color="#CCCAD1"/>
<stop offset="1" stop-color="#FFD074"/>
</linearGradient>
<linearGradient id="paint6_linear" x1="135.5" y1="134" x2="145.5" y2="177.835" gradientUnits="userSpaceOnUse">
<stop stop-color="#F1CF8F"/>
<stop offset="1" stop-color="white" stop-opacity="0"/>
</linearGradient>
</defs>
</svg>