<svg width="395" height="219" viewBox="0 0 395 219" fill="none" xmlns="http://www.w3.org/2000/svg">
<path d="M382 126L243.5 204.5L46.5 177L0 78.5666L128.786 0L332.5 25.5L382 126Z" fill="url(#paint0_linear)"/>
<path d="M359 113.44L239.716 181L70.0484 157.333L30 72.6172L140.918 5L316.368 26.9462L359 113.44Z" fill="url(#paint1_linear)" fill-opacity="0.5"/>
<path d="M355.5 73L148.18 190L66 36L355.5 73Z" fill="#FB9B2A"/>
<path d="M72.0162 8.95793L35.94 29.8124C33.3725 31.3057 33.3725 35.026 35.94 36.4932L72.383 57.531C76.3914 59.8365 81.343 59.8365 85.3253 57.5048L121.428 36.4146C123.995 34.9212 123.969 31.2009 121.375 29.7338L84.8275 8.90553C80.8453 6.65241 75.9722 6.67861 72.0162 8.95793Z" fill="url(#paint2_radial)"/>
<path d="M73.5089 13.8314L44.6899 30.494C42.6463 31.673 42.6463 34.6596 44.6899 35.8386L73.797 52.6584C76.9933 54.5185 80.9494 54.4924 84.1457 52.6322L112.991 35.7862C115.034 34.581 115.034 31.6206 112.965 30.4416L83.7527 13.8052C80.5564 11.9974 76.6789 12.0236 73.5089 13.8314Z" fill="url(#paint3_linear)"/>
<path d="M73.5089 4.36897L44.6899 21.0316C42.6463 22.2105 42.6463 25.1972 44.6899 26.3762L73.797 43.196C76.9933 45.0561 80.9494 45.0299 84.1457 43.1698L112.991 26.3238C115.034 25.1186 115.034 22.1581 112.965 20.9792L83.7527 4.34277C80.5564 2.53504 76.6789 2.56124 73.5089 4.36897Z" fill="url(#paint4_linear)"/>
<path d="M121.453 36.3886L85.351 57.4789C81.3425 59.8106 76.4171 59.8368 72.4086 57.5051L35.9395 36.4934C34.6034 35.7337 33.9746 34.3713 34.0008 33.0352V43.8292C34.0008 45.1391 34.6558 46.4229 35.9395 47.1827L72.3824 68.2205C76.3909 70.526 81.3425 70.526 85.3248 68.1943L121.427 47.1041C122.685 46.3705 123.313 45.1129 123.34 43.8554V43.7768C123.34 43.7506 123.34 43.7506 123.34 43.7244V33.0352C123.366 34.3451 122.711 35.6551 121.453 36.3886Z" fill="url(#paint5_radial)"/>
<path d="M343.016 41.9579L306.94 62.8124C304.373 64.3057 304.373 68.026 306.94 69.4932L343.383 90.531C347.391 92.8365 352.343 92.8365 356.325 90.5048L392.428 69.4146C394.995 67.9212 394.969 64.2009 392.375 62.7338L355.828 41.9055C351.845 39.6524 346.972 39.6786 343.016 41.9579Z" fill="url(#paint6_radial)"/>
<path d="M344.509 46.8314L315.69 63.494C313.646 64.673 313.646 67.6596 315.69 68.8386L344.797 85.6584C347.993 87.5185 351.949 87.4924 355.146 85.6322L383.991 68.7862C386.034 67.581 386.034 64.6206 383.965 63.4416L354.753 46.8052C351.556 44.9974 347.679 45.0236 344.509 46.8314Z" fill="url(#paint7_linear)"/>
<path d="M344.509 37.369L315.69 54.0316C313.646 55.2105 313.646 58.1972 315.69 59.3762L344.797 76.196C347.993 78.0561 351.949 78.0299 355.146 76.1698L383.991 59.3238C386.034 58.1186 386.034 55.1581 383.965 53.9792L354.753 37.3428C351.556 35.535 347.679 35.5612 344.509 37.369Z" fill="url(#paint8_linear)"/>
<path d="M392.453 69.3886L356.351 90.4789C352.343 92.8106 347.417 92.8368 343.409 90.5051L306.94 69.4934C305.603 68.7337 304.975 67.3713 305.001 66.0352V76.8292C305.001 78.1391 305.656 79.4229 306.94 80.1827L343.382 101.221C347.391 103.526 352.343 103.526 356.325 101.194L392.427 80.1041C393.685 79.3705 394.313 78.1129 394.34 76.8554V76.7768C394.34 76.7506 394.34 76.7506 394.34 76.7244V66.0352C394.366 67.3451 393.711 68.6551 392.453 69.3886Z" fill="url(#paint9_radial)"/>
<path d="M142.173 149.472L101.526 172.969C98.6332 174.651 98.6332 178.843 101.526 180.496L142.586 204.199C147.103 206.797 152.681 206.797 157.168 204.17L197.845 180.407C200.737 178.725 200.708 174.533 197.786 172.88L156.607 149.413C152.121 146.874 146.63 146.904 142.173 149.472Z" fill="url(#paint10_radial)"/>
<path d="M143.855 154.962L111.385 173.736C109.082 175.064 109.082 178.429 111.385 179.758L144.18 198.709C147.781 200.804 152.238 200.775 155.84 198.679L188.339 179.699C190.642 178.341 190.642 175.005 188.31 173.677L155.397 154.933C151.796 152.896 147.427 152.926 143.855 154.962Z" fill="url(#paint11_linear)"/>
<path d="M143.855 144.301L111.385 163.075C109.082 164.403 109.082 167.768 111.385 169.097L144.18 188.048C147.781 190.143 152.238 190.114 155.84 188.018L188.339 169.038C190.642 167.68 190.642 164.344 188.31 163.016L155.397 144.272C151.796 142.235 147.427 142.264 143.855 144.301Z" fill="url(#paint12_linear)"/>
<path d="M197.874 180.377L157.197 204.14C152.681 206.767 147.132 206.796 142.615 204.169L101.526 180.496C100.02 179.64 99.3117 178.105 99.3412 176.599V188.761C99.3412 190.237 100.079 191.683 101.526 192.539L142.586 216.242C147.102 218.84 152.681 218.84 157.168 216.213L197.844 192.451C199.261 191.624 199.97 190.207 199.999 188.79V188.702C199.999 188.672 199.999 188.672 199.999 188.643V176.599C200.029 178.075 199.291 179.551 197.874 180.377Z" fill="url(#paint13_radial)"/>
<defs>
<linearGradient id="paint0_linear" x1="62" y1="185" x2="278" y2="22" gradientUnits="userSpaceOnUse">
<stop stop-color="#B10B5C"/>
<stop offset="1" stop-color="#FB822A"/>
</linearGradient>
<linearGradient id="paint1_linear" x1="1.57854" y1="202.086" x2="255.532" y2="28.0664" gradientUnits="userSpaceOnUse">
<stop stop-color="#E11BD9"/>
<stop offset="1" stop-color="#FBC02A"/>
</linearGradient>
<radialGradient id="paint2_radial" cx="0" cy="0" r="1" gradientUnits="userSpaceOnUse" gradientTransform="translate(67.0791 25.0435) rotate(71.276) scale(36.1253 62.0242)">
<stop stop-color="#E11B7B"/>
<stop offset="1" stop-color="#FB822A"/>
</radialGradient>
<linearGradient id="paint3_linear" x1="78.8387" y1="12.4624" x2="78.8387" y2="54.0405" gradientUnits="userSpaceOnUse">
<stop stop-color="#FB822A"/>
<stop offset="1" stop-color="#FBE62A"/>
</linearGradient>
<linearGradient id="paint4_linear" x1="78.8387" y1="3" x2="78.8387" y2="44.5781" gradientUnits="userSpaceOnUse">
<stop stop-color="#FB822A"/>
<stop offset="1" stop-color="#FBE62A"/>
</linearGradient>
<radialGradient id="paint5_radial" cx="0" cy="0" r="1" gradientUnits="userSpaceOnUse" gradientTransform="translate(45.6586 51.5086) rotate(17.6878) scale(60.3605 146.097)">
<stop stop-color="#E11B7B"/>
<stop offset="1"/>
</radialGradient>
<radialGradient id="paint6_radial" cx="0" cy="0" r="1" gradientUnits="userSpaceOnUse" gradientTransform="translate(338.079 58.0435) rotate(71.276) scale(36.1253 62.0242)">
<stop stop-color="#E11B7B"/>
<stop offset="1" stop-color="#FB822A"/>
</radialGradient>
<linearGradient id="paint7_linear" x1="349.839" y1="45.4624" x2="349.839" y2="87.0405" gradientUnits="userSpaceOnUse">
<stop stop-color="#FB822A"/>
<stop offset="1" stop-color="#FBE62A"/>
</linearGradient>
<linearGradient id="paint8_linear" x1="349.839" y1="36" x2="349.839" y2="77.5781" gradientUnits="userSpaceOnUse">
<stop stop-color="#FB822A"/>
<stop offset="1" stop-color="#FBE62A"/>
</linearGradient>
<radialGradient id="paint9_radial" cx="0" cy="0" r="1" gradientUnits="userSpaceOnUse" gradientTransform="translate(316.659 84.5086) rotate(17.6878) scale(60.3605 146.097)">
<stop stop-color="#E11B7B"/>
<stop offset="1"/>
</radialGradient>
<radialGradient id="paint10_radial" cx="0" cy="0" r="1" gradientUnits="userSpaceOnUse" gradientTransform="translate(136.61 167.596) rotate(71.276) scale(40.7023 69.8825)">
<stop stop-color="#E11B7B"/>
<stop offset="1" stop-color="#FB822A"/>
</radialGradient>
<linearGradient id="paint11_linear" x1="149.86" y1="153.42" x2="149.86" y2="200.266" gradientUnits="userSpaceOnUse">
<stop stop-color="#FB822A"/>
<stop offset="1" stop-color="#FBE62A"/>
</linearGradient>
<linearGradient id="paint12_linear" x1="149.86" y1="142.759" x2="149.86" y2="189.605" gradientUnits="userSpaceOnUse">
<stop stop-color="#FB822A"/>
<stop offset="1" stop-color="#FBE62A"/>
</linearGradient>
<radialGradient id="paint13_radial" cx="0" cy="0" r="1" gradientUnits="userSpaceOnUse" gradientTransform="translate(112.476 197.413) rotate(17.6878) scale(68.008 164.607)">
<stop stop-color="#E11B7B"/>
<stop offset="1"/>
</radialGradient>
</defs>
</svg>