<svg width="309" height="183" viewBox="0 0 309 183" fill="none" xmlns="http://www.w3.org/2000/svg">
<path d="M287 56.5L90.5 165.5L17 21L287 56.5Z" fill="#FCC72A" fill-opacity="0.26"/>
<path d="M290 33L284.155 69L308.155 53.5874L290 33Z" fill="url(#paint0_linear)"/>
<path d="M290 33L274 49.1798L284.26 69L290 33Z" fill="url(#paint1_linear)"/>
<path d="M15.9999 0L10.1553 36L34.1553 20.5874L15.9999 0Z" fill="url(#paint2_linear)"/>
<path d="M16 0L0 16.1798L10.2595 36L16 0Z" fill="url(#paint3_linear)"/>
<path d="M88.9999 147L83.1553 183L107.155 167.587L88.9999 147Z" fill="url(#paint4_linear)"/>
<path d="M89 147L73 163.18L83.2595 183L89 147Z" fill="url(#paint5_linear)"/>
<defs>
<linearGradient id="paint0_linear" x1="285.5" y1="43.5" x2="314" y2="58" gradientUnits="userSpaceOnUse">
<stop stop-color="#D5CCC1"/>
<stop offset="1" stop-color="#FAD07F"/>
</linearGradient>
<linearGradient id="paint1_linear" x1="282" y1="33" x2="282" y2="69" gradientUnits="userSpaceOnUse">
<stop stop-color="white"/>
<stop offset="1" stop-color="#F4F1DA"/>
</linearGradient>
<linearGradient id="paint2_linear" x1="11.4999" y1="10.5" x2="39.9999" y2="25" gradientUnits="userSpaceOnUse">
<stop stop-color="#D5CCC1"/>
<stop offset="1" stop-color="#FAD07F"/>
</linearGradient>
<linearGradient id="paint3_linear" x1="8" y1="0" x2="8" y2="36" gradientUnits="userSpaceOnUse">
<stop stop-color="white"/>
<stop offset="1" stop-color="#F4F1DA"/>
</linearGradient>
<linearGradient id="paint4_linear" x1="84.4999" y1="157.5" x2="113" y2="172" gradientUnits="userSpaceOnUse">
<stop stop-color="#D5CCC1"/>
<stop offset="1" stop-color="#FAD07F"/>
</linearGradient>
<linearGradient id="paint5_linear" x1="81" y1="147" x2="81" y2="183" gradientUnits="userSpaceOnUse">
<stop stop-color="white"/>
<stop offset="1" stop-color="#F4F1DA"/>
</linearGradient>
</defs>
</svg>
