<svg width="17" height="17" viewBox="0 0 17 17" fill="none" xmlns="http://www.w3.org/2000/svg">
<path d="M8.5 0.000435014C6.2695 -0.0222307 4.12125 0.841631 2.52738 2.40217C0.933522 3.9627 0.0244647 6.09222 0 8.32271C0.00859457 10.0854 0.575638 11.8001 1.61968 13.2204C2.66373 14.6407 4.13106 15.6935 5.81091 16.2277C6.23591 16.305 6.39046 16.05 6.39046 15.8259V14.4118C4.02591 14.9141 3.52364 13.2991 3.52364 13.2991C3.36623 12.7921 3.03159 12.3587 2.58091 12.0782C1.80818 11.5682 2.64273 11.5759 2.64273 11.5759C2.90982 11.6116 3.16537 11.7073 3.39019 11.8559C3.61502 12.0044 3.8033 12.2019 3.94091 12.4336C4.18071 12.8494 4.57419 13.1545 5.03665 13.2831C5.4991 13.4117 5.99358 13.3536 6.41364 13.1213C6.45684 12.6982 6.64846 12.304 6.95455 12.0086C5.06909 11.8 3.09091 11.0891 3.09091 7.89771C3.07405 7.06523 3.38164 6.25884 3.94864 5.64907C3.69041 4.93435 3.7209 4.14713 4.03364 3.45453C4.03364 3.45453 4.75227 3.23043 6.35182 4.30453C7.74419 3.93349 9.20945 3.93349 10.6018 4.30453C12.2245 3.23043 12.92 3.45453 12.92 3.45453C13.2327 4.14713 13.2632 4.93435 13.005 5.64907C13.5852 6.24766 13.9094 7.04865 13.9091 7.88225C13.9091 11.0813 11.9155 11.7845 10.0455 11.9932C10.2502 12.192 10.4084 12.4337 10.5086 12.7009C10.6088 12.9681 10.6486 13.2542 10.625 13.5386V15.8182C10.625 16.0886 10.7795 16.305 11.2045 16.22C12.8796 15.6825 14.342 14.6294 15.3828 13.2111C16.4236 11.7928 16.9897 10.0819 17 8.32271C16.9755 6.09222 16.0665 3.9627 14.4726 2.40217C12.8788 0.841631 10.7305 -0.0222307 8.5 0.000435014Z" fill="black"/>
</svg>