<svg width="40" height="40" viewBox="0 0 40 40" fill="none" xmlns="http://www.w3.org/2000/svg">
<path d="M19.9999 40C31.0473 40 40 31.0449 40 19.9995C40 8.95446 31.0473 0 19.9999 0C8.95387 0 0 8.95446 0 19.9995C0 31.045 8.95382 40 19.9999 40Z" fill="#1284C7"/>
<path d="M14.403 28.3647H10.5042V15.8889H14.403V28.3647ZM12.3536 14.3283H12.3255C10.9148 14.3283 10 13.3746 10 12.1664C10 10.9343 10.9423 10.0001 12.3811 10.0001C13.8189 10.0001 14.7037 10.9319 14.7319 12.163C14.732 13.3716 13.819 14.3283 12.3536 14.3283ZM30 28.3647H25.5794V21.9086C25.5794 20.2188 24.8887 19.0658 23.3676 19.0658C22.2044 19.0658 21.5584 19.8438 21.2569 20.5943C21.1444 20.863 21.1616 21.238 21.1616 21.614V28.3647H16.7823C16.7823 28.3647 16.8393 16.9286 16.7823 15.8889H21.1616V17.8468C21.4205 16.9907 22.8193 15.7688 25.0534 15.7688C27.8233 15.7688 30 17.5638 30 21.4274V28.3647Z" fill="white"/>
</svg>