<svg width="17" height="17" viewBox="0 0 17 17" fill="none" xmlns="http://www.w3.org/2000/svg">
<path d="M11.4742 5.09989C10.7504 5.0974 10.0331 5.23768 9.3635 5.51268C8.6939 5.78768 8.0851 6.19202 7.57193 6.70256C7.05877 7.2131 6.6513 7.81981 6.37286 8.48798C6.09442 9.15616 5.95046 9.87268 5.94922 10.5965V16.1499C5.94922 16.3753 6.03877 16.5915 6.19818 16.7509C6.35758 16.9103 6.57379 16.9999 6.79922 16.9999H8.78255C9.00799 16.9999 9.22419 16.9103 9.38359 16.7509C9.543 16.5915 9.63255 16.3753 9.63255 16.1499V10.5965C9.63237 10.3391 9.68644 10.0845 9.79125 9.84934C9.89606 9.61418 10.0492 9.40375 10.2408 9.23177C10.4324 9.05979 10.6581 8.93012 10.9032 8.8512C11.1482 8.77229 11.4072 8.74591 11.6631 8.77377C12.1221 8.83159 12.5439 9.05585 12.8486 9.40401C13.1532 9.75218 13.3195 10.2 13.3159 10.6627V16.1499C13.3159 16.3753 13.4054 16.5915 13.5648 16.7509C13.7242 16.9103 13.9404 16.9999 14.1659 16.9999H16.1492C16.3747 16.9999 16.5909 16.9103 16.7503 16.7509C16.9097 16.5915 16.9992 16.3753 16.9992 16.1499V10.5965C16.998 9.87268 16.854 9.15616 16.5756 8.48798C16.2971 7.81981 15.8897 7.2131 15.3765 6.70256C14.8633 6.19202 14.2545 5.78768 13.5849 5.51268C12.9153 5.23768 12.1981 5.0974 11.4742 5.09989Z" fill="#1284C7"/>
<path d="M0.85 5.94995H3.4C3.96667 5.94995 4.25 6.23328 4.25 6.79995V16.1499C4.25 16.7166 3.96667 16.9999 3.4 16.9999H0.85C0.283333 16.9999 0 16.7166 0 16.1499V6.79995C0 6.23328 0.283333 5.94995 0.85 5.94995Z" fill="#1284C7"/>
<path d="M0 2.125C-4.1583e-09 2.40406 0.0549649 2.68038 0.161756 2.9382C0.268547 3.19602 0.425074 3.43028 0.622398 3.6276C0.819722 3.82493 1.05398 3.98145 1.3118 4.08824C1.56961 4.19503 1.84594 4.25 2.125 4.25C2.40406 4.25 2.68038 4.19503 2.9382 4.08824C3.19602 3.98145 3.43028 3.82493 3.6276 3.6276C3.82493 3.43028 3.98145 3.19602 4.08824 2.9382C4.19503 2.68038 4.25 2.40406 4.25 2.125C4.25 1.84594 4.19503 1.56961 4.08824 1.3118C3.98145 1.05398 3.82493 0.819722 3.6276 0.622398C3.43028 0.425074 3.19602 0.268547 2.9382 0.161756C2.68038 0.0549645 2.40406 0 2.125 0C1.84594 0 1.56961 0.0549645 1.3118 0.161756C1.05398 0.268547 0.819722 0.425074 0.622398 0.622398C0.425074 0.819722 0.268547 1.05398 0.161756 1.3118C0.0549649 1.56961 -4.1583e-09 1.84594 0 2.125Z" fill="#1284C7"/>
</svg>