<svg width="121" height="186" viewBox="0 0 121 186" fill="none" xmlns="http://www.w3.org/2000/svg">
<path d="M37.1045 20.7143V17.0635L46.3226 12.1209L67.0635 1L81.6589 9.03175V22.1746C105.626 35.6095 113.666 61.6032 114.691 72.5555L93.1816 83.5641C112.386 98.8413 129.186 131.777 112.386 154.333C99.0335 172.261 76.2816 176.481 70.9044 176.968C70.0319 177.31 68.6706 177.383 67.0635 177.25L51.6999 185L37.1045 176.968V168.206C26.3499 163.582 4.07272 141.19 1 106.143L21.87 93C12.2722 81.2859 3.28804 65.5834 4.07272 49.9206C4.43761 42.6371 6.5719 37.7477 9.66754 34.5873C11.4406 32.7771 13.5291 31.5342 15.7811 30.7337L37.1045 20.7143Z" fill="#9DE9C8"/>
<path d="M37.1045 17.0635V32.3968C29.7228 29.3165 16.9991 27.1025 9.66754 34.5873C6.5719 37.7477 4.43761 42.6371 4.07272 49.9206C3.28804 65.5834 12.2722 81.2859 21.87 93M37.1045 17.0635L51.6999 25.8254M37.1045 17.0635L46.3226 12.1209L67.0635 1L81.6589 9.03175M51.6999 25.8254V39.6984M51.6999 25.8254L81.6589 9.03175M51.6999 39.6984C60.662 44.3227 79.8153 59.8508 84.7316 87.8889M51.6999 39.6984L81.6589 22.1746M84.7316 87.8889L62.5776 81.408C62.5776 81.408 58.5266 67.1488 51.6999 62.3333V87.8889C63.4786 97.1376 84.7316 112.769 87.8043 139.73C89.9741 158.769 83.9634 171.857 70.9044 176.968M84.7316 87.8889L93.1816 83.5641M81.6589 22.1746C105.626 35.6095 113.666 61.6032 114.691 72.5556L93.1816 83.5641M81.6589 22.1746V9.03175M70.9044 176.968C76.2816 176.481 99.0335 172.261 112.386 154.333C129.186 131.777 112.386 98.8413 93.1816 83.5641M70.9044 176.968C70.0319 177.31 68.6706 177.383 67.0635 177.25M51.6999 185V171.127C53.283 173.948 61.5957 176.796 67.0635 177.25M51.6999 185L37.1045 176.968V168.206C26.3499 163.582 4.07272 141.19 1 106.143M51.6999 185L67.0635 177.25M1 106.143L27.8863 116.365M1 106.143L21.87 93M27.8863 116.365C28.3984 122.936 30.959 137.57 37.1045 140.49V108.333M27.8863 116.365L37.1045 108.333M37.1045 108.333C32.9382 104.989 27.3057 99.6343 21.87 93M37.1045 20.7143L15.7811 30.7337M51.6999 119.225V149.222C55.2847 149.952 61.6862 149.094 61.6862 139.73C61.6862 129.496 54.7726 121.659 51.6999 119.225ZM37.1045 55.0317V76.9365C35.056 75.4762 30.9618 70.9504 30.9618 64.4876C30.9618 60.6859 32.5597 55.0317 37.1045 55.0317Z" stroke="black" stroke-width="2" stroke-linejoin="round"/>
</svg>
