<svg width="154" height="154" viewBox="0 0 154 154" fill="none" xmlns="http://www.w3.org/2000/svg">
<circle cx="77" cy="77" r="76" fill="#9DE9C8" stroke="black" stroke-width="2" stroke-linejoin="round"/>
<path d="M77.9755 1.32617V152.348M77.9755 1.32617C92.5449 9.69813 121.749 38.2498 122.01 85.4807C122.271 132.712 103.2 148.294 93.6322 150.36M77.9755 1.32617C64.276 8.71959 36.5507 35.9013 35.2459 85.4807C34.1148 128.464 48.1022 145.133 58.0787 149.516C59.6096 150.189 61.046 150.572 62.3189 150.717M16.1973 32.6C16.1973 32.6 24.9538 53.4532 77.9755 53.4532C130.997 53.4532 138.997 34.2 138.997 34.2M2.19727 71C2.19727 71 16.9538 89.3949 77.9755 89.3949C138.997 89.3949 152.197 71.8 152.197 71.8M10.5973 112.6C10.5973 112.6 30.3535 127.232 77.9755 127.232C125.598 127.232 143.397 111.8 143.397 111.8M49.9243 6.87124C49.9243 6.87124 46.5538 18.2 77.9755 18.2C109.397 18.2 106.597 7.8 106.597 7.8" stroke="#1D2D31" stroke-width="2"/>
</svg>
