<svg width="75" height="100" viewBox="0 0 75 100" fill="none" xmlns="http://www.w3.org/2000/svg">
<path d="M38.003 0C17.0496 0.0838993 0.0841661 16.9956 0 37.8825C0 42.0655 0.677337 46.2205 2.00395 50.1878C2.99391 52.8885 5.9317 54.3428 8.68915 53.5078C11.3544 52.489 12.7692 49.5845 11.9195 46.8678C10.7933 43.7755 10.2923 40.4954 10.4406 37.2113C10.8975 22.1255 23.5344 10.2637 38.6683 10.7191C53.8022 11.1746 65.7016 23.7715 65.2447 38.8574C64.8159 52.9804 53.6579 64.4507 39.506 65.3096C39.506 65.3096 34.1714 65.6332 31.5182 65.9569C30.5403 66.0967 29.5704 66.2885 28.6125 66.5322C28.4762 66.672 28.2558 66.672 28.1155 66.5362L28.1115 66.5322C28.0153 66.4083 28.0153 66.2325 28.1115 66.1087L28.9371 61.6181L33.947 39.157C34.5482 36.3524 32.7566 33.5917 29.9431 32.9924C27.1295 32.3931 24.3601 34.179 23.7589 36.9836C23.7589 36.9836 11.8434 91.9616 11.8434 92.4611C11.162 95.1338 12.7812 97.8506 15.4625 98.5298C15.4906 98.5378 15.5226 98.5457 15.5507 98.5497H15.8272C18.5045 99.2409 21.2379 97.6348 21.9273 94.966C21.9393 94.9221 21.9513 94.8782 21.9593 94.8302C21.9513 94.7463 21.9513 94.6624 21.9593 94.5825C22.1076 93.9353 23.6106 86.6201 23.6106 86.6201C24.7488 81.0987 29.2136 76.8678 34.8007 76.0128C35.9509 75.837 40.7845 75.5134 40.7845 75.5134C61.6577 73.4399 76.8917 54.8901 74.8076 34.0831C72.9079 15.1059 57.1367 0.495405 38.003 0Z" fill="white"/>
<path d="M40.3071 87.3472C36.8804 86.6361 33.5298 88.8295 32.8164 92.2414C32.8084 92.2733 32.8044 92.3053 32.7963 92.3373C32.0549 95.7292 34.2111 99.0812 37.6178 99.8203C37.6218 99.8203 37.6259 99.8203 37.6299 99.8243H37.8062C41.1408 100.627 44.4954 98.5818 45.297 95.2617C45.305 95.2378 45.309 95.2098 45.317 95.1858V94.8383C45.9062 91.4104 43.7098 88.1223 40.3071 87.3472Z" fill="#E6007A"/>
</svg>
