<svg width="48" height="48" viewBox="0 0 48 48" fill="none" xmlns="http://www.w3.org/2000/svg">
<path d="M23.9974 47.9948C37.2508 47.9948 47.9948 37.2508 47.9948 23.9974C47.9948 10.744 37.2508 0 23.9974 0C10.744 0 0 10.744 0 23.9974C0 37.2508 10.744 47.9948 23.9974 47.9948Z" fill="url(#paint0_linear)"/>
<path d="M16.0923 18.031C15.9005 17.7929 15.6094 17.6606 15.2985 17.6606H8.88909C8.83617 17.6606 8.78987 17.6408 8.75018 17.6077C8.71711 17.5746 8.69727 17.5349 8.69727 17.4886V13.1694C8.69727 13.1231 8.71711 13.0834 8.75018 13.0503C8.78987 13.0106 8.83617 12.9908 8.88909 12.9974H15.6623C17.3689 12.9974 18.8439 13.6985 20.0874 15.0942L21.7344 17.105L18.5264 21.0141L16.0923 18.031ZM27.9322 15.0743C29.1691 13.6919 30.6508 12.9974 32.3772 12.9974H39.1306C39.1769 12.9908 39.2232 13.0106 39.2563 13.0371C39.2893 13.0701 39.3026 13.1164 39.2959 13.1694V17.4886C39.2959 17.5349 39.2827 17.5746 39.2563 17.6077C39.2232 17.6474 39.1769 17.6672 39.1306 17.6606H32.7211C32.4169 17.654 32.1258 17.7929 31.9274 18.031L27.2046 23.779L31.9472 29.5667C32.1391 29.785 32.4235 29.9173 32.7145 29.9107H39.124C39.1703 29.904 39.2232 29.9305 39.2496 29.9636C39.2761 30.0033 39.2959 30.0562 39.2893 30.1025V34.4217C39.2893 34.468 39.2761 34.5077 39.2496 34.5408C39.2166 34.5805 39.1703 34.6003 39.124 34.5937H32.3772C30.6508 34.5937 29.1824 33.8926 27.9521 32.4969L24.0231 27.7014L20.0941 32.4969C18.8571 33.8926 17.3755 34.5937 15.6491 34.5937H8.88909C8.84278 34.6003 8.78987 34.5739 8.76341 34.5408C8.73034 34.5011 8.71711 34.4482 8.72372 34.4019V30.0826C8.72372 30.0363 8.73695 29.9966 8.76341 29.9636C8.79648 29.9239 8.84278 29.904 8.88909 29.9107H15.2985C15.6028 29.9107 15.8938 29.7717 16.0923 29.5402L20.729 23.8782L27.9322 15.0743Z" fill="#00D1FF"/>
<defs>
<linearGradient id="paint0_linear" x1="24.0007" y1="-0.000138904" x2="24.0007" y2="12.6997" gradientUnits="userSpaceOnUse">
<stop stop-color="#090220"/>
<stop offset="1" stop-color="#170659"/>
</linearGradient>
</defs>
</svg>
