<svg width="46" height="52" viewBox="0 0 46 52" fill="none" xmlns="http://www.w3.org/2000/svg">
<g clip-path="url(#clip0)">
<path d="M18.039 11.8328C17.465 11.7523 17.4377 11.7255 17.711 11.6987C18.2303 11.6182 19.4329 11.7255 20.2802 11.9133C22.2481 12.3695 24.0247 13.5501 25.9106 15.6161L26.4026 16.1796L27.1132 16.0723C30.1471 15.5893 33.263 15.9649 35.8595 17.1455C36.5702 17.4675 37.6908 18.1115 37.8274 18.2725C37.8821 18.3261 37.9641 18.6749 38.0188 19.0237C38.2101 20.2848 38.1281 21.224 37.7181 21.9484C37.4994 22.3509 37.4994 22.4582 37.6361 22.807C37.7454 23.0753 38.0734 23.2632 38.3741 23.2632C39.03 23.2632 39.7133 22.2436 40.0413 20.8215L40.178 20.258L40.424 20.5263C41.8179 22.0557 42.9112 24.1754 43.0752 25.678L43.1299 26.0805L42.8839 25.7317C42.4739 25.1146 42.0912 24.7121 41.5719 24.3633C40.6426 23.7461 39.6587 23.5583 37.0621 23.4242C34.7116 23.29 33.3723 23.1022 32.0603 22.6729C29.8191 21.9484 28.6712 21.0093 26.0199 17.548C24.8447 16.0186 24.1067 15.1868 23.3687 14.4892C21.7561 12.9598 20.1435 12.1548 18.039 11.8328Z" fill="#FF007A"/>
<path d="M38.4024 15.2405C38.457 14.2209 38.5937 13.5501 38.8944 12.9329C39.0037 12.6915 39.113 12.4768 39.1403 12.4768C39.1677 12.4768 39.113 12.6646 39.031 12.8793C38.8124 13.4696 38.785 14.3014 38.9217 15.2405C39.113 16.4479 39.195 16.6089 40.5069 17.9237C41.1083 18.5408 41.8189 19.3189 42.0922 19.6409L42.5569 20.2312L42.0922 19.8019C41.5182 19.2652 40.2063 18.2456 39.9056 18.1115C39.7143 18.0042 39.687 18.0042 39.5503 18.1383C39.441 18.2456 39.4137 18.4066 39.4137 19.1848C39.3863 20.3922 39.2223 21.1435 38.8124 21.9216C38.5937 22.3241 38.5664 22.2436 38.7577 21.7874C38.8944 21.4386 38.9217 21.2776 38.9217 20.1239C38.9217 17.7895 38.6484 17.226 36.9811 16.2869C36.5711 16.0454 35.8605 15.6966 35.4505 15.5088C35.0132 15.321 34.6852 15.16 34.7125 15.16C34.7672 15.1063 36.3798 15.5625 37.0084 15.8308C37.9651 16.2064 38.129 16.2333 38.2384 16.2064C38.3204 16.1259 38.375 15.9113 38.4024 15.2405Z" fill="#FF007A"/>
<path d="M19.1587 19.2383C18.0108 17.6821 17.2728 15.2672 17.4368 13.4695L17.4915 12.906L17.7648 12.9597C18.2568 13.0402 19.1041 13.3621 19.5141 13.6036C20.6073 14.2476 21.0993 15.133 21.564 17.3333C21.7006 17.9772 21.8919 18.7285 21.9739 18.97C22.1106 19.3725 22.6299 20.3116 23.0672 20.9019C23.3679 21.3312 23.1766 21.5458 22.4933 21.4922C21.4546 21.3849 20.0607 20.4457 19.1587 19.2383Z" fill="#FF007A"/>
<path d="M37.0086 30.9102C31.5968 28.7637 29.6836 26.9123 29.6836 23.7729C29.6836 23.3168 29.7109 22.9412 29.7109 22.9412C29.7383 22.9412 29.9296 23.1022 30.1756 23.29C31.2689 24.1486 32.4988 24.5242 35.9153 25.0072C37.9106 25.3024 39.0585 25.517 40.0971 25.8658C43.4043 26.9391 45.4543 29.1393 45.9462 32.1176C46.0829 32.9762 46.0009 34.613 45.7822 35.4716C45.5909 36.1424 45.0443 37.3767 44.9076 37.4035C44.8803 37.4035 44.8256 37.2693 44.8256 37.0547C44.7709 35.9277 44.197 34.8545 43.2403 34.0227C42.0924 33.0567 40.6165 32.3323 37.0086 30.9102Z" fill="#FF007A"/>
<path d="M33.1812 31.7958C33.1265 31.3933 32.9898 30.8835 32.9079 30.6688L32.7712 30.2664L33.0172 30.5615C33.3725 30.964 33.6458 31.447 33.8918 32.1177C34.0831 32.6276 34.0831 32.7885 34.0831 33.6203C34.0831 34.4253 34.0558 34.6131 33.8918 35.0692C33.6185 35.7937 33.2905 36.3035 32.7439 36.867C31.7599 37.8598 30.4753 38.3964 28.644 38.6379C28.3161 38.6647 27.3868 38.7452 26.5668 38.7989C24.5169 38.9062 23.1503 39.1208 21.9203 39.5502C21.7563 39.6038 21.5923 39.6575 21.565 39.6307C21.5104 39.577 22.3576 39.094 23.041 38.772C23.9976 38.3159 24.9815 38.0744 27.1408 37.6988C28.2067 37.5378 29.3 37.3231 29.5733 37.2158C32.2792 36.384 33.6185 34.318 33.1812 31.7958Z" fill="#FF007A"/>
<path d="M35.6675 36.1156C34.9568 34.5861 34.7929 33.1372 35.1755 31.7688C35.2302 31.6346 35.2848 31.5005 35.3395 31.5005C35.3942 31.5005 35.5581 31.581 35.7221 31.6883C36.0501 31.903 36.7334 32.2786 38.4827 33.2177C40.6966 34.3983 41.9539 35.3106 42.8285 36.357C43.5938 37.2693 44.0584 38.3158 44.2771 39.6037C44.4138 40.3281 44.3318 42.0722 44.1404 42.7967C43.5391 45.0774 42.1725 46.9019 40.1773 47.9484C39.8766 48.1094 39.6306 48.2167 39.6033 48.2167C39.576 48.2167 39.6853 47.9484 39.8493 47.6264C40.5053 46.258 40.5873 44.9432 40.0953 43.4675C39.7946 42.5552 39.166 41.4551 37.9087 39.6037C36.4054 37.4571 36.0501 36.8937 35.6675 36.1156Z" fill="#FF007A"/>
<path d="M15.3064 44.3262C17.329 42.6627 19.8162 41.4821 22.1121 41.1064C23.0961 40.9454 24.736 40.9991 25.6379 41.2406C27.0865 41.6162 28.3985 42.4212 29.0818 43.414C29.7378 44.3799 30.0384 45.2117 30.3391 47.0631C30.4484 47.7875 30.5851 48.5388 30.6124 48.6998C30.8311 49.6658 31.2684 50.417 31.815 50.8195C32.6623 51.4367 34.1382 51.4635 35.5868 50.9269C35.8328 50.8464 36.0515 50.7659 36.0515 50.7927C36.1062 50.8464 35.3682 51.3293 34.8762 51.5708C34.1929 51.9196 33.6463 52.027 32.9083 52.027C31.5964 52.027 30.4757 51.3562 29.5738 50.0146C29.3824 49.7463 28.9998 48.9681 28.6718 48.2437C27.7152 46.0703 27.2232 45.4263 26.1026 44.7019C25.1186 44.0848 23.8614 43.9506 22.9047 44.4067C21.6475 44.997 21.3195 46.5801 22.1941 47.546C22.5494 47.9485 23.2054 48.2705 23.752 48.351C24.7633 48.4852 25.6379 47.707 25.6379 46.7143C25.6379 46.0703 25.392 45.6947 24.736 45.3995C23.8614 45.0239 22.9047 45.4532 22.9321 46.285C22.9321 46.6338 23.0961 46.8484 23.4514 47.0094C23.67 47.1167 23.67 47.1167 23.506 47.0899C22.7134 46.9289 22.5221 45.963 23.1507 45.3458C23.916 44.5946 25.5286 44.9165 26.0753 45.963C26.2939 46.3923 26.3212 47.2509 26.1299 47.7875C25.6653 48.9681 24.3533 49.5853 23.0141 49.2365C22.1121 48.995 21.7294 48.7535 20.6362 47.6534C18.7229 45.7215 17.9849 45.3458 15.2517 44.9434L14.7324 44.8629L15.3064 44.3262Z" fill="#FF007A"/>
<path fill-rule="evenodd" clip-rule="evenodd" d="M0.926602 1.15377C7.29499 8.74716 17.1072 20.5531 17.5992 21.1971C18.0092 21.7337 17.8452 22.2436 17.1619 22.6192C16.7792 22.8338 15.9866 23.0485 15.604 23.0485C15.1666 23.0485 14.6473 22.8338 14.292 22.485C14.046 22.2436 12.9801 20.7141 10.5749 17.0382C8.7436 14.2208 7.18566 11.8865 7.15833 11.8596C7.049 11.806 7.049 11.806 10.3835 17.6553C12.4881 21.3313 13.1714 22.646 13.1714 22.807C13.1714 23.1558 13.0621 23.3437 12.6248 23.8266C11.8868 24.6316 11.5588 25.5439 11.3128 27.4489C11.0395 29.5686 10.3015 31.0712 8.19695 33.6202C6.96701 35.1228 6.77568 35.3911 6.47503 36.0083C6.09238 36.7595 5.98305 37.1889 5.92839 38.1548C5.87372 39.1744 5.98305 39.8184 6.2837 40.7843C6.55702 41.6429 6.85768 42.2064 7.59565 43.3065C8.22429 44.2724 8.60694 44.9969 8.60694 45.2652C8.60694 45.4799 8.6616 45.4799 9.64556 45.2652C11.9961 44.7286 13.9367 43.8163 15.0027 42.6894C15.6586 41.9917 15.8226 41.6161 15.8226 40.6502C15.8226 40.033 15.7953 39.8989 15.6313 39.5232C15.358 38.9329 14.8387 38.4499 13.718 37.6987C12.2421 36.7059 11.6135 35.9009 11.4495 34.8277C11.3128 33.9154 11.4768 33.2982 12.2968 31.6078C13.1441 29.8638 13.3627 29.1393 13.4994 27.3684C13.5814 26.2415 13.718 25.7853 14.046 25.4365C14.4014 25.0609 14.702 24.9267 15.5493 24.8194C16.9432 24.6316 17.8452 24.2828 18.5558 23.612C19.1845 23.0485 19.4578 22.485 19.4851 21.6532L19.5125 21.0361L19.1571 20.6605C17.8725 19.2116 0.0793059 0 -0.0026905 0C-0.0300226 0 0.407292 0.509804 0.926602 1.15377ZM9.31757 39.3086C9.61822 38.7988 9.45423 38.1548 8.96225 37.8328C8.49761 37.5377 7.78697 37.6718 7.78697 38.0743C7.78697 38.1816 7.84163 38.289 8.00563 38.3426C8.25162 38.4768 8.27895 38.6109 8.08762 38.9061C7.8963 39.2012 7.8963 39.4696 8.14229 39.6574C8.52494 39.9525 9.04425 39.7915 9.31757 39.3086Z" fill="#FF007A"/>
<path fill-rule="evenodd" clip-rule="evenodd" d="M20.391 25.195C19.7351 25.3828 19.1064 26.0804 18.9151 26.7781C18.8058 27.2074 18.8604 27.9855 19.0518 28.227C19.3524 28.6026 19.6257 28.7099 20.391 28.7099C21.8943 28.7099 23.1789 28.066 23.3156 27.2879C23.4522 26.6439 22.8783 25.7585 22.0856 25.356C21.6756 25.1413 20.8283 25.0608 20.391 25.195ZM22.1403 26.5366C22.3589 26.2146 22.2769 25.8658 21.867 25.6243C21.129 25.1682 20.0084 25.5438 20.0084 26.2414C20.0084 26.5902 20.5824 26.9659 21.129 26.9659C21.4843 26.9659 21.9763 26.7512 22.1403 26.5366Z" fill="#FF007A"/>
</g>
<defs>
<clipPath id="clip0">
<rect width="46" height="52" fill="white"/>
</clipPath>
</defs>
</svg>
