<svg width="44" height="45" viewBox="0 0 44 45" fill="none" xmlns="http://www.w3.org/2000/svg">
<path fill-rule="evenodd" clip-rule="evenodd" d="M22 0C9.8516 0 0 10.0755 0 22.5C0 34.9245 9.8516 45 22 45C34.1484 45 44 34.9245 44 22.5C44 10.0755 34.1484 0 22 0Z" fill="#006AE3"/>
<path d="M22.9062 31.9859V13.2659H20.913V31.9859H22.9062Z" fill="white"/>
<path d="M12.7609 19.503L18.9165 21.1725L20.2893 14.6385L18.4589 14.2155L17.7373 17.3115C17.7373 17.3115 16.0741 14.5215 18.2917 11.6325C19.5985 10.1475 20.2189 10.0845 21.6841 9.85048C22.9733 9.66148 25.9697 10.107 26.8629 13.6845C27.2413 15.9885 26.8145 17.694 23.9105 19.926L24.0733 22.41C24.0733 22.41 27.3161 20.0745 28.1521 18.4365C28.7989 17.1405 29.9077 14.58 27.9057 11.016C26.8277 9.23398 24.7025 7.52398 20.9581 7.70398C19.0749 7.78498 14.4769 10.1385 15.1897 15.6375C15.3129 16.668 15.8365 18.0405 15.8365 18.0405L13.3109 17.4645L12.7609 19.503Z" fill="white"/>
<path d="M16.2749 34.1506C17.4013 35.9011 19.5705 37.5526 23.3061 37.2736C25.1893 37.1431 29.7213 34.6636 28.8677 29.1871C28.7181 28.1611 28.1593 26.8066 28.1593 26.8066L30.6981 27.3106L31.1953 25.2631L24.9957 23.7601L23.7901 30.3301L25.6337 30.7036L26.2761 27.5851C26.2761 27.5851 28.0097 30.3256 25.8713 33.2776C24.6041 34.7986 23.9881 34.8751 22.5229 35.1496C21.2425 35.3746 18.2329 35.0056 17.2473 31.4551C16.8117 29.1646 17.1945 27.4456 20.0369 25.1326L19.8081 22.6531C19.8081 22.6531 16.6269 25.0741 15.8349 26.7346C15.2277 28.0531 14.1849 30.6451 16.2749 34.1506Z" fill="white"/>
</svg>
