<svg width="40" height="40" viewBox="0 0 40 40" fill="none" xmlns="http://www.w3.org/2000/svg">
<path fill-rule="evenodd" clip-rule="evenodd" d="M20 32.7928C22.66 32.7928 24.6847 30.6995 24.6847 28.2883H31.8919C31.8919 34.8285 26.4903 40 20 40V32.7928Z" fill="#31C971"/>
<path fill-rule="evenodd" clip-rule="evenodd" d="M32.7926 20.1802C32.7926 17.6948 30.7735 15.6757 28.2881 15.6757V8.46851C34.754 8.46851 39.9998 13.7143 39.9998 20.1802H32.7926Z" fill="url(#paint0_linear)"/>
<path fill-rule="evenodd" clip-rule="evenodd" d="M7.20721 20C7.20721 22.5849 9.30697 24.6847 11.8919 24.6847V31.8919C5.32654 31.8919 0 26.5654 0 20H7.20721Z" fill="url(#paint1_linear)"/>
<path fill-rule="evenodd" clip-rule="evenodd" d="M20.18 7.20721C17.7688 7.20721 15.6755 9.2319 15.6755 11.8919H8.46826C8.46826 5.40162 13.6398 0 20.18 0V7.20721Z" fill="url(#paint2_linear)"/>
<path fill-rule="evenodd" clip-rule="evenodd" d="M24.6845 11.8018C24.6845 9.26661 22.6251 7.20721 20.0899 7.20721V0C26.6055 0 31.8917 5.28618 31.8917 11.8018C31.8917 18.3174 26.6055 23.6036 20.0899 23.6036C17.5547 23.6036 15.4953 25.663 15.4953 28.1982C15.4953 30.7334 17.5547 32.7928 20.0899 32.7928V40C13.5743 40 8.28809 34.7138 8.28809 28.1982C8.28809 21.6826 13.5743 16.3964 20.0899 16.3964C22.6251 16.3964 24.6845 14.337 24.6845 11.8018Z" fill="url(#paint3_linear)"/>
<path fill-rule="evenodd" clip-rule="evenodd" d="M11.8018 15.4955C9.26661 15.4955 7.20721 17.5549 7.20721 20.0901H0C0 13.5745 5.28618 8.28833 11.8018 8.28833C18.3174 8.28833 23.6036 13.5745 23.6036 20.0901C23.6036 22.6253 25.663 24.6847 28.1982 24.6847C30.7334 24.6847 32.7928 22.6253 32.7928 20.0901H40C40 26.6058 34.7138 31.8919 28.1982 31.8919C21.6826 31.8919 16.3964 26.6058 16.3964 20.0901C16.3964 17.5549 14.337 15.4955 11.8018 15.4955Z" fill="url(#paint4_linear)"/>
<defs>
<linearGradient id="paint0_linear" x1="32.3421" y1="12.0721" x2="32.3421" y2="20.1802" gradientUnits="userSpaceOnUse">
<stop stop-color="#094526"/>
<stop offset="1" stop-color="#1C834F"/>
</linearGradient>
<linearGradient id="paint1_linear" x1="9" y1="20" x2="6" y2="32" gradientUnits="userSpaceOnUse">
<stop stop-color="#4BD184"/>
<stop offset="1" stop-color="#6BEFA2"/>
</linearGradient>
<linearGradient id="paint2_linear" x1="10.6304" y1="10" x2="20.18" y2="4.77477" gradientUnits="userSpaceOnUse">
<stop stop-color="#117043"/>
<stop offset="1" stop-color="#28A55F"/>
</linearGradient>
<linearGradient id="paint3_linear" x1="20.18" y1="3.60361" x2="34.0359" y2="11.2333" gradientUnits="userSpaceOnUse">
<stop stop-color="#28A55F"/>
<stop offset="1" stop-color="#31C971"/>
</linearGradient>
<linearGradient id="paint4_linear" x1="0" y1="8.28833" x2="42.4086" y2="13.9962" gradientUnits="userSpaceOnUse">
<stop stop-color="#56E391"/>
<stop offset="1" stop-color="#137545"/>
</linearGradient>
</defs>
</svg>
