<svg width="138" height="38" viewBox="0 0 138 38" fill="none" xmlns="http://www.w3.org/2000/svg">
<path d="M57.2309 16.36C59.5989 16.36 60.6549 17.896 61.0069 19.272L64.3349 18.056C63.6949 15.56 61.3909 12.936 57.1989 12.936C52.7189 12.936 49.2309 16.392 49.2309 21.192C49.2309 25.928 52.7189 29.48 57.2949 29.48C61.3909 29.48 63.7269 26.824 64.4629 24.392L61.1989 23.208C60.8469 24.392 59.7269 26.088 57.2949 26.088C54.9589 26.088 52.9429 24.328 52.9429 21.192C52.9429 18.056 54.9589 16.36 57.2309 16.36ZM71.4714 29V5.832H67.7594V29H71.4714ZM83.1074 26.152C80.8354 26.152 78.7554 24.424 78.7554 21.192C78.7554 17.96 80.8354 16.296 83.1074 16.296C85.4114 16.296 87.4594 17.96 87.4594 21.192C87.4594 24.456 85.4114 26.152 83.1074 26.152ZM83.1074 12.936C78.4674 12.936 75.0434 16.424 75.0434 21.192C75.0434 25.992 78.4674 29.48 83.1074 29.48C87.7794 29.48 91.2034 25.992 91.2034 21.192C91.2034 16.424 87.7794 12.936 83.1074 12.936ZM108.402 13.416H104.498L100.466 24.552L96.3379 13.416H92.2419L98.5779 29H102.29L108.402 13.416ZM113.258 19.496C113.386 17.832 114.73 16.04 117.066 16.04C119.626 16.04 120.842 17.672 120.906 19.496H113.258ZM121.322 23.56C120.81 25.096 119.658 26.28 117.418 26.28C115.114 26.28 113.258 24.584 113.162 22.216H124.554C124.586 22.152 124.65 21.64 124.65 21.032C124.65 16.104 121.834 12.936 117.034 12.936C113.098 12.936 109.45 16.2 109.45 21.128C109.45 26.408 113.194 29.48 117.418 29.48C121.162 29.48 123.626 27.272 124.458 24.552L121.322 23.56ZM137.317 13.32C137.157 13.288 136.773 13.224 136.325 13.224C134.277 13.224 132.549 14.216 131.813 15.912V13.416H128.197V29H131.909V21.576C131.909 18.664 133.221 17 136.101 17C136.485 17 136.901 17.032 137.317 17.096V13.32Z" fill="#1E3723"/>
<path fill-rule="evenodd" clip-rule="evenodd" d="M9 20C13.9706 20 18 15.9706 18 11C18 15.9706 22.0294 20 27 20C22.0294 20 18 24.0294 18 29C18 24.0294 13.9706 20 9 20ZM9 20C4.02944 20 0 24.0294 0 29C0 33.9706 4.02944 38 9 38C13.9706 38 18 33.9706 18 29C18 33.9706 22.0294 38 27 38C31.9706 38 36 33.9706 36 29C36 24.0294 31.9706 20 27 20C31.9706 20 36 15.9706 36 11C36 6.02944 31.9706 2 27 2C22.0294 2 18 6.02944 18 11C18 6.02944 13.9706 2 9 2C4.02944 2 0 6.02944 0 11C0 15.9706 4.02944 20 9 20Z" fill="#1E3723"/>
</svg>
