<?xml version="1.0" encoding="utf-8"?>
<!-- Generator: Adobe Illustrator 19.2.1, SVG Export Plug-In . SVG Version: 6.00 Build 0)  -->
<svg version="1.1" id="layer" xmlns="http://www.w3.org/2000/svg" xmlns:xlink="http://www.w3.org/1999/xlink" x="0px" y="0px"
	 viewBox="0 0 652 652" style="enable-background:new 0 0 652 652;" xml:space="preserve">
<style type="text/css">
	.st0{fill:#396AE8;}
</style>
<path class="st0" d="M619.3,380c0.5,0,0.8-0.4,0.8-0.9v-0.7c0-0.5-0.3-0.8-0.8-0.8h-2.1v2.4C617.2,380,619.3,380,619.3,380z
	 M617.2,381.1v2.7h-1.4v-7.4h3.4c1.5,0,2.4,0.9,2.4,2.4c0,1.3-0.7,2-1.6,2.3l1.6,2.8H620l-1.5-2.7
	C618.5,381.1,617.2,381.1,617.2,381.1z M618,386.4c3.5,0.3,6.5-2.2,6.9-5.7c0-0.4,0-0.8,0-1.2c-0.3-3-2.7-5.5-5.8-5.7
	c-3.5-0.3-6.5,2.2-6.9,5.7c0,0.4,0,0.8,0,1.2C612.5,383.7,615,386.2,618,386.4L618,386.4z M617,372.5L617,372.5z M323.8,340.9
	l-1.2,0.4c-8.9,2.7-18.4,2.6-27.3-0.1l-1.2-0.4l13.8-45.1c0.3-1.1,1.9-1.1,2.2,0L323.8,340.9L323.8,340.9z M292.2,275.7l-38.3,112.1
	h25.8l8.4-27.3l1.2,0.4c12.7,3.9,26.7,3.9,39.3,0.1l1.2-0.4l8.2,27.2h25.8l-38.1-112.1c-2.4-7.1-9.1-11.8-16.5-11.8h-0.4
	C301.2,263.9,294.6,268.7,292.2,275.7z M557.7,294.9h-27.4l-26.7,35.9v-66.9h-23.1v124h23.1v-44.6l31.3,44.6h25.8l-34.2-48.2
	c-1.2-1.7-1.1-4,0.1-5.6C526.6,334.1,557.7,294.9,557.7,294.9z M436.5,294.9h-37.1c-11.4,0-20.7,9.3-20.7,20.7c0,0,0,0,0,0v72.3
	h23.1v-67c0-2.9,2.4-5.3,5.3-5.3l0,0h24.1c2.9,0,5.3,2.4,5.3,5.3c0,0,0,0,0,0v67h23.1v-72.3c0-11.4-9.3-20.7-20.7-20.7H436.5
	L436.5,294.9z M626.3,294.9h-31.4c-11.4,0-20.7,9.3-20.7,20.7l0,0v72.3h23.1v-67c0-2.9,2.4-5.3,5.3-5.3l0,0h23.7
	C626.3,315.6,626.3,294.9,626.3,294.9z M132.3,230.3l64.9,33.3c9.4,4.8,15.3,14.5,15.3,25.1v15.2h-23.9v-15.2c0-1.6-0.9-3.1-2.3-3.8
	l-64.9-33.3c-1.2-0.6-2.7-0.6-3.9,0l-64.9,33.3c-1.4,0.7-2.3,2.2-2.3,3.8v15.2H26.3v-15.2c0-10.6,5.9-20.3,15.3-25.1l64.9-33.3
	C114.6,226.2,124.2,226.2,132.3,230.3z M139.9,325.3c0-11.3-9.2-20.5-20.5-20.5c-11.3,0-20.5,9.2-20.5,20.5
	c0,11.3,9.2,20.5,20.5,20.5C130.7,345.7,139.9,336.6,139.9,325.3z M186.3,367.7c1.4-0.7,2.3-2.2,2.3-3.8v-15.2h23.9V364
	c0,10.6-5.9,20.3-15.3,25l-64.9,33.3c-4,2-8.4,3.1-12.9,3.1c-4.5,0-8.9-1.1-12.9-3.1L41.6,389c-9.4-4.8-15.3-14.5-15.3-25v-15.2
	h23.9V364c0,1.6,0.9,3.1,2.3,3.8l54.9,28.1V368C88.8,362.8,75,345.6,75,325.3c0-24.5,19.9-44.4,44.4-44.4s44.4,19.9,44.4,44.4
	c0,20.3-13.8,37.5-32.5,42.7v27.9L186.3,367.7L186.3,367.7z"/>
</svg>
