<svg width="173" height="29" viewBox="0 0 173 29" fill="none" xmlns="http://www.w3.org/2000/svg">
<g opacity="0.5">
<path d="M45.8797 9.34229L42.2681 20.5177H46.183L46.7051 18.3852H49.7103L50.2142 20.5177H54.2295L50.6018 9.34229H45.8797ZM47.3048 15.9277L47.7517 14.0994L48.1918 12.2025H48.2419L48.6979 14.0994L49.1312 15.9277H47.3048Z" fill="white"/>
<path d="M63.6463 14.7609C63.6349 14.2986 63.4753 13.8456 63.1653 13.4062C62.8552 12.9669 62.3741 12.6008 61.7219 12.3148C61.0698 12.0265 60.2262 11.8823 59.191 11.8823C58.2585 11.8823 57.4399 12.0539 56.7354 12.3994C56.0331 12.745 55.4859 13.2438 55.0983 13.8982C54.7107 14.5526 54.5168 15.3489 54.5168 16.2848C54.5168 17.2206 54.7107 18.0169 55.0983 18.6714C55.4859 19.3258 56.0445 19.8246 56.7764 20.1701C57.5083 20.5156 58.3793 20.6872 59.3917 20.6872C60.2467 20.6872 60.9855 20.5637 61.6102 20.3143C62.235 20.0671 62.7206 19.7422 63.0695 19.3418C63.4183 18.9414 63.5985 18.5043 63.6099 18.0307L60.135 16.9461C60.1236 17.184 60.0871 17.3854 60.0256 17.5547C59.964 17.724 59.8819 17.8499 59.7816 17.9368C59.679 18.0215 59.5445 18.0627 59.3757 18.0627C59.1956 18.0627 59.0314 18.0215 58.8878 17.9368C58.7419 17.8522 58.6256 17.6851 58.5412 17.438C58.4569 17.1909 58.4158 16.8225 58.4158 16.3374C58.4158 15.8638 58.4455 15.4931 58.5093 15.2276C58.5731 14.9622 58.6712 14.7769 58.8125 14.6693C58.9539 14.5618 59.1363 14.5092 59.3598 14.5092C59.5969 14.5092 59.7793 14.6144 59.9093 14.8226C60.0392 15.0309 60.0917 15.3626 60.0689 15.8134L63.6463 14.7609Z" fill="white"/>
<path d="M73.3139 17.7401V15.1155C73.3139 14.1224 72.9513 13.3353 72.2263 12.7541C71.5012 12.1729 70.4295 11.8823 69.0113 11.8823C67.6501 11.8823 66.5944 12.1523 65.8466 12.6946C65.0987 13.2369 64.6837 13.9874 64.6062 14.9462L67.8804 15.4198C67.9032 15.0354 67.9876 14.77 68.1335 14.6236C68.2794 14.4771 68.4823 14.4039 68.74 14.4039C68.9771 14.4039 69.1573 14.4748 69.2804 14.6144C69.4035 14.7563 69.4651 14.9622 69.4651 15.2322V15.5594L66.7996 16.1132C66.0472 16.271 65.4749 16.5456 65.0873 16.9346C64.6997 17.3236 64.5059 17.8224 64.5059 18.4334C64.5059 19.145 64.7453 19.6987 65.2241 20.0923C65.7029 20.4882 66.3847 20.6849 67.2739 20.6849C67.8257 20.6849 68.3227 20.5843 68.7674 20.3806C69.212 20.177 69.5654 19.9047 69.8299 19.5592C69.8892 19.4814 69.9416 19.399 69.9895 19.3166C70.1058 19.6576 70.311 19.9367 70.6074 20.1518C71.0976 20.5065 71.7566 20.6849 72.5911 20.6849C73.1748 20.6849 73.6764 20.5843 74.0937 20.3806L74.2624 18.383C74.194 18.4174 74.0982 18.4334 73.9751 18.4334C73.535 18.4357 73.3139 18.2046 73.3139 17.7401ZM69.3739 18.113C69.3123 18.2252 69.2302 18.3144 69.1299 18.3762C69.0273 18.438 68.9156 18.47 68.7924 18.47C68.5895 18.47 68.4322 18.4128 68.3205 18.3007C68.2087 18.1885 68.1517 18.0421 68.1517 17.8613C68.1517 17.6577 68.2019 17.4952 68.3045 17.3694C68.4071 17.2458 68.5736 17.1543 68.8107 17.0994L69.4696 16.9415V17.692C69.4673 17.859 69.4354 18.0009 69.3739 18.113Z" fill="white"/>
<path d="M79.8097 18.1298C79.5498 18.1298 79.3696 18.052 79.2693 17.8918C79.169 17.7339 79.1166 17.4845 79.1166 17.1459V8.66357H75.2358V17.7385C75.2358 18.8002 75.4616 19.5553 75.9107 20.0084C76.3599 20.4591 77.1078 20.6857 78.1544 20.6857C78.5374 20.6857 78.9273 20.6353 79.3263 20.5324C79.7253 20.4317 80.0332 20.3013 80.2452 20.1434L80.4139 18.0428C80.325 18.0657 80.2315 18.0863 80.1358 18.1023C80.0423 18.1229 79.9328 18.1298 79.8097 18.1298Z" fill="white"/>
<path d="M90.0521 17.7401V15.1155C90.0521 14.1224 89.6896 13.3353 88.9645 12.7541C88.2395 12.1729 87.1678 11.8823 85.7496 11.8823C84.3884 11.8823 83.335 12.1523 82.5848 12.6946C81.8347 13.2369 81.4243 13.9874 81.3445 14.9462L84.6187 15.4198C84.6415 15.0354 84.7258 14.77 84.8718 14.6236C85.0177 14.4771 85.2206 14.4039 85.4783 14.4039C85.7154 14.4039 85.8932 14.4748 86.0187 14.6144C86.1418 14.7563 86.2033 14.9622 86.2033 15.2322V15.5594L83.5379 16.1132C82.7832 16.271 82.2132 16.5456 81.8256 16.9346C81.4379 17.3236 81.2441 17.8224 81.2441 18.4334C81.2441 19.145 81.4835 19.6987 81.9601 20.0923C82.4389 20.4882 83.1207 20.6849 84.0099 20.6849C84.5617 20.6849 85.0587 20.5843 85.5034 20.3806C85.948 20.177 86.3014 19.9047 86.5659 19.5592C86.6252 19.4814 86.6776 19.399 86.7232 19.3166C86.8395 19.6576 87.0447 19.9367 87.3411 20.1518C87.8313 20.5065 88.4903 20.6849 89.3248 20.6849C89.9085 20.6849 90.4101 20.5843 90.8274 20.3806L90.9961 18.383C90.93 18.4174 90.8342 18.4334 90.7088 18.4334C90.271 18.4357 90.0521 18.2046 90.0521 17.7401ZM86.1121 18.113C86.0506 18.2252 85.9685 18.3144 85.8682 18.3762C85.7678 18.438 85.6538 18.47 85.5307 18.47C85.3278 18.47 85.1705 18.4128 85.0587 18.3007C84.947 18.1885 84.89 18.0421 84.89 17.8613C84.89 17.6577 84.9402 17.4952 85.0428 17.3694C85.1431 17.2458 85.3118 17.1543 85.549 17.0994L86.2079 16.9415V17.692C86.2056 17.859 86.1737 18.0009 86.1121 18.113Z" fill="white"/>
<path d="M103.904 13.4908L103.972 15.7927H103.938L103.331 14.4381L100.664 9.34229H96.4136V20.5177H99.82V16.3693L99.7539 14.0651H99.7881L100.395 15.438L103.06 20.5177H107.312V9.34229H103.904V13.4908Z" fill="white"/>
<path d="M116.011 12.3994C115.341 12.0562 114.536 11.8823 113.59 11.8823C112.655 11.8823 111.838 12.0539 111.134 12.3994C110.432 12.745 109.887 13.2461 109.497 13.9074C109.109 14.5686 108.915 15.3604 108.915 16.2871C108.915 17.2138 109.105 18.0055 109.481 18.6668C109.857 19.3281 110.409 19.8292 111.134 20.1747C111.859 20.5202 112.728 20.6918 113.74 20.6918C114.752 20.6918 115.658 20.4767 116.456 20.0488C117.254 19.6209 117.744 19.01 117.924 18.2206L114.803 17.374C114.746 17.6119 114.634 17.7927 114.465 17.9163C114.296 18.0398 114.071 18.1016 113.79 18.1016C113.498 18.1016 113.268 18.0558 113.097 17.9666C112.928 17.8774 112.803 17.708 112.719 17.4586C112.68 17.3442 112.65 17.2001 112.63 17.0353H117.992C118.015 16.9232 118.033 16.7722 118.052 16.5868C118.068 16.4015 118.077 16.2116 118.077 16.0194C118.077 15.1956 117.899 14.4725 117.546 13.8524C117.192 13.2255 116.679 12.7427 116.011 12.3994ZM113.015 14.6258C113.161 14.5137 113.357 14.4565 113.606 14.4565C113.943 14.4565 114.171 14.603 114.29 14.8959C114.358 15.0652 114.406 15.2986 114.436 15.5892H112.634C112.65 15.4473 112.671 15.3169 112.696 15.207C112.762 14.9325 112.869 14.738 113.015 14.6258Z" fill="white"/>
<path d="M125.619 18.0785C125.451 18.1128 125.255 18.1288 125.029 18.1288C124.68 18.1288 124.425 18.0464 124.26 17.884C124.096 17.7215 124.016 17.4469 124.016 17.0625V14.6759H126.142V12.0514H124.016V9.17285L120.136 10.2575V12.0514H118.836V14.6759H120.136V17.6734C120.136 18.408 120.273 18.9937 120.548 19.4353C120.824 19.8747 121.228 20.195 121.764 20.3918C122.297 20.5886 122.958 20.6893 123.747 20.6893C124.176 20.6893 124.63 20.6389 125.113 20.536C125.597 20.4353 125.98 20.2934 126.26 20.1126L126.091 17.9114C125.945 17.9892 125.788 18.0441 125.619 18.0785Z" fill="white"/>
<path d="M137.852 17.8587L136.637 12.0513H132.824L131.609 17.8587L130.647 12.0513H126.632L128.925 20.5175H133.75L134.731 16.353L135.709 20.5175H140.533L142.83 12.0513H138.814L137.852 17.8587Z" fill="white"/>
<path d="M150.431 12.3994C149.729 12.0562 148.904 11.8823 147.96 11.8823C147.025 11.8823 146.204 12.0539 145.497 12.3994C144.788 12.745 144.236 13.2438 143.844 13.8982C143.449 14.5526 143.253 15.3489 143.253 16.2848C143.253 17.2115 143.449 18.0032 143.844 18.6645C144.236 19.3258 144.788 19.8269 145.497 20.1724C146.206 20.5179 147.027 20.6895 147.96 20.6895C148.904 20.6895 149.729 20.5179 150.431 20.1724C151.133 19.8292 151.683 19.3258 152.075 18.6645C152.47 18.0032 152.666 17.2115 152.666 16.2848C152.666 15.3489 152.47 14.5526 152.075 13.8982C151.681 13.2415 151.133 12.7427 150.431 12.3994ZM148.675 17.3762C148.614 17.6302 148.523 17.8087 148.404 17.9094C148.286 18.0101 148.137 18.0627 147.957 18.0627C147.789 18.0627 147.643 18.0124 147.519 17.9094C147.396 17.8087 147.303 17.6302 147.241 17.3762C147.18 17.1223 147.148 16.7584 147.148 16.2848C147.148 15.8111 147.177 15.445 147.241 15.1842C147.303 14.9256 147.396 14.7471 147.519 14.651C147.643 14.5549 147.789 14.5069 147.957 14.5069C148.137 14.5069 148.286 14.5549 148.404 14.651C148.523 14.7471 148.612 14.9256 148.675 15.1842C148.737 15.445 148.769 15.8111 148.769 16.2848C148.769 16.7584 148.737 17.1223 148.675 17.3762Z" fill="white"/>
<path d="M160.14 11.8823C159.477 11.8823 158.945 12.0883 158.546 12.5001C158.147 12.912 157.851 13.468 157.662 14.1682L157.577 12.0516H154.084V20.5179H157.965V16.4541C157.965 16.1383 158.036 15.8775 158.177 15.6761C158.318 15.4725 158.512 15.3169 158.758 15.2093C159.005 15.1018 159.299 15.0492 159.636 15.0492C159.862 15.0492 160.069 15.0652 160.261 15.0995C160.452 15.1338 160.598 15.1727 160.699 15.2185L161.02 12.086C160.963 12.0402 160.867 11.9967 160.733 11.951C160.596 11.9052 160.398 11.8823 160.14 11.8823Z" fill="white"/>
<path d="M168.476 20.5178H172.694L169.5 15.3763L172.507 12.0515H168.339L165.877 15.0422V8.66504H161.996V20.5178H165.877V18.8772L166.96 17.5523L168.476 20.5178Z" fill="white"/>
<path d="M7.33246 28.892C10.2322 26.3706 13.8807 24.9753 17.6202 24.9613C17.6412 24.9613 17.6646 24.9613 17.6855 24.9613C21.0728 24.9613 24.2688 25.9586 26.8746 27.801L23.4336 22.0302C21.957 21.6065 20.4126 21.3911 18.838 21.3911C18.817 21.3911 18.796 21.3911 18.7727 21.3911C16.0642 21.4004 13.4328 22.0536 11.1606 23.278C11.0627 23.3318 10.9484 23.3295 10.8527 23.2803C10.8201 23.264 10.792 23.2429 10.7664 23.2148C10.6637 23.1071 10.6451 22.9456 10.7197 22.8168L17.254 11.6498L15.3784 8.50098L9.45766 18.6262L3.54395 28.892H7.33246Z" fill="white"/>
<path d="M2.00168 27.1577L2.95113 28.5951L8.88586 18.2943L15.0888 7.68205C15.1472 7.58138 15.2568 7.51817 15.3734 7.51817C15.3734 7.51817 15.3734 7.51817 15.3758 7.51817C15.4924 7.51817 15.5997 7.57904 15.6604 7.67971L17.9186 11.4746C17.9186 11.477 17.9209 11.477 17.9209 11.4793L21.4085 17.3391C21.4225 17.3648 21.4341 17.3906 21.4411 17.4163C21.4435 17.4234 21.4458 17.4304 21.4458 17.4374C21.4505 17.4608 21.4528 17.4819 21.4528 17.5053C21.4528 17.51 21.4528 17.5147 21.4528 17.5217C21.4528 17.5498 21.4481 17.5755 21.4388 17.6013C21.4365 17.6083 21.4342 17.613 21.4318 17.62C21.4248 17.6411 21.4155 17.6622 21.4015 17.6832C21.3992 17.6856 21.3992 17.6903 21.3968 17.6949C21.3968 17.6973 21.3945 17.6973 21.3922 17.6996C21.3758 17.723 21.3572 17.7441 21.3362 17.7628C21.3338 17.7652 21.3292 17.7675 21.3268 17.7699C21.3152 17.7792 21.3035 17.7886 21.2895 17.7979C21.2825 17.8026 21.2732 17.805 21.2638 17.8096C21.2592 17.812 21.2545 17.8143 21.2475 17.8167C21.1939 17.8401 21.1402 17.8471 21.0842 17.8424C21.0796 17.8424 21.0772 17.8424 21.0749 17.8424C20.2794 17.7347 19.4606 17.6879 18.6441 17.6856C17.0997 17.6926 15.5811 17.8939 14.1324 18.2896L11.8416 22.2062C13.9668 21.2511 16.3369 20.743 18.763 20.7337C18.7864 20.7337 18.8074 20.7337 18.8307 20.7337C20.5127 20.7337 22.162 20.9701 23.7367 21.436C23.816 21.4594 23.8836 21.5133 23.9279 21.5835L28.2903 28.8994H32.2631L21.0096 10.0512L15.4831 0.796875L0.888916 25.6219L2.00168 27.1577Z" fill="white"/>
<path d="M16.0663 0.468148L32.8486 28.5754L34.6659 25.5015L19.6565 0.454102L16.0663 0.468148Z" fill="white"/>
</g>
</svg>