<svg width="173" height="29" viewBox="0 0 173 29" fill="none" xmlns="http://www.w3.org/2000/svg">
<path d="M45.6665 8.89062L42.0541 20.0683H45.9698L46.492 17.9353H49.4978L50.0018 20.0683H54.0178L50.3895 8.89062H45.6665V8.89062ZM47.0918 15.4773L47.5388 13.6487L47.9789 11.7514H48.0291L48.4852 13.6487L48.9185 15.4773H47.0918Z" fill="white"/>
<path d="M63.4366 14.3103C63.4252 13.8479 63.2656 13.3948 62.9554 12.9554C62.6453 12.516 62.1641 12.1498 61.5118 11.8637C60.8596 11.5753 60.0158 11.4312 58.9804 11.4312C58.0477 11.4312 57.229 11.6028 56.5243 11.9484C55.8219 12.294 55.2745 12.7929 54.8868 13.4474C54.4991 14.102 54.3053 14.8984 54.3053 15.8345C54.3053 16.7705 54.4991 17.567 54.8868 18.2215C55.2745 18.8761 55.8333 19.375 56.5653 19.7206C57.2974 20.0662 58.1685 20.2378 59.1811 20.2378C60.0363 20.2378 60.7752 20.1142 61.4001 19.8648C62.025 19.6176 62.5107 19.2926 62.8596 18.8921C63.2086 18.4916 63.3887 18.0545 63.4001 17.5807L59.9246 16.4959C59.9132 16.7339 59.8767 16.9353 59.8151 17.1047C59.7535 17.274 59.6714 17.3999 59.5711 17.4869C59.4685 17.5716 59.3339 17.6127 59.1651 17.6127C58.985 17.6127 58.8208 17.5716 58.6771 17.4869C58.5312 17.4022 58.4148 17.2351 58.3305 16.988C58.2461 16.7408 58.205 16.3723 58.205 15.8871C58.205 15.4134 58.2347 15.0426 58.2985 14.7771C58.3624 14.5117 58.4605 14.3263 58.6018 14.2187C58.7432 14.1111 58.9257 14.0585 59.1492 14.0585C59.3864 14.0585 59.5688 14.1638 59.6988 14.372C59.8288 14.5803 59.8812 14.9122 59.8584 15.363L63.4366 14.3103Z" fill="white"/>
<path d="M73.106 17.29V14.665C73.106 13.6717 72.7434 12.8844 72.0182 12.3031C71.293 11.7218 70.2211 11.4312 68.8026 11.4312C67.4411 11.4312 66.3852 11.7012 65.6372 12.2436C64.8892 12.786 64.4741 13.5367 64.3966 14.4956L67.6715 14.9694C67.6943 14.5849 67.7787 14.3194 67.9246 14.1729C68.0706 14.0265 68.2735 13.9532 68.5312 13.9532C68.7684 13.9532 68.9486 14.0242 69.0717 14.1638C69.1949 14.3057 69.2565 14.5116 69.2565 14.7817V15.109L66.5905 15.6628C65.8379 15.8207 65.2655 16.0954 64.8778 16.4845C64.4901 16.8735 64.2963 17.3724 64.2963 17.9835C64.2963 18.6953 64.5357 19.2491 65.0146 19.6428C65.4936 20.0387 66.1754 20.2355 67.0648 20.2355C67.6167 20.2355 68.1139 20.1348 68.5586 19.9311C69.0033 19.7274 69.3568 19.4551 69.6213 19.1095C69.6806 19.0317 69.7331 18.9493 69.781 18.8669C69.8973 19.2079 70.1025 19.4871 70.399 19.7023C70.8893 20.057 71.5484 20.2355 72.3831 20.2355C72.9669 20.2355 73.4686 20.1348 73.886 19.9311L74.0547 17.9332C73.9863 17.9675 73.8905 17.9835 73.7674 17.9835C73.3272 17.9858 73.106 17.7546 73.106 17.29ZM69.1652 17.6631C69.1037 17.7752 69.0216 17.8645 68.9212 17.9263C68.8186 17.9881 68.7068 18.0201 68.5837 18.0201C68.3807 18.0201 68.2234 17.9629 68.1116 17.8508C67.9999 17.7386 67.9429 17.5921 67.9429 17.4113C67.9429 17.2077 67.993 17.0452 68.0957 16.9193C68.1983 16.7957 68.3648 16.7042 68.6019 16.6492L69.261 16.4913V17.242C69.2587 17.4091 69.2268 17.551 69.1652 17.6631Z" fill="white"/>
<path d="M79.6033 17.679C79.3434 17.679 79.1632 17.6012 79.0628 17.441C78.9625 17.2831 78.91 17.0336 78.91 16.6949V8.21094H75.0286V17.2877C75.0286 18.3496 75.2543 19.1048 75.7036 19.558C76.1529 20.0088 76.9009 20.2354 77.9477 20.2354C78.3308 20.2354 78.7208 20.1851 79.1199 20.0821C79.519 19.9814 79.8268 19.8509 80.0389 19.693L80.2077 17.592C80.1187 17.6149 80.0252 17.6355 79.9295 17.6516C79.8359 17.6721 79.7265 17.679 79.6033 17.679Z" fill="white"/>
<path d="M89.8476 17.29V14.665C89.8476 13.6717 89.485 12.8844 88.7598 12.3031C88.0346 11.7218 86.9627 11.4312 85.5442 11.4312C84.1827 11.4312 83.1291 11.7012 82.3788 12.2436C81.6285 12.786 81.218 13.5367 81.1382 14.4956L84.413 14.9694C84.4359 14.5849 84.5202 14.3194 84.6662 14.1729C84.8121 14.0265 85.0151 13.9532 85.2728 13.9532C85.51 13.9532 85.6879 14.0242 85.8133 14.1638C85.9364 14.3057 85.998 14.5116 85.998 14.7817V15.109L83.3321 15.6628C82.5772 15.8207 82.0071 16.0954 81.6194 16.4845C81.2317 16.8735 81.0378 17.3724 81.0378 17.9835C81.0378 18.6953 81.2773 19.2491 81.7539 19.6428C82.2328 20.0387 82.9147 20.2355 83.8041 20.2355C84.356 20.2355 84.8532 20.1348 85.2979 19.9311C85.7426 19.7274 86.0961 19.4551 86.3606 19.1095C86.4199 19.0317 86.4724 18.9493 86.518 18.8669C86.6343 19.2079 86.8396 19.4871 87.136 19.7023C87.6263 20.057 88.2854 20.2355 89.1201 20.2355C89.7039 20.2355 90.2056 20.1348 90.623 19.9311L90.7917 17.9332C90.7256 17.9675 90.6298 17.9835 90.5044 17.9835C90.0665 17.9858 89.8476 17.7546 89.8476 17.29ZM85.9068 17.6631C85.8452 17.7752 85.7631 17.8645 85.6628 17.9263C85.5624 17.9881 85.4484 18.0201 85.3253 18.0201C85.1223 18.0201 84.9649 17.9629 84.8532 17.8508C84.7414 17.7386 84.6844 17.5921 84.6844 17.4113C84.6844 17.2077 84.7346 17.0452 84.8372 16.9193C84.9376 16.7957 85.1063 16.7042 85.3435 16.6492L86.0026 16.4913V17.242C86.0003 17.4091 85.9684 17.551 85.9068 17.6631Z" fill="white"/>
<path d="M103.702 13.0399L103.77 15.3423H103.736L103.13 13.9874L100.461 8.89062H96.2103V20.0683H99.6175V15.919L99.5513 13.6144H99.5855L100.192 14.9875L102.858 20.0683H107.111V8.89062H103.702V13.0399Z" fill="white"/>
<path d="M115.812 11.9484C115.141 11.6051 114.336 11.4312 113.39 11.4312C112.455 11.4312 111.638 11.6028 110.934 11.9484C110.231 12.294 109.686 12.7952 109.296 13.4566C108.908 14.118 108.715 14.9099 108.715 15.8368C108.715 16.7637 108.904 17.5555 109.28 18.2169C109.656 18.8784 110.208 19.3796 110.934 19.7252C111.659 20.0707 112.528 20.2424 113.54 20.2424C114.553 20.2424 115.458 20.0273 116.256 19.5993C117.055 19.1713 117.545 18.5602 117.725 17.7707L114.603 16.9239C114.546 17.1619 114.434 17.3427 114.265 17.4663C114.097 17.5899 113.871 17.6517 113.59 17.6517C113.298 17.6517 113.068 17.6059 112.897 17.5166C112.728 17.4274 112.603 17.258 112.519 17.0086C112.48 16.8941 112.45 16.7499 112.43 16.5852H117.793C117.816 16.473 117.834 16.322 117.853 16.1366C117.869 15.9512 117.878 15.7612 117.878 15.569C117.878 14.7451 117.7 14.0219 117.346 13.4017C116.993 12.7746 116.48 12.2917 115.812 11.9484ZM112.815 14.1752C112.961 14.0631 113.157 14.0059 113.406 14.0059C113.743 14.0059 113.971 14.1523 114.09 14.4453C114.158 14.6146 114.206 14.8481 114.236 15.1387H112.434C112.45 14.9968 112.471 14.8664 112.496 14.7565C112.562 14.4819 112.669 14.2874 112.815 14.1752Z" fill="white"/>
<path d="M125.422 17.6286C125.253 17.6629 125.057 17.6789 124.831 17.6789C124.482 17.6789 124.227 17.5965 124.063 17.434C123.898 17.2715 123.819 16.9969 123.819 16.6124V14.2254H125.944V11.6003H123.819V8.72119L119.937 9.80601V11.6003H118.637V14.2254H119.937V17.2235C119.937 17.9581 120.074 18.544 120.35 18.9857C120.626 19.4251 121.029 19.7455 121.565 19.9424C122.099 20.1392 122.76 20.2399 123.549 20.2399C123.978 20.2399 124.432 20.1895 124.915 20.0865C125.399 19.9858 125.782 19.844 126.063 19.6631L125.894 17.4615C125.748 17.5393 125.59 17.5942 125.422 17.6286Z" fill="white"/>
<path d="M137.657 17.4091L136.441 11.6006H132.628L131.413 17.4091L130.45 11.6006H126.434L128.729 20.0685H133.554L134.535 15.9032L135.513 20.0685H140.339L142.635 11.6006H138.619L137.657 17.4091Z" fill="white"/>
<path d="M150.239 11.9484C149.536 11.6051 148.711 11.4312 147.767 11.4312C146.832 11.4312 146.011 11.6028 145.304 11.9484C144.594 12.294 144.042 12.7929 143.65 13.4474C143.256 14.102 143.06 14.8984 143.06 15.8345C143.06 16.7614 143.256 17.5532 143.65 18.2147C144.042 18.8761 144.594 19.3773 145.304 19.7229C146.013 20.0684 146.834 20.2401 147.767 20.2401C148.711 20.2401 149.536 20.0684 150.239 19.7229C150.941 19.3796 151.491 18.8761 151.883 18.2147C152.278 17.5532 152.474 16.7614 152.474 15.8345C152.474 14.8984 152.278 14.102 151.883 13.4474C151.488 12.7906 150.941 12.2917 150.239 11.9484ZM148.483 16.9262C148.421 17.1802 148.33 17.3587 148.211 17.4594C148.093 17.5601 147.945 17.6127 147.764 17.6127C147.596 17.6127 147.45 17.5624 147.326 17.4594C147.203 17.3587 147.11 17.1802 147.048 16.9262C146.987 16.6721 146.955 16.3082 146.955 15.8345C146.955 15.3607 146.984 14.9946 147.048 14.7336C147.11 14.475 147.203 14.2965 147.326 14.2004C147.45 14.1043 147.596 14.0562 147.764 14.0562C147.945 14.0562 148.093 14.1043 148.211 14.2004C148.33 14.2965 148.419 14.475 148.483 14.7336C148.544 14.9946 148.576 15.3607 148.576 15.8345C148.576 16.3082 148.544 16.6721 148.483 16.9262Z" fill="white"/>
<path d="M159.949 11.4312C159.286 11.4312 158.754 11.6371 158.355 12.0491C157.956 12.461 157.66 13.0172 157.47 13.7175L157.386 11.6005H153.892V20.0684H157.774V16.0038C157.774 15.688 157.844 15.4271 157.986 15.2257C158.127 15.022 158.321 14.8664 158.567 14.7588C158.814 14.6513 159.108 14.5986 159.445 14.5986C159.671 14.5986 159.879 14.6146 160.07 14.649C160.262 14.6833 160.408 14.7222 160.508 14.768L160.83 11.6348C160.773 11.5891 160.677 11.5456 160.542 11.4998C160.405 11.454 160.207 11.4312 159.949 11.4312Z" fill="white"/>
<path d="M168.287 20.0685H172.506L169.311 14.9259L172.319 11.6006H168.15L165.687 14.5918V8.21338H161.806V20.0685H165.687V18.4276L166.77 17.1024L168.287 20.0685Z" fill="white"/>
<path d="M23.3012 21.1423C21.8097 20.7006 20.2042 20.4649 18.5325 20.4694C15.7389 20.4809 13.1345 21.1698 10.9406 22.3507L12.448 19.7737L13.7936 17.4759L17.4265 11.2669L20.8359 16.9953L15.2166 7.55469L9.15264 17.9268L3.08411 28.4499H7.4696C10.0307 26.1887 13.5359 24.621 17.4059 24.6073C21.4243 24.5913 25.0572 26.0583 27.657 28.4499L23.3012 21.1423Z" fill="url(#paint0_linear)"/>
<path d="M15.3191 0.0180664L7.99403 12.4797L0.666626 24.939L1.87532 26.6188L3.08401 28.4497L9.14798 17.9266L15.212 7.55454L20.8312 16.9951C20.0444 16.8899 19.2371 16.8372 18.4116 16.8395C16.7924 16.8464 15.237 17.0684 13.7889 17.4757L12.4434 19.7735L10.9359 22.3505C13.1321 21.1673 15.7342 20.4784 18.5279 20.4693C20.1995 20.4624 21.805 20.7004 23.2965 21.1421L27.6546 28.4497H32.291L15.3191 0.0180664Z" fill="url(#paint1_linear)"/>
<path d="M15.3192 0.018306L32.2956 28.45L34.4462 24.8111L19.5816 0L15.3192 0.018306Z" fill="url(#paint2_linear)"/>
<defs>
<linearGradient id="paint0_linear" x1="9.85325" y1="10.3378" x2="16.7834" y2="32.925" gradientUnits="userSpaceOnUse">
<stop offset="0.3934" stop-color="#FF9373"/>
<stop offset="0.5057" stop-color="#FE8F73"/>
<stop offset="0.6158" stop-color="#FB8373"/>
<stop offset="0.7251" stop-color="#F77073"/>
<stop offset="0.8338" stop-color="#F15472"/>
<stop offset="0.9411" stop-color="#E93172"/>
<stop offset="1" stop-color="#E41A72"/>
</linearGradient>
<linearGradient id="paint1_linear" x1="32.2954" y1="14.2338" x2="3.39989" y2="14.2338" gradientUnits="userSpaceOnUse">
<stop offset="0.0932" stop-color="#FF9373"/>
<stop offset="0.1522" stop-color="#FD8A73"/>
<stop offset="0.5513" stop-color="#F04E72"/>
<stop offset="0.8451" stop-color="#E72872"/>
<stop offset="1" stop-color="#E41A72"/>
</linearGradient>
<linearGradient id="paint2_linear" x1="32.3795" y1="14.226" x2="20.7512" y2="14.226" gradientUnits="userSpaceOnUse">
<stop stop-color="#FF9373"/>
<stop offset="1" stop-color="#E41A72"/>
</linearGradient>
</defs>
</svg>