<svg width="134" height="28" viewBox="0 0 134 28" fill="none" xmlns="http://www.w3.org/2000/svg">
<g opacity="0.5">
<path d="M30.4174 27.6452V1.79346H39.2772C42.2009 1.79346 44.4263 2.37938 45.9533 3.55123C47.4802 4.72307 48.2437 6.469 48.2437 8.78909C48.2437 9.97277 47.9241 11.0381 47.2849 11.985C46.6457 12.932 45.7106 13.6658 44.4796 14.1866C45.8763 14.5654 46.9534 15.2816 47.711 16.335C48.4804 17.3767 48.8651 18.6315 48.8651 20.0992C48.8651 22.5257 48.0839 24.39 46.5214 25.6921C44.9708 26.9941 42.7455 27.6452 39.8454 27.6452H30.4174ZM34.9095 15.9799V24.0586H39.8987C41.3072 24.0586 42.4081 23.7094 43.2012 23.0111C43.9942 22.3127 44.3908 21.342 44.3908 20.0992C44.3908 17.4122 43.0177 16.0391 40.2716 15.9799H34.9095ZM34.9095 12.6774H39.3128C40.7095 12.6774 41.7985 12.3638 42.5797 11.7365C43.3728 11.0973 43.7693 10.1977 43.7693 9.03765C43.7693 7.75924 43.4024 6.83596 42.6685 6.2678C41.9465 5.69963 40.816 5.41555 39.2772 5.41555H34.9095V12.6774Z" fill="white"/>
<path d="M57.096 27.6448H52.7815V8.43359H57.096V27.6448Z" fill="white"/>
<path d="M86.2275 17.8613C86.2275 15.9792 86.6011 14.2866 87.3467 12.7833C88.0923 11.2681 89.1395 10.1081 90.4892 9.30325C91.8388 8.48653 93.3892 8.07812 95.1412 8.07812C97.7332 8.07812 99.8348 8.91261 101.444 10.5817C103.066 12.2506 103.942 14.4641 104.072 17.2221L104.09 18.2342C104.09 20.1281 103.723 21.8207 102.989 23.3122C102.267 24.8036 101.225 25.9577 99.8644 26.7744C98.5148 27.5912 96.9524 27.9996 95.1764 27.9996C92.466 27.9996 90.294 27.1 88.6603 25.3008C87.0387 23.4897 86.2275 21.0809 86.2275 18.0743V17.8613ZM90.5428 18.2342C90.5428 20.2109 90.9508 21.7615 91.7676 22.886C92.5844 23.9987 93.7204 24.5551 95.1764 24.5551C96.6324 24.5551 97.7628 23.9868 98.5676 22.8505C99.3844 21.7142 99.7932 20.0511 99.7932 17.8613C99.7932 15.9201 99.3724 14.3813 98.5324 13.2449C97.7036 12.1085 96.5732 11.5404 95.1412 11.5404C93.7324 11.5404 92.614 12.1026 91.7852 13.2272C90.9564 14.3398 90.5428 16.0088 90.5428 18.2342Z" fill="white"/>
<path d="M118.507 22.4244C118.507 21.655 118.188 21.0691 117.549 20.6667C116.922 20.2642 115.874 19.9091 114.405 19.6013C112.938 19.2935 111.713 18.903 110.73 18.4294C108.576 17.3878 107.499 15.8786 107.499 13.9018C107.499 12.2447 108.197 10.8598 109.594 9.74709C110.991 8.63445 112.766 8.07812 114.921 8.07812C117.217 8.07812 119.07 8.64629 120.478 9.78261C121.898 10.9189 122.609 12.3926 122.609 14.2037H118.294C118.294 13.3751 117.986 12.6885 117.371 12.1441C116.755 11.5877 115.939 11.3096 114.921 11.3096C113.973 11.3096 113.198 11.5285 112.595 11.9665C112.003 12.4045 111.707 12.9904 111.707 13.7243C111.707 14.3872 111.985 14.9021 112.541 15.269C113.097 15.636 114.222 16.0088 115.915 16.3876C117.608 16.7546 118.934 17.1984 119.892 17.7193C120.863 18.2282 121.579 18.8438 122.041 19.5658C122.514 20.2879 122.751 21.1638 122.751 22.1935C122.751 23.9218 122.034 25.3244 120.602 26.4016C119.17 27.4669 117.294 27.9996 114.974 27.9996C113.4 27.9996 111.997 27.7155 110.766 27.1473C109.535 26.5792 108.576 25.7979 107.889 24.8036C107.203 23.8093 106.86 22.7381 106.86 21.5899H111.05C111.109 22.6079 111.494 23.395 112.204 23.9514C112.914 24.4959 113.855 24.7681 115.027 24.7681C116.164 24.7681 117.028 24.5551 117.62 24.1289C118.211 23.6909 118.507 23.1228 118.507 22.4244Z" fill="white"/>
<path d="M130.474 3.76367V8.43337H133.972V11.6293H130.474V22.3535C130.474 23.0874 130.616 23.6201 130.9 23.9515C131.196 24.2711 131.717 24.4309 132.462 24.4309C132.96 24.4309 133.463 24.3717 133.972 24.2534V27.5913C132.989 27.8635 132.042 27.9997 131.131 27.9997C127.817 27.9997 126.159 26.1709 126.159 22.5133V3.76367H130.474Z" fill="white"/>
<path d="M61.9825 6.67603C61.9825 4.54538 62.5744 2.90001 63.7581 1.74001C64.9418 0.580002 66.599 0 68.7299 0C69.4875 0 71.0387 0.375281 71.7707 0.637762L71.0379 3.69314C70.5643 3.59842 70.0139 3.55106 69.3867 3.55106C67.3267 3.55106 66.2971 4.6105 66.2971 6.72923V8.43379H71.6939L70.8099 11.7363L66.2971 11.6297V27.645H61.9825V6.67603Z" fill="white"/>
<path d="M52.7811 2.354H57.0961V5.59018H52.7811V2.354Z" fill="white"/>
<path d="M85.6844 8.43359L84.8772 11.6295H79.1388V27.6448H74.8243V8.43359H85.6844Z" fill="white"/>
<path d="M25.6146 8.43359H19.211L0 27.6446H12.8073L25.6146 8.43359Z" fill="white"/>
</g>
</svg>