<svg width="134" height="28" viewBox="0 0 134 28" fill="none" xmlns="http://www.w3.org/2000/svg">
<path d="M30.4171 27.6445V1.79297H39.2771C42.2008 1.79297 44.4262 2.37917 45.9532 3.55096C47.4796 4.72275 48.2434 6.46862 48.2434 8.78856C48.2434 9.97247 47.924 11.0376 47.2844 11.9845C46.6455 12.9313 45.7101 13.6655 44.4795 14.1862C45.8762 14.5651 46.9534 15.281 47.7106 16.3346C48.4798 17.376 48.8648 18.6309 48.8648 20.0985C48.8648 22.5251 48.0834 24.3898 46.5212 25.6913C44.9705 26.9934 42.7452 27.6445 39.8451 27.6445H30.4171ZM34.9092 15.9793V24.0582H39.8984C41.3072 24.0582 42.4081 23.709 43.201 23.0107C43.9939 22.3123 44.3904 21.3418 44.3904 20.0985C44.3904 17.4118 43.0173 16.0387 40.2712 15.9793H34.9092ZM34.9092 12.6773H39.3122C40.7095 12.6773 41.7983 12.3633 42.5797 11.7359C43.3726 11.097 43.769 10.1974 43.769 9.0371C43.769 7.75862 43.4023 6.83537 42.6682 6.26736C41.9462 5.69935 40.8156 5.41504 39.2771 5.41504H34.9092V12.6773Z" fill="white"/>
<path d="M57.0958 27.6448H52.7815V8.43359H57.0958V27.6448Z" fill="white"/>
<path d="M86.2275 17.862C86.2275 15.9797 86.6004 14.2872 87.346 12.7838C88.0916 11.2689 89.1391 10.1087 90.4885 9.30424C91.8379 8.48708 93.3886 8.0791 95.1405 8.0791C97.7327 8.0791 99.8338 8.91324 101.444 10.5821C103.065 12.2516 103.941 14.4648 104.072 17.2231L104.089 18.2348C104.089 20.1286 103.723 21.8211 102.988 23.313C102.266 24.8042 101.225 25.9585 99.8635 26.775C98.5141 27.5916 96.9519 28.0001 95.1763 28.0001C92.4654 28.0001 90.2933 27.1005 88.6602 25.3013C87.038 23.4906 86.2275 21.0815 86.2275 18.0748V17.862ZM90.5419 18.2348C90.5419 20.2117 90.9505 21.7623 91.767 22.8868C92.5836 23.9992 93.7202 24.5557 95.1763 24.5557C96.6318 24.5557 97.7624 23.9877 98.5674 22.8511C99.384 21.715 99.7925 20.0516 99.7925 17.862C99.7925 15.9209 99.3724 14.3818 98.5316 13.2458C97.7036 12.1091 96.573 11.5411 95.1405 11.5411C93.7317 11.5411 92.6133 12.1031 91.7846 13.2276C90.9565 14.3406 90.5419 16.0095 90.5419 18.2348Z" fill="white"/>
<path d="M118.507 22.4249C118.507 21.6556 118.187 21.07 117.548 20.6675C116.92 20.265 115.873 19.9098 114.405 19.6018C112.937 19.2945 111.712 18.9035 110.73 18.43C108.575 17.3886 107.498 15.8791 107.498 13.9023C107.498 12.2455 108.196 10.8604 109.594 9.74798C110.99 8.63499 112.766 8.0791 114.92 8.0791C117.216 8.0791 119.069 8.64712 120.477 9.78314C121.898 10.9198 122.608 12.3935 122.608 14.2042H118.293C118.293 13.3761 117.986 12.6893 117.37 12.1449C116.755 11.5884 115.938 11.3102 114.92 11.3102C113.973 11.3102 113.197 11.529 112.594 11.9673C112.002 12.405 111.706 12.9912 111.706 13.7253C111.706 14.3879 111.984 14.9025 112.541 15.2699C113.097 15.6366 114.221 16.0094 115.914 16.3883C117.607 16.7551 118.933 17.1988 119.891 17.7202C120.862 18.2288 121.578 18.8447 122.04 19.5666C122.513 20.2886 122.75 21.1646 122.75 22.1945C122.75 23.9222 122.034 25.325 120.602 26.4022C119.169 27.4673 117.293 28.0001 114.973 28.0001C113.399 28.0001 111.996 27.7158 110.765 27.1478C109.534 26.5798 108.575 25.7984 107.889 24.8043C107.202 23.8101 106.859 22.7389 106.859 21.5908H111.049C111.108 22.6086 111.493 23.3954 112.203 23.9519C112.914 24.4963 113.855 24.7685 115.026 24.7685C116.163 24.7685 117.027 24.5557 117.619 24.1295C118.211 23.6919 118.507 23.1232 118.507 22.4249Z" fill="white"/>
<path d="M130.473 3.76367V8.43326H133.971V11.6292H130.473V22.3535C130.473 23.0876 130.615 23.6199 130.899 23.9514C131.195 24.2709 131.716 24.431 132.461 24.431C132.959 24.431 133.462 24.3715 133.971 24.2533V27.5911C132.988 27.8639 132.041 27.9997 131.13 27.9997C127.815 27.9997 126.159 26.1708 126.159 22.5135V3.76367H130.473Z" fill="white"/>
<path d="M61.9824 6.67611C61.9824 4.54531 62.5741 2.90007 63.7574 1.7398C64.9413 0.580133 66.5987 0 68.7289 0C69.4866 0 71.0385 0.375241 71.7702 0.637727L71.0373 3.69299C70.5638 3.59842 70.0134 3.55114 69.386 3.55114C67.3267 3.55114 66.2968 4.61017 66.2968 6.72946V8.4335H71.6938L70.8093 11.7361L66.2968 11.6294V27.6447H61.9824V6.67611Z" fill="white"/>
<path d="M52.7809 2.354H57.0958V5.58991H52.7809V2.354Z" fill="white"/>
<path d="M85.6837 8.43359L84.8769 11.6295H79.138V27.6448H74.8236V8.43359H85.6837Z" fill="white"/>
<path d="M25.6144 8.43359H19.2108L0 27.6448H12.8073L25.6144 8.43359Z" fill="url(#paint0_linear)"/>
<defs>
<linearGradient id="paint0_linear" x1="12.8073" y1="8.43359" x2="12.8073" y2="27.6448" gradientUnits="userSpaceOnUse">
<stop stop-color="#7AEDCF"/>
<stop offset="0.201333" stop-color="#68CEFA"/>
<stop offset="0.403244" stop-color="#689CF8"/>
<stop offset="0.602076" stop-color="#AC57C0"/>
<stop offset="0.801867" stop-color="#E65659"/>
<stop offset="1" stop-color="#F2C241"/>
</linearGradient>
</defs>
</svg>