<svg width="124" height="36" viewBox="0 0 124 36" fill="none" xmlns="http://www.w3.org/2000/svg">
<path d="M52.1206 6.49867H50.0871L46.5038 19.0453H50.4524L53.5125 8.44334C53.5902 8.21308 53.6119 7.96762 53.5759 7.72729C53.5398 7.48697 53.447 7.25868 53.3052 7.06134C53.168 6.87871 52.9886 6.7321 52.7822 6.63409C52.5759 6.53609 52.3489 6.48962 52.1206 6.49867Z" fill="white"/>
<path d="M54.9043 3.66486C54.7258 4.21456 54.3851 4.69736 53.927 5.04975C53.4689 5.40214 52.9149 5.60762 52.3378 5.63915C52.1476 5.64979 51.9573 5.62265 51.7777 5.55929C51.5982 5.49594 51.4329 5.39763 51.2916 5.27004C51.1502 5.14246 51.0356 4.98813 50.9542 4.81597C50.8728 4.64381 50.8264 4.45723 50.8176 4.26702C50.8052 4.05502 50.8389 3.84286 50.9163 3.64512C51.0936 3.09469 51.434 2.61113 51.8923 2.25855C52.3507 1.90597 52.9054 1.701 53.4829 1.67082C53.6725 1.65883 53.8626 1.6847 54.0421 1.74694C54.2216 1.80919 54.387 1.90654 54.5285 2.03334C54.67 2.16014 54.7848 2.31385 54.8663 2.48549C54.9478 2.65714 54.9943 2.84329 55.0031 3.03308C55.0219 3.24857 54.988 3.4654 54.9043 3.66486Z" fill="white"/>
<path d="M71.1724 5.80697C70.3863 5.80302 69.6074 5.95745 68.8822 6.26106C68.5333 6.41136 68.2022 6.60008 67.8951 6.82373L68.8032 3.61551C68.8851 3.38919 68.9117 3.14658 68.8808 2.9079C68.8499 2.66922 68.7624 2.44139 68.6256 2.24338C68.4882 2.05544 68.3061 1.90469 68.0958 1.80473C67.8856 1.70477 67.6537 1.65875 67.4212 1.67083H65.447L60.5112 19.0347H64.3907L66.3058 12.3616C66.5044 11.4914 66.938 10.6924 67.5594 10.0517C67.7923 9.80787 68.0729 9.61457 68.3836 9.48381C68.6944 9.35305 69.0288 9.28762 69.3659 9.29159C69.6319 9.26315 69.8999 9.3219 70.1296 9.459C70.3592 9.59609 70.5381 9.8041 70.6393 10.0517C70.8789 10.8072 70.8546 11.6218 70.5702 12.3616L68.665 19.0347H72.6136L74.4793 12.4998C75.0769 10.9463 75.0769 9.22623 74.4793 7.67268C74.182 7.06329 73.7066 6.55858 73.1161 6.22541C72.5255 5.89224 71.8477 5.74632 71.1724 5.80697Z" fill="white"/>
<path d="M106.512 5.78654C104.678 5.7463 102.875 6.26254 101.34 7.26725C101.009 6.77567 100.555 6.37992 100.023 6.11994C99.4911 5.85996 98.8999 5.74495 98.3091 5.78654C97.5269 5.78024 96.7515 5.93131 96.0288 6.23075C95.6003 6.40608 95.1956 6.63494 94.8245 6.91188C94.7645 6.58077 94.584 6.28361 94.3179 6.07764C94.0518 5.87168 93.7189 5.7715 93.3833 5.79641H91.409L87.6578 19.0241H91.5373L93.4524 12.3412C93.6588 11.474 94.0914 10.6769 94.7061 10.0313C94.937 9.78421 95.2169 9.58811 95.528 9.45553C95.8391 9.32294 96.1744 9.25678 96.5125 9.26129C96.7808 9.23459 97.0505 9.29508 97.2817 9.43378C97.5128 9.57248 97.6931 9.782 97.7958 10.0313C98.0248 10.7882 98.0006 11.5993 97.7267 12.3412L95.8116 19.0241H99.7602L101.675 12.3412C101.88 11.471 102.316 10.6726 102.939 10.0313C103.167 9.7835 103.445 9.58681 103.755 9.45411C104.064 9.32141 104.399 9.2557 104.735 9.26129C105.004 9.23459 105.273 9.29508 105.505 9.43378C105.736 9.57248 105.916 9.782 106.019 10.0313C106.253 10.7875 106.229 11.6003 105.95 12.3412L104.044 19.0241H107.993L109.869 12.4695C110.456 10.9141 110.456 9.19779 109.869 7.64237C109.567 7.02632 109.083 6.51789 108.483 6.18595C107.882 5.854 107.195 5.71457 106.512 5.78654Z" fill="white"/>
<path d="M75.5852 13.329L77.7372 5.77734H81.6858L79.5042 13.329C78.8724 15.5501 80.9454 15.5402 80.9454 15.5402C81.5914 15.529 82.2159 15.3068 82.7238 14.9076C83.2318 14.5084 83.5952 13.954 83.7588 13.329L85.9108 5.77734H89.8297L87.658 13.329C87.1893 14.9986 86.1781 16.4647 84.784 17.4961C83.3898 18.5274 81.692 19.0653 79.9583 19.0248C79.9583 19.0248 73.838 19.4197 75.5852 13.329Z" fill="white"/>
<path d="M123.166 12.4801C123.739 10.9182 123.718 9.20025 123.106 7.65293C122.816 7.05358 122.352 6.55576 121.774 6.22463C121.197 5.89351 120.532 5.7445 119.869 5.7971C119.083 5.78587 118.303 5.9371 117.578 6.24132C117.228 6.39336 116.897 6.58549 116.591 6.81386L117.47 3.61551C117.552 3.38919 117.578 3.14658 117.547 2.9079C117.516 2.66923 117.429 2.44139 117.292 2.24338C117.153 2.05674 116.971 1.90695 116.761 1.80713C116.551 1.70731 116.32 1.66051 116.088 1.67084H114.114L110.826 13.2007C109.02 19.4987 115.397 19.0347 115.397 19.0347C115.397 19.0347 121.26 19.163 123.166 12.4801ZM119.276 12.3517C119.062 13.2681 118.617 14.1143 117.983 14.8097C117.75 15.0535 117.469 15.2474 117.159 15.3797C116.848 15.5121 116.514 15.5801 116.177 15.5797C115.903 15.6073 115.628 15.5477 115.39 15.4094C115.153 15.2711 114.965 15.0612 114.854 14.8097C114.644 14.0018 114.696 13.1482 115.002 12.3715C115.205 11.4978 115.641 10.6958 116.265 10.0517C116.498 9.80692 116.778 9.61299 117.089 9.48215C117.4 9.35132 117.735 9.28643 118.072 9.29159C118.338 9.26478 118.605 9.32421 118.834 9.4611C119.064 9.59799 119.243 9.80507 119.345 10.0517C119.58 10.8113 119.555 11.6272 119.276 12.3715V12.3517Z" fill="white"/>
<path d="M60.7086 3.62584C60.7881 3.39748 60.8135 3.15374 60.7826 2.91389C60.7518 2.67405 60.6656 2.44465 60.5309 2.24384C60.4011 2.05816 60.2259 1.90892 60.0219 1.8104C59.818 1.71187 59.5921 1.66737 59.366 1.68117H57.3325L53.147 16.3501C52.5844 18.3738 53.5715 18.8871 54.5192 18.9562C55.1805 19.0154 55.9801 19.045 56.76 19.045C57.2634 19.045 57.7471 19.045 58.1617 19.045H58.5566L59.4549 15.7973H57.7076C57.2239 15.7973 57.2733 15.6295 57.3227 15.4617L59.1291 9.15385H59.6128C60.1648 9.14109 60.6979 8.95069 61.133 8.61092C61.6108 8.26838 61.9586 7.77439 62.1202 7.20918L62.4262 6.1628H59.9781L60.7086 3.62584Z" fill="white"/>
<path d="M46.9777 12.4811C47.5595 10.9215 47.5419 9.20142 46.9284 7.65398C46.6355 7.0547 46.1692 6.55731 45.5901 6.22637C45.0109 5.89543 44.3457 5.74624 43.6807 5.79815C42.898 5.78685 42.1215 5.93811 41.4004 6.24236C41.0495 6.39283 40.7181 6.58507 40.4132 6.81491L41.3313 3.61656C41.4085 3.38947 41.4326 3.14772 41.4018 2.90986C41.371 2.672 41.2861 2.44436 41.1536 2.24443C41.0117 2.05888 40.8274 1.91006 40.6161 1.81044C40.4049 1.71082 40.1728 1.66331 39.9394 1.67188H37.9651L34.6977 13.2017C32.8912 19.4997 39.2681 19.0358 39.2681 19.0358C39.2681 19.0358 45.0725 19.1641 46.9777 12.4811ZM43.0884 12.3528C42.8744 13.2691 42.4292 14.1154 41.7952 14.8108C41.564 15.0547 41.2853 15.2488 40.9764 15.3812C40.6675 15.5136 40.3347 15.5815 39.9986 15.5808C39.7249 15.6099 39.449 15.551 39.2111 15.4125C38.9732 15.274 38.7857 15.0632 38.6758 14.8108C38.4621 14.0032 38.514 13.1483 38.8239 12.3725C39.0283 11.5016 39.461 10.7009 40.0776 10.0527C40.3105 9.80892 40.591 9.61562 40.9018 9.48486C41.2126 9.35409 41.5469 9.28867 41.8841 9.29264C42.1512 9.26521 42.42 9.32426 42.651 9.4611C42.8821 9.59793 43.063 9.80533 43.1674 10.0527C43.3984 10.8135 43.3706 11.6293 43.0884 12.3725V12.3528Z" fill="white"/>
<path d="M57.0764 33.0623C56.0844 33.9306 54.8011 34.3925 53.4832 34.3554C52.9523 34.4038 52.418 34.3126 51.9332 34.091C51.4484 33.8694 51.0299 33.525 50.7192 33.0919C49.8801 31.9073 50.2651 30.4364 50.7784 28.4918C51.2917 26.5471 51.6767 25.0763 53.1278 23.8917C54.0786 23.0701 55.2967 22.6243 56.5532 22.638C59.4258 22.638 60.1464 24.5629 59.9194 26.4583H57.1554C57.1554 25.5797 56.8395 25.1552 55.9017 25.1552C55.4451 25.1641 55.0083 25.3437 54.6776 25.6587C54.342 26.0042 54.0853 26.3892 53.5325 28.5016C52.9797 30.6141 53.0291 31.009 53.187 31.3446C53.2837 31.5159 53.4293 31.6543 53.6052 31.7423C53.7811 31.8302 53.9792 31.8636 54.1742 31.8382C54.6637 31.8555 55.1423 31.6901 55.5167 31.3742C55.8912 31.0528 56.1539 30.6207 56.2669 30.1403V29.9824H54.6283L55.2798 27.6428H59.6627L59.2284 29.2223C58.9653 30.7085 58.2068 32.062 57.0764 33.0623Z" fill="#EC7000"/>
<path d="M59.4746 34.2559L62.4953 22.7063H63.2949C63.5379 22.6914 63.7807 22.7379 64.0011 22.8415C64.2214 22.9451 64.4121 23.1025 64.5557 23.2991C64.6992 23.4958 64.791 23.7254 64.8225 23.9668C64.8541 24.2082 64.8243 24.4537 64.7361 24.6806L62.8901 31.7288H67.5791L66.9177 34.2559H59.4746Z" fill="#EC7000"/>
<path d="M75.437 33.0914C74.4837 33.9164 73.2624 34.3656 72.0017 34.355C71.4679 34.4049 70.9302 34.3146 70.442 34.093C69.9538 33.8714 69.5318 33.5261 69.218 33.0914C68.3789 31.9068 68.7737 30.436 69.2772 28.4913C69.7806 26.5467 70.1755 25.0758 71.6365 23.8912C72.5879 23.0642 73.8113 22.6177 75.0717 22.6376C75.6048 22.5855 76.1421 22.6739 76.6305 22.8938C77.1188 23.1137 77.5411 23.4576 77.8555 23.8912C78.6847 25.0758 78.2997 26.5467 77.7962 28.4913C77.2928 30.436 76.8979 31.9068 75.437 33.0914ZM75.3777 25.6681C75.2825 25.495 75.1375 25.3545 74.9615 25.2648C74.7855 25.175 74.5866 25.1402 74.3906 25.1646C73.9291 25.1639 73.4859 25.3448 73.1567 25.6681C72.821 26.0136 72.5644 26.3887 72.0116 28.5012C71.4588 30.6137 71.518 30.9789 71.6759 31.3146C71.7684 31.4913 71.9122 31.6358 72.0884 31.7292C72.2646 31.8226 72.465 31.8605 72.6631 31.8377C73.1265 31.829 73.5686 31.6416 73.897 31.3146C74.2425 30.9789 74.4893 30.6038 75.0421 28.5012C75.5949 26.3986 75.5456 26.0037 75.3777 25.6681Z" fill="#EC7000"/>
<path d="M82.7324 34.2561H77.8756L80.9456 22.7065H85.5753C87.905 22.7065 88.7836 24.0491 88.2702 26.0431C87.9776 27.0124 87.3239 27.8323 86.444 28.3333C86.8361 28.603 87.1223 29.0004 87.2537 29.4578C87.3852 29.9151 87.3537 30.4039 87.1646 30.8406C86.9363 31.8355 86.3694 32.7201 85.5609 33.3431C84.7524 33.9661 83.7525 34.2889 82.7324 34.2561ZM84.7067 25.2632H82.9693L82.4757 27.1487H84.1933C84.4769 27.1646 84.7569 27.079 84.9831 26.9071C85.2092 26.7352 85.3667 26.4884 85.4273 26.2109C85.5556 25.7568 85.4273 25.2731 84.6869 25.2731L84.7067 25.2632ZM83.7195 29.6857H81.8143L81.2813 31.6599H83.1371C83.4302 31.6656 83.7164 31.5707 83.948 31.3911C84.1797 31.2115 84.3429 30.958 84.4105 30.6728C84.5388 30.1891 84.4105 29.6857 83.6702 29.6857H83.7195Z" fill="#EC7000"/>
<path d="M94.0643 34.2561L93.9952 32.578H90.5599L89.5728 34.2956H86.6804L93.778 22.7065H95.8905L96.9369 34.2561H94.0643ZM93.778 27.0993L91.9715 30.1792H93.9458L93.778 27.0993Z" fill="#EC7000"/>
<path d="M97.7267 34.2564L100.787 22.7068H101.596C101.786 22.6975 101.975 22.7257 102.153 22.7896C102.332 22.8536 102.496 22.9521 102.636 23.0796C102.776 23.207 102.89 23.3609 102.971 23.5324C103.052 23.7039 103.098 23.8896 103.107 24.0789C103.115 24.2698 103.088 24.4605 103.028 24.6416L101.172 31.7096H105.861L105.199 34.2367L97.7267 34.2564Z" fill="#EC7000"/>
<path d="M45.2306 29.3607H35.0235C34.4214 29.3607 34.1252 28.877 34.3523 28.2748C34.4784 27.9734 34.6851 27.7125 34.9498 27.5209C35.2146 27.3294 35.527 27.2145 35.8527 27.189H46.0598C46.662 27.189 46.9581 27.6727 46.7311 28.2748C46.6059 28.5769 46.3994 28.8384 46.1345 29.0301C45.8696 29.2218 45.5567 29.3362 45.2306 29.3607Z" fill="#EC7000"/>
<path d="M121.883 29.3607H111.676C111.073 29.3607 110.777 28.877 111.004 28.2748C111.131 27.9719 111.339 27.7101 111.606 27.5185C111.873 27.3268 112.187 27.2127 112.515 27.189H122.712C123.314 27.189 123.61 27.6727 123.383 28.2748C123.258 28.5769 123.051 28.8384 122.787 29.0301C122.522 29.2218 122.209 29.3362 121.883 29.3607Z" fill="#EC7000"/>
<path d="M0.216672 14.5138C-0.0668048 15.1883 -0.0723266 15.9475 0.201309 16.626C0.474945 17.3046 1.00558 17.8475 1.67766 18.1367C2.08137 18.3124 2.52189 18.387 2.96096 18.3538H3.94811L6.67265 8.63037H1.91458L0.216672 14.5138Z" fill="#EC7000"/>
<path d="M26.4752 12.391C25.2017 9.87371 22.951 8.61015 19.7921 8.61015H13.8692L11.1052 18.3928H15.2907C15.6172 18.3401 15.9519 18.3967 16.2429 18.5538C16.5338 18.7109 16.7648 18.9597 16.8998 19.2615C17.1968 20.2148 17.1656 21.2402 16.8109 22.1736C16.54 23.3205 15.983 24.3801 15.192 25.2536C14.9051 25.5669 14.5557 25.8167 14.1663 25.9867C13.777 26.1567 13.3563 26.2432 12.9314 26.2407C12.5868 26.277 12.2397 26.2004 11.9424 26.0223C11.645 25.8443 11.4136 25.5745 11.2829 25.2536C11.0168 24.2364 11.0825 23.1608 11.4704 22.1835L16.6332 4.02976C16.7985 3.56026 16.8515 3.05858 16.7881 2.5649C16.7247 2.07123 16.5466 1.59925 16.268 1.18676C15.9883 0.80373 15.6188 0.495347 15.1918 0.288776C14.7649 0.0822038 14.2938 -0.0162188 13.8199 0.00217685H8.06476L1.28302 23.8814C-2.43855 36.9513 10.7005 35.9839 10.7005 35.9839C10.7005 35.9839 22.7042 36.2504 26.5838 22.4007C27.7486 18.3237 27.7091 14.9575 26.4752 12.391Z" fill="url(#paint0_linear)"/>
<path d="M26.5832 22.3512C27.748 18.294 27.7085 14.9476 26.4746 12.4007C25.2406 9.85385 22.9406 8.63965 19.7422 8.63965H15.3494L12.5853 18.3631H15.3099C15.6351 18.3092 15.969 18.3654 16.2587 18.5228C16.5484 18.6801 16.7772 18.9297 16.9091 19.2318C17.204 20.178 17.1762 21.1954 16.8301 22.1242" fill="url(#paint1_linear)"/>
<defs>
<linearGradient id="paint0_linear" x1="14.0245" y1="-3.98192e-07" x2="22.9948" y2="31.5949" gradientUnits="userSpaceOnUse">
<stop stop-color="#FFCB46"/>
<stop offset="1" stop-color="#EC7000"/>
</linearGradient>
<linearGradient id="paint1_linear" x1="21.5918" y1="22.4457" x2="18.0163" y2="12.9437" gradientUnits="userSpaceOnUse">
<stop stop-color="#F28D16" stop-opacity="0.17"/>
<stop offset="1" stop-color="#EC7000"/>
</linearGradient>
</defs>
</svg>