<svg width="155" height="37" viewBox="0 0 155 37" fill="none" xmlns="http://www.w3.org/2000/svg">
<path d="M58.2017 16.904H55.4714L50.6602 33.7499H55.9618L60.0705 19.515C60.1749 19.2058 60.204 18.8763 60.1557 18.5536C60.1072 18.2309 59.9826 17.9244 59.7922 17.6594C59.608 17.4142 59.3671 17.2174 59.09 17.0858C58.813 16.9542 58.5082 16.8918 58.2017 16.904Z" fill="#fff"/>
<path d="M61.9377 13.0991C61.6981 13.8372 61.2406 14.4854 60.6255 14.9586C60.0105 15.4317 59.2666 15.7076 58.4918 15.75C58.2364 15.7642 57.9809 15.7278 57.7397 15.6427C57.4987 15.5577 57.2768 15.4257 57.0871 15.2544C56.8972 15.0831 56.7433 14.8759 56.634 14.6447C56.5247 14.4135 56.4624 14.163 56.4506 13.9076C56.434 13.623 56.4792 13.3381 56.5832 13.0726C56.8212 12.3336 57.2783 11.6843 57.8936 11.2109C58.5091 10.7375 59.2539 10.4623 60.0293 10.4218C60.2838 10.4057 60.5391 10.4404 60.7801 10.524C61.0211 10.6076 61.2432 10.7383 61.4331 10.9085C61.6231 11.0788 61.7773 11.2852 61.8867 11.5156C61.9961 11.7461 62.0586 11.996 62.0704 12.2509C62.0956 12.5402 62.0501 12.8313 61.9377 13.0991Z" fill="#fff"/>
<path d="M83.7832 15.9753C82.7278 15.97 81.682 16.1774 80.7083 16.585C80.2398 16.7868 79.7952 17.0402 79.3829 17.3405L80.6022 13.0329C80.7121 12.729 80.7479 12.4033 80.7064 12.0828C80.6649 11.7624 80.5474 11.4565 80.3637 11.1906C80.1792 10.9383 79.9347 10.7358 79.6524 10.6016C79.3701 10.4674 79.0588 10.4056 78.7466 10.4218H76.0959L69.4688 33.7358H74.6776L77.249 24.776C77.5156 23.6076 78.0978 22.5348 78.9322 21.6746C79.2449 21.3472 79.6216 21.0877 80.0388 20.9121C80.4561 20.7365 80.9051 20.6487 81.3577 20.654C81.7148 20.6158 82.0747 20.6947 82.3831 20.8788C82.6914 21.0629 82.9316 21.3422 83.0675 21.6746C83.3892 22.689 83.3565 23.7827 82.9747 24.776L80.4166 33.7358H85.7183L88.2233 24.9616C89.0257 22.8757 89.0257 20.5663 88.2233 18.4804C87.8241 17.6621 87.1858 16.9845 86.393 16.5371C85.6 16.0898 84.6899 15.8939 83.7832 15.9753Z" fill="#fff"/>
<path d="M131.231 15.9479C128.769 15.8939 126.348 16.587 124.287 17.936C123.842 17.276 123.233 16.7446 122.518 16.3955C121.804 16.0465 121.01 15.8921 120.217 15.9479C119.167 15.9394 118.126 16.1423 117.156 16.5443C116.58 16.7797 116.037 17.087 115.539 17.4589C115.458 17.0143 115.216 16.6153 114.858 16.3387C114.501 16.0622 114.054 15.9277 113.603 15.9611H110.953L105.916 33.7216H111.125L113.696 24.7486C113.973 23.5843 114.554 22.514 115.38 21.6472C115.69 21.3155 116.065 21.0522 116.483 20.8741C116.901 20.6961 117.351 20.6073 117.805 20.6133C118.165 20.5775 118.527 20.6587 118.838 20.8449C119.148 21.0312 119.39 21.3125 119.528 21.6472C119.835 22.6635 119.803 23.7525 119.435 24.7486L116.864 33.7216H122.166L124.737 24.7486C125.012 23.5803 125.597 22.5083 126.434 21.6472C126.74 21.3145 127.113 21.0504 127.529 20.8722C127.944 20.6941 128.394 20.6058 128.845 20.6133C129.206 20.5775 129.567 20.6587 129.879 20.8449C130.189 21.0312 130.431 21.3125 130.569 21.6472C130.883 22.6625 130.851 23.7539 130.476 24.7486L127.917 33.7216H133.219L135.738 24.9209C136.526 22.8325 136.526 20.5281 135.738 18.4397C135.333 17.6125 134.683 16.9299 133.877 16.4842C133.07 16.0385 132.148 15.8513 131.231 15.9479Z" fill="#fff"/>
<path d="M89.7064 26.0749L92.5958 15.9355H97.8975L94.9683 26.0749C94.12 29.0571 96.9034 29.0439 96.9034 29.0439C97.7707 29.0288 98.6092 28.7305 99.2912 28.1945C99.9733 27.6585 100.461 26.9141 100.681 26.0749L103.57 15.9355H108.832L105.916 26.0749C105.287 28.3167 103.929 30.2852 102.057 31.67C100.185 33.0547 97.9058 33.7769 95.578 33.7225C95.578 33.7225 87.3605 34.2527 89.7064 26.0749Z" fill="#fff"/>
<path d="M153.593 24.9351C154.362 22.838 154.334 20.5313 153.512 18.4538C153.123 17.6491 152.5 16.9806 151.724 16.536C150.949 16.0915 150.056 15.8914 149.166 15.962C148.111 15.9469 147.063 16.15 146.09 16.5585C145.62 16.7626 145.176 17.0206 144.765 17.3272L145.945 13.0329C146.055 12.729 146.09 12.4032 146.048 12.0828C146.007 11.7623 145.89 11.4564 145.706 11.1905C145.519 10.9399 145.275 10.7388 144.993 10.6048C144.711 10.4708 144.401 10.4079 144.089 10.4218H141.439L137.024 25.9026C134.599 34.3588 143.162 33.7358 143.162 33.7358C143.162 33.7358 151.034 33.908 153.593 24.9351ZM148.37 24.7627C148.083 25.9931 147.485 27.1293 146.634 28.063C146.321 28.3903 145.944 28.6507 145.527 28.8283C145.11 29.0061 144.661 29.0974 144.209 29.0968C143.841 29.1339 143.472 29.0539 143.152 28.8682C142.834 28.6825 142.582 28.4007 142.433 28.063C142.151 26.9782 142.22 25.8321 142.631 24.7893C142.904 23.6162 143.489 22.5394 144.327 21.6745C144.64 21.3459 145.016 21.0855 145.433 20.9098C145.851 20.7342 146.301 20.647 146.753 20.654C147.11 20.618 147.469 20.6978 147.776 20.8816C148.085 21.0654 148.326 21.3434 148.463 21.6745C148.778 22.6944 148.744 23.7899 148.37 24.7893V24.7627Z" fill="#fff"/>
<path d="M69.7328 13.0467C69.8395 12.7401 69.8736 12.4128 69.8321 12.0908C69.7908 11.7688 69.675 11.4608 69.4942 11.1912C69.3199 10.9418 69.0847 10.7415 68.8107 10.6092C68.537 10.4769 68.2337 10.4171 67.9301 10.4357H65.1998L59.58 30.1312C58.8246 32.8484 60.15 33.5376 61.4224 33.6304C62.3103 33.7098 63.3839 33.7496 64.4311 33.7496C65.107 33.7496 65.7564 33.7496 66.3131 33.7496H66.8433L68.0495 29.389H65.7034C65.054 29.389 65.1203 29.1637 65.1866 28.9384L67.612 20.469H68.2615C69.0026 20.4519 69.7184 20.1962 70.3026 19.74C70.9441 19.2801 71.4111 18.6169 71.6281 17.858L72.0389 16.453H68.7519L69.7328 13.0467Z" fill="#fff"/>
<path d="M51.2957 24.9364C52.0769 22.8424 52.0533 20.5329 51.2295 18.4552C50.8363 17.6506 50.2102 16.9827 49.4326 16.5384C48.655 16.094 47.7618 15.8937 46.8689 15.9634C45.818 15.9482 44.7755 16.1513 43.8073 16.5598C43.3361 16.7619 42.8912 17.02 42.4818 17.3286L43.7145 13.0343C43.8181 12.7294 43.8505 12.4048 43.8091 12.0854C43.7678 11.766 43.6538 11.4604 43.4759 11.1919C43.2854 10.9428 43.0379 10.743 42.7542 10.6092C42.4706 10.4755 42.159 10.4117 41.8456 10.4232H39.1948L34.8077 25.904C32.3822 34.3601 40.9443 33.7372 40.9443 33.7372C40.9443 33.7372 48.7377 33.9095 51.2957 24.9364ZM46.0737 24.7642C45.7864 25.9944 45.1886 27.1307 44.3373 28.0644C44.0269 28.3919 43.6527 28.6525 43.238 28.8303C42.8232 29.0081 42.3764 29.0992 41.9251 29.0983C41.5576 29.1374 41.1872 29.0583 40.8677 28.8723C40.5483 28.6864 40.2966 28.4033 40.149 28.0644C39.8621 26.9801 39.9318 25.8323 40.3479 24.7906C40.6223 23.6213 41.2033 22.5462 42.0312 21.6759C42.3439 21.3486 42.7205 21.089 43.1378 20.9135C43.5551 20.7379 44.004 20.65 44.4567 20.6554C44.8153 20.6185 45.1762 20.6978 45.4864 20.8816C45.7967 21.0653 46.0396 21.3437 46.1798 21.6759C46.4899 22.6974 46.4526 23.7927 46.0737 24.7906V24.7642Z" fill="#fff"/>
<path d="M0.216672 15.2638C-0.0668048 15.9383 -0.0723266 16.6975 0.201309 17.376C0.474945 18.0546 1.00558 18.5975 1.67766 18.8867C2.08137 19.0624 2.52189 19.137 2.96096 19.1038H3.94811L6.67265 9.38037H1.91458L0.216672 15.2638Z" fill="#fff"/>
<path d="M26.4752 13.141C25.2017 10.6237 22.951 9.36015 19.7921 9.36015H13.8692L11.1052 19.1428H15.2907C15.6172 19.0901 15.9519 19.1467 16.2429 19.3038C16.5338 19.4609 16.7648 19.7097 16.8998 20.0115C17.1968 20.9648 17.1656 21.9902 16.8109 22.9236C16.54 24.0705 15.983 25.1301 15.192 26.0036C14.9051 26.3169 14.5557 26.5667 14.1663 26.7367C13.777 26.9067 13.3563 26.9932 12.9314 26.9907C12.5868 27.027 12.2397 26.9504 11.9424 26.7723C11.645 26.5943 11.4136 26.3245 11.2829 26.0036C11.0168 24.9864 11.0825 23.9108 11.4704 22.9335L16.6332 4.77976C16.7985 4.31026 16.8515 3.80858 16.7881 3.3149C16.7247 2.82123 16.5466 2.34925 16.268 1.93676C15.9883 1.55373 15.6188 1.24535 15.1918 1.03878C14.7649 0.832204 14.2938 0.733781 13.8199 0.752177H8.06476L1.28302 24.6314C-2.43855 37.7013 10.7005 36.7339 10.7005 36.7339C10.7005 36.7339 22.7042 37.0004 26.5838 23.1507C27.7486 19.0737 27.7091 15.7075 26.4752 13.141Z" fill="#fff"/>
</svg>
