<svg width="157" height="32" viewBox="0 0 157 32" fill="none" xmlns="http://www.w3.org/2000/svg">
<g opacity="0.5">
<path d="M15.6435 11.2748C15.7331 11.3644 15.8995 11.5307 15.8995 11.5307L15.6819 11.8123C15.6819 11.8123 15.1956 11.8123 14.9908 11.7611C14.095 11.5691 13.084 11.8251 12.2009 12.0299C12.073 12.0555 11.945 11.9019 11.9962 11.7227C12.2777 10.7501 12.7896 9.91823 13.5063 9.21436C13.5319 9.21436 13.5703 9.22715 13.5959 9.22715C13.6727 9.31674 13.7623 9.40632 13.8518 9.48311C14.1078 9.73906 14.6197 10.251 14.6197 10.251C14.7093 10.3278 14.7989 10.4173 14.8757 10.5069C15.1316 10.7501 15.4004 11.006 15.6435 11.2748Z" fill="white"/>
<path d="M7.19705 0.0127977C7.70896 0.153573 8.23367 0.230359 8.73278 0.422325C9.62862 0.780662 10.4093 1.27977 11.0748 1.98365C11.2667 2.18841 11.4843 2.38038 11.6891 2.58514C11.8554 2.73872 11.881 2.91789 11.7147 3.08426C11.0876 3.71135 10.4477 4.33843 9.82059 4.97832C9.64142 5.17029 9.50064 5.13189 9.33427 4.97832C8.98873 4.65838 8.69438 4.30004 8.31045 4.01849C6.53157 2.68753 4.0488 3.51938 3.47291 5.6438C3.16576 6.75721 3.44731 7.76823 4.25357 8.58728C5.35417 9.71349 6.48037 10.8141 7.59378 11.9275C8.0289 12.3626 8.46403 12.7977 8.89915 13.2457C9.00153 13.348 9.1807 13.5272 9.1807 13.5272C9.1807 13.5272 10.9084 15.2933 11.0108 15.3189C11.0364 15.3317 11.4331 15.7668 11.6635 15.9076C11.7658 15.9972 11.945 16.1763 11.945 16.1763C11.945 16.1763 11.8554 16.8802 11.817 17.2386C11.7402 17.968 11.753 18.6719 11.8938 19.3886C11.9194 19.5294 12.009 19.7085 11.817 19.8237C10.8444 19.5166 9.97416 19.0302 9.24469 18.3008C9.06552 18.16 6.9027 15.9716 6.69794 15.754C5.68691 14.7558 4.6631 13.7576 3.65207 12.7338C2.9098 11.9787 2.09075 11.2748 1.42527 10.443C0.27347 9.02241 -0.187249 7.3715 0.0687058 5.56702C0.503829 2.61074 2.52587 0.601494 5.48215 0.0639887C5.54614 0.051191 5.61013 0.0639887 5.64852 0C6.17323 0.0127977 6.68514 0.0127977 7.19705 0.0127977Z" fill="white"/>
<path d="M15.7844 6.92348C15.7844 6.92348 19.3294 3.34011 21.0443 1.6636C21.9657 0.767762 23.1175 0.26865 24.3845 0.076684C24.4613 0.0638863 24.5381 0.076684 24.5893 0.0126953C25.1012 0.0126953 25.6131 0.0126953 26.125 0.0126953C26.7009 0.191864 27.3024 0.26865 27.8655 0.511807C29.7852 1.36926 31.0649 2.8026 31.564 4.83744C32.1399 7.17943 31.5512 9.23987 29.8875 10.9804C29.6572 11.2235 29.4268 11.4539 29.1837 11.6842C29.0173 11.8506 28.8637 11.8634 28.6845 11.697C28.0575 11.0699 27.4304 10.4301 26.7905 9.80297C26.5985 9.611 26.6753 9.44463 26.8289 9.27826C27.136 8.97111 27.4688 8.68956 27.7375 8.34402C28.4798 7.3714 28.6334 6.29639 28.1342 5.18298C27.6863 4.15916 26.8673 3.54487 25.7411 3.3913C24.7428 3.25052 23.8854 3.54487 23.1815 4.24875C21.633 5.78448 20.1101 7.32021 18.5615 8.85593C18.4975 8.91992 18.1776 9.21427 18.1776 9.21427C18.1776 9.21427 17.4737 8.43361 17.2562 8.25444C17.2306 8.24164 17.0386 7.96009 16.8978 7.9089C16.8722 7.88331 16.8594 7.87051 16.8466 7.84491C16.6931 7.62735 15.7844 6.92348 15.7844 6.92348Z" fill="white"/>
<path d="M15.8996 24.9942C15.1189 25.7109 14.3894 26.4916 13.6344 27.2338C12.6233 28.2577 11.6251 29.2943 10.5501 30.2541C8.2977 32.2378 4.70153 32.2378 2.39794 30.3181C0.657444 28.8592 -0.123219 26.9779 0.043152 24.7255C0.158332 23.2665 0.747028 21.9996 1.74525 20.9246C2.014 20.6302 2.30835 20.3743 2.5771 20.0799C2.75627 19.9007 2.92264 19.8879 3.10181 20.0671C3.7289 20.6942 4.36879 21.3341 4.99588 21.9612C5.18784 22.1531 5.08546 22.3067 4.94469 22.4603C4.72713 22.6906 4.48397 22.9082 4.26641 23.1386C3.14021 24.3032 3.05062 25.9669 4.04885 27.2338C5.14945 28.6416 7.27388 28.7952 8.56645 27.5282C9.84622 26.274 11.1004 25.007 12.3674 23.7401C12.7385 23.3689 13.1224 22.9978 13.5064 22.6267C13.6344 22.5883 13.7239 22.6523 13.8135 22.7418C14.479 23.3817 15.1189 24.06 15.7972 24.6999C15.874 24.7767 16.0019 24.8407 15.8996 24.9942Z" fill="white"/>
<path d="M25.0115 15.8821C25.5746 16.522 26.2145 17.0979 26.8288 17.7122C27.827 18.7232 28.8253 19.7342 29.8491 20.7196C30.4122 21.2699 30.8985 21.897 31.1928 22.5881C31.8711 24.175 32.0247 25.8259 31.4104 27.4896C31.1544 28.1807 30.7961 28.8206 30.3098 29.3965C29.3628 30.5355 28.1726 31.2394 26.7264 31.5593C25.1395 31.9177 23.6678 31.6361 22.2472 30.9194C21.5945 30.5867 21.0314 30.1132 20.5323 29.5885C20.3915 29.4477 20.2508 29.3069 20.0972 29.1661C19.9308 29.0126 19.918 28.8334 20.0716 28.667C20.6987 28.0271 21.3642 27.4129 21.9785 26.773C22.1576 26.581 22.26 26.6322 22.4136 26.773C22.8871 27.1825 23.271 27.6944 23.8469 27.9888C24.9475 28.5647 26.0226 28.5135 27.0592 27.8736C27.5711 27.5536 27.9678 27.0929 28.1598 26.4914C28.4413 25.7236 28.5053 24.9429 28.1598 24.175C27.9806 23.5735 27.5455 23.1768 27.1232 22.7545C26.5984 22.217 26.0481 21.7051 25.5362 21.1676C24.9603 20.5661 24.3205 20.0158 23.7574 19.4015C23.3862 19.0047 22.9255 18.6976 22.6439 18.2369C22.58 18.1345 22.6439 18.0577 22.7079 17.9809C23.3606 17.3282 24.0005 16.6755 24.6532 16.0357C24.7684 15.9589 24.8708 15.8693 25.0115 15.8821Z" fill="white"/>
<path d="M9.18066 13.5272C9.82055 12.8106 10.6652 12.337 11.5482 12.0043C11.7146 11.9403 12.2009 11.7355 12.3033 11.7099C12.8664 11.5308 13.4423 11.582 14.0054 11.5564C14.5429 11.5308 15.3876 11.6971 15.5795 11.7355C15.7715 11.7739 15.8995 11.9403 16.0914 11.9915C16.2706 12.0683 16.4242 12.1963 16.6162 12.273C16.9361 12.4266 17.6656 12.9897 17.9727 13.1689C18.8302 13.8472 19.3933 14.743 19.8156 15.7412C19.8284 15.9204 19.9692 16.0356 20.0459 16.202C20.0843 16.8034 20.1995 17.4049 20.2379 18.0064C20.2763 18.6079 19.8412 20.0925 19.7772 20.2716C19.47 21.1163 18.9965 21.8458 18.395 22.5112C18.3694 22.5368 18.3438 22.5368 18.3183 22.5624C18.1775 22.6392 18.1007 22.5496 18.0111 22.46C17.3328 21.7946 16.6673 21.1291 16.0019 20.4508C15.9379 20.3868 15.8739 20.31 15.8867 20.1949C15.9763 20.0413 16.0659 19.9005 16.1426 19.7341C16.7825 19.0047 16.9233 17.7633 16.4882 16.893C16.3346 16.5859 16.1682 16.2915 15.8995 16.074C15.7459 15.7796 15.4388 15.6389 15.2084 15.4213C15.1188 15.3317 15.0164 15.2549 14.8885 15.2293C14.8629 15.2165 14.8245 15.2165 14.7989 15.2037C14.4917 15.0886 14.1846 15.0374 13.8646 15.0758C13.7879 15.0758 13.6983 15.0758 13.6215 15.0758C13.3527 15.063 13.0968 15.0758 12.8408 15.1525C12.6744 15.1909 12.4825 15.1781 12.3801 15.3701C12.3673 15.3957 12.3417 15.4085 12.3161 15.4341C12.2137 15.5237 11.9834 15.6261 11.9834 15.6261C11.9834 15.6261 11.7786 15.7412 11.6122 15.8564C11.3307 15.7796 9.18066 13.5272 9.18066 13.5272Z" fill="white"/>
<path d="M12.2394 15.4084C12.265 15.37 12.2906 15.3572 12.3162 15.3572C12.4825 15.2164 12.7257 15.1268 12.8665 15.0884C13.02 15.0372 13.4936 14.9988 13.5959 14.986C14.0822 14.9604 14.5302 15.0756 14.8757 15.178C15.298 15.37 15.746 15.6899 15.8995 15.9843C15.8483 16.2274 15.6308 16.3554 15.5156 16.5602C14.9909 17.4944 14.9653 18.4286 15.426 19.3885C15.4772 19.5548 15.618 19.6444 15.7332 19.7596C15.7332 19.926 15.8611 20.0411 15.9123 20.1819C16.0531 20.4635 16.3219 20.6298 16.5394 20.8474C17.0385 21.3721 17.5632 21.8712 18.0623 22.3831C18.1263 22.4471 18.2031 22.5239 18.3055 22.5239C18.2799 22.6263 18.3567 22.6775 18.4207 22.7287C19.2397 23.5477 20.0588 24.354 20.8906 25.1602C21.0698 25.3266 21.0954 25.493 20.9162 25.6722C20.302 26.2736 19.7005 26.8879 19.0862 27.5022C18.8558 27.7198 18.6894 27.6942 18.4719 27.4766C17.8448 26.8367 17.2049 26.2097 16.565 25.5698C16.3602 25.365 16.1683 25.1218 15.9251 24.9555C15.7843 24.6355 15.4644 24.4564 15.234 24.2132C14.7861 23.7269 14.2998 23.2662 13.8135 22.7927C13.7367 22.7159 13.6471 22.6263 13.5319 22.6007C13.1864 22.14 12.7769 21.7049 12.5081 21.1801C12.329 20.8602 12.1754 20.5275 12.0602 20.1691C12.009 20.0283 11.9578 19.8876 11.8426 19.798C11.7019 19.3245 11.6251 18.4286 11.6891 17.52C11.7531 16.6114 11.8554 16.2658 11.9066 16.1378C11.9066 16.0099 11.9962 15.9203 12.0346 15.8051C12.0602 15.6771 12.201 15.4468 12.2394 15.4084Z" fill="white"/>
<path d="M19.8796 19.798C20.1356 19.2093 20.1356 18.3006 20.1356 17.6479C20.1356 16.9952 19.982 16.0866 19.982 16.0866C19.982 16.0866 20.11 15.9202 20.1996 15.8307C20.4811 15.6387 20.7499 15.4211 20.9546 15.1396C20.9674 15.114 20.9802 15.0884 21.0058 15.0628C21.3386 14.7556 21.6713 14.4613 21.9785 14.1158C21.9913 14.0902 22.0041 14.0646 22.0297 14.039C22.2728 13.8342 22.4904 13.6038 22.7335 13.3991C23.5654 12.5672 24.3972 11.7354 25.2291 10.8907C25.4083 10.7116 25.5618 10.7116 25.741 10.8907C26.3425 11.505 26.9568 12.1193 27.5711 12.7208C27.7886 12.9384 27.763 13.1047 27.5583 13.3095C26.7008 14.1541 25.8562 15.0116 25.0115 15.869C24.3077 16.4833 23.6678 17.1488 23.0407 17.8271C22.9127 17.9679 22.7207 18.0319 22.6695 18.2366C21.9401 18.8765 21.1594 19.4268 20.238 19.7468C20.174 19.7724 19.9436 19.7852 19.8796 19.798Z" fill="white"/>
<path d="M17.9344 8.84326C18.0624 8.95844 18.2031 9.07362 18.3055 9.2144C19.0222 9.91827 19.6109 10.7501 19.8668 11.9019C19.8541 12.1579 19.6237 11.8891 19.4957 11.8763C19.035 11.8251 18.5743 11.7356 18.1008 11.7356C17.6016 11.7356 17.1025 11.7867 16.6162 11.9147C16.4754 11.9531 16.3347 11.9915 16.1811 11.9403C16.0403 11.8763 15.9507 11.7483 15.8612 11.6332C15.81 11.4924 15.5924 11.2876 15.5924 11.2876C15.5924 11.2876 13.4936 9.23999 13.4808 9.2144C13.2376 8.83046 12.8793 8.56171 12.5721 8.24177C12.0346 7.67867 11.4843 7.14116 10.9212 6.59086C10.7037 6.3861 10.7037 6.21972 10.9212 6.00216C11.5099 5.42626 12.0986 4.82477 12.6745 4.24887C12.9561 3.96732 13.0585 3.98012 13.3272 4.24887C14.1719 5.09352 15.0165 5.92538 15.8612 6.77003C16.0019 6.898 16.6674 7.61468 16.885 7.81944C16.9234 7.84504 17.704 8.6513 17.9344 8.84326Z" fill="white"/>
<path d="M8.34885 17.4177C8.46403 17.5584 9.16791 18.2367 9.16791 18.2367C9.16791 18.2367 7.40182 20.0028 6.54437 20.8731C6.378 21.0522 6.22443 21.0394 6.05806 20.8731C5.44377 20.246 4.81668 19.6189 4.18959 18.9918C4.02322 18.8254 4.01042 18.659 4.17679 18.4927C5.03424 17.6352 6.82592 15.8691 6.82592 15.8691L8.34885 17.4177Z" fill="white"/>
<path d="M16.4242 11.8764C17.4736 11.5693 18.5358 11.6077 19.5981 11.8124C19.7004 11.838 20.0972 11.9788 20.2763 12.0428C21.121 12.3371 21.8633 12.8107 22.5287 13.4122C22.5543 13.425 22.6311 13.5145 22.6311 13.5145C22.6311 13.5145 22.2344 13.9113 22.0552 14.0904C21.7225 14.436 21.3897 14.7943 21.0314 15.1143C20.7882 15.3702 20.5835 15.6518 20.2635 15.8309C20.0972 15.8309 19.9564 15.6774 19.7772 15.7413C19.5341 15.3062 19.2909 14.8583 19.0222 14.436C18.7406 13.9881 18.4335 13.5785 18.0111 13.2714C17.9855 13.2586 17.9471 13.233 17.9343 13.2074C17.512 12.8619 16.6034 12.286 16.6034 12.286L16.0403 11.9916C16.0403 11.9788 16.3218 11.902 16.4242 11.8764Z" fill="white"/>
<path d="M15.3748 19.4654C14.7221 18.4031 14.9652 16.765 15.8867 15.9844C16.7825 16.701 16.9745 17.9936 16.6161 19.0302C16.5394 19.2734 16.3858 19.4654 16.2834 19.6957C16.245 19.7725 16.1682 19.7853 16.0914 19.7981C16.0147 19.8621 15.9379 19.8365 15.8611 19.7981C15.7203 19.6701 15.5155 19.6189 15.3748 19.4654Z" fill="white"/>
<path d="M156.712 30.5711C157.068 31.0162 156.771 31.4317 156.475 31.4317C155.912 31.4317 153.451 31.4317 151.791 31.4317C151.376 31.4317 151.227 31.0162 151.02 30.6898C149.241 27.9599 147.462 25.2299 145.683 22.5C145.031 21.4911 144.735 21.5207 144.053 22.5593C142.215 25.3189 140.377 28.0489 138.538 30.8085C138.242 31.2536 137.886 31.4317 137.382 31.4317C136.285 31.402 135.218 31.4317 134.121 31.4317C133.795 31.4317 133.528 31.402 133.38 31.0756C133.232 30.7492 133.41 30.4821 133.558 30.2447C135.366 27.6335 137.175 25.0222 138.954 22.4109C139.932 21.0163 140.881 19.592 141.859 18.1973C142.126 17.8115 142.096 17.4555 141.829 17.0994C140.495 15.2893 139.28 13.3902 137.946 11.5801C136.878 10.0965 135.87 8.55344 134.862 7.01042C134.595 6.59499 134.269 6.23891 134.002 5.79381C133.736 5.31903 133.943 4.93328 134.477 4.9036C135.87 4.87393 137.234 4.87393 138.627 4.9036C139.042 4.9036 139.22 5.23001 139.398 5.52674C140.228 6.8027 141.058 8.07866 141.859 9.35462C142.007 9.68103 142.244 9.94809 142.452 10.2448C143.163 11.3131 143.816 12.411 144.557 13.4496C144.913 13.9837 145.239 13.9243 145.683 13.2418C146.632 11.8472 147.551 10.4229 148.5 8.99854C149.33 7.75225 150.19 6.53564 151.02 5.31903C151.227 4.99262 151.524 4.87393 151.909 4.9036C153.006 4.9036 154.074 4.9036 155.17 4.9036C155.467 4.9036 155.823 4.81458 155.941 5.17066C156.06 5.4674 155.971 5.79381 155.763 6.09054C154.785 7.48519 153.836 8.90952 152.828 10.3042C151.672 11.9362 150.575 13.5682 149.478 15.23C149.063 15.8828 148.589 16.5356 148.114 17.1291C147.877 17.4258 147.788 17.7225 148.026 18.0786C149.3 19.9184 156.386 30.0963 156.712 30.5711Z" fill="white"/>
<path d="M38.1831 16.4763C38.4796 14.6959 38.865 12.9452 39.6062 11.2835C41.8593 6.38735 46.929 3.56837 52.2951 4.22119C54.9041 4.54759 57.3055 5.3191 59.2622 7.15886C60.7742 8.58318 61.6636 10.3339 62.049 12.3517C62.1676 13.0045 61.9601 13.2716 61.2782 13.2419C60.2702 13.2122 59.2622 13.2122 58.2542 13.2419C57.7205 13.2716 57.4537 13.0639 57.3055 12.5594C56.5643 10.2152 55.0523 8.64253 52.5916 8.13808C48.6782 7.36657 45.3281 9.08763 43.8753 12.7375C42.304 16.7137 42.3337 20.7196 44.4386 24.5475C46.3361 27.9896 50.7535 29.2359 54.1332 27.3961C56.0306 26.3576 56.9793 24.5772 57.4537 22.5297C57.513 22.322 57.5426 22.0846 57.5723 21.8769C57.6316 21.4318 57.8688 21.2241 58.3135 21.2241C59.3511 21.2241 60.3888 21.2241 61.4264 21.2241C62.0194 21.2241 62.2269 21.4911 62.1676 22.0549C61.5746 27.4555 57.6612 31.4021 52.2951 31.9362C51.3761 32.0549 50.4273 31.9658 49.5083 31.9955C46.1878 31.9362 43.5196 30.4822 41.4146 27.9896C39.4283 25.6751 38.2424 23.0341 38.272 19.9481C38.272 19.8591 38.2424 19.7997 38.1831 19.7404C38.1831 18.6425 38.1831 17.5742 38.1831 16.4763Z" fill="white"/>
<path d="M69.4015 14.5476C72.1587 11.6692 75.242 10.8681 78.5031 12.1737C81.0528 13.1826 82.0904 15.2301 82.1201 17.8116C82.1794 22.0549 82.1201 26.2982 82.1497 30.5712C82.1497 31.135 81.9126 31.3724 81.3493 31.3724C80.5191 31.3427 79.6594 31.3724 78.8293 31.3724C77.9102 31.3724 77.8509 31.3131 77.8509 30.4228C77.8509 26.8917 77.8509 23.3606 77.8509 19.8294C77.8509 18.9096 77.762 18.0194 77.4655 17.1292C77.1394 16.1203 76.4278 15.4674 75.4198 15.2004C72.3662 14.3695 69.609 16.3873 69.4311 19.6217C69.3422 21.046 69.4015 22.5 69.4015 23.9244C69.4015 26.0609 69.4015 28.227 69.4015 30.3635C69.4015 31.3427 69.3422 31.4021 68.3342 31.4021C67.5337 31.4021 66.7629 31.3724 65.9624 31.4021C65.3102 31.4317 65.1027 31.1944 65.1027 30.5415C65.1323 27.4258 65.1027 24.3101 65.1027 21.1944C65.1027 16.0906 65.1027 10.9571 65.1027 5.85325C65.1027 4.93337 65.1323 4.87402 66.0514 4.87402C66.8518 4.87402 67.6227 4.87402 68.4231 4.87402C69.2829 4.87402 69.3718 4.96304 69.3718 5.85325C69.4015 8.67222 69.4015 11.5505 69.4015 14.5476Z" fill="white"/>
<path d="M117.43 14.844C118.675 13.2416 120.187 12.0843 122.144 11.7876C124.308 11.4612 126.383 11.6986 128.162 13.1229C129.555 14.2505 130.089 15.7935 130.119 17.5146C130.178 21.8469 130.148 26.1495 130.148 30.4819C130.148 31.016 129.941 31.2534 129.407 31.2534C128.547 31.2534 127.688 31.2237 126.828 31.2534C126.146 31.283 125.909 31.016 125.909 30.3335C125.938 27.9003 125.909 25.4967 125.909 23.0635C125.909 21.7579 125.909 20.4522 125.909 19.1466C125.879 16.7134 124.99 15.4078 123.181 15.0813C120.869 14.6659 118.882 15.7342 118.023 17.841C117.697 18.6422 117.578 19.4433 117.578 20.3039C117.578 23.6273 117.548 26.9804 117.578 30.3038C117.578 31.016 117.341 31.283 116.629 31.2534C115.829 31.2237 114.999 31.2237 114.198 31.2534C113.605 31.283 113.368 31.0457 113.368 30.4225C113.398 24.6065 113.368 18.7609 113.368 12.9449C113.368 12.4107 113.546 12.1733 114.08 12.1733C114.939 12.203 115.799 12.1733 116.659 12.1733C117.163 12.1733 117.37 12.4107 117.37 12.9152C117.43 13.568 117.43 14.2208 117.43 14.844Z" fill="white"/>
<path d="M105.986 21.7581C105.986 18.8798 106.016 15.9718 105.986 13.0935C105.986 12.4407 106.193 12.1439 106.875 12.1736C107.676 12.2033 108.506 12.2329 109.306 12.1736C110.018 12.1439 110.255 12.411 110.255 13.1231C110.226 18.3753 110.255 23.6572 110.255 28.9094C110.255 29.4139 110.226 29.948 110.255 30.4524C110.285 31.1052 109.988 31.3426 109.366 31.313C108.536 31.2833 107.676 31.2833 106.846 31.313C106.193 31.3426 105.986 31.0459 105.986 30.4228C105.986 27.5148 105.986 24.6364 105.986 21.7581Z" fill="white"/>
<path d="M108.15 4.75537C109.514 4.75537 110.611 5.85329 110.611 7.18859C110.611 8.55357 109.484 9.68116 108.091 9.65149C106.727 9.62181 105.69 8.55357 105.69 7.18859C105.719 5.82361 106.787 4.75537 108.15 4.75537Z" fill="white"/>
<path d="M102.665 17.6928C102.725 15.2893 100.916 13.2715 99.256 12.589C96.2617 11.402 93.208 11.3724 90.2137 12.4109C87.9901 13.1824 86.5671 14.7551 86.152 17.1587C86.0334 17.7818 86.241 18.0489 86.8636 18.0489C87.753 18.0489 88.6424 18.0192 89.5318 18.0489C90.0654 18.0786 90.3619 17.8709 90.4508 17.3367C90.5991 16.6839 90.9845 16.1201 91.5478 15.7937C93.4156 14.7255 95.3723 14.7255 97.2993 15.586C98.1887 15.9718 98.5445 16.8026 98.4852 17.7818C98.4259 18.7907 97.7737 19.3248 96.8843 19.5622C96.3803 19.7106 95.8763 19.7996 95.3723 19.859C93.3266 20.126 91.2513 20.3041 89.265 20.8679C86.7746 21.58 85.4701 23.3011 85.3516 25.8233C85.233 28.3159 86.4485 30.1853 88.7906 31.1349C89.5911 31.4613 90.4508 31.6393 91.3106 31.6987C93.7713 31.7877 96.0541 31.2832 98.2184 29.7996C98.2184 30.1853 98.248 30.4524 98.2184 30.6898C98.1294 31.4019 98.4259 31.6393 99.1374 31.6097C99.9972 31.5503 100.857 31.5503 101.717 31.6097C102.428 31.6393 102.636 31.4019 102.636 30.6898C102.606 26.3871 102.547 22.0251 102.665 17.6928ZM98.1887 23.9539C98.1887 26.9806 96.1134 28.761 92.9116 28.4049C92.289 28.3456 91.696 28.2566 91.1327 27.9895C90.3323 27.6037 89.68 27.129 89.6207 26.1497C89.5614 25.1112 89.8579 24.1913 90.8066 23.5978C91.4885 23.1527 92.289 23.0044 93.0894 22.8263C94.5718 22.4999 96.0838 22.5889 97.5365 22.0845C97.9516 21.9361 98.2184 22.1438 98.2184 22.5889C98.2184 23.0934 98.1887 23.5385 98.1887 23.9539Z" fill="white"/>
</g>
</svg>
