<svg width="127" height="30" viewBox="0 0 127 30" fill="none" xmlns="http://www.w3.org/2000/svg">
<g opacity="0.5">
<path d="M3.1009 29.0037C1.3942 29.0037 0 27.6137 0 25.9122V10.9821C0 9.28055 1.3942 7.91455 3.1009 7.91455C4.8076 7.91455 6.20181 9.30452 6.20181 11.006V25.9362C6.17777 27.6137 4.8076 29.0037 3.1009 29.0037Z" fill="white"/>
<path d="M16.2016 29.0039C15.2882 29.0039 14.3988 28.5965 13.8219 27.9016L7.57197 20.4485C6.61045 19.2981 6.61045 17.6446 7.57197 16.4942L13.8219 9.01716C14.9276 7.69909 16.8747 7.53134 18.1727 8.60976C19.4708 9.68818 19.6631 11.6533 18.5814 12.9474L13.9901 18.4594L18.5814 23.9473C19.6631 25.2654 19.4948 27.2066 18.1727 28.285C17.6199 28.7403 16.9228 29.0039 16.2016 29.0039Z" fill="white"/>
<path d="M36.7781 29.0042H23.6774C21.9707 29.0042 20.5765 27.6143 20.5765 25.9128V10.9826C20.5765 9.28108 21.9707 7.89111 23.6774 7.89111C25.3841 7.89111 26.7783 9.28108 26.7783 10.9826V22.8213H33.7013V10.9826C33.7013 9.28108 35.0955 7.89111 36.8022 7.89111C38.5089 7.89111 39.9031 9.28108 39.9031 10.9826V25.9128C39.879 27.6143 38.4848 29.0042 36.7781 29.0042Z" fill="white"/>
<path d="M57.3787 29.0037H44.278C42.5713 28.9558 41.2252 27.5419 41.2733 25.8403C41.3214 24.2107 42.6434 22.8927 44.278 22.8447H54.2778V22.677L43.4127 19.5855C42.0906 19.202 41.1771 18.0038 41.1771 16.6138V10.9821C41.1771 9.28055 42.5713 7.91455 44.278 7.91455H57.3787C59.0854 7.91455 60.4796 9.30452 60.4796 11.006C60.4796 12.7075 59.0854 14.0975 57.3787 14.0975H47.3789V14.2892L58.2441 17.3807C59.5662 17.7641 60.4796 18.9624 60.4796 20.3524V25.9362C60.4796 27.6377 59.0854 29.0037 57.3787 29.0037Z" fill="white"/>
<path d="M100.431 29.0042C98.7241 29.0042 97.3539 27.6143 97.3539 25.9128V17.6928L95.9116 18.939C94.7578 19.9215 93.0511 19.9215 91.8732 18.939L90.4309 17.6928V25.9128C90.4309 27.6143 89.0367 29.0042 87.33 29.0042C85.6233 29.0042 84.2291 27.6143 84.2291 25.9128V10.9826C84.2291 9.28108 85.6233 7.89111 87.33 7.89111C88.0752 7.89111 88.7723 8.15473 89.3492 8.63403L93.8924 12.5164L98.4116 8.63403C99.7096 7.53164 101.657 7.67543 102.786 8.96954C103.267 9.52073 103.532 10.2397 103.532 10.9826V25.9128C103.556 27.6143 102.161 29.0042 100.431 29.0042Z" fill="white"/>
<path d="M79.8303 29.0037C78.1236 29.0037 76.7294 27.6137 76.7294 25.9122V23.3001L69.0132 14.0735H67.9555V22.8208H72.6189C74.3256 22.8687 75.6717 24.2826 75.6236 25.9841C75.5755 27.6137 74.2534 28.9318 72.6189 28.9797H64.8546C63.1479 28.9797 61.7777 27.5898 61.7777 25.8883V10.9821C61.7777 9.28055 63.1719 7.91455 64.8546 7.91455H70.4795C71.3929 7.91455 72.2823 8.32195 72.8592 9.01694L82.21 20.2086C82.6667 20.7598 82.9312 21.4548 82.9312 22.1737V25.9122C82.9312 27.6137 81.561 29.0037 79.8303 29.0037Z" fill="white"/>
<path d="M122.906 29.0037C121.2 29.0037 119.805 27.6137 119.805 25.9122V23.3001L112.089 14.0735H111.007V22.8208H115.671C117.378 22.8687 118.724 24.2826 118.676 25.9841C118.628 27.6137 117.305 28.9318 115.671 28.9797H107.931C106.224 28.9797 104.83 27.5898 104.83 25.8883V10.9821C104.83 9.28055 106.224 7.91455 107.931 7.91455H113.556C114.469 7.91455 115.334 8.32195 115.935 9.01694L125.286 20.2086C125.743 20.7598 126.007 21.4548 126.007 22.1737V25.9122C126.007 27.6377 124.613 29.0037 122.906 29.0037Z" fill="white"/>
<path d="M67.8112 0.389657C67.5949 0.197937 67.3545 0.0541474 67.066 0.00621745C66.7055 -0.0417125 66.3449 0.197937 66.1045 0.365692C65.8641 0.533447 65.3834 0.964816 65.1911 1.13257C64.9988 1.30033 64.518 1.39619 63.7248 1.87548C62.9315 2.35478 59.8546 4.31991 59.8546 4.31991H60.6479L57.0662 6.16521H57.4268L56.922 6.54865C57.2105 6.62055 57.4989 6.57262 57.7633 6.42883V6.54865C57.7633 6.54865 62.0181 4.8711 62.8353 5.30247L62.3305 5.44626C62.3786 5.44626 63.1719 5.49419 63.1719 5.49419C63.2199 5.8297 63.4123 6.14125 63.7007 6.309C64.1815 6.62055 64.2055 6.81227 64.2055 6.81227C64.2055 6.81227 63.9651 6.90813 63.9651 7.05192C64.4219 6.90813 64.9026 6.90813 65.3353 7.05192C65.3353 7.05192 65.3113 6.90813 64.9747 6.81227C64.6382 6.66848 64.3497 6.45279 64.1334 6.14125C63.9411 5.87763 63.869 5.54212 63.9892 5.23058C64.1094 4.91903 64.518 4.75128 65.3593 4.31991C66.3449 3.81665 66.5853 3.43321 66.7055 3.12166C66.8257 2.81012 67.066 2.23496 67.1622 1.94738C67.2583 1.68376 67.4266 1.46808 67.6429 1.27636C67.9074 1.13257 68.1958 1.01275 68.4602 0.916886C68.5083 0.940851 67.9795 0.509482 67.8112 0.389657Z" fill="white"/>
</g>
</svg>