<svg width="104" height="47" viewBox="0 0 104 47" fill="none" xmlns="http://www.w3.org/2000/svg">
<path d="M49.2277 30.6186C48.8036 30.6169 48.3799 30.646 47.9601 30.7057C47.3904 30.7724 46.8655 31.0473 46.4862 31.4775C46.1069 31.9078 45.9001 32.4631 45.9055 33.0366V38.0139C45.9055 39.2365 46.9087 40.2007 48.2905 40.3088C48.6089 40.3328 48.9273 40.3449 49.2337 40.3449C49.5401 40.3449 49.8074 40.3449 50.0807 40.3118C51.5136 40.2007 52.3907 39.4107 52.5499 38.083C52.7106 36.3415 52.7106 34.5889 52.5499 32.8474C52.4297 31.9312 51.844 30.8919 50.5493 30.7087C50.1113 30.6488 49.6698 30.6187 49.2277 30.6186ZM45.5811 46.4005C44.9443 46.4005 43.7397 46.0551 43.7397 44.7454V32.3307C43.7397 31.0782 44.6799 29.9938 45.3107 29.5733C46.0669 29.1457 46.9016 28.8749 47.7648 28.7773C48.3091 28.7118 48.8567 28.6767 49.4049 28.6721C50.0292 28.6672 50.652 28.7337 51.2612 28.8704C53.0785 29.2909 54.1839 30.4624 54.5474 32.3518C54.6328 32.8327 54.676 33.3202 54.6765 33.8086V34.2772C54.6765 35.3405 54.7096 36.4369 54.6585 37.5153C54.6294 38.1862 54.4977 38.8487 54.268 39.4798C53.7243 40.9516 52.6039 41.8558 50.9398 42.1622C50.466 42.248 49.9855 42.2913 49.504 42.2913C49.087 42.2899 48.6706 42.2608 48.2574 42.2042C47.7761 42.1622 47.3095 42.0167 46.8896 41.7777C46.4697 41.5387 46.1063 41.2118 45.8244 40.8195V46.4005H45.5811Z" fill="white"/>
<path d="M95.2487 46.3493C95.1613 46.3511 95.074 46.346 94.9874 46.3343L94.687 46.2862L96.5313 41.8466C96.6665 41.5192 96.8317 41.0446 96.7085 40.7412C95.6031 37.9988 94.5458 35.3584 93.4674 32.661L92.4161 30.0357C92.2299 29.5671 92.1157 29.2427 92.281 29.0084C92.4462 28.7741 92.7916 28.7681 93.2722 28.7681C93.9751 28.7681 94.1733 29.1286 94.3476 29.5671C94.5999 30.1979 97.4625 37.422 97.9972 38.7407L101.656 29.6422C101.908 29.0264 102.335 28.687 102.857 28.687C103.054 28.6903 103.248 28.7322 103.428 28.8102C103.501 28.8279 103.569 28.8608 103.628 28.9068C103.687 28.9528 103.735 29.0108 103.77 29.077C103.805 29.1431 103.826 29.2159 103.83 29.2906C103.835 29.3652 103.824 29.44 103.797 29.5101L97.6487 44.7453C97.4613 45.2233 97.1327 45.633 96.7066 45.9195C96.2805 46.2061 95.7772 46.356 95.2637 46.3493" fill="white"/>
<path d="M62.2671 35.9923C61.4501 35.9923 60.7412 36.0163 60.2215 36.0644C58.8878 36.1846 58.3772 36.6832 58.3381 37.9027C58.3255 38.1539 58.3255 38.4055 58.3381 38.6567C58.4102 39.681 59.008 40.2667 60.0233 40.3088C60.3987 40.3088 60.7111 40.3298 61.0055 40.3298C61.2999 40.3298 61.6063 40.3298 61.9066 40.3058C62.4464 40.2852 62.9729 40.1326 63.44 39.8613C63.9071 39.5901 64.3006 39.2084 64.586 38.7498C65.0005 38.149 64.9855 37.4612 64.9705 36.7463V36.3828C64.9729 36.2874 64.9679 36.192 64.9555 36.0975C64.8563 36.0795 64.7559 36.0684 64.6551 36.0644C63.9793 36.0194 63.0991 35.9923 62.2671 35.9923ZM66.7517 42.2732C66.133 42.2732 64.9675 41.9248 64.9675 40.6061C64.9675 40.5761 64.9675 40.5461 64.9675 40.519L64.9345 40.5551C64.2826 41.5283 62.949 42.2132 61.6093 42.2612C61.417 42.2612 61.2248 42.2612 61.0325 42.2612C60.4474 42.2649 59.8629 42.2227 59.2843 42.1351C58.6169 42.0559 57.989 41.7765 57.4834 41.3336C56.9778 40.8907 56.6182 40.3052 56.4518 39.6539C56.1601 38.6941 56.1549 37.67 56.4367 36.7072C56.5894 36.0709 56.9396 35.4991 57.4371 35.074C57.9346 34.6488 58.5539 34.3919 59.2062 34.3402C60.2535 34.2242 61.3066 34.1691 62.3602 34.175C63.1562 34.175 63.9672 34.2021 64.6431 34.2531C64.6951 34.256 64.7473 34.256 64.7993 34.2531C64.8498 34.2564 64.9006 34.2514 64.9495 34.2381C64.9602 34.1182 64.9602 33.9976 64.9495 33.8777C64.926 33.2013 64.8527 32.5277 64.7302 31.8621C64.6101 31.2614 64.1985 30.9009 63.4746 30.7327C62.9969 30.6219 62.5082 30.5655 62.0178 30.5645C61.3794 30.5432 60.7438 30.6586 60.1537 30.9032C59.5636 31.1477 59.0327 31.5156 58.5965 31.9823C58.5138 32.1032 58.4071 32.2059 58.2831 32.2839C58.1591 32.3619 58.0204 32.4137 57.8756 32.4358C57.7691 32.4368 57.6646 32.4066 57.5752 32.3487C57.2812 32.1716 57.0072 31.9631 56.7581 31.7269C56.62 31.5948 56.5599 31.3064 56.8423 30.9339C57.5274 30.0681 58.447 29.4174 59.4916 29.0596C60.3143 28.8053 61.1718 28.6816 62.0328 28.6931C62.7018 28.6905 63.3693 28.7579 64.0243 28.8944C64.674 29.0079 65.2758 29.3108 65.754 29.765C66.2323 30.2193 66.5658 30.8046 66.7127 31.4476C66.8646 32.0485 66.9532 32.6636 66.977 33.2829C67.0792 35.6859 66.9951 41.9639 66.9921 42.0269V42.2702L66.7517 42.2732Z" fill="white"/>
<path d="M71.5276 42.2729C70.9028 42.2729 69.7253 41.9305 69.7253 40.6358V28.7168H69.9747C70.6115 28.7168 71.816 29.0442 71.816 30.2758V30.2998L71.837 30.2788C72.1896 29.9188 72.5839 29.6021 73.0115 29.3356C73.7048 28.9236 74.5001 28.7154 75.3064 28.7348C75.5816 28.7355 75.8565 28.7535 76.1294 28.7889C76.5561 28.8279 76.9766 28.9176 77.382 29.0562C77.4648 29.0766 77.5424 29.1143 77.6095 29.1669C77.6766 29.2195 77.7317 29.2858 77.7712 29.3614C77.8107 29.437 77.8337 29.5201 77.8385 29.6053C77.8434 29.6904 77.8301 29.7756 77.7995 29.8552C77.735 30.0527 77.6462 30.2414 77.5352 30.4169L77.5172 30.444C77.4713 30.5452 77.3975 30.6313 77.3044 30.692C77.2112 30.7526 77.1027 30.7854 76.9915 30.7864C76.8516 30.7807 76.7127 30.7606 76.577 30.7263C76.1465 30.6266 75.7062 30.5752 75.2643 30.5731C74.751 30.563 74.2407 30.6539 73.7624 30.8405C73.356 31.0137 72.9668 31.2249 72.6 31.4713C72.3272 31.6469 72.108 31.8942 71.9665 32.1862C71.8251 32.4781 71.7667 32.8034 71.798 33.1264C71.798 34.439 71.798 36.1782 71.798 37.8633C71.798 39.4343 71.798 40.9572 71.798 42.0236V42.2699L71.5276 42.2729Z" fill="white"/>
<path d="M81.251 42.0811C80.6232 42.0811 79.4487 41.7807 79.4487 40.6063V28.6782H79.701C80.3258 28.6782 81.5033 29.0837 81.5033 30.4805V42.0811H81.251Z" fill="white"/>
<path d="M87.4238 42.0812C86.823 42.0812 85.6876 41.7808 85.6876 40.6064V30.8831H84.1857C83.8853 30.8831 83.7141 30.5347 83.7141 30.2823V29.3001C83.7141 29.0418 83.8703 28.9126 84.1857 28.9126H85.6876V25.23H85.9369C86.5377 25.23 87.6731 25.4553 87.6731 26.7048V28.9156H90.6288C91.0584 28.9156 91.1485 29.1259 91.1485 29.3031V30.2854C91.1485 30.5257 90.9292 30.8861 90.6288 30.8861H87.6731V42.0812H87.4238Z" fill="white"/>
<path d="M80.4668 26.0945C80.1883 26.0915 79.9168 26.0062 79.6866 25.8493C79.4564 25.6924 79.2778 25.4709 79.1733 25.2126C79.0687 24.9544 79.0429 24.671 79.0991 24.3982C79.1552 24.1253 79.2908 23.8752 79.4889 23.6792C79.6869 23.4833 79.9385 23.3503 80.2119 23.297C80.4853 23.2438 80.7684 23.2726 81.0255 23.3799C81.2826 23.4872 81.5022 23.6681 81.6567 23.8999C81.8112 24.1318 81.8936 24.4041 81.8936 24.6827C81.8912 25.059 81.7397 25.419 81.4722 25.6836C81.2047 25.9483 80.8431 26.0961 80.4668 26.0945" fill="white"/>
<path d="M1.12497 17.0705L0.977783 16.8302L27.9128 0L28.0599 0.240304L1.12497 17.0705Z" fill="white"/>
<path d="M2.69291 19.5759L2.54272 19.3386L29.4777 2.50537L29.6279 2.74568L2.69291 19.5759Z" fill="white"/>
<path d="M4.25786 22.0808L4.10767 21.8435L31.0426 5.01025L31.1928 5.25055L4.25786 22.0808Z" fill="white"/>
<path d="M5.82304 24.5861L5.67285 24.3488L32.6078 7.51855L32.758 7.75586L5.82304 24.5861Z" fill="white"/>
<path d="M7.38767 27.091L7.24048 26.8537L34.1754 10.0234L34.3256 10.2607L7.38767 27.091Z" fill="white"/>
<path d="M8.95297 29.5993L8.80579 29.359L35.7408 12.5288L35.8909 12.7661L8.95297 29.5993Z" fill="white"/>
<path d="M10.521 32.1047L10.3708 31.8644L37.3058 15.0342L37.456 15.2745L10.521 32.1047Z" fill="white"/>
<path d="M12.0859 34.6096L11.9357 34.3693L38.8706 17.5391L39.0208 17.7794L12.0859 34.6096Z" fill="white"/>
<path d="M13.6508 37.1145L13.5006 36.8772L40.4386 20.0439L40.5858 20.2842L13.6508 37.1145Z" fill="white"/>
<path d="M15.2158 39.6198L15.0686 39.3825L42.0036 22.5493L42.1538 22.7896L15.2158 39.6198Z" fill="white"/>
<path d="M16.7837 42.1251L16.6335 41.8878L43.5685 25.0576L43.7187 25.2949L16.7837 42.1251Z" fill="white"/>
<path d="M12.4404 18.7109L20.9231 13.4092H20.3915L12.4404 18.3774V18.7109Z" fill="white"/>
<path d="M12.4404 15.2265L15.3481 13.4092H14.8164L12.4404 14.8931V15.2265Z" fill="white"/>
<path d="M22.6171 19.3206L32.073 13.4092H31.5444L22.0854 19.3206H22.6171Z" fill="white"/>
<path d="M17.042 19.3206L26.498 13.4092H25.9663L16.5104 19.3206H17.042Z" fill="white"/>
<path d="M28.1921 19.3203L32.3793 16.704V16.3706L27.6604 19.3203H28.1921Z" fill="white"/>
<path d="M28.3664 29.662L32.3855 27.1508V26.8174L27.8347 29.662H28.3664Z" fill="white"/>
<path d="M22.7912 29.6619L32.2471 23.7534H31.7154L22.2595 29.6619H22.7912Z" fill="white"/>
<path d="M17.2164 29.6619L26.6723 23.7534H26.1406L16.6847 29.6619H17.2164Z" fill="white"/>
<path d="M12.4404 29.1602L21.0973 23.7534H20.5657L12.4404 28.8298V29.1602Z" fill="white"/>
<path d="M12.4404 25.6758L15.5223 23.7534H14.9906L12.4404 25.3454V25.6758Z" fill="white"/>
</svg>