<svg width="108" height="30" viewBox="0 0 108 30" fill="none" xmlns="http://www.w3.org/2000/svg">
<g opacity="0.5">
<path d="M23.9192 14.9604H5.97656V20.937H23.9192V14.9604Z" fill="white"/>
<path d="M29.9088 5.98926H23.9323V14.9606H29.9088V5.98926Z" fill="white"/>
<path d="M5.97655 20.937H0V22.4344V23.9318V29.9083H5.97655V23.9318V20.937Z" fill="white"/>
<path d="M23.9322 0H5.97655H5.11718H0V11.9661V13.8802V14.9609H5.97655V13.8802V11.9661V5.98957H23.9322V0Z" fill="white"/>
<path d="M23.9192 14.9604H5.97656V20.937H23.9192V14.9604Z" fill="white"/>
<path d="M38.151 11.9663V14.9611H35.8333V5.98975H39.3619C40.065 5.98975 40.677 6.06787 41.1718 6.2111C41.6796 6.36735 42.0963 6.56266 42.4218 6.8361C42.7473 7.09651 42.9947 7.40901 43.1509 7.76057C43.3072 8.11214 43.3853 8.50276 43.3853 8.91943C43.3853 9.36213 43.3072 9.7788 43.1509 10.1564C42.9947 10.534 42.7473 10.8465 42.4218 11.1199C42.0963 11.3804 41.6796 11.5887 41.1718 11.7449C40.664 11.9012 40.065 11.9663 39.3749 11.9663H38.151ZM38.151 10.3908H39.3619C39.9608 10.3908 40.4036 10.2606 40.664 10.0002C40.9244 9.73974 41.0676 9.37516 41.0676 8.91943C41.0676 8.71109 41.0286 8.5288 40.9635 8.35953C40.8983 8.19026 40.7942 8.04703 40.6509 7.92985C40.5077 7.81266 40.3385 7.72151 40.1171 7.64339C39.9088 7.57828 39.6483 7.53922 39.3619 7.53922H38.151V10.3908Z" fill="white"/>
<path d="M53.6196 14.9611H51.2888V11.172H47.2264V14.9611H44.8956V5.98975H47.2264V9.73974H51.2888V5.98975H53.6196V14.9611Z" fill="white"/>
<path d="M64.9479 14.9611H63.151C62.9557 14.9611 62.7864 14.922 62.6562 14.8309C62.526 14.7527 62.4349 14.6356 62.3828 14.5054L61.7969 12.9429H57.9948L57.4089 14.5054C57.3568 14.6225 57.2786 14.7267 57.1354 14.8179C57.0052 14.909 56.8359 14.9611 56.6536 14.9611H54.8438L58.7109 5.98975H61.0807L64.9479 14.9611ZM58.5286 11.5236H61.263L60.3385 9.06266C60.2734 8.90641 60.2083 8.72411 60.1302 8.51578C60.0521 8.30745 59.9739 8.07307 59.8958 7.82568C59.8177 8.07307 59.7526 8.30745 59.6745 8.51578C59.5963 8.72411 59.5182 8.91943 59.4531 9.07568L58.5286 11.5236Z" fill="white"/>
<path d="M68.4504 13.2944H72.1483V14.9611H66.1327V5.98975H68.4504V13.2944Z" fill="white"/>
<path d="M83.0467 14.9611H81.2498C81.0545 14.9611 80.8852 14.922 80.755 14.8309C80.6248 14.7527 80.5336 14.6356 80.4816 14.5054L79.8956 12.9429H76.0935L75.5076 14.5054C75.4555 14.6225 75.3774 14.7267 75.2342 14.8179C75.104 14.909 74.9347 14.9611 74.7524 14.9611H72.9425L76.8097 5.98975H79.1795L83.0467 14.9611ZM76.6274 11.5236H79.3618L78.4373 9.06266C78.3722 8.90641 78.3071 8.72411 78.229 8.51578C78.1508 8.30745 78.0727 8.07307 77.9946 7.82568C77.9165 8.07307 77.8514 8.30745 77.7732 8.51578C77.6951 8.72411 77.617 8.91943 77.5519 9.07568L76.6274 11.5236Z" fill="white"/>
<path d="M37.3046 21.0547C37.3697 21.0677 37.4348 21.0807 37.4869 21.1068C37.5389 21.1328 37.591 21.1589 37.6431 21.1979C37.6952 21.237 37.7473 21.2891 37.8124 21.3672L42.5129 26.6927C42.4999 26.5234 42.4868 26.3542 42.4738 26.1979C42.4608 26.0417 42.4608 25.8854 42.4608 25.7422V21.0547H44.479V29.9088H43.2811C43.0988 29.9088 42.9556 29.8828 42.8384 29.8307C42.7212 29.7786 42.604 29.6875 42.4868 29.5573L37.8254 24.2838C37.8384 24.4401 37.8514 24.5833 37.8645 24.7396C37.8775 24.8828 37.8775 25.026 37.8775 25.1562V29.9088H35.8593V21.0547H37.0702C37.1483 21.0417 37.2264 21.0417 37.3046 21.0547Z" fill="white"/>
<path d="M52.6952 21.042V22.6175H48.6327V24.6878H51.7447V26.2113H48.6327V28.3206H52.6952V29.8961H46.328V21.042H52.6952Z" fill="white"/>
<path d="M61.6144 21.042V22.6696H58.828V29.8961H56.5363V22.6696H53.7499V21.042H61.6144Z" fill="white"/>
<path d="M62.3176 21.0418H64.2447C64.44 21.0418 64.6093 21.0809 64.7395 21.159C64.8697 21.2371 64.9608 21.3413 64.9999 21.4845L66.3541 26.1069C66.3931 26.2632 66.4452 26.4194 66.4843 26.5887C66.5233 26.758 66.5624 26.9403 66.5884 27.1225C66.6275 26.9272 66.6796 26.758 66.7317 26.5887C66.7838 26.4194 66.8358 26.2632 66.8879 26.1069L68.4895 21.4845C68.5285 21.3673 68.6197 21.2632 68.7499 21.172C68.8801 21.0809 69.0494 21.0288 69.2317 21.0288H69.9088C70.1041 21.0288 70.2733 21.0679 70.4035 21.146C70.5338 21.2241 70.6249 21.3283 70.677 21.4715L72.2655 26.0939C72.3176 26.2371 72.3697 26.3934 72.4218 26.5496C72.4739 26.7059 72.5259 26.8752 72.565 27.0574C72.6041 26.8752 72.6431 26.7059 72.6822 26.5496C72.7212 26.3934 72.7603 26.2371 72.7994 26.0939L74.1535 21.4715C74.1926 21.3543 74.2707 21.2502 74.414 21.159C74.5442 21.0679 74.7134 21.0288 74.9087 21.0288H76.7186L73.6587 29.883H71.5754L69.7134 24.3882C69.6874 24.297 69.6483 24.2059 69.6093 24.1147C69.5702 24.0106 69.5442 23.9064 69.5051 23.7892C69.4791 23.9064 69.44 24.0106 69.4009 24.1147C69.3619 24.2189 69.3358 24.3101 69.2968 24.3882L67.4088 29.883H65.3254L62.3176 21.0418Z" fill="white"/>
<path d="M87.8515 25.4684C87.8515 26.1064 87.7343 26.7054 87.4869 27.2523C87.2395 27.7991 86.8879 28.2809 86.4452 28.6846C86.0025 29.0882 85.4556 29.4137 84.8306 29.6481C84.1926 29.8825 83.5025 29.9997 82.7343 29.9997C81.9661 29.9997 81.2629 29.8825 80.6249 29.6481C79.9869 29.4137 79.453 29.1012 78.9973 28.6846C78.5416 28.2809 78.203 27.7991 77.9556 27.2523C77.7083 26.7054 77.5911 26.1064 77.5911 25.4684C77.5911 24.8304 77.7083 24.2314 77.9556 23.6846C78.203 23.1377 78.5546 22.6559 78.9973 22.2523C79.453 21.8486 79.9869 21.5231 80.6249 21.3018C81.2629 21.0674 81.9661 20.9502 82.7343 20.9502C83.5025 20.9502 84.2056 21.0674 84.8306 21.3018C85.4686 21.5361 86.0025 21.8486 86.4452 22.2653C86.8879 22.6689 87.2395 23.1507 87.4869 23.6976C87.7343 24.2314 87.8515 24.8304 87.8515 25.4684ZM85.5077 25.4684C85.5077 25.0257 85.4426 24.6351 85.3124 24.2835C85.1822 23.932 84.9999 23.6325 84.7655 23.3981C84.5312 23.1507 84.2317 22.9684 83.8931 22.8382C83.5546 22.708 83.151 22.6429 82.7213 22.6429C82.2786 22.6429 81.8879 22.708 81.5364 22.8382C81.1848 22.9684 80.8983 23.1507 80.664 23.3981C80.4296 23.6455 80.2473 23.945 80.1171 24.2835C79.9869 24.6351 79.9218 25.0257 79.9218 25.4684C79.9218 25.9111 79.9869 26.3017 80.1171 26.6533C80.2473 27.0049 80.4296 27.3043 80.664 27.5387C80.8983 27.7861 81.1978 27.9684 81.5364 28.0986C81.8749 28.2288 82.2786 28.2939 82.7213 28.2939C83.164 28.2939 83.5546 28.2288 83.8931 28.0986C84.2317 27.9684 84.5312 27.7861 84.7655 27.5387C84.9999 27.2913 85.1822 27.0049 85.3124 26.6533C85.4426 26.3017 85.5077 25.9111 85.5077 25.4684Z" fill="white"/>
<path d="M91.5752 26.6149V29.8961H89.2836V21.042H92.4997C93.2159 21.042 93.8278 21.1071 94.3356 21.2373C94.8435 21.3675 95.2471 21.5498 95.5726 21.7842C95.8981 22.0186 96.1195 22.292 96.2627 22.6175C96.406 22.943 96.4841 23.2816 96.4841 23.6592C96.4841 23.9456 96.445 24.2191 96.3539 24.4795C96.2627 24.7399 96.1455 24.9743 95.9763 25.1826C95.807 25.404 95.5987 25.5993 95.3513 25.7685C95.1039 25.9378 94.8174 26.081 94.5049 26.1852C94.6612 26.2503 94.8044 26.3415 94.9346 26.4456C95.0648 26.5498 95.182 26.667 95.2862 26.8102L97.3955 29.8961H95.3122C94.9216 29.8961 94.6481 29.7659 94.4789 29.5055L92.8252 26.9404C92.7471 26.8232 92.669 26.7451 92.5648 26.693C92.4737 26.6409 92.3304 26.6149 92.1481 26.6149H91.5752ZM91.5752 25.2087H92.4997C92.8122 25.2087 93.0726 25.1696 93.294 25.1045C93.5153 25.0394 93.6976 24.9352 93.8278 24.805C93.9711 24.6748 94.0752 24.5316 94.1403 24.3623C94.2054 24.193 94.2315 24.0107 94.2315 23.8154C94.2315 23.4248 94.0882 23.1253 93.8018 22.904C93.5153 22.6826 93.0856 22.5784 92.4867 22.5784H91.5622V25.2087H91.5752Z" fill="white"/>
<path d="M100.963 24.6226H101.328C101.666 24.6226 101.914 24.5314 102.057 24.3361L104.284 21.4455C104.401 21.2892 104.544 21.1851 104.7 21.12C104.856 21.0679 105.052 21.0288 105.273 21.0288H107.278L104.349 24.6095C104.244 24.7397 104.14 24.8439 104.023 24.9351C103.906 25.0262 103.789 25.0913 103.672 25.1434C103.841 25.1955 103.997 25.2736 104.14 25.3778C104.284 25.4819 104.414 25.6121 104.531 25.7814L107.526 29.896H105.468C105.338 29.896 105.221 29.883 105.13 29.8699C105.039 29.8569 104.961 29.8309 104.883 29.7918C104.817 29.7658 104.752 29.7137 104.7 29.6746C104.648 29.6225 104.609 29.5705 104.557 29.5184L102.33 26.4324C102.252 26.3153 102.148 26.2371 102.018 26.1981C101.888 26.146 101.718 26.133 101.51 26.133H100.95V29.909H98.6586V21.0549H100.95V24.6226H100.963Z" fill="white"/>
</g>
</svg>