<svg width="108" height="30" viewBox="0 0 108 30" fill="none" xmlns="http://www.w3.org/2000/svg">
<path d="M23.9193 14.9609H5.97656V20.9375H23.9193V14.9609Z" fill="#D1FF52"/>
<path d="M29.9088 5.98975H23.9323V14.9611H29.9088V5.98975Z" fill="#D1FF52"/>
<path d="M5.97656 20.9375H0V22.4349V23.9323V29.9089H5.97656V23.9323V20.9375Z" fill="#D1FF52"/>
<path d="M23.9323 0H5.97656H5.11718H0V11.9661V13.8802V14.9609H5.97656V13.8802V11.9661V5.98958H23.9323V0Z" fill="#D1FF52"/>
<path d="M23.9193 14.9609H5.97656V20.9375H23.9193V14.9609Z" fill="#D1FF52"/>
<path d="M38.151 11.9663V14.9611H35.8333V5.98975H39.3619C40.065 5.98975 40.677 6.06787 41.1718 6.2111C41.6796 6.36735 42.0963 6.56266 42.4218 6.8361C42.7473 7.09652 42.9947 7.40902 43.151 7.76058C43.3072 8.11215 43.3853 8.50277 43.3853 8.91943C43.3853 9.36214 43.3072 9.77881 43.151 10.1564C42.9947 10.534 42.7473 10.8465 42.4218 11.12C42.0963 11.3804 41.6796 11.5887 41.1718 11.745C40.664 11.9012 40.065 11.9663 39.3749 11.9663H38.151ZM38.151 10.3908H39.3619C39.9609 10.3908 40.4036 10.2606 40.664 10.0002C40.9244 9.73974 41.0676 9.37516 41.0676 8.91943C41.0676 8.7111 41.0286 8.52881 40.9635 8.35954C40.8984 8.19027 40.7942 8.04704 40.651 7.92985C40.5077 7.81266 40.3385 7.72152 40.1171 7.64339C39.9088 7.57829 39.6484 7.53923 39.3619 7.53923H38.151V10.3908Z" fill="#D1FF52"/>
<path d="M53.6197 14.9606H51.289V11.1715H47.2265V14.9606H44.8958V5.98926H47.2265V9.73925H51.289V5.98926H53.6197V14.9606Z" fill="#D1FF52"/>
<path d="M64.9479 14.9606H63.151C62.9557 14.9606 62.7865 14.9215 62.6562 14.8304C62.526 14.7523 62.4349 14.6351 62.3828 14.5049L61.7969 12.9424H57.9948L57.4089 14.5049C57.3568 14.6221 57.2786 14.7262 57.1354 14.8174C57.0052 14.9085 56.8359 14.9606 56.6536 14.9606H54.8438L58.7109 5.98926H61.0807L64.9479 14.9606ZM58.5286 11.5231H61.263L60.3385 9.06218C60.2734 8.90593 60.2083 8.72363 60.1302 8.5153C60.0521 8.30697 59.974 8.07259 59.8958 7.8252C59.8177 8.07259 59.7526 8.30697 59.6745 8.5153C59.5964 8.72363 59.5182 8.91895 59.4531 9.0752L58.5286 11.5231Z" fill="#D1FF52"/>
<path d="M68.4504 13.2939H72.1483V14.9606H66.1327V5.98926H68.4504V13.2939Z" fill="#D1FF52"/>
<path d="M83.0468 14.9606H81.2499C81.0546 14.9606 80.8853 14.9215 80.7551 14.8304C80.6249 14.7523 80.5338 14.6351 80.4817 14.5049L79.8958 12.9424H76.0937L75.5077 14.5049C75.4556 14.6221 75.3775 14.7262 75.2343 14.8174C75.1041 14.9085 74.9348 14.9606 74.7525 14.9606H72.9426L76.8098 5.98926H79.1796L83.0468 14.9606ZM76.6275 11.5231H79.3619L78.4374 9.06218C78.3723 8.90593 78.3072 8.72363 78.2291 8.5153C78.151 8.30697 78.0728 8.07259 77.9947 7.8252C77.9166 8.07259 77.8515 8.30697 77.7734 8.5153C77.6952 8.72363 77.6171 8.91895 77.552 9.0752L76.6275 11.5231Z" fill="#D1FF52"/>
<path d="M37.3047 21.0542C37.3698 21.0672 37.4349 21.0802 37.487 21.1063C37.5391 21.1323 37.5911 21.1584 37.6432 21.1974C37.6953 21.2365 37.7474 21.2886 37.8125 21.3667L42.513 26.6922C42.5 26.5229 42.487 26.3537 42.474 26.1974C42.4609 26.0412 42.4609 25.8849 42.4609 25.7417V21.0542H44.4792V29.9084H43.2812C43.099 29.9084 42.9557 29.8823 42.8385 29.8302C42.7214 29.7782 42.6042 29.687 42.487 29.5568L37.8255 24.2834C37.8385 24.4396 37.8516 24.5828 37.8646 24.7391C37.8776 24.8823 37.8776 25.0256 37.8776 25.1558V29.9084H35.8594V21.0542H37.0703C37.1484 21.0412 37.2266 21.0412 37.3047 21.0542Z" fill="#D1FF52"/>
<path d="M52.6953 21.041V22.6165H48.6328V24.6868H51.7448V26.2103H48.6328V28.3197H52.6953V29.8952H46.3281V21.041H52.6953Z" fill="#D1FF52"/>
<path d="M61.6146 21.041V22.6686H58.8281V29.8952H56.5365V22.6686H53.75V21.041H61.6146Z" fill="#D1FF52"/>
<path d="M62.3176 21.0413H64.2447C64.44 21.0413 64.6093 21.0804 64.7395 21.1585C64.8697 21.2367 64.9609 21.3408 64.9999 21.484L66.3541 26.1064C66.3931 26.2627 66.4452 26.4189 66.4843 26.5882C66.5234 26.7575 66.5624 26.9398 66.5885 27.1221C66.6275 26.9268 66.6796 26.7575 66.7317 26.5882C66.7838 26.4189 66.8358 26.2627 66.8879 26.1064L68.4895 21.484C68.5286 21.3669 68.6197 21.2627 68.7499 21.1716C68.8801 21.0804 69.0494 21.0283 69.2317 21.0283H69.9088C70.1041 21.0283 70.2733 21.0674 70.4036 21.1455C70.5338 21.2236 70.6249 21.3278 70.677 21.471L72.2655 26.0934C72.3176 26.2367 72.3697 26.3929 72.4218 26.5492C72.4739 26.7054 72.526 26.8747 72.565 27.057C72.6041 26.8747 72.6431 26.7054 72.6822 26.5492C72.7213 26.3929 72.7603 26.2367 72.7994 26.0934L74.1536 21.471C74.1926 21.3538 74.2707 21.2497 74.414 21.1585C74.5442 21.0674 74.7135 21.0283 74.9088 21.0283H76.7187L73.6588 29.8825H71.5754L69.7135 24.3877C69.6874 24.2965 69.6484 24.2054 69.6093 24.1143C69.5702 24.0101 69.5442 23.9059 69.5051 23.7887C69.4791 23.9059 69.44 24.0101 69.401 24.1143C69.3619 24.2184 69.3358 24.3096 69.2968 24.3877L67.4088 29.8825H65.3254L62.3176 21.0413Z" fill="#D1FF52"/>
<path d="M87.8515 25.4684C87.8515 26.1064 87.7343 26.7054 87.4869 27.2523C87.2395 27.7991 86.8879 28.2809 86.4452 28.6846C86.0025 29.0882 85.4556 29.4137 84.8306 29.6481C84.1926 29.8825 83.5025 29.9997 82.7343 29.9997C81.9661 29.9997 81.2629 29.8825 80.6249 29.6481C79.9869 29.4137 79.453 29.1012 78.9973 28.6846C78.5416 28.2809 78.203 27.7991 77.9556 27.2523C77.7083 26.7054 77.5911 26.1064 77.5911 25.4684C77.5911 24.8304 77.7083 24.2314 77.9556 23.6846C78.203 23.1377 78.5546 22.6559 78.9973 22.2523C79.453 21.8486 79.9869 21.5231 80.6249 21.3018C81.2629 21.0674 81.9661 20.9502 82.7343 20.9502C83.5025 20.9502 84.2056 21.0674 84.8306 21.3018C85.4687 21.5361 86.0025 21.8486 86.4452 22.2653C86.8879 22.6689 87.2395 23.1507 87.4869 23.6976C87.7343 24.2314 87.8515 24.8304 87.8515 25.4684ZM85.5077 25.4684C85.5077 25.0257 85.4426 24.6351 85.3124 24.2835C85.1822 23.932 84.9999 23.6325 84.7655 23.3981C84.5312 23.1507 84.2317 22.9684 83.8931 22.8382C83.5546 22.708 83.151 22.6429 82.7213 22.6429C82.2786 22.6429 81.8879 22.708 81.5364 22.8382C81.1848 22.9684 80.8984 23.1507 80.664 23.3981C80.4296 23.6455 80.2473 23.945 80.1171 24.2835C79.9869 24.6351 79.9218 25.0257 79.9218 25.4684C79.9218 25.9111 79.9869 26.3018 80.1171 26.6533C80.2473 27.0049 80.4296 27.3044 80.664 27.5387C80.8984 27.7861 81.1978 27.9684 81.5364 28.0986C81.8749 28.2288 82.2786 28.2939 82.7213 28.2939C83.164 28.2939 83.5546 28.2288 83.8931 28.0986C84.2317 27.9684 84.5312 27.7861 84.7655 27.5387C84.9999 27.2913 85.1822 27.0049 85.3124 26.6533C85.4426 26.3018 85.5077 25.9111 85.5077 25.4684Z" fill="#D1FF52"/>
<path d="M91.5755 26.6139V29.8952H89.2838V21.041H92.5C93.2161 21.041 93.8281 21.1061 94.3359 21.2363C94.8437 21.3665 95.2473 21.5488 95.5729 21.7832C95.8984 22.0176 96.1198 22.291 96.263 22.6165C96.4062 22.9421 96.4843 23.2806 96.4843 23.6582C96.4843 23.9447 96.4453 24.2181 96.3541 24.4785C96.263 24.7389 96.1458 24.9733 95.9765 25.1816C95.8072 25.403 95.5989 25.5983 95.3515 25.7676C95.1041 25.9368 94.8177 26.0801 94.5052 26.1842C94.6614 26.2493 94.8046 26.3405 94.9349 26.4447C95.0651 26.5488 95.1823 26.666 95.2864 26.8092L97.3958 29.8952H95.3125C94.9218 29.8952 94.6484 29.765 94.4791 29.5046L92.8255 26.9394C92.7474 26.8223 92.6692 26.7441 92.5651 26.692C92.4739 26.64 92.3307 26.6139 92.1484 26.6139H91.5755ZM91.5755 25.2077H92.5C92.8125 25.2077 93.0729 25.1686 93.2942 25.1035C93.5156 25.0384 93.6979 24.9342 93.8281 24.804C93.9713 24.6738 94.0755 24.5306 94.1406 24.3613C94.2057 24.1921 94.2317 24.0098 94.2317 23.8144C94.2317 23.4238 94.0885 23.1243 93.802 22.903C93.5156 22.6816 93.0859 22.5775 92.4869 22.5775H91.5625V25.2077H91.5755Z" fill="#D1FF52"/>
<path d="M100.964 24.6221H101.328C101.667 24.6221 101.914 24.5309 102.057 24.3356L104.284 21.445C104.401 21.2887 104.544 21.1846 104.7 21.1195C104.857 21.0674 105.052 21.0283 105.273 21.0283H107.279L104.349 24.609C104.245 24.7393 104.141 24.8434 104.023 24.9346C103.906 25.0257 103.789 25.0908 103.672 25.1429C103.841 25.195 103.997 25.2731 104.141 25.3773C104.284 25.4814 104.414 25.6117 104.531 25.7809L107.526 29.8955H105.469C105.338 29.8955 105.221 29.8825 105.13 29.8695C105.039 29.8564 104.961 29.8304 104.883 29.7913C104.818 29.7653 104.753 29.7132 104.7 29.6742C104.648 29.6351 104.609 29.57 104.557 29.5179L102.331 26.432C102.253 26.3148 102.148 26.2367 102.018 26.1976C101.888 26.1455 101.719 26.1325 101.51 26.1325H100.95V29.9085H98.6588V21.0544H100.95V24.6221H100.964Z" fill="#D1FF52"/>
</svg>