<svg width="153" height="38" viewBox="0 0 153 38" fill="none" xmlns="http://www.w3.org/2000/svg">
<g opacity="0.5">
<path d="M48.0752 27.7921V9.28829H63.0017C63.9968 9.28829 64.8461 9.64 65.5495 10.3434C66.253 11.0469 66.6047 11.8876 66.6047 12.8655V17.8582C66.6047 18.8361 66.253 19.6768 65.5495 20.3803C64.8461 21.0837 63.9968 21.4354 63.0017 21.4354L51.5495 21.4611L51.4723 21.4354V27.7921H48.0752ZM63.1819 17.8582V12.8655C63.1819 12.7454 63.1218 12.6854 63.0017 12.6854H51.6524C51.5323 12.6854 51.4723 12.7454 51.4723 12.8655V17.8582C51.4723 17.9783 51.5323 18.0383 51.6524 18.0383H63.0017C63.1218 18.0383 63.1819 17.9783 63.1819 17.8582ZM86.9871 27.7921H68.4576V9.23682H71.8547V24.395H86.9871V27.7921ZM92.1085 9.26255H103.458C104.453 9.26255 105.302 9.60912 106.006 10.3023C106.709 10.9988 107.061 11.8447 107.061 12.8398V27.7921H103.638V21.5641H91.9283V27.7921H88.5313V12.8398C88.5313 11.8447 88.8778 10.9988 89.571 10.3023C90.2675 9.60912 91.1134 9.26255 92.1085 9.26255ZM91.9283 12.8398V18.167H103.638V12.8398C103.638 12.7197 103.578 12.6596 103.458 12.6596H92.1085C91.9884 12.6596 91.9283 12.7197 91.9283 12.8398ZM128.395 12.8398V14.2552H124.973V12.8398C124.973 12.7197 124.921 12.6596 124.818 12.6596H113.443C113.323 12.6596 113.263 12.7197 113.263 12.8398V16.6486C113.263 16.7687 113.323 16.8288 113.443 16.8288H124.818C125.796 16.8288 126.637 17.1753 127.34 17.8685C128.044 18.565 128.395 19.4109 128.395 20.406V24.2148C128.395 25.2099 128.044 26.0558 127.34 26.7523C126.637 27.4455 125.796 27.7921 124.818 27.7921H113.443C112.448 27.7921 111.604 27.4455 110.911 26.7523C110.214 26.0558 109.866 25.2099 109.866 24.2148V22.7994H113.263V24.2148C113.263 24.3349 113.323 24.395 113.443 24.395H124.818C124.921 24.395 124.973 24.3349 124.973 24.2148V20.406C124.973 20.2859 124.921 20.2258 124.818 20.2258H113.443C112.448 20.2258 111.604 19.8776 110.911 19.181C110.214 18.4878 109.866 17.6437 109.866 16.6486V12.8398C109.866 11.8447 110.214 10.9988 110.911 10.3023C111.604 9.60912 112.448 9.26255 113.443 9.26255H124.818C125.796 9.26255 126.637 9.60912 127.34 10.3023C128.044 10.9988 128.395 11.8447 128.395 12.8398ZM134.855 9.26255L141.598 17.292L148.315 9.26255H152.046V27.7921H148.623V14.2038L141.598 22.5678L134.546 14.2038V27.7921H131.149V9.26255H134.855Z" fill="white"/>
<path d="M12.5291 15.6825C12.4723 16.2442 12.2282 16.6107 11.805 16.8225C12.0656 16.9608 12.3831 17.0665 12.5949 17.278C12.7904 17.514 12.8964 17.8314 12.9371 18.1407C12.9781 18.6618 12.6038 19.1176 12.1071 19.2808C11.5537 19.4762 11.0651 19.2566 10.5765 18.6139C10.5115 19.1347 10.2757 19.5419 9.81174 19.7619C10.6502 20.0383 10.9761 20.3963 11.0089 20.9824C11.0254 21.4872 10.7 21.9756 10.2279 22.1549C9.65812 22.3749 9.19399 22.1716 8.64038 21.5205C8.57531 22.0414 8.35579 22.4242 7.83485 22.6768C8.59191 22.8637 9.07239 23.2543 9.04023 24.0438C9.01591 24.5569 8.63376 24.972 8.15335 25.1105C7.59167 25.2654 7.12769 25.0622 6.68783 24.4517C6.64717 24.5657 6.60651 24.6797 6.60646 24.7857C6.56561 24.7938 6.56561 24.7938 6.52491 24.8019C6.34562 24.3298 6.19076 23.874 5.9952 23.4263C6.01148 23.4018 6.05218 23.3937 6.06836 23.3694C6.23125 23.5484 6.39414 23.7275 6.52459 23.8496C6.73613 23.5321 6.98023 23.1656 7.19177 22.848C6.90654 22.6935 6.57268 22.5064 6.21462 22.303C6.15783 22.4415 6.05208 22.6532 5.94619 22.8648C5.98698 22.8565 6.00325 22.8321 6.044 22.8241C5.87279 22.1811 5.69342 21.4973 5.50566 20.7728C5.74198 21.0008 5.89681 21.139 6.05131 21.2774C6.2304 21.0085 6.40931 20.7399 6.5884 20.4711C6.32774 20.3329 6.05915 20.154 5.77402 19.9993C5.69265 20.1215 5.61958 20.2844 5.52204 20.4309C5.39951 19.6088 5.18751 18.7622 6.00136 18.0699C5.37437 18.0051 5.50461 17.5981 5.56146 17.248C5.78076 15.9128 6.13838 14.6346 6.72393 13.4376C6.79737 13.2747 6.96005 13.1364 7.03312 12.9734C7.10655 12.8105 7.11454 12.6397 7.18774 12.4768C7.55386 11.8742 7.93616 11.2474 8.37556 10.6936C9.22183 9.63493 10.1901 8.65775 11.3296 7.90019C11.8504 7.54168 12.4445 7.23223 12.9736 6.91461C13.0877 6.8493 13.169 6.72729 13.2747 6.62118C13.2666 6.68654 13.2992 6.74329 13.291 6.80856C13.6165 6.63747 13.9259 6.49081 14.2269 6.30335L14.2677 6.29529C14.8536 5.94513 15.3829 6.05062 15.7738 6.6284C16.4406 5.09765 17.5724 5.35782 18.2323 6.32622C18.3381 6.11451 18.4195 5.88662 18.525 5.67472C18.6633 5.41415 18.9158 5.30017 19.1924 5.30811C19.3228 5.32444 19.4692 5.31615 19.6157 5.30809C20.3972 5.29941 20.5358 5.56811 20.6987 6.06479C20.8454 6.58554 20.6013 7.16379 20.1212 7.40807C19.5353 7.75846 18.9001 7.54695 18.3871 6.88781C18.3383 7.17276 18.257 7.40075 18.1269 7.59604C17.9967 7.79148 17.8094 7.91381 17.6712 8.06841C17.9074 8.19029 18.225 8.29624 18.4367 8.50759C18.6238 8.70295 18.7544 9.03664 18.7707 9.32962C18.8279 9.82621 18.4618 10.3228 17.9653 10.4858C17.4118 10.6813 16.9314 10.5025 16.4183 9.84338C16.3533 10.3643 16.1092 10.7308 15.6535 10.9916C16.4676 11.2517 16.8179 11.6259 16.8507 12.2121C16.8672 12.7168 16.558 13.181 16.1104 13.3764C15.5407 13.5963 15.0846 13.4335 14.5065 12.7665C14.4417 13.2874 14.222 13.6702 13.7011 13.9227C14.4501 14.069 14.9304 14.4595 14.8982 15.2492C14.874 15.7621 14.4997 16.218 13.995 16.3403C13.4412 16.5367 12.9771 16.3333 12.5291 15.6825ZM10.4542 18.0032C10.6657 17.6858 10.9098 17.3192 11.105 17.0262C10.8199 16.8715 10.486 16.6844 10.1523 16.4974C9.9733 16.7661 9.77803 17.0592 9.6153 17.3035C9.9002 17.5638 10.2017 17.7998 10.4542 18.0032ZM16.3119 9.2092C16.5235 8.89162 16.7676 8.52517 16.9628 8.23202C16.6777 8.07735 16.3438 7.89037 16.0101 7.70321C15.8311 7.97194 15.6359 8.26509 15.4731 8.50939C15.758 8.7697 16.0595 9.00577 16.3119 9.2092ZM8.19966 19.4288C8.03694 19.6731 7.84166 19.9662 7.66266 20.235C7.96384 20.4708 8.26515 20.7068 8.51784 20.9102C8.72929 20.5928 8.97338 20.2263 9.16866 19.9332C8.86738 19.803 8.53338 19.6158 8.19966 19.4288ZM12.1049 13.5659C11.9259 13.8347 11.7307 14.1278 11.5679 14.3721C11.8691 14.608 12.1542 14.8684 12.4068 15.0719C12.6183 14.7543 12.8624 14.3879 13.0577 14.0947C12.7726 13.9403 12.4386 13.7531 12.1049 13.5659ZM15.0102 11.1634C14.7251 11.0088 14.3912 10.8217 14.0575 10.6346C13.8785 10.9034 13.6832 11.1965 13.5205 11.4408C13.8217 11.6767 14.1068 11.937 14.3593 12.1406C14.5708 11.823 14.815 11.4565 15.0102 11.1634ZM13.1777 8.9907C13.4057 9.17786 13.6337 9.36502 13.8536 9.51147C14.0327 9.24261 14.1953 8.99845 14.3743 8.72972C14.1136 8.59133 13.8532 8.45313 13.6333 8.30667C13.4707 8.55083 13.3242 8.7707 13.1777 8.9907ZM8.50016 17.5481C8.23935 17.4098 8.00335 17.2879 7.75906 17.1251C7.6126 17.345 7.46624 17.5647 7.31979 17.7846C7.54772 17.9719 7.79201 18.1346 7.99561 18.3055C8.15843 18.0611 8.32116 17.8168 8.50016 17.5481ZM9.73636 14.2099C9.5899 14.4298 9.44345 14.6497 9.29699 14.8696C9.52502 15.0567 9.76931 15.2194 9.94848 15.374C10.1275 15.1053 10.2901 14.8612 10.4692 14.5923C10.2167 14.4946 9.9725 14.332 9.73636 14.2099ZM11.8847 12.467C12.0637 12.1982 12.2426 11.9296 12.4054 11.6852C12.1446 11.547 11.9086 11.425 11.6888 11.2786C11.5423 11.4984 11.3959 11.7183 11.2494 11.9382C11.4531 12.1091 11.681 12.2962 11.8847 12.467ZM11.379 9.8378C11.5091 9.6425 11.6231 9.47136 11.7532 9.27606C11.566 9.18667 11.3949 9.07267 11.2322 8.99955C11.1345 9.14613 11.0206 9.31714 10.923 9.46372C11.0777 9.60183 11.2242 9.69946 11.379 9.8378ZM7.01779 15.3264C7.14796 15.4484 7.30269 15.5867 7.4737 15.7007C7.60379 15.5054 7.71779 15.3342 7.84798 15.1388C7.66083 15.0494 7.47332 14.9599 7.32688 14.8624C7.21316 15.0331 7.11543 15.1799 7.01779 15.3264ZM9.42634 12.7692C9.54025 12.5982 9.67043 12.4028 9.78434 12.2318C9.62163 12.1587 9.47491 12.0609 9.31211 11.988C9.21447 12.1345 9.11693 12.281 9.01929 12.4276C9.14932 12.5494 9.29617 12.6473 9.42634 12.7692ZM15.1497 14.0777C15.5077 13.5402 16.2157 13.3772 16.7533 13.7353C17.2906 14.0932 17.4619 14.842 17.0795 15.3631C16.7215 15.9006 15.9889 16.0473 15.4516 15.6894C14.9386 15.3476 14.7917 14.6151 15.1497 14.0777ZM17.4286 12.7744C16.8912 12.4164 16.728 11.7083 17.086 11.1708C17.444 10.6334 18.1929 10.4621 18.7141 10.8445C19.2514 11.2025 19.3738 11.9188 19.0158 12.4563C18.6741 12.9692 17.9578 13.0916 17.4286 12.7744ZM13.1971 17.0091C13.5551 16.4717 14.2877 16.3248 14.8252 16.6828C15.3625 17.0407 15.5093 17.7734 15.1513 18.3108C14.7934 18.8481 14.0771 18.9704 13.5398 18.6125C12.9778 18.2381 12.8554 17.522 13.1971 17.0091ZM20.6585 7.87256C21.1958 8.23046 21.359 8.93854 21.001 9.47599C20.6675 10.0296 19.8941 10.1846 19.3568 9.82665C18.8192 9.46856 18.6723 8.73606 19.0303 8.1986C19.3882 7.66129 20.1209 7.51446 20.6585 7.87256ZM9.59381 24.4835C9.05622 24.1254 8.90939 23.3928 9.26739 22.8553C9.6253 22.318 10.3825 22.1875 10.92 22.5455C11.441 22.9279 11.5634 23.6443 11.2218 24.1571C10.8638 24.6946 10.1311 24.8414 9.59381 24.4835ZM11.5464 21.5521C11.0089 21.194 10.8619 20.4615 11.2037 19.9485C11.5617 19.411 12.3106 19.2397 12.8319 19.6223C13.3692 19.9802 13.4916 20.6966 13.1336 21.234C12.8163 21.7633 12.0838 21.91 11.5464 21.5521ZM7.27419 25.795C7.63223 25.3634 8.20202 25.1433 8.70685 25.3385C9.21154 25.5336 9.54552 26.0382 9.46432 26.5837C9.38321 27.1291 8.94367 27.5772 8.41445 27.5771C8.26815 27.5853 8.05644 27.4795 7.95056 27.3737C7.68982 27.0239 7.45369 26.6901 7.25006 26.3078C7.20092 26.1694 7.26611 25.966 7.27419 25.795ZM19.1627 13.2946C19.6756 13.6363 19.7982 14.3527 19.4727 14.8413C19.131 15.3543 18.4145 15.4766 17.9016 15.135C17.413 14.8095 17.2742 14.1177 17.616 13.6046C17.9415 13.116 18.6741 12.9692 19.1627 13.2946ZM15.6798 16.5114C16.0214 15.9986 16.7378 15.8762 17.2507 16.2178C17.7473 16.5839 17.8699 17.3002 17.5202 17.7725C17.17 18.2447 16.4782 18.3835 15.9897 18.0581C15.4849 17.7571 15.338 17.0245 15.6798 16.5114ZM19.8786 12.2198C19.3658 11.8782 19.2432 11.1617 19.5849 10.6489C19.9266 10.1358 20.643 10.0134 21.1558 10.3551C21.6281 10.7051 21.767 11.397 21.4415 11.8856C21.1243 12.4148 20.3915 12.5615 19.8786 12.2198ZM15.2818 19.1735C15.7947 19.5151 15.9173 20.2316 15.5756 20.7445C15.234 21.2574 14.493 21.3636 14.0208 21.0138C13.5486 20.664 13.4098 19.9719 13.7352 19.4833C14.0527 18.9541 14.7852 18.8074 15.2818 19.1735ZM21.5212 7.74187C21.863 7.22884 22.5549 7.09018 23.0842 7.40748C23.5971 7.74911 23.7359 8.44115 23.3942 8.95417C23.0687 9.44276 22.3766 9.58134 21.8718 9.28031C21.367 8.97938 21.204 8.27103 21.5212 7.74187ZM11.7583 22.3986C12.0999 21.8857 12.8163 21.7633 13.3049 22.0888C13.8178 22.4304 13.9404 23.1467 13.5987 23.6597C13.2732 24.1483 12.5812 24.2869 12.052 23.9697C11.5797 23.6198 11.4166 22.9116 11.7583 22.3986ZM11.3767 25.0362C11.8733 25.4023 11.9958 26.1188 11.6461 26.591C11.2797 27.0876 10.5635 27.2101 10.0669 26.844C9.5944 26.494 9.47215 25.7778 9.82203 25.3054C10.1881 24.8088 10.9044 24.6866 11.3767 25.0362ZM22.3531 11.6816C21.8645 11.3562 21.7341 10.705 22.0596 10.2164C22.385 9.72783 23.0606 9.6135 23.5492 9.93896C24.0214 10.289 24.1274 10.9237 23.802 11.4123C23.4929 11.8763 22.8417 12.0071 22.3531 11.6816ZM18.1544 16.0791C18.4799 15.5905 19.131 15.4599 19.6196 15.7854C20.1082 16.1108 20.263 16.7783 19.8968 17.275C19.5712 17.7638 18.8958 17.8779 18.4479 17.5443C17.9839 17.2352 17.8452 16.5433 18.1544 16.0791ZM21.5965 12.8704C22.0851 13.1958 22.1993 13.8713 21.8656 14.3193C21.5402 14.8079 20.8647 14.9221 20.3761 14.5966C19.9038 14.2467 19.7979 13.6119 20.1233 13.1233C20.4732 12.651 21.1081 12.545 21.5965 12.8704ZM12.2967 24.8731C12.6221 24.3845 13.2732 24.2539 13.7618 24.5794C14.2504 24.9048 14.3889 25.5967 14.0391 26.069C13.7135 26.5578 13.0544 26.6475 12.5902 26.3383C12.1017 26.013 11.9875 25.3373 12.2967 24.8731ZM14.5428 23.4069C14.0542 23.0815 13.9238 22.4304 14.2492 21.9418C14.5747 21.4533 15.2502 21.3389 15.7388 21.6644C16.2274 21.9898 16.3171 22.6491 15.9916 23.1377C15.6824 23.6019 15.0314 23.7324 14.5428 23.4069ZM16.2018 19.0106C16.5273 18.5218 17.1784 18.3912 17.6426 18.7004C18.1312 19.0259 18.286 19.6933 17.936 20.1657C17.6105 20.6543 16.9595 20.7848 16.4709 20.4593C16.0313 20.1665 15.9007 19.5154 16.2018 19.0106ZM24.0285 7.26057C24.3784 6.78825 25.0131 6.68221 25.5017 7.00767C25.9903 7.33312 26.1045 8.00856 25.7383 8.50545C25.3884 8.97777 24.7291 9.06767 24.2813 8.73392C23.8336 8.4004 23.7193 7.72473 24.0285 7.26057ZM10.6376 29.2696C10.149 28.9442 10.0349 28.2687 10.3686 27.8207C10.694 27.3321 11.3695 27.2179 11.858 27.5434C12.3304 27.8933 12.4364 28.528 12.1109 29.0167C11.7772 29.4646 11.1262 29.5951 10.6376 29.2696ZM14.2429 27.0867C14.7071 27.3959 14.7889 28.0146 14.4798 28.4787C14.1623 28.9021 13.5519 29.0245 13.104 28.6909C12.6398 28.3817 12.5582 27.763 12.8674 27.2989C13.1846 26.8753 13.8033 26.7939 14.2429 27.0867ZM22.0289 15.3449C22.4931 15.6541 22.6154 16.2646 22.3064 16.7286C21.9973 17.1927 21.4028 17.2906 20.9387 16.9815C20.4747 16.6724 20.3524 16.0619 20.6615 15.5979C20.9787 15.1743 21.5892 15.052 22.0289 15.3449ZM16.7643 21.5012C17.0735 21.037 17.6839 20.9148 18.1724 21.2402C18.6121 21.5331 18.7345 22.1436 18.4254 22.6077C18.1163 23.0717 17.5057 23.194 17.0173 22.8687C16.5694 22.5351 16.4714 21.9409 16.7643 21.5012ZM24.8521 11.1595C24.3879 10.8503 24.2658 10.2398 24.5748 9.77587C24.8841 9.31157 25.4782 9.21378 25.9343 9.48226C26.3984 9.79145 26.5208 10.402 26.2116 10.8661C25.9024 11.3301 25.3081 11.428 24.8521 11.1595ZM18.9943 19.9537C18.5301 19.6445 18.4079 19.034 18.7171 18.5699C19.0262 18.1058 19.6205 18.0078 20.0764 18.2764C20.5406 18.5856 20.6629 19.1963 20.3539 19.6601C20.0445 20.1242 19.4504 20.222 18.9943 19.9537ZM16.1712 24.1389C16.6354 24.4481 16.7576 25.0587 16.4486 25.5226C16.1394 25.9868 15.545 26.0846 15.0891 25.816C14.625 25.5068 14.5027 24.8964 14.8118 24.4324C15.1208 23.9685 15.707 23.8297 16.1712 24.1389ZM22.6221 12.7071C22.9314 12.2428 23.5417 12.1207 24.0058 12.4298C24.4698 12.7389 24.5681 13.3332 24.2992 13.7891C23.9901 14.2533 23.3796 14.3755 22.9156 14.0664C22.4516 13.7573 22.3129 13.1712 22.6221 12.7071ZM22.9536 6.54456C22.6281 7.0333 22.0502 7.21249 21.5454 7.0173C21.0161 6.80584 20.7228 6.29306 20.804 5.74757C20.8447 5.52798 20.8853 5.41375 21.1704 5.46258C21.6834 5.59264 22.2207 5.63314 22.7336 5.76319C23.1977 5.86071 23.2382 5.95843 23.0349 6.42256C23.0024 6.47128 22.9699 6.52014 22.9536 6.54456ZM20.7616 22.1184C20.4606 22.5173 19.9071 22.6071 19.4673 22.3142C19.0439 21.9968 18.9541 21.4433 19.2716 21.0199C19.5889 20.5964 20.1667 20.523 20.5901 20.8403C21.0054 21.117 21.0789 21.695 20.7616 22.1184ZM13.3975 29.8385C13.6903 29.3989 14.2601 29.2847 14.6999 29.5776C15.115 29.8541 15.2292 30.424 14.9527 30.8391C14.6598 31.2789 14.0899 31.3931 13.6502 31.1002C13.2105 30.8072 13.1208 30.2538 13.3975 29.8385ZM23.1768 15.1572C23.4697 14.7175 24.0231 14.6278 24.4872 14.9369C24.9025 15.2136 25.0167 15.7834 24.6993 16.2069C24.4065 16.6464 23.8529 16.7362 23.3888 16.427C22.9735 16.1504 22.8838 15.5969 23.1768 15.1572ZM25.113 12.2503C25.4058 11.8107 25.9757 11.6965 26.3992 12.0137C26.8144 12.2903 26.9285 12.8603 26.6357 13.2999C26.3428 13.7396 25.7729 13.8538 25.3495 13.5364C24.9261 13.219 24.8364 12.6656 25.113 12.2503ZM17.5554 25.2374C17.1156 24.9445 17.0015 24.3746 17.3189 23.9513C17.5956 23.536 18.1654 23.4218 18.6051 23.7147C19.0447 24.0076 19.1589 24.5774 18.8416 25.0009C18.5488 25.4404 17.9951 25.5304 17.5554 25.2374ZM15.3663 26.8828C15.6592 26.443 16.2128 26.3533 16.6768 26.6623C17.0921 26.939 17.2063 27.5088 16.889 27.9323C16.596 28.372 16.0425 28.4618 15.5783 28.1526C15.1631 27.8758 15.0734 27.3225 15.3663 26.8828ZM27.0657 9.31891C27.3586 8.87917 27.9284 8.76498 28.3681 9.05789C28.7833 9.33443 28.8975 9.90427 28.621 10.3194C28.3281 10.7592 27.7582 10.8734 27.3185 10.5805C26.8788 10.2875 26.789 9.73421 27.0657 9.31891ZM21.2078 18.113C21.5008 17.6733 22.0706 17.5591 22.5103 17.852C22.9499 18.1448 23.0397 18.6984 22.763 19.1137C22.4702 19.5533 21.9003 19.6676 21.4606 19.3747C21.0454 19.0982 20.915 18.5526 21.2078 18.113ZM22.9509 20.3675C23.3661 20.644 23.4478 21.1567 23.1712 21.572C22.9109 21.9628 22.3981 22.0446 22.0072 21.7842C21.5919 21.5076 21.5103 20.9948 21.7869 20.5794C22.0471 20.1885 22.5356 20.0908 22.9509 20.3675ZM24.9036 17.436C25.3187 17.7126 25.4003 18.2254 25.1238 18.6406C24.8634 19.0315 24.3506 19.1133 23.9597 18.853C23.5444 18.5763 23.4628 18.0635 23.7395 17.6482C23.9997 17.2572 24.4883 17.1594 24.9036 17.436ZM25.6675 14.7004C25.9442 14.2851 26.457 14.2035 26.8723 14.4801C27.2468 14.7648 27.3447 15.2532 27.068 15.6685C26.7915 16.0837 26.2785 16.1654 25.8632 15.8888C25.4889 15.6042 25.3909 15.1157 25.6675 14.7004ZM21.2509 24.4545C20.9743 24.8698 20.4454 24.9758 20.0707 24.6912C19.6798 24.4308 19.5574 23.9262 19.8341 23.5108C20.1109 23.0953 20.6399 22.9894 21.0145 23.2742C21.3891 23.559 21.487 24.0475 21.2509 24.4545ZM16.1248 30.5618C15.7097 30.2853 15.628 29.7724 15.9046 29.3571C16.1649 28.9663 16.6777 28.8847 17.0685 29.145C17.4839 29.4217 17.5655 29.9344 17.2889 30.3497C17.0286 30.7406 16.5156 30.8222 16.1248 30.5618ZM28.8087 11.5733C29.2239 11.8499 29.3055 12.3627 29.0289 12.778C28.7686 13.1688 28.2559 13.2505 27.865 12.9901C27.4497 12.7135 27.3681 12.2006 27.6446 11.7854C27.9049 11.3945 28.3934 11.2967 28.8087 11.5733ZM17.8409 26.4502C18.1174 26.0351 18.6303 25.9534 19.0456 26.2301C19.4363 26.4904 19.518 27.0031 19.2577 27.394C18.981 27.8093 18.4682 27.8909 18.0529 27.6142C17.6624 27.3539 17.5805 26.8411 17.8409 26.4502ZM27.3128 16.9954C27.6792 17.2395 27.7528 17.7115 27.5086 18.0781C27.2645 18.4446 26.7924 18.5179 26.4259 18.2737C26.0594 18.0296 25.9861 17.5578 26.2303 17.1912C26.4581 16.8492 26.9465 16.7514 27.3128 16.9954ZM16.451 31.8725C16.695 31.5062 17.1589 31.3919 17.5252 31.6359C17.8918 31.8801 18.006 32.3441 17.762 32.7104C17.518 33.0767 17.0537 33.1909 16.6874 32.9469C16.3211 32.7029 16.207 32.2389 16.451 31.8725ZM23.4077 22.858C23.7741 23.1021 23.8476 23.5743 23.6034 23.9408C23.3594 24.3071 22.8873 24.3806 22.5207 24.1364C22.1542 23.8923 22.0811 23.4204 22.3251 23.0539C22.553 22.7119 23.0414 22.614 23.4077 22.858ZM28.403 15.3588C28.0365 15.1147 27.9225 14.6508 28.1666 14.2843C28.4107 13.9179 28.8746 13.8036 29.2409 14.0476C29.6074 14.2918 29.7215 14.756 29.4775 15.1223C29.2335 15.4886 28.7694 15.6029 28.403 15.3588ZM20.3562 26.0098C20.6003 25.6433 21.0642 25.5291 21.4305 25.7731C21.7971 26.0173 21.9112 26.4813 21.6671 26.8477C21.423 27.2141 20.959 27.3281 20.5927 27.0841C20.2101 26.8645 20.1121 26.3762 20.3562 26.0098ZM18.64 30.0156C18.2735 29.7715 18.1596 29.3075 18.4036 28.9412C18.6476 28.5749 19.1115 28.4605 19.4779 28.7045C19.8444 28.9487 19.9585 29.4128 19.7145 29.7791C19.4705 30.1454 18.982 30.2435 18.64 30.0156ZM24.2614 20.1471C24.5055 19.7806 24.9938 19.6826 25.3357 19.9104C25.7023 20.1545 25.8001 20.643 25.5723 20.985C25.3282 21.3514 24.8399 21.4492 24.4979 21.2214C24.1316 20.9774 24.0173 20.5135 24.2614 20.1471ZM12.4783 31.4832C12.405 31.4344 12.3154 31.41 12.2665 31.3774C11.8024 31.0683 11.3382 30.7591 10.8496 30.4336C11.0285 30.0592 11.3298 29.8719 11.7286 29.8553C12.1277 29.8389 12.494 30.0829 12.6488 30.4329C12.7873 30.8075 12.7713 31.1495 12.4783 31.4832ZM27.7535 19.5107C28.0711 19.7223 28.1606 20.1701 27.9247 20.4712C27.7131 20.7888 27.241 20.8623 26.9237 20.6509C26.6222 20.4148 26.5569 19.9834 26.7522 19.6902C27.0044 19.3643 27.4359 19.2992 27.7535 19.5107ZM28.7454 16.7506C28.9569 16.433 29.3885 16.3678 29.7061 16.5793C30.0237 16.7909 30.0971 17.2628 29.8856 17.5804C29.6497 17.8815 29.2183 17.9471 28.9007 17.7355C28.5991 17.4996 28.5096 17.052 28.7454 16.7506ZM30.8531 14.8041C30.5355 14.5926 30.4458 14.1449 30.6572 13.8274C30.8688 13.5098 31.3166 13.42 31.6342 13.6315C31.9518 13.8431 32.017 14.2747 31.8054 14.5922C31.6184 14.926 31.1707 15.0157 30.8531 14.8041ZM23.8237 25.3571C24.1413 25.5686 24.231 26.0164 24.0195 26.3339C23.8079 26.6515 23.3602 26.7413 23.0185 26.5136C22.7008 26.302 22.6517 25.8461 22.847 25.5529C23.0828 25.2515 23.5307 25.1619 23.8237 25.3571ZM18.9661 31.4318C19.1777 31.1142 19.601 31.0082 19.9185 31.2198C20.2361 31.4313 20.3501 31.8952 20.1386 32.2128C19.9271 32.5304 19.4795 32.6202 19.1619 32.4087C18.8443 32.1971 18.7546 31.7494 18.9661 31.4318ZM21.8957 28.3047C22.2133 28.5163 22.3029 28.9639 22.0914 29.2815C21.8798 29.5991 21.4322 29.6889 21.0902 29.4611C20.7726 29.2495 20.7235 28.7938 20.9189 28.5005C21.1303 28.1828 21.5782 28.0932 21.8957 28.3047ZM24.8239 22.6377C25.0354 22.3202 25.4833 22.2306 25.7763 22.4258C26.0939 22.6373 26.2079 23.1012 25.9721 23.4025C25.7606 23.7201 25.3291 23.7854 25.0115 23.5738C24.7023 23.403 24.6124 22.9553 24.8239 22.6377ZM30.6239 11.0189C30.8682 11.3935 31.1044 11.7272 31.2998 12.0688C31.3567 12.1419 31.292 12.3457 31.2186 12.4026C30.9825 12.5982 30.6732 12.6389 30.3881 12.4845C30.1031 12.3299 29.924 12.0695 29.9646 11.7439C30.0133 11.3529 30.2412 11.1165 30.6239 11.0189ZM9.73421 29.5143C9.24539 28.9771 8.76501 28.4808 8.30067 27.96C8.67521 27.7158 9.14727 27.748 9.49758 28.0167C9.90458 28.3581 10.0025 28.8465 9.73421 29.5143ZM27.3393 22.1972C27.5183 21.9285 27.9009 21.8307 28.1696 22.0097C28.4385 22.1888 28.536 22.5712 28.3569 22.84C28.1779 23.1088 27.7954 23.2065 27.5267 23.0275C27.258 22.8485 27.1604 22.4658 27.3393 22.1972ZM22.3118 30.8038C22.5806 30.9829 22.6782 31.3653 22.4992 31.634C22.3202 31.9028 21.9376 32.0006 21.6689 31.8216C21.4002 31.6426 21.3025 31.2601 21.4815 30.9912C21.6605 30.7226 22.0268 30.6492 22.3118 30.8038ZM26.3705 25.8008C26.1871 26.068 25.8216 26.1358 25.5544 25.9524C25.287 25.7689 25.2193 25.4036 25.4028 25.1362C25.5862 24.869 25.9517 24.8011 26.2191 24.9846C26.4862 25.1681 26.554 25.5335 26.3705 25.8008ZM23.4341 28.0599C23.6131 27.7912 23.9957 27.6934 24.2644 27.8724C24.5333 28.0515 24.6308 28.4339 24.4518 28.7027C24.2728 28.9715 23.8903 29.0692 23.6215 28.8902C23.3285 28.695 23.2551 28.3287 23.4341 28.0599ZM29.3082 19.2414C29.4872 18.9727 29.8779 18.9155 30.1465 19.0944C30.4151 19.2733 30.4724 19.6642 30.2934 19.9329C30.1144 20.2016 29.7238 20.2589 29.4551 20.0799C29.1863 19.9009 29.1129 19.5345 29.3082 19.2414ZM32.2285 17.0068C32.0451 17.274 31.6794 17.3419 31.4121 17.1584C31.145 16.9751 31.0772 16.6097 31.2606 16.3422C31.444 16.075 31.8095 16.0071 32.0768 16.1906C32.344 16.374 32.412 16.7395 32.2285 17.0068ZM32.5235 18.7029C32.7432 18.8492 32.8086 19.1749 32.6622 19.3948C32.4994 19.6391 32.19 19.6797 31.9459 19.5171C31.726 19.3706 31.6852 19.0615 31.8317 18.8416C31.9944 18.5973 32.2792 18.5401 32.5235 18.7029ZM24.713 30.4284C24.9328 30.5748 24.9982 30.9005 24.8272 31.1039C24.6808 31.3237 24.3307 31.3727 24.1273 31.2019C23.9235 31.0309 23.8666 30.7461 24.013 30.5263C24.1677 30.3473 24.4932 30.282 24.713 30.4284ZM27.8223 8.23598C27.1061 8.67574 26.2265 7.98423 26.3811 7.27598C26.8697 7.60144 27.3338 7.91062 27.8223 8.23598ZM26.1042 28.2869C25.8844 28.1405 25.8191 27.8148 25.9656 27.595C26.112 27.3751 26.4376 27.3098 26.6412 27.4809C26.8609 27.6272 26.9018 27.9364 26.7716 28.1319C26.6335 28.3925 26.324 28.4333 26.1042 28.2869ZM28.0569 25.3555C27.837 25.209 27.7718 24.8834 27.9182 24.6635C28.0647 24.4437 28.3902 24.3786 28.5938 24.5494C28.8135 24.6958 28.8543 25.0051 28.7243 25.2004C28.6024 25.4367 28.301 25.5181 28.0569 25.3555ZM30.0094 22.4242C29.7896 22.2777 29.7243 21.9521 29.8708 21.7323C30.0172 21.5124 30.3428 21.4471 30.5463 21.6182C30.7661 21.7645 30.807 22.0737 30.6768 22.2692C30.5549 22.5054 30.2536 22.5868 30.0094 22.4242ZM15.4746 32.8089C14.9942 32.63 14.4976 32.4756 14.0171 32.2966C14.1879 31.9872 14.5217 31.8568 14.8637 31.9788C15.2625 32.0683 15.4905 32.3611 15.4746 32.8089ZM26.5773 30.6474C26.5854 30.4765 26.5283 30.2974 26.5853 30.1589C26.6747 29.9717 26.8782 29.9309 27.0493 30.0448C27.2447 30.175 27.3017 30.3541 27.1633 30.5089C27.0576 30.6147 26.8784 30.6719 26.7403 30.7207C26.6749 30.7124 26.6262 30.68 26.5773 30.6474ZM33.0375 21.267C33.0292 21.438 33.0863 21.6169 33.0293 21.7555C32.9155 21.9264 32.712 21.9671 32.5165 21.837C32.3212 21.7069 32.2804 21.5034 32.443 21.3649C32.5489 21.2589 32.736 21.2427 32.8908 21.1692C32.9396 21.2018 32.9883 21.2342 33.0375 21.267ZM28.5463 27.7974C28.5379 27.5452 28.4484 27.3092 28.5377 27.2278C28.6436 27.1218 28.8389 27.1463 29.0017 27.1136C29.0345 27.2765 29.1161 27.4718 29.0509 27.5696C29.0347 27.6995 28.8069 27.7241 28.5463 27.7974ZM30.3683 24.2149C30.6451 24.2229 30.8567 24.117 30.938 24.2064C31.044 24.3123 31.0196 24.5075 31.0522 24.6704C30.8894 24.703 30.6942 24.7846 30.5963 24.7194C30.4827 24.6788 30.4581 24.451 30.3683 24.2149ZM23.515 5.96647C23.9708 6.12902 24.3617 6.28355 24.7933 6.42978C24.2237 6.64991 23.7676 6.48717 23.515 5.96647Z" fill="url(#paint0_linear)"/>
</g>
<defs>
<linearGradient id="paint0_linear" x1="11.1043" y1="30.6033" x2="26.5623" y2="7.39672" gradientUnits="userSpaceOnUse">
<stop stop-color="white"/>
<stop offset="1" stop-color="white"/>
</linearGradient>
</defs>
</svg>