<svg width="153" height="38" viewBox="0 0 153 38" fill="none" xmlns="http://www.w3.org/2000/svg">
<path d="M48.0752 27.792V9.28829H63.0017C63.9968 9.28829 64.8461 9.64 65.5495 10.3434C66.253 11.0469 66.6047 11.8876 66.6047 12.8655V17.8582C66.6047 18.8361 66.253 19.6768 65.5495 20.3803C64.8461 21.0837 63.9968 21.4354 63.0017 21.4354L51.5495 21.4611L51.4723 21.4354V27.792H48.0752ZM63.1819 17.8582V12.8655C63.1819 12.7454 63.1218 12.6854 63.0017 12.6854H51.6524C51.5323 12.6854 51.4723 12.7454 51.4723 12.8655V17.8582C51.4723 17.9783 51.5323 18.0383 51.6524 18.0383H63.0017C63.1218 18.0383 63.1819 17.9783 63.1819 17.8582ZM86.9871 27.792H68.4576V9.23682H71.8547V24.395H86.9871V27.792ZM92.1085 9.26255H103.458C104.453 9.26255 105.302 9.60912 106.006 10.3023C106.709 10.9988 107.061 11.8447 107.061 12.8398V27.792H103.638V21.5641H91.9283V27.792H88.5313V12.8398C88.5313 11.8447 88.8778 10.9988 89.571 10.3023C90.2675 9.60912 91.1134 9.26255 92.1085 9.26255ZM91.9283 12.8398V18.167H103.638V12.8398C103.638 12.7197 103.578 12.6596 103.458 12.6596H92.1085C91.9884 12.6596 91.9283 12.7197 91.9283 12.8398ZM128.395 12.8398V14.2552H124.973V12.8398C124.973 12.7197 124.921 12.6596 124.818 12.6596H113.443C113.323 12.6596 113.263 12.7197 113.263 12.8398V16.6486C113.263 16.7687 113.323 16.8288 113.443 16.8288H124.818C125.796 16.8288 126.637 17.1753 127.34 17.8685C128.044 18.565 128.395 19.4109 128.395 20.406V24.2148C128.395 25.2099 128.044 26.0558 127.34 26.7523C126.637 27.4455 125.796 27.792 124.818 27.792H113.443C112.448 27.792 111.604 27.4455 110.911 26.7523C110.214 26.0558 109.866 25.2099 109.866 24.2148V22.7994H113.263V24.2148C113.263 24.3349 113.323 24.395 113.443 24.395H124.818C124.921 24.395 124.973 24.3349 124.973 24.2148V20.406C124.973 20.2859 124.921 20.2258 124.818 20.2258H113.443C112.448 20.2258 111.604 19.8776 110.911 19.181C110.214 18.4878 109.866 17.6437 109.866 16.6486V12.8398C109.866 11.8447 110.214 10.9988 110.911 10.3023C111.604 9.60912 112.448 9.26255 113.443 9.26255H124.818C125.796 9.26255 126.637 9.60912 127.34 10.3023C128.044 10.9988 128.395 11.8447 128.395 12.8398ZM134.855 9.26255L141.598 17.292L148.315 9.26255H152.046V27.792H148.623V14.2038L141.598 22.5678L134.546 14.2038V27.792H131.149V9.26255H134.855Z" fill="white"/>
<path d="M12.5292 15.6825C12.4725 16.2442 12.2284 16.6107 11.8051 16.8225C12.0657 16.9608 12.3832 17.0665 12.5951 17.278C12.7905 17.514 12.8965 17.8314 12.9372 18.1407C12.9782 18.6618 12.6039 19.1176 12.1072 19.2808C11.5538 19.4762 11.0653 19.2566 10.5766 18.6139C10.5116 19.1347 10.2758 19.5419 9.81186 19.7619C10.6504 20.0383 10.9762 20.3963 11.009 20.9824C11.0255 21.4872 10.7001 21.9756 10.228 22.1549C9.65824 22.3749 9.19412 22.1716 8.6405 21.5205C8.57543 22.0414 8.35591 22.4242 7.83498 22.6768C8.59203 22.8637 9.07251 23.2543 9.04035 24.0438C9.01603 24.5569 8.63388 24.972 8.15347 25.1105C7.59179 25.2654 7.12781 25.0622 6.68795 24.4517C6.64729 24.5657 6.60663 24.6797 6.60658 24.7857C6.56574 24.7938 6.56574 24.7938 6.52503 24.8019C6.34575 24.3298 6.19089 23.874 5.99533 23.4263C6.0116 23.4018 6.0523 23.3937 6.06848 23.3694C6.23137 23.5484 6.39427 23.7275 6.52471 23.8496C6.73626 23.5321 6.98035 23.1656 7.19189 22.848C6.90666 22.6935 6.5728 22.5064 6.21475 22.303C6.15795 22.4415 6.0522 22.6532 5.94631 22.8648C5.9871 22.8565 6.00337 22.8321 6.04412 22.8241C5.87291 22.1811 5.69354 21.4973 5.50578 20.7728C5.7421 21.0008 5.89693 21.139 6.05143 21.2774C6.23053 21.0085 6.40943 20.7399 6.58853 20.4711C6.32786 20.3329 6.05928 20.154 5.77414 19.9993C5.69277 20.1215 5.61971 20.2844 5.52216 20.4309C5.39963 19.6088 5.18763 18.7622 6.00148 18.0699C5.37449 18.0051 5.50473 17.5981 5.56159 17.248C5.78088 15.9128 6.1385 14.6346 6.72405 13.4376C6.79749 13.2747 6.96017 13.1364 7.03324 12.9734C7.10668 12.8105 7.11466 12.6397 7.18786 12.4768C7.55398 11.8742 7.93628 11.2474 8.37568 10.6936C9.22195 9.63493 10.1903 8.65775 11.3297 7.90019C11.8505 7.54168 12.4446 7.23223 12.9738 6.91461C13.0878 6.8493 13.1691 6.72729 13.2748 6.62118C13.2668 6.68654 13.2993 6.74329 13.2911 6.80856C13.6167 6.63747 13.926 6.49081 14.227 6.30335L14.2678 6.29529C14.8538 5.94513 15.3831 6.05062 15.7739 6.6284C16.4407 5.09765 17.5725 5.35782 18.2324 6.32622C18.3382 6.11451 18.4196 5.88662 18.5251 5.67472C18.6634 5.41415 18.9159 5.30017 19.1925 5.30811C19.323 5.32444 19.4694 5.31615 19.6158 5.30809C20.3973 5.29941 20.5359 5.56811 20.6989 6.06479C20.8456 6.58554 20.6015 7.16379 20.1213 7.40807C19.5354 7.75846 18.9002 7.54695 18.3872 6.88781C18.3385 7.17276 18.2571 7.40075 18.127 7.59604C17.9969 7.79148 17.8096 7.91381 17.6713 8.06841C17.9076 8.19029 18.2251 8.29624 18.4369 8.50759C18.6239 8.70295 18.7546 9.03664 18.7708 9.32962C18.828 9.82621 18.4619 10.3228 17.9654 10.4858C17.412 10.6813 16.9315 10.5025 16.4185 9.84338C16.3534 10.3643 16.1093 10.7308 15.6536 10.9916C16.4677 11.2517 16.818 11.6259 16.8508 12.2121C16.8673 12.7168 16.5581 13.181 16.1105 13.3764C15.5408 13.5963 15.0847 13.4335 14.5066 12.7665C14.4418 13.2874 14.2221 13.6702 13.7012 13.9227C14.4502 14.069 14.9306 14.4595 14.8983 15.2492C14.8741 15.7621 14.4999 16.218 13.9952 16.3403C13.4413 16.5367 12.9772 16.3333 12.5292 15.6825ZM10.4543 18.0032C10.6658 17.6858 10.91 17.3192 11.1051 17.0262C10.82 16.8715 10.4861 16.6844 10.1524 16.4974C9.97343 16.7661 9.77815 17.0592 9.61542 17.3035C9.90033 17.5638 10.2019 17.7998 10.4543 18.0032ZM16.3121 9.2092C16.5236 8.89162 16.7677 8.52517 16.963 8.23202C16.6778 8.07735 16.3439 7.89037 16.0103 7.70321C15.8313 7.97194 15.636 8.26509 15.4733 8.50939C15.7582 8.7697 16.0596 9.00577 16.3121 9.2092ZM8.19979 19.4288C8.03706 19.6731 7.84179 19.9662 7.66278 20.235C7.96396 20.4708 8.26527 20.7068 8.51796 20.9102C8.72941 20.5928 8.9735 20.2263 9.16878 19.9332C8.86751 19.803 8.53351 19.6158 8.19979 19.4288ZM12.1051 13.5659C11.9261 13.8347 11.7308 14.1278 11.5681 14.3721C11.8692 14.608 12.1543 14.8684 12.4069 15.0719C12.6184 14.7543 12.8625 14.3879 13.0578 14.0947C12.7727 13.9403 12.4387 13.7531 12.1051 13.5659ZM15.0103 11.1634C14.7252 11.0088 14.3913 10.8217 14.0576 10.6346C13.8786 10.9034 13.6833 11.1965 13.5206 11.4408C13.8218 11.6767 14.1069 11.937 14.3594 12.1406C14.571 11.823 14.8151 11.4565 15.0103 11.1634ZM13.1778 8.9907C13.4058 9.17786 13.6338 9.36502 13.8537 9.51147C14.0328 9.24261 14.1954 8.99845 14.3744 8.72972C14.1137 8.59133 13.8533 8.45313 13.6334 8.30667C13.4708 8.55083 13.3243 8.7707 13.1778 8.9907ZM8.50028 17.5481C8.23948 17.4098 8.00348 17.2879 7.75918 17.1251C7.61272 17.345 7.46636 17.5647 7.31991 17.7846C7.54784 17.9719 7.79213 18.1346 7.99573 18.3055C8.15855 18.0611 8.32128 17.8168 8.50028 17.5481ZM9.73648 14.2099C9.59003 14.4298 9.44357 14.6497 9.29712 14.8696C9.52514 15.0567 9.76944 15.2194 9.9486 15.374C10.1276 15.1053 10.2902 14.8612 10.4693 14.5923C10.2168 14.4946 9.97262 14.332 9.73648 14.2099ZM11.8848 12.467C12.0638 12.1982 12.2427 11.9296 12.4056 11.6852C12.1448 11.547 11.9088 11.425 11.6889 11.2786C11.5424 11.4984 11.396 11.7183 11.2495 11.9382C11.4533 12.1091 11.6811 12.2962 11.8848 12.467ZM11.3791 9.8378C11.5092 9.6425 11.6232 9.47136 11.7533 9.27606C11.5661 9.18667 11.395 9.07267 11.2323 8.99955C11.1346 9.14613 11.0207 9.31714 10.9231 9.46372C11.0778 9.60183 11.2244 9.69946 11.3791 9.8378ZM7.01791 15.3264C7.14808 15.4484 7.30282 15.5867 7.47382 15.7007C7.60391 15.5054 7.71792 15.3342 7.8481 15.1388C7.66096 15.0494 7.47344 14.9599 7.32701 14.8624C7.21328 15.0331 7.11555 15.1799 7.01791 15.3264ZM9.42646 12.7692C9.54037 12.5982 9.67055 12.4028 9.78446 12.2318C9.62175 12.1587 9.47504 12.0609 9.31223 11.988C9.21459 12.1345 9.11705 12.281 9.01941 12.4276C9.14944 12.5494 9.2963 12.6473 9.42646 12.7692ZM15.1498 14.0777C15.5078 13.5402 16.2158 13.3772 16.7534 13.7353C17.2907 14.0932 17.4621 14.842 17.0796 15.3631C16.7216 15.9006 15.9891 16.0473 15.4518 15.6894C14.9387 15.3476 14.7918 14.6151 15.1498 14.0777ZM17.4287 12.7744C16.8913 12.4164 16.7281 11.7083 17.0861 11.1708C17.4441 10.6334 18.193 10.4621 18.7142 10.8445C19.2515 11.2025 19.3739 11.9188 19.0159 12.4563C18.6743 12.9692 17.9579 13.0916 17.4287 12.7744ZM13.1972 17.0091C13.5552 16.4717 14.2878 16.3248 14.8253 16.6828C15.3626 17.0407 15.5094 17.7734 15.1514 18.3108C14.7935 18.8481 14.0772 18.9704 13.5399 18.6125C12.9779 18.2381 12.8555 17.522 13.1972 17.0091ZM20.6586 7.87256C21.1959 8.23046 21.3591 8.93854 21.0011 9.47599C20.6676 10.0296 19.8943 10.1846 19.3569 9.82665C18.8193 9.46856 18.6724 8.73606 19.0304 8.1986C19.3883 7.66129 20.121 7.51446 20.6586 7.87256ZM9.59393 24.4835C9.05634 24.1254 8.90951 23.3928 9.26751 22.8553C9.62542 22.318 10.3826 22.1875 10.9201 22.5455C11.4411 22.9279 11.5635 23.6443 11.2219 24.1571C10.8639 24.6946 10.1312 24.8414 9.59393 24.4835ZM11.5466 21.5521C11.009 21.194 10.8621 20.4615 11.2038 19.9485C11.5618 19.411 12.3107 19.2397 12.832 19.6223C13.3693 19.9802 13.4917 20.6966 13.1337 21.234C12.8164 21.7633 12.0839 21.91 11.5466 21.5521ZM7.27431 25.795C7.63235 25.3634 8.20215 25.1433 8.70697 25.3385C9.21166 25.5336 9.54564 26.0382 9.46444 26.5837C9.38333 27.1291 8.94379 27.5772 8.41458 27.5771C8.26827 27.5853 8.05656 27.4795 7.95068 27.3737C7.68994 27.0239 7.45381 26.6901 7.25018 26.3078C7.20105 26.1694 7.26624 25.966 7.27431 25.795ZM19.1629 13.2946C19.6757 13.6363 19.7983 14.3527 19.4728 14.8413C19.1311 15.3543 18.4146 15.4766 17.9017 15.135C17.4131 14.8095 17.2743 14.1177 17.6162 13.6046C17.9416 13.116 18.6743 12.9692 19.1629 13.2946ZM15.6799 16.5114C16.0215 15.9986 16.7379 15.8762 17.2508 16.2178C17.7474 16.5839 17.87 17.3002 17.5204 17.7725C17.1701 18.2447 16.4783 18.3835 15.9899 18.0581C15.485 17.7571 15.3382 17.0245 15.6799 16.5114ZM19.8788 12.2198C19.3659 11.8782 19.2433 11.1617 19.585 10.6489C19.9267 10.1358 20.6431 10.0134 21.156 10.3551C21.6282 10.7051 21.7671 11.397 21.4416 11.8856C21.1244 12.4148 20.3917 12.5615 19.8788 12.2198ZM15.282 19.1735C15.7948 19.5151 15.9174 20.2316 15.5757 20.7445C15.2341 21.2574 14.4931 21.3636 14.0209 21.0138C13.5487 20.664 13.4099 19.9719 13.7354 19.4833C14.0528 18.9541 14.7853 18.8074 15.282 19.1735ZM21.5213 7.74187C21.8631 7.22884 22.555 7.09018 23.0843 7.40748C23.5972 7.74911 23.736 8.44115 23.3943 8.95417C23.0688 9.44276 22.3767 9.58134 21.8719 9.28031C21.3671 8.97938 21.2041 8.27103 21.5213 7.74187ZM11.7584 22.3986C12.1001 21.8857 12.8164 21.7633 13.305 22.0888C13.8179 22.4304 13.9405 23.1467 13.5988 23.6597C13.2734 24.1483 12.5813 24.2869 12.0521 23.9697C11.5798 23.6198 11.4167 22.9116 11.7584 22.3986ZM11.3768 25.0362C11.8734 25.4023 11.9959 26.1188 11.6463 26.591C11.2798 27.0876 10.5636 27.2101 10.067 26.844C9.59453 26.494 9.47227 25.7778 9.82215 25.3054C10.1882 24.8088 10.9045 24.6866 11.3768 25.0362ZM22.3532 11.6816C21.8646 11.3562 21.7343 10.705 22.0597 10.2164C22.3852 9.72783 23.0607 9.6135 23.5493 9.93896C24.0215 10.289 24.1276 10.9237 23.8021 11.4123C23.493 11.8763 22.8418 12.0071 22.3532 11.6816ZM18.1545 16.0791C18.48 15.5905 19.1311 15.4599 19.6197 15.7854C20.1083 16.1108 20.2631 16.7783 19.8969 17.275C19.5714 17.7638 18.8959 17.8779 18.448 17.5443C17.984 17.2352 17.8453 16.5433 18.1545 16.0791ZM21.5967 12.8704C22.0853 13.1958 22.1994 13.8713 21.8657 14.3193C21.5403 14.8079 20.8648 14.9221 20.3763 14.5966C19.9039 14.2467 19.798 13.6119 20.1234 13.1233C20.4733 12.651 21.1082 12.545 21.5967 12.8704ZM12.2968 24.8731C12.6223 24.3845 13.2734 24.2539 13.7619 24.5794C14.2505 24.9048 14.3891 25.5967 14.0392 26.069C13.7136 26.5578 13.0545 26.6475 12.5903 26.3383C12.1019 26.013 11.9876 25.3373 12.2968 24.8731ZM14.5429 23.4069C14.0544 23.0815 13.9239 22.4304 14.2493 21.9418C14.5748 21.4533 15.2503 21.3389 15.7389 21.6644C16.2275 21.9898 16.3172 22.6491 15.9917 23.1377C15.6825 23.6019 15.0315 23.7324 14.5429 23.4069ZM16.2019 19.0106C16.5274 18.5218 17.1785 18.3912 17.6427 18.7004C18.1313 19.0259 18.2861 19.6933 17.9361 20.1657C17.6107 20.6543 16.9597 20.7848 16.4711 20.4593C16.0315 20.1665 15.9009 19.5154 16.2019 19.0106ZM24.0286 7.26057C24.3785 6.78825 25.0132 6.68221 25.5018 7.00767C25.9904 7.33312 26.1046 8.00856 25.7384 8.50545C25.3885 8.97777 24.7292 9.06767 24.2814 8.73392C23.8337 8.4004 23.7194 7.72473 24.0286 7.26057ZM10.6378 29.2696C10.1492 28.9442 10.035 28.2687 10.3687 27.8207C10.6941 27.3321 11.3696 27.2179 11.8582 27.5434C12.3305 27.8933 12.4365 28.528 12.111 29.0167C11.7774 29.4646 11.1264 29.5951 10.6378 29.2696ZM14.243 27.0867C14.7072 27.3959 14.7891 28.0146 14.4799 28.4787C14.1624 28.9021 13.552 29.0245 13.1041 28.6909C12.6399 28.3817 12.5583 27.763 12.8675 27.2989C13.1847 26.8753 13.8034 26.7939 14.243 27.0867ZM22.0291 15.3449C22.4932 15.6541 22.6156 16.2646 22.3065 16.7286C21.9974 17.1927 21.4029 17.2906 20.9389 16.9815C20.4748 16.6724 20.3525 16.0619 20.6616 15.5979C20.9788 15.1743 21.5893 15.052 22.0291 15.3449ZM16.7644 21.5012C17.0736 21.037 17.684 20.9148 18.1725 21.2402C18.6122 21.5331 18.7346 22.1436 18.4255 22.6077C18.1164 23.0717 17.5059 23.194 17.0174 22.8687C16.5695 22.5351 16.4715 21.9409 16.7644 21.5012ZM24.8522 11.1595C24.388 10.8503 24.2659 10.2398 24.5749 9.77587C24.8842 9.31157 25.4784 9.21378 25.9344 9.48226C26.3985 9.79145 26.5209 10.402 26.2117 10.8661C25.9025 11.3301 25.3082 11.428 24.8522 11.1595ZM18.9944 19.9537C18.5302 19.6445 18.408 19.034 18.7172 18.5699C19.0263 18.1058 19.6206 18.0078 20.0766 18.2764C20.5407 18.5856 20.663 19.1963 20.354 19.6601C20.0447 20.1242 19.4505 20.222 18.9944 19.9537ZM16.1713 24.1389C16.6355 24.4481 16.7577 25.0587 16.4487 25.5226C16.1396 25.9868 15.5452 26.0846 15.0892 25.816C14.6251 25.5068 14.5029 24.8964 14.812 24.4324C15.121 23.9685 15.7072 23.8297 16.1713 24.1389ZM22.6222 12.7071C22.9315 12.2428 23.5419 12.1207 24.0059 12.4298C24.4699 12.7389 24.5682 13.3332 24.2994 13.7891C23.9902 14.2533 23.3797 14.3755 22.9157 14.0664C22.4517 13.7573 22.3131 13.1712 22.6222 12.7071ZM22.9537 6.54456C22.6282 7.0333 22.0503 7.21249 21.5455 7.0173C21.0162 6.80584 20.723 6.29306 20.8042 5.74757C20.8448 5.52798 20.8854 5.41375 21.1705 5.46258C21.6835 5.59264 22.2208 5.63314 22.7337 5.76319C23.1978 5.86071 23.2383 5.95843 23.035 6.42256C23.0025 6.47128 22.97 6.52014 22.9537 6.54456ZM20.7617 22.1184C20.4607 22.5173 19.9072 22.6071 19.4674 22.3142C19.044 21.9968 18.9542 21.4433 19.2717 21.0199C19.589 20.5964 20.1668 20.523 20.5903 20.8403C21.0056 21.117 21.0791 21.695 20.7617 22.1184ZM13.3976 29.8385C13.6904 29.3989 14.2602 29.2847 14.7 29.5776C15.1151 29.8541 15.2293 30.424 14.9528 30.8391C14.6599 31.2789 14.0901 31.3931 13.6503 31.1002C13.2106 30.8072 13.121 30.2538 13.3976 29.8385ZM23.1769 15.1572C23.4698 14.7175 24.0233 14.6278 24.4873 14.9369C24.9026 15.2136 25.0168 15.7834 24.6994 16.2069C24.4066 16.6464 23.8531 16.7362 23.3889 16.427C22.9736 16.1504 22.884 15.5969 23.1769 15.1572ZM25.1132 12.2503C25.406 11.8107 25.9758 11.6965 26.3994 12.0137C26.8145 12.2903 26.9286 12.8603 26.6358 13.2999C26.3429 13.7396 25.7731 13.8538 25.3496 13.5364C24.9262 13.219 24.8365 12.6656 25.1132 12.2503ZM17.5555 25.2374C17.1158 24.9445 17.0017 24.3746 17.3191 23.9513C17.5957 23.536 18.1655 23.4218 18.6053 23.7147C19.0449 24.0076 19.1591 24.5774 18.8417 25.0009C18.5489 25.4404 17.9952 25.5304 17.5555 25.2374ZM15.3664 26.8828C15.6593 26.443 16.2129 26.3533 16.6769 26.6623C17.0922 26.939 17.2064 27.5088 16.8891 27.9323C16.5962 28.372 16.0426 28.4618 15.5784 28.1526C15.1632 27.8758 15.0735 27.3225 15.3664 26.8828ZM27.0658 9.31891C27.3587 8.87917 27.9285 8.76498 28.3683 9.05789C28.7834 9.33443 28.8976 9.90427 28.6211 10.3194C28.3282 10.7592 27.7583 10.8734 27.3186 10.5805C26.8789 10.2875 26.7892 9.73421 27.0658 9.31891ZM21.208 18.113C21.5009 17.6733 22.0707 17.5591 22.5104 17.852C22.95 18.1448 23.0398 18.6984 22.7632 19.1137C22.4704 19.5533 21.9004 19.6676 21.4607 19.3747C21.0455 19.0982 20.9151 18.5526 21.208 18.113ZM22.951 20.3675C23.3662 20.644 23.4479 21.1567 23.1713 21.572C22.911 21.9628 22.3982 22.0446 22.0073 21.7842C21.592 21.5076 21.5104 20.9948 21.787 20.5794C22.0473 20.1885 22.5357 20.0908 22.951 20.3675ZM24.9037 17.436C25.3188 17.7126 25.4005 18.2254 25.1239 18.6406C24.8635 19.0315 24.3507 19.1133 23.9599 18.853C23.5446 18.5763 23.4629 18.0635 23.7396 17.6482C23.9998 17.2572 24.4884 17.1594 24.9037 17.436ZM25.6677 14.7004C25.9443 14.2851 26.4572 14.2035 26.8725 14.4801C27.2469 14.7648 27.3448 15.2532 27.0682 15.6685C26.7916 16.0837 26.2787 16.1654 25.8634 15.8888C25.489 15.6042 25.391 15.1157 25.6677 14.7004ZM21.251 24.4545C20.9744 24.8698 20.4455 24.9758 20.0708 24.6912C19.6799 24.4308 19.5575 23.9262 19.8343 23.5108C20.111 23.0953 20.64 22.9894 21.0146 23.2742C21.3892 23.559 21.4871 24.0475 21.251 24.4545ZM16.1249 30.5618C15.7098 30.2853 15.6281 29.7724 15.9047 29.3571C16.165 28.9663 16.6779 28.8847 17.0686 29.145C17.484 29.4217 17.5656 29.9344 17.289 30.3497C17.0287 30.7406 16.5157 30.8222 16.1249 30.5618ZM28.8089 11.5733C29.224 11.8499 29.3056 12.3627 29.029 12.778C28.7687 13.1688 28.256 13.2505 27.8651 12.9901C27.4498 12.7135 27.3682 12.2006 27.6448 11.7854C27.905 11.3945 28.3936 11.2967 28.8089 11.5733ZM17.841 26.4502C18.1176 26.0351 18.6304 25.9534 19.0457 26.2301C19.4365 26.4904 19.5182 27.0031 19.2578 27.394C18.9812 27.8093 18.4683 27.8909 18.053 27.6142C17.6625 27.3539 17.5806 26.8411 17.841 26.4502ZM27.3129 16.9954C27.6794 17.2395 27.7529 17.7115 27.5087 18.0781C27.2646 18.4446 26.7926 18.5179 26.426 18.2737C26.0595 18.0296 25.9863 17.5578 26.2305 17.1912C26.4583 16.8492 26.9466 16.7514 27.3129 16.9954ZM16.4512 31.8725C16.6952 31.5062 17.159 31.3919 17.5253 31.6359C17.8919 31.8801 18.0061 32.3441 17.7621 32.7104C17.5181 33.0767 17.0538 33.1909 16.6875 32.9469C16.3212 32.7029 16.2071 32.2389 16.4512 31.8725ZM23.4078 22.858C23.7743 23.1021 23.8477 23.5743 23.6035 23.9408C23.3595 24.3071 22.8874 24.3806 22.5208 24.1364C22.1544 23.8923 22.0812 23.4204 22.3253 23.0539C22.5531 22.7119 23.0415 22.614 23.4078 22.858ZM28.4031 15.3588C28.0367 15.1147 27.9226 14.6508 28.1667 14.2843C28.4108 13.9179 28.8747 13.8036 29.241 14.0476C29.6076 14.2918 29.7216 14.756 29.4776 15.1223C29.2336 15.4886 28.7695 15.6029 28.4031 15.3588ZM20.3564 26.0098C20.6004 25.6433 21.0643 25.5291 21.4306 25.7731C21.7972 26.0173 21.9114 26.4813 21.6673 26.8477C21.4232 27.2141 20.9591 27.3281 20.5928 27.0841C20.2102 26.8645 20.1123 26.3762 20.3564 26.0098ZM18.6401 30.0156C18.2736 29.7715 18.1597 29.3075 18.4037 28.9412C18.6477 28.5749 19.1117 28.4605 19.478 28.7045C19.8446 28.9487 19.9586 29.4128 19.7146 29.7791C19.4706 30.1454 18.9821 30.2435 18.6401 30.0156ZM24.2615 20.1471C24.5056 19.7806 24.9939 19.6826 25.3358 19.9104C25.7024 20.1545 25.8003 20.643 25.5724 20.985C25.3284 21.3514 24.84 21.4492 24.498 21.2214C24.1317 20.9774 24.0174 20.5135 24.2615 20.1471ZM12.4784 31.4832C12.4051 31.4344 12.3155 31.41 12.2667 31.3774C11.8025 31.0683 11.3383 30.7591 10.8497 30.4336C11.0286 30.0592 11.3299 29.8719 11.7288 29.8553C12.1278 29.8389 12.4941 30.0829 12.6489 30.4329C12.7874 30.8075 12.7714 31.1495 12.4784 31.4832ZM27.7536 19.5107C28.0712 19.7223 28.1607 20.1701 27.9248 20.4712C27.7133 20.7888 27.2411 20.8623 26.9238 20.6509C26.6223 20.4148 26.557 19.9834 26.7523 19.6902C27.0045 19.3643 27.436 19.2992 27.7536 19.5107ZM28.7455 16.7506C28.9571 16.433 29.3887 16.3678 29.7062 16.5793C30.0238 16.7909 30.0972 17.2628 29.8857 17.5804C29.6498 17.8815 29.2184 17.9471 28.9008 17.7355C28.5993 17.4996 28.5097 17.052 28.7455 16.7506ZM30.8532 14.8041C30.5356 14.5926 30.4459 14.1449 30.6574 13.8274C30.8689 13.5098 31.3167 13.42 31.6343 13.6315C31.9519 13.8431 32.0171 14.2747 31.8056 14.5922C31.6185 14.926 31.1708 15.0157 30.8532 14.8041ZM23.8239 25.3571C24.1414 25.5686 24.2312 26.0164 24.0196 26.3339C23.8081 26.6515 23.3603 26.7413 23.0186 26.5136C22.7009 26.302 22.6519 25.8461 22.8471 25.5529C23.083 25.2515 23.5308 25.1619 23.8239 25.3571ZM18.9662 31.4318C19.1778 31.1142 19.6011 31.0082 19.9187 31.2198C20.2363 31.4313 20.3503 31.8952 20.1387 32.2128C19.9272 32.5304 19.4796 32.6202 19.162 32.4087C18.8444 32.1971 18.7547 31.7494 18.9662 31.4318ZM21.8959 28.3047C22.2135 28.5163 22.303 28.9639 22.0915 29.2815C21.88 29.5991 21.4324 29.6889 21.0903 29.4611C20.7728 29.2495 20.7236 28.7938 20.919 28.5005C21.1304 28.1828 21.5783 28.0932 21.8959 28.3047ZM24.8241 22.6377C25.0355 22.3202 25.4834 22.2306 25.7764 22.4258C26.094 22.6373 26.208 23.1012 25.9723 23.4025C25.7607 23.7201 25.3293 23.7854 25.0117 23.5738C24.7025 23.403 24.6125 22.9553 24.8241 22.6377ZM30.624 11.0189C30.8683 11.3935 31.1045 11.7272 31.3 12.0688C31.3568 12.1419 31.2921 12.3457 31.2187 12.4026C30.9826 12.5982 30.6733 12.6389 30.3882 12.4845C30.1032 12.3299 29.9242 12.0695 29.9647 11.7439C30.0134 11.3529 30.2413 11.1165 30.624 11.0189ZM9.73433 29.5143C9.24551 28.9771 8.76513 28.4808 8.30079 27.96C8.67533 27.7158 9.14739 27.748 9.4977 28.0167C9.90471 28.3581 10.0026 28.8465 9.73433 29.5143ZM27.3394 22.1972C27.5184 21.9285 27.901 21.8307 28.1697 22.0097C28.4386 22.1888 28.5362 22.5712 28.3571 22.84C28.1781 23.1088 27.7956 23.2065 27.5268 23.0275C27.2581 22.8485 27.1605 22.4658 27.3394 22.1972ZM22.3119 30.8038C22.5808 30.9829 22.6783 31.3653 22.4993 31.634C22.3203 31.9028 21.9377 32.0006 21.669 31.8216C21.4003 31.6426 21.3026 31.2601 21.4817 30.9912C21.6606 30.7226 22.0269 30.6492 22.3119 30.8038ZM26.3706 25.8008C26.1872 26.068 25.8217 26.1358 25.5545 25.9524C25.2871 25.7689 25.2195 25.4036 25.403 25.1362C25.5864 24.869 25.9518 24.8011 26.2192 24.9846C26.4863 25.1681 26.5541 25.5335 26.3706 25.8008ZM23.4342 28.0599C23.6132 27.7912 23.9958 27.6934 24.2645 27.8724C24.5334 28.0515 24.631 28.4339 24.4519 28.7027C24.2729 28.9715 23.8904 29.0692 23.6216 28.8902C23.3286 28.695 23.2552 28.3287 23.4342 28.0599ZM29.3083 19.2414C29.4873 18.9727 29.8781 18.9155 30.1467 19.0944C30.4152 19.2733 30.4725 19.6642 30.2935 19.9329C30.1145 20.2016 29.7239 20.2589 29.4552 20.0799C29.1865 19.9009 29.113 19.5345 29.3083 19.2414ZM32.2286 17.0068C32.0452 17.274 31.6796 17.3419 31.4122 17.1584C31.1452 16.9751 31.0773 16.6097 31.2607 16.3422C31.4441 16.075 31.8096 16.0071 32.0769 16.1906C32.3441 16.374 32.4121 16.7395 32.2286 17.0068ZM32.5236 18.7029C32.7434 18.8492 32.8087 19.1749 32.6623 19.3948C32.4996 19.6391 32.1902 19.6797 31.946 19.5171C31.7261 19.3706 31.6854 19.0615 31.8318 18.8416C31.9945 18.5973 32.2793 18.5401 32.5236 18.7029ZM24.7132 30.4284C24.9329 30.5748 24.9983 30.9005 24.8273 31.1039C24.6809 31.3237 24.3308 31.3727 24.1274 31.2019C23.9237 31.0309 23.8667 30.7461 24.0132 30.5263C24.1678 30.3473 24.4933 30.282 24.7132 30.4284ZM27.8224 8.23598C27.1062 8.67574 26.2266 7.98423 26.3812 7.27598C26.8698 7.60144 27.3339 7.91062 27.8224 8.23598ZM26.1044 28.2869C25.8845 28.1405 25.8192 27.8148 25.9657 27.595C26.1122 27.3751 26.4378 27.3098 26.6413 27.4809C26.861 27.6272 26.9019 27.9364 26.7717 28.1319C26.6336 28.3925 26.3241 28.4333 26.1044 28.2869ZM28.057 25.3555C27.8371 25.209 27.7719 24.8834 27.9183 24.6635C28.0648 24.4437 28.3903 24.3786 28.5939 24.5494C28.8136 24.6958 28.8545 25.0051 28.7244 25.2004C28.6025 25.4367 28.3012 25.5181 28.057 25.3555ZM30.0096 22.4242C29.7897 22.2777 29.7244 21.9521 29.8709 21.7323C30.0173 21.5124 30.343 21.4471 30.5465 21.6182C30.7662 21.7645 30.8071 22.0737 30.6769 22.2692C30.555 22.5054 30.2537 22.5868 30.0096 22.4242ZM15.4747 32.8089C14.9943 32.63 14.4978 32.4756 14.0172 32.2966C14.1881 31.9872 14.5218 31.8568 14.8638 31.9788C15.2626 32.0683 15.4907 32.3611 15.4747 32.8089ZM26.5774 30.6474C26.5855 30.4765 26.5284 30.2974 26.5854 30.1589C26.6749 29.9717 26.8784 29.9309 27.0494 30.0448C27.2448 30.175 27.3019 30.3541 27.1634 30.5089C27.0577 30.6147 26.8786 30.6719 26.7404 30.7207C26.675 30.7124 26.6263 30.68 26.5774 30.6474ZM33.0376 21.267C33.0293 21.438 33.0864 21.6169 33.0294 21.7555C32.9156 21.9264 32.7121 21.9671 32.5167 21.837C32.3214 21.7069 32.2806 21.5034 32.4431 21.3649C32.549 21.2589 32.7361 21.2427 32.8909 21.1692C32.9397 21.2018 32.9885 21.2342 33.0376 21.267ZM28.5464 27.7974C28.538 27.5452 28.4485 27.3092 28.5378 27.2278C28.6437 27.1218 28.839 27.1463 29.0018 27.1136C29.0346 27.2765 29.1162 27.4718 29.051 27.5696C29.0348 27.6995 28.807 27.7241 28.5464 27.7974ZM30.3684 24.2149C30.6452 24.2229 30.8568 24.117 30.9381 24.2064C31.0442 24.3123 31.0198 24.5075 31.0523 24.6704C30.8895 24.703 30.6943 24.7846 30.5964 24.7194C30.4828 24.6788 30.4582 24.451 30.3684 24.2149ZM23.5151 5.96647C23.971 6.12902 24.3618 6.28355 24.7934 6.42978C24.2238 6.64991 23.7677 6.48717 23.5151 5.96647Z" fill="url(#paint0_linear)"/>
<defs>
<linearGradient id="paint0_linear" x1="11.1044" y1="30.6033" x2="26.5625" y2="7.39672" gradientUnits="userSpaceOnUse">
<stop stop-color="#339DCC"/>
<stop offset="1" stop-color="#1C3B84"/>
</linearGradient>
</defs>
</svg>
