<svg width="128" height="30" viewBox="0 0 128 30" fill="none" xmlns="http://www.w3.org/2000/svg">
<g opacity="0.5">
<path d="M30.067 12.6772C27.6394 12.6321 25.395 13.7589 23.9751 15.6971C22.3261 17.6803 21.4558 20.1593 21.5016 22.7285C21.41 24.3511 21.9597 25.9738 23.059 27.2358C24.0667 28.4077 25.5782 28.9937 27.1355 28.9486C29.4257 28.9486 31.6243 27.9119 32.9985 26.109C34.739 24.0356 35.7009 21.4664 35.6551 18.7621C35.7467 17.1845 35.2887 15.652 34.3726 14.3449C33.4107 13.218 31.9908 12.6772 30.067 12.6772ZM30.1586 24.7117C29.3799 25.478 28.3264 25.9287 27.2271 25.9287C26.4943 25.9738 25.7614 25.6583 25.3034 25.0723C24.7995 24.3962 24.5705 23.5398 24.6163 22.7285C24.5705 20.9256 25.0744 19.1677 26.1278 17.6803C26.9523 16.4182 28.3722 15.6069 29.9296 15.652C31.6702 15.652 32.5404 16.6887 32.5404 18.7621C32.5404 20.9706 31.6702 23.0891 30.1586 24.7117ZM123.37 20.1593C122.637 19.8889 121.859 20.2495 121.538 20.9706C120.21 24.3061 118.561 25.9287 116.545 25.9287C115.492 25.9287 114.942 25.0272 114.942 23.3144C115.08 21.3763 115.354 19.4832 115.812 17.5901L116.225 15.6069H120.347C121.08 15.6069 121.675 15.1111 121.767 14.435C121.95 13.6237 121.401 12.8575 120.622 12.7222C120.53 12.7222 120.439 12.6772 120.347 12.6772H116.912L117.599 9.34175C117.782 8.53043 117.232 7.71911 116.408 7.53882C116.316 7.53882 116.225 7.49374 116.133 7.49374C115.4 7.49374 114.759 7.98955 114.621 8.66565L113.751 12.587H104.132C101.705 12.587 99.4145 13.7138 97.9946 15.652C96.3456 17.6352 95.4753 20.1142 95.5211 22.6834C95.5211 23.3595 95.6128 24.0356 95.7502 24.7117C95.1089 25.4329 94.1928 25.8836 93.2309 25.8836C92.7271 25.9287 92.2691 25.7484 91.9484 25.3427C91.6736 24.8469 91.5362 24.2159 91.582 23.63C91.6278 21.9172 91.8568 20.2044 92.2691 18.5367L94.7883 7.08808C94.9715 6.27677 94.4677 5.46545 93.6432 5.28515C92.8187 5.10486 91.9942 5.60067 91.811 6.41199L90.3453 13.3983C89.3376 12.8124 88.1467 12.4969 86.9558 12.4969C84.5282 12.4518 82.2379 13.4885 80.6806 15.3365C78.9858 17.3648 78.1156 19.934 78.1614 22.5482C78.1614 23.3595 78.253 24.2159 78.482 25.0272C77.8866 25.523 77.1537 25.7935 76.375 25.8385C75.8712 25.8836 75.3673 25.7033 75.0009 25.2977C74.6803 24.8019 74.497 24.2159 74.5887 23.5849C74.6345 22.4581 74.8177 21.3312 75.0925 20.2044C75.2757 19.348 74.6803 18.5367 73.8558 18.3564C73.81 18.3564 73.7642 18.3564 73.7184 18.3564C72.9397 18.2662 72.2068 18.762 72.0236 19.4832C71.6114 21.1059 70.8785 22.6383 69.9166 23.9905C69.2296 25.0723 68.0387 25.7484 66.7561 25.8385C66.0691 25.8385 65.4736 25.478 65.1072 24.892C64.6491 24.1258 64.4201 23.2694 64.4659 22.3679C64.3743 20.6101 64.924 18.8522 65.9317 17.4099C66.8477 16.1478 68.3135 15.3816 69.8708 15.4266C70.6495 15.4266 71.474 15.6069 72.2068 15.9224C72.6649 16.1478 73.1687 16.1027 73.581 15.8323C74.268 15.4266 74.497 14.5252 74.0848 13.804C73.9016 13.5336 73.6726 13.3082 73.3977 13.218C73.0313 13.0377 72.6191 12.9476 72.2068 12.8575C71.474 12.6321 70.6953 12.5419 69.9624 12.5419C67.5806 12.5419 65.2904 13.5786 63.7789 15.3816C62.8628 16.3732 62.1757 17.5901 61.8093 18.8973C60.2977 23.5849 58.374 25.8385 56.0838 25.8385C55.3967 25.8836 54.7554 25.6132 54.3432 25.0723C53.9768 24.5314 53.7936 23.9004 53.7936 23.2243C53.7936 22.9989 53.7936 22.8186 53.8394 22.5933C55.2135 22.0524 56.4502 21.1509 57.3663 19.979C58.2366 18.8522 58.7404 17.5 58.7404 16.1027C58.7404 13.7138 57.4579 12.5419 54.8013 12.5419C52.9691 12.5419 51.1827 13.2631 49.9002 14.5252L51.5492 7.08808C51.7324 6.27677 51.1827 5.46545 50.3582 5.33023C50.2666 5.33023 50.1292 5.28515 50.0376 5.28515C49.3048 5.28515 48.6635 5.78096 48.5261 6.45706L44.0373 27.0105C43.8541 27.8218 44.4037 28.588 45.1824 28.7683C45.274 28.7683 45.4114 28.8134 45.503 28.8134C46.2359 28.8134 46.8313 28.2725 46.9229 27.5964L48.2971 21.2861C48.5261 20.4298 48.8467 19.6184 49.2589 18.8522C49.7628 17.9507 50.4499 17.1845 51.2743 16.5985C52.0988 15.8774 53.1981 15.4717 54.2974 15.5168C54.8471 15.4266 55.3509 15.8323 55.4425 16.3732C55.4425 16.4633 55.4425 16.5535 55.4425 16.6436C55.3509 17.6352 54.8471 18.5818 53.9768 19.1677C53.1065 19.934 52.0072 20.4748 50.8621 20.6551C50.7705 21.5566 50.7247 22.2327 50.7247 22.5933C50.6331 24.2159 51.1369 25.8385 52.053 27.1907C52.9691 28.3176 54.4348 28.9486 55.9006 28.8585C57.9617 28.8585 59.8855 27.9119 61.168 26.2893L61.7635 25.6132C61.9925 26.1541 62.3131 26.6949 62.6796 27.1457C63.5957 28.2725 65.0614 28.9035 66.5271 28.8585C68.5883 28.8585 70.3289 27.9119 71.7946 25.9287C72.4359 27.9119 73.8558 28.8585 76.2834 28.8585C77.6575 28.8585 78.94 28.3626 79.9935 27.5063C80.9096 28.3626 82.1463 28.8134 83.4288 28.7683C85.49 28.7683 87.2306 27.8218 88.6963 25.8385C89.3376 27.8218 90.7575 28.7683 93.1851 28.7683C94.6967 28.7683 96.2082 28.2274 97.3075 27.1907C98.3152 28.2274 99.7351 28.8134 101.201 28.7683C103.491 28.7683 105.69 27.7316 107.064 25.9287C108.804 23.9004 109.72 21.2861 109.72 18.6268C109.72 17.5451 109.537 16.4633 109.125 15.4717H113.11L112.744 17.1845C112.24 19.1677 111.919 21.1509 111.782 23.1792C111.782 26.8752 113.339 28.7683 116.362 28.7683C119.797 28.7683 122.362 26.4696 124.195 22.0073C124.515 21.3312 124.195 20.5199 123.507 20.2044C123.462 20.2044 123.416 20.1593 123.37 20.1593ZM89.2002 18.3564C88.6505 20.9706 87.826 22.8637 86.8184 24.0807C85.8565 25.2977 84.7114 25.9287 83.5663 25.9287C82.8792 25.9287 82.2838 25.5681 81.9173 24.9822C81.5051 24.2159 81.2761 23.4046 81.2761 22.5031C81.1844 20.7453 81.7341 18.9874 82.7876 17.5451C84.1159 15.5168 86.91 14.9308 88.9712 16.2379C89.1544 16.3732 89.3834 16.5084 89.5208 16.6887L89.2002 18.3564ZM105.965 21.9172C105.506 22.9088 104.911 23.8103 104.224 24.6666C103.445 25.478 102.392 25.9287 101.292 25.9287C100.56 25.9738 99.8267 25.6583 99.3687 25.0723C98.8649 24.3962 98.6358 23.5398 98.6816 22.7285C98.6358 20.9256 99.1397 19.1677 100.147 17.6803C100.972 16.4182 102.438 15.652 103.949 15.652C105.69 15.652 106.56 16.6887 106.56 18.7621C106.56 19.8438 106.331 20.8805 105.965 21.9172ZM43.1212 5.33023C42.3883 5.33023 41.7471 5.82603 41.6097 6.50213L37.1208 27.0555C36.9376 27.8668 37.4873 28.6331 38.266 28.8134C38.3576 28.8134 38.495 28.8585 38.5866 28.8585C39.3194 28.8585 39.9607 28.3626 40.0981 27.6865L44.5869 7.13316C44.7243 6.32184 44.2205 5.51052 43.3502 5.3753C43.3044 5.33023 43.2128 5.33023 43.1212 5.33023ZM11.1041 0.777832C5.01213 0.777832 0.111084 5.60067 0.111084 11.5954C0.111084 12.7673 0.294301 13.9843 0.706538 15.1111C0.981363 15.8774 1.85164 16.283 2.63031 16.0577C3.40898 15.7872 3.82122 14.9308 3.5464 14.1646C3.22577 13.2631 3.08835 12.3617 3.13416 11.4151C3.27157 7.13316 6.8901 3.75267 11.2873 3.84281C15.6845 3.93296 19.074 7.53882 18.9824 11.8658C18.845 15.8774 15.6387 19.1677 11.5621 19.3931C11.5621 19.3931 10.0048 19.4832 9.27192 19.5734C8.99709 19.6184 8.72227 19.6635 8.44744 19.7537C8.40164 19.7987 8.35583 19.7987 8.31003 19.7537C8.26422 19.7086 8.26422 19.6635 8.31003 19.6184L8.53905 18.3564L10.0048 11.9109C10.188 11.0996 9.63835 10.3334 8.85968 10.1531C8.0352 9.97277 7.25653 10.5136 7.07332 11.2799C7.07332 11.2799 3.638 27.0105 3.638 27.1457C3.45479 27.9119 3.91283 28.6782 4.6915 28.9035C4.7373 28.9035 4.7373 28.9035 4.78311 28.9035C5.56178 29.0838 6.34045 28.6331 6.56947 27.8218C6.56947 27.7767 6.56947 27.7767 6.56947 27.7316C6.61527 27.5513 7.07332 25.4329 7.07332 25.4329C7.39395 23.8553 8.67646 22.6383 10.2796 22.413C10.6002 22.3679 12.0202 22.2778 12.0202 22.2778C18.0663 21.7369 22.5093 16.4633 21.9139 10.5587C21.3184 5.10486 16.6922 0.867978 11.1041 0.777832Z" fill="white"/>
<path d="M126.531 25.6582C125.523 25.4779 124.561 26.1089 124.378 27.0555C124.149 28.002 124.79 28.9936 125.752 29.1739H125.798C126.76 29.3993 127.722 28.8133 127.951 27.8668C127.951 27.8217 127.951 27.8217 127.951 27.7766C128.18 26.8301 127.538 25.8836 126.531 25.6582Z" fill="#E11B7B"/>
</g>
</svg>