<svg width="117" height="36" viewBox="0 0 117 36" fill="none" xmlns="http://www.w3.org/2000/svg">
<path d="M18 36C27.9411 36 36 27.9411 36 18C36 8.05888 27.9411 0 18 0C8.05888 0 0 8.05888 0 18C0 27.9411 8.05888 36 18 36Z" fill="#23292F"/>
<path fill-rule="evenodd" clip-rule="evenodd" d="M26.1178 22.917C25.2228 22.8663 24.2202 22.6428 23.11 22.2463C23.0736 22.2229 23.037 22.1998 23.0002 22.177L25.7367 6.56445L29.4737 6.74343L26.1178 22.917ZM25.5606 25.6027L24.7574 29.4735H21.0922L19.4689 24.3408C20.4192 24.4066 21.3283 24.5385 22.1963 24.7364L22.7423 26.4323L22.7737 24.8794C22.8865 24.9096 22.9986 24.941 23.11 24.9735C23.9269 25.3017 24.7437 25.5115 25.5606 25.6027ZM18.3962 20.8882L17.8078 18.7419L17.2339 20.9074C16.3882 20.9619 15.5983 21.106 14.8642 21.3399L16.9351 14.3374H18.8867L21.1047 21.3182C20.2729 21.0607 19.3701 20.9174 18.3962 20.8882ZM16.2166 24.3685L14.682 29.4735H11.1437L10.3783 25.6439C11.3078 25.5927 12.1578 25.3693 12.9282 24.9735C13.0646 24.9337 13.2022 24.8956 13.3408 24.8592L13.4285 26.4323L13.9008 24.7231C14.6428 24.5568 15.4147 24.4386 16.2166 24.3685ZM9.83518 22.927L6.56458 6.56445H9.81409L13.1746 22.0941C13.0916 22.1434 13.0094 22.1941 12.9282 22.2463C11.9747 22.7008 10.9848 22.9281 9.95851 22.9281C9.91757 22.9281 9.87646 22.9277 9.83518 22.927Z" fill="#00F3AB"/>
<path fill-rule="evenodd" clip-rule="evenodd" d="M62.6265 25.7686C62.6265 30.3236 59.4566 32.601 53.1166 32.601C50.8022 32.601 48.7463 32.3364 46.949 31.807L47.5953 28.9078C49.6635 29.6219 51.627 29.9789 53.4859 29.9789C57.6715 29.9789 59.7643 28.7971 59.7643 26.4334C59.7643 25.2393 59.2227 24.2175 58.1393 23.3681C57.413 22.8018 55.985 22.0447 53.8552 21.0968C51.6147 20.0996 50.0451 19.1825 49.1464 18.3453C47.903 17.1881 47.2814 15.7355 47.2814 13.9874C47.2814 12.1654 47.9154 10.682 49.1833 9.53711C50.5991 8.2568 52.5995 7.61665 55.1848 7.61665C58.1147 7.61665 60.1213 7.80747 61.2047 8.1891L60.7615 11.1252C58.8903 10.5343 56.9021 10.2388 54.797 10.2388C51.6331 10.2388 50.0512 11.2975 50.0512 13.4149C50.0512 14.4367 50.5067 15.2923 51.4177 15.9817C52.0086 16.4126 53.3135 17.065 55.3325 17.9391C57.6346 18.9363 59.2965 19.8842 60.3183 20.7828C61.8571 22.137 62.6265 23.7989 62.6265 25.7686ZM77.4167 29.4434L77.1951 31.8439C76.2225 32.2009 75.3054 32.3794 74.4437 32.3794C72.2277 32.3794 70.7135 31.8162 69.901 30.6898C69.0885 29.5634 68.6823 27.5475 68.6823 24.6422C68.6823 22.7587 68.6946 20.3027 68.7192 17.2743C68.0298 17.2743 67.0142 17.3113 65.6723 17.3851L65.7831 14.7076C66.9527 14.7814 67.999 14.8184 68.9223 14.8184C68.9223 14.0797 68.9839 12.3255 69.107 9.55557L72.0062 9.26012C71.7969 11.8454 71.6922 13.6981 71.6922 14.8184C72.8987 14.8184 74.6714 14.7568 77.0104 14.6337L76.8812 17.3851C74.6652 17.3113 72.8864 17.2743 71.5445 17.2743C71.5199 19.1332 71.5076 21.226 71.5076 23.5527C71.5076 26.0887 71.7753 27.766 72.3108 28.5847C72.8464 29.4034 73.8404 29.8127 75.2931 29.8127C75.7732 29.8127 76.4811 29.6896 77.4167 29.4434ZM95.1429 31.9917L92.2437 32.1024C92.096 31.4992 92.0222 30.9268 92.0222 30.3851H91.8375C90.3233 31.7639 88.2613 32.4533 85.6514 32.4533C84.2357 32.4533 83.0169 32.0378 81.9952 31.2069C80.9734 30.3759 80.4625 29.191 80.4625 27.6522C80.4625 25.7563 81.2627 24.2329 82.8631 23.0819C84.4634 21.9308 87.4364 21.3245 91.7821 21.263C91.819 20.9675 91.8375 20.629 91.8375 20.2473C91.8375 18.7331 91.4343 17.7237 90.628 17.2189C89.8216 16.7142 88.5998 16.4618 86.9625 16.4618C85.0297 16.4618 83.1277 16.7019 81.2565 17.182L81.5704 14.6337C83.417 14.1043 85.5406 13.8397 87.9412 13.8397C90.1325 13.8397 91.8252 14.2921 93.0193 15.1969C94.2134 16.1017 94.8105 17.6436 94.8105 19.8226C94.8105 20.4012 94.7828 21.4507 94.7274 22.9711C94.672 24.4914 94.6443 25.504 94.6443 26.0087C94.6443 28.2492 94.8105 30.2435 95.1429 31.9917ZM91.8744 28.4093C91.8129 26.538 91.7821 24.8577 91.7821 23.3681C89.4677 23.3681 87.7073 23.5404 86.5008 23.8851C84.4819 24.5007 83.4724 25.6763 83.4724 27.4121C83.4724 29.0864 84.6542 29.9235 87.0179 29.9235C89.0491 29.9235 90.668 29.4187 91.8744 28.4093ZM116.433 6.80415L115.288 9.57404C112.888 8.35528 110.887 7.74592 109.287 7.74592C108.314 7.74592 107.542 7.86902 106.969 8.11523C106.397 8.36145 105.96 8.76154 105.658 9.31552C105.357 9.8695 105.163 10.5958 105.076 11.4945C104.99 12.3932 104.947 13.5011 104.947 14.8184C109.884 14.8184 113.571 14.5783 116.008 14.0982C115.861 16.6588 115.787 19.8103 115.787 23.5527C115.787 26.5073 115.873 29.3202 116.045 31.9917H112.703C112.875 29.5172 112.961 26.7043 112.961 23.5527C112.961 22.3217 112.934 21.1676 112.878 20.0904C112.823 19.0132 112.746 17.9945 112.648 17.0343C111.33 17.1204 110.035 17.182 108.76 17.2189C107.486 17.2559 106.215 17.2743 104.947 17.2743C104.947 22.8757 105.021 27.7814 105.169 31.9917H101.863C102.036 25.0484 102.122 20.1427 102.122 17.2743C101.371 17.2743 100.06 17.3113 98.1887 17.3851L98.318 14.6706C99.1674 14.7199 99.9091 14.7568 100.543 14.7814C101.177 14.806 101.703 14.8184 102.122 14.8184C102.122 13.1564 102.22 11.7346 102.417 10.5527C102.614 9.37091 102.99 8.40454 103.544 7.65359C104.098 6.90263 104.864 6.35174 105.843 6.00089C106.822 5.65003 107.969 5.47461 109.287 5.47461C111.934 5.47461 114.316 5.91779 116.433 6.80415Z" fill="white"/>
</svg>
