<svg width="117" height="36" viewBox="0 0 117 36" fill="none" xmlns="http://www.w3.org/2000/svg">
<g opacity="0.5">
<path fill-rule="evenodd" clip-rule="evenodd" d="M36 18C36 27.9411 27.9411 36 18 36C8.05888 36 0 27.9411 0 18C0 8.05888 8.05888 0 18 0C27.9411 0 36 8.05888 36 18ZM23.11 22.2462C24.2202 22.6427 25.2228 22.8663 26.1178 22.9169L29.4736 6.74337L25.7367 6.5644L23.0002 22.1769C23.037 22.1997 23.0736 22.2228 23.11 22.2462ZM24.7574 29.4735L25.5605 25.6026C24.7437 25.5114 23.9268 25.3017 23.11 24.9735C22.9986 24.9409 22.8865 24.9096 22.7736 24.8793L22.7423 26.4323L22.1963 24.7363C21.3282 24.5384 20.4191 24.4066 19.4688 24.3408L21.0921 29.4735H24.7574ZM17.8077 18.7418L18.3962 20.8882C19.37 20.9174 20.2728 21.0607 21.1047 21.3181L18.8867 14.3373H16.9351L14.8641 21.3399C15.5982 21.106 16.3881 20.9618 17.2338 20.9074L17.8077 18.7418ZM14.682 29.4735L16.2165 24.3684C15.4147 24.4385 14.6428 24.5567 13.9007 24.723L13.4285 26.4323L13.3407 24.8591C13.2021 24.8955 13.0646 24.9336 12.9282 24.9735C12.1578 25.3692 11.3078 25.5927 10.3782 25.6439L11.1437 29.4735H14.682ZM6.56453 6.5644L9.83513 22.9269C9.87641 22.9277 9.91752 22.928 9.95846 22.928C10.9848 22.928 11.9746 22.7008 12.9282 22.2462C13.0094 22.194 13.0915 22.1433 13.1746 22.0941L9.81404 6.5644H6.56453Z" fill="white"/>
<path fill-rule="evenodd" clip-rule="evenodd" d="M62.6267 25.7691C62.6267 30.3241 59.4567 32.6015 53.1167 32.6015C50.8023 32.6015 48.7465 32.3368 46.9491 31.8075L47.5954 28.9083C49.6636 29.6224 51.6271 29.9794 53.486 29.9794C57.6717 29.9794 59.7644 28.7976 59.7644 26.4339C59.7644 25.2398 59.2228 24.218 58.1394 23.3686C57.4131 22.8023 55.9851 22.0452 53.8553 21.0973C51.6148 20.1001 50.0452 19.183 49.1465 18.3458C47.9032 17.1886 47.2815 15.736 47.2815 13.9879C47.2815 12.1659 47.9155 10.6825 49.1835 9.5376C50.5992 8.25729 52.5997 7.61714 55.1849 7.61714C58.1148 7.61714 60.1214 7.80796 61.2048 8.18959L60.7616 11.1257C58.8904 10.5348 56.9022 10.2393 54.7971 10.2393C51.6333 10.2393 50.0514 11.298 50.0514 13.4154C50.0514 14.4372 50.5069 15.2928 51.4178 15.9822C52.0088 16.4131 53.3137 17.0655 55.3326 17.9396C57.6347 18.9367 59.2966 19.8847 60.3184 20.7833C61.8572 22.1375 62.6267 23.7994 62.6267 25.7691ZM77.4168 29.4438L77.1952 31.8444C76.2227 32.2014 75.3055 32.3799 74.4438 32.3799C72.2279 32.3799 70.7137 31.8167 69.9012 30.6903C69.0887 29.5639 68.6824 27.548 68.6824 24.6427C68.6824 22.7592 68.6947 20.3032 68.7193 17.2748C68.0299 17.2748 67.0143 17.3117 65.6725 17.3856L65.7833 14.7081C66.9528 14.7819 67.9992 14.8188 68.9225 14.8188C68.9225 14.0802 68.984 12.326 69.1071 9.55606L72.0063 9.26061C71.797 11.8458 71.6924 13.6986 71.6924 14.8188C72.8988 14.8188 74.6715 14.7573 77.0105 14.6342L76.8813 17.3856C74.6654 17.3117 72.8865 17.2748 71.5446 17.2748C71.52 19.1337 71.5077 21.2265 71.5077 23.5532C71.5077 26.0892 71.7754 27.7665 72.311 28.5852C72.8465 29.4038 73.8405 29.8132 75.2932 29.8132C75.7733 29.8132 76.4812 29.6901 77.4168 29.4438ZM95.143 31.9921L92.2439 32.1029C92.0961 31.4997 92.0223 30.9273 92.0223 30.3856H91.8376C90.3234 31.7644 88.2614 32.4538 85.6515 32.4538C84.2358 32.4538 83.0171 32.0383 81.9953 31.2073C80.9735 30.3764 80.4626 29.1915 80.4626 27.6527C80.4626 25.7568 81.2628 24.2334 82.8632 23.0823C84.4636 21.9313 87.4365 21.325 91.7822 21.2634C91.8191 20.968 91.8376 20.6295 91.8376 20.2478C91.8376 18.7336 91.4344 17.7242 90.6281 17.2194C89.8217 16.7147 88.5999 16.4623 86.9626 16.4623C85.0298 16.4623 83.1279 16.7024 81.2566 17.1825L81.5706 14.6342C83.4172 14.1048 85.5407 13.8402 87.9413 13.8402C90.1326 13.8402 91.8253 14.2926 93.0194 15.1974C94.2136 16.1022 94.8106 17.6441 94.8106 19.8231C94.8106 20.4017 94.7829 21.4512 94.7275 22.9715C94.6721 24.4919 94.6444 25.5044 94.6444 26.0092C94.6444 28.2497 94.8106 30.244 95.143 31.9921ZM91.8745 28.4098C91.813 26.5385 91.7822 24.8582 91.7822 23.3686C89.4678 23.3686 87.7074 23.5409 86.501 23.8856C84.482 24.5011 83.4725 25.6768 83.4725 27.4126C83.4725 29.0868 84.6544 29.924 87.018 29.924C89.0493 29.924 90.6681 29.4192 91.8745 28.4098ZM116.433 6.80464L115.288 9.57453C112.888 8.35577 110.887 7.7464 109.287 7.7464C108.314 7.7464 107.542 7.86951 106.969 8.11572C106.397 8.36194 105.96 8.76203 105.658 9.31601C105.357 9.86999 105.163 10.5963 105.077 11.495C104.99 12.3937 104.947 13.5016 104.947 14.8188C109.884 14.8188 113.571 14.5788 116.008 14.0987C115.861 16.6593 115.787 19.8108 115.787 23.5532C115.787 26.5078 115.873 29.3207 116.045 31.9921H112.703C112.875 29.5177 112.962 26.7048 112.962 23.5532C112.962 22.3222 112.934 21.168 112.878 20.0909C112.823 19.0137 112.746 17.995 112.648 17.0348C111.33 17.1209 110.035 17.1825 108.761 17.2194C107.486 17.2563 106.215 17.2748 104.947 17.2748C104.947 22.8762 105.021 27.7819 105.169 31.9921H101.864C102.036 25.0489 102.122 20.1432 102.122 17.2748C101.371 17.2748 100.06 17.3117 98.1888 17.3856L98.3181 14.6711C99.1675 14.7204 99.9092 14.7573 100.543 14.7819C101.177 14.8065 101.703 14.8188 102.122 14.8188C102.122 13.1569 102.221 11.735 102.418 10.5532C102.614 9.3714 102.99 8.40502 103.544 7.65407C104.098 6.90312 104.864 6.35223 105.843 6.00138C106.822 5.65052 107.97 5.4751 109.287 5.4751C111.934 5.4751 114.316 5.91828 116.433 6.80464Z" fill="white"/>
</g>
</svg>
