<svg width="102" height="36" viewBox="0 0 102 36" fill="none" xmlns="http://www.w3.org/2000/svg">
<path d="M6.85233 25.9142C7.59392 26.5338 8.08636 27.4007 8.23877 28.355H5.45138C5.3868 27.9886 5.19379 27.6573 4.90697 27.4204C4.59873 27.1881 4.22024 27.0683 3.83447 27.081C3.56109 27.0624 3.28973 27.1394 3.06685 27.2988C2.97878 27.3754 2.90943 27.4712 2.86413 27.5788C2.81883 27.6863 2.79878 27.8029 2.80554 27.9194C2.80712 28.0683 2.85446 28.2131 2.94113 28.3342C3.0278 28.4553 3.14962 28.5468 3.29006 28.5963C3.77572 28.7996 4.28107 28.9523 4.79808 29.0518C5.41832 29.1899 6.02927 29.3669 6.62731 29.5817C7.10787 29.7661 7.53372 30.0696 7.86493 30.4636C8.23354 30.9296 8.41823 31.5146 8.38394 32.1078C8.39149 32.6367 8.2328 33.1546 7.93026 33.5886C7.59781 34.0406 7.1451 34.3902 6.62368 34.5975C5.98042 34.8554 5.29122 34.9789 4.59846 34.9605C3.28462 34.9605 2.23572 34.6701 1.45176 34.0894C1.05413 33.7936 0.720504 33.4204 0.470999 32.9921C0.221495 32.5639 0.0612755 32.0896 0 31.5978H2.87631C2.88724 31.7887 2.94064 31.9748 3.03263 32.1425C3.12461 32.3101 3.25286 32.4551 3.40802 32.5669C3.76099 32.7969 4.17769 32.9093 4.59846 32.8881C4.87555 32.9068 5.14955 32.8206 5.36609 32.6467C5.45243 32.5695 5.52063 32.4741 5.56581 32.3675C5.61098 32.2608 5.63202 32.1455 5.6274 32.0297C5.63324 31.8734 5.58976 31.7192 5.50313 31.5889C5.41651 31.4587 5.29111 31.3589 5.14469 31.3039C4.63912 31.1026 4.11609 30.9483 3.58223 30.8429C2.97896 30.7252 2.38516 30.5632 1.80563 30.3584C1.33655 30.1836 0.919909 29.8919 0.595223 29.5109C0.244074 29.0588 0.0692889 28.4945 0.10344 27.9231C0.0943039 27.5186 0.179593 27.1176 0.352535 26.7519C0.525477 26.3861 0.781307 26.0658 1.09971 25.8162C1.75784 25.2766 2.69302 25.0062 3.90525 25.005C5.11747 25.0038 6.09983 25.3069 6.85233 25.9142Z" fill="white" fill-opacity="0.5"/>
<path d="M19.9351 25.1102V34.8371H16.9408V33.075C16.6661 33.6396 16.2329 34.1119 15.6941 34.4342C15.1124 34.7798 14.4451 34.9546 13.7687 34.9387C12.6545 34.9387 11.7671 34.5667 11.1065 33.8226C10.446 33.0786 10.1175 32.0575 10.1211 30.7594V25.1102H13.0845V30.3928C13.0484 30.9546 13.2333 31.5082 13.5999 31.9353C13.7791 32.1188 13.9952 32.2621 14.2339 32.356C14.4725 32.4498 14.7284 32.492 14.9845 32.4798C15.2502 32.4932 15.5157 32.4485 15.7623 32.3489C16.009 32.2492 16.2309 32.0969 16.4127 31.9027C16.7611 31.5216 16.9408 30.9735 16.9408 30.2694V25.1102H19.9351Z" fill="white" fill-opacity="0.5"/>
<path d="M30.5902 25.591C31.243 26.0134 31.7633 26.6116 32.0909 27.3168C32.4525 28.1578 32.639 29.0636 32.639 29.979C32.639 30.8944 32.4525 31.8002 32.0909 32.6411C31.7652 33.35 31.2447 33.9516 30.5902 34.376C29.9457 34.7793 29.1981 34.9873 28.4379 34.9749C27.7641 34.9949 27.0988 34.8204 26.5216 34.4722C25.9941 34.1422 25.5854 33.6528 25.3547 33.0749V34.8351H22.375V21.9398H25.3547V26.874C25.5886 26.3032 25.997 25.8211 26.5216 25.4966C27.0993 25.1499 27.7645 24.9767 28.4379 24.9976C29.1977 24.9828 29.9454 25.189 30.5902 25.591V25.591ZM25.9391 28.2332C25.5501 28.7261 25.3385 29.3357 25.3385 29.9635C25.3385 30.5914 25.5501 31.201 25.9391 31.6939C26.1401 31.8982 26.3794 32.0608 26.6434 32.1725C26.9074 32.2841 27.1908 32.3425 27.4774 32.3444C27.7641 32.3462 28.0482 32.2915 28.3136 32.1833C28.579 32.0751 28.8205 31.9155 29.0241 31.7138V31.7138C29.4043 31.2123 29.6101 30.6002 29.6101 29.9708C29.6101 29.3414 29.4043 28.7293 29.0241 28.2278C28.8268 28.0189 28.5871 27.8548 28.321 27.7465C28.0549 27.6381 27.7686 27.5882 27.4816 27.5999C27.1943 27.5906 26.9084 27.6423 26.6425 27.7514C26.3767 27.8606 26.1369 28.0248 25.9391 28.2332V28.2332Z" fill="white" fill-opacity="0.5"/>
<path d="M40.79 25.9141C41.531 26.5341 42.0234 27.4009 42.1764 28.3549H39.389C39.3257 27.9881 39.1324 27.6564 38.8446 27.4203C38.5363 27.1882 38.1579 27.0684 37.7721 27.081C37.4987 27.0623 37.2274 27.1393 37.0045 27.2987C36.9161 27.3751 36.8465 27.4708 36.8012 27.5785C36.7559 27.6861 36.736 27.8028 36.7432 27.9194C36.7448 28.0683 36.7921 28.2131 36.8788 28.3342C36.9654 28.4553 37.0873 28.5468 37.2277 28.5963C37.7134 28.7996 38.2187 28.9522 38.7357 29.0518C39.3559 29.1901 39.9668 29.3671 40.5649 29.5816C41.0455 29.7661 41.4714 30.0696 41.8026 30.4636C42.1714 30.9293 42.3556 31.5147 42.3198 32.1077C42.3288 32.6366 42.1707 33.1548 41.8679 33.5885C41.5355 34.0406 41.0827 34.3902 40.5613 34.5975C39.9192 34.8548 39.2313 34.9783 38.5397 34.9604C37.2283 34.9604 36.1788 34.6701 35.3912 34.0894C34.9942 33.793 34.661 33.4196 34.4115 32.9915C34.1621 32.5634 34.0015 32.0893 33.9395 31.5978H36.8158C36.8276 31.7882 36.8814 31.9737 36.9733 32.1409C37.0652 32.3082 37.193 32.453 37.3475 32.565C37.7005 32.7989 38.1185 32.9152 38.5415 32.8971C38.8186 32.9158 39.0926 32.8297 39.3092 32.6558C39.3952 32.5783 39.4632 32.4829 39.5084 32.3763C39.5535 32.2697 39.5747 32.1545 39.5705 32.0388C39.5762 31.8822 39.5324 31.7278 39.4455 31.5976C39.3585 31.4673 39.2327 31.3677 39.086 31.3129C38.5813 31.109 38.0588 30.9523 37.5253 30.8447C36.922 30.7272 36.3282 30.5652 35.7487 30.3602C35.2792 30.1863 34.8623 29.8944 34.5383 29.5127C34.1795 29.0618 33.9992 28.4947 34.032 27.9194C34.0234 27.514 34.1097 27.1122 34.2839 26.7461C34.4582 26.38 34.7155 26.0597 35.0355 25.8107C35.6961 25.2711 36.6313 25.0007 37.8411 24.9995C39.0509 24.9983 40.0338 25.3032 40.79 25.9141Z" fill="white" fill-opacity="0.5"/>
<path d="M49.7132 32.2766V34.8372H48.3721C47.2349 34.8372 46.3475 34.5559 45.7099 33.9933C45.073 33.4289 44.7735 32.4962 44.7735 31.195V27.6219H43.4688V25.1103H44.7735V22.724H47.7551V25.1103H49.7132V27.6219H47.7623V31.2513C47.7481 31.3941 47.7623 31.5384 47.804 31.6757C47.8458 31.8131 47.9142 31.9408 48.0055 32.0516C48.2313 32.2257 48.5148 32.3074 48.7985 32.2802L49.7132 32.2766Z" fill="white" fill-opacity="0.5"/>
<path d="M56.37 25.5296C56.946 25.1844 57.6057 25.0037 58.2772 25.007V28.1973H57.4243C56.6331 28.1973 56.0216 28.3642 55.586 28.7036C55.1505 29.0429 54.9309 29.6109 54.9309 30.4112V34.8373H51.9512V25.1104H54.9309V26.9415C55.2909 26.3627 55.7844 25.8785 56.37 25.5296V25.5296Z" fill="white" fill-opacity="0.5"/>
<path d="M65.1835 25.4967C65.7092 25.8244 66.1221 26.305 66.3667 26.8741V25.1102H69.3301V34.837H66.3667V33.0749C66.1216 33.6437 65.7088 34.1242 65.1835 34.4523C64.6054 34.8 63.9398 34.9751 63.2654 34.9568C62.5043 34.9694 61.756 34.7607 61.1113 34.3561C60.4578 33.9319 59.938 33.3309 59.6124 32.623C59.2496 31.7821 59.0625 30.8758 59.0625 29.96C59.0625 29.0441 59.2496 28.1379 59.6124 27.2969C59.9405 26.5925 60.4599 25.9946 61.1113 25.5711C61.7567 25.1681 62.5046 24.9595 63.2654 24.9704C63.942 24.9581 64.6079 25.1408 65.1835 25.4967V25.4967ZM62.6792 28.2333C62.3019 28.736 62.0979 29.3477 62.0979 29.9763C62.0979 30.6049 62.3019 31.2166 62.6792 31.7193C63.0916 32.1241 63.6473 32.3495 64.2251 32.3464C64.8029 32.3434 65.3562 32.1121 65.7642 31.703C66.1534 31.2084 66.3649 30.5974 66.3649 29.9681C66.3649 29.3388 66.1534 28.7278 65.7642 28.2333C65.3542 27.8259 64.7997 27.5973 64.2217 27.5973C63.6438 27.5973 63.0893 27.8259 62.6792 28.2333V28.2333Z" fill="white" fill-opacity="0.5"/>
<path d="M77.1737 32.2766V34.8372H75.8326C74.693 34.8372 73.805 34.5559 73.1686 33.9933C72.5323 33.4308 72.2147 32.498 72.2159 31.195V27.6219H70.9238V25.1103H72.2304V22.724H75.2138V25.1103H77.1646V27.6219H75.2156V31.2513C75.2011 31.394 75.215 31.5382 75.2564 31.6755C75.2978 31.8129 75.366 31.9407 75.457 32.0516C75.6824 32.2249 75.965 32.3066 76.2482 32.2802L77.1737 32.2766Z" fill="white" fill-opacity="0.5"/>
<path d="M88.169 30.5143H81.4255C81.4582 31.2493 81.6451 31.7737 81.9808 32.0931C82.3308 32.4174 82.7943 32.5908 83.2711 32.5758C83.6641 32.5905 84.0509 32.4744 84.3708 32.2456C84.6561 32.0319 84.8588 31.726 84.9443 31.38H88.091C87.9705 32.0533 87.6836 32.6859 87.2562 33.2201C86.8187 33.7655 86.2593 34.2006 85.623 34.4904C84.8693 34.8159 84.0535 34.9721 83.2329 34.948C82.4123 34.9238 81.607 34.7199 80.8739 34.3506C80.147 33.9521 79.5514 33.3514 79.159 32.6212C78.7236 31.8028 78.5072 30.8857 78.5311 29.959C78.5073 29.0329 78.7203 28.1159 79.1499 27.2951C79.5463 26.5626 80.1488 25.9625 80.883 25.5693C81.6729 25.1786 82.5423 24.9753 83.4235 24.9753C84.3048 24.9753 85.1742 25.1786 85.9641 25.5693C86.6772 25.949 87.2653 26.5269 87.6572 27.2334C88.0673 27.9897 88.2743 28.8394 88.2579 29.6995C88.2558 29.9734 88.226 30.2464 88.169 30.5143V30.5143ZM84.721 27.8231C84.3613 27.4982 83.89 27.3246 83.4054 27.3386C82.9062 27.3183 82.4184 27.4919 82.0444 27.8231C81.6608 28.2002 81.4416 28.7135 81.4346 29.2513H85.2364C85.2528 28.627 85.0822 28.1425 84.7229 27.8231H84.721Z" fill="white" fill-opacity="0.5"/>
<path d="M101.614 33.0964V36H90.8223V33.0964H101.614Z" fill="white" fill-opacity="0.5"/>
<path d="M8.84943 4.83092C9.50906 5.25697 10.034 5.8618 10.3629 6.57485C10.7292 7.42064 10.9182 8.33255 10.9182 9.25426C10.9182 10.176 10.7292 11.0879 10.3629 11.9337C10.0357 12.6498 9.51058 13.2574 8.84943 13.6849C8.19759 14.0938 7.44118 14.3049 6.67179 14.2928C5.9909 14.3112 5.31898 14.1343 4.73549 13.7829C4.20612 13.454 3.79349 12.9671 3.55593 12.391V14.1694H0.550781V1.14343H3.55956V6.1248C3.79776 5.54953 4.21029 5.06338 4.73912 4.73474C5.32224 4.38247 5.99442 4.20544 6.67541 4.22481C7.44341 4.21271 8.19848 4.42322 8.84943 4.83092V4.83092ZM4.15842 7.50761C3.75434 7.93588 3.55231 8.51961 3.55231 9.2588C3.55231 9.99799 3.75434 10.5787 4.15842 11.0009C4.57012 11.4148 5.12883 11.649 5.7126 11.6524C6.29637 11.6558 6.85778 11.4281 7.27427 11.0191C7.66745 10.5956 7.86405 10.0089 7.86405 9.2588C7.86405 8.50872 7.66745 7.92197 7.27427 7.49854C7.07514 7.28774 6.83311 7.12213 6.5645 7.01287C6.2959 6.90361 6.00698 6.85325 5.71725 6.8652C5.42672 6.85556 5.13746 6.90787 4.86869 7.01863C4.59993 7.12939 4.3578 7.29607 4.15842 7.50761V7.50761Z" fill="white" fill-opacity="0.5"/>
<path d="M22.4316 4.34814V14.1693H19.4028V12.3909C19.1264 12.9615 18.6893 13.439 18.1453 13.7647C17.5573 14.1134 16.8833 14.2901 16.1999 14.2746C15.0724 14.2746 14.1777 13.8995 13.5159 13.1495C12.8542 12.3994 12.5227 11.3662 12.5215 10.05V4.34814H15.5139V9.68157C15.5139 10.3494 15.6869 10.8684 16.0329 11.2386C16.2128 11.4259 16.4308 11.5723 16.6722 11.6681C16.9136 11.7639 17.1727 11.8068 17.4321 11.7939C17.7018 11.8086 17.9714 11.7643 18.2221 11.664C18.4729 11.5637 18.6987 11.4098 18.8838 11.2132C19.2359 10.8248 19.4119 10.2732 19.4119 9.55817V4.34814H22.4316Z" fill="white" fill-opacity="0.5"/>
<path d="M25.1955 0.448266C25.5677 0.157777 26.0263 0 26.4985 0C26.9706 0 27.4292 0.157777 27.8014 0.448266C27.9622 0.59052 28.0899 0.766267 28.1755 0.963154C28.2611 1.16004 28.3025 1.37329 28.2969 1.5879C28.3008 1.79891 28.2587 2.00823 28.1734 2.20129C28.0882 2.39436 27.9618 2.56651 27.8033 2.70576C27.4311 2.99625 26.9724 3.15403 26.5003 3.15403C26.0282 3.15403 25.5696 2.99625 25.1973 2.70576C25.0388 2.56651 24.9124 2.39436 24.8272 2.20129C24.742 2.00823 24.6998 1.79891 24.7037 1.5879C24.6975 1.37355 24.7383 1.16044 24.8233 0.963553C24.9082 0.766665 25.0353 0.590781 25.1955 0.448266V0.448266ZM27.9956 4.34807V14.1693H24.985V4.34807H27.9956Z" fill="white" fill-opacity="0.5"/>
<path d="M33.5067 1.14343V14.1694H30.4961V1.14343H33.5067Z" fill="white" fill-opacity="0.5"/>
<path d="M41.6176 11.5812V14.169H40.2621C39.1139 14.169 38.2193 13.8847 37.5781 13.3161C36.9369 12.7474 36.6175 11.8056 36.6199 10.4906V6.88111H35.2988V4.34052H36.6199V1.93604H39.6287V4.34778H41.6013V6.88836H39.6287V10.5504C39.6287 10.937 39.7086 11.2074 39.8664 11.3598C40.0243 11.5122 40.2929 11.5885 40.6685 11.5885L41.6176 11.5812Z" fill="white" fill-opacity="0.5"/>
<path d="M54.3903 4.83063C55.1509 5.2279 55.7809 5.83587 56.2051 6.58182C56.6378 7.40735 56.8638 8.32553 56.8638 9.2576C56.8638 10.1897 56.6378 11.1079 56.2051 11.9334C55.7815 12.6798 55.1513 13.2879 54.3903 13.6846C53.5754 14.0846 52.6796 14.2926 51.7717 14.2926C50.8639 14.2926 49.9681 14.0846 49.1531 13.6846C48.3911 13.2893 47.7605 12.6809 47.3384 11.9334C46.9045 11.1082 46.6777 10.1899 46.6777 9.2576C46.6777 8.3253 46.9045 7.40698 47.3384 6.58182C47.761 5.83472 48.3914 5.22637 49.1531 4.83063C49.9684 4.43181 50.8641 4.22449 51.7717 4.22449C52.6794 4.22449 53.575 4.43181 54.3903 4.83063V4.83063ZM50.3236 7.45469C49.9304 7.87086 49.7338 8.47213 49.7338 9.25851C49.7338 10.0449 49.9304 10.6431 50.3236 11.0533C50.5082 11.2529 50.7331 11.4111 50.9833 11.5174C51.2336 11.6238 51.5035 11.6759 51.7754 11.6703C52.0459 11.6763 52.3147 11.6244 52.5635 11.518C52.8123 11.4115 53.0355 11.2531 53.218 11.0533C53.6064 10.6431 53.8006 10.0449 53.8006 9.25851C53.8006 8.47213 53.6064 7.87086 53.218 7.45469C53.0368 7.25264 52.8141 7.09211 52.5651 6.98406C52.3161 6.876 52.0467 6.82298 51.7754 6.82862C51.5027 6.82346 51.2321 6.87666 50.9818 6.98464C50.7314 7.09262 50.507 7.25288 50.3236 7.45469V7.45469Z" fill="white" fill-opacity="0.5"/>
<path d="M67.7145 5.36782C68.3787 6.11911 68.7101 7.15167 68.7089 8.46552V14.1691H65.7002V8.81757C65.7002 8.16065 65.5187 7.64709 65.1812 7.2787C65.0035 7.09298 64.7883 6.94736 64.5498 6.85159C64.3113 6.75582 64.0551 6.71211 63.7983 6.7234C63.5289 6.71048 63.2598 6.75565 63.0093 6.85584C62.7588 6.95603 62.5328 7.10891 62.3466 7.30411C61.9836 7.69246 61.8022 8.24413 61.8022 8.95912V14.1691H58.7988V4.34795H61.8094V6.1427C62.0822 5.56535 62.5198 5.08167 63.067 4.75264C63.6609 4.40197 64.3411 4.22469 65.0305 4.24089C66.1581 4.24089 67.0527 4.61653 67.7145 5.36782Z" fill="white" fill-opacity="0.5"/>
</svg>