<svg width="102" height="36" viewBox="0 0 102 36" fill="none" xmlns="http://www.w3.org/2000/svg">
<path d="M6.85233 25.9143C7.59392 26.5339 8.08636 27.4008 8.23877 28.3551H5.45138C5.3868 27.9887 5.19379 27.6574 4.90697 27.4205C4.59873 27.1882 4.22024 27.0684 3.83447 27.0812C3.56109 27.0625 3.28973 27.1395 3.06685 27.2989C2.97878 27.3755 2.90943 27.4713 2.86413 27.5789C2.81883 27.6865 2.79878 27.803 2.80554 27.9195C2.80712 28.0684 2.85446 28.2133 2.94113 28.3343C3.0278 28.4554 3.14962 28.5469 3.29006 28.5964C3.77572 28.7998 4.28107 28.9524 4.79808 29.0519C5.41832 29.1901 6.02927 29.367 6.62731 29.5818C7.10787 29.7663 7.53372 30.0697 7.86493 30.4638C8.23354 30.9297 8.41823 31.5148 8.38394 32.1079C8.39149 32.6368 8.2328 33.1548 7.93026 33.5887C7.59781 34.0407 7.1451 34.3903 6.62368 34.5977C5.98042 34.8555 5.29122 34.979 4.59846 34.9606C3.28462 34.9606 2.23572 34.6703 1.45176 34.0895C1.05413 33.7937 0.720504 33.4205 0.470999 32.9923C0.221495 32.564 0.0612755 32.0898 0 31.598H2.87631C2.88724 31.7889 2.94064 31.9749 3.03263 32.1426C3.12461 32.3102 3.25286 32.4552 3.40802 32.567C3.76099 32.797 4.17769 32.9095 4.59846 32.8882C4.87555 32.9069 5.14955 32.8207 5.36609 32.6469C5.45243 32.5696 5.52063 32.4743 5.56581 32.3676C5.61098 32.2609 5.63202 32.1456 5.6274 32.0299C5.63324 31.8735 5.58976 31.7193 5.50313 31.589C5.41651 31.4588 5.29111 31.3591 5.14469 31.304C4.63912 31.1027 4.11609 30.9484 3.58223 30.843C2.97896 30.7253 2.38516 30.5633 1.80563 30.3585C1.33655 30.1837 0.919909 29.892 0.595223 29.511C0.244074 29.0589 0.0692889 28.4946 0.10344 27.9232C0.0943039 27.5187 0.179593 27.1177 0.352535 26.752C0.525477 26.3862 0.781307 26.0659 1.09971 25.8163C1.75784 25.2767 2.69302 25.0063 3.90525 25.0051C5.11747 25.0039 6.09983 25.307 6.85233 25.9143Z" fill="white"/>
<path d="M19.9351 25.1101V34.8369H16.9408V33.0749C16.6661 33.6395 16.2329 34.1118 15.6941 34.4341C15.1124 34.7796 14.4451 34.9545 13.7687 34.9386C12.6545 34.9386 11.7671 34.5665 11.1065 33.8225C10.446 33.0785 10.1175 32.0574 10.1211 30.7593V25.1101H13.0845V30.3927C13.0484 30.9545 13.2333 31.5081 13.5999 31.9352C13.7791 32.1186 13.9952 32.262 14.2339 32.3558C14.4725 32.4497 14.7284 32.4919 14.9845 32.4796C15.2502 32.4931 15.5157 32.4484 15.7623 32.3488C16.009 32.2491 16.2309 32.0968 16.4127 31.9026C16.7611 31.5215 16.9408 30.9734 16.9408 30.2693V25.1101H19.9351Z" fill="white"/>
<path d="M30.5902 25.5911C31.243 26.0135 31.7633 26.6117 32.0909 27.3169C32.4525 28.1579 32.639 29.0637 32.639 29.9791C32.639 30.8945 32.4525 31.8003 32.0909 32.6413C31.7652 33.3501 31.2447 33.9517 30.5902 34.3761C29.9457 34.7794 29.1981 34.9874 28.4379 34.975C27.7641 34.995 27.0988 34.8205 26.5216 34.4723C25.9941 34.1423 25.5854 33.6529 25.3547 33.075V34.8352H22.375V21.9399H25.3547V26.8741C25.5886 26.3033 25.997 25.8212 26.5216 25.4968C27.0993 25.15 27.7645 24.9768 28.4379 24.9977C29.1977 24.9829 29.9454 25.1891 30.5902 25.5911V25.5911ZM25.9391 28.2333C25.5501 28.7262 25.3385 29.3358 25.3385 29.9637C25.3385 30.5916 25.5501 31.2011 25.9391 31.694C26.1401 31.8983 26.3794 32.061 26.6434 32.1726C26.9074 32.2842 27.1908 32.3426 27.4774 32.3445C27.7641 32.3463 28.0482 32.2916 28.3136 32.1834C28.579 32.0752 28.8205 31.9157 29.0241 31.714V31.714C29.4043 31.2124 29.6101 30.6003 29.6101 29.9709C29.6101 29.3416 29.4043 28.7294 29.0241 28.2279C28.8268 28.019 28.5871 27.8549 28.321 27.7466C28.0549 27.6383 27.7686 27.5883 27.4816 27.6C27.1943 27.5907 26.9084 27.6424 26.6425 27.7515C26.3767 27.8607 26.1369 28.0249 25.9391 28.2333V28.2333Z" fill="white"/>
<path d="M40.79 25.9141C41.531 26.5341 42.0234 27.4009 42.1764 28.3549H39.389C39.3257 27.9881 39.1324 27.6564 38.8446 27.4203C38.5363 27.1882 38.1579 27.0684 37.7721 27.081C37.4987 27.0623 37.2274 27.1393 37.0045 27.2987C36.9161 27.3751 36.8465 27.4708 36.8012 27.5785C36.7559 27.6861 36.736 27.8028 36.7432 27.9194C36.7448 28.0683 36.7921 28.2131 36.8788 28.3342C36.9654 28.4553 37.0873 28.5468 37.2277 28.5963C37.7134 28.7996 38.2187 28.9522 38.7357 29.0518C39.3559 29.1901 39.9668 29.3671 40.5649 29.5816C41.0455 29.7661 41.4714 30.0696 41.8026 30.4636C42.1714 30.9293 42.3556 31.5147 42.3198 32.1077C42.3288 32.6366 42.1707 33.1548 41.8679 33.5885C41.5355 34.0406 41.0827 34.3902 40.5613 34.5975C39.9192 34.8548 39.2313 34.9783 38.5397 34.9604C37.2283 34.9604 36.1788 34.6701 35.3912 34.0894C34.9942 33.793 34.661 33.4196 34.4115 32.9915C34.1621 32.5634 34.0015 32.0893 33.9395 31.5978H36.8158C36.8276 31.7882 36.8814 31.9737 36.9733 32.1409C37.0652 32.3082 37.193 32.453 37.3475 32.565C37.7005 32.7989 38.1185 32.9152 38.5415 32.8971C38.8186 32.9158 39.0926 32.8297 39.3092 32.6558C39.3952 32.5783 39.4632 32.4829 39.5084 32.3763C39.5535 32.2697 39.5747 32.1545 39.5705 32.0388C39.5762 31.8822 39.5324 31.7278 39.4455 31.5976C39.3585 31.4673 39.2327 31.3677 39.086 31.3129C38.5813 31.109 38.0588 30.9523 37.5253 30.8447C36.922 30.7272 36.3282 30.5652 35.7487 30.3602C35.2792 30.1863 34.8623 29.8944 34.5383 29.5127C34.1795 29.0618 33.9992 28.4947 34.032 27.9194C34.0234 27.514 34.1097 27.1122 34.2839 26.7461C34.4582 26.38 34.7155 26.0597 35.0355 25.8107C35.6961 25.2711 36.6313 25.0007 37.8411 24.9995C39.0509 24.9983 40.0338 25.3032 40.79 25.9141Z" fill="white"/>
<path d="M49.7132 32.2765V34.837H48.3721C47.2349 34.837 46.3475 34.5558 45.7099 33.9932C45.073 33.4288 44.7735 32.4961 44.7735 31.1949V27.6218H43.4688V25.1102H44.7735V22.7239H47.7551V25.1102H49.7132V27.6218H47.7623V31.2512C47.7481 31.394 47.7623 31.5383 47.804 31.6756C47.8458 31.8129 47.9142 31.9407 48.0055 32.0515C48.2313 32.2255 48.5148 32.3073 48.7985 32.2801L49.7132 32.2765Z" fill="white"/>
<path d="M56.37 25.5295C56.946 25.1843 57.6057 25.0035 58.2772 25.0069V28.1971H57.4243C56.6331 28.1971 56.0216 28.3641 55.586 28.7034C55.1505 29.0428 54.9309 29.6108 54.9309 30.4111V34.8371H51.9512V25.1103H54.9309V26.9414C55.2909 26.3625 55.7844 25.8784 56.37 25.5295V25.5295Z" fill="white"/>
<path d="M65.1835 25.4968C65.7092 25.8245 66.1221 26.3051 66.3667 26.8742V25.1103H69.3301V34.8371H66.3667V33.075C66.1216 33.6438 65.7088 34.1243 65.1835 34.4524C64.6054 34.8001 63.9398 34.9752 63.2654 34.9569C62.5043 34.9695 61.756 34.7609 61.1113 34.3562C60.4578 33.932 59.938 33.331 59.6124 32.6232C59.2496 31.7822 59.0625 30.876 59.0625 29.9601C59.0625 29.0442 59.2496 28.138 59.6124 27.297C59.9405 26.5927 60.4599 25.9947 61.1113 25.5712C61.7567 25.1682 62.5046 24.9597 63.2654 24.9706C63.942 24.9583 64.6079 25.141 65.1835 25.4968V25.4968ZM62.6792 28.2334C62.3019 28.7361 62.0979 29.3478 62.0979 29.9764C62.0979 30.605 62.3019 31.2167 62.6792 31.7194C63.0916 32.1242 63.6473 32.3496 64.2251 32.3465C64.8029 32.3435 65.3562 32.1122 65.7642 31.7031C66.1534 31.2086 66.3649 30.5975 66.3649 29.9683C66.3649 29.339 66.1534 28.7279 65.7642 28.2334C65.3542 27.826 64.7997 27.5974 64.2217 27.5974C63.6438 27.5974 63.0893 27.826 62.6792 28.2334V28.2334Z" fill="white"/>
<path d="M77.1737 32.2765V34.837H75.8326C74.693 34.837 73.805 34.5558 73.1686 33.9932C72.5323 33.4306 72.2147 32.4979 72.2159 31.1949V27.6218H70.9238V25.1102H72.2304V22.7239H75.2138V25.1102H77.1646V27.6218H75.2156V31.2512C75.2011 31.3939 75.215 31.5381 75.2564 31.6754C75.2978 31.8127 75.366 31.9405 75.457 32.0515C75.6824 32.2248 75.965 32.3065 76.2482 32.2801L77.1737 32.2765Z" fill="white"/>
<path d="M88.169 30.5143H81.4255C81.4582 31.2493 81.6451 31.7737 81.9808 32.0931C82.3308 32.4174 82.7943 32.5908 83.2711 32.5758C83.6641 32.5905 84.0509 32.4744 84.3708 32.2456C84.6561 32.0319 84.8588 31.726 84.9443 31.38H88.091C87.9705 32.0533 87.6836 32.6859 87.2562 33.2201C86.8187 33.7655 86.2593 34.2006 85.623 34.4904C84.8693 34.8159 84.0535 34.9721 83.2329 34.948C82.4123 34.9238 81.607 34.7199 80.8739 34.3506C80.147 33.9521 79.5514 33.3514 79.159 32.6212C78.7236 31.8028 78.5072 30.8857 78.5311 29.959C78.5073 29.0329 78.7203 28.1159 79.1499 27.2951C79.5463 26.5626 80.1488 25.9625 80.883 25.5693C81.6729 25.1786 82.5423 24.9753 83.4235 24.9753C84.3048 24.9753 85.1742 25.1786 85.9641 25.5693C86.6772 25.949 87.2653 26.5269 87.6572 27.2334C88.0673 27.9897 88.2743 28.8394 88.2579 29.6995C88.2558 29.9734 88.226 30.2464 88.169 30.5143V30.5143ZM84.721 27.8231C84.3613 27.4982 83.89 27.3246 83.4054 27.3386C82.9062 27.3183 82.4184 27.4919 82.0444 27.8231C81.6608 28.2002 81.4416 28.7135 81.4346 29.2513H85.2364C85.2528 28.627 85.0822 28.1425 84.7229 27.8231H84.721Z" fill="white"/>
<path d="M101.614 33.0964V36H90.8223V33.0964H101.614Z" fill="#18FFB2"/>
<path d="M8.84943 4.83079C9.50906 5.25685 10.034 5.86168 10.3629 6.57473C10.7292 7.42051 10.9182 8.33243 10.9182 9.25414C10.9182 10.1758 10.7292 11.0878 10.3629 11.9336C10.0357 12.6497 9.51058 13.2573 8.84943 13.6847C8.19759 14.0937 7.44118 14.3048 6.67179 14.2927C5.9909 14.3111 5.31898 14.1342 4.73549 13.7827C4.20612 13.4539 3.79349 12.967 3.55593 12.3909V14.1693H0.550781V1.14331H3.55956V6.12468C3.79776 5.54941 4.21029 5.06326 4.73912 4.73462C5.32224 4.38234 5.99442 4.20532 6.67541 4.22468C7.44341 4.21259 8.19848 4.4231 8.84943 4.83079V4.83079ZM4.15842 7.50749C3.75434 7.93576 3.55231 8.51949 3.55231 9.25868C3.55231 9.99787 3.75434 10.5786 4.15842 11.0008C4.57012 11.4147 5.12883 11.6489 5.7126 11.6523C6.29637 11.6557 6.85778 11.428 7.27427 11.0189C7.66745 10.5955 7.86405 10.0088 7.86405 9.25868C7.86405 8.5086 7.66745 7.92185 7.27427 7.49841C7.07514 7.28762 6.83311 7.12201 6.5645 7.01275C6.2959 6.90349 6.00698 6.85313 5.71725 6.86508C5.42672 6.85544 5.13746 6.90774 4.86869 7.0185C4.59993 7.12926 4.3578 7.29595 4.15842 7.50749V7.50749Z" fill="#18FFB2"/>
<path d="M22.4316 4.34814V14.1693H19.4028V12.3909C19.1264 12.9615 18.6893 13.439 18.1453 13.7647C17.5573 14.1134 16.8833 14.2901 16.1999 14.2746C15.0724 14.2746 14.1777 13.8995 13.5159 13.1495C12.8542 12.3994 12.5227 11.3662 12.5215 10.05V4.34814H15.5139V9.68157C15.5139 10.3494 15.6869 10.8684 16.0329 11.2386C16.2128 11.4259 16.4308 11.5723 16.6722 11.6681C16.9136 11.7639 17.1727 11.8068 17.4321 11.7939C17.7018 11.8086 17.9714 11.7643 18.2221 11.664C18.4729 11.5637 18.6987 11.4098 18.8838 11.2132C19.2359 10.8248 19.4119 10.2732 19.4119 9.55817V4.34814H22.4316Z" fill="#18FFB2"/>
<path d="M25.1955 0.448266C25.5677 0.157777 26.0263 0 26.4985 0C26.9706 0 27.4292 0.157777 27.8014 0.448266C27.9622 0.59052 28.0899 0.766267 28.1755 0.963154C28.2611 1.16004 28.3025 1.37329 28.2969 1.5879C28.3008 1.79891 28.2587 2.00823 28.1734 2.20129C28.0882 2.39436 27.9618 2.56651 27.8033 2.70576C27.4311 2.99625 26.9724 3.15403 26.5003 3.15403C26.0282 3.15403 25.5696 2.99625 25.1973 2.70576C25.0388 2.56651 24.9124 2.39436 24.8272 2.20129C24.742 2.00823 24.6998 1.79891 24.7037 1.5879C24.6975 1.37355 24.7383 1.16044 24.8233 0.963553C24.9082 0.766665 25.0353 0.590781 25.1955 0.448266V0.448266ZM27.9956 4.34807V14.1693H24.985V4.34807H27.9956Z" fill="#18FFB2"/>
<path d="M33.5067 1.14331V14.1693H30.4961V1.14331H33.5067Z" fill="#18FFB2"/>
<path d="M41.6176 11.5812V14.169H40.2621C39.1139 14.169 38.2193 13.8847 37.5781 13.3161C36.9369 12.7474 36.6175 11.8056 36.6199 10.4906V6.88111H35.2988V4.34052H36.6199V1.93604H39.6287V4.34778H41.6013V6.88836H39.6287V10.5504C39.6287 10.937 39.7086 11.2074 39.8664 11.3598C40.0243 11.5122 40.2929 11.5885 40.6685 11.5885L41.6176 11.5812Z" fill="#18FFB2"/>
<path d="M54.3903 4.83075C55.1509 5.22802 55.7809 5.83599 56.2051 6.58194C56.6378 7.40748 56.8638 8.32565 56.8638 9.25773C56.8638 10.1898 56.6378 11.108 56.2051 11.9335C55.7815 12.6799 55.1513 13.288 54.3903 13.6847C53.5754 14.0847 52.6796 14.2927 51.7717 14.2927C50.8639 14.2927 49.9681 14.0847 49.1531 13.6847C48.3911 13.2895 47.7605 12.681 47.3384 11.9335C46.9045 11.1083 46.6777 10.19 46.6777 9.25773C46.6777 8.32542 46.9045 7.4071 47.3384 6.58194C47.761 5.83484 48.3914 5.2265 49.1531 4.83075C49.9684 4.43193 50.8641 4.22461 51.7717 4.22461C52.6794 4.22461 53.575 4.43193 54.3903 4.83075V4.83075ZM50.3236 7.45481C49.9304 7.87098 49.7338 8.47226 49.7338 9.25863C49.7338 10.045 49.9304 10.6433 50.3236 11.0534C50.5082 11.253 50.7331 11.4112 50.9833 11.5175C51.2336 11.6239 51.5035 11.676 51.7754 11.6704C52.0459 11.6764 52.3147 11.6245 52.5635 11.5181C52.8123 11.4117 53.0355 11.2532 53.218 11.0534C53.6064 10.6433 53.8006 10.045 53.8006 9.25863C53.8006 8.47226 53.6064 7.87098 53.218 7.45481C53.0368 7.25276 52.8141 7.09223 52.5651 6.98418C52.3161 6.87613 52.0467 6.82311 51.7754 6.82874C51.5027 6.82358 51.2321 6.87678 50.9818 6.98476C50.7314 7.09274 50.507 7.253 50.3236 7.45481V7.45481Z" fill="#18FFB2"/>
<path d="M67.7145 5.36794C68.3787 6.11923 68.7101 7.1518 68.7089 8.46564V14.1693H65.7002V8.8177C65.7002 8.16077 65.5187 7.64721 65.1812 7.27882C65.0035 7.0931 64.7883 6.94748 64.5498 6.85171C64.3113 6.75595 64.0551 6.71224 63.7983 6.72352C63.5289 6.7106 63.2598 6.75577 63.0093 6.85596C62.7588 6.95615 62.5328 7.10903 62.3466 7.30423C61.9836 7.69258 61.8022 8.24425 61.8022 8.95924V14.1693H58.7988V4.34808H61.8094V6.14282C62.0822 5.56547 62.5198 5.08179 63.067 4.75276C63.6609 4.40209 64.3411 4.22481 65.0305 4.24101C66.1581 4.24101 67.0527 4.61665 67.7145 5.36794Z" fill="#18FFB2"/>
</svg>
