<svg width="104" height="45" viewBox="0 0 104 45" fill="none" xmlns="http://www.w3.org/2000/svg">
<g opacity="0.5">
<path d="M0 0L20.7636 8.82224C21.288 9.04388 21.6231 9.55743 21.6231 10.125V15.3146C21.6231 15.866 21.3042 16.3633 20.8069 16.5958L13.5145 20.0014L20.8069 23.4016C21.3042 23.6341 21.6231 24.1368 21.6231 24.6828V34.197C21.6231 34.7646 21.2826 35.2782 20.7636 35.4998L0 44.3274V32.4347L17.8391 25.3585C18.4878 25.0991 18.4986 24.1855 17.8553 23.9152L10.617 20.8393L0 25.418V17.8229L17.9742 10.2818C18.4932 10.0656 18.4932 9.32498 17.9688 9.10875L0 1.69201V0Z" fill="white"/>
<path d="M39.2892 17.3312L41.0406 11.7308C41.1109 11.5253 41.1866 11.374 41.2785 11.2875C41.365 11.201 41.4785 11.1523 41.6191 11.1523C41.7596 11.1523 41.8731 11.1956 41.9596 11.2875C42.0461 11.374 42.1272 11.5253 42.1975 11.7308L43.9922 17.3203L45.7437 11.7037C45.8518 11.3361 46.0518 11.1577 46.3383 11.1577C46.5383 11.1577 46.6681 11.1956 46.7383 11.2767C46.8086 11.3578 46.8465 11.4497 46.8573 11.5578C46.8681 11.6659 46.8356 11.8335 46.7708 12.0551C46.7005 12.2767 46.6356 12.4714 46.5762 12.6389L44.6355 18.5096C44.5544 18.715 44.4679 18.8718 44.3706 18.9745C44.2733 19.0772 44.1382 19.1313 43.9706 19.1313C43.7652 19.1313 43.6084 19.0664 43.5057 18.9367C43.403 18.8069 43.3273 18.6448 43.2786 18.4447L41.6353 13.066L40.1379 17.915C40.0298 18.261 39.9217 18.5475 39.8189 18.7799C39.7162 19.0124 39.5432 19.1259 39.3054 19.1259C39.1594 19.1259 39.0297 19.0826 38.9216 18.9907C38.8135 18.8988 38.7216 18.7367 38.6405 18.5042L36.6998 12.6335C36.6511 12.466 36.5917 12.2767 36.5214 12.0605C36.4511 11.8497 36.4241 11.6875 36.4349 11.5794C36.4457 11.4605 36.489 11.3578 36.5592 11.2767C36.6349 11.1956 36.7701 11.1523 36.9647 11.1523C37.2404 11.1523 37.4296 11.3253 37.5269 11.6713L39.2892 17.3312Z" fill="white"/>
<path d="M51.0306 19.2712C50.4576 19.2712 49.9602 19.1631 49.5332 18.9469C49.1061 18.7307 48.7547 18.4333 48.4736 18.0657C48.1925 17.6927 47.9817 17.2657 47.8412 16.7684C47.7006 16.2764 47.6357 15.7521 47.6357 15.1953C47.6357 14.6439 47.706 14.1141 47.852 13.6114C47.9925 13.1086 48.2088 12.6654 48.4899 12.2761C48.771 11.8923 49.1223 11.5842 49.5494 11.3572C49.9764 11.1301 50.4684 11.0166 51.0306 11.0166C51.5657 11.0166 52.0252 11.1139 52.409 11.3139C52.7929 11.5139 53.1064 11.7734 53.3497 12.0978C53.5929 12.4221 53.7713 12.8005 53.8902 13.233C54.0092 13.6654 54.0686 14.1141 54.0686 14.5898C54.0686 14.9574 54.02 15.2169 53.9281 15.3683C53.8362 15.5196 53.6578 15.5953 53.4037 15.5953H48.7818C48.771 15.9142 48.8142 16.2278 48.9169 16.5413C49.0142 16.8603 49.1602 17.1468 49.3548 17.4008C49.5494 17.6603 49.7872 17.8657 50.0737 18.0333C50.3603 18.1955 50.69 18.2766 51.0684 18.2766C51.5549 18.2766 51.9604 18.2117 52.2901 18.0766C52.6199 17.9414 52.9118 17.736 53.155 17.4441C53.2524 17.336 53.3497 17.2711 53.4361 17.2441C53.5226 17.217 53.6037 17.217 53.674 17.2387C53.7443 17.2603 53.7983 17.2927 53.847 17.3522C53.8902 17.4062 53.9227 17.4603 53.9443 17.509C54.0146 17.6279 53.9984 17.7846 53.9065 17.9847C53.8146 18.1847 53.6416 18.3793 53.3875 18.5685C53.1334 18.7631 52.8145 18.9253 52.4145 19.0658C52.009 19.201 51.5495 19.2712 51.0306 19.2712ZM52.9821 14.7196C52.9821 14.406 52.955 14.0871 52.901 13.7627C52.8469 13.4438 52.7442 13.1519 52.5983 12.887C52.4523 12.6275 52.2469 12.4113 51.982 12.2491C51.7225 12.0869 51.3874 12.0059 50.9819 12.0059C50.5495 12.0059 50.1873 12.0978 49.9062 12.287C49.6251 12.4762 49.398 12.7032 49.2304 12.9735C49.0629 13.2438 48.9439 13.5411 48.8737 13.8546C48.8034 14.1736 48.771 14.4601 48.771 14.7142H52.9821V14.7196Z" fill="white"/>
<path d="M56.6903 18.5308C56.6903 18.6876 56.647 18.8281 56.5551 18.9471C56.4686 19.066 56.3119 19.12 56.0956 19.1092C55.8794 19.1092 55.728 19.0498 55.6415 18.9363C55.5551 18.8227 55.5172 18.6876 55.5172 18.5308V8.61661C55.5172 8.45984 55.5605 8.31929 55.6524 8.20036C55.7388 8.08144 55.8848 8.02197 56.0848 8.02197C56.2848 8.02197 56.4254 8.08144 56.5227 8.20036C56.6146 8.31929 56.6632 8.45984 56.6632 8.61661V12.8277C56.8687 12.325 57.1822 11.9033 57.6038 11.5682C58.0255 11.233 58.5282 11.06 59.1229 11.0492C59.5499 11.0492 59.9554 11.1249 60.3554 11.2763C60.75 11.4276 61.096 11.6763 61.3987 12.0114C61.7014 12.3466 61.9393 12.7791 62.1177 13.298C62.2961 13.8224 62.3826 14.4495 62.3826 15.1792C62.3826 15.7847 62.3015 16.3307 62.1447 16.8226C61.9879 17.3145 61.7663 17.7416 61.4852 18.0875C61.2041 18.4389 60.8635 18.7092 60.4689 18.9038C60.0743 19.0984 59.6418 19.1903 59.1769 19.1903C58.5823 19.1903 58.0796 19.0498 57.6633 18.7741C57.2471 18.4984 56.9227 18.1038 56.6849 17.5902V18.5308H56.6903ZM61.2095 15.1792C61.2095 14.7035 61.1609 14.2765 61.069 13.8981C60.9771 13.5197 60.8311 13.1899 60.6311 12.9142C60.4311 12.6385 60.1878 12.4277 59.8905 12.2817C59.5932 12.1412 59.2472 12.0655 58.8526 12.0655C58.4958 12.0655 58.1823 12.1466 57.912 12.3088C57.6417 12.4709 57.4092 12.698 57.2254 12.9845C57.0362 13.271 56.8957 13.6061 56.793 13.9846C56.6957 14.363 56.647 14.7684 56.647 15.1955C56.647 15.6225 56.6903 16.0171 56.7822 16.3793C56.8687 16.7469 57.0038 17.0659 57.1822 17.3361C57.3606 17.6064 57.5822 17.8227 57.8579 17.974C58.1282 18.1254 58.4526 18.2011 58.831 18.2011C59.5824 18.2011 60.1662 17.9362 60.5824 17.401C60.9879 16.8712 61.1987 16.1307 61.2095 15.1792Z" fill="white"/>
<path d="M68.1182 13.6389C68.3939 13.6768 68.675 13.7578 68.9615 13.8768C69.2481 13.9957 69.5075 14.1579 69.7454 14.3579C69.9832 14.5579 70.1778 14.812 70.3238 15.1039C70.4698 15.4012 70.5454 15.7418 70.5454 16.1256C70.5454 16.5905 70.4644 17.0067 70.3076 17.3689C70.1508 17.7365 69.9292 18.05 69.6481 18.3095C69.367 18.569 69.0318 18.769 68.6426 18.9096C68.2534 19.0501 67.8209 19.115 67.3452 19.115C66.7992 19.115 66.3397 19.0285 65.9505 18.8555C65.5667 18.6825 65.2532 18.4663 65.0099 18.2014C64.7667 17.9419 64.5883 17.6554 64.4747 17.3473C64.3612 17.0392 64.3018 16.7581 64.3018 16.504C64.3126 16.3364 64.3666 16.1904 64.4639 16.0661C64.5612 15.9418 64.6964 15.8823 64.864 15.8823C64.9829 15.8823 65.1072 15.9256 65.237 16.0175C65.3667 16.1094 65.437 16.2553 65.4586 16.4607C65.4694 16.6608 65.5127 16.85 65.5991 17.0392C65.6802 17.2284 65.8046 17.4013 65.9613 17.5581C66.1181 17.7149 66.3181 17.8446 66.5614 17.9365C66.8046 18.0284 67.0911 18.0771 67.4263 18.0771C67.7236 18.0771 67.9939 18.0284 68.2318 17.9365C68.475 17.8446 68.6804 17.7095 68.8534 17.5419C69.0264 17.3743 69.1616 17.1743 69.2535 16.9419C69.3454 16.7094 69.394 16.4607 69.394 16.1959C69.394 15.8607 69.3291 15.5688 69.194 15.3201C69.0589 15.0715 68.8805 14.8714 68.6588 14.7147C68.4372 14.5579 68.1831 14.439 67.902 14.3687C67.6209 14.293 67.329 14.2552 67.0209 14.2552C66.8749 14.2552 66.7398 14.2227 66.6208 14.1525C66.5019 14.0822 66.4208 13.9795 66.383 13.8389C66.3343 13.7308 66.3343 13.5957 66.383 13.4389C66.4425 13.2227 66.6371 13.1146 66.9614 13.1146C67.2155 13.1146 67.4641 13.0605 67.6966 12.9524C67.929 12.8443 68.1291 12.7037 68.302 12.5307C68.475 12.3577 68.6156 12.1577 68.7183 11.9307C68.821 11.7036 68.8751 11.4712 68.8751 11.2333C68.8751 10.709 68.7183 10.309 68.3993 10.0333C68.0804 9.75756 67.702 9.61702 67.2587 9.61702C66.7938 9.61702 66.4154 9.76297 66.1235 10.0549C65.8316 10.3468 65.6856 10.7414 65.6856 11.2333C65.6856 11.4334 65.637 11.5847 65.5451 11.6982C65.4532 11.8118 65.3072 11.8712 65.1072 11.8712C64.9613 11.8712 64.8369 11.8118 64.745 11.6874C64.6531 11.5631 64.6045 11.4009 64.6045 11.1901C64.6045 10.7847 64.6748 10.4225 64.8099 10.1089C64.9505 9.79 65.1397 9.53052 65.3883 9.31429C65.637 9.10346 65.9181 8.94129 66.2424 8.82777C66.5614 8.71425 66.9128 8.65479 67.2858 8.65479C67.6425 8.65479 67.9831 8.70344 68.3074 8.80074C68.6318 8.89805 68.9183 9.04941 69.167 9.24402C69.4156 9.44403 69.6102 9.6927 69.7616 10.0008C69.9076 10.309 69.9832 10.6711 69.9832 11.0982C69.9832 11.4442 69.9238 11.7523 69.8103 12.0172C69.6967 12.2821 69.5508 12.5199 69.367 12.7307C69.1832 12.9362 68.9832 13.1146 68.7615 13.2659C68.5507 13.4173 68.3345 13.5416 68.1182 13.6389Z" fill="white"/>
<path d="M37.9701 26.1423L37.9809 25.6558C37.9809 25.245 38.0512 24.8882 38.1863 24.5909C38.3269 24.2936 38.5107 24.0449 38.7486 23.8503C38.9864 23.6557 39.2621 23.5097 39.5756 23.4232C39.8892 23.3313 40.3973 23.2881 40.7487 23.2881V24.2773C40.4243 24.2773 40.1541 24.3206 39.9432 24.4125C39.727 24.5044 39.5594 24.6233 39.4297 24.7693C39.2999 24.9152 39.208 25.0828 39.1594 25.272C39.1053 25.4558 39.0783 25.6396 39.0783 25.8234L39.0675 26.1532H40.3919C40.5919 26.1532 40.7325 26.191 40.819 26.2613C40.9055 26.3315 40.9487 26.4667 40.9487 26.6667C40.9487 26.8559 40.9055 26.9856 40.8136 27.0451C40.7217 27.1046 40.5811 27.137 40.3919 27.137H39.0675V33.2131C39.0675 33.3753 39.0242 33.4996 38.9378 33.5915C38.8513 33.6834 38.7107 33.7267 38.5107 33.7267C38.1485 33.7267 37.9701 33.5537 37.9701 33.2131V27.1262H37.1106C36.9484 27.1262 36.8241 27.0992 36.7322 27.0505C36.6403 26.9965 36.597 26.8613 36.597 26.6451C36.597 26.4451 36.6457 26.3099 36.7484 26.245C36.8457 26.1802 36.9863 26.1477 37.1538 26.1477H37.9701V26.1423Z" fill="white"/>
<path d="M45.0085 26.1528C45.6194 26.1528 46.1437 26.2609 46.5816 26.4826C47.0195 26.7042 47.3817 26.9961 47.6682 27.3691C47.9547 27.7421 48.1655 28.1692 48.2952 28.6557C48.4304 29.1422 48.4953 29.6558 48.4953 30.2018C48.4953 30.7423 48.425 31.2559 48.2898 31.737C48.1493 32.2181 47.9385 32.6398 47.652 33.002C47.3655 33.3641 47.0033 33.6507 46.5654 33.8615C46.1275 34.0723 45.6086 34.175 45.0085 34.175C44.4085 34.175 43.8895 34.0669 43.4517 33.8507C43.0138 33.6344 42.6516 33.3479 42.3705 32.9803C42.0894 32.6127 41.884 32.1911 41.7488 31.71C41.6137 31.2289 41.5488 30.7153 41.5488 30.1747C41.5488 29.6342 41.6137 29.1152 41.7434 28.6287C41.8732 28.1422 42.0786 27.7151 42.3597 27.3475C42.6408 26.9799 42.9976 26.688 43.43 26.4772C43.8625 26.2609 44.3869 26.1528 45.0085 26.1528ZM45.0085 33.2182C45.3869 33.2182 45.7275 33.1479 46.0248 33.002C46.3221 32.856 46.5654 32.656 46.7708 32.3965C46.9708 32.1316 47.1222 31.8181 47.2303 31.4451C47.333 31.0721 47.3871 30.6613 47.3871 30.218C47.3871 29.7585 47.3384 29.3422 47.2465 28.9692C47.1492 28.5908 47.0033 28.2665 46.8033 27.9962C46.6032 27.7259 46.3546 27.5151 46.0518 27.3691C45.7491 27.2232 45.3977 27.1475 44.9869 27.1475C44.5761 27.1475 44.2247 27.2232 43.9274 27.3745C43.6301 27.5259 43.3922 27.7421 43.203 28.0124C43.0192 28.2827 42.8786 28.6071 42.7976 28.9801C42.7111 29.3531 42.6678 29.7585 42.6678 30.1964C42.6678 30.645 42.7165 31.0559 42.8192 31.4235C42.9219 31.7965 43.0679 32.1154 43.2625 32.3803C43.4571 32.6452 43.7003 32.856 43.9922 33.002C44.2787 33.1425 44.6193 33.2182 45.0085 33.2182Z" fill="white"/>
<path d="M51.0685 30.8996C51.0685 31.6727 51.2144 32.2241 51.5117 32.5646C51.8091 32.9052 52.2415 33.0728 52.8145 33.0728C53.0524 33.0728 53.2956 33.0349 53.5497 32.9538C53.8038 32.8728 54.0308 32.7484 54.2308 32.5754C54.4309 32.4024 54.593 32.1862 54.7228 31.9267C54.8525 31.6619 54.9174 31.3483 54.9174 30.9753V26.8129C54.9174 26.4723 55.0958 26.2993 55.4634 26.2993C55.6255 26.2993 55.7553 26.348 55.858 26.4399C55.9607 26.5372 56.0093 26.6615 56.0093 26.8129V33.4728C56.0093 33.6458 55.9553 33.7701 55.8526 33.8566C55.7499 33.9431 55.6147 33.9863 55.4526 33.9863C55.1012 33.9863 54.9228 33.8134 54.9228 33.4728V32.6295C54.8363 32.8025 54.7228 32.9701 54.5714 33.1376C54.4255 33.3052 54.2471 33.4566 54.0416 33.5971C53.8362 33.7377 53.6092 33.8458 53.3605 33.9323C53.1118 34.0188 52.847 34.062 52.5605 34.062C52.2091 34.062 51.8739 34.008 51.5658 33.8998C51.2577 33.7917 50.982 33.6187 50.7495 33.3917C50.5171 33.1647 50.3279 32.8782 50.1927 32.543C50.0522 32.2024 49.9873 31.8078 49.9873 31.3483V26.8129C49.9873 26.4723 50.1657 26.2993 50.5171 26.2993C50.8901 26.2993 51.0739 26.4723 51.0739 26.8129V30.8996H51.0685Z" fill="white"/>
<path d="M62.8206 29.2566C62.8206 28.4836 62.6747 27.943 62.3773 27.6295C62.08 27.3159 61.6476 27.1592 61.0745 27.1592C60.8259 27.1592 60.5772 27.197 60.334 27.2673C60.0853 27.3376 59.8636 27.4565 59.6636 27.6187C59.4636 27.7808 59.3014 27.9917 59.1717 28.2457C59.042 28.5052 58.9771 28.8188 58.9771 29.1918V33.4785C58.9771 33.8191 58.7933 33.9921 58.4311 33.9921C58.2689 33.9921 58.1392 33.9434 58.0365 33.8515C57.9338 33.7542 57.8851 33.6299 57.8851 33.4785V26.8132C57.8851 26.6402 57.9338 26.5105 58.0365 26.4294C58.1338 26.3429 58.2743 26.2997 58.4419 26.2997C58.7933 26.2997 58.9717 26.4726 58.9717 26.8132V27.6133C59.0582 27.4403 59.1717 27.2727 59.3231 27.0997C59.469 26.9267 59.6474 26.7754 59.8474 26.6348C60.0474 26.4943 60.2691 26.3862 60.5177 26.2997C60.7664 26.2132 61.0313 26.1699 61.3178 26.1699C61.6908 26.1699 62.0314 26.224 62.3449 26.3267C62.6584 26.4294 62.9287 26.5916 63.1612 26.8078C63.3882 27.024 63.572 27.2943 63.7018 27.6295C63.8369 27.9646 63.9018 28.3593 63.9018 28.8134V33.4731C63.9018 33.8137 63.718 33.9867 63.3558 33.9867C62.9936 33.9867 62.8098 33.8137 62.8098 33.4731V29.2566H62.8206Z" fill="white"/>
<path d="M70.5723 32.5154C70.3831 32.9425 70.0858 33.3101 69.6858 33.6074C69.2857 33.9047 68.783 34.0561 68.183 34.0561C67.7235 34.0561 67.3072 33.9642 66.9342 33.775C66.5558 33.5912 66.2315 33.3263 65.9558 32.9857C65.6801 32.6452 65.4639 32.2397 65.3125 31.764C65.1611 31.2883 65.0854 30.7585 65.0854 30.1747C65.0854 29.472 65.1773 28.8665 65.3557 28.3584C65.5341 27.8556 65.7774 27.4394 66.0693 27.115C66.3666 26.7907 66.7072 26.5528 67.091 26.4069C67.4748 26.2609 67.8802 26.1852 68.2965 26.1852C68.8479 26.196 69.329 26.3636 69.7344 26.6988C70.1399 27.0339 70.4264 27.434 70.5994 27.8989V23.8391C70.5994 23.6878 70.6426 23.5526 70.7345 23.4391C70.8264 23.3256 70.9669 23.2661 71.1561 23.2661C71.3454 23.2661 71.4859 23.3256 71.5724 23.4391C71.6589 23.5526 71.7021 23.6878 71.7021 23.8391V33.402C71.7021 33.5533 71.6589 33.6831 71.5832 33.7966C71.5021 33.9047 71.3562 33.9588 71.1453 33.9588C70.9345 33.9588 70.7885 33.9047 70.7021 33.7966C70.6156 33.6885 70.5723 33.5533 70.5723 33.402V32.5154V32.5154ZM66.2261 30.1855C66.2261 31.0991 66.4261 31.8181 66.8261 32.3316C67.2261 32.8452 67.7883 33.1046 68.5127 33.1046C68.8641 33.1046 69.1722 33.029 69.4371 32.883C69.702 32.737 69.9182 32.5316 70.0858 32.2667C70.2588 32.0019 70.3885 31.6991 70.4696 31.3424C70.5561 30.991 70.5994 30.6072 70.5994 30.1963C70.5994 29.7855 70.5507 29.3963 70.4534 29.0287C70.3561 28.6611 70.2209 28.3421 70.0371 28.0719C69.8588 27.8016 69.6371 27.5853 69.3722 27.4232C69.1074 27.261 68.81 27.1799 68.4803 27.1799C68.0911 27.1799 67.7559 27.2502 67.4748 27.3853C67.1937 27.5259 66.9613 27.7259 66.7721 27.9908C66.5883 28.2557 66.4477 28.5746 66.3558 28.9422C66.2693 29.3152 66.2261 29.726 66.2261 30.1855Z" fill="white"/>
<path d="M82.8651 27.1419V31.8287C82.8651 32.0558 82.8976 32.2612 82.957 32.445C83.0165 32.6234 83.1246 32.7693 83.2706 32.8721C83.4165 32.9748 83.6382 33.0288 83.9193 33.0288C84.1409 33.0288 84.3301 32.9964 84.4923 32.9261C84.6545 32.8612 84.8112 32.791 84.9626 32.7261V33.6721C84.7788 33.7694 84.6544 33.8451 84.4112 33.8992C84.1679 33.9586 83.9301 33.9856 83.6868 33.9856C83.4003 33.9856 83.1408 33.9532 82.9084 33.8938C82.6759 33.8343 82.4705 33.7262 82.3029 33.5694C82.13 33.418 82.0002 33.218 81.9029 32.9694C81.8056 32.7207 81.7624 32.418 81.7624 32.0558V27.1365H81.1191C80.8974 27.1365 80.7623 27.0933 80.7028 27.0014C80.6434 26.9095 80.6163 26.7797 80.6163 26.6068C80.6163 26.3851 80.665 26.2446 80.7677 26.1851C80.8704 26.1256 81.0055 26.0932 81.1731 26.0932H81.757V25.2661C81.757 24.9796 81.784 24.758 81.838 24.5958C81.8921 24.4336 82.0543 24.3525 82.33 24.3525C82.5678 24.3525 82.7138 24.3958 82.7732 24.4877C82.8327 24.5796 82.8597 24.7255 82.8597 24.9256V26.0986H84.049C84.3517 26.0986 84.5734 26.1256 84.7139 26.1851C84.8545 26.2446 84.9247 26.3797 84.9356 26.6013C84.9356 26.823 84.8599 26.9689 84.7139 27.0392C84.568 27.1095 84.3355 27.1473 84.022 27.1473H82.8651V27.1419Z" fill="white"/>
<path d="M85.8221 24.2991C85.8221 24.0991 85.8924 23.9261 86.0276 23.7856C86.1681 23.6396 86.3411 23.5693 86.5519 23.5693C86.7519 23.5693 86.9195 23.6396 87.0601 23.7856C87.2006 23.9261 87.2655 24.0991 87.2655 24.2991C87.2655 24.4991 87.1952 24.6721 87.0601 24.8127C86.9195 24.9532 86.7519 25.0289 86.5519 25.0289C86.3411 25.0289 86.1681 24.9586 86.0276 24.8127C85.8924 24.6667 85.8221 24.4991 85.8221 24.2991ZM87.0979 33.2024C87.0979 33.5809 86.9195 33.7755 86.5573 33.7755C86.1843 33.7755 86.0005 33.5863 86.0005 33.2024V26.6831C86.0005 26.4614 86.0546 26.3101 86.1573 26.2182C86.26 26.1263 86.3952 26.083 86.5573 26.083C86.7195 26.083 86.8492 26.1263 86.952 26.2128C87.0493 26.2993 87.1033 26.456 87.1033 26.6831V33.2024H87.0979Z" fill="white"/>
<path d="M92.1848 25.9209C92.7957 25.9209 93.32 26.029 93.7579 26.2507C94.1958 26.4723 94.5579 26.7642 94.8444 27.1372C95.1309 27.5102 95.3418 27.9373 95.4715 28.4238C95.6067 28.9103 95.6715 29.4238 95.6715 29.9698C95.6715 30.5104 95.6013 31.024 95.4661 31.5051C95.3256 31.9862 95.1147 32.4078 94.8282 32.77C94.5417 33.1322 94.1795 33.4187 93.7417 33.6295C93.3038 33.8404 92.7848 33.9431 92.1848 33.9431C91.5848 33.9431 91.0658 33.835 90.6279 33.6187C90.1901 33.4025 89.8279 33.116 89.5468 32.7484C89.2657 32.3808 89.0603 31.9592 88.9251 31.478C88.79 30.9969 88.7251 30.4834 88.7251 29.9428C88.7251 29.4022 88.79 28.8833 88.9197 28.3967C89.0494 27.9102 89.2549 27.4832 89.536 27.1156C89.8171 26.748 90.1738 26.4561 90.6063 26.2452C91.0388 26.0236 91.5685 25.9209 92.1848 25.9209ZM92.1848 32.9809C92.5632 32.9809 92.9038 32.9106 93.2011 32.7646C93.4984 32.6187 93.7417 32.4187 93.9471 32.1592C94.1471 31.8943 94.2985 31.5808 94.4066 31.2078C94.5093 30.8348 94.5633 30.4239 94.5633 29.9806C94.5633 29.5212 94.5147 29.1049 94.4228 28.7319C94.3255 28.3535 94.1795 28.0292 93.9795 27.7589C93.7795 27.4886 93.5308 27.2777 93.2281 27.1318C92.9254 26.9858 92.574 26.9102 92.1632 26.9102C91.7523 26.9102 91.401 26.9858 91.1036 27.1372C90.8063 27.2886 90.5685 27.5048 90.3793 27.7751C90.1955 28.0454 90.0549 28.3697 89.9738 28.7427C89.8873 29.1157 89.8441 29.5212 89.8441 29.959C89.8441 30.4077 89.8927 30.8185 89.9955 31.1861C90.0982 31.5591 90.2441 31.8781 90.4387 32.143C90.6333 32.4078 90.8766 32.6187 91.1685 32.7646C91.455 32.9052 91.7956 32.9809 92.1848 32.9809Z" fill="white"/>
<path d="M102.164 29.1048C102.164 28.3317 102.018 27.7912 101.721 27.4776C101.423 27.1641 100.991 27.0073 100.418 27.0073C100.169 27.0073 99.9205 27.0452 99.6772 27.1154C99.4285 27.1857 99.2069 27.3046 99.0069 27.4668C98.8069 27.629 98.6447 27.8398 98.515 28.0939C98.3852 28.3534 98.3204 28.6669 98.3204 29.0399V33.3267C98.3204 33.6673 98.1366 33.8402 97.7744 33.8402C97.6122 33.8402 97.4825 33.7916 97.3798 33.6997C97.277 33.6024 97.2284 33.478 97.2284 33.3267V26.6614C97.2284 26.4884 97.277 26.3586 97.3798 26.2775C97.4771 26.1911 97.6176 26.1478 97.7852 26.1478C98.1366 26.1478 98.315 26.3208 98.315 26.6614V27.4614C98.4014 27.2884 98.515 27.1208 98.6663 26.9479C98.8123 26.7749 98.9907 26.6235 99.1907 26.483C99.3907 26.3424 99.6123 26.2343 99.861 26.1478C100.11 26.0613 100.375 26.0181 100.661 26.0181C101.034 26.0181 101.375 26.0721 101.688 26.1748C102.002 26.2775 102.272 26.4397 102.504 26.6559C102.731 26.8722 102.915 27.1425 103.045 27.4776C103.18 27.8128 103.245 28.2074 103.245 28.6615V33.3213C103.245 33.6618 103.061 33.8348 102.699 33.8348C102.337 33.8348 102.153 33.6618 102.153 33.3213V29.1048H102.164Z" fill="white"/>
<path d="M79.2163 27.1426C79.6379 27.6183 79.8433 28.2616 79.8433 29.0724V33.6187H78.8162V32.4294C78.5514 32.8024 78.1892 33.1214 77.7351 33.3754C77.2053 33.6673 76.6161 33.8133 75.9674 33.8133C75.2646 33.8133 74.697 33.6349 74.27 33.2781C73.8321 32.9051 73.6105 32.4294 73.6105 31.8564C73.6105 31.0455 73.9348 30.4347 74.5835 30.0347C75.1673 29.64 75.989 29.44 77.0486 29.4346L78.746 29.4076V29.04C78.746 27.8561 78.1297 27.2615 76.8972 27.2615C76.3674 27.2615 75.9458 27.3642 75.6214 27.575C75.2592 27.7912 75.0214 28.1318 74.9079 28.5859L73.8267 28.5048C73.9835 27.7588 74.3457 27.202 74.9241 26.8506C75.443 26.5209 76.1242 26.3587 76.9621 26.3587C77.9783 26.3479 78.7243 26.6128 79.2163 27.1426ZM78.7514 30.2239L77.1242 30.2509C75.5349 30.2779 74.7403 30.8023 74.7403 31.824C74.7403 32.1537 74.87 32.424 75.1349 32.6294C75.416 32.8403 75.7728 32.943 76.2053 32.943C76.8702 32.943 77.4648 32.7213 77.9838 32.2835C78.4973 31.8564 78.7514 31.3645 78.7514 30.8185V30.2239V30.2239Z" fill="white"/>
</g>
</svg>