<svg width="29" height="16" viewBox="0 0 29 16" fill="none" xmlns="http://www.w3.org/2000/svg">
<path d="M21.5748 4.82089L23.9804 0.720746C24.1162 0.490891 24.0341 0.198912 23.8036 0.0653459C23.5732 -0.0682176 23.2732 0.00943406 23.1407 0.239291L20.7035 4.39224C18.844 3.55668 16.7509 3.09076 14.5 3.09076C12.2491 3.09076 10.156 3.55668 8.29654 4.39224L5.85935 0.239291C5.7236 0.00943406 5.42685 -0.0682176 5.19323 0.0653459C4.95961 0.198912 4.88069 0.490891 5.01644 0.720746L7.42206 4.82089C3.27379 7.03249 0.464075 11.1637 0 16H29C28.5359 11.1637 25.7262 7.03249 21.5748 4.82089ZM7.84193 11.993C7.1695 11.993 6.6265 11.4557 6.6265 10.7972C6.6265 10.1356 7.17265 9.60129 7.84193 9.60129C8.51437 9.60129 9.05737 10.1387 9.05737 10.7972C9.06054 11.4557 8.51437 11.993 7.84193 11.993ZM21.1549 11.993C20.4825 11.993 19.9395 11.4557 19.9395 10.7972C19.9395 10.1356 20.4856 9.60129 21.1549 9.60129C21.8273 9.60129 22.3703 10.1387 22.3703 10.7972C22.3735 11.4557 21.8273 11.993 21.1549 11.993Z" fill="#1D2D31"/>
</svg>