<svg width="19" height="20" viewBox="0 0 19 20" fill="none" xmlns="http://www.w3.org/2000/svg">
<path d="M15.8767 0C17.0483 0 17.9933 0.9475 18.0492 2.0625V20L15.8183 18.1058L14.5933 16.9908L13.2567 15.8258L13.815 17.6633H2.11667C0.948333 17.6633 0 16.7758 0 15.6V2.06667C0 0.951667 0.95 0.0025 2.12083 0.0025H15.8708L15.8767 0ZM10.7783 4.73583H10.7533L10.585 4.9025C12.3125 5.4025 13.1483 6.18333 13.1483 6.18333C12.035 5.62667 11.0317 5.34833 10.0283 5.23583C9.30333 5.12333 8.57833 5.1825 7.96583 5.23583H7.79917C7.4075 5.23583 6.57417 5.4025 5.4575 5.84833C5.06833 6.0175 4.845 6.12833 4.845 6.12833C4.845 6.12833 5.68 5.29333 7.52 4.8475L7.4075 4.735C7.4075 4.735 6.01417 4.68167 4.51 5.79333C4.51 5.79333 3.00583 8.41333 3.00583 11.6433C3.00583 11.6433 3.83917 13.0933 6.125 13.1483C6.125 13.1483 6.45833 12.7042 6.79583 12.3133C5.5125 11.9233 5.0125 11.1433 5.0125 11.1433C5.0125 11.1433 5.12417 11.1983 5.29167 11.31H5.34167C5.36667 11.31 5.37833 11.3225 5.39167 11.335V11.34C5.405 11.3533 5.41667 11.365 5.44167 11.365C5.71667 11.4783 5.99167 11.59 6.21667 11.6983C6.69786 11.9043 7.20118 12.0542 7.71667 12.145C8.49167 12.2575 9.38 12.3117 10.3917 12.145C10.8917 12.0325 11.3917 11.9225 11.8917 11.6992C12.2167 11.5325 12.6167 11.3658 13.0558 11.085C13.0558 11.085 12.5558 11.865 11.2183 12.255C11.4933 12.6433 11.8808 13.0883 11.8808 13.0883C14.1675 13.0383 15.0558 11.5883 15.1058 11.65C15.1058 8.425 13.5933 5.8 13.5933 5.8C12.2308 4.78833 10.9558 4.75 10.7308 4.75L10.7775 4.73333L10.7783 4.73583ZM10.9183 8.41333C11.5042 8.41333 11.9767 8.91333 11.9767 9.52583C11.9767 10.1425 11.5017 10.6425 10.9183 10.6425C10.335 10.6425 9.86 10.1425 9.86 9.53083C9.86167 8.91417 10.3375 8.41583 10.9183 8.41583V8.41333ZM7.1325 8.41333C7.71583 8.41333 8.1875 8.91333 8.1875 9.52583C8.1875 10.1425 7.7125 10.6425 7.12917 10.6425C6.54583 10.6425 6.07083 10.1425 6.07083 9.53083C6.07083 8.91417 6.54583 8.41583 7.12917 8.41583L7.1325 8.41333Z" fill="#1D2D31"/>
</svg>
