<svg width="20" height="20" viewBox="0 0 20 20" fill="none" xmlns="http://www.w3.org/2000/svg">
<path d="M10.0083 0C4.47389 0 0 4.47389 0 10.0083C0 14.4324 2.8666 18.1773 6.8434 19.5029C7.3405 19.6023 7.52277 19.2874 7.52277 19.0223C7.52277 18.7903 7.5062 17.995 7.5062 17.1665C4.72244 17.763 4.14249 15.9735 4.14249 15.9735C3.6951 14.8136 3.0323 14.5153 3.0323 14.5153C2.12096 13.9022 3.09858 13.9022 3.09858 13.9022C4.10935 13.9685 4.63959 14.9295 4.63959 14.9295C5.53437 16.454 6.97596 16.0232 7.55591 15.758C7.63876 15.1118 7.90388 14.6644 8.18557 14.4159C5.96519 14.1839 3.62882 13.3223 3.62882 9.47802C3.62882 8.3844 4.0265 7.48963 4.65616 6.79369C4.55674 6.54514 4.20877 5.5178 4.75558 4.14249C4.75558 4.14249 5.60065 3.87737 7.5062 5.16983C8.30155 4.95442 9.16319 4.83843 10.0083 4.83843C10.8533 4.83843 11.715 4.95442 12.5103 5.16983C14.4159 3.87737 15.2609 4.14249 15.2609 4.14249C15.8078 5.5178 15.4598 6.54514 15.3604 6.79369C16.0066 7.48963 16.3877 8.3844 16.3877 9.47802C16.3877 13.3223 14.0513 14.1673 11.8144 14.4159C12.1789 14.7307 12.4938 15.3272 12.4938 16.2717C12.4938 17.6139 12.4772 18.6909 12.4772 19.0223C12.4772 19.2874 12.6595 19.6023 13.1566 19.5029C17.1333 18.1773 20 14.4324 20 10.0083C20.0165 4.47389 15.5261 0 10.0083 0Z" fill="#1D2D31"/>
<path d="M3.79474 14.3661C3.77817 14.4158 3.69532 14.4324 3.62904 14.3992C3.56276 14.3661 3.51305 14.2998 3.54619 14.2501C3.56276 14.2004 3.64561 14.1838 3.71189 14.2169C3.77817 14.2501 3.81131 14.3164 3.79474 14.3661ZM4.19242 14.8135C4.14271 14.8632 4.04329 14.83 3.99358 14.7638C3.9273 14.6975 3.91073 14.5981 3.96044 14.5483C4.01015 14.4986 4.093 14.5318 4.15928 14.5981C4.22556 14.6809 4.24213 14.7803 4.19242 14.8135ZM4.5901 15.3934C4.52382 15.4431 4.4244 15.3934 4.37469 15.3106C4.30841 15.2277 4.30841 15.1117 4.37469 15.0786C4.44097 15.0289 4.54039 15.0786 4.5901 15.1614C4.65638 15.2443 4.65638 15.3437 4.5901 15.3934ZM5.13691 15.9568C5.0872 16.0231 4.97121 16.0065 4.87179 15.9237C4.78894 15.8408 4.7558 15.7248 4.82208 15.6751C4.87179 15.6088 4.98778 15.6254 5.0872 15.7082C5.17005 15.7745 5.18662 15.8905 5.13691 15.9568ZM5.88256 16.2716C5.86599 16.3545 5.75 16.3876 5.63401 16.3545C5.51802 16.3213 5.45174 16.2219 5.46831 16.1556C5.48488 16.0728 5.60087 16.0396 5.71686 16.0728C5.83285 16.1059 5.89913 16.1888 5.88256 16.2716ZM6.69449 16.3379C6.69449 16.4208 6.59507 16.487 6.47908 16.487C6.36309 16.487 6.26367 16.4208 6.26367 16.3379C6.26367 16.2551 6.36309 16.1888 6.47908 16.1888C6.59507 16.1888 6.69449 16.2551 6.69449 16.3379ZM7.45671 16.2053C7.47328 16.2882 7.39043 16.371 7.27444 16.3876C7.15845 16.4042 7.05903 16.3545 7.04246 16.2716C7.02589 16.1888 7.10874 16.1059 7.22473 16.0894C7.34072 16.0728 7.44014 16.1225 7.45671 16.2053Z" fill="#1D2D31"/>
</svg>
