<svg width="18" height="20" viewBox="0 0 18 20" fill="none" xmlns="http://www.w3.org/2000/svg">
<path d="M12.4431 0C11.3637 0.0737481 10.1021 0.75623 9.36696 1.64496C8.69632 2.45119 8.14461 3.64865 8.35973 4.81237C9.53905 4.84862 10.7576 4.14989 11.4637 3.24616C12.1242 2.40494 12.624 1.21497 12.4431 0Z" fill="black"/>
<path d="M16.7074 6.71022C15.6711 5.4265 14.2147 4.68152 12.8392 4.68152C11.0234 4.68152 10.2553 5.54025 8.99376 5.54025C7.69296 5.54025 6.70471 4.68402 5.13439 4.68402C3.59191 4.68402 1.94946 5.61524 0.90806 7.2077C-0.555971 9.45015 -0.305428 13.6663 2.06714 17.2574C2.9162 18.5424 4.04997 19.9874 5.53298 19.9999C6.85276 20.0124 7.22478 19.1636 9.01274 19.1549C10.8007 19.1449 11.1398 20.0111 12.4571 19.9974C13.9414 19.9861 15.1371 18.3849 15.9862 17.1C16.5948 16.1787 16.8213 15.715 17.2933 14.675C13.8604 13.3838 13.3099 8.56142 16.7074 6.71022Z" fill="black"/>
</svg>