<svg width="28" height="28" viewBox="0 0 28 28" fill="none" xmlns="http://www.w3.org/2000/svg">
<path d="M25.2145 22.4817C24.3934 22.1454 24.0421 21.6991 24.0761 21.0333C24.1111 20.2561 23.6701 19.6868 23.4607 19.4619C23.5872 18.9786 23.9569 17.3069 23.4611 15.8548C22.9283 14.3006 21.3015 11.9268 19.623 9.59341C18.9358 8.63517 18.9033 7.59356 18.8658 6.38744C18.8298 5.23704 18.7892 3.93306 18.1477 2.48348C17.4502 0.905094 16.0505 0 14.3074 0C13.2705 0 12.2061 0.324068 11.3871 0.889029C9.7098 2.04658 9.93151 4.57036 10.0782 6.24037C10.0983 6.46905 10.1172 6.68507 10.1282 6.8695C10.2259 8.50508 10.1371 9.36712 10.0208 9.62913C9.94565 9.80034 9.57549 10.2876 9.18377 10.8036C8.77864 11.3371 8.31934 11.9419 7.94285 12.5055C7.49366 13.1837 7.13103 14.2202 6.78034 15.2226C6.52375 15.9562 6.28139 16.649 6.04545 17.063C5.59827 17.8595 5.70954 18.6022 5.80244 18.9455C5.63316 19.0631 5.38859 19.2946 5.18213 19.731C4.9326 20.2635 4.4263 20.5497 3.3735 20.7521C2.88969 20.851 2.55607 21.0545 2.38165 21.3567C2.12781 21.7965 2.26607 22.3492 2.3922 22.7269C2.57857 23.2821 2.46243 23.6335 2.25129 24.2716C2.20263 24.4188 2.14746 24.5855 2.09155 24.7694C2.00351 25.0596 2.03527 25.3235 2.18574 25.5536C2.58334 26.1614 3.74356 26.3758 4.93793 26.5168C5.65106 26.6015 6.43158 26.8867 7.18648 27.1627C7.92614 27.4329 8.69096 27.7125 9.38619 27.7973C9.49186 27.8106 9.59652 27.8173 9.69741 27.8173C10.7471 27.8173 11.2214 27.1208 11.3717 26.8346C11.7488 26.7577 13.0492 26.5113 14.3894 26.4783C15.7275 26.4401 17.0223 26.7043 17.389 26.7864C17.5043 27.0071 17.8083 27.5112 18.2928 27.771C18.5591 27.9166 18.9298 28 19.3094 28C19.3095 28 19.3094 28 19.3095 28C19.7149 28 20.4861 27.9042 21.0965 27.262C21.7054 26.6168 23.2266 25.7931 24.3374 25.1917C24.5853 25.0575 24.8171 24.9319 25.0205 24.8185C25.6445 24.4726 25.985 23.9783 25.9546 23.4625C25.9293 23.0341 25.6457 22.6582 25.2145 22.4817ZM11.4007 22.3575C11.3231 21.8103 10.6192 21.2677 9.80409 20.6394C9.13759 20.1255 8.38213 19.5432 8.17402 19.05C7.74391 18.0327 8.08295 16.2438 8.67407 15.3226C8.96619 14.8614 9.20479 14.1619 9.43558 13.4855C9.68474 12.7551 9.94243 12 10.2306 11.6694C10.687 11.1533 11.1087 10.149 11.1834 9.35757C11.6108 9.76555 12.2737 10.2832 12.8861 10.2832C12.9804 10.2832 13.0719 10.2709 13.1594 10.2462C13.5784 10.1252 14.1947 9.76913 14.7907 9.42486C15.3045 9.12797 15.9381 8.76185 16.1766 8.72853C16.5854 9.31552 18.9608 14.5723 19.2035 16.2605C19.3956 17.5962 19.1927 18.7005 19.0907 19.1329C19.0086 19.1217 18.9108 19.1127 18.8079 19.1127C18.1463 19.1127 17.9711 19.4738 17.9255 19.6895C17.8082 20.2497 17.7958 22.0413 17.7945 22.4438C17.5553 22.7478 16.3454 24.1792 14.6084 24.4365C13.9008 24.5394 13.2401 24.5915 12.6447 24.5915C12.1357 24.5915 11.8109 24.5522 11.6761 24.5317L10.8032 23.533C11.1474 23.3631 11.4914 23.0045 11.4007 22.3575ZM12.5084 5.88913C12.4811 5.90088 12.4543 5.91346 12.4279 5.92686C12.4253 5.86774 12.4191 5.80779 12.4097 5.74766C12.3144 5.19913 11.9506 4.80098 11.545 4.80098C11.5149 4.80098 11.4847 4.80327 11.4516 4.80832C11.2102 4.84853 11.0209 5.02984 10.9172 5.28689C11.0082 4.72285 11.3278 4.30524 11.7069 4.30524C12.1522 4.30524 12.5283 4.90527 12.5283 5.61546C12.5283 5.70497 12.5218 5.79402 12.5084 5.88913ZM15.9681 6.31207C16.0088 6.18226 16.0309 6.0418 16.0309 5.89601C16.0309 5.2521 15.6223 4.74764 15.1008 4.74764C14.5911 4.74764 14.1764 5.26275 14.1764 5.89601C14.1764 5.93916 14.1785 5.9824 14.1826 6.02555C14.1556 6.01517 14.1292 6.00508 14.1035 5.99534C14.0449 5.8177 14.0152 5.63235 14.0152 5.44314C14.0152 4.67319 14.5073 4.04672 15.1123 4.04672C15.7172 4.04672 16.2093 4.67319 16.2093 5.44314C16.2093 5.76345 16.1209 6.06915 15.9681 6.31207ZM15.522 7.81067C15.5133 7.8496 15.4947 7.86686 15.2896 7.97353C15.1861 8.02742 15.0572 8.09453 14.8959 8.19276L14.7881 8.25804C14.355 8.52059 13.3408 9.13559 13.0655 9.17167C12.8785 9.19682 12.7628 9.1243 12.5028 8.94757C12.4441 8.90764 12.3817 8.86523 12.3151 8.82254C11.8463 8.5149 11.5447 8.17605 11.5106 8.04358C11.6635 7.92543 12.0424 7.62973 12.2363 7.45466C12.6301 7.08855 13.0263 6.84251 13.2224 6.84251C13.2328 6.84251 13.2421 6.84324 13.2519 6.84508C13.4823 6.88575 14.0507 7.1126 14.4658 7.27821C14.6577 7.35478 14.8234 7.42088 14.94 7.46274C15.3073 7.58888 15.4988 7.75027 15.522 7.81067ZM18.8221 24.9202C19.0293 23.9855 19.268 22.714 19.2293 21.9644C19.2204 21.7942 19.2054 21.6088 19.1908 21.4296C19.1635 21.0945 19.123 20.5965 19.1648 20.4488C19.173 20.4449 19.1822 20.4416 19.1924 20.4388C19.1942 20.8673 19.2872 21.7221 19.9708 22.0202C20.1745 22.109 20.4073 22.154 20.6627 22.154C21.3475 22.154 22.1073 21.8181 22.4185 21.5069C22.6017 21.3237 22.7559 21.0995 22.8638 20.9219C22.8874 20.991 22.9019 21.0814 22.8943 21.1978C22.8536 21.8299 23.1608 22.6684 23.7454 22.9774L23.8305 23.0221C24.0387 23.1314 24.5918 23.4217 24.6007 23.5594C24.6006 23.5595 24.596 23.5757 24.5651 23.6043C24.4266 23.7309 23.939 23.9799 23.4675 24.2207C22.6311 24.6478 21.6831 25.1319 21.2573 25.5797C20.6578 26.2106 19.9797 26.6343 19.5703 26.6343C19.521 26.6343 19.4761 26.6281 19.4362 26.6154C18.9915 26.4768 18.6254 25.8352 18.8221 24.9202ZM3.66424 22.5357C3.61889 22.3235 3.58308 22.156 3.62155 21.9936C3.64946 21.8734 4.24316 21.7445 4.49672 21.6895C4.85319 21.6121 5.22188 21.5321 5.46295 21.3858C5.78895 21.1883 5.96549 20.8242 6.12119 20.5028C6.23392 20.2705 6.35033 20.0302 6.48886 19.9514C6.49667 19.9468 6.5086 19.9415 6.53137 19.9415C6.7909 19.9415 7.33548 20.487 7.64926 20.9754C7.72886 21.0985 7.87629 21.3451 8.04687 21.6307C8.55702 22.4843 9.25556 23.6535 9.62039 24.0453C9.94914 24.3975 10.4813 25.0748 10.3504 25.6556C10.2546 26.1063 9.74432 26.4728 9.62397 26.5538C9.58027 26.5637 9.5262 26.5688 9.46258 26.5688C8.76431 26.5688 7.38211 25.9878 6.63951 25.6757L6.52962 25.6295C6.11494 25.4557 5.43798 25.3461 4.78333 25.2402C4.26243 25.1558 3.54912 25.0404 3.43087 24.9361C3.33503 24.8286 3.44621 24.4791 3.54425 24.1708C3.61485 23.9492 3.68774 23.72 3.72768 23.4801C3.78432 23.0975 3.71767 22.786 3.66424 22.5357Z" fill="black"/>
</svg>