<svg width="16" height="21" viewBox="0 0 16 21" fill="none" xmlns="http://www.w3.org/2000/svg">
<g clip-path="url(#clip0)">
<path d="M8.1073 0C3.63726 0.0172593 0.0179554 3.49624 0 7.79298C0 8.65348 0.144498 9.50822 0.42751 10.3243C0.6387 10.8799 1.26543 11.1791 1.85368 11.0073C2.42227 10.7977 2.7241 10.2002 2.54283 9.64137C2.30257 9.00524 2.19569 8.33048 2.22733 7.65491C2.3248 4.55152 5.02068 2.11139 8.24924 2.20508C11.4778 2.29877 14.0164 4.89013 13.9189 7.99352C13.8274 10.8988 11.447 13.2584 8.42794 13.4351C8.42794 13.4351 7.28991 13.5017 6.72388 13.5683C6.51526 13.597 6.30834 13.6365 6.10399 13.6866C6.07492 13.7154 6.02789 13.7154 5.99797 13.6874L5.99711 13.6866C5.97659 13.6611 5.97659 13.625 5.99711 13.5995L6.17325 12.6757L7.24202 8.05516C7.37028 7.4782 6.98808 6.91029 6.38786 6.78701C5.78763 6.66373 5.19681 7.03111 5.06856 7.60806C5.06856 7.60806 2.52659 18.9178 2.52659 19.0206C2.38123 19.5704 2.72666 20.1293 3.29867 20.269C3.30465 20.2706 3.31149 20.2723 3.31748 20.2731H3.37648C3.94763 20.4153 4.53075 20.0849 4.67782 19.5359C4.68038 19.5268 4.68295 19.5178 4.68466 19.5079C4.68295 19.4907 4.68295 19.4734 4.68466 19.457C4.71629 19.3238 5.03693 17.819 5.03693 17.819C5.27975 16.6832 6.23224 15.8128 7.42414 15.6369C7.66953 15.6008 8.70069 15.5342 8.70069 15.5342C13.1536 15.1076 16.4036 11.2917 15.959 7.01138C15.5537 3.10749 12.1892 0.101912 8.1073 0Z" fill="#1E1E1E"/>
<path d="M8.60021 17.9685C7.86918 17.8222 7.1544 18.2734 7.00221 18.9753C7.0005 18.9818 6.99964 18.9884 6.99793 18.995C6.83976 19.6928 7.29975 20.3823 8.0265 20.5344C8.02735 20.5344 8.02821 20.5344 8.02906 20.5352H8.06668C8.77805 20.7004 9.49368 20.2796 9.66468 19.5966C9.66639 19.5917 9.66725 19.5859 9.66896 19.581V19.5095C9.79464 18.8043 9.3261 18.1279 8.60021 17.9685Z" fill="#E6007A"/>
</g>
<defs>
<clipPath id="clip0">
<rect width="16" height="20.5714" fill="white"/>
</clipPath>
</defs>
</svg>
