<svg width="20" height="22" viewBox="0 0 20 22" fill="none" xmlns="http://www.w3.org/2000/svg">
<path d="M19.728 6.33954C18.7416 5.42876 17.3771 4.03794 16.2657 3.05154L16.2 3.00551C16.0905 2.91765 15.9672 2.84874 15.835 2.80165V2.80165C13.1553 2.30188 0.683903 -0.0293127 0.440591 0.000279238C0.372414 0.0098276 0.307247 0.0345463 0.249888 0.0726152L0.187416 0.121935C0.110491 0.200058 0.0520657 0.294438 0.01644 0.398127L0 0.440871L0 0.674319L0 0.710487C1.40397 4.61992 6.94754 17.4267 8.03915 20.4319C8.10491 20.6358 8.22985 21.0237 8.4633 21.0435H8.51591C8.64085 21.0435 9.17351 20.3398 9.17351 20.3398C9.17351 20.3398 18.6955 8.79238 19.6589 7.56267C19.7836 7.4112 19.8937 7.24826 19.9877 7.07605C20.0117 6.94131 20.0004 6.80264 19.9549 6.67357C19.9094 6.5445 19.8312 6.42942 19.728 6.33954V6.33954ZM11.6165 7.68433L15.6805 4.31413L18.0642 6.51051L11.6165 7.68433ZM10.0383 7.46403L3.0414 1.72977L14.362 3.81764L10.0383 7.46403ZM10.6695 8.96665L17.8308 7.81256L9.64369 17.6766L10.6695 8.96665ZM2.09117 2.30188L9.45299 8.54907L8.38768 17.6831L2.09117 2.30188Z" fill="#1D2D31"/>
</svg>