<svg width="1920" height="400" viewBox="0 0 1920 400" fill="none" xmlns="http://www.w3.org/2000/svg">
<mask id="mask0" mask-type="alpha" maskUnits="userSpaceOnUse" x="0" y="0" width="1920" height="400">
<rect width="1920" height="400" fill="#C4C4C4"/>
</mask>
<g mask="url(#mask0)">
<mask id="mask1" mask-type="alpha" maskUnits="userSpaceOnUse" x="0" y="-18" width="1920" height="418">
<rect y="-18" width="1920" height="418" fill="#282A34"/>
</mask>
<g mask="url(#mask1)">
<path d="M1953 -2H-2V405H1953V-2Z" fill="url(#paint0_linear)"/>
<path opacity="0.5" d="M1088.14 462.875C1087.11 455.877 1091.97 448.708 1097.73 443.639C1110.94 432.026 1129.27 426.149 1142.4 414.466C1169.29 390.534 1168.77 354.11 1166.06 322.363C1162.84 284.566 1165.25 250.546 1193.85 220.202C1215.26 197.502 1245.74 183.132 1277.34 174.903C1339.57 158.695 1408.59 167.44 1453.36 115.88C1473.69 92.4833 1481.39 61.6544 1481.08 31.8353C1480.6 -12.1008 1464.5 -54.3404 1458.76 -97.6807C1455.35 -123.44 1456.58 -150.614 1469.45 -173.779C1482.31 -196.943 1508.79 -215.099 1537.29 -213.948C1562.04 -212.948 1583.74 -198.105 1599.51 -180.726C1628.27 -149.019 1642.15 -108.364 1651.57 -68.1645C1669.78 9.51885 1673.81 89.6762 1667.2 168.874C1662.46 225.736 1651.27 284.526 1614.82 330.905C1566.62 392.24 1486.44 418.04 1410.41 439.135C1316.56 465.177 1215.43 486.201 1116.71 478.638C1105.6 477.79 1092.34 475.023 1088.78 465.41C1088.48 464.592 1088.26 463.733 1088.14 462.875Z" fill="url(#paint1_linear)"/>
<path opacity="0.3" d="M1581.26 67.9862C1566.59 68.0133 1553.36 73.6105 1543.97 82.5878C1538.15 88.1581 1530.16 91.4299 1521.71 91.4299H1521.46C1509.58 91.4299 1498.86 85.0891 1493.84 75.287C1477.54 43.4744 1442.24 21.3557 1401.23 21.0042C1344.12 20.5174 1297.1 62.808 1297 114.82C1296.9 166.818 1343.15 209 1400.23 209C1441.66 209 1477.39 186.787 1493.83 154.717C1498.86 144.915 1509.57 138.561 1521.46 138.561H1522.31C1530.46 138.561 1538.15 141.751 1543.75 147.173C1553.16 156.299 1566.54 162.004 1581.38 162.004C1610.55 162.004 1634.08 139.967 1632.96 113.17C1631.89 87.9958 1608.91 67.9322 1581.26 67.9862Z" fill="url(#paint2_linear)"/>
<path opacity="0.5" d="M823.201 -173.732C827.874 -155.394 782.97 -131.613 773.002 -121.334C738.444 -85.6679 731.007 -48.0229 742.862 -2.55196C750.178 25.5203 757.793 56.9248 741.552 81.7051C730.818 98.0839 711.491 108.141 692.075 115.331C657.285 128.196 619.885 134.083 584.251 144.858C548.617 155.632 513.249 172.556 492.634 201.113C474.651 226.045 469.933 257.358 473.119 287.036C477.826 330.77 497.941 371.556 507.832 414.28C513.704 439.676 515.103 466.84 504.512 490.933C493.933 515.027 469.311 535.233 440.804 536.354C416.048 537.323 393.003 524.277 375.618 508.221C343.914 478.927 326.174 439.535 312.909 400.234C287.288 324.308 275.554 244.776 274.499 165.356C273.744 108.333 279.228 48.8868 311.077 -0.229438C353.183 -65.1692 430.557 -97.2604 504.268 -124.333C593.432 -157.101 687.502 -179.488 783.37 -187.435C793.761 -188.293 804.962 -188.828 813.876 -183.87C819.382 -180.811 822.268 -177.377 823.201 -173.732Z" fill="url(#paint3_linear)"/>
<path opacity="0.3" d="M570.501 230.301C600.328 230.301 624.507 208.306 624.507 181.174C624.507 154.043 600.328 132.048 570.501 132.048C540.674 132.048 516.494 154.043 516.494 181.174C516.494 208.306 540.674 230.301 570.501 230.301Z" fill="url(#paint4_linear)"/>
<path opacity="0.3" d="M693.001 495.654C722.828 495.654 747.007 473.659 747.007 446.527C747.007 419.395 722.828 397.401 693.001 397.401C663.174 397.401 638.994 419.395 638.994 446.527C638.994 473.659 663.174 495.654 693.001 495.654Z" fill="url(#paint5_linear)"/>
<path opacity="0.3" d="M1241.12 19.4863C1279.06 19.4863 1309.81 -8.48505 1309.81 -42.9895C1309.81 -77.494 1279.06 -105.465 1241.12 -105.465C1203.19 -105.465 1172.44 -77.494 1172.44 -42.9895C1172.44 -8.48505 1203.19 19.4863 1241.12 19.4863Z" fill="url(#paint6_linear)"/>
<path opacity="0.3" d="M1321.27 288.949C1332.46 278.882 1339.47 264.987 1339.75 249.598C1340.3 218.416 1312.64 192.464 1278.36 192.03C1243.56 191.585 1215.2 217.123 1215.2 248.679C1215.2 264.422 1222.26 278.67 1233.66 288.939C1238.47 293.261 1238.6 300.219 1233.93 304.662C1223.32 314.729 1216.91 328.463 1217.2 343.559C1217.75 372.166 1242.81 395.836 1274.22 397.33C1308.99 398.987 1337.75 373.833 1337.75 342.569C1337.75 327.847 1331.37 314.477 1320.99 304.632C1316.35 300.219 1316.5 293.241 1321.27 288.949Z" fill="url(#paint7_linear)"/>
<path opacity="0.3" d="M670.977 65.5931C713.452 65.5931 747.885 34.2716 747.885 -4.36533C747.885 -43.0023 713.452 -74.3237 670.977 -74.3237C628.502 -74.3237 594.069 -43.0023 594.069 -4.36533C594.069 34.2716 628.502 65.5931 670.977 65.5931Z" fill="url(#paint8_linear)"/>
<path opacity="0.3" d="M247.908 215.593C290.383 215.593 324.816 184.272 324.816 145.635C324.816 106.998 290.383 75.6763 247.908 75.6763C205.433 75.6763 171 106.998 171 145.635C171 184.272 205.433 215.593 247.908 215.593Z" fill="url(#paint9_linear)"/>
<path opacity="0.3" d="M1089.4 383.113C1076.41 383.133 1064.7 388.091 1056.39 396.028C1051.23 400.956 1044.16 403.844 1036.68 403.844H1036.44C1025.92 403.844 1016.43 398.239 1011.98 389.565C997.535 361.422 966.285 341.852 929.974 341.539C879.409 341.105 837.78 378.528 837.691 424.524C837.591 470.52 878.554 507.832 929.097 507.832C965.775 507.832 997.413 488.181 1011.97 459.816C1016.42 451.142 1025.91 445.528 1036.43 445.528H1037.19C1044.41 445.528 1051.22 448.355 1056.17 453.142C1064.51 461.22 1076.35 466.259 1089.48 466.259C1115.32 466.259 1136.14 446.76 1135.15 423.06C1134.23 400.814 1113.87 383.062 1089.4 383.113Z" fill="url(#paint10_linear)"/>
<path opacity="0.3" d="M1053.84 269.187C1039.1 269.329 1025.9 275.287 1016.88 284.668C1010.6 291.211 1001.63 295.099 992.084 295.099H990.641C978.663 295.099 967.773 289.04 962.012 279.487C948.424 256.999 922.137 241.762 891.942 241.762C860.892 241.762 833.972 257.878 820.751 281.406C816.044 289.777 806.642 295.089 796.307 295.089H795.285C784.85 295.089 775.37 289.686 770.719 281.184C757.198 256.484 729.09 239.55 696.653 239.712C651.882 239.944 615.293 273.176 614.983 313.901C614.661 355.424 651.56 389.171 697.13 389.171C729.356 389.171 757.242 372.287 770.708 347.719C775.359 339.217 784.839 333.804 795.285 333.804H796.307C806.642 333.804 816.044 339.116 820.751 347.487C833.972 371.025 860.892 387.131 891.942 387.131C922.137 387.131 948.424 371.893 962.012 349.405C967.784 339.853 978.663 333.794 990.641 333.794H992.084C1001.61 333.794 1010.58 337.641 1016.84 344.175C1025.96 353.697 1039.39 359.715 1054.36 359.715C1082.24 359.715 1104.76 338.863 1104.12 313.376C1103.48 288.474 1081.25 268.935 1053.84 269.187Z" fill="url(#paint11_linear)"/>
<path opacity="0.3" d="M421.859 269.187C407.117 269.329 393.917 275.287 384.903 284.668C378.62 291.211 369.651 295.099 360.104 295.099H358.661C346.683 295.099 335.793 289.04 330.031 279.487C316.443 256.999 290.156 241.762 259.961 241.762C228.912 241.762 201.992 257.878 188.771 281.406C184.064 289.777 174.661 295.089 164.326 295.089H163.305C152.87 295.089 143.39 289.686 138.738 281.184C125.217 256.484 97.1095 239.55 64.6723 239.712C19.9019 239.944 -16.6871 273.176 -16.9979 313.901C-17.3198 355.424 19.58 389.171 65.1497 389.171C97.3759 389.171 125.262 372.287 138.727 347.719C143.379 339.217 152.859 333.804 163.305 333.804H164.326C174.661 333.804 184.064 339.116 188.771 347.487C201.992 371.025 228.912 387.131 259.961 387.131C290.156 387.131 316.443 371.893 330.031 349.405C335.804 339.853 346.683 333.794 358.661 333.794H360.104C369.628 333.794 378.598 337.641 384.859 344.175C393.984 353.697 407.405 359.715 422.381 359.715C450.255 359.715 472.779 338.863 472.135 313.376C471.503 288.474 449.267 268.935 421.859 269.187Z" fill="url(#paint12_linear)"/>
<path opacity="0.3" d="M805.948 67.7317C785.598 67.7317 766.914 74.222 752.266 85.0494C723.861 106.063 688.578 117.913 651.932 117.913H648.283C606.794 117.913 566.667 103.467 537.253 76.9098C517.829 59.3631 490.921 48.6426 461.255 49.0091C403.974 49.7116 357.406 92.288 357.003 144.302C356.582 197.645 404.075 241 462.718 241C491.796 241 518.115 230.341 537.22 213.099C566.482 186.695 606.222 172.081 647.476 172.081H651.899C688.359 172.081 723.693 183.595 751.829 204.654C766.527 215.665 785.363 222.262 805.914 222.262C852.583 222.262 890.49 188.131 890.994 145.86C891.549 103.222 852.902 67.7317 805.948 67.7317Z" fill="url(#paint13_linear)"/>
<path opacity="0.3" d="M1307.48 120.443C1307.09 95.8749 1285.11 75.7094 1258.11 75.1439C1243.19 74.841 1229.7 80.415 1220.24 89.493C1214.58 94.9257 1206.76 98.0662 1198.52 98.0662H1198.26C1186.77 98.0662 1176.19 92.0983 1171.38 82.6063C1162.88 65.8841 1149.03 51.8682 1131.82 42.3964C1129.95 41.3563 1130.88 38.751 1133.08 38.8823C1136.74 39.1145 1140.45 39.2054 1144.2 39.1549C1216.76 38.1451 1273.53 -15.495 1272 -81.495C1270.51 -145.566 1212.95 -197.086 1142.16 -197.086C1070.85 -197.086 1013.24 -145.415 1012.31 -80.5458C1011.64 -34.5094 1039.93 5.56923 1081.65 25.5934C1083.59 26.5325 1082.82 29.1883 1080.63 29.1681C1080.59 29.1681 1080.55 29.1681 1080.52 29.1681C1024.59 28.6935 978.552 70.0747 978.441 120.948C978.33 171.821 1023.64 213.092 1079.54 213.092C1120.12 213.092 1155.12 191.341 1171.21 159.946C1176.13 150.363 1186.63 144.173 1198.25 144.173H1199.41C1207.23 144.173 1214.62 147.263 1219.95 152.474C1229.18 161.471 1242.33 167.106 1256.93 167.106C1285.1 167.096 1307.88 146.142 1307.48 120.443Z" fill="url(#paint14_linear)"/>
<path opacity="0.3" d="M1907.03 380.443C1906.65 355.875 1884.67 335.709 1857.67 335.144C1842.75 334.841 1829.26 340.415 1819.8 349.493C1814.14 354.926 1806.31 358.066 1798.08 358.066H1797.82C1786.33 358.066 1775.75 352.098 1770.94 342.606C1762.44 325.884 1748.59 311.868 1731.38 302.396C1729.51 301.356 1730.44 298.751 1732.64 298.882C1736.3 299.115 1740.01 299.205 1743.76 299.155C1816.32 298.145 1873.09 244.505 1871.56 178.505C1870.07 114.434 1812.51 62.9141 1741.72 62.9141C1670.41 62.9141 1612.8 114.585 1611.87 179.454C1611.2 225.491 1639.49 265.569 1681.21 285.593C1683.15 286.533 1682.38 289.188 1680.19 289.168C1680.15 289.168 1680.11 289.168 1680.07 289.168C1624.15 288.693 1578.11 330.075 1578 380.948C1577.89 431.821 1623.2 473.092 1679.1 473.092C1719.68 473.092 1754.68 451.341 1770.77 419.946C1775.69 410.363 1786.19 404.173 1797.81 404.173H1798.97C1806.79 404.173 1814.17 407.263 1819.51 412.474C1828.74 421.471 1841.89 427.106 1856.49 427.106C1884.65 427.096 1907.43 406.142 1907.03 380.443Z" fill="url(#paint15_linear)"/>
<path opacity="0.3" d="M580.372 293.82C570.803 293.84 562.166 297.485 556.049 303.342C552.253 306.977 547.035 309.108 541.518 309.108H541.352C533.592 309.108 526.609 304.978 523.324 298.586C512.689 277.845 489.654 263.425 462.89 263.193C425.623 262.87 394.951 290.447 394.874 324.346C394.807 358.244 424.991 385.741 462.235 385.741C489.266 385.741 512.578 371.261 523.312 350.348C526.598 343.956 533.581 339.816 541.341 339.816H541.896C547.213 339.816 552.242 341.896 555.883 345.43C562.022 351.378 570.758 355.094 580.438 355.094C599.477 355.094 614.829 340.725 614.097 323.265C613.419 306.866 598.411 293.789 580.372 293.82Z" fill="url(#paint16_linear)"/>
</g>
<g clip-path="url(#clip0)">
<g opacity="0.5">
<path opacity="0.5" fill-rule="evenodd" clip-rule="evenodd" d="M232.379 40.5347C233.297 40.5347 234.069 41.1638 234.287 42.0148C235.099 42.2579 235.691 43.0109 235.691 43.9022C235.691 44.7982 235.093 45.5544 234.274 45.7934C234.04 46.6201 233.28 47.2257 232.379 47.2257C231.484 47.2257 230.729 46.6295 230.489 45.8128C229.633 45.5981 229 44.8241 229 43.9022C229 42.9851 229.627 42.2144 230.475 41.9949C230.7 41.154 231.467 40.5347 232.379 40.5347ZM353.654 40.5347C354.573 40.5347 355.345 41.1638 355.563 42.0148C356.375 42.2579 356.967 43.0109 356.967 43.9022C356.967 44.7982 356.369 45.5544 355.55 45.7934C355.316 46.6201 354.556 47.2257 353.654 47.2257C352.76 47.2257 352.005 46.6295 351.764 45.8128C350.909 45.5981 350.276 44.8241 350.276 43.9022C350.276 42.9851 350.902 42.2144 351.751 41.9949C351.976 41.154 352.743 40.5347 353.654 40.5347ZM474.93 40.5347C475.849 40.5347 476.621 41.1638 476.839 42.0148C477.651 42.2579 478.243 43.0109 478.243 43.9022C478.243 44.7982 477.644 45.5544 476.826 45.7934C476.592 46.6201 475.832 47.2257 474.93 47.2257C474.036 47.2257 473.28 46.6295 473.04 45.8128C472.185 45.5981 471.551 44.8241 471.551 43.9022C471.551 42.9851 472.178 42.2144 473.027 41.9949C473.251 41.154 474.018 40.5347 474.93 40.5347ZM596.206 40.5347C597.125 40.5347 597.897 41.1638 598.114 42.0148C598.926 42.2579 599.518 43.0109 599.518 43.9022C599.518 44.7982 598.92 45.5544 598.101 45.7934C597.867 46.6201 597.107 47.2257 596.206 47.2257C595.311 47.2257 594.556 46.6295 594.316 45.8128C593.46 45.5981 592.827 44.8241 592.827 43.9022C592.827 42.9851 593.454 42.2144 594.302 41.9949C594.527 41.154 595.294 40.5347 596.206 40.5347ZM717.482 40.5347C718.4 40.5347 719.172 41.1638 719.39 42.0148C720.202 42.2579 720.794 43.0109 720.794 43.9022C720.794 44.7982 720.196 45.5544 719.377 45.7934C719.143 46.6201 718.383 47.2257 717.482 47.2257C716.587 47.2257 715.832 46.6295 715.591 45.8128C714.736 45.5981 714.103 44.8241 714.103 43.9022C714.103 42.9851 714.73 42.2144 715.578 41.9949C715.803 41.154 716.57 40.5347 717.482 40.5347ZM838.757 40.5347C839.676 40.5347 840.448 41.1638 840.666 42.0148C841.478 42.2579 842.07 43.0109 842.07 43.9022C842.07 44.7982 841.472 45.5544 840.653 45.7934C840.419 46.6201 839.659 47.2257 838.757 47.2257C837.863 47.2257 837.107 46.6295 836.867 45.8128C836.012 45.5981 835.379 44.8241 835.379 43.9022C835.379 42.9851 836.005 42.2144 836.854 41.9949C837.078 41.154 837.846 40.5347 838.757 40.5347ZM960.033 40.5347C960.952 40.5347 961.724 41.1638 961.942 42.0148C962.754 42.2579 963.346 43.0109 963.346 43.9022C963.346 44.7982 962.747 45.5544 961.929 45.7934C961.695 46.6201 960.935 47.2257 960.033 47.2257C959.139 47.2257 958.383 46.6295 958.143 45.8128C957.288 45.5981 956.654 44.8241 956.654 43.9022C956.654 42.9851 957.281 42.2144 958.13 41.9949C958.354 41.154 959.121 40.5347 960.033 40.5347ZM1081.31 40.5347C1082.23 40.5347 1083 41.1638 1083.22 42.0148C1084.03 42.2579 1084.62 43.0109 1084.62 43.9022C1084.62 44.7982 1084.02 45.5544 1083.2 45.7934C1082.97 46.6201 1082.21 47.2257 1081.31 47.2257C1080.41 47.2257 1079.66 46.6295 1079.42 45.8128C1078.56 45.5981 1077.93 44.8241 1077.93 43.9022C1077.93 42.9851 1078.56 42.2144 1079.41 41.9949C1079.63 41.154 1080.4 40.5347 1081.31 40.5347ZM1202.58 40.5347C1203.5 40.5347 1204.28 41.1638 1204.49 42.0148C1205.31 42.2579 1205.9 43.0109 1205.9 43.9022C1205.9 44.7982 1205.3 45.5544 1204.48 45.7934C1204.25 46.6201 1203.49 47.2257 1202.58 47.2257C1201.69 47.2257 1200.93 46.6295 1200.69 45.8128C1199.84 45.5981 1199.21 44.8241 1199.21 43.9022C1199.21 42.9851 1199.83 42.2144 1200.68 41.9949C1200.91 41.154 1201.67 40.5347 1202.58 40.5347ZM1323.86 40.5347C1324.78 40.5347 1325.55 41.1638 1325.77 42.0148C1326.58 42.2579 1327.17 43.0109 1327.17 43.9022C1327.17 44.7982 1326.57 45.5544 1325.76 45.7934C1325.52 46.6201 1324.76 47.2257 1323.86 47.2257C1322.97 47.2257 1322.21 46.6295 1321.97 45.8128C1321.11 45.5981 1320.48 44.8241 1320.48 43.9022C1320.48 42.9851 1321.11 42.2144 1321.96 41.9949C1322.18 41.154 1322.95 40.5347 1323.86 40.5347ZM1445.14 40.5347C1446.05 40.5347 1446.83 41.1638 1447.04 42.0148C1447.86 42.2579 1448.45 43.0109 1448.45 43.9022C1448.45 44.7982 1447.85 45.5544 1447.03 45.7934C1446.8 46.6201 1446.04 47.2257 1445.14 47.2257C1444.24 47.2257 1443.49 46.6295 1443.25 45.8128C1442.39 45.5981 1441.76 44.8241 1441.76 43.9022C1441.76 42.9851 1442.38 42.2144 1443.23 41.9949C1443.46 41.154 1444.22 40.5347 1445.14 40.5347ZM1566.41 40.5347C1567.33 40.5347 1568.1 41.1638 1568.32 42.0148C1569.13 42.2579 1569.72 43.0109 1569.72 43.9022C1569.72 44.7982 1569.13 45.5544 1568.31 45.7934C1568.07 46.6201 1567.31 47.2257 1566.41 47.2257C1565.52 47.2257 1564.76 46.6295 1564.52 45.8128C1563.67 45.5981 1563.03 44.8241 1563.03 43.9022C1563.03 42.9851 1563.66 42.2144 1564.51 41.9949C1564.73 41.154 1565.5 40.5347 1566.41 40.5347ZM1687.69 40.5347C1688.61 40.5347 1689.38 41.1638 1689.6 42.0148C1690.41 42.2579 1691 43.0109 1691 43.9022C1691 44.7982 1690.4 45.5544 1689.58 45.7934C1689.35 46.6201 1688.59 47.2257 1687.69 47.2257C1686.79 47.2257 1686.04 46.6295 1685.8 45.8128C1684.94 45.5981 1684.31 44.8241 1684.31 43.9022C1684.31 42.9851 1684.94 42.2144 1685.78 41.9949C1686.01 41.154 1686.78 40.5347 1687.69 40.5347Z" fill="white"/>
<path opacity="0.5" fill-rule="evenodd" clip-rule="evenodd" d="M232.379 151.774C233.297 151.774 234.069 152.403 234.287 153.254C235.099 153.497 235.691 154.25 235.691 155.141C235.691 156.037 235.093 156.794 234.274 157.033C234.04 157.859 233.28 158.465 232.379 158.465C231.484 158.465 230.729 157.869 230.489 157.052C229.633 156.837 229 156.063 229 155.141C229 154.224 229.627 153.454 230.475 153.234C230.7 152.393 231.467 151.774 232.379 151.774ZM353.654 151.774C354.573 151.774 355.345 152.403 355.563 153.254C356.375 153.497 356.967 154.25 356.967 155.141C356.967 156.037 356.369 156.794 355.55 157.033C355.316 157.859 354.556 158.465 353.654 158.465C352.76 158.465 352.005 157.869 351.764 157.052C350.909 156.837 350.276 156.063 350.276 155.141C350.276 154.224 350.902 153.454 351.751 153.234C351.976 152.393 352.743 151.774 353.654 151.774ZM474.93 151.774C475.849 151.774 476.621 152.403 476.839 153.254C477.651 153.497 478.243 154.25 478.243 155.141C478.243 156.037 477.644 156.794 476.826 157.033C476.592 157.859 475.832 158.465 474.93 158.465C474.036 158.465 473.28 157.869 473.04 157.052C472.185 156.837 471.551 156.063 471.551 155.141C471.551 154.224 472.178 153.454 473.027 153.234C473.251 152.393 474.018 151.774 474.93 151.774ZM596.206 151.774C597.125 151.774 597.897 152.403 598.114 153.254C598.926 153.497 599.518 154.25 599.518 155.141C599.518 156.037 598.92 156.794 598.101 157.033C597.867 157.859 597.107 158.465 596.206 158.465C595.311 158.465 594.556 157.869 594.316 157.052C593.46 156.837 592.827 156.063 592.827 155.141C592.827 154.224 593.454 153.454 594.302 153.234C594.527 152.393 595.294 151.774 596.206 151.774ZM717.482 151.774C718.4 151.774 719.172 152.403 719.39 153.254C720.202 153.497 720.794 154.25 720.794 155.141C720.794 156.037 720.196 156.794 719.377 157.033C719.143 157.859 718.383 158.465 717.482 158.465C716.587 158.465 715.832 157.869 715.591 157.052C714.736 156.837 714.103 156.063 714.103 155.141C714.103 154.224 714.73 153.454 715.578 153.234C715.803 152.393 716.57 151.774 717.482 151.774ZM838.757 151.774C839.676 151.774 840.448 152.403 840.666 153.254C841.478 153.497 842.07 154.25 842.07 155.141C842.07 156.037 841.472 156.794 840.653 157.033C840.419 157.859 839.659 158.465 838.757 158.465C837.863 158.465 837.107 157.869 836.867 157.052C836.012 156.837 835.379 156.063 835.379 155.141C835.379 154.224 836.005 153.454 836.854 153.234C837.078 152.393 837.846 151.774 838.757 151.774ZM960.033 151.774C960.952 151.774 961.724 152.403 961.942 153.254C962.754 153.497 963.346 154.25 963.346 155.141C963.346 156.037 962.747 156.794 961.929 157.033C961.695 157.859 960.935 158.465 960.033 158.465C959.139 158.465 958.383 157.869 958.143 157.052C957.288 156.837 956.654 156.063 956.654 155.141C956.654 154.224 957.281 153.454 958.13 153.234C958.354 152.393 959.121 151.774 960.033 151.774ZM1081.31 151.774C1082.23 151.774 1083 152.403 1083.22 153.254C1084.03 153.497 1084.62 154.25 1084.62 155.141C1084.62 156.037 1084.02 156.794 1083.2 157.033C1082.97 157.859 1082.21 158.465 1081.31 158.465C1080.41 158.465 1079.66 157.869 1079.42 157.052C1078.56 156.837 1077.93 156.063 1077.93 155.141C1077.93 154.224 1078.56 153.454 1079.41 153.234C1079.63 152.393 1080.4 151.774 1081.31 151.774ZM1202.58 151.774C1203.5 151.774 1204.28 152.403 1204.49 153.254C1205.31 153.497 1205.9 154.25 1205.9 155.141C1205.9 156.037 1205.3 156.794 1204.48 157.033C1204.25 157.859 1203.49 158.465 1202.58 158.465C1201.69 158.465 1200.93 157.869 1200.69 157.052C1199.84 156.837 1199.21 156.063 1199.21 155.141C1199.21 154.224 1199.83 153.454 1200.68 153.234C1200.91 152.393 1201.67 151.774 1202.58 151.774ZM1323.86 151.774C1324.78 151.774 1325.55 152.403 1325.77 153.254C1326.58 153.497 1327.17 154.25 1327.17 155.141C1327.17 156.037 1326.57 156.794 1325.76 157.033C1325.52 157.859 1324.76 158.465 1323.86 158.465C1322.97 158.465 1322.21 157.869 1321.97 157.052C1321.11 156.837 1320.48 156.063 1320.48 155.141C1320.48 154.224 1321.11 153.454 1321.96 153.234C1322.18 152.393 1322.95 151.774 1323.86 151.774ZM1445.14 151.774C1446.05 151.774 1446.83 152.403 1447.04 153.254C1447.86 153.497 1448.45 154.25 1448.45 155.141C1448.45 156.037 1447.85 156.794 1447.03 157.033C1446.8 157.859 1446.04 158.465 1445.14 158.465C1444.24 158.465 1443.49 157.869 1443.25 157.052C1442.39 156.837 1441.76 156.063 1441.76 155.141C1441.76 154.224 1442.38 153.454 1443.23 153.234C1443.46 152.393 1444.22 151.774 1445.14 151.774ZM1566.41 151.774C1567.33 151.774 1568.1 152.403 1568.32 153.254C1569.13 153.497 1569.72 154.25 1569.72 155.141C1569.72 156.037 1569.13 156.794 1568.31 157.033C1568.07 157.859 1567.31 158.465 1566.41 158.465C1565.52 158.465 1564.76 157.869 1564.52 157.052C1563.67 156.837 1563.03 156.063 1563.03 155.141C1563.03 154.224 1563.66 153.454 1564.51 153.234C1564.73 152.393 1565.5 151.774 1566.41 151.774ZM1687.69 151.774C1688.61 151.774 1689.38 152.403 1689.6 153.254C1690.41 153.497 1691 154.25 1691 155.141C1691 156.037 1690.4 156.794 1689.58 157.033C1689.35 157.859 1688.59 158.465 1687.69 158.465C1686.79 158.465 1686.04 157.869 1685.8 157.052C1684.94 156.837 1684.31 156.063 1684.31 155.141C1684.31 154.224 1684.94 153.454 1685.78 153.234C1686.01 152.393 1686.78 151.774 1687.69 151.774Z" fill="white"/>
<path opacity="0.5" fill-rule="evenodd" clip-rule="evenodd" d="M232.379 263.013C233.297 263.013 234.069 263.642 234.287 264.493C235.099 264.736 235.691 265.489 235.691 266.381C235.691 267.277 235.093 268.033 234.274 268.272C234.04 269.099 233.28 269.704 232.379 269.704C231.484 269.704 230.729 269.108 230.489 268.291C229.633 268.077 229 267.303 229 266.381C229 265.464 229.627 264.693 230.475 264.473C230.7 263.633 231.467 263.013 232.379 263.013ZM353.654 263.013C354.573 263.013 355.345 263.642 355.563 264.493C356.375 264.736 356.967 265.489 356.967 266.381C356.967 267.277 356.369 268.033 355.55 268.272C355.316 269.099 354.556 269.704 353.654 269.704C352.76 269.704 352.005 269.108 351.764 268.291C350.909 268.077 350.276 267.303 350.276 266.381C350.276 265.464 350.902 264.693 351.751 264.473C351.976 263.633 352.743 263.013 353.654 263.013ZM474.93 263.013C475.849 263.013 476.621 263.642 476.839 264.493C477.651 264.736 478.243 265.489 478.243 266.381C478.243 267.277 477.644 268.033 476.826 268.272C476.592 269.099 475.832 269.704 474.93 269.704C474.036 269.704 473.28 269.108 473.04 268.291C472.185 268.077 471.551 267.303 471.551 266.381C471.551 265.464 472.178 264.693 473.027 264.473C473.251 263.633 474.018 263.013 474.93 263.013ZM596.206 263.013C597.125 263.013 597.897 263.642 598.114 264.493C598.926 264.736 599.518 265.489 599.518 266.381C599.518 267.277 598.92 268.033 598.101 268.272C597.867 269.099 597.107 269.704 596.206 269.704C595.311 269.704 594.556 269.108 594.316 268.291C593.46 268.077 592.827 267.303 592.827 266.381C592.827 265.464 593.454 264.693 594.302 264.473C594.527 263.633 595.294 263.013 596.206 263.013ZM717.482 263.013C718.4 263.013 719.172 263.642 719.39 264.493C720.202 264.736 720.794 265.489 720.794 266.381C720.794 267.277 720.196 268.033 719.377 268.272C719.143 269.099 718.383 269.704 717.482 269.704C716.587 269.704 715.832 269.108 715.591 268.291C714.736 268.077 714.103 267.303 714.103 266.381C714.103 265.464 714.73 264.693 715.578 264.473C715.803 263.633 716.57 263.013 717.482 263.013ZM838.757 263.013C839.676 263.013 840.448 263.642 840.666 264.493C841.478 264.736 842.07 265.489 842.07 266.381C842.07 267.277 841.472 268.033 840.653 268.272C840.419 269.099 839.659 269.704 838.757 269.704C837.863 269.704 837.107 269.108 836.867 268.291C836.012 268.077 835.379 267.303 835.379 266.381C835.379 265.464 836.005 264.693 836.854 264.473C837.078 263.633 837.846 263.013 838.757 263.013ZM960.033 263.013C960.952 263.013 961.724 263.642 961.942 264.493C962.754 264.736 963.346 265.489 963.346 266.381C963.346 267.277 962.747 268.033 961.929 268.272C961.695 269.099 960.935 269.704 960.033 269.704C959.139 269.704 958.383 269.108 958.143 268.291C957.288 268.077 956.654 267.303 956.654 266.381C956.654 265.464 957.281 264.693 958.13 264.473C958.354 263.633 959.121 263.013 960.033 263.013ZM1081.31 263.013C1082.23 263.013 1083 263.642 1083.22 264.493C1084.03 264.736 1084.62 265.489 1084.62 266.381C1084.62 267.277 1084.02 268.033 1083.2 268.272C1082.97 269.099 1082.21 269.704 1081.31 269.704C1080.41 269.704 1079.66 269.108 1079.42 268.291C1078.56 268.077 1077.93 267.303 1077.93 266.381C1077.93 265.464 1078.56 264.693 1079.41 264.473C1079.63 263.633 1080.4 263.013 1081.31 263.013ZM1202.58 263.013C1203.5 263.013 1204.28 263.642 1204.49 264.493C1205.31 264.736 1205.9 265.489 1205.9 266.381C1205.9 267.277 1205.3 268.033 1204.48 268.272C1204.25 269.099 1203.49 269.704 1202.58 269.704C1201.69 269.704 1200.93 269.108 1200.69 268.291C1199.84 268.077 1199.21 267.303 1199.21 266.381C1199.21 265.464 1199.83 264.693 1200.68 264.473C1200.91 263.633 1201.67 263.013 1202.58 263.013ZM1323.86 263.013C1324.78 263.013 1325.55 263.642 1325.77 264.493C1326.58 264.736 1327.17 265.489 1327.17 266.381C1327.17 267.277 1326.57 268.033 1325.76 268.272C1325.52 269.099 1324.76 269.704 1323.86 269.704C1322.97 269.704 1322.21 269.108 1321.97 268.291C1321.11 268.077 1320.48 267.303 1320.48 266.381C1320.48 265.464 1321.11 264.693 1321.96 264.473C1322.18 263.633 1322.95 263.013 1323.86 263.013ZM1445.14 263.013C1446.05 263.013 1446.83 263.642 1447.04 264.493C1447.86 264.736 1448.45 265.489 1448.45 266.381C1448.45 267.277 1447.85 268.033 1447.03 268.272C1446.8 269.099 1446.04 269.704 1445.14 269.704C1444.24 269.704 1443.49 269.108 1443.25 268.291C1442.39 268.077 1441.76 267.303 1441.76 266.381C1441.76 265.464 1442.38 264.693 1443.23 264.473C1443.46 263.633 1444.22 263.013 1445.14 263.013ZM1566.41 263.013C1567.33 263.013 1568.1 263.642 1568.32 264.493C1569.13 264.736 1569.72 265.489 1569.72 266.381C1569.72 267.277 1569.13 268.033 1568.31 268.272C1568.07 269.099 1567.31 269.704 1566.41 269.704C1565.52 269.704 1564.76 269.108 1564.52 268.291C1563.67 268.077 1563.03 267.303 1563.03 266.381C1563.03 265.464 1563.66 264.693 1564.51 264.473C1564.73 263.633 1565.5 263.013 1566.41 263.013ZM1687.69 263.013C1688.61 263.013 1689.38 263.642 1689.6 264.493C1690.41 264.736 1691 265.489 1691 266.381C1691 267.277 1690.4 268.033 1689.58 268.272C1689.35 269.099 1688.59 269.704 1687.69 269.704C1686.79 269.704 1686.04 269.108 1685.8 268.291C1684.94 268.077 1684.31 267.303 1684.31 266.381C1684.31 265.464 1684.94 264.693 1685.78 264.473C1686.01 263.633 1686.78 263.013 1687.69 263.013Z" fill="white"/>
<path opacity="0.5" fill-rule="evenodd" clip-rule="evenodd" d="M232.379 374.252C233.297 374.252 234.069 374.881 234.287 375.732C235.099 375.975 235.691 376.728 235.691 377.619C235.691 378.515 235.093 379.272 234.274 379.511C234.04 380.337 233.28 380.943 232.379 380.943C231.484 380.943 230.729 380.347 230.489 379.53C229.633 379.315 229 378.541 229 377.619C229 376.702 229.627 375.932 230.475 375.712C230.7 374.871 231.467 374.252 232.379 374.252ZM353.654 374.252C354.573 374.252 355.345 374.881 355.563 375.732C356.375 375.975 356.967 376.728 356.967 377.619C356.967 378.515 356.369 379.272 355.55 379.511C355.316 380.337 354.556 380.943 353.654 380.943C352.76 380.943 352.005 380.347 351.764 379.53C350.909 379.315 350.276 378.541 350.276 377.619C350.276 376.702 350.902 375.932 351.751 375.712C351.976 374.871 352.743 374.252 353.654 374.252ZM474.93 374.252C475.849 374.252 476.621 374.881 476.839 375.732C477.651 375.975 478.243 376.728 478.243 377.619C478.243 378.515 477.644 379.272 476.826 379.511C476.592 380.337 475.832 380.943 474.93 380.943C474.036 380.943 473.28 380.347 473.04 379.53C472.185 379.315 471.551 378.541 471.551 377.619C471.551 376.702 472.178 375.932 473.027 375.712C473.251 374.871 474.018 374.252 474.93 374.252ZM596.206 374.252C597.125 374.252 597.897 374.881 598.114 375.732C598.926 375.975 599.518 376.728 599.518 377.619C599.518 378.515 598.92 379.272 598.101 379.511C597.867 380.337 597.107 380.943 596.206 380.943C595.311 380.943 594.556 380.347 594.316 379.53C593.46 379.315 592.827 378.541 592.827 377.619C592.827 376.702 593.454 375.932 594.302 375.712C594.527 374.871 595.294 374.252 596.206 374.252ZM717.482 374.252C718.4 374.252 719.172 374.881 719.39 375.732C720.202 375.975 720.794 376.728 720.794 377.619C720.794 378.515 720.196 379.272 719.377 379.511C719.143 380.337 718.383 380.943 717.482 380.943C716.587 380.943 715.832 380.347 715.591 379.53C714.736 379.315 714.103 378.541 714.103 377.619C714.103 376.702 714.73 375.932 715.578 375.712C715.803 374.871 716.57 374.252 717.482 374.252ZM838.757 374.252C839.676 374.252 840.448 374.881 840.666 375.732C841.478 375.975 842.07 376.728 842.07 377.619C842.07 378.515 841.472 379.272 840.653 379.511C840.419 380.337 839.659 380.943 838.757 380.943C837.863 380.943 837.107 380.347 836.867 379.53C836.012 379.315 835.379 378.541 835.379 377.619C835.379 376.702 836.005 375.932 836.854 375.712C837.078 374.871 837.846 374.252 838.757 374.252ZM960.033 374.252C960.952 374.252 961.724 374.881 961.942 375.732C962.754 375.975 963.346 376.728 963.346 377.619C963.346 378.515 962.747 379.272 961.929 379.511C961.695 380.337 960.935 380.943 960.033 380.943C959.139 380.943 958.383 380.347 958.143 379.53C957.288 379.315 956.654 378.541 956.654 377.619C956.654 376.702 957.281 375.932 958.13 375.712C958.354 374.871 959.121 374.252 960.033 374.252ZM1081.31 374.252C1082.23 374.252 1083 374.881 1083.22 375.732C1084.03 375.975 1084.62 376.728 1084.62 377.619C1084.62 378.515 1084.02 379.272 1083.2 379.511C1082.97 380.337 1082.21 380.943 1081.31 380.943C1080.41 380.943 1079.66 380.347 1079.42 379.53C1078.56 379.315 1077.93 378.541 1077.93 377.619C1077.93 376.702 1078.56 375.932 1079.41 375.712C1079.63 374.871 1080.4 374.252 1081.31 374.252ZM1202.58 374.252C1203.5 374.252 1204.28 374.881 1204.49 375.732C1205.31 375.975 1205.9 376.728 1205.9 377.619C1205.9 378.515 1205.3 379.272 1204.48 379.511C1204.25 380.337 1203.49 380.943 1202.58 380.943C1201.69 380.943 1200.93 380.347 1200.69 379.53C1199.84 379.315 1199.21 378.541 1199.21 377.619C1199.21 376.702 1199.83 375.932 1200.68 375.712C1200.91 374.871 1201.67 374.252 1202.58 374.252ZM1323.86 374.252C1324.78 374.252 1325.55 374.881 1325.77 375.732C1326.58 375.975 1327.17 376.728 1327.17 377.619C1327.17 378.515 1326.57 379.272 1325.76 379.511C1325.52 380.337 1324.76 380.943 1323.86 380.943C1322.97 380.943 1322.21 380.347 1321.97 379.53C1321.11 379.315 1320.48 378.541 1320.48 377.619C1320.48 376.702 1321.11 375.932 1321.96 375.712C1322.18 374.871 1322.95 374.252 1323.86 374.252ZM1445.14 374.252C1446.05 374.252 1446.83 374.881 1447.04 375.732C1447.86 375.975 1448.45 376.728 1448.45 377.619C1448.45 378.515 1447.85 379.272 1447.03 379.511C1446.8 380.337 1446.04 380.943 1445.14 380.943C1444.24 380.943 1443.49 380.347 1443.25 379.53C1442.39 379.315 1441.76 378.541 1441.76 377.619C1441.76 376.702 1442.38 375.932 1443.23 375.712C1443.46 374.871 1444.22 374.252 1445.14 374.252ZM1566.41 374.252C1567.33 374.252 1568.1 374.881 1568.32 375.732C1569.13 375.975 1569.72 376.728 1569.72 377.619C1569.72 378.515 1569.13 379.272 1568.31 379.511C1568.07 380.337 1567.31 380.943 1566.41 380.943C1565.52 380.943 1564.76 380.347 1564.52 379.53C1563.67 379.315 1563.03 378.541 1563.03 377.619C1563.03 376.702 1563.66 375.932 1564.51 375.712C1564.73 374.871 1565.5 374.252 1566.41 374.252ZM1687.69 374.252C1688.61 374.252 1689.38 374.881 1689.6 375.732C1690.41 375.975 1691 376.728 1691 377.619C1691 378.515 1690.4 379.272 1689.58 379.511C1689.35 380.337 1688.59 380.943 1687.69 380.943C1686.79 380.943 1686.04 380.347 1685.8 379.53C1684.94 379.315 1684.31 378.541 1684.31 377.619C1684.31 376.702 1684.94 375.932 1685.78 375.712C1686.01 374.871 1686.78 374.252 1687.69 374.252Z" fill="white"/>
</g>
</g>
</g>
<defs>
<linearGradient id="paint0_linear" x1="-2.82737" y1="442.501" x2="460.184" y2="-727.145" gradientUnits="userSpaceOnUse">
<stop offset="0.00531915" stop-color="#ED1F60"/>
<stop offset="0.0932" stop-color="#EE285D"/>
<stop offset="0.2395" stop-color="#F04254"/>
<stop offset="0.4261" stop-color="#F46B47"/>
<stop offset="0.6432" stop-color="#FA9334"/>
<stop offset="0.8401" stop-color="#FFCE21"/>
</linearGradient>
<linearGradient id="paint1_linear" x1="1394.79" y1="466.265" x2="1351.74" y2="-202.346" gradientUnits="userSpaceOnUse">
<stop offset="0.00531915" stop-color="#ED1C5F"/>
<stop offset="0.8401" stop-color="#ED1C5F"/>
</linearGradient>
<linearGradient id="paint2_linear" x1="1632.99" y1="114.733" x2="1296.99" y2="115.172" gradientUnits="userSpaceOnUse">
<stop stop-color="#ED1F60" stop-opacity="0.9"/>
<stop offset="0.0885" stop-color="#EE285D" stop-opacity="0.9105"/>
<stop offset="0.2356" stop-color="#F04254" stop-opacity="0.928"/>
<stop offset="0.4234" stop-color="#F46B47" stop-opacity="0.9504"/>
<stop offset="0.642" stop-color="#FAA434" stop-opacity="0.9764"/>
<stop offset="0.8401" stop-color="#FFDE21"/>
</linearGradient>
<linearGradient id="paint3_linear" x1="1345.29" y1="716.819" x2="935.238" y2="350.816" gradientUnits="userSpaceOnUse">
<stop offset="0.00531915" stop-color="#ED1C5F"/>
<stop offset="0.8401" stop-color="#ED1C5F"/>
</linearGradient>
<linearGradient id="paint4_linear" x1="597.509" y1="138.622" x2="550.799" y2="227.563" gradientUnits="userSpaceOnUse">
<stop offset="0.00531915" stop-color="#ED1F60"/>
<stop offset="0.0932" stop-color="#EE285D"/>
<stop offset="0.2395" stop-color="#F04254"/>
<stop offset="0.4261" stop-color="#F46B47"/>
<stop offset="0.6432" stop-color="#FAA434"/>
<stop offset="0.8401" stop-color="#FFDE21"/>
</linearGradient>
<linearGradient id="paint5_linear" x1="720.006" y1="403.975" x2="673.296" y2="492.916" gradientUnits="userSpaceOnUse">
<stop offset="0.00531915" stop-color="#ED1F60"/>
<stop offset="0.0932" stop-color="#EE285D"/>
<stop offset="0.2395" stop-color="#F04254"/>
<stop offset="0.4261" stop-color="#F46B47"/>
<stop offset="0.6432" stop-color="#FAA434"/>
<stop offset="0.8401" stop-color="#FFDE21"/>
</linearGradient>
<linearGradient id="paint6_linear" x1="1175.08" y1="-6.02546" x2="1375.01" y2="-141.281" gradientUnits="userSpaceOnUse">
<stop offset="0.00531915" stop-color="#ED1F60"/>
<stop offset="0.0932" stop-color="#EE285D"/>
<stop offset="0.2395" stop-color="#F04254"/>
<stop offset="0.4261" stop-color="#F46B47"/>
<stop offset="0.6432" stop-color="#FAA434"/>
<stop offset="0.8401" stop-color="#FFDE21"/>
</linearGradient>
<linearGradient id="paint7_linear" x1="1330.07" y1="210.935" x2="1238.47" y2="385.366" gradientUnits="userSpaceOnUse">
<stop offset="0.00531915" stop-color="#ED1F60" stop-opacity="0.6"/>
<stop offset="0.0932" stop-color="#EE285D" stop-opacity="0.6421"/>
<stop offset="0.2395" stop-color="#F04254" stop-opacity="0.7122"/>
<stop offset="0.4261" stop-color="#F46B47" stop-opacity="0.8016"/>
<stop offset="0.6432" stop-color="#FAA434" stop-opacity="0.9056"/>
<stop offset="0.8401" stop-color="#FFDE21"/>
</linearGradient>
<linearGradient id="paint8_linear" x1="709.432" y1="-64.9529" x2="642.919" y2="61.6956" gradientUnits="userSpaceOnUse">
<stop offset="0.00531915" stop-color="#ED1F60" stop-opacity="0.6"/>
<stop offset="0.0932" stop-color="#EE285D" stop-opacity="0.6421"/>
<stop offset="0.2395" stop-color="#F04254" stop-opacity="0.7122"/>
<stop offset="0.4261" stop-color="#F46B47" stop-opacity="0.8016"/>
<stop offset="0.6432" stop-color="#FAA434" stop-opacity="0.9056"/>
<stop offset="0.8401" stop-color="#FFDE21"/>
</linearGradient>
<linearGradient id="paint9_linear" x1="286.363" y1="85.0471" x2="219.85" y2="211.696" gradientUnits="userSpaceOnUse">
<stop offset="0.00531915" stop-color="#ED1F60" stop-opacity="0.6"/>
<stop offset="0.0932" stop-color="#EE285D" stop-opacity="0.6421"/>
<stop offset="0.2395" stop-color="#F04254" stop-opacity="0.7122"/>
<stop offset="0.4261" stop-color="#F46B47" stop-opacity="0.8016"/>
<stop offset="0.6432" stop-color="#FAA434" stop-opacity="0.9056"/>
<stop offset="0.8401" stop-color="#FFDE21"/>
</linearGradient>
<linearGradient id="paint10_linear" x1="1135.2" y1="424.463" x2="837.701" y2="424.852" gradientUnits="userSpaceOnUse">
<stop stop-color="#ED1F60" stop-opacity="0.9"/>
<stop offset="0.0885" stop-color="#EE285D" stop-opacity="0.9105"/>
<stop offset="0.2356" stop-color="#F04254" stop-opacity="0.928"/>
<stop offset="0.4234" stop-color="#F46B47" stop-opacity="0.9504"/>
<stop offset="0.642" stop-color="#FAA434" stop-opacity="0.9764"/>
<stop offset="0.8401" stop-color="#FFDE21"/>
</linearGradient>
<linearGradient id="paint11_linear" x1="1104.12" y1="314.019" x2="614.973" y2="314.659" gradientUnits="userSpaceOnUse">
<stop stop-color="#ED1F60" stop-opacity="0.9"/>
<stop offset="0.0885" stop-color="#EE285D" stop-opacity="0.9105"/>
<stop offset="0.2356" stop-color="#F04254" stop-opacity="0.928"/>
<stop offset="0.4234" stop-color="#F46B47" stop-opacity="0.9504"/>
<stop offset="0.642" stop-color="#FAA434" stop-opacity="0.9764"/>
<stop offset="0.8401" stop-color="#FFDE21"/>
</linearGradient>
<linearGradient id="paint12_linear" x1="472.144" y1="314.019" x2="-17.0075" y2="314.659" gradientUnits="userSpaceOnUse">
<stop stop-color="#ED1F60" stop-opacity="0.9"/>
<stop offset="0.0885" stop-color="#EE285D" stop-opacity="0.9105"/>
<stop offset="0.2356" stop-color="#F04254" stop-opacity="0.928"/>
<stop offset="0.4234" stop-color="#F46B47" stop-opacity="0.9504"/>
<stop offset="0.642" stop-color="#FAA434" stop-opacity="0.9764"/>
<stop offset="0.8401" stop-color="#FFDE21"/>
</linearGradient>
<linearGradient id="paint13_linear" x1="891.036" y1="144.53" x2="357.03" y2="145.23" gradientUnits="userSpaceOnUse">
<stop stop-color="#ED1F60" stop-opacity="0.9"/>
<stop offset="0.0885" stop-color="#EE285D" stop-opacity="0.9105"/>
<stop offset="0.2356" stop-color="#F04254" stop-opacity="0.928"/>
<stop offset="0.4234" stop-color="#F46B47" stop-opacity="0.9504"/>
<stop offset="0.642" stop-color="#FAA434" stop-opacity="0.9764"/>
<stop offset="0.8401" stop-color="#FFDE21"/>
</linearGradient>
<linearGradient id="paint14_linear" x1="999.587" y1="132.348" x2="1315.17" y2="-171.535" gradientUnits="userSpaceOnUse">
<stop stop-color="#ED1F60" stop-opacity="0.9"/>
<stop offset="0.0885" stop-color="#EE285D" stop-opacity="0.9105"/>
<stop offset="0.2356" stop-color="#F04254" stop-opacity="0.928"/>
<stop offset="0.4234" stop-color="#F46B47" stop-opacity="0.9504"/>
<stop offset="0.642" stop-color="#FAA434" stop-opacity="0.9764"/>
<stop offset="0.8401" stop-color="#FFDE21"/>
</linearGradient>
<linearGradient id="paint15_linear" x1="1599.15" y1="392.348" x2="1914.73" y2="88.4653" gradientUnits="userSpaceOnUse">
<stop stop-color="#ED1F60" stop-opacity="0.9"/>
<stop offset="0.0885" stop-color="#EE285D" stop-opacity="0.9105"/>
<stop offset="0.2356" stop-color="#F04254" stop-opacity="0.928"/>
<stop offset="0.4234" stop-color="#F46B47" stop-opacity="0.9504"/>
<stop offset="0.642" stop-color="#FAA434" stop-opacity="0.9764"/>
<stop offset="0.8401" stop-color="#FFDE21"/>
</linearGradient>
<linearGradient id="paint16_linear" x1="614.131" y1="324.296" x2="394.886" y2="324.582" gradientUnits="userSpaceOnUse">
<stop stop-color="#ED1F60" stop-opacity="0.9"/>
<stop offset="0.0885" stop-color="#EE285D" stop-opacity="0.9105"/>
<stop offset="0.2356" stop-color="#F04254" stop-opacity="0.928"/>
<stop offset="0.4234" stop-color="#F46B47" stop-opacity="0.9504"/>
<stop offset="0.642" stop-color="#FAA434" stop-opacity="0.9764"/>
<stop offset="0.8401" stop-color="#FFDE21"/>
</linearGradient>
<clipPath id="clip0">
<rect width="1748" height="939" fill="white" transform="translate(86 -150)"/>
</clipPath>
</defs>
</svg>
