<svg width="21" height="24" viewBox="0 0 21 24" fill="none" xmlns="http://www.w3.org/2000/svg">
<path d="M14.5225 0C16.1663 0 17.577 0.417 18.7456 1.251C19.9172 2.085 20.5 3.096 20.5 4.284V16.284C20.5 17.445 19.9411 18.438 18.8263 19.257C17.7085 20.079 16.3516 20.508 14.7466 20.556L17.5889 23.262C17.7324 23.397 17.7653 23.55 17.6935 23.73C17.6218 23.907 17.4873 24 17.293 24H3.20695C3.00969 24 2.87819 23.907 2.80646 23.73C2.73473 23.553 2.77059 23.397 2.91107 23.262L5.75339 20.556C4.14842 20.511 2.7945 20.079 1.67371 19.257C0.555912 18.435 0 17.448 0 16.284V4.287C0 3.099 0.582811 2.088 1.75441 1.254C2.92601 0.42 4.33073 0.00299995 5.97755 0.00299995L14.5225 0ZM17.9356 10.287V3.429H2.56736V10.284L17.9356 10.287ZM8.43731 17.25C8.93344 17.751 9.54017 18 10.2515 18C10.9628 18 11.5666 17.748 12.0657 17.25C12.5618 16.752 12.8129 16.143 12.8129 15.429C12.8129 14.715 12.5618 14.109 12.0657 13.608C11.5666 13.11 10.9628 12.858 10.2515 12.858C9.54017 12.858 8.93643 13.11 8.43731 13.608C7.93818 14.109 7.69011 14.715 7.69011 15.429C7.69011 16.143 7.93818 16.752 8.43731 17.25Z" fill="black"/>
</svg>