<svg width="26" height="23" viewBox="0 0 26 23" fill="none" xmlns="http://www.w3.org/2000/svg">
<path d="M25.0044 22.8293H0.995593C0.731108 22.828 0.477888 22.7213 0.291314 22.5326C0.104741 22.3438 0 22.0884 0 21.8221C0 21.5558 0.104741 21.3004 0.291314 21.1116C0.477888 20.9229 0.731108 20.8162 0.995593 20.8149H1.32905V1.34291C1.32905 0.986745 1.46958 0.645172 1.71972 0.393328C1.96986 0.141484 2.30913 0 2.66288 0H12.6665C13.0203 0 13.3596 0.141484 13.6097 0.393328C13.8598 0.645172 14.0004 0.986745 14.0004 1.34291V4.13345C15.4736 4.38591 19.3957 5.06878 21.8126 5.57908C23.4658 5.92822 23.3418 6.81657 23.3418 8.67245V20.8149H25.0044C25.2689 20.8162 25.5221 20.9229 25.7087 21.1116C25.8953 21.3004 26 21.5558 26 21.8221C26 22.0884 25.8953 22.3438 25.7087 22.5326C25.5221 22.7213 25.2689 22.828 25.0044 22.8293H25.0044ZM11.3327 6.23172C11.3327 6.0036 11.2427 5.78483 11.0825 5.62352C10.9223 5.46222 10.705 5.3716 10.4784 5.3716H5.51791C5.29134 5.3716 5.07404 5.46222 4.91383 5.62352C4.75361 5.78483 4.66361 6.0036 4.66361 6.23172V6.52582C4.66361 6.63878 4.68571 6.75062 4.72864 6.85498C4.77157 6.95933 4.8345 7.05416 4.91384 7.13402C4.99317 7.21389 5.08735 7.27725 5.191 7.32047C5.29465 7.3637 5.40574 7.38594 5.51793 7.38594H10.4784C10.705 7.38594 10.9223 7.29532 11.0825 7.13402C11.2427 6.97271 11.3327 6.75394 11.3327 6.52582V6.23172ZM11.3327 10.9319C11.3327 10.7037 11.2427 10.485 11.0825 10.3237C10.9223 10.1624 10.705 10.0717 10.4784 10.0717H5.51791C5.29134 10.0717 5.07404 10.1624 4.91383 10.3237C4.75361 10.485 4.66361 10.7037 4.66361 10.9319V11.226C4.66361 11.3389 4.68571 11.4508 4.72864 11.5551C4.77157 11.6595 4.8345 11.7543 4.91384 11.8342C4.99317 11.914 5.08735 11.9774 5.191 12.0206C5.29465 12.0638 5.40574 12.0861 5.51793 12.0861H10.4784C10.705 12.0861 10.9223 11.9955 11.0825 11.8342C11.2427 11.6729 11.3327 11.4541 11.3327 11.226V10.9319ZM11.3327 15.632C11.3327 15.5191 11.3106 15.4072 11.2677 15.3029C11.2248 15.1985 11.1618 15.1037 11.0825 15.0238C11.0032 14.9439 10.909 14.8806 10.8054 14.8374C10.7017 14.7941 10.5906 14.7719 10.4784 14.7719H5.51791C5.40572 14.7719 5.29463 14.7941 5.19098 14.8374C5.08733 14.8806 4.99315 14.9439 4.91382 15.0238C4.83449 15.1037 4.77156 15.1985 4.72863 15.3029C4.6857 15.4072 4.6636 15.5191 4.66361 15.632V15.9261C4.6636 16.0391 4.6857 16.1509 4.72863 16.2553C4.77157 16.3596 4.8345 16.4544 4.91383 16.5343C4.99316 16.6142 5.08734 16.6775 5.19099 16.7208C5.29465 16.764 5.40574 16.7862 5.51793 16.7862H10.4784C10.5906 16.7862 10.7017 16.764 10.8054 16.7208C10.909 16.6775 11.0032 16.6142 11.0825 16.5343C11.1618 16.4544 11.2248 16.3596 11.2677 16.2553C11.3106 16.1509 11.3327 16.0391 11.3327 15.9261V15.632ZM20.6695 10.9319C20.6695 10.8189 20.6474 10.7071 20.6045 10.6027C20.5615 10.4984 20.4986 10.4035 20.4193 10.3237C20.3399 10.2438 20.2458 10.1804 20.1421 10.1372C20.0385 10.094 19.9274 10.0717 19.8152 10.0717H16.8554C16.7432 10.0717 16.6322 10.094 16.5285 10.1372C16.4249 10.1804 16.3307 10.2438 16.2513 10.3237C16.172 10.4035 16.1091 10.4984 16.0661 10.6027C16.0232 10.7071 16.0011 10.8189 16.0011 10.9319V11.226C16.0011 11.3389 16.0232 11.4508 16.0661 11.5551C16.1091 11.6595 16.172 11.7543 16.2513 11.8342C16.3307 11.914 16.4249 11.9774 16.5285 12.0206C16.6322 12.0638 16.7432 12.0861 16.8554 12.0861H19.8152C19.9274 12.0861 20.0385 12.0638 20.1421 12.0206C20.2458 11.9774 20.3399 11.914 20.4193 11.8342C20.4986 11.7543 20.5615 11.6595 20.6045 11.5551C20.6474 11.4508 20.6695 11.3389 20.6695 11.226V10.9319ZM20.6695 15.632C20.6695 15.5191 20.6474 15.4072 20.6045 15.3028C20.5615 15.1985 20.4986 15.1037 20.4193 15.0238C20.3399 14.9439 20.2458 14.8806 20.1421 14.8373C20.0385 14.7941 19.9274 14.7719 19.8152 14.7719H16.8554C16.7432 14.7719 16.6321 14.7941 16.5285 14.8373C16.4248 14.8806 16.3307 14.9439 16.2513 15.0238C16.172 15.1037 16.1091 15.1985 16.0661 15.3028C16.0232 15.4072 16.0011 15.5191 16.0011 15.632V15.9261C16.0011 16.0391 16.0232 16.1509 16.0661 16.2553C16.1091 16.3596 16.172 16.4544 16.2513 16.5343C16.3307 16.6142 16.4248 16.6775 16.5285 16.7208C16.6321 16.764 16.7432 16.7862 16.8554 16.7862H19.8152C19.9274 16.7862 20.0385 16.764 20.1421 16.7208C20.2458 16.6775 20.3399 16.6142 20.4193 16.5343C20.4986 16.4544 20.5615 16.3596 20.6045 16.2553C20.6474 16.1509 20.6695 16.0391 20.6695 15.9261V15.632Z" fill="black"/>
</svg>