<svg width="26" height="19" viewBox="0 0 26 19" fill="none" xmlns="http://www.w3.org/2000/svg">
<path d="M15.1586 10.5207V10.4642L14.8167 5.91378C14.8069 5.79001 14.7545 5.68323 14.6594 5.59343C14.5643 5.50364 14.4546 5.45874 14.3303 5.45874H11.6734C11.5491 5.45874 11.4393 5.50364 11.3443 5.59343C11.2492 5.68323 11.1968 5.79001 11.187 5.91378L10.8451 10.4642V10.5207C10.8353 10.6347 10.8731 10.7294 10.9584 10.8046C11.0438 10.8798 11.1437 10.9175 11.2583 10.9175H14.7435C14.8581 10.9175 14.9581 10.8798 15.0434 10.8046C15.1287 10.7294 15.1665 10.6347 15.1568 10.5207H15.1586ZM26 17.1625C26 17.8542 25.7812 18.2 25.3436 18.2H15.2866C15.4109 18.2 15.5158 18.1551 15.6011 18.0653C15.6864 17.9755 15.7242 17.8687 15.7145 17.745L15.4292 14.1046C15.4195 13.9808 15.367 13.874 15.272 13.7842C15.1769 13.6944 15.0672 13.6495 14.9428 13.6495H11.0572C10.9328 13.6495 10.8231 13.6944 10.728 13.7842C10.633 13.874 10.5805 13.9808 10.5708 14.1046L10.2855 17.745C10.2758 17.8687 10.3136 17.9755 10.3989 18.0653C10.4842 18.1551 10.5891 18.2 10.7134 18.2H0.656446C0.218815 18.2 0 17.8542 0 17.1625C0 16.6504 0.123731 16.1007 0.371194 15.5134L6.32858 0.668023C6.40416 0.488431 6.52789 0.331896 6.69977 0.198416C6.87165 0.064936 7.05268 -0.00119706 7.24284 1.63981e-05H12.0848C11.9605 1.63981e-05 11.8508 0.0449141 11.7557 0.13471C11.6606 0.224505 11.6082 0.331289 11.5984 0.455062L11.3845 3.18533C11.3747 3.3176 11.4125 3.42681 11.4979 3.51296C11.5832 3.59912 11.688 3.64159 11.8124 3.64038H14.184C14.3083 3.64038 14.4132 3.59791 14.4985 3.51296C14.5838 3.42802 14.6216 3.31881 14.6119 3.18533L14.3979 0.455062C14.3882 0.331289 14.3357 0.224505 14.2407 0.13471C14.1456 0.0449141 14.0359 1.63815e-05 13.9115 1.63981e-05H18.7535C18.9437 1.63981e-05 19.1247 0.0661495 19.2966 0.198416C19.4685 0.330682 19.5922 0.487218 19.6678 0.668023L25.6252 15.5134C25.8726 16.1007 25.9963 16.6504 25.9963 17.1625H26Z" fill="url(#paint0_linear)"/>
<defs>
<linearGradient id="paint0_linear" x1="0" y1="0" x2="27.7083" y2="3.14376" gradientUnits="userSpaceOnUse">
<stop stop-color="#FF8212"/>
<stop offset="1" stop-color="#ED4454"/>
</linearGradient>
</defs>
</svg>
