<svg width="401" height="314" viewBox="0 0 401 314" fill="none" xmlns="http://www.w3.org/2000/svg">
<path d="M106.852 234.047L170.411 217.433L170.053 296.39L106.512 313.022L106.852 234.047Z" fill="#D43041"/>
<path d="M168.521 216.842C168.217 216.753 167.931 216.646 167.626 216.556C167.018 216.341 166.428 216.109 165.838 215.876C165.659 215.805 165.463 215.733 165.284 215.662C164.515 215.34 163.746 215 162.977 214.625C162.78 214.535 162.583 214.428 162.386 214.321C161.832 214.034 161.26 213.748 160.705 213.444C160.437 213.301 160.169 213.14 159.901 212.979C159.418 212.711 158.953 212.425 158.47 212.139C158.166 211.96 157.88 211.763 157.576 211.584C157.129 211.298 156.682 210.994 156.234 210.69C155.948 210.493 155.644 210.297 155.358 210.082C154.929 209.778 154.5 209.456 154.07 209.134C153.766 208.902 153.445 208.669 153.141 208.419C152.729 208.097 152.318 207.757 151.907 207.4C151.602 207.131 151.281 206.881 150.977 206.613C150.601 206.291 150.243 205.951 149.886 205.629C149.528 205.289 149.152 204.967 148.795 204.628C148.473 204.324 148.169 204.019 147.847 203.698C147.418 203.286 147.006 202.857 146.577 202.428C146.291 202.124 146.005 201.82 145.719 201.498C145.254 201.015 144.807 200.514 144.36 199.996C144.091 199.692 143.823 199.37 143.555 199.066C143.018 198.422 142.482 197.778 141.945 197.116C141.713 196.83 141.498 196.544 141.266 196.258C140.443 195.185 139.62 194.094 138.833 192.985C138.708 192.806 138.601 192.627 138.476 192.466C137.51 191.054 136.562 189.623 135.65 188.121C135.614 188.085 135.596 188.031 135.561 187.995C134.845 186.815 134.166 185.599 133.486 184.365C133.307 184.043 133.128 183.721 132.967 183.381C132.395 182.308 131.859 181.235 131.322 180.144C131.215 179.93 131.108 179.733 131.018 179.519C130.41 178.249 129.838 176.961 129.301 175.673C129.158 175.352 129.033 175.012 128.89 174.69C128.461 173.617 128.032 172.544 127.62 171.453C127.495 171.131 127.37 170.791 127.245 170.469C126.798 169.235 126.368 167.983 125.975 166.732C125.957 166.66 125.921 166.571 125.903 166.481C125.528 165.301 125.188 164.103 124.848 162.904C124.759 162.547 124.669 162.207 124.58 161.849C124.258 160.597 123.936 159.345 123.668 158.076C123.596 157.772 123.525 157.486 123.471 157.199C123.203 155.93 122.952 154.66 122.72 153.372C122.684 153.122 122.648 152.871 122.595 152.621C122.434 151.673 122.291 150.725 122.166 149.778C122.094 149.277 122.04 148.758 121.987 148.24C121.915 147.578 121.826 146.934 121.754 146.272C121.683 145.646 121.647 145.02 121.593 144.395C121.558 143.876 121.504 143.357 121.468 142.839C121.414 142.052 121.379 141.265 121.343 140.478C121.325 140.138 121.307 139.816 121.289 139.476C121.253 138.332 121.236 137.205 121.236 136.061C121.236 134.397 121.307 132.77 121.397 131.16C121.414 130.964 121.414 130.767 121.432 130.588C121.522 129.068 121.665 127.566 121.844 126.099C121.879 125.849 121.897 125.616 121.933 125.366C122.112 123.935 122.327 122.523 122.577 121.128C122.613 120.877 122.666 120.645 122.72 120.394C122.988 118.999 123.274 117.622 123.614 116.299C123.668 116.12 123.704 115.941 123.757 115.762C124.079 114.493 124.455 113.241 124.848 112.007C124.902 111.864 124.938 111.721 124.991 111.578C125.403 110.326 125.85 109.11 126.333 107.911C126.458 107.607 126.583 107.321 126.69 107.017C127.102 106.034 127.531 105.068 127.996 104.12C128.121 103.87 128.228 103.619 128.353 103.387C128.944 102.224 129.552 101.098 130.195 100.007C130.446 99.5953 130.714 99.2198 130.964 98.8263C131.429 98.0931 131.894 97.342 132.377 96.6445C132.485 96.5014 132.574 96.3762 132.681 96.2332C133.325 95.339 133.987 94.4984 134.666 93.6758C134.774 93.5506 134.863 93.4254 134.97 93.3002C135.722 92.4239 136.508 91.5833 137.313 90.7965C137.51 90.5997 137.725 90.4209 137.921 90.2242C138.547 89.634 139.191 89.0617 139.853 88.5073C140.103 88.2927 140.354 88.0781 140.622 87.8814C141.373 87.2912 142.142 86.7189 142.929 86.2003C143.054 86.1288 143.161 86.0393 143.286 85.9499C144.199 85.3597 145.129 84.8232 146.058 84.3404C146.327 84.1973 146.595 84.0721 146.845 83.9469C147.579 83.5892 148.312 83.2673 149.063 82.9633C149.349 82.856 149.635 82.7308 149.921 82.6235C150.923 82.2479 151.942 81.9082 152.962 81.6399L89.4201 98.254C88.3829 98.5223 87.3814 98.8621 86.3799 99.2377C86.0937 99.345 85.8076 99.4701 85.5215 99.5774C84.7703 99.8815 84.0371 100.203 83.3039 100.561C83.0356 100.686 82.7673 100.811 82.517 100.955C81.5691 101.455 80.6391 101.992 79.7449 102.564C79.6198 102.636 79.5125 102.725 79.3873 102.814C78.6004 103.333 77.8314 103.905 77.0802 104.496C76.8299 104.692 76.5616 104.907 76.3112 105.121C75.6495 105.676 75.0057 106.248 74.3798 106.838C74.1831 107.035 73.9684 107.214 73.7717 107.411C73.0206 108.144 72.3052 108.913 71.5899 109.718C71.5362 109.789 71.4826 109.843 71.4289 109.914C71.3216 110.04 71.2322 110.165 71.1249 110.29C70.4453 111.113 69.7836 111.953 69.1398 112.847C69.0325 112.99 68.9431 113.116 68.8358 113.259C68.7821 113.33 68.7285 113.402 68.6748 113.491C68.2456 114.117 67.8343 114.797 67.4229 115.44C67.1726 115.834 66.9043 116.209 66.6539 116.621C66.636 116.657 66.6003 116.692 66.5824 116.728C66.0101 117.694 65.4557 118.713 64.9371 119.733C64.9013 119.822 64.8477 119.911 64.8119 120.001C64.6867 120.233 64.5794 120.502 64.4721 120.734C64.1859 121.342 63.8819 121.95 63.6137 122.576C63.4527 122.916 63.3275 123.292 63.1845 123.649C63.0593 123.935 62.9341 124.239 62.8268 124.543C62.7195 124.794 62.6122 125.044 62.5227 125.295C62.183 126.189 61.861 127.083 61.557 127.995C61.5391 128.067 61.5212 128.138 61.4855 128.21C61.4318 128.353 61.3961 128.496 61.3603 128.639C61.1457 129.301 60.9311 129.944 60.7522 130.624C60.5913 131.196 60.4303 131.804 60.2873 132.394C60.2336 132.573 60.18 132.752 60.1442 132.931C60.1084 133.038 60.0905 133.146 60.0548 133.253C59.8402 134.129 59.6434 135.005 59.4646 135.9C59.3931 136.275 59.3215 136.651 59.25 137.026C59.1963 137.277 59.1606 137.509 59.1069 137.76C59.0533 138.028 58.9996 138.296 58.9639 138.564C58.8208 139.459 58.6777 140.353 58.5525 141.265C58.5168 141.497 58.4989 141.748 58.4631 141.98C58.4273 142.231 58.4094 142.463 58.3737 142.713C58.32 143.161 58.2664 143.59 58.2127 144.037C58.1233 144.967 58.0339 145.915 57.9802 146.862C57.9802 146.988 57.9623 147.095 57.9623 147.22C57.9445 147.417 57.9445 147.596 57.9266 147.792C57.8908 148.472 57.855 149.134 57.8193 149.813C57.7835 150.761 57.7656 151.727 57.7656 152.693C57.7656 152.746 57.7656 152.782 57.7656 152.836C57.7656 153.891 57.7835 154.964 57.8014 156.019C57.8014 156.055 57.8014 156.073 57.8014 156.108C57.8193 156.43 57.8372 156.77 57.855 157.092C57.8908 157.807 57.9087 158.523 57.9623 159.256C57.9623 159.328 57.9802 159.399 57.9802 159.471C58.016 159.971 58.0697 160.49 58.1054 160.991C58.1412 161.527 58.177 162.082 58.2306 162.618C58.2306 162.708 58.2485 162.797 58.2664 162.886C58.3379 163.53 58.4094 164.192 58.4989 164.836C58.5525 165.283 58.5883 165.748 58.6598 166.195C58.6777 166.267 58.6777 166.338 58.6956 166.392C58.8208 167.322 58.9817 168.252 59.1248 169.182C59.1606 169.432 59.1963 169.664 59.2321 169.915C59.2321 169.933 59.2321 169.951 59.25 169.969C59.4646 171.256 59.7329 172.526 60.0011 173.796C60.019 173.885 60.0369 173.992 60.0548 174.082C60.0905 174.279 60.1621 174.475 60.1978 174.672C60.484 175.942 60.788 177.194 61.1099 178.445C61.1636 178.66 61.1993 178.875 61.2709 179.089C61.3066 179.232 61.3603 179.375 61.3961 179.519C61.718 180.717 62.0756 181.897 62.4333 183.077C62.4691 183.167 62.487 183.256 62.5049 183.346C62.8983 184.615 63.3275 185.849 63.7746 187.083C63.8104 187.191 63.8462 187.316 63.8998 187.423C63.9713 187.638 64.0608 187.835 64.1502 188.049C64.5615 189.14 64.9728 190.213 65.4199 191.286C65.563 191.608 65.6882 191.948 65.8313 192.27C66.3857 193.575 66.958 194.863 67.5481 196.115C67.566 196.168 67.6018 196.222 67.6197 196.276C67.6912 196.437 67.7806 196.58 67.8521 196.741C68.3887 197.832 68.9252 198.923 69.4975 199.978C69.6763 200.3 69.8373 200.639 70.0161 200.961C70.6957 202.195 71.3753 203.411 72.0906 204.592C72.0906 204.61 72.1085 204.61 72.1085 204.628C72.1264 204.663 72.1443 204.681 72.1622 204.717C73.0742 206.201 74.0221 207.65 74.9878 209.063C75.0594 209.17 75.1309 209.295 75.2203 209.403C75.2561 209.456 75.3097 209.51 75.3455 209.581C76.1324 210.708 76.9372 211.799 77.7777 212.872C77.8493 212.961 77.9208 213.069 77.9923 213.158C78.1533 213.355 78.3142 213.534 78.4573 213.73C78.9938 214.392 79.5303 215.036 80.0669 215.68C80.2099 215.841 80.353 216.037 80.4961 216.198C80.6213 216.341 80.7465 216.485 80.8716 216.61C81.3187 217.11 81.7658 217.611 82.2308 218.094C82.4275 218.309 82.6243 218.523 82.821 218.738C82.9104 218.827 83.0177 218.917 83.1071 219.024C83.5185 219.453 83.9477 219.865 84.359 220.276C84.5915 220.508 84.8419 220.759 85.0744 220.991C85.1459 221.063 85.2353 221.134 85.3068 221.206C85.6645 221.546 86.0401 221.886 86.3978 222.207C86.6839 222.458 86.97 222.726 87.2562 222.994C87.3277 223.066 87.4171 223.119 87.4887 223.191C87.7927 223.459 88.1146 223.71 88.4365 223.978C88.7406 224.228 89.0446 224.497 89.3486 224.747C89.4559 224.836 89.5632 224.908 89.6705 224.997C89.9745 225.248 90.2965 225.48 90.6184 225.713C90.9045 225.927 91.1728 226.142 91.4589 226.356C91.602 226.464 91.7629 226.553 91.906 226.66C92.1921 226.875 92.4962 227.072 92.7823 227.269C93.0148 227.429 93.2473 227.608 93.4798 227.751C93.6944 227.894 93.909 228.02 94.1236 228.163C94.4098 228.359 94.7138 228.538 95.0178 228.717C95.1966 228.824 95.3576 228.95 95.5364 229.039C95.8405 229.218 96.1445 229.379 96.4485 229.558C96.7168 229.719 96.985 229.862 97.2533 230.023C97.3606 230.076 97.4679 230.148 97.5752 230.201C98.0223 230.434 98.4694 230.666 98.9344 230.881C99.1311 230.988 99.3278 231.096 99.5424 231.185C99.5782 231.203 99.614 231.221 99.6676 231.239C100.365 231.579 101.063 231.883 101.76 232.187C101.796 232.204 101.814 232.204 101.849 232.222C102.028 232.294 102.225 232.365 102.404 232.437C102.905 232.634 103.405 232.848 103.924 233.027C104.013 233.063 104.103 233.081 104.21 233.117C104.514 233.224 104.8 233.313 105.104 233.403C105.462 233.51 105.802 233.635 106.159 233.743C106.446 233.832 106.732 233.903 107 233.993L170.542 217.379C169.773 217.254 169.147 217.039 168.521 216.842Z" fill="url(#paint0_linear)"/>
<path d="M107.806 19.5472L107.466 98.5226C80.1398 91.0113 57.8564 115.262 57.6776 152.693C57.5166 190.106 79.5496 226.553 106.876 234.065L106.536 313.04C47.3407 296.748 -0.35568 217.844 0.0019986 136.812C0.359677 55.78 48.6283 3.27289 107.806 19.5472Z" fill="url(#paint1_linear)"/>
<path d="M107.805 19.547L171.346 2.93286L171.006 81.8903L107.465 98.5045L107.805 19.547Z" fill="#D33041"/>
<path d="M77.169 17.2222C77.5088 17.1686 77.8665 17.1149 78.2063 17.0791C79.637 16.9182 81.0677 16.793 82.5342 16.7036C82.7488 16.6857 82.9813 16.6857 83.2138 16.6857C84.5014 16.632 85.789 16.5963 87.0767 16.6142C87.3449 16.6142 87.6132 16.6142 87.8636 16.6142C89.2764 16.632 90.7071 16.7036 92.1378 16.8109C92.4061 16.8288 92.6922 16.8466 92.9605 16.8824C93.8189 16.9539 94.6952 17.0791 95.5715 17.1686C96.573 17.2937 97.5924 17.4189 98.5939 17.5799C99.4166 17.7051 100.239 17.866 101.08 18.027C101.92 18.1879 102.761 18.3489 103.619 18.5456C104.996 18.8496 106.391 19.1715 107.786 19.565L171.328 2.95085C170.255 2.6647 169.2 2.37856 168.144 2.14607C167.823 2.07453 167.483 2.02088 167.161 1.94935C166.32 1.75262 165.462 1.59167 164.621 1.43071C164.103 1.32341 163.566 1.19822 163.048 1.1088C162.743 1.05515 162.439 1.03727 162.135 0.983615C161.116 0.82266 160.115 0.697472 159.113 0.572285C158.594 0.518633 158.094 0.41133 157.575 0.357678C157.217 0.32191 156.86 0.304026 156.502 0.268259C156.234 0.250375 155.948 0.214607 155.679 0.196723C154.41 0.107303 153.122 0.0178839 151.87 0C151.709 0 151.566 0 151.405 0C151.137 0 150.869 0 150.618 0C149.313 0 148.025 0.0178839 146.755 0.0715356C146.541 0.0894195 146.308 0.0894195 146.094 0.0894195C145.986 0.0894195 145.861 0.0894196 145.754 0.107303C144.412 0.196723 143.089 0.32191 141.766 0.464982C141.426 0.500749 141.086 0.554401 140.728 0.608053C139.995 0.697472 139.28 0.786892 138.547 0.912079C138.153 0.983615 137.778 1.05515 137.384 1.12669C137.009 1.19822 136.651 1.25187 136.293 1.34129C134.916 1.60955 133.557 1.91358 132.198 2.27126L68.6562 18.8854C69.9975 18.5277 71.3746 18.2416 72.7517 17.9554C73.1093 17.8839 73.4849 17.8124 73.8426 17.7408C74.9335 17.5441 76.0602 17.3653 77.169 17.2222Z" fill="url(#paint2_linear)"/>
<path d="M59.9203 175.8C55.3328 156.733 57.4328 129.513 67.4999 115C72.3444 108.016 78.9999 100.5 90.9999 98C97.0877 96.29 102 97.5 107 98L319.98 45.7064C355.231 37.225 390.683 58.9257 399.164 94.1765C407.646 129.427 385.945 164.879 350.694 173.361L137.5 226C125.749 228.827 116 232 107 234C85 229 65.8519 200.453 60.54 178.375L59.9203 175.8Z" fill="url(#paint3_linear)" fill-opacity="0.3"/>
<path d="M217.597 74.7456C243.132 81.5827 263.66 115.386 263.461 150.27C263.261 185.155 242.401 207.862 216.865 201.025C191.33 194.188 170.802 160.385 171.001 125.5C171.218 90.6157 192.062 67.9084 217.597 74.7456Z" fill="url(#paint4_linear)"/>
<path d="M216.325 80.0762C238.971 86.132 257.176 116.072 256.999 146.97C256.822 177.867 238.321 197.98 215.675 191.924C193.03 185.868 174.824 155.928 175.001 125.03C175.193 94.1327 193.679 74.0204 216.325 80.0762Z" stroke="url(#paint5_linear)" stroke-width="4"/>
<path d="M281.094 142.734C281.094 142.684 281.094 142.651 281.094 142.601C281.078 142.235 281.061 141.869 281.045 141.487C281.011 140.888 280.995 140.289 280.961 139.69C280.961 139.607 280.945 139.524 280.945 139.457C280.911 138.941 280.862 138.442 280.828 137.927C280.795 137.461 280.762 136.978 280.712 136.513C280.695 136.429 280.695 136.346 280.679 136.263C280.612 135.614 280.529 134.966 280.462 134.333C280.412 133.934 280.379 133.552 280.329 133.152C280.329 133.086 280.313 133.036 280.296 132.969C280.146 131.888 279.98 130.807 279.797 129.725C279.797 129.675 279.78 129.642 279.78 129.592C279.564 128.378 279.331 127.164 279.065 125.966C279.048 125.849 279.015 125.733 278.998 125.633C278.965 125.45 278.899 125.267 278.865 125.084C278.582 123.803 278.266 122.539 277.934 121.275C277.884 121.108 277.851 120.942 277.817 120.776C277.801 120.709 277.767 120.642 277.751 120.559C277.368 119.145 276.936 117.748 276.486 116.367C276.387 116.051 276.287 115.752 276.17 115.436C275.705 114.071 275.222 112.707 274.706 111.377C274.69 111.343 274.69 111.31 274.673 111.277C274.673 111.26 274.657 111.26 274.657 111.243C274.623 111.144 274.573 111.044 274.54 110.944C274.257 110.229 273.974 109.53 273.675 108.815C273.658 108.765 273.625 108.715 273.609 108.665C272.893 106.985 272.128 105.355 271.329 103.741C271.246 103.558 271.146 103.375 271.063 103.192C270.265 101.612 269.416 100.081 268.535 98.5839C268.468 98.4675 268.402 98.3344 268.335 98.218C268.285 98.1348 268.235 98.0682 268.185 97.9851C267.32 96.5378 266.422 95.1404 265.49 93.7763C265.407 93.6599 265.341 93.5434 265.258 93.427C265.174 93.3105 265.091 93.2107 265.025 93.1109C264.276 92.0462 263.527 91.0149 262.746 90.0001C262.712 89.9668 262.696 89.9335 262.662 89.9003C262.546 89.7506 262.43 89.6175 262.313 89.4678C261.764 88.7691 261.199 88.0704 260.616 87.405C260.516 87.2885 260.417 87.1554 260.317 87.039C260.167 86.856 260.001 86.6897 259.851 86.5233C259.435 86.0409 259.003 85.5751 258.57 85.1093C258.42 84.9429 258.271 84.7766 258.121 84.6102C257.988 84.4771 257.855 84.3441 257.722 84.211C257.339 83.8117 256.957 83.4291 256.557 83.0465C256.374 82.8635 256.175 82.6639 255.992 82.4809C255.875 82.3645 255.759 82.2646 255.626 82.1482C255.293 81.8321 254.96 81.5327 254.611 81.2166C254.395 81.017 254.178 80.8174 253.962 80.6177C253.829 80.5013 253.713 80.4015 253.58 80.3017C253.263 80.0355 252.964 79.786 252.648 79.5198C252.432 79.3368 252.215 79.1538 251.983 78.9708C251.833 78.8544 251.683 78.7379 251.533 78.6215C251.234 78.3886 250.934 78.1557 250.635 77.9228C250.435 77.7731 250.236 77.6067 250.036 77.4736C249.837 77.3406 249.637 77.2075 249.454 77.0578C249.171 76.8581 248.888 76.6585 248.622 76.4755C248.456 76.3591 248.306 76.2426 248.14 76.1428C247.874 75.9765 247.607 75.8101 247.358 75.6438C247.092 75.4774 246.826 75.2944 246.543 75.1281C246.426 75.0615 246.326 74.995 246.21 74.9284C245.844 74.7122 245.461 74.4959 245.095 74.2963C244.879 74.1798 244.663 74.0468 244.447 73.9303C244.397 73.897 244.347 73.8804 244.297 73.8471C243.648 73.4978 243.016 73.1651 242.351 72.8656C242.334 72.8656 242.334 72.849 242.317 72.849C242.218 72.7991 242.118 72.7658 242.035 72.7159C241.486 72.4664 240.937 72.2002 240.388 71.984C240.321 71.9507 240.238 71.9341 240.171 71.9008C239.922 71.801 239.672 71.7012 239.406 71.6014C239.057 71.4683 238.724 71.3186 238.375 71.2021C238.242 71.1522 238.109 71.1189 237.976 71.069C237.676 70.9692 237.377 70.8694 237.077 70.7696C236.811 70.6864 236.562 70.5866 236.295 70.5201C235.946 70.4202 235.613 70.3204 235.264 70.2206C234.881 70.1208 234.515 70.021 234.133 69.9378C233.966 69.9046 233.783 69.8713 233.617 69.838C233.234 69.7548 232.868 69.6717 232.486 69.6051C232.303 69.5718 232.103 69.5219 231.92 69.4887C231.771 69.4554 231.621 69.4554 231.471 69.4221C231.022 69.3556 230.589 69.289 230.157 69.2391C229.957 69.2225 229.758 69.1726 229.558 69.156C229.442 69.1393 229.342 69.1393 229.225 69.1393C228.71 69.0894 228.194 69.0728 227.678 69.0395C227.479 69.0395 227.296 69.0062 227.096 69.0062C227.046 69.0062 226.996 69.0062 226.93 69.0062C226.115 68.9896 225.316 69.0062 224.517 69.0561C224.484 69.0561 224.451 69.0561 224.418 69.0561C224.335 69.0561 224.235 69.0728 224.152 69.0894C223.32 69.1393 222.488 69.2391 221.673 69.3722C221.556 69.3889 221.423 69.3889 221.307 69.4055C221.224 69.4221 221.124 69.4388 221.041 69.4554C220.242 69.5885 219.46 69.7548 218.678 69.9545L201.012 74.4793C201.794 74.2797 202.575 74.1133 203.374 73.9802C203.59 73.9469 203.79 73.9137 204.006 73.8804C204.821 73.764 205.653 73.6641 206.485 73.5976C206.601 73.581 206.734 73.581 206.851 73.5643C207.649 73.5144 208.464 73.4978 209.263 73.5144C209.512 73.5144 209.762 73.5311 210.011 73.5477C210.527 73.5643 211.043 73.5976 211.559 73.6475C211.875 73.6808 212.174 73.7141 212.49 73.7473C212.923 73.7972 213.372 73.8638 213.804 73.9303C214.137 73.9802 214.486 74.0468 214.819 74.1133C215.202 74.1798 215.568 74.263 215.95 74.3462C216.499 74.4626 217.048 74.5791 217.597 74.7288C218.213 74.8952 218.812 75.0782 219.41 75.2778C219.71 75.3776 220.009 75.4608 220.309 75.5772C220.791 75.7436 221.274 75.9266 221.756 76.1095C222.006 76.2094 222.255 76.2925 222.505 76.409C223.137 76.6751 223.769 76.9413 224.384 77.2408C224.468 77.2907 224.567 77.3239 224.651 77.3572C225.366 77.6899 226.065 78.0559 226.763 78.4385C226.98 78.5549 227.179 78.688 227.395 78.8045C227.878 79.0873 228.36 79.3534 228.843 79.6529C229.109 79.8192 229.375 79.9856 229.641 80.1686C230.074 80.4347 230.49 80.7175 230.905 81.0003C231.188 81.1833 231.454 81.383 231.737 81.5826C232.137 81.8654 232.536 82.1482 232.918 82.4476C233.218 82.6805 233.517 82.8968 233.817 83.1297C234.199 83.4291 234.565 83.7286 234.931 84.028C235.247 84.2775 235.547 84.5437 235.863 84.8098C236.212 85.1093 236.562 85.4254 236.894 85.7248C237.227 86.0242 237.576 86.3403 237.909 86.6564C238.225 86.9558 238.524 87.2553 238.841 87.5547C239.223 87.9373 239.622 88.3199 240.005 88.7192C240.288 89.0186 240.571 89.318 240.853 89.6175C241.286 90.0833 241.702 90.5491 242.134 91.0315C242.384 91.3309 242.65 91.6137 242.9 91.9132C243.465 92.5786 244.031 93.2773 244.596 93.9759C244.746 94.1589 244.879 94.3253 245.029 94.5083C245.811 95.5064 246.559 96.5544 247.308 97.6191C247.458 97.852 247.624 98.0682 247.774 98.3011C248.705 99.6652 249.604 101.063 250.469 102.493C250.585 102.693 250.702 102.893 250.818 103.076C251.7 104.573 252.548 106.103 253.347 107.683C253.446 107.866 253.53 108.049 253.613 108.232C254.411 109.829 255.176 111.476 255.892 113.14C256.208 113.888 256.524 114.637 256.823 115.402C256.873 115.502 256.907 115.619 256.956 115.718C256.973 115.768 256.99 115.802 257.006 115.851C257.522 117.182 258.005 118.546 258.47 119.927C258.57 120.227 258.67 120.543 258.77 120.842C259.219 122.223 259.651 123.62 260.034 125.034C260.101 125.267 260.15 125.5 260.217 125.75C260.55 127.014 260.866 128.278 261.149 129.559C261.215 129.858 261.282 130.158 261.348 130.441C261.598 131.638 261.847 132.853 262.064 134.067C262.08 134.134 262.08 134.184 262.097 134.25C262.28 135.315 262.446 136.38 262.596 137.444C262.662 137.893 262.712 138.359 262.762 138.808C262.845 139.44 262.912 140.089 262.979 140.738C263.028 141.304 263.078 141.869 263.128 142.435C263.161 142.934 263.211 143.45 263.245 143.949C263.295 144.631 263.311 145.313 263.344 145.978C263.361 146.344 263.378 146.71 263.394 147.093C263.428 148.141 263.444 149.189 263.428 150.237C263.411 151.784 263.361 153.298 263.278 154.812C263.261 155.011 263.261 155.211 263.245 155.394C263.145 156.808 263.012 158.205 262.845 159.586C262.812 159.819 262.796 160.052 262.762 160.285C262.596 161.632 262.38 162.946 262.147 164.244C262.097 164.477 262.064 164.693 262.014 164.926C261.764 166.24 261.481 167.521 261.165 168.785C261.132 168.935 261.082 169.101 261.032 169.251C260.716 170.449 260.367 171.63 260.001 172.778C259.951 172.927 259.918 173.077 259.868 173.21C259.485 174.391 259.053 175.523 258.603 176.637C258.487 176.92 258.371 177.186 258.254 177.469C257.871 178.401 257.456 179.299 257.023 180.197C256.907 180.43 256.807 180.663 256.69 180.879C256.141 181.977 255.559 183.025 254.96 184.057C254.727 184.439 254.494 184.788 254.262 185.154C253.812 185.853 253.38 186.552 252.914 187.217C252.814 187.35 252.714 187.467 252.631 187.6C252.016 188.432 251.384 189.247 250.735 190.012C250.652 190.112 250.569 190.228 250.469 190.328C249.753 191.16 249.021 191.925 248.256 192.674C248.057 192.873 247.857 193.04 247.657 193.223C247.075 193.772 246.46 194.304 245.844 194.82C245.595 195.019 245.362 195.219 245.112 195.402C244.397 195.967 243.648 196.5 242.9 196.999C242.8 197.065 242.7 197.149 242.6 197.215C241.752 197.764 240.87 198.263 239.972 198.729C239.722 198.862 239.473 198.978 239.223 199.095C238.541 199.428 237.842 199.727 237.144 200.01C236.878 200.126 236.595 200.226 236.329 200.326C235.38 200.675 234.432 200.975 233.467 201.224L251.134 196.699C252.116 196.45 253.064 196.134 254.012 195.784C254.295 195.685 254.561 195.568 254.827 195.468C255.526 195.186 256.225 194.886 256.907 194.553C257.156 194.437 257.406 194.321 257.655 194.187C258.554 193.722 259.419 193.223 260.284 192.674C260.383 192.607 260.483 192.524 260.583 192.457C261.332 191.958 262.08 191.426 262.796 190.86C263.045 190.677 263.278 190.478 263.527 190.278C264.143 189.762 264.742 189.23 265.341 188.681C265.54 188.498 265.74 188.315 265.94 188.132C266.655 187.434 267.337 186.718 268.019 185.953C268.069 185.903 268.102 185.837 268.152 185.787C268.235 185.687 268.318 185.57 268.418 185.471C269.067 184.705 269.699 183.89 270.315 183.058C270.415 182.925 270.514 182.809 270.598 182.676C270.647 182.593 270.714 182.526 270.764 182.46C271.18 181.877 271.562 181.245 271.962 180.613C272.194 180.247 272.444 179.898 272.66 179.515C272.677 179.482 272.71 179.449 272.727 179.415C273.259 178.5 273.791 177.569 274.274 176.604C274.324 176.521 274.357 176.438 274.39 176.354C274.507 176.138 274.607 175.905 274.723 175.672C274.989 175.107 275.272 174.558 275.538 173.975C275.688 173.643 275.821 173.293 275.971 172.944C276.087 172.661 276.204 172.395 276.32 172.112C276.403 171.879 276.503 171.663 276.603 171.43C276.919 170.599 277.235 169.75 277.518 168.902C277.534 168.835 277.568 168.752 277.584 168.669C277.634 168.519 277.668 168.369 277.717 168.22C277.9 167.637 278.1 167.039 278.283 166.44C278.449 165.874 278.599 165.292 278.749 164.71C278.799 164.543 278.832 164.394 278.882 164.227C278.899 164.144 278.932 164.044 278.948 163.961C279.148 163.146 279.348 162.331 279.514 161.499C279.597 161.133 279.664 160.75 279.73 160.368C279.78 160.151 279.813 159.919 279.863 159.702C279.913 159.469 279.963 159.237 279.996 159.004C280.146 158.172 280.279 157.323 280.396 156.475C280.429 156.226 280.462 155.976 280.479 155.726C280.512 155.494 280.529 155.261 280.562 155.028C280.612 154.645 280.662 154.279 280.695 153.88C280.778 153.015 280.862 152.133 280.928 151.235C280.945 151.102 280.945 150.969 280.945 150.836C280.961 150.636 280.961 150.436 280.978 150.237C281.011 149.655 281.045 149.072 281.078 148.473C281.111 147.542 281.128 146.61 281.144 145.679V145.662C281.128 144.73 281.128 143.732 281.094 142.734Z" fill="url(#paint6_linear)"/>
<path d="M210.458 97.0757C218.173 96.313 225.36 103.055 228.439 112.957C235.774 115.065 241.873 123.989 243.141 135.071C244.304 146.282 240.229 156.099 233.603 159.769C232.795 170.331 227.151 178.649 219.455 179.587C211.545 180.371 204.2 173.272 201.255 162.963C193.963 160.889 187.745 152.332 186.477 141.25C185.282 129.748 189.61 119.706 196.559 116.276C197.44 106.021 202.955 97.9724 210.458 97.0757ZM196.677 140.04C197.033 143.125 198.455 145.819 200.397 147.297C201.485 141.303 204.207 136.31 207.952 133.446C206.509 131.107 204.375 129.69 202.165 129.931C198.588 130.34 196.15 134.85 196.677 140.04ZM222.639 160.14C218.269 158.18 214.47 153.839 212.086 148.125C210.69 150.026 209.95 152.858 210.289 155.965C210.856 161.169 214.21 165.067 217.777 164.737C219.944 164.462 221.689 162.68 222.639 160.14ZM219.626 120.717C219.059 115.512 215.705 111.614 212.138 111.944C210.03 112.213 208.339 113.95 207.457 116.385C211.746 118.511 215.455 122.94 217.727 128.705C219.181 126.798 219.972 123.882 219.626 120.717ZM232.942 136.281C232.579 133.138 231.268 130.549 229.595 129.003C228.547 135.189 225.782 140.324 221.944 143.238C223.38 145.341 225.378 146.597 227.471 146.369C231.031 145.981 233.468 141.471 232.942 136.281Z" fill="white"/>
<defs>
<linearGradient id="paint0_linear" x1="58" y1="82" x2="170.542" y2="233.993" gradientUnits="userSpaceOnUse">
<stop offset="0.197917" stop-color="#CD2031"/>
<stop offset="1" stop-color="#FB822A"/>
</linearGradient>
<linearGradient id="paint1_linear" x1="0" y1="16.5889" x2="116.271" y2="19.947" gradientUnits="userSpaceOnUse">
<stop stop-color="#FF8212"/>
<stop offset="1" stop-color="#ED4454"/>
</linearGradient>
<linearGradient id="paint2_linear" x1="68.6562" y1="0" x2="163.08" y2="39.3541" gradientUnits="userSpaceOnUse">
<stop stop-color="#FF8212"/>
<stop offset="1" stop-color="#ED4454"/>
</linearGradient>
<linearGradient id="paint3_linear" x1="168.165" y1="133.086" x2="293.872" y2="170.817" gradientUnits="userSpaceOnUse">
<stop stop-color="#FB822A"/>
<stop offset="1" stop-color="#FBCD2A" stop-opacity="0"/>
</linearGradient>
<linearGradient id="paint4_linear" x1="171" y1="73.5305" x2="270.482" y2="79.2065" gradientUnits="userSpaceOnUse">
<stop stop-color="#FF8212"/>
<stop offset="1" stop-color="#ED4454"/>
</linearGradient>
<linearGradient id="paint5_linear" x1="175" y1="79" x2="275.14" y2="98.1522" gradientUnits="userSpaceOnUse">
<stop offset="0.197917" stop-color="#ED4454"/>
<stop offset="1" stop-color="#FB822A"/>
</linearGradient>
<linearGradient id="paint6_linear" x1="242" y1="65.5" x2="277" y2="186" gradientUnits="userSpaceOnUse">
<stop offset="0.197917" stop-color="#ED4454"/>
<stop offset="1" stop-color="#FB822A"/>
</linearGradient>
</defs>
</svg>