<svg width="330" height="155" viewBox="0 0 330 155" fill="none" xmlns="http://www.w3.org/2000/svg">
<path d="M149.29 76.9585C149.29 77.6276 149.833 78.1701 150.502 78.1701C151.171 78.1701 151.714 77.6276 151.714 76.9585C151.714 76.2893 151.171 75.7468 150.502 75.7468C149.833 75.7468 149.29 76.2893 149.29 76.9585Z" fill="url(#paint0_linear)"/>
<path d="M139.549 67.8229C139.549 68.8266 140.363 69.6403 141.366 69.6403C142.37 69.6403 143.184 68.8266 143.184 67.8229C143.184 66.8191 142.37 66.0055 141.366 66.0055C140.363 66.0055 139.549 66.8191 139.549 67.8229Z" fill="url(#paint1_linear)"/>
<path d="M93.241 22.1327C93.241 23.471 94.3259 24.5559 95.6642 24.5559C97.0025 24.5559 98.0874 23.471 98.0874 22.1327C98.0874 20.7944 97.0025 19.7094 95.6642 19.7094C94.3259 19.7094 93.241 20.7944 93.241 22.1327Z" fill="url(#paint2_linear)"/>
<path d="M86.5284 14.8025C85.5247 14.8025 84.711 13.9888 84.711 12.9851C84.711 11.9813 85.5247 11.1676 86.5284 11.1676C87.5322 11.1676 88.3459 11.9813 88.3459 12.9851C88.3459 13.9888 87.5322 14.8025 86.5284 14.8025Z" fill="url(#paint3_linear)"/>
<path d="M76.1812 3.84934C76.1812 4.5185 76.7237 5.06096 77.3928 5.06096C78.062 5.06096 78.6045 4.5185 78.6045 3.84934C78.6045 3.18018 78.062 2.63772 77.3928 2.63772C76.7237 2.63772 76.1812 3.18018 76.1812 3.84934Z" fill="url(#paint4_linear)"/>
<path d="M77.3934 151.279C76.7242 151.279 76.1818 150.736 76.1817 150.067C76.1818 149.398 76.7242 148.856 77.3934 148.856C78.0625 148.856 78.605 149.398 78.605 150.067C78.605 150.736 78.0625 151.279 77.3934 151.279Z" fill="url(#paint5_linear)"/>
<path d="M66.4402 140.932C66.4402 141.935 67.2539 142.749 68.2576 142.749C69.2614 142.749 70.0751 141.935 70.0751 140.932C70.0751 139.928 69.2614 139.114 68.2576 139.114C67.2539 139.114 66.4402 139.928 66.4402 140.932Z" fill="url(#paint6_linear)"/>
<path d="M59.1102 134.219C57.7719 134.219 56.6869 133.134 56.6869 131.796C56.6869 130.458 57.7719 129.373 59.1102 129.373C60.4485 129.373 61.5334 130.458 61.5334 131.796C61.5334 133.134 60.4485 134.219 59.1102 134.219Z" fill="url(#paint7_linear)"/>
<path d="M46.9452 122.649C46.9452 124.321 48.3014 125.678 49.9742 125.678C51.6472 125.678 53.0033 124.321 53.0033 122.649C53.0033 120.976 51.6472 119.619 49.9743 119.619C48.3014 119.619 46.9452 120.976 46.9452 122.649Z" fill="url(#paint8_linear)"/>
<path d="M31.703 107.406C30.0301 107.406 28.6739 106.05 28.6739 104.377C28.6739 102.704 30.0301 101.348 31.703 101.348C33.3759 101.348 34.732 102.704 34.732 104.377C34.732 106.05 33.3759 107.406 31.703 107.406Z" fill="url(#paint9_linear)"/>
<path d="M20.1324 95.2415C20.1324 96.5798 21.2173 97.6647 22.5556 97.6647C23.8939 97.6647 24.9789 96.5798 24.9789 95.2415C24.9789 93.9031 23.8939 92.8182 22.5556 92.8182C21.2173 92.8182 20.1324 93.9031 20.1324 95.2415Z" fill="url(#paint10_linear)"/>
<path d="M13.4198 87.9113C12.4161 87.9113 11.6024 87.0976 11.6024 86.0938C11.6024 85.0901 12.4161 84.2764 13.4198 84.2764C14.4236 84.2764 15.2373 85.0901 15.2373 86.0938C15.2373 87.0976 14.4236 87.9113 13.4198 87.9113Z" fill="url(#paint11_linear)"/>
<path d="M3.07264 76.9581C3.07264 77.6273 3.61511 78.1697 4.28426 78.1697C4.95342 78.1697 5.49588 77.6273 5.49588 76.9581C5.49588 76.289 4.95342 75.7465 4.28426 75.7465C3.61511 75.7465 3.07264 76.289 3.07264 76.9581Z" fill="url(#paint12_linear)"/>
<path d="M66.4398 12.9849C66.4398 13.9887 67.2534 14.8024 68.2572 14.8024C69.2609 14.8024 70.0746 13.9887 70.0746 12.9849C70.0746 11.9812 69.2609 11.1675 68.2572 11.1675C67.2534 11.1675 66.4398 11.9812 66.4398 12.9849Z" fill="url(#paint13_linear)"/>
<path d="M141.366 87.9115C140.363 87.9115 139.549 87.0978 139.549 86.0941C139.549 85.0903 140.363 84.2766 141.366 84.2766C142.37 84.2766 143.184 85.0903 143.184 86.0941C143.184 87.0978 142.37 87.9115 141.366 87.9115Z" fill="url(#paint14_linear)"/>
<path d="M56.6867 22.1324C56.6867 23.4707 57.7717 24.5556 59.11 24.5556C60.4483 24.5556 61.5332 23.4707 61.5332 22.1324C61.5332 20.7941 60.4483 19.7092 59.11 19.7092C57.7717 19.7092 56.6867 20.7941 56.6867 22.1324Z" fill="url(#paint15_linear)"/>
<path d="M104.813 71.5421C102.758 71.5421 101.093 69.8768 101.093 67.8224C101.093 65.7681 102.758 64.1028 104.813 64.1028C106.867 64.1028 108.532 65.7681 108.532 67.8225C108.532 69.8768 106.867 71.5421 104.813 71.5421Z" fill="url(#paint16_linear)"/>
<path d="M120.225 86.0936C120.225 87.6728 121.505 88.953 123.084 88.953C124.663 88.953 125.943 87.6728 125.943 86.0936C125.943 84.5144 124.663 83.2342 123.084 83.2342C121.505 83.2342 120.225 84.5144 120.225 86.0936Z" fill="url(#paint17_linear)"/>
<path d="M132.219 97.6647C130.881 97.6647 129.796 96.5798 129.796 95.2415C129.796 93.9032 130.881 92.8182 132.219 92.8182C133.557 92.8182 134.642 93.9032 134.642 95.2415C134.642 96.5798 133.557 97.6647 132.219 97.6647Z" fill="url(#paint18_linear)"/>
<path d="M46.9453 31.268C46.9453 32.9409 48.3015 34.297 49.9744 34.297C51.6472 34.297 53.0034 32.9409 53.0034 31.268C53.0034 29.5951 51.6473 28.2389 49.9744 28.2389C48.3015 28.2389 46.9453 29.5951 46.9453 31.268Z" fill="url(#paint19_linear)"/>
<path d="M82.3849 67.8227C82.3849 70.1113 84.2401 71.9665 86.5286 71.9665C88.8171 71.9665 90.6724 70.1113 90.6724 67.8227C90.6724 65.5342 88.8171 63.679 86.5286 63.679C84.2401 63.679 82.3849 65.5342 82.3849 67.8227Z" fill="url(#paint20_linear)"/>
<path d="M104.812 89.6804C102.831 89.6804 101.225 88.0747 101.225 86.094C101.225 84.1133 102.831 82.5076 104.812 82.5076C106.793 82.5076 108.398 84.1133 108.398 86.094C108.398 88.0747 106.793 89.6804 104.812 89.6804Z" fill="url(#paint21_linear)"/>
<path d="M110.639 95.2421C110.639 97.0689 112.12 98.5498 113.947 98.5498C115.773 98.5498 117.254 97.0689 117.254 95.242C117.254 93.4152 115.773 91.9343 113.947 91.9343C112.12 91.9343 110.639 93.4152 110.639 95.2421Z" fill="url(#paint22_linear)"/>
<path d="M123.083 107.406C121.411 107.406 120.054 106.05 120.054 104.377C120.054 102.704 121.411 101.348 123.083 101.348C124.756 101.348 126.113 102.704 126.113 104.377C126.113 106.05 124.756 107.406 123.083 107.406Z" fill="url(#paint23_linear)"/>
<path d="M28.6741 49.539C28.6741 51.2119 30.0303 52.5681 31.7032 52.5681C33.3761 52.5681 34.7322 51.2119 34.7322 49.539C34.7322 47.8661 33.3761 46.51 31.7032 46.51C30.0303 46.51 28.6741 47.8661 28.6741 49.539Z" fill="url(#paint24_linear)"/>
<path d="M49.9733 71.3366C48.0327 71.3366 46.4595 69.7635 46.4595 67.8229C46.4596 65.8824 48.0327 64.3092 49.9733 64.3092C51.9138 64.3092 53.487 65.8824 53.487 67.8229C53.487 69.7635 51.9138 71.3366 49.9733 71.3366Z" fill="url(#paint25_linear)"/>
<path d="M64.2588 86.0939C64.2588 88.3021 66.049 90.0923 68.2572 90.0923C70.4654 90.0923 72.2555 88.3021 72.2555 86.0939C72.2555 83.8857 70.4654 82.0956 68.2572 82.0956C66.049 82.0956 64.2588 83.8857 64.2588 86.0939Z" fill="url(#paint26_linear)"/>
<path d="M77.3926 98.9977C75.3182 98.9977 73.6366 97.3161 73.6366 95.2417C73.6366 93.1673 75.3182 91.4856 77.3926 91.4856C79.467 91.4856 81.1486 93.1673 81.1486 95.2417C81.1486 97.3161 79.467 98.9977 77.3926 98.9977Z" fill="url(#paint27_linear)"/>
<path d="M83.0141 104.378C83.0141 106.318 84.5873 107.891 86.5278 107.891C88.4684 107.891 90.0415 106.318 90.0415 104.377C90.0415 102.437 88.4684 100.864 86.5278 100.864C84.5873 100.864 83.0141 102.437 83.0141 104.378Z" fill="url(#paint28_linear)"/>
<path d="M95.6645 116.784C93.8578 116.784 92.3931 115.32 92.3931 113.513C92.3931 111.706 93.8578 110.242 95.6645 110.242C97.4712 110.242 98.9359 111.706 98.9359 113.513C98.9359 115.32 97.4712 116.784 95.6645 116.784Z" fill="url(#paint29_linear)"/>
<path d="M101.783 122.648C101.783 124.321 103.139 125.677 104.812 125.677C106.485 125.677 107.841 124.321 107.841 122.648C107.841 120.975 106.485 119.619 104.812 119.619C103.139 119.619 101.783 120.975 101.783 122.648Z" fill="url(#paint30_linear)"/>
<path d="M40.8388 43.4326C39.1659 43.4326 37.8097 42.0764 37.8097 40.4035C37.8097 38.7306 39.1659 37.3745 40.8388 37.3745C42.5117 37.3745 43.8678 38.7306 43.8678 40.4035C43.8678 42.0764 42.5117 43.4326 40.8388 43.4326Z" fill="url(#paint31_linear)"/>
<path d="M68.2579 71.9056C66.0028 71.9056 64.1747 70.0775 64.1747 67.8224C64.1747 65.5673 66.0028 63.7393 68.2579 63.7393C70.5129 63.7393 72.341 65.5673 72.341 67.8224C72.341 70.0775 70.5129 71.9056 68.2579 71.9056Z" fill="url(#paint32_linear)"/>
<path d="M82.446 86.0937C82.446 88.3488 84.2741 90.1769 86.5291 90.1769C88.7842 90.1769 90.6123 88.3488 90.6123 86.0937C90.6123 83.8386 88.7842 82.0105 86.5291 82.0105C84.2741 82.0105 82.446 83.8386 82.446 86.0937Z" fill="url(#paint33_linear)"/>
<path d="M95.6641 98.9739C93.6031 98.9739 91.9323 97.3031 91.9323 95.2421C91.9323 93.1811 93.6031 91.5103 95.6641 91.5103C97.7251 91.5103 99.3959 93.1811 99.3959 95.2421C99.3959 97.3031 97.7251 98.9739 95.6641 98.9739Z" fill="url(#paint34_linear)"/>
<path d="M101.432 104.377C101.432 106.244 102.945 107.757 104.812 107.757C106.679 107.757 108.193 106.244 108.193 104.377C108.193 102.51 106.679 100.997 104.812 100.997C102.945 100.997 101.432 102.51 101.432 104.377Z" fill="url(#paint35_linear)"/>
<path d="M113.948 116.542C112.275 116.542 110.919 115.186 110.919 113.513C110.919 111.84 112.275 110.484 113.948 110.484C115.621 110.484 116.977 111.84 116.977 113.513C116.977 115.186 115.621 116.542 113.948 116.542Z" fill="url(#paint36_linear)"/>
<path d="M20.132 58.6872C20.132 60.0255 21.2169 61.1104 22.5553 61.1104C23.8936 61.1104 24.9785 60.0255 24.9785 58.6872C24.9785 57.3488 23.8936 56.2639 22.5553 56.2639C21.2169 56.2639 20.132 57.3489 20.132 58.6872Z" fill="url(#paint37_linear)"/>
<path d="M49.9745 89.6315C48.0206 89.6315 46.4366 88.0475 46.4366 86.0936C46.4366 84.1396 48.0206 82.5556 49.9745 82.5556C51.9285 82.5556 53.5124 84.1396 53.5124 86.0936C53.5124 88.0475 51.9285 89.6315 49.9745 89.6315Z" fill="url(#paint38_linear)"/>
<path d="M55.2085 95.2414C55.2085 97.3961 56.9552 99.1428 59.1099 99.1428C61.2646 99.1428 63.0113 97.3961 63.0113 95.2414C63.0113 93.0867 61.2646 91.34 59.1099 91.34C56.9552 91.34 55.2085 93.0867 55.2085 95.2414Z" fill="url(#paint39_linear)"/>
<path d="M68.2569 107.916C66.303 107.916 64.719 106.332 64.719 104.378C64.719 102.424 66.303 100.84 68.2569 100.84C70.2109 100.84 71.7949 102.424 71.7949 104.378C71.7949 106.332 70.2109 107.916 68.2569 107.916Z" fill="url(#paint40_linear)"/>
<path d="M74.2299 113.513C74.2299 115.26 75.6457 116.675 77.3922 116.675C79.1387 116.675 80.5545 115.26 80.5545 113.513C80.5545 111.767 79.1387 110.351 77.3922 110.351C75.6457 110.351 74.2299 111.767 74.2299 113.513Z" fill="url(#paint41_linear)"/>
<path d="M86.5283 125.447C84.9826 125.447 83.7295 124.194 83.7295 122.648C83.7295 121.103 84.9826 119.85 86.5283 119.85C88.0741 119.85 89.3272 121.103 89.3272 122.648C89.3272 124.194 88.0741 125.447 86.5283 125.447Z" fill="url(#paint42_linear)"/>
<path d="M93.2412 131.796C93.2412 133.135 94.3261 134.22 95.6644 134.22C97.0027 134.22 98.0876 133.135 98.0876 131.796C98.0876 130.458 97.0027 129.373 95.6644 129.373C94.3261 129.373 93.2412 130.458 93.2412 131.796Z" fill="url(#paint43_linear)"/>
<path d="M13.4198 69.6401C12.416 69.6401 11.6023 68.8264 11.6023 67.8227C11.6023 66.8189 12.416 66.0052 13.4198 66.0052C14.4235 66.0052 15.2372 66.8189 15.2372 67.8227C15.2372 68.8264 14.4235 69.6401 13.4198 69.6401Z" fill="url(#paint44_linear)"/>
<path d="M74.9824 22.1323C74.9824 23.4639 76.0619 24.5434 77.3935 24.5434C78.7251 24.5434 79.8046 23.4639 79.8046 22.1323C79.8046 20.8007 78.7251 19.7212 77.3935 19.7212C76.0619 19.7212 74.9824 20.8007 74.9824 22.1323Z" fill="url(#paint45_linear)"/>
<path d="M86.5282 34.2728C84.8687 34.2728 83.5234 32.9275 83.5234 31.268C83.5234 29.6085 84.8687 28.2632 86.5282 28.2632C88.1878 28.2632 89.5331 29.6085 89.5331 31.268C89.5331 32.9275 88.1878 34.2728 86.5282 34.2728Z" fill="url(#paint46_linear)"/>
<path d="M123.083 70.8274C121.423 70.8274 120.078 69.4821 120.078 67.8226C120.078 66.163 121.423 64.8177 123.083 64.8177C124.742 64.8177 126.088 66.163 126.088 67.8226C126.088 69.4821 124.742 70.8274 123.083 70.8274Z" fill="url(#paint47_linear)"/>
<path d="M129.808 76.9582C129.808 78.2898 130.888 79.3693 132.219 79.3693C133.551 79.3693 134.63 78.2898 134.63 76.9582C134.63 75.6265 133.551 74.547 132.219 74.547C130.888 74.547 129.808 75.6265 129.808 76.9582Z" fill="url(#paint48_linear)"/>
<path d="M113.947 80.2419C112.134 80.2419 110.664 78.7719 110.664 76.9584C110.664 75.145 112.134 73.6749 113.947 73.6749C115.761 73.6749 117.231 75.145 117.231 76.9584C117.231 78.7719 115.761 80.2419 113.947 80.2419Z" fill="url(#paint49_linear)"/>
<path d="M91.7989 76.958C91.7989 79.0927 93.5294 80.8231 95.664 80.8231C97.7986 80.8231 99.5291 79.0926 99.5291 76.958C99.5291 74.8234 97.7986 73.093 95.664 73.093C93.5294 73.093 91.7989 74.8234 91.7989 76.958Z" fill="url(#paint50_linear)"/>
<path d="M40.8386 61.9586C39.0319 61.9586 37.5673 60.494 37.5673 58.6872C37.5673 56.8805 39.0319 55.4159 40.8386 55.4159C42.6454 55.4159 44.11 56.8805 44.11 58.6872C44.11 60.494 42.6453 61.9586 40.8386 61.9586Z" fill="url(#paint51_linear)"/>
<path d="M55.3533 76.9584C55.3533 79.0328 57.035 80.7144 59.1094 80.7144C61.1838 80.7144 62.8654 79.0328 62.8654 76.9584C62.8654 74.884 61.1838 73.2024 59.1094 73.2024C57.035 73.2024 55.3533 74.884 55.3533 76.9584Z" fill="url(#paint52_linear)"/>
<path d="M72.9463 76.9583C72.9463 79.4141 74.9372 81.405 77.393 81.405C79.8488 81.405 81.8396 79.4141 81.8396 76.9583C81.8396 74.5025 79.8488 72.5117 77.393 72.5117C74.9372 72.5117 72.9463 74.5025 72.9463 76.9583Z" fill="url(#paint53_linear)"/>
<path d="M31.7025 70.6214C30.1567 70.6214 28.9037 69.3683 28.9037 67.8226C28.9037 66.2768 30.1567 65.0237 31.7025 65.0237C33.2483 65.0237 34.5014 66.2768 34.5014 67.8226C34.5014 69.3683 33.2483 70.6214 31.7025 70.6214Z" fill="url(#paint54_linear)"/>
<path d="M37.6753 76.9585C37.6753 78.705 39.0912 80.1208 40.8377 80.1208C42.5842 80.1208 44 78.705 44 76.9585C44 75.212 42.5842 73.7962 40.8377 73.7962C39.0911 73.7962 37.6753 75.212 37.6753 76.9585Z" fill="url(#paint55_linear)"/>
<path d="M22.5545 79.2487C21.2898 79.2487 20.2646 78.2234 20.2646 76.9587C20.2646 75.694 21.2898 74.6688 22.5545 74.6688C23.8193 74.6688 24.8445 75.694 24.8445 76.9587C24.8445 78.2234 23.8193 79.2487 22.5545 79.2487Z" fill="url(#paint56_linear)"/>
<path d="M28.9282 86.0941C28.9282 87.6264 30.1704 88.8687 31.7028 88.8687C33.2352 88.8687 34.4774 87.6264 34.4774 86.0941C34.4774 84.5617 33.2352 83.3194 31.7028 83.3194C30.1704 83.3194 28.9282 84.5617 28.9282 86.0941Z" fill="url(#paint57_linear)"/>
<path d="M40.8378 98.4892C39.0444 98.4892 37.5906 97.0354 37.5906 95.2421C37.5906 93.4487 39.0444 91.9949 40.8378 91.9949C42.6311 91.9949 44.0849 93.4487 44.0849 95.2421C44.0849 97.0354 42.6311 98.4892 40.8378 98.4892Z" fill="url(#paint58_linear)"/>
<path d="M46.2425 104.377C46.2425 106.438 47.9133 108.109 49.9743 108.109C52.0353 108.109 53.7061 106.438 53.7061 104.377C53.7061 102.316 52.0353 100.646 49.9743 100.646C47.9133 100.646 46.2425 102.316 46.2425 104.377Z" fill="url(#paint59_linear)"/>
<path d="M59.1099 116.76C57.3166 116.76 55.8628 115.306 55.8628 113.513C55.8628 111.719 57.3166 110.265 59.1099 110.265C60.9033 110.265 62.3571 111.719 62.3571 113.513C62.3571 115.306 60.9033 116.76 59.1099 116.76Z" fill="url(#paint60_linear)"/>
<path d="M65.4828 122.649C65.4828 124.181 66.725 125.423 68.2574 125.423C69.7898 125.423 71.032 124.181 71.032 122.649C71.032 121.116 69.7898 119.874 68.2574 119.874C66.725 119.874 65.4828 121.116 65.4828 122.649Z" fill="url(#paint61_linear)"/>
<path d="M77.3924 134.087C76.1276 134.087 75.1024 133.061 75.1024 131.797C75.1024 130.532 76.1277 129.507 77.3924 129.507C78.6571 129.507 79.6823 130.532 79.6823 131.797C79.6823 133.061 78.6571 134.087 77.3924 134.087Z" fill="url(#paint62_linear)"/>
<path d="M84.7114 140.932C84.7114 141.936 85.5251 142.749 86.5289 142.749C87.5326 142.749 88.3463 141.936 88.3463 140.932C88.3463 139.928 87.5326 139.114 86.5289 139.114C85.5251 139.114 84.7114 139.928 84.7114 140.932Z" fill="url(#paint63_linear)"/>
<path d="M40.8386 116.542C39.1657 116.542 37.8096 115.186 37.8096 113.513C37.8096 111.84 39.1657 110.484 40.8386 110.484C42.5115 110.484 43.8677 111.84 43.8677 113.513C43.8677 115.186 42.5115 116.542 40.8386 116.542Z" fill="url(#paint64_linear)"/>
<path d="M66.5331 39.5012H71.5495C71.477 35.0798 67.8507 32.0273 62.3386 32.0273C56.9111 32.0273 52.9342 35.0314 52.9584 39.5375C52.9463 43.1957 55.521 45.2913 59.7034 46.2967L62.399 46.975C65.0946 47.6291 66.5935 48.4044 66.6056 50.076C66.5935 51.893 64.877 53.1286 62.2177 53.1286C59.4979 53.1286 57.5397 51.8688 57.3705 49.3856H52.3057C52.4386 54.7517 56.2705 57.5257 62.2782 57.5257C68.3221 57.5257 71.8759 54.6306 71.888 50.0881C71.8759 45.9575 68.7693 43.765 64.4661 42.796L62.2419 42.263C60.0902 41.7663 58.2892 40.9669 58.3254 39.1862C58.3254 37.5873 59.7397 36.4123 62.3023 36.4123C64.8045 36.4123 66.3397 37.5509 66.5331 39.5012Z" fill="black"/>
<path d="M85.1877 38.5684H81.6943V34.1108H76.5449V38.5684H74.0064V42.4447H76.5449V52.1353C76.5207 55.7814 78.9987 57.5862 82.7338 57.4288C84.0635 57.3803 85.0064 57.1138 85.5261 56.9442L84.7162 53.1043C84.4624 53.1528 83.9185 53.2739 83.4349 53.2739C82.4075 53.2739 81.6943 52.8863 81.6943 51.4569V42.4447H85.1877V38.5684Z" fill="black"/>
<path d="M93.8365 57.5257C96.5805 57.5257 98.3574 56.3264 99.264 54.5943H99.409V57.1744H104.293V44.6251C104.293 40.1916 100.545 38.3262 96.4113 38.3262C91.9629 38.3262 89.0377 40.4581 88.3245 43.8498L93.0871 44.2374C93.4376 43.0019 94.5376 42.0934 96.3871 42.0934C98.1398 42.0934 99.1431 42.9777 99.1431 44.5039V44.5766C99.1431 45.7758 97.8739 45.9333 94.6464 46.2482C90.9717 46.5874 87.6717 47.823 87.6717 51.9778C87.6717 55.6602 90.2948 57.5257 93.8365 57.5257ZM95.3113 53.9644C93.7277 53.9644 92.5915 53.2255 92.5915 51.8082C92.5915 50.3546 93.7882 49.6399 95.6014 49.3856C96.7255 49.2281 98.5629 48.9616 99.1794 48.5498V50.5242C99.1794 52.4744 97.5717 53.9644 95.3113 53.9644Z" fill="black"/>
<path d="M108.288 57.1744H113.437V51.2631L114.827 49.6763L119.892 57.1744H125.924L118.683 46.6237L125.573 38.5684H119.662L113.715 45.6305H113.437V32.3665H108.288V57.1744Z" fill="black"/>
<path d="M128.1 57.1744H133.249V38.5684H128.1V57.1744ZM130.686 36.17C132.222 36.17 133.479 34.995 133.479 33.5536C133.479 32.1242 132.222 30.9492 130.686 30.9492C129.163 30.9492 127.906 32.1242 127.906 33.5536C127.906 34.995 129.163 36.17 130.686 36.17Z" fill="black"/>
<path d="M142.523 46.4178C142.536 44.0194 143.962 42.6143 146.041 42.6143C148.108 42.6143 149.353 43.9709 149.341 46.2482V57.1744H154.49V45.3276C154.49 40.9911 151.952 38.3262 148.084 38.3262C145.328 38.3262 143.333 39.6829 142.499 41.8511H142.282V38.5684H137.374V57.1744H142.523V46.4178Z" fill="black"/>
<path d="M166.914 64.5392C172.22 64.5392 175.992 62.1166 175.992 57.3561V38.5684H170.879V41.6937H170.685C169.996 40.1795 168.485 38.3262 165.379 38.3262C161.305 38.3262 157.86 41.4998 157.86 47.8351C157.86 54.0249 161.208 56.9079 165.391 56.9079C168.352 56.9079 170.008 55.418 170.685 53.8796H170.903V57.2834C170.903 59.8393 169.271 60.8326 167.035 60.8326C164.762 60.8326 163.614 59.8393 163.191 58.7128L158.428 59.3548C159.045 62.2862 161.909 64.5392 166.914 64.5392ZM167.023 53.0316C164.496 53.0316 163.118 51.0209 163.118 47.8108C163.118 44.6493 164.472 42.4326 167.023 42.4326C169.525 42.4326 170.927 44.5524 170.927 47.8108C170.927 51.0935 169.501 53.0316 167.023 53.0316Z" fill="black"/>
<path d="M188.064 57.1744H203.912V52.85H193.299V32.3665H188.064V57.1744Z" fill="black"/>
<path d="M207.281 57.1744H212.431V38.5684H207.281V57.1744ZM209.868 36.17C211.403 36.17 212.66 34.995 212.66 33.5536C212.66 32.1242 211.403 30.9492 209.868 30.9492C208.345 30.9492 207.088 32.1242 207.088 33.5536C207.088 34.995 208.345 36.17 209.868 36.17Z" fill="black"/>
<path d="M233.974 64.1516V38.5684H228.897V41.6937H228.668C227.979 40.1795 226.492 38.3262 223.385 38.3262C219.312 38.3262 215.867 41.4998 215.867 47.8956C215.867 54.1218 219.167 57.4772 223.397 57.4772C226.395 57.4772 227.954 55.745 228.668 54.1945H228.825V64.1516H233.974ZM228.934 47.8714C228.934 51.1904 227.507 53.3708 225.029 53.3708C222.503 53.3708 221.125 51.1178 221.125 47.8714C221.125 44.6493 222.479 42.4326 225.029 42.4326C227.531 42.4326 228.934 44.5524 228.934 47.8714Z" fill="black"/>
<path d="M250.003 49.2523C250.015 51.7476 248.31 53.0559 246.461 53.0559C244.515 53.0559 243.258 51.6871 243.246 49.4946V38.5684H238.096V50.4152C238.108 54.7638 240.647 57.4166 244.382 57.4166C247.174 57.4166 249.181 55.9752 250.015 53.7948H250.208V57.1744H255.152V38.5684H250.003V49.2523Z" fill="black"/>
<path d="M259.271 57.1744H264.42V38.5684H259.271V57.1744ZM261.858 36.17C263.393 36.17 264.65 34.995 264.65 33.5536C264.65 32.1242 263.393 30.9492 261.858 30.9492C260.335 30.9492 259.078 32.1242 259.078 33.5536C259.078 34.995 260.335 36.17 261.858 36.17Z" fill="black"/>
<path d="M275.387 57.4772C278.385 57.4772 279.944 55.745 280.658 54.1945H280.875V57.1744H285.952V32.3665H280.815V41.6937H280.658C279.968 40.1795 278.482 38.3262 275.375 38.3262C271.301 38.3262 267.856 41.4998 267.856 47.8956C267.856 54.1218 271.156 57.4772 275.387 57.4772ZM277.019 53.3708C274.493 53.3708 273.115 51.1178 273.115 47.8714C273.115 44.6493 274.469 42.4326 277.019 42.4326C279.521 42.4326 280.923 44.5524 280.923 47.8714C280.923 51.1904 279.497 53.3708 277.019 53.3708Z" fill="black"/>
<path d="M290.186 57.1744H295.335V38.5684H290.186V57.1744ZM292.773 36.17C294.308 36.17 295.565 34.995 295.565 33.5536C295.565 32.1242 294.308 30.9492 292.773 30.9492C291.249 30.9492 289.992 32.1242 289.992 33.5536C289.992 34.995 291.249 36.17 292.773 36.17Z" fill="black"/>
<path d="M309.336 38.5684H305.843V34.1108H300.693V38.5684H298.155V42.4447H300.693V52.1353C300.669 55.7814 303.147 57.5862 306.882 57.4288C308.212 57.3803 309.155 57.1138 309.674 56.9442L308.865 53.1043C308.611 53.1528 308.067 53.2739 307.583 53.2739C306.556 53.2739 305.843 52.8863 305.843 51.4569V42.4447H309.336V38.5684Z" fill="black"/>
<path d="M315.869 64.1516C319.701 64.1516 321.732 62.1893 322.784 59.1852L330 38.5684H324.549L320.668 52.2322H320.475L316.631 38.5684H311.216L317.876 57.7074L317.574 58.4947C316.897 60.239 315.604 60.3238 313.79 59.7666L312.63 63.6186C313.367 63.9336 314.564 64.1516 315.869 64.1516Z" fill="black"/>
<path d="M192.718 98.1074H197.952V90.0642H202.352C208.046 90.0642 211.358 86.6604 211.358 81.7061C211.358 76.776 208.106 73.2995 202.485 73.2995H192.718V98.1074ZM197.952 85.8609V77.5876H201.482C204.504 77.5876 205.967 79.235 205.967 81.7061C205.967 84.1651 204.504 85.8609 201.506 85.8609H197.952Z" fill="black"/>
<path d="M214.661 98.1074H219.81V87.581C219.81 85.2916 221.478 83.7169 223.751 83.7169C224.464 83.7169 225.443 83.838 225.927 83.9955V79.4167C225.467 79.3077 224.827 79.235 224.307 79.235C222.228 79.235 220.523 80.4463 219.846 82.7478H219.653V79.5015H214.661V98.1074Z" fill="black"/>
<path d="M236.114 98.4708C241.747 98.4708 245.252 94.6067 245.252 88.8771C245.252 83.1112 241.747 79.2592 236.114 79.2592C230.481 79.2592 226.975 83.1112 226.975 88.8771C226.975 94.6067 230.481 98.4708 236.114 98.4708ZM236.138 94.4735C233.539 94.4735 232.209 92.0871 232.209 88.8408C232.209 85.5945 233.539 83.196 236.138 83.196C238.688 83.196 240.018 85.5945 240.018 88.8408C240.018 92.0871 238.688 94.4735 236.138 94.4735Z" fill="black"/>
<path d="M258.476 79.5015H254.983V75.0438H249.833V79.5015H247.295V83.3777H249.833V93.0683C249.809 96.7144 252.287 98.5193 256.022 98.3618C257.352 98.3133 258.295 98.0469 258.815 97.8773L258.005 94.0374C257.751 94.0858 257.207 94.207 256.724 94.207C255.696 94.207 254.983 93.8193 254.983 92.39V83.3777H258.476V79.5015Z" fill="black"/>
<path d="M270.02 98.4708C275.653 98.4708 279.159 94.6067 279.159 88.8771C279.159 83.1112 275.653 79.2592 270.02 79.2592C264.387 79.2592 260.882 83.1112 260.882 88.8771C260.882 94.6067 264.387 98.4708 270.02 98.4708ZM270.044 94.4735C267.445 94.4735 266.116 92.0871 266.116 88.8408C266.116 85.5945 267.445 83.196 270.044 83.196C272.595 83.196 273.925 85.5945 273.925 88.8408C273.925 92.0871 272.595 94.4735 270.044 94.4735Z" fill="black"/>
<path d="M290.896 98.4708C295.84 98.4708 298.946 95.5636 299.188 91.2877H294.329C294.027 93.2742 292.721 94.3887 290.956 94.3887C288.551 94.3887 286.992 92.3657 286.992 88.8045C286.992 85.2916 288.563 83.2808 290.956 83.2808C292.842 83.2808 294.051 84.5285 294.329 86.3818H299.188C298.971 82.0816 295.719 79.2592 290.872 79.2592C285.239 79.2592 281.757 83.1718 281.757 88.8771C281.757 94.534 285.178 98.4708 290.896 98.4708Z" fill="black"/>
<path d="M310.874 98.4708C316.507 98.4708 320.013 94.6067 320.013 88.8771C320.013 83.1112 316.507 79.2592 310.874 79.2592C305.241 79.2592 301.736 83.1112 301.736 88.8771C301.736 94.6067 305.241 98.4708 310.874 98.4708ZM310.898 94.4735C308.299 94.4735 306.97 92.0871 306.97 88.8408C306.97 85.5945 308.299 83.196 310.898 83.196C313.449 83.196 314.779 85.5945 314.779 88.8408C314.779 92.0871 313.449 94.4735 310.898 94.4735Z" fill="black"/>
<path d="M328.51 73.2995H323.361V98.1074H328.51V73.2995Z" fill="black"/>
<defs>
<linearGradient id="paint0_linear" x1="76.9585" y1="0" x2="153.338" y2="89.64" gradientUnits="userSpaceOnUse">
<stop stop-color="#FF8212"/>
<stop offset="1" stop-color="#ED4454"/>
</linearGradient>
<linearGradient id="paint1_linear" x1="76.9585" y1="0" x2="153.338" y2="89.64" gradientUnits="userSpaceOnUse">
<stop stop-color="#FF8212"/>
<stop offset="1" stop-color="#ED4454"/>
</linearGradient>
<linearGradient id="paint2_linear" x1="76.9585" y1="0" x2="153.338" y2="89.64" gradientUnits="userSpaceOnUse">
<stop stop-color="#FF8212"/>
<stop offset="1" stop-color="#ED4454"/>
</linearGradient>
<linearGradient id="paint3_linear" x1="76.9585" y1="0" x2="153.338" y2="89.64" gradientUnits="userSpaceOnUse">
<stop stop-color="#FF8212"/>
<stop offset="1" stop-color="#ED4454"/>
</linearGradient>
<linearGradient id="paint4_linear" x1="76.9585" y1="0" x2="153.338" y2="89.64" gradientUnits="userSpaceOnUse">
<stop stop-color="#FF8212"/>
<stop offset="1" stop-color="#ED4454"/>
</linearGradient>
<linearGradient id="paint5_linear" x1="76.9585" y1="0" x2="153.338" y2="89.64" gradientUnits="userSpaceOnUse">
<stop stop-color="#FF8212"/>
<stop offset="1" stop-color="#ED4454"/>
</linearGradient>
<linearGradient id="paint6_linear" x1="76.9585" y1="0" x2="153.338" y2="89.64" gradientUnits="userSpaceOnUse">
<stop stop-color="#FF8212"/>
<stop offset="1" stop-color="#ED4454"/>
</linearGradient>
<linearGradient id="paint7_linear" x1="76.9585" y1="0" x2="153.338" y2="89.64" gradientUnits="userSpaceOnUse">
<stop stop-color="#FF8212"/>
<stop offset="1" stop-color="#ED4454"/>
</linearGradient>
<linearGradient id="paint8_linear" x1="76.9585" y1="0" x2="153.338" y2="89.64" gradientUnits="userSpaceOnUse">
<stop stop-color="#FF8212"/>
<stop offset="1" stop-color="#ED4454"/>
</linearGradient>
<linearGradient id="paint9_linear" x1="76.9585" y1="0" x2="153.338" y2="89.64" gradientUnits="userSpaceOnUse">
<stop stop-color="#FF8212"/>
<stop offset="1" stop-color="#ED4454"/>
</linearGradient>
<linearGradient id="paint10_linear" x1="76.9585" y1="0" x2="153.338" y2="89.64" gradientUnits="userSpaceOnUse">
<stop stop-color="#FF8212"/>
<stop offset="1" stop-color="#ED4454"/>
</linearGradient>
<linearGradient id="paint11_linear" x1="76.9585" y1="0" x2="153.338" y2="89.64" gradientUnits="userSpaceOnUse">
<stop stop-color="#FF8212"/>
<stop offset="1" stop-color="#ED4454"/>
</linearGradient>
<linearGradient id="paint12_linear" x1="76.9585" y1="0" x2="153.338" y2="89.64" gradientUnits="userSpaceOnUse">
<stop stop-color="#FF8212"/>
<stop offset="1" stop-color="#ED4454"/>
</linearGradient>
<linearGradient id="paint13_linear" x1="76.9585" y1="0" x2="153.338" y2="89.64" gradientUnits="userSpaceOnUse">
<stop stop-color="#FF8212"/>
<stop offset="1" stop-color="#ED4454"/>
</linearGradient>
<linearGradient id="paint14_linear" x1="76.9585" y1="0" x2="153.338" y2="89.64" gradientUnits="userSpaceOnUse">
<stop stop-color="#FF8212"/>
<stop offset="1" stop-color="#ED4454"/>
</linearGradient>
<linearGradient id="paint15_linear" x1="76.9585" y1="0" x2="153.338" y2="89.64" gradientUnits="userSpaceOnUse">
<stop stop-color="#FF8212"/>
<stop offset="1" stop-color="#ED4454"/>
</linearGradient>
<linearGradient id="paint16_linear" x1="76.9585" y1="0" x2="153.338" y2="89.64" gradientUnits="userSpaceOnUse">
<stop stop-color="#FF8212"/>
<stop offset="1" stop-color="#ED4454"/>
</linearGradient>
<linearGradient id="paint17_linear" x1="76.9585" y1="0" x2="153.338" y2="89.64" gradientUnits="userSpaceOnUse">
<stop stop-color="#FF8212"/>
<stop offset="1" stop-color="#ED4454"/>
</linearGradient>
<linearGradient id="paint18_linear" x1="76.9585" y1="0" x2="153.338" y2="89.64" gradientUnits="userSpaceOnUse">
<stop stop-color="#FF8212"/>
<stop offset="1" stop-color="#ED4454"/>
</linearGradient>
<linearGradient id="paint19_linear" x1="76.9585" y1="0" x2="153.338" y2="89.64" gradientUnits="userSpaceOnUse">
<stop stop-color="#FF8212"/>
<stop offset="1" stop-color="#ED4454"/>
</linearGradient>
<linearGradient id="paint20_linear" x1="76.9585" y1="0" x2="153.338" y2="89.64" gradientUnits="userSpaceOnUse">
<stop stop-color="#FF8212"/>
<stop offset="1" stop-color="#ED4454"/>
</linearGradient>
<linearGradient id="paint21_linear" x1="76.9585" y1="0" x2="153.338" y2="89.64" gradientUnits="userSpaceOnUse">
<stop stop-color="#FF8212"/>
<stop offset="1" stop-color="#ED4454"/>
</linearGradient>
<linearGradient id="paint22_linear" x1="76.9585" y1="0" x2="153.338" y2="89.64" gradientUnits="userSpaceOnUse">
<stop stop-color="#FF8212"/>
<stop offset="1" stop-color="#ED4454"/>
</linearGradient>
<linearGradient id="paint23_linear" x1="76.9585" y1="0" x2="153.338" y2="89.64" gradientUnits="userSpaceOnUse">
<stop stop-color="#FF8212"/>
<stop offset="1" stop-color="#ED4454"/>
</linearGradient>
<linearGradient id="paint24_linear" x1="76.9585" y1="0" x2="153.338" y2="89.64" gradientUnits="userSpaceOnUse">
<stop stop-color="#FF8212"/>
<stop offset="1" stop-color="#ED4454"/>
</linearGradient>
<linearGradient id="paint25_linear" x1="76.9585" y1="0" x2="153.338" y2="89.64" gradientUnits="userSpaceOnUse">
<stop stop-color="#FF8212"/>
<stop offset="1" stop-color="#ED4454"/>
</linearGradient>
<linearGradient id="paint26_linear" x1="76.9585" y1="0" x2="153.338" y2="89.64" gradientUnits="userSpaceOnUse">
<stop stop-color="#FF8212"/>
<stop offset="1" stop-color="#ED4454"/>
</linearGradient>
<linearGradient id="paint27_linear" x1="76.9585" y1="0" x2="153.338" y2="89.64" gradientUnits="userSpaceOnUse">
<stop stop-color="#FF8212"/>
<stop offset="1" stop-color="#ED4454"/>
</linearGradient>
<linearGradient id="paint28_linear" x1="76.9585" y1="0" x2="153.338" y2="89.64" gradientUnits="userSpaceOnUse">
<stop stop-color="#FF8212"/>
<stop offset="1" stop-color="#ED4454"/>
</linearGradient>
<linearGradient id="paint29_linear" x1="76.9585" y1="0" x2="153.338" y2="89.64" gradientUnits="userSpaceOnUse">
<stop stop-color="#FF8212"/>
<stop offset="1" stop-color="#ED4454"/>
</linearGradient>
<linearGradient id="paint30_linear" x1="76.9585" y1="0" x2="153.338" y2="89.64" gradientUnits="userSpaceOnUse">
<stop stop-color="#FF8212"/>
<stop offset="1" stop-color="#ED4454"/>
</linearGradient>
<linearGradient id="paint31_linear" x1="76.9585" y1="0" x2="153.338" y2="89.64" gradientUnits="userSpaceOnUse">
<stop stop-color="#FF8212"/>
<stop offset="1" stop-color="#ED4454"/>
</linearGradient>
<linearGradient id="paint32_linear" x1="76.9585" y1="0" x2="153.338" y2="89.64" gradientUnits="userSpaceOnUse">
<stop stop-color="#FF8212"/>
<stop offset="1" stop-color="#ED4454"/>
</linearGradient>
<linearGradient id="paint33_linear" x1="76.9585" y1="0" x2="153.338" y2="89.64" gradientUnits="userSpaceOnUse">
<stop stop-color="#FF8212"/>
<stop offset="1" stop-color="#ED4454"/>
</linearGradient>
<linearGradient id="paint34_linear" x1="76.9585" y1="0" x2="153.338" y2="89.64" gradientUnits="userSpaceOnUse">
<stop stop-color="#FF8212"/>
<stop offset="1" stop-color="#ED4454"/>
</linearGradient>
<linearGradient id="paint35_linear" x1="76.9585" y1="0" x2="153.338" y2="89.64" gradientUnits="userSpaceOnUse">
<stop stop-color="#FF8212"/>
<stop offset="1" stop-color="#ED4454"/>
</linearGradient>
<linearGradient id="paint36_linear" x1="76.9585" y1="0" x2="153.338" y2="89.64" gradientUnits="userSpaceOnUse">
<stop stop-color="#FF8212"/>
<stop offset="1" stop-color="#ED4454"/>
</linearGradient>
<linearGradient id="paint37_linear" x1="76.9585" y1="0" x2="153.338" y2="89.64" gradientUnits="userSpaceOnUse">
<stop stop-color="#FF8212"/>
<stop offset="1" stop-color="#ED4454"/>
</linearGradient>
<linearGradient id="paint38_linear" x1="76.9585" y1="0" x2="153.338" y2="89.64" gradientUnits="userSpaceOnUse">
<stop stop-color="#FF8212"/>
<stop offset="1" stop-color="#ED4454"/>
</linearGradient>
<linearGradient id="paint39_linear" x1="76.9585" y1="0" x2="153.338" y2="89.64" gradientUnits="userSpaceOnUse">
<stop stop-color="#FF8212"/>
<stop offset="1" stop-color="#ED4454"/>
</linearGradient>
<linearGradient id="paint40_linear" x1="76.9585" y1="0" x2="153.338" y2="89.64" gradientUnits="userSpaceOnUse">
<stop stop-color="#FF8212"/>
<stop offset="1" stop-color="#ED4454"/>
</linearGradient>
<linearGradient id="paint41_linear" x1="76.9585" y1="0" x2="153.338" y2="89.64" gradientUnits="userSpaceOnUse">
<stop stop-color="#FF8212"/>
<stop offset="1" stop-color="#ED4454"/>
</linearGradient>
<linearGradient id="paint42_linear" x1="76.9585" y1="0" x2="153.338" y2="89.64" gradientUnits="userSpaceOnUse">
<stop stop-color="#FF8212"/>
<stop offset="1" stop-color="#ED4454"/>
</linearGradient>
<linearGradient id="paint43_linear" x1="76.9585" y1="0" x2="153.338" y2="89.64" gradientUnits="userSpaceOnUse">
<stop stop-color="#FF8212"/>
<stop offset="1" stop-color="#ED4454"/>
</linearGradient>
<linearGradient id="paint44_linear" x1="76.9585" y1="0" x2="153.338" y2="89.64" gradientUnits="userSpaceOnUse">
<stop stop-color="#FF8212"/>
<stop offset="1" stop-color="#ED4454"/>
</linearGradient>
<linearGradient id="paint45_linear" x1="76.9585" y1="0" x2="153.338" y2="89.64" gradientUnits="userSpaceOnUse">
<stop stop-color="#FF8212"/>
<stop offset="1" stop-color="#ED4454"/>
</linearGradient>
<linearGradient id="paint46_linear" x1="76.9585" y1="0" x2="153.338" y2="89.64" gradientUnits="userSpaceOnUse">
<stop stop-color="#FF8212"/>
<stop offset="1" stop-color="#ED4454"/>
</linearGradient>
<linearGradient id="paint47_linear" x1="76.9585" y1="0" x2="153.338" y2="89.64" gradientUnits="userSpaceOnUse">
<stop stop-color="#FF8212"/>
<stop offset="1" stop-color="#ED4454"/>
</linearGradient>
<linearGradient id="paint48_linear" x1="76.9585" y1="0" x2="153.338" y2="89.64" gradientUnits="userSpaceOnUse">
<stop stop-color="#FF8212"/>
<stop offset="1" stop-color="#ED4454"/>
</linearGradient>
<linearGradient id="paint49_linear" x1="76.9585" y1="0" x2="153.338" y2="89.64" gradientUnits="userSpaceOnUse">
<stop stop-color="#FF8212"/>
<stop offset="1" stop-color="#ED4454"/>
</linearGradient>
<linearGradient id="paint50_linear" x1="76.9585" y1="0" x2="153.338" y2="89.64" gradientUnits="userSpaceOnUse">
<stop stop-color="#FF8212"/>
<stop offset="1" stop-color="#ED4454"/>
</linearGradient>
<linearGradient id="paint51_linear" x1="76.9585" y1="0" x2="153.338" y2="89.64" gradientUnits="userSpaceOnUse">
<stop stop-color="#FF8212"/>
<stop offset="1" stop-color="#ED4454"/>
</linearGradient>
<linearGradient id="paint52_linear" x1="76.9585" y1="0" x2="153.338" y2="89.64" gradientUnits="userSpaceOnUse">
<stop stop-color="#FF8212"/>
<stop offset="1" stop-color="#ED4454"/>
</linearGradient>
<linearGradient id="paint53_linear" x1="76.9585" y1="0" x2="153.338" y2="89.64" gradientUnits="userSpaceOnUse">
<stop stop-color="#FF8212"/>
<stop offset="1" stop-color="#ED4454"/>
</linearGradient>
<linearGradient id="paint54_linear" x1="76.9585" y1="0" x2="153.338" y2="89.64" gradientUnits="userSpaceOnUse">
<stop stop-color="#FF8212"/>
<stop offset="1" stop-color="#ED4454"/>
</linearGradient>
<linearGradient id="paint55_linear" x1="76.9585" y1="0" x2="153.338" y2="89.64" gradientUnits="userSpaceOnUse">
<stop stop-color="#FF8212"/>
<stop offset="1" stop-color="#ED4454"/>
</linearGradient>
<linearGradient id="paint56_linear" x1="76.9585" y1="0" x2="153.338" y2="89.64" gradientUnits="userSpaceOnUse">
<stop stop-color="#FF8212"/>
<stop offset="1" stop-color="#ED4454"/>
</linearGradient>
<linearGradient id="paint57_linear" x1="76.9585" y1="0" x2="153.338" y2="89.64" gradientUnits="userSpaceOnUse">
<stop stop-color="#FF8212"/>
<stop offset="1" stop-color="#ED4454"/>
</linearGradient>
<linearGradient id="paint58_linear" x1="76.9585" y1="0" x2="153.338" y2="89.64" gradientUnits="userSpaceOnUse">
<stop stop-color="#FF8212"/>
<stop offset="1" stop-color="#ED4454"/>
</linearGradient>
<linearGradient id="paint59_linear" x1="76.9585" y1="0" x2="153.338" y2="89.64" gradientUnits="userSpaceOnUse">
<stop stop-color="#FF8212"/>
<stop offset="1" stop-color="#ED4454"/>
</linearGradient>
<linearGradient id="paint60_linear" x1="76.9585" y1="0" x2="153.338" y2="89.64" gradientUnits="userSpaceOnUse">
<stop stop-color="#FF8212"/>
<stop offset="1" stop-color="#ED4454"/>
</linearGradient>
<linearGradient id="paint61_linear" x1="76.9585" y1="0" x2="153.338" y2="89.64" gradientUnits="userSpaceOnUse">
<stop stop-color="#FF8212"/>
<stop offset="1" stop-color="#ED4454"/>
</linearGradient>
<linearGradient id="paint62_linear" x1="76.9585" y1="0" x2="153.338" y2="89.64" gradientUnits="userSpaceOnUse">
<stop stop-color="#FF8212"/>
<stop offset="1" stop-color="#ED4454"/>
</linearGradient>
<linearGradient id="paint63_linear" x1="76.9585" y1="0" x2="153.338" y2="89.64" gradientUnits="userSpaceOnUse">
<stop stop-color="#FF8212"/>
<stop offset="1" stop-color="#ED4454"/>
</linearGradient>
<linearGradient id="paint64_linear" x1="76.9585" y1="0" x2="153.338" y2="89.64" gradientUnits="userSpaceOnUse">
<stop stop-color="#FF8212"/>
<stop offset="1" stop-color="#ED4454"/>
</linearGradient>
</defs>
</svg>
