<svg width="1370" height="1371" viewBox="0 0 1370 1371" fill="none" xmlns="http://www.w3.org/2000/svg">
<g opacity="0.05">
<path fill-rule="evenodd" clip-rule="evenodd" d="M312.912 814.485C272.83 785.311 246.749 738.032 246.749 684.728H0C0 872.155 126.796 1030.09 299.249 1077.4C289.157 1041.84 283.76 1004.26 283.76 965.405C283.76 912.058 294.11 861.118 312.912 814.485Z" fill="url(#paint0_linear)"/>
<path fill-rule="evenodd" clip-rule="evenodd" d="M404.051 530.509C317.255 530.509 246.749 597.931 246.749 684.727H0C0 461.656 180.98 283.76 404.051 283.76C627.123 283.76 808.102 464.74 808.102 687.811C808.102 774.607 878.609 845.113 965.405 845.113C1052.2 845.113 1122.71 774.607 1122.71 687.811H1369.46C1369.46 910.882 1188.48 1091.86 965.405 1091.86C742.333 1091.86 561.354 910.882 561.354 687.811C561.354 601.015 490.847 530.509 404.051 530.509Z" fill="url(#paint1_linear)"/>
<path fill-rule="evenodd" clip-rule="evenodd" d="M812.289 1062.51C783.401 1099.1 737.751 1123.4 684.728 1123.4V1370.15C869.793 1370.15 1029 1247.33 1077.05 1076.92C1041.59 1087.1 1004.13 1092.55 965.404 1092.55C911.219 1092.55 859.517 1081.88 812.289 1062.51Z" fill="url(#paint2_linear)"/>
<path fill-rule="evenodd" clip-rule="evenodd" d="M563.607 316.512C591.848 273.887 639.239 246.749 690.892 246.749V0C505.777 0 352.688 126.398 305.194 295.758C336.832 287.917 369.95 283.76 404.051 283.76C460.711 283.76 514.655 295.436 563.607 316.512Z" fill="url(#paint3_linear)"/>
<path fill-rule="evenodd" clip-rule="evenodd" d="M1057.79 565.541C1096.79 593.543 1122.22 639.282 1122.22 690.896H1368.97C1368.97 508.135 1246.56 353.846 1079.29 305.587C1087.18 337.106 1091.38 370.09 1091.38 404.051C1091.38 461.457 1079.39 516.077 1057.79 565.541Z" fill="url(#paint4_linear)"/>
<path fill-rule="evenodd" clip-rule="evenodd" d="M687.387 246.749C774.183 246.749 844.69 317.255 844.69 404.051C844.69 457.541 817.912 504.845 777.046 533.271C796.783 580.883 807.678 633.08 807.678 687.811C807.678 721.972 818.6 753.61 837.138 779.419C986.119 719.896 1091.44 574.221 1091.44 404.051C1091.44 180.98 910.458 0 687.387 0V246.749ZM591.045 841.099C571.634 793.825 560.929 742.063 560.929 687.811C560.929 652.413 549.202 619.724 529.426 593.423C384.8 654.95 283.336 798.378 283.336 965.405C283.336 1188.48 461.235 1369.46 684.306 1369.46V1122.71C597.51 1122.71 530.085 1052.2 530.085 965.405C530.085 914.889 553.968 869.891 591.045 841.099Z" fill="url(#paint5_linear)"/>
</g>
<defs>
<linearGradient id="paint0_linear" x1="265.256" y1="684.728" x2="265.256" y2="968.489" gradientUnits="userSpaceOnUse">
<stop stop-color="white" stop-opacity="0.1"/>
<stop offset="1" stop-color="white" stop-opacity="0.81"/>
</linearGradient>
<linearGradient id="paint1_linear" x1="684.728" y1="1159.31" x2="1145.15" y2="689.449" gradientUnits="userSpaceOnUse">
<stop stop-color="white" stop-opacity="0.1"/>
<stop offset="1" stop-color="white"/>
</linearGradient>
<linearGradient id="paint2_linear" x1="646.949" y1="1159.32" x2="1053.06" y2="1053.76" gradientUnits="userSpaceOnUse">
<stop stop-color="white" stop-opacity="0.1"/>
<stop offset="1" stop-color="white"/>
</linearGradient>
<linearGradient id="paint3_linear" x1="363.95" y1="342.362" x2="690.891" y2="163.469" gradientUnits="userSpaceOnUse">
<stop stop-color="white"/>
<stop offset="1" stop-color="white"/>
</linearGradient>
<linearGradient id="paint4_linear" x1="1106.8" y1="413.304" x2="1106.8" y2="690.896" gradientUnits="userSpaceOnUse">
<stop stop-color="white"/>
<stop offset="1" stop-color="white"/>
</linearGradient>
<linearGradient id="paint5_linear" x1="634.723" y1="250.28" x2="689.029" y2="1286.82" gradientUnits="userSpaceOnUse">
<stop stop-color="white"/>
<stop offset="1" stop-color="white" stop-opacity="0.1"/>
</linearGradient>
</defs>
</svg>
