<svg width="328" height="222" viewBox="0 0 328 222" fill="none" xmlns="http://www.w3.org/2000/svg">
<path d="M0 23.5875L79.4882 0L147.241 17.6381L67.7528 41.2023L0 23.5875Z" fill="#FB822A"/>
<path d="M224.813 105.572C223.577 105.946 222.317 106.226 221.034 106.459C220.777 106.506 220.497 106.552 220.24 106.599C219.167 106.785 218.071 106.925 216.951 107.019C216.787 107.042 216.624 107.019 216.461 107.042C215.644 107.089 214.804 107.135 213.988 107.135C213.591 107.135 213.195 107.112 212.821 107.112C212.261 107.089 211.701 107.089 211.141 107.042C210.698 107.019 210.255 106.972 209.788 106.925C209.298 106.879 208.832 106.832 208.342 106.762C207.828 106.692 207.339 106.599 206.825 106.529C206.429 106.459 206.032 106.389 205.635 106.319C204.795 106.156 203.979 105.969 203.139 105.759C202.346 105.549 201.552 105.316 200.759 105.059C200.573 105.012 200.386 104.966 200.223 104.896C199.336 104.592 198.449 104.289 197.563 103.939C197.33 103.846 197.096 103.729 196.863 103.636C196.233 103.379 195.58 103.099 194.95 102.819C194.623 102.679 194.32 102.516 194.017 102.376C193.457 102.119 192.92 101.839 192.383 101.559C192.057 101.396 191.707 101.209 191.38 101.023C190.867 100.743 190.33 100.439 189.817 100.136C189.467 99.9262 189.14 99.7396 188.79 99.5296C188.277 99.2263 187.764 98.8763 187.251 98.5497C186.924 98.3397 186.597 98.1297 186.271 97.8964C185.781 97.5698 185.291 97.2198 184.801 96.8465C184.451 96.5899 184.101 96.3333 183.751 96.0766C183.284 95.7267 182.818 95.3534 182.328 94.9801C181.978 94.7001 181.605 94.4201 181.255 94.1402C180.881 93.8369 180.508 93.4869 180.135 93.1836C179.668 92.787 179.201 92.3903 178.735 91.9704C178.408 91.6671 178.082 91.3638 177.755 91.0605C177.218 90.5705 176.682 90.0573 176.168 89.544C175.865 89.2407 175.539 88.914 175.235 88.5874C174.652 88.0041 174.092 87.3975 173.532 86.7909C173.229 86.4643 172.925 86.1377 172.646 85.811C171.899 84.9711 171.152 84.1079 170.429 83.2213C170.266 83.0113 170.079 82.8247 169.916 82.6147C168.866 81.3315 167.863 79.9783 166.883 78.6018C166.626 78.2518 166.393 77.9252 166.136 77.5753C165.693 76.922 165.25 76.2687 164.806 75.6155C164.526 75.1955 164.27 74.7989 163.99 74.3789C163.523 73.6557 163.08 72.9324 162.637 72.2092C162.427 71.8592 162.193 71.5092 161.983 71.1359C161.19 69.7827 160.42 68.4062 159.674 67.0064C159.487 66.6797 159.324 66.3531 159.16 66.0032C158.53 64.7666 157.9 63.5301 157.317 62.2702C157.201 62.0136 157.084 61.7569 156.967 61.5003C156.291 60.0305 155.661 58.5606 155.054 57.0674C154.914 56.7175 154.774 56.3442 154.634 55.9942C154.121 54.6644 153.631 53.3345 153.141 52.0046C153.048 51.748 152.954 51.5147 152.884 51.258C152.161 49.1349 151.508 46.9885 150.924 44.7954C150.855 44.5621 150.808 44.3521 150.738 44.1421C150.341 42.6023 149.968 41.0625 149.618 39.4993C149.525 39.056 149.431 38.6361 149.361 38.1928C149.175 37.2362 148.988 36.2796 148.801 35.3231C148.708 34.7865 148.615 34.2499 148.521 33.7366C148.405 32.99 148.288 32.2434 148.195 31.4735C148.125 30.8902 148.031 30.3069 147.961 29.7237C147.891 29.0937 147.821 28.4638 147.752 27.8105C147.682 27.1806 147.635 26.5507 147.565 25.9207C147.518 25.3375 147.472 24.7309 147.448 24.1476C147.402 23.4943 147.355 22.8177 147.332 22.1645C147.308 21.6512 147.285 21.1146 147.285 20.6013C147.262 19.6214 147.238 18.6415 147.238 17.6616L67.75 41.2025C67.75 41.8324 67.75 42.4856 67.7733 43.1156C67.7733 43.4655 67.7967 43.7922 67.82 44.1421C67.8433 44.6554 67.8433 45.192 67.8667 45.7053C67.89 45.9853 67.89 46.2652 67.89 46.5685C67.9133 46.9418 67.9366 47.3151 67.96 47.7118C68.0066 48.295 68.03 48.9016 68.1 49.4849C68.1233 49.7415 68.1233 49.9749 68.1466 50.2315C68.17 50.6048 68.2399 50.9781 68.2633 51.3514C68.3333 51.9813 68.4033 52.6346 68.4733 53.2645C68.4966 53.5211 68.5199 53.7545 68.5432 54.0111C68.5899 54.3377 68.6366 54.6644 68.6832 55.0143C68.7766 55.7609 68.8932 56.5308 69.0099 57.2774C69.0565 57.5574 69.0799 57.8373 69.1265 58.1173C69.1732 58.374 69.2198 58.6073 69.2665 58.8639C69.4298 59.8205 69.6165 60.777 69.8264 61.7336C69.8964 62.0369 69.9431 62.3635 70.0131 62.6668C70.0364 62.7835 70.0831 62.9001 70.1064 63.0401C70.4564 64.6033 70.8063 66.1431 71.2263 67.683C71.2496 67.7763 71.273 67.8463 71.2963 67.9396C71.3429 68.0796 71.3896 68.1963 71.4129 68.3362C71.9962 70.506 72.6495 72.6758 73.3727 74.7989C73.3961 74.8689 73.3961 74.9155 73.4194 74.9855C73.4894 75.1722 73.5594 75.3588 73.6294 75.5455C74.096 76.8987 74.5859 78.2052 75.0992 79.535C75.2392 79.885 75.3792 80.2583 75.5192 80.6083C76.1258 82.1014 76.7557 83.5946 77.4323 85.0411C77.549 85.2978 77.6656 85.5311 77.7823 85.7877C78.3655 87.0476 78.9955 88.3074 79.6254 89.544C79.7887 89.8706 79.9754 90.2206 80.1387 90.5472C80.8853 91.9471 81.6552 93.3236 82.4484 94.6768C82.4951 94.7468 82.5184 94.8167 82.5651 94.8867C82.7284 95.19 82.9384 95.47 83.1017 95.75C83.545 96.4732 83.9883 97.2198 84.4549 97.9198C84.7115 98.3397 84.9915 98.7363 85.2715 99.1563C85.7148 99.8096 86.158 100.463 86.6013 101.116C86.7413 101.326 86.8813 101.536 87.0213 101.723C87.1146 101.863 87.2313 102.003 87.3479 102.143C88.3278 103.519 89.3544 104.849 90.4043 106.156C90.4509 106.202 90.4743 106.249 90.4976 106.296C90.6376 106.459 90.7775 106.599 90.8942 106.762C91.6175 107.649 92.364 108.512 93.1106 109.352C93.2506 109.515 93.3906 109.679 93.5073 109.818C93.6706 109.982 93.8339 110.145 93.9739 110.332C94.5338 110.938 95.1171 111.545 95.677 112.128C95.887 112.338 96.0737 112.572 96.2836 112.758C96.4003 112.875 96.4936 112.968 96.6103 113.061C97.1469 113.575 97.6602 114.088 98.1968 114.578C98.4534 114.811 98.6867 115.068 98.9434 115.301C99.0133 115.371 99.0833 115.418 99.1533 115.488C99.6199 115.908 100.087 116.304 100.553 116.724C100.88 117.004 101.183 117.284 101.486 117.541C101.556 117.588 101.603 117.634 101.673 117.681C102.023 117.984 102.396 118.241 102.746 118.521C103.143 118.824 103.516 119.151 103.913 119.454C103.983 119.524 104.076 119.571 104.146 119.617C104.496 119.874 104.846 120.131 105.196 120.387C105.569 120.667 105.943 120.947 106.316 121.204C106.433 121.274 106.549 121.344 106.666 121.437C106.993 121.671 107.319 121.881 107.646 122.091C107.996 122.324 108.322 122.557 108.672 122.767C108.836 122.884 109.022 122.977 109.186 123.07C109.512 123.28 109.862 123.467 110.212 123.677C110.492 123.84 110.749 124.004 111.029 124.167C111.262 124.307 111.519 124.424 111.775 124.564C112.102 124.75 112.452 124.914 112.779 125.1C112.989 125.194 113.175 125.31 113.385 125.427C113.735 125.59 114.085 125.753 114.435 125.917C114.762 126.057 115.065 126.22 115.392 126.36C115.508 126.407 115.648 126.477 115.765 126.547C116.278 126.78 116.791 126.967 117.305 127.177C117.538 127.27 117.771 127.387 118.005 127.48C118.051 127.503 118.098 127.527 118.145 127.55C118.961 127.853 119.778 128.157 120.594 128.437C120.618 128.437 120.641 128.46 120.664 128.46C120.851 128.53 121.038 128.576 121.201 128.623C121.831 128.81 122.438 129.02 123.067 129.183C123.231 129.23 123.417 129.276 123.581 129.323C124.281 129.51 124.981 129.673 125.681 129.813C125.82 129.836 125.937 129.86 126.077 129.883C126.474 129.953 126.87 130.023 127.267 130.093C127.617 130.163 127.967 130.233 128.317 130.28C128.48 130.303 128.62 130.303 128.784 130.326C129.273 130.396 129.74 130.443 130.23 130.49C130.533 130.513 130.837 130.56 131.163 130.606C131.303 130.606 131.443 130.606 131.583 130.63C132.143 130.676 132.703 130.676 133.263 130.7C133.566 130.7 133.846 130.746 134.15 130.746C134.243 130.746 134.336 130.746 134.43 130.746C135.269 130.746 136.086 130.723 136.903 130.653C137.043 130.653 137.206 130.653 137.346 130.63C137.369 130.63 137.393 130.63 137.393 130.63C138.512 130.536 139.609 130.396 140.682 130.21C140.799 130.186 140.916 130.186 141.032 130.163C141.172 130.14 141.312 130.093 141.476 130.07C142.759 129.836 144.019 129.556 145.255 129.183L224.813 105.572Z" fill="url(#paint0_linear)"/>
<path d="M247.587 87.9808C247.424 177.105 191.407 235.898 123.49 218.214C55.6209 200.552 -0.116471 112.688 0.000182779 23.5876L67.753 41.2258C67.7063 81.5415 92.927 121.297 123.654 129.3C154.38 137.302 179.741 110.682 179.834 70.3427L247.587 87.9808Z" fill="url(#paint1_linear)"/>
<path d="M327.074 64.3936L247.585 87.981C247.585 89.4509 247.539 90.9207 247.515 92.3906C247.492 93.7671 247.445 95.1436 247.375 96.4968C247.329 97.3601 247.305 98.2466 247.259 99.1099C247.189 100.486 247.072 101.863 246.979 103.216C246.909 104.009 246.862 104.826 246.792 105.619C246.652 107.136 246.489 108.629 246.325 110.145C246.255 110.752 246.209 111.359 246.139 111.965C245.882 114.065 245.602 116.141 245.276 118.171C245.206 118.591 245.136 118.988 245.066 119.408C244.809 121.041 244.529 122.674 244.202 124.261C244.062 124.937 243.922 125.614 243.782 126.29C243.502 127.667 243.222 129.02 242.896 130.373C242.732 131.12 242.546 131.866 242.359 132.613C242.056 133.873 241.729 135.156 241.379 136.393C241.193 137.116 240.983 137.839 240.796 138.562C240.376 140.056 239.933 141.525 239.466 142.972C239.303 143.508 239.14 144.045 238.953 144.582C238.3 146.588 237.623 148.548 236.9 150.484C236.76 150.858 236.62 151.208 236.48 151.558C235.827 153.261 235.15 154.917 234.473 156.55C234.24 157.087 234.007 157.647 233.773 158.184C232.84 160.307 231.884 162.406 230.857 164.436C230.81 164.53 230.764 164.6 230.717 164.693C229.597 166.909 228.407 169.079 227.194 171.179C226.937 171.622 226.704 172.042 226.448 172.485C226.051 173.162 225.631 173.815 225.234 174.469C224.791 175.192 224.348 175.892 223.904 176.592C223.484 177.245 223.065 177.875 222.621 178.505C222.178 179.158 221.758 179.788 221.315 180.418C220.381 181.748 219.425 183.031 218.468 184.291C218.328 184.477 218.188 184.664 218.048 184.851C216.929 186.297 215.785 187.674 214.619 189.027C214.339 189.354 214.036 189.68 213.756 190.007C212.636 191.267 211.516 192.503 210.349 193.693C210.023 194.043 209.696 194.37 209.369 194.72C207.97 196.12 206.57 197.473 205.1 198.756C204.843 198.989 204.563 199.223 204.307 199.456C203.047 200.552 201.787 201.602 200.48 202.629C200.107 202.932 199.734 203.235 199.337 203.515C197.821 204.682 196.257 205.802 194.671 206.852C194.438 207.015 194.204 207.155 193.971 207.295C192.571 208.205 191.148 209.092 189.701 209.908C189.281 210.141 188.862 210.398 188.442 210.631C186.785 211.541 185.105 212.428 183.402 213.244C183.262 213.314 183.099 213.361 182.959 213.431C181.372 214.178 179.762 214.854 178.129 215.484C177.663 215.671 177.219 215.834 176.753 216.021C174.98 216.674 173.183 217.304 171.363 217.841C171.363 217.841 163 220 156.5 221C187.999 223.5 251 194.72 251 194.72C252.82 194.183 254.727 193.153 256.5 192.5C256.967 192.337 257.151 192.083 257.618 191.897C259.251 191.267 260.861 190.59 262.447 189.844C262.587 189.774 262.75 189.727 262.89 189.657C264.593 188.84 266.273 187.977 267.93 187.044C268.35 186.811 268.77 186.554 269.19 186.321C270.636 185.481 272.059 184.617 273.459 183.684C273.693 183.544 273.926 183.404 274.159 183.241C275.746 182.191 277.285 181.071 278.825 179.905C279.199 179.625 279.595 179.321 279.969 179.018C281.252 177.991 282.535 176.942 283.795 175.845C284.051 175.612 284.331 175.378 284.588 175.145C286.035 173.839 287.458 172.485 288.858 171.109C289.184 170.782 289.511 170.432 289.837 170.082C291.004 168.892 292.124 167.656 293.244 166.396C293.43 166.186 293.64 165.976 293.827 165.766C293.92 165.649 294.014 165.533 294.107 165.416C295.274 164.063 296.417 162.663 297.537 161.24C297.677 161.053 297.817 160.867 297.957 160.68C298.936 159.42 299.87 158.114 300.803 156.807C300.92 156.644 301.06 156.48 301.176 156.294C301.503 155.827 301.806 155.337 302.11 154.871C302.529 154.241 302.973 153.611 303.393 152.957C303.836 152.258 304.279 151.534 304.723 150.834C305.119 150.181 305.539 149.528 305.936 148.851C306.052 148.641 306.169 148.455 306.309 148.268C306.449 148.035 306.566 147.801 306.682 147.568C307.896 145.468 309.085 143.299 310.205 141.082C310.252 141.012 310.275 140.942 310.322 140.872C310.322 140.849 310.345 140.825 310.345 140.802C311.372 138.772 312.328 136.673 313.262 134.549C313.378 134.293 313.495 134.059 313.612 133.803C313.728 133.523 313.845 133.22 313.962 132.916C314.661 131.283 315.338 129.627 315.968 127.923C316.085 127.643 316.201 127.364 316.295 127.084C316.318 126.99 316.365 126.897 316.388 126.827C317.111 124.89 317.788 122.931 318.441 120.924C318.488 120.784 318.534 120.668 318.581 120.528C318.721 120.131 318.814 119.711 318.954 119.291C319.421 117.845 319.864 116.375 320.284 114.882C320.378 114.555 320.471 114.252 320.564 113.948C320.681 113.552 320.774 113.132 320.867 112.712C321.194 111.452 321.521 110.192 321.824 108.932C321.941 108.466 322.057 108.022 322.174 107.579C322.244 107.276 322.291 106.996 322.361 106.692C322.664 105.339 322.967 103.986 323.247 102.609C323.341 102.096 323.481 101.606 323.574 101.093C323.597 100.93 323.621 100.766 323.667 100.603C323.97 98.9932 324.25 97.36 324.53 95.7269C324.6 95.3536 324.67 95.0036 324.717 94.6303C324.717 94.5837 324.717 94.537 324.74 94.4904C325.067 92.4372 325.347 90.3608 325.604 88.2843C325.604 88.191 325.627 88.121 325.627 88.0277C325.697 87.5144 325.72 86.9778 325.79 86.4645C325.954 84.9714 326.117 83.4549 326.257 81.9384C326.28 81.7284 326.304 81.5417 326.327 81.3318C326.374 80.7485 326.397 80.1419 326.444 79.5586C326.537 78.2054 326.654 76.8289 326.724 75.4524C326.747 75.1257 326.77 74.7991 326.794 74.4492C326.817 73.9125 326.817 73.3759 326.84 72.8393C326.887 71.4861 326.934 70.1096 326.98 68.7331C326.98 68.2665 327.027 67.8232 327.027 67.3566C327.074 66.4233 327.074 65.4201 327.074 64.3936Z" fill="url(#paint2_linear)"/>
<path d="M179.828 70.3426L259.316 46.7551L327.069 64.3933L247.581 87.9807L179.828 70.3426Z" fill="#FD675A"/>
<path d="M100.586 101.595C100.586 107.211 105.15 111.775 110.766 111.775C116.381 111.775 120.946 107.211 120.946 101.595C120.946 95.9799 116.381 91.4154 110.766 91.4154C105.15 91.3854 100.586 95.9499 100.586 101.595Z" fill="#FFC107"/>
<path d="M75.6862 173.426V178.591C75.6862 180.002 74.9655 181.324 73.7343 182.075L58.0589 191.774C56.4373 192.765 54.3953 192.795 52.7437 191.804L47.939 189.101C47.0381 188.501 46.4375 187.51 46.4375 186.399V183.426C46.4375 183.426 47.0981 183.666 48.0591 183.065L58.4793 176.729V173.396H75.6862V173.426Z" fill="#48486A"/>
<path d="M75.6919 170.542V175.708C75.6919 177.119 74.9712 178.44 73.74 179.191L58.0646 188.89C56.443 189.881 54.401 189.911 52.7494 188.921L48.0347 186.068C45.8426 184.746 45.8426 181.563 48.0347 180.242L58.455 173.906V170.573H75.6919V170.542Z" fill="white"/>
<path d="M65.148 180.452V179.401L59.1121 175.918L59.082 176.879L65.148 180.452Z" fill="#48486A"/>
<path d="M62.8745 182.464V181.473L56.8386 177.99L56.8086 178.891L62.8745 182.464Z" fill="#48486A"/>
<path d="M59.834 184.597V183.606L53.8281 180.122L53.8582 181.113L59.834 184.597Z" fill="#48486A"/>
<path d="M73.2049 174.056C76.5381 172.134 76.5381 168.951 73.2049 167.029C69.8716 165.107 64.3762 165.107 61.0429 167.029C57.7097 168.951 57.7097 172.134 61.0429 174.056C64.3762 176.008 69.8716 176.008 73.2049 174.056Z" fill="#48486A"/>
<path d="M71.1259 172.885C73.3481 171.624 73.3481 169.522 71.1259 168.26C68.9037 166.999 65.3002 166.999 63.108 168.26C60.8859 169.522 60.8859 171.624 63.108 172.885C65.3002 174.146 68.9037 174.146 71.1259 172.885Z" fill="#363650"/>
<path d="M91.7279 182.975V188.14C91.7279 189.552 91.0072 190.873 89.776 191.624L74.1006 201.323C72.4791 202.314 70.4371 202.344 68.7854 201.353L63.9807 198.65C63.0198 198.11 62.4492 197.089 62.4492 196.008V193.035C62.4492 193.035 63.1099 193.275 64.0708 192.675L74.491 186.338V183.005H91.7279V182.975Z" fill="#48486A"/>
<path d="M91.727 180.092V185.257C91.727 186.669 91.0063 187.99 89.7751 188.741L74.0997 198.44C72.4781 199.431 70.4361 199.461 68.7845 198.47L64.0699 195.618C61.8777 194.296 61.8777 191.113 64.0699 189.792L74.4901 183.456V180.122H91.727V180.092Z" fill="white"/>
<path d="M81.157 190.001V188.95L75.1211 185.467V186.398L81.157 190.001Z" fill="#48486A"/>
<path d="M78.8745 192.014V191.023L72.8687 187.54L72.8086 188.411L78.8745 192.014Z" fill="#48486A"/>
<path d="M75.8758 194.116V193.125L69.8398 189.642L69.8699 190.633L75.8758 194.116Z" fill="#48486A"/>
<path d="M89.2049 183.606C92.5381 181.684 92.5381 178.501 89.2049 176.579C85.8716 174.657 80.3762 174.657 77.0429 176.579C73.7097 178.501 73.7097 181.684 77.0429 183.606C80.4062 185.527 85.8716 185.527 89.2049 183.606Z" fill="#48486A"/>
<path d="M87.1611 182.404C89.3832 181.143 89.3832 179.041 87.1611 177.78C84.9389 176.518 81.3353 176.518 79.1432 177.78C76.921 179.041 76.921 181.143 79.1432 182.404C81.3353 183.695 84.9389 183.695 87.1611 182.404Z" fill="#363650"/>
<path d="M67.2495 174.116C71.0933 174.116 74.1863 170.993 74.1863 167.179V133.846C74.1863 127.54 77.5797 121.655 83.045 118.531L109.201 104.658C114.546 101.565 115.807 95.8292 115.807 89.6431V88.1416C115.807 84.2979 112.684 81.2048 108.87 81.2048C105.027 81.2048 101.934 84.3279 101.934 88.1416V89.6431C101.934 90.8743 101.273 92.0154 100.222 92.616L76.1382 106.49C66.3787 112.105 60.3127 122.585 60.3127 133.846V167.149C60.2827 170.993 63.4057 174.116 67.2495 174.116Z" fill="#FEC55E"/>
<path opacity="0.45" d="M76.1146 106.49L100.198 92.6163C101.249 92.0157 101.91 90.8746 101.91 89.6434V88.1419C101.91 84.2981 105.033 81.2051 108.847 81.2051C109.177 81.2051 109.507 81.2651 109.838 81.2952C106.474 81.7756 103.892 84.6585 103.892 88.1419V89.6434C103.892 90.8746 103.231 92.0157 102.18 92.6163L78.0965 106.49C68.337 112.105 62.271 122.586 62.271 133.847V167.149C62.271 170.633 64.8535 173.516 68.2168 173.996C67.8865 174.056 67.5562 174.086 67.2259 174.086C63.3821 174.086 60.2891 170.963 60.2891 167.149V133.847C60.2891 122.586 66.355 112.105 76.1146 106.49Z" fill="#FFC107"/>
<path d="M83.2325 183.125C87.0762 183.125 90.1693 180.002 90.1693 176.188V142.886C90.1693 136.579 93.5626 130.694 99.028 127.571L125.874 115.108C131.22 112.015 131.76 104.898 131.76 98.7122V97.2107C131.76 93.367 128.637 90.2739 124.823 90.2739C120.979 90.2739 117.886 93.397 117.886 97.2107V98.7122C117.886 99.9434 117.226 101.085 116.175 101.685L92.0911 115.559C82.3316 121.174 76.2656 131.655 76.2656 142.916V176.218C76.2656 180.032 79.3887 183.125 83.2325 183.125Z" fill="#FEC55E"/>
<path d="M104.436 124.417L123.115 115.889C124.886 114.898 124.916 112.346 123.175 111.325L94.7367 94.8984L73.7461 107.361L104.436 124.417Z" fill="#EFEDF0"/>
<path d="M101.881 122.766L118.157 115.499C119.689 114.658 119.719 112.436 118.187 111.565L92.182 96.5203L74.0742 107.301L101.881 122.766Z" fill="#FBFAFB"/>
<path d="M93.1702 106.52C95.4825 106.52 97.3443 104.658 97.3443 102.346V86.1301C97.3443 76.4906 98.6656 71.8961 101.278 62.617L106.143 45.4101C106.774 43.188 105.482 40.9057 103.26 40.2751C101.038 39.6445 98.7557 40.9358 98.125 43.1579L93.2603 60.3648C90.4375 70.3646 88.9961 75.7399 88.9961 86.1601V102.376C89.0261 104.658 90.888 106.52 93.1702 106.52Z" fill="white"/>
<path opacity="0.15" d="M93.2954 60.3344L98.1602 43.1276C98.7608 40.9654 101.013 39.6742 103.175 40.2147C101.764 40.545 100.563 41.6261 100.142 43.1276L95.2774 60.3344C92.4546 70.3343 91.0132 75.7095 91.0132 86.1297V102.346C91.0132 104.298 92.3645 105.919 94.1963 106.37C93.866 106.46 93.5357 106.49 93.2053 106.49C90.8931 106.49 89.0312 104.628 89.0312 102.316V86.0997C89.0312 75.7396 90.4426 70.3643 93.2954 60.3344Z" fill="white"/>
<path d="M115.418 31.1463L118.842 33.1282C130.223 39.7047 137.88 51.1759 139.532 64.2087C141.424 79.1634 135.598 106.791 135.598 106.791C118.421 105.83 100.914 88.5326 100.914 88.5326C103.947 69.2237 97.7911 59.4341 97.6409 46.4914C97.5808 39.6146 107.19 26.4016 115.418 31.1463Z" fill="white"/>
<path opacity="0.15" d="M97.6409 46.4609C97.5808 39.6142 107.19 26.3712 115.418 31.1158L118.842 33.0978C122.415 35.1698 125.628 37.6923 128.391 40.6352C125.869 38.1427 122.986 35.9206 119.833 34.0888L116.409 32.1368C108.181 27.3922 98.5718 40.6052 98.6319 47.4819C98.752 60.4246 104.908 70.1842 101.905 89.4631C101.274 88.8925 100.914 88.5322 100.914 88.5322C103.947 69.1932 97.761 59.4336 97.6409 46.4609Z" fill="white"/>
<path d="M115.722 42.5272H118.245C119.746 42.5272 120.947 41.326 120.947 39.8245V29.5845H113.02V39.8245C113.02 41.326 114.251 42.5272 115.722 42.5272Z" fill="#FFCEBD"/>
<path d="M120.949 33.3982L123.141 34.5393L119.808 53.1876L115.363 42.1668L120.949 33.3982Z" fill="#FE5E31"/>
<path d="M115.365 42.1668L113.023 30.3652H112.032L107.527 46.0106L115.365 42.1668Z" fill="#FE5E31"/>
<path d="M108.337 118.892C109.569 118.892 110.8 118.352 111.641 117.271L124.103 101.235C130.889 92.4965 134.343 81.6258 133.802 70.575L132.811 54.9296C132.691 52.6173 130.739 50.8456 128.457 50.9657C126.145 51.0858 124.373 53.0378 124.493 55.32L125.484 70.9653C125.905 80.0042 123.082 88.953 117.526 96.1L105.064 112.136C103.653 113.968 103.983 116.58 105.785 117.991C106.566 118.592 107.467 118.892 108.337 118.892Z" fill="#FFCEBD"/>
<path d="M105.185 110.514L118.068 105.679C118.639 105.469 118.939 104.808 118.729 104.238L118.368 103.277C118.158 102.706 117.497 102.406 116.927 102.616L104.044 107.451C103.474 107.661 103.173 108.322 103.384 108.892L103.744 109.853C103.954 110.424 104.585 110.724 105.185 110.514Z" fill="#FFCEBD"/>
<path d="M69.7461 83.3071L70.1665 83.187C70.5569 83.0668 70.9773 83.1269 71.3377 83.3371L102.178 100.994C102.899 101.415 103.499 102.436 103.499 103.277L106.292 124.417C106.292 124.628 106.202 124.808 106.022 124.928L105.541 125.258L73.8301 106.82C73.1094 106.4 72.5088 105.379 72.5088 104.538L69.7461 83.3071Z" fill="#E1E1E2"/>
<path d="M69.3594 84.1481C69.3594 83.3072 69.96 82.9769 70.6807 83.3973L101.791 101.355C102.512 101.775 103.112 102.796 103.112 103.637L106.025 124.297C106.025 125.138 105.455 125.469 104.704 125.048L73.4734 107.181C72.7527 106.76 72.1521 105.739 72.1521 104.898L69.3594 84.1481Z" fill="#F3F2F4"/>
<path d="M84.9741 102.526C86.2653 102.977 87.6467 104.568 88.0971 106.07C88.5175 107.571 87.8569 108.442 86.5656 107.992C85.3044 107.541 83.893 105.95 83.4426 104.448C83.0221 102.947 83.6828 102.076 84.9741 102.526Z" fill="#E8E7E8"/>
<path opacity="0.33" d="M119.835 85.6194C122.538 80.7246 124.97 75.1391 124.79 71.0551C124.79 71.0551 125.241 55.2897 127.913 55.1696C130.556 55.0494 131.967 52.2567 132.117 54.9293L133.108 70.5747C133.649 81.7156 130.195 92.6763 123.409 101.505L122.027 103.097C118.364 101.415 114.91 99.3729 111.938 97.3609C114.85 93.6373 117.523 89.7335 119.835 85.6194Z" fill="#231F20"/>
<path d="M112.656 101.685L116.71 96.0699C116.71 96.0699 125.209 79.9441 124.758 71.0554L123.767 55.41C123.647 52.7374 125.719 50.4552 128.392 50.335C131.034 50.2149 133.347 52.287 133.467 54.9596L134.458 70.6049C134.998 81.7459 131.545 92.7066 124.758 101.535L119.233 107.962L112.656 101.685Z" fill="white"/>
<path d="M117.584 31.7167L122.689 30.6957C124.941 30.2453 126.382 28.0831 125.932 25.8309L121.938 5.89136L100.137 10.2156L102.419 21.5968C103.8 28.5936 110.587 33.1281 117.584 31.7167Z" fill="#FFCEBD"/>
<path d="M121.938 5.89136L121.998 6.22168L101.818 10.2156L103.83 20.3355C105.122 26.7919 110.617 31.3263 116.893 31.6867C109.926 32.1071 103.56 27.3624 102.179 20.3355L100.137 10.2156L121.938 5.89136Z" fill="#FFE2D7"/>
<path d="M96.5977 9.10441C96.958 7.33267 98.4895 5.98135 100.291 5.95132C101.853 5.92129 103.745 5.47085 105.126 3.90931C107.108 1.68713 110.261 0.756221 113.204 0.185662C116.147 -0.384898 119.51 0.335809 121.312 2.67811C122.513 1.11658 125.036 1.26672 126.567 2.49793C128.099 3.72914 128.849 5.65102 129.42 7.51285C130.561 11.2365 131.342 15.2004 130.471 19.0141C130.261 19.9751 129.93 20.906 129.63 21.8369C128.819 24.1792 128.549 26.6416 127.618 28.9539C127.498 29.2542 127.348 29.5845 127.078 29.7647C126.687 30.0349 126.147 29.9449 125.756 29.6746C125.366 29.4043 125.126 28.9839 124.915 28.5635C123.954 26.5215 125.006 25.3804 124.945 23.2783C124.915 22.1672 124.375 20.966 123.384 20.4555C122.033 19.7649 120.441 20.4856 118.97 20.7258C115.486 21.3264 107.979 17.6628 110.111 13.1884C105.276 14.5097 98.3994 15.1704 96.5977 9.10441Z" fill="#4D5068"/>
<path d="M100.295 5.95132C101.857 5.92129 103.749 5.47085 105.13 3.90931C107.112 1.68713 110.265 0.756221 113.208 0.185662C116.151 -0.384898 119.514 0.335809 121.316 2.67811C122.517 1.11658 125.039 1.26672 126.571 2.49793C126.931 2.7682 127.232 3.09852 127.502 3.45887C125.97 2.28772 123.478 2.16761 122.307 3.69911C120.475 1.35681 117.112 0.636104 114.199 1.20666C111.286 1.77722 108.133 2.70814 106.121 4.93032C104.74 6.49185 102.848 6.91226 101.286 6.97232C99.4844 7.03238 97.9529 8.35367 97.5925 10.1254C97.8928 11.1164 98.3132 11.8972 98.8538 12.5578C97.8628 11.777 97.052 10.696 96.6016 9.13444C96.9619 7.33267 98.4934 5.98135 100.295 5.95132Z" fill="#717386"/>
<defs>
<linearGradient id="paint0_linear" x1="67.75" y1="17.6616" x2="200.333" y2="130.829" gradientUnits="userSpaceOnUse">
<stop offset="0.115415" stop-color="#ED3B03"/>
<stop offset="1" stop-color="#FF8642"/>
</linearGradient>
<linearGradient id="paint1_linear" x1="0" y1="23.5876" x2="264.635" y2="49.8998" gradientUnits="userSpaceOnUse">
<stop stop-color="#FF8212"/>
<stop offset="1" stop-color="#ED4454"/>
</linearGradient>
<linearGradient id="paint2_linear" x1="273.922" y1="71.5475" x2="303.223" y2="206.125" gradientUnits="userSpaceOnUse">
<stop offset="0.132798" stop-color="#D1303F"/>
<stop offset="1" stop-color="#FB2A5D"/>
</linearGradient>
</defs>
</svg>
