<svg width="640" height="780" viewBox="0 0 640 780" fill="none" xmlns="http://www.w3.org/2000/svg">
<g clip-path="url(#clip0)">
<rect width="640" height="780" fill="transparent"/>
<path d="M423 192.5L271.5 272.5L311.9 317.482H311.976C311.976 318.455 312.505 319.353 313.413 319.877L341.172 335.745C344.198 337.466 347.98 337.466 351.006 335.745L378.463 319.877C379.37 319.353 379.824 318.455 379.9 317.557L423 192.5Z" fill="url(#paint0_linear)"/>
<path d="M430.019 191.477C430.139 191.481 430.259 191.484 430.379 191.512L424.129 190.067C424.034 190.04 423.938 190.037 423.842 190.034C423.818 190.033 423.794 190.032 423.77 190.031C423.722 190.03 423.698 190.029 423.65 190.028C423.602 190.026 423.554 190.024 423.53 190.024C423.457 190.045 423.385 190.043 423.288 190.064C423.264 190.063 423.24 190.086 423.216 190.085C423.07 190.128 422.924 190.196 422.801 190.287C422.752 190.31 422.702 190.356 422.629 190.377C422.581 190.4 422.531 190.446 422.482 190.492C422.432 190.539 422.383 190.561 422.334 190.607C422.259 190.677 422.185 190.746 422.111 190.815C422.061 190.862 422.012 190.908 421.986 190.955C421.985 190.979 421.961 190.978 421.96 191.002C421.936 191.025 421.934 191.073 421.909 191.096C421.785 191.235 421.683 191.4 421.581 191.588C421.556 191.611 421.532 191.634 421.53 191.682C421.505 191.729 421.504 191.753 421.478 191.8C421.452 191.871 421.402 191.941 421.375 192.012C421.35 192.059 421.324 192.106 421.299 192.153C421.273 192.2 421.247 192.271 421.245 192.319C421.22 192.366 421.194 192.413 421.192 192.484C421.191 192.508 421.166 192.555 421.165 192.579C421.112 192.721 421.083 192.864 421.055 193.006C421.026 193.149 420.998 193.292 420.993 193.435C420.992 193.459 420.991 193.507 420.989 193.555C420.988 193.602 420.985 193.674 420.984 193.722C420.981 193.794 420.98 193.841 420.978 193.913C420.974 194.033 420.971 194.128 420.967 194.248C420.964 194.343 420.961 194.415 420.982 194.511C420.981 194.559 421.003 194.608 421.002 194.656C420.999 194.727 421.021 194.8 421.043 194.872C421.064 194.969 421.085 195.041 421.106 195.137C421.128 195.21 421.15 195.282 421.148 195.33C421.17 195.403 421.192 195.475 421.237 195.572C421.258 195.645 421.281 195.693 421.303 195.742C421.325 195.814 421.371 195.888 421.417 195.937C421.44 195.986 421.486 196.035 421.508 196.084C421.554 196.157 421.601 196.206 421.647 196.255C421.694 196.305 421.716 196.353 421.739 196.378C421.786 196.427 421.856 196.478 421.903 196.527C421.95 196.552 421.972 196.601 422.02 196.626C422.09 196.676 422.161 196.703 422.232 196.753C422.255 196.777 422.302 196.803 422.326 196.804C422.445 196.855 422.54 196.882 422.659 196.91L428.909 198.356C428.79 198.328 428.694 198.301 428.576 198.249C428.553 198.224 428.505 198.199 428.481 198.198C428.41 198.172 428.34 198.122 428.269 198.072C428.222 198.046 428.199 197.998 428.152 197.972C428.106 197.923 428.035 197.873 427.989 197.823C427.942 197.774 427.919 197.749 427.873 197.7C427.826 197.651 427.78 197.577 427.734 197.528C427.711 197.48 427.665 197.43 427.642 197.382C427.597 197.308 427.575 197.236 427.529 197.187C427.506 197.138 427.484 197.066 427.462 197.017C427.44 196.944 427.395 196.871 427.374 196.775C427.352 196.702 427.33 196.63 427.332 196.582C427.31 196.51 427.289 196.413 427.268 196.317C427.247 196.244 427.249 196.173 427.227 196.1C427.207 195.98 427.188 195.836 427.192 195.692C427.198 195.525 427.203 195.358 427.209 195.167C427.211 195.119 427.213 195.047 427.215 194.999C427.244 194.833 427.25 194.641 427.304 194.476C427.333 194.309 427.387 194.12 427.44 193.954C427.466 193.907 427.468 193.835 427.494 193.788C427.546 193.67 427.573 193.575 427.625 193.457C427.651 193.386 427.701 193.316 427.728 193.245C427.754 193.174 427.804 193.104 427.855 193.034C427.956 192.87 428.057 192.706 428.183 192.542C428.208 192.495 428.234 192.448 428.283 192.426C428.332 192.379 428.358 192.332 428.407 192.286C428.482 192.217 428.557 192.124 428.63 192.078C428.68 192.032 428.729 191.986 428.778 191.963C428.877 191.895 428.976 191.802 429.073 191.757C429.22 191.666 429.391 191.6 429.56 191.558C429.681 191.538 429.802 191.518 429.923 191.498C429.947 191.474 429.995 191.476 430.019 191.477Z" fill="#980051"/>
<path d="M429.05 191.733C429.197 191.642 429.367 191.575 429.537 191.533C430.894 191.194 432.01 192.354 432.118 194.2L432.113 194.367C432.134 195.947 431.364 197.477 430.287 198.089C430.116 198.179 429.945 198.269 429.751 198.311L429.678 198.332C428.32 198.719 427.206 197.511 427.169 195.668C427.126 194.015 427.947 192.391 429.05 191.733Z" fill="#CD006C"/>
<path d="M423.928 184.366L417.679 182.921C417.584 182.894 417.488 182.891 417.392 182.887C417.368 182.887 417.32 182.885 417.296 182.884L417.272 182.884C417.175 182.904 417.078 182.925 416.981 182.946C416.86 182.99 416.762 183.035 416.664 183.103C416.615 183.126 416.566 183.148 416.541 183.195C416.516 183.218 416.491 183.241 416.467 183.24C416.418 183.287 416.369 183.309 416.319 183.355C416.27 183.402 416.245 183.425 416.195 183.471C416.146 183.517 416.096 183.564 416.047 183.61C416.022 183.633 415.997 183.656 415.972 183.679C415.972 183.703 415.948 183.702 415.947 183.726C415.846 183.866 415.746 184.007 415.644 184.171C415.644 184.171 415.643 184.195 415.619 184.194C415.594 184.241 415.568 184.288 415.568 184.312C415.541 184.383 415.491 184.453 415.465 184.524C415.464 184.548 415.44 184.547 415.439 184.571C415.413 184.618 415.387 184.689 415.386 184.737C415.36 184.784 415.359 184.832 415.334 184.855L415.333 184.879C415.305 184.998 415.278 185.092 415.25 185.211C415.249 185.235 415.249 185.235 415.249 185.259C415.222 185.354 415.218 185.449 415.191 185.544C415.191 185.568 415.189 185.616 415.188 185.64C415.147 186.189 415.082 186.713 415.017 187.237C414.988 187.38 414.984 187.499 414.956 187.642C414.894 188.071 414.832 188.499 414.77 188.928C414.768 189 414.741 189.071 414.739 189.142C414.652 189.618 414.566 190.046 414.479 190.498C414.451 190.64 414.422 190.783 414.393 190.926C414.339 191.115 414.309 191.306 414.255 191.495C414.226 191.638 414.174 191.78 414.145 191.923C414.091 192.112 414.037 192.278 413.983 192.468C413.931 192.609 413.902 192.752 413.849 192.894C413.821 193.013 413.77 193.131 413.742 193.249C413.689 193.391 413.636 193.557 413.583 193.699C413.531 193.817 413.504 193.912 413.452 194.03C413.425 194.124 413.375 194.195 413.348 194.289C413.191 194.691 413.01 195.068 412.807 195.42C412.78 195.491 412.731 195.538 412.705 195.609C412.603 195.773 412.502 195.937 412.4 196.101C412.35 196.171 412.3 196.241 412.249 196.336C412.148 196.476 412.048 196.592 411.947 196.733C411.897 196.803 411.847 196.873 411.797 196.919C411.647 197.106 411.474 197.268 411.324 197.43C411.299 197.453 411.275 197.477 411.274 197.5C411.076 197.662 410.903 197.823 410.706 197.961C410.583 198.052 410.46 198.144 410.314 198.211C410.191 198.279 410.094 198.324 409.996 198.368C409.948 198.391 409.924 198.39 409.875 198.412C409.826 198.435 409.778 198.433 409.729 198.456C409.681 198.454 409.632 198.476 409.584 198.475C409.56 198.474 409.536 198.473 409.488 198.472C409.416 198.469 409.344 198.467 409.273 198.441L415.523 199.886C415.594 199.912 415.642 199.914 415.714 199.916L415.738 199.917C415.762 199.918 415.786 199.919 415.834 199.92C415.858 199.921 415.906 199.923 415.93 199.923C415.954 199.924 415.954 199.924 415.979 199.901C416.027 199.902 416.075 199.88 416.124 199.858C416.148 199.859 416.172 199.859 416.197 199.836L416.222 199.813C416.319 199.768 416.441 199.724 416.539 199.656C416.638 199.587 416.76 199.519 416.858 199.451C416.883 199.428 416.907 199.428 416.908 199.405C417.104 199.267 417.302 199.106 417.475 198.944C417.5 198.921 417.525 198.898 417.526 198.874C417.699 198.712 417.848 198.55 417.999 198.363C418.023 198.34 418.048 198.317 418.073 198.294C418.099 198.247 418.123 198.223 418.173 198.177C418.273 198.061 418.373 197.92 418.474 197.78C418.524 197.71 418.575 197.64 418.626 197.546C418.727 197.382 418.829 197.217 418.93 197.053C418.956 197.006 418.981 196.959 419.031 196.913C419.031 196.913 419.031 196.889 419.055 196.89C419.235 196.537 419.415 196.16 419.596 195.759C419.622 195.712 419.623 195.688 419.648 195.641C419.674 195.594 419.675 195.546 419.701 195.499C419.753 195.381 419.78 195.286 419.832 195.168C419.884 195.026 419.937 194.884 419.99 194.719C420.018 194.6 420.07 194.482 420.098 194.363C420.124 194.292 420.151 194.221 420.178 194.127C420.204 194.056 420.206 193.984 420.233 193.913C420.286 193.747 420.34 193.558 420.394 193.368C420.423 193.225 420.476 193.083 420.504 192.941C420.558 192.751 420.589 192.561 420.643 192.371C420.67 192.276 420.697 192.181 420.7 192.086C420.702 192.038 420.727 191.991 420.729 191.943C420.814 191.515 420.901 191.063 420.989 190.588C420.991 190.516 421.017 190.445 421.019 190.373C421.081 189.969 421.142 189.54 421.205 189.087C421.207 189.016 421.234 188.945 421.236 188.873C421.238 188.801 421.241 188.73 421.266 188.683C421.331 188.158 421.396 187.634 421.438 187.085C421.442 186.966 421.47 186.823 421.498 186.704C421.499 186.68 421.499 186.68 421.5 186.656C421.527 186.538 421.555 186.419 421.608 186.277C421.634 186.23 421.635 186.182 421.66 186.159C421.686 186.088 421.712 186.017 421.74 185.922C421.766 185.852 421.792 185.781 421.842 185.71C421.868 185.663 421.894 185.616 421.919 185.569C422.021 185.405 422.121 185.265 422.222 185.125C422.247 185.078 422.272 185.054 422.322 185.008C422.371 184.962 422.421 184.916 422.446 184.869C422.496 184.822 422.521 184.799 422.57 184.753C422.62 184.707 422.669 184.66 422.718 184.638C422.792 184.593 422.841 184.546 422.915 184.501C423.013 184.432 423.135 184.388 423.232 184.344C423.33 184.299 423.451 184.279 423.547 184.258C423.69 184.311 423.809 184.338 423.928 184.366Z" fill="#131313"/>
<path d="M417.166 173.477L410.917 172.032C411.014 171.987 411.112 171.943 411.209 171.898L417.459 173.343C417.362 173.364 417.264 173.409 417.166 173.477Z" fill="#141414"/>
<path d="M417.459 173.343L411.209 171.898C411.233 171.899 411.258 171.876 411.282 171.876C411.355 171.855 411.452 171.834 411.525 171.812L417.774 173.258C417.701 173.279 417.605 173.276 417.532 173.322C417.508 173.321 417.484 173.32 417.459 173.343Z" fill="#131313"/>
<path d="M417.798 173.259L411.548 171.813C411.645 171.792 411.717 171.795 411.813 171.798L418.063 173.243C417.967 173.24 417.871 173.237 417.798 173.259Z" fill="#131313"/>
<path d="M418.039 173.243L411.789 171.797C411.861 171.799 411.933 171.802 412.005 171.828L418.254 173.273C418.182 173.271 418.111 173.245 418.039 173.243Z" fill="#121212"/>
<path d="M412.661 176.06L406.411 174.638L410.917 172.032L417.166 173.478L412.661 176.06Z" fill="#161616"/>
<path d="M409.419 198.398C409.265 197.196 409.136 195.972 409.032 194.725C408.995 194.388 408.983 194.029 408.945 193.693C408.898 192.926 408.85 192.183 408.802 191.415C408.789 191.08 408.776 190.745 408.763 190.409C408.726 189.308 408.689 188.23 408.7 187.129L408.638 183.85L402.388 182.404L402.451 185.684C402.463 186.785 402.476 187.886 402.513 188.964C402.526 189.299 402.54 189.635 402.553 189.97C402.6 190.737 402.624 191.504 402.696 192.248C402.714 192.44 402.708 192.631 402.725 192.823C402.745 192.967 402.763 193.135 402.783 193.279C402.888 194.503 403.016 195.727 403.169 196.952C403.968 201.237 405.405 203.628 407.433 204.1L413.682 205.545C411.655 205.073 410.218 202.682 409.419 198.398Z" fill="#121212"/>
<path d="M410.633 167.405C410.657 167.406 410.705 167.408 410.729 167.408C410.825 167.412 410.945 167.415 411.04 167.442L404.791 165.997C404.72 165.971 404.648 165.968 404.552 165.965C404.528 165.965 404.504 165.964 404.48 165.963C404.456 165.962 404.408 165.961 404.384 165.96C404.36 165.959 404.336 165.958 404.288 165.957C404.215 165.978 404.119 165.975 404.046 165.997C404.022 165.996 403.997 166.019 403.949 166.018C403.949 166.018 403.925 166.017 403.924 166.041C403.827 166.086 403.73 166.106 403.608 166.174C403.559 166.197 403.51 166.219 403.485 166.266C403.436 166.288 403.41 166.335 403.362 166.358C403.313 166.38 403.287 166.427 403.238 166.449C403.165 166.495 403.115 166.565 403.04 166.634C403.015 166.658 402.966 166.704 402.941 166.727L402.916 166.75C402.892 166.773 402.891 166.797 402.866 166.82C402.766 166.937 402.689 167.078 402.613 167.219C402.588 167.242 402.587 167.266 402.563 167.289C402.538 167.312 402.536 167.36 402.511 167.383C402.486 167.43 402.46 167.501 402.434 167.548C402.409 167.595 402.408 167.619 402.382 167.666C402.357 167.713 402.355 167.761 402.329 167.832C402.303 167.879 402.302 167.927 402.277 167.95C402.276 167.974 402.251 167.997 402.251 168.021C402.223 168.139 402.196 168.234 402.168 168.353L402.167 168.377C402.14 168.472 402.136 168.591 402.109 168.686C402.108 168.71 402.108 168.734 402.106 168.782C402.104 168.829 402.103 168.877 402.101 168.925C402.1 168.973 402.098 169.021 402.097 169.068C402.094 169.164 402.091 169.236 402.088 169.331L402.229 176.896L408.479 178.342L408.36 170.825C408.365 170.682 408.369 170.562 408.373 170.419C408.375 170.371 408.376 170.323 408.378 170.276C408.382 170.132 408.41 170.013 408.439 169.871L408.44 169.847C408.468 169.704 408.521 169.562 408.549 169.444C408.574 169.397 408.576 169.349 408.601 169.326C408.628 169.231 408.679 169.137 408.705 169.066C408.731 169.019 408.757 168.948 408.783 168.901C408.809 168.83 408.834 168.783 408.884 168.737C408.961 168.596 409.061 168.455 409.137 168.338C409.162 168.315 409.187 168.268 409.212 168.245C409.238 168.198 409.287 168.175 409.311 168.152C409.362 168.082 409.436 168.013 409.51 167.967C409.559 167.921 409.584 167.898 409.633 167.876C409.707 167.806 409.805 167.738 409.879 167.692C410.001 167.624 410.099 167.58 410.196 167.559C410.244 167.536 410.268 167.537 410.317 167.515C410.416 167.422 410.536 167.426 410.633 167.405Z" fill="#121212"/>
<path d="M400.669 204.456C400.751 204.148 400.808 203.863 400.89 203.554C400.891 203.53 400.891 203.506 400.915 203.507C400.973 203.198 401.032 202.865 401.114 202.557C401.144 202.39 401.173 202.223 401.202 202.057C401.291 201.557 401.38 201.034 401.444 200.533L401.396 200.532C401.434 200.102 401.471 199.673 401.485 199.243C401.487 199.195 401.488 199.171 401.489 199.123C401.496 198.908 401.503 198.693 401.485 198.501C401.494 198.214 401.48 197.927 401.489 197.64C401.472 197.424 401.479 197.209 401.462 196.993C401.445 196.777 401.451 196.562 401.434 196.37C401.435 196.322 401.413 196.274 401.415 196.202C401.361 195.626 401.307 195.074 401.205 194.52C400.753 192.137 399.955 190.796 398.834 190.544L392.584 189.099C393.706 189.35 394.503 190.692 394.955 193.075C395.034 193.628 395.112 194.181 395.166 194.757C395.181 195.02 395.197 195.284 395.212 195.548C395.229 195.764 395.246 195.979 395.239 196.194C395.254 196.482 395.245 196.769 395.236 197.056C395.229 197.271 395.246 197.487 395.24 197.678C395.224 198.156 395.209 198.634 395.146 199.11L395.194 199.112C395.129 199.612 395.041 200.112 394.953 200.612C394.924 200.778 394.894 200.945 394.865 201.111C394.806 201.444 394.746 201.801 394.664 202.133C394.606 202.443 394.524 202.727 394.442 203.035C394.387 203.249 394.333 203.463 394.278 203.676C394.196 203.985 394.089 204.316 394.007 204.624C393.953 204.814 393.898 205.028 393.843 205.217C393.79 205.383 393.713 205.548 393.635 205.713C393.504 206.044 393.35 206.35 393.196 206.656C393.196 206.68 393.171 206.703 393.146 206.726C393.019 206.937 392.892 207.149 392.765 207.36C392.715 207.43 392.665 207.5 392.614 207.57C392.514 207.711 392.413 207.851 392.288 207.99C392.238 208.061 392.188 208.107 392.138 208.177C391.938 208.41 391.739 208.643 391.516 208.851C391.516 208.851 391.491 208.874 391.49 208.898C391.267 209.106 391.021 209.29 390.775 209.473C390.652 209.565 390.553 209.633 390.431 209.701C390.382 209.724 390.333 209.77 390.284 209.792C390.113 209.882 389.966 209.949 389.796 210.016C389.723 210.037 389.674 210.06 389.602 210.057C389.506 210.078 389.433 210.1 389.336 210.121C389.263 210.142 389.167 210.139 389.095 210.137C389.047 210.135 388.974 210.157 388.927 210.131C388.807 210.127 388.663 210.123 388.544 210.095L394.793 211.54C394.913 211.568 395.033 211.572 395.152 211.6C395.176 211.601 395.176 211.601 395.2 211.601C395.248 211.603 395.32 211.605 395.368 211.607C395.44 211.609 395.488 211.611 395.561 211.589C395.585 211.59 395.609 211.591 395.609 211.567C395.706 211.546 395.779 211.524 395.876 211.503C395.925 211.481 395.973 211.483 396.021 211.46C396.045 211.461 396.046 211.437 396.07 211.438C396.241 211.372 396.387 211.305 396.558 211.214C396.607 211.192 396.656 211.146 396.705 211.123C396.803 211.079 396.877 211.009 396.975 210.965C396.999 210.942 397.024 210.918 397.049 210.895C397.294 210.736 397.541 210.528 397.764 210.32L397.789 210.297C398.012 210.089 398.212 209.856 398.412 209.623C398.436 209.6 398.461 209.577 398.487 209.53C398.511 209.507 398.537 209.46 398.562 209.437C398.662 209.296 398.787 209.157 398.888 209.016C398.938 208.946 398.988 208.876 399.039 208.806C399.166 208.595 399.293 208.384 399.419 208.172C399.42 208.148 399.445 208.125 399.446 208.101C399.6 207.795 399.754 207.489 399.885 207.158C399.91 207.111 399.935 207.088 399.937 207.041C399.988 206.923 400.04 206.805 400.093 206.663C400.094 206.639 400.094 206.639 400.118 206.616C400.173 206.426 400.227 206.236 400.281 206.047C400.363 205.738 400.469 205.431 400.552 205.098C400.559 204.883 400.614 204.67 400.669 204.456Z" fill="#101010"/>
<path d="M393.271 217.018L387.022 215.573C386.521 215.461 386.023 215.254 385.552 214.951L391.801 216.397C392.272 216.699 392.746 216.906 393.271 217.018Z" fill="#101010"/>
<path d="M387.575 206.619C387.558 206.379 387.542 206.139 387.55 205.9C387.536 205.565 387.522 205.253 387.509 204.918C387.517 204.679 387.501 204.415 387.509 204.176C387.521 203.818 387.531 203.483 387.543 203.124C387.548 202.957 387.554 202.766 387.584 202.599C387.622 202.17 387.66 201.741 387.697 201.311C387.701 201.192 387.729 201.073 387.733 200.953C387.798 200.429 387.888 199.882 387.977 199.358C388.005 199.216 388.033 199.097 388.062 198.954C388.148 198.526 388.233 198.098 388.343 197.671C388.372 197.529 388.4 197.41 388.452 197.268C388.59 196.722 388.752 196.177 388.914 195.632C389.022 195.253 389.154 194.874 389.263 194.495C389.369 194.163 389.475 193.856 389.605 193.549C389.684 193.336 389.788 193.1 389.867 192.887C390.05 192.439 390.256 192.015 390.486 191.591C390.562 191.45 390.64 191.285 390.716 191.144C390.844 190.909 390.996 190.675 391.147 190.44C391.274 190.229 391.426 189.995 391.553 189.783C391.704 189.573 391.855 189.363 392.03 189.153C392.181 188.942 392.332 188.732 392.507 188.522C392.557 188.452 392.631 188.383 392.681 188.336C392.931 188.033 393.204 187.779 393.453 187.5C393.502 187.454 393.577 187.384 393.626 187.338C393.924 187.037 394.245 186.784 394.565 186.531C394.639 186.485 394.713 186.416 394.787 186.371C395.107 186.118 395.451 185.889 395.794 185.685L408.503 178.343L402.253 176.897L389.569 184.241C389.348 184.377 389.127 184.513 388.907 184.65C388.784 184.742 388.661 184.833 388.562 184.902C388.489 184.947 388.414 185.017 388.341 185.062C388.02 185.315 387.699 185.592 387.402 185.87C387.352 185.916 387.278 185.985 387.228 186.031C386.956 186.286 386.706 186.565 386.456 186.868C386.406 186.938 386.332 187.007 386.281 187.078C386.256 187.125 386.207 187.147 386.182 187.194C386.056 187.357 385.931 187.521 385.805 187.708C385.654 187.919 385.479 188.128 385.328 188.339C385.177 188.549 385.049 188.784 384.922 188.996C384.77 189.23 384.643 189.465 384.491 189.7C384.465 189.747 384.44 189.77 384.415 189.817C384.363 189.935 384.311 190.053 384.26 190.147C384.03 190.57 383.824 190.994 383.642 191.443C383.591 191.537 383.539 191.631 383.512 191.726C383.461 191.844 383.432 191.986 383.38 192.104C383.25 192.411 383.144 192.719 383.037 193.05C382.985 193.192 382.933 193.31 382.904 193.453C382.824 193.689 382.769 193.927 382.688 194.187C382.663 194.234 382.661 194.282 382.636 194.329C382.475 194.827 382.339 195.325 382.227 195.823C382.198 195.966 382.17 196.085 382.118 196.227C382.064 196.416 382.009 196.63 381.979 196.82C381.924 197.034 381.892 197.272 381.837 197.486C381.808 197.628 381.781 197.747 381.752 197.89C381.664 198.389 381.576 198.889 381.512 199.365C381.511 199.389 381.51 199.437 381.509 199.461C381.505 199.58 381.477 199.699 381.473 199.819C381.436 200.248 381.374 200.677 381.36 201.107C381.355 201.274 381.348 201.465 381.319 201.632C381.314 201.799 381.284 201.966 381.28 202.109C381.273 202.3 381.267 202.492 381.286 202.66C381.278 202.899 381.27 203.162 381.286 203.401C381.299 203.737 381.313 204.048 381.326 204.384C381.343 204.623 381.335 204.862 381.351 205.102C381.349 205.174 381.346 205.27 381.368 205.342C381.382 205.63 381.422 205.894 381.461 206.182C381.479 206.351 381.497 206.543 381.516 206.711C381.595 207.24 381.674 207.768 381.777 208.298C382.003 209.502 382.327 210.637 382.75 211.679C382.617 212.058 382.462 212.411 382.307 212.741C382.256 212.835 382.23 212.906 382.178 213C382 213.33 381.797 213.658 381.595 213.963C381.545 214.009 381.519 214.08 381.469 214.126C381.268 214.407 381.02 214.662 380.796 214.894C380.746 214.94 380.721 214.987 380.671 215.033C380.374 215.311 380.053 215.564 379.685 215.791C379.587 215.86 379.466 215.904 379.369 215.925C379.32 215.947 379.296 215.946 379.247 215.969C379.198 215.991 379.126 215.989 379.078 216.011C379.03 216.009 378.981 216.032 378.909 216.029C378.861 216.028 378.837 216.027 378.789 216.026C378.693 216.022 378.621 216.02 378.526 215.993L384.775 217.439C384.846 217.465 384.918 217.467 385.014 217.47L385.038 217.471C385.086 217.472 385.11 217.473 385.158 217.475C385.206 217.476 385.23 217.477 385.278 217.479C385.278 217.479 385.302 217.479 385.326 217.48C385.374 217.482 385.447 217.46 385.496 217.438C385.52 217.439 385.569 217.416 385.593 217.417L385.617 217.418C385.714 217.373 385.836 217.329 385.933 217.284C385.983 217.238 386.056 217.217 386.105 217.17C386.375 216.988 386.647 216.757 386.895 216.526C386.945 216.48 386.97 216.433 387.02 216.386C387.194 216.201 387.392 216.016 387.542 215.829C387.593 215.759 387.643 215.689 387.693 215.618C387.743 215.572 387.768 215.525 387.819 215.455C388.019 215.198 388.196 214.917 388.35 214.635C388.375 214.588 388.377 214.54 388.402 214.517C388.452 214.447 388.479 214.352 388.53 214.258C388.607 214.093 388.684 213.952 388.761 213.787C388.84 213.598 388.919 213.385 388.998 213.172C388.575 212.13 388.251 210.995 388.025 209.791C387.922 209.262 387.843 208.733 387.764 208.204C387.745 208.036 387.727 207.844 387.709 207.676C387.623 207.362 387.587 206.978 387.575 206.619Z" fill="#131313"/>
<path d="M380.111 220.494L373.861 219.049C374.605 220.58 375.537 221.496 376.705 221.772L382.955 223.218C381.81 222.942 380.854 222.026 380.111 220.494Z" fill="#101010"/>
<path d="M378.269 203.807L372.02 202.361C371.736 202.209 371.451 202.104 371.141 202.046C371.117 202.045 371.117 202.045 371.093 202.044L377.342 203.49C377.366 203.491 377.366 203.491 377.39 203.491C377.677 203.548 377.986 203.654 378.269 203.807Z" fill="#101010"/>
<path d="M378.255 212.467C378.292 212.038 378.306 211.608 378.345 211.154C378.35 211.011 378.353 210.891 378.358 210.748C378.36 210.7 378.36 210.676 378.362 210.628C378.374 210.246 378.387 209.84 378.376 209.433C378.383 209.241 378.389 209.05 378.396 208.835C378.392 208.213 378.388 207.591 378.36 206.944L378.246 203.782L371.996 202.337L372.111 205.498C372.138 206.145 372.142 206.768 372.146 207.39C372.139 207.605 372.133 207.796 372.127 207.987C372.114 208.394 372.125 208.801 372.112 209.183C372.107 209.35 372.102 209.518 372.095 209.709C372.081 210.163 372.043 210.592 372.029 211.023C372.022 211.238 371.992 211.428 371.985 211.643C371.949 212.025 371.913 212.383 371.877 212.764C371.846 212.979 371.815 213.193 371.808 213.408C371.777 213.622 371.747 213.813 371.716 214.027C371.684 214.265 371.629 214.503 371.597 214.741C371.567 214.932 371.513 215.121 371.483 215.312C371.426 215.573 371.37 215.811 371.315 216.048C371.287 216.167 371.26 216.262 371.233 216.356C371.149 216.713 371.042 217.044 370.959 217.376C370.853 217.708 370.746 218.039 370.639 218.371C370.613 218.442 370.586 218.513 370.56 218.584C370.48 218.82 370.377 219.032 370.298 219.245C370.271 219.34 370.221 219.41 370.194 219.505C370.091 219.717 370.013 219.906 369.911 220.094C369.884 220.165 369.859 220.212 369.809 220.282C369.732 220.423 369.656 220.54 369.58 220.658C369.504 220.799 369.428 220.916 369.351 221.057C369.275 221.174 369.2 221.267 369.124 221.385C369.048 221.502 368.972 221.619 368.873 221.712C368.823 221.782 368.749 221.851 368.698 221.921C368.574 222.061 368.449 222.2 368.324 222.34C368.25 222.409 368.176 222.479 368.101 222.548C367.978 222.664 367.854 222.755 367.731 222.847C367.608 222.939 367.461 223.03 367.338 223.122C367.216 223.189 367.094 223.233 366.973 223.277C366.949 223.276 366.9 223.299 366.876 223.298C366.779 223.319 366.681 223.364 366.585 223.36C366.513 223.358 366.465 223.381 366.393 223.378C366.345 223.377 366.297 223.375 366.249 223.374C366.129 223.37 366.033 223.367 365.937 223.34L372.187 224.785C372.282 224.812 372.378 224.815 372.474 224.818L372.498 224.819C372.546 224.82 372.594 224.822 372.642 224.824C372.69 224.825 372.738 224.827 372.81 224.829L372.834 224.83C372.931 224.809 373.028 224.788 373.124 224.767C373.148 224.768 373.173 224.745 373.221 224.747C373.343 224.703 373.464 224.659 373.587 224.591C373.684 224.546 373.783 224.478 373.881 224.409C373.93 224.387 373.955 224.34 374.004 224.317C374.127 224.225 374.25 224.134 374.374 224.018C374.448 223.949 374.522 223.903 374.596 223.834C374.72 223.718 374.845 223.579 374.97 223.415C375.02 223.369 375.069 223.323 375.12 223.253C375.144 223.229 375.145 223.205 375.145 223.205C375.221 223.088 375.321 222.972 375.396 222.879C375.472 222.761 375.547 222.668 375.623 222.551C375.699 222.434 375.775 222.293 375.852 222.152C375.903 222.058 375.979 221.94 376.03 221.846C376.031 221.822 376.056 221.799 376.056 221.775C376.083 221.704 376.108 221.657 376.159 221.587C376.261 221.399 376.363 221.211 376.442 220.998C376.469 220.903 376.519 220.833 376.546 220.738C376.573 220.667 376.599 220.597 376.649 220.526C376.702 220.385 376.755 220.243 376.808 220.077C376.834 220.006 376.861 219.935 376.887 219.864C376.992 219.58 377.097 219.297 377.179 218.988C377.181 218.941 377.206 218.917 377.207 218.87C377.314 218.538 377.397 218.206 377.48 217.85C377.508 217.755 377.535 217.636 377.563 217.541C377.591 217.399 377.619 217.28 377.648 217.137C377.675 217.042 377.679 216.923 377.706 216.804C377.737 216.614 377.791 216.424 377.821 216.234C377.853 215.995 377.908 215.782 377.939 215.544C377.97 215.329 378 215.139 378.031 214.924C378.034 214.829 378.061 214.734 378.065 214.638C378.068 214.519 378.096 214.4 378.099 214.305C378.135 213.947 378.171 213.565 378.207 213.184C378.242 212.874 378.248 212.659 378.255 212.467Z" fill="#141414"/>
<path d="M370.373 230.373L364.123 228.928C363.742 228.844 363.385 228.713 363.055 228.51L369.305 229.956C369.659 230.159 370.015 230.29 370.373 230.373Z" fill="#101010"/>
<path d="M380.188 180.804C380.284 180.807 380.38 180.81 380.475 180.837L374.225 179.392C374.154 179.366 374.082 179.363 373.986 179.36C373.962 179.36 373.938 179.359 373.914 179.358C373.89 179.357 373.842 179.356 373.818 179.355C373.794 179.354 373.746 179.353 373.722 179.352C373.65 179.35 373.601 179.372 373.528 179.393C373.48 179.392 373.456 179.415 373.407 179.437C373.285 179.481 373.164 179.525 373.065 179.594C373.017 179.616 372.968 179.639 372.942 179.686C372.894 179.708 372.868 179.755 372.843 179.778C372.794 179.8 372.745 179.847 372.719 179.894C372.67 179.94 372.595 180.009 372.546 180.056C372.496 180.102 372.472 180.125 372.422 180.171C372.421 180.195 372.397 180.194 372.396 180.218C372.372 180.241 372.371 180.265 372.346 180.288C372.246 180.405 372.17 180.546 372.069 180.686C372.044 180.709 372.043 180.733 372.019 180.756C372.018 180.78 371.993 180.803 371.992 180.827C371.967 180.874 371.94 180.945 371.915 180.992C371.889 181.039 371.864 181.086 371.838 181.133C371.813 181.18 371.812 181.204 371.81 181.252C371.785 181.299 371.783 181.347 371.758 181.394C371.756 181.442 371.732 181.465 371.73 181.513C371.704 181.584 371.701 181.655 371.675 181.726C371.674 181.75 371.649 181.773 371.648 181.821L371.647 181.845C371.619 181.964 371.591 182.083 371.588 182.202C371.587 182.226 371.587 182.226 371.586 182.25C371.585 182.298 371.584 182.322 371.582 182.369C371.58 182.441 371.578 182.513 371.575 182.584C371.573 182.656 371.571 182.728 371.569 182.776L371.98 196.139L378.229 197.585L377.819 184.221C377.823 184.078 377.828 183.934 377.832 183.815C377.833 183.767 377.834 183.743 377.836 183.695C377.864 183.553 377.869 183.409 377.897 183.267C377.898 183.243 377.923 183.22 377.924 183.172C377.952 183.053 377.979 182.958 378.031 182.84C378.057 182.793 378.058 182.745 378.084 182.698C378.111 182.604 378.161 182.533 378.188 182.439C378.215 182.368 378.24 182.321 378.266 182.274C378.291 182.227 378.317 182.179 378.342 182.132C378.419 181.991 378.52 181.851 378.62 181.735C378.645 181.688 378.67 181.664 378.695 181.617C378.721 181.57 378.771 181.524 378.819 181.502C378.87 181.432 378.919 181.385 378.993 181.34C379.042 181.294 379.091 181.271 379.117 181.224C379.191 181.155 379.265 181.109 379.362 181.065C379.509 180.974 379.656 180.907 379.825 180.864C379.922 180.843 380.019 180.823 380.115 180.826C380.115 180.802 380.163 180.803 380.188 180.804Z" fill="#121212"/>
<path d="M364.862 219.429C364.845 219.213 364.852 218.998 364.835 218.782C364.822 218.423 364.81 218.064 364.797 217.704C364.805 217.465 364.789 217.226 364.796 216.987C364.808 216.628 364.819 216.269 364.832 215.887C364.837 215.72 364.843 215.552 364.873 215.362C364.911 214.933 364.949 214.479 364.987 214.05C364.991 213.93 365.019 213.812 365.023 213.692C365.088 213.144 365.178 212.596 365.267 212.073C365.296 211.93 365.324 211.812 365.352 211.669C365.439 211.217 365.549 210.766 365.66 210.315C365.688 210.196 365.716 210.078 365.744 209.959C365.882 209.389 366.045 208.82 366.231 208.252C366.417 207.708 366.603 207.163 366.812 206.644C366.994 206.195 367.201 205.747 367.407 205.323C367.459 205.205 367.511 205.087 367.586 204.994C367.714 204.735 367.867 204.477 368.018 204.242C368.172 203.96 368.324 203.702 368.501 203.444C368.628 203.233 368.754 203.046 368.904 202.859C369.081 202.602 369.256 202.368 369.456 202.135C369.631 201.925 369.782 201.715 369.957 201.505C370.032 201.412 370.107 201.319 370.182 201.225C370.481 200.9 370.78 200.575 371.077 200.297L371.102 200.274C371.399 199.997 371.72 199.744 372.04 199.491C372.139 199.422 372.213 199.353 372.311 199.284C372.631 199.055 372.975 198.827 373.294 198.622C373.563 198.463 373.832 198.328 374.076 198.217C374.149 198.171 374.222 198.15 374.296 198.104C374.491 198.015 374.685 197.949 374.856 197.883C374.928 197.861 375.002 197.816 375.075 197.794C375.196 197.75 375.342 197.707 375.463 197.687C375.535 197.665 375.632 197.645 375.729 197.624C375.875 197.581 375.995 197.561 376.14 197.541C376.213 197.52 376.285 197.522 376.358 197.501C376.43 197.503 376.503 197.481 376.575 197.484C376.695 197.464 376.815 197.467 376.935 197.471C377.007 197.474 377.08 197.476 377.152 197.478C377.248 197.481 377.368 197.485 377.464 197.488C377.68 197.495 377.895 197.526 378.11 197.557L371.861 196.112C371.645 196.081 371.43 196.05 371.214 196.043C371.19 196.042 371.166 196.041 371.142 196.041C371.07 196.038 370.974 196.035 370.902 196.033C370.83 196.031 370.758 196.028 370.662 196.025C370.542 196.021 370.421 196.041 370.301 196.037C370.229 196.035 370.156 196.057 370.084 196.054L370.06 196.054C370.012 196.052 369.94 196.074 369.891 196.096C369.746 196.115 369.601 196.135 369.48 196.178C369.407 196.2 369.31 196.221 369.213 196.242C369.092 196.286 368.947 196.305 368.825 196.349C368.801 196.348 368.777 196.371 368.728 196.37C368.68 196.392 368.631 196.414 368.582 196.437C368.388 196.502 368.193 196.592 368.022 196.658C367.95 196.679 367.876 196.725 367.802 196.77C367.535 196.881 367.29 197.017 367.02 197.176C366.776 197.312 366.554 197.472 366.31 197.608C366.211 197.676 366.113 197.745 366.015 197.813C365.916 197.882 365.842 197.951 365.744 198.02C365.423 198.273 365.103 198.526 364.805 198.803L364.78 198.826C364.458 199.127 364.16 199.429 363.885 199.755C363.81 199.848 363.735 199.941 363.66 200.034C363.561 200.127 363.485 200.244 363.386 200.337C363.311 200.43 363.235 200.547 363.135 200.664C362.96 200.897 362.76 201.13 362.607 201.388C362.481 201.576 362.33 201.786 362.204 201.973C362.027 202.231 361.875 202.489 361.722 202.771C361.646 202.889 361.57 203.006 361.494 203.123C361.417 203.264 361.366 203.382 361.289 203.523C361.237 203.641 361.162 203.734 361.11 203.852C360.904 204.276 360.698 204.7 360.516 205.149L360.515 205.173C360.306 205.693 360.096 206.236 359.934 206.781C359.907 206.876 359.88 206.971 359.852 207.09C359.717 207.564 359.582 208.038 359.446 208.512C359.418 208.631 359.39 208.749 359.363 208.868C359.307 209.106 359.252 209.319 359.196 209.557C359.141 209.77 359.11 210.008 359.055 210.222C359.026 210.365 358.998 210.483 358.97 210.626C358.881 211.126 358.793 211.625 358.729 212.126C358.728 212.173 358.727 212.197 358.725 212.245C358.721 212.365 358.693 212.483 358.69 212.603C358.628 213.032 358.589 213.485 358.575 213.915C358.57 214.082 358.565 214.25 358.534 214.44C358.53 214.584 358.501 214.726 358.496 214.87C358.49 215.085 358.483 215.3 358.5 215.516C358.492 215.755 358.484 215.994 358.501 216.233C358.513 216.593 358.526 216.952 358.538 217.311C358.555 217.527 358.548 217.742 358.565 217.958C358.564 218.006 358.561 218.078 358.584 218.126C358.621 218.462 358.659 218.775 358.697 219.087C358.715 219.279 358.733 219.471 358.751 219.639C358.83 220.192 358.932 220.745 359.034 221.299C359.276 222.766 359.712 224.144 360.297 225.359C360.194 225.595 360.066 225.83 359.914 226.065C359.736 226.37 359.56 226.627 359.358 226.908C359.308 226.978 359.258 227.048 359.207 227.118C359.132 227.212 359.034 227.28 358.959 227.374C358.809 227.536 358.661 227.675 358.512 227.814C358.413 227.906 358.291 227.974 358.192 228.067C357.994 228.228 357.798 228.365 357.601 228.502C357.479 228.57 357.357 228.614 357.259 228.659C357.211 228.681 357.163 228.68 357.114 228.702C357.041 228.724 356.992 228.746 356.92 228.744C356.872 228.742 356.799 228.764 356.751 228.762C356.703 228.76 356.679 228.76 356.631 228.758C356.535 228.755 356.439 228.752 356.344 228.725L362.594 230.17C362.665 230.197 362.761 230.2 362.833 230.202L362.857 230.203C362.905 230.204 362.929 230.205 362.977 230.207C363.025 230.208 363.073 230.21 363.121 230.211C363.145 230.212 363.145 230.212 363.169 230.213C363.241 230.215 363.29 230.193 363.363 230.171C363.387 230.172 363.435 230.15 363.459 230.15C363.459 230.15 363.483 230.151 363.484 230.127C363.606 230.083 363.727 230.039 363.826 229.971C363.899 229.925 363.997 229.857 364.071 229.811C364.194 229.719 364.293 229.627 364.416 229.535C364.515 229.443 364.638 229.375 364.737 229.282C364.885 229.144 365.035 228.981 365.184 228.842C365.259 228.749 365.357 228.68 365.432 228.587C365.457 228.564 365.457 228.564 365.482 228.541C365.531 228.494 365.558 228.424 365.583 228.377C365.784 228.12 365.961 227.838 366.139 227.533C366.164 227.486 366.214 227.44 366.24 227.393C366.342 227.205 366.419 227.04 366.521 226.852C365.936 225.636 365.523 224.259 365.282 222.792C365.156 222.238 365.078 221.685 364.999 221.132C364.981 220.94 364.964 220.748 364.945 220.58C364.934 220.173 364.898 219.813 364.862 219.429Z" fill="#121212"/>
<path d="M360.961 236.075L354.712 234.63C353.543 234.353 352.611 233.462 351.844 231.906L358.093 233.351C358.86 234.907 359.793 235.798 360.961 236.075Z" fill="#101010"/>
<path d="M358.66 218.727C358.804 218.732 358.924 218.735 359.068 218.764L352.818 217.319C352.723 217.292 352.651 217.289 352.555 217.286C352.507 217.285 352.459 217.283 352.435 217.282C352.387 217.281 352.363 217.28 352.315 217.278C352.291 217.278 352.267 217.277 352.219 217.275C352.098 217.295 351.977 217.315 351.856 217.359C351.758 217.404 351.685 217.426 351.587 217.494C351.538 217.517 351.489 217.539 351.464 217.586C351.415 217.608 351.389 217.655 351.365 217.678C351.316 217.701 351.266 217.747 351.241 217.794C351.191 217.84 351.117 217.91 351.067 217.956C351.018 218.002 350.993 218.025 350.944 218.072C350.943 218.096 350.919 218.095 350.918 218.119C350.893 218.142 350.892 218.166 350.868 218.189C350.768 218.305 350.691 218.446 350.59 218.587C350.566 218.61 350.565 218.634 350.54 218.657C350.539 218.681 350.515 218.704 350.514 218.728C350.488 218.775 350.462 218.846 350.436 218.917C350.41 218.964 350.385 219.011 350.359 219.058C350.334 219.081 350.333 219.129 350.332 219.153C350.306 219.2 350.305 219.247 350.279 219.294C350.278 219.342 350.253 219.365 350.227 219.412C350.201 219.483 350.199 219.555 350.173 219.626C350.172 219.65 350.146 219.697 350.145 219.721C350.145 219.745 350.145 219.745 350.144 219.769C350.116 219.887 350.088 220.006 350.084 220.125L350.084 220.149C350.082 220.197 350.081 220.221 350.08 220.269C350.077 220.341 350.074 220.436 350.048 220.507C350.046 220.555 350.044 220.627 350.043 220.674C350.044 221.368 350.023 222.038 349.976 222.73C349.971 222.897 349.965 223.088 349.936 223.255C349.889 223.947 349.818 224.663 349.724 225.354C349.721 225.425 349.694 225.52 349.692 225.592C349.599 226.235 349.482 226.877 349.366 227.519C349.337 227.662 349.308 227.828 349.279 227.971C349.135 228.708 348.943 229.444 348.752 230.155C348.695 230.441 348.614 230.701 348.533 230.986C348.453 231.246 348.348 231.506 348.244 231.766C348.218 231.813 348.217 231.837 348.192 231.884C348.061 232.215 347.907 232.521 347.729 232.826C347.677 232.944 347.601 233.061 347.525 233.178C347.449 233.319 347.373 233.437 347.296 233.578C347.22 233.695 347.144 233.812 347.069 233.905C346.993 234.022 346.894 234.139 346.794 234.255C346.719 234.349 346.644 234.418 346.593 234.512C346.443 234.699 346.294 234.861 346.12 235.023C346.046 235.093 345.996 235.163 345.922 235.208C345.699 235.416 345.452 235.624 345.207 235.783C345.084 235.851 344.963 235.895 344.841 235.939C344.817 235.938 344.768 235.961 344.744 235.96C344.648 235.981 344.551 236.001 344.454 236.022C344.382 236.02 344.333 236.042 344.261 236.04C344.213 236.038 344.165 236.037 344.117 236.035C343.997 236.031 343.901 236.028 343.806 236.001L350.055 237.447C350.15 237.474 350.246 237.477 350.343 237.48L350.367 237.481C350.415 237.482 350.463 237.484 350.511 237.485C350.559 237.487 350.607 237.488 350.679 237.491L350.703 237.491C350.799 237.471 350.896 237.45 350.993 237.429C351.017 237.43 351.042 237.407 351.09 237.408C351.211 237.364 351.333 237.32 351.455 237.253C351.701 237.093 351.948 236.886 352.171 236.677C352.245 236.608 352.295 236.538 352.369 236.492C352.542 236.331 352.692 236.168 352.842 235.981C352.891 235.935 352.917 235.888 352.967 235.842C352.992 235.795 353.018 235.748 353.066 235.725C353.166 235.609 353.242 235.492 353.342 235.375C353.418 235.258 353.493 235.165 353.569 235.048C353.645 234.93 353.721 234.789 353.798 234.648C353.849 234.554 353.899 234.484 353.95 234.414C353.974 234.391 353.976 234.343 354.001 234.32C354.155 234.014 354.309 233.708 354.464 233.378C354.489 233.331 354.49 233.307 354.516 233.26C354.62 233 354.725 232.74 354.805 232.48C354.806 232.456 354.831 232.433 354.831 232.433C354.911 232.172 354.967 231.935 355.047 231.674C355.211 231.057 355.375 230.44 355.515 229.823C355.543 229.704 355.546 229.608 355.574 229.49C355.603 229.347 355.632 229.181 355.661 229.038C355.778 228.396 355.894 227.753 355.987 227.11C355.989 227.039 356.017 226.944 356.019 226.872C356.02 226.848 356.021 226.801 356.022 226.777C356.116 226.11 356.161 225.441 356.231 224.774C356.237 224.582 356.242 224.415 356.272 224.249C356.279 224.01 356.311 223.771 356.319 223.532C356.333 223.078 356.347 222.648 356.338 222.193C356.342 222.05 356.346 221.93 356.351 221.787C356.352 221.739 356.353 221.715 356.355 221.667C356.383 221.525 356.388 221.381 356.441 221.239C356.441 221.215 356.467 221.168 356.468 221.145C356.495 221.05 356.523 220.931 356.55 220.836C356.575 220.789 356.577 220.741 356.602 220.694C356.629 220.599 356.68 220.529 356.706 220.458C356.732 220.387 356.758 220.34 356.784 220.269C356.81 220.222 356.835 220.175 356.861 220.128C356.937 219.987 357.038 219.847 357.138 219.731C357.164 219.684 357.188 219.66 357.214 219.613C357.239 219.566 357.289 219.52 357.338 219.498C357.387 219.452 357.438 219.381 357.511 219.336C357.561 219.29 357.609 219.267 357.635 219.22C357.709 219.151 357.783 219.105 357.88 219.061C357.954 219.015 358.052 218.97 358.149 218.926C358.295 218.883 358.464 218.864 358.608 218.845C358.588 218.725 358.612 218.725 358.66 218.727Z" fill="#141414"/>
<path d="M346.628 242.385C345.972 241.885 345.392 241.22 344.938 240.416L338.688 238.971C339.167 239.776 339.722 240.44 340.379 240.939C340.918 241.363 341.486 241.645 342.106 241.784L348.355 243.23C347.735 243.09 347.143 242.808 346.628 242.385Z" fill="#101010"/>
<path d="M356.321 210.038L350.071 208.593C350 208.567 349.928 208.564 349.856 208.562C349.808 208.56 349.784 208.56 349.736 208.558C349.496 208.55 349.23 208.59 348.99 208.606C348.966 208.605 348.966 208.605 348.942 208.604C348.652 208.643 348.338 208.705 348.047 208.791C347.659 208.874 347.295 208.982 346.907 209.089C346.859 209.111 346.811 209.11 346.786 209.133C346.737 209.155 346.713 209.155 346.664 209.177C346.47 209.243 346.275 209.332 346.081 209.397C345.983 209.442 345.886 209.463 345.813 209.508C345.52 209.643 345.251 209.777 344.958 209.936C344.713 210.071 344.492 210.232 344.246 210.391C344.148 210.46 344.05 210.528 343.951 210.597C343.853 210.666 343.779 210.735 343.68 210.804C343.36 211.032 343.064 211.286 342.767 211.564C342.742 211.587 342.742 211.587 342.717 211.61C342.395 211.911 342.097 212.212 341.798 212.537C341.723 212.631 341.648 212.724 341.549 212.816C341.449 212.933 341.35 213.025 341.274 213.143C341.199 213.236 341.123 213.353 341.047 213.47C340.871 213.704 340.671 213.961 340.494 214.218C340.368 214.405 340.217 214.616 340.091 214.803C339.915 215.061 339.761 215.343 339.608 215.625C339.532 215.742 339.456 215.859 339.38 216C339.304 216.118 339.251 216.26 339.199 216.377C339.147 216.495 339.072 216.613 339.02 216.731C338.814 217.155 338.607 217.603 338.424 218.051C338.215 218.571 338.031 219.091 337.845 219.636C337.74 219.919 337.633 220.227 337.551 220.535C337.499 220.677 337.469 220.844 337.441 220.986C337.332 221.366 337.223 221.769 337.139 222.149C337.11 222.315 337.056 222.481 337.003 222.647C336.975 222.766 336.971 222.885 336.943 223.004C336.858 223.408 336.796 223.837 336.735 224.241C336.705 224.432 336.651 224.622 336.645 224.813C336.617 224.931 336.613 225.051 336.608 225.194C336.605 225.314 336.577 225.433 336.573 225.552C336.507 226.1 336.465 226.649 336.448 227.175C336.447 227.223 336.446 227.247 336.445 227.295C336.426 227.868 336.384 228.417 336.343 228.966C336.34 229.038 336.337 229.133 336.335 229.205C336.297 229.635 336.283 230.065 336.246 230.47C336.241 230.638 336.211 230.804 336.206 230.971C336.172 231.281 336.137 231.615 336.104 231.901C336.075 232.068 336.069 232.235 336.04 232.402C336.008 232.64 335.976 232.878 335.945 233.116C335.885 233.473 335.85 233.807 335.792 234.14C335.762 234.307 335.732 234.497 335.703 234.664C335.642 235.045 335.559 235.401 335.499 235.758C335.471 235.876 335.444 235.995 335.44 236.091C335.412 236.233 335.384 236.352 335.355 236.495C335.3 236.732 335.243 236.994 335.188 237.207C335.16 237.35 335.107 237.492 335.078 237.634C335.023 237.848 334.944 238.061 334.89 238.274C334.862 238.369 334.811 238.487 334.784 238.582C334.705 238.795 334.626 239.007 334.571 239.197C334.544 239.292 334.493 239.386 334.466 239.481C334.387 239.694 334.284 239.929 334.181 240.118C334.156 240.165 334.129 240.236 334.104 240.283C333.975 240.542 333.848 240.777 333.72 241.012C333.619 241.176 333.542 241.317 333.441 241.481C333.389 241.575 333.314 241.669 333.263 241.763C333.138 241.926 333.036 242.09 332.911 242.254C332.861 242.324 332.811 242.37 332.761 242.44C332.561 242.673 332.386 242.883 332.164 243.067C332.114 243.137 332.04 243.183 331.966 243.228C331.818 243.367 331.67 243.482 331.522 243.597C331.374 243.712 331.227 243.803 331.08 243.894C330.933 243.985 330.811 244.029 330.666 244.072C330.617 244.094 330.569 244.093 330.496 244.114C330.423 244.136 330.351 244.157 330.254 244.178C330.181 244.2 330.109 244.197 330.037 244.195C329.989 244.193 329.941 244.192 329.893 244.19C329.773 244.187 329.677 244.183 329.558 244.156L335.807 245.601C335.902 245.628 335.998 245.631 336.118 245.635L336.142 245.636C336.19 245.637 336.238 245.639 336.286 245.64C336.334 245.642 336.406 245.644 336.454 245.646C336.478 245.647 336.478 245.647 336.502 245.647C336.575 245.626 336.648 245.604 336.745 245.583C336.794 245.561 336.842 245.563 336.866 245.563C336.866 245.563 336.89 245.564 336.89 245.54C337.036 245.497 337.158 245.429 337.305 245.362C337.427 245.294 337.549 245.226 337.648 245.134C337.673 245.111 337.722 245.089 337.747 245.065C337.895 244.951 338.042 244.836 338.191 244.697C338.265 244.651 338.315 244.581 338.389 244.536C338.587 244.351 338.786 244.142 338.985 243.909C339.035 243.863 339.085 243.793 339.112 243.722C339.237 243.558 339.362 243.419 339.463 243.254C339.514 243.16 339.589 243.067 339.64 242.973C339.742 242.809 339.842 242.669 339.92 242.504C339.921 242.48 339.945 242.48 339.945 242.457C340.072 242.245 340.176 242.009 340.28 241.773C340.305 241.726 340.332 241.655 340.357 241.608C340.435 241.443 340.487 241.302 340.565 241.137C340.59 241.09 340.617 241.019 340.643 240.948C340.67 240.853 340.721 240.759 340.748 240.664C340.827 240.451 340.905 240.262 340.96 240.049C340.987 239.954 341.039 239.836 341.066 239.741C341.092 239.694 341.093 239.646 341.12 239.575C341.172 239.434 341.202 239.267 341.255 239.101C341.284 238.959 341.336 238.817 341.365 238.674C341.421 238.437 341.476 238.199 341.532 237.962C341.561 237.819 341.588 237.7 341.617 237.558C341.618 237.534 341.619 237.51 341.643 237.487C341.671 237.392 341.674 237.296 341.701 237.202C341.784 236.845 341.844 236.488 341.904 236.108C341.934 235.941 341.964 235.751 341.993 235.584C342.052 235.251 342.111 234.918 342.146 234.56C342.149 234.465 342.176 234.37 342.179 234.274C342.208 234.131 342.213 233.988 342.217 233.869C342.246 233.702 342.251 233.535 342.281 233.368C342.315 233.058 342.349 232.748 342.383 232.438C342.388 232.271 342.418 232.105 342.423 231.937C342.46 231.532 342.498 231.102 342.512 230.672C342.514 230.6 342.517 230.505 342.519 230.433C342.559 229.956 342.574 229.478 342.59 228.976C342.593 228.904 342.595 228.832 342.597 228.761C342.616 228.187 342.659 227.59 342.726 227.018C342.729 226.899 342.757 226.78 342.761 226.661C342.795 226.351 342.853 226.041 342.911 225.732C342.973 225.304 343.034 224.899 343.119 224.495C343.176 224.21 343.234 223.924 343.315 223.64C343.399 223.26 343.508 222.857 343.617 222.477C343.751 222.027 343.862 221.576 344.02 221.15C344.206 220.606 344.391 220.086 344.6 219.566C344.782 219.117 344.989 218.669 345.219 218.246C345.271 218.128 345.347 218.011 345.398 217.893C345.527 217.634 345.679 217.4 345.807 217.141C345.96 216.858 346.137 216.601 346.29 216.319C346.417 216.107 346.543 215.92 346.694 215.734C346.87 215.476 347.046 215.242 347.246 214.986C347.421 214.776 347.597 214.542 347.771 214.357C347.846 214.263 347.921 214.17 347.996 214.077C348.295 213.751 348.594 213.426 348.915 213.149C348.94 213.126 348.94 213.126 348.965 213.103C349.262 212.826 349.559 212.572 349.879 212.343C349.977 212.274 350.051 212.205 350.15 212.136C350.469 211.907 350.813 211.679 351.132 211.474C351.426 211.316 351.694 211.181 351.987 211.047C352.085 211.002 352.181 210.982 352.255 210.936C352.45 210.847 352.644 210.781 352.839 210.716C352.911 210.694 353.009 210.649 353.082 210.628C353.471 210.497 353.834 210.389 354.221 210.33C354.512 210.243 354.826 210.182 355.116 210.143C355.382 210.104 355.646 210.088 355.911 210.073C356.106 210.007 356.226 210.011 356.321 210.038Z" fill="#131313"/>
<path d="M332.79 250.504C331.112 248.871 329.965 246.418 329.531 243.485C329.409 242.811 329.255 241.61 329.091 239.978C329.413 239.701 329.735 239.4 330.034 239.075C330.133 238.982 330.209 238.865 330.308 238.773C330.432 238.657 330.532 238.517 330.656 238.401C330.756 238.285 330.832 238.167 330.932 238.051C331.032 237.911 331.133 237.77 331.234 237.63C331.435 237.349 331.612 237.068 331.789 236.787C331.866 236.646 331.942 236.528 332.019 236.387C332.044 236.34 332.069 236.317 332.094 236.27C332.3 235.87 332.505 235.47 332.687 235.045C332.687 235.045 332.687 235.021 332.711 235.022C332.839 234.787 332.968 234.528 333.072 234.268C333.097 234.245 333.098 234.197 333.123 234.174C333.149 234.127 333.151 234.055 333.177 234.008C333.23 233.842 333.283 233.7 333.336 233.535C333.362 233.488 333.363 233.44 333.389 233.369C333.415 233.322 333.417 233.274 333.418 233.226C333.471 233.084 333.499 232.942 333.528 232.799C333.554 232.728 333.557 232.657 333.582 232.61C333.583 232.586 333.584 232.538 333.609 232.515C333.639 232.348 333.667 232.206 333.697 232.039C333.699 231.967 333.725 231.896 333.728 231.825C333.728 231.801 333.729 231.777 333.73 231.753C333.762 231.491 333.795 231.229 333.803 230.966L333.804 230.942C333.813 230.655 333.799 230.344 333.785 230.056C333.786 230.008 333.787 229.984 333.788 229.937C333.768 229.816 333.772 229.697 333.752 229.576C333.753 229.553 333.753 229.553 333.753 229.529C333.735 229.361 333.715 229.216 333.672 229.071C333.519 228.588 333.217 228.267 332.836 228.183L326.586 226.738C326.944 226.821 327.247 227.118 327.423 227.626C327.465 227.795 327.508 227.964 327.526 228.132C327.545 228.3 327.564 228.444 327.559 228.611C327.574 228.899 327.589 229.187 327.579 229.497L327.578 229.521C327.569 229.784 327.537 230.046 327.504 230.308C327.501 230.404 327.474 230.499 327.471 230.594C327.442 230.761 327.413 230.904 327.384 231.07C327.357 231.165 327.329 231.284 327.302 231.378C327.273 231.521 327.22 231.663 327.192 231.806C327.165 231.9 327.138 231.995 327.111 232.09C327.057 232.256 327.005 232.398 326.951 232.563C326.924 232.658 326.873 232.752 326.847 232.823C326.742 233.083 326.614 233.318 326.486 233.577C326.485 233.601 326.461 233.6 326.46 233.624C326.253 234.096 326.022 234.543 325.792 234.967C325.716 235.108 325.64 235.225 325.563 235.366C325.386 235.647 325.208 235.953 325.007 236.209C324.907 236.35 324.806 236.49 324.706 236.63C324.505 236.887 324.305 237.144 324.105 237.377C324.006 237.469 323.93 237.586 323.831 237.679C323.532 238.004 323.21 238.305 322.888 238.582C323.051 240.238 323.205 241.439 323.328 242.089C323.763 244.998 324.91 247.451 326.587 249.108C327.125 249.556 327.717 249.839 328.337 249.978L334.586 251.424C333.919 251.235 333.328 250.952 332.79 250.504Z" fill="#101010"/>
<path d="M326.691 227.961C326.894 227.609 327.098 227.257 327.325 226.929C327.35 226.882 327.376 226.835 327.401 226.788C327.654 226.413 327.905 226.062 328.18 225.736C328.405 225.48 328.63 225.201 328.854 224.969C328.879 224.945 328.928 224.899 328.953 224.876C329.152 224.667 329.375 224.459 329.573 224.274C329.647 224.205 329.746 224.136 329.82 224.067C329.993 223.905 330.166 223.767 330.363 223.629C330.461 223.561 330.535 223.491 330.633 223.447C330.879 223.263 331.149 223.104 331.394 222.945C331.639 222.809 331.883 222.674 332.103 222.561C332.152 222.539 332.201 222.516 332.274 222.495C332.494 222.382 332.713 222.294 332.931 222.229C332.98 222.206 333.053 222.185 333.101 222.186C333.197 222.166 333.295 222.121 333.392 222.1C333.465 222.078 333.513 222.08 333.585 222.058C333.682 222.038 333.755 222.016 333.851 222.019C333.899 222.021 333.923 222.021 333.972 221.999C334.141 221.981 334.309 221.986 334.477 221.991C334.525 221.993 334.549 221.994 334.597 221.995C334.741 222 334.884 222.028 335.027 222.057L328.778 220.612C328.635 220.583 328.491 220.555 328.347 220.55C328.323 220.549 328.323 220.549 328.299 220.548C328.275 220.548 328.251 220.547 328.227 220.546C328.059 220.541 327.915 220.536 327.746 220.554C327.722 220.554 327.698 220.553 327.674 220.552C327.65 220.551 327.65 220.551 327.626 220.551C327.53 220.571 327.457 220.593 327.361 220.59C327.288 220.611 327.24 220.61 327.167 220.632C327.07 220.652 326.973 220.697 326.876 220.718C326.827 220.74 326.779 220.739 326.73 220.761C326.73 220.761 326.73 220.761 326.706 220.76C326.488 220.825 326.269 220.914 326.049 221.026C326 221.049 325.951 221.071 325.879 221.092C325.635 221.204 325.415 221.317 325.169 221.476C324.974 221.59 324.753 221.726 324.556 221.863C324.507 221.91 324.457 221.956 324.384 221.977C324.286 222.046 324.212 222.115 324.114 222.16C323.941 222.298 323.745 222.435 323.571 222.597C323.497 222.667 323.399 222.735 323.324 222.805C323.102 222.989 322.903 223.198 322.704 223.407C322.679 223.43 322.63 223.476 322.605 223.499C322.405 223.732 322.182 223.964 321.982 224.197C321.957 224.22 321.956 224.244 321.932 224.267C321.657 224.593 321.405 224.944 321.153 225.319C321.127 225.366 321.102 225.413 321.076 225.46C320.849 225.787 320.646 226.14 320.442 226.492C320.417 226.539 320.392 226.562 320.366 226.609C320.34 226.68 320.314 226.751 320.263 226.821C320.033 227.245 319.827 227.692 319.619 228.164C319.593 228.235 319.543 228.305 319.516 228.376C319.489 228.471 319.438 228.565 319.411 228.66L325.661 230.105C325.714 229.94 325.791 229.775 325.868 229.634C326.075 229.186 326.281 228.738 326.512 228.291C326.564 228.173 326.616 228.055 326.691 227.961Z" fill="#121212"/>
<path d="M423.569 184.331C424.794 184.346 425.453 185.516 425.263 186.945C424.364 196.223 421.746 202.144 417.24 204.751C413.274 207.04 410.652 204.874 409.419 198.398C408.936 194.722 408.697 190.958 408.7 187.13L408.638 183.85L403.422 186.864C404.288 188.327 404.881 190.069 405.227 191.994C406.135 196.641 405.75 201.892 404.174 206.794C402.934 210.989 400.442 214.474 397.43 216.219C395.373 217.421 393.426 217.454 391.825 216.421C390.708 219.017 389.007 221.092 387.023 222.248C383.791 224.106 381.599 223.533 380.134 220.519C378.905 225.097 376.935 228.072 374.241 229.636C372.454 230.679 370.769 230.769 369.328 229.981C368.245 232.266 366.697 234.083 364.932 235.15C361.774 236.963 359.582 236.39 358.117 233.376C356.888 237.954 354.918 240.929 352.224 242.493C350.142 243.718 348.174 243.631 346.628 242.409C345.971 241.909 345.391 241.244 344.937 240.44L344.404 242.074C343.298 245.818 341.082 248.953 338.388 250.517C338.241 250.608 338.094 250.699 337.947 250.79C336.16 251.809 334.264 251.724 332.789 250.528C331.111 248.895 329.965 246.442 329.531 243.509C329.408 242.835 329.254 241.634 329.091 240.002C330.547 238.804 331.804 237.074 332.686 235.069C333.604 233.424 333.982 231.402 333.752 229.577C333.734 229.385 333.716 229.216 333.648 229.071C333.386 228.249 332.699 227.964 332.062 228.326C330.348 229.323 329.098 230.814 328.27 232.654C327.398 234.348 326.738 236.217 326.362 238.167C326.092 239.833 325.918 241.502 325.89 243.128L326.174 255.22C326.251 256.538 325.631 257.882 324.7 258.45C324.553 258.541 324.407 258.585 324.262 258.628C323.146 258.951 322.193 257.939 322.17 256.407L321.23 216.971C321.2 215.654 321.844 214.311 322.775 213.767C322.922 213.676 323.068 213.609 323.214 213.566C324.353 213.244 325.307 214.231 325.33 215.763L325.637 230.081C326.894 226.867 328.972 224.279 331.348 222.896C334.849 220.879 336.929 221.975 337.708 226.115C338.157 228.594 337.972 231.363 337.191 233.97C336.406 236.696 335.1 239.214 333.45 241.195C333.462 241.578 333.497 241.962 333.582 242.323C333.76 243.502 334.209 244.497 334.885 245.141C335.54 245.688 336.403 245.764 337.187 245.287C340.42 243.405 342.181 237.959 342.577 228.664C342.66 226.083 343.152 223.491 344 221.03C345.388 216.72 348.001 213.192 351.111 211.378C352.163 210.814 353.184 210.44 354.224 210.234C354.782 210.061 355.361 210.007 355.914 209.977C356.347 209.967 356.726 210.147 357.051 210.493C357.84 211.379 357.832 213.126 357.046 214.392C356.791 214.839 356.468 215.187 356.101 215.391C355.831 215.549 355.541 215.612 355.277 215.603C354.219 215.617 353.152 215.918 352.099 216.53C349.969 217.753 348.329 220.165 347.589 223.012C346.689 226.333 346.577 229.798 347.272 232.859C347.51 234.422 348.091 235.78 348.924 236.764C349.548 237.526 350.481 237.676 351.361 237.202C353.032 236.059 354.349 233.972 354.907 231.574C355.776 228.444 356.192 225.227 356.198 222.069C356.192 220.753 356.859 219.458 357.765 218.937C357.838 218.892 357.936 218.847 358.033 218.802C359.392 218.392 360.393 219.405 360.437 221.009C360.464 223.163 360.612 225.274 360.931 227.318C361.064 228.422 361.443 229.344 362.072 229.962C362.589 230.314 363.238 230.311 363.849 229.972C365.051 229.221 365.951 228.149 366.546 226.828C365.96 225.613 365.548 224.236 365.283 222.768C364.323 218.239 364.634 213.081 366.183 208.25C367.571 203.941 370.16 200.411 373.27 198.621C375.033 197.601 376.629 197.294 378.134 197.558L377.723 184.194C377.719 182.854 378.385 181.56 379.292 181.015C379.439 180.924 379.585 180.857 379.755 180.814C380.894 180.516 381.822 181.551 381.844 183.107L382.361 205.087C382.402 208.294 382.661 211.461 383.139 214.515C383.272 215.596 383.651 216.517 384.206 217.205C384.698 217.58 385.323 217.6 385.886 217.259C387.309 216.348 388.365 214.922 388.95 213.171C388.527 212.128 388.203 210.993 387.977 209.79C387.087 205.359 387.392 200.344 388.889 195.655C390.089 191.22 392.659 187.522 395.794 185.709L408.502 178.366L408.36 170.825C408.331 169.508 408.95 168.189 409.881 167.644C410.052 167.554 410.174 167.486 410.319 167.467C411.483 167.146 412.435 168.157 412.48 169.738L412.661 176.06L417.166 173.478C417.288 173.41 417.41 173.366 417.532 173.322C418.623 172.998 419.578 173.962 419.601 175.47C419.68 176.765 419.06 178.084 418.13 178.629L412.718 181.756L412.812 185.563C412.863 189.202 413.132 192.775 413.597 196.259C414.15 199.244 415.145 200.425 416.516 199.631C419.161 198.09 420.76 193.954 421.412 187.132C421.545 185.988 422.13 185.002 422.889 184.548C423.11 184.412 423.328 184.347 423.569 184.331ZM378.361 206.944L378.246 203.782C377.963 203.629 377.678 203.525 377.367 203.467C376.223 203.191 375.062 203.416 373.96 204.051C372.05 205.162 370.413 207.478 369.719 210.374C368.819 213.695 368.707 217.184 369.402 220.221C369.642 221.736 370.223 223.071 371.033 224.054C371.657 224.816 372.59 224.966 373.495 224.468C375.013 223.584 376.276 221.663 377.163 218.772C378.049 215.882 378.537 211.926 378.361 206.944ZM401.395 200.556C401.582 198.48 401.504 196.444 401.205 194.521C400.53 190.862 399.054 189.69 396.777 191.004C394.744 192.183 393.128 194.595 392.46 197.445C391.606 200.839 391.493 204.352 392.185 207.461C392.377 208.974 392.984 210.262 393.871 211.08C394.62 211.702 395.604 211.758 396.51 211.213C396.559 211.191 396.609 211.144 396.657 211.122C398.104 210.236 399.333 208.624 400.069 206.662C400.686 204.672 401.137 202.605 401.444 200.534L401.395 200.556Z" fill="#403E41"/>
<path d="M316.935 257.052C316.958 257.076 316.982 257.077 317.029 257.103C317.124 257.154 317.219 257.181 317.314 257.208L323.564 258.653C323.469 258.626 323.373 258.599 323.279 258.548C323.256 258.523 323.232 258.523 323.184 258.497C323.137 258.472 323.066 258.446 323.019 258.396C322.996 258.371 322.949 258.346 322.926 258.321C322.879 258.272 322.832 258.247 322.786 258.197C322.762 258.173 322.74 258.124 322.693 258.099C322.646 258.049 322.624 258.001 322.577 257.951C322.555 257.903 322.531 257.878 322.509 257.829C322.487 257.781 322.441 257.708 322.418 257.659C322.396 257.61 322.373 257.562 322.351 257.513C322.329 257.441 322.307 257.392 322.285 257.32C322.263 257.271 322.265 257.2 322.242 257.151C322.221 257.078 322.223 257.007 322.201 256.934C322.179 256.886 322.181 256.814 322.184 256.742C322.163 256.622 322.166 256.526 322.146 256.406L321.206 216.97C321.21 216.827 321.215 216.684 321.219 216.564C321.22 216.516 321.222 216.468 321.223 216.421C321.228 216.277 321.256 216.135 321.284 216.016L321.285 215.992C321.314 215.849 321.366 215.707 321.394 215.589C321.42 215.542 321.421 215.494 321.446 215.471C321.473 215.376 321.524 215.282 321.551 215.211C321.576 215.164 321.602 215.093 321.628 215.046C321.654 214.999 321.68 214.928 321.729 214.882C321.806 214.741 321.907 214.6 321.983 214.483C322.007 214.46 322.033 214.413 322.058 214.39C322.083 214.343 322.132 214.32 322.157 214.273C322.208 214.203 322.281 214.158 322.332 214.088C322.381 214.041 322.406 214.018 322.455 213.996C322.529 213.927 322.627 213.858 322.701 213.812C322.848 213.721 322.994 213.654 323.14 213.611C323.262 213.567 323.358 213.57 323.478 213.55C323.502 213.551 323.55 213.553 323.574 213.553C323.67 213.557 323.79 213.56 323.886 213.587L317.636 212.142C317.565 212.116 317.493 212.113 317.397 212.11C317.373 212.11 317.349 212.109 317.325 212.108C317.301 212.107 317.253 212.106 317.229 212.105C317.205 212.104 317.181 212.103 317.133 212.102C317.06 212.123 316.964 212.12 316.891 212.142C316.867 212.141 316.843 212.164 316.819 212.164C316.697 212.207 316.575 212.251 316.452 212.343C316.404 212.366 316.355 212.388 316.329 212.435C316.28 212.457 316.255 212.504 316.206 212.527C316.157 212.549 316.132 212.596 316.083 212.618C316.009 212.664 315.959 212.734 315.909 212.804C315.883 212.851 315.834 212.874 315.809 212.921L315.784 212.944C315.759 212.967 315.759 212.991 315.734 213.014C315.634 213.13 315.557 213.271 315.481 213.412C315.456 213.436 315.455 213.459 315.43 213.483C315.406 213.506 315.404 213.554 315.379 213.577C315.354 213.624 315.327 213.695 315.302 213.742C315.276 213.789 315.276 213.813 315.25 213.86C315.224 213.907 315.223 213.954 315.197 214.001C315.172 214.048 315.17 214.096 315.146 214.119C315.145 214.143 315.12 214.166 315.119 214.19C315.091 214.309 315.064 214.404 315.036 214.523L315.036 214.547C315.009 214.641 315.005 214.761 314.977 214.88C314.976 214.904 314.975 214.927 314.974 214.975C314.972 215.023 314.971 215.071 314.969 215.119C314.968 215.166 314.966 215.214 314.965 215.262C314.961 215.358 314.959 215.429 314.956 215.525L315.897 254.961C315.895 255.032 315.892 255.104 315.914 255.177C315.912 255.224 315.936 255.249 315.934 255.297C315.932 255.369 315.954 255.417 315.952 255.489C315.974 255.561 315.971 255.633 315.993 255.706C316.016 255.754 316.013 255.826 316.036 255.874C316.057 255.947 316.08 255.995 316.102 256.068C316.124 256.117 316.146 256.165 316.169 256.214C316.191 256.262 316.237 256.335 316.26 256.384C316.282 256.433 316.304 256.481 316.328 256.506C316.374 256.555 316.397 256.604 316.443 256.653C316.466 256.678 316.489 256.726 316.536 256.752C316.583 256.801 316.63 256.827 316.676 256.876C316.7 256.901 316.747 256.926 316.77 256.951C316.841 256.977 316.888 257.026 316.935 257.052Z" fill="#121212"/>
<path d="M314.202 218.802C315.342 218.456 316.32 219.421 316.39 221.002L317.306 260.437C317.336 261.754 316.717 263.074 315.786 263.618C315.566 263.755 315.444 263.799 315.323 263.819C314.207 264.142 313.254 263.154 313.232 261.598L312.267 222.161C312.238 220.845 312.857 219.525 313.787 218.98C313.959 218.89 314.081 218.822 314.202 218.802Z" fill="#403E41"/>
<path d="M307.973 262.242C307.996 262.267 308.02 262.268 308.067 262.293C308.162 262.344 308.257 262.371 308.352 262.398L314.602 263.843C314.506 263.816 314.411 263.789 314.317 263.738C314.293 263.714 314.269 263.713 314.222 263.688C314.175 263.662 314.104 263.636 314.057 263.587C314.034 263.562 313.987 263.536 313.963 263.512C313.917 263.462 313.87 263.437 313.823 263.388C313.8 263.363 313.778 263.314 313.73 263.289C313.684 263.24 313.661 263.191 313.615 263.142C313.592 263.093 313.569 263.068 313.547 263.02C313.524 262.971 313.479 262.898 313.456 262.849C313.434 262.801 313.411 262.752 313.389 262.704C313.367 262.631 313.344 262.583 313.323 262.51C313.3 262.462 313.303 262.39 313.28 262.341C313.258 262.269 313.261 262.197 313.239 262.125C313.217 262.076 313.219 262.004 313.221 261.933C313.201 261.812 313.204 261.717 313.184 261.596L312.267 222.161C312.272 222.018 312.276 221.899 312.28 221.755C312.282 221.707 312.283 221.66 312.285 221.612C312.29 221.468 312.317 221.35 312.346 221.207L312.347 221.183C312.375 221.04 312.428 220.899 312.456 220.78C312.481 220.733 312.483 220.685 312.508 220.662C312.535 220.567 312.586 220.473 312.612 220.402C312.638 220.355 312.664 220.284 312.69 220.237C312.716 220.166 312.742 220.119 312.791 220.073C312.868 219.932 312.968 219.791 313.044 219.674C313.069 219.651 313.095 219.604 313.119 219.581C313.145 219.534 313.194 219.512 313.218 219.488C313.269 219.418 313.343 219.349 313.417 219.303C313.465 219.281 313.491 219.234 313.54 219.212C313.614 219.142 313.712 219.074 313.786 219.028C313.908 218.96 314.03 218.916 314.127 218.872C314.151 218.873 314.152 218.849 314.176 218.849C314.298 218.805 314.419 218.785 314.539 218.789C314.563 218.79 314.611 218.792 314.635 218.792C314.755 218.796 314.851 218.799 314.97 218.827L308.72 217.382C308.649 217.355 308.577 217.353 308.481 217.35C308.457 217.349 308.409 217.348 308.385 217.347C308.361 217.346 308.313 217.345 308.289 217.344C308.265 217.343 308.241 217.342 308.217 217.342C308.12 217.362 308.024 217.383 307.951 217.405L307.927 217.404L307.903 217.403C307.805 217.448 307.684 217.492 307.561 217.56C307.512 217.582 307.464 217.604 307.438 217.651C307.389 217.674 307.364 217.721 307.315 217.743C307.266 217.766 307.241 217.813 307.192 217.835C307.118 217.88 307.068 217.951 306.994 218.02C306.968 218.067 306.919 218.089 306.895 218.112L306.87 218.136C306.845 218.159 306.844 218.183 306.82 218.206C306.72 218.322 306.643 218.463 306.566 218.604C306.542 218.627 306.541 218.651 306.516 218.674C306.491 218.698 306.49 218.745 306.465 218.769C306.439 218.816 306.413 218.886 306.388 218.934C306.362 218.981 306.361 219.004 306.336 219.051C306.31 219.099 306.309 219.146 306.282 219.217C306.257 219.264 306.255 219.312 306.23 219.335C306.23 219.359 306.205 219.382 306.204 219.406C306.176 219.525 306.148 219.644 306.121 219.738L306.121 219.762C306.094 219.857 306.09 219.977 306.063 220.071C306.062 220.095 306.061 220.119 306.059 220.167C306.058 220.215 306.056 220.263 306.055 220.31C306.053 220.358 306.052 220.406 306.05 220.454C306.047 220.55 306.045 220.621 306.042 220.717L306.959 260.152C306.956 260.224 306.954 260.295 306.976 260.368C306.974 260.416 306.997 260.44 306.996 260.488C306.994 260.56 307.016 260.608 307.014 260.68C307.035 260.752 307.033 260.824 307.055 260.897C307.077 260.945 307.075 261.017 307.097 261.066C307.119 261.138 307.142 261.187 307.163 261.259C307.186 261.308 307.208 261.356 307.231 261.405C307.253 261.453 307.299 261.527 307.321 261.575C307.344 261.624 307.366 261.672 307.389 261.697C307.436 261.746 307.458 261.795 307.505 261.844C307.528 261.869 307.551 261.918 307.598 261.943C307.644 261.992 307.691 262.018 307.738 262.067C307.761 262.092 307.808 262.117 307.832 262.142C307.854 262.19 307.901 262.216 307.973 262.242Z" fill="#131313"/>
<path d="M304.568 257.515C304.601 257.253 304.634 256.967 304.667 256.705C304.669 256.633 304.695 256.562 304.697 256.49C304.734 256.109 304.746 255.726 304.782 255.344C304.785 255.273 304.786 255.225 304.789 255.153C304.794 254.986 304.799 254.819 304.781 254.651C304.791 254.34 304.777 254.028 304.763 253.717C304.744 253.549 304.75 253.358 304.732 253.19C304.712 253.045 304.716 252.926 304.721 252.782C304.703 252.59 304.684 252.422 304.666 252.254C304.646 252.11 304.626 251.99 304.631 251.846C304.573 251.39 304.515 250.957 304.409 250.523C303.957 248.14 303.159 246.799 302.038 246.547L295.788 245.102C296.91 245.353 297.708 246.695 298.16 249.078C298.242 249.511 298.323 249.969 298.381 250.401C298.401 250.545 298.421 250.666 298.416 250.809C298.454 251.121 298.468 251.433 298.505 251.769C298.524 251.937 298.518 252.128 298.537 252.296C298.551 252.608 298.541 252.918 298.555 253.23C298.549 253.397 298.544 253.564 298.538 253.732C298.524 254.186 298.509 254.64 298.47 255.093C298.468 255.165 298.466 255.237 298.44 255.308C298.404 255.665 298.369 255.999 298.31 256.356C298.245 256.881 298.157 257.38 298.044 257.903C298.017 257.998 298.013 258.093 297.986 258.188C297.847 258.782 297.684 259.375 297.521 259.968C297.386 260.418 297.251 260.868 297.069 261.293C297.017 261.411 296.966 261.529 296.914 261.647C296.784 261.93 296.655 262.213 296.527 262.472C296.501 262.519 296.476 262.566 296.45 262.613C296.322 262.848 296.171 263.082 296.019 263.317C295.993 263.364 295.969 263.387 295.943 263.434C295.817 263.621 295.691 263.785 295.541 263.971C295.492 264.017 295.442 264.064 295.416 264.135C295.216 264.367 295.041 264.577 294.819 264.761C294.794 264.784 294.745 264.831 294.72 264.854C294.497 265.062 294.251 265.245 294.004 265.429C293.881 265.521 293.758 265.612 293.636 265.68C293.587 265.703 293.538 265.749 293.489 265.771C293.318 265.861 293.171 265.928 293.001 265.995C292.928 266.016 292.879 266.039 292.807 266.036C292.711 266.057 292.638 266.079 292.541 266.1C292.468 266.121 292.372 266.118 292.3 266.116C292.252 266.114 292.18 266.112 292.132 266.11C292.012 266.106 291.868 266.102 291.749 266.074L297.998 267.519C298.117 267.547 298.238 267.551 298.357 267.579C298.381 267.58 298.381 267.58 298.405 267.58C298.453 267.582 298.525 267.584 298.573 267.586C298.645 267.588 298.693 267.59 298.766 267.568C298.79 267.569 298.79 267.569 298.814 267.546C298.911 267.525 298.984 267.503 299.081 267.483C299.13 267.46 299.178 267.462 299.226 267.439C299.25 267.44 299.251 267.416 299.251 267.416C299.421 267.35 299.568 267.283 299.739 267.193C299.788 267.17 299.837 267.124 299.886 267.102C299.984 267.033 300.083 266.965 300.205 266.897C300.23 266.874 300.255 266.85 300.279 266.827C300.525 266.668 300.747 266.484 300.994 266.276C301.019 266.253 301.068 266.207 301.093 266.184C301.291 265.999 301.49 265.79 301.69 265.557C301.715 265.534 301.74 265.511 301.765 265.464C301.79 265.44 301.791 265.417 301.815 265.393C301.941 265.23 302.091 265.043 302.217 264.856C302.243 264.809 302.268 264.786 302.293 264.739C302.445 264.504 302.597 264.27 302.724 264.035C302.725 264.011 302.749 264.012 302.75 263.988C302.775 263.965 302.776 263.917 302.801 263.894C302.953 263.636 303.083 263.353 303.188 263.069C303.213 263.022 303.239 262.975 303.24 262.951C303.266 262.88 303.292 262.809 303.319 262.738C303.452 262.336 303.608 261.958 303.717 261.555C303.743 261.508 303.744 261.46 303.746 261.412C303.933 260.82 304.073 260.226 304.212 259.633C304.213 259.609 304.213 259.609 304.213 259.585C304.24 259.514 304.243 259.418 304.245 259.347C304.358 258.824 304.446 258.324 304.511 257.8C304.539 257.681 304.565 257.61 304.568 257.515Z" fill="#101010"/>
<path d="M305.353 241.366C306.961 242.925 308.061 245.306 308.5 248.095C309.431 252.767 309.045 258.042 307.445 262.943C306.205 267.138 303.714 270.623 300.726 272.369C300.627 272.437 300.529 272.506 300.431 272.55C298.497 273.661 296.455 273.643 294.835 272.466C293.006 271.067 291.762 268.659 291.327 265.726C290.437 261.295 290.742 256.28 292.24 251.567C293.439 247.179 296.007 243.53 299.117 241.716C299.166 241.694 299.191 241.67 299.24 241.648C301.712 240.244 303.806 240.144 305.353 241.366ZM303.295 262.714C304.77 258.718 305.151 254.351 304.386 250.499C303.686 246.863 302.21 245.691 299.957 246.983C299.932 247.006 299.908 247.005 299.884 247.028C297.9 248.184 296.308 250.598 295.665 253.424C294.786 256.817 294.697 260.331 295.39 263.44C295.582 264.953 296.189 266.241 297.076 267.059C297.825 267.681 298.808 267.737 299.739 267.193C299.788 267.17 299.837 267.124 299.886 267.102C301.308 266.238 302.535 264.675 303.295 262.714Z" fill="#403E41"/>
<path d="M300.241 241.154C300.461 241.041 300.68 240.953 300.898 240.888C300.947 240.866 300.996 240.843 301.044 240.845C301.189 240.802 301.311 240.758 301.457 240.715C301.529 240.693 301.578 240.671 301.651 240.649C301.845 240.607 302.038 240.566 302.231 240.548C302.497 240.509 302.761 240.517 303.001 240.525C303.049 240.527 303.121 240.529 303.169 240.531C303.385 240.537 303.576 240.568 303.791 240.622L297.541 239.177C297.351 239.123 297.135 239.116 296.919 239.085C296.895 239.084 296.871 239.084 296.847 239.083C296.823 239.082 296.775 239.08 296.751 239.08C296.487 239.071 296.246 239.087 295.982 239.103C295.789 239.12 295.595 239.162 295.402 239.204C295.329 239.225 295.28 239.248 295.207 239.269C295.062 239.312 294.941 239.332 294.794 239.399C294.77 239.399 294.77 239.399 294.746 239.398C294.722 239.397 294.674 239.42 294.649 239.443C294.431 239.507 294.211 239.62 293.991 239.709C293.919 239.73 293.845 239.776 293.772 239.797C293.504 239.932 293.235 240.067 292.942 240.225C292.893 240.247 292.868 240.271 292.819 240.293C292.599 240.429 292.378 240.566 292.157 240.702C292.035 240.77 291.936 240.863 291.813 240.954C291.739 241 291.665 241.069 291.591 241.115C291.271 241.368 290.95 241.62 290.652 241.922C290.603 241.968 290.552 242.038 290.503 242.085C290.23 242.339 289.981 242.618 289.732 242.897C289.657 242.966 289.607 243.037 289.533 243.106C289.483 243.152 289.457 243.199 289.408 243.246C289.283 243.385 289.181 243.573 289.056 243.713C288.905 243.923 288.731 244.133 288.58 244.343C288.429 244.554 288.302 244.765 288.175 244.976C288.023 245.211 287.895 245.446 287.744 245.68C287.718 245.727 287.692 245.774 287.643 245.821C287.591 245.938 287.539 246.056 287.487 246.174C287.282 246.575 287.076 246.999 286.894 247.423C286.843 247.517 286.792 247.611 286.765 247.706C286.713 247.824 286.685 247.943 286.634 248.061C286.503 248.368 286.397 248.699 286.291 249.007C286.238 249.149 286.185 249.291 286.133 249.432C286.078 249.646 285.999 249.859 285.944 250.072C285.918 250.119 285.917 250.167 285.891 250.214C285.731 250.712 285.595 251.21 285.483 251.708C285.454 251.851 285.426 251.97 285.374 252.112C285.319 252.301 285.265 252.515 285.234 252.705C285.179 252.919 285.148 253.157 285.093 253.371C285.064 253.513 285.036 253.632 285.008 253.775C284.92 254.274 284.831 254.774 284.767 255.274C284.766 255.298 284.765 255.346 284.764 255.37C284.76 255.489 284.732 255.608 284.729 255.728C284.691 256.157 284.629 256.586 284.615 257.016C284.61 257.183 284.603 257.374 284.574 257.541C284.569 257.708 284.539 257.875 284.534 258.042C284.528 258.233 284.522 258.401 284.54 258.593C284.532 258.832 284.524 259.094 284.54 259.334C284.554 259.67 284.543 259.98 284.581 260.317C284.597 260.556 284.589 260.795 284.606 261.035C284.603 261.131 284.6 261.202 284.621 261.299C284.636 261.586 284.676 261.851 284.714 262.139C284.733 262.307 284.751 262.499 284.769 262.667C284.848 263.196 284.928 263.725 285.031 264.255C285.465 267.188 286.709 269.596 288.538 270.995C289.079 271.371 289.647 271.653 290.267 271.793L296.516 273.238C295.92 273.099 295.328 272.841 294.788 272.441C292.958 271.042 291.714 268.633 291.28 265.7C291.177 265.171 291.098 264.642 291.019 264.113C291 263.945 290.982 263.753 290.964 263.585C290.927 263.225 290.891 262.864 290.854 262.504C290.838 262.265 290.822 262.025 290.829 261.786C290.815 261.474 290.802 261.139 290.813 260.804C290.821 260.565 290.805 260.302 290.813 260.063C290.824 259.704 290.835 259.37 290.847 259.011C290.852 258.844 290.858 258.652 290.888 258.486C290.925 258.057 290.963 257.627 291.001 257.198C291.005 257.078 291.033 256.959 291.037 256.84C291.102 256.316 291.191 255.768 291.28 255.245C291.309 255.102 291.337 254.983 291.365 254.841C291.451 254.413 291.537 253.985 291.647 253.558C291.676 253.415 291.704 253.296 291.756 253.155C291.894 252.609 292.056 252.064 292.217 251.519C292.325 251.163 292.433 250.808 292.564 250.453C292.671 250.122 292.777 249.814 292.907 249.507C292.986 249.294 293.089 249.082 293.168 248.87C293.35 248.445 293.556 248.021 293.761 247.621C293.838 247.456 293.916 247.291 294.017 247.126C294.145 246.891 294.296 246.657 294.448 246.422C294.575 246.211 294.703 245.976 294.853 245.79C295.004 245.579 295.155 245.369 295.33 245.159C295.481 244.948 295.632 244.738 295.807 244.528C295.857 244.458 295.931 244.389 296.006 244.319C296.255 244.04 296.504 243.761 296.777 243.507C296.826 243.461 296.877 243.39 296.926 243.344C297.224 243.067 297.545 242.79 297.865 242.537C297.94 242.468 298.013 242.422 298.087 242.377C298.407 242.124 298.751 241.896 299.093 241.715C299.142 241.693 299.167 241.67 299.216 241.647C299.485 241.489 299.778 241.354 300.047 241.22C300.095 241.221 300.167 241.199 300.241 241.154Z" fill="#131313"/>
<path d="M273.052 270.593L266.802 269.147C266.802 269.147 266.802 269.147 266.826 269.148L273.052 270.593Z" fill="#121212"/>
<path d="M273.076 270.593L266.826 269.148C266.826 269.148 266.826 269.148 266.85 269.149L273.076 270.593Z" fill="#131313"/>
<path d="M273.076 270.593L266.826 269.148L266.85 269.149L273.076 270.593C273.1 270.594 273.1 270.594 273.076 270.593Z" fill="#131313"/>
<path d="M273.1 270.57L266.851 269.124L266.875 269.125L273.1 270.57C273.124 270.571 273.124 270.571 273.1 270.57Z" fill="#141414"/>
<path d="M284.638 252.566C284.639 252.519 284.64 252.495 284.642 252.447C284.651 252.16 284.659 251.897 284.645 251.61C284.648 251.514 284.651 251.418 284.654 251.323C284.643 250.916 284.632 250.509 284.597 250.101C284.598 250.077 284.599 250.053 284.599 250.053C284.566 249.573 284.509 249.117 284.428 248.636C283.605 243.585 280.853 240.266 277.417 239.486L271.168 238.04C274.603 238.821 277.355 242.164 278.179 247.191C278.26 247.648 278.317 248.128 278.349 248.608C278.383 249.039 278.418 249.447 278.405 249.877C278.401 249.973 278.398 250.069 278.395 250.164C278.385 250.475 278.398 250.81 278.388 251.121C278.37 251.695 278.303 252.291 278.236 252.863C278.208 253.005 278.203 253.149 278.174 253.291C278.113 253.72 278.051 254.125 277.966 254.553C277.936 254.719 277.907 254.886 277.853 255.052C277.741 255.55 277.606 256.025 277.47 256.499C277.445 256.546 277.443 256.617 277.417 256.664C277.254 257.233 277.045 257.777 276.836 258.297C276.757 258.509 276.654 258.721 276.575 258.934C276.522 259.076 276.446 259.217 276.394 259.335C276.264 259.618 276.111 259.9 275.983 260.159C275.932 260.253 275.881 260.347 275.853 260.442C275.803 260.512 275.752 260.606 275.726 260.677C275.521 261.054 275.294 261.405 275.066 261.757C274.966 261.897 274.89 262.014 274.789 262.155C274.587 262.459 274.362 262.739 274.16 263.02C274.06 263.16 273.935 263.299 273.835 263.44C273.735 263.532 273.66 263.649 273.56 263.742C273.386 263.928 273.212 264.113 273.038 264.299C272.939 264.392 272.864 264.485 272.765 264.578C272.566 264.763 272.344 264.947 272.146 265.132C272.072 265.201 271.997 265.271 271.924 265.316C271.628 265.546 271.332 265.776 271.012 266.005C271.012 266.005 270.963 266.051 270.89 266.072C270.866 266.072 270.865 266.096 270.841 266.095C270.792 266.141 270.743 266.163 270.669 266.209C270.669 266.209 270.669 266.209 270.645 266.208C270.621 266.231 270.597 266.23 270.596 266.254C270.522 266.3 270.424 266.368 270.326 266.437C270.301 266.46 270.276 266.483 270.227 266.506C270.129 266.574 270.031 266.643 269.932 266.711C269.908 266.735 269.859 266.757 269.834 266.78C269.687 266.871 269.539 266.986 269.392 267.077L269.367 267.1C269.244 267.192 269.097 267.283 268.974 267.374C268.925 267.397 268.899 267.444 268.851 267.466C268.752 267.535 268.653 267.627 268.555 267.696C268.506 267.718 268.481 267.765 268.432 267.788C268.309 267.879 268.186 267.971 268.062 268.063C267.717 268.339 267.371 268.639 266.949 269.056L273.199 270.501C273.621 270.084 273.967 269.784 274.312 269.508C274.435 269.417 274.558 269.325 274.681 269.233C274.73 269.211 274.756 269.164 274.804 269.141C274.903 269.073 275.001 269.004 275.1 268.912C275.149 268.889 275.174 268.842 275.223 268.82C275.346 268.728 275.493 268.637 275.617 268.545L275.641 268.522C275.788 268.431 275.936 268.316 276.083 268.225C276.132 268.203 276.157 268.18 276.182 268.157C276.28 268.088 276.378 268.02 276.477 267.951C276.502 267.928 276.526 267.905 276.575 267.882C276.697 267.815 276.796 267.746 276.87 267.677C276.968 267.608 277.042 267.562 277.092 267.516L277.116 267.493C277.166 267.447 277.215 267.424 277.239 267.425C277.263 267.402 277.288 267.379 277.312 267.38C277.607 267.174 277.878 266.967 278.149 266.761C278.223 266.691 278.297 266.646 278.371 266.576C278.594 266.392 278.792 266.207 278.99 266.022C279.089 265.93 279.188 265.837 279.263 265.744C279.437 265.558 279.612 265.372 279.786 265.187C279.885 265.094 279.961 264.977 280.06 264.884C280.11 264.814 280.16 264.768 280.21 264.698C280.26 264.628 280.336 264.534 280.386 264.464C280.611 264.184 280.812 263.904 281.014 263.599C281.115 263.459 281.191 263.342 281.292 263.201C281.519 262.85 281.748 262.474 281.951 262.122C281.977 262.051 282.027 262.005 282.053 261.934C282.054 261.91 282.079 261.887 282.079 261.887C282.13 261.793 282.181 261.699 282.208 261.604C282.361 261.322 282.49 261.063 282.62 260.756C282.673 260.614 282.748 260.497 282.801 260.355C282.878 260.19 282.931 260.048 283.009 259.883C283.035 259.812 283.06 259.765 283.087 259.694C283.296 259.151 283.506 258.607 283.668 258.062L283.669 258.038C283.694 257.991 283.696 257.943 283.697 257.896C283.833 257.421 283.968 256.947 284.08 256.448C284.107 256.377 284.109 256.306 284.135 256.235C284.162 256.14 284.165 256.044 284.193 255.95C284.278 255.522 284.34 255.117 284.401 254.688C284.404 254.593 284.432 254.498 284.459 254.379C284.461 254.331 284.462 254.307 284.463 254.26C284.576 253.737 284.619 253.14 284.638 252.566Z" fill="#101010"/>
<path d="M264.04 287.768C264.063 287.792 264.087 287.793 264.11 287.818C264.205 287.869 264.276 287.895 264.371 287.922L270.621 289.367C270.526 289.34 270.43 289.313 270.36 289.263C270.337 289.238 270.313 289.238 270.289 289.213C270.242 289.188 270.171 289.161 270.124 289.112C270.101 289.087 270.078 289.063 270.031 289.037C269.984 288.988 269.937 288.962 269.89 288.913C269.867 288.888 269.845 288.84 269.798 288.814C269.751 288.765 269.729 288.716 269.682 288.667C269.66 288.618 269.636 288.594 269.614 288.545C269.591 288.497 269.546 288.423 269.523 288.375C269.501 288.326 269.478 288.278 269.456 288.229C269.434 288.157 269.412 288.108 269.39 288.036C269.368 287.987 269.369 287.939 269.347 287.867C269.326 287.794 269.328 287.723 269.306 287.65C269.308 287.602 269.286 287.53 269.288 287.482C269.268 287.362 269.271 287.242 269.275 287.123C269.275 287.123 269.277 287.075 269.279 287.003C269.283 286.884 269.266 286.668 269.252 286.356C269.255 286.261 269.236 286.117 269.239 285.997C269.241 285.949 269.242 285.901 269.245 285.83C269.247 285.758 269.25 285.662 269.228 285.59C269.216 285.231 269.204 284.848 269.195 284.393C269.178 284.177 269.186 283.938 269.169 283.698C269.17 283.674 269.172 283.626 269.172 283.602C269.179 283.411 269.161 283.219 269.167 283.028C269.172 282.861 269.154 282.693 269.159 282.525C269.161 282.454 269.164 282.358 269.143 282.262C269.128 281.998 269.136 281.735 269.122 281.447C269.124 281.376 269.126 281.304 269.105 281.208C269.091 280.896 269.101 280.585 269.088 280.25C269.089 280.226 269.09 280.178 269.091 280.154C269.078 279.819 269.065 279.46 269.077 279.101C269.082 278.958 269.062 278.814 269.068 278.646C269.074 278.455 269.056 278.263 269.062 278.072C269.046 277.832 269.053 277.593 269.037 277.353C269.022 277.09 269.03 276.827 269.015 276.539C269.018 276.444 269.021 276.372 269 276.276C268.987 275.916 268.976 275.533 268.963 275.174C268.965 275.102 268.968 275.03 268.946 274.958C268.913 273.761 268.879 272.563 268.87 271.343C268.857 271.007 268.844 270.672 268.854 270.361C268.855 270.337 268.855 270.313 268.856 270.289C268.822 269.116 268.812 267.943 268.776 266.818C268.741 265.668 268.727 264.591 268.712 263.562C268.701 263.179 268.688 262.819 268.676 262.46C268.664 262.077 268.652 261.694 268.64 261.334C268.617 260.568 268.616 259.85 268.588 259.227C268.595 259.012 268.577 258.82 268.582 258.653C268.585 258.557 268.588 258.462 268.567 258.365C268.568 258.341 268.569 258.317 268.57 258.294C268.549 257.432 268.544 256.857 268.525 256.689C268.53 256.546 268.534 256.426 268.538 256.283C268.54 256.235 268.541 256.187 268.543 256.139C268.547 255.996 268.576 255.853 268.605 255.711C268.605 255.687 268.605 255.687 268.606 255.663C268.634 255.544 268.663 255.402 268.715 255.284C268.74 255.237 268.742 255.189 268.767 255.142C268.794 255.047 268.845 254.977 268.872 254.882C268.897 254.835 268.924 254.764 268.949 254.717C268.975 254.67 269.001 254.599 269.051 254.553C269.127 254.412 269.228 254.271 269.304 254.154C269.328 254.131 269.354 254.084 269.379 254.061C269.404 254.014 269.453 253.991 269.479 253.944C269.529 253.874 269.603 253.829 269.653 253.759C269.702 253.712 269.727 253.689 269.776 253.667C269.85 253.597 269.924 253.552 270.022 253.483C270.169 253.416 270.291 253.348 270.436 253.305C270.533 253.285 270.654 253.264 270.751 253.244C270.775 253.244 270.823 253.246 270.847 253.247C270.943 253.25 271.063 253.254 271.158 253.281L264.909 251.835C264.837 251.809 264.765 251.807 264.693 251.804C264.669 251.804 264.645 251.803 264.621 251.802C264.597 251.801 264.549 251.8 264.525 251.799C264.501 251.798 264.477 251.798 264.429 251.796C264.357 251.818 264.285 251.815 264.212 251.837C264.188 251.836 264.163 251.859 264.139 251.858C264.017 251.902 263.92 251.947 263.798 252.015C263.749 252.037 263.7 252.06 263.674 252.107C263.626 252.129 263.6 252.176 263.551 252.198C263.503 252.221 263.477 252.268 263.428 252.29C263.379 252.336 263.304 252.406 263.254 252.476C263.228 252.523 263.18 252.545 263.154 252.592L263.129 252.615C263.105 252.639 263.104 252.662 263.079 252.686C262.979 252.802 262.903 252.943 262.826 253.084C262.801 253.107 262.8 253.131 262.776 253.154C262.751 253.177 262.75 253.201 262.724 253.248C262.699 253.295 262.673 253.366 262.647 253.413C262.622 253.46 262.597 253.484 262.595 253.531C262.57 253.578 262.568 253.626 262.543 253.673C262.517 253.72 262.515 253.768 262.49 253.815C262.489 253.839 262.464 253.862 262.463 253.91C262.436 254.005 262.409 254.1 262.382 254.194C262.381 254.218 262.381 254.218 262.38 254.242C262.352 254.361 262.324 254.48 262.321 254.599C262.32 254.623 262.319 254.647 262.318 254.671C262.317 254.719 262.315 254.766 262.314 254.814C262.312 254.862 262.31 254.934 262.308 254.982C262.306 255.053 262.303 255.149 262.3 255.221C262.294 255.412 262.324 255.987 262.344 256.849C262.343 256.873 262.343 256.873 262.343 256.897C262.34 256.992 262.336 257.088 262.357 257.184C262.351 257.375 262.369 257.567 262.362 257.783C262.366 258.405 262.391 259.123 262.413 259.938C262.426 260.273 262.439 260.632 262.427 260.991C262.439 261.374 262.45 261.757 262.461 262.164C262.477 263.17 262.515 264.224 262.528 265.324C262.551 266.833 262.597 268.389 262.643 269.97C262.677 271.143 262.687 272.316 262.723 273.442C262.719 273.561 262.74 273.657 262.736 273.777C262.749 274.112 262.762 274.472 262.751 274.806C262.747 274.926 262.767 275.046 262.764 275.166C262.78 275.405 262.771 275.668 262.788 275.908C262.803 276.172 262.795 276.435 262.81 276.698C262.806 276.842 262.826 276.962 262.821 277.105C262.815 277.297 262.832 277.512 262.826 277.704C262.839 278.039 262.853 278.351 262.843 278.661C262.841 278.733 262.839 278.781 262.837 278.852C262.851 279.164 262.842 279.451 262.856 279.762C262.853 279.858 262.85 279.953 262.871 280.05C262.886 280.313 262.878 280.553 262.895 280.792C262.892 280.888 262.888 281.007 262.909 281.104C262.903 281.271 262.923 281.415 262.918 281.559C262.911 281.774 262.929 281.966 262.922 282.181L262.921 282.205C262.937 282.468 262.928 282.731 262.945 282.971C262.954 283.426 262.966 283.809 262.979 284.145C262.976 284.24 262.974 284.312 262.995 284.408C262.993 284.456 262.992 284.504 262.99 284.552C262.985 284.695 263.006 284.815 263.002 284.935C263.016 285.246 263.009 285.461 263.029 285.582C263.027 285.653 263.026 285.677 263.025 285.701C263.022 285.797 263.019 285.892 263.04 285.989C263.039 286.013 263.038 286.037 263.038 286.061C263.036 286.108 263.058 286.181 263.056 286.229C263.078 286.301 263.076 286.373 263.097 286.445C263.12 286.494 263.118 286.542 263.14 286.614C263.162 286.687 263.184 286.735 263.206 286.808C263.228 286.856 263.251 286.905 263.273 286.953C263.296 287.002 263.317 287.074 263.364 287.124C263.386 287.172 263.409 287.197 263.432 287.246C263.454 287.294 263.501 287.344 263.547 287.393C263.571 287.418 263.593 287.466 263.64 287.492C263.687 287.541 263.734 287.566 263.78 287.616C263.804 287.64 263.827 287.665 263.874 287.69C263.922 287.692 263.993 287.742 264.04 287.768Z" fill="#121212"/>
<path d="M259.327 258.761C259.331 258.618 259.312 258.474 259.317 258.33C259.313 257.708 259.309 257.086 259.329 256.465C259.332 256.369 259.336 256.25 259.339 256.154C259.355 255.652 259.396 255.127 259.46 254.627C259.465 254.483 259.494 254.317 259.499 254.173C259.565 253.601 259.656 253.006 259.747 252.435C259.774 252.34 259.776 252.268 259.803 252.173C259.892 251.65 260.005 251.127 260.141 250.629C260.169 250.51 260.197 250.392 260.225 250.273C260.363 249.703 260.525 249.158 260.712 248.59C260.74 248.471 260.792 248.329 260.844 248.211C261.003 247.762 261.162 247.288 261.345 246.84C261.397 246.698 261.449 246.58 261.502 246.438C261.712 245.894 261.945 245.376 262.202 244.858C262.226 244.834 262.227 244.811 262.229 244.763C262.486 244.245 262.743 243.727 263.023 243.233C263.38 242.599 263.761 241.965 264.164 241.38C264.215 241.286 264.29 241.192 264.365 241.123C264.717 240.632 265.069 240.141 265.444 239.674C265.72 239.324 265.995 238.998 266.293 238.697C266.343 238.627 266.418 238.557 266.468 238.487C266.841 238.092 267.238 237.722 267.634 237.352C267.733 237.26 267.856 237.168 267.955 237.076C268.252 236.822 268.548 236.568 268.868 236.339C268.991 236.248 269.139 236.133 269.286 236.042C269.704 235.744 270.098 235.47 270.538 235.221C270.905 235.017 271.247 234.837 271.613 234.681C271.734 234.637 271.856 234.593 271.978 234.525C272.221 234.438 272.465 234.326 272.685 234.237C272.83 234.194 272.952 234.15 273.097 234.107C273.316 234.042 273.534 233.977 273.752 233.913C273.898 233.87 274.043 233.85 274.188 233.831C274.405 233.79 274.599 233.749 274.816 233.708C274.985 233.689 275.154 233.671 275.323 233.652C275.467 233.633 275.612 233.614 275.78 233.619C275.949 233.601 276.141 233.607 276.309 233.612C276.453 233.617 276.597 233.622 276.741 233.626C276.957 233.633 277.149 233.663 277.341 233.669C277.437 233.672 277.533 233.676 277.628 233.703C277.939 233.737 278.226 233.794 278.512 233.851L272.263 232.405C271.976 232.348 271.666 232.29 271.379 232.257C271.283 232.254 271.187 232.227 271.091 232.224C270.923 232.219 270.78 232.19 270.612 232.185C270.564 232.183 270.516 232.182 270.468 232.18C270.324 232.175 270.18 232.171 270.036 232.166C269.868 232.161 269.675 232.178 269.507 232.173C269.362 232.192 269.218 232.188 269.049 232.206C268.928 232.226 268.832 232.223 268.712 232.243C268.664 232.241 268.591 232.263 268.542 232.285C268.324 232.326 268.132 232.344 267.913 232.409C267.768 232.428 267.623 232.471 267.477 232.514C267.259 232.579 267.041 232.644 266.822 232.709C266.701 232.753 266.604 232.773 266.483 232.793C266.459 232.793 266.434 232.816 266.41 232.815C266.167 232.903 265.924 232.991 265.704 233.103C265.583 233.147 265.461 233.191 265.339 233.259C264.973 233.415 264.631 233.595 264.264 233.799C263.946 233.98 263.627 234.185 263.308 234.39C263.209 234.458 263.11 234.551 263.012 234.62C262.865 234.711 262.741 234.826 262.594 234.917C262.274 235.146 261.978 235.4 261.681 235.653C261.582 235.746 261.459 235.838 261.36 235.93C260.963 236.3 260.567 236.67 260.194 237.065C260.119 237.134 260.069 237.204 260.019 237.275C259.794 237.531 259.546 237.786 259.32 238.066C259.27 238.136 259.22 238.206 259.17 238.252C258.795 238.719 258.443 239.21 258.09 239.701C258.039 239.795 257.965 239.864 257.89 239.957C257.486 240.567 257.106 241.176 256.749 241.811C256.723 241.858 256.698 241.905 256.672 241.952C256.417 242.398 256.186 242.869 255.954 243.364C255.929 243.387 255.928 243.411 255.927 243.459C255.72 243.907 255.513 244.355 255.331 244.804C255.304 244.875 255.277 244.969 255.227 245.04C255.174 245.182 255.122 245.299 255.07 245.441C254.887 245.89 254.729 246.34 254.569 246.813C254.517 246.931 254.489 247.05 254.437 247.191C254.41 247.262 254.385 247.309 254.383 247.381C254.222 247.878 254.086 248.376 253.974 248.875C253.946 248.994 253.918 249.113 253.89 249.231C253.835 249.445 253.78 249.682 253.725 249.896C253.668 250.181 253.61 250.49 253.552 250.776C253.525 250.871 253.523 250.942 253.496 251.037C253.408 251.513 253.346 251.965 253.282 252.442C253.279 252.561 253.251 252.656 253.248 252.776C253.219 252.918 253.214 253.086 253.209 253.229C253.145 253.729 253.104 254.254 253.088 254.756C253.085 254.852 253.081 254.971 253.078 255.067C253.076 255.115 253.075 255.139 253.074 255.187C253.055 255.76 253.061 256.335 253.066 256.909C253.062 257.052 253.081 257.197 253.077 257.34C253.089 257.699 253.102 258.059 253.137 258.442C253.157 258.563 253.154 258.682 253.173 258.826C253.192 258.971 253.212 259.091 253.208 259.234C253.285 259.835 253.362 260.412 253.464 260.989C253.853 263.083 254.511 265.018 255.371 266.697C255.643 267.184 256.018 267.483 256.448 267.569L262.697 269.014C262.268 268.905 261.893 268.63 261.62 268.142C260.738 266.439 260.102 264.529 259.713 262.435C259.612 261.857 259.535 261.256 259.457 260.68C259.438 260.536 259.418 260.415 259.422 260.272C259.367 259.744 259.335 259.264 259.327 258.761Z" fill="#141414"/>
<path d="M287.742 244.245C290.424 254.236 286.367 266.786 278.667 272.328C278.569 272.397 276.874 273.538 276.454 273.884C274.431 275.517 273.13 278.61 273.225 281.627C273.243 281.819 273.337 285.603 273.349 285.986C273.351 287.398 272.735 288.622 271.853 289.144C271.706 289.235 271.56 289.302 271.39 289.344L271.269 289.388C270.179 289.664 269.298 288.655 269.298 287.147C269.258 286.907 268.596 258.223 268.572 256.715C268.543 255.374 269.186 254.079 270.092 253.557C270.238 253.49 270.36 253.423 270.506 253.379C271.622 253.056 272.551 254.043 272.598 255.576L272.824 267.953L272.939 270.373L272.98 270.59C273.003 270.614 273.051 270.616 273.1 270.594C273.522 270.177 273.868 269.877 274.213 269.601C275.199 268.843 277.065 267.587 277.164 267.519C282.419 264.003 285.566 255.826 284.403 248.683C283.159 241.034 277.487 237.335 271.716 240.427C271.618 240.495 271.496 240.539 271.398 240.608C265.815 243.826 262.346 252.327 263.57 259.831C263.829 261.49 264.308 263.037 265.035 264.329C265.598 265.495 265.349 267.258 264.425 268.352C264.251 268.538 264.053 268.699 263.857 268.813C263.025 269.288 262.119 269.068 261.596 268.142C260.714 266.438 260.078 264.528 259.689 262.434C257.767 251.964 262.58 239.821 270.466 235.219C277.831 231.125 285.275 235.026 287.742 244.245Z" fill="#403E41"/>
</g>
<defs>
<linearGradient id="paint0_linear" x1="300" y1="236.5" x2="345.9" y2="337.036" gradientUnits="userSpaceOnUse">
<stop stop-color="#F4FF96" stop-opacity="0"/>
<stop offset="1" stop-color="#FFFA7B"/>
</linearGradient>
<clipPath id="clip0">
<rect width="640" height="780" fill="white"/>
</clipPath>
</defs>
</svg>
