<svg width="984" height="488" viewBox="0 0 984 488" fill="none" xmlns="http://www.w3.org/2000/svg">
<path d="M-7.9408e-05 3.60463e-05C-9.07228e-05 129.426 51.8355 253.55 144.103 345.068C236.371 436.586 361.513 488 492 488C622.486 488 747.629 436.586 839.896 345.068C932.164 253.55 984 129.426 984 0.000183105L697.159 0.000127511C697.159 53.9692 675.544 105.728 637.069 143.89C598.594 182.052 546.411 203.491 492 203.491C437.589 203.491 385.406 182.052 346.931 143.89C308.456 105.728 286.841 53.9691 286.841 6.11228e-05L-7.9408e-05 3.60463e-05Z" fill="#FAFAFA"/>
</svg>