<svg width="357" height="435" viewBox="0 0 357 435" fill="none" xmlns="http://www.w3.org/2000/svg">
<path d="M159.316 322.114C201.339 322.114 241.64 305.146 271.354 274.942C301.068 244.738 317.762 203.772 317.762 161.057C317.762 118.342 301.068 77.3766 271.354 47.1725C241.64 16.9685 201.339 7.83811e-06 159.316 1.88944e-06L159.316 93.898C176.839 93.898 193.644 100.974 206.035 113.568C218.425 126.163 225.386 143.245 225.386 161.057C225.386 178.869 218.425 195.951 206.035 208.546C193.644 221.14 176.839 228.216 159.316 228.216L159.316 322.114Z" fill="url(#paint0_linear)"/>
<path d="M159.316 434.419C117.063 434.419 76.5401 417.45 46.6626 387.246C16.785 357.042 7.60071e-07 316.077 -1.92059e-06 273.362C-4.60124e-06 230.647 16.785 189.681 46.6625 159.477C76.5401 129.273 117.063 112.305 159.316 112.305L159.316 206.203C141.697 206.203 124.799 213.278 112.341 225.873C99.8821 238.468 92.8829 255.55 92.8829 273.362C92.8829 291.173 99.8821 308.256 112.341 320.85C124.799 333.445 141.697 340.521 159.316 340.521L159.316 434.419Z" fill="url(#paint1_linear)"/>
<path fill-rule="evenodd" clip-rule="evenodd" d="M54.8455 87.9284C50.999 87.9284 47.8809 84.8102 47.8809 80.9638C47.8809 77.1173 50.999 73.9991 54.8455 73.9991C58.6919 73.9991 61.8101 77.1173 61.8101 80.9638C61.8101 84.8102 58.6919 87.9284 54.8455 87.9284ZM326.69 194.588C310.219 194.588 296.866 181.235 296.866 164.764C296.866 148.292 310.219 134.94 326.69 134.94C343.162 134.94 356.515 148.292 356.515 164.764C356.515 181.235 343.162 194.588 326.69 194.588ZM279.455 324.291C279.455 331.262 285.106 336.914 292.078 336.914C299.05 336.914 304.702 331.262 304.702 324.291C304.702 317.319 299.05 311.667 292.078 311.667C285.106 311.667 279.455 317.319 279.455 324.291ZM101.421 292.514C91.5649 292.514 83.5746 284.524 83.5746 274.668C83.5746 264.811 91.5649 256.821 101.421 256.821C111.278 256.821 119.268 264.811 119.268 274.668C119.268 284.524 111.278 292.514 101.421 292.514Z" fill="url(#paint2_linear)"/>
<defs>
<linearGradient id="paint0_linear" x1="317.762" y1="0" x2="263.048" y2="338.863" gradientUnits="userSpaceOnUse">
<stop stop-color="#FF8212"/>
<stop offset="1" stop-color="#ED4454"/>
</linearGradient>
<linearGradient id="paint1_linear" x1="0" y1="112.305" x2="54.4293" y2="451.261" gradientUnits="userSpaceOnUse">
<stop stop-color="#FF8212"/>
<stop offset="1" stop-color="#ED4454"/>
</linearGradient>
<linearGradient id="paint2_linear" x1="47.8809" y1="73.9991" x2="403.894" y2="185.12" gradientUnits="userSpaceOnUse">
<stop offset="0.197917" stop-color="#ED4454"/>
<stop offset="0.92032" stop-color="#FBCD2A"/>
</linearGradient>
</defs>
</svg>