<svg width="28" height="28" viewBox="0 0 28 28" fill="none" xmlns="http://www.w3.org/2000/svg">
<circle cx="14" cy="14" r="14" fill="url(#paint0_linear)"/>
<path fill-rule="evenodd" clip-rule="evenodd" d="M12.0819 8.15284C12.1318 7.67511 12.3202 7.14481 12.5355 6.64999C12.6332 6.42546 12.7325 6.21675 12.8224 6.02823L14.0391 6.85001L14.4535 7.12987L14.7333 6.71553L15.5253 5.54301C15.8129 5.9839 16.1034 6.71813 15.9999 7.70862C15.9296 8.3816 15.6636 9.16175 15.2234 9.83661C14.8261 10.4456 14.3084 10.9819 13.8851 11.3912C13.8108 11.3145 13.7342 11.2383 13.6597 11.1642L13.6596 11.1641L13.6243 11.129C13.3726 10.8785 13.102 10.608 12.8533 10.3013C12.3557 9.68763 11.9946 8.98844 12.0819 8.15284ZM12.1408 5.11071C12.1081 5.20036 12.0425 5.34065 11.9432 5.54885L11.9269 5.58298L11.9269 5.58299C11.8357 5.77415 11.7264 6.00308 11.6185 6.25107C11.3926 6.77035 11.1536 7.41469 11.0873 8.04894C10.9604 9.26375 11.503 10.2237 12.0765 10.9311C12.3633 11.2848 12.6702 11.5903 12.9189 11.8378C13.187 12.1047 13.3508 12.2709 13.4287 12.3903L13.7561 12.892L14.1912 12.4801L14.279 12.3972L14.279 12.3972C14.7265 11.9752 15.4947 11.251 16.0609 10.383C16.5855 9.57883 16.9072 8.64763 16.9945 7.81252C17.185 5.98927 16.3199 4.76121 15.7837 4.33564L15.3607 4L15.0585 4.44744L14.1845 5.74147L12.8905 4.86744L12.3599 4.50906L12.1408 5.11071ZM20.1339 10.3491C19.5953 10.3161 19.0326 10.3204 18.5666 10.4369C17.7515 10.6407 17.218 11.2191 16.8116 11.8965C16.6084 12.2352 16.4467 12.5819 16.2974 12.9042L16.2765 12.9493L16.2765 12.9493L16.2765 12.9494L16.2765 12.9494L16.2764 12.9494C16.2323 13.0448 16.1869 13.1429 16.1402 13.2389C16.6696 13.4967 17.3507 13.7997 18.0588 13.9648C18.8435 14.1477 19.6676 14.1308 20.324 13.9667C21.2902 13.7251 21.8808 13.201 22.1967 12.78L20.824 12.4368L20.339 12.3155L20.4602 11.8305L20.8163 10.4061C20.6084 10.386 20.3783 10.3641 20.1339 10.3491ZM20.9661 9.41589C21.1957 9.438 21.35 9.45172 21.4454 9.45173L22.0857 9.45182L21.9304 10.073L21.5517 11.5879L23.0666 11.9667L23.5904 12.0976L23.4197 12.6098C23.2032 13.2593 22.345 14.4922 20.5666 14.9368C19.752 15.1404 18.7669 15.1566 17.8318 14.9387C16.8225 14.7035 15.8793 14.2294 15.3296 13.9531L15.3296 13.9531L15.3296 13.9531L15.2217 13.8989L14.6858 13.631L15.0453 13.1517C15.1308 13.0377 15.231 12.827 15.3901 12.4837C15.5376 12.1653 15.7198 11.7725 15.9541 11.382C16.4226 10.6011 17.1391 9.76298 18.324 9.46675C18.9427 9.31208 19.6299 9.31632 20.1952 9.351C20.4651 9.36756 20.7176 9.39192 20.9284 9.41226L20.9661 9.41589ZM19.0394 19.4143C18.8862 18.8969 18.6897 18.3696 18.4208 17.9715C17.9506 17.2753 17.2245 16.9718 16.449 16.8216C16.0613 16.7465 15.6801 16.7132 15.3263 16.6831L15.2767 16.6789C15.1719 16.67 15.0642 16.6609 14.9579 16.6498C14.8968 17.2354 14.8449 17.9791 14.932 18.701C15.0286 19.5009 15.3263 20.2695 15.705 20.8303C16.2624 21.6555 16.9569 22.0312 17.4606 22.1841L17.3136 20.7769L17.2617 20.2796L17.759 20.2276L19.2192 20.0751C19.167 19.8728 19.1089 19.6491 19.0394 19.4143ZM20.2009 19.8771C20.2587 20.1004 20.2986 20.2501 20.3312 20.3398L20.5501 20.9415L19.9133 21.008L18.3602 21.1702L18.5224 22.7234L18.5785 23.2604L18.0388 23.2751C17.3544 23.2938 15.9024 22.9091 14.8763 21.39C14.4064 20.6942 14.0543 19.774 13.9392 18.8208C13.8151 17.7919 13.938 16.7433 14.0096 16.1324L14.0236 16.0125L14.0921 15.4173L14.6654 15.5911C14.8018 15.6325 15.034 15.6546 15.411 15.6867C15.7607 15.7164 16.1921 15.7532 16.6392 15.8398C17.5332 16.013 18.5659 16.3996 19.2495 17.4118C19.6065 17.9403 19.8375 18.5875 19.9983 19.1305C20.075 19.3897 20.1384 19.6352 20.1914 19.8402L20.1914 19.8403L20.1915 19.8405L20.2009 19.8771ZM11.5898 20.1269C11.3077 20.5157 10.8794 20.8808 10.4456 21.2017C10.2487 21.3473 10.0584 21.4784 9.88622 21.5967L9.24343 20.2766L9.02453 19.8271L8.57499 20.046L7.30288 20.6655C7.27425 20.1398 7.38979 19.3587 7.97464 18.5527C8.37202 18.005 8.99242 17.4623 9.71113 17.098C10.3597 16.7693 11.0762 16.5637 11.6474 16.4208C11.6734 16.5244 11.7016 16.6286 11.7291 16.73L11.7292 16.7302L11.7292 16.7303L11.7422 16.7783C11.8349 17.1212 11.934 17.4907 11.996 17.8807C12.1201 18.6609 12.0832 19.4469 11.5898 20.1269ZM10.0178 22.7321C10.0909 22.6708 10.2179 22.5821 10.408 22.4514L10.4392 22.43C10.6137 22.3101 10.8228 22.1664 11.0402 22.0056C11.4955 21.6689 12.0247 21.2304 12.3992 20.7142C13.1165 19.7256 13.1266 18.623 12.9836 17.7236C12.9121 17.2739 12.7991 16.8559 12.7075 16.5172C12.6087 16.152 12.55 15.9262 12.5422 15.7838L12.5095 15.1856L11.9268 15.3248L11.8093 15.3527C11.2107 15.4944 10.1834 15.7375 9.25899 16.2061C8.40259 16.6402 7.65836 17.2858 7.16525 17.9654C6.08868 19.4491 6.22378 20.9452 6.47541 21.5819L6.67387 22.084L7.15931 21.8476L8.56326 21.164L9.24691 22.5679L9.52724 23.1436L10.0178 22.7321ZM6.13891 13.9148C6.58883 14.2127 7.07836 14.4904 7.54017 14.6225C8.34791 14.8536 9.09919 14.6193 9.78988 14.2359C10.1352 14.0443 10.4485 13.8248 10.739 13.6204L10.7796 13.5917L10.7797 13.5917L10.7798 13.5916C10.8657 13.5311 10.954 13.4689 11.0425 13.4091C10.7129 12.9212 10.2746 12.3181 9.74386 11.8211C9.15571 11.2704 8.43359 10.873 7.78304 10.6869C6.82557 10.413 6.05205 10.5716 5.56791 10.7783L6.5851 11.7618L6.94455 12.1093L6.59699 12.4688L5.57642 13.5243C5.74646 13.6456 5.93475 13.7796 6.13891 13.9148ZM4.95164 14.307C4.76384 14.173 4.63709 14.084 4.55447 14.0363L4 13.716L4.44508 13.2557L5.53054 12.1331L4.40794 11.0477L4.01977 10.6724L4.42376 10.3141C4.93598 9.85991 6.2956 9.22129 8.05807 9.72546C8.86535 9.95639 9.72653 10.4349 10.4274 11.0912C11.1838 11.7996 11.7637 12.6818 12.1016 13.1959L12.1679 13.2967L12.498 13.7967L11.9471 14.032C11.816 14.088 11.6239 14.2204 11.3145 14.4382C11.0275 14.6401 10.6734 14.8892 10.2752 15.1102C9.47901 15.5522 8.43945 15.9199 7.26514 15.5839C6.65203 15.4085 6.05898 15.0613 5.58681 14.7486C5.36136 14.5993 5.15489 14.452 4.98249 14.329L4.98244 14.3289L4.98243 14.3289L4.95164 14.307Z" fill="white"/>
<defs>
<linearGradient id="paint0_linear" x1="0" y1="0" x2="30.0344" y2="2.38537" gradientUnits="userSpaceOnUse">
<stop stop-color="#FF8212"/>
<stop offset="1" stop-color="#ED4454"/>
</linearGradient>
</defs>
</svg>
