<svg width="28" height="28" viewBox="0 0 28 28" fill="none" xmlns="http://www.w3.org/2000/svg">
<circle cx="14" cy="14" r="14" fill="url(#paint0_linear)"/>
<g clip-path="url(#clip0)">
<path d="M7.3909 13.4599C7.88506 13.778 8.75777 14.1804 9.70101 14.5201C8.53622 15.1908 7.54979 15.8281 7.26551 16.0604C6.38265 16.7821 5.53892 18.9412 6.48556 20.0993C7.42563 21.2492 9.70456 20.8691 10.5988 20.1381C10.7918 19.9805 11.2239 19.5488 11.7418 18.9946L11.6175 19.7406C11.4283 20.8761 11.9989 21.9879 13.0373 22.5072L13.9879 22.9824L14.9384 22.5072C15.9768 21.9879 16.5474 20.8761 16.3583 19.7406L16.2212 18.9182C16.7695 19.5082 17.2304 19.9703 17.4359 20.1383C18.3263 20.8661 20.6044 21.2551 21.5492 20.0993C21.9893 19.5609 22.087 18.759 21.8244 17.8415C21.616 17.1132 21.2018 16.4141 20.7691 16.0605C20.4847 15.828 19.4963 15.1895 18.3297 14.5179C19.2574 14.1808 20.1181 13.7812 20.6171 13.4599C21.9673 12.5904 23.5994 10.3091 22.7337 8.96467C21.8662 7.61767 19.0769 8.1648 17.7303 9.03203C17.4111 9.23767 16.965 9.60031 16.486 10.0473C16.5705 9.4974 16.6211 9.01886 16.6211 8.72184C16.6211 7.32859 15.5308 5 13.9878 5C12.4357 5 11.3545 7.34509 11.3545 8.72184C11.3545 9.01778 11.4036 9.4875 11.4863 10.0293C11.0105 9.59578 10.5661 9.24045 10.2425 9.03189C8.8958 8.16456 6.10663 7.61764 5.23929 8.96453C4.3715 10.3121 6.04295 12.5917 7.3909 13.4599ZM9.93218 19.3226C9.37971 19.7743 7.77861 20.0167 7.30106 19.4327C6.81918 18.8431 7.38858 17.3204 7.93213 16.876C8.21149 16.6477 9.5948 15.7635 11.0841 14.9524C11.1753 14.9763 11.2656 14.9985 11.355 15.0196C11.355 15.027 11.3545 15.0343 11.3545 15.0419C11.3545 15.7325 11.6212 16.3843 12.0953 16.8733L12.0639 17.0621C11.0561 18.2262 10.147 19.147 9.93218 19.3226ZM14.5146 21.5402V18.7286H13.4612V21.5403C12.869 21.2196 12.5467 20.5729 12.6564 19.9138L13.2317 16.4629C13.1442 16.3629 12.4079 15.9768 12.4079 15.0419C12.4079 14.1707 13.1168 13.4619 13.9879 13.4619C14.8591 13.4619 15.5679 14.1707 15.5679 15.0419C15.5679 15.977 14.8316 16.363 14.7441 16.4629L15.3193 19.9138C15.4292 20.5729 15.1069 21.2196 14.5146 21.5402ZM20.1026 16.876C20.6153 17.2951 21.2317 18.8234 20.7337 19.4327C20.2358 20.0418 18.6154 19.7417 18.1026 19.3226C17.8774 19.1387 16.9345 18.1814 15.8978 16.9774L15.8804 16.8733C16.3545 16.3843 16.6213 15.7325 16.6213 15.0419C16.6213 15.039 16.6211 15.0361 16.6211 15.0334C16.7312 15.0078 16.8408 14.9806 16.9501 14.952C18.4395 15.7632 19.8233 16.6477 20.1026 16.876ZM18.3008 9.91749C19.4129 9.20136 21.4638 8.93805 21.8481 9.53502C22.2382 10.1406 21.1435 11.868 20.0469 12.5743C19.4181 12.9792 17.7838 13.6805 16.4068 14.0019C16.3696 13.9161 16.3279 13.8322 16.2817 13.7508L21.248 10.5479L20.6771 9.66272L15.5827 12.9483C15.5242 12.9037 15.4639 12.8616 15.4019 12.822C16.2367 11.6688 17.6192 10.3565 18.3008 9.91749ZM13.9879 6.05324C14.7051 6.05324 15.5678 7.69231 15.5678 8.7218C15.5678 9.16002 15.4123 10.2807 15.1499 11.4421C14.8684 11.7728 14.6065 12.1103 14.3849 12.4384C14.2535 12.4185 14.1208 12.4085 13.9879 12.4085C13.8717 12.4085 13.7576 12.4169 13.6453 12.4315C13.4082 12.0849 13.1209 11.7248 12.8101 11.3718C12.5577 10.237 12.4078 9.14453 12.4078 8.7218C12.4078 7.69231 13.2706 6.05324 13.9879 6.05324ZM6.12486 9.53498C6.51341 8.93173 8.56998 9.20764 9.67217 9.91746C10.3797 10.3731 11.7803 11.6757 12.6126 12.7972C12.5461 12.838 12.4815 12.8817 12.419 12.9282L7.2935 9.66107L6.72744 10.5494L11.709 13.7248C11.6594 13.8104 11.6145 13.8987 11.5747 13.9893C10.1887 13.6592 8.57135 12.9672 7.96124 12.5743C6.8398 11.8521 5.74498 10.1248 6.12486 9.53498Z" fill="white"/>
</g>
<defs>
<linearGradient id="paint0_linear" x1="0" y1="0" x2="30.0344" y2="2.38537" gradientUnits="userSpaceOnUse">
<stop stop-color="#FF8212"/>
<stop offset="1" stop-color="#ED4454"/>
</linearGradient>
<clipPath id="clip0">
<rect width="18" height="18" fill="white" transform="translate(5 5)"/>
</clipPath>
</defs>
</svg>
