<svg width="28" height="28" viewBox="0 0 28 28" fill="none" xmlns="http://www.w3.org/2000/svg">
<path d="M14 28C21.732 28 28 21.732 28 14C28 6.26801 21.732 0 14 0C6.26801 0 0 6.26801 0 14C0 21.732 6.26801 28 14 28Z" fill="url(#paint0_linear)"/>
<g clip-path="url(#clip0)">
<path d="M14 28C21.732 28 28 21.732 28 14C28 6.26801 21.732 0 14 0C6.26801 0 0 6.26801 0 14C0 21.732 6.26801 28 14 28Z" fill="url(#paint1_linear)"/>
<path d="M15.4316 22.9105C16.6893 22.7819 18.6007 22.0755 19.795 21.0059C21.2158 19.7258 22 18.0214 22 16.2031C22 12.946 19.4316 6.66649 19.3237 6.40082L18.7482 5.00345L17.4496 5.83842C17.3885 5.87638 16.1259 6.6941 14.5 7.8879C12.8777 6.69754 11.6115 5.87982 11.5504 5.83842L10.2518 5L9.67626 6.39737C9.56836 6.66304 7 12.9426 7 16.1997C7 18.0179 7.78418 19.7258 9.20504 21.0025C10.2842 21.972 12.0058 22.6508 13.0899 22.845C14.1741 23.0391 14.1741 23.0391 15.4316 22.9105ZM18.0291 7.24524C18.9463 9.66827 20.5117 14.1578 20.5117 16.1744C20.5117 18.8101 17.543 21.4587 14.5 21.4587C11.5014 21.4208 8.66675 19.0379 8.66675 16.4402C8.66675 16.2617 7.96606 14.9512 14 10.3143L16.3792 8.44727C16.7833 8.16244 17.6976 7.4731 18.0291 7.24524ZM13.3015 8.77283C11.9568 9.60535 8.93298 13.0734 9.16321 12.1456C9.39343 11.2179 10.7258 8.09051 11 7.20679C11.3347 7.49048 12.8902 8.41473 13.3015 8.77283Z" fill="white"/>
</g>
<defs>
<linearGradient id="paint0_linear" x1="0" y1="0" x2="30.0344" y2="2.38537" gradientUnits="userSpaceOnUse">
<stop stop-color="#FF8212"/>
<stop offset="1" stop-color="#ED4454"/>
</linearGradient>
<linearGradient id="paint1_linear" x1="0" y1="0" x2="30.0344" y2="2.38537" gradientUnits="userSpaceOnUse">
<stop stop-color="#FF8212"/>
<stop offset="1" stop-color="#ED4454"/>
</linearGradient>
<clipPath id="clip0">
<rect width="15" height="18" fill="white" transform="translate(7 5)"/>
</clipPath>
</defs>
</svg>
