<svg width="28" height="28" viewBox="0 0 28 28" fill="none" xmlns="http://www.w3.org/2000/svg">
<path d="M14 28C21.732 28 28 21.732 28 14C28 6.26801 21.732 0 14 0C6.26801 0 0 6.26801 0 14C0 21.732 6.26801 28 14 28Z" fill="url(#paint0_linear)"/>
<path d="M15.211 22.081C16.8445 21.8296 18.3339 21.0017 19.4097 19.7472C20.4855 18.4928 21.0767 16.8945 21.0761 15.2419C21.0761 14.9647 21.0761 14.6803 21.0406 14.3888C20.881 12.5546 21.1262 10.7078 21.7586 8.9787C21.8104 8.817 21.8239 8.64547 21.798 8.47767C21.7721 8.30987 21.7075 8.15039 21.6093 8.01185C21.5105 7.87442 21.3802 7.76269 21.2293 7.686C21.0784 7.60931 20.9113 7.5699 20.742 7.57108C19.6448 7.59704 18.5583 7.79371 17.5216 8.15403C17.2369 7.37077 16.7165 6.69497 16.032 6.21967C15.3474 5.74436 14.5324 5.49291 13.6991 5.49964C12.8657 5.50694 12.055 5.77208 11.3786 6.25884C10.7021 6.74561 10.1932 7.43007 9.92183 8.21802C8.81901 7.82076 7.65982 7.60236 6.48807 7.57108C6.31656 7.56877 6.14706 7.60815 5.99412 7.68583C5.84119 7.7635 5.70941 7.87716 5.61011 8.01702C5.51081 8.15688 5.44696 8.31876 5.42404 8.48876C5.40113 8.65875 5.41984 8.83176 5.47857 8.99292C6.12062 10.7199 6.3778 12.5663 6.23214 14.403C6.23214 14.6945 6.23214 14.9789 6.1966 15.2703C6.20316 16.6496 6.62147 17.9954 7.3979 19.1354C8.17433 20.2753 9.27351 21.1574 10.5545 21.6686C11.338 22.0139 13.5776 22.3323 15.211 22.081ZM14 6.87196C14.4466 6.87369 15.1038 7.05723 15.4612 7.34633C15.8187 7.63542 16.1692 8.14417 16.2963 8.60646C15.5648 9.00952 14.4815 9.68762 13.8198 10.213C13.2174 9.71972 12.0754 8.99139 11.4088 8.60646C11.5268 8.12599 12.1025 7.52295 12.4668 7.21913C12.8312 6.91532 13.5397 6.87382 14 6.87196ZM8.90796 18.7741C8.04492 18.0911 7.68939 16.2924 7.68769 15.4176C7.68599 14.5428 7.68769 13.6388 7.68769 13.6388C7.82149 12.0863 7.32161 10.3871 6.94306 8.8755C8.43091 8.55275 11.7186 10.1461 12.8535 11.2257C10.7474 12.9085 8.74713 16.3272 8.90796 18.7741ZM12.4277 20.7326L11.0636 20.3361C11.0636 20.3361 10.0897 19.723 10.0496 19.6098C10.1278 13.8584 17.1082 8.45558 20.2921 8.99659C19.9018 10.5086 19.6098 12.8943 19.6639 13.5615C19.718 14.2287 19.7845 15.2984 19.7845 15.2984C19.7826 16.5649 19.1937 18.3173 18.4832 18.9451C17.7727 19.5729 16.9661 20.2445 16.0569 20.5217C15.4507 20.7066 14.7651 20.8166 14 20.8519C13.6417 20.8507 13.1176 20.8109 12.4277 20.7326Z" fill="white"/>
<defs>
<linearGradient id="paint0_linear" x1="0" y1="0" x2="30.0344" y2="2.38537" gradientUnits="userSpaceOnUse">
<stop stop-color="#FF8212"/>
<stop offset="1" stop-color="#ED4454"/>
</linearGradient>
</defs>
</svg>
