<svg width="465" height="162" viewBox="0 0 465 162" fill="none" xmlns="http://www.w3.org/2000/svg">
<path d="M156.183 5.74867C156.883 6.44872 158.018 6.44872 158.718 5.74867C159.418 5.04861 159.418 3.9136 158.718 3.21355C158.018 2.51349 156.883 2.51349 156.183 3.21355C155.483 3.9136 155.483 5.04861 156.183 5.74867Z" fill="url(#paint0_linear)"/>
<path d="M136.434 6.38258C137.485 7.43267 139.187 7.43267 140.237 6.38258C141.287 5.3325 141.287 3.62999 140.237 2.5799C139.187 1.52982 137.485 1.52982 136.434 2.5799C135.384 3.62998 135.384 5.3325 136.434 6.38258Z" fill="url(#paint1_linear)"/>
<path d="M121.744 7.02875C120.344 8.42886 118.073 8.42886 116.673 7.02875C115.273 5.62864 115.273 3.35861 116.673 1.9585C118.073 0.558393 120.344 0.558391 121.744 1.9585C123.144 3.35861 123.144 5.62864 121.744 7.02875Z" fill="url(#paint2_linear)"/>
<path d="M96.912 7.65041C98.6621 9.40056 101.5 9.40056 103.25 7.65042C105 5.90028 105 3.06275 103.25 1.3126C101.5 -0.437532 98.6621 -0.437532 96.912 1.31261C95.1619 3.06274 95.1619 5.90028 96.912 7.65041Z" fill="url(#paint3_linear)"/>
<path d="M65.0201 7.65041C63.2699 9.40055 60.4324 9.40055 58.6823 7.65042C56.9321 5.90028 56.9321 3.06274 58.6823 1.3126C60.4324 -0.437535 63.2699 -0.437535 65.0201 1.3126C66.7702 3.06274 66.7702 5.90028 65.0201 7.65041Z" fill="url(#paint4_linear)"/>
<path d="M40.1888 7.02875C41.5889 8.42886 43.8589 8.42886 45.259 7.02875C46.6591 5.62864 46.6591 3.35862 45.259 1.95851C43.8589 0.558396 41.5889 0.558393 40.1888 1.95851C38.7887 3.35862 38.7887 5.62864 40.1888 7.02875Z" fill="url(#paint5_linear)"/>
<path d="M25.4977 6.38258C24.4476 7.43267 22.7451 7.43266 21.695 6.38258C20.6449 5.3325 20.6449 3.62998 21.695 2.57989C22.7451 1.52981 24.4476 1.52981 25.4977 2.57989C26.5478 3.62998 26.5478 5.3325 25.4977 6.38258Z" fill="url(#paint6_linear)"/>
<path d="M3.2139 5.74866C3.91395 6.44872 5.04896 6.44872 5.74902 5.74866C6.44908 5.04861 6.44907 3.9136 5.74902 3.21354C5.04896 2.51349 3.91395 2.51348 3.2139 3.21354C2.51384 3.9136 2.51384 5.04861 3.2139 5.74866Z" fill="url(#paint7_linear)"/>
<path d="M158.718 158.717C158.018 159.417 156.883 159.417 156.183 158.717C155.483 158.017 155.483 156.882 156.183 156.182C156.883 155.482 158.018 155.482 158.718 156.182C159.418 156.882 159.418 158.017 158.718 158.717Z" fill="url(#paint8_linear)"/>
<path d="M136.435 159.351C137.485 160.401 139.187 160.401 140.237 159.351C141.287 158.301 141.287 156.598 140.237 155.548C139.187 154.498 137.485 154.498 136.435 155.548C135.385 156.598 135.385 158.301 136.435 159.351Z" fill="url(#paint9_linear)"/>
<path d="M121.744 159.997C120.344 161.397 118.074 161.397 116.674 159.997C115.273 158.597 115.273 156.327 116.674 154.927C118.074 153.527 120.344 153.527 121.744 154.927C123.144 156.327 123.144 158.597 121.744 159.997Z" fill="url(#paint10_linear)"/>
<path d="M96.9122 160.619C98.6624 162.369 101.5 162.369 103.25 160.619C105 158.869 105 156.031 103.25 154.281C101.5 152.531 98.6624 152.531 96.9122 154.281C95.1621 156.031 95.1621 158.869 96.9122 160.619Z" fill="url(#paint11_linear)"/>
<path d="M65.0203 160.619C63.2701 162.369 60.4326 162.369 58.6825 160.619C56.9323 158.869 56.9323 156.031 58.6825 154.281C60.4326 152.531 63.2701 152.531 65.0203 154.281C66.7704 156.031 66.7704 158.869 65.0203 160.619Z" fill="url(#paint12_linear)"/>
<path d="M40.189 159.997C41.5891 161.397 43.8591 161.397 45.2592 159.997C46.6594 158.597 46.6594 156.327 45.2592 154.927C43.8591 153.527 41.5891 153.527 40.189 154.927C38.7889 156.327 38.7889 158.597 40.189 159.997Z" fill="url(#paint13_linear)"/>
<path d="M25.4979 159.351C24.4478 160.401 22.7453 160.401 21.6952 159.351C20.6452 158.301 20.6451 156.598 21.6952 155.548C22.7453 154.498 24.4478 154.498 25.4979 155.548C26.548 156.598 26.548 158.301 25.4979 159.351Z" fill="url(#paint14_linear)"/>
<path d="M3.21412 158.717C3.91417 159.417 5.04919 159.417 5.74924 158.717C6.44929 158.017 6.4493 156.882 5.74924 156.182C5.04918 155.482 3.91417 155.482 3.21412 156.182C2.51407 156.882 2.51406 158.017 3.21412 158.717Z" fill="url(#paint15_linear)"/>
<path d="M84.135 7.65041C82.3848 9.40055 79.5473 9.40055 77.7972 7.65041C76.047 5.90028 76.047 3.06274 77.7972 1.3126C79.5473 -0.437532 82.3848 -0.437532 84.135 1.31261C85.8851 3.06274 85.8851 5.90028 84.135 7.65041Z" fill="url(#paint16_linear)"/>
<path d="M2.58006 25.4973C3.63014 26.5473 5.33266 26.5474 6.38275 25.4973C7.43283 24.4472 7.43283 22.7447 6.38274 21.6946C5.33266 20.6445 3.63014 20.6445 2.58006 21.6946C1.52997 22.7447 1.52998 24.4472 2.58006 25.4973Z" fill="url(#paint17_linear)"/>
<path d="M159.352 25.4973C158.302 26.5473 156.599 26.5473 155.549 25.4973C154.499 24.4472 154.499 22.7447 155.549 21.6946C156.599 20.6445 158.302 20.6445 159.352 21.6946C160.402 22.7447 160.402 24.4472 159.352 25.4973Z" fill="url(#paint18_linear)"/>
<path d="M1.94655 45.2704C3.34666 46.6705 5.61669 46.6705 7.0168 45.2704C8.41691 43.8703 8.41691 41.6002 7.0168 40.2001C5.61669 38.8 3.34666 38.8 1.94655 40.2001C0.54644 41.6002 0.546443 43.8703 1.94655 45.2704Z" fill="url(#paint19_linear)"/>
<path d="M65.7293 46.6153C63.5801 48.7645 60.0956 48.7645 57.9465 46.6153C55.7973 44.4662 55.7973 40.9817 57.9465 38.8325C60.0956 36.6833 63.5801 36.6833 65.7293 38.8325C67.8785 40.9817 67.8785 44.4662 65.7293 46.6153Z" fill="url(#paint20_linear)"/>
<path d="M76.6311 47.071C79.0253 49.4652 82.9071 49.4652 85.3012 47.071C87.6954 44.6768 87.6954 40.795 85.3012 38.4009C82.9071 36.0067 79.0253 36.0067 76.6311 38.4009C74.2369 40.795 74.2369 44.6768 76.6311 47.071Z" fill="url(#paint21_linear)"/>
<path d="M103.985 46.6136C101.836 48.7628 98.3517 48.7628 96.2025 46.6136C94.0533 44.4644 94.0533 40.9799 96.2025 38.8308C98.3517 36.6816 101.836 36.6816 103.985 38.8307C106.135 40.9799 106.135 44.4644 103.985 46.6136Z" fill="url(#paint22_linear)"/>
<path d="M135.332 45.7133C136.984 47.3654 139.663 47.3654 141.315 45.7133C142.967 44.0611 142.967 41.3825 141.315 39.7304C139.663 38.0783 136.984 38.0783 135.332 39.7304C133.68 41.3825 133.68 44.0611 135.332 45.7133Z" fill="url(#paint23_linear)"/>
<path d="M159.986 45.2704C158.586 46.6705 156.316 46.6705 154.916 45.2704C153.516 43.8703 153.516 41.6002 154.916 40.2001C156.316 38.8 158.586 38.8 159.986 40.2001C161.386 41.6002 161.386 43.8703 159.986 45.2704Z" fill="url(#paint24_linear)"/>
<path d="M1.31272 65.019C3.06286 66.7691 5.90039 66.7691 7.65053 65.019C9.40067 63.2688 9.40067 60.4313 7.65053 58.6812C5.90039 56.931 3.06286 56.931 1.31272 58.6812C-0.437415 60.4313 -0.437416 63.2688 1.31272 65.019Z" fill="url(#paint25_linear)"/>
<path d="M46.4757 65.5901C44.4035 67.6622 41.0439 67.6622 38.9718 65.5901C36.8996 63.5179 36.8996 60.1583 38.9718 58.0861C41.0439 56.0139 44.4036 56.0139 46.4757 58.0861C48.5479 60.1583 48.5479 63.5179 46.4757 65.5901Z" fill="url(#paint26_linear)"/>
<path d="M76.6311 66.1857C79.0252 68.5798 82.907 68.5798 85.3012 66.1857C87.6954 63.7915 87.6954 59.9097 85.3012 57.5155C82.907 55.1213 79.0253 55.1213 76.6311 57.5155C74.2369 59.9097 74.2369 63.7915 76.6311 66.1857Z" fill="url(#paint27_linear)"/>
<path d="M122.96 65.5901C120.888 67.6622 117.528 67.6622 115.456 65.5901C113.384 63.5179 113.384 60.1583 115.456 58.0861C117.528 56.0139 120.888 56.0139 122.96 58.0861C125.032 60.1583 125.032 63.5179 122.96 65.5901Z" fill="url(#paint28_linear)"/>
<path d="M134.875 65.3124C136.786 67.2236 139.885 67.2236 141.796 65.3124C143.707 63.4013 143.707 60.3027 141.796 58.3915C139.885 56.4804 136.786 56.4804 134.875 58.3915C132.964 60.3027 132.964 63.4013 134.875 65.3124Z" fill="url(#paint29_linear)"/>
<path d="M160.62 65.019C158.87 66.7691 156.032 66.7691 154.282 65.019C152.532 63.2688 152.532 60.4313 154.282 58.6812C156.032 56.931 158.87 56.931 160.62 58.6812C162.37 60.4313 162.37 63.2688 160.62 65.019Z" fill="url(#paint30_linear)"/>
<path d="M1.3126 103.248C3.06274 104.998 5.90028 104.998 7.65041 103.248C9.40055 101.498 9.40055 98.6607 7.65041 96.9105C5.90027 95.1604 3.06274 95.1604 1.3126 96.9105C-0.437534 98.6607 -0.437534 101.498 1.3126 103.248Z" fill="url(#paint31_linear)"/>
<path d="M46.3991 103.77C44.369 105.8 41.0774 105.8 39.0473 103.77C37.0171 101.74 37.0171 98.4481 39.0473 96.418C41.0774 94.3878 44.369 94.3878 46.3991 96.418C48.4293 98.4481 48.4293 101.74 46.3991 103.77Z" fill="url(#paint32_linear)"/>
<path d="M76.7829 104.263C79.0931 106.573 82.8386 106.573 85.1488 104.263C87.459 101.953 87.459 98.2076 85.1488 95.8974C82.8386 93.5872 79.0931 93.5872 76.7829 95.8974C74.4727 98.2076 74.4727 101.953 76.7829 104.263Z" fill="url(#paint33_linear)"/>
<path d="M104.023 104.023C101.852 106.193 98.3339 106.193 96.1637 104.023C93.9936 101.853 93.9936 98.334 96.1637 96.1638C98.3339 93.9936 101.852 93.9936 104.023 96.1638C106.193 98.334 106.193 101.853 104.023 104.023Z" fill="url(#paint34_linear)"/>
<path d="M115.532 103.77C117.562 105.8 120.854 105.8 122.884 103.77C124.914 101.74 124.914 98.4481 122.884 96.418C120.854 94.3878 117.562 94.3878 115.532 96.418C113.502 98.4481 113.502 101.74 115.532 103.77Z" fill="url(#paint35_linear)"/>
<path d="M141.746 103.515C139.856 105.405 136.791 105.405 134.901 103.515C133.011 101.625 133.011 98.5605 134.901 96.6704C136.791 94.7802 139.856 94.7802 141.746 96.6704C143.636 98.5605 143.636 101.625 141.746 103.515Z" fill="url(#paint36_linear)"/>
<path d="M154.282 103.248C156.032 104.998 158.869 104.998 160.62 103.248C162.37 101.498 162.37 98.6607 160.62 96.9105C158.869 95.1604 156.032 95.1604 154.282 96.9105C152.532 98.6607 152.532 101.498 154.282 103.248Z" fill="url(#paint37_linear)"/>
<path d="M7.65046 84.1337C5.90033 85.8838 3.0628 85.8838 1.31266 84.1337C-0.43748 82.3835 -0.43748 79.546 1.31266 77.7959C3.06279 76.0457 5.90033 76.0457 7.65046 77.7959C9.4006 79.546 9.4006 82.3835 7.65046 84.1337Z" fill="url(#paint38_linear)"/>
<path d="M38.82 84.881C40.9762 87.0371 44.472 87.0372 46.6282 84.881C48.7844 82.7248 48.7844 79.229 46.6282 77.0728C44.472 74.9166 40.9762 74.9166 38.82 77.0728C36.6639 79.229 36.6638 82.7248 38.82 84.881Z" fill="url(#paint39_linear)"/>
<path d="M66.1231 85.2362C63.7639 87.5954 59.9389 87.5954 57.5798 85.2362C55.2206 82.8771 55.2206 79.0521 57.5798 76.6929C59.9389 74.3337 63.7639 74.3337 66.1231 76.6929C68.4823 79.0521 68.4823 82.8771 66.1231 85.2362Z" fill="url(#paint40_linear)"/>
<path d="M95.8095 85.2362C98.1687 87.5954 101.994 87.5954 104.353 85.2363C106.712 82.8771 106.712 79.0521 104.353 76.6929C101.994 74.3337 98.1687 74.3337 95.8095 76.6929C93.4503 79.0521 93.4503 82.8771 95.8095 85.2362Z" fill="url(#paint41_linear)"/>
<path d="M123.113 84.8827C120.957 87.0389 117.461 87.0389 115.305 84.8827C113.148 82.7266 113.148 79.2307 115.305 77.0745C117.461 74.9184 120.957 74.9184 123.113 77.0746C125.269 79.2307 125.269 82.7266 123.113 84.8827Z" fill="url(#paint42_linear)"/>
<path d="M134.799 84.5012C136.753 86.4544 139.919 86.4544 141.872 84.5012C143.826 82.548 143.826 79.3814 141.872 77.4282C139.919 75.475 136.753 75.475 134.799 77.4282C132.846 79.3814 132.846 82.548 134.799 84.5012Z" fill="url(#paint43_linear)"/>
<path d="M160.62 84.1337C158.87 85.8838 156.032 85.8838 154.282 84.1337C152.532 82.3835 152.532 79.546 154.282 77.7959C156.032 76.0457 158.87 76.0457 160.62 77.7959C162.37 79.546 162.37 82.3835 160.62 84.1337Z" fill="url(#paint44_linear)"/>
<path d="M1.9466 121.755C3.34672 123.155 5.61674 123.155 7.01685 121.755C8.41696 120.355 8.41696 118.085 7.01685 116.685C5.61674 115.285 3.34672 115.285 1.9466 116.685C0.546493 118.085 0.546493 120.355 1.9466 121.755Z" fill="url(#paint45_linear)"/>
<path d="M65.54 122.908C63.4958 124.952 60.1816 124.952 58.1374 122.908C56.0933 120.864 56.0932 117.55 58.1374 115.505C60.1816 113.461 63.4958 113.461 65.54 115.505C67.5841 117.55 67.5841 120.864 65.54 122.908Z" fill="url(#paint46_linear)"/>
<path d="M76.8845 123.301C79.1386 125.556 82.7934 125.556 85.0476 123.301C87.3018 121.047 87.3017 117.392 85.0476 115.138C82.7934 112.884 79.1386 112.884 76.8845 115.138C74.6303 117.392 74.6303 121.047 76.8845 123.301Z" fill="url(#paint47_linear)"/>
<path d="M103.795 122.91C101.751 124.954 98.4364 124.954 96.3922 122.91C94.348 120.866 94.3481 117.551 96.3922 115.507C98.4364 113.463 101.751 113.463 103.795 115.507C105.839 117.551 105.839 120.866 103.795 122.91Z" fill="url(#paint48_linear)"/>
<path d="M115.899 122.517C117.726 124.344 120.689 124.344 122.516 122.517C124.343 120.69 124.343 117.727 122.516 115.9C120.689 114.073 117.726 114.073 115.899 115.9C114.072 117.727 114.072 120.69 115.899 122.517Z" fill="url(#paint49_linear)"/>
<path d="M141.251 122.136C139.634 123.753 137.012 123.753 135.395 122.136C133.778 120.519 133.778 117.897 135.395 116.28C137.012 114.663 139.634 114.663 141.251 116.28C142.868 117.897 142.868 120.519 141.251 122.136Z" fill="url(#paint50_linear)"/>
<path d="M154.916 121.755C156.316 123.155 158.586 123.155 159.986 121.755C161.386 120.355 161.386 118.085 159.986 116.685C158.586 115.285 156.316 115.285 154.916 116.685C153.516 118.085 153.516 120.355 154.916 121.755Z" fill="url(#paint51_linear)"/>
<path d="M6.38307 140.236C5.33299 141.286 3.63048 141.286 2.58039 140.236C1.53031 139.186 1.5303 137.484 2.58039 136.433C3.63048 135.383 5.33299 135.383 6.38307 136.433C7.43316 137.484 7.43316 139.186 6.38307 140.236Z" fill="url(#paint52_linear)"/>
<path d="M21.0868 26.1299C22.4799 27.523 24.7386 27.523 26.1317 26.1299C27.5248 24.7368 27.5248 22.4781 26.1317 21.085C24.7386 19.6919 22.4799 19.6919 21.0868 21.085C19.6937 22.4781 19.6937 24.7368 21.0868 26.1299Z" fill="url(#paint53_linear)"/>
<path d="M45.8668 26.7521C44.1307 28.4882 41.3158 28.4882 39.5797 26.7521C37.8436 25.0159 37.8436 22.2011 39.5797 20.465C41.3158 18.7288 44.1307 18.7288 45.8668 20.465C47.6029 22.2011 47.6029 25.0159 45.8668 26.7521Z" fill="url(#paint54_linear)"/>
<path d="M58.0608 27.386C60.1469 29.4721 63.5293 29.4721 65.6154 27.386C67.7016 25.2998 67.7016 21.9175 65.6154 19.8313C63.5293 17.7451 60.1469 17.7451 58.0608 19.8313C55.9746 21.9175 55.9746 25.2998 58.0608 27.386Z" fill="url(#paint55_linear)"/>
<path d="M85.3641 27.9941C82.9349 30.4233 78.9964 30.4233 76.5672 27.9941C74.138 25.5649 74.138 21.6264 76.5672 19.1972C78.9964 16.7681 82.9349 16.7681 85.3641 19.1972C87.7933 21.6264 87.7933 25.5649 85.3641 27.9941Z" fill="url(#paint56_linear)"/>
<path d="M96.3156 27.386C98.4017 29.4721 101.784 29.4722 103.87 27.386C105.956 25.2998 105.956 21.9175 103.87 19.8313C101.784 17.7451 98.4017 17.7451 96.3156 19.8313C94.2294 21.9175 94.2294 25.2998 96.3156 27.386Z" fill="url(#paint57_linear)"/>
<path d="M122.351 26.7521C120.615 28.4882 117.8 28.4882 116.064 26.7521C114.328 25.0159 114.328 22.2011 116.064 20.465C117.8 18.7288 120.615 18.7288 122.351 20.465C124.087 22.2011 124.087 25.0159 122.351 26.7521Z" fill="url(#paint58_linear)"/>
<path d="M135.801 26.1299C137.194 27.523 139.453 27.523 140.846 26.1299C142.239 24.7368 142.239 22.4781 140.846 21.085C139.453 19.6919 137.194 19.6919 135.801 21.085C134.408 22.4781 134.408 24.7368 135.801 26.1299Z" fill="url(#paint59_linear)"/>
<path d="M26.6008 45.7133C24.9487 47.3654 22.2701 47.3654 20.6179 45.7133C18.9658 44.0611 18.9658 41.3825 20.6179 39.7304C22.2701 38.0783 24.9487 38.0783 26.6008 39.7304C28.253 41.3825 28.253 44.0611 26.6008 45.7133Z" fill="url(#paint60_linear)"/>
<path d="M39.2886 46.1584C41.1858 48.0556 44.2617 48.0556 46.1588 46.1584C48.056 44.2613 48.056 41.1854 46.1588 39.2882C44.2617 37.3911 41.1858 37.3911 39.2886 39.2882C37.3915 41.1854 37.3915 44.2613 39.2886 46.1584Z" fill="url(#paint61_linear)"/>
<path d="M122.643 46.1584C120.746 48.0556 117.67 48.0556 115.773 46.1584C113.876 44.2613 113.876 41.1854 115.773 39.2882C117.67 37.3911 120.746 37.3911 122.643 39.2882C124.541 41.1854 124.541 44.2613 122.643 46.1584Z" fill="url(#paint62_linear)"/>
<path d="M20.1354 65.3107C22.0466 67.2218 25.1452 67.2218 27.0563 65.3107C28.9675 63.3995 28.9675 60.3009 27.0563 58.3898C25.1452 56.4786 22.0466 56.4786 20.1354 58.3898C18.2243 60.3009 18.2243 63.3995 20.1354 65.3107Z" fill="url(#paint63_linear)"/>
<path d="M65.8941 65.894C63.661 68.1272 60.0403 68.1272 57.8071 65.894C55.5739 63.6608 55.5739 60.0401 57.8071 57.8069C60.0403 55.5738 63.661 55.5738 65.8941 57.8069C68.1273 60.0401 68.1273 63.6608 65.8941 65.894Z" fill="url(#paint64_linear)"/>
<path d="M96.0368 65.894C98.27 68.1272 101.891 68.1272 104.124 65.894C106.357 63.6608 106.357 60.0401 104.124 57.8069C101.891 55.5738 98.27 55.5738 96.0368 57.8069C93.8037 60.0401 93.8037 63.6608 96.0368 65.894Z" fill="url(#paint65_linear)"/>
<path d="M27.0317 103.515C25.1416 105.405 22.0771 105.405 20.1869 103.515C18.2968 101.625 18.2968 98.5605 20.1869 96.6704C22.0771 94.7802 25.1416 94.7802 27.0317 96.6704C28.9219 98.5605 28.9219 101.625 27.0317 103.515Z" fill="url(#paint66_linear)"/>
<path d="M57.9089 104.023C60.0791 106.193 63.5976 106.193 65.7678 104.023C67.938 101.853 67.938 98.334 65.7678 96.1638C63.5976 93.9936 60.0791 93.9936 57.9089 96.1638C55.7387 98.334 55.7388 101.853 57.9089 104.023Z" fill="url(#paint67_linear)"/>
<path d="M27.133 84.5012C25.1799 86.4543 22.0132 86.4544 20.06 84.5012C18.1069 82.548 18.1069 79.3813 20.06 77.4282C22.0132 75.475 25.1799 75.475 27.133 77.4282C29.0862 79.3814 29.0862 82.548 27.133 84.5012Z" fill="url(#paint68_linear)"/>
<path d="M76.3141 85.6173C78.8833 88.1865 83.0488 88.1865 85.618 85.6173C88.1872 83.0481 88.1872 78.8826 85.618 76.3134C83.0488 73.7442 78.8833 73.7442 76.3141 76.3134C73.7449 78.8826 73.7449 83.0481 76.3141 85.6173Z" fill="url(#paint69_linear)"/>
<path d="M26.5366 122.136C24.9194 123.753 22.2976 123.753 20.6804 122.136C19.0633 120.519 19.0633 117.897 20.6804 116.28C22.2976 114.663 24.9194 114.663 26.5366 116.28C28.1537 117.897 28.1537 120.519 26.5366 122.136Z" fill="url(#paint70_linear)"/>
<path d="M39.4148 122.517C41.2419 124.344 44.2043 124.344 46.0315 122.517C47.8586 120.69 47.8586 117.727 46.0315 115.9C44.2043 114.073 41.2419 114.073 39.4148 115.9C37.5877 117.727 37.5877 120.69 39.4148 122.517Z" fill="url(#paint71_linear)"/>
<path d="M25.9918 140.732C24.6687 142.055 22.5236 142.055 21.2005 140.732C19.8774 139.409 19.8773 137.264 21.2005 135.94C22.5236 134.617 24.6687 134.617 25.9918 135.94C27.3149 137.264 27.3149 139.409 25.9918 140.732Z" fill="url(#paint72_linear)"/>
<path d="M39.8212 141.225C41.4243 142.828 44.0235 142.828 45.6266 141.225C47.2297 139.622 47.2297 137.023 45.6266 135.42C44.0235 133.817 41.4243 133.817 39.8212 135.42C38.2181 137.023 38.2181 139.622 39.8212 141.225Z" fill="url(#paint73_linear)"/>
<path d="M65.2481 141.733C63.3719 143.609 60.3301 143.609 58.4539 141.733C56.5778 139.857 56.5778 136.815 58.4539 134.939C60.3301 133.063 63.3719 133.063 65.2481 134.939C67.1242 136.815 67.1242 139.857 65.2481 141.733Z" fill="url(#paint74_linear)"/>
<path d="M77.0623 142.239C79.2185 144.395 82.7143 144.395 84.8705 142.239C87.0267 140.083 87.0267 136.587 84.8705 134.431C82.7143 132.275 79.2185 132.275 77.0623 134.431C74.9061 136.587 74.9061 140.083 77.0623 142.239Z" fill="url(#paint75_linear)"/>
<path d="M103.478 141.732C101.602 143.608 98.5599 143.608 96.6837 141.732C94.8076 139.855 94.8076 136.814 96.6837 134.937C98.5599 133.061 101.602 133.061 103.478 134.937C105.354 136.814 105.354 139.855 103.478 141.732Z" fill="url(#paint76_linear)"/>
<path d="M116.306 141.225C117.909 142.828 120.508 142.828 122.111 141.225C123.714 139.622 123.714 137.023 122.111 135.42C120.508 133.817 117.909 133.817 116.306 135.42C114.703 137.023 114.703 139.622 116.306 141.225Z" fill="url(#paint77_linear)"/>
<path d="M140.731 140.732C139.408 142.055 137.263 142.055 135.94 140.732C134.617 139.409 134.617 137.264 135.94 135.94C137.263 134.617 139.408 134.617 140.731 135.94C142.054 137.264 142.054 139.409 140.731 140.732Z" fill="url(#paint78_linear)"/>
<path d="M155.55 140.236C156.6 141.286 158.302 141.286 159.352 140.236C160.402 139.186 160.402 137.484 159.352 136.433C158.302 135.383 156.6 135.383 155.55 136.433C154.499 137.484 154.499 139.186 155.55 140.236Z" fill="url(#paint79_linear)"/>
<path d="M84.1352 160.619C82.3851 162.369 79.5475 162.369 77.7974 160.619C76.0472 158.869 76.0472 156.031 77.7974 154.281C79.5475 152.531 82.3851 152.531 84.1352 154.281C85.8853 156.031 85.8853 158.869 84.1352 160.619Z" fill="url(#paint80_linear)"/>
<path d="M154.716 30.0284H160.611C160.526 24.8438 156.264 21.2642 149.787 21.2642C143.409 21.2642 138.736 24.7869 138.764 30.071C138.75 34.3608 141.776 36.8182 146.69 37.9972L149.858 38.7926C153.026 39.5597 154.787 40.4688 154.801 42.429C154.787 44.5597 152.77 46.0085 149.645 46.0085C146.449 46.0085 144.148 44.5313 143.949 41.6193H137.997C138.153 47.9119 142.656 51.1648 149.716 51.1648C156.818 51.1648 160.994 47.7699 161.009 42.4432C160.994 37.5994 157.344 35.0284 152.287 33.892L149.673 33.267C147.145 32.6847 145.028 31.7472 145.071 29.6591C145.071 27.7841 146.733 26.4062 149.744 26.4062C152.685 26.4062 154.489 27.7415 154.716 30.0284Z" fill="black"/>
<path d="M176.637 28.9347H172.532V23.7074H166.481V28.9347H163.498V33.4801H166.481V44.8438C166.452 49.1193 169.364 51.2358 173.754 51.0511C175.316 50.9943 176.424 50.6818 177.035 50.483L176.083 45.9801C175.785 46.0369 175.146 46.179 174.577 46.179C173.37 46.179 172.532 45.7244 172.532 44.0483V33.4801H176.637V28.9347Z" fill="black"/>
<path d="M186.8 51.1648C190.025 51.1648 192.113 49.7585 193.178 47.7273H193.349V50.7528H199.087V36.0369C199.087 30.8381 194.684 28.6506 189.826 28.6506C184.599 28.6506 181.161 31.1506 180.323 35.1278L185.92 35.5824C186.332 34.1335 187.624 33.0682 189.798 33.0682C191.857 33.0682 193.036 34.1051 193.036 35.8949V35.9801C193.036 37.3864 191.545 37.571 187.752 37.9403C183.434 38.3381 179.556 39.7869 179.556 44.6591C179.556 48.9773 182.639 51.1648 186.8 51.1648ZM188.533 46.9886C186.673 46.9886 185.337 46.1222 185.337 44.4602C185.337 42.7557 186.744 41.9176 188.874 41.6193C190.195 41.4347 192.354 41.1222 193.079 40.6392V42.9545C193.079 45.2415 191.19 46.9886 188.533 46.9886Z" fill="black"/>
<path d="M203.782 50.7528H209.833V43.821L211.467 41.9602L217.418 50.7528H224.506L215.998 38.3807L224.094 28.9347H217.148L210.16 37.2159H209.833V21.6619H203.782V50.7528Z" fill="black"/>
<path d="M227.063 50.7528H233.114V28.9347H227.063V50.7528ZM230.103 26.1222C231.907 26.1222 233.384 24.7443 233.384 23.054C233.384 21.3778 231.907 20 230.103 20C228.313 20 226.836 21.3778 226.836 23.054C226.836 24.7443 228.313 26.1222 230.103 26.1222Z" fill="black"/>
<path d="M244.013 38.1392C244.027 35.3267 245.703 33.679 248.146 33.679C250.575 33.679 252.038 35.2699 252.024 37.9403V50.7528H258.075V36.8608C258.075 31.7756 255.092 28.6506 250.547 28.6506C247.308 28.6506 244.965 30.2415 243.984 32.7841H243.729V28.9347H237.962V50.7528H244.013V38.1392Z" fill="black"/>
<path d="M272.674 59.3892C278.91 59.3892 283.342 56.5483 283.342 50.9659V28.9347H277.333V32.5994H277.106C276.296 30.8239 274.521 28.6506 270.87 28.6506C266.083 28.6506 262.035 32.3722 262.035 39.8011C262.035 47.0597 265.969 50.4403 270.884 50.4403C274.364 50.4403 276.31 48.6932 277.106 46.8892H277.362V50.8807C277.362 53.8778 275.444 55.0426 272.816 55.0426C270.146 55.0426 268.796 53.8778 268.299 52.5568L262.702 53.3097C263.427 56.7472 266.793 59.3892 272.674 59.3892ZM272.802 45.8949C269.833 45.8949 268.214 43.5369 268.214 39.7727C268.214 36.0653 269.805 33.4659 272.802 33.4659C275.742 33.4659 277.39 35.9517 277.39 39.7727C277.39 43.6222 275.714 45.8949 272.802 45.8949Z" fill="black"/>
<path d="M297.528 50.7528H316.151V45.6818H303.679V21.6619H297.528V50.7528Z" fill="black"/>
<path d="M320.11 50.7528H326.161V28.9347H320.11V50.7528ZM323.15 26.1222C324.954 26.1222 326.431 24.7443 326.431 23.054C326.431 21.3778 324.954 20 323.15 20C321.36 20 319.883 21.3778 319.883 23.054C319.883 24.7443 321.36 26.1222 323.15 26.1222Z" fill="black"/>
<path d="M351.477 58.9347V28.9347H345.511V32.5994H345.242C344.432 30.8239 342.685 28.6506 339.034 28.6506C334.247 28.6506 330.199 32.3722 330.199 39.8722C330.199 47.1733 334.077 51.108 339.048 51.108C342.571 51.108 344.403 49.0767 345.242 47.2585H345.426V58.9347H351.477ZM345.554 39.8438C345.554 43.7358 343.878 46.2926 340.966 46.2926C337.997 46.2926 336.378 43.6506 336.378 39.8438C336.378 36.0653 337.969 33.4659 340.966 33.4659C343.906 33.4659 345.554 35.9517 345.554 39.8438Z" fill="black"/>
<path d="M370.313 41.4631C370.327 44.3892 368.324 45.9233 366.151 45.9233C363.864 45.9233 362.386 44.3182 362.372 41.7472V28.9347H356.321V42.8267C356.335 47.9261 359.318 51.0369 363.707 51.0369C366.989 51.0369 369.347 49.3466 370.327 46.7898H370.554V50.7528H376.364V28.9347H370.313V41.4631Z" fill="black"/>
<path d="M381.204 50.7528H387.255V28.9347H381.204V50.7528ZM384.244 26.1222C386.048 26.1222 387.525 24.7443 387.525 23.054C387.525 21.3778 386.048 20 384.244 20C382.454 20 380.977 21.3778 380.977 23.054C380.977 24.7443 382.454 26.1222 384.244 26.1222Z" fill="black"/>
<path d="M400.142 51.108C403.665 51.108 405.497 49.0767 406.335 47.2585H406.591V50.7528H412.557V21.6619H406.52V32.5994H406.335C405.526 30.8239 403.778 28.6506 400.128 28.6506C395.341 28.6506 391.293 32.3722 391.293 39.8722C391.293 47.1733 395.171 51.108 400.142 51.108ZM402.06 46.2926C399.091 46.2926 397.472 43.6506 397.472 39.8438C397.472 36.0653 399.063 33.4659 402.06 33.4659C405 33.4659 406.648 35.9517 406.648 39.8438C406.648 43.7358 404.972 46.2926 402.06 46.2926Z" fill="black"/>
<path d="M417.532 50.7528H423.583V28.9347H417.532V50.7528ZM420.572 26.1222C422.376 26.1222 423.853 24.7443 423.853 23.054C423.853 21.3778 422.376 20 420.572 20C418.782 20 417.305 21.3778 417.305 23.054C417.305 24.7443 418.782 26.1222 420.572 26.1222Z" fill="black"/>
<path d="M440.036 28.9347H435.93V23.7074H429.879V28.9347H426.896V33.4801H429.879V44.8438C429.851 49.1193 432.763 51.2358 437.152 51.0511C438.715 50.9943 439.822 50.6818 440.433 50.483L439.482 45.9801C439.183 46.0369 438.544 46.179 437.976 46.179C436.768 46.179 435.93 45.7244 435.93 44.0483V33.4801H440.036V28.9347Z" fill="black"/>
<path d="M447.713 58.9347C452.216 58.9347 454.602 56.6335 455.838 53.1108L464.318 28.9347H457.912L453.352 44.9574H453.125L448.608 28.9347H442.244L450.071 51.3778L449.716 52.3011C448.921 54.3466 447.401 54.446 445.27 53.7926L443.906 58.3097C444.773 58.679 446.179 58.9347 447.713 58.9347Z" fill="black"/>
<path d="M302.997 98.7528H309.148V89.321H314.318C321.009 89.321 324.901 85.3295 324.901 79.5199C324.901 73.7386 321.08 69.6619 314.474 69.6619H302.997V98.7528ZM309.148 84.392V74.6903H313.295C316.847 74.6903 318.565 76.6222 318.565 79.5199C318.565 82.4034 316.847 84.392 313.324 84.392H309.148Z" fill="black"/>
<path d="M328.782 98.7528H334.833V86.4091C334.833 83.7244 336.793 81.8778 339.464 81.8778C340.302 81.8778 341.452 82.0199 342.021 82.2045V76.8352C341.481 76.7074 340.728 76.6222 340.117 76.6222C337.674 76.6222 335.671 78.0426 334.876 80.7415H334.648V76.9347H328.782V98.7528Z" fill="black"/>
<path d="M353.992 99.179C360.611 99.179 364.73 94.6477 364.73 87.929C364.73 81.1676 360.611 76.6506 353.992 76.6506C347.372 76.6506 343.253 81.1676 343.253 87.929C343.253 94.6477 347.372 99.179 353.992 99.179ZM354.02 94.4915C350.966 94.4915 349.403 91.6932 349.403 87.8864C349.403 84.0796 350.966 81.267 354.02 81.267C357.017 81.267 358.58 84.0796 358.58 87.8864C358.58 91.6932 357.017 94.4915 354.02 94.4915Z" fill="black"/>
<path d="M380.27 76.9347H376.165V71.7074H370.114V76.9347H367.131V81.4801H370.114V92.8438C370.085 97.1193 372.997 99.2358 377.386 99.0511C378.949 98.9943 380.057 98.6818 380.668 98.483L379.716 93.9801C379.418 94.0369 378.778 94.179 378.21 94.179C377.003 94.179 376.165 93.7244 376.165 92.0483V81.4801H380.27V76.9347Z" fill="black"/>
<path d="M393.835 99.179C400.455 99.179 404.574 94.6477 404.574 87.929C404.574 81.1676 400.455 76.6506 393.835 76.6506C387.216 76.6506 383.097 81.1676 383.097 87.929C383.097 94.6477 387.216 99.179 393.835 99.179ZM393.864 94.4915C390.81 94.4915 389.247 91.6932 389.247 87.8864C389.247 84.0796 390.81 81.267 393.864 81.267C396.861 81.267 398.423 84.0796 398.423 87.8864C398.423 91.6932 396.861 94.4915 393.864 94.4915Z" fill="black"/>
<path d="M418.367 99.179C424.176 99.179 427.827 95.7699 428.111 90.7557H422.401C422.046 93.0852 420.511 94.392 418.438 94.392C415.611 94.392 413.778 92.0199 413.778 87.8438C413.778 83.7244 415.625 81.3665 418.438 81.3665C420.653 81.3665 422.074 82.8295 422.401 85.0028H428.111C427.855 79.9602 424.034 76.6506 418.338 76.6506C411.719 76.6506 407.628 81.2386 407.628 87.929C407.628 94.5625 411.648 99.179 418.367 99.179Z" fill="black"/>
<path d="M441.843 99.179C448.462 99.179 452.582 94.6477 452.582 87.929C452.582 81.1676 448.462 76.6506 441.843 76.6506C435.224 76.6506 431.104 81.1676 431.104 87.929C431.104 94.6477 435.224 99.179 441.843 99.179ZM441.871 94.4915C438.818 94.4915 437.255 91.6932 437.255 87.8864C437.255 84.0796 438.818 81.267 441.871 81.267C444.869 81.267 446.431 84.0796 446.431 87.8864C446.431 91.6932 444.869 94.4915 441.871 94.4915Z" fill="black"/>
<path d="M462.568 69.6619H456.516V98.7528H462.568V69.6619Z" fill="black"/>
<defs>
<linearGradient id="paint0_linear" x1="0" y1="0" x2="173.698" y2="13.7954" gradientUnits="userSpaceOnUse">
<stop stop-color="#FF8212"/>
<stop offset="1" stop-color="#ED4454"/>
</linearGradient>
<linearGradient id="paint1_linear" x1="0" y1="0" x2="173.698" y2="13.7954" gradientUnits="userSpaceOnUse">
<stop stop-color="#FF8212"/>
<stop offset="1" stop-color="#ED4454"/>
</linearGradient>
<linearGradient id="paint2_linear" x1="0" y1="0" x2="173.698" y2="13.7954" gradientUnits="userSpaceOnUse">
<stop stop-color="#FF8212"/>
<stop offset="1" stop-color="#ED4454"/>
</linearGradient>
<linearGradient id="paint3_linear" x1="0" y1="0" x2="173.698" y2="13.7954" gradientUnits="userSpaceOnUse">
<stop stop-color="#FF8212"/>
<stop offset="1" stop-color="#ED4454"/>
</linearGradient>
<linearGradient id="paint4_linear" x1="0" y1="0" x2="173.698" y2="13.7954" gradientUnits="userSpaceOnUse">
<stop stop-color="#FF8212"/>
<stop offset="1" stop-color="#ED4454"/>
</linearGradient>
<linearGradient id="paint5_linear" x1="0" y1="0" x2="173.698" y2="13.7954" gradientUnits="userSpaceOnUse">
<stop stop-color="#FF8212"/>
<stop offset="1" stop-color="#ED4454"/>
</linearGradient>
<linearGradient id="paint6_linear" x1="0" y1="0" x2="173.698" y2="13.7954" gradientUnits="userSpaceOnUse">
<stop stop-color="#FF8212"/>
<stop offset="1" stop-color="#ED4454"/>
</linearGradient>
<linearGradient id="paint7_linear" x1="0" y1="0" x2="173.698" y2="13.7954" gradientUnits="userSpaceOnUse">
<stop stop-color="#FF8212"/>
<stop offset="1" stop-color="#ED4454"/>
</linearGradient>
<linearGradient id="paint8_linear" x1="0" y1="0" x2="173.698" y2="13.7954" gradientUnits="userSpaceOnUse">
<stop stop-color="#FF8212"/>
<stop offset="1" stop-color="#ED4454"/>
</linearGradient>
<linearGradient id="paint9_linear" x1="0" y1="0" x2="173.698" y2="13.7954" gradientUnits="userSpaceOnUse">
<stop stop-color="#FF8212"/>
<stop offset="1" stop-color="#ED4454"/>
</linearGradient>
<linearGradient id="paint10_linear" x1="0" y1="0" x2="173.698" y2="13.7954" gradientUnits="userSpaceOnUse">
<stop stop-color="#FF8212"/>
<stop offset="1" stop-color="#ED4454"/>
</linearGradient>
<linearGradient id="paint11_linear" x1="0" y1="0" x2="173.698" y2="13.7954" gradientUnits="userSpaceOnUse">
<stop stop-color="#FF8212"/>
<stop offset="1" stop-color="#ED4454"/>
</linearGradient>
<linearGradient id="paint12_linear" x1="0" y1="0" x2="173.698" y2="13.7954" gradientUnits="userSpaceOnUse">
<stop stop-color="#FF8212"/>
<stop offset="1" stop-color="#ED4454"/>
</linearGradient>
<linearGradient id="paint13_linear" x1="0" y1="0" x2="173.698" y2="13.7954" gradientUnits="userSpaceOnUse">
<stop stop-color="#FF8212"/>
<stop offset="1" stop-color="#ED4454"/>
</linearGradient>
<linearGradient id="paint14_linear" x1="0" y1="0" x2="173.698" y2="13.7954" gradientUnits="userSpaceOnUse">
<stop stop-color="#FF8212"/>
<stop offset="1" stop-color="#ED4454"/>
</linearGradient>
<linearGradient id="paint15_linear" x1="0" y1="0" x2="173.698" y2="13.7954" gradientUnits="userSpaceOnUse">
<stop stop-color="#FF8212"/>
<stop offset="1" stop-color="#ED4454"/>
</linearGradient>
<linearGradient id="paint16_linear" x1="0" y1="0" x2="173.698" y2="13.7954" gradientUnits="userSpaceOnUse">
<stop stop-color="#FF8212"/>
<stop offset="1" stop-color="#ED4454"/>
</linearGradient>
<linearGradient id="paint17_linear" x1="0" y1="0" x2="173.698" y2="13.7954" gradientUnits="userSpaceOnUse">
<stop stop-color="#FF8212"/>
<stop offset="1" stop-color="#ED4454"/>
</linearGradient>
<linearGradient id="paint18_linear" x1="0" y1="0" x2="173.698" y2="13.7954" gradientUnits="userSpaceOnUse">
<stop stop-color="#FF8212"/>
<stop offset="1" stop-color="#ED4454"/>
</linearGradient>
<linearGradient id="paint19_linear" x1="0" y1="0" x2="173.698" y2="13.7954" gradientUnits="userSpaceOnUse">
<stop stop-color="#FF8212"/>
<stop offset="1" stop-color="#ED4454"/>
</linearGradient>
<linearGradient id="paint20_linear" x1="0" y1="0" x2="173.698" y2="13.7954" gradientUnits="userSpaceOnUse">
<stop stop-color="#FF8212"/>
<stop offset="1" stop-color="#ED4454"/>
</linearGradient>
<linearGradient id="paint21_linear" x1="0" y1="0" x2="173.698" y2="13.7954" gradientUnits="userSpaceOnUse">
<stop stop-color="#FF8212"/>
<stop offset="1" stop-color="#ED4454"/>
</linearGradient>
<linearGradient id="paint22_linear" x1="0" y1="0" x2="173.698" y2="13.7954" gradientUnits="userSpaceOnUse">
<stop stop-color="#FF8212"/>
<stop offset="1" stop-color="#ED4454"/>
</linearGradient>
<linearGradient id="paint23_linear" x1="0" y1="0" x2="173.698" y2="13.7954" gradientUnits="userSpaceOnUse">
<stop stop-color="#FF8212"/>
<stop offset="1" stop-color="#ED4454"/>
</linearGradient>
<linearGradient id="paint24_linear" x1="0" y1="0" x2="173.698" y2="13.7954" gradientUnits="userSpaceOnUse">
<stop stop-color="#FF8212"/>
<stop offset="1" stop-color="#ED4454"/>
</linearGradient>
<linearGradient id="paint25_linear" x1="0" y1="0" x2="173.698" y2="13.7954" gradientUnits="userSpaceOnUse">
<stop stop-color="#FF8212"/>
<stop offset="1" stop-color="#ED4454"/>
</linearGradient>
<linearGradient id="paint26_linear" x1="0" y1="0" x2="173.698" y2="13.7954" gradientUnits="userSpaceOnUse">
<stop stop-color="#FF8212"/>
<stop offset="1" stop-color="#ED4454"/>
</linearGradient>
<linearGradient id="paint27_linear" x1="0" y1="0" x2="173.698" y2="13.7954" gradientUnits="userSpaceOnUse">
<stop stop-color="#FF8212"/>
<stop offset="1" stop-color="#ED4454"/>
</linearGradient>
<linearGradient id="paint28_linear" x1="0" y1="0" x2="173.698" y2="13.7954" gradientUnits="userSpaceOnUse">
<stop stop-color="#FF8212"/>
<stop offset="1" stop-color="#ED4454"/>
</linearGradient>
<linearGradient id="paint29_linear" x1="0" y1="0" x2="173.698" y2="13.7954" gradientUnits="userSpaceOnUse">
<stop stop-color="#FF8212"/>
<stop offset="1" stop-color="#ED4454"/>
</linearGradient>
<linearGradient id="paint30_linear" x1="0" y1="0" x2="173.698" y2="13.7954" gradientUnits="userSpaceOnUse">
<stop stop-color="#FF8212"/>
<stop offset="1" stop-color="#ED4454"/>
</linearGradient>
<linearGradient id="paint31_linear" x1="0" y1="0" x2="173.698" y2="13.7954" gradientUnits="userSpaceOnUse">
<stop stop-color="#FF8212"/>
<stop offset="1" stop-color="#ED4454"/>
</linearGradient>
<linearGradient id="paint32_linear" x1="0" y1="0" x2="173.698" y2="13.7954" gradientUnits="userSpaceOnUse">
<stop stop-color="#FF8212"/>
<stop offset="1" stop-color="#ED4454"/>
</linearGradient>
<linearGradient id="paint33_linear" x1="0" y1="0" x2="173.698" y2="13.7954" gradientUnits="userSpaceOnUse">
<stop stop-color="#FF8212"/>
<stop offset="1" stop-color="#ED4454"/>
</linearGradient>
<linearGradient id="paint34_linear" x1="0" y1="0" x2="173.698" y2="13.7954" gradientUnits="userSpaceOnUse">
<stop stop-color="#FF8212"/>
<stop offset="1" stop-color="#ED4454"/>
</linearGradient>
<linearGradient id="paint35_linear" x1="0" y1="0" x2="173.698" y2="13.7954" gradientUnits="userSpaceOnUse">
<stop stop-color="#FF8212"/>
<stop offset="1" stop-color="#ED4454"/>
</linearGradient>
<linearGradient id="paint36_linear" x1="0" y1="0" x2="173.698" y2="13.7954" gradientUnits="userSpaceOnUse">
<stop stop-color="#FF8212"/>
<stop offset="1" stop-color="#ED4454"/>
</linearGradient>
<linearGradient id="paint37_linear" x1="0" y1="0" x2="173.698" y2="13.7954" gradientUnits="userSpaceOnUse">
<stop stop-color="#FF8212"/>
<stop offset="1" stop-color="#ED4454"/>
</linearGradient>
<linearGradient id="paint38_linear" x1="0" y1="0" x2="173.698" y2="13.7954" gradientUnits="userSpaceOnUse">
<stop stop-color="#FF8212"/>
<stop offset="1" stop-color="#ED4454"/>
</linearGradient>
<linearGradient id="paint39_linear" x1="0" y1="0" x2="173.698" y2="13.7954" gradientUnits="userSpaceOnUse">
<stop stop-color="#FF8212"/>
<stop offset="1" stop-color="#ED4454"/>
</linearGradient>
<linearGradient id="paint40_linear" x1="0" y1="0" x2="173.698" y2="13.7954" gradientUnits="userSpaceOnUse">
<stop stop-color="#FF8212"/>
<stop offset="1" stop-color="#ED4454"/>
</linearGradient>
<linearGradient id="paint41_linear" x1="0" y1="0" x2="173.698" y2="13.7954" gradientUnits="userSpaceOnUse">
<stop stop-color="#FF8212"/>
<stop offset="1" stop-color="#ED4454"/>
</linearGradient>
<linearGradient id="paint42_linear" x1="0" y1="0" x2="173.698" y2="13.7954" gradientUnits="userSpaceOnUse">
<stop stop-color="#FF8212"/>
<stop offset="1" stop-color="#ED4454"/>
</linearGradient>
<linearGradient id="paint43_linear" x1="0" y1="0" x2="173.698" y2="13.7954" gradientUnits="userSpaceOnUse">
<stop stop-color="#FF8212"/>
<stop offset="1" stop-color="#ED4454"/>
</linearGradient>
<linearGradient id="paint44_linear" x1="0" y1="0" x2="173.698" y2="13.7954" gradientUnits="userSpaceOnUse">
<stop stop-color="#FF8212"/>
<stop offset="1" stop-color="#ED4454"/>
</linearGradient>
<linearGradient id="paint45_linear" x1="0" y1="0" x2="173.698" y2="13.7954" gradientUnits="userSpaceOnUse">
<stop stop-color="#FF8212"/>
<stop offset="1" stop-color="#ED4454"/>
</linearGradient>
<linearGradient id="paint46_linear" x1="0" y1="0" x2="173.698" y2="13.7954" gradientUnits="userSpaceOnUse">
<stop stop-color="#FF8212"/>
<stop offset="1" stop-color="#ED4454"/>
</linearGradient>
<linearGradient id="paint47_linear" x1="0" y1="0" x2="173.698" y2="13.7954" gradientUnits="userSpaceOnUse">
<stop stop-color="#FF8212"/>
<stop offset="1" stop-color="#ED4454"/>
</linearGradient>
<linearGradient id="paint48_linear" x1="0" y1="0" x2="173.698" y2="13.7954" gradientUnits="userSpaceOnUse">
<stop stop-color="#FF8212"/>
<stop offset="1" stop-color="#ED4454"/>
</linearGradient>
<linearGradient id="paint49_linear" x1="0" y1="0" x2="173.698" y2="13.7954" gradientUnits="userSpaceOnUse">
<stop stop-color="#FF8212"/>
<stop offset="1" stop-color="#ED4454"/>
</linearGradient>
<linearGradient id="paint50_linear" x1="0" y1="0" x2="173.698" y2="13.7954" gradientUnits="userSpaceOnUse">
<stop stop-color="#FF8212"/>
<stop offset="1" stop-color="#ED4454"/>
</linearGradient>
<linearGradient id="paint51_linear" x1="0" y1="0" x2="173.698" y2="13.7954" gradientUnits="userSpaceOnUse">
<stop stop-color="#FF8212"/>
<stop offset="1" stop-color="#ED4454"/>
</linearGradient>
<linearGradient id="paint52_linear" x1="0" y1="0" x2="173.698" y2="13.7954" gradientUnits="userSpaceOnUse">
<stop stop-color="#FF8212"/>
<stop offset="1" stop-color="#ED4454"/>
</linearGradient>
<linearGradient id="paint53_linear" x1="0" y1="0" x2="173.698" y2="13.7954" gradientUnits="userSpaceOnUse">
<stop stop-color="#FF8212"/>
<stop offset="1" stop-color="#ED4454"/>
</linearGradient>
<linearGradient id="paint54_linear" x1="0" y1="0" x2="173.698" y2="13.7954" gradientUnits="userSpaceOnUse">
<stop stop-color="#FF8212"/>
<stop offset="1" stop-color="#ED4454"/>
</linearGradient>
<linearGradient id="paint55_linear" x1="0" y1="0" x2="173.698" y2="13.7954" gradientUnits="userSpaceOnUse">
<stop stop-color="#FF8212"/>
<stop offset="1" stop-color="#ED4454"/>
</linearGradient>
<linearGradient id="paint56_linear" x1="0" y1="0" x2="173.698" y2="13.7954" gradientUnits="userSpaceOnUse">
<stop stop-color="#FF8212"/>
<stop offset="1" stop-color="#ED4454"/>
</linearGradient>
<linearGradient id="paint57_linear" x1="0" y1="0" x2="173.698" y2="13.7954" gradientUnits="userSpaceOnUse">
<stop stop-color="#FF8212"/>
<stop offset="1" stop-color="#ED4454"/>
</linearGradient>
<linearGradient id="paint58_linear" x1="0" y1="0" x2="173.698" y2="13.7954" gradientUnits="userSpaceOnUse">
<stop stop-color="#FF8212"/>
<stop offset="1" stop-color="#ED4454"/>
</linearGradient>
<linearGradient id="paint59_linear" x1="0" y1="0" x2="173.698" y2="13.7954" gradientUnits="userSpaceOnUse">
<stop stop-color="#FF8212"/>
<stop offset="1" stop-color="#ED4454"/>
</linearGradient>
<linearGradient id="paint60_linear" x1="0" y1="0" x2="173.698" y2="13.7954" gradientUnits="userSpaceOnUse">
<stop stop-color="#FF8212"/>
<stop offset="1" stop-color="#ED4454"/>
</linearGradient>
<linearGradient id="paint61_linear" x1="0" y1="0" x2="173.698" y2="13.7954" gradientUnits="userSpaceOnUse">
<stop stop-color="#FF8212"/>
<stop offset="1" stop-color="#ED4454"/>
</linearGradient>
<linearGradient id="paint62_linear" x1="0" y1="0" x2="173.698" y2="13.7954" gradientUnits="userSpaceOnUse">
<stop stop-color="#FF8212"/>
<stop offset="1" stop-color="#ED4454"/>
</linearGradient>
<linearGradient id="paint63_linear" x1="0" y1="0" x2="173.698" y2="13.7954" gradientUnits="userSpaceOnUse">
<stop stop-color="#FF8212"/>
<stop offset="1" stop-color="#ED4454"/>
</linearGradient>
<linearGradient id="paint64_linear" x1="0" y1="0" x2="173.698" y2="13.7954" gradientUnits="userSpaceOnUse">
<stop stop-color="#FF8212"/>
<stop offset="1" stop-color="#ED4454"/>
</linearGradient>
<linearGradient id="paint65_linear" x1="0" y1="0" x2="173.698" y2="13.7954" gradientUnits="userSpaceOnUse">
<stop stop-color="#FF8212"/>
<stop offset="1" stop-color="#ED4454"/>
</linearGradient>
<linearGradient id="paint66_linear" x1="0" y1="0" x2="173.698" y2="13.7954" gradientUnits="userSpaceOnUse">
<stop stop-color="#FF8212"/>
<stop offset="1" stop-color="#ED4454"/>
</linearGradient>
<linearGradient id="paint67_linear" x1="0" y1="0" x2="173.698" y2="13.7954" gradientUnits="userSpaceOnUse">
<stop stop-color="#FF8212"/>
<stop offset="1" stop-color="#ED4454"/>
</linearGradient>
<linearGradient id="paint68_linear" x1="0" y1="0" x2="173.698" y2="13.7954" gradientUnits="userSpaceOnUse">
<stop stop-color="#FF8212"/>
<stop offset="1" stop-color="#ED4454"/>
</linearGradient>
<linearGradient id="paint69_linear" x1="0" y1="0" x2="173.698" y2="13.7954" gradientUnits="userSpaceOnUse">
<stop stop-color="#FF8212"/>
<stop offset="1" stop-color="#ED4454"/>
</linearGradient>
<linearGradient id="paint70_linear" x1="0" y1="0" x2="173.698" y2="13.7954" gradientUnits="userSpaceOnUse">
<stop stop-color="#FF8212"/>
<stop offset="1" stop-color="#ED4454"/>
</linearGradient>
<linearGradient id="paint71_linear" x1="0" y1="0" x2="173.698" y2="13.7954" gradientUnits="userSpaceOnUse">
<stop stop-color="#FF8212"/>
<stop offset="1" stop-color="#ED4454"/>
</linearGradient>
<linearGradient id="paint72_linear" x1="0" y1="0" x2="173.698" y2="13.7954" gradientUnits="userSpaceOnUse">
<stop stop-color="#FF8212"/>
<stop offset="1" stop-color="#ED4454"/>
</linearGradient>
<linearGradient id="paint73_linear" x1="0" y1="0" x2="173.698" y2="13.7954" gradientUnits="userSpaceOnUse">
<stop stop-color="#FF8212"/>
<stop offset="1" stop-color="#ED4454"/>
</linearGradient>
<linearGradient id="paint74_linear" x1="0" y1="0" x2="173.698" y2="13.7954" gradientUnits="userSpaceOnUse">
<stop stop-color="#FF8212"/>
<stop offset="1" stop-color="#ED4454"/>
</linearGradient>
<linearGradient id="paint75_linear" x1="0" y1="0" x2="173.698" y2="13.7954" gradientUnits="userSpaceOnUse">
<stop stop-color="#FF8212"/>
<stop offset="1" stop-color="#ED4454"/>
</linearGradient>
<linearGradient id="paint76_linear" x1="0" y1="0" x2="173.698" y2="13.7954" gradientUnits="userSpaceOnUse">
<stop stop-color="#FF8212"/>
<stop offset="1" stop-color="#ED4454"/>
</linearGradient>
<linearGradient id="paint77_linear" x1="0" y1="0" x2="173.698" y2="13.7954" gradientUnits="userSpaceOnUse">
<stop stop-color="#FF8212"/>
<stop offset="1" stop-color="#ED4454"/>
</linearGradient>
<linearGradient id="paint78_linear" x1="0" y1="0" x2="173.698" y2="13.7954" gradientUnits="userSpaceOnUse">
<stop stop-color="#FF8212"/>
<stop offset="1" stop-color="#ED4454"/>
</linearGradient>
<linearGradient id="paint79_linear" x1="0" y1="0" x2="173.698" y2="13.7954" gradientUnits="userSpaceOnUse">
<stop stop-color="#FF8212"/>
<stop offset="1" stop-color="#ED4454"/>
</linearGradient>
<linearGradient id="paint80_linear" x1="0" y1="0" x2="173.698" y2="13.7954" gradientUnits="userSpaceOnUse">
<stop stop-color="#FF8212"/>
<stop offset="1" stop-color="#ED4454"/>
</linearGradient>
</defs>
</svg>
