<svg width="442" height="179" viewBox="0 0 442 179" fill="none" xmlns="http://www.w3.org/2000/svg">
<path fill-rule="evenodd" clip-rule="evenodd" d="M89.01 3.52888C89.9864 3.52888 90.7744 2.74088 90.7744 1.76444C90.7744 0.788002 89.9864 0 89.01 0C88.0335 0 87.2455 0.788002 87.2455 1.76444C87.2455 2.74088 88.0335 3.52888 89.01 3.52888ZM73.1985 3.54602C73.1985 4.52246 72.4105 5.31046 71.4341 5.31046C70.4577 5.31046 69.6696 4.52246 69.6696 3.54602C69.6696 2.56958 70.4577 1.78158 71.4341 1.78158C72.4105 1.76445 73.1985 2.56958 73.1985 3.54602ZM55.0575 10.3979C56.0339 10.3979 56.8219 9.60988 56.8219 8.63344C56.8219 7.657 56.0339 6.85187 55.0575 6.85187C54.0639 6.85187 53.2759 7.657 53.293 8.63344C53.293 9.60988 54.081 10.3979 55.0575 10.3979ZM42.004 16.6684C42.004 17.6449 41.216 18.4329 40.2395 18.4329C39.2631 18.4329 38.4751 17.6449 38.4751 16.6684C38.4751 15.692 39.2631 14.904 40.2395 14.904C41.216 14.904 42.004 15.692 42.004 16.6684ZM29.0875 27.3235C29.0875 28.2999 28.2995 29.0879 27.3231 29.0879C26.3466 29.0879 25.5586 28.2999 25.5586 27.3235C25.5586 26.347 26.3466 25.559 27.3231 25.559C28.2995 25.559 29.0875 26.347 29.0875 27.3235ZM18.4496 40.2397C18.4496 41.2162 17.6616 42.0042 16.6851 42.0042C15.7087 42.0042 14.9036 41.2162 14.9036 40.2397C14.9036 39.2633 15.6916 38.4753 16.668 38.4753C17.6444 38.4753 18.4496 39.2633 18.4496 40.2397ZM8.63376 56.8225C9.6102 56.8225 10.3982 56.0345 10.3982 55.0581C10.3982 54.0816 9.59307 53.2936 8.61663 53.2936C7.64019 53.2936 6.85219 54.0816 6.85219 55.0581C6.85219 56.0345 7.65732 56.8225 8.63376 56.8225ZM5.31042 71.4338C5.31042 72.4103 4.52242 73.1983 3.54598 73.1983C2.56954 73.1983 1.78154 72.4103 1.78154 71.4338C1.78154 70.4574 2.56954 69.6694 3.54598 69.6694C4.52242 69.6694 5.31042 70.4402 5.31042 71.4338ZM1.78157 90.7742C2.75801 90.7742 3.54601 89.9862 3.54601 89.0098C3.54601 88.0334 2.74088 87.2454 1.76444 87.2454C0.788002 87.2454 0 88.0334 0 89.0098C0 89.9862 0.805133 90.7742 1.78157 90.7742ZM35.2203 36.2474C36.5393 36.2474 37.6014 35.1853 37.6014 33.8662C37.6014 32.5472 36.5393 31.4851 35.2203 31.4851C33.9012 31.4851 32.8391 32.5472 32.8391 33.8662C32.8391 35.1853 33.9012 36.2474 35.2203 36.2474ZM31.9655 52.2646C31.9655 53.8406 30.6807 55.1254 29.1047 55.1254C27.5287 55.1254 26.2439 53.8406 26.2439 52.2646C26.2439 50.6886 27.5287 49.4038 29.1047 49.4038C30.6807 49.4038 31.9655 50.6886 31.9655 52.2646ZM24.4452 74.7921C26.2953 74.7921 27.8028 73.2846 27.8028 71.4345C27.8028 69.5673 26.2953 68.0769 24.4452 68.0769C22.5951 68.0769 21.0876 69.5844 21.0876 71.4345C21.0876 73.2846 22.5951 74.7921 24.4452 74.7921ZM25.7643 89.0108C25.7643 90.998 24.1541 92.6083 22.1669 92.6083C20.1798 92.6083 18.5695 90.998 18.5695 89.0108C18.5695 87.0237 20.1798 85.4135 22.1669 85.4135C24.1541 85.4135 25.7643 87.0237 25.7643 89.0108ZM55.5371 27.4423C55.5371 28.8984 54.3551 30.0975 52.8818 30.0975C51.4257 30.0975 50.2266 28.9155 50.2266 27.4423C50.2266 25.9862 51.4086 24.787 52.8818 24.787C54.3551 24.787 55.5371 25.9691 55.5371 27.4423ZM50.3123 52.2658C52.1966 52.2658 53.7212 50.7412 53.7212 48.8568C53.7212 46.9725 52.1966 45.4479 50.3123 45.4479C48.4279 45.4479 46.9033 46.9725 46.9033 48.8568C46.9033 50.7412 48.4279 52.2658 50.3123 52.2658ZM51.7933 71.2417C52.3216 69.0043 50.9361 66.7623 48.6987 66.234C46.4614 65.7056 44.2193 67.0911 43.691 69.3285C43.1627 71.5659 44.5482 73.8079 46.7856 74.3363C49.023 74.8646 51.265 73.4791 51.7933 71.2417ZM50.0039 89.0091C50.0039 91.5541 47.9408 93.6172 45.3958 93.6172C42.8508 93.6172 40.7877 91.5541 40.7877 89.0091C40.7877 86.4641 42.8508 84.401 45.3958 84.401C47.9408 84.401 50.0039 86.4641 50.0039 89.0091ZM70.0123 26.3983C71.5712 26.3983 72.8217 25.1478 72.8217 23.5889C72.8217 22.0301 71.5712 20.7795 70.0123 20.7795C68.4534 20.7795 67.2029 22.0301 67.2029 23.5889C67.2029 25.1478 68.4534 26.3983 70.0123 26.3983ZM72.9758 46.1491C72.9758 48.2048 71.3142 49.8836 69.2414 49.8836C67.1857 49.8836 65.5069 48.2219 65.5069 46.1491C65.5069 44.0763 67.1686 42.4147 69.2414 42.4147C71.3142 42.4147 72.9758 44.0935 72.9758 46.1491ZM72.8046 68.9337C72.8046 71.4976 70.7262 73.576 68.1623 73.576C65.5984 73.576 63.5199 71.4976 63.5199 68.9337C63.5199 66.3698 65.5984 64.2913 68.1623 64.2913C70.7262 64.2913 72.8046 66.3698 72.8046 68.9337ZM67.2029 94.2355C70.0884 94.2355 72.4277 91.8963 72.4277 89.0107C72.4277 86.1251 70.0884 83.7859 67.2029 83.7859C64.3173 83.7859 61.9781 86.1251 61.9781 89.0107C61.9781 91.8963 64.3173 94.2355 67.2029 94.2355ZM92.5046 22.3551C92.5046 24.2909 90.9286 25.8669 88.9929 25.8669C87.0571 25.8669 85.4811 24.2909 85.4811 22.3551C85.4811 20.4194 87.0571 18.8434 88.9929 18.8434C90.9458 18.8605 92.5046 20.4194 92.5046 22.3551ZM93.2241 45.3954C93.2241 47.7228 91.3374 49.6095 89.01 49.6095C86.6826 49.6095 84.7959 47.7228 84.7959 45.3954C84.7959 43.0681 86.6826 41.1813 89.01 41.1813C91.3374 41.1813 93.2241 43.0681 93.2241 45.3954ZM94.2005 67.2031C94.2005 70.0811 91.8708 72.3937 89.01 72.3937C86.1321 72.3937 83.8195 70.0639 83.8195 67.2031C83.8195 64.3424 86.1492 62.0126 89.01 62.0126C91.8708 61.9955 94.2005 64.3252 94.2005 67.2031ZM89.01 95.3478C92.5047 95.3478 95.3483 92.5042 95.3483 89.0095C95.3483 85.4978 92.5047 82.6713 89.01 82.6713C85.5154 82.6713 82.6718 85.5149 82.6718 89.0095C82.6718 92.5042 85.5154 95.3478 89.01 95.3478ZM150.457 29.087C149.481 29.087 148.693 28.299 148.693 27.3225C148.693 26.3461 149.481 25.5581 150.457 25.5581C151.434 25.5581 152.221 26.3461 152.221 27.3225C152.239 28.299 151.434 29.087 150.457 29.087ZM135.793 16.685C135.793 17.6615 136.581 18.4495 137.558 18.4495C138.534 18.4495 139.322 17.6443 139.322 16.685C139.322 15.7086 138.534 14.9206 137.558 14.9206C136.581 14.9206 135.793 15.7086 135.793 16.685ZM122.74 10.3979C121.764 10.3979 120.976 9.60994 120.976 8.6335C120.976 7.65706 121.746 6.85193 122.74 6.85193C123.716 6.85193 124.504 7.63993 124.504 8.61637C124.504 9.59281 123.716 10.3979 122.74 10.3979ZM104.599 3.54587C104.599 4.52231 105.387 5.31031 106.363 5.31031C107.34 5.31031 108.128 4.52231 108.128 3.54587C108.128 2.56944 107.34 1.78143 106.363 1.78143C105.387 1.78143 104.599 2.56944 104.599 3.54587ZM161.112 42.0032C160.136 42.0032 159.348 41.2152 159.348 40.2388C159.348 39.2624 160.136 38.4744 161.112 38.4744C162.089 38.4744 162.877 39.2624 162.877 40.2388C162.894 41.2152 162.089 42.0032 161.112 42.0032ZM141.532 35.2204C141.532 36.5395 142.594 37.6016 143.913 37.6016C145.232 37.6016 146.294 36.5395 146.294 35.2204C146.294 33.9014 145.232 32.8393 143.913 32.8393C142.594 32.8393 141.532 33.9014 141.532 35.2204ZM125.515 31.966C123.939 31.966 122.654 30.6812 122.654 29.1052C122.654 27.5292 123.939 26.2444 125.515 26.2444C127.091 26.2444 128.376 27.5292 128.376 29.1052C128.393 30.6812 127.108 31.966 125.515 31.966ZM103.006 24.4448C103.006 26.2949 104.513 27.8024 106.363 27.8024C108.213 27.8024 109.704 26.2949 109.721 24.4448C109.721 22.5947 108.213 21.0872 106.363 21.0872C104.513 21.0872 103.006 22.5947 103.006 24.4448ZM169.164 56.8226C168.187 56.8226 167.399 56.0346 167.399 55.0582C167.399 54.0818 168.187 53.2938 169.164 53.2938C170.14 53.2938 170.928 54.0818 170.928 55.0582C170.928 56.0346 170.14 56.8226 169.164 56.8226ZM147.699 52.8817C147.699 54.3549 148.898 55.5369 150.354 55.5369C151.81 55.5369 152.992 54.3549 153.009 52.8817C153.009 51.4084 151.81 50.2264 150.354 50.2264C148.881 50.2264 147.699 51.4256 147.699 52.8817ZM128.924 53.7211C127.04 53.7211 125.515 52.1965 125.515 50.3122C125.515 48.4278 127.04 46.9032 128.924 46.9032C130.808 46.9032 132.333 48.4278 132.333 50.3122C132.333 52.1965 130.808 53.7211 128.924 53.7211ZM108.463 43.7051C110.7 44.2335 112.086 46.4755 111.558 48.7129C111.029 50.9503 108.787 52.3358 106.55 51.8074C104.312 51.2791 102.927 49.0371 103.455 46.7997C103.984 44.5623 106.226 43.1768 108.463 43.7051ZM174.234 73.1984C173.258 73.1984 172.47 72.4104 172.47 71.4339C172.47 70.4575 173.258 69.6695 174.234 69.6695C175.211 69.6695 175.999 70.4575 175.999 71.4339C175.999 72.4104 175.228 73.1984 174.234 73.1984ZM151.399 70.0133C151.399 71.5721 152.65 72.8227 154.209 72.8227C155.75 72.8227 157.018 71.5721 157.018 70.0133C157.018 68.4544 155.768 67.2039 154.209 67.2039C152.65 67.2039 151.399 68.4544 151.399 70.0133ZM131.631 72.976C129.575 72.976 127.896 71.3144 127.896 69.2416C127.896 67.1859 129.558 65.5071 131.631 65.5071C133.703 65.5071 135.365 67.1688 135.365 69.2416C135.365 71.3144 133.686 72.976 131.631 72.976ZM113.507 68.1618C113.507 70.7257 111.428 72.8041 108.864 72.8041C106.3 72.8041 104.222 70.7257 104.222 68.1618C104.222 65.5979 106.3 63.5194 108.864 63.5194C111.428 63.5194 113.507 65.5979 113.507 68.1618ZM176.016 90.7734C175.039 90.7734 174.251 89.9854 174.251 89.0089C174.251 88.0325 175.039 87.2445 176.016 87.2445C176.992 87.2445 177.78 88.0325 177.78 89.0089C177.78 89.9854 176.992 90.7734 176.016 90.7734ZM151.913 88.9934C151.913 90.9292 153.489 92.5052 155.425 92.5052C157.361 92.5052 158.937 90.9463 158.937 88.9934C158.937 87.0577 157.361 85.4817 155.425 85.4817C153.489 85.4817 151.913 87.0577 151.913 88.9934ZM132.402 93.2236C134.729 93.2236 136.616 91.3369 136.616 89.0095C136.616 86.6821 134.729 84.7954 132.402 84.7954C130.074 84.7954 128.187 86.6821 128.187 89.0095C128.187 91.3369 130.074 93.2236 132.402 93.2236ZM105.404 89.0096C105.404 91.8704 107.717 94.2002 110.594 94.2002C113.455 94.2002 115.785 91.8704 115.785 89.0096C115.785 86.1488 113.455 83.8191 110.594 83.8191C107.734 83.8191 105.404 86.1317 105.404 89.0096ZM148.795 150.696C148.795 149.719 149.583 148.931 150.56 148.931C151.536 148.931 152.324 149.719 152.324 150.696C152.324 151.672 151.536 152.46 150.56 152.46C149.601 152.46 148.795 151.672 148.795 150.696ZM161.215 136.015C160.238 136.015 159.451 136.803 159.451 137.78C159.451 138.756 160.256 139.544 161.215 139.544C162.191 139.544 162.979 138.756 162.979 137.78C162.979 136.803 162.191 136.015 161.215 136.015ZM167.502 122.962C167.502 121.986 168.29 121.198 169.266 121.198C170.243 121.198 171.031 121.986 171.031 122.962C171.031 123.939 170.243 124.727 169.266 124.727C168.29 124.727 167.502 123.939 167.502 122.962ZM174.354 104.82C173.378 104.82 172.59 105.608 172.59 106.584C172.59 107.561 173.378 108.366 174.354 108.349C175.331 108.349 176.119 107.561 176.119 106.584C176.119 105.608 175.331 104.82 174.354 104.82ZM135.896 161.334C135.896 160.358 136.684 159.57 137.661 159.57C138.637 159.57 139.425 160.358 139.425 161.334C139.425 162.311 138.637 163.099 137.661 163.099C136.684 163.116 135.896 162.328 135.896 161.334ZM142.68 141.772C141.361 141.772 140.299 142.834 140.299 144.153C140.299 145.455 141.361 146.517 142.68 146.534C143.999 146.534 145.061 145.472 145.061 144.153C145.061 142.834 143.999 141.772 142.68 141.772ZM145.935 125.753C145.935 124.177 147.219 122.892 148.795 122.892C150.371 122.892 151.656 124.177 151.656 125.753C151.656 127.329 150.371 128.614 148.795 128.614C147.219 128.614 145.935 127.329 145.935 125.753ZM153.455 103.228C151.605 103.228 150.097 104.735 150.097 106.585C150.097 108.435 151.605 109.943 153.455 109.943C155.305 109.943 156.812 108.435 156.812 106.585C156.812 104.735 155.305 103.228 153.455 103.228ZM121.078 169.385C121.078 168.409 121.866 167.621 122.843 167.621C123.819 167.621 124.607 168.409 124.607 169.385C124.607 170.362 123.819 171.15 122.843 171.15C121.866 171.15 121.078 170.362 121.078 169.385ZM125.018 147.921C123.545 147.921 122.363 149.12 122.363 150.576C122.363 152.032 123.545 153.231 125.018 153.231C126.492 153.231 127.674 152.032 127.674 150.576C127.674 149.103 126.474 147.921 125.018 147.921ZM124.179 129.146C124.179 127.261 125.704 125.737 127.588 125.737C129.472 125.737 130.997 127.261 130.997 129.146C130.997 131.03 129.472 132.555 127.588 132.555C125.704 132.555 124.179 131.03 124.179 129.146ZM131.12 103.694C133.357 104.223 134.742 106.465 134.214 108.702C133.686 110.939 131.444 112.325 129.206 111.797C126.969 111.268 125.584 109.026 126.112 106.789C126.64 104.551 128.882 103.166 131.12 103.694ZM104.702 174.472C104.702 173.496 105.49 172.708 106.466 172.708C107.442 172.708 108.23 173.496 108.23 174.472C108.23 175.449 107.442 176.237 106.466 176.237C105.49 176.237 104.702 175.449 104.702 174.472ZM107.888 151.622C106.329 151.622 105.078 152.872 105.078 154.431C105.078 155.99 106.329 157.241 107.888 157.241C109.447 157.241 110.697 155.99 110.697 154.431C110.697 152.872 109.447 151.622 107.888 151.622ZM104.924 131.87C104.924 129.814 106.586 128.135 108.659 128.135C110.731 128.135 112.393 129.797 112.393 131.87C112.393 133.942 110.731 135.604 108.659 135.604C106.586 135.604 104.924 133.925 104.924 131.87ZM114.38 109.087C114.38 111.651 112.302 113.729 109.738 113.729C107.174 113.729 105.095 111.651 105.095 109.087C105.095 106.523 107.174 104.444 109.738 104.444C112.302 104.444 114.38 106.523 114.38 109.087ZM87.1257 176.237C87.1257 175.261 87.9137 174.473 88.8901 174.473C89.8665 174.473 90.6545 175.261 90.6545 176.237C90.6545 177.214 89.8665 178.002 88.8901 178.002C87.9137 178.019 87.1257 177.214 87.1257 176.237ZM88.8901 152.135C86.9543 152.135 85.3783 153.711 85.3783 155.647C85.3783 157.6 86.9543 159.158 88.8901 159.158C90.8258 159.158 92.4018 157.582 92.4018 155.647C92.4018 153.711 90.8258 152.135 88.8901 152.135ZM88.8901 136.838C91.2175 136.838 93.1042 134.951 93.1042 132.624C93.1042 130.297 91.2175 128.41 88.8901 128.41C86.5627 128.41 84.676 130.297 84.676 132.624C84.676 134.951 86.5627 136.838 88.8901 136.838ZM88.8901 105.627C86.0293 105.627 83.6996 107.94 83.6996 110.818C83.6996 113.678 86.0293 116.008 88.8901 116.008C91.7509 116.008 94.0806 113.696 94.0806 110.818C94.0806 107.957 91.768 105.627 88.8901 105.627ZM27.443 148.917C28.4194 148.917 29.2074 149.705 29.2074 150.682C29.2074 151.658 28.4194 152.446 27.443 152.446C26.4666 152.446 25.6786 151.658 25.6786 150.682C25.6614 149.723 26.4666 148.917 27.443 148.917ZM42.1067 161.336C42.1067 160.36 41.3187 159.572 40.3422 159.572C39.3658 159.572 38.5778 160.36 38.5778 161.336C38.5778 162.312 39.3658 163.1 40.3422 163.1C41.3187 163.1 42.1067 162.312 42.1067 161.336ZM55.1601 167.624C56.1366 167.624 56.9246 168.412 56.9246 169.388C56.9246 170.365 56.1366 171.153 55.1601 171.153C54.1837 171.153 53.3957 170.365 53.3957 169.388C53.3957 168.412 54.1837 167.624 55.1601 167.624ZM73.3013 174.459C73.3013 173.482 72.5133 172.694 71.5369 172.694C70.5605 172.694 69.7725 173.499 69.7725 174.459C69.7725 175.435 70.5605 176.223 71.5369 176.223C72.5133 176.223 73.3013 175.435 73.3013 174.459ZM16.7879 136.018C17.7643 136.018 18.5523 136.806 18.5523 137.782C18.5523 138.759 17.7643 139.547 16.7879 139.547C15.8114 139.547 15.0234 138.759 15.0234 137.782C15.0063 136.806 15.8114 136.018 16.7879 136.018ZM36.368 142.783C36.368 141.464 35.3059 140.402 33.9868 140.402C32.6678 140.402 31.6057 141.464 31.6057 142.783C31.6057 144.102 32.6678 145.164 33.9868 145.164C35.3059 145.164 36.368 144.102 36.368 142.783ZM52.3849 146.057C53.961 146.057 55.2457 147.341 55.2457 148.917C55.2457 150.493 53.961 151.778 52.3849 151.778C50.8089 151.778 49.5242 150.493 49.5242 148.917C49.507 147.341 50.7918 146.057 52.3849 146.057ZM74.8945 153.577C74.8945 151.726 73.387 150.219 71.5369 150.219C69.6868 150.219 68.1965 151.709 68.1794 153.577C68.1794 155.427 69.6868 156.934 71.5369 156.934C73.387 156.934 74.8945 155.427 74.8945 153.577ZM8.73649 121.198C9.71292 121.198 10.5009 121.986 10.5009 122.963C10.5009 123.939 9.71292 124.727 8.73649 124.727C7.76005 124.727 6.97205 123.939 6.97205 122.963C6.97205 121.986 7.76005 121.198 8.73649 121.198ZM30.201 125.139C30.201 123.665 29.0019 122.483 27.5458 122.483C26.0897 122.483 24.9077 123.665 24.8906 125.139C24.8906 126.612 26.0897 127.794 27.5458 127.794C29.019 127.794 30.201 126.595 30.201 125.139ZM48.976 124.301C50.8604 124.301 52.385 125.825 52.385 127.71C52.385 129.594 50.8604 131.119 48.976 131.119C47.0917 131.119 45.567 129.594 45.567 127.71C45.567 125.825 47.0917 124.301 48.976 124.301ZM71.3515 126.243C73.5889 126.772 74.9744 129.014 74.4461 131.251C73.9177 133.488 71.6757 134.874 69.4383 134.346C67.2009 133.817 65.8154 131.575 66.3438 129.338C66.8721 127.101 69.1141 125.715 71.3515 126.243ZM3.66585 104.823C4.64229 104.823 5.43029 105.611 5.43029 106.587C5.43029 107.563 4.64229 108.351 3.66585 108.351C2.68941 108.351 1.88428 107.563 1.88428 106.587C1.88428 105.611 2.67228 104.823 3.66585 104.823ZM26.5009 108.009C26.5009 106.45 25.2503 105.199 23.6915 105.199C22.1497 105.199 20.882 106.45 20.882 108.009C20.882 109.568 22.1326 110.818 23.6915 110.818C25.2503 110.818 26.5009 109.568 26.5009 108.009ZM46.2694 105.029C48.325 105.029 50.0038 106.691 50.0038 108.763C50.0038 110.836 48.3421 112.498 46.2694 112.498C44.1966 112.498 42.5349 110.836 42.5349 108.763C42.5349 106.691 44.2137 105.029 46.2694 105.029ZM73.6782 109.842C73.6782 112.406 71.5997 114.484 69.0358 114.484C66.4719 114.484 64.3935 112.406 64.3935 109.842C64.3935 107.278 66.4719 105.199 69.0358 105.199C71.5997 105.199 73.6782 107.278 73.6782 109.842Z" fill="url(#paint0_linear)"/>
<path d="M183.716 50.7528C192.579 50.7528 197.949 45.2699 197.949 36.179C197.949 27.1165 192.579 21.6619 183.801 21.6619H173.403V50.7528H183.716ZM179.554 45.483V26.9318H183.474C188.929 26.9318 191.812 29.7159 191.812 36.179C191.812 42.6705 188.929 45.483 183.46 45.483H179.554Z" fill="black"/>
<path d="M212.334 51.179C217.732 51.179 221.369 48.5511 222.221 44.5028L216.624 44.1335C216.013 45.7955 214.451 46.6619 212.434 46.6619C209.408 46.6619 207.491 44.6591 207.491 41.4063V41.392H222.349V39.7301C222.349 32.3153 217.86 28.6506 212.093 28.6506C205.673 28.6506 201.511 33.2102 201.511 39.9432C201.511 46.8608 205.616 51.179 212.334 51.179ZM207.491 37.642C207.619 35.1563 209.508 33.1676 212.192 33.1676C214.82 33.1676 216.638 35.0426 216.653 37.642H207.491Z" fill="black"/>
<path d="M236.155 51.179C241.965 51.179 245.616 47.7699 245.9 42.7557H240.19C239.834 45.0852 238.3 46.392 236.227 46.392C233.4 46.392 231.567 44.0199 231.567 39.8438C231.567 35.7244 233.414 33.3665 236.227 33.3665C238.442 33.3665 239.863 34.8295 240.19 37.0028H245.9C245.644 31.9602 241.823 28.6506 236.127 28.6506C229.508 28.6506 225.417 33.2386 225.417 39.929C225.417 46.5625 229.437 51.179 236.155 51.179Z" fill="black"/>
<path d="M259.717 51.179C265.115 51.179 268.751 48.5511 269.604 44.5028L264.007 44.1335C263.396 45.7955 261.834 46.6619 259.817 46.6619C256.791 46.6619 254.874 44.6591 254.874 41.4063V41.392H269.731V39.7301C269.731 32.3153 265.243 28.6506 259.476 28.6506C253.055 28.6506 248.893 33.2102 248.893 39.9432C248.893 46.8608 252.999 51.179 259.717 51.179ZM254.874 37.642C255.001 35.1563 256.891 33.1676 259.575 33.1676C262.203 33.1676 264.021 35.0426 264.035 37.642H254.874Z" fill="black"/>
<path d="M279.731 38.1392C279.746 35.3267 281.422 33.679 283.865 33.679C286.294 33.679 287.757 35.2699 287.743 37.9403V50.7528H293.794V36.8608C293.794 31.7756 290.811 28.6506 286.266 28.6506C283.027 28.6506 280.683 30.2415 279.703 32.7841H279.447V28.9347H273.68V50.7528H279.731V38.1392Z" fill="black"/>
<path d="M310.168 28.9347H306.063V23.7074H300.012V28.9347H297.029V33.4801H300.012V44.8438C299.984 49.1193 302.896 51.2358 307.285 51.0511C308.847 50.9943 309.955 50.6818 310.566 50.483L309.614 45.9801C309.316 46.0369 308.677 46.179 308.109 46.179C306.901 46.179 306.063 45.7244 306.063 44.0483V33.4801H310.168V28.9347Z" fill="black"/>
<path d="M314.11 50.7528H320.161V38.4091C320.161 35.7244 322.121 33.8778 324.792 33.8778C325.63 33.8778 326.781 34.0199 327.349 34.2045V28.8352C326.809 28.7074 326.056 28.6222 325.445 28.6222C323.002 28.6222 320.999 30.0426 320.204 32.7415H319.977V28.9347H314.11V50.7528Z" fill="black"/>
<path d="M336.074 51.1648C339.298 51.1648 341.386 49.7585 342.452 47.7273H342.622V50.7528H348.361V36.0369C348.361 30.8381 343.957 28.6506 339.099 28.6506C333.872 28.6506 330.435 31.1506 329.597 35.1278L335.193 35.5824C335.605 34.1335 336.898 33.0682 339.071 33.0682C341.131 33.0682 342.31 34.1051 342.31 35.8949V35.9801C342.31 37.3864 340.818 37.571 337.026 37.9403C332.707 38.3381 328.829 39.7869 328.829 44.6591C328.829 48.9773 331.912 51.1648 336.074 51.1648ZM337.807 46.9886C335.946 46.9886 334.611 46.1222 334.611 44.4602C334.611 42.7557 336.017 41.9176 338.148 41.6193C339.469 41.4347 341.628 41.1222 342.352 40.6392V42.9545C342.352 45.2415 340.463 46.9886 337.807 46.9886Z" fill="black"/>
<path d="M359.106 21.6619H353.055V50.7528H359.106V21.6619Z" fill="black"/>
<path d="M363.954 50.7528H370.005V28.9347H363.954V50.7528ZM366.994 26.1222C368.798 26.1222 370.275 24.7443 370.275 23.054C370.275 21.3778 368.798 20 366.994 20C365.204 20 363.727 21.3778 363.727 23.054C363.727 24.7443 365.204 26.1222 366.994 26.1222Z" fill="black"/>
<path d="M374.739 50.7528H393.077V45.9233H382.679V45.767L392.707 32.8693V28.9347H375.108V33.7642H385.42V33.9205L374.739 47.1449V50.7528Z" fill="black"/>
<path d="M407.022 51.179C412.42 51.179 416.056 48.5511 416.908 44.5028L411.312 44.1335C410.701 45.7955 409.138 46.6619 407.121 46.6619C404.096 46.6619 402.178 44.6591 402.178 41.4063V41.392H417.036V39.7301C417.036 32.3153 412.548 28.6506 406.78 28.6506C400.36 28.6506 396.198 33.2102 396.198 39.9432C396.198 46.8608 400.303 51.179 407.022 51.179ZM402.178 37.642C402.306 35.1563 404.195 33.1676 406.88 33.1676C409.508 33.1676 411.326 35.0426 411.34 37.642H402.178Z" fill="black"/>
<path d="M429.025 51.108C432.548 51.108 434.38 49.0767 435.218 47.2585H435.474V50.7528H441.44V21.6619H435.403V32.5994H435.218C434.408 30.8239 432.661 28.6506 429.011 28.6506C424.224 28.6506 420.175 32.3722 420.175 39.8722C420.175 47.1733 424.053 51.108 429.025 51.108ZM430.942 46.2926C427.974 46.2926 426.354 43.6506 426.354 39.8438C426.354 36.0653 427.945 33.4659 430.942 33.4659C433.883 33.4659 435.53 35.9517 435.53 39.8438C435.53 43.7358 433.854 46.2926 430.942 46.2926Z" fill="black"/>
<path d="M121.709 74.733H130.616V98.7528H136.695V74.733H145.602V69.6619H121.709V74.733Z" fill="black"/>
<path d="M147.157 98.7528H153.208V86.4091C153.208 83.7244 155.168 81.8778 157.839 81.8778C158.677 81.8778 159.827 82.0199 160.396 82.2045V76.8352C159.856 76.7074 159.103 76.6222 158.492 76.6222C156.049 76.6222 154.046 78.0426 153.251 80.7415H153.023V76.9347H147.157V98.7528Z" fill="black"/>
<path d="M169.121 99.1648C172.345 99.1648 174.433 97.7585 175.499 95.7273H175.669V98.7528H181.408V84.0369C181.408 78.8381 177.004 76.6506 172.146 76.6506C166.919 76.6506 163.481 79.1506 162.643 83.1278L168.24 83.5824C168.652 82.1335 169.945 81.0682 172.118 81.0682C174.178 81.0682 175.356 82.1051 175.356 83.8949V83.9801C175.356 85.3864 173.865 85.571 170.072 85.9403C165.754 86.3381 161.876 87.7869 161.876 92.6591C161.876 96.9773 164.959 99.1648 169.121 99.1648ZM170.854 94.9886C168.993 94.9886 167.658 94.1222 167.658 92.4602C167.658 90.7557 169.064 89.9176 171.195 89.6193C172.516 89.4347 174.675 89.1222 175.399 88.6392V90.9545C175.399 93.2415 173.51 94.9886 170.854 94.9886Z" fill="black"/>
<path d="M194.142 99.108C197.665 99.108 199.497 97.0767 200.335 95.2585H200.591V98.7528H206.557V69.6619H200.52V80.5994H200.335C199.526 78.8239 197.778 76.6506 194.128 76.6506C189.341 76.6506 185.293 80.3722 185.293 87.8722C185.293 95.1733 189.17 99.108 194.142 99.108ZM196.06 94.2926C193.091 94.2926 191.472 91.6506 191.472 87.8438C191.472 84.0653 193.062 81.4659 196.06 81.4659C199 81.4659 200.648 83.9517 200.648 87.8438C200.648 91.7358 198.972 94.2926 196.06 94.2926Z" fill="black"/>
<path d="M211.532 98.7528H217.583V76.9347H211.532V98.7528ZM214.572 74.1222C216.376 74.1222 217.853 72.7443 217.853 71.054C217.853 69.3778 216.376 68 214.572 68C212.782 68 211.305 69.3778 211.305 71.054C211.305 72.7443 212.782 74.1222 214.572 74.1222Z" fill="black"/>
<path d="M228.481 86.1392C228.496 83.3267 230.172 81.679 232.615 81.679C235.044 81.679 236.507 83.2699 236.493 85.9403V98.7528H242.544V84.8608C242.544 79.7756 239.561 76.6506 235.016 76.6506C231.777 76.6506 229.433 78.2415 228.453 80.7841H228.197V76.9347H222.43V98.7528H228.481V86.1392Z" fill="black"/>
<path d="M257.143 107.389C263.379 107.389 267.81 104.548 267.81 98.9659V76.9347H261.802V80.5994H261.575C260.765 78.8239 258.989 76.6506 255.339 76.6506C250.552 76.6506 246.504 80.3722 246.504 87.8011C246.504 95.0597 250.438 98.4403 255.353 98.4403C258.833 98.4403 260.779 96.6932 261.575 94.8892H261.83V98.8807C261.83 101.878 259.913 103.043 257.285 103.043C254.614 103.043 253.265 101.878 252.768 100.557L247.171 101.31C247.896 104.747 251.262 107.389 257.143 107.389ZM257.271 93.8949C254.302 93.8949 252.682 91.5369 252.682 87.7727C252.682 84.0653 254.273 81.4659 257.271 81.4659C260.211 81.4659 261.859 83.9517 261.859 87.7727C261.859 91.6222 260.182 93.8949 257.271 93.8949Z" fill="black"/>
<path d="M281.997 98.7528H288.148V89.321H293.318C300.008 89.321 303.901 85.3295 303.901 79.5199C303.901 73.7386 300.079 69.6619 293.474 69.6619H281.997V98.7528ZM288.148 84.392V74.6903H292.295C295.847 74.6903 297.565 76.6222 297.565 79.5199C297.565 82.4034 295.847 84.392 292.324 84.392H288.148Z" fill="black"/>
<path d="M307.782 98.7528H313.833V86.4091C313.833 83.7244 315.793 81.8778 318.464 81.8778C319.302 81.8778 320.452 82.0199 321.021 82.2045V76.8352C320.481 76.7074 319.728 76.6222 319.117 76.6222C316.674 76.6222 314.671 78.0426 313.876 80.7415H313.648V76.9347H307.782V98.7528Z" fill="black"/>
<path d="M332.991 99.179C339.611 99.179 343.73 94.6477 343.73 87.929C343.73 81.1676 339.611 76.6506 332.991 76.6506C326.372 76.6506 322.253 81.1676 322.253 87.929C322.253 94.6477 326.372 99.179 332.991 99.179ZM333.02 94.4915C329.966 94.4915 328.403 91.6932 328.403 87.8864C328.403 84.0796 329.966 81.267 333.02 81.267C336.017 81.267 337.579 84.0796 337.579 87.8864C337.579 91.6932 336.017 94.4915 333.02 94.4915Z" fill="black"/>
<path d="M359.27 76.9347H355.165V71.7074H349.114V76.9347H346.131V81.4801H349.114V92.8438C349.085 97.1193 351.997 99.2358 356.386 99.0511C357.949 98.9943 359.057 98.6818 359.668 98.483L358.716 93.9801C358.418 94.0369 357.778 94.179 357.21 94.179C356.003 94.179 355.165 93.7244 355.165 92.0483V81.4801H359.27V76.9347Z" fill="black"/>
<path d="M372.835 99.179C379.454 99.179 383.574 94.6477 383.574 87.929C383.574 81.1676 379.454 76.6506 372.835 76.6506C366.216 76.6506 362.097 81.1676 362.097 87.929C362.097 94.6477 366.216 99.179 372.835 99.179ZM372.864 94.4915C369.81 94.4915 368.247 91.6932 368.247 87.8864C368.247 84.0796 369.81 81.267 372.864 81.267C375.861 81.267 377.423 84.0796 377.423 87.8864C377.423 91.6932 375.861 94.4915 372.864 94.4915Z" fill="black"/>
<path d="M397.366 99.179C403.176 99.179 406.827 95.7699 407.111 90.7557H401.401C401.045 93.0852 399.511 94.392 397.437 94.392C394.611 94.392 392.778 92.0199 392.778 87.8438C392.778 83.7244 394.625 81.3665 397.437 81.3665C399.653 81.3665 401.074 82.8295 401.401 85.0028H407.111C406.855 79.9602 403.034 76.6506 397.338 76.6506C390.719 76.6506 386.628 81.2386 386.628 87.929C386.628 94.5625 390.648 99.179 397.366 99.179Z" fill="black"/>
<path d="M420.843 99.179C427.462 99.179 431.582 94.6477 431.582 87.929C431.582 81.1676 427.462 76.6506 420.843 76.6506C414.224 76.6506 410.104 81.1676 410.104 87.929C410.104 94.6477 414.224 99.179 420.843 99.179ZM420.871 94.4915C417.817 94.4915 416.255 91.6932 416.255 87.8864C416.255 84.0796 417.817 81.267 420.871 81.267C423.869 81.267 425.431 84.0796 425.431 87.8864C425.431 91.6932 423.869 94.4915 420.871 94.4915Z" fill="black"/>
<path d="M441.567 69.6619H435.516V98.7528H441.567V69.6619Z" fill="black"/>
<defs>
<linearGradient id="paint0_linear" x1="0" y1="0" x2="190.7" y2="15.1268" gradientUnits="userSpaceOnUse">
<stop stop-color="#FF8212"/>
<stop offset="1" stop-color="#ED4454"/>
</linearGradient>
</defs>
</svg>
