<svg width="395" height="154" viewBox="0 0 395 154" fill="none" xmlns="http://www.w3.org/2000/svg">
<path fill-rule="evenodd" clip-rule="evenodd" d="M310.835 1.94376C310.835 3.01726 309.965 3.88751 308.892 3.88751C307.818 3.88751 306.948 3.01726 306.948 1.94376C306.948 0.870249 307.818 0 308.892 0C309.965 0 310.835 0.870249 310.835 1.94376ZM322.323 20.1759C322.323 21.7861 321.018 23.0915 319.408 23.0915C317.797 23.0915 316.492 21.7861 316.492 20.1759C316.492 18.5656 317.797 17.2602 319.408 17.2602C321.018 17.2602 322.323 18.5656 322.323 20.1759ZM382.541 132.409C384.151 132.409 385.456 131.104 385.456 129.493C385.456 127.883 384.151 126.578 382.541 126.578C380.93 126.578 379.625 127.883 379.625 129.493C379.625 131.104 380.93 132.409 382.541 132.409ZM395 147.725C395 148.799 394.13 149.669 393.056 149.669C391.983 149.669 391.112 148.799 391.112 147.725C391.112 146.652 391.983 145.782 393.056 145.782C394.13 145.782 395 146.652 395 147.725ZM301.291 20.1759C301.291 21.7861 299.986 23.0915 298.376 23.0915C296.765 23.0915 295.46 21.7861 295.46 20.1759C295.46 18.5656 296.765 17.2602 298.376 17.2602C299.986 17.2602 301.291 18.5656 301.291 20.1759ZM329.942 42.2769C332.089 42.2769 333.829 40.5364 333.829 38.3894C333.829 36.2424 332.089 34.5019 329.942 34.5019C327.795 34.5019 326.054 36.2424 326.054 38.3894C326.054 40.5364 327.795 42.2769 329.942 42.2769ZM312.778 38.3894C312.778 40.5364 311.038 42.2769 308.891 42.2769C306.744 42.2769 305.003 40.5364 305.003 38.3894C305.003 36.2424 306.744 34.5019 308.891 34.5019C311.038 34.5019 312.778 36.2424 312.778 38.3894ZM287.86 42.2766C290.007 42.2766 291.747 40.5361 291.747 38.3891C291.747 36.2421 290.007 34.5016 287.86 34.5016C285.713 34.5016 283.972 36.2421 283.972 38.3891C283.972 40.5361 285.713 42.2766 287.86 42.2766ZM345.317 56.6027C345.317 59.2865 343.141 61.4621 340.457 61.4621C337.774 61.4621 335.598 59.2865 335.598 56.6027C335.598 53.9189 337.774 51.7433 340.457 51.7433C343.141 51.7433 345.317 53.9189 345.317 56.6027ZM319.407 61.4621C322.091 61.4621 324.266 59.2865 324.266 56.6027C324.266 53.9189 322.091 51.7433 319.407 51.7433C316.723 51.7433 314.548 53.9189 314.548 56.6027C314.548 59.2865 316.723 61.4621 319.407 61.4621ZM303.235 56.6027C303.235 59.2865 301.059 61.4621 298.376 61.4621C295.692 61.4621 293.516 59.2865 293.516 56.6027C293.516 53.9189 295.692 51.7433 298.376 51.7433C301.059 51.7433 303.235 53.9189 303.235 56.6027ZM277.325 61.4618C280.009 61.4618 282.184 59.2861 282.184 56.6024C282.184 53.9186 280.009 51.743 277.325 51.743C274.641 51.743 272.466 53.9186 272.466 56.6024C272.466 59.2861 274.641 61.4618 277.325 61.4618ZM304.207 129.493C304.207 132.714 301.597 135.324 298.376 135.324C295.155 135.324 292.545 132.714 292.545 129.493C292.545 126.272 295.155 123.662 298.376 123.662C301.597 123.662 304.207 126.272 304.207 129.493ZM308.891 153.557C312.112 153.557 314.723 150.946 314.723 147.725C314.723 144.505 312.112 141.894 308.891 141.894C305.671 141.894 303.06 144.505 303.06 147.725C303.06 150.946 305.671 153.557 308.891 153.557ZM325.239 129.493C325.239 132.714 322.628 135.324 319.407 135.324C316.187 135.324 313.576 132.714 313.576 129.493C313.576 126.272 316.187 123.662 319.407 123.662C322.628 123.662 325.239 126.272 325.239 129.493ZM287.86 117.111C291.081 117.111 293.692 114.501 293.692 111.28C293.692 108.06 291.081 105.449 287.86 105.449C284.64 105.449 282.029 108.06 282.029 111.28C282.029 114.501 284.64 117.111 287.86 117.111ZM314.723 111.28C314.723 114.5 312.112 117.111 308.892 117.111C305.671 117.111 303.06 114.5 303.06 111.28C303.06 108.059 305.671 105.448 308.892 105.448C312.112 105.448 314.723 108.059 314.723 111.28ZM329.942 117.111C333.163 117.111 335.773 114.5 335.773 111.28C335.773 108.059 333.163 105.448 329.942 105.448C326.721 105.448 324.111 108.059 324.111 111.28C324.111 114.5 326.721 117.111 329.942 117.111ZM283.157 93.0676C283.157 96.2882 280.546 98.8989 277.325 98.8989C274.105 98.8989 271.494 96.2882 271.494 93.0676C271.494 89.8471 274.105 87.2364 277.325 87.2364C280.546 87.2364 283.157 89.8471 283.157 93.0676ZM298.376 98.8979C301.597 98.8979 304.208 96.2872 304.208 93.0667C304.208 89.8461 301.597 87.2354 298.376 87.2354C295.156 87.2354 292.545 89.8461 292.545 93.0667C292.545 96.2872 295.156 98.8979 298.376 98.8979ZM325.239 93.0667C325.239 96.2872 322.628 98.8979 319.408 98.8979C316.187 98.8979 313.577 96.2872 313.577 93.0667C313.577 89.8461 316.187 87.2354 319.408 87.2354C322.628 87.2354 325.239 89.8461 325.239 93.0667ZM340.459 98.8979C343.679 98.8979 346.29 96.2872 346.29 93.0667C346.29 89.8461 343.679 87.2354 340.459 87.2354C337.238 87.2354 334.628 89.8461 334.628 93.0667C334.628 96.2872 337.238 98.8979 340.459 98.8979ZM356.805 74.8346C356.805 78.0551 354.194 80.6659 350.973 80.6659C347.753 80.6659 345.142 78.0551 345.142 74.8346C345.142 71.6141 347.753 69.0033 350.973 69.0033C354.194 69.0033 356.805 71.6141 356.805 74.8346ZM329.942 80.6659C333.163 80.6659 335.773 78.0551 335.773 74.8346C335.773 71.6141 333.163 69.0033 329.942 69.0033C326.721 69.0033 324.111 71.6141 324.111 74.8346C324.111 78.0551 326.721 80.6659 329.942 80.6659ZM314.723 74.8346C314.723 78.0551 312.112 80.6659 308.891 80.6659C305.671 80.6659 303.06 78.0551 303.06 74.8346C303.06 71.6141 305.671 69.0033 308.891 69.0033C312.112 69.0033 314.723 71.6141 314.723 74.8346ZM287.86 80.6659C291.081 80.6659 293.692 78.0551 293.692 74.8346C293.692 71.6141 291.081 69.0033 287.86 69.0033C284.64 69.0033 282.029 71.6141 282.029 74.8346C282.029 78.0551 284.64 80.6659 287.86 80.6659ZM272.641 74.8346C272.641 78.0551 270.03 80.6659 266.81 80.6659C263.589 80.6659 260.978 78.0551 260.978 74.8346C260.978 71.6141 263.589 69.0033 266.81 69.0033C270.03 69.0033 272.641 71.6141 272.641 74.8346ZM235.242 132.409C236.853 132.409 238.158 131.104 238.158 129.493C238.158 127.883 236.853 126.578 235.242 126.578C233.632 126.578 232.327 127.883 232.327 129.493C232.327 131.104 233.632 132.409 235.242 132.409ZM226.671 147.725C226.671 148.799 225.8 149.669 224.727 149.669C223.653 149.669 222.783 148.799 222.783 147.725C222.783 146.652 223.653 145.782 224.727 145.782C225.8 145.782 226.671 146.652 226.671 147.725ZM374.94 147.725C374.94 149.336 373.635 150.641 372.024 150.641C370.414 150.641 369.109 149.336 369.109 147.725C369.109 146.115 370.414 144.81 372.024 144.81C373.635 144.81 374.94 146.115 374.94 147.725ZM372.024 115.167C374.171 115.167 375.912 113.427 375.912 111.28C375.912 109.133 374.171 107.392 372.024 107.392C369.877 107.392 368.137 109.133 368.137 111.28C368.137 113.427 369.877 115.167 372.024 115.167ZM365.377 129.493C365.377 131.64 363.636 133.38 361.489 133.38C359.342 133.38 357.602 131.64 357.602 129.493C357.602 127.346 359.342 125.605 361.489 125.605C363.636 125.605 365.377 127.346 365.377 129.493ZM350.974 151.613C353.121 151.613 354.861 149.872 354.861 147.725C354.861 145.578 353.121 143.837 350.974 143.837C348.826 143.837 347.086 145.578 347.086 147.725C347.086 149.872 348.826 151.613 350.974 151.613ZM366.348 93.0664C366.348 95.7502 364.173 97.9258 361.489 97.9258C358.805 97.9258 356.63 95.7502 356.63 93.0664C356.63 90.3827 358.805 88.207 361.489 88.207C364.173 88.207 366.348 90.3827 366.348 93.0664ZM350.973 116.139C353.657 116.139 355.833 113.963 355.833 111.279C355.833 108.596 353.657 106.42 350.973 106.42C348.29 106.42 346.114 108.596 346.114 111.279C346.114 113.963 348.29 116.139 350.973 116.139ZM345.317 129.493C345.317 132.177 343.141 134.352 340.458 134.352C337.774 134.352 335.598 132.177 335.598 129.493C335.598 126.809 337.774 124.634 340.458 124.634C343.141 124.634 345.317 126.809 345.317 129.493ZM329.942 152.585C332.626 152.585 334.801 150.409 334.801 147.725C334.801 145.042 332.626 142.866 329.942 142.866C327.258 142.866 325.082 145.042 325.082 147.725C325.082 150.409 327.258 152.585 329.942 152.585ZM261.153 93.067C261.153 95.7508 258.978 97.9264 256.294 97.9264C253.61 97.9264 251.435 95.7508 251.435 93.067C251.435 90.3832 253.61 88.2076 256.294 88.2076C258.978 88.2076 261.153 90.3832 261.153 93.067ZM266.809 116.139C269.493 116.139 271.669 113.964 271.669 111.28C271.669 108.596 269.493 106.421 266.809 106.421C264.125 106.421 261.95 108.596 261.95 111.28C261.95 113.964 264.125 116.139 266.809 116.139ZM282.185 129.494C282.185 132.177 280.009 134.353 277.325 134.353C274.642 134.353 272.466 132.177 272.466 129.494C272.466 126.81 274.642 124.634 277.325 124.634C280.009 124.634 282.185 126.81 282.185 129.494ZM287.86 152.585C290.544 152.585 292.719 150.41 292.719 147.726C292.719 145.042 290.544 142.866 287.86 142.866C285.176 142.866 283.001 145.042 283.001 147.726C283.001 150.41 285.176 152.585 287.86 152.585ZM249.665 111.28C249.665 113.427 247.925 115.167 245.778 115.167C243.631 115.167 241.89 113.427 241.89 111.28C241.89 109.133 243.631 107.392 245.778 107.392C247.925 107.392 249.665 109.133 249.665 111.28ZM256.293 133.38C258.44 133.38 260.181 131.64 260.181 129.493C260.181 127.346 258.44 125.605 256.293 125.605C254.146 125.605 252.406 127.346 252.406 129.493C252.406 131.64 254.146 133.38 256.293 133.38ZM270.697 147.725C270.697 149.872 268.957 151.613 266.81 151.613C264.663 151.613 262.922 149.872 262.922 147.725C262.922 145.578 264.663 143.838 266.81 143.838C268.957 143.838 270.697 145.578 270.697 147.725ZM245.778 150.641C247.388 150.641 248.694 149.336 248.694 147.725C248.694 146.115 247.388 144.81 245.778 144.81C244.168 144.81 242.863 146.115 242.863 147.725C242.863 149.336 244.168 150.641 245.778 150.641Z" fill="url(#paint0_linear)"/>
<path d="M10.3084 46.3011C19.1685 46.3011 24.5357 40.8204 24.5357 31.7331C24.5357 22.6742 19.1685 17.2218 10.3936 17.2218H0V46.3011H10.3084ZM6.14812 41.0334V22.4896H10.067C15.5194 22.4896 18.4018 25.2726 18.4018 31.7331C18.4018 38.222 15.5194 41.0334 10.0528 41.0334H6.14812Z" fill="black"/>
<path d="M38.9156 46.7271C44.3112 46.7271 47.9461 44.1003 48.798 40.0536L43.2037 39.6845C42.5931 41.3457 41.0312 42.2119 39.015 42.2119C35.9906 42.2119 34.0738 40.2098 34.0738 36.9583V36.9441H48.9258V35.2828C48.9258 27.871 44.439 24.2077 38.6742 24.2077C32.2563 24.2077 28.0961 28.7655 28.0961 35.4958C28.0961 42.4106 32.1995 46.7271 38.9156 46.7271ZM34.0738 33.1956C34.2016 30.7108 36.09 28.7229 38.7736 28.7229C41.4004 28.7229 43.2179 30.5972 43.2321 33.1956H34.0738Z" fill="black"/>
<path d="M62.7271 46.7271C68.5345 46.7271 72.1836 43.3194 72.4676 38.3072H66.7596C66.4047 40.6358 64.8712 41.9421 62.7981 41.9421C59.9726 41.9421 58.1409 39.5709 58.1409 35.3964C58.1409 31.2787 59.9868 28.9217 62.7981 28.9217C65.0132 28.9217 66.4331 30.3842 66.7596 32.5566H72.4676C72.212 27.516 68.3925 24.2077 62.6987 24.2077C56.0821 24.2077 51.9928 28.7939 51.9928 35.4816C51.9928 42.1125 56.0111 46.7271 62.7271 46.7271Z" fill="black"/>
<path d="M86.2796 46.7271C91.6751 46.7271 95.3101 44.1003 96.162 40.0536L90.5676 39.6845C89.9571 41.3457 88.3952 42.2119 86.379 42.2119C83.3546 42.2119 81.4377 40.2098 81.4377 36.9583V36.9441H96.2898V35.2828C96.2898 27.871 91.8029 24.2077 86.0382 24.2077C79.6203 24.2077 75.46 28.7655 75.46 35.4958C75.46 42.4106 79.5635 46.7271 86.2796 46.7271ZM81.4377 33.1956C81.5655 30.7108 83.454 28.7229 86.1376 28.7229C88.7644 28.7229 90.5818 30.5972 90.596 33.1956H81.4377Z" fill="black"/>
<path d="M106.286 33.6925C106.3 30.8811 107.975 29.2341 110.418 29.2341C112.846 29.2341 114.308 30.8244 114.294 33.4937V46.3011H120.343V32.4146C120.343 27.3314 117.361 24.2077 112.817 24.2077C109.58 24.2077 107.237 25.7979 106.257 28.3395H106.002V24.4916H100.237V46.3011H106.286V33.6925Z" fill="black"/>
<path d="M136.71 24.4916H132.607V19.2665H126.558V24.4916H123.576V29.0353H126.558V40.3944C126.53 44.6683 129.441 46.7839 133.828 46.5993C135.39 46.5425 136.497 46.2301 137.108 46.0314L136.157 41.5303C135.859 41.5871 135.22 41.7291 134.652 41.7291C133.445 41.7291 132.607 41.2747 132.607 39.5993V29.0353H136.71V24.4916Z" fill="black"/>
<path d="M140.651 46.3011H146.699V33.9623C146.699 31.2787 148.659 29.4329 151.328 29.4329C152.166 29.4329 153.316 29.5749 153.884 29.7594V24.3923C153.344 24.2645 152.592 24.1793 151.981 24.1793C149.539 24.1793 147.537 25.5992 146.742 28.297H146.515V24.4916H140.651V46.3011Z" fill="black"/>
<path d="M162.606 46.7129C165.829 46.7129 167.916 45.3072 168.981 43.2768H169.151V46.3011H174.888V31.5911C174.888 26.3943 170.486 24.2077 165.63 24.2077C160.405 24.2077 156.969 26.7067 156.131 30.6824L161.725 31.1367C162.137 29.6884 163.429 28.6235 165.602 28.6235C167.661 28.6235 168.839 29.66 168.839 31.4491V31.5343C168.839 32.94 167.348 33.1246 163.557 33.4937C159.241 33.8913 155.364 35.3396 155.364 40.2098C155.364 44.5263 158.445 46.7129 162.606 46.7129ZM164.338 42.5384C162.478 42.5384 161.143 41.6723 161.143 40.011C161.143 38.3072 162.549 37.4694 164.679 37.1713C165.999 36.9867 168.157 36.6743 168.882 36.1915V38.506C168.882 40.792 166.993 42.5384 164.338 42.5384Z" fill="black"/>
<path d="M185.629 17.2218H179.58V46.3011H185.629V17.2218Z" fill="black"/>
<path d="M190.475 46.3011H196.523V24.4916H190.475V46.3011ZM193.513 21.6803C195.316 21.6803 196.793 20.303 196.793 18.6133C196.793 16.9378 195.316 15.5605 193.513 15.5605C191.724 15.5605 190.247 16.9378 190.247 18.6133C190.247 20.303 191.724 21.6803 193.513 21.6803Z" fill="black"/>
<path d="M201.255 46.3011H219.586V41.4735H209.192V41.3173L219.217 28.4247V24.4916H201.624V29.3193H211.933V29.4755L201.255 42.6946V46.3011Z" fill="black"/>
<path d="M233.526 46.7271C238.921 46.7271 242.556 44.1003 243.408 40.0536L237.814 39.6845C237.203 41.3457 235.641 42.2119 233.625 42.2119C230.601 42.2119 228.684 40.2098 228.684 36.9583V36.9441H243.536V35.2828C243.536 27.871 239.049 24.2077 233.284 24.2077C226.866 24.2077 222.706 28.7655 222.706 35.4958C222.706 42.4106 226.81 46.7271 233.526 46.7271ZM228.684 33.1956C228.812 30.7108 230.7 28.7229 233.384 28.7229C236.01 28.7229 237.828 30.5972 237.842 33.1956H228.684Z" fill="black"/>
<path d="M255.52 46.6561C259.041 46.6561 260.873 44.6257 261.71 42.8082H261.966V46.3011H267.93V17.2218H261.895V28.155H261.71C260.901 26.3801 259.155 24.2077 255.505 24.2077C250.72 24.2077 246.674 27.9278 246.674 35.4248C246.674 42.723 250.55 46.6561 255.52 46.6561ZM257.437 41.8427C254.469 41.8427 252.85 39.2017 252.85 35.3964C252.85 31.6195 254.441 29.0211 257.437 29.0211C260.376 29.0211 262.023 31.5059 262.023 35.3964C262.023 39.2869 260.347 41.8427 257.437 41.8427Z" fill="black"/>
<path d="M0 65.2027V94.282H5.96353V75.2839H6.20492L13.7303 94.14H17.7912L25.3166 75.3549H25.558V94.282H31.5215V65.2027H23.9393L15.9312 84.7404H15.5904L7.58221 65.2027H0Z" fill="black"/>
<path d="M46.3274 94.708C52.9441 94.708 57.0618 90.1785 57.0618 83.4625C57.0618 76.7038 52.9441 72.1886 46.3274 72.1886C39.7108 72.1886 35.5931 76.7038 35.5931 83.4625C35.5931 90.1785 39.7108 94.708 46.3274 94.708ZM46.3558 90.0224C43.3031 90.0224 41.7412 87.2252 41.7412 83.4199C41.7412 79.6146 43.3031 76.8032 46.3558 76.8032C49.3518 76.8032 50.9137 79.6146 50.9137 83.4199C50.9137 87.2252 49.3518 90.0224 46.3558 90.0224Z" fill="black"/>
<path d="M67.0436 81.6734C67.0578 78.862 68.7333 77.215 71.1755 77.215C73.6035 77.215 75.066 78.8052 75.0518 81.4746V94.282H81.1005V80.3955C81.1005 75.3123 78.1187 72.1886 73.5751 72.1886C70.3378 72.1886 67.9949 73.7788 67.0152 76.3204H66.7596V72.4725H60.9949V94.282H67.0436V81.6734Z" fill="black"/>
<path d="M95.807 94.708C101.203 94.708 104.838 92.0812 105.689 88.0345L100.095 87.6653C99.4845 89.3266 97.9227 90.1927 95.9064 90.1927C92.882 90.1927 90.9652 88.1907 90.9652 84.9392V84.925H105.817V83.2637C105.817 75.8519 101.33 72.1886 95.5656 72.1886C89.1477 72.1886 84.9875 76.7464 84.9875 83.4767C84.9875 90.3915 89.0909 94.708 95.807 94.708ZM90.9652 81.1764C91.093 78.6916 92.9814 76.7038 95.665 76.7038C98.2918 76.7038 100.109 78.5781 100.123 81.1764H90.9652Z" fill="black"/>
<path d="M112.874 102.461C117.375 102.461 119.761 100.16 120.996 96.639L129.473 72.4725H123.069L118.511 88.4889H118.284L113.769 72.4725H107.408L115.231 94.9068L114.876 95.8297C114.081 97.8743 112.562 97.9737 110.432 97.3206L109.069 101.836C109.935 102.205 111.341 102.461 112.874 102.461Z" fill="black"/>
<path d="M141.936 65.2027V94.282H147.899V75.2839H148.141L155.666 94.14H159.727L167.252 75.3549H167.494V94.282H173.457V65.2027H165.875L157.867 84.7404H157.526L149.518 65.2027H141.936Z" fill="black"/>
<path d="M184.628 94.6938C187.851 94.6938 189.939 93.2881 191.003 91.2577H191.174V94.282H196.91V79.572C196.91 74.3752 192.509 72.1886 187.653 72.1886C182.427 72.1886 178.991 74.6876 178.153 78.6632L183.748 79.1176C184.16 77.6693 185.452 76.6044 187.624 76.6044C189.683 76.6044 190.861 77.6409 190.861 79.43V79.5152C190.861 80.9209 189.371 81.1055 185.579 81.4746C181.263 81.8722 177.387 83.3205 177.387 88.1907C177.387 92.5072 180.468 94.6938 184.628 94.6938ZM186.36 90.5193C184.5 90.5193 183.166 89.6532 183.166 87.9919C183.166 86.288 184.571 85.4503 186.701 85.1521C188.022 84.9676 190.18 84.6552 190.904 84.1724V86.4868C190.904 88.7729 189.016 90.5193 186.36 90.5193Z" fill="black"/>
<path d="M201.603 94.282H207.652V81.9432C207.652 79.2596 209.611 77.4137 212.281 77.4137C213.118 77.4137 214.268 77.5557 214.836 77.7403V72.3731C214.297 72.2453 213.544 72.1602 212.934 72.1602C210.491 72.1602 208.489 73.58 207.694 76.2778H207.467V72.4725H201.603V94.282Z" fill="black"/>
<path d="M217.964 94.282H224.012V87.353L225.645 85.4929L231.595 94.282H238.68L230.175 81.9148L238.268 72.4725H231.325L224.339 80.7505H224.012V65.2027H217.964V94.282Z" fill="black"/>
<path d="M250.277 94.708C255.672 94.708 259.307 92.0812 260.159 88.0345L254.565 87.6653C253.954 89.3266 252.392 90.1927 250.376 90.1927C247.352 90.1927 245.435 88.1907 245.435 84.9392V84.925H260.287V83.2637C260.287 75.8519 255.8 72.1886 250.035 72.1886C243.617 72.1886 239.457 76.7464 239.457 83.4767C239.457 90.3915 243.561 94.708 250.277 94.708ZM245.435 81.1764C245.563 78.6916 247.451 76.7038 250.135 76.7038C252.762 76.7038 254.579 78.5781 254.593 81.1764H245.435Z" fill="black"/>
<path d="M275.835 72.4725H271.731V67.2473H265.683V72.4725H262.701V77.0162H265.683V88.3753C265.654 92.6491 268.565 94.7648 272.952 94.5802C274.514 94.5234 275.622 94.211 276.232 94.0122L275.281 89.5112C274.983 89.568 274.344 89.71 273.776 89.71C272.569 89.71 271.731 89.2556 271.731 87.5801V77.0162H275.835V72.4725Z" fill="black"/>
<defs>
<linearGradient id="paint0_linear" x1="222.783" y1="0" x2="407.214" y2="16.4278" gradientUnits="userSpaceOnUse">
<stop stop-color="#FF8212"/>
<stop offset="1" stop-color="#ED4454"/>
</linearGradient>
</defs>
</svg>
