<svg width="22" height="16" viewBox="0 0 22 16" fill="none" xmlns="http://www.w3.org/2000/svg">
<path d="M21.2486 14.1033V1.52786H21.2526L21.2486 1.42249C21.2445 1.30496 21.2324 1.18744 21.208 1.06991C21.1432 0.49848 20.7217 0.0607903 20.1868 0H1.91726C1.65383 0 1.39041 0.0364741 1.13509 0.117528C0.454239 0.348531 -0.00371462 1.01722 0.000338072 1.77913V13.7791C-0.0077673 14.2573 0.130024 14.7234 0.397501 15.1206L0.405606 15.1368L0.527187 15.2259C0.936508 15.7163 1.53631 15.9959 2.17663 16H19.4654C20.3124 16 21.0419 15.3921 21.2486 14.5127L21.2526 14.5005C21.2607 14.3668 21.2607 14.2371 21.2486 14.1033ZM7.92739 8.76596L9.17156 9.8845L10.1564 10.7842C10.2779 10.9179 10.4482 10.999 10.6305 10.999C10.8088 10.999 10.9791 10.922 11.1047 10.7842L13.3742 8.72138L19.4937 14.6383H2.01452L7.92739 8.76596ZM10.6224 9.44681L1.6741 1.32928H1.76731C6.57785 1.30902 17.5525 1.26444 19.5789 1.32118L10.6224 9.44681ZM14.3347 7.88247L19.9801 2.76798V13.4144L14.3347 7.88247ZM6.96285 7.88652L1.26478 13.54V2.73962L6.96285 7.88652Z" fill="#1B96F1"/>
</svg>