<svg width="243" height="300" viewBox="0 0 243 300" fill="none" xmlns="http://www.w3.org/2000/svg">
<path d="M201.001 46.2705L189.465 47.5933L4.61328 64.8818L19.4101 63.1284L201.001 46.2705Z" fill="#0E0E0E"/>
<path d="M19.4102 63.1284L201.001 46.2705L215.521 192.608C215.767 195.1 215.798 197.561 215.644 199.929C215.49 202.298 215.121 204.544 214.598 206.543C214.075 208.574 213.399 210.358 212.599 211.804C211.768 213.249 210.815 214.357 209.769 214.972L65.4924 298.462C63.339 299.692 61.2164 300.184 59.1553 299.938C57.0942 299.723 55.1254 298.8 53.372 297.262C51.6185 295.724 50.0496 293.54 48.8499 290.833C47.6194 288.125 46.7273 284.865 46.2658 281.204L19.4102 63.1284Z" fill="#F4F4F4"/>
<path d="M42.9126 298.215C43.0357 298.245 43.128 298.276 43.251 298.307C43.3433 298.338 43.4048 298.338 43.4971 298.368C43.6202 298.399 43.774 298.43 43.897 298.43C43.9585 298.43 44.0201 298.461 44.0816 298.461C44.2662 298.492 44.4815 298.522 44.6661 298.553C49.5266 299.014 54.387 299.507 59.2783 299.968C59.0937 299.937 58.8784 299.937 58.6938 299.907C58.6323 299.907 58.5707 299.876 58.5092 299.876C58.3862 299.845 58.2631 299.814 58.1093 299.814C58.0478 299.784 57.9555 299.784 57.894 299.753C57.7709 299.722 57.6479 299.691 57.5556 299.66C57.4633 299.63 57.4018 299.599 57.3095 299.568C57.1864 299.537 57.0941 299.507 56.9711 299.445C56.8788 299.414 56.8173 299.384 56.725 299.353C56.6327 299.322 56.5097 299.261 56.4174 299.23C56.3251 299.199 56.2636 299.168 56.1713 299.107C56.079 299.045 55.9559 299.014 55.8636 298.953C55.7714 298.922 55.7098 298.861 55.6175 298.83C55.5253 298.768 55.433 298.738 55.3099 298.676C55.2176 298.615 55.1561 298.584 55.0638 298.522C54.9715 298.461 54.8792 298.399 54.787 298.338C54.6947 298.276 54.6331 298.215 54.5409 298.153C54.4486 298.092 54.3563 298.03 54.264 297.969C54.1717 297.907 54.1102 297.846 54.0179 297.784C53.9256 297.722 53.8333 297.63 53.741 297.569C53.6487 297.507 53.5872 297.446 53.4949 297.353C53.4026 297.292 53.3104 297.199 53.2181 297.138C53.1258 297.076 53.0643 296.984 52.972 296.923C52.8797 296.83 52.7874 296.769 52.7259 296.677C52.6643 296.615 52.5721 296.523 52.5105 296.43C52.4182 296.338 52.3567 296.246 52.2644 296.154C52.2029 296.061 52.1106 296 52.0491 295.907C51.9568 295.815 51.8953 295.723 51.803 295.631C51.7415 295.538 51.6492 295.446 51.5877 295.354C51.4954 295.261 51.4338 295.169 51.3416 295.046C51.28 294.954 51.1877 294.862 51.1262 294.769C51.0647 294.677 50.9724 294.554 50.9109 294.462C50.8494 294.369 50.7878 294.277 50.6955 294.154C50.634 294.031 50.5417 293.939 50.4802 293.816C50.4187 293.723 50.3572 293.6 50.2956 293.508C50.2341 293.385 50.1418 293.262 50.0803 293.17C50.0188 293.077 49.9572 292.954 49.8957 292.831C49.8342 292.708 49.7419 292.585 49.6804 292.462C49.6189 292.339 49.5573 292.247 49.4958 292.124C49.4343 292.001 49.3728 291.878 49.3112 291.755C49.2497 291.601 49.1574 291.447 49.0959 291.293C49.0651 291.232 49.0344 291.139 49.0036 291.078C48.8806 290.832 48.7883 290.616 48.696 290.37C48.696 290.339 48.6652 290.309 48.6652 290.278C48.5729 290.063 48.4806 289.847 48.3884 289.632C48.3576 289.54 48.3268 289.478 48.2961 289.386C48.2345 289.201 48.173 289.047 48.1115 288.863C48.0807 288.771 48.05 288.709 48.0192 288.617C47.9577 288.432 47.8962 288.217 47.8039 288.001C47.7731 287.94 47.7731 287.878 47.7423 287.817C47.6501 287.571 47.5885 287.294 47.4962 287.017C47.4655 286.956 47.4655 286.894 47.4347 286.833C47.3732 286.617 47.3117 286.402 47.2501 286.186C47.2194 286.094 47.2194 286.033 47.1886 285.94C47.1271 285.694 47.0656 285.448 47.004 285.202C47.004 285.171 46.9733 285.141 46.9733 285.11C46.9118 284.833 46.8502 284.556 46.7887 284.279C46.7579 284.187 46.7579 284.125 46.7272 284.033C46.6657 283.787 46.6349 283.541 46.6041 283.295C46.6041 283.233 46.5734 283.203 46.5734 283.141C46.5118 282.864 46.4811 282.557 46.4196 282.28C46.4196 282.218 46.3888 282.157 46.3888 282.095C46.358 281.787 46.2965 281.48 46.2657 281.172L19.4408 63.1582L4.61328 64.8194L31.5305 280.003C31.5613 280.219 31.592 280.434 31.6228 280.649C31.6228 280.742 31.6535 280.834 31.6535 280.926C31.6535 280.988 31.6843 281.049 31.6843 281.111C31.6843 281.172 31.7151 281.234 31.7151 281.295C31.7458 281.511 31.7766 281.726 31.8074 281.911C31.8074 281.941 31.8074 281.941 31.8074 281.972C31.8074 282.034 31.8381 282.064 31.8381 282.126C31.8689 282.249 31.8996 282.403 31.8996 282.526C31.9304 282.618 31.9304 282.741 31.9612 282.833C31.9919 282.926 31.9919 282.987 32.0227 283.079C32.0227 283.11 32.0535 283.172 32.0535 283.203C32.115 283.418 32.1457 283.664 32.2073 283.879V283.91C32.2073 283.941 32.238 283.972 32.238 284.002C32.2688 284.187 32.3303 284.372 32.3611 284.525C32.3918 284.587 32.3918 284.648 32.4226 284.71C32.4534 284.802 32.4534 284.864 32.4841 284.956C32.5149 285.018 32.5149 285.11 32.5457 285.171C32.5764 285.294 32.6379 285.448 32.6687 285.571C32.6995 285.633 32.6995 285.694 32.7302 285.756C32.7302 285.787 32.7302 285.787 32.761 285.817C32.8225 286.033 32.884 286.248 32.9763 286.463C32.9763 286.494 32.9763 286.494 33.0071 286.525C33.0379 286.586 33.0379 286.648 33.0686 286.709C33.0994 286.833 33.1609 286.986 33.1917 287.109C33.2224 287.171 33.2532 287.232 33.2532 287.325C33.2532 287.355 33.284 287.417 33.284 287.448C33.284 287.479 33.3147 287.509 33.3147 287.571C33.3455 287.632 33.3455 287.694 33.3762 287.755C33.407 287.878 33.4685 287.971 33.4993 288.094C33.5301 288.186 33.5608 288.248 33.5916 288.34C33.5916 288.371 33.6223 288.401 33.6223 288.432C33.6839 288.617 33.7762 288.801 33.8684 288.986C33.8684 289.017 33.8992 289.047 33.8992 289.078C33.9915 289.294 34.0838 289.509 34.1761 289.724C34.1761 289.755 34.2068 289.755 34.2068 289.786C34.2376 289.847 34.2684 289.94 34.2991 290.001C34.3606 290.124 34.4222 290.247 34.4837 290.339C34.5145 290.37 34.5145 290.401 34.5452 290.432C34.6067 290.555 34.6683 290.678 34.7606 290.801C34.7913 290.893 34.8528 290.955 34.8836 291.047C34.9144 291.078 34.9144 291.109 34.9451 291.139C35.0067 291.262 35.0989 291.385 35.1605 291.508C35.222 291.601 35.2528 291.662 35.3143 291.755C35.345 291.785 35.345 291.816 35.3758 291.847C35.4373 291.97 35.5296 292.093 35.5911 292.185C35.6527 292.277 35.6834 292.339 35.745 292.431C35.7757 292.462 35.7757 292.493 35.8065 292.493C35.868 292.616 35.9603 292.708 36.0218 292.831C36.0833 292.893 36.1141 292.985 36.1756 293.047C36.2064 293.077 36.2064 293.077 36.2372 293.108C36.2679 293.139 36.2679 293.139 36.2987 293.17C36.3602 293.262 36.4217 293.323 36.4833 293.416C36.5448 293.508 36.6371 293.6 36.6986 293.693C36.7909 293.785 36.8524 293.877 36.9447 294C37.0062 294.092 37.0985 294.185 37.16 294.277C37.2523 294.369 37.3138 294.462 37.4061 294.554C37.4677 294.646 37.5599 294.738 37.6215 294.8C37.7138 294.892 37.7753 294.985 37.8676 295.046C37.9291 295.108 37.9906 295.169 38.0521 295.231L38.0829 295.261C38.1752 295.354 38.2675 295.415 38.329 295.508C38.4213 295.569 38.4828 295.661 38.5751 295.723C38.6674 295.815 38.7597 295.877 38.852 295.938C38.9443 296 39.0058 296.061 39.0981 296.154C39.1904 296.215 39.2826 296.307 39.3749 296.369C39.4672 296.43 39.5287 296.492 39.621 296.553C39.7133 296.615 39.8056 296.677 39.8979 296.738C39.9594 296.8 40.0517 296.83 40.1132 296.892C40.1132 296.892 40.144 296.892 40.144 296.923C40.144 296.923 40.1748 296.923 40.1748 296.953C40.267 297.015 40.3593 297.046 40.4209 297.107C40.5131 297.169 40.5747 297.199 40.667 297.261C40.7592 297.323 40.8823 297.384 40.9746 297.415C41.0669 297.446 41.1284 297.507 41.2207 297.538C41.313 297.599 41.436 297.63 41.5283 297.692C41.6206 297.722 41.6821 297.784 41.7744 297.815C41.8667 297.845 41.9897 297.907 42.1128 297.938C42.1743 297.969 42.2666 297.999 42.3281 298.03C42.4512 298.061 42.5435 298.092 42.6665 298.122C42.728 298.153 42.8203 298.184 42.9126 298.215Z" fill="#EBEBEB"/>
<path d="M14.9506 26.7361C14.9506 26.7053 14.9506 26.7053 14.9506 26.6745C14.9198 26.3054 14.8891 25.9055 14.8583 25.5363C14.8583 25.444 14.8583 25.3517 14.8275 25.2594C14.7968 24.8595 14.7968 24.4904 14.766 24.0905C14.766 24.0289 14.766 23.9674 14.766 23.8751C14.766 23.5367 14.7352 23.1984 14.7352 22.8907C14.7352 22.7677 14.7352 22.6446 14.7352 22.4908C14.7352 22.214 14.7352 21.9371 14.7352 21.6602C14.7352 21.5372 14.7352 21.4141 14.7352 21.2911C14.7352 20.9527 14.766 20.6143 14.766 20.2759C14.766 20.2452 14.766 20.1836 14.766 20.1529C14.766 20.0913 14.766 20.0606 14.766 19.9991C14.7968 19.5991 14.8275 19.1992 14.8583 18.7686C14.8583 18.6147 14.8891 18.4609 14.9198 18.3071C14.9506 17.9995 14.9813 17.7226 15.0121 17.415C15.0429 17.2612 15.0429 17.0766 15.0736 16.9228C15.1044 16.6459 15.1659 16.3691 15.1967 16.0922C15.2274 15.9384 15.2582 15.7846 15.289 15.6C15.3505 15.3232 15.3813 15.0463 15.4428 14.7694C15.4735 14.6156 15.5043 14.4618 15.5351 14.3387C15.5658 14.1849 15.5966 14.0619 15.6274 13.9081C15.6889 13.6927 15.7196 13.4774 15.7812 13.2928C15.8119 13.139 15.8427 13.016 15.9042 12.8621C15.9657 12.6776 16.0273 12.4622 16.058 12.2777C16.0888 12.1238 16.1503 12.0008 16.1811 11.847C16.2426 11.6624 16.3041 11.4778 16.3657 11.2625C16.3964 11.1394 16.4579 10.9856 16.4887 10.8626C16.5502 10.678 16.6118 10.4934 16.704 10.3089C16.7656 10.1858 16.7963 10.0628 16.8579 9.93971C16.9501 9.75513 17.0117 9.5398 17.104 9.35522C17.1347 9.26293 17.1962 9.13988 17.227 9.0476C17.3193 8.8015 17.4423 8.58616 17.5654 8.34006C17.5962 8.27853 17.6269 8.21701 17.6269 8.18624C17.75 7.90938 17.9038 7.63252 18.0576 7.35566C18.2422 7.04803 18.396 6.74041 18.5806 6.43278C18.6421 6.34049 18.6728 6.27897 18.7344 6.18668C18.8574 5.97134 19.0112 5.75601 19.1651 5.54067C19.2266 5.44838 19.3189 5.35609 19.3804 5.23304C19.5034 5.04847 19.6573 4.86389 19.7803 4.71008C19.8418 4.61779 19.9341 4.5255 20.0264 4.43322C20.1802 4.24864 20.3033 4.09483 20.4571 3.94102C20.5494 3.84873 20.6109 3.75644 20.7032 3.66415C20.7647 3.60263 20.8262 3.5411 20.8878 3.47958C21.0108 3.35653 21.1646 3.20272 21.2877 3.07967C21.3492 3.01814 21.4107 2.95662 21.4722 2.92585C21.6261 2.77204 21.7799 2.64899 21.9644 2.49518C22.0567 2.52594 22.0567 2.49518 22.0875 2.46441C22.2721 2.3106 22.4874 2.15679 22.672 2.00298C22.7027 1.97221 22.7643 1.94145 22.795 1.91069C22.9796 1.78764 23.1334 1.66459 23.318 1.5723C23.3795 1.5723 23.4103 1.54154 23.441 1.54154C23.6256 1.41849 23.841 1.29544 24.0563 1.20315C24.1178 1.17239 24.1486 1.14163 24.2101 1.14163C24.4254 1.04934 24.61 0.926288 24.8254 0.864763C25.0407 0.772475 25.256 0.680188 25.4714 0.618663C25.5021 0.618663 25.5637 0.5879 25.5944 0.5879C25.8098 0.526375 26.0559 0.434088 26.2712 0.372563H26.302C26.5481 0.311038 26.7942 0.249513 27.071 0.21875C22.1798 1.01858 17.3193 1.87993 12.4281 2.71052C12.3358 2.71052 12.2742 2.74128 12.182 2.74128C12.0897 2.77204 12.0281 2.77204 11.9359 2.8028C11.8436 2.83357 11.782 2.83356 11.6898 2.86433C11.659 2.86433 11.659 2.86433 11.6282 2.86433H11.5975C11.5359 2.86433 11.5052 2.89509 11.4437 2.89509C11.2898 2.92585 11.136 2.98738 10.9822 3.01814C10.9515 3.01814 10.9207 3.0489 10.8899 3.0489C10.8592 3.0489 10.7976 3.07967 10.7669 3.07967C10.7054 3.11043 10.6131 3.14119 10.5515 3.14119C10.3977 3.20272 10.2439 3.26424 10.1209 3.32577C9.96706 3.38729 9.84401 3.44882 9.69019 3.51034C9.62867 3.5411 9.53638 3.57187 9.47486 3.60263C9.41333 3.63339 9.38257 3.66415 9.32104 3.66415C9.29028 3.69492 9.25952 3.69492 9.19799 3.72568C9.04418 3.81797 8.89037 3.87949 8.73656 3.97178C8.70579 3.97178 8.70579 4.00254 8.67503 4.00254C8.64427 4.0333 8.61351 4.0333 8.58274 4.06407C8.49046 4.12559 8.39817 4.18712 8.30588 4.24864C8.21359 4.31017 8.15207 4.37169 8.05978 4.40245C8.02902 4.43322 7.96749 4.46398 7.93673 4.49474C7.96749 4.58703 7.96749 4.61779 7.93673 4.61779C7.75215 4.74084 7.59834 4.86389 7.41377 4.98694C7.41377 4.98694 7.41377 4.98694 7.38301 5.0177C7.35224 5.04847 7.32148 5.07923 7.29072 5.10999C7.16767 5.20228 7.04462 5.32533 6.92157 5.41762C6.8908 5.44838 6.86004 5.47914 6.82928 5.5099C6.79852 5.54067 6.76775 5.54067 6.76775 5.57143C6.73699 5.60219 6.70623 5.63295 6.67547 5.66372C6.61394 5.72524 6.55242 5.78677 6.49089 5.84829C6.42937 5.90982 6.36784 5.97134 6.27555 6.06363C6.21403 6.12516 6.1525 6.18668 6.09098 6.24821C6.06022 6.27897 6.02945 6.30973 5.99869 6.34049C5.93717 6.40202 5.9064 6.46354 5.84488 6.52507C5.69107 6.67888 5.53725 6.83269 5.4142 7.01727C5.38344 7.04803 5.35268 7.10956 5.29115 7.14032C5.26039 7.20184 5.19887 7.23261 5.1681 7.29413C5.04505 7.47871 4.89124 7.63252 4.76819 7.81709C4.73743 7.87862 4.6759 7.94014 4.61438 8.00167C4.58362 8.03243 4.55285 8.06319 4.55285 8.12472C4.39904 8.34006 4.27599 8.52463 4.12218 8.73997C4.09142 8.8015 4.02989 8.86302 3.99913 8.92455C3.99913 8.92455 3.96837 8.95531 3.96837 8.98607C3.78379 9.2937 3.59922 9.57056 3.41464 9.90895C3.41464 9.90895 3.41464 9.93971 3.38388 9.93971C3.23006 10.1858 3.10701 10.4627 2.9532 10.7088C2.92244 10.7703 2.89168 10.8318 2.86091 10.8626C2.76863 11.0779 2.64558 11.2625 2.55329 11.4778C2.55329 11.5086 2.52253 11.5086 2.52253 11.5394C2.52253 11.5701 2.49176 11.5701 2.49176 11.6009C2.461 11.6932 2.43024 11.7855 2.36871 11.847C2.27643 12.0316 2.2149 12.2161 2.12261 12.4315C2.06109 12.5545 2.03033 12.6776 1.9688 12.8006C1.90728 12.9237 1.87651 13.0467 1.81499 13.1698C1.78423 13.2313 1.78423 13.2928 1.75346 13.3544C1.69194 13.4774 1.66118 13.6312 1.59965 13.7543C1.53813 13.9388 1.4766 14.1234 1.41508 14.308C1.38431 14.431 1.32279 14.5849 1.29203 14.7387C1.26126 14.831 1.2305 14.8925 1.19974 14.9848C1.16898 15.1078 1.13821 15.2001 1.10745 15.3232C1.07669 15.477 1.01516 15.6 0.984401 15.7538C0.922876 15.9692 0.892113 16.1537 0.830588 16.3691C0.799826 16.5229 0.769063 16.6459 0.7383 16.7998C0.7383 16.8305 0.707538 16.892 0.707538 16.9228C0.676775 17.0151 0.676775 17.1381 0.646013 17.2304C0.584488 17.5073 0.522963 17.7842 0.4922 18.061C0.4922 18.1225 0.461438 18.1841 0.461438 18.2764C0.430675 18.3686 0.430675 18.4609 0.430675 18.5532C0.36915 18.8301 0.338388 19.1069 0.307625 19.3838C0.307625 19.4761 0.276863 19.5684 0.276863 19.6607C0.276863 19.7222 0.2461 19.7837 0.2461 19.876C0.2461 19.9068 0.2461 19.9991 0.215338 20.0913C0.184575 20.3067 0.184575 20.4913 0.153813 20.7066C0.153813 20.8296 0.12305 20.9219 0.12305 21.045C0.12305 21.0757 0.12305 21.1373 0.12305 21.168C0.0922876 21.5679 0.061525 21.9679 0.0307625 22.3678C0.0307625 22.4293 0.0307625 22.4601 0.0307625 22.5216C0.0307625 22.5216 0.0307625 22.5216 0.0307625 22.5523C0.0307625 22.5831 0.0307625 22.6139 0.0307625 22.6754C2.29199e-09 22.9523 0 23.2291 0 23.506C0 23.5675 0 23.629 0 23.6906C0 23.8136 0 23.9367 0 24.0597C0 24.2135 0 24.3366 0 24.4904C0 24.6134 0 24.7673 0 24.8903C0 25.0133 0 25.1364 0 25.2594C0 25.321 0 25.4133 0 25.4748C0 25.7209 2.29199e-09 25.967 0.0307625 26.2439C0.0307625 26.3054 0.0307625 26.3669 0.0307625 26.4592V26.49C0.0307625 26.7668 0.061525 27.0744 0.061525 27.3513C0.061525 27.4436 0.061525 27.5051 0.0922876 27.5974C0.0922876 27.6897 0.0922876 27.782 0.12305 27.8743C0.12305 27.9973 0.12305 28.0896 0.153813 28.2127C0.184575 28.4895 0.184575 28.7356 0.215338 29.0125C0.215338 29.0432 0.215338 29.0432 0.215338 29.074C0.215338 29.074 0.215338 29.074 0.215338 29.1048C0.2461 29.4124 0.276863 29.6893 0.307625 29.9969C0.307625 30.0276 0.307625 30.0584 0.307625 30.1199C0.307625 30.1507 0.307625 30.1815 0.307625 30.243C0.307625 30.3045 0.307625 30.3045 0.307625 30.366C0.307625 30.3968 0.307625 30.4276 0.307625 30.4891L4.61438 65.0354L19.4419 63.2819L15.1352 28.2434C15.0429 27.6589 15.0121 27.1975 14.9506 26.7361Z" fill="#101010"/>
<path d="M188.728 3.9413C189.866 3.97206 191.004 4.52579 192.081 5.51019C193.158 6.49459 194.142 7.87891 195.034 9.57084C195.926 11.2628 196.695 13.2623 197.341 15.508C197.957 17.7229 198.418 20.1532 198.664 22.7064L201.002 46.2705L19.4109 63.1284L15.1041 28.0899C14.6119 24.1215 14.6427 20.3377 15.1349 16.9231C15.6271 13.5084 16.55 10.463 17.8728 7.90967C19.134 5.38714 20.7952 3.38758 22.7025 2.00326C24.6097 0.649712 26.7631 -0.0578256 29.1318 0.00369942L188.728 3.9413Z" fill="#1A1A1A"/>
<path d="M114.632 85.3672L91.4062 87.2437C91.4985 87.2437 91.5601 87.2129 91.6524 87.2129C91.7446 87.2129 91.8062 87.1822 91.8985 87.1822C91.9907 87.1822 92.0523 87.1514 92.1446 87.1514C92.2368 87.1514 92.2984 87.1514 92.3907 87.1207L115.616 85.2441C115.524 85.2441 115.463 85.2441 115.37 85.2749C115.278 85.2749 115.216 85.3057 115.124 85.3057C115.032 85.3057 114.97 85.3364 114.878 85.3364C114.786 85.3672 114.693 85.3672 114.632 85.3672Z" fill="#949494"/>
<g filter="url(#filter0_f)">
<path d="M71.237 78.875C71.3292 78.875 71.3908 78.8442 71.4831 78.8442C71.5753 78.8442 71.6369 78.8135 71.7292 78.8135C71.8214 78.8135 71.883 78.7827 71.9753 78.7827C72.0675 78.7827 72.1291 78.7827 72.2214 78.752L75.8513 124.742L99.5692 103.423C99.9999 104.623 100.369 105.854 100.707 107.115C101.046 108.376 101.353 109.638 101.63 110.93C101.907 112.222 102.153 113.544 102.338 114.867C102.553 116.19 102.707 117.543 102.83 118.866C103.415 124.834 103.23 130.679 102.43 136.216C101.63 141.754 100.184 146.952 98.1849 151.536C96.1854 156.181 93.6321 160.211 90.6481 163.41C87.6334 166.61 84.1572 168.948 80.3427 170.086C76.4666 171.224 72.6213 171.07 68.899 169.748C65.146 168.425 61.6083 165.902 58.4397 162.426C55.2404 158.919 52.4718 154.397 50.3184 149.137C48.1343 143.845 46.5962 137.785 45.9194 131.202C45.2426 124.619 45.458 118.159 46.4424 112.129C47.4268 106.131 49.1802 100.563 51.5182 95.7944C53.8561 91.057 56.7478 87.0886 60.1009 84.1662C63.5463 81.2745 67.2686 79.4287 71.237 78.875Z" fill="#E6E6E6"/>
</g>
<path d="M120.976 120.511L97.75 121.157L121.806 100.361L144.694 99.1924L120.976 120.511Z" fill="#FB822A"/>
<path d="M116.331 74.6133C116.423 74.6133 116.485 74.5825 116.577 74.5825C116.669 74.5825 116.731 74.5518 116.823 74.5518C116.915 74.5518 116.977 74.521 117.069 74.521C117.161 74.521 117.223 74.521 117.315 74.4902L120.945 120.48L144.663 99.1618C145.094 100.362 145.463 101.592 145.801 102.853C146.14 104.115 146.447 105.376 146.724 106.668C147.001 107.96 147.247 109.283 147.432 110.605C147.647 111.928 147.801 113.282 147.924 114.605C148.508 120.572 148.324 126.417 147.524 131.955C146.724 137.492 145.278 142.691 143.279 147.274C141.279 151.92 138.726 155.949 135.742 159.149C132.727 162.348 129.251 164.686 125.436 165.824C121.56 166.962 117.715 166.809 113.993 165.486C110.24 164.163 106.702 161.64 103.533 158.164C100.334 154.657 97.5656 150.135 95.4122 144.875C93.228 139.584 91.6899 133.524 91.0131 126.94C90.3364 120.357 90.5517 113.897 91.5361 107.868C92.5205 101.869 94.274 96.3009 96.6119 91.5327C98.9499 86.7952 101.842 82.8269 105.195 79.9044C108.64 77.0128 112.362 75.167 116.331 74.6133Z" fill="url(#paint0_linear)"/>
<path d="M90.3097 164.778C90.5866 164.871 90.8326 164.963 91.1095 165.055C91.171 165.086 91.2326 165.086 91.2941 165.117C91.5094 165.178 91.7248 165.24 91.9709 165.301C92.0324 165.332 92.0939 165.332 92.1554 165.363C92.4323 165.424 92.6784 165.517 92.9553 165.547C93.0168 165.547 93.0783 165.578 93.1091 165.578C93.3244 165.64 93.5705 165.67 93.7859 165.701C93.8474 165.701 93.9089 165.732 94.0012 165.732C94.2781 165.763 94.5549 165.824 94.801 165.855C94.8318 165.855 94.8625 165.855 94.9241 165.855C95.1702 165.886 95.4163 165.916 95.6624 165.916C95.7239 165.916 95.8162 165.916 95.8777 165.947C96.1546 165.978 96.4314 165.978 96.7083 165.978L119.996 166.532C119.719 166.532 119.442 166.501 119.165 166.501C119.103 166.501 119.011 166.501 118.95 166.47C118.703 166.439 118.457 166.439 118.242 166.409C118.211 166.409 118.181 166.409 118.119 166.409C117.842 166.378 117.596 166.347 117.319 166.286C117.258 166.286 117.196 166.255 117.104 166.255C116.889 166.224 116.642 166.163 116.427 166.132C116.366 166.132 116.335 166.101 116.273 166.101C115.996 166.04 115.75 165.978 115.473 165.886C115.412 165.855 115.35 165.855 115.289 165.824C115.074 165.763 114.858 165.701 114.643 165.609C114.581 165.578 114.52 165.578 114.458 165.547C114.181 165.455 113.935 165.363 113.689 165.27C113.628 165.24 113.597 165.24 113.535 165.209C113.32 165.117 113.105 165.024 112.859 164.932C112.797 164.901 112.736 164.871 112.674 164.84C112.428 164.717 112.151 164.594 111.905 164.471C111.874 164.471 111.843 164.44 111.813 164.44C111.567 164.317 111.351 164.194 111.105 164.071C111.044 164.04 110.982 164.009 110.89 163.948C110.644 163.794 110.367 163.671 110.121 163.517C109.875 163.363 109.629 163.209 109.352 163.025C109.29 162.994 109.229 162.932 109.136 162.902C108.921 162.748 108.706 162.594 108.49 162.44C108.46 162.41 108.429 162.379 108.367 162.379C108.121 162.194 107.875 162.01 107.629 161.825C107.567 161.764 107.506 161.733 107.444 161.671C107.229 161.517 107.044 161.364 106.829 161.179C106.768 161.148 106.737 161.087 106.675 161.056C106.429 160.841 106.214 160.656 105.968 160.441C105.906 160.41 105.876 160.348 105.814 160.318C105.629 160.133 105.414 159.949 105.23 159.764C105.168 159.702 105.106 159.672 105.076 159.61C104.83 159.395 104.614 159.149 104.399 158.903C104.368 158.872 104.307 158.81 104.276 158.78C104.091 158.564 103.876 158.38 103.691 158.164C103.63 158.103 103.568 158.041 103.507 157.98C103.291 157.734 103.076 157.488 102.83 157.211C102.799 157.18 102.769 157.149 102.769 157.118C102.584 156.872 102.369 156.657 102.184 156.411C102.122 156.349 102.061 156.257 101.999 156.196C101.784 155.919 101.569 155.673 101.384 155.396C101.384 155.396 101.384 155.365 101.353 155.365C101.353 155.365 101.353 155.334 101.323 155.334C101.046 154.965 100.769 154.565 100.492 154.165C100.4 154.042 100.338 153.919 100.246 153.796C100.031 153.488 99.8153 153.15 99.6 152.812C99.5384 152.719 99.4769 152.596 99.3846 152.504C99.1078 152.073 98.8617 151.643 98.5848 151.181C98.5233 151.089 98.4925 150.997 98.431 150.904C98.2157 150.535 98.0311 150.166 97.8157 149.797C97.7542 149.643 97.6619 149.52 97.6004 149.366C97.3851 148.966 97.2005 148.566 96.9851 148.166C96.9544 148.074 96.8929 148.013 96.8621 147.92C96.616 147.428 96.4007 146.936 96.1853 146.444C96.1238 146.321 96.0623 146.167 96.0008 146.044C95.8162 145.644 95.6624 145.275 95.5086 144.875C95.447 144.721 95.3855 144.567 95.324 144.444C95.2009 144.167 95.1086 143.86 94.9856 143.552C94.8625 143.214 94.7395 142.906 94.6164 142.568C94.5242 142.291 94.4011 141.983 94.3088 141.706C94.1858 141.368 94.0627 141.03 93.9704 140.691C93.8781 140.384 93.7859 140.107 93.6936 139.799C93.6013 139.461 93.4782 139.122 93.3859 138.753C93.2937 138.446 93.2014 138.138 93.1398 137.83C93.0475 137.461 92.9553 137.123 92.863 136.754C92.7707 136.415 92.6784 136.046 92.5861 135.677C92.5246 135.431 92.4631 135.185 92.4015 134.939C92.3092 134.539 92.217 134.139 92.1554 133.708C92.0939 133.493 92.0632 133.247 92.0016 133.031C91.9093 132.508 91.817 131.985 91.7248 131.432C91.694 131.309 91.694 131.186 91.6632 131.063C91.5402 130.386 91.4479 129.709 91.3556 129.032C91.3556 129.001 91.3556 128.971 91.3556 128.971C91.2633 128.263 91.171 127.586 91.1095 126.879C91.0787 126.479 91.0172 126.048 90.9865 125.648C90.9865 125.464 90.9557 125.31 90.9557 125.125C90.9249 124.879 90.9249 124.664 90.8942 124.418C90.8634 124.202 90.8634 123.956 90.8634 123.741C90.8634 123.556 90.8326 123.372 90.8326 123.187C90.8326 122.941 90.8019 122.695 90.8019 122.449C90.8019 122.295 90.7711 122.141 90.7711 121.957C90.7404 121.372 90.7404 120.788 90.7404 120.234C90.7404 120.111 90.7404 119.988 90.7404 119.896C90.7404 119.311 90.7404 118.758 90.7404 118.204C90.7404 118.142 90.7404 118.081 90.7404 118.019C90.7404 117.496 90.7711 116.973 90.7711 116.45C90.7711 116.358 90.7711 116.266 90.7711 116.173C90.8019 115.62 90.8326 115.066 90.8634 114.512C90.8634 114.358 90.8942 114.205 90.8942 114.02C90.9249 113.805 90.9249 113.589 90.9557 113.374C90.9557 113.189 90.9865 113.005 91.0172 112.82C91.048 112.605 91.048 112.39 91.0788 112.174C91.1095 111.99 91.1095 111.805 91.1403 111.621C91.171 111.405 91.171 111.19 91.2018 111.005C91.2326 110.821 91.2326 110.636 91.2633 110.452C91.2941 110.236 91.3249 110.052 91.3556 109.836C91.3864 109.652 91.4171 109.467 91.4479 109.283C91.4787 109.098 91.5094 108.883 91.5402 108.698C91.571 108.514 91.6017 108.329 91.6325 108.144C91.6632 107.96 91.694 107.745 91.7248 107.56C91.7555 107.375 91.7863 107.191 91.8171 107.006C91.8478 106.822 91.8786 106.606 91.9093 106.422C91.9401 106.237 91.9709 106.053 92.0016 105.868C92.0324 105.683 92.0632 105.468 92.1247 105.284C92.1554 105.13 92.1862 105.007 92.217 104.853C92.34 104.299 92.4631 103.776 92.5861 103.222C92.6169 103.161 92.6169 103.069 92.6476 103.007C92.7707 102.484 92.9245 101.961 93.0476 101.438C93.0476 101.407 93.0783 101.346 93.0783 101.315C93.2321 100.792 93.3859 100.238 93.5398 99.7155C93.5705 99.6232 93.6013 99.5309 93.632 99.4386C93.7859 98.9157 93.9397 98.4235 94.1242 97.9313C94.155 97.839 94.1858 97.7775 94.2165 97.6852C94.5549 96.6393 94.9548 95.6549 95.3547 94.6705C95.3855 94.5782 95.4163 94.5166 95.447 94.4244C95.6316 93.9629 95.8469 93.5015 96.0315 93.04C96.0623 92.9477 96.1238 92.8555 96.1546 92.7939C96.3699 92.3325 96.5852 91.8711 96.8006 91.4096C96.8313 91.3789 96.8313 91.3481 96.8621 91.3173C97.0774 90.8867 97.2928 90.456 97.5389 90.0253C97.5696 89.9638 97.6004 89.9023 97.6312 89.8407C97.8465 89.4101 98.0926 89.0101 98.3387 88.5795C98.3695 88.4872 98.431 88.4257 98.4618 88.3334C98.7079 87.9335 98.954 87.5336 99.2001 87.1336C99.2308 87.0721 99.2616 87.0413 99.2923 86.9798C99.5384 86.5799 99.7845 86.2108 100.061 85.8416C100.092 85.8108 100.092 85.7801 100.123 85.7493C100.4 85.3802 100.646 85.011 100.923 84.6419C100.984 84.5803 101.015 84.5188 101.077 84.4573C101.353 84.1189 101.63 83.7498 101.907 83.4114C101.969 83.3498 101.999 83.2883 102.061 83.2576C102.338 82.9192 102.645 82.5808 102.953 82.2424C103.261 81.904 103.568 81.5964 103.876 81.2888C103.937 81.2272 103.999 81.1657 104.061 81.1042C104.153 81.0119 104.276 80.8888 104.368 80.7966C104.46 80.7043 104.553 80.612 104.676 80.5197C104.768 80.4274 104.891 80.3351 104.983 80.2121C105.076 80.1198 105.199 80.0275 105.291 79.9352C105.414 79.8429 105.506 79.7506 105.629 79.6583C105.722 79.5661 105.814 79.4738 105.937 79.4122C106.06 79.32 106.152 79.2277 106.275 79.1354C106.368 79.0431 106.46 78.9816 106.583 78.8893C106.706 78.797 106.829 78.7047 106.921 78.6124C107.014 78.5509 107.106 78.4586 107.229 78.3971C107.352 78.3048 107.475 78.2125 107.598 78.151C107.691 78.0895 107.783 77.9972 107.906 77.9356C108.029 77.8433 108.152 77.7818 108.275 77.6895C108.367 77.628 108.46 77.5665 108.583 77.505C108.706 77.4127 108.829 77.3512 108.983 77.2589C109.075 77.1973 109.167 77.1358 109.259 77.1051C109.567 76.9205 109.905 76.7667 110.213 76.5821C110.336 76.5206 110.428 76.459 110.551 76.4283C110.613 76.3975 110.705 76.3668 110.767 76.336C110.921 76.2437 111.105 76.1822 111.259 76.0899C111.29 76.0591 111.351 76.0591 111.382 76.0284C111.597 75.9361 111.813 75.8438 111.997 75.7515C112.059 75.7207 112.12 75.69 112.182 75.69C112.336 75.6284 112.489 75.5669 112.643 75.5054C112.705 75.4746 112.797 75.4439 112.859 75.4131C113.012 75.3516 113.166 75.3208 113.32 75.2593C113.382 75.2285 113.474 75.2285 113.535 75.1978C113.658 75.167 113.812 75.1055 113.935 75.0747C114.028 75.044 114.151 75.0132 114.243 74.9824C114.397 74.9517 114.52 74.9209 114.674 74.8901C114.766 74.8594 114.858 74.8286 114.95 74.8286C115.104 74.7979 115.258 74.7671 115.412 74.7363C115.504 74.7056 115.566 74.7056 115.658 74.6748C115.904 74.6441 116.15 74.5825 116.366 74.5518L93.1398 76.4283C92.8937 76.459 92.6784 76.4898 92.4323 76.5513C92.4323 76.5513 92.4323 76.5513 92.4015 76.5513C92.3092 76.5513 92.2477 76.5821 92.1554 76.6129C92.0016 76.6436 91.8786 76.6744 91.7248 76.7051H91.694C91.6017 76.7359 91.5094 76.7359 91.3864 76.7667C91.2633 76.7974 91.1403 76.8282 91.0172 76.8589C90.9865 76.8589 90.9865 76.8589 90.9557 76.8897C90.8634 76.9205 90.7404 76.9512 90.6481 76.982C90.5558 77.0128 90.4327 77.0435 90.3404 77.0743C90.3097 77.0743 90.2789 77.1051 90.2482 77.1051C90.1866 77.1358 90.0943 77.1358 90.0328 77.1666C89.879 77.2281 89.7252 77.2589 89.5714 77.3204C89.4791 77.3511 89.4176 77.3819 89.3253 77.4127C89.2638 77.4434 89.233 77.4434 89.1715 77.4742C89.1407 77.4742 89.0792 77.505 89.0484 77.5357C88.71 77.6588 88.4024 77.7818 88.0948 77.9049C88.0948 77.9049 88.064 77.9049 88.064 77.9356C87.7256 78.0894 87.3872 78.2433 87.0796 78.3971C87.0489 78.4278 87.0181 78.4278 86.9566 78.4586C86.9258 78.4894 86.895 78.4894 86.8643 78.5201C86.5259 78.6739 86.2183 78.8585 85.9106 79.0123C85.9106 79.0123 85.8799 79.0123 85.8799 79.0431C85.7876 79.1046 85.7261 79.1354 85.6338 79.1969C85.5107 79.2584 85.3877 79.3507 85.2339 79.4122C85.1416 79.4738 85.0185 79.5353 84.9262 79.5968C84.8032 79.6891 84.6801 79.7506 84.5571 79.8429C84.5263 79.8429 84.5263 79.8737 84.4956 79.8737C84.4033 79.9352 84.3418 79.9967 84.2495 80.0275C84.1264 80.1198 84.0034 80.1813 83.8803 80.2736C83.788 80.3351 83.665 80.4274 83.5727 80.4889C83.4496 80.5812 83.3266 80.6735 83.2343 80.735C83.2035 80.7658 83.1728 80.7658 83.1728 80.7966C83.0805 80.8581 83.019 80.9196 82.9267 80.9811C82.8036 81.0734 82.7113 81.1657 82.5883 81.258C82.496 81.3503 82.373 81.4118 82.2807 81.5041C82.1884 81.5656 82.1268 81.6271 82.0346 81.7194C82.0038 81.7502 81.973 81.781 81.9423 81.781C81.9115 81.8117 81.8808 81.8425 81.85 81.8425C81.7885 81.904 81.6962 81.9655 81.6347 82.0271C81.5116 82.1193 81.4193 82.2116 81.2963 82.3039C81.204 82.3962 81.0809 82.4885 80.9886 82.5808C80.8656 82.6731 80.7733 82.7654 80.681 82.8884C80.6503 82.9192 80.6195 82.9499 80.5887 82.9807C80.558 83.0115 80.5272 83.0422 80.4964 83.073C80.1888 83.3806 79.8812 83.6882 79.5736 83.9959C79.2659 84.3035 78.9583 84.6419 78.6814 84.9803C78.6199 85.0418 78.5892 85.1033 78.5276 85.1341C78.2508 85.4725 77.9739 85.8108 77.697 86.1492C77.6355 86.2108 77.6048 86.2723 77.5432 86.3338C77.2664 86.703 76.9895 87.0413 76.7126 87.4105C76.7126 87.4105 76.7126 87.4105 76.6819 87.4413C76.6819 87.472 76.6511 87.472 76.6511 87.5028C76.3743 87.8719 76.1282 88.2411 75.8821 88.6102C75.8513 88.6718 75.8205 88.7025 75.7898 88.764C75.5437 89.164 75.2976 89.5331 75.0515 89.933C74.9899 89.9945 74.9592 90.0868 74.8977 90.1484C74.6516 90.5483 74.4055 90.9482 74.1901 91.3789C74.1594 91.4404 74.1286 91.5019 74.0978 91.5634C73.8825 91.9634 73.6364 92.394 73.4211 92.8247C73.4211 92.8555 73.3903 92.8862 73.3903 92.8862V92.917L73.3595 92.9478C73.1442 93.3784 72.9289 93.8091 72.7135 94.2398C72.6828 94.3321 72.6212 94.4244 72.5905 94.4859C72.3751 94.9166 72.1906 95.378 71.9752 95.8394C71.9445 95.9317 71.9137 95.9932 71.8829 96.0855C71.483 97.0392 71.0831 98.0236 70.7447 99.0387C70.714 99.1003 70.714 99.131 70.6832 99.1925C70.6832 99.2233 70.6524 99.2541 70.6524 99.2848C70.4679 99.777 70.314 100.269 70.1602 100.761C70.1295 100.854 70.0987 100.946 70.0679 101.038C69.9141 101.561 69.7603 102.053 69.6065 102.576C69.6065 102.607 69.5757 102.669 69.5757 102.699C69.4219 103.192 69.2989 103.715 69.1758 104.238C69.1451 104.299 69.1451 104.361 69.1143 104.453C68.9913 104.976 68.8682 105.499 68.7452 106.022C68.7452 106.083 68.7144 106.114 68.7144 106.176C68.6836 106.268 68.6836 106.329 68.6529 106.422C68.6221 106.606 68.5606 106.791 68.5298 107.006C68.4991 107.191 68.4683 107.345 68.4375 107.529C68.4068 107.714 68.376 107.898 68.3145 108.114C68.2837 108.206 68.2837 108.298 68.253 108.421C68.253 108.514 68.2222 108.575 68.2222 108.667C68.2222 108.76 68.1914 108.821 68.1914 108.914C68.1607 109.006 68.1607 109.129 68.1299 109.252C68.0991 109.436 68.0684 109.621 68.0376 109.806C68.0069 109.99 67.9761 110.206 67.9453 110.39C67.9146 110.482 67.9146 110.605 67.8838 110.698C67.8838 110.759 67.853 110.852 67.853 110.913C67.8223 111.098 67.7915 111.313 67.7608 111.498C67.73 111.682 67.6992 111.867 67.6992 112.051C67.6685 112.267 67.6377 112.451 67.6377 112.667C67.6377 112.79 67.6069 112.882 67.6069 113.005C67.6069 113.066 67.6069 113.128 67.5762 113.189C67.5454 113.405 67.5454 113.62 67.5147 113.805C67.4839 113.989 67.4839 114.143 67.4531 114.328C67.4224 114.543 67.4224 114.758 67.3916 114.974C67.3916 115.097 67.3608 115.189 67.3608 115.312C67.3608 115.343 67.3608 115.404 67.3608 115.435C67.3301 115.958 67.2993 116.512 67.2686 117.066C67.2686 117.096 67.2686 117.127 67.2686 117.158C67.2686 117.219 67.2686 117.281 67.2686 117.342C67.2378 117.865 67.2378 118.358 67.207 118.881C67.207 118.911 67.207 118.973 67.207 119.004C67.207 119.034 67.207 119.034 67.207 119.065C67.207 119.619 67.207 120.173 67.207 120.726C67.207 120.788 67.207 120.819 67.207 120.88C67.207 120.942 67.207 121.003 67.207 121.065C67.207 121.618 67.2378 122.203 67.2378 122.757C67.2378 122.91 67.2378 123.064 67.2686 123.218C67.2686 123.464 67.2993 123.68 67.2993 123.926C67.2993 124.11 67.3301 124.295 67.3301 124.449C67.3301 124.664 67.3608 124.879 67.3608 125.095C67.3916 125.31 67.3916 125.525 67.4224 125.741C67.4224 125.925 67.4531 126.079 67.4531 126.264C67.4839 126.663 67.5147 127.063 67.5762 127.463C67.6069 127.648 67.6069 127.832 67.6377 128.048C67.6685 128.232 67.6685 128.417 67.6992 128.632C67.73 128.817 67.7608 129.001 67.7608 129.186C67.7608 129.309 67.7915 129.401 67.7915 129.524C67.7915 129.555 67.7915 129.586 67.7915 129.586C67.7915 129.647 67.7915 129.709 67.8223 129.74C67.9146 130.355 68.0069 130.939 68.0991 131.524V131.555C68.1299 131.678 68.1299 131.77 68.1607 131.893C68.253 132.355 68.3145 132.816 68.4068 133.277C68.4068 133.339 68.4375 133.4 68.4375 133.431C68.4683 133.647 68.5298 133.893 68.5913 134.108C68.6529 134.416 68.7144 134.692 68.7759 135C68.8067 135.092 68.8374 135.215 68.8374 135.308C68.899 135.554 68.9605 135.8 69.022 136.046C69.0835 136.261 69.1143 136.477 69.1758 136.692C69.2066 136.815 69.2374 136.938 69.2681 137.061C69.3604 137.4 69.4527 137.769 69.545 138.107C69.6065 138.292 69.6373 138.476 69.6988 138.661C69.7296 138.784 69.7603 138.876 69.7911 138.999C69.8834 139.338 70.0064 139.676 70.0987 140.014C70.1602 140.199 70.2218 140.414 70.2833 140.599C70.314 140.691 70.3448 140.783 70.3756 140.876C70.4986 141.214 70.5909 141.522 70.714 141.86C70.7755 142.045 70.837 142.26 70.9293 142.445C70.9601 142.537 70.9908 142.598 71.0216 142.691C71.0523 142.783 71.0831 142.875 71.1139 142.968C71.2062 143.214 71.2984 143.429 71.3907 143.675C71.483 143.86 71.5445 144.075 71.6368 144.26C71.6676 144.352 71.6984 144.444 71.7599 144.536C71.8214 144.69 71.8829 144.813 71.9445 144.967C72.0983 145.367 72.2828 145.736 72.4367 146.105C72.4982 146.228 72.5597 146.382 72.6212 146.505C72.8366 146.998 73.0827 147.459 73.3288 147.951C73.3595 148.043 73.4211 148.105 73.4518 148.197C73.6672 148.597 73.8517 148.997 74.0671 149.366C74.1286 149.489 74.2209 149.643 74.2824 149.766C74.4977 150.135 74.6823 150.504 74.8977 150.843C74.9592 150.935 75.0207 151.027 75.0515 151.12C75.3283 151.55 75.5744 151.981 75.8513 152.381C75.9128 152.473 76.0051 152.596 76.0666 152.689C76.1897 152.873 76.3127 153.058 76.4358 153.242C76.5281 153.365 76.6204 153.488 76.7126 153.642C76.8049 153.765 76.8665 153.888 76.9587 153.981C77.2356 154.381 77.5125 154.75 77.8201 155.119C77.8201 155.119 77.8201 155.15 77.8509 155.15C77.8509 155.15 77.8509 155.18 77.8816 155.18C78.097 155.457 78.3123 155.703 78.4969 155.949C78.5584 156.011 78.6199 156.103 78.6814 156.165C78.866 156.411 79.0814 156.626 79.2659 156.872C79.2967 156.903 79.2967 156.934 79.3275 156.965C79.5428 157.211 79.7889 157.457 80.0042 157.703C80.0658 157.764 80.1273 157.826 80.1888 157.887C80.3734 158.103 80.5887 158.287 80.7733 158.503C80.8041 158.533 80.8656 158.595 80.8964 158.626C81.1425 158.841 81.3578 159.087 81.6039 159.303C81.6654 159.364 81.7269 159.395 81.7577 159.456C81.9423 159.641 82.1576 159.825 82.3422 159.979C82.3729 160.01 82.4037 160.041 82.4345 160.072C82.4652 160.072 82.4652 160.102 82.496 160.102C82.7421 160.318 82.9882 160.502 83.2035 160.718C83.2651 160.748 83.2958 160.81 83.3574 160.841C83.5727 160.994 83.7573 161.148 83.9726 161.302C84.0341 161.364 84.0957 161.394 84.1572 161.456C84.4033 161.64 84.6494 161.825 84.8955 161.979C84.9262 162.01 84.957 162.04 85.0185 162.04C85.2339 162.194 85.4492 162.348 85.6645 162.471C85.7261 162.502 85.7876 162.563 85.8799 162.594C86.126 162.748 86.4028 162.902 86.6489 163.056C86.895 163.209 87.1719 163.332 87.418 163.486C87.4795 163.517 87.5411 163.548 87.6333 163.579C87.8794 163.702 88.0948 163.825 88.3409 163.948C88.3716 163.948 88.4024 163.978 88.4332 163.978C88.6793 164.101 88.9561 164.225 89.233 164.348C89.2638 164.348 89.2945 164.378 89.3253 164.378C89.356 164.409 89.4176 164.409 89.4483 164.44C89.6637 164.532 89.879 164.624 90.1251 164.717C90.2174 164.747 90.2482 164.778 90.3097 164.778Z" fill="url(#paint1_linear)"/>
<g filter="url(#filter1_f)">
<path d="M190.972 120.588L200.109 200.57L189.465 206.292L179.621 122.618L190.972 120.588Z" fill="#EEEEEE"/>
<path d="M171.474 143.722L179.657 211.584L166.952 218.413L158.031 147.136L171.474 143.722Z" fill="#EEEEEE"/>
<path d="M148.374 172.454L155.142 224.781L139.699 233.087L132.285 177.868L148.374 172.454Z" fill="#EEEEEE"/>
</g>
<path d="M233.769 120.588L242.906 200.57L232.262 206.292L222.418 122.618L233.769 120.588Z" fill="url(#paint2_linear)"/>
<path d="M232.256 206.292L212.876 206.169L202.816 124.741L222.412 122.618L232.256 206.292Z" fill="url(#paint3_linear)"/>
<path d="M222.412 122.618L202.816 124.741L214.752 122.68L233.764 120.588L222.412 122.618Z" fill="url(#paint4_linear)"/>
<path d="M214.267 143.722L222.45 211.584L209.745 218.413L200.824 147.136L214.267 143.722Z" fill="url(#paint5_linear)"/>
<path d="M209.745 218.412L189.227 217.919L180.121 148.734L200.824 147.135L209.745 218.412Z" fill="url(#paint6_linear)"/>
<path d="M200.824 147.136L180.121 148.736L194.18 145.352L214.267 143.722L200.824 147.136Z" fill="url(#paint7_linear)"/>
<path d="M191.163 172.454L197.931 224.781L182.488 233.087L175.074 177.868L191.163 172.454Z" fill="url(#paint8_linear)"/>
<path d="M182.489 233.086L160.74 232.071L153.203 178.636L175.075 177.867L182.489 233.086Z" fill="url(#paint9_linear)"/>
<path d="M175.075 177.868L153.203 178.637L169.999 173.346L191.164 172.454L175.075 177.868Z" fill="url(#paint10_linear)"/>
<path d="M189.067 17.7549L184.883 18.0317H184.914H184.944H184.975H185.006L189.19 17.7549H189.159H189.128H189.097H189.067Z" fill="#949494"/>
<path d="M189.192 17.7246L185.008 18.0015C185.039 18.0015 185.039 18.0015 185.069 18.0015C185.1 18.0015 185.1 18.0015 185.131 18.0015C185.162 18.0015 185.162 18.0015 185.192 18.0015C185.223 18.0015 185.223 18.0015 185.254 18.0015L189.438 17.7246C189.407 17.7246 189.407 17.7246 189.376 17.7246C189.345 17.7246 189.345 17.7246 189.315 17.7246C189.284 17.7246 189.284 17.7246 189.253 17.7246C189.253 17.7246 189.222 17.7246 189.192 17.7246Z" fill="#8F8F8F"/>
<path d="M189.065 17.7548C189.588 17.6317 190.111 17.6932 190.572 17.9701C191.064 18.2162 191.526 18.6469 191.926 19.2314C192.326 19.7851 192.695 20.5234 192.972 21.3232C193.249 22.123 193.464 23.0459 193.587 24.0611C193.71 25.0455 193.71 26.0299 193.618 26.9528C193.525 27.8756 193.341 28.7062 193.095 29.4753C192.849 30.2136 192.51 30.8596 192.08 31.3518C191.68 31.844 191.218 32.1824 190.695 32.3362C190.172 32.49 189.649 32.4285 189.157 32.1824C188.665 31.9363 188.204 31.5364 187.773 30.9519C187.342 30.3982 186.973 29.6599 186.696 28.86C186.389 28.0294 186.173 27.1066 186.081 26.0914C185.958 25.0762 185.958 24.0918 186.05 23.169C186.142 22.2461 186.327 21.3847 186.604 20.6157C186.881 19.8774 187.219 19.2314 187.619 18.7392C188.08 18.2162 188.542 17.9086 189.065 17.7548Z" fill="#FF4848"/>
<path d="M185.714 32.5829C185.745 32.5829 185.745 32.5829 185.776 32.5829C185.868 32.5829 185.991 32.6137 186.084 32.5829L190.267 32.3676C190.175 32.3676 190.052 32.3676 189.96 32.3676C189.929 32.3676 189.929 32.3676 189.898 32.3676C189.806 32.3676 189.683 32.3368 189.591 32.306C189.56 32.306 189.56 32.306 189.529 32.2753C189.437 32.2445 189.314 32.2138 189.221 32.1522C189.129 32.0907 189.006 32.0292 188.914 31.9677C188.883 31.9677 188.883 31.9369 188.852 31.9369C188.76 31.8754 188.668 31.8138 188.575 31.7216C188.545 31.7216 188.545 31.6908 188.514 31.66C188.422 31.5677 188.329 31.4755 188.237 31.3832C188.145 31.2909 188.052 31.1678 187.96 31.0755C187.929 31.0448 187.929 31.0448 187.899 31.014C187.868 30.9525 187.806 30.891 187.776 30.8602C187.714 30.7679 187.622 30.6449 187.56 30.5526C187.529 30.4911 187.499 30.4295 187.437 30.368C187.376 30.245 187.314 30.1527 187.253 30.0296C187.191 29.9373 187.16 29.845 187.099 29.722C187.099 29.722 187.099 29.722 187.099 29.6912C187.037 29.5374 186.945 29.3528 186.883 29.199C186.883 29.199 186.883 29.1683 186.853 29.1683C186.791 28.9837 186.73 28.8299 186.668 28.6145C186.607 28.43 186.545 28.2146 186.484 28.0301C186.422 27.8147 186.391 27.6301 186.33 27.4148V27.384C186.299 27.1687 186.237 26.9534 186.207 26.738V26.7073C186.176 26.4919 186.145 26.2458 186.114 26.0305C186.084 25.7844 186.053 25.5383 186.053 25.2922V25.2614C186.053 25.0153 186.022 24.8 186.022 24.5539C186.022 24.5231 186.022 24.5231 186.022 24.4924C186.022 24.2463 186.022 24.0309 186.022 23.7848V23.7541C186.022 23.5387 186.053 23.3542 186.053 23.1388C186.053 23.0773 186.053 23.0158 186.084 22.985C186.114 22.8004 186.114 22.6159 186.145 22.4313C186.145 22.4005 186.145 22.4005 186.145 22.3698C186.176 22.1544 186.207 21.9698 186.268 21.7545C186.268 21.7237 186.268 21.7237 186.268 21.693C186.299 21.4776 186.36 21.2931 186.422 21.1085C186.484 20.9239 186.514 20.7701 186.576 20.6163C186.576 20.5855 186.607 20.5548 186.607 20.524C186.668 20.3702 186.73 20.1856 186.791 20.0318C186.822 20.001 186.822 19.9703 186.853 19.9087C186.914 19.7857 186.976 19.6626 187.037 19.5704C187.068 19.5396 187.068 19.5088 187.099 19.4473C187.191 19.2935 187.253 19.1704 187.345 19.0474C187.437 18.9243 187.529 18.7705 187.622 18.6782C187.652 18.6167 187.714 18.586 187.745 18.5244L187.776 18.4937C187.837 18.4321 187.868 18.4014 187.929 18.3399C187.991 18.3091 188.022 18.2476 188.083 18.2168C188.083 18.2168 188.083 18.2168 188.114 18.186C188.175 18.1553 188.206 18.1245 188.268 18.063C188.268 18.063 188.299 18.063 188.299 18.0322C188.36 18.0015 188.391 17.9707 188.452 17.9399H188.483C188.545 17.9092 188.606 17.8784 188.637 17.8477C188.637 17.8477 188.637 17.8477 188.668 17.8477C188.729 17.8169 188.791 17.7861 188.852 17.7861C188.914 17.7554 188.975 17.7554 189.037 17.7246L184.853 18.0015C184.822 18.0015 184.792 18.0015 184.792 18.0322C184.761 18.0322 184.73 18.0322 184.73 18.063H184.699C184.699 18.063 184.699 18.063 184.669 18.063C184.638 18.063 184.607 18.0938 184.607 18.0938C184.576 18.0938 184.545 18.1245 184.545 18.1245C184.545 18.1245 184.545 18.1245 184.515 18.1245C184.484 18.1553 184.453 18.1553 184.422 18.186C184.392 18.186 184.392 18.2168 184.361 18.2168H184.33C184.33 18.2168 184.33 18.2168 184.299 18.2168C184.269 18.2476 184.238 18.2476 184.207 18.2783C184.207 18.2783 184.176 18.2783 184.176 18.3091C184.176 18.3091 184.146 18.3091 184.146 18.3399L184.115 18.3706C184.084 18.4014 184.053 18.4321 184.023 18.4321C184.023 18.4321 184.023 18.4321 183.992 18.4629C183.961 18.4937 183.961 18.4937 183.93 18.5244C183.899 18.5552 183.869 18.586 183.838 18.6167C183.807 18.6475 183.776 18.6782 183.746 18.709L183.715 18.7398L183.684 18.7705L183.653 18.8013C183.623 18.8321 183.592 18.8628 183.561 18.9243C183.53 18.9551 183.5 18.9859 183.5 19.0166C183.469 19.0782 183.438 19.1089 183.377 19.1704C183.346 19.232 183.315 19.2627 183.284 19.3243C183.253 19.3858 183.223 19.4473 183.192 19.4781C183.161 19.5088 183.13 19.6011 183.1 19.6626C183.1 19.6934 183.069 19.6934 183.069 19.7242C183.038 19.7549 183.038 19.7857 183.007 19.8472C182.977 19.9087 182.946 19.9395 182.915 20.001C182.884 20.0626 182.854 20.1241 182.823 20.1856C182.792 20.2164 182.792 20.2471 182.761 20.3087C182.761 20.3394 182.73 20.3394 182.73 20.3702C182.669 20.4932 182.638 20.6163 182.577 20.7393V20.7701C182.577 20.7701 182.577 20.7701 182.577 20.8009C182.577 20.8316 182.577 20.8624 182.546 20.8624C182.515 20.9547 182.484 21.047 182.454 21.1392C182.423 21.2008 182.392 21.2931 182.392 21.3546C182.361 21.4469 182.331 21.5392 182.331 21.6007C182.3 21.693 182.3 21.7853 182.269 21.8776C182.269 21.9083 182.269 21.9083 182.269 21.9391C182.269 21.9698 182.269 21.9698 182.269 22.0006C182.269 22.0621 182.238 22.0929 182.238 22.1544C182.208 22.3082 182.177 22.462 182.146 22.6159V22.6466C182.115 22.7697 182.115 22.9235 182.084 23.0465C182.084 23.1081 182.084 23.1388 182.054 23.2003C182.054 23.2311 182.054 23.2619 182.054 23.2926C182.054 23.3234 182.054 23.3542 182.054 23.3849C182.054 23.4464 182.054 23.4772 182.023 23.5387C182.023 23.6925 181.992 23.8464 181.992 24.0002V24.0309C181.992 24.1232 181.992 24.2155 181.992 24.3078C181.992 24.4001 181.992 24.4924 181.992 24.5847C181.992 24.6462 181.992 24.6769 181.992 24.7385C181.992 24.7692 181.992 24.7692 181.992 24.8C181.992 24.8308 181.992 24.8615 181.992 24.8615C181.992 24.9538 181.992 25.0461 181.992 25.1384C181.992 25.1999 181.992 25.2922 181.992 25.3537C181.992 25.3845 181.992 25.446 181.992 25.4768V25.5075C181.992 25.5383 181.992 25.5383 181.992 25.5691C181.992 25.6306 181.992 25.7229 182.023 25.7844C182.023 25.8459 182.023 25.9382 182.054 25.9997C182.054 26.0305 182.054 26.0305 182.054 26.0613C182.054 26.092 182.054 26.092 182.054 26.1228C182.054 26.1535 182.054 26.1535 182.054 26.1843C182.054 26.2151 182.054 26.2151 182.054 26.2458C182.054 26.3074 182.054 26.3381 182.084 26.3996C182.084 26.4612 182.084 26.4919 182.115 26.5535C182.146 26.615 182.115 26.6457 182.146 26.7073C182.146 26.7688 182.177 26.7996 182.177 26.8611C182.177 26.8918 182.177 26.8918 182.177 26.9226V26.9534C182.177 26.9841 182.177 27.0457 182.208 27.0764C182.208 27.1379 182.238 27.1995 182.238 27.261C182.238 27.3225 182.269 27.384 182.269 27.4456C182.269 27.4763 182.3 27.5379 182.3 27.5686V27.5994C182.3 27.6301 182.3 27.6301 182.3 27.6609C182.3 27.7224 182.331 27.784 182.331 27.8455C182.361 27.907 182.361 27.9685 182.392 28.0301C182.392 28.0916 182.423 28.1531 182.454 28.2146C182.484 28.2762 182.484 28.3377 182.515 28.3992C182.546 28.4607 182.546 28.5223 182.577 28.6145C182.607 28.6761 182.607 28.7376 182.638 28.7991C182.669 28.8606 182.669 28.9222 182.7 28.9837C182.73 29.0452 182.761 29.1067 182.761 29.1683C182.792 29.2298 182.792 29.2606 182.823 29.3221C182.823 29.3221 182.823 29.3528 182.854 29.3528C182.854 29.3836 182.854 29.3836 182.884 29.4144C182.915 29.4759 182.946 29.5682 182.977 29.6297C183.007 29.6912 183.038 29.7835 183.069 29.845C183.069 29.845 183.069 29.845 183.069 29.8758C183.1 29.9373 183.13 29.9989 183.161 30.0604C183.192 30.0911 183.192 30.1219 183.223 30.1834C183.284 30.3065 183.346 30.3988 183.407 30.5218C183.438 30.5833 183.469 30.6449 183.53 30.7064C183.561 30.7372 183.561 30.7679 183.592 30.7987C183.653 30.8602 183.684 30.9217 183.746 31.014C183.776 31.0448 183.807 31.0755 183.807 31.1371C183.807 31.1678 183.838 31.1678 183.838 31.1986C183.869 31.2294 183.869 31.2294 183.899 31.2601C183.992 31.3832 184.084 31.4755 184.176 31.5677C184.269 31.66 184.361 31.7523 184.453 31.8446C184.484 31.8446 184.484 31.8754 184.515 31.8754L184.545 31.9061C184.638 31.9677 184.699 32.0292 184.792 32.0907C184.792 32.0907 184.792 32.0907 184.822 32.1215C184.822 32.1215 184.853 32.1215 184.853 32.1522C184.945 32.2138 185.068 32.2753 185.161 32.3368C185.222 32.3676 185.284 32.3983 185.376 32.4291C185.407 32.4291 185.438 32.4599 185.468 32.4599C185.499 32.4599 185.499 32.4599 185.53 32.4906C185.499 32.5521 185.591 32.5829 185.714 32.5829Z" fill="#D33B3B"/>
<path d="M178.418 17.7549L174.234 18.0317H174.265H174.296H174.327H174.357L178.541 17.7549H178.51H178.48H178.449H178.418Z" fill="#949494"/>
<path d="M178.574 17.7246L174.391 18.0015C174.421 18.0015 174.421 18.0015 174.452 18.0015C174.483 18.0015 174.483 18.0015 174.514 18.0015C174.544 18.0015 174.544 18.0015 174.575 18.0015C174.606 18.0015 174.606 18.0015 174.637 18.0015L178.82 17.7246C178.79 17.7246 178.79 17.7246 178.759 17.7246C178.728 17.7246 178.728 17.7246 178.697 17.7246C178.667 17.7246 178.667 17.7246 178.636 17.7246C178.605 17.7246 178.574 17.7246 178.574 17.7246Z" fill="#8F8F8F"/>
<path d="M178.42 17.7548C178.943 17.6317 179.466 17.6932 179.928 17.9701C180.42 18.2162 180.881 18.6469 181.281 19.2314C181.681 19.7851 182.05 20.5234 182.327 21.3232C182.604 22.123 182.819 23.0459 182.942 24.0611C183.065 25.0455 183.065 26.0299 182.973 26.9528C182.881 27.8756 182.696 28.7062 182.45 29.4753C182.204 30.2136 181.866 30.8596 181.435 31.3518C181.035 31.844 180.574 32.1824 180.051 32.3362C179.528 32.49 179.005 32.4285 178.513 32.1824C178.02 31.9363 177.559 31.5364 177.128 30.9519C176.698 30.3982 176.328 29.6599 176.052 28.86C175.744 28.0294 175.529 27.1066 175.436 26.0914C175.313 25.0762 175.313 24.0918 175.406 23.169C175.498 22.2461 175.682 21.3847 175.959 20.6157C176.236 19.8774 176.575 19.2314 176.975 18.7392C177.436 18.2162 177.897 17.9086 178.42 17.7548Z" fill="#FDC430"/>
<path d="M175.066 32.5829C175.097 32.5829 175.097 32.5829 175.128 32.5829C175.22 32.5829 175.343 32.6137 175.435 32.5829L179.619 32.3676C179.527 32.3676 179.404 32.3676 179.311 32.3676C179.28 32.3676 179.28 32.3676 179.25 32.3676C179.157 32.3676 179.034 32.3368 178.942 32.306C178.911 32.306 178.911 32.306 178.881 32.2753C178.788 32.2445 178.665 32.2138 178.573 32.1522C178.481 32.0907 178.358 32.0292 178.265 31.9677C178.235 31.9677 178.235 31.9369 178.204 31.9369C178.112 31.8754 178.019 31.8138 177.927 31.7216C177.896 31.7216 177.896 31.6908 177.865 31.66C177.773 31.5677 177.681 31.4755 177.589 31.3832C177.496 31.2909 177.404 31.1678 177.312 31.0755C177.281 31.0448 177.281 31.0448 177.25 31.014C177.219 30.9525 177.158 30.891 177.127 30.8602C177.066 30.7679 176.973 30.6449 176.912 30.5526C176.881 30.4911 176.85 30.4295 176.789 30.368C176.727 30.245 176.666 30.1527 176.604 30.0296C176.543 29.9373 176.512 29.845 176.45 29.722C176.45 29.722 176.45 29.722 176.45 29.6912C176.358 29.5374 176.297 29.3528 176.235 29.199C176.235 29.199 176.235 29.1683 176.204 29.1683C176.143 28.9837 176.081 28.8299 176.02 28.6145C175.958 28.43 175.897 28.2146 175.835 28.0301C175.774 27.8147 175.743 27.6301 175.681 27.4148V27.384C175.65 27.1687 175.589 26.9534 175.558 26.738V26.7073C175.527 26.4919 175.497 26.2458 175.466 26.0305C175.435 25.7844 175.404 25.5383 175.404 25.2922V25.2614C175.404 25.0153 175.374 24.8 175.374 24.5539C175.374 24.5231 175.374 24.5231 175.374 24.4924C175.374 24.2463 175.374 24.0309 175.374 23.7848V23.7541C175.374 23.5387 175.404 23.3542 175.404 23.1388C175.404 23.0773 175.404 23.0158 175.435 22.985C175.466 22.8004 175.466 22.6159 175.497 22.4313C175.497 22.4005 175.497 22.4005 175.497 22.3698C175.527 22.1544 175.558 21.9391 175.62 21.7545C175.62 21.7237 175.62 21.7237 175.62 21.693C175.65 21.4776 175.712 21.2931 175.774 21.1085C175.835 20.9239 175.866 20.7701 175.927 20.6163C175.927 20.5855 175.958 20.5548 175.958 20.524C176.02 20.3702 176.081 20.1856 176.143 20.0318C176.173 20.001 176.173 19.9703 176.204 19.9087C176.266 19.7857 176.327 19.6626 176.389 19.5704C176.42 19.5396 176.42 19.5088 176.45 19.4473C176.543 19.2935 176.604 19.1704 176.696 19.0474C176.789 18.9243 176.881 18.7705 176.973 18.6782C177.004 18.6167 177.066 18.586 177.096 18.5244L177.127 18.4937C177.189 18.4321 177.219 18.4014 177.281 18.3399C177.342 18.3091 177.373 18.2476 177.435 18.2168C177.435 18.2168 177.435 18.2168 177.465 18.186C177.527 18.1553 177.558 18.1245 177.619 18.063C177.619 18.063 177.65 18.063 177.65 18.0322C177.712 18.0015 177.742 17.9707 177.804 17.9399H177.835C177.896 17.9092 177.958 17.8784 177.988 17.8477C177.988 17.8477 177.988 17.8477 178.019 17.8477C178.081 17.8169 178.142 17.7861 178.204 17.7861C178.265 17.7554 178.327 17.7554 178.388 17.7246L174.205 18.0015C174.174 18.0015 174.143 18.0015 174.143 18.0322C174.112 18.0322 174.082 18.0322 174.082 18.063H174.051C174.051 18.063 174.051 18.063 174.02 18.063C173.989 18.063 173.959 18.0938 173.959 18.0938C173.928 18.0938 173.897 18.1245 173.897 18.1245C173.897 18.1245 173.897 18.1245 173.866 18.1245C173.836 18.1553 173.805 18.1553 173.774 18.186C173.743 18.186 173.743 18.2168 173.712 18.2168H173.682C173.682 18.2168 173.682 18.2168 173.651 18.2168C173.62 18.2476 173.589 18.2476 173.559 18.2783C173.559 18.2783 173.528 18.2783 173.528 18.3091C173.528 18.3091 173.497 18.3091 173.497 18.3399L173.466 18.3706C173.436 18.4014 173.405 18.4321 173.374 18.4321C173.374 18.4321 173.374 18.4321 173.343 18.4629C173.313 18.4937 173.313 18.4937 173.282 18.5244C173.251 18.5552 173.22 18.586 173.19 18.6167C173.159 18.6475 173.128 18.6782 173.097 18.709L173.066 18.7398L173.036 18.7705L173.005 18.8013C172.974 18.8321 172.943 18.8628 172.913 18.9243C172.882 18.9551 172.851 18.9859 172.851 19.0166C172.82 19.0782 172.79 19.1089 172.728 19.1704C172.697 19.232 172.667 19.2627 172.636 19.3243C172.605 19.3858 172.574 19.4473 172.543 19.4781C172.513 19.5396 172.482 19.6011 172.451 19.6626C172.451 19.6934 172.42 19.6934 172.42 19.7242C172.39 19.7549 172.39 19.7857 172.359 19.8472C172.328 19.9087 172.297 19.9395 172.267 20.001C172.236 20.0626 172.205 20.1241 172.174 20.1856C172.144 20.2164 172.144 20.2471 172.113 20.3087C172.113 20.3394 172.082 20.3394 172.082 20.3702C172.021 20.4932 171.99 20.6163 171.928 20.7393V20.7701C171.928 20.7701 171.928 20.7701 171.928 20.8009C171.928 20.8316 171.928 20.8624 171.897 20.8624C171.867 20.9547 171.836 21.047 171.805 21.1392C171.774 21.2008 171.744 21.2931 171.744 21.3546C171.713 21.4469 171.682 21.5392 171.682 21.6007C171.651 21.693 171.651 21.7853 171.621 21.8776C171.621 21.9083 171.621 21.9083 171.621 21.9391C171.621 21.9698 171.621 21.9698 171.621 22.0006C171.621 22.0621 171.59 22.0929 171.59 22.1544C171.559 22.3082 171.528 22.462 171.498 22.6159C171.498 22.6466 171.498 22.6466 171.498 22.6774C171.467 22.8004 171.467 22.9542 171.436 23.0773C171.436 23.1388 171.436 23.1696 171.405 23.2311C171.405 23.2619 171.405 23.2926 171.405 23.3234C171.405 23.3542 171.405 23.3849 171.405 23.4157C171.405 23.4772 171.405 23.508 171.375 23.5695C171.375 23.7233 171.344 23.8771 171.344 24.0309V24.0617C171.344 24.154 171.344 24.2463 171.344 24.3386C171.344 24.4308 171.344 24.5231 171.344 24.6154C171.344 24.6769 171.344 24.7077 171.344 24.7692V24.8C171.344 24.8308 171.344 24.8615 171.344 24.8615C171.344 24.9538 171.344 25.0461 171.344 25.1384C171.344 25.1999 171.344 25.2922 171.344 25.3537C171.344 25.3845 171.344 25.446 171.344 25.4768V25.5075C171.344 25.5383 171.344 25.5383 171.344 25.5691C171.344 25.6306 171.344 25.7229 171.375 25.7844C171.375 25.8459 171.375 25.9382 171.405 25.9997C171.405 26.0305 171.405 26.0305 171.405 26.0613C171.405 26.092 171.405 26.092 171.405 26.1228C171.405 26.1535 171.405 26.1535 171.405 26.1843C171.405 26.2151 171.405 26.2151 171.405 26.2458C171.405 26.3074 171.405 26.3381 171.436 26.3996C171.436 26.4612 171.436 26.4919 171.467 26.5535C171.498 26.615 171.467 26.6457 171.498 26.7073C171.498 26.7688 171.528 26.7996 171.528 26.8611C171.528 26.8918 171.528 26.8918 171.528 26.9226V26.9534C171.528 26.9841 171.528 27.0457 171.559 27.0764C171.559 27.1379 171.59 27.1995 171.59 27.261C171.59 27.3225 171.621 27.384 171.621 27.4456C171.621 27.4763 171.651 27.5071 171.651 27.5686V27.5994C171.651 27.6301 171.651 27.6301 171.651 27.6609C171.651 27.7224 171.682 27.784 171.682 27.8455C171.713 27.907 171.713 27.9685 171.744 28.0301C171.744 28.0916 171.774 28.1531 171.805 28.2146C171.836 28.2762 171.836 28.3377 171.867 28.3992C171.897 28.4607 171.897 28.5223 171.928 28.6145C171.959 28.6761 171.959 28.7376 171.99 28.7991C172.021 28.8606 172.021 28.9222 172.051 28.9837C172.082 29.0452 172.113 29.1067 172.113 29.1683C172.144 29.2298 172.144 29.2606 172.174 29.3221C172.174 29.3221 172.174 29.3528 172.205 29.3528C172.205 29.3836 172.205 29.3836 172.236 29.4144C172.267 29.4759 172.297 29.5682 172.328 29.6297C172.359 29.6912 172.39 29.7835 172.42 29.845C172.42 29.845 172.42 29.845 172.42 29.8758C172.451 29.9373 172.482 29.9989 172.513 30.0604C172.543 30.0911 172.543 30.1219 172.574 30.1834C172.636 30.3065 172.697 30.3988 172.759 30.5218C172.79 30.5833 172.82 30.6449 172.882 30.7064C172.913 30.7372 172.913 30.7679 172.943 30.7987C173.005 30.8602 173.036 30.9217 173.097 31.014C173.128 31.0448 173.159 31.0755 173.159 31.1371C173.159 31.1678 173.19 31.1678 173.19 31.1986C173.22 31.2294 173.22 31.2294 173.251 31.2601C173.343 31.3832 173.436 31.4755 173.528 31.5677C173.62 31.66 173.712 31.7523 173.805 31.8446C173.836 31.8446 173.836 31.8754 173.866 31.8754L173.897 31.9061C173.989 31.9677 174.051 32.0292 174.143 32.0907C174.143 32.0907 174.143 32.0907 174.174 32.1215C174.174 32.1215 174.205 32.1215 174.205 32.1522C174.297 32.2138 174.42 32.2753 174.512 32.3368C174.574 32.3676 174.635 32.3983 174.728 32.4291C174.758 32.4291 174.789 32.4599 174.82 32.4599C174.851 32.4599 174.851 32.4599 174.881 32.4906C174.851 32.5521 174.943 32.5829 175.066 32.5829Z" fill="#D28B20"/>
<path d="M168.02 17.7549L163.836 18.0317H163.867H163.897H163.928H163.959L168.143 17.7549H168.112H168.081H168.05H168.02Z" fill="#949494"/>
<path d="M168.172 17.7246L163.988 18.0015C164.019 18.0015 164.019 18.0015 164.05 18.0015C164.081 18.0015 164.081 18.0015 164.111 18.0015C164.142 18.0015 164.142 18.0015 164.173 18.0015C164.204 18.0015 164.204 18.0015 164.234 18.0015L168.418 17.7246C168.387 17.7246 168.387 17.7246 168.357 17.7246C168.326 17.7246 168.326 17.7246 168.295 17.7246C168.264 17.7246 168.264 17.7246 168.234 17.7246C168.203 17.7246 168.172 17.7246 168.172 17.7246Z" fill="#8F8F8F"/>
<path d="M168.022 17.7548C168.545 17.6317 169.068 17.6932 169.529 17.9701C170.021 18.2162 170.483 18.6469 170.883 19.2314C171.283 19.7851 171.652 20.5234 171.929 21.3232C172.206 22.123 172.421 23.0459 172.544 24.0611C172.667 25.0455 172.667 26.0299 172.575 26.9528C172.482 27.8756 172.298 28.7062 172.052 29.4753C171.806 30.2136 171.467 30.8596 171.037 31.3518C170.637 31.844 170.175 32.1824 169.652 32.3362C169.129 32.49 168.606 32.4285 168.114 32.1824C167.622 31.9363 167.161 31.5364 166.73 30.9519C166.299 30.3982 165.93 29.6599 165.653 28.86C165.346 28.0294 165.13 27.1066 165.038 26.0914C164.915 25.0762 164.915 24.0918 165.007 23.169C165.099 22.2461 165.284 21.3847 165.561 20.6157C165.838 19.8774 166.176 19.2314 166.576 18.7392C167.038 18.2162 167.499 17.9086 168.022 17.7548Z" fill="#29F593"/>
<path d="M164.671 32.5824C164.702 32.5824 164.702 32.5824 164.733 32.5824C164.825 32.5824 164.948 32.6132 165.041 32.5824L169.224 32.3671C169.132 32.3671 169.009 32.3671 168.917 32.3671C168.886 32.3671 168.886 32.3671 168.855 32.3671C168.763 32.3671 168.64 32.3363 168.548 32.3056C168.517 32.3056 168.517 32.3056 168.486 32.2748C168.394 32.244 168.271 32.2133 168.178 32.1517C168.086 32.0902 167.963 32.0287 167.871 31.9672C167.84 31.9672 167.84 31.9364 167.809 31.9364C167.717 31.8749 167.625 31.8134 167.532 31.7211C167.502 31.7211 167.502 31.6903 167.471 31.6595C167.379 31.5673 167.286 31.475 167.194 31.3827C167.102 31.2904 167.009 31.1673 166.917 31.0751C166.886 31.0443 166.886 31.0443 166.856 31.0135C166.825 30.952 166.763 30.8905 166.733 30.8597C166.671 30.7674 166.579 30.6444 166.517 30.5521C166.486 30.4906 166.456 30.429 166.394 30.3675C166.333 30.2445 166.271 30.1522 166.21 30.0291C166.148 29.9368 166.117 29.8446 166.056 29.7215C166.056 29.7215 166.056 29.7215 166.056 29.6907C165.964 29.5369 165.902 29.3524 165.84 29.1985C165.84 29.1985 165.84 29.1678 165.81 29.1678C165.748 28.9832 165.687 28.8294 165.625 28.6141C165.564 28.4295 165.502 28.2141 165.441 28.0296C165.379 27.8142 165.348 27.6297 165.287 27.4143V27.3836C165.256 27.1682 165.194 26.9529 165.164 26.7375V26.7068C165.133 26.4914 165.102 26.2453 165.071 26.03C165.041 25.7839 165.01 25.5378 165.01 25.2917V25.2609C165.01 25.0148 164.979 24.7995 164.979 24.5534C164.979 24.5226 164.979 24.5226 164.979 24.4919C164.979 24.2458 164.979 24.0304 164.979 23.7843V23.7536C164.979 23.5382 165.01 23.3537 165.01 23.1383C165.01 23.0768 165.01 23.0153 165.041 22.9845C165.071 22.7999 165.071 22.6154 165.102 22.4308V22.4C165.133 22.1847 165.164 21.9693 165.225 21.7848C165.225 21.754 165.225 21.754 165.225 21.7232C165.256 21.5079 165.317 21.3233 165.379 21.1388C165.441 20.9542 165.471 20.8004 165.533 20.6466C165.533 20.6158 165.564 20.585 165.564 20.5543C165.625 20.4005 165.687 20.2159 165.748 20.0621C165.779 20.0313 165.779 20.0005 165.81 19.939C165.871 19.816 165.933 19.6929 165.994 19.6006C166.025 19.5699 166.025 19.5391 166.056 19.4776C166.148 19.3238 166.21 19.2007 166.302 19.0777C166.394 18.9546 166.486 18.8008 166.579 18.7085C166.61 18.647 166.671 18.6162 166.702 18.5547L166.733 18.5239C166.794 18.4624 166.825 18.4317 166.886 18.3701C166.948 18.3394 166.979 18.2778 167.04 18.2471C167.04 18.2471 167.04 18.2471 167.071 18.2163C167.132 18.1856 167.163 18.1548 167.225 18.0933C167.225 18.0933 167.256 18.0933 167.256 18.0625C167.317 18.0317 167.348 18.001 167.409 17.9702H167.44C167.502 17.9395 167.563 17.9087 167.594 17.8779C167.594 17.8779 167.594 17.8779 167.625 17.8779C167.686 17.8472 167.748 17.8164 167.809 17.8164C167.871 17.7856 167.932 17.7856 167.994 17.7549L163.81 18.0317C163.779 18.0317 163.749 18.0317 163.749 18.0625C163.718 18.0625 163.687 18.0625 163.687 18.0933H163.656C163.656 18.0933 163.656 18.0933 163.626 18.0933C163.595 18.0933 163.564 18.124 163.564 18.124C163.533 18.124 163.503 18.1548 163.503 18.1548C163.503 18.1548 163.502 18.1548 163.472 18.1548C163.441 18.1856 163.41 18.1856 163.379 18.2163C163.349 18.2163 163.349 18.2471 163.318 18.2471H163.287H163.256C163.226 18.2778 163.195 18.2778 163.164 18.3086L163.133 18.3394C163.133 18.3394 163.103 18.3394 163.103 18.3701L163.072 18.4009C163.041 18.4317 163.01 18.4624 162.98 18.4624C162.98 18.4624 162.98 18.4624 162.949 18.4932C162.918 18.5239 162.918 18.5239 162.887 18.5547C162.856 18.5855 162.826 18.6162 162.795 18.647C162.764 18.6778 162.733 18.7085 162.703 18.7393L162.672 18.77L162.641 18.8008L162.61 18.8316C162.58 18.8623 162.549 18.8931 162.518 18.9546C162.487 18.9854 162.457 19.0161 162.457 19.0469C162.426 19.1084 162.395 19.1392 162.334 19.2007C162.303 19.2622 162.272 19.293 162.241 19.3545C162.21 19.4161 162.18 19.4776 162.149 19.5083C162.118 19.5699 162.087 19.6314 162.057 19.6929C162.057 19.7237 162.026 19.7237 162.026 19.7544C161.995 19.7852 161.995 19.816 161.964 19.8775C161.934 19.939 161.903 19.9698 161.872 20.0313C161.841 20.0928 161.811 20.1544 161.78 20.2159C161.749 20.2466 161.749 20.2774 161.718 20.3389C161.718 20.3697 161.688 20.3697 161.688 20.4005C161.626 20.5235 161.595 20.6466 161.534 20.7696V20.8004C161.534 20.8004 161.534 20.8004 161.534 20.8311C161.534 20.8619 161.534 20.8927 161.503 20.8927C161.472 20.9849 161.441 21.0772 161.411 21.1695C161.38 21.231 161.349 21.3233 161.349 21.3849C161.318 21.4771 161.288 21.5694 161.288 21.631C161.257 21.7232 161.257 21.8155 161.226 21.9078C161.226 21.9386 161.226 21.9386 161.226 21.9693C161.226 22.0001 161.226 22.0001 161.226 22.0309C161.226 22.0924 161.195 22.1232 161.195 22.1847C161.165 22.3385 161.134 22.4923 161.103 22.6461C161.103 22.6461 161.103 22.6769 161.103 22.7076C161.072 22.8307 161.072 22.9845 161.042 23.1076C161.042 23.1691 161.041 23.1998 161.011 23.2614C161.011 23.2921 161.011 23.3229 161.011 23.3537C161.011 23.3844 161.011 23.4152 161.011 23.4459C161.011 23.5075 161.011 23.5382 160.98 23.5998C160.98 23.7536 160.949 23.9074 160.949 24.0612V24.092C160.949 24.1843 160.949 24.2765 160.949 24.3688C160.949 24.4611 160.949 24.5534 160.949 24.6457C160.949 24.7072 160.949 24.738 160.949 24.7995C160.949 24.8303 160.949 24.8303 160.949 24.861C160.949 24.8918 160.949 24.9226 160.949 24.9226C160.949 25.0148 160.949 25.1071 160.949 25.1994C160.949 25.2609 160.949 25.3532 160.949 25.4148C160.949 25.4455 160.949 25.507 160.949 25.5378V25.5686C160.949 25.5993 160.949 25.5993 160.949 25.6301C160.949 25.6916 160.949 25.7839 160.98 25.8454C160.98 25.907 160.98 25.9992 161.011 26.0608C161.011 26.0915 161.011 26.0915 161.011 26.1223C161.011 26.1531 161.011 26.1531 161.011 26.1838C161.011 26.2146 161.011 26.2146 161.011 26.2453C161.011 26.2761 161.011 26.2761 161.011 26.3069C161.011 26.3684 161.011 26.3992 161.042 26.4607C161.042 26.5222 161.041 26.553 161.072 26.6145C161.103 26.676 161.072 26.7068 161.103 26.7683C161.134 26.8298 161.134 26.8606 161.134 26.9221C161.134 26.9529 161.134 26.9529 161.134 26.9836V27.0144C161.134 27.0452 161.134 27.1067 161.165 27.1375C161.165 27.199 161.195 27.2605 161.195 27.322C161.195 27.3836 161.226 27.4451 161.226 27.5066C161.226 27.5374 161.257 27.5681 161.257 27.6297V27.6604C161.257 27.6912 161.257 27.6912 161.257 27.7219C161.257 27.7835 161.288 27.845 161.288 27.9065C161.318 27.968 161.318 28.0296 161.349 28.0911C161.349 28.1526 161.38 28.2141 161.411 28.2757C161.441 28.3372 161.441 28.3987 161.472 28.4602C161.503 28.5218 161.503 28.5833 161.534 28.6756C161.564 28.7371 161.564 28.7986 161.595 28.8602C161.626 28.9217 161.626 28.9832 161.657 29.0447C161.688 29.1063 161.718 29.1678 161.718 29.2293C161.749 29.2908 161.749 29.3216 161.78 29.3831C161.78 29.3831 161.78 29.4139 161.811 29.4139C161.811 29.4446 161.811 29.4446 161.841 29.4754C161.872 29.5369 161.903 29.6292 161.934 29.6907C161.964 29.7523 161.995 29.8446 162.026 29.9061C162.026 29.9061 162.026 29.9061 162.026 29.9368C162.057 29.9984 162.087 30.0599 162.118 30.1214C162.149 30.1522 162.149 30.1829 162.18 30.2445C162.241 30.3675 162.303 30.4598 162.364 30.5829C162.395 30.6444 162.426 30.7059 162.487 30.7674C162.518 30.7982 162.518 30.829 162.549 30.8597C162.61 30.9212 162.641 30.9828 162.703 31.0751C162.733 31.1058 162.764 31.1366 162.764 31.1981C162.764 31.2289 162.795 31.2289 162.795 31.2596C162.826 31.2904 162.826 31.2904 162.856 31.3212C162.949 31.4442 163.041 31.5365 163.133 31.6288C163.226 31.7211 163.318 31.8134 163.41 31.9056C163.441 31.9056 163.441 31.9364 163.472 31.9364L163.503 31.9672C163.595 32.0287 163.656 32.0902 163.749 32.1517C163.749 32.1517 163.749 32.1517 163.779 32.1825C163.779 32.1825 163.81 32.1825 163.81 32.2133C163.902 32.2748 164.025 32.3363 164.118 32.3978C164.179 32.4286 164.241 32.4594 164.333 32.4901C164.364 32.4901 164.395 32.5209 164.425 32.5209C164.456 32.5209 164.456 32.5209 164.487 32.5517C164.456 32.5517 164.548 32.5824 164.671 32.5824Z" fill="#26BF76"/>
<defs>
<filter id="filter0_f" x="41.5273" y="74.752" width="65.6449" height="100.097" filterUnits="userSpaceOnUse" color-interpolation-filters="sRGB">
<feFlood flood-opacity="0" result="BackgroundImageFix"/>
<feBlend mode="normal" in="SourceGraphic" in2="BackgroundImageFix" result="shape"/>
<feGaussianBlur stdDeviation="2" result="effect1_foregroundBlur"/>
</filter>
<filter id="filter1_f" x="130.285" y="118.588" width="71.8238" height="116.499" filterUnits="userSpaceOnUse" color-interpolation-filters="sRGB">
<feFlood flood-opacity="0" result="BackgroundImageFix"/>
<feBlend mode="normal" in="SourceGraphic" in2="BackgroundImageFix" result="shape"/>
<feGaussianBlur stdDeviation="1" result="effect1_foregroundBlur"/>
</filter>
<linearGradient id="paint0_linear" x1="90.6211" y1="74.4902" x2="233.351" y2="194.276" gradientUnits="userSpaceOnUse">
<stop stop-color="#FF8212"/>
<stop offset="1" stop-color="#ED4454"/>
</linearGradient>
<linearGradient id="paint1_linear" x1="154.756" y1="137.519" x2="52.3172" y2="79.8391" gradientUnits="userSpaceOnUse">
<stop offset="0.0420199" stop-color="#ED4454"/>
<stop offset="1" stop-color="#FB822A"/>
</linearGradient>
<linearGradient id="paint2_linear" x1="222.418" y1="120.588" x2="242.906" y2="206.292" gradientUnits="userSpaceOnUse">
<stop offset="0.197917" stop-color="#4D5068"/>
<stop offset="1" stop-color="#E9EBF1"/>
</linearGradient>
<linearGradient id="paint3_linear" x1="202.816" y1="122.618" x2="232.256" y2="206.292" gradientUnits="userSpaceOnUse">
<stop offset="0.197917" stop-color="#4D5068"/>
<stop offset="1" stop-color="#E9EBF1"/>
</linearGradient>
<linearGradient id="paint4_linear" x1="202.816" y1="120.588" x2="210.769" y2="136.346" gradientUnits="userSpaceOnUse">
<stop offset="0.197917" stop-color="#4D5068"/>
<stop offset="1" stop-color="#E9EBF1"/>
</linearGradient>
<linearGradient id="paint5_linear" x1="200.824" y1="143.722" x2="222.45" y2="218.413" gradientUnits="userSpaceOnUse">
<stop offset="0.197917" stop-color="#4D5068"/>
<stop offset="1" stop-color="#E9EBF1"/>
</linearGradient>
<linearGradient id="paint6_linear" x1="236.57" y1="182.727" x2="157.664" y2="218.412" gradientUnits="userSpaceOnUse">
<stop offset="0.197917" stop-color="#4D5068"/>
<stop offset="1" stop-color="#E9EBF1"/>
</linearGradient>
<linearGradient id="paint7_linear" x1="253.797" y1="111.667" x2="146.744" y2="165.501" gradientUnits="userSpaceOnUse">
<stop offset="0.197917" stop-color="#4D5068"/>
<stop offset="1" stop-color="#E9EBF1"/>
</linearGradient>
<linearGradient id="paint8_linear" x1="175.074" y1="172.454" x2="197.931" y2="233.087" gradientUnits="userSpaceOnUse">
<stop offset="0.197917" stop-color="#4D5068"/>
<stop offset="1" stop-color="#E9EBF1"/>
</linearGradient>
<linearGradient id="paint9_linear" x1="209.191" y1="177.806" x2="141.975" y2="218.72" gradientUnits="userSpaceOnUse">
<stop offset="0.197917" stop-color="#4D5068"/>
<stop offset="1" stop-color="#E9EBF1"/>
</linearGradient>
<linearGradient id="paint10_linear" x1="236.57" y1="139.046" x2="138.129" y2="178.729" gradientUnits="userSpaceOnUse">
<stop offset="0.197917" stop-color="#4D5068"/>
<stop offset="1" stop-color="#E9EBF1"/>
</linearGradient>
</defs>
</svg>
