<svg width="373" height="338" viewBox="0 0 373 338" fill="none" xmlns="http://www.w3.org/2000/svg">
<path d="M87.9245 314.592C84.9823 314.592 82.1266 313.115 80.4824 310.336C78.0594 306.255 79.3574 300.87 83.4246 298.439L144.66 262.485L82.04 226.098C79.444 224.535 77.7998 221.669 77.7998 218.629C77.7998 215.59 79.444 212.724 82.1266 211.161L304.275 81.9328C308.429 79.5012 313.708 80.8907 316.131 85.0592C318.554 89.2277 317.169 94.5252 313.015 96.9568L103.587 218.716L164.768 255.017C167.364 256.58 169.008 259.446 169.008 262.485C169.008 265.525 167.451 268.391 164.768 269.954L92.3378 313.463C90.9532 314.244 89.3956 314.592 87.9245 314.592Z" fill="url(#paint0_linear)"/>
<path d="M281.378 250.111C280.064 250.111 278.75 249.801 277.513 249.029L10.5351 93.974C6.82491 91.887 5.58819 87.172 7.75246 83.4618C9.91673 79.7517 14.5544 78.5149 18.2646 80.6792L285.32 235.734C289.03 237.898 290.267 242.613 288.103 246.323C286.634 248.719 284.083 250.111 281.378 250.111Z" fill="url(#paint1_linear)"/>
<path d="M282.632 241.548L197.607 193.238" stroke="url(#paint2_linear)" stroke-width="8" stroke-linecap="round"/>
<path d="M77.7998 60.1074V170.051L168.764 225.229V112.916L77.7998 60.1074Z" fill="url(#paint3_linear)"/>
<path d="M168.729 112.823L240.278 71.1123V178.847L168.729 223.614V112.823Z" fill="url(#paint4_linear)"/>
<path opacity="0.22" d="M77.7998 60.1068L150.319 17.4658L240.313 71.2046L168.764 112.915L77.7998 60.1068Z" fill="url(#paint5_linear)"/>
<path d="M240.313 56.585V64.6701L168.764 106.425V98.3399L240.313 56.585Z" fill="url(#paint6_linear)"/>
<path d="M168.764 98.3396V106.425L77.7998 53.6828V45.5977L168.764 98.3396Z" fill="url(#paint7_linear)"/>
<path d="M240.313 56.585L168.764 98.34L77.7998 45.598L149.349 3.86523L240.313 56.585Z" fill="url(#paint8_linear)"/>
<path d="M153.016 16.3108L119.046 35.9479C116.628 37.3541 116.628 40.8572 119.046 42.2387L153.361 62.0484C157.136 64.2194 161.798 64.2194 165.548 62.0238L199.543 42.1646C201.961 40.7585 201.936 37.2554 199.494 35.8739L165.079 16.2614C161.33 14.1398 156.741 14.1645 153.016 16.3108Z" fill="url(#paint9_linear)"/>
<path d="M155.32 24.2524L134.083 36.6829C132.571 37.573 132.571 39.7905 134.083 40.665L155.536 53.2047C157.895 54.579 160.81 54.579 163.155 53.1891L184.407 40.6181C185.919 39.728 185.903 37.5105 184.376 36.636L162.862 24.2212C160.517 22.8782 157.649 22.8938 155.32 24.2524Z" fill="#FB7EA3"/>
<path d="M154.424 20.8994L127.287 36.5893C125.363 37.6995 125.363 40.5118 127.287 41.622L154.695 57.4599C157.705 59.2115 161.43 59.1868 164.44 57.4353L191.601 41.5726C193.525 40.4378 193.525 37.6501 191.576 36.54L164.069 20.8747C161.06 19.1725 157.409 19.1972 154.424 20.8994Z" stroke="url(#paint10_linear)" stroke-width="2" stroke-miterlimit="10"/>
<path d="M199.569 42.1401L165.574 61.9993C161.8 64.1949 157.162 64.2195 153.387 62.0239L119.047 42.2388C117.789 41.5234 117.197 40.2406 117.221 38.9824V49.1463C117.221 50.3798 117.838 51.5886 119.047 52.3041L153.363 72.1138C157.137 74.2848 161.8 74.2848 165.549 72.0892L199.544 52.2301C200.728 51.5393 201.32 50.3552 201.345 49.171V49.097C201.345 49.0723 201.345 49.0723 201.345 49.0477V38.9824C201.37 40.2159 200.753 41.4494 199.569 42.1401Z" fill="url(#paint11_linear)"/>
<path d="M153.016 1.62524L119.046 21.2623C116.628 22.6685 116.628 26.1716 119.046 27.5531L153.361 47.3629C157.136 49.5338 161.798 49.5338 165.548 47.3382L199.543 27.4791C201.961 26.0729 201.936 22.5698 199.494 21.1883L165.079 1.5759C161.33 -0.545697 156.741 -0.521027 153.016 1.62524Z" fill="url(#paint12_linear)"/>
<path d="M155.321 9.56688L134.084 21.9973C132.572 22.8874 132.572 25.1049 134.084 25.9794L155.537 38.5192C157.896 39.8934 160.811 39.8934 163.156 38.5036L184.408 25.9326C185.92 25.0425 185.904 22.825 184.377 21.9505L162.863 9.53564C160.518 8.19266 157.65 8.20827 155.321 9.56688Z" fill="#FB7EA3"/>
<path d="M154.424 6.21386L127.287 21.9038C125.363 23.0139 125.363 25.8263 127.287 26.9364L154.695 42.7744C157.705 44.5259 161.43 44.5013 164.44 42.7497L191.601 26.8871C193.525 25.7523 193.525 22.9646 191.576 21.8545L164.069 6.18919C161.06 4.48698 157.409 4.51165 154.424 6.21386Z" stroke="white" stroke-width="2" stroke-miterlimit="10"/>
<path d="M199.569 27.4546L165.574 47.3137C161.8 49.5093 157.162 49.534 153.387 47.3384L119.047 27.5533C117.789 26.8379 117.197 25.555 117.221 24.2969V34.4608C117.221 35.6943 117.838 36.9031 119.047 37.6185L153.363 57.4283C157.137 59.5992 161.8 59.5992 165.549 57.4036L199.544 37.5445C200.728 36.8538 201.32 35.6696 201.345 34.4855V34.4115C201.345 34.3868 201.345 34.3868 201.345 34.3621V24.2969C201.37 25.5304 200.753 26.7638 199.569 27.4546Z" fill="url(#paint13_linear)"/>
<rect x="147.735" y="268.553" width="3.09181" height="53.3996" rx="1.54591" transform="rotate(58.9594 147.735 268.553)" fill="url(#paint14_linear)"/>
<path d="M66.3986 231.704L33.0598 250.976C30.6871 252.357 30.6871 255.794 33.0598 257.15L66.7375 276.592C70.4418 278.722 75.0177 278.722 78.6978 276.568L112.061 257.078C114.433 255.698 114.409 252.26 112.012 250.904L78.2378 231.656C74.5577 229.574 70.0544 229.598 66.3986 231.704Z" fill="url(#paint15_linear)"/>
<path d="M68.6589 239.498L47.8166 251.697C46.3333 252.571 46.3333 254.747 47.8166 255.605L68.8708 267.912C71.1866 269.261 74.0473 269.261 76.348 267.897L97.2055 255.559C98.6888 254.686 98.6737 252.51 97.1752 251.651L76.0604 239.467C73.7598 238.149 70.9445 238.165 68.6589 239.498Z" fill="#FF8016"/>
<path d="M67.7791 236.208L41.1468 251.607C39.2584 252.696 39.2584 255.456 41.1468 256.546L68.0454 272.089C70.9992 273.808 74.6551 273.784 77.6088 272.065L104.265 256.497C106.154 255.384 106.154 252.648 104.241 251.558L77.2457 236.184C74.2919 234.514 70.7086 234.538 67.7791 236.208Z" stroke="white" stroke-width="2" stroke-miterlimit="10"/>
<path d="M112.085 257.054L78.7222 276.544C75.0179 278.699 70.4662 278.723 66.7619 276.568L33.0599 257.151C31.8252 256.449 31.2441 255.19 31.2683 253.955V263.93C31.2683 265.141 31.8736 266.327 33.0599 267.029L66.7376 286.471C70.4419 288.601 75.0179 288.601 78.698 286.446L112.061 266.956C113.223 266.279 113.804 265.116 113.828 263.954V263.882C113.828 263.857 113.828 263.857 113.828 263.833V253.955C113.853 255.166 113.247 256.376 112.085 257.054Z" fill="url(#paint16_linear)"/>
<path d="M325.568 190.941L292.23 210.213C289.857 211.593 289.857 215.031 292.23 216.387L325.907 235.828C329.612 237.959 334.188 237.959 337.868 235.804L371.231 216.314C373.603 214.934 373.579 211.496 371.182 210.14L337.408 190.892C333.728 188.81 329.224 188.834 325.568 190.941Z" fill="url(#paint17_linear)"/>
<path d="M327.83 198.734L306.987 210.934C305.504 211.807 305.504 213.984 306.987 214.842L328.042 227.148C330.358 228.497 333.218 228.497 335.519 227.133L356.376 214.796C357.86 213.922 357.845 211.746 356.346 210.888L335.231 198.704C332.931 197.386 330.115 197.401 327.83 198.734Z" fill="#FF8016"/>
<path d="M326.95 195.443L300.318 210.841C298.429 211.931 298.429 214.691 300.318 215.78L327.216 231.324C330.17 233.043 333.826 233.019 336.78 231.3L363.436 215.732C365.325 214.618 365.325 211.882 363.412 210.793L336.417 195.419C333.463 193.748 329.88 193.772 326.95 195.443Z" stroke="white" stroke-width="2" stroke-miterlimit="10"/>
<path d="M371.256 216.287L337.893 235.777C334.189 237.931 329.637 237.956 325.933 235.801L292.231 216.383C290.996 215.681 290.415 214.422 290.439 213.188V223.162C290.439 224.373 291.044 225.559 292.231 226.262L325.909 245.703C329.613 247.834 334.189 247.834 337.869 245.679L371.232 226.189C372.394 225.511 372.975 224.349 372.999 223.187V223.114C372.999 223.09 372.999 223.09 372.999 223.066V213.188C373.023 214.398 372.418 215.609 371.256 216.287Z" fill="url(#paint18_linear)"/>
<path d="M270.264 212.564V258.884L308.138 282.13V234.813L270.264 212.564Z" fill="url(#paint19_linear)"/>
<path d="M308.139 234.748L338.284 217.201V262.523L308.139 281.356V234.748Z" fill="url(#paint20_linear)"/>
<path d="M270.264 212.741L300.617 194.785L338.284 217.414L308.337 234.979L270.264 212.741Z" fill="url(#paint21_linear)"/>
<path d="M279.617 68.0449V94.3626L301.137 107.571V80.6859L279.617 68.0449Z" fill="url(#paint22_linear)"/>
<path d="M301.137 80.6506L318.265 70.6807V96.4319L301.137 107.132V80.6506Z" fill="url(#paint23_linear)"/>
<path d="M279.617 68.1457L296.863 57.9434L318.265 70.8009L301.25 80.7806L279.617 68.1457Z" fill="url(#paint24_linear)"/>
<g opacity="0.3">
<path d="M0 161.014V182.838L17.8454 193.791V171.496L0 161.014Z" fill="url(#paint25_linear)"/>
<path d="M17.8452 171.469L32.0487 163.201V184.556L17.8452 193.429V171.469Z" fill="url(#paint26_linear)"/>
<path d="M0 161.099L14.3015 152.639L32.0489 163.301L17.9388 171.577L0 161.099Z" fill="url(#paint27_linear)"/>
</g>
<g opacity="0.3">
<path d="M213.864 269.629V286.988L228.059 295.701V277.967L213.864 269.629Z" fill="url(#paint28_linear)"/>
<path d="M228.059 277.945L239.356 271.369V288.355L228.059 295.413V277.945Z" fill="url(#paint29_linear)"/>
<path d="M213.864 269.696L225.24 262.967L239.357 271.448L228.133 278.03L213.864 269.696Z" fill="url(#paint30_linear)"/>
</g>
<path fill-rule="evenodd" clip-rule="evenodd" d="M290.005 251.434C290.812 251.412 291.602 251.207 292.325 250.8C295.114 249.228 295.846 245.24 293.96 241.893C292.073 238.546 288.283 237.107 285.494 238.679C284.851 239.041 284.317 239.532 283.9 240.114C284.18 239.844 284.495 239.607 284.845 239.41C287.496 237.916 291.099 239.284 292.893 242.465C294.686 245.647 293.99 249.438 291.339 250.933C290.915 251.172 290.466 251.337 290.005 251.434Z" fill="url(#paint31_linear)"/>
<ellipse cx="287.83" cy="245.297" rx="6.61329" ry="5.51107" transform="rotate(60.5943 287.83 245.297)" fill="url(#paint32_radial)"/>
<path d="M184.467 133.721C184.467 132.867 185.159 132.175 186.013 132.175C186.866 132.175 187.559 132.867 187.559 133.721V147.634C187.559 148.488 186.866 149.18 186.013 149.18C185.159 149.18 184.467 148.488 184.467 147.634V133.721Z" fill="#EAD7BB"/>
<path d="M184.467 154.591C184.467 153.737 185.159 153.045 186.013 153.045C186.866 153.045 187.559 153.737 187.559 154.591V168.504C187.559 169.358 186.866 170.05 186.013 170.05C185.159 170.05 184.467 169.358 184.467 168.504V154.591Z" fill="#EAD7BB"/>
<path d="M184.467 175.46C184.467 174.607 185.159 173.914 186.013 173.914C186.866 173.914 187.559 174.607 187.559 175.46V189.373C187.559 190.227 186.866 190.919 186.013 190.919C185.159 190.919 184.467 190.227 184.467 189.373V175.46Z" fill="#EAD7BB"/>
<path d="M199.926 124.445C199.926 123.592 200.618 122.899 201.472 122.899C202.326 122.899 203.018 123.592 203.018 124.445V138.359C203.018 139.212 202.326 139.904 201.472 139.904C200.618 139.904 199.926 139.212 199.926 138.359V124.445Z" fill="#EAD7BB"/>
<path d="M199.926 145.315C199.926 144.461 200.618 143.769 201.472 143.769C202.326 143.769 203.018 144.461 203.018 145.315V159.228C203.018 160.082 202.326 160.774 201.472 160.774C200.618 160.774 199.926 160.082 199.926 159.228V145.315Z" fill="#EAD7BB"/>
<path d="M199.926 166.185C199.926 165.331 200.618 164.639 201.472 164.639C202.326 164.639 203.018 165.331 203.018 166.185V180.098C203.018 180.952 202.326 181.644 201.472 181.644C200.618 181.644 199.926 180.952 199.926 180.098V166.185Z" fill="#EAD7BB"/>
<path d="M192.196 129.083C192.196 128.229 192.888 127.537 193.742 127.537C194.596 127.537 195.288 128.229 195.288 129.083V142.996C195.288 143.85 194.596 144.542 193.742 144.542C192.888 144.542 192.196 143.85 192.196 142.996V129.083Z" fill="#EAD7BB"/>
<path d="M192.196 149.953C192.196 149.099 192.888 148.407 193.742 148.407C194.596 148.407 195.288 149.099 195.288 149.953V163.866C195.288 164.72 194.596 165.412 193.742 165.412C192.888 165.412 192.196 164.72 192.196 163.866V149.953Z" fill="#EAD7BB"/>
<path d="M192.196 170.823C192.196 169.969 192.888 169.277 193.742 169.277C194.596 169.277 195.288 169.969 195.288 170.823V184.736C195.288 185.59 194.596 186.282 193.742 186.282C192.888 186.282 192.196 185.59 192.196 184.736V170.823Z" fill="#EAD7BB"/>
<path d="M207.655 119.808C207.655 118.954 208.348 118.262 209.201 118.262C210.055 118.262 210.747 118.954 210.747 119.808V133.721C210.747 134.575 210.055 135.267 209.201 135.267C208.348 135.267 207.655 134.575 207.655 133.721V119.808Z" fill="#EAD7BB"/>
<path d="M207.655 140.677C207.655 139.824 208.348 139.132 209.201 139.132C210.055 139.132 210.747 139.824 210.747 140.677V154.591C210.747 155.444 210.055 156.136 209.201 156.136C208.348 156.136 207.655 155.444 207.655 154.591V140.677Z" fill="#EAD7BB"/>
<path d="M207.655 161.547C207.655 160.693 208.348 160.001 209.201 160.001C210.055 160.001 210.747 160.693 210.747 161.547V175.46C210.747 176.314 210.055 177.006 209.201 177.006C208.348 177.006 207.655 176.314 207.655 175.46V161.547Z" fill="#EAD7BB"/>
<path d="M215.385 115.17C215.385 114.316 216.077 113.624 216.931 113.624C217.785 113.624 218.477 114.316 218.477 115.17V129.083C218.477 129.937 217.785 130.629 216.931 130.629C216.077 130.629 215.385 129.937 215.385 129.083V115.17Z" fill="#EAD7BB"/>
<path d="M215.385 136.04C215.385 135.186 216.077 134.494 216.931 134.494C217.785 134.494 218.477 135.186 218.477 136.04V149.953C218.477 150.807 217.785 151.499 216.931 151.499C216.077 151.499 215.385 150.807 215.385 149.953V136.04Z" fill="#EAD7BB"/>
<path d="M215.385 156.909C215.385 156.056 216.077 155.364 216.931 155.364C217.785 155.364 218.477 156.056 218.477 156.909V170.823C218.477 171.676 217.785 172.369 216.931 172.369C216.077 172.369 215.385 171.676 215.385 170.823V156.909Z" fill="#EAD7BB"/>
<path d="M223.114 110.532C223.114 109.678 223.807 108.986 224.66 108.986C225.514 108.986 226.206 109.678 226.206 110.532V124.445C226.206 125.299 225.514 125.991 224.66 125.991C223.807 125.991 223.114 125.299 223.114 124.445V110.532Z" fill="#EAD7BB"/>
<path d="M223.114 131.402C223.114 130.548 223.807 129.856 224.66 129.856C225.514 129.856 226.206 130.548 226.206 131.402V145.315C226.206 146.169 225.514 146.861 224.66 146.861C223.807 146.861 223.114 146.169 223.114 145.315V131.402Z" fill="#EAD7BB"/>
<path d="M223.114 152.272C223.114 151.418 223.807 150.726 224.66 150.726C225.514 150.726 226.206 151.418 226.206 152.272V166.185C226.206 167.039 225.514 167.731 224.66 167.731C223.807 167.731 223.114 167.039 223.114 166.185V152.272Z" fill="#EAD7BB"/>
<rect x="223.114" y="118.26" width="3.09181" height="7.72954" rx="1.54591" fill="#31C27D"/>
<path d="M106.398 294.88L157.704 264.338C159.363 263.385 159.385 261.055 157.726 260.081L93.2579 223.768C90.5526 222.609 89.8502 218.811 93.2579 216.425C97.1227 213.72 115.931 202.898 132.292 193.623" stroke="url(#paint33_linear)" stroke-opacity="0.89" stroke-width="8" stroke-miterlimit="10" stroke-linecap="round" stroke-linejoin="round"/>
<circle cx="133.452" cy="278.259" r="0.772954" fill="#DFF20A"/>
<circle cx="98.6685" cy="213.332" r="0.772954" fill="#DFF20A"/>
<circle cx="155.094" cy="258.164" r="0.772954" fill="#50FFC5"/>
<circle cx="129.587" cy="244.251" r="0.772954" fill="#50FFC5"/>
<circle cx="136.543" cy="248.115" r="0.772954" fill="#50FFC5"/>
<circle cx="156.641" cy="259.71" r="0.772954" fill="#20F4D3"/>
<circle cx="260.989" cy="229.566" r="0.772954" fill="#20F4D3"/>
<circle cx="245.53" cy="220.289" r="0.772954" fill="#AFFF49"/>
<circle cx="228.526" cy="212.558" r="0.772954" fill="#A7FF62"/>
<circle cx="141.181" cy="275.169" r="0.772954" fill="#6AFFCA"/>
<circle cx="154.321" cy="266.667" r="0.772954" fill="#6AFFCA"/>
<circle cx="94.0308" cy="223.38" r="0.772954" fill="#6AFFCA"/>
<path d="M39.1514 268.215V314.534L77.0261 337.781V290.463L39.1514 268.215Z" fill="url(#paint34_linear)"/>
<path d="M77.0264 290.399L107.172 272.852V318.174L77.0264 337.007V290.399Z" fill="url(#paint35_linear)"/>
<path d="M39.1514 268.392L69.5045 250.436L107.171 273.065L77.2244 290.629L39.1514 268.392Z" fill="url(#paint36_linear)"/>
<path fill-rule="evenodd" clip-rule="evenodd" d="M58.8923 307.085C59.6993 307.063 60.4895 306.857 61.2125 306.45C64.0017 304.878 64.7336 300.89 62.8472 297.543C60.9608 294.196 57.1705 292.757 54.3813 294.329C53.7383 294.692 53.2047 295.182 52.7872 295.764C53.0675 295.494 53.3829 295.257 53.7323 295.06C56.3838 293.566 59.9871 294.934 61.7804 298.116C63.5737 301.298 62.8779 305.089 60.2264 306.583C59.8023 306.822 59.3538 306.988 58.8923 307.085Z" fill="url(#paint37_linear)"/>
<ellipse cx="56.7165" cy="300.952" rx="6.61329" ry="5.51107" transform="rotate(60.5943 56.7165 300.952)" fill="url(#paint38_radial)"/>
<path d="M97.5098 312.273V324.254L107.558 330.438L116.061 329.665L128.814 337.008" stroke="url(#paint39_linear)"/>
<path d="M107.945 333.142L101.761 329.277H99.0559L94.0318 326.186V320.002L91.7129 318.07V313.818" stroke="url(#paint40_linear)"/>
<path d="M108.33 326.959L107.171 326.186H104.466L99.4414 323.094V316.911L100.987 315.751V311.5" stroke="url(#paint41_linear)"/>
<path d="M93.6448 337.393L89.78 335.074L91.326 333.915L86.3018 330.823V324.639L87.8477 323.48V319.229" stroke="url(#paint42_linear)"/>
<defs>
<linearGradient id="paint0_linear" x1="92.8724" y1="294.109" x2="324.372" y2="84.2516" gradientUnits="userSpaceOnUse">
<stop stop-color="#F0514C"/>
<stop offset="0.883435" stop-color="#F15F4B"/>
</linearGradient>
<linearGradient id="paint1_linear" x1="269.105" y1="191.306" x2="-23.0712" y2="68.4064" gradientUnits="userSpaceOnUse">
<stop stop-color="#F1524C"/>
<stop offset="0.886279" stop-color="#DDB476" stop-opacity="0"/>
</linearGradient>
<linearGradient id="paint2_linear" x1="217.008" y1="172.727" x2="280.7" y2="233.045" gradientUnits="userSpaceOnUse">
<stop offset="0.00485952" stop-color="#EF4D4F" stop-opacity="0.22"/>
<stop offset="0.492678" stop-color="#C72056"/>
<stop offset="1" stop-color="#D3255B"/>
</linearGradient>
<linearGradient id="paint3_linear" x1="133.78" y1="87.1164" x2="73.6409" y2="180.683" gradientUnits="userSpaceOnUse">
<stop stop-color="#FBF6E6"/>
<stop offset="1" stop-color="#FFF8E6"/>
</linearGradient>
<linearGradient id="paint4_linear" x1="194.454" y1="95.1963" x2="246.634" y2="194.999" gradientUnits="userSpaceOnUse">
<stop stop-color="#E8D5B9"/>
<stop offset="1" stop-color="#FFEDD1"/>
</linearGradient>
<linearGradient id="paint5_linear" x1="114.039" y1="29.9028" x2="207.705" y2="103.704" gradientUnits="userSpaceOnUse">
<stop stop-color="#313284"/>
<stop offset="1" stop-color="#25006A"/>
</linearGradient>
<linearGradient id="paint6_linear" x1="122.245" y1="110.533" x2="247.85" y2="59.9043" gradientUnits="userSpaceOnUse">
<stop stop-color="#780136"/>
<stop offset="1" stop-color="#DC287B"/>
</linearGradient>
<linearGradient id="paint7_linear" x1="74.708" y1="51.015" x2="169.008" y2="101.643" gradientUnits="userSpaceOnUse">
<stop stop-color="#F7752F"/>
<stop offset="1" stop-color="#FE4C82"/>
</linearGradient>
<linearGradient id="paint8_linear" x1="108.331" y1="10.0489" x2="264.855" y2="61.8368" gradientUnits="userSpaceOnUse">
<stop stop-color="#770035"/>
<stop offset="0.567708" stop-color="#DC285E"/>
<stop offset="1" stop-color="#F7BF2F"/>
</linearGradient>
<linearGradient id="paint9_linear" x1="117.22" y1="39.1056" x2="171.713" y2="60.6763" gradientUnits="userSpaceOnUse">
<stop stop-color="#FFF7AC"/>
<stop offset="1" stop-color="#F14E99"/>
</linearGradient>
<linearGradient id="paint10_linear" x1="180.99" y1="51.4009" x2="124.564" y2="32.4635" gradientUnits="userSpaceOnUse">
<stop stop-color="#F24F99"/>
<stop offset="1" stop-color="#F77438"/>
</linearGradient>
<linearGradient id="paint11_linear" x1="115.125" y1="49.2204" x2="202.579" y2="49.2204" gradientUnits="userSpaceOnUse">
<stop stop-color="#F79336"/>
<stop offset="0.492343" stop-color="#D72A7A"/>
<stop offset="1" stop-color="#FB6BDB"/>
</linearGradient>
<linearGradient id="paint12_linear" x1="117.22" y1="24.4201" x2="201.344" y2="25.7769" gradientUnits="userSpaceOnUse">
<stop stop-color="#FFF2BE"/>
<stop offset="0.447917" stop-color="#FFD8D9"/>
<stop offset="1" stop-color="#FFB6E2"/>
</linearGradient>
<linearGradient id="paint13_linear" x1="115.125" y1="34.5348" x2="202.579" y2="34.5348" gradientUnits="userSpaceOnUse">
<stop stop-color="#FB822A"/>
<stop offset="0.541305" stop-color="#DC287B"/>
<stop offset="1" stop-color="#FF68AE"/>
</linearGradient>
<linearGradient id="paint14_linear" x1="149.281" y1="268.553" x2="149.281" y2="321.952" gradientUnits="userSpaceOnUse">
<stop stop-color="#0CEFB2" stop-opacity="0.17"/>
<stop offset="1" stop-color="#28C0BE"/>
</linearGradient>
<linearGradient id="paint15_linear" x1="31.2682" y1="254.076" x2="113.828" y2="255.407" gradientUnits="userSpaceOnUse">
<stop stop-color="#FFF2BE"/>
<stop offset="0.663758" stop-color="#FEBD17"/>
<stop offset="1" stop-color="#FFD749"/>
</linearGradient>
<linearGradient id="paint16_linear" x1="29.2104" y1="264.003" x2="115.039" y2="264.003" gradientUnits="userSpaceOnUse">
<stop stop-color="#FE7D19"/>
<stop offset="0.492343" stop-color="#E05907"/>
<stop offset="1" stop-color="#FA6E29"/>
</linearGradient>
<linearGradient id="paint17_linear" x1="290.438" y1="213.312" x2="372.998" y2="214.643" gradientUnits="userSpaceOnUse">
<stop stop-color="#FFF2BE"/>
<stop offset="0.663758" stop-color="#FEBD17"/>
<stop offset="1" stop-color="#FFD749"/>
</linearGradient>
<linearGradient id="paint18_linear" x1="288.381" y1="223.235" x2="374.21" y2="223.235" gradientUnits="userSpaceOnUse">
<stop stop-color="#FE7D19"/>
<stop offset="0.492343" stop-color="#E05907"/>
<stop offset="1" stop-color="#FA6E29"/>
</linearGradient>
<linearGradient id="paint19_linear" x1="293.572" y1="223.943" x2="268.113" y2="263.09" gradientUnits="userSpaceOnUse">
<stop stop-color="#F7EDDA"/>
<stop offset="1" stop-color="#FFFAF1"/>
</linearGradient>
<linearGradient id="paint20_linear" x1="318.977" y1="227.333" x2="340.909" y2="269.346" gradientUnits="userSpaceOnUse">
<stop stop-color="#E1D9C2"/>
<stop offset="1" stop-color="#FFF8E6"/>
</linearGradient>
<linearGradient id="paint21_linear" x1="267.945" y1="208.698" x2="334.5" y2="216.935" gradientUnits="userSpaceOnUse">
<stop stop-color="#FFF8E4"/>
<stop offset="1" stop-color="#FFFAF1"/>
</linearGradient>
<linearGradient id="paint22_linear" x1="292.861" y1="74.5102" x2="278.395" y2="96.7528" gradientUnits="userSpaceOnUse">
<stop stop-color="#F7EDDA"/>
<stop offset="1" stop-color="#FFFAF1"/>
</linearGradient>
<linearGradient id="paint23_linear" x1="307.295" y1="76.4373" x2="319.756" y2="100.308" gradientUnits="userSpaceOnUse">
<stop stop-color="#E1D9C2"/>
<stop offset="1" stop-color="#FFF8E6"/>
</linearGradient>
<linearGradient id="paint24_linear" x1="278.3" y1="65.8486" x2="316.115" y2="70.5283" gradientUnits="userSpaceOnUse">
<stop stop-color="#FFF8E4"/>
<stop offset="1" stop-color="#FFFAF1"/>
</linearGradient>
<linearGradient id="paint25_linear" x1="10.9822" y1="166.375" x2="-8.98762" y2="198.371" gradientUnits="userSpaceOnUse">
<stop stop-color="#FA5D56"/>
<stop offset="0.5348" stop-color="#F9FAFD"/>
<stop offset="1" stop-color="#FBFCFF" stop-opacity="0.24"/>
</linearGradient>
<linearGradient id="paint26_linear" x1="22.9518" y1="167.975" x2="33.2857" y2="187.77" gradientUnits="userSpaceOnUse">
<stop stop-color="#EBE5D0"/>
<stop offset="1" stop-color="#FFFCF1"/>
</linearGradient>
<linearGradient id="paint27_linear" x1="-1.09258" y1="159.194" x2="30.266" y2="163.075" gradientUnits="userSpaceOnUse">
<stop stop-color="#F9FCFF"/>
<stop offset="1" stop-color="#FFFCF1"/>
</linearGradient>
<linearGradient id="paint28_linear" x1="222.6" y1="273.893" x2="206.715" y2="299.344" gradientUnits="userSpaceOnUse">
<stop stop-color="#FA5D56"/>
<stop offset="0.5348" stop-color="#F9FAFD"/>
<stop offset="1" stop-color="#FBFCFF" stop-opacity="0.24"/>
</linearGradient>
<linearGradient id="paint29_linear" x1="232.12" y1="275.166" x2="240.34" y2="290.912" gradientUnits="userSpaceOnUse">
<stop stop-color="#EBE5D0"/>
<stop offset="1" stop-color="#FFFCF1"/>
</linearGradient>
<linearGradient id="paint30_linear" x1="212.995" y1="268.181" x2="237.938" y2="271.268" gradientUnits="userSpaceOnUse">
<stop stop-color="#F9FCFF"/>
<stop offset="1" stop-color="#FFFCF1"/>
</linearGradient>
<linearGradient id="paint31_linear" x1="286.493" y1="237.684" x2="293.064" y2="250.824" gradientUnits="userSpaceOnUse">
<stop stop-color="white"/>
<stop offset="0.63882" stop-color="#A7AEC5"/>
<stop offset="0.988838" stop-color="#D4DAED" stop-opacity="0.42"/>
</linearGradient>
<radialGradient id="paint32_radial" cx="0" cy="0" r="1" gradientUnits="userSpaceOnUse" gradientTransform="translate(284.832 246.914) rotate(-17.0631) scale(10.6614 7.81017)">
<stop offset="0.0811357" stop-color="#FF86B1"/>
<stop offset="0.760367" stop-color="#A51155"/>
<stop offset="1" stop-color="#ED4794"/>
</radialGradient>
<linearGradient id="paint33_linear" x1="124.958" y1="193.623" x2="124.958" y2="294.88" gradientUnits="userSpaceOnUse">
<stop stop-color="#DE2F5C" stop-opacity="0"/>
<stop offset="0.619792" stop-color="#DE2F5C"/>
</linearGradient>
<linearGradient id="paint34_linear" x1="62.4598" y1="279.594" x2="37.0006" y2="318.741" gradientUnits="userSpaceOnUse">
<stop stop-color="#FBF5E6"/>
<stop offset="1" stop-color="#FFFBF2"/>
</linearGradient>
<linearGradient id="paint35_linear" x1="87.8646" y1="282.983" x2="109.797" y2="324.996" gradientUnits="userSpaceOnUse">
<stop stop-color="#EAE1CC"/>
<stop offset="1" stop-color="#FFFAEE"/>
</linearGradient>
<linearGradient id="paint36_linear" x1="36.8325" y1="264.349" x2="103.387" y2="272.585" gradientUnits="userSpaceOnUse">
<stop stop-color="#F4EEDE"/>
<stop offset="1" stop-color="#F1F4FF"/>
</linearGradient>
<linearGradient id="paint37_linear" x1="55.3812" y1="293.335" x2="61.9512" y2="306.475" gradientUnits="userSpaceOnUse">
<stop stop-color="white"/>
<stop offset="0.63882" stop-color="#A7AEC5"/>
<stop offset="0.988838" stop-color="#D4DAED" stop-opacity="0.42"/>
</linearGradient>
<radialGradient id="paint38_radial" cx="0" cy="0" r="1" gradientUnits="userSpaceOnUse" gradientTransform="translate(53.7188 302.568) rotate(-17.0631) scale(10.6614 7.81017)">
<stop offset="0.0811357" stop-color="#00FFA3"/>
<stop offset="0.581516" stop-color="#23CDCD"/>
<stop offset="1" stop-color="#496356"/>
</radialGradient>
<linearGradient id="paint39_linear" x1="97.5098" y1="312.66" x2="119.539" y2="334.689" gradientUnits="userSpaceOnUse">
<stop stop-color="#F8F4EE"/>
<stop offset="0.255634" stop-color="#F9F8F0"/>
<stop offset="0.289006" stop-color="#F3EBE0"/>
<stop offset="0.512617" stop-color="#FAF8F3"/>
<stop offset="0.786458" stop-color="#FAF8F3"/>
<stop offset="1" stop-color="#F3F4FA" stop-opacity="0"/>
</linearGradient>
<linearGradient id="paint40_linear" x1="91.7129" y1="314.12" x2="107.572" y2="324.646" gradientUnits="userSpaceOnUse">
<stop stop-color="#F8F4EE"/>
<stop offset="0.255634" stop-color="#F9F8F0"/>
<stop offset="0.289006" stop-color="#F3EBE0"/>
<stop offset="0.512617" stop-color="#FAF8F3"/>
<stop offset="0.786458" stop-color="#FAF8F3"/>
<stop offset="1" stop-color="#F3F4FA" stop-opacity="0"/>
</linearGradient>
<linearGradient id="paint41_linear" x1="99.4414" y1="311.742" x2="109.811" y2="316.453" gradientUnits="userSpaceOnUse">
<stop stop-color="#F8F4EE"/>
<stop offset="0.255634" stop-color="#F9F8F0"/>
<stop offset="0.289006" stop-color="#F3EBE0"/>
<stop offset="0.512617" stop-color="#FAF8F3"/>
<stop offset="0.786458" stop-color="#FAF8F3"/>
<stop offset="1" stop-color="#F3F4FA" stop-opacity="0"/>
</linearGradient>
<linearGradient id="paint42_linear" x1="86.3018" y1="319.512" x2="95.6797" y2="322.508" gradientUnits="userSpaceOnUse">
<stop stop-color="#F8F4EE"/>
<stop offset="0.255634" stop-color="#F9F8F0"/>
<stop offset="0.289006" stop-color="#F3EBE0"/>
<stop offset="0.512617" stop-color="#FAF8F3"/>
<stop offset="0.786458" stop-color="#FAF8F3"/>
<stop offset="1" stop-color="#F3F4FA" stop-opacity="0"/>
</linearGradient>
</defs>
</svg>