<svg width="64" height="16" viewBox="0 0 64 16" fill="none" xmlns="http://www.w3.org/2000/svg">
<path d="M26.1932 7H27.4659C27.0881 5.03125 25.4375 3.67898 23.2898 3.67898C20.6797 3.67898 18.8352 5.6875 18.8352 8.90909C18.8352 12.1307 20.6648 14.1392 23.3693 14.1392C25.7955 14.1392 27.5256 12.5234 27.5256 10.0028V8.90909H23.6477V10.0028H26.3324C26.2976 11.8324 25.0945 12.9858 23.3693 12.9858C21.4801 12.9858 20.0284 11.554 20.0284 8.90909C20.0284 6.2642 21.4801 4.83239 23.2898 4.83239C24.7614 4.83239 25.7607 5.66264 26.1932 7ZM29.9567 14H31.13V6.36364H29.9567V14ZM30.5533 5.09091C31.0107 5.09091 31.3885 4.73295 31.3885 4.29545C31.3885 3.85795 31.0107 3.5 30.5533 3.5C30.0959 3.5 29.718 3.85795 29.718 4.29545C29.718 4.73295 30.0959 5.09091 30.5533 5.09091ZM36.6 6.36364H34.9693V4.53409H33.796V6.36364H32.6426V7.35795H33.796V12.1307C33.796 13.4631 34.8699 14.0994 35.8642 14.0994C36.3017 14.0994 36.5801 14.0199 36.7392 13.9602L36.5005 12.9062C36.4011 12.9261 36.242 12.9659 35.9835 12.9659C35.4664 12.9659 34.9693 12.8068 34.9693 11.8125V7.35795H36.6V6.36364ZM38.688 14H39.921V9.44602H45.35V14H46.5829V3.81818H45.35V8.35227H39.921V3.81818H38.688V14ZM53.7047 10.8778C53.7047 12.3097 52.611 12.9659 51.736 12.9659C50.7615 12.9659 50.0655 12.25 50.0655 11.1364V6.36364H48.8922V11.2159C48.8922 13.1648 49.9263 14.0994 51.3581 14.0994C52.5115 14.0994 53.2672 13.483 53.6252 12.7074H53.7047V14H54.878V6.36364H53.7047V10.8778ZM57.1861 14H58.3196V12.8267H58.4588C58.7173 13.2443 59.2145 14.1591 60.6861 14.1591C62.5952 14.1591 63.9276 12.6278 63.9276 10.2017C63.9276 7.79545 62.5952 6.2642 60.6662 6.2642C59.1747 6.2642 58.7173 7.17898 58.4588 7.5767H58.3594V3.81818H57.1861V14ZM58.3395 10.1818C58.3395 8.47159 59.0952 7.31818 60.527 7.31818C62.0185 7.31818 62.7543 8.57102 62.7543 10.1818C62.7543 11.8125 61.9986 13.1051 60.527 13.1051C59.1151 13.1051 58.3395 11.9119 58.3395 10.1818Z" fill="white"/>
<path d="M5.58429 12.8832C5.58429 12.9493 5.50687 13.0023 5.40926 13.0023C5.29818 13.0122 5.22076 12.9593 5.22076 12.8832C5.22076 12.817 5.29818 12.7641 5.39579 12.7641C5.49677 12.7541 5.58429 12.8071 5.58429 12.8832ZM4.53745 12.7343C4.51388 12.8005 4.58121 12.8766 4.68219 12.8964C4.76971 12.9295 4.87069 12.8964 4.89088 12.8302C4.91108 12.7641 4.84712 12.688 4.74614 12.6582C4.65863 12.635 4.56101 12.6681 4.53745 12.7343ZM6.02525 12.6781C5.92763 12.7012 5.86031 12.7641 5.87041 12.8402C5.8805 12.9063 5.96802 12.9493 6.069 12.9262C6.16662 12.903 6.23394 12.8402 6.22384 12.774C6.21374 12.7111 6.12286 12.6681 6.02525 12.6781ZM8.24011 0C3.57139 0 0 3.48382 0 8.07266C0 11.7418 2.34951 14.8815 5.70547 15.9865C6.13633 16.0626 6.2878 15.8012 6.2878 15.5862C6.2878 15.3811 6.2777 14.2496 6.2777 13.5548C6.2777 13.5548 3.92146 14.0511 3.42665 12.5689C3.42665 12.5689 3.04292 11.6061 2.49088 11.358C2.49088 11.358 1.72006 10.8385 2.54474 10.8485C2.54474 10.8485 3.38289 10.9146 3.84404 11.7021C4.58121 12.9791 5.81655 12.6119 6.2979 12.3935C6.37532 11.8642 6.59411 11.4969 6.83647 11.2786C4.95484 11.0734 3.05638 10.8055 3.05638 7.62271C3.05638 6.71288 3.3122 6.25631 3.85077 5.67402C3.76325 5.45897 3.47714 4.5723 3.93829 3.42757C4.64179 3.21252 6.26087 4.32086 6.26087 4.32086C6.93408 4.13559 7.65778 4.03964 8.37475 4.03964C9.09172 4.03964 9.81543 4.13559 10.4886 4.32086C10.4886 4.32086 12.1077 3.20921 12.8112 3.42757C13.2724 4.57561 12.9863 5.45897 12.8987 5.67402C13.4373 6.25962 13.7672 6.71619 13.7672 7.62271C13.7672 10.8154 11.7846 11.0701 9.90295 11.2786C10.2126 11.5399 10.4752 12.0362 10.4752 12.8137C10.4752 13.9287 10.4651 15.3083 10.4651 15.5796C10.4651 15.7946 10.6199 16.056 11.0474 15.9799C14.4135 14.8815 16.6957 11.7418 16.6957 8.07266C16.6957 3.48382 12.9088 0 8.24011 0ZM3.27181 11.4109C3.22805 11.444 3.23815 11.5201 3.29537 11.5829C3.34923 11.6359 3.42665 11.659 3.47041 11.616C3.51417 11.5829 3.50407 11.5069 3.44684 11.444C3.39299 11.3911 3.31557 11.3679 3.27181 11.4109ZM2.90827 11.1429C2.88471 11.1859 2.91837 11.2389 2.98569 11.272C3.03955 11.305 3.10687 11.2951 3.13043 11.2488C3.154 11.2058 3.12034 11.1528 3.05302 11.1198C2.98569 11.0999 2.93184 11.1098 2.90827 11.1429ZM3.99888 12.3207C3.94502 12.3637 3.96522 12.463 4.04264 12.5259C4.12006 12.602 4.21767 12.6119 4.26143 12.5589C4.30519 12.5159 4.28499 12.4167 4.21767 12.3538C4.14362 12.2777 4.04264 12.2678 3.99888 12.3207ZM3.61515 11.8344C3.56129 11.8675 3.56129 11.9535 3.61515 12.0296C3.669 12.1057 3.75989 12.1388 3.80365 12.1057C3.8575 12.0627 3.8575 11.9767 3.80365 11.9006C3.75652 11.8245 3.669 11.7914 3.61515 11.8344Z" fill="white"/>
</svg>