<svg width="56" height="16" viewBox="0 0 56 16" fill="none" xmlns="http://www.w3.org/2000/svg">
<path d="M5.58429 12.8832C5.58429 12.9493 5.50687 13.0023 5.40926 13.0023C5.29818 13.0122 5.22076 12.9593 5.22076 12.8832C5.22076 12.817 5.29818 12.7641 5.39579 12.7641C5.49677 12.7541 5.58429 12.8071 5.58429 12.8832ZM4.53745 12.7343C4.51388 12.8005 4.58121 12.8766 4.68219 12.8964C4.76971 12.9295 4.87069 12.8964 4.89088 12.8302C4.91108 12.7641 4.84712 12.688 4.74614 12.6582C4.65863 12.635 4.56101 12.6681 4.53745 12.7343ZM6.02525 12.6781C5.92763 12.7012 5.86031 12.7641 5.87041 12.8402C5.8805 12.9063 5.96802 12.9493 6.069 12.9262C6.16662 12.903 6.23394 12.8402 6.22384 12.774C6.21374 12.7111 6.12286 12.6681 6.02525 12.6781ZM8.24011 0C3.57139 0 0 3.48382 0 8.07266C0 11.7418 2.34951 14.8815 5.70547 15.9865C6.13633 16.0626 6.2878 15.8012 6.2878 15.5862C6.2878 15.3811 6.2777 14.2496 6.2777 13.5548C6.2777 13.5548 3.92146 14.0511 3.42665 12.5689C3.42665 12.5689 3.04292 11.6061 2.49088 11.358C2.49088 11.358 1.72006 10.8385 2.54474 10.8485C2.54474 10.8485 3.38289 10.9146 3.84404 11.7021C4.58121 12.9791 5.81655 12.6119 6.2979 12.3935C6.37532 11.8642 6.59411 11.4969 6.83647 11.2786C4.95484 11.0734 3.05638 10.8055 3.05638 7.62271C3.05638 6.71288 3.3122 6.25631 3.85077 5.67402C3.76325 5.45897 3.47714 4.5723 3.93829 3.42757C4.64179 3.21252 6.26087 4.32086 6.26087 4.32086C6.93408 4.13559 7.65778 4.03964 8.37475 4.03964C9.09172 4.03964 9.81543 4.13559 10.4886 4.32086C10.4886 4.32086 12.1077 3.20921 12.8112 3.42757C13.2724 4.57561 12.9863 5.45897 12.8987 5.67402C13.4373 6.25962 13.7672 6.71619 13.7672 7.62271C13.7672 10.8154 11.7846 11.0701 9.90295 11.2786C10.2126 11.5399 10.4752 12.0362 10.4752 12.8137C10.4752 13.9287 10.4651 15.3083 10.4651 15.5796C10.4651 15.7946 10.6199 16.056 11.0474 15.9799C14.4135 14.8815 16.6957 11.7418 16.6957 8.07266C16.6957 3.48382 12.9088 0 8.24011 0ZM3.27181 11.4109C3.22805 11.444 3.23815 11.5201 3.29537 11.5829C3.34923 11.6359 3.42665 11.659 3.47041 11.616C3.51417 11.5829 3.50407 11.5069 3.44684 11.444C3.39299 11.3911 3.31557 11.3679 3.27181 11.4109ZM2.90827 11.1429C2.88471 11.1859 2.91837 11.2389 2.98569 11.272C3.03955 11.305 3.10687 11.2951 3.13043 11.2488C3.154 11.2058 3.12034 11.1528 3.05302 11.1198C2.98569 11.0999 2.93184 11.1098 2.90827 11.1429ZM3.99888 12.3207C3.94502 12.3637 3.96522 12.463 4.04264 12.5259C4.12006 12.602 4.21767 12.6119 4.26143 12.5589C4.30519 12.5159 4.28499 12.4167 4.21767 12.3538C4.14362 12.2777 4.04264 12.2678 3.99888 12.3207ZM3.61515 11.8344C3.56129 11.8675 3.56129 11.9535 3.61515 12.0296C3.669 12.1057 3.75989 12.1388 3.80365 12.1057C3.8575 12.0627 3.8575 11.9767 3.80365 11.9006C3.75652 11.8245 3.669 11.7914 3.61515 11.8344Z" fill="white"/>
<path d="M30.6531 8.31797H28.0967C28.0335 8.31797 27.9765 8.36859 27.9765 8.4382V9.68474C27.9765 9.74802 28.0271 9.80497 28.0967 9.80497H29.0902V11.3552C29.0902 11.3552 28.8687 11.4312 28.2486 11.4312C27.5209 11.4312 26.5022 11.1654 26.5022 8.92542C26.5022 6.68544 27.5652 6.38804 28.5587 6.38804C29.4192 6.38804 29.7926 6.53991 30.0267 6.61584C30.1026 6.64115 30.1722 6.56522 30.1722 6.49561L30.457 5.28703C30.457 5.25539 30.4443 5.21743 30.4127 5.19212C30.3177 5.12884 29.7356 4.7998 28.2549 4.7998C26.5465 4.7998 24.8 5.52748 24.8 9.01401C24.8 12.5005 26.7996 13.0194 28.4891 13.0194C29.8875 13.0194 30.7354 12.4246 30.7354 12.4246C30.7733 12.4056 30.7733 12.355 30.7733 12.336V8.4382C30.7733 8.36859 30.7164 8.31797 30.6531 8.31797ZM43.8146 5.21743C43.8146 5.15415 43.764 5.0972 43.6944 5.0972H42.258C42.1947 5.0972 42.1378 5.14782 42.1378 5.21743V7.99526H39.8978V5.21743C39.8978 5.15415 39.8472 5.0972 39.7776 5.0972H38.3412C38.2779 5.0972 38.221 5.14782 38.221 5.21743V12.741C38.221 12.8043 38.2716 12.8612 38.3412 12.8612H39.7776C39.8408 12.8612 39.8978 12.8043 39.8978 12.741V9.52022H42.1378L42.1314 12.741C42.1314 12.8043 42.1821 12.8612 42.2517 12.8612H43.6944C43.7577 12.8612 43.8146 12.8043 43.8146 12.741V5.21743V5.21743Z" fill="white"/>
<path d="M33.3675 6.20505C33.3675 5.68618 32.9499 5.26855 32.4374 5.26855C31.9248 5.26855 31.5135 5.68618 31.5135 6.20505C31.5135 6.72391 31.9312 7.14154 32.4374 7.14154C32.9499 7.14154 33.3675 6.72391 33.3675 6.20505V6.20505ZM33.2663 11.1533V7.67938C33.2663 7.61611 33.2157 7.55916 33.1461 7.55916H31.7097C31.6464 7.55916 31.5832 7.62876 31.5832 7.69204V12.6656C31.5832 12.8111 31.6717 12.8554 31.792 12.8554H33.0828C33.222 12.8554 33.26 12.7858 33.26 12.6656C33.2663 12.3998 33.2663 11.3557 33.2663 11.1533V11.1533Z" fill="white"/>
<path d="M49.2753 7.57127H47.8516C47.7883 7.57127 47.7313 7.62822 47.7313 7.6915V11.3805C47.7313 11.3805 47.3707 11.6463 46.8518 11.6463C46.3393 11.6463 46.2 11.4122 46.2 10.9059V7.6915C46.2 7.62822 46.1494 7.57127 46.0798 7.57127H44.6308C44.5675 7.57127 44.5106 7.62822 44.5106 7.6915V11.1527C44.5106 12.646 45.3458 13.013 46.4911 13.013C47.4339 13.013 48.1932 12.4942 48.1932 12.4942C48.1932 12.4942 48.2312 12.7663 48.2439 12.7979C48.2629 12.8295 48.3008 12.8612 48.3514 12.8612L49.2753 12.8549C49.3386 12.8549 49.3955 12.7979 49.3955 12.7346V7.68517C49.3955 7.62822 49.3449 7.57127 49.2753 7.57127V7.57127ZM53.1794 7.40676C52.3695 7.40676 51.819 7.76743 51.819 7.76743V5.21739C51.819 5.15412 51.7684 5.09717 51.6988 5.09717H50.2561C50.1928 5.09717 50.1358 5.14779 50.1358 5.21739V12.741C50.1358 12.8042 50.1865 12.8612 50.2561 12.8612H51.2558C51.3001 12.8612 51.3381 12.8359 51.3571 12.7979C51.3824 12.7599 51.4203 12.4499 51.4203 12.4499C51.4203 12.4499 52.0088 13.0067 53.1288 13.0067C54.4386 13.0067 55.1916 12.3423 55.1916 10.0201C55.1853 7.70415 53.9894 7.40676 53.1794 7.40676V7.40676ZM52.6163 11.6399C52.1227 11.6273 51.7873 11.3995 51.7873 11.3995V9.0203C51.7873 9.0203 52.1164 8.81782 52.5277 8.77985C53.0402 8.73556 53.5338 8.88742 53.5338 10.115C53.5274 11.4058 53.306 11.6653 52.6163 11.6399V11.6399ZM37.3983 7.55862H36.3226V6.1349C36.3226 6.07795 36.2973 6.05264 36.234 6.05264H34.766C34.7091 6.05264 34.6774 6.07795 34.6774 6.1349V7.60924C34.6774 7.60924 33.9434 7.78641 33.8928 7.79907C33.8422 7.81172 33.8042 7.86235 33.8042 7.91297V8.8368C33.8042 8.90641 33.8548 8.95703 33.9244 8.95703H34.6774V11.1844C34.6774 12.8359 35.8354 13.0004 36.62 13.0004C36.9807 13.0004 37.4046 12.8865 37.4742 12.8612C37.5185 12.8485 37.5438 12.8042 37.5438 12.7536V11.7349C37.5438 11.6716 37.4869 11.6146 37.4236 11.6146C37.3603 11.6146 37.2021 11.6399 37.0313 11.6399C36.4998 11.6399 36.3226 11.3932 36.3226 11.0768V8.96335H37.3983C37.4616 8.96335 37.5185 8.91273 37.5185 8.84313V7.67884C37.5122 7.61557 37.4616 7.55862 37.3983 7.55862V7.55862Z" fill="white"/>
</svg>