<svg width="69" height="64" viewBox="0 0 69 64" fill="none" xmlns="http://www.w3.org/2000/svg">
<path fill-rule="evenodd" clip-rule="evenodd" d="M23.1307 9.32609C23.1307 14.4767 18.9553 18.6522 13.8046 18.6522C8.65395 18.6522 4.47852 14.4767 4.47852 9.32609C4.47852 4.17543 8.65395 0 13.8046 0C18.9553 0 23.1307 4.17543 23.1307 9.32609ZM55.3474 36.4565C55.3474 46.2896 47.3761 54.2609 37.543 54.2609C27.71 54.2609 19.7387 46.2896 19.7387 36.4565C19.7387 26.6234 27.71 18.6522 37.543 18.6522C47.3761 18.6522 55.3474 26.6234 55.3474 36.4565ZM62.9348 24.8696C66.2125 24.8696 68.8696 22.2125 68.8696 18.9348C68.8696 15.6571 66.2125 13 62.9348 13C59.6571 13 57 15.6571 57 18.9348C57 22.2125 59.6571 24.8696 62.9348 24.8696ZM11.8696 57.9348C11.8696 61.2125 9.21247 63.8696 5.93478 63.8696C2.65709 63.8696 0 61.2125 0 57.9348C0 54.6571 2.65709 52 5.93478 52C9.21247 52 11.8696 54.6571 11.8696 57.9348ZM56.2391 61.4783C58.5803 61.4783 60.4783 59.5803 60.4783 57.2391C60.4783 54.8979 58.5803 53 56.2391 53C53.8979 53 52 54.8979 52 57.2391C52 59.5803 53.8979 61.4783 56.2391 61.4783Z" fill="url(#paint0_linear)"/>
<defs>
<linearGradient id="paint0_linear" x1="0" y1="0" x2="73.7981" y2="6.31999" gradientUnits="userSpaceOnUse">
<stop stop-color="#FF8212"/>
<stop offset="1" stop-color="#ED4454"/>
</linearGradient>
</defs>
</svg>