<svg width="80" height="80" viewBox="0 0 80 80" fill="none" xmlns="http://www.w3.org/2000/svg">
<circle cx="40" cy="40" r="40" fill="white"/>
<path d="M35.9841 17L39.6349 20.6508L20.6508 39.6349L17 35.9841L35.9841 17Z" fill="url(#paint0_linear)"/>
<path d="M59.3492 40.3651L63 44.0159L44.0159 63L40.3651 59.3492L59.3492 40.3651Z" fill="url(#paint1_linear)"/>
<path d="M63 26.4921L53.5079 17L37.4444 33.0635L40.3651 35.9841L51.3175 25.0317L54.9683 28.6825L44.0159 39.6349L46.9365 42.5556L63 26.4921Z" fill="url(#paint2_linear)"/>
<path d="M43.2857 46.2064L40.3651 43.2857L28.6825 54.9683L25.0317 51.3175L36.7143 39.6349L33.7937 36.7143L17 53.5079L26.4921 63L43.2857 46.2064Z" fill="url(#paint3_linear)"/>
<defs>
<linearGradient id="paint0_linear" x1="40" y1="17" x2="40" y2="63" gradientUnits="userSpaceOnUse">
<stop stop-color="#DC287B"/>
<stop offset="1" stop-color="#FB822A"/>
</linearGradient>
<linearGradient id="paint1_linear" x1="40" y1="17" x2="40" y2="63" gradientUnits="userSpaceOnUse">
<stop stop-color="#DC287B"/>
<stop offset="1" stop-color="#FB822A"/>
</linearGradient>
<linearGradient id="paint2_linear" x1="40" y1="17" x2="40" y2="63" gradientUnits="userSpaceOnUse">
<stop stop-color="#DC287B"/>
<stop offset="1" stop-color="#FB822A"/>
</linearGradient>
<linearGradient id="paint3_linear" x1="40" y1="17" x2="40" y2="63" gradientUnits="userSpaceOnUse">
<stop stop-color="#DC287B"/>
<stop offset="1" stop-color="#FB822A"/>
</linearGradient>
</defs>
</svg>
