<svg width="80" height="80" viewBox="0 0 80 80" fill="none" xmlns="http://www.w3.org/2000/svg">
<circle cx="40" cy="40" r="40" fill="white"/>
<path d="M57.4656 27.3262H60.125C60.8875 27.3262 61.6188 27.6264 62.1579 28.1608C62.6971 28.6952 63 29.42 63 30.1758V44.4237C63 45.1794 62.6971 45.9043 62.1579 46.4387C61.6188 46.9731 60.8875 47.2733 60.125 47.2733H54.8911L42.8606 30.0475L41.4619 28.0842L32.9002 32.0023C32.3469 32.2555 31.7267 32.3279 31.1292 32.2089C28.5158 31.6889 27.6389 30.7827 28.4986 29.489C29.3309 28.2366 32.8729 25.7176 39.126 21.929C39.2899 21.8293 39.4595 21.7438 39.6334 21.6754C42.2598 20.4501 45.2569 20.8918 48.6236 23.0019C51.4068 24.7511 54.3704 26.2007 57.4642 27.3262H57.4656ZM18.9636 47.1265C18.3917 46.937 17.8943 46.5741 17.5419 46.0891C17.1895 45.604 17 45.0214 17 44.4237V30.1758C17 29.42 17.3029 28.6952 17.8421 28.1608C18.3812 27.6264 19.1125 27.3262 19.875 27.3262H26.5048L26.4933 27.3361C26.093 27.6935 25.7758 28.1326 25.5635 28.6233C25.3511 29.114 25.2487 29.6445 25.2633 30.1782C25.278 30.7119 25.4093 31.2361 25.6482 31.7146C25.887 32.1931 26.2279 32.6145 26.6471 32.9498C27.6832 33.7787 28.9179 34.3281 30.2315 34.5445C31.545 34.761 32.8926 34.6372 34.1436 34.1851L40.6109 31.8485L45.1463 38.3455C45.2857 38.478 45.4114 38.6241 45.5214 38.7815L53.4708 50.1685C53.7056 50.5049 53.8646 50.8875 53.9369 51.2902C54.0093 51.6929 53.9933 52.1064 53.89 52.5025C53.7868 52.8985 53.5987 53.2679 53.3386 53.5855C53.0785 53.9031 52.7525 54.1615 52.3826 54.3431L39.6838 60.5709C39.0944 60.8601 38.4475 60.9314 37.8438 60.8102L38.3138 60.3386C39.3778 59.2718 39.9745 57.8322 39.9745 56.3321C39.9745 54.832 39.3778 53.3924 38.3138 52.3256L29.1138 43.0986C28.7127 42.6963 28.235 42.3768 27.7084 42.1588C27.1819 41.9408 26.6169 41.8285 26.0462 41.8285C25.4755 41.8285 24.9105 41.9408 24.3839 42.1588C23.8574 42.3768 23.3797 42.6963 22.9786 43.0986L18.9622 47.1265H18.9636ZM27.9768 45.9012L36.136 54.0824C36.4878 54.4354 36.7405 54.8734 36.8691 55.3529C36.9977 55.8325 36.9977 56.337 36.8691 56.8166L36.458 58.3596C36.3654 58.7056 36.1889 59.024 35.9439 59.287C35.6989 59.55 35.3927 59.7496 35.052 59.8686C34.7114 59.9876 34.3466 60.0222 33.9893 59.9695C33.6321 59.9169 33.2932 59.7785 33.0023 59.5664L22.5114 51.9181C22.1789 51.6757 21.9031 51.3651 21.7025 51.0076C21.5019 50.65 21.3814 50.2539 21.3491 49.846C21.3168 49.4382 21.3734 49.0283 21.5152 48.6441C21.6569 48.2599 21.8805 47.9104 22.1707 47.6195L23.8856 45.8984C24.153 45.6302 24.4714 45.4173 24.8225 45.272C25.1735 45.1267 25.5501 45.0519 25.9305 45.0519C26.3109 45.0519 26.6875 45.1267 27.0385 45.272C27.3895 45.4173 27.7079 45.6302 27.9753 45.8984L27.9768 45.9012Z" fill="url(#paint0_linear)"/>
<defs>
<linearGradient id="paint0_linear" x1="40" y1="21" x2="40" y2="60.8667" gradientUnits="userSpaceOnUse">
<stop stop-color="#DC287B"/>
<stop offset="1" stop-color="#FB822A"/>
</linearGradient>
</defs>
</svg>
