<svg width="80" height="80" viewBox="0 0 80 80" fill="none" xmlns="http://www.w3.org/2000/svg">
<circle cx="40" cy="40" r="40" fill="white"/>
<path d="M48.2632 25.0173C49.9867 24.0612 50.6141 21.881 49.6636 20.1456C49.0371 19.0032 47.8824 18.3398 46.6739 18.2942C45.9378 18.0526 45.1433 18.0599 44.4118 18.3151C39.1619 20.138 36.9111 17.2839 36.4991 16.6671C35.4588 15.0162 33.2893 14.503 31.6262 15.5285C29.9471 16.5625 29.4189 18.7703 30.447 20.4592C31.1916 21.6814 32.6146 23.2173 34.6556 24.3749L19.8442 32.5911C18.1197 33.5472 17.4933 35.7275 18.4438 37.4629C19.0939 38.6481 20.3119 39.3181 21.5686 39.3181C22.1507 39.3181 22.7413 39.1746 23.2874 38.8714L48.2632 25.0173ZM52.4236 32.6063C54.1472 31.6502 54.7736 29.469 53.824 27.7346C52.8725 26.0001 50.7049 25.3709 48.9795 26.3261L24.0046 40.1801C22.2802 41.1362 21.6537 43.3174 22.6043 45.0519C23.2544 46.2371 24.4723 46.9071 25.7291 46.9071C26.3121 46.9071 26.9017 46.7636 27.4488 46.4604L52.4236 32.6063ZM56.4414 39.933C58.1649 38.9769 58.7914 36.7967 57.8417 35.0612C56.8902 33.3277 54.7226 32.6976 52.9972 33.6527L28.0224 47.5059C26.2979 48.4629 25.6714 50.6432 26.622 52.3786C27.2721 53.5638 28.4901 54.2338 29.7468 54.2338C30.3289 54.2338 30.9194 54.0893 31.4656 53.7861L56.4414 39.933ZM57.1586 41.2408L32.1828 55.0939C30.4583 56.051 29.8319 58.2312 30.7824 59.9666C31.4325 61.1518 32.6505 61.8218 33.9072 61.8218C34.2068 61.8218 34.5091 61.7829 34.8058 61.7049C34.8644 61.6973 34.923 61.6878 34.9825 61.6774C38.8897 60.9636 40.7162 61.8209 41.2624 62.4938C41.7339 63.945 43.0757 65 44.6754 65C46.6673 65 48.2821 63.3758 48.2821 61.3723C48.2821 60.7887 48.1328 60.2461 47.889 59.7576C47.5536 59.0238 46.6909 57.5013 44.8842 56.2411L60.6009 47.523C62.3244 46.5659 62.9509 44.3857 62.0012 42.6502C61.0506 40.9148 58.884 40.2856 57.1586 41.2408Z" fill="url(#paint0_linear)"/>
<defs>
<linearGradient id="paint0_linear" x1="18" y1="15" x2="71.2853" y2="27.5938" gradientUnits="userSpaceOnUse">
<stop offset="0.197917" stop-color="#ED4454"/>
<stop offset="1" stop-color="#FB822A"/>
</linearGradient>
</defs>
</svg>
