<svg width="34" height="36" viewBox="0 0 34 36" fill="none" xmlns="http://www.w3.org/2000/svg">
<path d="M15.1569 0.379018C15.6066 0.13041 16.112 0 16.6258 0C17.1396 0 17.6451 0.13041 18.0947 0.379018L31.684 7.88813C32.1592 8.15046 32.5553 8.53535 32.8312 9.00274C33.107 9.47013 33.2526 10.0029 33.2526 10.5457V25.4536C33.2524 25.9962 33.1068 26.5288 32.8309 26.9959C32.555 27.4631 32.159 27.8479 31.684 28.1101L18.0947 35.6213C17.6452 35.8697 17.1399 36 16.6263 36C16.1127 36 15.6074 35.8697 15.1579 35.6213L1.56862 28.1121C1.09333 27.8497 0.697109 27.4647 0.421221 26.9971C0.145333 26.5295 -0.000124923 25.9965 8.05013e-08 25.4536V10.5467C0.000417668 10.0043 0.146133 9.47191 0.421993 9.00491C0.697853 8.5379 1.09378 8.15333 1.56862 7.89117L15.1569 0.378006V0.379018ZM30.2156 10.5467L16.6253 3.03757L3.03603 10.5467V25.4536L16.6253 32.9627L30.2166 25.4536V10.5467H30.2156ZM5.8565 12.0485C6.05112 11.6961 6.37774 11.4355 6.76452 11.3239C7.1513 11.2123 7.56656 11.2589 7.91898 11.4534L16.6263 16.2656L25.3357 11.4534C25.6869 11.2719 26.095 11.2346 26.4734 11.3494C26.8517 11.4641 27.1703 11.722 27.3614 12.068C27.5526 12.4141 27.6012 12.821 27.4969 13.2024C27.3927 13.5837 27.1437 13.9093 26.8031 14.11L18.1443 18.8968V28.437C18.1443 28.8396 17.9844 29.2257 17.6997 29.5104C17.415 29.7951 17.0289 29.955 16.6263 29.955C16.2237 29.955 15.8376 29.7951 15.5529 29.5104C15.2682 29.2257 15.1083 28.8396 15.1083 28.437V18.8958L6.44954 14.111C6.27496 14.0144 6.12113 13.8845 5.99682 13.7284C5.87252 13.5724 5.78019 13.3934 5.72511 13.2017C5.67004 13.0099 5.65329 12.8092 5.67584 12.611C5.69838 12.4128 5.75977 12.221 5.8565 12.0465V12.0485V12.0485Z" fill="white"/>
</svg>