<svg width="80" height="80" viewBox="0 0 80 80" fill="none" xmlns="http://www.w3.org/2000/svg">
<circle cx="40" cy="40" r="40" fill="white"/>
<path d="M63.4159 33.9487L59.2288 23.8092C58.8263 22.7672 57.6185 22.2863 56.612 22.7272C55.5652 23.1279 55.0821 24.3303 55.525 25.3322L59.712 35.4717C60.1146 36.3934 60.0743 37.4755 59.6717 38.3973L51.9016 56.1114C51.7808 56.3919 51.5795 56.4721 51.4587 56.5522C51.3379 56.5923 51.0964 56.6724 50.8146 56.5522L40.5886 52.1838L52.5457 40.2809C53.8743 38.9584 54.599 37.195 54.5587 35.3114L54.3574 22.2863C54.3172 20.4428 52.8276 19 50.9756 19L38.2535 19.0802C36.4419 19.0802 34.7107 19.8015 33.4224 21.084L16.9964 37.4355C15.6679 38.758 15.6679 40.842 16.9964 42.1645L31.4497 56.5522C32.7782 57.8748 34.8717 57.8748 36.2003 56.5522L37.851 54.9091C38.0522 55.2697 38.3743 55.5904 38.8172 55.7507L49.2444 60.1992C49.8483 60.4798 50.5328 60.6 51.1769 60.6C51.7808 60.6 52.3847 60.4798 52.9483 60.2794C54.1561 59.7985 55.0821 58.9168 55.6055 57.7144L63.3756 40.0004C64.1808 38.1168 64.221 35.9125 63.4159 33.9487ZM44.0107 25.8933C45.0574 24.8513 46.7483 24.8513 47.7951 25.8933C48.8418 26.9353 48.8418 28.6185 47.7951 29.6605C46.7483 30.7025 45.0574 30.7025 44.0107 29.6605C42.9639 28.6185 42.9639 26.9353 44.0107 25.8933Z" fill="url(#paint0_linear)"/>
<defs>
<linearGradient id="paint0_linear" x1="40" y1="19" x2="40" y2="60.6" gradientUnits="userSpaceOnUse">
<stop stop-color="#DC287B"/>
<stop offset="1" stop-color="#FB822A"/>
</linearGradient>
</defs>
</svg>
