<svg width="34" height="37" viewBox="0 0 34 37" fill="none" xmlns="http://www.w3.org/2000/svg">
<path d="M29.3636 0C30.5933 0 31.7726 0.480935 32.642 1.337C33.5115 2.19307 34 3.35415 34 4.56481V31.9537C34 33.1644 33.5115 34.3254 32.642 35.1815C31.7726 36.0376 30.5933 36.5185 29.3636 36.5185H4.63636C3.40672 36.5185 2.22745 36.0376 1.35796 35.1815C0.488473 34.3254 0 33.1644 0 31.9537V4.56481C0 3.35415 0.488473 2.19307 1.35796 1.337C2.22745 0.480935 3.40672 0 4.63636 0H29.3636ZM29.3636 3.04321H4.63636C4.22648 3.04321 3.83339 3.20352 3.54356 3.48888C3.25373 3.77423 3.09091 4.16126 3.09091 4.56481V31.9537C3.09091 32.3573 3.25373 32.7443 3.54356 33.0296C3.83339 33.315 4.22648 33.4753 4.63636 33.4753H29.3636C29.7735 33.4753 30.1666 33.315 30.4564 33.0296C30.7463 32.7443 30.9091 32.3573 30.9091 31.9537V4.56481C30.9091 4.16126 30.7463 3.77423 30.4564 3.48888C30.1666 3.20352 29.7735 3.04321 29.3636 3.04321ZM24.7273 25.8673C25.1372 25.8673 25.5302 26.0276 25.8201 26.313C26.1099 26.5983 26.2727 26.9853 26.2727 27.3889C26.2727 27.7924 26.1099 28.1795 25.8201 28.4648C25.5302 28.7502 25.1372 28.9105 24.7273 28.9105H9.27273C8.86285 28.9105 8.46975 28.7502 8.17993 28.4648C7.8901 28.1795 7.72727 27.7924 7.72727 27.3889C7.72727 26.9853 7.8901 26.5983 8.17993 26.313C8.46975 26.0276 8.86285 25.8673 9.27273 25.8673H24.7273ZM24.7273 19.7809C25.1371 19.7809 25.5301 19.9413 25.8199 20.2266C26.1097 20.512 26.2725 20.899 26.2725 21.3025C26.2725 21.706 26.1097 22.093 25.8199 22.3783C25.5301 22.6637 25.1371 22.824 24.7273 22.8241H9.27273C8.86289 22.824 8.46986 22.6637 8.18008 22.3783C7.8903 22.093 7.72751 21.706 7.72751 21.3025C7.72751 20.899 7.8903 20.512 8.18008 20.2266C8.46986 19.9413 8.86289 19.7809 9.27273 19.7809H24.7273Z" fill="white"/>
<path d="M20.0909 0H9.27273C8.86285 0 8.46976 0.160311 8.17993 0.445668C7.8901 0.731024 7.72728 1.11805 7.72728 1.5216V15.216L7.73655 15.3834C7.76549 15.6409 7.86074 15.8869 8.01327 16.098C8.1658 16.3092 8.37056 16.4785 8.60815 16.5899C8.84574 16.7013 9.10828 16.7511 9.3709 16.7346C9.63352 16.7181 9.88752 16.6359 10.1088 16.4957L14.6803 13.6001L19.2548 16.4957C19.4883 16.6436 19.7579 16.7268 20.0352 16.7366C20.3126 16.7465 20.5876 16.6826 20.8313 16.5517C21.0749 16.4207 21.2783 16.2276 21.4199 15.9926C21.5616 15.7576 21.6364 15.4893 21.6364 15.216V1.5216C21.6364 1.11805 21.4735 0.731024 21.1837 0.445668C20.8939 0.160311 20.5008 0 20.0909 0ZM18.5455 3.04321V12.4285L15.5164 10.5112L15.3433 10.4169C15.1059 10.3063 14.8439 10.2571 14.5819 10.2739C14.3199 10.2906 14.0665 10.3729 13.8457 10.5128L10.8182 12.4269V3.04321H18.5455Z" fill="white"/>
</svg>