<svg width="34" height="40" viewBox="0 0 34 40" fill="none" xmlns="http://www.w3.org/2000/svg">
<path fill-rule="evenodd" clip-rule="evenodd" d="M0.5 6C0.5 2.96243 2.96243 0.5 6 0.5H28C31.0376 0.5 33.5 2.96243 33.5 6V20.5H30.5V6C30.5 4.61929 29.3807 3.5 28 3.5H6C4.61929 3.5 3.5 4.61929 3.5 6V34C3.5 35.3807 4.61929 36.5 6 36.5H12V39.5H6C2.96243 39.5 0.5 37.0376 0.5 34V6Z" fill="white"/>
<path d="M11.5 8L13.1914 10.9604L17 11.4356L14.25 13.7426L14.8944 17L11.5 15.4653L8.10565 17L8.75 13.7426L6 11.4356L9.79707 10.9604L11.5 8Z" fill="white"/>
<rect x="20" y="9" width="7" height="3" fill="white"/>
<rect x="20" y="15" width="5" height="3" fill="white"/>
<path fill-rule="evenodd" clip-rule="evenodd" d="M33.5606 27.0608L21.5 39.1214L13.9393 31.5608L16.0607 29.4395L21.5 34.8788L31.4393 24.9395L33.5606 27.0608Z" fill="white"/>
</svg>