<svg width="36" height="33" viewBox="0 0 36 33" fill="none" xmlns="http://www.w3.org/2000/svg">
<path d="M2.97125 15.5821H0C0 14.4344 0.120972 13.2911 0.358673 12.181L3.25989 12.8519C3.06888 13.7436 2.97125 14.6617 2.97125 15.5821ZM4.11306 10.2608L1.42408 8.94315C1.89311 7.91244 2.47251 6.93028 3.14741 6.02758L5.49257 7.92347C4.95138 8.6474 4.48659 9.43313 4.11306 10.2608ZM7.33263 5.95254L5.43952 3.57108C6.28632 2.84274 7.21166 2.2093 8.18793 1.69284L9.53772 4.44509C8.75459 4.86002 8.01177 5.36766 7.33263 5.95254ZM12.0039 3.47618L11.2674 0.483354C12.3286 0.200846 13.4237 0.0419348 14.5252 0.00662129L14.6143 3.09435C13.7314 3.12304 12.8528 3.25105 12.0039 3.47618ZM20.5144 3.08993L17.5431 3.08993V0L20.5144 0V3.08993Z" fill="white"/>
<path d="M33.0287 16.6938H36C36 17.8415 35.879 18.9848 35.6413 20.095L32.7401 19.424C32.9332 18.5324 33.0287 17.6142 33.0287 16.6938ZM31.8869 22.0152L34.5738 23.3328C34.1048 24.3635 33.5254 25.3457 32.8505 26.2484L30.5053 24.3525C31.0486 23.6285 31.5134 22.8428 31.8869 22.0152ZM28.6674 26.3234L30.5605 28.7049C29.7137 29.4332 28.7883 30.0666 27.8121 30.5831L26.4623 27.8309C27.2475 27.4159 27.9882 26.9083 28.6674 26.3234ZM23.9961 28.7976L24.7305 31.7926C23.6693 32.0751 22.5742 32.234 21.4727 32.2693L21.3835 29.1816C22.2686 29.1529 23.1472 29.0249 23.9961 28.7976ZM15.4877 29.186H18.459V32.2759H15.4877V29.186Z" fill="white"/>
<path d="M11.5218 17.6498C11.3817 17.1775 11.3032 16.6765 11.3032 16.1556C11.3032 13.3659 13.4764 11.1058 16.159 11.1058C16.2652 11.1058 16.3713 11.1102 16.4753 11.1168H22.838C22.838 11.1146 22.8359 11.1146 22.8359 11.1124L34.3707 11.1124L26.9638 3.40967L26.8386 7.58108H16.4604C14.249 7.49721 12.012 8.33149 10.3227 10.0861C8.34465 12.1431 7.58274 14.9837 8.03267 17.6476H11.5218V17.6498Z" fill="white"/>
<path d="M25.0346 14.6482C25.1768 15.1249 25.2575 15.6304 25.2575 16.1556C25.2575 18.9454 23.0842 21.2055 20.4016 21.2055C20.2488 21.2055 20.0981 21.1966 19.9495 21.1812H13.712C13.7184 21.19 13.7226 21.1966 13.729 21.2055H2.35333L9.76024 28.9082L9.88546 24.7368H20.3825C20.3952 24.7368 20.4079 24.7368 20.4207 24.7368H20.4992V24.7346C22.5791 24.7103 24.6505 23.8739 26.2358 22.2229C28.2181 20.1615 28.9779 17.3144 28.5237 14.6482H25.0346Z" fill="white"/>
</svg>