<svg width="36" height="36" viewBox="0 0 36 36" fill="none" xmlns="http://www.w3.org/2000/svg">
<path fill-rule="evenodd" clip-rule="evenodd" d="M9.62448 18C9.62448 22.6257 13.3743 26.3756 18 26.3756C22.6257 26.3756 26.3755 22.6257 26.3755 18C26.3755 13.3744 22.6257 9.62451 18 9.62451C13.3743 9.62451 9.62448 13.3744 9.62448 18ZM13.151 18C13.151 20.678 15.322 22.8489 18 22.8489C20.678 22.8489 22.849 20.678 22.849 18C22.849 15.3219 20.678 13.151 18 13.151C15.322 13.151 13.151 15.3219 13.151 18Z" fill="white"/>
<circle cx="32.6939" cy="18" r="3.30613" transform="rotate(90 32.6939 18)" fill="white"/>
<circle cx="3.30613" cy="18" r="3.30613" transform="rotate(90 3.30613 18)" fill="white"/>
<path fill-rule="evenodd" clip-rule="evenodd" d="M11.5947 5.9258C11.2261 5.12915 11.0204 4.2417 11.0204 3.3062C11.0204 3.20608 11.0228 3.10651 11.0274 3.00755C7.25117 4.76675 4.25007 7.91065 2.67683 11.7865C2.88378 11.7658 3.0937 11.7552 3.3061 11.7552C4.12489 11.7552 4.90687 11.9128 5.62338 12.1993C6.88247 9.51754 8.9875 7.31179 11.5947 5.9258ZM23.1694 5.34634C26.3457 6.64532 28.924 9.10551 30.3765 12.1992C31.0931 11.9127 31.8751 11.7551 32.6939 11.7551C32.9063 11.7551 33.1161 11.7657 33.323 11.7864C31.5428 7.40053 27.9341 3.95197 23.443 2.38647C23.4873 2.68663 23.5102 2.99373 23.5102 3.3062C23.5102 4.02061 23.3903 4.70701 23.1694 5.34634ZM2.67689 24.2137C4.25014 28.0896 7.25121 31.2334 11.0274 32.9926C11.0228 32.8936 11.0204 32.7941 11.0204 32.6939C11.0204 31.7584 11.2261 30.871 11.5947 30.0743C8.98755 28.6884 6.88254 26.4827 5.62344 23.801C4.90692 24.0875 4.12491 24.2451 3.3061 24.2451C3.09372 24.2451 2.88382 24.2345 2.67689 24.2137ZM33.3231 24.2136C31.5429 28.5995 27.9342 32.0482 23.443 33.6137C23.4873 33.3135 23.5102 33.0064 23.5102 32.6939C23.5102 31.9795 23.3902 31.2931 23.1694 30.6538C26.3458 29.3548 28.9241 26.8946 30.3766 23.8008C31.0931 24.0873 31.8751 24.2449 32.6939 24.2449C32.9063 24.2449 33.1162 24.2343 33.3231 24.2136Z" fill="white"/>
<circle cx="17.2653" cy="32.6938" r="3.30613" transform="rotate(90 17.2653 32.6938)" fill="white"/>
<circle cx="17.2653" cy="3.30613" r="3.30613" transform="rotate(90 17.2653 3.30613)" fill="white"/>
</svg>