<svg width="27" height="24" viewBox="0 0 27 24" fill="none" xmlns="http://www.w3.org/2000/svg">
<path fill-rule="evenodd" clip-rule="evenodd" d="M0.666626 10.3009C0.666626 4.61214 6.44817 0 13.5816 0C20.7145 0 26.4971 4.61214 26.4971 10.3008C26.4971 15.9898 20.7145 20.602 13.5816 20.602C12.7672 20.6019 11.9541 20.54 11.1491 20.417L5.56376 24L6.53979 18.9347C3.00454 17.0969 0.666626 13.9175 0.666626 10.3009ZM6.87379 13.7332C6.97607 13.6316 7.03406 13.4912 7.03406 13.3483L7.03402 13.3483V8.84531H8.3432C8.48862 8.84531 8.6244 8.79269 8.72853 8.69778C8.7772 8.65266 8.81678 8.59861 8.84514 8.53857C8.87251 8.47835 8.88736 8.41174 8.88736 8.34586C8.88697 8.27914 8.87259 8.21325 8.84514 8.15246C8.80385 8.06334 8.73475 7.98646 8.64692 7.93214C8.55724 7.8764 8.45165 7.84661 8.3432 7.84661H4.50035C4.35545 7.84661 4.21871 7.89891 4.11603 7.99414C4.06723 8.03854 4.0276 8.0921 3.99938 8.15177C3.97185 8.21305 3.95619 8.27961 3.95619 8.3459C3.95619 8.41235 3.97185 8.47892 3.9989 8.53861C4.04059 8.62854 4.1088 8.70465 4.1961 8.7595C4.28764 8.81574 4.39296 8.84544 4.50035 8.84527H5.82382V13.3483C5.82421 13.4925 5.88169 13.6306 5.98365 13.7325C6.08542 13.835 6.22365 13.8928 6.36797 13.8932H6.48999C6.63402 13.8928 6.77202 13.8352 6.87379 13.7332ZM13.238 13.8329C13.3349 13.789 13.4146 13.7181 13.4717 13.628V13.6279L13.6286 13.3775L11.3128 8.27828C11.2988 8.21732 11.2748 8.1591 11.2417 8.10602C11.2216 8.07336 11.1971 8.04284 11.1693 8.01398C11.1198 7.95631 11.0781 7.92058 11.0316 7.89123C10.9505 7.84031 10.8578 7.81145 10.7618 7.80741C10.7158 7.80284 10.6946 7.80114 10.672 7.80114C10.5689 7.80134 10.4678 7.83056 10.3804 7.88549C10.3132 7.92749 10.2563 7.98405 10.2138 8.05101L10.2124 8.05285C10.1903 8.08262 10.18 8.09648 10.171 8.11063C10.141 8.15885 10.1186 8.21136 10.1043 8.26636L10.088 8.31175L7.90463 13.1052C7.8723 13.1755 7.85603 13.2515 7.85603 13.3293C7.856 13.4327 7.8851 13.5341 7.93999 13.6217C7.99586 13.7118 8.07725 13.7833 8.1738 13.8269L8.2856 13.8781C8.44782 13.9525 8.64692 13.9399 8.80147 13.8418C8.89125 13.786 8.96242 13.7047 9.0059 13.6082L9.44883 12.6346H11.9596L12.4054 13.6138C12.4492 13.7104 12.5205 13.7919 12.6103 13.848C12.7648 13.9456 12.9625 13.9579 13.1252 13.8836L13.238 13.8329ZM18.0002 13.7474C18.0421 13.7097 18.0771 13.665 18.1036 13.6153L18.2547 13.3346L18.0378 13.0912C18.0026 13.0531 17.9625 13.0198 17.9187 12.9921C17.8294 12.9377 17.7239 12.9082 17.6154 12.9082H15.1134V8.39097C15.1134 8.24809 15.0553 8.10755 14.9541 8.00687C14.8528 7.90453 14.7131 7.84661 14.571 7.84661H14.4472C14.3032 7.84674 14.1651 7.90413 14.0634 8.00614C13.9616 8.10755 13.903 8.24809 13.903 8.39097V13.5292L13.9583 13.6184C14.0005 13.695 14.0639 13.7606 14.1411 13.8082C14.214 13.8531 14.2999 13.8809 14.3887 13.8904C14.3934 13.8907 14.3981 13.891 14.4027 13.8913C14.4171 13.8923 14.4313 13.8932 14.4458 13.8932H17.6154C17.7603 13.8932 17.8971 13.8411 18.0002 13.7474ZM23.0132 13.7171C23.0836 13.6659 23.1404 13.5983 23.1787 13.5201C23.2156 13.4449 23.2353 13.361 23.2353 13.2767C23.2363 13.1616 23.1984 13.0478 23.1317 12.9567L21.2966 10.4477L22.8265 8.8502C22.923 8.74867 22.9777 8.61537 22.9766 8.47431C22.9766 8.40059 22.9629 8.3288 22.9358 8.26252C22.907 8.19386 22.8644 8.13187 22.8107 8.08043L22.7215 7.99462C22.5669 7.84685 22.3275 7.80623 22.1354 7.88606C22.0666 7.91451 22.0045 7.95705 21.9531 8.01095L19.7285 10.3338V8.39097C19.7281 8.24689 19.6708 8.10882 19.5691 8.00687C19.4669 7.90453 19.3277 7.84661 19.1862 7.84661H19.0618C18.9177 7.84686 18.7796 7.90422 18.6775 8.00614C18.5758 8.10755 18.5177 8.24809 18.5177 8.39097V13.4883L18.5859 13.6118C18.6109 13.6561 18.6417 13.6969 18.6776 13.7329C18.7794 13.8352 18.9176 13.8928 19.0618 13.8932H19.1843C19.3283 13.8928 19.4663 13.8353 19.5681 13.7332C19.6703 13.6312 19.7279 13.4928 19.7284 13.3483V12.0857L20.4463 11.3359L22.1541 13.6719C22.2059 13.7421 22.2736 13.799 22.3515 13.8379C22.5299 13.9249 22.7564 13.9065 22.9148 13.7899L23.0132 13.7171ZM11.4463 11.5931H9.81917L10.6322 9.96602L11.4463 11.5931Z" fill="white"/>
</svg>