<svg width="231" height="230" viewBox="0 0 231 230" fill="none" xmlns="http://www.w3.org/2000/svg">
<path fill-rule="evenodd" clip-rule="evenodd" d="M10.7918 229.897H0.384888L231 0V10.3746L10.7918 229.897ZM31.6147 229.897H22.3859L231 21.9325V31.1326L31.6147 229.897ZM52.4374 229.897H44.3868L231 43.8649V51.8905L52.4374 229.897ZM73.1619 229.897H66.3876L231 65.7972V72.5505L73.1619 229.897ZM93.9846 229.897H88.3884L231 87.7295V93.3083L93.9846 229.897ZM114.808 229.897H110.389L231 109.662V114.066L114.808 229.897ZM135.434 229.897H132.293L231 131.497V134.629L135.434 229.897ZM156.257 229.897H154.294L231 153.429V155.387L156.257 229.897Z" fill="url(#paint0_linear)"/>
<defs>
<linearGradient id="paint0_linear" x1="219" y1="58.5" x2="115.692" y2="229.897" gradientUnits="userSpaceOnUse">
<stop stop-color="#DF2F76" stop-opacity="0"/>
<stop offset="1" stop-color="#FBCD2A"/>
</linearGradient>
</defs>
</svg>