<svg width="53" height="53" viewBox="0 0 53 53" fill="none" xmlns="http://www.w3.org/2000/svg">
<path fill-rule="evenodd" clip-rule="evenodd" d="M14.5 0C13.1193 0 12 1.11929 12 2.5C12 3.88071 13.1193 5 14.5 5C15.8807 5 17 3.88071 17 2.5C17 1.11929 15.8807 0 14.5 0ZM38.5 0C37.1193 0 36 1.11929 36 2.5C36 3.88071 37.1193 5 38.5 5C39.8807 5 41 3.88071 41 2.5C41 1.11929 39.8807 0 38.5 0ZM16 7.5C16 5.567 17.567 4 19.5 4C21.433 4 23 5.567 23 7.5C23 9.433 21.433 11 19.5 11C17.567 11 16 9.433 16 7.5ZM33.5 4C31.567 4 30 5.567 30 7.5C30 9.433 31.567 11 33.5 11C35.433 11 37 9.433 37 7.5C37 5.567 35.433 4 33.5 4ZM22 13.5C22 11.0147 24.0147 9 26.5 9C28.9853 9 31 11.0147 31 13.5C31 15.9853 28.9853 18 26.5 18C24.0147 18 22 15.9853 22 13.5ZM38.5 53C39.8807 53 41 51.8807 41 50.5C41 49.1193 39.8807 48 38.5 48C37.1193 48 36 49.1193 36 50.5C36 51.8807 37.1193 53 38.5 53ZM17 50.5C17 51.8807 15.8807 53 14.5 53C13.1193 53 12 51.8807 12 50.5C12 49.1193 13.1193 48 14.5 48C15.8807 48 17 49.1193 17 50.5ZM33.5 49C35.433 49 37 47.433 37 45.5C37 43.567 35.433 42 33.5 42C31.567 42 30 43.567 30 45.5C30 47.433 31.567 49 33.5 49ZM23 45.5C23 47.433 21.433 49 19.5 49C17.567 49 16 47.433 16 45.5C16 43.567 17.567 42 19.5 42C21.433 42 23 43.567 23 45.5ZM26.5 44C28.9853 44 31 41.9853 31 39.5C31 37.0147 28.9853 35 26.5 35C24.0147 35 22 37.0147 22 39.5C22 41.9853 24.0147 44 26.5 44ZM50.5 12C51.8807 12 53 13.1193 53 14.5C53 15.8807 51.8807 17 50.5 17C49.1193 17 48 15.8807 48 14.5C48 13.1193 49.1193 12 50.5 12ZM53 38.5C53 37.1193 51.8807 36 50.5 36C49.1193 36 48 37.1193 48 38.5C48 39.8807 49.1193 41 50.5 41C51.8807 41 53 39.8807 53 38.5ZM45.5 16C47.433 16 49 17.567 49 19.5C49 21.433 47.433 23 45.5 23C43.567 23 42 21.433 42 19.5C42 17.567 43.567 16 45.5 16ZM49 33.5C49 31.567 47.433 30 45.5 30C43.567 30 42 31.567 42 33.5C42 35.433 43.567 37 45.5 37C47.433 37 49 35.433 49 33.5ZM39.5 22C41.9853 22 44 24.0147 44 26.5C44 28.9853 41.9853 31 39.5 31C37.0147 31 35 28.9853 35 26.5C35 24.0147 37.0147 22 39.5 22ZM0 38.5C0 39.8807 1.11929 41 2.5 41C3.88071 41 5 39.8807 5 38.5C5 37.1193 3.88071 36 2.5 36C1.11929 36 0 37.1193 0 38.5ZM2.5 17C1.11929 17 0 15.8807 0 14.5C0 13.1193 1.11929 12 2.5 12C3.88071 12 5 13.1193 5 14.5C5 15.8807 3.88071 17 2.5 17ZM4 33.5C4 35.433 5.567 37 7.5 37C9.433 37 11 35.433 11 33.5C11 31.567 9.433 30 7.5 30C5.567 30 4 31.567 4 33.5ZM7.5 23C5.567 23 4 21.433 4 19.5C4 17.567 5.567 16 7.5 16C9.433 16 11 17.567 11 19.5C11 21.433 9.433 23 7.5 23ZM9 26.5C9 28.9853 11.0147 31 13.5 31C15.9853 31 18 28.9853 18 26.5C18 24.0147 15.9853 22 13.5 22C11.0147 22 9 24.0147 9 26.5Z" fill="url(#paint0_linear)"/>
<defs>
<linearGradient id="paint0_linear" x1="0" y1="0" x2="56.8507" y2="4.51517" gradientUnits="userSpaceOnUse">
<stop stop-color="#FF8212"/>
<stop offset="1" stop-color="#ED4454"/>
</linearGradient>
</defs>
</svg>