<svg width="56" height="54" viewBox="0 0 56 54" fill="none" xmlns="http://www.w3.org/2000/svg">
<path fill-rule="evenodd" clip-rule="evenodd" d="M4.5 0C2.01472 0 0 2.01472 0 4.5C0 6.98528 2.01472 9 4.5 9C6.98528 9 9 6.98528 9 4.5C9 2.01472 6.98528 0 4.5 0ZM29 23.5C29 25.433 27.433 27 25.5 27C23.567 27 22 25.433 22 23.5C22 21.567 23.567 20 25.5 20C27.433 20 29 21.567 29 23.5ZM29 32.5C29 34.433 27.433 36 25.5 36C23.567 36 22 34.433 22 32.5C22 30.567 23.567 29 25.5 29C27.433 29 29 30.567 29 32.5ZM52.5 36C54.433 36 56 34.433 56 32.5C56 30.567 54.433 29 52.5 29C50.567 29 49 30.567 49 32.5C49 34.433 50.567 36 52.5 36ZM29 41.5C29 43.433 27.433 45 25.5 45C23.567 45 22 43.433 22 41.5C22 39.567 23.567 38 25.5 38C27.433 38 29 39.567 29 41.5ZM52.5 45C54.433 45 56 43.433 56 41.5C56 39.567 54.433 38 52.5 38C50.567 38 49 39.567 49 41.5C49 43.433 50.567 45 52.5 45ZM29 50.5C29 52.433 27.433 54 25.5 54C23.567 54 22 52.433 22 50.5C22 48.567 23.567 47 25.5 47C27.433 47 29 48.567 29 50.5ZM34.5 27C36.433 27 38 25.433 38 23.5C38 21.567 36.433 20 34.5 20C32.567 20 31 21.567 31 23.5C31 25.433 32.567 27 34.5 27ZM38 50.5C38 52.433 36.433 54 34.5 54C32.567 54 31 52.433 31 50.5C31 48.567 32.567 47 34.5 47C36.433 47 38 48.567 38 50.5ZM43.5 27C45.433 27 47 25.433 47 23.5C47 21.567 45.433 20 43.5 20C41.567 20 40 21.567 40 23.5C40 25.433 41.567 27 43.5 27ZM47 50.5C47 52.433 45.433 54 43.5 54C41.567 54 40 52.433 40 50.5C40 48.567 41.567 47 43.5 47C45.433 47 47 48.567 47 50.5ZM52.5 27C54.433 27 56 25.433 56 23.5C56 21.567 54.433 20 52.5 20C50.567 20 49 21.567 49 23.5C49 25.433 50.567 27 52.5 27ZM56 50.5C56 52.433 54.433 54 52.5 54C50.567 54 49 52.433 49 50.5C49 48.567 50.567 47 52.5 47C54.433 47 56 48.567 56 50.5ZM12 4.5C12 2.01472 14.0147 0 16.5 0C18.9853 0 21 2.01472 21 4.5C21 6.98528 18.9853 9 16.5 9C14.0147 9 12 6.98528 12 4.5ZM28.5 0C26.0147 0 24 2.01472 24 4.5C24 6.98528 26.0147 9 28.5 9C30.9853 9 33 6.98528 33 4.5C33 2.01472 30.9853 0 28.5 0ZM0 40.5C0 38.0147 2.01472 36 4.5 36C6.98528 36 9 38.0147 9 40.5C9 42.9853 6.98528 45 4.5 45C2.01472 45 0 42.9853 0 40.5ZM40.5 0C38.0147 0 36 2.01472 36 4.5C36 6.98528 38.0147 9 40.5 9C42.9853 9 45 6.98528 45 4.5C45 2.01472 42.9853 0 40.5 0ZM37 14.5C37 12.0147 39.0147 10 41.5 10C43.9853 10 46 12.0147 46 14.5C46 16.9853 43.9853 19 41.5 19C39.0147 19 37 16.9853 37 14.5ZM15.5 36C13.0147 36 11 38.0147 11 40.5C11 42.9853 13.0147 45 15.5 45C17.9853 45 20 42.9853 20 40.5C20 38.0147 17.9853 36 15.5 36ZM0 16.5C0 14.0147 2.01472 12 4.5 12C6.98528 12 9 14.0147 9 16.5C9 18.9853 6.98528 21 4.5 21C2.01472 21 0 18.9853 0 16.5ZM4.5 24C2.01472 24 0 26.0147 0 28.5C0 30.9853 2.01472 33 4.5 33C6.98528 33 9 30.9853 9 28.5C9 26.0147 6.98528 24 4.5 24Z" fill="url(#paint0_linear)"/>
<defs>
<linearGradient id="paint0_linear" x1="0" y1="0" x2="60.0403" y2="4.9451" gradientUnits="userSpaceOnUse">
<stop stop-color="#FF8212"/>
<stop offset="1" stop-color="#ED4454"/>
</linearGradient>
</defs>
</svg>