<svg width="48" height="42" viewBox="0 0 48 42" fill="none" xmlns="http://www.w3.org/2000/svg">
<path d="M47.4159 14.9487L43.2288 4.80925C42.8263 3.76724 41.6185 3.28632 40.612 3.72717C39.5652 4.12794 39.0821 5.33025 39.525 6.33218L43.712 16.4717C44.1146 17.3934 44.0743 18.4755 43.6717 19.3973L35.9016 37.1114C35.7808 37.3919 35.5795 37.4721 35.4587 37.5522C35.3379 37.5923 35.0964 37.6724 34.8146 37.5522L24.5886 33.1838L36.5457 21.2809C37.8743 19.9584 38.599 18.195 38.5587 16.3114L38.3574 3.28632C38.3172 1.44277 36.8276 0 34.9756 0L22.2535 0.0801541C20.4419 0.0801541 18.7107 0.801541 17.4224 2.08401L0.996427 18.4355C-0.332143 19.758 -0.332143 21.842 0.996427 23.1645L15.4497 37.5522C16.7782 38.8748 18.8717 38.8748 20.2003 37.5522L21.851 35.9091C22.0522 36.2697 22.3743 36.5904 22.8172 36.7507L33.2444 41.1992C33.8483 41.4798 34.5328 41.6 35.1769 41.6C35.7808 41.6 36.3847 41.4798 36.9483 41.2794C38.1561 40.7985 39.0821 39.9168 39.6055 38.7144L47.3756 21.0004C48.1808 19.1168 48.221 16.9125 47.4159 14.9487ZM28.0107 6.89326C29.0574 5.85125 30.7483 5.85125 31.7951 6.89326C32.8418 7.93526 32.8418 9.6185 31.7951 10.6605C30.7483 11.7025 29.0574 11.7025 28.0107 10.6605C26.9639 9.6185 26.9639 7.93526 28.0107 6.89326Z" fill="url(#paint0_linear)"/>
<defs>
<linearGradient id="paint0_linear" x1="24" y1="0" x2="24" y2="41.6" gradientUnits="userSpaceOnUse">
<stop stop-color="#DC287B"/>
<stop offset="1" stop-color="#FB822A"/>
</linearGradient>
</defs>
</svg>