<svg width="112" height="100" viewBox="0 0 112 100" fill="none" xmlns="http://www.w3.org/2000/svg">
<path d="M56 6L61.2035 3.01279C60.1337 1.14918 58.1489 -7.0788e-08 56 0C53.8511 7.0788e-08 51.8663 1.14918 50.7965 3.0128L56 6ZM106 93.0968V99.0968C108.141 99.0968 110.12 97.956 111.192 96.1032C112.265 94.2504 112.269 91.9663 111.204 90.1096L106 93.0968ZM6 93.0968L0.796481 90.1096C-0.269431 91.9663 -0.265216 94.2504 0.807543 96.1032C1.8803 97.956 3.85904 99.0968 6 99.0968L6 93.0968ZM50.7965 8.98721L100.796 96.084L111.204 90.1096L61.2035 3.01279L50.7965 8.98721ZM106 87.0968H6V99.0968H106V87.0968ZM11.2035 96.084L61.2035 8.9872L50.7965 3.0128L0.796481 90.1096L11.2035 96.084ZM72.5389 64.0645C72.5389 73.117 65.2512 80.397 56.3331 80.397V92.397C71.9429 92.397 84.5389 79.6799 84.5389 64.0645H72.5389ZM56.3331 80.397C47.415 80.397 40.1273 73.117 40.1273 64.0645H28.1273C28.1273 79.6799 40.7233 92.397 56.3331 92.397V80.397ZM40.1273 64.0645C40.1273 55.0121 47.415 47.732 56.3331 47.732V35.732C40.7233 35.732 28.1273 48.4491 28.1273 64.0645H40.1273ZM56.3331 47.732C65.2512 47.732 72.5389 55.0121 72.5389 64.0645H84.5389C84.5389 48.4491 71.9429 35.732 56.3331 35.732V47.732Z" fill="url(#paint0_linear)"/>
<defs>
<linearGradient id="paint0_linear" x1="6" y1="6" x2="113.052" y2="15.7618" gradientUnits="userSpaceOnUse">
<stop stop-color="#FF8212"/>
<stop offset="1" stop-color="#ED4454"/>
</linearGradient>
</defs>
</svg>