<svg width="46" height="40" viewBox="0 0 46 40" fill="none" xmlns="http://www.w3.org/2000/svg">
<path d="M40.4656 6.32616H43.125C43.8875 6.32616 44.6188 6.62639 45.1579 7.16079C45.6971 7.69519 46 8.41999 46 9.17575V23.4237C46 24.1794 45.6971 24.9043 45.1579 25.4387C44.6188 25.9731 43.8875 26.2733 43.125 26.2733H37.8911L25.8606 9.04752L24.4619 7.08415L15.9002 11.0023C15.3469 11.2555 14.7267 11.3279 14.1292 11.2089C11.5158 10.6889 10.6389 9.78271 11.4986 8.489C12.3309 7.23661 15.8729 4.71757 22.126 0.929041C22.2899 0.829305 22.4595 0.743818 22.6334 0.675428C25.2598 -0.549895 28.2569 -0.108208 31.6236 2.00191C34.4068 3.75106 37.3704 5.20069 40.4642 6.32616H40.4656ZM1.96362 26.1265C1.39168 25.937 0.894324 25.5741 0.541932 25.0891C0.189541 24.604 -4.49037e-05 24.0214 7.97762e-09 23.4237V9.17575C7.97762e-09 8.41999 0.3029 7.69519 0.842067 7.16079C1.38123 6.62639 2.1125 6.32616 2.875 6.32616H9.50475L9.49325 6.33614C9.09302 6.69347 8.77579 7.13262 8.56345 7.62329C8.35111 8.11396 8.24872 8.64445 8.26334 9.17816C8.27796 9.71186 8.40926 10.2361 8.64815 10.7146C8.88705 11.1931 9.22786 11.6145 9.64706 11.9498C10.6832 12.7787 11.9179 13.3281 13.2315 13.5445C14.545 13.761 15.8926 13.6372 17.1436 13.1851L23.6109 10.8485L28.1463 17.3455C28.2857 17.478 28.4114 17.6241 28.5214 17.7815L36.4708 29.1685C36.7056 29.5049 36.8646 29.8875 36.9369 30.2902C37.0093 30.6929 36.9933 31.1064 36.89 31.5025C36.7868 31.8985 36.5987 32.2679 36.3386 32.5855C36.0785 32.9031 35.7525 33.1615 35.3826 33.3431L22.6838 39.5709C22.0944 39.8601 21.4475 39.9314 20.8438 39.8102L21.3138 39.3386C22.3778 38.2718 22.9745 36.8322 22.9745 35.3321C22.9745 33.832 22.3778 32.3924 21.3138 31.3256L12.1138 22.0986C11.7127 21.6963 11.235 21.3768 10.7084 21.1588C10.1819 20.9408 9.61686 20.8285 9.04619 20.8285C8.47551 20.8285 7.91051 20.9408 7.38393 21.1588C6.85735 21.3768 6.37967 21.6963 5.97856 22.0986L1.96219 26.1265H1.96362ZM10.9768 24.9012L19.136 33.0824C19.4878 33.4354 19.7405 33.8734 19.8691 34.3529C19.9977 34.8325 19.9977 35.337 19.8691 35.8166L19.458 37.3596C19.3654 37.7056 19.1889 38.024 18.9439 38.287C18.6989 38.55 18.3927 38.7496 18.052 38.8686C17.7114 38.9876 17.3466 39.0222 16.9893 38.9695C16.6321 38.9169 16.2932 38.7785 16.0023 38.5664L5.51137 30.9181C5.17893 30.6757 4.90305 30.3651 4.7025 30.0076C4.50194 29.65 4.3814 29.2539 4.34907 28.846C4.31675 28.4382 4.3734 28.0283 4.51517 27.6441C4.65695 27.2599 4.88052 26.9104 5.17069 26.6195L6.88563 24.8984C7.15302 24.6302 7.47145 24.4173 7.82245 24.272C8.17346 24.1267 8.55008 24.0519 8.93047 24.0519C9.31086 24.0519 9.68748 24.1267 10.0385 24.272C10.3895 24.4173 10.7079 24.6302 10.9753 24.8984L10.9768 24.9012Z" fill="url(#paint0_linear)"/>
<defs>
<linearGradient id="paint0_linear" x1="23" y1="0" x2="23" y2="39.8667" gradientUnits="userSpaceOnUse">
<stop stop-color="#DC287B"/>
<stop offset="1" stop-color="#FB822A"/>
</linearGradient>
</defs>
</svg>