<svg width="55" height="58" viewBox="0 0 55 58" fill="none" xmlns="http://www.w3.org/2000/svg">
<path fill-rule="evenodd" clip-rule="evenodd" d="M29 4.5C29 6.98528 26.9853 9 24.5 9C22.0147 9 20 6.98528 20 4.5C20 2.01472 22.0147 0 24.5 0C26.9853 0 29 2.01472 29 4.5ZM35 10C37.2091 10 39 8.20914 39 6C39 3.79086 37.2091 2 35 2C32.7909 2 31 3.79086 31 6C31 8.20914 32.7909 10 35 10ZM47 9.5C47 11.433 45.433 13 43.5 13C41.567 13 40 11.433 40 9.5C40 7.567 41.567 6 43.5 6C45.433 6 47 7.567 47 9.5ZM52 16C52 17.6569 50.6569 19 49 19C47.3431 19 46 17.6569 46 16C46 14.3431 47.3431 13 49 13C50.6569 13 52 14.3431 52 16ZM9 24C10.1046 24 11 23.1046 11 22C11 20.8954 10.1046 20 9 20C7.89543 20 7 20.8954 7 22C7 23.1046 7.89543 24 9 24ZM15 24C16.1046 24 17 23.1046 17 22C17 20.8954 16.1046 20 15 20C13.8954 20 13 20.8954 13 22C13 23.1046 13.8954 24 15 24ZM52.5 24C53.8807 24 55 22.8807 55 21.5C55 20.1193 53.8807 19 52.5 19C51.1193 19 50 20.1193 50 21.5C50 22.8807 51.1193 24 52.5 24ZM15.5 13C17.9853 13 20 10.9853 20 8.5C20 6.01472 17.9853 4 15.5 4C13.0147 4 11 6.01472 11 8.5C11 10.9853 13.0147 13 15.5 13ZM12 15C12 17.2091 10.2091 19 8 19C5.79086 19 4 17.2091 4 15C4 12.7909 5.79086 11 8 11C10.2091 11 12 12.7909 12 15ZM2.5 24C3.88071 24 5 22.8807 5 21.5C5 20.1193 3.88071 19 2.5 19C1.11929 19 0 20.1193 0 21.5C0 22.8807 1.11929 24 2.5 24ZM44 36C44 34.8954 44.8954 34 46 34C47.1046 34 48 34.8954 48 36C48 37.1046 47.1046 38 46 38C44.8954 38 44 37.1046 44 36ZM40 34C38.8954 34 38 34.8954 38 36C38 37.1046 38.8954 38 40 38C41.1046 38 42 37.1046 42 36C42 34.8954 41.1046 34 40 34ZM3 42C3 40.3431 4.34315 39 6 39C7.65686 39 9 40.3431 9 42C9 43.6568 7.65686 45 6 45C4.34315 45 3 43.6568 3 42ZM2.5 34C1.11929 34 2.0003e-06 35.1193 0 36.5C0 37.8807 1.11929 39 2.5 39C3.88071 39 5 37.8807 5 36.5C5 35.1193 3.88071 34 2.5 34ZM8 48.5C8 46.567 9.567 45 11.5 45C13.433 45 15 46.567 15 48.5C15 50.433 13.433 52 11.5 52C9.567 52 8 50.433 8 48.5ZM20 48C17.7909 48 16 49.7909 16 52C16 54.2091 17.7909 56 20 56C22.2091 56 24 54.2091 24 52C24 49.7909 22.2091 48 20 48ZM26 53.5C26 51.0147 28.0147 49 30.5 49C32.9853 49 35 51.0147 35 53.5C35 55.9853 32.9853 58 30.5 58C28.0147 58 26 55.9853 26 53.5ZM39.5 45C37.0147 45 35 47.0147 35 49.5C35 51.9853 37.0147 54 39.5 54C41.9853 54 44 51.9853 44 49.5C44 47.0147 41.9853 45 39.5 45ZM43 43C43 40.7909 44.7909 39 47 39C49.2091 39 51 40.7909 51 43C51 45.2091 49.2091 47 47 47C44.7909 47 43 45.2091 43 43ZM52.5 34C51.1193 34 50 35.1193 50 36.5C50 37.8807 51.1193 39 52.5 39C53.8807 39 55 37.8807 55 36.5C55 35.1193 53.8807 34 52.5 34Z" fill="url(#paint0_linear)"/>
<defs>
<linearGradient id="paint0_linear" x1="0" y1="0" x2="59.0333" y2="4.44601" gradientUnits="userSpaceOnUse">
<stop stop-color="#FF8212"/>
<stop offset="1" stop-color="#ED4454"/>
</linearGradient>
</defs>
</svg>