<svg width="64" height="64" viewBox="0 0 64 64" fill="none" xmlns="http://www.w3.org/2000/svg">
<circle cx="32" cy="32" r="30.5" stroke="white" stroke-width="3"/>
<path d="M21.6098 25.598C21.6069 24.3405 21.8459 23.0947 22.3131 21.9318C22.7802 20.7688 23.4663 19.7116 24.3323 18.8203C25.1983 17.929 26.2271 17.2213 27.3601 16.7373C28.4931 16.2534 29.708 16.0029 30.9355 16C36.0873 16 40.2613 20.2981 40.2613 25.598C40.263 27.3019 39.8221 28.9756 38.9838 30.4472C38.1455 31.9188 36.94 33.1354 35.4911 33.9719C35.0143 35.3783 34.122 36.5977 32.9382 37.4612C31.7543 38.3246 30.3375 38.7892 28.8843 38.7905H24.2763V35.4331H28.8891C30.9498 35.4331 32.6194 33.7153 32.6194 31.5944V31.3549H19.3177L19.2652 44.6426H40.0132C42.0716 44.6426 43.7435 42.9224 43.7435 40.8039L43.7936 36.1515H38.5869V32.7941H47.0588L47.0063 40.8039C47.0095 42.7079 46.2747 44.5354 44.9635 45.8847C43.6522 47.234 41.8717 47.9948 40.0132 48H16L16.0525 27.9951H21.9031C21.7077 27.2118 21.6092 26.4065 21.6098 25.598ZM25.3377 27.9951H35.8798V29.2046C36.5834 28.1857 36.9985 26.942 36.9985 25.598C37.0003 24.7805 36.845 23.9707 36.5413 23.2147C36.2376 22.4587 35.7915 21.7715 35.2284 21.1921C34.6654 20.6128 33.9965 20.1529 33.2599 19.8385C32.5233 19.5241 31.7335 19.3614 30.9355 19.3598C30.1376 19.3614 29.3477 19.5241 28.6111 19.8385C27.8745 20.1529 27.2056 20.6128 26.6426 21.1921C26.0796 21.7715 25.6335 22.4587 25.3298 23.2147C25.0261 23.9707 24.8707 24.7805 24.8726 25.598C24.8726 26.4459 25.0395 27.2596 25.3377 27.9951Z" fill="white"/>
</svg>
