<svg width="61" height="45" viewBox="0 0 61 45" fill="none" xmlns="http://www.w3.org/2000/svg">
<path fill-rule="evenodd" clip-rule="evenodd" d="M22 0C20.3431 0 19 1.34315 19 3C19 4.65685 20.3431 6 22 6C23.6569 6 25 4.65685 25 3C25 1.34315 23.6569 0 22 0ZM9 17.5C9 19.9853 6.98528 22 4.5 22C2.01472 22 0 19.9853 0 17.5C0 15.0147 2.01472 13 4.5 13C6.98528 13 9 15.0147 9 17.5ZM53 21.5C53 23.9853 50.9853 26 48.5 26C46.0147 26 44 23.9853 44 21.5C44 19.0147 46.0147 17 48.5 17C50.9853 17 53 19.0147 53 21.5ZM56.5 33C58.9853 33 61 30.9853 61 28.5C61 26.0147 58.9853 24 56.5 24C54.0147 24 52 26.0147 52 28.5C52 30.9853 54.0147 33 56.5 33ZM50 31.5C50 33.9853 47.9853 36 45.5 36C43.0147 36 41 33.9853 41 31.5C41 29.0147 43.0147 27 45.5 27C47.9853 27 50 29.0147 50 31.5ZM36.5 40C38.9853 40 41 37.9853 41 35.5C41 33.0147 38.9853 31 36.5 31C34.0147 31 32 33.0147 32 35.5C32 37.9853 34.0147 40 36.5 40ZM9 40.5C9 42.9853 6.98528 45 4.5 45C2.01472 45 0 42.9853 0 40.5C0 38.0147 2.01472 36 4.5 36C6.98528 36 9 38.0147 9 40.5ZM15.5 45C17.9853 45 20 42.9853 20 40.5C20 38.0147 17.9853 36 15.5 36C13.0147 36 11 38.0147 11 40.5C11 42.9853 13.0147 45 15.5 45ZM31 38.5C31 40.9853 28.9853 43 26.5 43C24.0147 43 22 40.9853 22 38.5C22 36.0147 24.0147 34 26.5 34C28.9853 34 31 36.0147 31 38.5ZM19 11C19 9.34315 20.3431 8 22 8C23.6569 8 25 9.34315 25 11C25 12.6569 23.6569 14 22 14C20.3431 14 19 12.6569 19 11ZM13 16C11.3431 16 10 17.3431 10 19C10 20.6569 11.3431 22 13 22C14.6569 22 16 20.6569 16 19C16 17.3431 14.6569 16 13 16ZM18 27C18 25.3431 19.3431 24 21 24C22.6569 24 24 25.3431 24 27C24 28.6569 22.6569 30 21 30C19.3431 30 18 28.6569 18 27ZM29 22C27.3431 22 26 23.3431 26 25C26 26.6569 27.3431 28 29 28C30.6569 28 32 26.6569 32 25C32 23.3431 30.6569 22 29 22ZM10 28C10 26.3431 11.3431 25 13 25C14.6569 25 16 26.3431 16 28C16 29.6569 14.6569 31 13 31C11.3431 31 10 29.6569 10 28ZM30 0C28.3431 0 27 1.34315 27 3C27 4.65685 28.3431 6 30 6C31.6569 6 33 4.65685 33 3C33 1.34315 31.6569 0 30 0ZM27 11C27 9.34315 28.3431 8 30 8C31.6569 8 33 9.34315 33 11C33 12.6569 31.6569 14 30 14C28.3431 14 27 12.6569 27 11ZM38 0C36.3431 0 35 1.34315 35 3C35 4.65685 36.3431 6 38 6C39.6569 6 41 4.65685 41 3C41 1.34315 39.6569 0 38 0ZM35 11C35 9.34315 36.3431 8 38 8C39.6569 8 41 9.34315 41 11C41 12.6569 39.6569 14 38 14C36.3431 14 35 12.6569 35 11ZM38.5 19C36.567 19 35 20.567 35 22.5C35 24.433 36.567 26 38.5 26C40.433 26 42 24.433 42 22.5C42 20.567 40.433 19 38.5 19Z" fill="url(#paint0_linear)"/>
<defs>
<linearGradient id="paint0_linear" x1="0" y1="0" x2="65.0903" y2="7.00763" gradientUnits="userSpaceOnUse">
<stop stop-color="#FF8212"/>
<stop offset="1" stop-color="#ED4454"/>
</linearGradient>
</defs>
</svg>
