<svg width="58" height="58" viewBox="0 0 58 58" fill="none" xmlns="http://www.w3.org/2000/svg">
<path fill-rule="evenodd" clip-rule="evenodd" d="M29.5 9C31.9853 9 34 6.98528 34 4.5C34 2.01472 31.9853 0 29.5 0C27.0147 0 25 2.01472 25 4.5C25 6.98528 27.0147 9 29.5 9ZM49 29.5C49 31.9853 51.0147 34 53.5 34C55.9853 34 58 31.9853 58 29.5C58 27.0147 55.9853 25 53.5 25C51.0147 25 49 27.0147 49 29.5ZM44.5462 11.5459C42.7889 13.3033 39.9396 13.3033 38.1823 11.5459C36.4249 9.78858 36.4249 6.93934 38.1823 5.18198C39.9396 3.42462 42.7889 3.42462 44.5462 5.18198C46.3036 6.93934 46.3036 9.78858 44.5462 11.5459ZM38.1823 52.5459C39.9396 54.3033 42.7889 54.3033 44.5462 52.5459C46.3036 50.7886 46.3036 47.9393 44.5462 46.182C42.7889 44.4246 39.9396 44.4246 38.1823 46.182C36.4249 47.9393 36.4249 50.7886 38.1823 52.5459ZM20.5462 11.5459C18.7889 13.3033 15.9396 13.3033 14.1823 11.5459C12.4249 9.78858 12.4249 6.93934 14.1823 5.18198C15.9396 3.42462 18.7889 3.42462 20.5462 5.18198C22.3036 6.93934 22.3036 9.78858 20.5462 11.5459ZM14.1823 52.5459C15.9396 54.3033 18.7889 54.3033 20.5462 52.5459C22.3036 50.7886 22.3036 47.9393 20.5462 46.182C18.7889 44.4246 15.9396 44.4246 14.1823 46.182C12.4249 47.9393 12.4249 50.7886 14.1823 52.5459ZM52.5462 20.5459C50.7889 22.3033 47.9396 22.3033 46.1823 20.5459C44.4249 18.7886 44.4249 15.9393 46.1823 14.182C47.9396 12.4246 50.7889 12.4246 52.5462 14.182C54.3036 15.9393 54.3036 18.7886 52.5462 20.5459ZM46.1823 44.5459C47.9396 46.3033 50.7889 46.3033 52.5462 44.5459C54.3036 42.7886 54.3036 39.9393 52.5462 38.182C50.7889 36.4246 47.9396 36.4246 46.1823 38.182C44.4249 39.9393 44.4249 42.7886 46.1823 44.5459ZM11.5462 20.5459C9.78888 22.3033 6.93964 22.3033 5.18228 20.5459C3.42492 18.7886 3.42492 15.9393 5.18228 14.182C6.93964 12.4246 9.78888 12.4246 11.5462 14.182C13.3036 15.9393 13.3036 18.7886 11.5462 20.5459ZM5.18228 44.5459C6.93964 46.3033 9.78888 46.3033 11.5462 44.5459C13.3036 42.7886 13.3036 39.9393 11.5462 38.182C9.78888 36.4246 6.93964 36.4246 5.18228 38.182C3.42492 39.9393 3.42492 42.7886 5.18228 44.5459ZM34 53.5C34 55.9853 31.9853 58 29.5 58C27.0147 58 25 55.9853 25 53.5C25 51.0147 27.0147 49 29.5 49C31.9853 49 34 51.0147 34 53.5ZM0 29.5C0 31.9853 2.01472 34 4.5 34C6.98528 34 9 31.9853 9 29.5C9 27.0147 6.98528 25 4.5 25C2.01472 25 0 27.0147 0 29.5ZM33 20.5C33 22.433 31.433 24 29.5 24C27.567 24 26 22.433 26 20.5C26 18.567 27.567 17 29.5 17C31.433 17 33 18.567 33 20.5ZM20.5 33C22.433 33 24 31.433 24 29.5C24 27.567 22.433 26 20.5 26C18.567 26 17 27.567 17 29.5C17 31.433 18.567 33 20.5 33ZM41 29.5C41 31.433 39.433 33 37.5 33C35.567 33 34 31.433 34 29.5C34 27.567 35.567 26 37.5 26C39.433 26 41 27.567 41 29.5ZM29.5 41C31.433 41 33 39.433 33 37.5C33 35.567 31.433 34 29.5 34C27.567 34 26 35.567 26 37.5C26 39.433 27.567 41 29.5 41Z" fill="url(#paint0_linear)"/>
<defs>
<linearGradient id="paint0_linear" x1="0" y1="0" x2="62.214" y2="4.94113" gradientUnits="userSpaceOnUse">
<stop stop-color="#FF8212"/>
<stop offset="1" stop-color="#ED4454"/>
</linearGradient>
</defs>
</svg>
