<svg width="64" height="64" viewBox="0 0 64 64" fill="none" xmlns="http://www.w3.org/2000/svg">
<circle cx="32" cy="32" r="30.5" stroke="white" stroke-width="3"/>
<path d="M48.0001 39.4997H45.5V33.2497C45.5 32.5595 44.9402 31.9999 44.2499 31.9999H33.0002V24.5H35.4999C36.8751 24.5 38.0001 23.3749 38.0001 21.9999V14.4999C38.0001 13.1249 36.8751 12 35.4999 12H28C26.6249 12 25.5001 13.1249 25.5001 14.4999V22C25.5001 23.375 26.6249 24.5 28 24.5H30.4999V32H19.25C18.5597 32 17.9999 32.5596 17.9999 33.2497V39.4997H15.5001C14.125 39.4997 13 40.6248 13 41.9998V49.4998C13 50.8749 14.1249 52 15.5001 52H23C24.375 52 25.5001 50.8749 25.5001 49.4998V41.9998C25.5001 40.6248 24.375 39.4997 23 39.4997H20.5V34.4998H42.9998V39.4997H40.5001C39.1251 39.4997 38.0001 40.6248 38.0001 41.9998V49.4998C38.0001 50.8749 39.1251 52 40.5001 52H48C49.375 52 50.5001 50.8749 50.5001 49.4998V41.9998C50.5001 40.6248 49.3751 39.4997 48.0001 39.4997ZM28 14.4999H35.4998V22H28V14.4999ZM23 49.4997H15.5001V41.9998H23V49.4997ZM48.0001 49.4997H40.5001V41.9998H48V49.4997H48.0001Z" fill="white" stroke="white"/>
</svg>
