<svg width="100" height="100" viewBox="0 0 100 100" fill="none" xmlns="http://www.w3.org/2000/svg">
<path d="M10.601 27.1714L4.03434 33.4122L20.8 50.1293L4.03434 66.8873L10.601 73.1281L33.5742 49.9861L10.601 27.1714ZM73.2207 10.6078L66.8285 4.00892L49.8884 20.9L32.9381 4.00892L26.238 10.6078L49.9705 33.8726L73.2207 10.6078ZM26.8331 89.3439L33.2254 95.9428L49.8474 79.3587L66.4283 95.9428L72.7693 89.3439L49.755 66.3963L26.8331 89.3439ZM95.9682 33.4224L89.4015 27.1407L66.4283 49.9963L89.4015 73.1281L95.9682 66.8873L79.2026 50.1293L95.9682 33.4224Z" fill="url(#paint0_linear)"/>
<path fill-rule="evenodd" clip-rule="evenodd" d="M66.8632 0L77.1688 10.6386L49.9908 37.8336L22.2226 10.6125L32.9497 0.0474429L49.8878 16.9263L66.8632 0ZM30.2535 10.6031L49.9502 29.9117L69.2727 10.577L66.7937 8.01789L49.889 24.8737L32.9265 7.97045L30.2535 10.6031ZM89.363 23.2093L99.9965 33.3813L83.1866 50.1324L100 66.9382L89.3447 77.0647L62.45 49.9844L89.363 23.2093ZM10.6442 23.248L37.5539 49.9719L10.6583 77.0651L0.00256091 66.9382L16.8166 50.1318L0 33.3638L10.6442 23.248ZM89.4401 31.0723L70.4066 50.0083L89.4584 69.1916L91.9364 66.8365L75.2186 50.1263L91.9399 33.4636L89.4401 31.0723ZM8.06869 33.4606L24.7833 50.1269L8.06613 66.8365L10.5438 69.1912L29.5947 50.0003L10.5579 31.095L8.06869 33.4606ZM49.751 62.4181L76.7128 89.3018L66.4682 99.9631L49.8449 83.3367L33.1912 99.9524L22.8856 89.3137L49.751 62.4181ZM49.759 70.3746L30.7807 89.3742L33.2596 91.9333L49.8498 75.3808L66.3884 91.9225L68.8257 89.3861L49.759 70.3746Z" fill="url(#paint1_linear)"/>
<defs>
<linearGradient id="paint0_linear" x1="0" y1="0" x2="107.265" y2="8.52229" gradientUnits="userSpaceOnUse">
<stop stop-color="#FF8212"/>
<stop offset="1" stop-color="#ED4454"/>
</linearGradient>
<linearGradient id="paint1_linear" x1="0" y1="0" x2="107.265" y2="8.52229" gradientUnits="userSpaceOnUse">
<stop stop-color="#FF8212"/>
<stop offset="1" stop-color="#ED4454"/>
</linearGradient>
</defs>
</svg>
