<svg width="64" height="64" viewBox="0 0 64 64" fill="none" xmlns="http://www.w3.org/2000/svg">
<circle cx="32" cy="32" r="30.5" stroke="white" stroke-width="3"/>
<path d="M50 18.3714C50 15.8 44.8571 14 38.9429 14C33.0286 14 27.6286 15.8 27.6286 18.3714C27.6286 18.3714 27.6286 25.8286 27.6286 26.0857C26.8571 26.0857 25.8286 26.0857 25.0571 26.0857C19.1429 25.8286 14 27.6286 14 29.9429V46.1429C14 48.4571 19.1429 50 25.0571 50C31.2286 50 36.1143 48.4571 36.1143 46.4V44.8571C36.8857 44.8571 37.9143 44.8571 38.6857 44.8571C44.8571 44.8571 49.7429 43.3143 49.7429 41.2571V18.3714H50ZM34.0571 37.9143C33.5429 38.9429 30.4571 40.4857 25.3143 40.4857C20.1714 40.4857 16.8286 38.9429 16.5714 37.9143V33.8C18.6286 35.0857 21.9714 35.6 25.3143 35.6C28.6571 35.6 32 35.0857 34.0571 33.8V37.9143ZM25.0571 28.1429C30.2 28.1429 33.2857 29.6857 33.8 30.2V30.9714C33.2857 32 30.2 33.5429 25.0571 33.5429C19.9143 33.5429 16.5714 32 16.3143 30.9714V30.2C16.8286 29.4286 19.9143 28.1429 25.0571 28.1429ZM25.0571 47.6857C20.1714 47.6857 17.0857 46.6571 16.3143 45.8857V40.7429C18.3714 42.0286 21.7143 42.5429 25.0571 42.5429C28.4 42.5429 31.7429 42.0286 33.8 40.7429V45.8857C33.2857 46.6571 29.9429 47.6857 25.0571 47.6857ZM47.6857 40.7429C46.9143 41.5143 43.8286 42.5429 38.9429 42.5429C37.9143 42.5429 37.1429 42.5429 36.3714 42.5429V37.4C37.1429 37.4 38.1714 37.6571 38.9429 37.6571C42.2857 37.6571 45.6286 37.1429 47.6857 35.8571V40.7429ZM47.6857 32.5143C47.1714 33.5429 44.0857 35.0857 38.9429 35.0857C37.9143 35.0857 37.1429 35.0857 36.3714 34.8286V30.4571C37.1429 30.4571 38.1714 30.7143 38.9429 30.7143C42.2857 30.7143 45.6286 30.2 47.6857 28.9143V32.5143ZM47.6857 25.8286C47.1714 26.8571 44.0857 28.4 38.9429 28.4C37.4 28.4 36.1143 28.4 35.0857 28.1429C34.0571 27.3714 32.5143 26.8571 30.4571 26.3429C30.2 26.0857 30.2 26.0857 29.9429 25.8286V22.2286C32 23.5143 35.3429 24.0286 38.6857 24.0286C42.0286 24.0286 45.3714 23.5143 47.4286 22.2286V25.8286H47.6857ZM47.6857 19.1429C47.1714 20.1714 44.0857 21.7143 38.9429 21.7143C33.8 21.7143 30.4571 20.1714 30.2 19.1429V18.3714C30.7143 17.6 33.8 16.3143 38.9429 16.3143C44.0857 16.3143 47.1714 17.8571 47.6857 18.3714V19.1429Z" fill="white" stroke="white" stroke-width="0.5"/>
</svg>
