<svg width="100" height="102" viewBox="0 0 100 102" fill="none" xmlns="http://www.w3.org/2000/svg">
<path fill-rule="evenodd" clip-rule="evenodd" d="M99.9983 42.2566H85.0692C84.6299 40.4338 84.0482 38.6438 83.3273 36.9035C81.5144 32.5268 78.8572 28.55 75.5074 25.2002C72.1576 21.8504 68.1809 19.1932 63.8041 17.3803C59.4274 15.5674 54.7365 14.6343 49.9992 14.6343C45.2619 14.6343 40.571 15.5674 36.1942 17.3803C31.8175 19.1932 27.8408 21.8504 24.491 25.2002C22.616 27.0751 20.9581 29.1465 19.5437 31.3745L30.4256 42.2564H14.9292C14.9292 42.2565 14.9292 42.2566 14.9292 42.2566H8.73872e-05C0.63384 38.5075 1.68877 34.8326 3.15073 31.3032C5.69906 25.1509 9.43422 19.5609 14.1429 14.8522C18.8516 10.1434 24.4417 6.40829 30.5939 3.85995C36.7462 1.31161 43.3401 0 49.9992 0C56.6583 0 63.2522 1.31161 69.4045 3.85995C75.5567 6.40828 81.1468 10.1434 85.8555 14.8522C90.5642 19.5609 94.2993 25.1509 96.8477 31.3031C98.3096 34.8326 99.3646 38.5075 99.9983 42.2566Z" fill="url(#paint0_linear)"/>
<path fill-rule="evenodd" clip-rule="evenodd" d="M0.00177371 59.1594L14.9309 59.1594C15.3702 60.9822 15.9519 62.7722 16.6728 64.5125C18.4857 68.8892 21.1429 72.866 24.4927 76.2158C27.8424 79.5656 31.8192 82.2228 36.1959 84.0357C40.5726 85.8486 45.2636 86.7817 50.0009 86.7817C54.7382 86.7817 59.4291 85.8486 63.8058 84.0357C68.1826 82.2228 72.1593 79.5656 75.5091 76.2158C77.3841 74.3409 79.042 72.2695 80.4564 70.0415L69.5745 59.1596L85.0709 59.1596C85.0709 59.1595 85.0709 59.1594 85.0709 59.1594L100 59.1594C99.3663 62.9085 98.3113 66.5834 96.8494 70.1129C94.301 76.2651 90.5659 81.8551 85.8572 86.5639C81.1484 91.2726 75.5584 95.0077 69.4062 97.5561C63.2539 100.104 56.66 101.416 50.0009 101.416C43.3418 101.416 36.7478 100.104 30.5956 97.5561C24.4434 95.0077 18.8533 91.2726 14.1446 86.5639C9.4359 81.8551 5.70075 76.2651 3.15242 70.1129C1.69046 66.5834 0.635524 62.9085 0.00177371 59.1594Z" fill="url(#paint1_linear)"/>
<defs>
<linearGradient id="paint0_linear" x1="0" y1="0" x2="90.6838" y2="57.0598" gradientUnits="userSpaceOnUse">
<stop offset="0.197917" stop-color="#ED4454"/>
<stop offset="1" stop-color="#FB822A"/>
</linearGradient>
<linearGradient id="paint1_linear" x1="100" y1="101.416" x2="9.31617" y2="44.3562" gradientUnits="userSpaceOnUse">
<stop offset="0.197917" stop-color="#ED4454"/>
<stop offset="1" stop-color="#FB822A"/>
</linearGradient>
</defs>
</svg>