<svg width="64" height="64" viewBox="0 0 64 64" fill="none" xmlns="http://www.w3.org/2000/svg">
<circle cx="32" cy="32" r="30.5" stroke="white" stroke-width="3"/>
<rect x="12.1641" y="19.2778" width="39.6667" height="25.6776" rx="6.5" stroke="white" stroke-width="3"/>
<mask id="path-3-inside-1" fill="white">
<path d="M33.9938 37.9915C32.8318 39.0782 31.3738 39.7959 29.8039 40.0539C28.2341 40.3119 26.623 40.0986 25.1744 39.441C23.7258 38.7834 22.5047 37.7109 21.6656 36.3593C20.8265 35.0077 20.407 33.4376 20.4602 31.8476C20.5134 30.2576 21.0369 28.7191 21.9645 27.4266C22.8921 26.1342 24.1821 25.1458 25.6715 24.5865C27.1608 24.0271 28.7826 23.922 30.3316 24.2844C31.8807 24.6468 33.2875 25.4604 34.3742 26.6223L32.362 28.5043C31.6475 27.7403 30.7225 27.2054 29.7041 26.9671C28.6856 26.7289 27.6193 26.798 26.6401 27.1657C25.6609 27.5335 24.8127 28.1833 24.2029 29.0331C23.593 29.8829 23.2488 30.8944 23.2138 31.9398C23.1788 32.9852 23.4546 34.0175 24.0063 34.9061C24.558 35.7948 25.3608 36.4999 26.3133 36.9322C27.2657 37.3646 28.325 37.5049 29.3571 37.3352C30.3892 37.1656 31.3479 36.6937 32.1118 35.9792L33.9938 37.9915Z"/>
</mask>
<path d="M33.9938 37.9915C32.8318 39.0782 31.3738 39.7959 29.8039 40.0539C28.2341 40.3119 26.623 40.0986 25.1744 39.441C23.7258 38.7834 22.5047 37.7109 21.6656 36.3593C20.8265 35.0077 20.407 33.4376 20.4602 31.8476C20.5134 30.2576 21.0369 28.7191 21.9645 27.4266C22.8921 26.1342 24.1821 25.1458 25.6715 24.5865C27.1608 24.0271 28.7826 23.922 30.3316 24.2844C31.8807 24.6468 33.2875 25.4604 34.3742 26.6223L32.362 28.5043C31.6475 27.7403 30.7225 27.2054 29.7041 26.9671C28.6856 26.7289 27.6193 26.798 26.6401 27.1657C25.6609 27.5335 24.8127 28.1833 24.2029 29.0331C23.593 29.8829 23.2488 30.8944 23.2138 31.9398C23.1788 32.9852 23.4546 34.0175 24.0063 34.9061C24.558 35.7948 25.3608 36.4999 26.3133 36.9322C27.2657 37.3646 28.325 37.5049 29.3571 37.3352C30.3892 37.1656 31.3479 36.6937 32.1118 35.9792L33.9938 37.9915Z" stroke="white" stroke-width="8" mask="url(#path-3-inside-1)"/>
<mask id="path-4-inside-2" fill="white">
<path d="M45.9848 35.3427C45.2384 37.0474 43.924 38.4406 42.2656 39.2848C40.6072 40.1291 38.7073 40.3722 36.8897 39.9727C35.0722 39.5732 33.4493 38.5558 32.2978 37.094C31.1462 35.6321 30.5371 33.8162 30.5743 31.9556C30.6115 30.095 31.2927 28.3049 32.5019 26.8903C33.711 25.4756 35.3732 24.524 37.2053 24.1975C39.0374 23.871 40.926 24.1899 42.5493 25.0998C44.1727 26.0097 45.4303 27.4543 46.1079 29.1875L43.5419 30.1907C43.0964 29.0512 42.2695 28.1014 41.2022 27.5032C40.1349 26.9049 38.8932 26.6953 37.6886 26.9099C36.4841 27.1246 35.3912 27.7503 34.5962 28.6804C33.8013 29.6104 33.3534 30.7874 33.3289 32.0107C33.3045 33.234 33.7049 34.4279 34.462 35.3891C35.2192 36.3502 36.2862 37.0191 37.4812 37.2817C38.6762 37.5444 39.9253 37.3846 41.0157 36.8295C42.1061 36.2744 42.9702 35.3584 43.461 34.2376L45.9848 35.3427Z"/>
</mask>
<path d="M45.9848 35.3427C45.2384 37.0474 43.924 38.4406 42.2656 39.2848C40.6072 40.1291 38.7073 40.3722 36.8897 39.9727C35.0722 39.5732 33.4493 38.5558 32.2978 37.094C31.1462 35.6321 30.5371 33.8162 30.5743 31.9556C30.6115 30.095 31.2927 28.3049 32.5019 26.8903C33.711 25.4756 35.3732 24.524 37.2053 24.1975C39.0374 23.871 40.926 24.1899 42.5493 25.0998C44.1727 26.0097 45.4303 27.4543 46.1079 29.1875L43.5419 30.1907C43.0964 29.0512 42.2695 28.1014 41.2022 27.5032C40.1349 26.9049 38.8932 26.6953 37.6886 26.9099C36.4841 27.1246 35.3912 27.7503 34.5962 28.6804C33.8013 29.6104 33.3534 30.7874 33.3289 32.0107C33.3045 33.234 33.7049 34.4279 34.462 35.3891C35.2192 36.3502 36.2862 37.0191 37.4812 37.2817C38.6762 37.5444 39.9253 37.3846 41.0157 36.8295C42.1061 36.2744 42.9702 35.3584 43.461 34.2376L45.9848 35.3427Z" stroke="white" stroke-width="8" mask="url(#path-4-inside-2)"/>
</svg>
