<svg width="56" height="62" viewBox="0 0 56 62" fill="none" xmlns="http://www.w3.org/2000/svg">
<path fill-rule="evenodd" clip-rule="evenodd" d="M27.5 9C29.9853 9 32 6.98528 32 4.5C32 2.01472 29.9853 0 27.5 0C25.0147 0 23 2.01472 23 4.5C23 6.98528 25.0147 9 27.5 9ZM4.5 22C6.98528 22 9 19.9853 9 17.5C9 15.0147 6.98528 13 4.5 13C2.01472 13 0 15.0147 0 17.5C0 19.9853 2.01472 22 4.5 22ZM56 17.5C56 19.9853 53.9853 22 51.5 22C49.0147 22 47 19.9853 47 17.5C47 15.0147 49.0147 13 51.5 13C53.9853 13 56 15.0147 56 17.5ZM39.5 15C41.9853 15 44 12.9853 44 10.5C44 8.01472 41.9853 6 39.5 6C37.0147 6 35 8.01472 35 10.5C35 12.9853 37.0147 15 39.5 15ZM56 31.5C56 33.9853 53.9853 36 51.5 36C49.0147 36 47 33.9853 47 31.5C47 29.0147 49.0147 27 51.5 27C53.9853 27 56 29.0147 56 31.5ZM4.5 36C6.98528 36 9 33.9853 9 31.5C9 29.0147 6.98528 27 4.5 27C2.01472 27 0 29.0147 0 31.5C0 33.9853 2.01472 36 4.5 36ZM44 51.5C44 53.9853 41.9853 56 39.5 56C37.0147 56 35 53.9853 35 51.5C35 49.0147 37.0147 47 39.5 47C41.9853 47 44 49.0147 44 51.5ZM15.5 15C17.9853 15 20 12.9853 20 10.5C20 8.01472 17.9853 6 15.5 6C13.0147 6 11 8.01472 11 10.5C11 12.9853 13.0147 15 15.5 15ZM20 51.5C20 53.9853 17.9853 56 15.5 56C13.0147 56 11 53.9853 11 51.5C11 49.0147 13.0147 47 15.5 47C17.9853 47 20 49.0147 20 51.5ZM4.5 49C6.98528 49 9 46.9853 9 44.5C9 42.0147 6.98528 40 4.5 40C2.01472 40 0 42.0147 0 44.5C0 46.9853 2.01472 49 4.5 49ZM56 44.5C56 46.9853 53.9853 49 51.5 49C49.0147 49 47 46.9853 47 44.5C47 42.0147 49.0147 40 51.5 40C53.9853 40 56 42.0147 56 44.5ZM27.5 62C29.9853 62 32 59.9853 32 57.5C32 55.0147 29.9853 53 27.5 53C25.0147 53 23 55.0147 23 57.5C23 59.9853 25.0147 62 27.5 62ZM44 24.5C44 26.433 42.433 28 40.5 28C38.567 28 37 26.433 37 24.5C37 22.567 38.567 21 40.5 21C42.433 21 44 22.567 44 24.5ZM33.5 32C35.433 32 37 30.433 37 28.5C37 26.567 35.433 25 33.5 25C31.567 25 30 26.567 30 28.5C30 30.433 31.567 32 33.5 32ZM18 24.5C18 26.433 16.433 28 14.5 28C12.567 28 11 26.433 11 24.5C11 22.567 12.567 21 14.5 21C16.433 21 18 22.567 18 24.5ZM21.5 32C23.433 32 25 30.433 25 28.5C25 26.567 23.433 25 21.5 25C19.567 25 18 26.567 18 28.5C18 30.433 19.567 32 21.5 32ZM31 36.5C31 38.433 29.433 40 27.5 40C25.567 40 24 38.433 24 36.5C24 34.567 25.567 33 27.5 33C29.433 33 31 34.567 31 36.5ZM27.5 48C29.433 48 31 46.433 31 44.5C31 42.567 29.433 41 27.5 41C25.567 41 24 42.567 24 44.5C24 46.433 25.567 48 27.5 48Z" fill="url(#paint0_linear)"/>
<defs>
<linearGradient id="paint0_linear" x1="0" y1="0" x2="60.1381" y2="4.31404" gradientUnits="userSpaceOnUse">
<stop stop-color="#FF8212"/>
<stop offset="1" stop-color="#ED4454"/>
</linearGradient>
</defs>
</svg>