<svg width="133" height="46" viewBox="0 0 133 46" fill="none" xmlns="http://www.w3.org/2000/svg">
<path d="M64.517 20.9091C64.2045 17.3011 61.5625 15.2557 57.8977 15.2557C53.9773 15.2557 50.8807 17.8693 50.8807 22.7273C50.8807 27.5639 53.892 30.1989 57.8977 30.1989C62.1591 30.1989 64.3182 27.2443 64.517 24.7727L60.5114 24.7443C60.3125 25.9872 59.4318 26.7614 57.983 26.7614C56.0582 26.7614 54.9432 25.3977 54.9432 22.7273C54.9432 20.1989 56.0227 18.6932 58.0114 18.6932C59.5312 18.6932 60.3977 19.5881 60.5114 20.9091H64.517ZM66.3086 30H76.1381V26.8182H70.2575V15.4545H66.3086V30ZM91.2589 22.7273C91.2589 17.8693 88.1339 15.2557 84.185 15.2557C80.2077 15.2557 77.1112 17.8693 77.1112 22.7273C77.1112 27.5568 80.2077 30.1989 84.185 30.1989C88.1339 30.1989 91.2589 27.5852 91.2589 22.7273ZM87.1964 22.7273C87.1964 25.3409 86.1452 26.7614 84.185 26.7614C82.2248 26.7614 81.1737 25.3409 81.1737 22.7273C81.1737 20.1136 82.2248 18.6932 84.185 18.6932C86.1452 18.6932 87.1964 20.1136 87.1964 22.7273ZM96.1452 15.4545H91.685L96.4862 30H101.884L106.685 15.4545H102.225L99.2418 25.7102H99.1282L96.1452 15.4545ZM108.086 30H118.54V26.8182H112.035V24.3182H118.029V21.1364H112.035V18.6364H118.569V15.4545H108.086V30ZM120.527 30H124.476V25.1989H125.84L128.397 30H132.686L129.732 24.5739C131.28 23.8281 132.203 22.4148 132.203 20.3977C132.203 17.3011 130.037 15.4545 126.806 15.4545H120.527V30ZM124.476 22.1307V18.608H125.868C127.253 18.608 128.084 19.1477 128.084 20.3977C128.084 21.6406 127.253 22.1307 125.868 22.1307H124.476Z" fill="white"/>
<path fill-rule="evenodd" clip-rule="evenodd" d="M20 35.7926C22.66 35.7926 24.6847 33.6993 24.6847 31.2881H31.8919C31.8919 37.8282 26.4903 42.9998 20 42.9998V35.7926Z" fill="#FB822A"/>
<path fill-rule="evenodd" clip-rule="evenodd" d="M32.7926 23.1805C32.7926 20.695 30.7735 18.676 28.2881 18.676V11.4688C34.754 11.4688 39.9998 16.7146 39.9998 23.1805H32.7926Z" fill="url(#paint0_linear)"/>
<path fill-rule="evenodd" clip-rule="evenodd" d="M7.20721 23C7.20721 25.5849 9.30697 27.6847 11.8919 27.6847V34.8919C5.32654 34.8919 0 29.5654 0 23H7.20721Z" fill="url(#paint1_linear)"/>
<path fill-rule="evenodd" clip-rule="evenodd" d="M20.1805 10.2072C17.7693 10.2072 15.676 12.2319 15.676 14.8919H8.46875C8.46875 8.40162 13.6403 3 20.1805 3V10.2072Z" fill="url(#paint2_linear)"/>
<path fill-rule="evenodd" clip-rule="evenodd" d="M24.6845 14.8018C24.6845 12.2666 22.6251 10.2072 20.0899 10.2072V3C26.6055 3 31.8917 8.28618 31.8917 14.8018C31.8917 21.3174 26.6055 26.6036 20.0899 26.6036C17.5547 26.6036 15.4953 28.663 15.4953 31.1982C15.4953 33.7334 17.5547 35.7928 20.0899 35.7928V43C13.5743 43 8.28809 37.7138 8.28809 31.1982C8.28809 24.6826 13.5743 19.3964 20.0899 19.3964C22.6251 19.3964 24.6845 17.337 24.6845 14.8018Z" fill="url(#paint3_linear)"/>
<path fill-rule="evenodd" clip-rule="evenodd" d="M11.8018 18.4953C9.26661 18.4953 7.20721 20.5547 7.20721 23.0899H0C0 16.5743 5.28618 11.2881 11.8018 11.2881C18.3174 11.2881 23.6036 16.5743 23.6036 23.0899C23.6036 25.6251 25.663 27.6845 28.1982 27.6845C30.7334 27.6845 32.7928 25.6251 32.7928 23.0899H40C40 29.6055 34.7138 34.8917 28.1982 34.8917C21.6826 34.8917 16.3964 29.6055 16.3964 23.0899C16.3964 20.5547 14.337 18.4953 11.8018 18.4953Z" fill="url(#paint4_linear)"/>
<defs>
<linearGradient id="paint0_linear" x1="32.3421" y1="15.0724" x2="32.3421" y2="23.1805" gradientUnits="userSpaceOnUse">
<stop stop-color="#E11B7B"/>
<stop offset="1" stop-color="#EE4455"/>
</linearGradient>
<linearGradient id="paint1_linear" x1="7.74775" y1="23" x2="7.74775" y2="31.2883" gradientUnits="userSpaceOnUse">
<stop stop-color="#FB822A"/>
<stop offset="1" stop-color="#FB822A"/>
</linearGradient>
<linearGradient id="paint2_linear" x1="10.6309" y1="13" x2="20.1805" y2="7.77477" gradientUnits="userSpaceOnUse">
<stop stop-color="#E11B7B"/>
<stop offset="1" stop-color="#EF4A4E"/>
</linearGradient>
<linearGradient id="paint3_linear" x1="20.18" y1="6.60361" x2="34.0359" y2="14.2333" gradientUnits="userSpaceOnUse">
<stop stop-color="#ED4454"/>
<stop offset="1" stop-color="#FF8212"/>
</linearGradient>
<linearGradient id="paint4_linear" x1="0" y1="11.2881" x2="42.4086" y2="16.996" gradientUnits="userSpaceOnUse">
<stop stop-color="#FF8212"/>
<stop offset="1" stop-color="#ED4454"/>
</linearGradient>
</defs>
</svg>