<svg width="24" height="24" viewBox="0 0 24 24" fill="none" xmlns="http://www.w3.org/2000/svg">
<path d="M4.33482 6.9804C4.33264 6.06582 4.5173 5.15978 4.87827 4.31401C5.23924 3.46825 5.76944 2.69932 6.43861 2.05113C7.10777 1.40294 7.90279 0.888183 8.77828 0.536249C9.65376 0.184316 10.5926 0.00209792 11.5411 0C15.522 0 18.7474 3.1259 18.7474 6.9804C18.7487 8.21959 18.408 9.4368 17.7602 10.5071C17.1124 11.5773 16.1809 12.4621 15.0613 13.0705C14.6928 14.0933 14.0034 14.9802 13.0886 15.6081C12.1738 16.2361 11.079 16.574 9.95607 16.5749H6.39533V14.1332H9.95976C11.5521 14.1332 12.8423 12.8839 12.8423 11.3414V11.1672H2.56366L2.52311 20.831H18.5557C20.1462 20.831 21.4382 19.5799 21.4382 18.0392L21.4769 14.6556H17.4535V12.2139H24L23.9595 18.0392C23.9619 19.4239 23.3941 20.753 22.3809 21.7343C21.3676 22.7156 19.9918 23.269 18.5557 23.2727H0L0.0405467 8.72372H4.56151C4.41052 8.15406 4.33436 7.56836 4.33482 6.9804ZM7.21548 8.72372H15.3617V9.60338C15.9054 8.86233 16.2261 7.95779 16.2261 6.9804C16.2275 6.38585 16.1075 5.79686 15.8728 5.24706C15.6381 4.69726 15.2934 4.19742 14.8583 3.77611C14.4233 3.35479 13.9064 3.02025 13.3372 2.7916C12.768 2.56295 12.1577 2.44466 11.5411 2.44349C10.9245 2.44466 10.3141 2.56295 9.74496 2.7916C9.17578 3.02025 8.65889 3.35479 8.22382 3.77611C7.78875 4.19742 7.44404 4.69726 7.20936 5.24706C6.97468 5.79686 6.85464 6.38585 6.85609 6.9804C6.85609 7.59705 6.9851 8.18882 7.21548 8.72372Z" fill="url(#paint0_linear)"/>
<defs>
<linearGradient id="paint0_linear" x1="0" y1="0" x2="25.7335" y2="2.10766" gradientUnits="userSpaceOnUse">
<stop stop-color="#FF8212"/>
<stop offset="1" stop-color="#ED4454"/>
</linearGradient>
</defs>
</svg>