<svg width="302" height="184" viewBox="0 0 302 184" fill="none" xmlns="http://www.w3.org/2000/svg">
<path d="M24.3335 117.984C23.6048 111.938 19.0281 108.46 12.9684 108.46C6.0522 108.46 0.772372 113.344 0.772372 121.909C0.772372 130.449 5.96271 135.358 12.9684 135.358C19.68 135.358 23.7326 130.896 24.3335 126.077L18.734 126.051C18.2099 128.851 16.011 130.462 13.0579 130.462C9.08203 130.462 6.38459 127.509 6.38459 121.909C6.38459 116.463 9.04368 113.357 13.0962 113.357C16.1261 113.357 18.3121 115.108 18.734 117.984H24.3335ZM33.6467 108.818H28.2006V135H33.6467V108.818ZM46.8814 135.384C52.8388 135.384 56.5462 131.305 56.5462 125.259C56.5462 119.173 52.8388 115.108 46.8814 115.108C40.924 115.108 37.2166 119.173 37.2166 125.259C37.2166 131.305 40.924 135.384 46.8814 135.384ZM46.907 131.165C44.1584 131.165 42.7521 128.646 42.7521 125.22C42.7521 121.794 44.1584 119.263 46.907 119.263C49.6044 119.263 51.0107 121.794 51.0107 125.22C51.0107 128.646 49.6044 131.165 46.907 131.165ZM77.7262 115.364H71.9606L67.8952 129.413H67.6907L63.6126 115.364H57.8597L64.7248 135H70.8612L77.7262 115.364ZM88.794 135.384C93.652 135.384 96.9247 133.018 97.6918 129.375L92.6548 129.043C92.1051 130.538 90.6989 131.318 88.8835 131.318C86.1605 131.318 84.4347 129.516 84.4347 126.588V126.575H97.8068V125.08C97.8068 118.406 93.767 115.108 88.5767 115.108C82.7983 115.108 79.0526 119.212 79.0526 125.271C79.0526 131.497 82.7472 135.384 88.794 135.384ZM84.4347 123.2C84.5497 120.963 86.25 119.173 88.6662 119.173C91.0312 119.173 92.6676 120.861 92.6804 123.2H84.4347ZM101.361 135H106.807V123.891C106.807 121.474 108.571 119.812 110.974 119.812C111.729 119.812 112.764 119.94 113.276 120.107V115.274C112.79 115.159 112.112 115.082 111.562 115.082C109.364 115.082 107.561 116.361 106.845 118.79H106.641V115.364H101.361V135ZM148.585 121.909C148.585 113.344 143.267 108.46 136.325 108.46C129.345 108.46 124.065 113.344 124.065 121.909C124.065 130.436 129.345 135.358 136.325 135.358C143.267 135.358 148.585 130.474 148.585 121.909ZM142.973 121.909C142.973 127.457 140.339 130.462 136.325 130.462C132.298 130.462 129.678 127.457 129.678 121.909C129.678 116.361 132.298 113.357 136.325 113.357C140.339 113.357 142.973 116.361 142.973 121.909ZM166.889 116.348H172.194C172.118 111.682 168.282 108.46 162.453 108.46C156.713 108.46 152.507 111.631 152.532 116.386C152.52 120.247 155.243 122.459 159.666 123.52L162.517 124.236C165.368 124.926 166.953 125.744 166.966 127.509C166.953 129.426 165.137 130.73 162.325 130.73C159.449 130.73 157.377 129.401 157.199 126.78H151.842C151.983 132.443 156.035 135.371 162.389 135.371C168.781 135.371 172.539 132.315 172.552 127.521C172.539 123.162 169.254 120.848 164.703 119.825L162.35 119.263C160.075 118.739 158.17 117.895 158.208 116.016C158.208 114.328 159.704 113.088 162.414 113.088C165.061 113.088 166.684 114.29 166.889 116.348ZM7.59588 179H13.1314V168.185H23.7805V163.621H13.1314V157.382H24.9311V152.818H7.59588V179ZM28.2358 179H33.6818V167.891C33.6818 165.474 35.446 163.812 37.8494 163.812C38.6037 163.812 39.6392 163.94 40.1506 164.107V159.274C39.6648 159.159 38.9872 159.082 38.4375 159.082C36.2386 159.082 34.4361 160.361 33.7202 162.79H33.5156V159.364H28.2358V179ZM50.9244 179.384C56.8817 179.384 60.5891 175.305 60.5891 169.259C60.5891 163.173 56.8817 159.108 50.9244 159.108C44.967 159.108 41.2596 163.173 41.2596 169.259C41.2596 175.305 44.967 179.384 50.9244 179.384ZM50.9499 175.165C48.2013 175.165 46.7951 172.646 46.7951 169.22C46.7951 165.794 48.2013 163.263 50.9499 163.263C53.6474 163.263 55.0536 165.794 55.0536 169.22C55.0536 172.646 53.6474 175.165 50.9499 175.165ZM69.5763 167.648C69.5891 165.116 71.0977 163.634 73.2965 163.634C75.4826 163.634 76.7994 165.065 76.7866 167.469V179H82.2326V166.497C82.2326 161.92 79.5479 159.108 75.457 159.108C72.5423 159.108 70.4329 160.54 69.5508 162.828H69.3207V159.364H64.1303V179H69.5763V167.648ZM96.9695 159.364H93.2749V154.659H87.8288V159.364H85.1442V163.455H87.8288V173.682C87.8033 177.53 90.424 179.435 94.3743 179.268C95.7805 179.217 96.7777 178.936 97.3274 178.757L96.4709 174.705C96.2024 174.756 95.6271 174.884 95.1158 174.884C94.0291 174.884 93.2749 174.474 93.2749 172.966V163.455H96.9695V159.364ZM108.951 179H126.645V174.436H114.487V168.185H125.686V163.621H114.487V157.382H126.593V152.818H108.951V179ZM136.338 167.648C136.351 165.116 137.859 163.634 140.058 163.634C142.244 163.634 143.561 165.065 143.548 167.469V179H148.994V166.497C148.994 161.92 146.31 159.108 142.219 159.108C139.304 159.108 137.195 160.54 136.312 162.828H136.082V159.364H130.892V179H136.338V167.648ZM160.522 179.32C163.693 179.32 165.342 177.491 166.096 175.855H166.326V179H171.696V152.818H166.262V162.662H166.096C165.368 161.064 163.795 159.108 160.51 159.108C156.201 159.108 152.558 162.457 152.558 169.207C152.558 175.778 156.048 179.32 160.522 179.32ZM162.248 174.986C159.576 174.986 158.119 172.608 158.119 169.182C158.119 165.781 159.551 163.442 162.248 163.442C164.895 163.442 166.377 165.679 166.377 169.182C166.377 172.685 164.869 174.986 162.248 174.986Z" fill="black"/>
<path d="M118 8.27e-07C142.163 -1.28542e-06 166.09 4.75932 188.414 14.0062C210.738 23.253 231.022 36.8064 248.108 53.8924C265.194 70.9783 278.747 91.2623 287.994 113.586C297.241 135.91 302 159.837 302 184L228.428 184C228.428 169.498 225.572 155.139 220.022 141.741C214.473 128.343 206.338 116.17 196.084 105.916C185.83 95.6615 173.657 87.5275 160.259 81.9779C146.861 76.4284 132.502 73.5721 118 73.5721L118 8.27e-07Z" fill="url(#paint0_linear)"/>
<defs>
<linearGradient id="paint0_linear" x1="302" y1="184" x2="104.631" y2="168.325" gradientUnits="userSpaceOnUse">
<stop stop-color="#FF8212"/>
<stop offset="1" stop-color="#ED4454"/>
</linearGradient>
</defs>
</svg>
