<svg width="404" height="184" viewBox="0 0 404 184" fill="none" xmlns="http://www.w3.org/2000/svg">
<path d="M10.3084 127.741C19.1685 127.741 24.5357 122.26 24.5357 113.173C24.5357 104.114 19.1685 98.6613 10.3936 98.6613H0V127.741H10.3084ZM6.14812 122.473V103.929H10.067C15.5194 103.929 18.4018 106.712 18.4018 113.173C18.4018 119.661 15.5194 122.473 10.0528 122.473H6.14812Z" fill="black"/>
<path d="M38.9156 128.167C44.3112 128.167 47.9461 125.54 48.798 121.493L43.2037 121.124C42.5931 122.785 41.0312 123.651 39.015 123.651C35.9906 123.651 34.0738 121.649 34.0738 118.398V118.384H48.9258V116.722C48.9258 109.31 44.439 105.647 38.6742 105.647C32.2563 105.647 28.0961 110.205 28.0961 116.935C28.0961 123.85 32.1995 128.167 38.9156 128.167ZM34.0738 114.635C34.2016 112.15 36.09 110.162 38.7736 110.162C41.4004 110.162 43.2179 112.037 43.2321 114.635H34.0738Z" fill="black"/>
<path d="M62.7271 128.167C68.5345 128.167 72.1836 124.759 72.4676 119.747H66.7596C66.4047 122.075 64.8712 123.382 62.7981 123.382C59.9726 123.382 58.1409 121.01 58.1409 116.836C58.1409 112.718 59.9868 110.361 62.7981 110.361C65.0132 110.361 66.4331 111.824 66.7596 113.996H72.4676C72.212 108.955 68.3925 105.647 62.6987 105.647C56.0821 105.647 51.9928 110.233 51.9928 116.921C51.9928 123.552 56.0111 128.167 62.7271 128.167Z" fill="black"/>
<path d="M86.2796 128.167C91.6751 128.167 95.3101 125.54 96.162 121.493L90.5676 121.124C89.9571 122.785 88.3952 123.651 86.379 123.651C83.3546 123.651 81.4377 121.649 81.4377 118.398V118.384H96.2898V116.722C96.2898 109.31 91.8029 105.647 86.0382 105.647C79.6203 105.647 75.46 110.205 75.46 116.935C75.46 123.85 79.5635 128.167 86.2796 128.167ZM81.4377 114.635C81.5655 112.15 83.454 110.162 86.1376 110.162C88.7644 110.162 90.5818 112.037 90.596 114.635H81.4377Z" fill="black"/>
<path d="M106.286 115.132C106.3 112.321 107.975 110.674 110.418 110.674C112.846 110.674 114.308 112.264 114.294 114.933V127.741H120.343V113.854C120.343 108.771 117.361 105.647 112.817 105.647C109.58 105.647 107.237 107.237 106.257 109.779H106.002V105.931H100.237V127.741H106.286V115.132Z" fill="black"/>
<path d="M136.71 105.931H132.607V100.706H126.558V105.931H123.576V110.475H126.558V121.834C126.53 126.108 129.441 128.223 133.828 128.039C135.39 127.982 136.497 127.67 137.108 127.471L136.157 122.97C135.859 123.027 135.22 123.169 134.652 123.169C133.445 123.169 132.607 122.714 132.607 121.039V110.475H136.71V105.931Z" fill="black"/>
<path d="M140.651 127.741H146.699V115.402C146.699 112.718 148.659 110.872 151.328 110.872C152.166 110.872 153.316 111.014 153.884 111.199V105.832C153.344 105.704 152.592 105.619 151.981 105.619C149.539 105.619 147.537 107.039 146.742 109.736H146.515V105.931H140.651V127.741Z" fill="black"/>
<path d="M162.606 128.152C165.829 128.152 167.916 126.747 168.981 124.716H169.151V127.741H174.888V113.031C174.888 107.834 170.486 105.647 165.63 105.647C160.405 105.647 156.969 108.146 156.131 112.122L161.725 112.576C162.137 111.128 163.429 110.063 165.602 110.063C167.661 110.063 168.839 111.099 168.839 112.889V112.974C168.839 114.379 167.348 114.564 163.557 114.933C159.241 115.331 155.364 116.779 155.364 121.649C155.364 125.966 158.445 128.152 162.606 128.152ZM164.338 123.978C162.478 123.978 161.143 123.112 161.143 121.45C161.143 119.747 162.549 118.909 164.679 118.611C165.999 118.426 168.157 118.114 168.882 117.631V119.945C168.882 122.231 166.993 123.978 164.338 123.978Z" fill="black"/>
<path d="M185.629 98.6613H179.58V127.741H185.629V98.6613Z" fill="black"/>
<path d="M190.475 127.741H196.523V105.931H190.475V127.741ZM193.513 103.12C195.316 103.12 196.793 101.742 196.793 100.053C196.793 98.3773 195.316 97 193.513 97C191.724 97 190.247 98.3773 190.247 100.053C190.247 101.742 191.724 103.12 193.513 103.12Z" fill="black"/>
<path d="M201.255 127.741H219.586V122.913H209.192V122.757L219.217 109.864V105.931H201.624V110.759H211.933V110.915L201.255 124.134V127.741Z" fill="black"/>
<path d="M233.526 128.167C238.921 128.167 242.556 125.54 243.408 121.493L237.814 121.124C237.203 122.785 235.641 123.651 233.625 123.651C230.601 123.651 228.684 121.649 228.684 118.398V118.384H243.536V116.722C243.536 109.31 239.049 105.647 233.284 105.647C226.866 105.647 222.706 110.205 222.706 116.935C222.706 123.85 226.81 128.167 233.526 128.167ZM228.684 114.635C228.812 112.15 230.7 110.162 233.384 110.162C236.01 110.162 237.828 112.037 237.842 114.635H228.684Z" fill="black"/>
<path d="M255.52 128.096C259.041 128.096 260.873 126.065 261.71 124.248H261.966V127.741H267.93V98.6613H261.895V109.594H261.71C260.901 107.82 259.155 105.647 255.505 105.647C250.72 105.647 246.674 109.367 246.674 116.864C246.674 124.162 250.55 128.096 255.52 128.096ZM257.437 123.282C254.469 123.282 252.85 120.641 252.85 116.836C252.85 113.059 254.441 110.461 257.437 110.461C260.376 110.461 262.023 112.945 262.023 116.836C262.023 120.726 260.347 123.282 257.437 123.282Z" fill="black"/>
<path d="M0 146.642V175.721H5.96353V156.723H6.20492L13.7303 175.579H17.7912L25.3166 156.794H25.558V175.721H31.5215V146.642H23.9393L15.9312 166.18H15.5904L7.58221 146.642H0Z" fill="black"/>
<path d="M46.3274 176.147C52.9441 176.147 57.0618 171.618 57.0618 164.902C57.0618 158.143 52.9441 153.628 46.3274 153.628C39.7108 153.628 35.5931 158.143 35.5931 164.902C35.5931 171.618 39.7108 176.147 46.3274 176.147ZM46.3558 171.462C43.3031 171.462 41.7412 168.665 41.7412 164.859C41.7412 161.054 43.3031 158.243 46.3558 158.243C49.3518 158.243 50.9137 161.054 50.9137 164.859C50.9137 168.665 49.3518 171.462 46.3558 171.462Z" fill="black"/>
<path d="M67.0436 163.113C67.0578 160.301 68.7333 158.654 71.1755 158.654C73.6035 158.654 75.066 160.245 75.0518 162.914V175.721H81.1005V161.835C81.1005 156.752 78.1187 153.628 73.5751 153.628C70.3378 153.628 67.9949 155.218 67.0152 157.76H66.7596V153.912H60.9949V175.721H67.0436V163.113Z" fill="black"/>
<path d="M95.807 176.147C101.203 176.147 104.838 173.521 105.689 169.474L100.095 169.105C99.4845 170.766 97.9227 171.632 95.9064 171.632C92.882 171.632 90.9652 169.63 90.9652 166.379V166.364H105.817V164.703C105.817 157.291 101.33 153.628 95.5656 153.628C89.1477 153.628 84.9875 158.186 84.9875 164.916C84.9875 171.831 89.0909 176.147 95.807 176.147ZM90.9652 162.616C91.093 160.131 92.9814 158.143 95.665 158.143C98.2918 158.143 100.109 160.018 100.123 162.616H90.9652Z" fill="black"/>
<path d="M112.874 183.9C117.375 183.9 119.761 181.6 120.996 178.078L129.473 153.912H123.069L118.511 169.928H118.284L113.769 153.912H107.408L115.231 176.346L114.876 177.269C114.081 179.314 112.562 179.413 110.432 178.76L109.069 183.275C109.935 183.644 111.341 183.9 112.874 183.9Z" fill="black"/>
<path d="M141.936 146.642V175.721H147.899V156.723H148.141L155.666 175.579H159.727L167.252 156.794H167.494V175.721H173.457V146.642H165.875L157.867 166.18H157.526L149.518 146.642H141.936Z" fill="black"/>
<path d="M184.628 176.133C187.851 176.133 189.939 174.728 191.003 172.697H191.174V175.721H196.91V161.011C196.91 155.815 192.509 153.628 187.653 153.628C182.427 153.628 178.991 156.127 178.153 160.103L183.748 160.557C184.16 159.109 185.452 158.044 187.624 158.044C189.683 158.044 190.861 159.08 190.861 160.869V160.955C190.861 162.36 189.371 162.545 185.579 162.914C181.263 163.312 177.387 164.76 177.387 169.63C177.387 173.947 180.468 176.133 184.628 176.133ZM186.36 171.959C184.5 171.959 183.166 171.093 183.166 169.431C183.166 167.728 184.571 166.89 186.701 166.592C188.022 166.407 190.18 166.095 190.904 165.612V167.926C190.904 170.212 189.016 171.959 186.36 171.959Z" fill="black"/>
<path d="M201.603 175.721H207.652V163.383C207.652 160.699 209.611 158.853 212.281 158.853C213.118 158.853 214.268 158.995 214.836 159.18V153.813C214.297 153.685 213.544 153.6 212.934 153.6C210.491 153.6 208.489 155.019 207.694 157.717H207.467V153.912H201.603V175.721Z" fill="black"/>
<path d="M217.964 175.721H224.012V168.792L225.645 166.932L231.595 175.721H238.68L230.175 163.354L238.268 153.912H231.325L224.339 162.19H224.012V146.642H217.964V175.721Z" fill="black"/>
<path d="M250.277 176.147C255.672 176.147 259.307 173.521 260.159 169.474L254.565 169.105C253.954 170.766 252.392 171.632 250.376 171.632C247.352 171.632 245.435 169.63 245.435 166.379V166.364H260.287V164.703C260.287 157.291 255.8 153.628 250.035 153.628C243.617 153.628 239.457 158.186 239.457 164.916C239.457 171.831 243.561 176.147 250.277 176.147ZM245.435 162.616C245.563 160.131 247.451 158.143 250.135 158.143C252.762 158.143 254.579 160.018 254.593 162.616H245.435Z" fill="black"/>
<path d="M275.835 153.912H271.731V148.687H265.683V153.912H262.701V158.456H265.683V169.815C265.654 174.089 268.565 176.204 272.952 176.02C274.514 175.963 275.622 175.65 276.232 175.452L275.281 170.951C274.983 171.007 274.344 171.149 273.776 171.149C272.569 171.149 271.731 170.695 271.731 169.02V158.456H275.835V153.912Z" fill="black"/>
<path d="M220 8.27e-07C244.163 -1.28542e-06 268.09 4.75932 290.414 14.0062C312.738 23.253 333.022 36.8064 350.108 53.8924C367.194 70.9783 380.747 91.2623 389.994 113.586C399.241 135.91 404 159.837 404 184L330.428 184C330.428 169.498 327.572 155.139 322.022 141.741C316.473 128.343 308.338 116.17 298.084 105.916C287.83 95.6615 275.657 87.5275 262.259 81.9779C248.861 76.4284 234.502 73.5721 220 73.5721L220 8.27e-07Z" fill="url(#paint0_linear)"/>
<defs>
<linearGradient id="paint0_linear" x1="404" y1="184" x2="206.631" y2="168.325" gradientUnits="userSpaceOnUse">
<stop stop-color="#FF8212"/>
<stop offset="1" stop-color="#ED4454"/>
</linearGradient>
</defs>
</svg>