<svg width="24" height="24" viewBox="0 0 24 24" fill="none" xmlns="http://www.w3.org/2000/svg">
<path d="M11.2573 21.9127L1.04352 21.9127C0.467261 21.9127 2.76728e-05 21.4455 2.7698e-05 20.8692C2.77232e-05 20.2929 0.467235 19.8257 1.04352 19.8257L11.2573 19.8257C11.8335 19.8257 12.3008 20.2929 12.3008 20.8692C12.3008 21.4455 11.8335 21.9127 11.2573 21.9127ZM21.0201 20.8692C21.0201 21.4455 21.4873 21.9127 22.0636 21.9127L22.9565 21.9127C23.5328 21.9127 24 21.4455 24 20.8692C24 20.2929 23.5328 19.8257 22.9565 19.8257L22.0636 19.8257C21.4874 19.8257 21.0201 20.293 21.0201 20.8692ZM12 6.22701C10.269 6.22701 8.86052 4.83031 8.86052 3.11351C8.86052 1.3967 10.269 -6.00203e-07 12 -5.24537e-07C13.731 -4.4887e-07 15.1395 1.3967 15.1395 3.11351C15.1395 4.83031 13.731 6.22701 12 6.22701ZM12 4.14006C12.5803 4.14006 13.0525 3.67956 13.0525 3.11351C13.0525 2.54745 12.5803 2.08695 12 2.08695C11.4197 2.08695 10.9475 2.54745 10.9475 3.11351C10.9475 3.67956 11.4197 4.14006 12 4.14006ZM6.86759 15.1135C5.13651 15.1135 3.7281 13.7168 3.72811 12C3.72811 10.2832 5.13651 8.88653 6.86759 8.88653C8.59891 8.88653 10.0073 10.2832 10.0073 12C10.0073 13.7168 8.59891 15.1135 6.86759 15.1135ZM6.86759 13.0265C7.44805 13.0265 7.92034 12.5661 7.92034 12C7.92034 11.4339 7.44805 10.9735 6.86759 10.9735C6.28726 10.9735 5.81505 11.4339 5.81505 12C5.81505 12.5661 6.28726 13.0265 6.86759 13.0265ZM16.5308 24C14.7998 24 13.3914 22.6033 13.3914 20.8865C13.3914 19.1697 14.7998 17.773 16.5308 17.773C18.2619 17.773 19.6703 19.1697 19.6703 20.8865C19.6703 22.6033 18.2619 24 16.5308 24ZM16.5308 21.9131C17.1112 21.9131 17.5833 21.4526 17.5833 20.8865C17.5833 20.3205 17.1112 19.86 16.5308 19.86C15.9505 19.86 15.4783 20.3205 15.4783 20.8865C15.4783 21.4526 15.9505 21.9131 16.5308 21.9131ZM2.68706 11.9997C2.68706 11.4234 2.21986 10.9562 1.64358 10.9562L1.04349 10.9562C0.467233 10.9562 -4.99332e-07 11.4234 -5.24522e-07 11.9997C-5.49712e-07 12.5759 0.467204 13.0431 1.04349 13.0431L1.64358 13.0431C2.21983 13.0431 2.68706 12.5759 2.68706 11.9997ZM11.2941 11.9997C11.2941 12.5759 11.7613 13.0431 12.3376 13.0431L22.9565 13.0431C23.5328 13.0431 24 12.5759 24 11.9997C24 11.4234 23.5328 10.9562 22.9565 10.9562L12.3375 10.9562C11.7613 10.9562 11.2941 11.4234 11.2941 11.9997ZM7.49288 3.13011C7.49288 2.55385 7.02565 2.08662 6.44939 2.08662L1.04349 2.08662C0.467234 2.08662 -1.11631e-07 2.55383 -1.36821e-07 3.13011C-1.62012e-07 3.70639 0.467205 4.1736 1.04349 4.1736L6.44942 4.1736C7.02565 4.17357 7.49288 3.70636 7.49288 3.13011ZM16.4549 3.13011C16.4549 3.70636 16.9221 4.1736 17.4984 4.1736L22.9565 4.1736C23.5328 4.1736 24 3.70639 24 3.13011C24 2.55383 23.5328 2.08662 22.9565 2.08662L17.4984 2.08662C16.9222 2.08662 16.4549 2.55385 16.4549 3.13011Z" fill="url(#paint0_linear)"/>
<defs>
<linearGradient id="paint0_linear" x1="24" y1="0" x2="21.9554" y2="25.7437" gradientUnits="userSpaceOnUse">
<stop stop-color="#FF8212"/>
<stop offset="1" stop-color="#ED4454"/>
</linearGradient>
</defs>
</svg>