<svg width="23" height="26" viewBox="0 0 23 26" fill="none" xmlns="http://www.w3.org/2000/svg">
<path d="M20.1724 25H3.01379C1.90207 25 1 24.0952 1 22.9834V3.01655C1 1.90483 1.90207 1 3.01379 1H20.1724C21.2841 1 22.1862 1.90483 22.1862 3.01655V22.9862C22.1862 24.0952 21.2841 25 20.1724 25ZM3.01379 2.54483C2.75448 2.54483 2.54483 2.75724 2.54483 3.01655V22.9862C2.54483 23.2455 2.75448 23.4579 3.01379 23.4579H20.1724C20.4317 23.4579 20.6414 23.2455 20.6414 22.9862V3.01655C20.6414 2.75724 20.4317 2.54483 20.1724 2.54483H3.01379Z" fill="url(#paint0_linear)" stroke="url(#paint1_linear)" stroke-width="0.5"/>
<path d="M1.79724 7.65942H21.389V9.20425H1.79724V7.65942ZM5.79724 12.9946H10.189V14.5394H5.79724V12.9946Z" fill="url(#paint2_linear)" stroke="url(#paint3_linear)" stroke-width="0.5"/>
<path d="M7.2207 11.5876H8.76553V16.0014H7.2207V11.5876ZM14.8016 17.5513L17.907 20.6567L16.8146 21.7491L13.7093 18.6437L14.8016 17.5513Z" fill="url(#paint4_linear)" stroke="url(#paint5_linear)" stroke-width="0.5"/>
<path d="M16.8418 17.524L17.9341 18.6163L14.8131 21.7373L13.7208 20.645L16.8418 17.524ZM16.1798 11.042L17.272 12.1345L7.02981 22.3738L5.93762 21.2813L16.1798 11.042Z" fill="url(#paint6_linear)" stroke="url(#paint7_linear)" stroke-width="0.5"/>
<defs>
<linearGradient id="paint0_linear" x1="1" y1="1" x2="23.757" y2="2.59549" gradientUnits="userSpaceOnUse">
<stop stop-color="#FF8212"/>
<stop offset="1" stop-color="#ED4454"/>
</linearGradient>
<linearGradient id="paint1_linear" x1="1" y1="1" x2="23.757" y2="2.59549" gradientUnits="userSpaceOnUse">
<stop stop-color="#FF8212"/>
<stop offset="1" stop-color="#ED4454"/>
</linearGradient>
<linearGradient id="paint2_linear" x1="1.79724" y1="7.65942" x2="21.9159" y2="12.2095" gradientUnits="userSpaceOnUse">
<stop stop-color="#FF8212"/>
<stop offset="1" stop-color="#ED4454"/>
</linearGradient>
<linearGradient id="paint3_linear" x1="1.79724" y1="7.65942" x2="21.9159" y2="12.2095" gradientUnits="userSpaceOnUse">
<stop stop-color="#FF8212"/>
<stop offset="1" stop-color="#ED4454"/>
</linearGradient>
<linearGradient id="paint4_linear" x1="7.2207" y1="11.5876" x2="18.6758" y2="12.5444" gradientUnits="userSpaceOnUse">
<stop stop-color="#FF8212"/>
<stop offset="1" stop-color="#ED4454"/>
</linearGradient>
<linearGradient id="paint5_linear" x1="7.2207" y1="11.5876" x2="18.6758" y2="12.5444" gradientUnits="userSpaceOnUse">
<stop stop-color="#FF8212"/>
<stop offset="1" stop-color="#ED4454"/>
</linearGradient>
<linearGradient id="paint6_linear" x1="5.93762" y1="11.042" x2="18.796" y2="12.1231" gradientUnits="userSpaceOnUse">
<stop stop-color="#FF8212"/>
<stop offset="1" stop-color="#ED4454"/>
</linearGradient>
<linearGradient id="paint7_linear" x1="5.93762" y1="11.042" x2="18.796" y2="12.1231" gradientUnits="userSpaceOnUse">
<stop stop-color="#FF8212"/>
<stop offset="1" stop-color="#ED4454"/>
</linearGradient>
</defs>
</svg>