<svg width="29" height="24" viewBox="0 0 29 24" fill="none" xmlns="http://www.w3.org/2000/svg">
<path d="M9.99475 4.48021V23.0501C9.99475 23.314 9.92965 23.5383 9.79944 23.723C9.66923 23.9076 9.47913 24 9.22913 24C9.05204 24 8.88017 23.9578 8.7135 23.8733L1.44788 20.1847C1.22913 20.0792 1.04423 19.9024 0.893188 19.6544C0.742147 19.4063 0.666626 19.1609 0.666626 18.9182V0.870712C0.666626 0.659631 0.718709 0.480211 0.822876 0.332454C0.927043 0.184697 1.07808 0.110818 1.276 0.110818C1.42183 0.110818 1.651 0.189974 1.9635 0.348285L9.94788 4.40106C9.97913 4.43272 9.99475 4.4591 9.99475 4.48021ZM10.9948 6.07915L19.3385 19.7889L10.9948 15.5778V6.07915ZM28.6666 6.36412V23.0501C28.6666 23.314 28.5937 23.5277 28.4479 23.6913C28.302 23.8549 28.1041 23.9367 27.8541 23.9367C27.6041 23.9367 27.3593 23.8681 27.1198 23.7309L20.2291 20.248L28.6666 6.36412ZM28.6198 4.46438C28.6198 4.49604 27.2838 6.70976 24.6119 11.1055C21.9401 15.5013 20.375 18.0739 19.9166 18.8232L13.8229 8.78628L18.8854 0.443272C19.0625 0.147757 19.3333 0 19.6979 0C19.8437 0 19.9791 0.0316623 20.1041 0.0949869L28.5573 4.36939C28.5989 4.3905 28.6198 4.42216 28.6198 4.46438Z" fill="white"/>
</svg>