<svg width="1269" height="218" viewBox="0 0 1269 218" fill="none" xmlns="http://www.w3.org/2000/svg">
<path fill-rule="evenodd" clip-rule="evenodd" d="M459 14.1283C459 21.9312 465.325 28.2567 473.128 28.2567C480.931 28.2567 487.257 21.9312 487.257 14.1283C487.257 6.32547 480.931 0 473.128 0C465.325 0 459 6.32547 459 14.1283ZM8.99988 68C4.0293 68 -0.00012207 63.9706 -0.00012207 59C-0.00012207 54.0294 4.0293 50 8.99988 50C13.9705 50 17.9999 54.0294 17.9999 59C17.9999 63.9706 13.9705 68 8.99988 68ZM1118 60C1118 63.3137 1120.69 66 1124 66C1127.31 66 1130 63.3137 1130 60C1130 56.6863 1127.31 54 1124 54C1120.69 54 1118 56.6863 1118 60ZM1246.2 122.403C1233.94 122.403 1224 112.463 1224 100.202C1224 87.94 1233.94 78 1246.2 78C1258.46 78 1268.4 87.94 1268.4 100.202C1268.4 112.463 1258.46 122.403 1246.2 122.403ZM1178.58 184.628C1174.71 184.628 1170.96 184.109 1167.4 183.138C1164.96 187.391 1160.38 190.257 1155.13 190.257C1147.33 190.257 1141 183.931 1141 176.128C1141 172.701 1142.22 169.558 1144.25 167.111C1139.18 160.126 1136.19 151.534 1136.19 142.243C1136.19 118.834 1155.17 99.858 1178.58 99.858C1201.99 99.858 1220.96 118.834 1220.96 142.243C1220.96 165.652 1201.99 184.628 1178.58 184.628ZM1252.13 191.257C1244.33 191.257 1238 184.931 1238 177.128C1238 169.325 1244.33 163 1252.13 163C1259.93 163 1266.26 169.325 1266.26 177.128C1266.26 184.931 1259.93 191.257 1252.13 191.257ZM155 218C152.238 218 150 215.761 150 213C150 210.239 152.238 208 155 208C157.761 208 160 210.239 160 213C160 215.761 157.761 218 155 218Z" fill="url(#paint0_linear)"/>
<defs>
<linearGradient id="paint0_linear" x1="1179.17" y1="182.048" x2="1089.76" y2="105.301" gradientUnits="userSpaceOnUse">
<stop stop-color="#F04D4F"/>
<stop offset="0.984696" stop-color="#FFD43E"/>
</linearGradient>
</defs>
</svg>