<svg width="353" height="103" viewBox="0 0 353 103" fill="none" xmlns="http://www.w3.org/2000/svg">
<path fill-rule="evenodd" clip-rule="evenodd" d="M59.1744 9.34359C59.1744 14.5039 54.9912 18.6872 49.8308 18.6872C44.6705 18.6872 40.4872 14.5039 40.4872 9.34359C40.4872 4.18327 44.6705 0 49.8308 0C54.9912 0 59.1744 4.18327 59.1744 9.34359ZM91.452 36.525C91.452 46.3766 83.4657 54.3628 73.6142 54.3628C63.7627 54.3628 55.7764 46.3766 55.7764 36.525C55.7764 26.6735 63.7627 18.6873 73.6142 18.6873C83.4657 18.6873 91.452 26.6735 91.452 36.525ZM99.0523 24.9163C102.336 24.9163 104.998 22.2542 104.998 18.9703C104.998 15.6865 102.336 13.0244 99.0523 13.0244C95.7684 13.0244 93.1063 15.6865 93.1063 18.9703C93.1063 22.2542 95.7684 24.9163 99.0523 24.9163ZM47.8918 58.0435C47.8918 61.3274 45.2298 63.9894 41.9459 63.9894C38.6621 63.9894 36 61.3274 36 58.0435C36 54.7597 38.6621 52.0976 41.9459 52.0976C45.2298 52.0976 47.8918 54.7597 47.8918 58.0435ZM92.3449 61.5937C94.6905 61.5937 96.592 59.6922 96.592 57.3466C96.592 55.001 94.6905 53.0995 92.3449 53.0995C89.9993 53.0995 88.0978 55.001 88.0978 57.3466C88.0978 59.6922 89.9993 61.5937 92.3449 61.5937Z" fill="url(#paint0_linear)"/>
<path fill-rule="evenodd" clip-rule="evenodd" d="M127.741 45.9319C127.741 48.1035 129.502 49.8639 131.673 49.8639C133.845 49.8639 135.605 48.1035 135.605 45.9319C135.605 43.7604 133.845 42 131.673 42C129.502 42 127.741 43.7604 127.741 45.9319ZM2.50531 60.9246C1.12201 60.9246 0.000610352 59.8032 0.000610352 58.4198C0.000610352 57.0365 1.12201 55.9151 2.50531 55.9151C3.88864 55.9151 5.01004 57.0365 5.01004 58.4198C5.01004 59.8032 3.88864 60.9246 2.50531 60.9246ZM311.143 58.6982C311.143 59.6204 311.891 60.368 312.813 60.368C313.735 60.368 314.483 59.6204 314.483 58.6982C314.483 57.776 313.735 57.0284 312.813 57.0284C311.891 57.0284 311.143 57.776 311.143 58.6982ZM346.821 76.0652C343.409 76.0652 340.642 73.2988 340.642 69.8864C340.642 66.4739 343.409 63.7076 346.821 63.7076C350.234 63.7076 353 66.4739 353 69.8864C353 73.2988 350.234 76.0652 346.821 76.0652ZM328.002 93.3824C326.925 93.3824 325.881 93.238 324.89 92.9676C324.212 94.1513 322.937 94.9489 321.475 94.9489C319.304 94.9489 317.543 93.1885 317.543 91.017C317.543 90.0629 317.883 89.1882 318.448 88.5072C317.038 86.5633 316.206 84.1721 316.206 81.5865C316.206 75.0719 321.487 69.7907 328.002 69.7907C334.516 69.7907 339.797 75.0719 339.797 81.5865C339.797 88.1012 334.516 93.3824 328.002 93.3824ZM348.471 95.2272C346.299 95.2272 344.539 93.4668 344.539 91.2953C344.539 89.1237 346.299 87.3633 348.471 87.3633C350.642 87.3633 352.402 89.1237 352.402 91.2953C352.402 93.4668 350.642 95.2272 348.471 95.2272ZM43.1361 102.67C42.3676 102.67 41.7446 102.047 41.7446 101.278C41.7446 100.51 42.3676 99.8869 43.1361 99.8869C43.9046 99.8869 44.5276 100.51 44.5276 101.278C44.5276 102.047 43.9046 102.67 43.1361 102.67Z" fill="url(#paint1_linear)"/>
<defs>
<linearGradient id="paint0_linear" x1="36" y1="0" x2="116.71" y2="23.1398" gradientUnits="userSpaceOnUse">
<stop offset="0.197917" stop-color="#ED4454"/>
<stop offset="1" stop-color="#FB822A"/>
</linearGradient>
<linearGradient id="paint1_linear" x1="328.165" y1="92.6644" x2="303.283" y2="71.3056" gradientUnits="userSpaceOnUse">
<stop stop-color="#F04D4F"/>
<stop offset="0.984696" stop-color="#FFD43E"/>
</linearGradient>
</defs>
</svg>