<svg width="544" height="565" viewBox="0 0 544 565" fill="none" xmlns="http://www.w3.org/2000/svg">
<path d="M422.584 309.862L418.164 357.057C422.416 311.693 388.062 265.403 327.184 239.89L331.604 192.695C392.503 218.208 426.837 264.498 422.584 309.862Z" fill="#E6ECF2"/>
<path d="M331.603 192.694L327.182 239.89C326.361 239.532 325.519 239.195 324.677 238.858C315.962 235.427 307.058 232.522 298.027 230.122L302.448 182.927C311.458 185.327 320.383 188.232 329.098 191.663C329.94 192 330.782 192.358 331.603 192.694Z" fill="#E6ECF2"/>
<path d="M302.462 182.927L298.042 230.122C289.453 227.849 280.738 226.017 272.023 224.67L276.444 177.475C285.159 178.843 293.853 180.653 302.462 182.927Z" fill="#EAEFF3"/>
<path d="M276.452 177.475L272.032 224.67C263.527 223.344 254.981 222.439 246.477 221.976L250.897 174.78C259.38 175.244 267.927 176.149 276.452 177.475Z" fill="#EAEFF3"/>
<path d="M250.9 174.78L246.479 221.976C237.406 221.47 228.375 221.449 219.492 221.912L223.913 174.717C232.796 174.254 241.827 174.275 250.9 174.78Z" fill="#ECF0F5"/>
<path d="M223.888 174.696L219.468 221.891C208.669 222.439 198.059 223.681 187.766 225.575L192.186 178.38C202.48 176.485 213.089 175.243 223.888 174.696Z" fill="#F0F3F5"/>
<path d="M192.183 178.401L187.762 225.596C148.755 232.817 114.401 249.678 92.4453 275.044L96.8659 227.849C118.822 202.483 153.176 185.621 192.183 178.401Z" fill="#F0F3F5"/>
<path d="M96.866 227.849L92.4454 275.044C91.014 276.707 89.6247 278.412 88.2985 280.138C87.7301 280.875 87.1617 281.633 86.6144 282.391C83.4568 286.748 80.7203 291.169 78.4258 295.673L82.8464 248.478C85.1619 243.973 87.8775 239.553 91.035 235.195C91.5824 234.438 92.1297 233.701 92.7191 232.943C94.0453 231.196 95.4135 229.512 96.866 227.849Z" fill="#F0F3F5"/>
<path d="M82.8219 248.478L78.4013 295.674C75.349 301.631 73.0334 307.715 71.4336 313.84L75.8542 266.645C77.454 260.519 79.7696 254.436 82.8219 248.478Z" fill="#ECF0F5"/>
<path d="M75.8588 266.645L71.4382 313.84C70.2804 318.24 69.5015 322.681 69.1016 327.144L73.5222 279.949C73.9432 275.486 74.722 271.044 75.8588 266.645Z" fill="#EAEFF3"/>
<path d="M487.538 315.546L483.118 362.741C482.549 368.803 481.497 374.866 479.918 380.907L484.339 333.712C485.896 327.692 486.97 321.629 487.538 315.546Z" fill="#EAEFF3"/>
<path d="M484.317 333.712L479.896 380.907C477.707 389.307 474.528 397.664 470.297 405.894L474.717 358.699C478.949 350.489 482.127 342.132 484.317 333.712Z" fill="#ECF0F5"/>
<path d="M474.742 358.72L470.322 405.915C469.564 407.41 468.743 408.905 467.922 410.399L472.342 363.204C473.163 361.709 473.963 360.215 474.742 358.72Z" fill="#F0F3F5"/>
<path d="M202.352 345.395L197.931 392.59C189.301 387.391 184.754 379.77 185.448 372.424L189.869 325.228C189.174 332.554 193.721 340.195 202.352 345.395Z" fill="#E6ECF2"/>
<path d="M472.323 363.204L467.902 410.399C467.334 411.325 456.977 428.397 454.156 433.87L458.577 386.675C461.398 381.202 471.754 364.13 472.323 363.204Z" fill="#F0F3F5"/>
<path d="M458.583 386.675L454.163 433.87C454.036 434.123 453.931 434.333 453.826 434.523C452.689 436.923 451.805 439.385 451.152 441.848L455.573 394.653C456.204 392.19 457.11 389.748 458.246 387.328C458.352 387.138 458.457 386.907 458.583 386.675Z" fill="#ECF0F5"/>
<path d="M455.586 394.653L451.165 441.848C450.618 443.932 450.26 446.016 450.07 448.121L454.491 400.926C454.68 398.821 455.038 396.716 455.586 394.653Z" fill="#EAEFF3"/>
<path d="M256.148 439.617L251.728 486.812C251.686 487.17 251.644 487.507 251.602 487.865L256.022 440.669C256.085 440.333 256.127 439.975 256.148 439.617Z" fill="#EAEFF3"/>
<path d="M256.027 440.669L251.606 487.864C251.585 487.928 251.564 488.012 251.543 488.075L255.964 440.88C255.985 440.817 256.006 440.753 256.027 440.669Z" fill="#EAEFF3"/>
<path d="M255.963 440.901L251.543 488.096C251.227 489.296 250.785 490.475 250.195 491.59L254.616 444.395C255.205 443.279 255.668 442.101 255.963 440.901Z" fill="#ECF0F5"/>
<path d="M254.638 444.395L250.217 491.59C249.754 492.475 249.228 493.338 248.617 494.18C248.259 494.664 247.88 495.148 247.48 495.611L251.901 448.416C252.301 447.953 252.68 447.469 253.038 446.984C253.648 446.142 254.175 445.279 254.638 444.395Z" fill="#F0F3F5"/>
<path d="M251.924 448.395L247.504 495.59C243.188 500.579 236.178 504.284 227.969 505.799L232.389 458.604C240.578 457.089 247.609 453.405 251.924 448.395Z" fill="#F0F3F5"/>
<path d="M232.367 458.625L227.946 505.82C226.01 506.178 223.989 506.41 221.926 506.515L226.346 459.32C228.409 459.215 230.43 458.983 232.367 458.625Z" fill="#F0F3F5"/>
<path d="M226.364 459.32L221.944 506.515C220.302 506.599 218.618 506.599 216.934 506.494L221.354 459.299C223.038 459.404 224.722 459.404 226.364 459.32Z" fill="#ECF0F5"/>
<path d="M221.352 459.299L216.932 506.494C215.942 506.431 214.932 506.347 213.921 506.242C210.027 505.8 206.133 505.252 202.238 504.663L206.659 457.468C210.532 458.078 214.427 458.604 218.342 459.046C219.331 459.173 220.342 459.257 221.352 459.299Z" fill="#EAEFF3"/>
<path d="M206.66 457.447L202.239 504.642C191.019 502.895 179.904 500.516 169.105 497.653L173.526 450.458C184.325 453.342 195.419 455.699 206.66 457.447Z" fill="#EAEFF3"/>
<path d="M173.534 450.479L169.113 497.674C158.082 494.748 147.347 491.296 137.116 487.443C134.127 486.328 131.18 485.149 128.254 483.97L132.675 436.775C135.579 437.975 138.527 439.133 141.537 440.248C151.767 444.079 162.503 447.532 173.534 450.479Z" fill="#E6ECF2"/>
<path d="M132.694 436.775L128.273 483.97C42.1344 448.626 -5.43975 384.149 0.496489 320.808L4.91709 273.613C-1.01915 336.953 46.5339 401.431 132.694 436.775Z" fill="#E6ECF2"/>
<path d="M543.638 497.274L539.218 544.47C539.134 545.291 539.007 546.09 538.797 546.89L543.217 499.695C543.428 498.895 543.575 498.074 543.638 497.274Z" fill="#EAEFF3"/>
<path d="M543.215 499.695L538.794 546.89C538.5 548.006 538.079 549.101 537.531 550.174L541.952 502.979C542.499 501.905 542.92 500.811 543.215 499.695Z" fill="#ECF0F5"/>
<path d="M541.957 502.979L537.536 550.174C537.115 550.995 536.631 551.795 536.063 552.574C535.747 553.016 535.389 553.458 535.031 553.879L539.452 506.684C539.831 506.263 540.168 505.821 540.483 505.379C541.052 504.6 541.536 503.8 541.957 502.979Z" fill="#F0F3F5"/>
<path d="M539.449 506.684L535.029 553.879C534.145 554.911 533.134 555.879 531.977 556.805L536.397 509.61C537.534 508.705 538.565 507.715 539.449 506.684Z" fill="#F0F3F5"/>
<path d="M536.398 509.631L531.978 556.826C531.536 557.437 531.536 557.437 531.094 558.047L535.514 510.852C535.956 510.22 535.956 510.22 536.398 509.631Z" fill="#F0F3F5"/>
<path d="M489.791 511.483L485.371 558.679C485.329 558.657 485.265 558.636 485.16 558.573L489.581 511.378C489.686 511.441 489.77 511.483 489.791 511.483Z" fill="#E6ECF2"/>
<path d="M489.582 511.399L485.161 558.594C476.362 554.026 211.989 400.758 197.906 392.59L202.327 345.395C216.41 353.541 480.783 506.831 489.582 511.399Z" fill="#E6ECF2"/>
<path d="M535.488 510.852L531.067 558.047C526.962 560.973 521.952 562.952 516.605 563.941L521.026 516.746C526.394 515.757 531.404 513.778 535.488 510.852Z" fill="#F0F3F5"/>
<path d="M521.022 516.746L516.601 563.941C514.643 564.299 512.622 564.531 510.602 564.636L515.022 517.441C517.043 517.335 519.064 517.104 521.022 516.746Z" fill="#F0F3F5"/>
<path d="M515.021 517.441L510.6 564.636C508.916 564.72 507.232 564.72 505.527 564.615L509.948 517.42C511.653 517.525 513.337 517.525 515.021 517.441Z" fill="#ECF0F5"/>
<path d="M509.951 517.42L505.531 564.615C503.931 564.531 502.352 564.362 500.773 564.11L505.194 516.914C506.773 517.167 508.373 517.335 509.951 517.42Z" fill="#EAEFF3"/>
<path d="M505.199 516.935L500.779 564.131C499.158 563.878 497.558 563.541 496 563.12L500.421 515.925C501.999 516.346 503.599 516.683 505.199 516.935Z" fill="#EAEFF3"/>
<path d="M500.418 515.925L495.998 563.12C494.166 562.636 492.398 562.047 490.672 561.331L495.092 514.136C496.798 514.852 498.587 515.441 500.418 515.925Z" fill="#E6ECF2"/>
<path d="M495.072 514.136L490.651 561.331C488.819 560.573 487.03 559.689 485.367 558.679L489.788 511.484C491.472 512.494 493.24 513.378 495.072 514.136Z" fill="#E6ECF2"/>
<path d="M28.9958 212.103C84.7586 138.574 214.998 109.293 330.965 142.805C456.026 179.749 519.746 278.791 472.319 363.204C471.73 364.172 460.447 382.739 458.236 387.349C447.332 410.357 459.542 436.649 488.339 452.879C490.254 453.995 526.735 475.045 529.935 477.045C530.819 477.382 530.819 477.382 531.745 477.718C543.849 485.57 546.796 496.727 540.481 505.4C539.386 506.894 538.018 508.326 536.376 509.652C535.934 510.262 535.934 510.262 535.492 510.873C523.43 519.504 503.516 519.756 489.791 511.525C487.076 510.494 216.577 353.668 202.347 345.416C190.411 338.238 186.285 326.386 193.021 317.103C194.032 315.714 195.295 314.367 196.81 313.125C207.988 304.157 228.744 302.683 243.395 311.272L359.489 379.665L382.77 392.295C383.255 393.243 384.16 393.58 385.507 393.327C387.654 387.159 389.401 383.16 391.127 379.181C396.39 368.761 408.936 348.447 409.61 347.374C444.385 291.527 408.831 223.955 329.092 191.663C242.553 157.582 136.943 175.223 92.6946 232.943C92.1262 233.68 91.5579 234.438 91.0106 235.196C49.3306 292.579 82.9482 364.846 167.045 398.737C185.717 406.547 205.273 411.557 226.597 414.146C244.721 416.314 258.025 428.292 256.004 440.691C255.457 442.922 254.426 445.048 253.015 446.985C246.826 455.51 233.059 460.815 218.303 459.047C191.548 455.952 165.193 449.153 141.511 440.249C20.4072 394.716 -29.7772 293 28.9958 212.103Z" fill="#F9FCFE"/>
<path d="M440.27 464.434C440.27 468.721 443.743 472.195 448.031 472.195C452.319 472.195 455.792 468.721 455.792 464.434C455.792 460.146 452.319 456.672 448.031 456.672C443.743 456.672 440.27 460.146 440.27 464.434Z" fill="#FFC107"/>
<path d="M421.315 519.221V523.151C421.315 524.223 420.76 525.235 419.846 525.791L407.897 533.176C406.666 533.95 405.098 533.95 403.847 533.195L400.195 531.131C399.46 530.714 399.023 529.94 399.023 529.106V526.843C399.023 526.843 399.52 527.022 400.254 526.565L408.214 521.742V519.201H421.315V519.221Z" fill="#48486A"/>
<path d="M421.312 517.017V520.948C421.312 522.02 420.756 523.032 419.843 523.588L407.893 530.972C406.662 531.746 405.094 531.746 403.843 530.992L400.251 528.808C398.583 527.796 398.583 525.374 400.251 524.362L408.211 519.538V516.998H421.312V517.017Z" fill="white"/>
<path d="M413.25 524.561V523.767L408.645 521.127V521.841L413.25 524.561Z" fill="#48486A"/>
<path d="M411.527 526.109V525.355L406.922 522.695L406.902 523.369L411.527 526.109Z" fill="#48486A"/>
<path d="M409.215 527.717V526.962L404.609 524.302L404.629 525.057L409.215 527.717Z" fill="#48486A"/>
<path d="M419.402 519.697C421.963 518.228 421.963 515.807 419.402 514.338C416.842 512.869 412.673 512.869 410.132 514.338C407.591 515.807 407.591 518.228 410.132 519.697C412.673 521.166 416.842 521.166 419.402 519.697Z" fill="#48486A"/>
<path d="M417.817 518.784C419.504 517.812 419.504 516.224 417.817 515.251C416.13 514.278 413.37 514.278 411.703 515.251C410.016 516.224 410.016 517.812 411.703 518.784C413.39 519.757 416.13 519.757 417.817 518.784Z" fill="#363650"/>
<path d="M433.522 526.486V530.416C433.522 531.488 432.967 532.501 432.053 533.056L420.104 540.441C418.873 541.215 417.305 541.215 416.054 540.46L412.402 538.396C411.667 537.979 411.23 537.205 411.23 536.371V534.108C411.23 534.108 411.727 534.287 412.461 533.831L420.421 529.007V526.466H433.522V526.486Z" fill="#48486A"/>
<path d="M433.519 524.303V528.233C433.519 529.305 432.963 530.317 432.05 530.873L420.1 538.257C418.869 539.031 417.301 539.032 416.05 538.277L412.458 536.094C410.79 535.081 410.79 532.66 412.458 531.647L420.418 526.824V524.283H433.519V524.303Z" fill="white"/>
<path d="M425.465 531.846V531.052L420.879 528.392L420.859 529.106L425.465 531.846Z" fill="#48486A"/>
<path d="M423.731 533.374V532.62L419.125 529.96L419.105 530.635L423.731 533.374Z" fill="#48486A"/>
<path d="M421.433 535.002V534.228L416.848 531.587L416.867 532.342L421.433 535.002Z" fill="#48486A"/>
<path d="M431.617 526.982C434.178 525.513 434.178 523.092 431.617 521.623C429.056 520.154 424.888 520.154 422.347 521.623C419.806 523.092 419.806 525.513 422.347 526.982C424.888 528.451 429.056 528.451 431.617 526.982Z" fill="#48486A"/>
<path d="M430.032 526.069C431.719 525.096 431.719 523.508 430.032 522.536C428.344 521.563 425.585 521.563 423.918 522.536C422.231 523.508 422.231 525.096 423.918 526.069C425.605 527.042 428.364 527.042 430.032 526.069Z" fill="#363650"/>
<path d="M414.863 519.737C417.781 519.737 420.163 517.375 420.163 514.437V489.049C420.163 484.245 422.743 479.759 426.912 477.357L446.861 466.796C450.951 464.454 451.884 460.067 451.884 455.363V454.211C451.884 451.293 449.521 448.911 446.584 448.911C443.666 448.911 441.284 451.273 441.284 454.211V455.363C441.284 456.296 440.787 457.169 439.973 457.626L421.612 468.186C414.168 472.474 409.543 480.453 409.543 489.049V514.437C409.563 517.355 411.925 519.737 414.863 519.737Z" fill="url(#paint0_linear)"/>
<path opacity="0.45" d="M421.628 468.186L439.989 457.625C440.803 457.169 441.299 456.295 441.299 455.362V454.211C441.299 451.293 443.661 448.911 446.599 448.911C446.857 448.911 447.115 448.951 447.353 448.991C444.793 449.368 442.808 451.551 442.808 454.211V455.362C442.808 456.295 442.312 457.169 441.498 457.625L423.136 468.186C415.692 472.473 411.067 480.453 411.067 489.048V514.437C411.067 517.097 413.032 519.28 415.613 519.658C415.355 519.697 415.117 519.737 414.859 519.737C411.941 519.737 409.559 517.375 409.559 514.437V489.048C409.559 480.453 414.184 472.473 421.628 468.186Z" fill="#FFC107"/>
<path d="M427.027 526.625C429.945 526.625 432.327 524.263 432.327 521.325V495.936C432.327 491.133 434.907 486.647 439.076 484.245L459.542 474.736C463.631 472.394 464.048 466.935 464.048 462.231V461.079C464.048 458.161 461.686 455.779 458.748 455.779C455.83 455.779 453.448 458.142 453.448 461.079V462.231C453.448 463.164 452.951 464.037 452.137 464.494L433.776 475.054C426.332 479.342 421.707 487.321 421.707 495.917V521.305C421.747 524.243 424.109 526.625 427.027 526.625Z" fill="url(#paint1_linear)"/>
<path d="M443.212 481.843L457.445 475.332C458.814 474.578 458.834 472.632 457.484 471.858L435.808 459.333L419.809 468.841L443.212 481.843Z" fill="#EFEDF0"/>
<path d="M441.263 480.572L453.669 475.034C454.84 474.399 454.86 472.712 453.709 472.037L433.878 460.563L420.062 468.761L441.263 480.572Z" fill="#FBFAFB"/>
<path d="M434.626 468.206C436.372 468.206 437.802 466.776 437.802 465.03V452.663C437.802 445.318 438.814 441.805 440.819 434.738L444.531 421.617C445.007 419.93 444.035 418.183 442.327 417.687C440.64 417.21 438.893 418.183 438.397 419.89L434.685 433.011C432.521 440.634 431.43 444.743 431.43 452.663V465.03C431.45 466.776 432.879 468.206 434.626 468.206Z" fill="white"/>
<path opacity="0.15" d="M434.716 432.991L438.428 419.87C438.905 418.203 440.612 417.25 442.259 417.667C441.188 417.925 440.274 418.739 439.937 419.87L436.225 432.991C434.061 440.614 432.97 444.723 432.97 452.643V465.01C432.97 466.499 434.002 467.749 435.391 468.087C435.153 468.146 434.895 468.186 434.637 468.186C432.89 468.186 431.461 466.757 431.461 465.01V452.643C431.461 444.723 432.553 440.634 434.716 432.991Z" fill="white"/>
<path d="M451.581 410.739L454.201 412.248C462.876 417.25 468.712 426.024 469.982 435.949C471.431 447.343 466.965 468.404 466.965 468.404C453.884 467.67 440.525 454.489 440.525 454.489C442.827 439.76 438.143 432.317 438.043 422.431C437.984 417.191 445.328 407.107 451.581 410.739Z" fill="white"/>
<path opacity="0.15" d="M438.043 422.411C437.984 417.19 445.328 407.106 451.601 410.719L454.221 412.228C456.941 413.796 459.382 415.741 461.487 417.964C459.561 416.059 457.378 414.372 454.976 412.982L452.355 411.473C446.083 407.861 438.758 417.945 438.798 423.165C438.897 433.031 443.582 440.475 441.299 455.184C440.822 454.747 440.544 454.469 440.544 454.469C442.827 439.76 438.123 432.296 438.043 422.411Z" fill="white"/>
<path d="M451.556 419.414H454.018C455.01 419.414 455.804 418.62 455.804 417.627V409.548H449.77V417.627C449.77 418.62 450.564 419.414 451.556 419.414Z" fill="#FFCEBD"/>
<path d="M455.811 412.446L457.458 413.34L454.937 427.533L451.543 419.156L455.811 412.446Z" fill="#FE5E31"/>
<path d="M451.553 419.156L449.786 410.144H449.012L445.578 422.074L451.553 419.156Z" fill="#FE5E31"/>
<path d="M446.202 477.635C447.155 477.635 448.088 477.218 448.703 476.404L458.211 464.176C463.392 457.526 466.012 449.229 465.595 440.812L464.841 428.882C464.762 427.136 463.253 425.766 461.506 425.865C459.759 425.945 458.41 427.433 458.489 429.2L459.243 441.13C459.581 448.038 457.417 454.847 453.189 460.286L443.681 472.513C442.609 473.903 442.847 475.888 444.237 476.98C444.832 477.416 445.507 477.635 446.202 477.635Z" fill="#FFCEBD"/>
<path d="M443.781 471.243L453.607 467.57C454.043 467.412 454.262 466.915 454.103 466.479L453.825 465.744C453.666 465.307 453.17 465.089 452.733 465.248L442.907 468.92C442.471 469.079 442.252 469.575 442.411 470.012L442.689 470.746C442.848 471.183 443.324 471.401 443.781 471.243Z" fill="#FFCEBD"/>
<path d="M416.762 450.499L417.079 450.4C417.377 450.321 417.695 450.36 417.973 450.499L441.475 463.958C442.031 464.275 442.488 465.05 442.488 465.685L444.612 481.803C444.612 481.962 444.532 482.101 444.413 482.18L444.056 482.419L419.898 468.404C419.342 468.087 418.886 467.313 418.886 466.677L416.762 450.499Z" fill="#E1E1E2"/>
<path d="M416.469 451.155C416.469 450.52 416.925 450.262 417.461 450.58L441.182 464.276C441.738 464.594 442.195 465.368 442.195 466.003L444.418 481.764C444.418 482.4 443.981 482.658 443.425 482.34L419.605 468.703C419.049 468.385 418.593 467.611 418.593 466.976L416.469 451.155Z" fill="#F3F2F4"/>
<path d="M428.378 465.149C429.35 465.486 430.422 466.697 430.76 467.849C431.097 469 430.561 469.655 429.589 469.317C428.616 468.98 427.544 467.749 427.207 466.618C426.869 465.486 427.405 464.811 428.378 465.149Z" fill="#E8E7E8"/>
<path opacity="0.33" d="M454.937 452.266C457.002 448.534 458.867 444.266 458.709 441.169C458.709 441.169 459.046 429.16 461.091 429.061C463.096 428.962 464.187 426.838 464.287 428.882L465.041 440.812C465.458 449.308 462.818 457.665 457.637 464.394L456.585 465.605C453.786 464.335 451.166 462.767 448.883 461.218C451.166 458.4 453.21 455.422 454.937 452.266Z" fill="#231F20"/>
<path d="M449.484 464.513L452.581 460.245C452.581 460.245 459.052 447.938 458.715 441.169L457.96 429.239C457.861 427.195 459.449 425.448 461.494 425.369C463.499 425.269 465.265 426.857 465.365 428.902L466.119 440.832C466.536 449.328 463.896 457.685 458.715 464.414L454.487 469.317L449.484 464.513Z" fill="white"/>
<path d="M451.943 411.434L457.521 410.322C459.01 410.025 459.963 408.595 459.665 407.107L456.548 391.484L439.934 394.799L441.919 404.764C442.852 409.369 447.338 412.347 451.943 411.434Z" fill="#FFCEBD"/>
<path d="M456.564 391.484L456.604 391.723L441.2 394.799L442.728 402.501C443.721 407.424 447.909 410.878 452.693 411.156C447.393 411.474 442.53 407.841 441.478 402.501L439.949 394.799L456.564 391.484Z" fill="#FFE2D7"/>
<path d="M437.234 393.926C437.512 392.576 438.683 391.544 440.053 391.524C441.244 391.484 442.673 391.167 443.745 389.976C445.274 388.288 447.676 387.554 449.899 387.137C452.122 386.7 454.703 387.236 456.092 389.043C457.005 387.871 458.931 387.971 460.102 388.904C461.273 389.837 461.829 391.306 462.285 392.735C463.159 395.573 463.734 398.61 463.079 401.489C462.921 402.223 462.682 402.918 462.424 403.633C461.809 405.419 461.591 407.285 460.896 409.072C460.797 409.31 460.697 409.548 460.499 409.687C460.201 409.885 459.784 409.826 459.487 409.627C459.189 409.409 459.01 409.091 458.851 408.774C458.117 407.206 458.931 406.352 458.871 404.744C458.831 403.891 458.434 402.997 457.68 402.6C456.648 402.084 455.437 402.62 454.306 402.819C451.646 403.295 445.909 400.476 447.556 397.062C443.864 398.055 438.624 398.551 437.234 393.926Z" fill="#4D5068"/>
<path d="M440.05 391.524C441.241 391.484 442.67 391.167 443.742 389.976C445.27 388.288 447.672 387.554 449.895 387.137C452.119 386.7 454.699 387.236 456.089 389.043C457.002 387.871 458.927 387.971 460.098 388.904C460.376 389.122 460.595 389.36 460.813 389.638C459.642 388.745 457.756 388.646 456.843 389.817C455.453 388.03 452.893 387.494 450.65 387.911C448.426 388.348 446.024 389.063 444.496 390.75C443.424 391.941 441.995 392.258 440.804 392.298C439.414 392.338 438.263 393.35 437.985 394.7C438.203 395.454 438.541 396.05 438.938 396.546C438.184 395.951 437.568 395.117 437.211 393.946C437.509 392.576 438.68 391.564 440.05 391.524Z" fill="#717386"/>
<path d="M309.999 148.921C262.095 133.366 210.492 133.366 162.588 148.921C160.813 149.494 159 148.2 159 146.35V76.8428C159 75.6591 159.758 74.6049 160.868 74.2349C209.826 57.9217 262.743 57.9217 311.701 74.2349C312.811 74.6049 313.569 75.6591 313.569 76.8428V146.35C313.569 148.218 311.757 149.513 309.999 148.921Z" fill="black"/>
<path d="M160.813 148.163V78.6369C160.813 77.4532 161.571 76.3989 162.681 76.029C211.62 59.7343 264.518 59.7158 313.44 76.0105C313.181 75.1782 312.552 74.5124 311.701 74.235C262.743 57.9217 209.826 57.9217 160.868 74.235C159.758 74.6049 159 75.6591 159 76.8428V146.35C159 147.608 159.832 148.588 160.924 148.921C160.85 148.68 160.813 148.421 160.813 148.163Z" fill="white"/>
<path d="M304.562 89.198C284.42 82.2991 263.576 78.267 242.602 77.0832V72.2744C263.576 73.4581 284.42 77.4902 304.562 84.3891V89.198Z" fill="white"/>
<path d="M304.562 100.61C284.42 93.711 263.576 89.6789 242.602 88.4952V83.6863C263.576 84.87 284.42 88.9021 304.562 95.801V100.61Z" fill="white"/>
<path d="M304.562 112.022C284.42 105.123 263.576 101.091 242.602 99.9072V95.0983C263.576 96.282 284.42 100.314 304.562 107.213V112.022Z" fill="white"/>
<path d="M304.562 123.434C284.42 116.535 263.576 112.503 242.602 111.319V106.51C263.576 107.694 284.42 111.726 304.562 118.625V123.434Z" fill="white"/>
<path d="M271.9 126.263C262.208 124.469 252.424 123.286 242.621 122.731V117.922C252.424 118.477 262.19 119.642 271.881 121.436L271.9 126.263Z" fill="white"/>
<path d="M178.381 134.291L171.168 136.066V108.304L178.381 106.695V134.291ZM192.142 87.7185L184.929 88.9577V132.959L192.142 131.553V87.7185ZM205.885 92.9528L198.671 93.8591V130.647L205.885 129.574V92.9528ZM219.645 96.4855L212.432 96.726V129.001L219.645 128.594V96.4855ZM233.388 100.777L226.174 100.61V128.391H233.388V100.777Z" fill="url(#paint2_linear)"/>
<path d="M35.8614 238.073C35.3065 227.956 38.4323 202.728 63.8455 197.549L65.6026 293.819C65.6026 293.819 33.1055 306.47 35.436 321.803C35.4175 321.785 36.2868 253.665 35.8614 238.073Z" fill="url(#paint3_linear)"/>
<path d="M105.498 304.917C105.498 304.917 52.8965 269.682 35.418 235.114V324.948C37.8594 344.072 86.8732 388.074 104.907 387.722L105.498 304.917Z" fill="url(#paint4_linear)"/>
<path d="M90.11 312.777C90.11 312.777 48.9939 281.945 35.418 255.348V260.397C46.053 283.11 90.11 316.643 90.11 316.643V312.777Z" fill="url(#paint5_linear)"/>
<path d="M90.11 325.688C90.11 325.688 48.9939 295.724 35.418 269.405V274.454C46.053 296.945 90.11 329.535 90.11 329.535V325.688Z" fill="url(#paint6_linear)"/>
<path d="M90.11 338.597C90.11 338.597 48.9939 309.485 35.418 283.462V288.511C46.053 310.78 90.11 342.445 90.11 342.445V338.597Z" fill="url(#paint7_linear)"/>
<path d="M90.11 351.508C90.11 351.508 48.9939 323.265 35.418 297.518V302.568C46.053 324.615 90.11 355.355 90.11 355.355V351.508Z" fill="url(#paint8_linear)"/>
<path d="M90.11 364.418C90.11 364.418 48.9939 337.025 35.418 311.575V316.625C46.053 338.45 90.11 368.265 90.11 368.265V364.418Z" fill="url(#paint9_linear)"/>
<path d="M35.418 235.114V238.665C56.5401 271.994 104.74 306.082 104.74 306.082V387.593C105.683 387.667 106.257 387.704 106.257 387.704V305.157C106.257 305.157 52.8965 269.682 35.418 235.114Z" fill="url(#paint10_linear)"/>
<path d="M339.693 285.593C341.173 285.593 342.523 284.613 342.93 283.096L344.927 275.661C345.408 273.867 344.354 272.036 342.56 271.555C340.766 271.074 338.935 272.147 338.454 273.923L336.456 281.358C335.975 283.152 337.029 284.983 338.824 285.464C339.119 285.556 339.397 285.593 339.693 285.593Z" fill="#FFCEBD"/>
<path d="M320.866 265.081C321.421 265.081 321.976 264.952 322.475 264.656L329.207 260.938C330.835 260.05 331.427 257.997 330.521 256.388C329.633 254.76 327.58 254.169 325.971 255.075L319.238 258.793C317.611 259.68 317.019 261.733 317.925 263.342C318.535 264.452 319.682 265.081 320.866 265.081Z" fill="#FFCEBD"/>
<path d="M357.318 191.986L338.859 202.455L341.634 222.023L357.318 213.108V191.986Z" fill="white"/>
<path d="M345.939 276.197L357.461 240.426L358.201 202.566C358.257 199.828 356.074 197.572 353.355 197.516C350.618 197.479 348.361 199.643 348.306 202.362L347.603 238.873L338.115 273.349C337.338 275.957 338.374 278.787 341.037 279.397C342.239 279.674 345.291 278.343 345.939 276.197Z" fill="#F0F1FE"/>
<path opacity="0.13" d="M347.659 235.544L348.233 205.987L357.758 220.877L357.462 240.427L353.744 251.931L340.668 264.009L345.884 245.05L350.36 242.591C350.73 242.406 350.896 241.962 350.748 241.592L347.659 235.544Z" fill="#231F20"/>
<path d="M326.425 263.065C327.202 263.065 327.979 262.881 328.7 262.511L354.095 250.137C358.867 247.658 361.068 241.98 359.218 236.949L348.306 202.399C347.362 199.828 343.497 200.531 340.926 201.475C339.409 202.029 337.208 203.971 336.043 209.095C335.155 212.96 333.768 218.158 337.948 222.541L339.742 224.594L349.933 240.371C350.081 240.76 349.915 241.185 349.545 241.37L324.15 255.39C321.727 256.647 320.784 258.811 322.042 261.234C322.929 262.917 324.649 263.065 326.425 263.065Z" fill="#F0F1FE"/>
<path d="M360.551 226.444C360.144 226.666 359.664 226.684 359.257 226.499L343.905 219.471C342.37 218.638 342.352 216.437 343.868 215.568L365.878 202.843C367.358 201.992 369.189 201.992 370.65 202.88L386.279 211.351V211.758C386.279 212.017 386.15 212.257 385.909 212.368L360.551 226.444Z" fill="#FFE0BD"/>
<path d="M360.551 225.63C360.144 225.852 359.664 225.87 359.257 225.685L343.905 218.657C342.37 217.825 342.352 215.624 343.868 214.754L365.878 202.029C367.358 201.178 369.189 201.179 370.65 202.066L386.279 211.351L360.551 225.63Z" fill="#F0F1FE"/>
<path d="M362.089 224.557L348.125 218.324C346.811 217.603 346.774 215.716 348.088 214.958L370.412 202.048L385.949 211.277L362.089 224.557Z" fill="#FB822A"/>
<path d="M376.233 207.43C377.047 207.43 377.842 207.097 378.416 206.431C379.451 205.229 379.341 203.398 378.12 202.362L365.802 191.672C365.395 191.32 365.099 190.876 364.951 190.359L358.181 168.848C357.7 167.331 356.091 166.48 354.556 166.961C353.04 167.442 352.189 169.051 352.67 170.587L359.439 192.097C359.92 193.632 360.808 194.982 362.028 196.037L374.347 206.727C374.883 207.19 375.567 207.43 376.233 207.43Z" fill="#FFCEBD"/>
<path d="M377.174 206.431C378.21 205.229 378.099 203.398 376.878 202.362L364.56 191.672C364.153 191.32 363.857 190.876 363.709 190.358L356.94 168.848C356.625 167.831 355.774 167.128 354.812 166.906C356.255 166.591 357.716 167.405 358.179 168.848L364.948 190.358C365.115 190.858 365.411 191.32 365.799 191.672L378.117 202.362C379.319 203.398 379.449 205.229 378.413 206.431C377.84 207.097 377.044 207.43 376.231 207.43C376.027 207.43 375.824 207.393 375.62 207.356C376.212 207.227 376.748 206.912 377.174 206.431Z" fill="#FFEBE5"/>
<path d="M357.686 180.482C358.019 180.482 358.352 180.426 358.685 180.334C360.423 179.779 361.385 177.929 360.849 176.191L358.592 168.7C358.037 166.961 356.188 166 354.449 166.536C352.711 167.091 351.749 168.94 352.285 170.679L354.542 178.17C354.986 179.594 356.28 180.482 357.686 180.482Z" fill="#4D5068"/>
<path d="M348.656 164.131L340.056 169.088C337.004 170.845 335.117 174.119 335.117 177.652C335.117 177.652 336.06 192.319 336.042 197.22C336.023 201.493 335.117 214.273 335.117 214.273C341.036 218.028 359.55 205.026 359.55 205.026L358.311 187.122L359.55 170.42C359.55 164.834 353.502 161.339 348.656 164.131Z" fill="#4D5068"/>
<path d="M350.12 172.917L350.25 171.419C350.25 171.419 350.694 166.998 350.694 165.722L349.658 157.898H345.016V167.387C345.016 168.663 348.844 172.917 350.12 172.917Z" fill="#FFCEBD"/>
<path d="M390.515 189.952L390.146 189.841C389.813 189.748 389.443 189.785 389.147 189.952L362.698 205.1C362.069 205.451 361.57 206.339 361.57 207.06L359.184 225.057C359.184 225.223 359.276 225.389 359.406 225.482L359.812 225.759L387.168 210.408C387.797 210.056 388.148 208.873 388.148 208.17L390.515 189.952Z" fill="#FFE0BD"/>
<path d="M390.849 190.691C390.849 189.97 390.35 189.674 389.721 190.044L363.031 205.451C362.403 205.802 361.903 206.69 361.903 207.412L359.406 225.019C359.406 225.741 359.906 226.037 360.534 225.667L387.501 210.759C388.13 210.408 388.482 209.224 388.482 208.521L390.849 190.691Z" fill="#F0F1FE"/>
<path d="M377.453 206.45C376.362 206.838 375.16 208.207 374.79 209.502C374.42 210.796 375.012 211.536 376.103 211.166C377.194 210.778 378.397 209.409 378.767 208.114C379.136 206.801 378.545 206.061 377.453 206.45Z" fill="#FB822A"/>
<path opacity="0.2" d="M336.043 197.22C336.061 193.854 335.617 185.864 335.34 181.203L335.876 177.818C336.135 176.246 337.596 175.173 339.187 175.414C340.759 175.673 338.281 191.394 338.281 191.394C337.559 195.944 340.704 201.308 344.477 203.916L352.467 209.465C350.654 210.5 348.657 211.555 346.659 212.461L341.185 208.651C338.947 207.097 337.134 205.063 335.839 202.751C335.95 200.531 336.043 198.497 336.043 197.22Z" fill="#231F20"/>
<path d="M355.407 215.864C356.313 215.864 357.22 215.439 357.775 214.625C358.681 213.312 358.366 211.518 357.053 210.611L344.458 201.863C340.684 199.236 338.705 194.612 339.427 190.062L341.554 176.653C341.813 175.081 340.74 173.601 339.149 173.342C337.577 173.083 336.098 174.156 335.839 175.747L333.712 189.156C332.639 195.87 335.561 202.714 341.147 206.598L353.742 215.346C354.279 215.698 354.852 215.864 355.407 215.864Z" fill="#FFCEBD"/>
<path d="M337.838 186.807C339.484 186.807 340.908 185.587 341.111 183.903L341.999 176.598C342.221 174.785 340.926 173.139 339.132 172.917C337.32 172.695 335.674 173.99 335.452 175.784L334.564 183.09C334.342 184.902 335.637 186.548 337.431 186.77C337.56 186.807 337.69 186.807 337.838 186.807Z" fill="#4D5068"/>
<path d="M353.784 209.908H357.04C357.502 209.908 357.89 209.538 357.89 209.058C357.89 208.595 357.521 208.207 357.04 208.207H353.784C353.322 208.207 352.934 208.577 352.934 209.058C352.952 209.52 353.322 209.908 353.784 209.908Z" fill="#FFCEBD"/>
<path d="M342.831 282.893L343.996 286.814C344.532 288.627 345.494 290.291 346.807 291.66L350.321 295.341L351.579 295.821C352.633 296.228 352.948 297.579 352.171 298.411C350.673 300.02 348.231 300.316 346.4 299.095L331.715 289.348C330.697 288.664 330.402 287.295 331.067 286.259L335.858 281.117L336.783 281.487C336.894 282.19 337.337 282.782 337.966 283.096L339.316 283.762C340.389 284.28 341.684 283.873 342.276 282.837C342.424 282.597 342.757 282.634 342.831 282.893Z" fill="#4D5068"/>
<path d="M342.305 282.837C342.36 282.745 342.434 282.708 342.527 282.689C342.453 282.745 342.379 282.8 342.305 282.837Z" fill="#3A3C4E"/>
<path d="M331.091 286.259L331.923 285.427C331.257 286.463 331.535 287.831 332.57 288.516L347.256 298.263C348.847 299.317 350.9 299.243 352.379 298.133C352.324 298.226 352.268 298.318 352.194 298.392C350.696 300.001 348.255 300.297 346.424 299.077L331.738 289.329C330.721 288.682 330.425 287.295 331.091 286.259Z" fill="#3A3C4E"/>
<path d="M342.132 288.83L341.836 288.053L344.148 287.202C344.24 287.461 344.333 287.72 344.425 287.979L342.132 288.83Z" fill="white"/>
<path d="M344.335 292.677L344.039 291.9L346.314 291.049C346.48 291.253 346.647 291.456 346.813 291.641L346.887 291.715L344.335 292.677Z" fill="white"/>
<path d="M343.237 290.753L342.941 289.977L345.031 289.2C345.161 289.44 345.327 289.681 345.475 289.921L343.237 290.753Z" fill="white"/>
<path d="M340.742 286.148L343.498 285.112L343.738 285.908L341.038 286.906L340.742 286.148Z" fill="white"/>
<path d="M322.875 264.286L320.896 267.874C319.99 269.539 319.472 271.388 319.417 273.275L319.25 278.361L319.787 279.601C320.231 280.636 319.491 281.802 318.362 281.839C316.161 281.913 314.238 280.377 313.831 278.213L310.465 260.901C310.224 259.699 311.02 258.515 312.222 258.275L319.25 258.09L319.639 258.996C319.213 259.551 319.102 260.291 319.324 260.957L319.805 262.381C320.194 263.509 321.377 264.157 322.543 263.842C322.801 263.805 323.005 264.064 322.875 264.286Z" fill="#4D5068"/>
<path d="M322.547 263.879C322.547 263.861 322.547 263.861 322.547 263.879C322.658 263.861 322.732 263.879 322.806 263.935C322.713 263.916 322.639 263.898 322.547 263.879Z" fill="#3A3C4E"/>
<path d="M312.245 258.293H313.411C312.208 258.534 311.432 259.718 311.653 260.92L315.02 278.232C315.39 280.1 316.888 281.506 318.7 281.802C318.608 281.82 318.497 281.839 318.386 281.857C316.185 281.931 314.261 280.396 313.854 278.232L310.488 260.92C310.248 259.718 311.043 258.552 312.245 258.293Z" fill="#3A3C4E"/>
<path d="M318.156 267.967L318.508 267.227L320.746 268.263C320.616 268.503 320.505 268.762 320.394 269.003L318.156 267.967Z" fill="white"/>
<path d="M316.957 272.221L317.308 271.481L319.509 272.498C319.491 272.757 319.454 273.016 319.435 273.275V273.367L316.957 272.221Z" fill="white"/>
<path d="M317.551 270.093L317.902 269.354L319.918 270.297C319.844 270.574 319.77 270.833 319.715 271.111L317.551 270.093Z" fill="white"/>
<path d="M319.101 265.081L321.765 266.321L321.358 267.042L318.75 265.821L319.101 265.081Z" fill="white"/>
<path d="M344.832 165.408L350.121 172.917L345.386 177.374L344.055 166.148L344.832 165.408Z" fill="white"/>
<path d="M350.125 172.917L350.883 164.686L354.73 175.599L350.125 172.917Z" fill="white"/>
<path d="M345.109 165.704L348.753 166.295C355.449 167.387 361.737 162.837 362.828 156.141C363.42 152.516 360.96 149.113 357.335 148.521L348.143 147.023L345.109 165.704Z" fill="#FFCEBD"/>
<path d="M361.815 157.288L362.333 154.051C362.721 151.591 361.056 149.279 358.615 148.891L348.109 147.189L348.128 147.06L359.429 148.891C361.889 149.279 363.553 151.591 363.146 154.051L362.629 157.288C361.722 162.855 356.858 166.758 351.365 166.61C356.525 166.369 360.964 162.559 361.815 157.288Z" fill="#FFEBE5"/>
<path d="M361.896 144.748C363.173 145.654 364.43 146.69 364.597 148.244C364.671 148.983 364.541 149.723 364.412 150.463C364.134 152.183 364.023 153.829 362.969 155.254C362.951 154.477 363.358 150.87 361.656 151.499C360.842 151.795 360.509 152.535 359.936 153.127C359.307 153.774 358.364 154.107 357.457 154.014C355.312 153.755 353.98 151.314 351.853 150.87C351.391 150.778 350.873 150.778 350.447 151.018C350.207 151.147 349.985 151.351 349.819 151.573C348.08 153.829 351.002 156.456 349.726 158.749C349.708 158.786 349.671 158.842 349.634 158.86C349.486 158.934 349.356 158.749 349.301 158.601C348.672 157.011 347.562 156.271 347.211 158.379C347.026 159.619 347.858 164.483 345.897 164.686C343.807 164.89 343.438 161.394 342.846 160.062C342.383 159.027 342.605 157.935 342.291 156.863C341.828 155.291 342.05 153.663 342.272 152.072C342.365 151.406 342.587 150.815 342.494 150.149C342.365 149.261 342.198 148.429 342.254 147.522C342.309 146.394 342.698 145.229 343.53 144.452C344.27 143.768 345.269 143.435 346.23 143.157C346.341 143.12 346.452 143.083 346.545 143.028C346.859 142.806 346.822 142.343 346.933 141.992C347.1 141.493 347.599 141.16 348.117 141.049C348.635 140.938 349.171 141.012 349.689 141.067C351.502 141.308 353.296 141.53 355.127 141.659C356.625 141.77 358.123 142.14 359.381 142.954C359.751 143.194 360.084 143.453 360.435 143.731C360.879 144.045 361.397 144.378 361.896 144.748Z" fill="#FF5722"/>
<path d="M363.599 150.87C363.729 150.13 363.858 149.39 363.784 148.651C363.618 147.097 362.36 146.061 361.084 145.155C360.566 144.785 360.067 144.452 359.604 144.101C359.271 143.823 358.92 143.564 358.55 143.324C357.292 142.51 355.794 142.14 354.296 142.029C352.484 141.9 350.689 141.678 348.858 141.437C348.34 141.363 347.804 141.308 347.305 141.419C347.527 141.215 347.823 141.067 348.119 141.012C348.636 140.901 349.173 140.975 349.691 141.03C351.503 141.271 353.297 141.493 355.128 141.622C356.627 141.733 358.125 142.103 359.382 142.917C359.752 143.157 360.085 143.416 360.437 143.694C360.881 144.045 361.398 144.396 361.916 144.748C363.193 145.654 364.45 146.69 364.617 148.244C364.691 148.983 364.561 149.723 364.432 150.463C364.154 152.183 364.043 153.829 362.989 155.254C362.989 155.013 363.026 154.514 363.026 153.959C363.322 152.979 363.433 151.924 363.599 150.87Z" fill="#FF9A7A"/>
<path d="M344.828 158.046C344.828 159.138 345.716 160.025 346.807 160.025C347.898 160.025 348.786 159.138 348.786 158.046C348.786 156.955 347.898 156.067 346.807 156.067C345.716 156.067 344.828 156.955 344.828 158.046Z" fill="#FFCEBD"/>
<path d="M475.123 187.843C475.123 187.843 479.173 173.823 456.312 167.553V246.105C456.312 246.105 476.88 247.473 475.4 260.753L475.123 187.843Z" fill="#FB822A"/>
<path d="M399.074 231.068C399.074 231.068 464.346 214.107 475.425 185.328V263.509C464.364 292.27 399.074 309.249 399.074 309.249V231.068Z" fill="#FB832A"/>
<path d="M416.09 238.466C416.09 238.466 466.805 225.279 475.406 202.936V207.319C468.692 226.481 416.09 242.11 416.09 242.11V238.466Z" fill="white"/>
<path d="M416.09 250.71C416.09 250.71 466.805 237.523 475.406 215.18V219.563C468.692 238.725 416.09 254.354 416.09 254.354V250.71Z" fill="white"/>
<path d="M416.09 262.936C416.09 262.936 466.805 249.748 475.406 227.406V231.789C468.692 250.951 416.09 266.58 416.09 266.58V262.936Z" fill="white"/>
<path d="M416.09 275.18C416.09 275.18 466.805 261.993 475.406 239.65V244.033C468.692 263.195 416.09 278.824 416.09 278.824V275.18Z" fill="white"/>
<path d="M416.09 287.406C416.09 287.406 466.805 274.218 475.406 251.875V256.259C468.692 275.42 416.09 291.049 416.09 291.049V287.406Z" fill="white"/>
<path d="M475.401 185.328V188.416C462.047 215.883 400.013 232.011 400.013 232.011V308.99C399.402 309.157 399.051 309.249 399.051 309.249V231.068C399.069 231.068 464.341 214.089 475.401 185.328Z" fill="white"/>
<g clip-path="url(#clip0)">
<path d="M161.455 340.597L162.53 350.009C162.588 350.551 162.539 351.094 162.384 351.617L161.106 355.858C160.428 356.952 158.918 357.165 157.969 356.284L155.548 352.779C155.151 352.207 154.918 351.539 154.85 350.852L154.327 341.662C154.269 340.645 155.005 339.764 156.012 339.628L159.615 339.154C160.515 339.028 161.348 339.677 161.455 340.597Z" fill="#4D5068"/>
<path d="M154.899 348.005L154.473 340.79C154.734 340.18 155.296 339.715 155.993 339.619L159.576 339.144C159.779 339.202 159.963 339.299 160.118 339.415L160.757 347.598C160.883 349.264 159.595 350.706 157.92 350.765C156.342 350.832 154.996 349.603 154.899 348.005Z" fill="#FFCEBD"/>
<path d="M157.594 345.226C157.788 345.226 157.991 345.196 158.194 345.148C159.502 344.819 160.286 343.492 159.957 342.185L157.846 333.828C157.516 332.52 156.19 331.736 154.892 332.065C153.585 332.395 152.8 333.721 153.13 335.029L155.241 343.386C155.522 344.49 156.509 345.226 157.594 345.226Z" fill="#FFCEBD"/>
<path d="M166.114 324.56C166.918 324.56 167.712 324.163 168.176 323.427C168.893 322.294 168.554 320.784 167.421 320.067L162.279 316.813C161.146 316.097 159.635 316.436 158.919 317.569C158.202 318.702 158.541 320.212 159.674 320.929L164.816 324.183C165.213 324.444 165.668 324.56 166.114 324.56Z" fill="#FFCEBD"/>
<path d="M161.089 322.362C162.861 322.265 164.004 322.072 164.45 321.064C165.311 319.137 164.779 317.578 162.919 316.571L139.388 303.014C139.262 302.946 139.194 302.811 139.223 302.665L145.44 278.882C145.828 276.8 143.407 274.805 141.334 274.418C139.252 274.03 137.258 275.405 136.87 277.487L131.689 301.271C131.06 304.67 132.677 308.069 135.708 309.725L159.249 321.878C159.84 322.207 160.286 322.401 161.089 322.362Z" fill="#FFD3B4"/>
<path d="M131.689 301.271L136.87 277.487C137.238 275.522 139.039 274.195 140.986 274.379C139.32 274.524 137.887 275.764 137.567 277.487L132.387 301.271C131.757 304.67 133.374 308.069 136.405 309.725L159.947 321.878C160.382 322.12 160.75 322.285 161.244 322.333C161.186 322.333 161.138 322.343 161.08 322.343C160.276 322.381 159.83 322.188 159.249 321.878L135.718 309.734C132.677 308.078 131.06 304.679 131.689 301.271Z" fill="#FFBE8E"/>
<g opacity="0.3">
<path opacity="0.3" d="M144.608 314.325L143.484 309.947V305.377L152.132 310.354L154.011 319.176L144.608 314.325Z" fill="#231F20"/>
</g>
<path d="M156.005 339.376L156.605 339.386C158.513 338.582 159.471 336.442 158.987 334.428L153.574 308.96L154.62 287.539L155.027 286.406C156.576 282.116 155.821 274.844 151.695 273.866C150.504 273.585 150.068 272.355 149.4 272.355C147.096 272.355 145.227 274.224 145.227 276.529V309.948L151.957 336.171C152.412 338.089 154.116 339.376 156.005 339.376Z" fill="#FFD3B4"/>
<path d="M152.402 273.362L137.809 264.995V282.349L146.892 287.597C149.787 289.273 153.409 287.181 153.409 283.84L152.402 273.362Z" fill="#FFD3B4"/>
<path d="M130.567 289.737C130.906 289.921 131.312 289.941 131.661 289.776L144.618 283.85C145.915 283.143 145.935 281.293 144.657 280.557L126.093 269.828C124.844 269.111 123.304 269.121 122.064 269.847L108.875 276.994V277.342C108.875 277.555 108.991 277.759 109.185 277.865L130.567 289.737Z" fill="#FFDDC5"/>
<path d="M130.567 289.04C130.906 289.224 131.312 289.244 131.661 289.079L144.618 283.152C145.915 282.446 145.935 280.596 144.657 279.86L126.093 269.13C124.844 268.414 123.304 268.423 122.064 269.159L108.875 276.994L130.567 289.04Z" fill="#F0F1FE"/>
<path d="M129.26 288.149L141.045 282.891C142.158 282.281 142.178 280.683 141.074 280.044L122.249 269.159L109.137 276.955L129.26 288.149Z" fill="#FB822A"/>
<path d="M135.115 226.483C135.687 225.03 137.236 224.236 138.698 223.684L138.534 224.023C138.892 223.568 139.086 222.987 139.096 222.406C140.819 222.096 142.62 222.096 144.276 222.648C146.552 223.413 148.382 225.147 149.874 227.035C151.365 228.914 152.614 230.996 154.212 232.787C154.89 233.542 155.626 234.249 156.255 235.053C158.909 238.413 159.296 243.401 157.204 247.138C156.352 248.669 154.841 250.092 153.098 249.898C152.508 249.831 151.956 249.588 151.423 249.337C149.699 248.533 148.005 247.642 146.562 246.403C145.128 245.163 143.957 243.536 143.569 241.677C143.356 240.66 143.385 239.614 143.182 238.597C142.959 237.445 142.456 236.37 141.913 235.344C141.41 234.395 140.848 233.446 140.035 232.758C138.815 231.732 137.11 231.354 135.987 230.221C135.038 229.262 134.622 227.742 135.115 226.483Z" fill="url(#paint11_linear)"/>
<path d="M123.349 278.32C124.105 278.32 124.85 277.972 125.325 277.313L136.548 261.771L142.058 241.561C142.407 240.263 141.642 238.927 140.344 238.568C139.047 238.21 137.71 238.985 137.352 240.282L132.074 259.64L121.374 274.456C120.589 275.551 120.832 277.071 121.926 277.855C122.362 278.165 122.855 278.32 123.349 278.32Z" fill="#FFCEBD"/>
<path d="M121.375 274.456L132.076 259.64L137.353 240.282C137.682 239.091 138.835 238.355 140.026 238.52C139.106 238.665 138.312 239.324 138.05 240.282L132.773 259.64L122.072 274.456C121.288 275.551 121.53 277.071 122.624 277.855C122.944 278.088 123.292 278.223 123.651 278.282C123.554 278.291 123.457 278.32 123.35 278.32C122.857 278.32 122.353 278.175 121.927 277.855C120.842 277.071 120.591 275.551 121.375 274.456Z" fill="#FFEBE5"/>
<path d="M138.08 248.843C139.301 248.843 140.424 248.029 140.763 246.79L142.39 241.648C142.796 240.166 141.915 238.636 140.434 238.229C138.952 237.823 137.422 238.704 137.015 240.186L135.388 245.328C134.982 246.809 135.863 248.339 137.344 248.746C137.587 248.814 137.838 248.843 138.08 248.843Z" fill="#FF5722"/>
<path d="M154.476 244.708L143.436 238.133C140.667 236.486 137.161 238.481 137.161 241.696V247.933L135.718 250.218C135.321 250.847 135.292 251.642 135.641 252.3L137.161 255.176C137.161 255.176 137.849 265.731 137.161 272.646C137.161 272.646 146.903 281.739 155.706 280.335C155.706 280.335 154.776 268.472 154.902 265.896C155.405 256.299 157.778 250.518 157.778 250.518C157.788 248.136 156.529 245.928 154.476 244.708Z" fill="#FF5722"/>
<path opacity="0.2" d="M135.718 250.218L137.161 247.933V245.521C137.161 242.965 137.858 247.933 137.858 247.933L136.415 250.218C136.018 250.847 135.989 251.641 136.338 252.3L137.858 255.176C137.858 255.176 138.188 266.032 137.5 272.955L137.161 272.655C137.849 265.731 137.161 255.186 137.161 255.186L135.641 252.31C135.292 251.651 135.321 250.847 135.718 250.218Z" fill="#FFBFAD"/>
<path opacity="0.25" d="M154.495 258.401C153.508 259.359 152.065 259.669 151.222 259.776C150.874 259.815 150.661 260.183 150.786 260.512L153.692 267.997L154.495 258.401Z" fill="#4D5068"/>
<path d="M146.961 239.924H150.515V223.994H142.245C139.495 223.994 137.277 226.222 137.277 228.962V230.231C137.268 235.586 141.606 239.924 146.961 239.924Z" fill="#FFCEBD"/>
<path d="M141.335 223.994H142.032C139.785 223.994 137.975 225.815 137.975 228.052V230.628C137.975 235.76 142.139 239.924 147.271 239.924H146.574C141.441 239.924 137.277 235.76 137.277 230.628V228.052C137.268 225.815 139.088 223.994 141.335 223.994Z" fill="#FFEBE5"/>
<path d="M148.548 242.684C149.632 242.684 150.504 241.803 150.504 240.728V232.719H146.582V240.738C146.592 241.812 147.473 242.684 148.548 242.684Z" fill="#FFCEBD"/>
<path d="M137.85 280.615C138.276 280.615 138.702 280.509 139.089 280.276L151.63 272.868C155.348 270.67 157.837 266.806 158.311 262.516L159.764 249.153C159.909 247.816 158.941 246.616 157.605 246.47C156.278 246.315 155.067 247.293 154.922 248.63L153.47 261.993C153.169 264.763 151.552 267.261 149.16 268.675L136.62 276.083C135.458 276.771 135.08 278.262 135.758 279.415C136.203 280.189 137.017 280.615 137.85 280.615Z" fill="#FFCEBD"/>
<path d="M156.71 258.159C158.114 258.159 159.314 257.103 159.469 255.68L160.109 249.191C160.273 247.661 159.169 246.286 157.639 246.122C156.109 245.957 154.734 247.061 154.569 248.591L153.93 255.079C153.766 256.609 154.87 257.984 156.4 258.149C156.506 258.159 156.603 258.159 156.71 258.159Z" fill="#FF5722"/>
<path d="M136.877 222.387C137.013 221.612 138.756 220.866 139.395 220.508C140.519 219.869 141.7 219.346 142.93 218.949C145.273 218.184 147.762 217.864 150.222 218.048C153.185 218.271 155.296 218.794 156.797 221.69C157.814 223.646 158.288 225.883 159.499 227.723C160.089 228.613 160.854 229.408 161.281 230.386C162.104 232.264 161.571 234.433 161.261 236.467C160.622 240.708 162.83 241.841 165.009 244.892C166.268 246.654 166.461 249.124 165.483 251.06C164.505 252.997 162.414 254.314 160.244 254.353C157.3 254.401 154.899 252.242 153.553 249.802C152.914 248.649 152.817 247.206 152.187 246.122C151.316 244.611 149.96 243.73 149.718 241.841C149.621 241.086 149.718 240.311 149.776 239.556C149.921 237.687 149.776 235.625 148.508 234.24C148.13 233.833 147.675 233.504 147.278 233.116C146 231.867 145.389 229.96 145.709 228.197C145.767 227.848 145.864 227.49 145.748 227.151C145.544 226.56 144.808 226.377 144.179 226.289C142.155 226.009 140.228 225.979 138.398 224.972C137.923 224.682 137.41 224.391 137.158 223.897C137.052 223.684 136.994 223.442 136.945 223.21C136.887 222.939 136.829 222.658 136.877 222.387Z" fill="url(#paint12_linear)"/>
<path d="M136.877 222.387C137.013 221.612 138.756 220.866 139.395 220.508C140.519 219.869 141.7 219.346 142.93 218.949C143.065 218.901 143.201 218.872 143.336 218.823C142.339 219.191 141.371 219.627 140.441 220.159C139.812 220.518 138.059 221.263 137.923 222.038C137.875 222.309 137.933 222.59 137.991 222.861C138.039 223.094 138.098 223.336 138.204 223.549C138.456 224.043 138.969 224.333 139.444 224.595C141.274 225.602 143.201 225.631 145.225 225.912C145.845 225.999 146.581 226.183 146.794 226.773C146.91 227.103 146.813 227.471 146.755 227.819C146.435 229.582 147.045 231.489 148.324 232.739C148.721 233.126 149.176 233.455 149.553 233.862C150.822 235.247 150.967 237.309 150.822 239.178C150.764 239.943 150.667 240.708 150.764 241.464C151.006 243.352 152.362 244.224 153.233 245.744C153.863 246.829 153.96 248.271 154.599 249.424C155.954 251.874 158.346 254.024 161.29 253.975C161.716 253.966 162.133 253.898 162.549 253.801C161.823 254.12 161.048 254.314 160.254 254.324C157.31 254.372 154.909 252.213 153.563 249.772C152.923 248.62 152.827 247.177 152.197 246.093C151.326 244.582 149.97 243.701 149.728 241.812C149.631 241.057 149.728 240.282 149.786 239.527C149.931 237.658 149.786 235.595 148.517 234.211C148.14 233.804 147.685 233.475 147.287 233.087C146.009 231.838 145.399 229.93 145.719 228.168C145.777 227.819 145.874 227.461 145.757 227.122C145.554 226.531 144.818 226.347 144.189 226.26C142.165 225.979 140.238 225.95 138.407 224.943C137.923 224.682 137.41 224.391 137.158 223.897C137.052 223.684 136.994 223.442 136.945 223.21C136.887 222.939 136.829 222.658 136.877 222.387Z" fill="#FEDC9E"/>
<path d="M105.27 258.943L105.57 258.856C105.851 258.778 106.16 258.807 106.412 258.953L128.733 271.726C129.256 272.026 129.692 272.771 129.692 273.372L131.706 288.556C131.706 288.701 131.638 288.837 131.522 288.914L131.183 289.147L108.107 276.209C107.584 275.909 107.284 274.921 107.284 274.311L105.27 258.943Z" fill="#FFE0BD"/>
<path d="M105 259.553C105 258.953 105.426 258.701 105.949 259.002L128.473 272.007C128.996 272.307 129.432 273.053 129.432 273.653L131.543 288.508C131.543 289.108 131.117 289.36 130.594 289.06L107.837 276.49C107.314 276.19 107.014 275.202 107.014 274.592L105 259.553Z" fill="#F0F1FE"/>
<path d="M116.303 272.859C117.232 273.178 118.24 274.34 118.559 275.435C118.869 276.529 118.375 277.158 117.455 276.839C116.535 276.519 115.518 275.357 115.199 274.263C114.879 273.159 115.373 272.529 116.303 272.859Z" fill="#FB822A"/>
<path d="M167.972 320.503L172.223 322.449C172.717 322.672 172.949 323.243 172.755 323.747L166.045 341.129C164.912 340.916 164.098 339.919 164.118 338.766L165.531 324.56L167.972 320.503Z" fill="#FFCEBD"/>
<path d="M168.543 320.764C168.543 320.755 169.967 321.423 169.976 321.423L172.223 322.449C172.717 322.672 172.949 323.243 172.755 323.747L166.045 341.129C164.912 340.916 164.098 339.919 164.118 338.766L164.853 331.397C168.059 328.414 168.543 320.764 168.543 320.764Z" fill="#4D5068"/>
<path d="M136.49 275.735H139.386C139.773 275.735 140.083 275.425 140.083 275.037C140.083 274.65 139.773 274.34 139.386 274.34H136.49C136.103 274.34 135.793 274.65 135.793 275.037C135.783 275.425 136.103 275.735 136.49 275.735Z" fill="#FFCEBD"/>
<path d="M143.166 233.785C141.994 233.107 141.035 231.451 141.035 230.095C141.035 229.369 141.297 228.807 141.781 228.536C142.265 228.255 142.875 228.304 143.514 228.662C144.686 229.34 145.645 230.996 145.645 232.351C145.645 233.078 145.373 233.639 144.889 233.92C144.686 234.036 144.454 234.094 144.202 234.094C143.872 234.094 143.524 233.988 143.166 233.785ZM143.166 229.272C142.759 229.039 142.381 228.991 142.129 229.136C141.868 229.282 141.732 229.63 141.732 230.095C141.732 231.209 142.546 232.622 143.514 233.174C143.921 233.407 144.289 233.455 144.55 233.31C144.802 233.165 144.957 232.816 144.957 232.342C144.947 231.238 144.134 229.824 143.166 229.272Z" fill="#4D5068"/>
<path d="M138.136 233.814C137.051 233.184 136.199 231.722 136.199 230.463C136.199 229.795 136.441 229.282 136.887 229.03C137.332 228.768 137.894 228.817 138.485 229.146C139.569 229.766 140.421 231.238 140.421 232.497C140.421 233.165 140.17 233.678 139.724 233.94C139.53 234.046 139.317 234.104 139.085 234.104C138.785 234.095 138.465 233.998 138.136 233.814ZM138.136 229.746C137.787 229.543 137.458 229.504 137.235 229.63C137.013 229.756 136.896 230.066 136.896 230.463C136.896 231.451 137.623 232.71 138.485 233.204C138.833 233.407 139.162 233.446 139.375 233.32C139.598 233.194 139.724 232.884 139.724 232.477C139.724 231.499 138.998 230.24 138.136 229.746Z" fill="#4D5068"/>
<path d="M145.692 230.086L144.758 230.342L144.941 231.014L145.876 230.759L145.692 230.086Z" fill="#4D5068"/>
<path d="M141.509 231.451L141.848 230.841C141.741 230.783 140.744 230.25 140.076 230.521C139.814 230.628 139.63 230.831 139.543 231.122L140.211 231.325C140.24 231.218 140.289 231.189 140.337 231.17C140.599 231.063 141.189 231.277 141.509 231.451Z" fill="#4D5068"/>
</g>
<path d="M444.77 162.615C444.77 165.334 442.846 166.425 440.516 165.038L390.836 135.629C388.487 134.242 386.545 130.876 386.526 128.157L386.083 87.2074C386.046 84.4885 387.951 83.3788 390.3 84.7659L440.516 114.248C442.865 115.635 444.788 118.983 444.788 121.702V162.615H444.77Z" fill="#F0F1FE"/>
<path d="M443.269 163.613V122.682C443.269 119.963 441.346 116.597 438.997 115.228L388.799 85.7462C387.967 85.2653 387.19 85.0804 386.543 85.1729C387.246 84.0261 388.651 83.7857 390.279 84.7475L440.495 114.23C442.844 115.617 444.768 118.965 444.768 121.684V162.615C444.768 164.372 443.972 165.426 442.789 165.611C443.103 165.112 443.269 164.446 443.269 163.613Z" fill="#FFF7F1"/>
<path d="M386.234 101.93C386.234 102.374 388.232 104.131 388.565 104.575C389.305 105.537 390.1 106.48 390.821 107.442C392.172 109.273 392.597 111.825 393.818 113.823C395.02 115.783 396.74 117.503 398.904 118.299C400.384 118.835 401.993 118.928 403.565 119.057C405.137 119.186 406.765 119.408 408.133 120.185C410.982 121.776 411.259 125.974 412.11 128.786C412.517 130.117 412.924 131.486 413.812 132.559C414.681 133.595 415.92 134.261 417.141 134.852C418.306 135.407 419.49 135.962 420.747 136.24C423.189 136.794 425.741 136.406 428.238 136.702C431.956 137.127 435.452 139.125 437.708 142.121C438.54 143.231 439.206 144.47 439.928 145.654C441.056 147.541 442.314 149.316 443.682 151.036C444.829 152.497 444.792 153.163 444.736 154.939C444.662 157.491 444.736 160.044 444.736 162.596C444.736 165.315 442.813 166.406 440.482 165.019L390.84 135.629C388.491 134.242 386.549 130.876 386.53 128.157L386.234 101.93Z" fill="url(#paint13_linear)"/>
<path d="M444.696 163.466C444.677 163.521 444.677 163.595 444.659 163.651C444.603 163.891 444.529 164.113 444.437 164.316C444.419 164.353 444.4 164.39 444.382 164.409C444.289 164.575 444.197 164.723 444.086 164.853C444.049 164.89 444.012 164.945 443.975 164.982C443.845 165.112 443.697 165.241 443.549 165.334C443.494 165.371 443.438 165.389 443.383 165.408C443.253 165.463 443.124 165.519 442.976 165.556C442.92 165.574 442.865 165.593 442.791 165.593C442.772 165.593 442.772 165.593 442.754 165.593C443.068 165.093 443.253 164.409 443.253 163.595V145.543C443.401 145.728 443.531 145.932 443.679 146.117C444.456 147.097 444.677 147.726 444.733 148.558V154.939C444.659 157.491 444.733 160.044 444.733 162.596C444.77 162.929 444.733 163.207 444.696 163.466Z" fill="#FFE1B5"/>
<path opacity="0.14" d="M97.8103 153.996C97.8103 155.198 96.83 156.178 95.6278 156.178C94.4256 156.178 93.4453 155.198 93.4453 153.996C93.4453 152.794 94.4256 151.813 95.6278 151.813C96.8485 151.813 97.8103 152.794 97.8103 153.996Z" fill="url(#paint14_linear)"/>
<path opacity="0.14" d="M6.95875 301.259C6.95875 302.461 5.97847 303.441 4.77625 303.441C3.57402 303.441 2.59375 302.461 2.59375 301.259C2.59375 300.057 3.57402 299.076 4.77625 299.076C5.97847 299.076 6.95875 300.057 6.95875 301.259Z" fill="url(#paint15_linear)"/>
<path opacity="0.14" d="M240.857 236.006C240.857 237.208 239.877 238.188 238.675 238.188C237.472 238.188 236.492 237.208 236.492 236.006C236.492 234.804 237.472 233.823 238.675 233.823C239.877 233.823 240.857 234.804 240.857 236.006Z" fill="url(#paint16_linear)"/>
<path opacity="0.14" d="M378.795 29.0382C378.795 30.2404 377.814 31.2207 376.612 31.2207C375.41 31.2207 374.43 30.2404 374.43 29.0382C374.43 27.836 375.41 26.8557 376.612 26.8557C377.814 26.8557 378.795 27.836 378.795 29.0382Z" fill="url(#paint17_linear)"/>
<path opacity="0.14" d="M285.779 95.697C285.779 96.8992 284.799 97.8795 283.597 97.8795C282.394 97.8795 281.414 96.8992 281.414 95.697C281.414 94.4947 282.394 93.5145 283.597 93.5145C284.799 93.5145 285.779 94.4947 285.779 95.697Z" fill="url(#paint18_linear)"/>
<path opacity="0.14" d="M113.131 447.635C113.131 448.837 112.15 449.817 110.948 449.817C109.746 449.817 108.766 448.837 108.766 447.635C108.766 446.432 109.746 445.452 110.948 445.452C112.15 445.434 113.131 446.414 113.131 447.635Z" fill="url(#paint19_linear)"/>
<path opacity="0.14" d="M226.91 20.3083C226.91 21.3625 226.059 22.2318 224.986 22.2318C223.932 22.2318 223.062 21.381 223.062 20.3083C223.062 19.254 223.913 18.3847 224.986 18.3847C226.059 18.4032 226.91 19.254 226.91 20.3083Z" fill="url(#paint20_linear)"/>
<path opacity="0.14" d="M290.113 300.427C290.113 301.481 289.262 302.35 288.189 302.35C287.135 302.35 286.266 301.499 286.266 300.427C286.266 299.372 287.116 298.503 288.189 298.503C289.243 298.521 290.113 299.372 290.113 300.427Z" fill="url(#paint21_linear)"/>
<path opacity="0.14" d="M465.039 386.229C465.039 387.283 464.188 388.152 463.115 388.152C462.061 388.152 461.191 387.301 461.191 386.229C461.191 385.174 462.042 384.305 463.115 384.305C464.169 384.305 465.039 385.174 465.039 386.229Z" fill="url(#paint22_linear)"/>
<path opacity="0.14" d="M380.718 470.162C380.718 471.217 379.867 472.086 378.795 472.086C377.74 472.086 376.871 471.235 376.871 470.162C376.871 469.108 377.722 468.239 378.795 468.239C379.849 468.257 380.718 469.108 380.718 470.162Z" fill="url(#paint23_linear)"/>
<path opacity="0.14" d="M488.324 69.877C488.324 70.9313 487.473 71.8005 486.4 71.8005C485.346 71.8005 484.477 70.9497 484.477 69.877C484.477 68.8227 485.327 67.9534 486.4 67.9534C487.454 67.9719 488.324 68.8227 488.324 69.877Z" fill="url(#paint24_linear)"/>
<path opacity="0.14" d="M469.998 340.951C469.998 341.672 469.406 342.264 468.684 342.264C467.963 342.264 467.371 341.672 467.371 340.951C467.371 340.229 467.963 339.638 468.684 339.638C469.406 339.638 469.998 340.229 469.998 340.951Z" fill="url(#paint25_linear)"/>
<path opacity="0.14" d="M281.845 450.668C281.845 451.389 281.253 451.981 280.532 451.981C279.811 451.981 279.219 451.389 279.219 450.668C279.219 449.947 279.811 449.355 280.532 449.355C281.253 449.355 281.845 449.928 281.845 450.668Z" fill="url(#paint26_linear)"/>
<path opacity="0.14" d="M174.822 58.761C174.822 59.4823 174.23 60.0741 173.509 60.0741C172.787 60.0741 172.195 59.4823 172.195 58.761C172.195 58.0396 172.787 57.4478 173.509 57.4478C174.23 57.4478 174.822 58.0396 174.822 58.761Z" fill="url(#paint27_linear)"/>
<path opacity="0.14" d="M56.153 393.849C56.8783 393.849 57.4662 393.261 57.4662 392.536C57.4662 391.81 56.8783 391.222 56.153 391.222C55.4278 391.222 54.8398 391.81 54.8398 392.536C54.8398 393.261 55.4278 393.849 56.153 393.849Z" fill="url(#paint28_linear)"/>
<path opacity="0.14" d="M129.509 31.5352C129.509 32.2566 128.917 32.8484 128.196 32.8484C127.475 32.8484 126.883 32.2566 126.883 31.5352C126.883 30.8139 127.475 30.222 128.196 30.222C128.917 30.222 129.509 30.8139 129.509 31.5352Z" fill="url(#paint29_linear)"/>
<path opacity="0.14" d="M294.013 219.619C294.013 220.34 293.421 220.932 292.7 220.932C291.979 220.932 291.387 220.34 291.387 219.619C291.387 218.897 291.979 218.305 292.7 218.305C293.421 218.305 294.013 218.897 294.013 219.619Z" fill="url(#paint30_linear)"/>
<path opacity="0.14" d="M323.669 327.005C324.394 327.005 324.982 326.417 324.982 325.692C324.982 324.966 324.394 324.379 323.669 324.379C322.943 324.379 322.355 324.966 322.355 325.692C322.355 326.417 322.943 327.005 323.669 327.005Z" fill="url(#paint31_linear)"/>
<path opacity="0.14" d="M89.5248 427.308C89.5248 428.029 88.933 428.621 88.2116 428.621C87.4903 428.621 86.8984 428.029 86.8984 427.308C86.8984 426.586 87.4903 425.995 88.2116 425.995C88.933 425.995 89.5248 426.586 89.5248 427.308Z" fill="url(#paint32_linear)"/>
<path opacity="0.14" d="M296.032 2.6264C296.757 2.6264 297.345 2.03846 297.345 1.3132C297.345 0.58794 296.757 0 296.032 0C295.307 0 294.719 0.58794 294.719 1.3132C294.719 2.03846 295.307 2.6264 296.032 2.6264Z" fill="url(#paint33_linear)"/>
<path d="M66.2772 134.501L44.1562 121.85L71.9924 105.777L100.124 122.035L83.0344 131.542L77.985 134.464C74.3598 136.554 69.9024 136.573 66.2772 134.501Z" fill="#F0F1FE"/>
<path d="M52.5156 121.998L73.0459 110.216L75.2469 111.492L54.7166 123.274L52.5156 121.998Z" fill="#FB822A"/>
<path d="M57.3594 124.809L77.8897 113.028L80.1092 114.304L59.5604 126.086L57.3594 124.809Z" fill="#FB822A"/>
<path d="M62.2148 127.639L82.7451 115.839L84.9646 117.133L64.4343 128.915L62.2148 127.639Z" fill="#FB822A"/>
<path d="M67.0742 130.451L87.6045 118.669L89.8055 119.945L69.2752 131.727L67.0742 130.451Z" fill="#FB822A"/>
<path d="M74.6758 122.941C74.6758 122.941 82.333 130.543 77.5981 134.686L108.061 118.151L74.6758 122.941Z" fill="#FFF7F1"/>
<path d="M273.894 265.932L292.482 269.428L284.473 246.955L260.762 242.627L265.848 256.222L267.291 260.291C268.345 263.232 270.86 265.359 273.894 265.932Z" fill="#F0F1FE"/>
<path d="M287.692 265.507L281.755 248.971L279.887 248.62L285.824 265.155L287.692 265.507Z" fill="#FB822A"/>
<path d="M283.598 264.767L277.661 248.232L275.793 247.88L281.73 264.415L283.598 264.767Z" fill="#FB822A"/>
<path d="M279.497 264.027L273.559 247.492L271.691 247.14L277.629 263.675L279.497 264.027Z" fill="#FB822A"/>
<path d="M275.407 263.287L269.47 246.752L267.602 246.401L273.539 262.936L275.407 263.287Z" fill="#FB822A"/>
<path d="M274.706 255.371C274.706 255.371 266.716 255.981 267.419 260.605L258.152 236.616L274.706 255.371Z" fill="#FFF7F1"/>
<path d="M208.013 446.895L224.437 437.517L203.777 425.588L182.914 437.647L195.602 444.712L199.357 446.876C202.02 448.43 205.331 448.43 208.013 446.895Z" fill="#F0F1FE"/>
<path d="M218.238 437.628L202.998 428.88L201.352 429.842L216.592 438.572L218.238 437.628Z" fill="#FB822A"/>
<path d="M214.626 439.718L199.385 430.97L197.758 431.932L212.98 440.662L214.626 439.718Z" fill="#FB822A"/>
<path d="M211.024 441.809L195.802 433.06L194.156 434.022L209.397 442.752L211.024 441.809Z" fill="#FB822A"/>
<path d="M207.437 443.899L192.197 435.15L190.551 436.112L205.791 444.842L207.437 443.899Z" fill="#FB822A"/>
<path d="M201.778 438.331C201.778 438.331 196.099 443.972 199.614 447.043L177.012 434.761L201.778 438.331Z" fill="#FFF7F1"/>
<path d="M520.32 310.229L520.56 282.523L490.227 299.872L490.098 335.199L508.39 324.342L513.883 321.197C517.823 318.941 520.264 314.761 520.32 310.229Z" fill="#F6F6FE"/>
<path d="M516.117 290.439L493.811 303.275L493.793 306.049L516.099 293.213L516.117 290.439Z" fill="#FB822A"/>
<path d="M516.098 296.542L493.792 309.379L493.773 312.153L516.098 299.317V296.542Z" fill="#FB822A"/>
<path d="M516.098 302.646L493.773 315.482V318.257L516.079 305.42L516.098 302.646Z" fill="#FB822A"/>
<path d="M516.074 308.75L493.769 321.567L493.75 324.342L516.074 311.524V308.75Z" fill="#FB822A"/>
<path d="M504.852 311.783C504.852 311.783 507.793 323.139 514.266 320.957L482.047 340.507L504.852 311.783Z" fill="#FFF7F1"/>
<path d="M511.013 241.869C511.401 242.091 511.753 241.925 512.049 241.37C512.345 240.815 512.493 239.982 512.493 238.891C512.493 236.505 511.901 234.193 510.717 231.955C509.533 229.717 507.943 228.034 505.964 226.906C503.985 225.778 502.302 225.63 500.951 226.499C499.601 227.368 498.917 228.94 498.917 231.234C498.917 233.527 499.564 235.802 500.84 238.04C502.117 240.297 503.707 241.962 505.594 243.034C507.073 243.885 508.368 243.996 509.496 243.386L510.403 245.698C509.811 245.957 509.071 246.012 508.165 245.846C507.258 245.698 506.408 245.383 505.594 244.921C503.152 243.534 501.118 241.425 499.472 238.595C497.826 235.765 497.012 232.954 497.012 230.124C497.012 227.294 497.881 225.371 499.601 224.354C501.34 223.336 503.411 223.521 505.853 224.927C508.294 226.314 510.329 228.441 511.975 231.308C513.602 234.175 514.435 237.042 514.435 239.908C514.435 241.777 514.102 243.071 513.436 243.811C512.77 244.551 511.901 244.625 510.81 243.996C510.255 243.682 509.755 243.201 509.293 242.553C508.83 241.906 508.516 241.222 508.331 240.537C507.536 241.277 506.5 241.296 505.279 240.593C504.04 239.89 502.967 238.743 502.061 237.134C501.155 235.525 500.692 233.897 500.692 232.233C500.692 230.568 501.099 229.403 501.932 228.737C502.764 228.071 503.837 228.108 505.187 228.885C505.631 229.144 506.075 229.495 506.482 229.958C506.888 230.42 507.184 230.809 507.351 231.123L507.628 231.622V230.587L510.366 232.159V240.241C510.366 241.074 510.569 241.61 511.013 241.869ZM507.647 236.117C507.647 235.266 507.443 234.452 507.073 233.675C506.685 232.899 506.186 232.325 505.557 231.974C504.928 231.622 504.429 231.604 504.059 231.955C503.689 232.307 503.504 232.88 503.504 233.694C503.504 234.508 503.689 235.34 504.059 236.154C504.429 236.968 504.946 237.559 505.575 237.929C506.223 238.299 506.722 238.299 507.092 237.929C507.462 237.559 507.647 236.968 507.647 236.117Z" fill="#FFD3B4"/>
<path d="M155.222 339.823L144.291 340.951C143.033 341.08 141.461 339.416 141.461 337.973V325.359C141.461 323.898 143.033 323.731 144.291 325.063L155.222 336.549C156.479 337.881 156.479 339.693 155.222 339.823L144.291 340.951C143.033 341.08 141.461 339.416 141.461 337.973V325.359C141.461 323.898 143.033 323.731 144.291 325.063L155.222 336.549C156.479 337.881 156.479 339.693 155.222 339.823Z" fill="#FE5E31"/>
<path d="M415.405 354.934C415.331 354.878 415.257 354.823 415.165 354.786C411.059 352.418 407.711 354.36 407.711 359.114C407.711 359.41 407.729 359.706 407.748 360.001L415.387 364.33V354.934H415.405Z" fill="#FFD3B4"/>
<path d="M416.345 355.377V365.902L407.781 361.056C408.207 366.16 411.795 372.079 416.104 374.558C420.71 377.221 424.464 375.038 424.446 369.712C424.446 364.477 420.821 358.115 416.345 355.377Z" fill="url(#paint34_linear)"/>
<path d="M20.4463 192.134C20.9642 191.727 21.2786 190.987 21.2786 189.988C21.2786 187.751 19.688 184.995 17.7459 183.866C15.8039 182.738 14.2317 183.663 14.2317 185.901C14.2317 187.436 14.9716 189.193 16.0443 190.506C14.1208 191.413 12.7891 193.355 12.7891 195.611V197.017L23.2947 203.157V200.309C23.3132 197.331 22.2774 194.446 20.4463 192.134Z" fill="#4D5068"/>
<defs>
<linearGradient id="paint0_linear" x1="451.877" y1="484.32" x2="409.563" y2="484.32" gradientUnits="userSpaceOnUse">
<stop stop-color="#FEC55E"/>
<stop offset="1" stop-color="#FF5722"/>
</linearGradient>
<linearGradient id="paint1_linear" x1="464.052" y1="491.203" x2="421.738" y2="491.203" gradientUnits="userSpaceOnUse">
<stop stop-color="#FEC55E"/>
<stop offset="1" stop-color="#FF5722"/>
</linearGradient>
<linearGradient id="paint2_linear" x1="171.168" y1="87.7185" x2="237.635" y2="94.512" gradientUnits="userSpaceOnUse">
<stop stop-color="#FF8212"/>
<stop offset="1" stop-color="#ED4454"/>
</linearGradient>
<linearGradient id="paint3_linear" x1="35.3164" y1="197.549" x2="67.9957" y2="198.181" gradientUnits="userSpaceOnUse">
<stop stop-color="#FF8212"/>
<stop offset="1" stop-color="#ED4454"/>
</linearGradient>
<linearGradient id="paint4_linear" x1="35.418" y1="235.114" x2="110.964" y2="237.869" gradientUnits="userSpaceOnUse">
<stop stop-color="#FF8212"/>
<stop offset="1" stop-color="#ED4454"/>
</linearGradient>
<linearGradient id="paint5_linear" x1="35.418" y1="255.348" x2="100.963" y2="270.898" gradientUnits="userSpaceOnUse">
<stop offset="0.197917" stop-color="white"/>
<stop offset="1" stop-color="#FB822A"/>
</linearGradient>
<linearGradient id="paint6_linear" x1="35.418" y1="269.405" x2="100.826" y2="285.224" gradientUnits="userSpaceOnUse">
<stop offset="0.197917" stop-color="white"/>
<stop offset="1" stop-color="#FB822A"/>
</linearGradient>
<linearGradient id="paint7_linear" x1="35.418" y1="283.462" x2="100.685" y2="299.553" gradientUnits="userSpaceOnUse">
<stop offset="0.197917" stop-color="white"/>
<stop offset="1" stop-color="#FB822A"/>
</linearGradient>
<linearGradient id="paint8_linear" x1="35.418" y1="297.518" x2="100.535" y2="313.891" gradientUnits="userSpaceOnUse">
<stop offset="0.197917" stop-color="white"/>
<stop offset="1" stop-color="#FB822A"/>
</linearGradient>
<linearGradient id="paint9_linear" x1="35.418" y1="311.575" x2="100.377" y2="328.239" gradientUnits="userSpaceOnUse">
<stop offset="0.197917" stop-color="white"/>
<stop offset="1" stop-color="#FB822A"/>
</linearGradient>
<linearGradient id="paint10_linear" x1="35.418" y1="235.114" x2="111.779" y2="237.929" gradientUnits="userSpaceOnUse">
<stop stop-color="#FF8212"/>
<stop offset="1" stop-color="#ED4454"/>
</linearGradient>
<linearGradient id="paint11_linear" x1="158.551" y1="236.058" x2="134.906" y2="236.058" gradientUnits="userSpaceOnUse">
<stop stop-color="#FEC55E"/>
<stop offset="1" stop-color="#FF5722"/>
</linearGradient>
<linearGradient id="paint12_linear" x1="166.111" y1="236.174" x2="136.861" y2="236.174" gradientUnits="userSpaceOnUse">
<stop stop-color="#FEC55E"/>
<stop offset="1" stop-color="#FF5722"/>
</linearGradient>
<linearGradient id="paint13_linear" x1="386.234" y1="101.93" x2="449.072" y2="106.516" gradientUnits="userSpaceOnUse">
<stop stop-color="#FF8212"/>
<stop offset="1" stop-color="#ED4454"/>
</linearGradient>
<linearGradient id="paint14_linear" x1="93.4425" y1="153.997" x2="97.8192" y2="153.997" gradientUnits="userSpaceOnUse">
<stop stop-color="#E040FB"/>
<stop offset="0.00728542" stop-color="#E040F9"/>
<stop offset="0.3718" stop-color="#ED4DA4"/>
<stop offset="0.6698" stop-color="#F65666"/>
<stop offset="0.8866" stop-color="#FC5C40"/>
<stop offset="1" stop-color="#FE5E31"/>
</linearGradient>
<linearGradient id="paint15_linear" x1="2.58635" y1="301.262" x2="6.963" y2="301.262" gradientUnits="userSpaceOnUse">
<stop stop-color="#E040FB"/>
<stop offset="0.00728542" stop-color="#E040F9"/>
<stop offset="0.3718" stop-color="#ED4DA4"/>
<stop offset="0.6698" stop-color="#F65666"/>
<stop offset="0.8866" stop-color="#FC5C40"/>
<stop offset="1" stop-color="#FE5E31"/>
</linearGradient>
<linearGradient id="paint16_linear" x1="236.486" y1="236.006" x2="240.863" y2="236.006" gradientUnits="userSpaceOnUse">
<stop stop-color="#E040FB"/>
<stop offset="0.00728542" stop-color="#E040F9"/>
<stop offset="0.3718" stop-color="#ED4DA4"/>
<stop offset="0.6698" stop-color="#F65666"/>
<stop offset="0.8866" stop-color="#FC5C40"/>
<stop offset="1" stop-color="#FE5E31"/>
</linearGradient>
<linearGradient id="paint17_linear" x1="374.422" y1="29.0443" x2="378.799" y2="29.0443" gradientUnits="userSpaceOnUse">
<stop stop-color="#E040FB"/>
<stop offset="0.00728542" stop-color="#E040F9"/>
<stop offset="0.3718" stop-color="#ED4DA4"/>
<stop offset="0.6698" stop-color="#F65666"/>
<stop offset="0.8866" stop-color="#FC5C40"/>
<stop offset="1" stop-color="#FE5E31"/>
</linearGradient>
<linearGradient id="paint18_linear" x1="281.402" y1="95.6947" x2="285.779" y2="95.6947" gradientUnits="userSpaceOnUse">
<stop stop-color="#E040FB"/>
<stop offset="0.00728542" stop-color="#E040F9"/>
<stop offset="0.3718" stop-color="#ED4DA4"/>
<stop offset="0.6698" stop-color="#F65666"/>
<stop offset="0.8866" stop-color="#FC5C40"/>
<stop offset="1" stop-color="#FE5E31"/>
</linearGradient>
<linearGradient id="paint19_linear" x1="108.754" y1="447.627" x2="113.13" y2="447.627" gradientUnits="userSpaceOnUse">
<stop stop-color="#E040FB"/>
<stop offset="0.00728542" stop-color="#E040F9"/>
<stop offset="0.3718" stop-color="#ED4DA4"/>
<stop offset="0.6698" stop-color="#F65666"/>
<stop offset="0.8866" stop-color="#FC5C40"/>
<stop offset="1" stop-color="#FE5E31"/>
</linearGradient>
<linearGradient id="paint20_linear" x1="223.08" y1="20.3099" x2="226.91" y2="20.3099" gradientUnits="userSpaceOnUse">
<stop stop-color="#E040FB"/>
<stop offset="0.00728542" stop-color="#E040F9"/>
<stop offset="0.3718" stop-color="#ED4DA4"/>
<stop offset="0.6698" stop-color="#F65666"/>
<stop offset="0.8866" stop-color="#FC5C40"/>
<stop offset="1" stop-color="#FE5E31"/>
</linearGradient>
<linearGradient id="paint21_linear" x1="286.276" y1="300.431" x2="290.105" y2="300.431" gradientUnits="userSpaceOnUse">
<stop stop-color="#E040FB"/>
<stop offset="0.00728542" stop-color="#E040F9"/>
<stop offset="0.3718" stop-color="#ED4DA4"/>
<stop offset="0.6698" stop-color="#F65666"/>
<stop offset="0.8866" stop-color="#FC5C40"/>
<stop offset="1" stop-color="#FE5E31"/>
</linearGradient>
<linearGradient id="paint22_linear" x1="461.205" y1="386.226" x2="465.034" y2="386.226" gradientUnits="userSpaceOnUse">
<stop stop-color="#E040FB"/>
<stop offset="0.00728542" stop-color="#E040F9"/>
<stop offset="0.3718" stop-color="#ED4DA4"/>
<stop offset="0.6698" stop-color="#F65666"/>
<stop offset="0.8866" stop-color="#FC5C40"/>
<stop offset="1" stop-color="#FE5E31"/>
</linearGradient>
<linearGradient id="paint23_linear" x1="376.884" y1="470.165" x2="380.714" y2="470.165" gradientUnits="userSpaceOnUse">
<stop stop-color="#E040FB"/>
<stop offset="0.00728542" stop-color="#E040F9"/>
<stop offset="0.3718" stop-color="#ED4DA4"/>
<stop offset="0.6698" stop-color="#F65666"/>
<stop offset="0.8866" stop-color="#FC5C40"/>
<stop offset="1" stop-color="#FE5E31"/>
</linearGradient>
<linearGradient id="paint24_linear" x1="484.488" y1="69.8831" x2="488.317" y2="69.8831" gradientUnits="userSpaceOnUse">
<stop stop-color="#E040FB"/>
<stop offset="0.00728542" stop-color="#E040F9"/>
<stop offset="0.3718" stop-color="#ED4DA4"/>
<stop offset="0.6698" stop-color="#F65666"/>
<stop offset="0.8866" stop-color="#FC5C40"/>
<stop offset="1" stop-color="#FE5E31"/>
</linearGradient>
<linearGradient id="paint25_linear" x1="467.365" y1="340.956" x2="469.994" y2="340.956" gradientUnits="userSpaceOnUse">
<stop stop-color="#E040FB"/>
<stop offset="0.00728542" stop-color="#E040F9"/>
<stop offset="0.3718" stop-color="#ED4DA4"/>
<stop offset="0.6698" stop-color="#F65666"/>
<stop offset="0.8866" stop-color="#FC5C40"/>
<stop offset="1" stop-color="#FE5E31"/>
</linearGradient>
<linearGradient id="paint26_linear" x1="279.221" y1="450.662" x2="281.85" y2="450.662" gradientUnits="userSpaceOnUse">
<stop stop-color="#E040FB"/>
<stop offset="0.00728542" stop-color="#E040F9"/>
<stop offset="0.3718" stop-color="#ED4DA4"/>
<stop offset="0.6698" stop-color="#F65666"/>
<stop offset="0.8866" stop-color="#FC5C40"/>
<stop offset="1" stop-color="#FE5E31"/>
</linearGradient>
<linearGradient id="paint27_linear" x1="172.198" y1="58.7645" x2="174.827" y2="58.7645" gradientUnits="userSpaceOnUse">
<stop stop-color="#E040FB"/>
<stop offset="0.00728542" stop-color="#E040F9"/>
<stop offset="0.3718" stop-color="#ED4DA4"/>
<stop offset="0.6698" stop-color="#F65666"/>
<stop offset="0.8866" stop-color="#FC5C40"/>
<stop offset="1" stop-color="#FE5E31"/>
</linearGradient>
<linearGradient id="paint28_linear" x1="54.8408" y1="392.528" x2="57.4701" y2="392.528" gradientUnits="userSpaceOnUse">
<stop stop-color="#E040FB"/>
<stop offset="0.00728542" stop-color="#E040F9"/>
<stop offset="0.3718" stop-color="#ED4DA4"/>
<stop offset="0.6698" stop-color="#F65666"/>
<stop offset="0.8866" stop-color="#FC5C40"/>
<stop offset="1" stop-color="#FE5E31"/>
</linearGradient>
<linearGradient id="paint29_linear" x1="126.871" y1="31.5401" x2="129.5" y2="31.5401" gradientUnits="userSpaceOnUse">
<stop stop-color="#E040FB"/>
<stop offset="0.00728542" stop-color="#E040F9"/>
<stop offset="0.3718" stop-color="#ED4DA4"/>
<stop offset="0.6698" stop-color="#F65666"/>
<stop offset="0.8866" stop-color="#FC5C40"/>
<stop offset="1" stop-color="#FE5E31"/>
</linearGradient>
<linearGradient id="paint30_linear" x1="291.378" y1="219.617" x2="294.008" y2="219.617" gradientUnits="userSpaceOnUse">
<stop stop-color="#E040FB"/>
<stop offset="0.00728542" stop-color="#E040F9"/>
<stop offset="0.3718" stop-color="#ED4DA4"/>
<stop offset="0.6698" stop-color="#F65666"/>
<stop offset="0.8866" stop-color="#FC5C40"/>
<stop offset="1" stop-color="#FE5E31"/>
</linearGradient>
<linearGradient id="paint31_linear" x1="322.363" y1="325.683" x2="324.992" y2="325.683" gradientUnits="userSpaceOnUse">
<stop stop-color="#E040FB"/>
<stop offset="0.00728542" stop-color="#E040F9"/>
<stop offset="0.3718" stop-color="#ED4DA4"/>
<stop offset="0.6698" stop-color="#F65666"/>
<stop offset="0.8866" stop-color="#FC5C40"/>
<stop offset="1" stop-color="#FE5E31"/>
</linearGradient>
<linearGradient id="paint32_linear" x1="86.8883" y1="427.315" x2="89.5174" y2="427.315" gradientUnits="userSpaceOnUse">
<stop stop-color="#E040FB"/>
<stop offset="0.00728542" stop-color="#E040F9"/>
<stop offset="0.3718" stop-color="#ED4DA4"/>
<stop offset="0.6698" stop-color="#F65666"/>
<stop offset="0.8866" stop-color="#FC5C40"/>
<stop offset="1" stop-color="#FE5E31"/>
</linearGradient>
<linearGradient id="paint33_linear" x1="294.723" y1="1.31597" x2="297.352" y2="1.31597" gradientUnits="userSpaceOnUse">
<stop stop-color="#E040FB"/>
<stop offset="0.00728542" stop-color="#E040F9"/>
<stop offset="0.3718" stop-color="#ED4DA4"/>
<stop offset="0.6698" stop-color="#F65666"/>
<stop offset="0.8866" stop-color="#FC5C40"/>
<stop offset="1" stop-color="#FE5E31"/>
</linearGradient>
<linearGradient id="paint34_linear" x1="409.22" y1="355.596" x2="423.765" y2="375.244" gradientUnits="userSpaceOnUse">
<stop stop-color="#E040FB"/>
<stop offset="0.00728542" stop-color="#E040F9"/>
<stop offset="0.3718" stop-color="#ED4DA4"/>
<stop offset="0.6698" stop-color="#F65666"/>
<stop offset="0.8866" stop-color="#FC5C40"/>
<stop offset="1" stop-color="#FE5E31"/>
</linearGradient>
<clipPath id="clip0">
<rect width="67.8251" height="138.827" fill="white" transform="translate(105 218)"/>
</clipPath>
</defs>
</svg>