<svg width="117" height="26" viewBox="0 0 117 26" fill="none" xmlns="http://www.w3.org/2000/svg">
<g clip-path="url(#clip0)">
<path d="M27.4062 10.8608C25.1852 10.8196 23.1318 11.8481 21.8327 13.6171C20.3241 15.4272 19.5279 17.6899 19.5698 20.0348C19.486 21.5158 19.9889 22.9968 20.9946 24.1487C21.9165 25.2184 23.2994 25.7532 24.7242 25.712C26.8195 25.712 28.8309 24.7658 30.0881 23.1203C31.6805 21.2278 32.5605 18.8829 32.5186 16.4146C32.6024 14.9747 32.1834 13.5759 31.3453 12.3829C30.4653 11.3544 29.1662 10.8608 27.4062 10.8608ZM27.49 21.8449C26.7776 22.5443 25.8138 22.9557 24.808 22.9557C24.1375 22.9968 23.467 22.7089 23.048 22.1741C22.587 21.557 22.3775 20.7753 22.4194 20.0348C22.3775 18.3892 22.8385 16.7848 23.8023 15.4272C24.5566 14.2753 25.8557 13.5348 27.2804 13.5759C28.8728 13.5759 29.6691 14.5222 29.6691 16.4146C29.6691 18.4304 28.8728 20.3639 27.49 21.8449ZM112.768 17.6899C112.097 17.443 111.385 17.7722 111.091 18.4304C109.876 21.4747 108.367 22.9557 106.524 22.9557C105.56 22.9557 105.057 22.1329 105.057 20.5696C105.183 18.8006 105.434 17.0728 105.853 15.3449L106.23 13.5348H110.002C110.672 13.5348 111.217 13.0823 111.301 12.4652C111.468 11.7247 110.966 11.0253 110.253 10.9019C110.169 10.9019 110.086 10.8608 110.002 10.8608H106.859L107.487 7.81646C107.655 7.07595 107.152 6.33544 106.398 6.17089C106.314 6.17089 106.23 6.12975 106.146 6.12975C105.476 6.12975 104.889 6.58228 104.764 7.19937L103.967 10.7785H95.1673C92.9463 10.7785 90.851 11.807 89.5519 13.5759C88.0433 15.3861 87.2471 17.6487 87.289 19.9937C87.289 20.6108 87.3728 21.2278 87.4986 21.8449C86.9119 22.5032 86.0738 22.9146 85.1938 22.9146C84.7328 22.9557 84.3137 22.7911 84.0204 22.4209C83.769 21.9684 83.6433 21.3924 83.6852 20.8576C83.7271 19.2943 83.9366 17.731 84.3137 16.2089L86.6185 5.75949C86.7862 5.01899 86.3252 4.27848 85.5709 4.11392C84.8166 3.94937 84.0623 4.4019 83.8947 5.14241L82.5537 11.519C81.6318 10.9842 80.5423 10.6962 79.4527 10.6962C77.2317 10.6551 75.1365 11.6013 73.7117 13.288C72.1612 15.1392 71.365 17.4842 71.4069 19.8703C71.4069 20.6108 71.4907 21.3924 71.7002 22.1329C71.1554 22.5854 70.4849 22.8323 69.7726 22.8734C69.3116 22.9146 68.8506 22.75 68.5154 22.3797C68.2221 21.9272 68.0544 21.3924 68.1382 20.8165C68.1802 19.788 68.3478 18.7595 68.5992 17.731C68.7668 16.9494 68.2221 16.2089 67.4678 16.0443C67.4258 16.0443 67.3839 16.0443 67.342 16.0443C66.6296 15.962 65.9592 16.4146 65.7915 17.0728C65.4144 18.5538 64.7439 19.9525 63.8639 21.1867C63.2353 22.174 62.1458 22.7911 60.9724 22.8734C60.3438 22.8734 59.7991 22.5443 59.4638 22.0095C59.0448 21.3101 58.8352 20.5285 58.8771 19.7057C58.7933 18.1013 59.2962 16.4968 60.2181 15.1804C61.0562 14.0285 62.3972 13.3291 63.822 13.3703C64.5344 13.3703 65.2887 13.5348 65.9592 13.8228C66.3782 14.0285 66.8392 13.9873 67.2163 13.7405C67.8449 13.3703 68.0544 12.5475 67.6773 11.8892C67.5097 11.6424 67.3001 11.4367 67.0487 11.3544C66.7135 11.1899 66.3363 11.1076 65.9592 11.0253C65.2887 10.8196 64.5763 10.7373 63.9058 10.7373C61.7267 10.7373 59.6314 11.6835 58.2486 13.3291C57.4104 14.2342 56.7819 15.3449 56.4466 16.538C55.0637 20.8165 53.3037 22.8734 51.2084 22.8734C50.5799 22.9146 49.9932 22.6677 49.616 22.1741C49.2808 21.6804 49.1132 21.1044 49.1132 20.4873C49.1132 20.2816 49.1132 20.1171 49.1551 19.9114C50.4122 19.4177 51.5437 18.5949 52.3818 17.5253C53.178 16.4968 53.639 15.2627 53.639 13.9873C53.639 11.807 52.4656 10.7373 50.0351 10.7373C48.3589 10.7373 46.7246 11.3956 45.5512 12.5475L47.0598 5.75949C47.2274 5.01899 46.7246 4.27848 45.9703 4.15506C45.8865 4.15506 45.7607 4.11392 45.6769 4.11392C45.0064 4.11392 44.4198 4.56646 44.294 5.18354L40.1873 23.943C40.0197 24.6835 40.5226 25.3829 41.235 25.5475C41.3188 25.5475 41.4445 25.5886 41.5283 25.5886C42.1988 25.5886 42.7435 25.0949 42.8274 24.4778L44.0845 18.7184C44.294 17.9367 44.5874 17.1962 44.9645 16.4968C45.4255 15.674 46.0541 14.9747 46.8084 14.4399C47.5627 13.7816 48.5684 13.4114 49.5741 13.4525C50.077 13.3703 50.538 13.7405 50.6218 14.2342C50.6218 14.3165 50.6218 14.3987 50.6218 14.481C50.538 15.3861 50.077 16.25 49.2808 16.7848C48.4846 17.4842 47.4789 17.9778 46.4312 18.1424C46.3474 18.9652 46.3055 19.5823 46.3055 19.9114C46.2217 21.3924 46.6827 22.8734 47.5208 24.1076C48.3589 25.1361 49.6999 25.712 51.0408 25.6297C52.9266 25.6297 54.6866 24.7658 55.86 23.2848L56.4047 22.6677C56.6143 23.1614 56.9076 23.6551 57.2428 24.0665C58.0809 25.0949 59.4219 25.6709 60.7629 25.6297C62.6486 25.6297 64.241 24.7658 65.582 22.9557C66.1687 24.7658 67.4678 25.6297 69.6887 25.6297C70.9459 25.6297 72.1193 25.1772 73.0831 24.3956C73.9212 25.1772 75.0526 25.5886 76.226 25.5475C78.1117 25.5475 79.7041 24.6835 81.0451 22.8734C81.6318 24.6835 82.9309 25.5475 85.1518 25.5475C86.5347 25.5475 87.9176 25.0538 88.9233 24.1076C89.8453 25.0538 91.1443 25.5886 92.4853 25.5475C94.5806 25.5475 96.592 24.6013 97.8492 22.9557C99.4416 21.1044 100.28 18.7184 100.28 16.2911C100.28 15.3038 100.112 14.3165 99.7349 13.4114H103.381L103.045 14.9747C102.585 16.7848 102.291 18.5949 102.165 20.4462C102.165 23.8196 103.59 25.5475 106.356 25.5475C109.499 25.5475 111.846 23.4494 113.522 19.3766C113.815 18.7595 113.522 18.019 112.893 17.731C112.851 17.731 112.809 17.6899 112.768 17.6899ZM81.5061 16.0443C81.0032 18.4304 80.2489 20.1582 79.327 21.269C78.447 22.3797 77.3993 22.9557 76.3517 22.9557C75.7231 22.9557 75.1784 22.6266 74.8431 22.0918C74.466 21.3924 74.2564 20.6519 74.2564 19.8291C74.1726 18.2247 74.6755 16.6203 75.6393 15.3038C76.8546 13.4525 79.4108 12.9177 81.2966 14.1108C81.4642 14.2342 81.6737 14.3576 81.7994 14.5222L81.5061 16.0443ZM96.8435 19.2943C96.4244 20.1994 95.8796 21.0222 95.2511 21.8038C94.5387 22.5443 93.5748 22.9557 92.5691 22.9557C91.8986 22.9968 91.2281 22.7089 90.8091 22.1741C90.3481 21.557 90.1386 20.7753 90.1805 20.0348C90.1386 18.3892 90.5996 16.7848 91.5215 15.4272C92.2758 14.2753 93.6168 13.5759 94.9996 13.5759C96.592 13.5759 97.3882 14.5222 97.3882 16.4146C97.3882 17.4019 97.1787 18.3481 96.8435 19.2943ZM39.3492 4.15506C38.6787 4.15506 38.092 4.60759 37.9663 5.22468L33.8596 23.9842C33.692 24.7247 34.1948 25.424 34.9072 25.5886C34.991 25.5886 35.1168 25.6297 35.2006 25.6297C35.8711 25.6297 36.4577 25.1772 36.5835 24.5601L40.6902 5.80063C40.8159 5.06013 40.3549 4.31962 39.5587 4.1962C39.5168 4.15506 39.433 4.15506 39.3492 4.15506ZM10.0573 0C4.48388 0 0 4.4019 0 9.87342C0 10.943 0.167622 12.0538 0.544771 13.0823C0.796203 13.7816 1.59241 14.1519 2.3048 13.9462C3.01719 13.6994 3.39434 12.9177 3.14291 12.2184C2.84957 11.3956 2.72385 10.5728 2.76576 9.70886C2.89148 5.80063 6.202 2.71519 10.2249 2.79747C14.2478 2.87975 17.3489 6.17089 17.265 10.1203C17.1393 13.7816 14.2059 16.7848 10.4764 16.9905C10.4764 16.9905 9.05157 17.0728 8.38109 17.1551C8.12965 17.1962 7.87822 17.2373 7.62679 17.3196C7.58488 17.3608 7.54298 17.3608 7.50107 17.3196C7.45917 17.2785 7.45917 17.2373 7.50107 17.1962L7.7106 16.0443L9.05157 10.1614C9.2192 9.42089 8.71633 8.72152 8.00394 8.55696C7.24964 8.3924 6.53725 8.88608 6.36963 9.58544C6.36963 9.58544 3.22672 23.943 3.22672 24.0665C3.0591 24.7658 3.47815 25.4652 4.19054 25.6709C4.23245 25.6709 4.23245 25.6709 4.27435 25.6709C4.98675 25.8354 5.69914 25.424 5.90867 24.6835C5.90867 24.6424 5.90867 24.6424 5.90867 24.6013C5.95057 24.4367 6.36963 22.5032 6.36963 22.5032C6.66296 21.0633 7.83632 19.9525 9.30301 19.7468C9.59635 19.7057 10.8954 19.6234 10.8954 19.6234C16.4269 19.1297 20.4918 14.3165 19.947 8.92722C19.4022 3.94937 15.1698 0.0822785 10.0573 0Z" fill="#1E1E1E"/>
<path d="M115.661 22.7089C114.739 22.5443 113.859 23.1203 113.691 23.9842C113.481 24.8481 114.068 25.7532 114.948 25.9177H114.99C115.87 26.1234 116.75 25.5886 116.96 24.7247C116.96 24.6835 116.96 24.6835 116.96 24.6424C117.169 23.7785 116.582 22.9146 115.661 22.7089Z" fill="#E6007A"/>
</g>
<defs>
<clipPath id="clip0">
<rect width="117" height="26" fill="white"/>
</clipPath>
</defs>
</svg>