<svg width="576" height="575" viewBox="0 0 576 575" fill="none" xmlns="http://www.w3.org/2000/svg">
<path d="M575.5 575C499.924 575 425.089 560.114 355.266 531.193C285.443 502.271 222 459.88 168.56 406.44C115.12 353 72.7289 289.557 43.8073 219.734C14.8857 149.911 -6.60704e-06 75.0757 0 -0.5L230.113 -0.49998C230.113 44.8569 239.046 89.7697 256.404 131.674C273.761 173.578 299.202 211.654 331.274 243.726C363.347 275.798 401.422 301.239 443.326 318.596C485.23 335.954 530.143 344.887 575.5 344.887V575Z" fill="url(#paint0_linear)"/>
<defs>
<linearGradient id="paint0_linear" x1="0" y1="-0.5" x2="617.313" y2="48.5279" gradientUnits="userSpaceOnUse">
<stop stop-color="#FF8212"/>
<stop offset="1" stop-color="#ED4454"/>
</linearGradient>
</defs>
</svg>