<svg width="42" height="36" viewBox="0 0 42 36" fill="none" xmlns="http://www.w3.org/2000/svg">
<path d="M37.7239 10.247C37.7239 9.85309 37.7163 9.46361 37.6989 9.07679C39.3831 7.82206 40.8443 6.2514 42 4.45408C40.4305 5.16019 38.7604 5.61704 37.05 5.80814C38.8302 4.71282 40.1954 2.96105 40.8405 0.858834C39.1737 1.86957 37.33 2.59216 35.3697 2.96868C33.799 1.18165 31.5575 0.0434309 29.0795 0.00113483C24.3206 -0.0775315 20.4627 3.94356 20.4627 8.98131C20.4627 9.69738 20.5376 10.3918 20.6863 11.0624C13.5199 10.6013 7.16958 6.87155 2.9217 1.24891C2.1805 2.59601 1.75526 4.17037 1.75526 5.85755C1.75526 9.04865 3.27656 11.8849 5.58804 13.5585C4.17297 13.4945 2.8474 13.066 1.68473 12.3634V12.4806C1.68473 16.9405 4.65592 20.6773 8.59835 21.5492C7.87559 21.7547 7.11327 21.8617 6.32925 21.8578C5.78451 21.855 5.24155 21.7956 4.70912 21.6804C5.80459 25.3353 8.9884 28.0055 12.7577 28.0945C9.80769 30.5402 6.09159 32.0011 2.057 31.9908C1.36136 31.9908 0.673937 31.9442 0 31.8596C3.81493 34.4761 8.34336 36 13.2114 36C29.0578 36.0038 37.7239 22.2127 37.7239 10.247V10.247Z" fill="url(#paint0_linear)"/>
<defs>
<linearGradient id="paint0_linear" x1="0" y1="0" x2="44.9498" y2="4.16498" gradientUnits="userSpaceOnUse">
<stop stop-color="#FF8212"/>
<stop offset="1" stop-color="#ED4454"/>
</linearGradient>
</defs>
</svg>