<svg width="39" height="36" viewBox="0 0 39 36" fill="none" xmlns="http://www.w3.org/2000/svg">
<path fill-rule="evenodd" clip-rule="evenodd" d="M0 15.4513C0 6.9182 8.67232 0 19.3724 0C30.0719 0 38.7457 6.9182 38.7458 15.4512C38.7458 23.9847 30.0719 30.903 19.3724 30.903C18.1509 30.9028 16.9312 30.81 15.7237 30.6254L7.34571 36L8.80975 28.402C3.50688 25.6453 0 20.8763 0 15.4513ZM9.31074 20.5998C9.46416 20.4473 9.55116 20.2369 9.55116 20.0224L9.5511 20.0225V13.268H11.5149C11.733 13.268 11.9367 13.189 12.0929 13.0467C12.1659 12.979 12.2252 12.8979 12.2678 12.8079C12.3088 12.7175 12.3311 12.6176 12.3311 12.5188C12.3305 12.4187 12.3089 12.3199 12.2678 12.2287C12.2058 12.095 12.1022 11.9797 11.9704 11.8982C11.8359 11.8146 11.6775 11.7699 11.5149 11.7699H5.75059C5.53324 11.7699 5.32812 11.8484 5.1741 11.9912C5.10091 12.0578 5.04146 12.1381 4.99913 12.2277C4.95784 12.3196 4.93435 12.4194 4.93435 12.5189C4.93435 12.6185 4.95784 12.7184 4.99841 12.8079C5.06095 12.9428 5.16326 13.057 5.29422 13.1393C5.43152 13.2236 5.58951 13.2682 5.75059 13.2679H7.73579V20.0224C7.73638 20.2387 7.8226 20.446 7.97553 20.5987C8.12819 20.7524 8.33554 20.8392 8.55202 20.8399H8.73504C8.95109 20.8392 9.15809 20.7529 9.31074 20.5998ZM18.8571 20.7493C19.0025 20.6834 19.122 20.5772 19.2076 20.442V20.4419L19.443 20.0662L15.9692 12.4174C15.9482 12.326 15.9122 12.2387 15.8627 12.159C15.8325 12.11 15.7958 12.0643 15.754 12.021C15.6797 11.9345 15.6172 11.8809 15.5474 11.8369C15.4258 11.7605 15.2867 11.7172 15.1428 11.7111C15.0738 11.7043 15.042 11.7017 15.0081 11.7017C14.8533 11.702 14.7018 11.7458 14.5707 11.8282C14.4699 11.8912 14.3845 11.9761 14.3207 12.0765L14.3187 12.0792C14.2855 12.1239 14.2701 12.1447 14.2566 12.1659C14.2116 12.2383 14.1779 12.317 14.1566 12.3995L14.1321 12.4676L10.857 19.6579C10.8085 19.7633 10.7841 19.8772 10.7841 19.994C10.7841 20.1491 10.8277 20.3011 10.91 20.4326C10.9939 20.5677 11.1159 20.6749 11.2608 20.7404L11.4285 20.8171C11.6718 20.9288 11.9704 20.9098 12.2023 20.7627C12.3369 20.679 12.4437 20.557 12.5089 20.4124L13.1733 18.952H16.9395L17.6082 20.4207C17.6739 20.5656 17.7808 20.6878 17.9156 20.7721C18.1473 20.9184 18.4439 20.9368 18.6878 20.8254L18.8571 20.7493ZM26.0004 20.6212C26.0632 20.5646 26.1157 20.4975 26.1554 20.4229L26.3821 20.0019L26.0568 19.6368C26.004 19.5796 25.9439 19.5297 25.8781 19.4882C25.7442 19.4065 25.5858 19.3624 25.4232 19.3624H21.6701V12.5864C21.6701 12.3721 21.5831 12.1613 21.4312 12.0103C21.2793 11.8568 21.0697 11.7699 20.8566 11.7699H20.6709C20.4549 11.7701 20.2478 11.8562 20.0951 12.0092C19.9425 12.1613 19.8546 12.3721 19.8546 12.5864V20.2938L19.9374 20.4275C20.0008 20.5425 20.0959 20.6409 20.2117 20.7122C20.3211 20.7796 20.4499 20.8214 20.5831 20.8355C20.5902 20.836 20.5972 20.8365 20.6042 20.8369C20.6257 20.8384 20.6471 20.8399 20.6687 20.8399H25.4232C25.6406 20.8399 25.8457 20.7617 26.0004 20.6212ZM33.5198 20.5757C33.6254 20.4989 33.7107 20.3975 33.7681 20.2801C33.8235 20.1674 33.8531 20.0416 33.8531 19.915C33.8545 19.7424 33.7977 19.5718 33.6976 19.435L30.9449 15.6715L33.2398 13.2753C33.3845 13.123 33.4666 12.9231 33.4649 12.7115C33.4649 12.6009 33.4443 12.4932 33.4038 12.3938C33.3606 12.2908 33.2967 12.1978 33.2161 12.1206L33.0823 11.9919C32.8505 11.7703 32.4913 11.7094 32.2032 11.8291C32.1 11.8718 32.0068 11.9356 31.9297 12.0164L28.5928 15.5007V12.5864C28.5921 12.3703 28.5062 12.1632 28.3537 12.0103C28.2004 11.8568 27.9917 11.7699 27.7793 11.7699H27.5928C27.3766 11.7703 27.1694 11.8563 27.0163 12.0092C26.8638 12.1613 26.7766 12.3721 26.7766 12.5864V20.2325L26.8788 20.4178C26.9164 20.4842 26.9626 20.5453 27.0164 20.5994C27.1692 20.7528 27.3765 20.8393 27.5928 20.8399H27.7765C27.9925 20.8392 28.1995 20.7529 28.3522 20.5998C28.5055 20.4467 28.5919 20.2391 28.5926 20.0224V18.1285L29.6695 17.0039L32.2312 20.5079C32.309 20.6131 32.4104 20.6984 32.5273 20.7569C32.795 20.8874 33.1347 20.8597 33.3723 20.6849L33.5198 20.5757ZM16.1692 17.3898H13.7285L14.948 14.9491L16.1692 17.3898Z" fill="url(#paint0_linear)"/>
<defs>
<linearGradient id="paint0_linear" x1="0" y1="0" x2="41.5196" y2="3.54906" gradientUnits="userSpaceOnUse">
<stop stop-color="#FF8212"/>
<stop offset="1" stop-color="#ED4454"/>
</linearGradient>
</defs>
</svg>
