<svg width="42" height="36" viewBox="0 0 42 36" fill="none" xmlns="http://www.w3.org/2000/svg">
<path d="M13.9922 6.72032V34.5752C13.9922 34.971 13.8945 35.3074 13.6992 35.5844C13.5039 35.8615 13.2187 36 12.8437 36C12.5781 36 12.3203 35.9367 12.0703 35.81L1.17187 30.277C0.84375 30.1187 0.566406 29.8536 0.339844 29.4815C0.113281 29.1095 -2.73437e-08 28.7414 0 28.3773V1.30607C0 0.989446 0.078125 0.720317 0.234375 0.498681C0.390625 0.277045 0.617187 0.166227 0.914062 0.166227C1.13281 0.166227 1.47656 0.284961 1.94531 0.522428L13.9219 6.60158C13.9687 6.64908 13.9922 6.68865 13.9922 6.72032V6.72032ZM15.4922 9.11873L28.0078 29.6834L15.4922 23.3668V9.11873V9.11873ZM42 9.54617V34.5752C42 34.971 41.8906 35.2916 41.6719 35.5369C41.4531 35.7823 41.1562 35.905 40.7812 35.905C40.4062 35.905 40.0391 35.8021 39.6797 35.5963L29.3438 30.372L42 9.54617ZM41.9297 6.69657C41.9297 6.74406 39.9258 10.0646 35.918 16.6583C31.9102 23.252 29.5625 27.1108 28.875 28.2348L19.7344 13.1794L27.3281 0.664908C27.5937 0.221636 28 0 28.5469 0C28.7656 0 28.9687 0.0474935 29.1562 0.14248L41.8359 6.55409C41.8984 6.58575 41.9297 6.63325 41.9297 6.69657V6.69657Z" fill="url(#paint0_linear)"/>
<defs>
<linearGradient id="paint0_linear" x1="0" y1="0" x2="44.9498" y2="4.16498" gradientUnits="userSpaceOnUse">
<stop stop-color="#FF8212"/>
<stop offset="1" stop-color="#ED4454"/>
</linearGradient>
</defs>
</svg>