<svg width="20" height="26" viewBox="0 0 20 26" fill="none" xmlns="http://www.w3.org/2000/svg">
<path d="M16.0953 11.1428H3.71429C2.7292 11.1428 1.78446 11.5341 1.08789 12.2307C0.391326 12.9273 0 13.872 0 14.8571V22.2857C0 23.2708 0.391326 24.2155 1.08789 24.9121C1.78446 25.6087 2.7292 26 3.71429 26H16.0953C17.0804 26 18.0251 25.6087 18.7217 24.9121C19.4182 24.2155 19.8096 23.2708 19.8096 22.2857V14.8571C19.8096 13.872 19.4182 12.9273 18.7217 12.2307C18.0251 11.5341 17.0804 11.1428 16.0953 11.1428ZM3.71429 13.619H16.0953C16.4236 13.619 16.7385 13.7495 16.9707 13.9816C17.2029 14.2138 17.3334 14.5288 17.3334 14.8571V22.2857C17.3334 22.6141 17.2029 22.929 16.9707 23.1612C16.7385 23.3934 16.4236 23.5238 16.0953 23.5238H3.71429C3.38593 23.5238 3.07101 23.3934 2.83882 23.1612C2.60664 22.929 2.47619 22.6141 2.47619 22.2857V14.8571C2.47619 14.6945 2.50822 14.5335 2.57044 14.3833C2.63266 14.2331 2.72386 14.0966 2.83882 13.9816C2.95379 13.8667 3.09028 13.7755 3.24049 13.7133C3.3907 13.651 3.5517 13.619 3.71429 13.619Z" fill="url(#paint0_linear)"/>
<path d="M9.90472 16.0953C9.57954 16.0953 9.25755 16.1593 8.95712 16.2837C8.65669 16.4082 8.38372 16.5906 8.15379 16.8205C7.92385 17.0505 7.74145 17.3234 7.61701 17.6239C7.49257 17.9243 7.42852 18.2463 7.42852 18.5715C7.42852 18.8966 7.49257 19.2186 7.61701 19.5191C7.74145 19.8195 7.92385 20.0925 8.15379 20.3224C8.38372 20.5523 8.65669 20.7347 8.95712 20.8592C9.25755 20.9836 9.57954 21.0476 9.90472 21.0476C10.5614 21.0476 11.1913 20.7868 11.6557 20.3224C12.12 19.858 12.3809 19.2282 12.3809 18.5715C12.3809 17.9147 12.12 17.2849 11.6557 16.8205C11.1913 16.3561 10.5614 16.0953 9.90472 16.0953ZM9.90472 0C11.5465 0 13.1211 0.65221 14.2821 1.81315C15.443 2.97409 16.0952 4.54867 16.0952 6.19048C16.0949 6.50605 15.974 6.80957 15.7574 7.03904C15.5408 7.2685 15.2447 7.40659 14.9297 7.42508C14.6146 7.44357 14.3044 7.34108 14.0625 7.13854C13.8205 6.936 13.6649 6.6487 13.6277 6.33534L13.619 6.19048C13.6199 5.22365 13.2438 4.29455 12.5706 3.60061C11.8974 2.90667 10.9801 2.50259 10.0137 2.47421C9.0473 2.44584 8.1079 2.79542 7.39513 3.44867C6.68237 4.10192 6.25241 5.00735 6.19662 5.97258L6.19043 6.19048V12.381C6.19008 12.6965 6.06924 13.0001 5.85261 13.2295C5.63599 13.459 5.33991 13.5971 5.02489 13.6156C4.70987 13.6341 4.39967 13.5316 4.15768 13.329C3.91569 13.1265 3.76017 12.8392 3.7229 12.5258L3.71423 12.381V6.19048C3.71423 4.54867 4.36644 2.97409 5.52738 1.81315C6.68833 0.65221 8.2629 0 9.90472 0Z" fill="url(#paint1_linear)"/>
<defs>
<linearGradient id="paint0_linear" x1="0" y1="11.1428" x2="21.1457" y2="13.3821" gradientUnits="userSpaceOnUse">
<stop stop-color="#FF8212"/>
<stop offset="1" stop-color="#ED4454"/>
</linearGradient>
<linearGradient id="paint1_linear" x1="3.71423" y1="0" x2="17.0494" y2="0.623" gradientUnits="userSpaceOnUse">
<stop stop-color="#FF8212"/>
<stop offset="1" stop-color="#ED4454"/>
</linearGradient>
</defs>
</svg>