<svg width="24" height="20" viewBox="0 0 24 20" fill="none" xmlns="http://www.w3.org/2000/svg">
<path d="M23.5004 10.743L18.5529 10.7359C18.2862 10.806 18.0124 10.6507 17.9413 10.3879L17.1956 8.05826L14.8587 18.8345C14.8587 18.8345 14.8107 19.4036 14.4987 19.4036C14.1867 19.4036 13.6578 19.4125 13.6578 19.4125C13.3991 19.48 13.1342 19.329 13.0649 19.076L10.1644 5.02105L7.96622 15.175C7.896 15.4289 7.59289 15.6411 7.32889 15.5736L6.55111 15.5833C6.27822 15.6544 5.99822 15.4981 5.92533 15.2344L4.45956 10.7421H0.500444C0.224 10.743 0 10.5237 0 10.2512V9.27012C0 8.99845 0.224 8.77916 0.500444 8.77916L5.42222 8.76229C5.72089 8.75341 5.97511 8.78626 6.048 9.04994L6.80978 11.3867L8.95644 0.36448C8.95644 0.36448 9.06222 0.0297747 9.40622 0.0297747C9.75022 0.0297747 10.472 0.0164574 10.472 0.0164574C10.7307 -0.0519041 10.9964 0.099024 11.0649 0.35205L13.9387 14.2987L16.0631 4.2815C16.1324 4.02759 16.3351 3.81629 16.5938 3.88376L17.448 3.87311C17.7147 3.80297 17.9884 3.95834 18.0596 4.22025L19.5191 8.77827H23.5004C23.776 8.77827 24 8.99845 24 9.27012V10.252C24 10.5237 23.776 10.743 23.5004 10.743Z" fill="url(#paint0_linear)"/>
<defs>
<linearGradient id="paint0_linear" x1="0" y1="0" x2="25.6591" y2="2.51739" gradientUnits="userSpaceOnUse">
<stop stop-color="#FF8212"/>
<stop offset="1" stop-color="#ED4454"/>
</linearGradient>
</defs>
</svg>