<svg width="423" height="215" viewBox="0 0 423 215" fill="none" xmlns="http://www.w3.org/2000/svg">
<path d="M1.11901e-05 87C8.22231e-06 120.948 13.591 153.505 37.7832 177.51C61.9754 201.514 94.7871 215 129 215C163.213 215 196.025 201.514 220.217 177.51C244.409 153.505 258 120.948 258 87L182.792 87C182.792 101.156 177.124 114.732 167.036 124.742C156.949 134.751 143.266 140.375 129 140.375C114.734 140.375 101.051 134.751 90.9636 124.742C80.8757 114.732 75.2084 101.156 75.2084 87L1.11901e-05 87Z" fill="url(#paint0_linear)"/>
<path d="M82.6264 10.9844C81.8977 4.9375 77.321 1.46023 71.2614 1.46023C64.3452 1.46023 59.0653 6.34375 59.0653 14.9091C59.0653 23.4489 64.2557 28.358 71.2614 28.358C77.973 28.358 82.0256 23.8963 82.6264 19.0767L77.027 19.0511C76.5028 21.8509 74.304 23.4616 71.3509 23.4616C67.375 23.4616 64.6776 20.5085 64.6776 14.9091C64.6776 9.46307 67.3366 6.35653 71.3892 6.35653C74.419 6.35653 76.6051 8.10795 77.027 10.9844H82.6264ZM91.9396 1.81818H86.4936V28H91.9396V1.81818ZM105.174 28.3835C111.132 28.3835 114.839 24.3054 114.839 18.2585C114.839 12.1733 111.132 8.10795 105.174 8.10795C99.217 8.10795 95.5096 12.1733 95.5096 18.2585C95.5096 24.3054 99.217 28.3835 105.174 28.3835ZM105.2 24.1648C102.451 24.1648 101.045 21.6463 101.045 18.2202C101.045 14.794 102.451 12.2628 105.2 12.2628C107.897 12.2628 109.304 14.794 109.304 18.2202C109.304 21.6463 107.897 24.1648 105.2 24.1648ZM136.019 8.36364H130.254L126.188 22.4134H125.984L121.906 8.36364H116.153L123.018 28H129.154L136.019 8.36364ZM147.087 28.3835C151.945 28.3835 155.218 26.0185 155.985 22.375L150.948 22.0426C150.398 23.5384 148.992 24.3182 147.176 24.3182C144.453 24.3182 142.728 22.5156 142.728 19.5881V19.5753H156.1V18.0795C156.1 11.4062 152.06 8.10795 146.87 8.10795C141.091 8.10795 137.346 12.2116 137.346 18.2713C137.346 24.4972 141.04 28.3835 147.087 28.3835ZM142.728 16.2003C142.843 13.9631 144.543 12.1733 146.959 12.1733C149.324 12.1733 150.961 13.8608 150.973 16.2003H142.728ZM159.654 28H165.1V16.8906C165.1 14.4744 166.864 12.8125 169.267 12.8125C170.022 12.8125 171.057 12.9403 171.569 13.1065V8.27415C171.083 8.15909 170.405 8.08239 169.855 8.08239C167.657 8.08239 165.854 9.3608 165.138 11.7898H164.934V8.36364H159.654V28ZM206.878 14.9091C206.878 6.34375 201.56 1.46023 194.618 1.46023C187.638 1.46023 182.358 6.34375 182.358 14.9091C182.358 23.4361 187.638 28.358 194.618 28.358C201.56 28.358 206.878 23.4744 206.878 14.9091ZM201.266 14.9091C201.266 20.4574 198.632 23.4616 194.618 23.4616C190.591 23.4616 187.971 20.4574 187.971 14.9091C187.971 9.3608 190.591 6.35653 194.618 6.35653C198.632 6.35653 201.266 9.3608 201.266 14.9091ZM225.182 9.34801H230.487C230.411 4.68182 226.575 1.46023 220.746 1.46023C215.006 1.46023 210.8 4.63068 210.825 9.38636C210.812 13.2472 213.536 15.4588 217.959 16.5199L220.81 17.2358C223.661 17.9261 225.246 18.7443 225.259 20.5085C225.246 22.4261 223.43 23.7301 220.618 23.7301C217.741 23.7301 215.67 22.4006 215.491 19.7798H210.135C210.276 25.4432 214.328 28.3707 220.682 28.3707C227.074 28.3707 230.832 25.3153 230.845 20.5213C230.832 16.1619 227.547 13.848 222.996 12.8253L220.643 12.2628C218.368 11.7386 216.463 10.8949 216.501 9.01562C216.501 7.32812 217.997 6.08807 220.707 6.08807C223.354 6.08807 224.977 7.28977 225.182 9.34801ZM242.901 28H248.436V17.1847H259.673V28H265.196V1.81818H259.673V12.6207H248.436V1.81818H242.901V28ZM269.658 28H275.104V8.36364H269.658V28ZM272.393 5.83239C274.017 5.83239 275.347 4.59233 275.347 3.07102C275.347 1.5625 274.017 0.322442 272.393 0.322442C270.783 0.322442 269.453 1.5625 269.453 3.07102C269.453 4.59233 270.783 5.83239 272.393 5.83239ZM288.313 35.7727C293.925 35.7727 297.914 33.2159 297.914 28.1918V8.36364H292.506V11.6619H292.301C291.573 10.0639 289.975 8.10795 286.689 8.10795C282.381 8.10795 278.738 11.4574 278.738 18.1435C278.738 24.6761 282.279 27.7188 286.702 27.7188C289.834 27.7188 291.586 26.1463 292.301 24.5227H292.532V28.1151C292.532 30.8125 290.806 31.8608 288.441 31.8608C286.037 31.8608 284.823 30.8125 284.375 29.6236L279.338 30.3011C279.99 33.3949 283.02 35.7727 288.313 35.7727ZM288.428 23.6278C285.756 23.6278 284.299 21.5057 284.299 18.1179C284.299 14.7812 285.73 12.4418 288.428 12.4418C291.074 12.4418 292.557 14.679 292.557 18.1179C292.557 21.5824 291.049 23.6278 288.428 23.6278ZM307.694 16.6477C307.706 14.1165 309.253 12.6335 311.478 12.6335C313.689 12.6335 314.993 14.0526 314.98 16.4688V28H320.426V15.4972C320.439 10.8949 317.729 8.10795 313.638 8.10795C310.659 8.10795 308.665 9.5142 307.77 11.8281H307.54V1.81818H302.248V28H307.694V16.6477ZM333.147 28H349.907V23.4361H338.682V1.81818H333.147V28ZM362.419 28.3835C367.277 28.3835 370.55 26.0185 371.317 22.375L366.28 22.0426C365.73 23.5384 364.324 24.3182 362.509 24.3182C359.786 24.3182 358.06 22.5156 358.06 19.5881V19.5753H371.432V18.0795C371.432 11.4062 367.392 8.10795 362.202 8.10795C356.423 8.10795 352.678 12.2116 352.678 18.2713C352.678 24.4972 356.372 28.3835 362.419 28.3835ZM358.06 16.2003C358.175 13.9631 359.875 12.1733 362.291 12.1733C364.656 12.1733 366.293 13.8608 366.305 16.2003H358.06ZM392.73 8.36364H386.964L382.899 22.4134H382.695L378.616 8.36364H372.864L379.729 28H385.865L392.73 8.36364ZM403.798 28.3835C408.656 28.3835 411.929 26.0185 412.696 22.375L407.659 22.0426C407.109 23.5384 405.703 24.3182 403.887 24.3182C401.164 24.3182 399.439 22.5156 399.439 19.5881V19.5753H412.811V18.0795C412.811 11.4062 408.771 8.10795 403.581 8.10795C397.802 8.10795 394.056 12.2116 394.056 18.2713C394.056 24.4972 397.751 28.3835 403.798 28.3835ZM399.439 16.2003C399.554 13.9631 401.254 12.1733 403.67 12.1733C406.035 12.1733 407.672 13.8608 407.684 16.2003H399.439ZM421.811 1.81818H416.365V28H421.811V1.81818ZM169.424 53.348H174.729C174.653 48.6818 170.817 45.4602 164.988 45.4602C159.248 45.4602 155.042 48.6307 155.067 53.3864C155.055 57.2472 157.778 59.4588 162.201 60.5199L165.052 61.2358C167.903 61.9261 169.488 62.7443 169.501 64.5085C169.488 66.4261 167.673 67.7301 164.86 67.7301C161.984 67.7301 159.913 66.4006 159.734 63.7798H154.377C154.518 69.4432 158.57 72.3707 164.924 72.3707C171.316 72.3707 175.075 69.3153 175.087 64.5213C175.075 60.1619 171.789 57.848 167.238 56.8253L164.886 56.2628C162.61 55.7386 160.705 54.8949 160.744 53.0156C160.744 51.3281 162.239 50.0881 164.95 50.0881C167.596 50.0881 169.219 51.2898 169.424 53.348ZM178.708 72H184.154V60.2131C184.154 58.0398 185.535 56.5952 187.35 56.5952C189.14 56.5952 190.342 57.8224 190.342 59.7528V72H195.622V60.0085C195.622 57.9759 196.785 56.5952 198.767 56.5952C200.505 56.5952 201.809 57.6818 201.809 59.8679V72H207.243V58.794C207.243 54.5369 204.711 52.108 201.055 52.108C198.179 52.108 195.941 53.5781 195.136 55.8281H194.931C194.305 53.5526 192.298 52.108 189.6 52.108C186.954 52.108 184.947 53.5142 184.129 55.8281H183.899V52.3636H178.708V72ZM217.144 72.3707C220.046 72.3707 221.925 71.1051 222.884 69.277H223.037V72H228.202V58.7557C228.202 54.0767 224.239 52.108 219.867 52.108C215.162 52.108 212.069 54.358 211.314 57.9375L216.351 58.3466C216.722 57.0426 217.885 56.0838 219.841 56.0838C221.695 56.0838 222.756 57.017 222.756 58.6278V58.7045C222.756 59.9702 221.414 60.1364 218 60.4688C214.114 60.8267 210.624 62.1307 210.624 66.5156C210.624 70.402 213.398 72.3707 217.144 72.3707ZM218.703 68.6122C217.029 68.6122 215.827 67.8324 215.827 66.3366C215.827 64.8026 217.093 64.0483 219.01 63.7798C220.199 63.6136 222.142 63.3324 222.794 62.8977V64.9815C222.794 67.0398 221.094 68.6122 218.703 68.6122ZM232.427 72H237.873V60.8906C237.873 58.4744 239.637 56.8125 242.041 56.8125C242.795 56.8125 243.831 56.9403 244.342 57.1065V52.2741C243.856 52.1591 243.179 52.0824 242.629 52.0824C240.43 52.0824 238.627 53.3608 237.912 55.7898H237.707V52.3636H232.427V72ZM258.587 52.3636H254.892V47.6591H249.446V52.3636H246.761V56.4545H249.446V66.6818C249.42 70.5298 252.041 72.4347 255.991 72.2685C257.398 72.2173 258.395 71.9361 258.945 71.7571L258.088 67.7045C257.82 67.7557 257.244 67.8835 256.733 67.8835C255.646 67.8835 254.892 67.4744 254.892 65.9659V56.4545H258.587V52.3636ZM293.669 54.9844C292.941 48.9375 288.364 45.4602 282.304 45.4602C275.388 45.4602 270.108 50.3438 270.108 58.9091C270.108 67.4489 275.299 72.358 282.304 72.358C289.016 72.358 293.069 67.8963 293.669 63.0767L288.07 63.0511C287.546 65.8509 285.347 67.4616 282.394 67.4616C278.418 67.4616 275.721 64.5085 275.721 58.9091C275.721 53.4631 278.38 50.3565 282.432 50.3565C285.462 50.3565 287.648 52.108 288.07 54.9844H293.669ZM306.409 72.3835C312.366 72.3835 316.074 68.3054 316.074 62.2585C316.074 56.1733 312.366 52.108 306.409 52.108C300.451 52.108 296.744 56.1733 296.744 62.2585C296.744 68.3054 300.451 72.3835 306.409 72.3835ZM306.434 68.1648C303.686 68.1648 302.279 65.6463 302.279 62.2202C302.279 58.794 303.686 56.2628 306.434 56.2628C309.132 56.2628 310.538 58.794 310.538 62.2202C310.538 65.6463 309.132 68.1648 306.434 68.1648ZM325.061 60.6477C325.074 58.1165 326.582 56.6335 328.781 56.6335C330.967 56.6335 332.284 58.0653 332.271 60.4688V72H337.717V59.4972C337.717 54.9205 335.032 52.108 330.941 52.108C328.027 52.108 325.917 53.5398 325.035 55.8281H324.805V52.3636H319.615V72H325.061V60.6477ZM352.454 52.3636H348.759V47.6591H343.313V52.3636H340.629V56.4545H343.313V66.6818C343.288 70.5298 345.908 72.4347 349.859 72.2685C351.265 72.2173 352.262 71.9361 352.812 71.7571L351.955 67.7045C351.687 67.7557 351.112 67.8835 350.6 67.8835C349.513 67.8835 348.759 67.4744 348.759 65.9659V56.4545H352.454V52.3636ZM356.001 72H361.447V60.8906C361.447 58.4744 363.212 56.8125 365.615 56.8125C366.369 56.8125 367.405 56.9403 367.916 57.1065V52.2741C367.43 52.1591 366.753 52.0824 366.203 52.0824C364.004 52.0824 362.202 53.3608 361.486 55.7898H361.281V52.3636H356.001V72ZM375.769 72.3707C378.671 72.3707 380.55 71.1051 381.509 69.277H381.662V72H386.827V58.7557C386.827 54.0767 382.864 52.108 378.492 52.108C373.787 52.108 370.694 54.358 369.939 57.9375L374.976 58.3466C375.347 57.0426 376.51 56.0838 378.466 56.0838C380.32 56.0838 381.381 57.017 381.381 58.6278V58.7045C381.381 59.9702 380.039 60.1364 376.625 60.4688C372.739 60.8267 369.249 62.1307 369.249 66.5156C369.249 70.402 372.023 72.3707 375.769 72.3707ZM377.328 68.6122C375.654 68.6122 374.452 67.8324 374.452 66.3366C374.452 64.8026 375.718 64.0483 377.635 63.7798C378.824 63.6136 380.767 63.3324 381.419 62.8977V64.9815C381.419 67.0398 379.719 68.6122 377.328 68.6122ZM399.924 72.3835C405.153 72.3835 408.439 69.3153 408.694 64.8026H403.555C403.235 66.8991 401.855 68.0753 399.988 68.0753C397.444 68.0753 395.795 65.9403 395.795 62.1818C395.795 58.4744 397.457 56.3523 399.988 56.3523C401.983 56.3523 403.261 57.669 403.555 59.625H408.694C408.464 55.0866 405.025 52.108 399.899 52.108C393.941 52.108 390.26 56.2372 390.26 62.2585C390.26 68.2287 393.877 72.3835 399.924 72.3835ZM422.626 52.3636H418.931V47.6591H413.485V52.3636H410.8V56.4545H413.485V66.6818C413.46 70.5298 416.08 72.4347 420.031 72.2685C421.437 72.2173 422.434 71.9361 422.984 71.7571L422.127 67.7045C421.859 67.7557 421.283 67.8835 420.772 67.8835C419.685 67.8835 418.931 67.4744 418.931 65.9659V56.4545H422.626V52.3636Z" fill="black"/>
<defs>
<linearGradient id="paint0_linear" x1="258" y1="215" x2="4.27651" y2="79.0205" gradientUnits="userSpaceOnUse">
<stop offset="0.197917" stop-color="#ED4454"/>
<stop offset="1" stop-color="#FB822A"/>
</linearGradient>
</defs>
</svg>
