<svg width="447" height="195" viewBox="0 0 447 195" fill="none" xmlns="http://www.w3.org/2000/svg">
<path d="M136.717 10.0284H142.612C142.526 4.84375 138.265 1.2642 131.788 1.2642C125.41 1.2642 120.737 4.78693 120.765 10.071C120.751 14.3608 123.776 16.8182 128.691 17.9972L131.859 18.7926C135.026 19.5597 136.788 20.4688 136.802 22.429C136.788 24.5597 134.771 26.0085 131.646 26.0085C128.45 26.0085 126.149 24.5313 125.95 21.6193H119.998C120.154 27.9119 124.657 31.1648 131.717 31.1648C138.819 31.1648 142.995 27.7699 143.009 22.4432C142.995 17.5994 139.345 15.0284 134.288 13.892L131.674 13.267C129.146 12.6847 127.029 11.7472 127.072 9.65909C127.072 7.78409 128.734 6.40625 131.745 6.40625C134.686 6.40625 136.49 7.74148 136.717 10.0284Z" fill="black"/>
<path d="M158.638 8.93466H154.533V3.70739H148.482V8.93466H145.499V13.4801H148.482V24.8438C148.453 29.1193 151.365 31.2358 155.754 31.0511C157.317 30.9943 158.425 30.6818 159.036 30.483L158.084 25.9801C157.786 26.0369 157.146 26.179 156.578 26.179C155.371 26.179 154.533 25.7244 154.533 24.0483V13.4801H158.638V8.93466Z" fill="black"/>
<path d="M168.801 31.1648C172.026 31.1648 174.114 29.7585 175.179 27.7273H175.35V30.7528H181.088V16.0369C181.088 10.8381 176.685 8.65057 171.827 8.65057C166.6 8.65057 163.162 11.1506 162.324 15.1278L167.921 15.5824C168.333 14.1335 169.625 13.0682 171.798 13.0682C173.858 13.0682 175.037 14.1051 175.037 15.8949V15.9801C175.037 17.3864 173.546 17.571 169.753 17.9403C165.435 18.3381 161.557 19.7869 161.557 24.6591C161.557 28.9773 164.639 31.1648 168.801 31.1648ZM170.534 26.9886C168.673 26.9886 167.338 26.1222 167.338 24.4602C167.338 22.7557 168.744 21.9176 170.875 21.6193C172.196 21.4347 174.355 21.1222 175.08 20.6392V22.9545C175.08 25.2415 173.191 26.9886 170.534 26.9886Z" fill="black"/>
<path d="M185.783 30.7528H191.834V23.821L193.468 21.9602L199.419 30.7528H206.507L197.999 18.3807L206.095 8.93466H199.149L192.161 17.2159H191.834V1.66193H185.783V30.7528Z" fill="black"/>
<path d="M209.064 30.7528H215.115V8.93466H209.064V30.7528ZM212.104 6.12216C213.908 6.12216 215.385 4.74432 215.385 3.05398C215.385 1.37784 213.908 0 212.104 0C210.314 0 208.837 1.37784 208.837 3.05398C208.837 4.74432 210.314 6.12216 212.104 6.12216Z" fill="black"/>
<path d="M226.014 18.1392C226.028 15.3267 227.704 13.679 230.147 13.679C232.576 13.679 234.039 15.2699 234.025 17.9403V30.7528H240.076V16.8608C240.076 11.7756 237.093 8.65057 232.548 8.65057C229.309 8.65057 226.965 10.2415 225.985 12.7841H225.73V8.93466H219.963V30.7528H226.014V18.1392Z" fill="black"/>
<path d="M254.675 39.3892C260.911 39.3892 265.343 36.5483 265.343 30.9659V8.93466H259.334V12.5994H259.107C258.297 10.8239 256.521 8.65057 252.871 8.65057C248.084 8.65057 244.036 12.3722 244.036 19.8011C244.036 27.0597 247.97 30.4403 252.885 30.4403C256.365 30.4403 258.311 28.6932 259.107 26.8892H259.362V30.8807C259.362 33.8778 257.445 35.0426 254.817 35.0426C252.146 35.0426 250.797 33.8778 250.3 32.5568L244.703 33.3097C245.428 36.7472 248.794 39.3892 254.675 39.3892ZM254.803 25.8949C251.834 25.8949 250.215 23.5369 250.215 19.7727C250.215 16.0653 251.806 13.4659 254.803 13.4659C257.743 13.4659 259.391 15.9517 259.391 19.7727C259.391 23.6222 257.715 25.8949 254.803 25.8949Z" fill="black"/>
<path d="M279.529 30.7528H298.151V25.6818H285.68V1.66193H279.529V30.7528Z" fill="black"/>
<path d="M302.111 30.7528H308.162V8.93466H302.111V30.7528ZM305.151 6.12216C306.955 6.12216 308.432 4.74432 308.432 3.05398C308.432 1.37784 306.955 0 305.151 0C303.361 0 301.884 1.37784 301.884 3.05398C301.884 4.74432 303.361 6.12216 305.151 6.12216Z" fill="black"/>
<path d="M333.478 38.9347V8.93466H327.512V12.5994H327.242C326.433 10.8239 324.686 8.65057 321.035 8.65057C316.248 8.65057 312.2 12.3722 312.2 19.8722C312.2 27.1733 316.078 31.108 321.049 31.108C324.572 31.108 326.404 29.0767 327.242 27.2585H327.427V38.9347H333.478ZM327.555 19.8438C327.555 23.7358 325.879 26.2926 322.967 26.2926C319.998 26.2926 318.379 23.6506 318.379 19.8438C318.379 16.0653 319.97 13.4659 322.967 13.4659C325.907 13.4659 327.555 15.9517 327.555 19.8438Z" fill="black"/>
<path d="M352.313 21.4631C352.328 24.3892 350.325 25.9233 348.151 25.9233C345.865 25.9233 344.387 24.3182 344.373 21.7472V8.93466H338.322V22.8267C338.336 27.9261 341.319 31.0369 345.708 31.0369C348.99 31.0369 351.347 29.3466 352.328 26.7898H352.555V30.7528H358.365V8.93466H352.313V21.4631Z" fill="black"/>
<path d="M363.205 30.7528H369.256V8.93466H363.205V30.7528ZM366.244 6.12216C368.048 6.12216 369.526 4.74432 369.526 3.05398C369.526 1.37784 368.048 0 366.244 0C364.455 0 362.977 1.37784 362.977 3.05398C362.977 4.74432 364.455 6.12216 366.244 6.12216Z" fill="black"/>
<path d="M382.143 31.108C385.666 31.108 387.498 29.0767 388.336 27.2585H388.592V30.7528H394.558V1.66193H388.521V12.5994H388.336C387.526 10.8239 385.779 8.65057 382.129 8.65057C377.342 8.65057 373.294 12.3722 373.294 19.8722C373.294 27.1733 377.171 31.108 382.143 31.108ZM384.061 26.2926C381.092 26.2926 379.472 23.6506 379.472 19.8438C379.472 16.0653 381.063 13.4659 384.061 13.4659C387.001 13.4659 388.649 15.9517 388.649 19.8438C388.649 23.7358 386.972 26.2926 384.061 26.2926Z" fill="black"/>
<path d="M399.533 30.7528H405.584V8.93466H399.533V30.7528ZM402.573 6.12216C404.377 6.12216 405.854 4.74432 405.854 3.05398C405.854 1.37784 404.377 0 402.573 0C400.783 0 399.306 1.37784 399.306 3.05398C399.306 4.74432 400.783 6.12216 402.573 6.12216Z" fill="black"/>
<path d="M422.036 8.93466H417.931V3.70739H411.88V8.93466H408.897V13.4801H411.88V24.8438C411.852 29.1193 414.764 31.2358 419.153 31.0511C420.715 30.9943 421.823 30.6818 422.434 30.483L421.482 25.9801C421.184 26.0369 420.545 26.179 419.977 26.179C418.769 26.179 417.931 25.7244 417.931 24.0483V13.4801H422.036V8.93466Z" fill="black"/>
<path d="M429.714 38.9347C434.217 38.9347 436.603 36.6335 437.839 33.1108L446.319 8.93466H439.913L435.353 24.9574H435.126L430.609 8.93466H424.245L432.072 31.3778L431.717 32.3011C430.921 34.3466 429.401 34.446 427.271 33.7926L425.907 38.3097C426.774 38.679 428.18 38.9347 429.714 38.9347Z" fill="black"/>
<path d="M284.998 78.7528H291.149V69.321H296.319C303.009 69.321 306.901 65.3295 306.901 59.5199C306.901 53.7386 303.08 49.6619 296.475 49.6619H284.998V78.7528ZM291.149 64.392V54.6903H295.296C298.847 54.6903 300.566 56.6222 300.566 59.5199C300.566 62.4034 298.847 64.392 295.325 64.392H291.149Z" fill="black"/>
<path d="M310.783 78.7528H316.834V66.4091C316.834 63.7244 318.794 61.8778 321.465 61.8778C322.303 61.8778 323.453 62.0199 324.021 62.2045V56.8352C323.482 56.7074 322.729 56.6222 322.118 56.6222C319.675 56.6222 317.672 58.0426 316.877 60.7415H316.649V56.9347H310.783V78.7528Z" fill="black"/>
<path d="M335.992 79.179C342.612 79.179 346.731 74.6477 346.731 67.929C346.731 61.1676 342.612 56.6506 335.992 56.6506C329.373 56.6506 325.254 61.1676 325.254 67.929C325.254 74.6477 329.373 79.179 335.992 79.179ZM336.021 74.4915C332.967 74.4915 331.404 71.6932 331.404 67.8864C331.404 64.0796 332.967 61.267 336.021 61.267C339.018 61.267 340.58 64.0796 340.58 67.8864C340.58 71.6932 339.018 74.4915 336.021 74.4915Z" fill="black"/>
<path d="M362.271 56.9347H358.166V51.7074H352.115V56.9347H349.132V61.4801H352.115V72.8438C352.086 77.1193 354.998 79.2358 359.387 79.0511C360.95 78.9943 362.058 78.6818 362.669 78.483L361.717 73.9801C361.419 74.0369 360.779 74.179 360.211 74.179C359.004 74.179 358.166 73.7244 358.166 72.0483V61.4801H362.271V56.9347Z" fill="black"/>
<path d="M375.836 79.179C382.455 79.179 386.575 74.6477 386.575 67.929C386.575 61.1676 382.455 56.6506 375.836 56.6506C369.217 56.6506 365.097 61.1676 365.097 67.929C365.097 74.6477 369.217 79.179 375.836 79.179ZM375.865 74.4915C372.811 74.4915 371.248 71.6932 371.248 67.8864C371.248 64.0796 372.811 61.267 375.865 61.267C378.862 61.267 380.424 64.0796 380.424 67.8864C380.424 71.6932 378.862 74.4915 375.865 74.4915Z" fill="black"/>
<path d="M400.367 79.179C406.177 79.179 409.828 75.7699 410.112 70.7557H404.401C404.046 73.0852 402.512 74.392 400.438 74.392C397.612 74.392 395.779 72.0199 395.779 67.8438C395.779 63.7244 397.626 61.3665 400.438 61.3665C402.654 61.3665 404.075 62.8295 404.401 65.0028H410.112C409.856 59.9602 406.035 56.6506 400.339 56.6506C393.72 56.6506 389.629 61.2386 389.629 67.929C389.629 74.5625 393.649 79.179 400.367 79.179Z" fill="black"/>
<path d="M423.844 79.179C430.463 79.179 434.583 74.6477 434.583 67.929C434.583 61.1676 430.463 56.6506 423.844 56.6506C417.225 56.6506 413.105 61.1676 413.105 67.929C413.105 74.6477 417.225 79.179 423.844 79.179ZM423.872 74.4915C420.818 74.4915 419.256 71.6932 419.256 67.8864C419.256 64.0796 420.818 61.267 423.872 61.267C426.87 61.267 428.432 64.0796 428.432 67.8864C428.432 71.6932 426.87 74.4915 423.872 74.4915Z" fill="black"/>
<path d="M444.568 49.6619H438.517V78.7528H444.568V49.6619Z" fill="black"/>
<path d="M1.11901e-05 67C8.22231e-06 100.948 13.591 133.505 37.7832 157.51C61.9754 181.514 94.7871 195 129 195C163.213 195 196.025 181.514 220.217 157.51C244.409 133.505 258 100.948 258 67L182.792 67C182.792 81.1559 177.124 94.7319 167.036 104.742C156.949 114.751 143.266 120.375 129 120.375C114.734 120.375 101.051 114.751 90.9636 104.742C80.8757 94.7319 75.2084 81.1558 75.2084 67L1.11901e-05 67Z" fill="url(#paint0_linear)"/>
<defs>
<linearGradient id="paint0_linear" x1="258" y1="195" x2="4.27651" y2="59.0205" gradientUnits="userSpaceOnUse">
<stop offset="0.197917" stop-color="#ED4454"/>
<stop offset="1" stop-color="#FB822A"/>
</linearGradient>
</defs>
</svg>