<svg width="547" height="500" viewBox="0 0 547 500" fill="none" xmlns="http://www.w3.org/2000/svg">
<path d="M528.276 278.637L528.364 310.639L503.506 320.682L503.418 288.68L528.276 278.637Z" fill="url(#paint0_linear)"/>
<path d="M503.507 320.681L479.059 310.726L479 278.724L503.419 288.679L503.507 320.681Z" fill="url(#paint1_linear)"/>
<path d="M503.419 288.679L479 278.724L503.858 268.682L528.277 278.637L503.419 288.679Z" fill="url(#paint2_linear)"/>
<path d="M176.185 180.604L192.796 152.8L217.313 154.893L200.702 182.697L176.185 180.604Z" fill="url(#paint3_linear)"/>
<path d="M218.854 156.118L232.623 175.375L215.999 203.155L202.253 183.911L218.854 156.118Z" fill="url(#paint4_linear)"/>
<path d="M202.51 182.279L216.923 202.448L191.225 200.253L176.812 180.084L202.51 182.279Z" fill="url(#paint5_linear)"/>
<circle cx="204.277" cy="173.112" r="4.32598" fill="white" fill-opacity="0.5"/>
<circle cx="204.277" cy="173.112" r="2.35962" fill="white"/>
<path d="M67.4908 174.7L67.5969 213.335L37.5865 225.46L37.4805 186.825L67.4908 174.7Z" fill="url(#paint6_linear)"/>
<path d="M37.5862 225.459L8.0707 213.441L8 174.806L37.4802 186.824L37.5862 225.459Z" fill="url(#paint7_linear)"/>
<path d="M37.4802 186.824L8 174.806L38.0104 162.682L67.4905 174.7L37.4802 186.824Z" fill="url(#paint8_linear)"/>
<circle cx="38.2" cy="186.128" r="4.32598" fill="white" fill-opacity="0.5"/>
<circle cx="38.2004" cy="186.126" r="2.35962" fill="white"/>
<path d="M468.473 440.717L468.596 485.835L433.551 499.993L433.427 454.875L468.473 440.717Z" fill="url(#paint9_linear)"/>
<path d="M433.551 499.993L399.083 485.958L399 440.84L433.427 454.875L433.551 499.993Z" fill="url(#paint10_linear)"/>
<path d="M433.427 454.875L399 440.84L434.046 426.682L468.473 440.716L433.427 454.875Z" fill="url(#paint11_linear)"/>
<circle cx="432.972" cy="450.638" r="4.32598" fill="white" fill-opacity="0.5"/>
<circle cx="432.972" cy="450.638" r="2.35962" fill="white"/>
<path d="M170.857 320.33L170.925 344.916L151.827 352.632L151.76 328.046L170.857 320.33Z" fill="url(#paint12_linear)"/>
<path d="M151.828 352.63L133.045 344.982L133 320.396L151.76 328.044L151.828 352.63Z" fill="#FF8212"/>
<path d="M151.76 328.045L133 320.397L152.097 312.682L170.858 320.33L151.76 328.045Z" fill="url(#paint13_linear)"/>
<circle cx="151.593" cy="327.567" r="4.32598" fill="white" fill-opacity="0.5"/>
<circle cx="151.593" cy="327.567" r="2.35962" fill="white"/>
<defs>
<linearGradient id="paint0_linear" x1="503.418" y1="278.637" x2="534.23" y2="283.498" gradientUnits="userSpaceOnUse">
<stop offset="0.197917" stop-color="#ED4454"/>
<stop offset="1" stop-color="#FBC02A"/>
</linearGradient>
<linearGradient id="paint1_linear" x1="491.253" y1="278.724" x2="491.253" y2="320.681" gradientUnits="userSpaceOnUse">
<stop stop-color="#EF318C"/>
<stop offset="1" stop-color="#FB822A"/>
</linearGradient>
<linearGradient id="paint2_linear" x1="479" y1="268.682" x2="530.229" y2="278.707" gradientUnits="userSpaceOnUse">
<stop stop-color="#E11B7B"/>
<stop offset="1" stop-color="#ED4454"/>
</linearGradient>
<linearGradient id="paint3_linear" x1="195.468" y1="191.41" x2="173.904" y2="174.042" gradientUnits="userSpaceOnUse">
<stop offset="0.197917" stop-color="#ED4454"/>
<stop offset="1" stop-color="#FBC02A"/>
</linearGradient>
<linearGradient id="paint4_linear" x1="206.499" y1="197.831" x2="227.243" y2="160.82" gradientUnits="userSpaceOnUse">
<stop stop-color="#EF318C"/>
<stop offset="1" stop-color="#FB822A"/>
</linearGradient>
<linearGradient id="paint5_linear" x1="211.435" y1="211.574" x2="174.618" y2="179.881" gradientUnits="userSpaceOnUse">
<stop stop-color="#E11B7B"/>
<stop offset="1" stop-color="#ED4454"/>
</linearGradient>
<linearGradient id="paint6_linear" x1="37.4805" y1="174.7" x2="74.6788" y2="180.568" gradientUnits="userSpaceOnUse">
<stop stop-color="#B63E80"/>
<stop offset="1" stop-color="#FBDA2A"/>
</linearGradient>
<linearGradient id="paint7_linear" x1="22.7931" y1="174.806" x2="22.7931" y2="225.459" gradientUnits="userSpaceOnUse">
<stop stop-color="#FFF278"/>
<stop offset="1" stop-color="#FFE37E"/>
</linearGradient>
<linearGradient id="paint8_linear" x1="8" y1="162.682" x2="69.8466" y2="174.785" gradientUnits="userSpaceOnUse">
<stop stop-color="#FFF386"/>
<stop offset="1" stop-color="#ED4454"/>
</linearGradient>
<linearGradient id="paint9_linear" x1="433.427" y1="440.717" x2="476.867" y2="447.57" gradientUnits="userSpaceOnUse">
<stop stop-color="#ED4454"/>
<stop offset="1" stop-color="#FBC02A"/>
</linearGradient>
<linearGradient id="paint10_linear" x1="416.275" y1="440.84" x2="416.275" y2="499.993" gradientUnits="userSpaceOnUse">
<stop stop-color="#FFE712"/>
<stop offset="1" stop-color="#FF8212"/>
</linearGradient>
<linearGradient id="paint11_linear" x1="399" y1="426.682" x2="471.224" y2="440.816" gradientUnits="userSpaceOnUse">
<stop stop-color="#FFCB12"/>
<stop offset="1" stop-color="#ED4454"/>
</linearGradient>
<linearGradient id="paint12_linear" x1="151.76" y1="320.33" x2="175.431" y2="324.064" gradientUnits="userSpaceOnUse">
<stop offset="0.197917" stop-color="#ED4454"/>
<stop offset="1" stop-color="#FB822A"/>
</linearGradient>
<linearGradient id="paint13_linear" x1="133" y1="312.682" x2="172.357" y2="320.384" gradientUnits="userSpaceOnUse">
<stop stop-color="#FF8212"/>
<stop offset="1" stop-color="#ED4454"/>
</linearGradient>
</defs>
</svg>
