<svg width="547" height="500" viewBox="0 0 547 500" fill="none" xmlns="http://www.w3.org/2000/svg">
<g clip-path="url(#clip0)">
<circle cx="285.352" cy="235.98" r="235.096" fill="url(#paint0_radial)"/>
<g filter="url(#filter0_i)">
<path d="M274.326 165C243.666 165 219 189.273 219 219.444C219 225.342 219.922 231.466 221.997 237.138C223.38 240.994 227.76 243.036 231.679 241.901C235.598 240.54 237.673 236.23 236.289 232.374C234.676 227.837 233.984 223.3 234.215 218.536C234.906 196.986 253.118 179.972 275.249 180.426C297.379 180.879 314.438 199.027 313.977 220.805C313.285 240.994 297.149 257.554 276.632 258.688C276.632 258.688 268.794 259.142 265.105 259.596C263.722 259.822 262.339 260.049 260.956 260.503C260.725 260.73 260.495 260.73 260.264 260.503C260.034 260.276 260.034 260.049 260.264 259.822L261.417 253.471L268.794 221.031C269.716 216.948 266.95 213.092 263.031 212.184C258.881 211.277 254.962 213.999 254.04 217.856C254.04 217.856 236.751 297.026 236.751 297.706C235.828 301.562 238.134 305.419 242.053 306.553C242.283 306.553 242.283 306.553 242.514 306.553C246.433 307.461 250.352 305.192 251.504 301.109C251.504 300.882 251.504 300.882 251.504 300.655C251.735 299.748 254.04 289.086 254.04 289.086C255.654 281.146 262.108 275.021 270.177 273.887C271.791 273.66 278.937 273.206 278.937 273.206C309.366 270.484 331.728 243.943 328.731 214.226C325.734 186.777 302.451 165.454 274.326 165Z" fill="#D81A76"/>
</g>
<path d="M312.429 287.17C307.358 286.263 302.517 289.439 301.595 294.203C300.442 298.967 303.669 303.957 308.51 304.865H308.741C313.582 305.999 318.423 303.05 319.576 298.286C319.576 298.059 319.576 298.059 319.576 297.832C320.728 293.069 317.501 288.305 312.429 287.17Z" fill="url(#paint1_radial)"/>
<path d="M516.208 281.408C541.687 308.228 549.956 338.108 543.765 355.527C537.573 372.945 516.14 381.73 482.096 380.802C448.053 379.874 402.878 369.275 352.115 350.305C301.352 331.334 247.209 304.818 196.329 274.008C145.449 243.199 100.044 209.437 65.6849 176.864C31.3262 144.292 9.50819 114.325 2.90772 90.6418C-3.69276 66.9582 5.21139 50.5876 28.5277 43.5384C51.844 36.4892 93.447 39.8735 139.055 51.764L136.373 54.1104C91.7996 42.4897 56.8646 40.4304 34.0771 47.3197C11.2897 54.209 2.58748 70.2084 9.03825 93.3547C15.489 116.501 36.8122 145.788 70.3916 177.622C103.971 209.455 148.346 242.452 198.073 272.562C247.799 302.673 300.714 328.588 350.326 347.128C399.937 365.669 444.087 376.027 477.359 376.934C510.631 377.841 531.577 369.256 537.628 352.232C543.68 335.209 538.35 314.817 515.202 285.431L516.208 281.408Z" fill="#E11B7B"/>
<path d="M463.374 417.639C479.251 411.66 486.707 388.017 480.002 367.902L476.985 372.261C481.054 394.538 474.426 407.38 458.91 413.224C443.393 419.067 418.964 415.711 388.158 403.502C357.353 391.294 321.296 370.68 283.731 343.8C246.166 316.92 208.464 284.755 174.541 250.646C140.617 216.537 111.71 181.727 90.8203 149.833C69.9309 117.939 57.8214 90.1226 55.7497 69.2739C53.678 48.4252 61.7196 35.3042 79.0392 31.2736C95.4835 27.4467 119.722 31.9472 149.448 44.3122L151.635 42.2544C118.978 28.0282 92.4097 22.7005 74.6881 26.8246C56.9666 30.9487 48.7384 44.3743 50.8582 65.7068C52.978 87.0394 65.3685 115.501 86.7427 148.135C108.117 180.77 137.695 216.387 172.406 251.288C207.117 286.188 245.694 319.1 284.13 346.603C322.567 374.107 359.461 395.2 390.981 407.692C422.501 420.183 447.498 423.618 463.374 417.639Z" fill="#FBE62A"/>
<circle cx="79.5141" cy="43.6069" r="18.9009" fill="url(#paint2_radial)"/>
<circle cx="307.473" cy="384.473" r="6.4729" fill="url(#paint3_radial)"/>
</g>
<defs>
<filter id="filter0_i" x="219" y="165" width="110" height="141.752" filterUnits="userSpaceOnUse" color-interpolation-filters="sRGB">
<feFlood flood-opacity="0" result="BackgroundImageFix"/>
<feBlend mode="normal" in="SourceGraphic" in2="BackgroundImageFix" result="shape"/>
<feColorMatrix in="SourceAlpha" type="matrix" values="0 0 0 0 0 0 0 0 0 0 0 0 0 0 0 0 0 0 127 0" result="hardAlpha"/>
<feOffset dx="1" dy="4"/>
<feComposite in2="hardAlpha" operator="arithmetic" k2="-1" k3="1"/>
<feColorMatrix type="matrix" values="0 0 0 0 0.227451 0 0 0 0 0.0313726 0 0 0 0 0.12549 0 0 0 0.3 0"/>
<feBlend mode="normal" in2="shape" result="effect1_innerShadow"/>
</filter>
<radialGradient id="paint0_radial" cx="0" cy="0" r="1" gradientUnits="userSpaceOnUse" gradientTransform="translate(156.502 77.5169) rotate(45.3723) scale(442.777)">
<stop stop-color="#E11B7B"/>
<stop offset="0.902022" stop-color="#280516"/>
</radialGradient>
<radialGradient id="paint1_radial" cx="0" cy="0" r="1" gradientUnits="userSpaceOnUse" gradientTransform="translate(304 293) rotate(31.2637) scale(16.3783 14.431)">
<stop stop-color="#FF51AD"/>
<stop offset="0.603353" stop-color="#C9006B"/>
<stop offset="0.910884" stop-color="#6F023B"/>
</radialGradient>
<radialGradient id="paint2_radial" cx="0" cy="0" r="1" gradientUnits="userSpaceOnUse" gradientTransform="translate(69.155 30.867) rotate(45.3723) scale(35.5977)">
<stop stop-color="#E11B7B"/>
<stop offset="0.902022" stop-color="#280516"/>
</radialGradient>
<radialGradient id="paint3_radial" cx="0" cy="0" r="1" gradientUnits="userSpaceOnUse" gradientTransform="translate(303.925 380.11) rotate(46.5472) scale(11.1817)">
<stop stop-color="#FB822A"/>
<stop offset="0.869792" stop-color="#5A2600"/>
<stop offset="1" stop-color="#BC4F00"/>
</radialGradient>
<clipPath id="clip0">
<rect width="547" height="500" fill="white"/>
</clipPath>
</defs>
</svg>
