<svg width="302" height="190" viewBox="0 0 302 190" fill="none" xmlns="http://www.w3.org/2000/svg">
<path d="M24.3335 9.98438C23.6048 3.9375 19.0281 0.460226 12.9684 0.460226C6.0522 0.460226 0.772372 5.34375 0.772372 13.9091C0.772372 22.4489 5.96271 27.358 12.9684 27.358C19.68 27.358 23.7326 22.8963 24.3335 18.0767L18.734 18.0511C18.2099 20.8509 16.011 22.4616 13.0579 22.4616C9.08203 22.4616 6.38459 19.5085 6.38459 13.9091C6.38459 8.46307 9.04368 5.35653 13.0962 5.35653C16.1261 5.35653 18.3121 7.10795 18.734 9.98438H24.3335ZM33.6467 0.818181H28.2006V27H33.6467V0.818181ZM46.8814 27.3835C52.8388 27.3835 56.5462 23.3054 56.5462 17.2585C56.5462 11.1733 52.8388 7.10795 46.8814 7.10795C40.924 7.10795 37.2166 11.1733 37.2166 17.2585C37.2166 23.3054 40.924 27.3835 46.8814 27.3835ZM46.907 23.1648C44.1584 23.1648 42.7521 20.6463 42.7521 17.2202C42.7521 13.794 44.1584 11.2628 46.907 11.2628C49.6044 11.2628 51.0107 13.794 51.0107 17.2202C51.0107 20.6463 49.6044 23.1648 46.907 23.1648ZM77.7262 7.36364H71.9606L67.8952 21.4134H67.6907L63.6126 7.36364H57.8597L64.7248 27H70.8612L77.7262 7.36364ZM88.794 27.3835C93.652 27.3835 96.9247 25.0185 97.6918 21.375L92.6548 21.0426C92.1051 22.5384 90.6989 23.3182 88.8835 23.3182C86.1605 23.3182 84.4347 21.5156 84.4347 18.5881V18.5753H97.8068V17.0795C97.8068 10.4062 93.767 7.10795 88.5767 7.10795C82.7983 7.10795 79.0526 11.2116 79.0526 17.2713C79.0526 23.4972 82.7472 27.3835 88.794 27.3835ZM84.4347 15.2003C84.5497 12.9631 86.25 11.1733 88.6662 11.1733C91.0312 11.1733 92.6676 12.8608 92.6804 15.2003H84.4347ZM101.361 27H106.807V15.8906C106.807 13.4744 108.571 11.8125 110.974 11.8125C111.729 11.8125 112.764 11.9403 113.276 12.1065V7.27415C112.79 7.15909 112.112 7.08239 111.562 7.08239C109.364 7.08239 107.561 8.3608 106.845 10.7898H106.641V7.36364H101.361V27ZM148.585 13.9091C148.585 5.34375 143.267 0.460226 136.325 0.460226C129.345 0.460226 124.065 5.34375 124.065 13.9091C124.065 22.4361 129.345 27.358 136.325 27.358C143.267 27.358 148.585 22.4744 148.585 13.9091ZM142.973 13.9091C142.973 19.4574 140.339 22.4616 136.325 22.4616C132.298 22.4616 129.678 19.4574 129.678 13.9091C129.678 8.3608 132.298 5.35653 136.325 5.35653C140.339 5.35653 142.973 8.3608 142.973 13.9091ZM166.889 8.34801H172.194C172.118 3.68182 168.282 0.460226 162.453 0.460226C156.713 0.460226 152.507 3.63068 152.532 8.38636C152.52 12.2472 155.243 14.4588 159.666 15.5199L162.517 16.2358C165.368 16.9261 166.953 17.7443 166.966 19.5085C166.953 21.4261 165.137 22.7301 162.325 22.7301C159.449 22.7301 157.377 21.4006 157.199 18.7798H151.842C151.983 24.4432 156.035 27.3707 162.389 27.3707C168.781 27.3707 172.539 24.3153 172.552 19.5213C172.539 15.1619 169.254 12.848 164.703 11.8253L162.35 11.2628C160.075 10.7386 158.17 9.89489 158.208 8.01562C158.208 6.32812 159.704 5.08807 162.414 5.08807C165.061 5.08807 166.684 6.28977 166.889 8.34801ZM51.6818 52.348H56.9872C56.9105 47.6818 53.0753 44.4602 47.2457 44.4602C41.5057 44.4602 37.2997 47.6307 37.3253 52.3864C37.3125 56.2472 40.0355 58.4588 44.4588 59.5199L47.3097 60.2358C50.1605 60.9261 51.7457 61.7443 51.7585 63.5085C51.7457 65.4261 49.9304 66.7301 47.1179 66.7301C44.2415 66.7301 42.1705 65.4006 41.9915 62.7798H36.6349C36.7756 68.4432 40.8281 71.3707 47.1818 71.3707C53.5739 71.3707 57.3324 68.3153 57.3452 63.5213C57.3324 59.1619 54.0469 56.848 49.4957 55.8253L47.1435 55.2628C44.8679 54.7386 42.9631 53.8949 43.0014 52.0156C43.0014 50.3281 44.4972 49.0881 47.2074 49.0881C49.8537 49.0881 51.4773 50.2898 51.6818 52.348ZM71.4109 51.3636H67.7163V46.6591H62.2702V51.3636H59.5856V55.4545H62.2702V65.6818C62.2447 69.5298 64.8654 71.4347 68.8157 71.2685C70.2219 71.2173 71.2191 70.9361 71.7688 70.7571L70.9123 66.7045C70.6438 66.7557 70.0685 66.8835 69.5572 66.8835C68.4705 66.8835 67.7163 66.4744 67.7163 64.9659V55.4545H71.4109V51.3636ZM83.6197 71.3835C89.5771 71.3835 93.2844 67.3054 93.2844 61.2585C93.2844 55.1733 89.5771 51.108 83.6197 51.108C77.6623 51.108 73.9549 55.1733 73.9549 61.2585C73.9549 67.3054 77.6623 71.3835 83.6197 71.3835ZM83.6452 67.1648C80.8967 67.1648 79.4904 64.6463 79.4904 61.2202C79.4904 57.794 80.8967 55.2628 83.6452 55.2628C86.3427 55.2628 87.7489 57.794 87.7489 61.2202C87.7489 64.6463 86.3427 67.1648 83.6452 67.1648ZM96.8256 71H102.272V59.8906C102.272 57.4744 104.036 55.8125 106.439 55.8125C107.194 55.8125 108.229 55.9403 108.74 56.1065V51.2741C108.255 51.1591 107.577 51.0824 107.027 51.0824C104.828 51.0824 103.026 52.3608 102.31 54.7898H102.105V51.3636H96.8256V71ZM116.593 71.3707C119.495 71.3707 121.374 70.1051 122.333 68.277H122.487V71H127.651V57.7557C127.651 53.0767 123.688 51.108 119.316 51.108C114.612 51.108 111.518 53.358 110.763 56.9375L115.8 57.3466C116.171 56.0426 117.335 55.0838 119.29 55.0838C121.144 55.0838 122.205 56.017 122.205 57.6278V57.7045C122.205 58.9702 120.863 59.1364 117.45 59.4688C113.563 59.8267 110.073 61.1307 110.073 65.5156C110.073 69.402 112.847 71.3707 116.593 71.3707ZM118.153 67.6122C116.478 67.6122 115.276 66.8324 115.276 65.3366C115.276 63.8026 116.542 63.0483 118.46 62.7798C119.648 62.6136 121.592 62.3324 122.244 61.8977V63.9815C122.244 66.0398 120.543 67.6122 118.153 67.6122ZM140.723 78.7727C146.335 78.7727 150.324 76.2159 150.324 71.1918V51.3636H144.916V54.6619H144.712C143.983 53.0639 142.385 51.108 139.099 51.108C134.791 51.108 131.148 54.4574 131.148 61.1435C131.148 67.6761 134.689 70.7188 139.112 70.7188C142.244 70.7188 143.996 69.1463 144.712 67.5227H144.942V71.1151C144.942 73.8125 143.216 74.8608 140.851 74.8608C138.447 74.8608 137.233 73.8125 136.786 72.6236L131.749 73.3011C132.401 76.3949 135.43 78.7727 140.723 78.7727ZM140.838 66.6278C138.166 66.6278 136.709 64.5057 136.709 61.1179C136.709 57.7812 138.141 55.4418 140.838 55.4418C143.484 55.4418 144.967 57.679 144.967 61.1179C144.967 64.5824 143.459 66.6278 140.838 66.6278ZM163.607 71.3835C168.464 71.3835 171.737 69.0185 172.504 65.375L167.467 65.0426C166.918 66.5384 165.511 67.3182 163.696 67.3182C160.973 67.3182 159.247 65.5156 159.247 62.5881V62.5753H172.619V61.0795C172.619 54.4062 168.58 51.108 163.389 51.108C157.611 51.108 153.865 55.2116 153.865 61.2713C153.865 67.4972 157.56 71.3835 163.607 71.3835ZM159.247 59.2003C159.362 56.9631 161.062 55.1733 163.479 55.1733C165.844 55.1733 167.48 56.8608 167.493 59.2003H159.247Z" fill="black"/>
<path d="M302 6.00002C302 30.1632 297.241 54.0899 287.994 76.4138C278.747 98.7377 265.194 119.022 248.108 136.108C231.022 153.194 210.738 166.747 188.414 175.994C166.09 185.241 142.163 190 118 190L118 116.428C132.502 116.428 146.861 113.572 160.259 108.022C173.657 102.473 185.83 94.3385 196.084 84.0843C206.338 73.8301 214.473 61.6566 220.022 48.2589C225.572 34.8612 228.428 20.5016 228.428 6.00002L302 6.00002Z" fill="url(#paint0_linear)"/>
<defs>
<linearGradient id="paint0_linear" x1="118" y1="190" x2="133.675" y2="-7.36858" gradientUnits="userSpaceOnUse">
<stop stop-color="#FF8212"/>
<stop offset="1" stop-color="#ED4454"/>
</linearGradient>
</defs>
</svg>
