<svg width="63" height="16" viewBox="0 0 63 16" fill="none" xmlns="http://www.w3.org/2000/svg">
<path d="M10.58 10.64C10.58 10.42 10.4 10.24 10.18 10.24H8.18C7.96 10.24 7.78 10.44 7.78 10.66V10.68C7.78 11.54 7 12.4 5.82 12.4C4.6 12.4 3.98 11.68 3.88 10.8C3.68 9.12 3.68 6.88 3.88 5.2C3.98 4.32 4.6 3.6 5.82 3.6C7.08 3.6 7.78 4.52 7.78 5.34V5.36C7.78 5.58 7.96 5.76 8.18 5.76H10.18C10.4 5.76 10.58 5.56 10.58 5.36V5.34C10.58 2.68 8.58 0.779999 5.82 0.779999C3.06 0.779999 1.34 2.8 1.06 5.2C0.86 6.88 0.86 9.12 1.06 10.8C1.34 13.2 3.06 15.22 5.82 15.22C8.58 15.22 10.58 13.34 10.58 10.66V10.64ZM15.4867 1.4C15.4867 1.18 15.3067 0.999999 15.0867 0.999999H13.0867C12.8667 0.999999 12.6867 1.18 12.6867 1.4V14.6C12.6867 14.82 12.8667 15 13.0867 15H19.8867C20.1067 15 20.2867 14.82 20.2867 14.6V12.6C20.2867 12.38 20.1067 12.2 19.8867 12.2H15.6867C15.5667 12.2 15.4867 12.12 15.4867 12V1.4ZM26.3083 12.4C25.0883 12.4 24.4683 11.68 24.3683 10.8C24.1683 9.12 24.1683 6.88 24.3683 5.2C24.4683 4.32 25.0883 3.6 26.3083 3.6C27.5283 3.6 28.1483 4.32 28.2483 5.2C28.4483 6.88 28.4483 9.12 28.2483 10.8C28.1483 11.68 27.5283 12.4 26.3083 12.4ZM26.3083 0.779999C23.5483 0.779999 21.8283 2.8 21.5483 5.2C21.3483 6.88 21.3483 9.12 21.5483 10.8C21.8283 13.2 23.5483 15.22 26.3083 15.22C29.0683 15.22 30.7883 13.2 31.0683 10.8C31.2683 9.12 31.2683 6.88 31.0683 5.2C30.7883 2.8 29.0683 0.779999 26.3083 0.779999ZM42.3239 1.48C42.3839 1.28 42.2639 0.999999 41.9439 0.999999H39.7439C39.5639 0.999999 39.4039 1.08 39.3639 1.3L37.1839 10.68C37.1639 10.76 37.1239 10.82 37.0439 10.82H36.9239C36.8439 10.82 36.8039 10.76 36.7839 10.68L34.5839 1.3C34.5439 1.08 34.3839 0.999999 34.2039 0.999999H32.0039C31.6839 0.999999 31.5639 1.28 31.6239 1.48L35.0839 14.7C35.1439 14.9 35.2839 15 35.4639 15H38.4839C38.6639 15 38.8039 14.9 38.8639 14.7L42.3239 1.48ZM46.5414 9.6C46.5414 9.48 46.6214 9.4 46.7414 9.4H51.2414C51.4614 9.4 51.6414 9.22 51.6414 9V7C51.6414 6.78 51.4614 6.6 51.2414 6.6H46.7414C46.6214 6.6 46.5414 6.52 46.5414 6.4V4C46.5414 3.88 46.6214 3.8 46.7414 3.8H51.4014C51.6214 3.8 51.8014 3.62 51.8014 3.4V1.4C51.8014 1.18 51.6214 0.999999 51.4014 0.999999H44.1414C43.9214 0.999999 43.7414 1.18 43.7414 1.4V14.6C43.7414 14.82 43.9214 15 44.1414 15H51.4814C51.7014 15 51.8814 14.82 51.8814 14.6V12.6C51.8814 12.38 51.7014 12.2 51.4814 12.2H46.7414C46.6214 12.2 46.5414 12.12 46.5414 12V9.6ZM57.4958 9.4C57.7158 9.4 57.8158 9.56 57.8558 9.66L59.8958 14.6C59.9958 14.84 60.1558 15 60.4758 15H62.5358C62.9358 15 63.0558 14.7 62.9158 14.4L60.7758 9.4C60.6358 9.1 60.6158 8.94 60.8958 8.74C62.3158 7.78 62.9758 6.74 62.9758 5.2C62.9758 2.9 61.0758 0.999999 58.7758 0.999999H54.3758C54.1558 0.999999 53.9758 1.18 53.9758 1.4V14.6C53.9758 14.82 54.1558 15 54.3758 15H56.3758C56.5958 15 56.7758 14.82 56.7758 14.6V9.6C56.7758 9.48 56.8558 9.4 56.9758 9.4H57.4958ZM58.7758 3.8C59.5358 3.8 60.1758 4.44 60.1758 5.2C60.1758 5.98 59.5358 6.6 58.7758 6.6H56.9758C56.8558 6.6 56.7758 6.52 56.7758 6.4V4C56.7758 3.88 56.8558 3.8 56.9758 3.8H58.7758Z" fill="black"/>
</svg>
