<svg width="297" height="181" viewBox="0 0 297 181" fill="none" xmlns="http://www.w3.org/2000/svg">
<path d="M7.34703e-06 181C8.38601e-06 157.231 4.68173 133.694 13.7778 111.734C22.8739 89.7744 36.2063 69.8211 53.0137 53.0137C69.8211 36.2063 89.7744 22.8739 111.734 13.7778C133.694 4.6817 157.231 -3.11696e-06 181 0L181 72.3726C166.735 72.3726 152.609 75.1823 139.43 80.6413C126.251 86.1004 114.276 94.1018 104.189 104.189C94.1018 114.276 86.1004 126.251 80.6413 139.43C75.1823 152.609 72.3726 166.735 72.3726 181L7.34703e-06 181Z" fill="url(#paint0_linear)"/>
<path d="M148.376 115.984C147.648 109.938 143.071 106.46 137.011 106.46C130.095 106.46 124.815 111.344 124.815 119.909C124.815 128.449 130.006 133.358 137.011 133.358C143.723 133.358 147.776 128.896 148.376 124.077L142.777 124.051C142.253 126.851 140.054 128.462 137.101 128.462C133.125 128.462 130.428 125.509 130.428 119.909C130.428 114.463 133.087 111.357 137.139 111.357C140.169 111.357 142.355 113.108 142.777 115.984H148.376ZM157.69 106.818H152.244V133H157.69V106.818ZM170.924 133.384C176.882 133.384 180.589 129.305 180.589 123.259C180.589 117.173 176.882 113.108 170.924 113.108C164.967 113.108 161.26 117.173 161.26 123.259C161.26 129.305 164.967 133.384 170.924 133.384ZM170.95 129.165C168.201 129.165 166.795 126.646 166.795 123.22C166.795 119.794 168.201 117.263 170.95 117.263C173.647 117.263 175.054 119.794 175.054 123.22C175.054 126.646 173.647 129.165 170.95 129.165ZM201.769 113.364H196.004L191.938 127.413H191.734L187.656 113.364H181.903L188.768 133H194.904L201.769 113.364ZM212.837 133.384C217.695 133.384 220.968 131.018 221.735 127.375L216.698 127.043C216.148 128.538 214.742 129.318 212.926 129.318C210.203 129.318 208.478 127.516 208.478 124.588V124.575H221.85V123.08C221.85 116.406 217.81 113.108 212.62 113.108C206.841 113.108 203.096 117.212 203.096 123.271C203.096 129.497 206.79 133.384 212.837 133.384ZM208.478 121.2C208.593 118.963 210.293 117.173 212.709 117.173C215.074 117.173 216.711 118.861 216.723 121.2H208.478ZM225.404 133H230.85V121.891C230.85 119.474 232.614 117.812 235.017 117.812C235.772 117.812 236.807 117.94 237.319 118.107V113.274C236.833 113.159 236.155 113.082 235.605 113.082C233.407 113.082 231.604 114.361 230.888 116.79H230.684V113.364H225.404V133ZM272.628 119.909C272.628 111.344 267.31 106.46 260.368 106.46C253.388 106.46 248.108 111.344 248.108 119.909C248.108 128.436 253.388 133.358 260.368 133.358C267.31 133.358 272.628 128.474 272.628 119.909ZM267.016 119.909C267.016 125.457 264.382 128.462 260.368 128.462C256.341 128.462 253.721 125.457 253.721 119.909C253.721 114.361 256.341 111.357 260.368 111.357C264.382 111.357 267.016 114.361 267.016 119.909ZM290.932 114.348H296.237C296.161 109.682 292.325 106.46 286.496 106.46C280.756 106.46 276.55 109.631 276.575 114.386C276.562 118.247 279.286 120.459 283.709 121.52L286.56 122.236C289.411 122.926 290.996 123.744 291.009 125.509C290.996 127.426 289.18 128.73 286.368 128.73C283.491 128.73 281.42 127.401 281.241 124.78H275.885C276.026 130.443 280.078 133.371 286.432 133.371C292.824 133.371 296.582 130.315 296.595 125.521C296.582 121.162 293.297 118.848 288.746 117.825L286.393 117.263C284.118 116.739 282.213 115.895 282.251 114.016C282.251 112.328 283.747 111.088 286.457 111.088C289.104 111.088 290.727 112.29 290.932 114.348ZM125.276 177H136.462C142.342 177 145.474 173.932 145.474 169.764C145.474 165.891 142.7 163.551 139.722 163.411V163.155C142.445 162.541 144.452 160.611 144.452 157.53C144.452 153.605 141.537 150.818 135.759 150.818H125.276V177ZM130.811 172.474V165.52H135.452C138.111 165.52 139.76 167.054 139.76 169.214C139.76 171.183 138.418 172.474 135.324 172.474H130.811ZM130.811 161.774V155.293H135.017C137.472 155.293 138.865 156.558 138.865 158.45C138.865 160.521 137.178 161.774 134.915 161.774H130.811ZM154.574 177.371C157.475 177.371 159.355 176.105 160.314 174.277H160.467V177H165.632V163.756C165.632 159.077 161.669 157.108 157.297 157.108C152.592 157.108 149.498 159.358 148.744 162.938L153.781 163.347C154.152 162.043 155.315 161.084 157.271 161.084C159.125 161.084 160.186 162.017 160.186 163.628V163.705C160.186 164.97 158.843 165.136 155.43 165.469C151.544 165.827 148.054 167.131 148.054 171.516C148.054 175.402 150.828 177.371 154.574 177.371ZM156.133 173.612C154.458 173.612 153.257 172.832 153.257 171.337C153.257 169.803 154.522 169.048 156.44 168.78C157.629 168.614 159.572 168.332 160.224 167.898V169.982C160.224 172.04 158.524 173.612 156.133 173.612ZM178.729 177.384C183.958 177.384 187.243 174.315 187.499 169.803H182.36C182.04 171.899 180.659 173.075 178.793 173.075C176.249 173.075 174.6 170.94 174.6 167.182C174.6 163.474 176.262 161.352 178.793 161.352C180.787 161.352 182.066 162.669 182.36 164.625H187.499C187.269 160.087 183.83 157.108 178.703 157.108C172.746 157.108 169.064 161.237 169.064 167.259C169.064 173.229 172.682 177.384 178.729 177.384ZM190.986 177H196.432V170.761L197.902 169.087L203.259 177H209.638L201.98 165.865L209.267 157.364H203.016L196.726 164.817H196.432V150.818H190.986V177ZM220.373 177H238.066V172.436H225.909V166.185H237.108V161.621H225.909V155.382H238.015V150.818H220.373V177ZM247.76 165.648C247.773 163.116 249.281 161.634 251.48 161.634C253.666 161.634 254.983 163.065 254.97 165.469V177H260.416V164.497C260.416 159.92 257.732 157.108 253.641 157.108C250.726 157.108 248.616 158.54 247.734 160.828H247.504V157.364H242.314V177H247.76V165.648ZM271.944 177.32C275.115 177.32 276.764 175.491 277.518 173.855H277.748V177H283.118V150.818H277.684V160.662H277.518C276.789 159.064 275.217 157.108 271.931 157.108C267.623 157.108 263.98 160.457 263.98 167.207C263.98 173.778 267.47 177.32 271.944 177.32ZM273.67 172.986C270.998 172.986 269.541 170.608 269.541 167.182C269.541 163.781 270.973 161.442 273.67 161.442C276.316 161.442 277.799 163.679 277.799 167.182C277.799 170.685 276.291 172.986 273.67 172.986Z" fill="black"/>
<defs>
<linearGradient id="paint0_linear" x1="181" y1="0" x2="165.58" y2="194.151" gradientUnits="userSpaceOnUse">
<stop stop-color="#FF8212"/>
<stop offset="1" stop-color="#ED4454"/>
</linearGradient>
</defs>
</svg>
