<svg width="433" height="184" viewBox="0 0 433 184" fill="none" xmlns="http://www.w3.org/2000/svg">
<path d="M174.715 126.753C183.579 126.753 188.948 121.27 188.948 112.179C188.948 103.116 183.579 97.6619 174.801 97.6619H164.403V126.753H174.715ZM170.553 121.483V102.932H174.474C179.928 102.932 182.812 105.716 182.812 112.179C182.812 118.67 179.928 121.483 174.46 121.483H170.553Z" fill="black"/>
<path d="M203.334 127.179C208.732 127.179 212.368 124.551 213.22 120.503L207.624 120.134C207.013 121.795 205.45 122.662 203.433 122.662C200.408 122.662 198.49 120.659 198.49 117.406V117.392H213.348V115.73C213.348 108.315 208.86 104.651 203.093 104.651C196.672 104.651 192.51 109.21 192.51 115.943C192.51 122.861 196.615 127.179 203.334 127.179ZM198.49 113.642C198.618 111.156 200.507 109.168 203.192 109.168C205.82 109.168 207.638 111.043 207.652 113.642H198.49Z" fill="black"/>
<path d="M227.155 127.179C232.965 127.179 236.615 123.77 236.899 118.756H231.189C230.834 121.085 229.3 122.392 227.226 122.392C224.399 122.392 222.567 120.02 222.567 115.844C222.567 111.724 224.414 109.366 227.226 109.366C229.442 109.366 230.862 110.83 231.189 113.003H236.899C236.644 107.96 232.823 104.651 227.127 104.651C220.507 104.651 216.416 109.239 216.416 115.929C216.416 122.562 220.436 127.179 227.155 127.179Z" fill="black"/>
<path d="M250.717 127.179C256.115 127.179 259.751 124.551 260.603 120.503L255.007 120.134C254.396 121.795 252.833 122.662 250.816 122.662C247.791 122.662 245.873 120.659 245.873 117.406V117.392H260.731V115.73C260.731 108.315 256.242 104.651 250.475 104.651C244.055 104.651 239.893 109.21 239.893 115.943C239.893 122.861 243.998 127.179 250.717 127.179ZM245.873 113.642C246.001 111.156 247.89 109.168 250.575 109.168C253.203 109.168 255.021 111.043 255.035 113.642H245.873Z" fill="black"/>
<path d="M270.731 114.139C270.745 111.327 272.421 109.679 274.865 109.679C277.293 109.679 278.757 111.27 278.742 113.94V126.753H284.794V112.861C284.794 107.776 281.811 104.651 277.265 104.651C274.026 104.651 271.683 106.241 270.703 108.784H270.447V104.935H264.68V126.753H270.731V114.139Z" fill="black"/>
<path d="M301.168 104.935H297.063V99.7074H291.012V104.935H288.029V109.48H291.012V120.844C290.983 125.119 293.895 127.236 298.284 127.051C299.847 126.994 300.955 126.682 301.566 126.483L300.614 121.98C300.316 122.037 299.676 122.179 299.108 122.179C297.901 122.179 297.063 121.724 297.063 120.048V109.48H301.168V104.935Z" fill="black"/>
<path d="M305.11 126.753H311.161V114.409C311.161 111.724 313.121 109.878 315.791 109.878C316.629 109.878 317.78 110.02 318.348 110.205V104.835C317.808 104.707 317.056 104.622 316.445 104.622C314.002 104.622 311.999 106.043 311.203 108.741H310.976V104.935H305.11V126.753Z" fill="black"/>
<path d="M327.073 127.165C330.298 127.165 332.386 125.759 333.451 123.727H333.622V126.753H339.36V112.037C339.36 106.838 334.957 104.651 330.099 104.651C324.872 104.651 321.434 107.151 320.596 111.128L326.193 111.582C326.605 110.134 327.897 109.068 330.07 109.068C332.13 109.068 333.309 110.105 333.309 111.895V111.98C333.309 113.386 331.818 113.571 328.025 113.94C323.707 114.338 319.829 115.787 319.829 120.659C319.829 124.977 322.911 127.165 327.073 127.165ZM328.806 122.989C326.945 122.989 325.61 122.122 325.61 120.46C325.61 118.756 327.017 117.918 329.147 117.619C330.468 117.435 332.627 117.122 333.352 116.639V118.955C333.352 121.241 331.463 122.989 328.806 122.989Z" fill="black"/>
<path d="M350.106 97.6619H344.055V126.753H350.106V97.6619Z" fill="black"/>
<path d="M354.953 126.753H361.004V104.935H354.953V126.753ZM357.993 102.122C359.797 102.122 361.274 100.744 361.274 99.054C361.274 97.3778 359.797 96 357.993 96C356.203 96 354.726 97.3778 354.726 99.054C354.726 100.744 356.203 102.122 357.993 102.122Z" fill="black"/>
<path d="M365.738 126.753H384.076V121.923H373.678V121.767L383.707 108.869V104.935H366.107V109.764H376.42V109.92L365.738 123.145V126.753Z" fill="black"/>
<path d="M398.021 127.179C403.419 127.179 407.056 124.551 407.908 120.503L402.311 120.134C401.7 121.795 400.138 122.662 398.121 122.662C395.095 122.662 393.178 120.659 393.178 117.406V117.392H408.036V115.73C408.036 108.315 403.547 104.651 397.78 104.651C391.36 104.651 387.198 109.21 387.198 115.943C387.198 122.861 391.303 127.179 398.021 127.179ZM393.178 113.642C393.306 111.156 395.195 109.168 397.879 109.168C400.507 109.168 402.325 111.043 402.34 113.642H393.178Z" fill="black"/>
<path d="M420.024 127.108C423.547 127.108 425.379 125.077 426.217 123.259H426.473V126.753H432.439V97.6619H426.402V108.599H426.217C425.408 106.824 423.661 104.651 420.01 104.651C415.223 104.651 411.175 108.372 411.175 115.872C411.175 123.173 415.053 127.108 420.024 127.108ZM421.942 122.293C418.973 122.293 417.354 119.651 417.354 115.844C417.354 112.065 418.945 109.466 421.942 109.466C424.882 109.466 426.53 111.952 426.53 115.844C426.53 119.736 424.854 122.293 421.942 122.293Z" fill="black"/>
<path d="M112.709 150.733H121.615V174.753H127.695V150.733H136.601V145.662H112.709V150.733Z" fill="black"/>
<path d="M138.156 174.753H144.208V162.409C144.208 159.724 146.168 157.878 148.838 157.878C149.676 157.878 150.827 158.02 151.395 158.205V152.835C150.855 152.707 150.102 152.622 149.492 152.622C147.048 152.622 145.046 154.043 144.25 156.741H144.023V152.935H138.156V174.753Z" fill="black"/>
<path d="M160.12 175.165C163.345 175.165 165.433 173.759 166.498 171.727H166.669V174.753H172.407V160.037C172.407 154.838 168.004 152.651 163.146 152.651C157.919 152.651 154.481 155.151 153.643 159.128L159.24 159.582C159.651 158.134 160.944 157.068 163.117 157.068C165.177 157.068 166.356 158.105 166.356 159.895V159.98C166.356 161.386 164.865 161.571 161.072 161.94C156.754 162.338 152.876 163.787 152.876 168.659C152.876 172.977 155.958 175.165 160.12 175.165ZM161.853 170.989C159.992 170.989 158.657 170.122 158.657 168.46C158.657 166.756 160.063 165.918 162.194 165.619C163.515 165.435 165.674 165.122 166.399 164.639V166.955C166.399 169.241 164.509 170.989 161.853 170.989Z" fill="black"/>
<path d="M185.142 175.108C188.664 175.108 190.497 173.077 191.335 171.259H191.59V174.753H197.556V145.662H191.519V156.599H191.335C190.525 154.824 188.778 152.651 185.127 152.651C180.34 152.651 176.292 156.372 176.292 163.872C176.292 171.173 180.17 175.108 185.142 175.108ZM187.059 170.293C184.09 170.293 182.471 167.651 182.471 163.844C182.471 160.065 184.062 157.466 187.059 157.466C189.999 157.466 191.647 159.952 191.647 163.844C191.647 167.736 189.971 170.293 187.059 170.293Z" fill="black"/>
<path d="M202.531 174.753H208.583V152.935H202.531V174.753ZM205.571 150.122C207.375 150.122 208.852 148.744 208.852 147.054C208.852 145.378 207.375 144 205.571 144C203.781 144 202.304 145.378 202.304 147.054C202.304 148.744 203.781 150.122 205.571 150.122Z" fill="black"/>
<path d="M219.481 162.139C219.495 159.327 221.171 157.679 223.615 157.679C226.044 157.679 227.507 159.27 227.492 161.94V174.753H233.544V160.861C233.544 155.776 230.561 152.651 226.015 152.651C222.776 152.651 220.433 154.241 219.453 156.784H219.197V152.935H213.43V174.753H219.481V162.139Z" fill="black"/>
<path d="M248.142 183.389C254.378 183.389 258.81 180.548 258.81 174.966V152.935H252.801V156.599H252.574C251.764 154.824 249.989 152.651 246.338 152.651C241.551 152.651 237.503 156.372 237.503 163.801C237.503 171.06 241.438 174.44 246.352 174.44C249.833 174.44 251.779 172.693 252.574 170.889H252.83V174.881C252.83 177.878 250.912 179.043 248.284 179.043C245.614 179.043 244.264 177.878 243.767 176.557L238.171 177.31C238.895 180.747 242.262 183.389 248.142 183.389ZM248.27 169.895C245.301 169.895 243.682 167.537 243.682 163.773C243.682 160.065 245.273 157.466 248.27 157.466C251.21 157.466 252.858 159.952 252.858 163.773C252.858 167.622 251.182 169.895 248.27 169.895Z" fill="black"/>
<path d="M272.997 174.753H279.147V165.321H284.318C291.008 165.321 294.9 161.33 294.9 155.52C294.9 149.739 291.079 145.662 284.474 145.662H272.997V174.753ZM279.147 160.392V150.69H283.295C286.846 150.69 288.565 152.622 288.565 155.52C288.565 158.403 286.846 160.392 283.323 160.392H279.147Z" fill="black"/>
<path d="M298.781 174.753H304.833V162.409C304.833 159.724 306.793 157.878 309.463 157.878C310.301 157.878 311.452 158.02 312.02 158.205V152.835C311.48 152.707 310.727 152.622 310.117 152.622C307.673 152.622 305.671 154.043 304.875 156.741H304.648V152.935H298.781V174.753Z" fill="black"/>
<path d="M323.991 175.179C330.61 175.179 334.73 170.648 334.73 163.929C334.73 157.168 330.61 152.651 323.991 152.651C317.372 152.651 313.252 157.168 313.252 163.929C313.252 170.648 317.372 175.179 323.991 175.179ZM324.019 170.491C320.965 170.491 319.403 167.693 319.403 163.886C319.403 160.08 320.965 157.267 324.019 157.267C327.017 157.267 328.579 160.08 328.579 163.886C328.579 167.693 327.017 170.491 324.019 170.491Z" fill="black"/>
<path d="M350.269 152.935H346.164V147.707H340.113V152.935H337.13V157.48H340.113V168.844C340.085 173.119 342.997 175.236 347.386 175.051C348.948 174.994 350.056 174.682 350.667 174.483L349.715 169.98C349.417 170.037 348.778 170.179 348.21 170.179C347.002 170.179 346.164 169.724 346.164 168.048V157.48H350.269V152.935Z" fill="black"/>
<path d="M363.835 175.179C370.454 175.179 374.573 170.648 374.573 163.929C374.573 157.168 370.454 152.651 363.835 152.651C357.215 152.651 353.096 157.168 353.096 163.929C353.096 170.648 357.215 175.179 363.835 175.179ZM363.863 170.491C360.809 170.491 359.247 167.693 359.247 163.886C359.247 160.08 360.809 157.267 363.863 157.267C366.86 157.267 368.423 160.08 368.423 163.886C368.423 167.693 366.86 170.491 363.863 170.491Z" fill="black"/>
<path d="M388.366 175.179C394.176 175.179 397.826 171.77 398.11 166.756H392.4C392.045 169.085 390.511 170.392 388.437 170.392C385.61 170.392 383.778 168.02 383.778 163.844C383.778 159.724 385.624 157.366 388.437 157.366C390.653 157.366 392.073 158.83 392.4 161.003H398.11C397.855 155.96 394.034 152.651 388.338 152.651C381.718 152.651 377.627 157.239 377.627 163.929C377.627 170.562 381.647 175.179 388.366 175.179Z" fill="black"/>
<path d="M411.842 175.179C418.462 175.179 422.581 170.648 422.581 163.929C422.581 157.168 418.462 152.651 411.842 152.651C405.223 152.651 401.104 157.168 401.104 163.929C401.104 170.648 405.223 175.179 411.842 175.179ZM411.871 170.491C408.817 170.491 407.254 167.693 407.254 163.886C407.254 160.08 408.817 157.267 411.871 157.267C414.868 157.267 416.431 160.08 416.431 163.886C416.431 167.693 414.868 170.491 411.871 170.491Z" fill="black"/>
<path d="M432.567 145.662H426.516V174.753H432.567V145.662Z" fill="black"/>
<path d="M7.34703e-06 181C8.38601e-06 157.231 4.68173 133.694 13.7778 111.734C22.8739 89.7744 36.2063 69.8211 53.0137 53.0137C69.8211 36.2063 89.7744 22.8739 111.734 13.7778C133.694 4.6817 157.231 -3.11696e-06 181 0L181 72.3726C166.735 72.3726 152.609 75.1823 139.43 80.6413C126.251 86.1004 114.276 94.1018 104.189 104.189C94.1018 114.276 86.1004 126.251 80.6413 139.43C75.1823 152.609 72.3726 166.735 72.3726 181L7.34703e-06 181Z" fill="url(#paint0_linear)"/>
<defs>
<linearGradient id="paint0_linear" x1="181" y1="0" x2="165.58" y2="194.151" gradientUnits="userSpaceOnUse">
<stop stop-color="#FF8212"/>
<stop offset="1" stop-color="#ED4454"/>
</linearGradient>
</defs>
</svg>