<svg width="26" height="22" viewBox="0 0 26 22" fill="none" xmlns="http://www.w3.org/2000/svg">
<path d="M3.88324 14.0519C4.77209 14.0519 5.50175 13.325 5.48848 12.4394C5.48848 12.228 5.44868 12.0297 5.36908 11.8314L9.20309 8.01169C9.40209 8.09099 9.60108 8.13064 9.81335 8.13064C10.1981 8.13064 10.5563 7.98525 10.8481 7.73413L14.1647 9.38627C14.1647 9.42592 14.1382 9.45236 14.1382 9.49201C14.1382 10.3776 14.8546 11.1045 15.7435 11.1045C16.6323 11.1045 17.362 10.3908 17.362 9.50523C17.362 9.29375 17.3222 9.08228 17.2426 8.88402L21.1031 4.07298C21.9256 4.40341 22.8675 4.0069 23.1992 3.18744C23.438 2.59266 23.3053 1.90537 22.841 1.45599C22.2042 0.848003 21.196 0.848003 20.5592 1.45599C20.0949 1.91859 19.9622 2.60588 20.2143 3.21387L16.3537 8.02491C15.8098 7.82665 15.1863 7.91917 14.7352 8.30247L11.4053 6.65032C11.4053 6.61067 11.4319 6.58424 11.4319 6.54459C11.4319 6.12164 11.2594 5.71191 10.9675 5.40791C10.3307 4.79993 9.32249 4.79993 8.6857 5.40791C8.23464 5.87051 8.08871 6.55781 8.34077 7.15258L4.4935 10.9855C3.89651 10.7476 3.21992 10.893 2.74233 11.3292C2.10554 11.9504 2.10554 12.9681 2.72906 13.6025C3.04745 13.8933 3.45871 14.0651 3.88324 14.0519ZM21.448 2.32832C21.594 2.19615 21.8328 2.19615 21.9654 2.35476C22.0981 2.50014 22.0981 2.71162 21.9654 2.85701C21.8195 2.98918 21.594 2.98918 21.448 2.85701C21.3021 2.6984 21.3021 2.47371 21.448 2.32832ZM15.5047 9.22766C15.6506 9.08228 15.8761 9.08228 16.0221 9.22766C16.168 9.37305 16.168 9.59774 16.0221 9.74313C15.8761 9.87531 15.6506 9.87531 15.5047 9.74313C15.3587 9.59774 15.3587 9.37305 15.5047 9.22766ZM9.56129 6.26703C9.70722 6.12164 9.93275 6.12164 10.0787 6.26703C10.2246 6.41242 10.2246 6.63711 10.0787 6.7825C9.93275 6.91467 9.70722 6.91467 9.56129 6.7825C9.44189 6.65032 9.44189 6.41242 9.56129 6.26703ZM3.63118 12.1883C3.77711 12.0429 4.00264 12.0429 4.14857 12.1883C4.2945 12.3337 4.2945 12.5716 4.14857 12.7038C4.00264 12.8359 3.77711 12.8359 3.63118 12.7038C3.51178 12.5716 3.53831 12.3469 3.63118 12.1883Z" fill="url(#paint0_linear)" stroke="url(#paint1_linear)" stroke-width="0.5"/>
<path d="M24.3896 19.9594H24.0183V6.67797C24.0183 6.33196 23.7399 6.05249 23.3952 6.05249H20.425C20.0803 6.05249 19.8019 6.33196 19.8019 6.67797V19.9594H18.0781V13.6248C18.0781 13.2788 17.7997 12.9993 17.4549 12.9993H14.4848C14.1401 12.9993 13.8616 13.2788 13.8616 13.6248V19.9594H12.1512V10.6571C12.1512 10.3111 11.8727 10.0316 11.528 10.0316H8.55787C8.21312 10.0316 7.93468 10.3111 7.93468 10.6571V19.9594H6.21095V16.6058C6.21095 16.2598 5.9325 15.9803 5.58776 15.9803H2.61765C2.2729 15.9803 1.99446 16.2598 1.99446 16.6058V19.9594H1.62319C1.27845 19.9594 1 20.2389 1 20.5849C1 20.9309 1.27845 21.2104 1.62319 21.2104H24.3764C24.7211 21.2104 24.9995 20.9309 24.9995 20.5849C25.0128 20.2389 24.7344 19.9594 24.3896 19.9594ZM3.24084 19.9594V17.2313H4.96457V19.9594H3.24084ZM9.18106 19.9594V11.2693H10.9048V19.9594H9.18106ZM15.1213 19.9594V14.2503H16.845V19.9594H15.1213ZM21.0615 19.9594V7.30345H22.7852V19.9594H21.0615Z" fill="url(#paint2_linear)" stroke="url(#paint3_linear)" stroke-width="0.5"/>
<defs>
<linearGradient id="paint0_linear" x1="2.26306" y1="1" x2="24.6208" y2="3.86401" gradientUnits="userSpaceOnUse">
<stop stop-color="#FF8212"/>
<stop offset="1" stop-color="#ED4454"/>
</linearGradient>
<linearGradient id="paint1_linear" x1="2.26306" y1="1" x2="24.6208" y2="3.86401" gradientUnits="userSpaceOnUse">
<stop stop-color="#FF8212"/>
<stop offset="1" stop-color="#ED4454"/>
</linearGradient>
<linearGradient id="paint2_linear" x1="1" y1="6.05249" x2="26.5028" y2="9.25949" gradientUnits="userSpaceOnUse">
<stop stop-color="#FF8212"/>
<stop offset="1" stop-color="#ED4454"/>
</linearGradient>
<linearGradient id="paint3_linear" x1="1" y1="6.05249" x2="26.5028" y2="9.25949" gradientUnits="userSpaceOnUse">
<stop stop-color="#FF8212"/>
<stop offset="1" stop-color="#ED4454"/>
</linearGradient>
</defs>
</svg>