<svg width="28" height="24" viewBox="0 0 28 24" fill="none" xmlns="http://www.w3.org/2000/svg">
<path d="M25.1493 6.83134C25.1493 6.56872 25.1442 6.30907 25.1326 6.0512C26.2554 5.21471 27.2295 4.1676 28 2.96938C26.9537 3.44012 25.8403 3.74469 24.7 3.8721C25.8868 3.14188 26.7969 1.97403 27.227 0.572556C26.1158 1.24638 24.8867 1.72811 23.5798 1.97912C22.5326 0.787765 21.0383 0.0289539 19.3864 0.000756551C16.2137 -0.0516876 13.6418 2.62904 13.6418 5.98754C13.6418 6.46492 13.6918 6.92788 13.7909 7.37494C9.01329 7.06754 4.77972 4.58103 1.9478 0.832604C1.45367 1.73067 1.17017 2.78025 1.17017 3.90503C1.17017 6.03243 2.18438 7.92324 3.72536 9.03899C2.78198 8.99632 1.89827 8.71064 1.12316 8.24225V8.32037C1.12316 11.2937 3.10395 13.7849 5.73223 14.3661C5.2504 14.5032 4.74218 14.5745 4.2195 14.5719C3.85634 14.57 3.49437 14.5304 3.13941 14.4536C3.86973 16.8902 5.99227 18.6703 8.50513 18.7297C6.53846 20.3601 4.06106 21.334 1.37133 21.3272C0.907572 21.3272 0.449292 21.2961 0 21.2397C2.54329 22.9841 5.56224 24 8.80759 24C19.3719 24.0025 25.1493 14.8084 25.1493 6.83134Z" fill="white"/>
</svg>
