<svg width="530" height="530" viewBox="0 0 530 530" fill="none" xmlns="http://www.w3.org/2000/svg">
<mask id="mask0" mask-type="alpha" maskUnits="userSpaceOnUse" x="0" y="0" width="530" height="530">
<path d="M264.59 529.18C410.719 529.18 529.18 410.719 529.18 264.59C529.18 118.461 410.719 0 264.59 0C118.461 0 0 118.461 0 264.59C0 410.719 118.461 529.18 264.59 529.18Z" fill="white"/>
</mask>
<g mask="url(#mask0)">
<path d="M264.59 529.18C410.719 529.18 529.18 410.719 529.18 264.59C529.18 118.461 410.719 0 264.59 0C118.461 0 0 118.461 0 264.59C0 410.719 118.461 529.18 264.59 529.18Z" fill="url(#paint0_linear)"/>
<path d="M451.683 446.683C555.012 343.355 555.012 175.826 451.683 72.4967C348.355 -30.8321 180.826 -30.8321 77.4967 72.4967C-25.8321 175.826 -25.8321 343.355 77.4967 446.683C180.826 550.012 348.355 550.012 451.683 446.683Z" fill="url(#paint1_linear)"/>
<path d="M-7.5 532.5L521 4L574 532.5H-7.5Z" fill="#FF8212"/>
<path opacity="0.5" d="M538.5 535L10 6.5L538.5 -46.5V535Z" fill="#ED4DA4"/>
<path d="M264.5 369C322.214 369 369 322.214 369 264.5C369 206.786 322.214 160 264.5 160C206.786 160 160 206.786 160 264.5C160 322.214 206.786 369 264.5 369Z" fill="white"/>
<path d="M264.628 344.255C308.605 344.255 344.255 308.605 344.255 264.628C344.255 220.651 308.605 185 264.628 185C220.651 185 185 220.651 185 264.628C185 308.605 220.651 344.255 264.628 344.255Z" fill="#15161C"/>
<path d="M264.04 332.999C301.02 332.999 330.999 303.02 330.999 266.039C330.999 229.058 301.02 199.079 264.04 199.079C227.059 199.079 197.08 229.058 197.08 266.039C197.08 303.02 227.059 332.999 264.04 332.999Z" stroke="#060608" stroke-width="2"/>
<path d="M225.48 271.417L229.67 257.516H233.91L227.474 276H223.5L217.089 257.516H221.316L225.48 271.417ZM239.712 276H235.903V257.516H239.712V276ZM252.839 271.15C252.839 270.431 252.585 269.881 252.077 269.5C251.569 269.111 250.655 268.704 249.335 268.281C248.015 267.85 246.969 267.426 246.199 267.012C244.1 265.878 243.051 264.35 243.051 262.429C243.051 261.43 243.33 260.541 243.889 259.763C244.456 258.976 245.264 258.362 246.313 257.922C247.371 257.482 248.556 257.262 249.868 257.262C251.188 257.262 252.365 257.503 253.397 257.985C254.43 258.459 255.23 259.132 255.797 260.004C256.372 260.876 256.66 261.866 256.66 262.975H252.852C252.852 262.128 252.585 261.472 252.052 261.007C251.519 260.533 250.77 260.296 249.805 260.296C248.874 260.296 248.15 260.495 247.634 260.893C247.118 261.282 246.859 261.798 246.859 262.441C246.859 263.042 247.16 263.546 247.761 263.952C248.37 264.358 249.263 264.739 250.439 265.095C252.606 265.746 254.185 266.555 255.175 267.52C256.165 268.484 256.66 269.686 256.66 271.125C256.66 272.725 256.055 273.981 254.845 274.896C253.634 275.801 252.005 276.254 249.957 276.254C248.535 276.254 247.24 275.996 246.072 275.479C244.904 274.955 244.011 274.24 243.394 273.334C242.784 272.428 242.479 271.379 242.479 270.186H246.301C246.301 272.225 247.52 273.245 249.957 273.245C250.863 273.245 251.569 273.063 252.077 272.699C252.585 272.327 252.839 271.811 252.839 271.15ZM263.3 276H259.491V257.516H263.3V276ZM282.025 267.177C282.025 268.996 281.704 270.592 281.061 271.963C280.417 273.334 279.495 274.392 278.293 275.137C277.1 275.882 275.729 276.254 274.18 276.254C272.648 276.254 271.281 275.886 270.079 275.149C268.877 274.413 267.946 273.364 267.286 272.001C266.626 270.63 266.292 269.056 266.283 267.278V266.364C266.283 264.545 266.609 262.945 267.261 261.565C267.921 260.177 268.848 259.115 270.041 258.379C271.243 257.634 272.614 257.262 274.154 257.262C275.695 257.262 277.062 257.634 278.255 258.379C279.457 259.115 280.383 260.177 281.035 261.565C281.695 262.945 282.025 264.54 282.025 266.352V267.177ZM278.166 266.339C278.166 264.401 277.819 262.928 277.125 261.921C276.431 260.914 275.441 260.41 274.154 260.41C272.876 260.41 271.89 260.91 271.196 261.908C270.502 262.898 270.151 264.354 270.143 266.275V267.177C270.143 269.064 270.49 270.528 271.184 271.569C271.878 272.61 272.876 273.131 274.18 273.131C275.458 273.131 276.439 272.632 277.125 271.633C277.811 270.626 278.158 269.161 278.166 267.24V266.339ZM299.824 276H296.016L288.602 263.838V276H284.793V257.516H288.602L296.028 269.703V257.516H299.824V276Z" fill="white"/>
<path d="M66.6543 235.892C66.6543 237.151 66.4316 238.256 65.9863 239.205C65.541 240.154 64.9023 240.887 64.0703 241.402C63.2441 241.918 62.2949 242.176 61.2227 242.176C60.1621 242.176 59.2158 241.921 58.3838 241.411C57.5518 240.901 56.9072 240.175 56.4502 239.231C55.9932 238.282 55.7617 237.192 55.7559 235.962V235.329C55.7559 234.069 55.9814 232.962 56.4326 232.007C56.8896 231.046 57.5312 230.311 58.3574 229.801C59.1895 229.285 60.1387 229.027 61.2051 229.027C62.2715 229.027 63.2178 229.285 64.0439 229.801C64.876 230.311 65.5176 231.046 65.9688 232.007C66.4258 232.962 66.6543 234.066 66.6543 235.32V235.892ZM63.9824 235.312C63.9824 233.97 63.7422 232.95 63.2617 232.253C62.7812 231.556 62.0957 231.207 61.2051 231.207C60.3203 231.207 59.6377 231.553 59.1572 232.244C58.6768 232.93 58.4336 233.938 58.4277 235.268V235.892C58.4277 237.198 58.668 238.212 59.1484 238.933C59.6289 239.653 60.3203 240.014 61.2227 240.014C62.1074 240.014 62.7871 239.668 63.2617 238.977C63.7363 238.279 63.9766 237.266 63.9824 235.936V235.312ZM73.3076 237.315H71.207V242H68.5703V229.203H73.3252C74.8369 229.203 76.0029 229.54 76.8232 230.214C77.6436 230.888 78.0537 231.84 78.0537 233.07C78.0537 233.943 77.8633 234.673 77.4824 235.259C77.1074 235.839 76.5361 236.302 75.7686 236.647L78.5371 241.877V242H75.707L73.3076 237.315ZM71.207 235.18H73.334C73.9961 235.18 74.5088 235.013 74.8721 234.679C75.2354 234.339 75.417 233.873 75.417 233.281C75.417 232.678 75.2441 232.203 74.8984 231.857C74.5586 231.512 74.0342 231.339 73.3252 231.339H71.207V235.18ZM90.1123 237.737C90.0127 239.114 89.5029 240.198 88.583 240.989C87.6689 241.78 86.4619 242.176 84.9619 242.176C83.3213 242.176 82.0293 241.625 81.0859 240.523C80.1484 239.416 79.6797 237.898 79.6797 235.971V235.188C79.6797 233.958 79.8965 232.874 80.3301 231.937C80.7637 230.999 81.3818 230.281 82.1846 229.783C82.9932 229.279 83.9307 229.027 84.9971 229.027C86.4736 229.027 87.6631 229.423 88.5654 230.214C89.4678 231.005 89.9893 232.115 90.1299 233.545H87.4932C87.4287 232.719 87.1973 232.121 86.7988 231.752C86.4062 231.377 85.8057 231.189 84.9971 231.189C84.1182 231.189 83.459 231.506 83.0195 232.139C82.5859 232.766 82.3633 233.741 82.3516 235.065V236.032C82.3516 237.415 82.5596 238.426 82.9756 239.064C83.3975 239.703 84.0596 240.022 84.9619 240.022C85.7764 240.022 86.3828 239.838 86.7812 239.469C87.1855 239.094 87.417 238.517 87.4756 237.737H90.1123ZM102.259 242H99.6221V236.516H94.4805V242H91.8438V229.203H94.4805V234.389H99.6221V229.203H102.259V242ZM107.374 242H104.737V229.203H107.374V242ZM109.826 242V229.203H113.764C114.889 229.203 115.894 229.458 116.778 229.968C117.669 230.472 118.363 231.192 118.861 232.13C119.359 233.062 119.608 234.122 119.608 235.312V235.9C119.608 237.09 119.362 238.147 118.87 239.073C118.384 239.999 117.695 240.717 116.805 241.227C115.914 241.736 114.909 241.994 113.79 242H109.826ZM112.463 231.339V239.882H113.737C114.769 239.882 115.557 239.545 116.102 238.871C116.646 238.197 116.925 237.233 116.937 235.979V235.303C116.937 234.002 116.667 233.018 116.128 232.35C115.589 231.676 114.801 231.339 113.764 231.339H112.463Z" fill="white"/>
</g>
<g clip-path="url(#clip0)">
<path d="M77.9848 205.1C78.8084 205.63 80.263 206.301 81.835 206.867C79.8937 207.985 78.2496 209.047 77.7759 209.434C76.3044 210.637 74.8982 214.235 76.4759 216.165C78.0427 218.082 81.8409 217.448 83.3313 216.23C83.653 215.967 84.3731 215.248 85.2363 214.324L85.0291 215.568C84.7138 217.46 85.6648 219.313 87.3955 220.179L88.9799 220.971L90.564 220.179C92.2947 219.313 93.2457 217.46 92.9304 215.568L92.702 214.197C93.6159 215.18 94.384 215.951 94.7265 216.23C96.2105 217.443 100.007 218.092 101.582 216.165C102.315 215.268 102.478 213.932 102.041 212.402C101.693 211.189 101.003 210.024 100.282 209.434C99.8078 209.047 98.1605 207.983 96.2162 206.863C97.7624 206.301 99.1968 205.635 100.028 205.1C102.279 203.651 104.999 199.848 103.556 197.608C102.11 195.363 97.4615 196.275 95.2172 197.72C94.6851 198.063 93.9417 198.667 93.1433 199.412C93.2842 198.496 93.3685 197.698 93.3685 197.203C93.3685 194.881 91.5514 191 88.9796 191C86.3928 191 84.5908 194.908 84.5908 197.203C84.5908 197.696 84.6726 198.479 84.8105 199.382C84.0175 198.66 83.2769 198.067 82.7375 197.72C80.493 196.274 75.8444 195.363 74.3988 197.608C72.9525 199.853 75.7383 203.653 77.9848 205.1ZM82.2203 214.871C81.2995 215.624 78.631 216.028 77.8351 215.054C77.032 214.072 77.981 211.534 78.8869 210.793C79.3525 210.413 81.658 208.939 84.1401 207.587C84.2921 207.627 84.4426 207.664 84.5917 207.699C84.5917 207.712 84.5908 207.724 84.5908 207.736C84.5908 208.887 85.0353 209.974 85.8256 210.789L85.7732 211.103C84.0935 213.044 82.5784 214.578 82.2203 214.871ZM89.8577 218.567V213.881H88.1021V218.567C87.115 218.033 86.5778 216.955 86.7607 215.856L87.7195 210.105C87.5736 209.938 86.3464 209.295 86.3464 207.736C86.3464 206.284 87.5279 205.103 88.9799 205.103C90.4318 205.103 91.6131 206.284 91.6131 207.736C91.6131 209.295 90.3859 209.938 90.2402 210.105L91.1988 215.856C91.382 216.955 90.8448 218.033 89.8577 218.567ZM99.171 210.793C100.025 211.492 101.053 214.039 100.223 215.054C99.393 216.07 96.6923 215.57 95.8376 214.871C95.4624 214.564 93.8908 212.969 92.163 210.962L92.134 210.789C92.9242 209.974 93.3688 208.888 93.3688 207.736C93.3688 207.732 93.3685 207.727 93.3685 207.722C93.5519 207.68 93.7347 207.634 93.9168 207.587C96.3991 208.939 98.7054 210.413 99.171 210.793ZM96.168 199.196C98.0215 198.002 101.44 197.563 102.08 198.558C102.73 199.568 100.906 202.447 99.0781 203.624C98.0302 204.299 95.3064 205.467 93.0114 206.003C92.9494 205.86 92.8798 205.72 92.8028 205.585L101.08 200.246L100.129 198.771L91.6378 204.247C91.5403 204.173 91.4398 204.103 91.3364 204.037C92.7278 202.115 95.032 199.928 96.168 199.196ZM88.9798 192.755C90.1752 192.755 91.6131 195.487 91.6131 197.203C91.6131 197.933 91.3538 199.801 90.9166 201.737C90.4474 202.288 90.0109 202.85 89.6416 203.397C89.4225 203.364 89.2013 203.348 88.9798 203.348C88.7862 203.348 88.5959 203.362 88.4088 203.386C88.0137 202.808 87.5349 202.208 87.0168 201.62C86.5961 199.728 86.3464 197.908 86.3464 197.203C86.3464 195.487 87.7844 192.755 88.9798 192.755ZM75.8748 198.558C76.5224 197.553 79.95 198.013 81.787 199.196C82.9662 199.955 85.3006 202.126 86.6876 203.995C86.5769 204.063 86.4692 204.136 86.3649 204.214L77.8225 198.768L76.8791 200.249L85.1817 205.541C85.0989 205.684 85.0242 205.831 84.9578 205.982C82.6479 205.432 79.9522 204.279 78.9354 203.624C77.0663 202.42 75.2416 199.541 75.8748 198.558Z" fill="white"/>
</g>
<path d="M418.201 232.339H414.281V243H411.645V232.339H407.777V230.203H418.201V232.339ZM429.398 230.203V238.632C429.398 240.032 428.959 241.14 428.08 241.954C427.207 242.769 426.012 243.176 424.494 243.176C423 243.176 421.813 242.78 420.935 241.989C420.056 241.198 419.607 240.111 419.59 238.729V230.203H422.227V238.649C422.227 239.487 422.426 240.1 422.824 240.486C423.229 240.867 423.785 241.058 424.494 241.058C425.977 241.058 426.729 240.278 426.753 238.72V230.203H429.398ZM434.197 240.882H439.796V243H431.561V230.203H434.197V240.882ZM444.12 243H441.483V230.203H444.12V243ZM449.209 238.491V243H446.572V230.203H451.564C452.525 230.203 453.369 230.379 454.096 230.73C454.828 231.082 455.391 231.583 455.783 232.233C456.176 232.878 456.372 233.613 456.372 234.439C456.372 235.693 455.941 236.684 455.08 237.41C454.225 238.131 453.038 238.491 451.521 238.491H449.209ZM449.209 236.355H451.564C452.262 236.355 452.792 236.191 453.155 235.863C453.524 235.535 453.709 235.066 453.709 234.457C453.709 233.83 453.524 233.323 453.155 232.937C452.786 232.55 452.276 232.351 451.626 232.339H449.209V236.355Z" fill="white"/>
<path d="M437.074 217.532C439.589 217.145 441.883 215.87 443.539 213.938C445.196 212.007 446.106 209.546 446.105 207.001C446.105 206.574 446.105 206.136 446.05 205.687C445.805 202.863 446.182 200.02 447.156 197.357C447.236 197.108 447.256 196.844 447.217 196.586C447.177 196.327 447.077 196.082 446.926 195.868C446.774 195.657 446.573 195.485 446.341 195.367C446.108 195.249 445.851 195.188 445.591 195.19C443.901 195.23 442.228 195.533 440.632 196.087C440.193 194.881 439.392 193.841 438.338 193.109C437.284 192.377 436.029 191.99 434.746 192C433.463 192.011 432.215 192.42 431.173 193.169C430.131 193.919 429.348 194.973 428.93 196.186C427.232 195.574 425.447 195.238 423.643 195.19C423.379 195.186 423.118 195.247 422.882 195.366C422.647 195.486 422.444 195.661 422.291 195.876C422.138 196.092 422.04 196.341 422.004 196.603C421.969 196.865 421.998 197.131 422.088 197.379C423.077 200.038 423.473 202.881 423.249 205.709C423.249 206.158 423.249 206.596 423.194 207.045C423.204 209.169 423.848 211.241 425.044 212.996C426.239 214.751 427.932 216.11 429.904 216.897C431.111 217.428 434.559 217.919 437.074 217.532ZM435.209 194.113C435.897 194.116 436.909 194.399 437.459 194.844C438.01 195.289 438.55 196.072 438.745 196.784C437.619 197.405 435.951 198.449 434.932 199.258C434.004 198.498 432.246 197.377 431.219 196.784C431.401 196.044 432.288 195.116 432.849 194.648C433.41 194.18 434.501 194.116 435.209 194.113ZM427.369 212.44C426.04 211.388 425.492 208.619 425.49 207.272C425.487 205.925 425.49 204.533 425.49 204.533C425.696 202.142 424.926 199.526 424.343 197.198C426.634 196.701 431.696 199.155 433.444 200.817C430.201 203.408 427.121 208.672 427.369 212.44ZM432.788 215.455L430.688 214.845C430.688 214.845 429.188 213.901 429.127 213.727C429.247 204.871 439.995 196.552 444.898 197.385C444.297 199.713 443.847 203.386 443.93 204.414C444.014 205.441 444.116 207.088 444.116 207.088C444.113 209.038 443.206 211.737 442.112 212.703C441.018 213.67 439.777 214.704 438.377 215.131C437.443 215.415 436.387 215.585 435.209 215.639C434.658 215.637 433.851 215.576 432.788 215.455Z" fill="white"/>
<path d="M229.778 442.643C229.778 442.145 229.603 441.764 229.251 441.5C228.899 441.23 228.267 440.949 227.353 440.656C226.438 440.357 225.715 440.064 225.182 439.777C223.729 438.992 223.002 437.935 223.002 436.604C223.002 435.913 223.195 435.298 223.582 434.759C223.975 434.214 224.534 433.789 225.261 433.484C225.993 433.18 226.813 433.027 227.722 433.027C228.636 433.027 229.45 433.194 230.165 433.528C230.88 433.856 231.434 434.322 231.826 434.926C232.225 435.529 232.424 436.215 232.424 436.982H229.787C229.787 436.396 229.603 435.942 229.233 435.62C228.864 435.292 228.346 435.128 227.678 435.128C227.033 435.128 226.532 435.266 226.175 435.541C225.817 435.811 225.639 436.168 225.639 436.613C225.639 437.029 225.847 437.378 226.263 437.659C226.685 437.94 227.303 438.204 228.117 438.45C229.617 438.901 230.71 439.461 231.396 440.129C232.081 440.797 232.424 441.629 232.424 442.625C232.424 443.732 232.005 444.603 231.167 445.235C230.329 445.862 229.201 446.176 227.783 446.176C226.799 446.176 225.902 445.997 225.094 445.64C224.285 445.276 223.667 444.781 223.239 444.154C222.817 443.527 222.606 442.801 222.606 441.975H225.252C225.252 443.387 226.096 444.093 227.783 444.093C228.41 444.093 228.899 443.967 229.251 443.715C229.603 443.457 229.778 443.1 229.778 442.643ZM241.441 443.363H236.818L235.939 446H233.136L237.899 433.203H240.343L245.133 446H242.329L241.441 443.363ZM237.53 441.228H240.729L239.121 436.438L237.53 441.228ZM250.336 440.867L248.965 442.344V446H246.328V433.203H248.965V439.004L250.125 437.413L253.386 433.203H256.629L252.085 438.89L256.761 446H253.623L250.336 440.867ZM267.439 433.203V441.632C267.439 443.032 267 444.14 266.121 444.954C265.248 445.769 264.053 446.176 262.535 446.176C261.041 446.176 259.854 445.78 258.976 444.989C258.097 444.198 257.648 443.111 257.631 441.729V433.203H260.268V441.649C260.268 442.487 260.467 443.1 260.865 443.486C261.27 443.867 261.826 444.058 262.535 444.058C264.018 444.058 264.771 443.278 264.794 441.72V433.203H267.439ZM272.238 443.882H277.837V446H269.602V433.203H272.238V443.882ZM286.758 443.363H282.135L281.256 446H278.452L283.216 433.203H285.659L290.449 446H287.646L286.758 443.363ZM282.847 441.228H286.046L284.438 436.438L282.847 441.228Z" fill="white"/>
<path fill-rule="evenodd" clip-rule="evenodd" d="M253.165 401.855C253.239 401.146 253.516 400.372 253.823 399.667C253.966 399.336 254.113 399.029 254.243 398.757L254.264 398.711L254.335 398.563L256.257 399.861L256.671 400.141L256.951 399.726L258.239 397.819C258.721 398.438 259.294 399.617 259.121 401.269C259.018 402.255 258.63 403.39 257.99 404.372C257.367 405.327 256.541 406.156 255.916 406.753C255.771 406.596 255.609 406.436 255.449 406.276L255.407 406.235C255.051 405.881 254.661 405.491 254.301 405.047C253.581 404.159 253.033 403.116 253.165 401.855ZM253.649 397.643C253.599 397.781 253.501 397.99 253.362 398.281L253.339 398.329L253.339 398.329C253.21 398.6 253.057 398.921 252.906 399.268C252.588 399.998 252.26 400.886 252.17 401.751C251.999 403.391 252.729 404.695 253.524 405.677C253.922 406.168 254.349 406.593 254.702 406.944C255.074 407.314 255.325 407.567 255.45 407.759L255.778 408.261L256.213 407.849L256.336 407.733C256.97 407.134 258.04 406.125 258.828 404.919C259.552 403.808 259.996 402.521 260.116 401.373C260.378 398.869 259.188 397.199 258.48 396.637L258.057 396.302L257.755 396.749L256.402 398.752L254.399 397.399L253.868 397.041L253.649 397.643ZM264.777 404.777C264.01 404.73 263.188 404.734 262.497 404.907C261.267 405.215 260.474 406.087 259.886 407.067C259.592 407.557 259.359 408.057 259.148 408.512L259.123 408.566L259.123 408.566L259.123 408.566C259.028 408.771 258.932 408.978 258.835 409.168C259.61 409.551 260.671 410.044 261.781 410.303C262.923 410.569 264.122 410.545 265.084 410.304C266.696 409.902 267.607 408.96 268.024 408.295L265.792 407.737L265.307 407.616L265.428 407.131L265.99 404.881L265.827 404.866L265.777 404.861L265.777 404.861H265.777C265.476 404.832 265.138 404.799 264.777 404.777ZM265.922 403.87C266.243 403.901 266.473 403.922 266.62 403.922L267.261 403.922L267.105 404.543L266.519 406.888L268.864 407.474L269.388 407.605L269.217 408.118C268.932 408.975 267.769 410.664 265.327 411.275C264.207 411.555 262.846 411.578 261.554 411.276C260.151 410.949 258.837 410.289 258.058 409.898L257.907 409.822L257.371 409.554L257.73 409.075C257.868 408.891 258.02 408.568 258.24 408.092C258.45 407.641 258.703 407.094 259.028 406.553C259.678 405.469 260.654 404.337 262.254 403.937C263.098 403.726 264.044 403.73 264.839 403.779C265.217 403.802 265.571 403.836 265.87 403.865L265.87 403.865L265.87 403.865L265.922 403.87ZM263.415 417.753C263.197 417.015 262.911 416.244 262.513 415.654C261.803 414.603 260.712 414.156 259.59 413.939C259.029 413.83 258.479 413.783 257.979 413.74L257.92 413.735C257.695 413.716 257.468 413.697 257.257 413.67C257.161 414.53 257.061 415.695 257.198 416.827C257.338 417.991 257.771 419.11 258.326 419.931C259.256 421.308 260.452 421.842 261.219 422.007L260.98 419.718L260.928 419.221L261.426 419.169L263.732 418.928L263.691 418.769L263.678 418.72C263.602 418.428 263.517 418.099 263.415 417.753ZM264.659 418.518C264.739 418.831 264.799 419.054 264.849 419.192L265.068 419.794L264.431 419.86L262.027 420.112L262.278 422.516L262.334 423.053L261.794 423.067C260.891 423.092 258.906 422.577 257.497 420.491C256.851 419.535 256.364 418.264 256.205 416.947C256.033 415.517 256.204 414.056 256.305 413.19L256.325 413.022L256.393 412.426L256.966 412.6C257.186 412.667 257.541 412.699 258.064 412.744C258.56 412.786 259.16 412.837 259.78 412.957C261.021 413.198 262.418 413.728 263.341 415.094C263.828 415.815 264.148 416.706 264.374 417.469C264.481 417.832 264.57 418.177 264.645 418.467L264.659 418.518ZM252.843 418.942C252.424 419.518 251.797 420.05 251.179 420.508C250.889 420.722 250.609 420.915 250.36 421.086L250.318 421.114L250.183 421.207L249.168 419.123L248.949 418.673L248.499 418.892L246.431 419.899C246.323 419.122 246.415 417.815 247.391 416.471C247.973 415.668 248.877 414.879 249.922 414.349C250.939 413.834 252.069 413.529 252.909 413.324C252.956 413.532 253.016 413.752 253.075 413.97L253.091 414.027C253.222 414.512 253.365 415.045 253.454 415.609C253.634 416.738 253.587 417.916 252.843 418.942ZM250.317 422.347C250.43 422.253 250.619 422.121 250.885 421.938L250.928 421.908C251.176 421.738 251.469 421.537 251.774 421.312C252.413 420.838 253.141 420.233 253.652 419.529C254.621 418.194 254.64 416.7 254.442 415.452C254.343 414.828 254.186 414.246 254.056 413.766C253.919 413.26 253.828 412.914 253.815 412.686L253.782 412.088L253.2 412.227L253.035 412.266C252.187 412.467 250.755 412.806 249.47 413.457C248.287 414.057 247.26 414.949 246.582 415.883C245.103 417.921 245.299 419.962 245.631 420.803L245.829 421.305L246.314 421.068L248.488 420.01L249.546 422.183L249.826 422.759L250.317 422.347ZM244.847 410.203C245.488 410.627 246.202 411.035 246.887 411.231C248.106 411.579 249.229 411.22 250.228 410.666C250.728 410.388 251.18 410.071 251.59 409.783L251.638 409.749C251.823 409.619 252.009 409.487 252.189 409.372C251.709 408.652 251.036 407.695 250.204 406.916C249.349 406.114 248.298 405.535 247.345 405.263C245.748 404.806 244.488 405.166 243.794 405.533L245.448 407.132L245.808 407.48L245.46 407.839L243.849 409.506L243.983 409.602L244.023 409.631L244.023 409.631L244.023 409.631C244.269 409.806 244.546 410.003 244.847 410.203ZM243.402 410.416C243.139 410.228 242.951 410.096 242.823 410.022L242.269 409.702L242.714 409.241L244.394 407.504L242.656 405.823L242.268 405.448L242.672 405.09C243.348 404.491 245.199 403.609 247.62 404.301C248.73 404.619 249.919 405.279 250.888 406.186C251.939 407.17 252.747 408.4 253.226 409.128L253.319 409.269L253.65 409.769L253.099 410.005C252.888 410.095 252.595 410.298 252.166 410.601C251.759 410.887 251.266 411.233 250.714 411.54C249.609 412.153 248.198 412.646 246.612 412.192C245.776 411.953 244.958 411.476 244.295 411.037C243.979 410.827 243.689 410.621 243.445 410.446L243.402 410.416Z" fill="white"/>
<path d="M245.88 89.3154H243.779V94H241.143V81.2031H245.897C247.409 81.2031 248.575 81.54 249.396 82.2139C250.216 82.8877 250.626 83.8398 250.626 85.0703C250.626 85.9434 250.436 86.6729 250.055 87.2588C249.68 87.8389 249.108 88.3018 248.341 88.6475L251.109 93.877V94H248.279L245.88 89.3154ZM243.779 87.1797H245.906C246.568 87.1797 247.081 87.0127 247.444 86.6787C247.808 86.3389 247.989 85.873 247.989 85.2812C247.989 84.6777 247.816 84.2031 247.471 83.8574C247.131 83.5117 246.606 83.3389 245.897 83.3389H243.779V87.1797ZM263.15 87.8916C263.15 89.1514 262.928 90.2559 262.482 91.2051C262.037 92.1543 261.398 92.8867 260.566 93.4023C259.74 93.918 258.791 94.1758 257.719 94.1758C256.658 94.1758 255.712 93.9209 254.88 93.4111C254.048 92.9014 253.403 92.1748 252.946 91.2314C252.489 90.2822 252.258 89.1924 252.252 87.9619V87.3291C252.252 86.0693 252.478 84.9619 252.929 84.0068C253.386 83.0459 254.027 82.3105 254.854 81.8008C255.686 81.2852 256.635 81.0273 257.701 81.0273C258.768 81.0273 259.714 81.2852 260.54 81.8008C261.372 82.3105 262.014 83.0459 262.465 84.0068C262.922 84.9619 263.15 86.0664 263.15 87.3203V87.8916ZM260.479 87.3115C260.479 85.9697 260.238 84.9502 259.758 84.2529C259.277 83.5557 258.592 83.207 257.701 83.207C256.816 83.207 256.134 83.5527 255.653 84.2441C255.173 84.9297 254.93 85.9375 254.924 87.2676V87.8916C254.924 89.1982 255.164 90.2119 255.645 90.9326C256.125 91.6533 256.816 92.0137 257.719 92.0137C258.604 92.0137 259.283 91.668 259.758 90.9766C260.232 90.2793 260.473 89.2656 260.479 87.9355V87.3115ZM271.702 90.6426C271.702 90.1445 271.526 89.7637 271.175 89.5C270.823 89.2305 270.19 88.9492 269.276 88.6562C268.362 88.3574 267.639 88.0645 267.105 87.7773C265.652 86.9922 264.926 85.9346 264.926 84.6045C264.926 83.9131 265.119 83.2979 265.506 82.7588C265.898 82.2139 266.458 81.7891 267.185 81.4844C267.917 81.1797 268.737 81.0273 269.646 81.0273C270.56 81.0273 271.374 81.1943 272.089 81.5283C272.804 81.8564 273.357 82.3223 273.75 82.9258C274.148 83.5293 274.348 84.2148 274.348 84.9824H271.711C271.711 84.3965 271.526 83.9424 271.157 83.6201C270.788 83.292 270.27 83.1279 269.602 83.1279C268.957 83.1279 268.456 83.2656 268.099 83.541C267.741 83.8105 267.562 84.168 267.562 84.6133C267.562 85.0293 267.771 85.3779 268.187 85.6592C268.608 85.9404 269.227 86.2041 270.041 86.4502C271.541 86.9014 272.634 87.4609 273.319 88.1289C274.005 88.7969 274.348 89.6289 274.348 90.625C274.348 91.7324 273.929 92.6025 273.091 93.2354C272.253 93.8623 271.125 94.1758 269.707 94.1758C268.723 94.1758 267.826 93.9971 267.018 93.6396C266.209 93.2764 265.591 92.7812 265.163 92.1543C264.741 91.5273 264.53 90.8008 264.53 89.9746H267.176C267.176 91.3867 268.02 92.0928 269.707 92.0928C270.334 92.0928 270.823 91.9668 271.175 91.7148C271.526 91.457 271.702 91.0996 271.702 90.6426ZM283.84 88.4541H278.777V91.8818H284.719V94H276.141V81.2031H284.701V83.3389H278.777V86.3887H283.84V88.4541Z" fill="white"/>
<g clip-path="url(#clip1)">
<path d="M262.949 68.8607C264.906 68.6607 267.879 67.5619 269.737 65.8981C271.947 63.9069 273.167 61.2555 273.167 58.4271C273.167 53.3605 269.172 43.5923 269.004 43.1791L268.108 41.0054L266.088 42.3042C265.993 42.3633 264.029 43.6353 261.5 45.4923C258.977 43.6406 257.007 42.3686 256.912 42.3042L254.892 41L253.997 43.1737C253.829 43.5869 249.833 53.3551 249.833 58.4217C249.833 61.2501 251.053 63.9069 253.264 65.8927C254.942 67.4008 257.62 68.4569 259.307 68.7588C260.993 69.0608 260.993 69.0608 262.949 68.8607ZM266.99 44.4926C268.417 48.2618 270.852 55.2454 270.852 58.3825C270.852 62.4824 266.234 66.6025 261.5 66.6025C256.836 66.5435 252.426 62.8368 252.426 58.7958C252.426 58.5182 251.336 56.4796 260.722 49.2667L264.423 46.3624C265.052 45.9194 266.474 44.847 266.99 44.4926ZM259.636 46.8688C257.544 48.1639 252.84 53.5586 253.198 52.1154C253.557 50.6723 255.629 45.8075 256.056 44.4328C256.576 44.8741 258.996 46.3118 259.636 46.8688Z" fill="white"/>
</g>
<path d="M56.4829 270.867V259.492H59.6938C60.6834 259.492 61.5584 259.711 62.3188 260.149C63.0793 260.586 63.6652 261.209 64.0767 262.016C64.4933 262.823 64.7043 263.75 64.7095 264.797V265.524C64.7095 266.597 64.5011 267.537 64.0845 268.344C63.673 269.151 63.0819 269.771 62.311 270.203C61.5454 270.636 60.6522 270.857 59.6313 270.867H56.4829ZM57.9829 260.727V269.641H59.561C60.7173 269.641 61.6157 269.281 62.2563 268.563C62.9022 267.844 63.2251 266.821 63.2251 265.492V264.828C63.2251 263.537 62.9204 262.534 62.311 261.821C61.7069 261.102 60.8475 260.737 59.7329 260.727H57.9829ZM70.2642 271.024C69.1183 271.024 68.186 270.649 67.4673 269.899C66.7485 269.143 66.3892 268.136 66.3892 266.875V266.61C66.3892 265.771 66.548 265.024 66.8657 264.367C67.1886 263.706 67.6366 263.19 68.2095 262.821C68.7876 262.446 69.4126 262.258 70.0845 262.258C71.1834 262.258 72.0376 262.62 72.647 263.344C73.2563 264.068 73.561 265.104 73.561 266.453V267.055H67.8345C67.8553 267.888 68.0975 268.563 68.561 269.078C69.0298 269.589 69.6235 269.844 70.3423 269.844C70.8527 269.844 71.285 269.74 71.6392 269.531C71.9933 269.323 72.3032 269.047 72.5688 268.703L73.4517 269.391C72.7433 270.479 71.6808 271.024 70.2642 271.024ZM70.0845 263.446C69.5011 263.446 69.0116 263.659 68.6157 264.086C68.2199 264.508 67.9751 265.102 67.8813 265.867H72.1157V265.758C72.0741 265.024 71.8761 264.456 71.522 264.055C71.1678 263.649 70.6886 263.446 70.0845 263.446ZM78.7485 271.024C77.6027 271.024 76.6704 270.649 75.9517 269.899C75.2329 269.143 74.8735 268.136 74.8735 266.875V266.61C74.8735 265.771 75.0324 265.024 75.3501 264.367C75.673 263.706 76.1209 263.19 76.6938 262.821C77.272 262.446 77.897 262.258 78.5688 262.258C79.6678 262.258 80.522 262.62 81.1313 263.344C81.7407 264.068 82.0454 265.104 82.0454 266.453V267.055H76.3188C76.3397 267.888 76.5819 268.563 77.0454 269.078C77.5142 269.589 78.1079 269.844 78.8267 269.844C79.3371 269.844 79.7694 269.74 80.1235 269.531C80.4777 269.323 80.7876 269.047 81.0532 268.703L81.936 269.391C81.2277 270.479 80.1652 271.024 78.7485 271.024ZM78.5688 263.446C77.9855 263.446 77.4959 263.659 77.1001 264.086C76.7043 264.508 76.4595 265.102 76.3657 265.867H80.6001V265.758C80.5584 265.024 80.3605 264.456 80.0063 264.055C79.6522 263.649 79.173 263.446 78.5688 263.446ZM90.8657 266.735C90.8657 268.021 90.5715 269.058 89.9829 269.844C89.3944 270.63 88.5975 271.024 87.5923 271.024C86.5662 271.024 85.759 270.698 85.1704 270.047V274.117H83.7251V262.414H85.0454L85.1157 263.352C85.7043 262.623 86.522 262.258 87.5688 262.258C88.5845 262.258 89.3866 262.641 89.9751 263.406C90.5688 264.172 90.8657 265.237 90.8657 266.602V266.735ZM89.4204 266.571C89.4204 265.617 89.2173 264.865 88.811 264.313C88.4048 263.761 87.8475 263.485 87.1392 263.485C86.2642 263.485 85.6079 263.873 85.1704 264.649V268.688C85.6027 269.459 86.2642 269.844 87.1548 269.844C87.8475 269.844 88.397 269.571 88.8032 269.024C89.2147 268.472 89.4204 267.654 89.4204 266.571ZM57.9907 288.641H63.3813V289.867H56.4829V278.492H57.9907V288.641ZM68.3735 290.024C67.2277 290.024 66.2954 289.649 65.5767 288.899C64.8579 288.143 64.4985 287.136 64.4985 285.875V285.61C64.4985 284.771 64.6574 284.024 64.9751 283.367C65.298 282.706 65.7459 282.19 66.3188 281.821C66.897 281.446 67.522 281.258 68.1938 281.258C69.2928 281.258 70.147 281.62 70.7563 282.344C71.3657 283.068 71.6704 284.104 71.6704 285.453V286.055H65.9438C65.9647 286.888 66.2069 287.563 66.6704 288.078C67.1392 288.589 67.7329 288.844 68.4517 288.844C68.9621 288.844 69.3944 288.74 69.7485 288.531C70.1027 288.323 70.4126 288.047 70.6782 287.703L71.561 288.391C70.8527 289.479 69.7902 290.024 68.3735 290.024ZM68.1938 282.446C67.6105 282.446 67.1209 282.659 66.7251 283.086C66.3293 283.508 66.0845 284.102 65.9907 284.867H70.2251V284.758C70.1834 284.024 69.9855 283.456 69.6313 283.055C69.2772 282.649 68.798 282.446 68.1938 282.446ZM78.5688 289.867C78.4855 289.701 78.4178 289.404 78.3657 288.977C77.6938 289.675 76.8918 290.024 75.9595 290.024C75.1261 290.024 74.4412 289.789 73.9048 289.321C73.3735 288.847 73.1079 288.248 73.1079 287.524C73.1079 286.643 73.4412 285.961 74.1079 285.477C74.7798 284.987 75.7225 284.742 76.936 284.742H78.3423V284.078C78.3423 283.573 78.1912 283.172 77.8892 282.875C77.5871 282.573 77.1418 282.422 76.5532 282.422C76.0376 282.422 75.6053 282.552 75.2563 282.813C74.9074 283.073 74.7329 283.388 74.7329 283.758H73.2798C73.2798 283.336 73.4282 282.93 73.7251 282.539C74.0272 282.143 74.4334 281.831 74.9438 281.602C75.4595 281.373 76.0246 281.258 76.6392 281.258C77.6131 281.258 78.3761 281.503 78.9282 281.992C79.4803 282.477 79.7668 283.146 79.7876 284V287.891C79.7876 288.667 79.8866 289.284 80.0845 289.742V289.867H78.5688ZM76.1704 288.766C76.6235 288.766 77.0532 288.649 77.4595 288.414C77.8657 288.18 78.16 287.875 78.3423 287.5V285.766H77.2095C75.4386 285.766 74.5532 286.284 74.5532 287.321C74.5532 287.774 74.7043 288.128 75.0063 288.383C75.3084 288.638 75.6965 288.766 76.1704 288.766ZM86.1392 282.711C85.9204 282.675 85.6834 282.656 85.4282 282.656C84.4803 282.656 83.8371 283.06 83.4985 283.867V289.867H82.0532V281.414H83.4595L83.4829 282.391C83.9569 281.636 84.6287 281.258 85.4985 281.258C85.7798 281.258 85.9933 281.295 86.1392 281.367V282.711ZM88.8423 281.414L88.8892 282.477C89.535 281.664 90.3787 281.258 91.4204 281.258C93.2069 281.258 94.1079 282.266 94.1235 284.281V289.867H92.6782V284.274C92.673 283.664 92.5324 283.214 92.2563 282.922C91.9855 282.63 91.561 282.485 90.9829 282.485C90.5142 282.485 90.1027 282.61 89.7485 282.86C89.3944 283.11 89.1183 283.438 88.9204 283.844V289.867H87.4751V281.414H88.8423ZM97.8735 289.867H96.4282V281.414H97.8735V289.867ZM96.311 279.172C96.311 278.938 96.3813 278.74 96.522 278.578C96.6678 278.417 96.8813 278.336 97.1626 278.336C97.4438 278.336 97.6574 278.417 97.8032 278.578C97.9491 278.74 98.022 278.938 98.022 279.172C98.022 279.406 97.9491 279.602 97.8032 279.758C97.6574 279.914 97.4438 279.992 97.1626 279.992C96.8813 279.992 96.6678 279.914 96.522 279.758C96.3813 279.602 96.311 279.406 96.311 279.172ZM101.561 281.414L101.608 282.477C102.254 281.664 103.097 281.258 104.139 281.258C105.926 281.258 106.827 282.266 106.842 284.281V289.867H105.397V284.274C105.392 283.664 105.251 283.214 104.975 282.922C104.704 282.63 104.28 282.485 103.702 282.485C103.233 282.485 102.821 282.61 102.467 282.86C102.113 283.11 101.837 283.438 101.639 283.844V289.867H100.194V281.414H101.561ZM108.678 285.571C108.678 284.253 108.983 283.206 109.592 282.43C110.202 281.649 111.009 281.258 112.014 281.258C113.045 281.258 113.85 281.623 114.428 282.352L114.499 281.414H115.819V289.664C115.819 290.758 115.493 291.62 114.842 292.25C114.196 292.88 113.327 293.196 112.233 293.196C111.624 293.196 111.027 293.065 110.444 292.805C109.861 292.545 109.415 292.188 109.108 291.735L109.858 290.867C110.478 291.633 111.236 292.016 112.131 292.016C112.834 292.016 113.381 291.818 113.772 291.422C114.168 291.026 114.366 290.469 114.366 289.75V289.024C113.788 289.69 112.999 290.024 111.999 290.024C111.009 290.024 110.207 289.625 109.592 288.828C108.983 288.031 108.678 286.946 108.678 285.571ZM110.131 285.735C110.131 286.688 110.327 287.438 110.717 287.985C111.108 288.526 111.655 288.797 112.358 288.797C113.269 288.797 113.939 288.383 114.366 287.555V283.696C113.923 282.888 113.259 282.485 112.374 282.485C111.67 282.485 111.121 282.758 110.725 283.305C110.329 283.852 110.131 284.662 110.131 285.735ZM58.0923 308.867H56.5923V297.492H58.0923V308.867ZM61.9829 300.414L62.0298 301.477C62.6756 300.664 63.5194 300.258 64.561 300.258C66.3475 300.258 67.2485 301.266 67.2642 303.281V308.867H65.8188V303.274C65.8136 302.664 65.673 302.214 65.397 301.922C65.1261 301.63 64.7017 301.485 64.1235 301.485C63.6548 301.485 63.2433 301.61 62.8892 301.86C62.535 302.11 62.259 302.438 62.061 302.844V308.867H60.6157V300.414H61.9829ZM69.0923 304.571C69.0923 303.274 69.3996 302.232 70.0142 301.446C70.6287 300.654 71.4334 300.258 72.4282 300.258C73.4178 300.258 74.2017 300.597 74.7798 301.274V296.867H76.2251V308.867H74.897L74.8267 307.961C74.2485 308.67 73.4438 309.024 72.4126 309.024C71.4334 309.024 70.634 308.623 70.0142 307.821C69.3996 307.018 69.0923 305.972 69.0923 304.68V304.571ZM70.5376 304.735C70.5376 305.693 70.7355 306.443 71.1313 306.985C71.5272 307.526 72.0741 307.797 72.772 307.797C73.6886 307.797 74.3579 307.386 74.7798 306.563V302.68C74.3475 301.883 73.6834 301.485 72.7876 301.485C72.0793 301.485 71.5272 301.758 71.1313 302.305C70.7355 302.852 70.5376 303.662 70.5376 304.735ZM81.9829 309.024C80.8371 309.024 79.9048 308.649 79.186 307.899C78.4673 307.143 78.1079 306.136 78.1079 304.875V304.61C78.1079 303.771 78.2668 303.024 78.5845 302.367C78.9074 301.706 79.3553 301.19 79.9282 300.821C80.5063 300.446 81.1313 300.258 81.8032 300.258C82.9022 300.258 83.7563 300.62 84.3657 301.344C84.9751 302.068 85.2798 303.104 85.2798 304.453V305.055H79.5532C79.5741 305.888 79.8162 306.563 80.2798 307.078C80.7485 307.589 81.3423 307.844 82.061 307.844C82.5715 307.844 83.0037 307.74 83.3579 307.531C83.7121 307.323 84.022 307.047 84.2876 306.703L85.1704 307.391C84.4621 308.479 83.3996 309.024 81.9829 309.024ZM81.8032 301.446C81.2199 301.446 80.7303 301.659 80.3345 302.086C79.9386 302.508 79.6938 303.102 79.6001 303.867H83.8345V303.758C83.7928 303.024 83.5949 302.456 83.2407 302.055C82.8866 301.649 82.4074 301.446 81.8032 301.446ZM89.7954 303.5L91.6704 300.414H93.3579L90.5923 304.594L93.4438 308.867H91.772L89.8188 305.703L87.8657 308.867H86.186L89.0376 304.594L86.272 300.414H87.9438L89.7954 303.5ZM96.4673 308.867H95.022V300.414H96.4673V308.867ZM94.9048 298.172C94.9048 297.938 94.9751 297.74 95.1157 297.578C95.2616 297.417 95.4751 297.336 95.7563 297.336C96.0376 297.336 96.2511 297.417 96.397 297.578C96.5428 297.74 96.6157 297.938 96.6157 298.172C96.6157 298.406 96.5428 298.602 96.397 298.758C96.2511 298.914 96.0376 298.992 95.7563 298.992C95.4751 298.992 95.2616 298.914 95.1157 298.758C94.9751 298.602 94.9048 298.406 94.9048 298.172ZM100.155 300.414L100.202 301.477C100.847 300.664 101.691 300.258 102.733 300.258C104.519 300.258 105.42 301.266 105.436 303.281V308.867H103.991V303.274C103.986 302.664 103.845 302.214 103.569 301.922C103.298 301.63 102.874 301.485 102.295 301.485C101.827 301.485 101.415 301.61 101.061 301.86C100.707 302.11 100.431 302.438 100.233 302.844V308.867H98.7876V300.414H100.155ZM107.272 304.571C107.272 303.253 107.577 302.206 108.186 301.43C108.795 300.649 109.603 300.258 110.608 300.258C111.639 300.258 112.444 300.623 113.022 301.352L113.092 300.414H114.413V308.664C114.413 309.758 114.087 310.62 113.436 311.25C112.79 311.88 111.92 312.196 110.827 312.196C110.217 312.196 109.621 312.065 109.038 311.805C108.454 311.545 108.009 311.188 107.702 310.735L108.452 309.867C109.071 310.633 109.829 311.016 110.725 311.016C111.428 311.016 111.975 310.818 112.366 310.422C112.762 310.026 112.959 309.469 112.959 308.75V308.024C112.381 308.69 111.592 309.024 110.592 309.024C109.603 309.024 108.801 308.625 108.186 307.828C107.577 307.031 107.272 305.946 107.272 304.571ZM108.725 304.735C108.725 305.688 108.92 306.438 109.311 306.985C109.702 307.526 110.249 307.797 110.952 307.797C111.863 307.797 112.532 307.383 112.959 306.555V302.696C112.517 301.888 111.853 301.485 110.967 301.485C110.264 301.485 109.715 301.758 109.319 302.305C108.923 302.852 108.725 303.662 108.725 304.735ZM59.8345 322.797C58.548 322.427 57.6105 321.974 57.022 321.438C56.4386 320.896 56.147 320.229 56.147 319.438C56.147 318.542 56.5037 317.802 57.2173 317.219C57.936 316.63 58.8683 316.336 60.0142 316.336C60.7954 316.336 61.4907 316.487 62.1001 316.789C62.7147 317.091 63.1886 317.508 63.522 318.039C63.8605 318.571 64.0298 319.151 64.0298 319.781H62.522C62.522 319.094 62.3032 318.555 61.8657 318.164C61.4282 317.768 60.811 317.571 60.0142 317.571C59.2746 317.571 58.6965 317.735 58.2798 318.063C57.8683 318.386 57.6626 318.836 57.6626 319.414C57.6626 319.878 57.8579 320.271 58.2485 320.594C58.6444 320.912 59.3136 321.203 60.2563 321.469C61.2043 321.735 61.9438 322.029 62.4751 322.352C63.0116 322.67 63.4074 323.042 63.6626 323.469C63.923 323.896 64.0532 324.399 64.0532 324.977C64.0532 325.899 63.6938 326.638 62.9751 327.196C62.2563 327.748 61.2954 328.024 60.0923 328.024C59.311 328.024 58.5819 327.875 57.9048 327.578C57.2277 327.276 56.7043 326.865 56.3345 326.344C55.9699 325.823 55.7876 325.232 55.7876 324.571H57.2954C57.2954 325.258 57.548 325.802 58.0532 326.203C58.5636 326.599 59.2433 326.797 60.0923 326.797C60.884 326.797 61.4907 326.636 61.9126 326.313C62.3345 325.99 62.5454 325.55 62.5454 324.992C62.5454 324.435 62.3501 324.005 61.9595 323.703C61.5688 323.396 60.8605 323.094 59.8345 322.797ZM68.522 325.75L70.4907 319.414H72.0376L68.6392 329.172C68.1131 330.578 67.2772 331.281 66.1313 331.281L65.8579 331.258L65.3188 331.156V329.985L65.7095 330.016C66.1991 330.016 66.5793 329.917 66.8501 329.719C67.1261 329.521 67.3527 329.159 67.5298 328.633L67.8501 327.774L64.8345 319.414H66.4126L68.522 325.75ZM78.2563 325.625C78.2563 325.235 78.1079 324.933 77.811 324.719C77.5194 324.5 77.0063 324.313 76.272 324.156C75.5428 324 74.9621 323.813 74.5298 323.594C74.1027 323.375 73.785 323.115 73.5767 322.813C73.3735 322.511 73.272 322.151 73.272 321.735C73.272 321.042 73.5636 320.456 74.147 319.977C74.7355 319.498 75.4855 319.258 76.397 319.258C77.3553 319.258 78.1313 319.505 78.7251 320C79.3241 320.495 79.6235 321.128 79.6235 321.899H78.1704C78.1704 321.503 78.0011 321.162 77.6626 320.875C77.3293 320.589 76.9074 320.446 76.397 320.446C75.8709 320.446 75.4595 320.56 75.1626 320.789C74.8657 321.018 74.7173 321.318 74.7173 321.688C74.7173 322.037 74.8553 322.3 75.1313 322.477C75.4074 322.654 75.9048 322.823 76.6235 322.985C77.3475 323.146 77.9334 323.339 78.3813 323.563C78.8293 323.787 79.16 324.058 79.3735 324.375C79.5923 324.688 79.7017 325.071 79.7017 325.524C79.7017 326.279 79.3996 326.886 78.7954 327.344C78.1912 327.797 77.4074 328.024 76.4438 328.024C75.7668 328.024 75.1678 327.904 74.647 327.664C74.1261 327.425 73.7173 327.091 73.4204 326.664C73.1287 326.232 72.9829 325.766 72.9829 325.266H74.4282C74.4543 325.75 74.647 326.136 75.0063 326.422C75.3709 326.703 75.8501 326.844 76.4438 326.844C76.9907 326.844 77.4282 326.735 77.7563 326.516C78.0897 326.292 78.2563 325.995 78.2563 325.625ZM83.5454 317.367V319.414H85.1235V320.531H83.5454V325.774C83.5454 326.112 83.6157 326.367 83.7563 326.539C83.897 326.706 84.1366 326.789 84.4751 326.789C84.6418 326.789 84.8709 326.758 85.1626 326.696V327.867C84.7824 327.972 84.4126 328.024 84.0532 328.024C83.4074 328.024 82.9204 327.828 82.5923 327.438C82.2642 327.047 82.1001 326.492 82.1001 325.774V320.531H80.561V319.414H82.1001V317.367H83.5454ZM90.3267 328.024C89.1808 328.024 88.2485 327.649 87.5298 326.899C86.811 326.143 86.4517 325.136 86.4517 323.875V323.61C86.4517 322.771 86.6105 322.024 86.9282 321.367C87.2511 320.706 87.6991 320.19 88.272 319.821C88.8501 319.446 89.4751 319.258 90.147 319.258C91.2459 319.258 92.1001 319.62 92.7095 320.344C93.3188 321.068 93.6235 322.104 93.6235 323.453V324.055H87.897C87.9178 324.888 88.16 325.563 88.6235 326.078C89.0923 326.589 89.686 326.844 90.4048 326.844C90.9152 326.844 91.3475 326.74 91.7017 326.531C92.0558 326.323 92.3657 326.047 92.6313 325.703L93.5142 326.391C92.8058 327.479 91.7433 328.024 90.3267 328.024ZM90.147 320.446C89.5636 320.446 89.0741 320.659 88.6782 321.086C88.2824 321.508 88.0376 322.102 87.9438 322.867H92.1782V322.758C92.1366 322.024 91.9386 321.456 91.5845 321.055C91.2303 320.649 90.7511 320.446 90.147 320.446ZM96.6626 319.414L96.7017 320.352C97.3215 319.623 98.1574 319.258 99.2095 319.258C100.392 319.258 101.196 319.711 101.624 320.617C101.905 320.211 102.269 319.883 102.717 319.633C103.17 319.383 103.704 319.258 104.319 319.258C106.173 319.258 107.116 320.24 107.147 322.203V327.867H105.702V322.289C105.702 321.685 105.564 321.235 105.288 320.938C105.012 320.636 104.548 320.485 103.897 320.485C103.361 320.485 102.915 320.646 102.561 320.969C102.207 321.287 102.001 321.716 101.944 322.258V327.867H100.491V322.328C100.491 321.099 99.8892 320.485 98.686 320.485C97.7381 320.485 97.0897 320.888 96.7407 321.696V327.867H95.2954V319.414H96.6626Z" fill="white"/>
<path d="M417.062 270.893H415.555V265.635H409.82V270.893H408.32V259.518H409.82V264.409H415.555V259.518H417.062V270.893ZM421.07 270.893H419.625V262.44H421.07V270.893ZM419.508 260.198C419.508 259.964 419.578 259.766 419.719 259.604C419.865 259.443 420.078 259.362 420.359 259.362C420.641 259.362 420.854 259.443 421 259.604C421.146 259.766 421.219 259.964 421.219 260.198C421.219 260.432 421.146 260.628 421 260.784C420.854 260.94 420.641 261.018 420.359 261.018C420.078 261.018 419.865 260.94 419.719 260.784C419.578 260.628 419.508 260.432 419.508 260.198ZM423.047 266.596C423.047 265.279 423.352 264.232 423.961 263.456C424.57 262.675 425.378 262.284 426.383 262.284C427.414 262.284 428.219 262.649 428.797 263.378L428.867 262.44H430.188V270.69C430.188 271.784 429.862 272.646 429.211 273.276C428.565 273.906 427.695 274.221 426.602 274.221C425.992 274.221 425.396 274.091 424.812 273.831C424.229 273.57 423.784 273.214 423.477 272.76L424.227 271.893C424.846 272.659 425.604 273.042 426.5 273.042C427.203 273.042 427.75 272.844 428.141 272.448C428.536 272.052 428.734 271.495 428.734 270.776V270.05C428.156 270.716 427.367 271.05 426.367 271.05C425.378 271.05 424.576 270.651 423.961 269.854C423.352 269.057 423.047 267.971 423.047 266.596ZM424.5 266.76C424.5 267.714 424.695 268.464 425.086 269.01C425.477 269.552 426.023 269.823 426.727 269.823C427.638 269.823 428.307 269.409 428.734 268.581V264.721C428.292 263.914 427.628 263.51 426.742 263.51C426.039 263.51 425.49 263.784 425.094 264.331C424.698 264.878 424.5 265.688 424.5 266.76ZM433.82 263.464C434.461 262.677 435.294 262.284 436.32 262.284C438.107 262.284 439.008 263.292 439.023 265.307V270.893H437.578V265.3C437.573 264.69 437.432 264.24 437.156 263.948C436.885 263.656 436.461 263.51 435.883 263.51C435.414 263.51 435.003 263.635 434.648 263.885C434.294 264.135 434.018 264.464 433.82 264.87V270.893H432.375V258.893H433.82V263.464ZM444.695 271.05C443.549 271.05 442.617 270.675 441.898 269.925C441.18 269.169 440.82 268.162 440.82 266.901V266.635C440.82 265.797 440.979 265.05 441.297 264.393C441.62 263.732 442.068 263.216 442.641 262.846C443.219 262.471 443.844 262.284 444.516 262.284C445.615 262.284 446.469 262.646 447.078 263.37C447.688 264.094 447.992 265.13 447.992 266.479V267.081H442.266C442.286 267.914 442.529 268.589 442.992 269.104C443.461 269.615 444.055 269.87 444.773 269.87C445.284 269.87 445.716 269.766 446.07 269.557C446.424 269.349 446.734 269.073 447 268.729L447.883 269.417C447.174 270.505 446.112 271.05 444.695 271.05ZM444.516 263.471C443.932 263.471 443.443 263.685 443.047 264.112C442.651 264.534 442.406 265.128 442.312 265.893H446.547V265.784C446.505 265.05 446.307 264.482 445.953 264.081C445.599 263.675 445.12 263.471 444.516 263.471ZM453.758 263.737C453.539 263.701 453.302 263.682 453.047 263.682C452.099 263.682 451.456 264.086 451.117 264.893V270.893H449.672V262.44H451.078L451.102 263.417C451.576 262.662 452.247 262.284 453.117 262.284C453.398 262.284 453.612 262.32 453.758 262.393V263.737ZM460.797 269.667H466.188V270.893H459.289V259.518H460.797V269.667ZM471.18 271.05C470.034 271.05 469.102 270.675 468.383 269.925C467.664 269.169 467.305 268.162 467.305 266.901V266.635C467.305 265.797 467.464 265.05 467.781 264.393C468.104 263.732 468.552 263.216 469.125 262.846C469.703 262.471 470.328 262.284 471 262.284C472.099 262.284 472.953 262.646 473.562 263.37C474.172 264.094 474.477 265.13 474.477 266.479V267.081H468.75C468.771 267.914 469.013 268.589 469.477 269.104C469.945 269.615 470.539 269.87 471.258 269.87C471.768 269.87 472.201 269.766 472.555 269.557C472.909 269.349 473.219 269.073 473.484 268.729L474.367 269.417C473.659 270.505 472.596 271.05 471.18 271.05ZM471 263.471C470.417 263.471 469.927 263.685 469.531 264.112C469.135 264.534 468.891 265.128 468.797 265.893H473.031V265.784C472.99 265.05 472.792 264.482 472.438 264.081C472.083 263.675 471.604 263.471 471 263.471ZM478.836 268.932L480.93 262.44H482.406L479.375 270.893H478.273L475.211 262.44H476.688L478.836 268.932ZM487.195 271.05C486.049 271.05 485.117 270.675 484.398 269.925C483.68 269.169 483.32 268.162 483.32 266.901V266.635C483.32 265.797 483.479 265.05 483.797 264.393C484.12 263.732 484.568 263.216 485.141 262.846C485.719 262.471 486.344 262.284 487.016 262.284C488.115 262.284 488.969 262.646 489.578 263.37C490.188 264.094 490.492 265.13 490.492 266.479V267.081H484.766C484.786 267.914 485.029 268.589 485.492 269.104C485.961 269.615 486.555 269.87 487.273 269.87C487.784 269.87 488.216 269.766 488.57 269.557C488.924 269.349 489.234 269.073 489.5 268.729L490.383 269.417C489.674 270.505 488.612 271.05 487.195 271.05ZM487.016 263.471C486.432 263.471 485.943 263.685 485.547 264.112C485.151 264.534 484.906 265.128 484.812 265.893H489.047V265.784C489.005 265.05 488.807 264.482 488.453 264.081C488.099 263.675 487.62 263.471 487.016 263.471ZM493.742 270.893H492.297V258.893H493.742V270.893ZM411.672 284.823C410.385 284.453 409.448 284 408.859 283.464C408.276 282.922 407.984 282.255 407.984 281.464C407.984 280.568 408.341 279.828 409.055 279.245C409.773 278.656 410.706 278.362 411.852 278.362C412.633 278.362 413.328 278.513 413.938 278.815C414.552 279.117 415.026 279.534 415.359 280.065C415.698 280.596 415.867 281.177 415.867 281.807H414.359C414.359 281.12 414.141 280.581 413.703 280.19C413.266 279.794 412.648 279.596 411.852 279.596C411.112 279.596 410.534 279.76 410.117 280.089C409.706 280.412 409.5 280.862 409.5 281.44C409.5 281.904 409.695 282.297 410.086 282.62C410.482 282.938 411.151 283.229 412.094 283.495C413.042 283.76 413.781 284.055 414.312 284.378C414.849 284.695 415.245 285.068 415.5 285.495C415.76 285.922 415.891 286.425 415.891 287.003C415.891 287.925 415.531 288.664 414.812 289.221C414.094 289.774 413.133 290.05 411.93 290.05C411.148 290.05 410.419 289.901 409.742 289.604C409.065 289.302 408.542 288.891 408.172 288.37C407.807 287.849 407.625 287.258 407.625 286.596H409.133C409.133 287.284 409.385 287.828 409.891 288.229C410.401 288.625 411.081 288.823 411.93 288.823C412.721 288.823 413.328 288.662 413.75 288.339C414.172 288.016 414.383 287.576 414.383 287.018C414.383 286.461 414.188 286.031 413.797 285.729C413.406 285.422 412.698 285.12 411.672 284.823ZM418.953 281.44L418.992 282.378C419.612 281.649 420.448 281.284 421.5 281.284C422.682 281.284 423.487 281.737 423.914 282.643C424.195 282.237 424.56 281.909 425.008 281.659C425.461 281.409 425.995 281.284 426.609 281.284C428.464 281.284 429.406 282.266 429.438 284.229V289.893H427.992V284.315C427.992 283.711 427.854 283.26 427.578 282.964C427.302 282.662 426.839 282.51 426.188 282.51C425.651 282.51 425.206 282.672 424.852 282.995C424.497 283.313 424.292 283.742 424.234 284.284V289.893H422.781V284.354C422.781 283.125 422.18 282.51 420.977 282.51C420.029 282.51 419.38 282.914 419.031 283.721V289.893H417.586V281.44H418.953ZM436.844 289.893C436.76 289.727 436.693 289.43 436.641 289.003C435.969 289.701 435.167 290.05 434.234 290.05C433.401 290.05 432.716 289.815 432.18 289.346C431.648 288.872 431.383 288.274 431.383 287.55C431.383 286.669 431.716 285.987 432.383 285.503C433.055 285.013 433.997 284.768 435.211 284.768H436.617V284.104C436.617 283.599 436.466 283.198 436.164 282.901C435.862 282.599 435.417 282.448 434.828 282.448C434.312 282.448 433.88 282.578 433.531 282.839C433.182 283.099 433.008 283.414 433.008 283.784H431.555C431.555 283.362 431.703 282.956 432 282.565C432.302 282.169 432.708 281.857 433.219 281.628C433.734 281.399 434.299 281.284 434.914 281.284C435.888 281.284 436.651 281.529 437.203 282.018C437.755 282.503 438.042 283.172 438.062 284.026V287.917C438.062 288.693 438.161 289.31 438.359 289.768V289.893H436.844ZM434.445 288.792C434.898 288.792 435.328 288.675 435.734 288.44C436.141 288.206 436.435 287.901 436.617 287.526V285.792H435.484C433.714 285.792 432.828 286.31 432.828 287.346C432.828 287.8 432.979 288.154 433.281 288.409C433.583 288.664 433.971 288.792 434.445 288.792ZM444.414 282.737C444.195 282.701 443.958 282.682 443.703 282.682C442.755 282.682 442.112 283.086 441.773 283.893V289.893H440.328V281.44H441.734L441.758 282.417C442.232 281.662 442.904 281.284 443.773 281.284C444.055 281.284 444.268 281.32 444.414 281.393V282.737ZM448.102 279.393V281.44H449.68V282.557H448.102V287.8C448.102 288.138 448.172 288.393 448.312 288.565C448.453 288.732 448.693 288.815 449.031 288.815C449.198 288.815 449.427 288.784 449.719 288.721V289.893C449.339 289.997 448.969 290.05 448.609 290.05C447.964 290.05 447.477 289.854 447.148 289.464C446.82 289.073 446.656 288.518 446.656 287.8V282.557H445.117V281.44H446.656V279.393H448.102ZM416.688 305.284C416.547 306.487 416.102 307.417 415.352 308.073C414.607 308.724 413.615 309.05 412.375 309.05C411.031 309.05 409.953 308.568 409.141 307.604C408.333 306.641 407.93 305.352 407.93 303.737V302.643C407.93 301.586 408.117 300.656 408.492 299.854C408.872 299.052 409.409 298.438 410.102 298.01C410.794 297.578 411.596 297.362 412.508 297.362C413.716 297.362 414.685 297.701 415.414 298.378C416.143 299.05 416.568 299.982 416.688 301.175H415.18C415.049 300.268 414.766 299.612 414.328 299.206C413.896 298.8 413.289 298.596 412.508 298.596C411.549 298.596 410.797 298.951 410.25 299.659C409.708 300.367 409.438 301.375 409.438 302.682V303.784C409.438 305.018 409.695 306 410.211 306.729C410.727 307.458 411.448 307.823 412.375 307.823C413.208 307.823 413.846 307.635 414.289 307.26C414.737 306.88 415.034 306.221 415.18 305.284H416.688ZM418.133 304.589C418.133 303.76 418.294 303.016 418.617 302.354C418.945 301.693 419.398 301.182 419.977 300.823C420.56 300.464 421.224 300.284 421.969 300.284C423.12 300.284 424.049 300.682 424.758 301.479C425.471 302.276 425.828 303.336 425.828 304.659V304.76C425.828 305.583 425.669 306.323 425.352 306.979C425.039 307.63 424.589 308.138 424 308.503C423.417 308.867 422.745 309.05 421.984 309.05C420.839 309.05 419.909 308.651 419.195 307.854C418.487 307.057 418.133 306.003 418.133 304.69V304.589ZM419.586 304.76C419.586 305.698 419.802 306.451 420.234 307.018C420.672 307.586 421.255 307.87 421.984 307.87C422.719 307.87 423.302 307.583 423.734 307.01C424.167 306.432 424.383 305.625 424.383 304.589C424.383 303.662 424.161 302.912 423.719 302.339C423.281 301.76 422.698 301.471 421.969 301.471C421.255 301.471 420.68 301.755 420.242 302.323C419.805 302.891 419.586 303.703 419.586 304.76ZM429.008 300.44L429.055 301.503C429.701 300.69 430.544 300.284 431.586 300.284C433.372 300.284 434.273 301.292 434.289 303.307V308.893H432.844V303.3C432.839 302.69 432.698 302.24 432.422 301.948C432.151 301.656 431.727 301.51 431.148 301.51C430.68 301.51 430.268 301.635 429.914 301.885C429.56 302.135 429.284 302.464 429.086 302.87V308.893H427.641V300.44H429.008ZM438.43 298.393V300.44H440.008V301.557H438.43V306.8C438.43 307.138 438.5 307.393 438.641 307.565C438.781 307.732 439.021 307.815 439.359 307.815C439.526 307.815 439.755 307.784 440.047 307.721V308.893C439.667 308.997 439.297 309.05 438.938 309.05C438.292 309.05 437.805 308.854 437.477 308.464C437.148 308.073 436.984 307.518 436.984 306.8V301.557H435.445V300.44H436.984V298.393H438.43ZM445.789 301.737C445.57 301.701 445.333 301.682 445.078 301.682C444.13 301.682 443.487 302.086 443.148 302.893V308.893H441.703V300.44H443.109L443.133 301.417C443.607 300.662 444.279 300.284 445.148 300.284C445.43 300.284 445.643 300.32 445.789 300.393V301.737ZM452.031 308.893C451.948 308.727 451.88 308.43 451.828 308.003C451.156 308.701 450.354 309.05 449.422 309.05C448.589 309.05 447.904 308.815 447.367 308.346C446.836 307.872 446.57 307.274 446.57 306.55C446.57 305.669 446.904 304.987 447.57 304.503C448.242 304.013 449.185 303.768 450.398 303.768H451.805V303.104C451.805 302.599 451.654 302.198 451.352 301.901C451.049 301.599 450.604 301.448 450.016 301.448C449.5 301.448 449.068 301.578 448.719 301.839C448.37 302.099 448.195 302.414 448.195 302.784H446.742C446.742 302.362 446.891 301.956 447.188 301.565C447.49 301.169 447.896 300.857 448.406 300.628C448.922 300.399 449.487 300.284 450.102 300.284C451.076 300.284 451.839 300.529 452.391 301.018C452.943 301.503 453.229 302.172 453.25 303.026V306.917C453.25 307.693 453.349 308.31 453.547 308.768V308.893H452.031ZM449.633 307.792C450.086 307.792 450.516 307.675 450.922 307.44C451.328 307.206 451.622 306.901 451.805 306.526V304.792H450.672C448.901 304.792 448.016 305.31 448.016 306.346C448.016 306.8 448.167 307.154 448.469 307.409C448.771 307.664 449.159 307.792 449.633 307.792ZM458.906 307.87C459.422 307.87 459.872 307.714 460.258 307.401C460.643 307.089 460.857 306.698 460.898 306.229H462.266C462.24 306.714 462.073 307.175 461.766 307.612C461.458 308.05 461.047 308.399 460.531 308.659C460.021 308.919 459.479 309.05 458.906 309.05C457.755 309.05 456.839 308.667 456.156 307.901C455.479 307.13 455.141 306.078 455.141 304.745V304.503C455.141 303.68 455.292 302.948 455.594 302.307C455.896 301.667 456.328 301.169 456.891 300.815C457.458 300.461 458.128 300.284 458.898 300.284C459.846 300.284 460.633 300.568 461.258 301.135C461.888 301.703 462.224 302.44 462.266 303.346H460.898C460.857 302.8 460.648 302.352 460.273 302.003C459.904 301.649 459.445 301.471 458.898 301.471C458.164 301.471 457.594 301.737 457.188 302.268C456.786 302.794 456.586 303.557 456.586 304.557V304.831C456.586 305.805 456.786 306.555 457.188 307.081C457.589 307.607 458.161 307.87 458.906 307.87ZM465.852 298.393V300.44H467.43V301.557H465.852V306.8C465.852 307.138 465.922 307.393 466.062 307.565C466.203 307.732 466.443 307.815 466.781 307.815C466.948 307.815 467.177 307.784 467.469 307.721V308.893C467.089 308.997 466.719 309.05 466.359 309.05C465.714 309.05 465.227 308.854 464.898 308.464C464.57 308.073 464.406 307.518 464.406 306.8V301.557H462.867V300.44H464.406V298.393H465.852ZM409.828 326.667H415.219V327.893H408.32V316.518H409.828V326.667ZM421.922 327.893C421.839 327.727 421.771 327.43 421.719 327.003C421.047 327.701 420.245 328.05 419.312 328.05C418.479 328.05 417.794 327.815 417.258 327.346C416.727 326.872 416.461 326.274 416.461 325.55C416.461 324.669 416.794 323.987 417.461 323.503C418.133 323.013 419.076 322.768 420.289 322.768H421.695V322.104C421.695 321.599 421.544 321.198 421.242 320.901C420.94 320.599 420.495 320.448 419.906 320.448C419.391 320.448 418.958 320.578 418.609 320.839C418.26 321.099 418.086 321.414 418.086 321.784H416.633C416.633 321.362 416.781 320.956 417.078 320.565C417.38 320.169 417.786 319.857 418.297 319.628C418.812 319.399 419.378 319.284 419.992 319.284C420.966 319.284 421.729 319.529 422.281 320.018C422.833 320.503 423.12 321.172 423.141 322.026V325.917C423.141 326.693 423.24 327.31 423.438 327.768V327.893H421.922ZM419.523 326.792C419.977 326.792 420.406 326.675 420.812 326.44C421.219 326.206 421.513 325.901 421.695 325.526V323.792H420.562C418.792 323.792 417.906 324.31 417.906 325.346C417.906 325.8 418.057 326.154 418.359 326.409C418.661 326.664 419.049 326.792 419.523 326.792ZM426.773 319.44L426.82 320.503C427.466 319.69 428.31 319.284 429.352 319.284C431.138 319.284 432.039 320.292 432.055 322.307V327.893H430.609V322.3C430.604 321.69 430.464 321.24 430.188 320.948C429.917 320.656 429.492 320.51 428.914 320.51C428.445 320.51 428.034 320.635 427.68 320.885C427.326 321.135 427.049 321.464 426.852 321.87V327.893H425.406V319.44H426.773ZM433.891 323.596C433.891 322.279 434.195 321.232 434.805 320.456C435.414 319.675 436.221 319.284 437.227 319.284C438.258 319.284 439.062 319.649 439.641 320.378L439.711 319.44H441.031V327.69C441.031 328.784 440.706 329.646 440.055 330.276C439.409 330.906 438.539 331.221 437.445 331.221C436.836 331.221 436.24 331.091 435.656 330.831C435.073 330.57 434.628 330.214 434.32 329.76L435.07 328.893C435.69 329.659 436.448 330.042 437.344 330.042C438.047 330.042 438.594 329.844 438.984 329.448C439.38 329.052 439.578 328.495 439.578 327.776V327.05C439 327.716 438.211 328.05 437.211 328.05C436.221 328.05 435.419 327.651 434.805 326.854C434.195 326.057 433.891 324.971 433.891 323.596ZM435.344 323.76C435.344 324.714 435.539 325.464 435.93 326.01C436.32 326.552 436.867 326.823 437.57 326.823C438.482 326.823 439.151 326.409 439.578 325.581V321.721C439.135 320.914 438.471 320.51 437.586 320.51C436.883 320.51 436.333 320.784 435.938 321.331C435.542 321.878 435.344 322.688 435.344 323.76ZM448.438 327.057C447.875 327.719 447.049 328.05 445.961 328.05C445.06 328.05 444.372 327.789 443.898 327.268C443.43 326.742 443.193 325.966 443.188 324.94V319.44H444.633V324.901C444.633 326.182 445.154 326.823 446.195 326.823C447.299 326.823 448.034 326.412 448.398 325.589V319.44H449.844V327.893H448.469L448.438 327.057ZM457.266 327.893C457.182 327.727 457.115 327.43 457.062 327.003C456.391 327.701 455.589 328.05 454.656 328.05C453.823 328.05 453.138 327.815 452.602 327.346C452.07 326.872 451.805 326.274 451.805 325.55C451.805 324.669 452.138 323.987 452.805 323.503C453.477 323.013 454.419 322.768 455.633 322.768H457.039V322.104C457.039 321.599 456.888 321.198 456.586 320.901C456.284 320.599 455.839 320.448 455.25 320.448C454.734 320.448 454.302 320.578 453.953 320.839C453.604 321.099 453.43 321.414 453.43 321.784H451.977C451.977 321.362 452.125 320.956 452.422 320.565C452.724 320.169 453.13 319.857 453.641 319.628C454.156 319.399 454.721 319.284 455.336 319.284C456.31 319.284 457.073 319.529 457.625 320.018C458.177 320.503 458.464 321.172 458.484 322.026V325.917C458.484 326.693 458.583 327.31 458.781 327.768V327.893H457.266ZM454.867 326.792C455.32 326.792 455.75 326.675 456.156 326.44C456.562 326.206 456.857 325.901 457.039 325.526V323.792H455.906C454.135 323.792 453.25 324.31 453.25 325.346C453.25 325.8 453.401 326.154 453.703 326.409C454.005 326.664 454.393 326.792 454.867 326.792ZM460.406 323.596C460.406 322.279 460.711 321.232 461.32 320.456C461.93 319.675 462.737 319.284 463.742 319.284C464.773 319.284 465.578 319.649 466.156 320.378L466.227 319.44H467.547V327.69C467.547 328.784 467.221 329.646 466.57 330.276C465.924 330.906 465.055 331.221 463.961 331.221C463.352 331.221 462.755 331.091 462.172 330.831C461.589 330.57 461.143 330.214 460.836 329.76L461.586 328.893C462.206 329.659 462.964 330.042 463.859 330.042C464.562 330.042 465.109 329.844 465.5 329.448C465.896 329.052 466.094 328.495 466.094 327.776V327.05C465.516 327.716 464.727 328.05 463.727 328.05C462.737 328.05 461.935 327.651 461.32 326.854C460.711 326.057 460.406 324.971 460.406 323.596ZM461.859 323.76C461.859 324.714 462.055 325.464 462.445 326.01C462.836 326.552 463.383 326.823 464.086 326.823C464.997 326.823 465.667 326.409 466.094 325.581V321.721C465.651 320.914 464.987 320.51 464.102 320.51C463.398 320.51 462.849 320.784 462.453 321.331C462.057 321.878 461.859 322.688 461.859 323.76ZM473.242 328.05C472.096 328.05 471.164 327.675 470.445 326.925C469.727 326.169 469.367 325.162 469.367 323.901V323.635C469.367 322.797 469.526 322.05 469.844 321.393C470.167 320.732 470.615 320.216 471.188 319.846C471.766 319.471 472.391 319.284 473.062 319.284C474.161 319.284 475.016 319.646 475.625 320.37C476.234 321.094 476.539 322.13 476.539 323.479V324.081H470.812C470.833 324.914 471.076 325.589 471.539 326.104C472.008 326.615 472.602 326.87 473.32 326.87C473.831 326.87 474.263 326.766 474.617 326.557C474.971 326.349 475.281 326.073 475.547 325.729L476.43 326.417C475.721 327.505 474.659 328.05 473.242 328.05ZM473.062 320.471C472.479 320.471 471.99 320.685 471.594 321.112C471.198 321.534 470.953 322.128 470.859 322.893H475.094V322.784C475.052 322.05 474.854 321.482 474.5 321.081C474.146 320.675 473.667 320.471 473.062 320.471Z" fill="white"/>
<path d="M192.062 473H190.555V467.742H184.82V473H183.32V461.625H184.82V466.516H190.555V461.625H192.062V473ZM195.016 467.297L195.594 461.625H201.422V462.961H196.82L196.477 466.062C197.034 465.734 197.667 465.57 198.375 465.57C199.411 465.57 200.234 465.914 200.844 466.602C201.453 467.284 201.758 468.208 201.758 469.375C201.758 470.547 201.44 471.471 200.805 472.148C200.174 472.82 199.292 473.156 198.156 473.156C197.151 473.156 196.331 472.878 195.695 472.32C195.06 471.763 194.698 470.992 194.609 470.008H195.977C196.065 470.659 196.297 471.151 196.672 471.484C197.047 471.812 197.542 471.977 198.156 471.977C198.828 471.977 199.354 471.747 199.734 471.289C200.12 470.831 200.312 470.198 200.312 469.391C200.312 468.63 200.104 468.021 199.688 467.562C199.276 467.099 198.727 466.867 198.039 466.867C197.409 466.867 196.914 467.005 196.555 467.281L196.172 467.594L195.016 467.297ZM208.422 467.969L213.312 469.945V471.477L206.922 468.516V467.375L213.312 464.422V465.953L208.422 467.969ZM222.203 466.641H215.688V465.383H222.203V466.641ZM222.203 469.883H215.688V468.633H222.203V469.883ZM229.492 467.922L224.328 465.898V464.414L231 467.367V468.508L224.328 471.469V469.969L229.492 467.922ZM241.703 473H240.195L234.469 464.234V473H232.961V461.625H234.469L240.211 470.43V461.625H241.703V473ZM249.359 473C249.276 472.833 249.208 472.536 249.156 472.109C248.484 472.807 247.682 473.156 246.75 473.156C245.917 473.156 245.232 472.922 244.695 472.453C244.164 471.979 243.898 471.38 243.898 470.656C243.898 469.776 244.232 469.094 244.898 468.609C245.57 468.12 246.513 467.875 247.727 467.875H249.133V467.211C249.133 466.706 248.982 466.305 248.68 466.008C248.378 465.706 247.932 465.555 247.344 465.555C246.828 465.555 246.396 465.685 246.047 465.945C245.698 466.206 245.523 466.521 245.523 466.891H244.07C244.07 466.469 244.219 466.062 244.516 465.672C244.818 465.276 245.224 464.964 245.734 464.734C246.25 464.505 246.815 464.391 247.43 464.391C248.404 464.391 249.167 464.635 249.719 465.125C250.271 465.609 250.557 466.279 250.578 467.133V471.023C250.578 471.799 250.677 472.417 250.875 472.875V473H249.359ZM246.961 471.898C247.414 471.898 247.844 471.781 248.25 471.547C248.656 471.312 248.951 471.008 249.133 470.633V468.898H248C246.229 468.898 245.344 469.417 245.344 470.453C245.344 470.906 245.495 471.26 245.797 471.516C246.099 471.771 246.487 471.898 246.961 471.898ZM254.805 462.5V464.547H256.383V465.664H254.805V470.906C254.805 471.245 254.875 471.5 255.016 471.672C255.156 471.839 255.396 471.922 255.734 471.922C255.901 471.922 256.13 471.891 256.422 471.828V473C256.042 473.104 255.672 473.156 255.312 473.156C254.667 473.156 254.18 472.961 253.852 472.57C253.523 472.18 253.359 471.625 253.359 470.906V465.664H251.82V464.547H253.359V462.5H254.805ZM259.648 473H258.203V464.547H259.648V473ZM258.086 462.305C258.086 462.07 258.156 461.872 258.297 461.711C258.443 461.549 258.656 461.469 258.938 461.469C259.219 461.469 259.432 461.549 259.578 461.711C259.724 461.872 259.797 462.07 259.797 462.305C259.797 462.539 259.724 462.734 259.578 462.891C259.432 463.047 259.219 463.125 258.938 463.125C258.656 463.125 258.443 463.047 258.297 462.891C258.156 462.734 258.086 462.539 258.086 462.305ZM264.758 471.039L266.852 464.547H268.328L265.297 473H264.195L261.133 464.547H262.609L264.758 471.039ZM273.117 473.156C271.971 473.156 271.039 472.781 270.32 472.031C269.602 471.276 269.242 470.268 269.242 469.008V468.742C269.242 467.904 269.401 467.156 269.719 466.5C270.042 465.839 270.49 465.323 271.062 464.953C271.641 464.578 272.266 464.391 272.938 464.391C274.036 464.391 274.891 464.753 275.5 465.477C276.109 466.201 276.414 467.237 276.414 468.586V469.188H270.688C270.708 470.021 270.951 470.695 271.414 471.211C271.883 471.721 272.477 471.977 273.195 471.977C273.706 471.977 274.138 471.872 274.492 471.664C274.846 471.456 275.156 471.18 275.422 470.836L276.305 471.523C275.596 472.612 274.534 473.156 273.117 473.156ZM272.938 465.578C272.354 465.578 271.865 465.792 271.469 466.219C271.073 466.641 270.828 467.234 270.734 468H274.969V467.891C274.927 467.156 274.729 466.589 274.375 466.188C274.021 465.781 273.542 465.578 272.938 465.578ZM288.57 470.031H283.805L282.734 473H281.188L285.531 461.625H286.844L291.195 473H289.656L288.57 470.031ZM284.258 468.797H288.125L286.188 463.477L284.258 468.797ZM292.148 468.703C292.148 467.406 292.456 466.365 293.07 465.578C293.685 464.786 294.49 464.391 295.484 464.391C296.474 464.391 297.258 464.729 297.836 465.406V461H299.281V473H297.953L297.883 472.094C297.305 472.802 296.5 473.156 295.469 473.156C294.49 473.156 293.69 472.755 293.07 471.953C292.456 471.151 292.148 470.104 292.148 468.812V468.703ZM293.594 468.867C293.594 469.826 293.792 470.576 294.188 471.117C294.583 471.659 295.13 471.93 295.828 471.93C296.745 471.93 297.414 471.518 297.836 470.695V466.812C297.404 466.016 296.74 465.617 295.844 465.617C295.135 465.617 294.583 465.891 294.188 466.438C293.792 466.984 293.594 467.794 293.594 468.867ZM306.75 473C306.667 472.833 306.599 472.536 306.547 472.109C305.875 472.807 305.073 473.156 304.141 473.156C303.307 473.156 302.622 472.922 302.086 472.453C301.555 471.979 301.289 471.38 301.289 470.656C301.289 469.776 301.622 469.094 302.289 468.609C302.961 468.12 303.904 467.875 305.117 467.875H306.523V467.211C306.523 466.706 306.372 466.305 306.07 466.008C305.768 465.706 305.323 465.555 304.734 465.555C304.219 465.555 303.786 465.685 303.438 465.945C303.089 466.206 302.914 466.521 302.914 466.891H301.461C301.461 466.469 301.609 466.062 301.906 465.672C302.208 465.276 302.615 464.964 303.125 464.734C303.641 464.505 304.206 464.391 304.82 464.391C305.794 464.391 306.557 464.635 307.109 465.125C307.661 465.609 307.948 466.279 307.969 467.133V471.023C307.969 471.799 308.068 472.417 308.266 472.875V473H306.75ZM304.352 471.898C304.805 471.898 305.234 471.781 305.641 471.547C306.047 471.312 306.341 471.008 306.523 470.633V468.898H305.391C303.62 468.898 302.734 469.417 302.734 470.453C302.734 470.906 302.885 471.26 303.188 471.516C303.49 471.771 303.878 471.898 304.352 471.898ZM317.375 468.867C317.375 470.154 317.081 471.19 316.492 471.977C315.904 472.763 315.107 473.156 314.102 473.156C313.076 473.156 312.268 472.831 311.68 472.18V476.25H310.234V464.547H311.555L311.625 465.484C312.214 464.755 313.031 464.391 314.078 464.391C315.094 464.391 315.896 464.773 316.484 465.539C317.078 466.305 317.375 467.37 317.375 468.734V468.867ZM315.93 468.703C315.93 467.75 315.727 466.997 315.32 466.445C314.914 465.893 314.357 465.617 313.648 465.617C312.773 465.617 312.117 466.005 311.68 466.781V470.82C312.112 471.591 312.773 471.977 313.664 471.977C314.357 471.977 314.906 471.703 315.312 471.156C315.724 470.604 315.93 469.786 315.93 468.703ZM321.18 462.5V464.547H322.758V465.664H321.18V470.906C321.18 471.245 321.25 471.5 321.391 471.672C321.531 471.839 321.771 471.922 322.109 471.922C322.276 471.922 322.505 471.891 322.797 471.828V473C322.417 473.104 322.047 473.156 321.688 473.156C321.042 473.156 320.555 472.961 320.227 472.57C319.898 472.18 319.734 471.625 319.734 470.906V465.664H318.195V464.547H319.734V462.5H321.18ZM327.961 473.156C326.815 473.156 325.883 472.781 325.164 472.031C324.445 471.276 324.086 470.268 324.086 469.008V468.742C324.086 467.904 324.245 467.156 324.562 466.5C324.885 465.839 325.333 465.323 325.906 464.953C326.484 464.578 327.109 464.391 327.781 464.391C328.88 464.391 329.734 464.753 330.344 465.477C330.953 466.201 331.258 467.237 331.258 468.586V469.188H325.531C325.552 470.021 325.794 470.695 326.258 471.211C326.727 471.721 327.32 471.977 328.039 471.977C328.549 471.977 328.982 471.872 329.336 471.664C329.69 471.456 330 471.18 330.266 470.836L331.148 471.523C330.44 472.612 329.378 473.156 327.961 473.156ZM327.781 465.578C327.198 465.578 326.708 465.792 326.312 466.219C325.917 466.641 325.672 467.234 325.578 468H329.812V467.891C329.771 467.156 329.573 466.589 329.219 466.188C328.865 465.781 328.385 465.578 327.781 465.578ZM337.023 465.844C336.805 465.807 336.568 465.789 336.312 465.789C335.365 465.789 334.721 466.193 334.383 467V473H332.938V464.547H334.344L334.367 465.523C334.841 464.768 335.513 464.391 336.383 464.391C336.664 464.391 336.878 464.427 337.023 464.5V465.844Z" fill="white"/>
<path d="M194.328 110.625V118.359C194.323 119.432 193.984 120.31 193.312 120.992C192.646 121.674 191.74 122.057 190.594 122.141L190.195 122.156C188.951 122.156 187.958 121.82 187.219 121.148C186.479 120.477 186.104 119.552 186.094 118.375V110.625H187.578V118.328C187.578 119.151 187.805 119.792 188.258 120.25C188.711 120.703 189.357 120.93 190.195 120.93C191.044 120.93 191.693 120.703 192.141 120.25C192.594 119.797 192.82 119.159 192.82 118.336V110.625H194.328ZM197.836 113.547L197.883 114.609C198.529 113.797 199.372 113.391 200.414 113.391C202.201 113.391 203.102 114.398 203.117 116.414V122H201.672V116.406C201.667 115.797 201.526 115.346 201.25 115.055C200.979 114.763 200.555 114.617 199.977 114.617C199.508 114.617 199.096 114.742 198.742 114.992C198.388 115.242 198.112 115.57 197.914 115.977V122H196.469V113.547H197.836ZM206.867 122H205.422V113.547H206.867V122ZM205.305 111.305C205.305 111.07 205.375 110.872 205.516 110.711C205.661 110.549 205.875 110.469 206.156 110.469C206.438 110.469 206.651 110.549 206.797 110.711C206.943 110.872 207.016 111.07 207.016 111.305C207.016 111.539 206.943 111.734 206.797 111.891C206.651 112.047 206.438 112.125 206.156 112.125C205.875 112.125 205.661 112.047 205.516 111.891C205.375 111.734 205.305 111.539 205.305 111.305ZM211.977 120.039L214.07 113.547H215.547L212.516 122H211.414L208.352 113.547H209.828L211.977 120.039ZM220.336 122.156C219.19 122.156 218.258 121.781 217.539 121.031C216.82 120.276 216.461 119.268 216.461 118.008V117.742C216.461 116.904 216.62 116.156 216.938 115.5C217.26 114.839 217.708 114.323 218.281 113.953C218.859 113.578 219.484 113.391 220.156 113.391C221.255 113.391 222.109 113.753 222.719 114.477C223.328 115.201 223.633 116.237 223.633 117.586V118.188H217.906C217.927 119.021 218.169 119.695 218.633 120.211C219.102 120.721 219.695 120.977 220.414 120.977C220.924 120.977 221.357 120.872 221.711 120.664C222.065 120.456 222.375 120.18 222.641 119.836L223.523 120.523C222.815 121.612 221.753 122.156 220.336 122.156ZM220.156 114.578C219.573 114.578 219.083 114.792 218.688 115.219C218.292 115.641 218.047 116.234 217.953 117H222.188V116.891C222.146 116.156 221.948 115.589 221.594 115.188C221.24 114.781 220.76 114.578 220.156 114.578ZM229.398 114.844C229.18 114.807 228.943 114.789 228.688 114.789C227.74 114.789 227.096 115.193 226.758 116V122H225.312V113.547H226.719L226.742 114.523C227.216 113.768 227.888 113.391 228.758 113.391C229.039 113.391 229.253 113.427 229.398 113.5V114.844ZM235.656 119.758C235.656 119.367 235.508 119.065 235.211 118.852C234.919 118.633 234.406 118.445 233.672 118.289C232.943 118.133 232.362 117.945 231.93 117.727C231.503 117.508 231.185 117.247 230.977 116.945C230.773 116.643 230.672 116.284 230.672 115.867C230.672 115.174 230.964 114.589 231.547 114.109C232.135 113.63 232.885 113.391 233.797 113.391C234.755 113.391 235.531 113.638 236.125 114.133C236.724 114.628 237.023 115.26 237.023 116.031H235.57C235.57 115.635 235.401 115.294 235.062 115.008C234.729 114.721 234.307 114.578 233.797 114.578C233.271 114.578 232.859 114.693 232.562 114.922C232.266 115.151 232.117 115.451 232.117 115.82C232.117 116.169 232.255 116.432 232.531 116.609C232.807 116.786 233.305 116.956 234.023 117.117C234.747 117.279 235.333 117.471 235.781 117.695C236.229 117.919 236.56 118.19 236.773 118.508C236.992 118.82 237.102 119.203 237.102 119.656C237.102 120.411 236.799 121.018 236.195 121.477C235.591 121.93 234.807 122.156 233.844 122.156C233.167 122.156 232.568 122.036 232.047 121.797C231.526 121.557 231.117 121.224 230.82 120.797C230.529 120.365 230.383 119.898 230.383 119.398H231.828C231.854 119.883 232.047 120.268 232.406 120.555C232.771 120.836 233.25 120.977 233.844 120.977C234.391 120.977 234.828 120.867 235.156 120.648C235.49 120.424 235.656 120.128 235.656 119.758ZM244.203 122C244.12 121.833 244.052 121.536 244 121.109C243.328 121.807 242.526 122.156 241.594 122.156C240.76 122.156 240.076 121.922 239.539 121.453C239.008 120.979 238.742 120.38 238.742 119.656C238.742 118.776 239.076 118.094 239.742 117.609C240.414 117.12 241.357 116.875 242.57 116.875H243.977V116.211C243.977 115.706 243.826 115.305 243.523 115.008C243.221 114.706 242.776 114.555 242.188 114.555C241.672 114.555 241.24 114.685 240.891 114.945C240.542 115.206 240.367 115.521 240.367 115.891H238.914C238.914 115.469 239.062 115.062 239.359 114.672C239.661 114.276 240.068 113.964 240.578 113.734C241.094 113.505 241.659 113.391 242.273 113.391C243.247 113.391 244.01 113.635 244.562 114.125C245.115 114.609 245.401 115.279 245.422 116.133V120.023C245.422 120.799 245.521 121.417 245.719 121.875V122H244.203ZM241.805 120.898C242.258 120.898 242.688 120.781 243.094 120.547C243.5 120.312 243.794 120.008 243.977 119.633V117.898H242.844C241.073 117.898 240.188 118.417 240.188 119.453C240.188 119.906 240.339 120.26 240.641 120.516C240.943 120.771 241.331 120.898 241.805 120.898ZM249.258 122H247.812V110H249.258V122ZM264.141 118.391C264 119.594 263.555 120.523 262.805 121.18C262.06 121.831 261.068 122.156 259.828 122.156C258.484 122.156 257.406 121.674 256.594 120.711C255.786 119.747 255.383 118.458 255.383 116.844V115.75C255.383 114.693 255.57 113.763 255.945 112.961C256.326 112.159 256.862 111.544 257.555 111.117C258.247 110.685 259.049 110.469 259.961 110.469C261.169 110.469 262.138 110.807 262.867 111.484C263.596 112.156 264.021 113.089 264.141 114.281H262.633C262.503 113.375 262.219 112.719 261.781 112.312C261.349 111.906 260.742 111.703 259.961 111.703C259.003 111.703 258.25 112.057 257.703 112.766C257.161 113.474 256.891 114.482 256.891 115.789V116.891C256.891 118.125 257.148 119.107 257.664 119.836C258.18 120.565 258.901 120.93 259.828 120.93C260.661 120.93 261.299 120.742 261.742 120.367C262.19 119.987 262.487 119.328 262.633 118.391H264.141ZM270.055 114.844C269.836 114.807 269.599 114.789 269.344 114.789C268.396 114.789 267.753 115.193 267.414 116V122H265.969V113.547H267.375L267.398 114.523C267.872 113.768 268.544 113.391 269.414 113.391C269.695 113.391 269.909 113.427 270.055 113.5V114.844ZM274.297 119.883L276.266 113.547H277.812L274.414 123.305C273.888 124.711 273.052 125.414 271.906 125.414L271.633 125.391L271.094 125.289V124.117L271.484 124.148C271.974 124.148 272.354 124.049 272.625 123.852C272.901 123.654 273.128 123.292 273.305 122.766L273.625 121.906L270.609 113.547H272.188L274.297 119.883ZM286.25 117.867C286.25 119.154 285.956 120.19 285.367 120.977C284.779 121.763 283.982 122.156 282.977 122.156C281.951 122.156 281.143 121.831 280.555 121.18V125.25H279.109V113.547H280.43L280.5 114.484C281.089 113.755 281.906 113.391 282.953 113.391C283.969 113.391 284.771 113.773 285.359 114.539C285.953 115.305 286.25 116.37 286.25 117.734V117.867ZM284.805 117.703C284.805 116.75 284.602 115.997 284.195 115.445C283.789 114.893 283.232 114.617 282.523 114.617C281.648 114.617 280.992 115.005 280.555 115.781V119.82C280.987 120.591 281.648 120.977 282.539 120.977C283.232 120.977 283.781 120.703 284.188 120.156C284.599 119.604 284.805 118.786 284.805 117.703ZM290.055 111.5V113.547H291.633V114.664H290.055V119.906C290.055 120.245 290.125 120.5 290.266 120.672C290.406 120.839 290.646 120.922 290.984 120.922C291.151 120.922 291.38 120.891 291.672 120.828V122C291.292 122.104 290.922 122.156 290.562 122.156C289.917 122.156 289.43 121.961 289.102 121.57C288.773 121.18 288.609 120.625 288.609 119.906V114.664H287.07V113.547H288.609V111.5H290.055ZM292.789 117.695C292.789 116.867 292.951 116.122 293.273 115.461C293.602 114.799 294.055 114.289 294.633 113.93C295.216 113.57 295.88 113.391 296.625 113.391C297.776 113.391 298.706 113.789 299.414 114.586C300.128 115.383 300.484 116.443 300.484 117.766V117.867C300.484 118.69 300.326 119.43 300.008 120.086C299.695 120.737 299.245 121.245 298.656 121.609C298.073 121.974 297.401 122.156 296.641 122.156C295.495 122.156 294.565 121.758 293.852 120.961C293.143 120.164 292.789 119.109 292.789 117.797V117.695ZM294.242 117.867C294.242 118.805 294.458 119.557 294.891 120.125C295.328 120.693 295.911 120.977 296.641 120.977C297.375 120.977 297.958 120.69 298.391 120.117C298.823 119.539 299.039 118.732 299.039 117.695C299.039 116.768 298.818 116.018 298.375 115.445C297.938 114.867 297.354 114.578 296.625 114.578C295.911 114.578 295.336 114.862 294.898 115.43C294.461 115.997 294.242 116.81 294.242 117.867ZM309.844 116.93C308.557 116.56 307.62 116.107 307.031 115.57C306.448 115.029 306.156 114.362 306.156 113.57C306.156 112.674 306.513 111.935 307.227 111.352C307.945 110.763 308.878 110.469 310.023 110.469C310.805 110.469 311.5 110.62 312.109 110.922C312.724 111.224 313.198 111.641 313.531 112.172C313.87 112.703 314.039 113.284 314.039 113.914H312.531C312.531 113.227 312.312 112.688 311.875 112.297C311.438 111.901 310.82 111.703 310.023 111.703C309.284 111.703 308.706 111.867 308.289 112.195C307.878 112.518 307.672 112.969 307.672 113.547C307.672 114.01 307.867 114.404 308.258 114.727C308.654 115.044 309.323 115.336 310.266 115.602C311.214 115.867 311.953 116.161 312.484 116.484C313.021 116.802 313.417 117.174 313.672 117.602C313.932 118.029 314.062 118.531 314.062 119.109C314.062 120.031 313.703 120.771 312.984 121.328C312.266 121.88 311.305 122.156 310.102 122.156C309.32 122.156 308.591 122.008 307.914 121.711C307.237 121.409 306.714 120.997 306.344 120.477C305.979 119.956 305.797 119.365 305.797 118.703H307.305C307.305 119.391 307.557 119.935 308.062 120.336C308.573 120.732 309.253 120.93 310.102 120.93C310.893 120.93 311.5 120.768 311.922 120.445C312.344 120.122 312.555 119.682 312.555 119.125C312.555 118.568 312.359 118.138 311.969 117.836C311.578 117.529 310.87 117.227 309.844 116.93ZM317.336 122H315.891V113.547H317.336V122ZM315.773 111.305C315.773 111.07 315.844 110.872 315.984 110.711C316.13 110.549 316.344 110.469 316.625 110.469C316.906 110.469 317.12 110.549 317.266 110.711C317.411 110.872 317.484 111.07 317.484 111.305C317.484 111.539 317.411 111.734 317.266 111.891C317.12 112.047 316.906 112.125 316.625 112.125C316.344 112.125 316.13 112.047 315.984 111.891C315.844 111.734 315.773 111.539 315.773 111.305ZM319.312 117.703C319.312 116.385 319.617 115.339 320.227 114.562C320.836 113.781 321.643 113.391 322.648 113.391C323.68 113.391 324.484 113.755 325.062 114.484L325.133 113.547H326.453V121.797C326.453 122.891 326.128 123.753 325.477 124.383C324.831 125.013 323.961 125.328 322.867 125.328C322.258 125.328 321.661 125.198 321.078 124.938C320.495 124.677 320.049 124.32 319.742 123.867L320.492 123C321.112 123.766 321.87 124.148 322.766 124.148C323.469 124.148 324.016 123.951 324.406 123.555C324.802 123.159 325 122.602 325 121.883V121.156C324.422 121.823 323.633 122.156 322.633 122.156C321.643 122.156 320.841 121.758 320.227 120.961C319.617 120.164 319.312 119.078 319.312 117.703ZM320.766 117.867C320.766 118.82 320.961 119.57 321.352 120.117C321.742 120.659 322.289 120.93 322.992 120.93C323.904 120.93 324.573 120.516 325 119.688V115.828C324.557 115.021 323.893 114.617 323.008 114.617C322.305 114.617 321.755 114.891 321.359 115.438C320.964 115.984 320.766 116.794 320.766 117.867ZM330.008 113.547L330.055 114.609C330.701 113.797 331.544 113.391 332.586 113.391C334.372 113.391 335.273 114.398 335.289 116.414V122H333.844V116.406C333.839 115.797 333.698 115.346 333.422 115.055C333.151 114.763 332.727 114.617 332.148 114.617C331.68 114.617 331.268 114.742 330.914 114.992C330.56 115.242 330.284 115.57 330.086 115.977V122H328.641V113.547H330.008ZM340.977 122.156C339.831 122.156 338.898 121.781 338.18 121.031C337.461 120.276 337.102 119.268 337.102 118.008V117.742C337.102 116.904 337.26 116.156 337.578 115.5C337.901 114.839 338.349 114.323 338.922 113.953C339.5 113.578 340.125 113.391 340.797 113.391C341.896 113.391 342.75 113.753 343.359 114.477C343.969 115.201 344.273 116.237 344.273 117.586V118.188H338.547C338.568 119.021 338.81 119.695 339.273 120.211C339.742 120.721 340.336 120.977 341.055 120.977C341.565 120.977 341.997 120.872 342.352 120.664C342.706 120.456 343.016 120.18 343.281 119.836L344.164 120.523C343.456 121.612 342.393 122.156 340.977 122.156ZM340.797 114.578C340.214 114.578 339.724 114.792 339.328 115.219C338.932 115.641 338.688 116.234 338.594 117H342.828V116.891C342.786 116.156 342.589 115.589 342.234 115.188C341.88 114.781 341.401 114.578 340.797 114.578ZM350.039 114.844C349.82 114.807 349.583 114.789 349.328 114.789C348.38 114.789 347.737 115.193 347.398 116V122H345.953V113.547H347.359L347.383 114.523C347.857 113.768 348.529 113.391 349.398 113.391C349.68 113.391 349.893 113.427 350.039 113.5V114.844Z" fill="white"/>
<defs>
<linearGradient id="paint0_linear" x1="0" y1="0" x2="567.628" y2="45.0818" gradientUnits="userSpaceOnUse">
<stop stop-color="#FF8212"/>
<stop offset="1" stop-color="#ED4454"/>
</linearGradient>
<linearGradient id="paint1_linear" x1="-109.597" y1="259.59" x2="323.654" y2="-109.906" gradientUnits="userSpaceOnUse">
<stop stop-color="#FF8212"/>
<stop offset="1" stop-color="#ED4454"/>
</linearGradient>
<clipPath id="clip0">
<rect width="30" height="30" fill="white" transform="translate(74 191)"/>
</clipPath>
<clipPath id="clip1">
<rect width="23.3333" height="28" fill="white" transform="translate(249.833 41)"/>
</clipPath>
</defs>
</svg>
